<?xml version="1.0" encoding="UTF-8"?>
<svg width="200px" height="150px" viewBox="0 0 200 150" version="1.1" xmlns="http://www.w3.org/2000/svg" xmlns:xlink="http://www.w3.org/1999/xlink">
    <!-- Generator: Sketch 52.5 (67469) - http://www.bohemiancoding.com/sketch -->
    <title>bn</title>
    <desc>Created with Sketch.</desc>
    <g id="Flags" stroke="none" stroke-width="1" fill="none" fill-rule="evenodd">
        <g id="Asia" transform="translate(-70.000000, -250.000000)">
            <g id="bn" transform="translate(70.000000, 250.000000)">
                <polygon id="Path" fill="#F7E017" points="0 0 200 0 200 150 0 150"></polygon>
                <polygon id="Path" fill="#FFFFFF" points="0 10.40625 0 77.09375 200 108.34375 200 72.90625"></polygon>
                <polygon id="Path" fill="#000000" points="0 45.84375 0 77.09375 200 139.59375 200 108.34375"></polygon>
                <g id="Group" transform="translate(49.792166, 31.041822)" fill="#CF1126">
                    <path d="M45.1460591,87.6462716 C41.4893377,87.2424173 37.9711474,86.0174604 34.8543409,84.0629203 C34.3543384,83.7295853 33.8960028,83.4379172 33.8126691,83.4379172 C33.7293353,83.4379172 33.6876684,83.8337525 33.6876684,84.2920881 C33.6876684,85.6254281 33.1459991,86.2920981 31.8126591,86.6462666 C30.5209859,86.9796016 28.5626428,86.3129316 26.9793016,84.9795916 C25.4779043,83.694961 23.7254055,82.7371175 21.8334425,82.1670775 C19.862562,81.6978604 17.7881667,81.9645684 16.00008,82.9170813 C15.8233343,83.0414116 15.6257795,83.1331335 15.4167437,83.1879159 C15.1875759,83.1879159 15.2084094,81.7504088 15.4584106,81.3129066 C15.7709122,80.6879034 16.5209159,80.1045672 17.4167537,79.7920656 C17.8750894,79.6253981 18.2500912,79.4170638 18.2500912,79.3128966 C18.2500912,79.2295628 18.0834238,78.8962278 17.8959228,78.5628928 C17.2917531,77.5003875 17.5417544,76.4795491 18.6042597,75.667045 C19.6875984,74.8337075 21.5209409,74.7087069 23.1251156,75.3128766 C23.3961447,75.4284065 23.6745342,75.5258429 23.9584531,75.6045447 C24.1667875,75.6045447 24.0417869,75.2920431 23.4584506,74.4378722 C22.7917806,73.4587006 22.6459466,72.9795316 22.7292803,71.7920256 C22.8475849,70.2904461 24.0402149,69.0978161 25.5417944,68.9795116 C26.7501337,68.8961778 27.5001375,69.3128466 29.2918131,71.000355 C34.1038644,75.8438762 40.4241127,78.9011126 47.2085694,79.667065 C48.9377447,79.8753994 52.3752619,79.7712322 54.3961053,79.4587306 C60.7979983,78.3905914 66.7334507,75.4301213 71.4378572,70.9586881 C72.7711972,69.7086819 73.3962003,69.3753469 74.5003725,69.3753469 C75.4378772,69.3753469 76.1045472,69.667015 76.7920506,70.4170188 C77.4170537,71.1045222 77.6253881,71.7503588 77.5420544,72.8128641 C77.5003875,73.4795341 77.3962203,73.7920356 77.000385,74.4587056 C76.4170487,75.3962103 76.5212159,75.5003775 77.667055,75.0420419 C79.2503962,74.4170388 81.1879059,74.7087069 82.2295778,75.7087119 C83.1462491,76.5837163 83.2295828,77.4587206 82.5212459,78.6253931 C82.2504112,79.0628953 82.0420769,79.4587306 82.0420769,79.5420644 C82.0420769,79.667065 82.2504112,79.7087319 83.1879159,79.8753994 C84.4379222,80.0837338 85.1670925,81.000405 85.1670925,82.4170788 C85.1670925,82.8337475 85.1045922,83.1879159 85.0420919,83.1879159 C84.9795916,83.1879159 84.5004225,83.000415 84.00042,82.7920806 C82.5420794,82.1879109 81.7087419,82.0420769 80.0004,82.0629103 C78.7087269,82.0629103 78.2712247,82.1254106 77.3753869,82.4170788 C75.8758277,82.9385918 74.4948944,83.7529883 73.3128666,84.8129241 C71.9795266,86.00043 71.1461891,86.3754319 69.8545159,86.3545984 C68.6461766,86.3545984 67.8336725,86.00043 67.3961703,85.3129266 C67.1670025,84.9379247 67.1253356,84.7295903 67.1878359,83.8962528 C67.2295028,83.3545834 67.2086694,82.9170813 67.1878359,82.9170813 C67.1253356,82.9170813 66.667,83.2087494 66.1461641,83.5629178 C64.9569202,84.4156266 63.6611876,85.1090187 62.2919781,85.6254281 C56.8088069,87.6115031 50.9407296,88.3031234 45.1460591,87.6462716 Z" id="Path"></path>
                    <path d="M47.3544034,78.3753919 C39.201545,77.6260816 31.7680118,73.3967884 26.9584681,66.7711672 C21.8751094,59.8544659 20.2917681,50.7085869 21.8334425,42.3543784 C22.66678,38.5418594 24.333455,34.7293403 27.1459691,32.0209934 C24.8273291,36.8327376 24.1891416,42.2830056 25.33346,47.5002375 C27.2084694,57.8752894 35.9585131,66.6461666 46.4377322,68.1670075 C50.6044197,69.3545134 54.8752744,68.0836738 58.8336275,66.8128341 C67.5836712,63.7294853 74.2503712,55.4377772 75.0420419,46.1668975 C75.7295453,41.1668725 74.9795416,35.9376797 72.7086969,31.3751569 C74.00037,32.0626603 75.6253781,34.7501738 76.5837162,36.5418494 C79.9170662,43.000215 80.0629003,50.7294203 78.1045572,57.6252881 C75.4378772,66.3961653 68.7295103,74.0837038 59.8752994,76.8753844 C55.8357825,78.1373744 51.5986452,78.6458309 47.3752369,78.3753919 L47.3544034,78.3753919 Z" id="Path"></path>
                    <g id="a" transform="translate(0.000000, 31.875159)">
                        <path d="M6.87503437,34.9793416 C6.35419844,34.8960078 5.77086219,35.4168438 5.97919656,35.9585131 C6.35419844,36.5001825 7.02086844,36.7918506 7.60420469,37.0418519 C9.14117706,37.6419832 10.7909969,37.8979898 12.4375622,37.7918556 C13.6455809,37.7921422 14.8442935,37.5806047 15.9792466,37.1668525 C16.6042497,36.9585181 17.3959203,36.7501838 17.6459216,36.0418469 C17.9167562,35.6043447 17.4375872,35.1460091 17.000085,35.2293428 C16.3750819,35.3751769 15.7500788,35.6460116 15.1250756,35.8335125 C13.7512786,36.2224633 12.3191752,36.3635572 10.8958878,36.2501813 C9.86004572,36.0994994 8.85030145,35.8049906 7.89587281,35.3751769 C7.56253781,35.2293428 7.25003625,35.0210084 6.87503438,34.9793416 Z" id="Path"></path>
                        <path d="M7.45837062,32.8126641 C6.93753469,32.7293303 6.47919906,33.3543334 6.68753344,33.8543359 C7.10420219,34.4376722 7.79170562,34.7501738 8.43754219,35.0210084 C9.56424931,35.462895 10.7697421,35.6685379 11.9792266,35.6251781 L12.2917281,35.6251781 C13.3203335,35.6295874 14.3397367,35.4313701 15.2917431,35.0418419 C15.8542459,34.8126741 16.5625828,34.5835063 16.8125841,33.9585031 C17.000085,33.6043347 16.8542509,33.1043322 16.3959153,33.0626653 C16.0209134,33.0626653 15.666745,33.3126666 15.2917431,33.4168338 C13.9345807,33.9772886 12.463282,34.2058399 11.000055,34.0835038 C10.0833837,33.9793366 9.22921281,33.6460016 8.39587531,33.2501663 C8.08337375,33.1043322 7.81253906,32.8751644 7.45837062,32.8334975 L7.45837062,32.8126641 Z" id="Path"></path>
                        <path d="M8.18754094,30.7501538 C7.72920531,30.6876534 7.41670375,31.2084894 7.5000375,31.6043247 C7.56253781,31.9793266 7.87503937,32.2293278 8.14587406,32.4376622 C9.28023737,33.2234013 10.6427451,33.6116427 12.0208934,33.5418344 L12.3542284,33.5418344 C13.2205438,33.5354455 14.0745594,33.3361752 14.8542409,32.9584981 C15.3750769,32.7501638 15.9792466,32.4793291 16.1667475,31.8751594 C16.2500812,31.6043247 16.2917481,31.2084894 15.9792466,31.0418219 C15.6459116,30.8751544 15.33341,31.1459891 15.0417419,31.2501563 C14.0452027,31.7737396 12.9382241,32.0522697 11.8125591,32.0626603 C10.8463255,32.0240867 9.90635258,31.7370721 9.08337875,31.2293228 C8.77087719,31.0834888 8.52087594,30.8126541 8.18754094,30.7501538 Z" id="Path"></path>
                        <path d="M0.520835937,0.145834062 C-0.145834062,0.8333375 0.375001875,2.08334375 0.312501562,2.95834812 C0.687503438,5.70836187 1.12500562,8.47920906 2.14584406,11.0833887 C3.39585031,13.5834012 6.06253031,14.9375747 7.666705,17.1667525 C8.25004125,18.2292578 8.04170687,19.5209309 8.1667075,20.7084369 C8.25004125,23.8959528 8.22920781,27.1043022 8.1667075,30.2918181 C9.62504812,31.0418219 11.1875559,31.7501588 12.8542309,31.4793241 C13.8334025,31.2501562 15.666745,31.1043222 15.8750794,30.1251506 L15.666745,13.5625678 C15.1042422,11.8750594 13.3750669,11.000055 12.1042272,9.91671625 C11.04202,8.86814008 10.053549,7.74740893 9.14587906,6.56253281 C8.60420969,5.62502812 6.45836562,5.31252656 7.22920281,6.89586781 C7.68753844,8.29170812 8.8333775,9.31254656 9.12504562,10.7708872 C9.18754594,11.5833912 10.1667175,13.0625653 9.33338,13.5209009 C8.82011778,12.6154107 8.04229761,11.8884759 7.10420219,11.4375572 C6.18753094,10.7500537 4.66669,10.4583856 4.333355,9.25004625 C4.03320403,7.53132691 3.23656176,5.93804238 2.04167687,4.66669 C2.35417844,3.12501562 2.04167687,1.18750594 0.708336875,0.187500937 L0.520835937,0.145834062 Z" id="Path"></path>
                        <path d="M2.58334625,0.458335625 C1.95834312,0.562502812 2.00001,1.33334 2.27084469,1.75000875 C2.57964399,2.64672977 2.65844045,3.60661388 2.5000125,4.54168937 C3.6424529,5.81379747 4.40724851,7.37946396 4.70835687,9.06254531 C4.70835687,9.68754844 5.37502687,9.89588281 5.81252906,10.2083844 C6.8333675,10.8542209 7.95837312,11.33339 8.87504438,12.1458941 C9.06254531,12.3542284 9.20837938,12.5625628 9.08337875,12.1458941 C8.93754469,11.6042247 8.87504438,11.0208884 8.45837563,10.6250531 C7.87503938,10.00005 7.1667025,9.45838062 6.333365,9.29171312 C6.27086469,8.41670875 5.85419594,7.62503812 5.47919406,6.87503437 C5.06252531,6.14586406 4.62502312,5.37502687 3.91668625,4.91669125 C3.91668625,3.64585156 3.91668625,2.31251156 3.37501687,1.12500562 C3.20834937,0.8333375 2.95834812,0.479169062 2.58334625,0.458335625 Z" id="Path"></path>
                        <path d="M4.31252156,0.958338125 C3.89585281,1.08333875 3.97918656,1.62500813 4.10418719,1.93750969 C4.28615303,2.84216758 4.35612344,3.76577708 4.31252156,4.68752344 C5.12502562,5.31252656 5.60419469,6.22919781 6.06253031,7.10420219 C6.35419844,7.68753844 6.60419969,8.31254156 6.70836687,8.95837812 C7.35420344,9.1667125 7.91670625,9.58338125 8.41670875,10.00005 C8.20837437,9.41671375 7.79170562,8.95837812 7.47920406,8.39587531 C7.1667025,7.8333725 6.85420094,7.22920281 6.70836687,6.58336625 C6.08336375,5.93752969 5.75002875,5.000025 5.87502937,4.08335375 C5.91669625,3.10418219 5.60419469,2.08334375 4.93752469,1.33334 C4.77085719,1.1666725 4.56252281,0.979171562 4.31252156,0.958338125 Z" id="Path"></path>
                        <path d="M6.29169812,1.25000625 C6.04169687,1.29167312 5.91669625,1.5000075 5.79169563,1.68750844 C5.72919531,1.87500938 5.95836313,2.06251031 6.00003,2.27084469 C6.27222342,2.95854777 6.37234676,3.70232114 6.29169813,4.43752219 C6.27086469,4.95835813 6.45836563,5.47919406 6.70836688,5.89586281 C6.80425666,5.5672175 7.09585864,5.33393592 7.43753719,5.31252656 C7.54170438,5.31252656 7.72920531,5.35419344 7.64587156,5.1666925 C7.56253781,4.1666875 7.41670375,3.1666825 7.06253531,2.25001125 C6.95991477,1.88896254 6.75776462,1.56407838 6.47919906,1.31250656 C6.43753219,1.27083969 6.35419844,1.22917281 6.27086469,1.25000625 L6.29169812,1.25000625 Z" id="Path"></path>
                    </g>
                    <g id="a-link" transform="translate(91.458791, 50.833588) scale(-1, 1) translate(-91.458791, -50.833588) translate(82.500412, 31.875159)">
                        <g id="a">
                            <path d="M6.87503438,34.9793416 C6.35419844,34.8960078 5.77086219,35.4168438 5.97919656,35.9585131 C6.35419844,36.5001825 7.02086844,36.7918506 7.60420469,37.0418519 C9.14117706,37.6419832 10.7909969,37.8979898 12.4375622,37.7918556 C13.6455809,37.7921422 14.8442935,37.5806047 15.9792466,37.1668525 C16.6042497,36.9585181 17.3959203,36.7501838 17.6459216,36.0418469 C17.9167563,35.6043447 17.4375872,35.1460091 17.000085,35.2293428 C16.3750819,35.3751769 15.7500788,35.6460116 15.1250756,35.8335125 C13.7512786,36.2224633 12.3191752,36.3635572 10.8958878,36.2501813 C9.86004572,36.0994994 8.85030145,35.8049906 7.89587281,35.3751769 C7.56253781,35.2293428 7.25003625,35.0210084 6.87503438,34.9793416 Z" id="Path"></path>
                            <path d="M7.45837062,32.8126641 C6.93753469,32.7293303 6.47919906,33.3543334 6.68753344,33.8543359 C7.10420219,34.4376722 7.79170562,34.7501738 8.43754219,35.0210084 C9.56424931,35.462895 10.7697421,35.6685379 11.9792266,35.6251781 L12.2917281,35.6251781 C13.3203335,35.6295874 14.3397367,35.4313701 15.2917431,35.0418419 C15.8542459,34.8126741 16.5625828,34.5835063 16.8125841,33.9585031 C17.000085,33.6043347 16.8542509,33.1043322 16.3959153,33.0626653 C16.0209134,33.0626653 15.666745,33.3126666 15.2917431,33.4168338 C13.9345807,33.9772886 12.463282,34.2058399 11.000055,34.0835038 C10.0833837,33.9793366 9.22921281,33.6460016 8.39587531,33.2501663 C8.08337375,33.1043322 7.81253906,32.8751644 7.45837062,32.8334975 L7.45837062,32.8126641 Z" id="Path"></path>
                            <path d="M8.18754094,30.7501538 C7.72920531,30.6876534 7.41670375,31.2084894 7.5000375,31.6043247 C7.56253781,31.9793266 7.87503937,32.2293278 8.14587406,32.4376622 C9.28023737,33.2234013 10.6427451,33.6116427 12.0208934,33.5418344 L12.3542284,33.5418344 C13.2205438,33.5354455 14.0745594,33.3361752 14.8542409,32.9584981 C15.3750769,32.7501638 15.9792466,32.4793291 16.1667475,31.8751594 C16.2500812,31.6043247 16.2917481,31.2084894 15.9792466,31.0418219 C15.6459116,30.8751544 15.33341,31.1459891 15.0417419,31.2501563 C14.0452027,31.7737396 12.9382241,32.0522697 11.8125591,32.0626603 C10.8463255,32.0240867 9.90635258,31.7370721 9.08337875,31.2293228 C8.77087719,31.0834888 8.52087594,30.8126541 8.18754094,30.7501538 Z" id="Path"></path>
                            <path d="M0.520835938,0.145834062 C-0.145834062,0.8333375 0.375001875,2.08334375 0.312501563,2.95834812 C0.687503438,5.70836187 1.12500562,8.47920906 2.14584406,11.0833888 C3.39585031,13.5834013 6.06253031,14.9375747 7.666705,17.1667525 C8.25004125,18.2292578 8.04170687,19.5209309 8.1667075,20.7084369 C8.25004125,23.8959528 8.22920781,27.1043022 8.1667075,30.2918181 C9.62504812,31.0418219 11.1875559,31.7501588 12.8542309,31.4793241 C13.8334025,31.2501562 15.666745,31.1043222 15.8750794,30.1251506 L15.666745,13.5625678 C15.1042422,11.8750594 13.3750669,11.000055 12.1042272,9.91671625 C11.04202,8.86814008 10.053549,7.74740893 9.14587906,6.56253281 C8.60420969,5.62502812 6.45836562,5.31252656 7.22920281,6.89586781 C7.68753844,8.29170812 8.8333775,9.31254656 9.12504562,10.7708872 C9.18754594,11.5833912 10.1667175,13.0625653 9.33338,13.5209009 C8.82011778,12.6154107 8.04229761,11.8884759 7.10420219,11.4375572 C6.18753094,10.7500537 4.66669,10.4583856 4.333355,9.25004625 C4.03320403,7.53132691 3.23656176,5.93804238 2.04167687,4.66669 C2.35417844,3.12501562 2.04167687,1.18750594 0.708336875,0.187500937 L0.520835937,0.145834062 Z" id="Path"></path>
                            <path d="M2.58334625,0.458335625 C1.95834312,0.562502812 2.00001,1.33334 2.27084469,1.75000875 C2.57964399,2.64672977 2.65844045,3.60661388 2.5000125,4.54168937 C3.6424529,5.81379747 4.40724851,7.37946396 4.70835687,9.06254531 C4.70835687,9.68754844 5.37502687,9.89588281 5.81252906,10.2083844 C6.8333675,10.8542209 7.95837312,11.33339 8.87504438,12.1458941 C9.06254531,12.3542284 9.20837938,12.5625628 9.08337875,12.1458941 C8.93754469,11.6042247 8.87504438,11.0208884 8.45837563,10.6250531 C7.87503938,10.00005 7.1667025,9.45838062 6.333365,9.29171312 C6.27086469,8.41670875 5.85419594,7.62503812 5.47919406,6.87503437 C5.06252531,6.14586406 4.62502312,5.37502687 3.91668625,4.91669125 C3.91668625,3.64585156 3.91668625,2.31251156 3.37501687,1.12500562 C3.20834937,0.8333375 2.95834812,0.479169062 2.58334625,0.458335625 Z" id="Path"></path>
                            <path d="M4.31252156,0.958338125 C3.89585281,1.08333875 3.97918656,1.62500813 4.10418719,1.93750969 C4.28615303,2.84216758 4.35612344,3.76577708 4.31252156,4.68752344 C5.12502562,5.31252656 5.60419469,6.22919781 6.06253031,7.10420219 C6.35419844,7.68753844 6.60419969,8.31254156 6.70836687,8.95837812 C7.35420344,9.1667125 7.91670625,9.58338125 8.41670875,10.00005 C8.20837437,9.41671375 7.79170562,8.95837812 7.47920406,8.39587531 C7.1667025,7.8333725 6.85420094,7.22920281 6.70836687,6.58336625 C6.08336375,5.93752969 5.75002875,5.000025 5.87502937,4.08335375 C5.91669625,3.10418219 5.60419469,2.08334375 4.93752469,1.33334 C4.77085719,1.1666725 4.56252281,0.979171562 4.31252156,0.958338125 Z" id="Path"></path>
                            <path d="M6.29169812,1.25000625 C6.04169688,1.29167312 5.91669625,1.5000075 5.79169563,1.68750844 C5.72919531,1.87500938 5.95836313,2.06251031 6.00003,2.27084469 C6.27222342,2.95854777 6.37234676,3.70232114 6.29169813,4.43752219 C6.27086469,4.95835813 6.45836563,5.47919406 6.70836688,5.89586281 C6.80425666,5.5672175 7.09585864,5.33393592 7.43753719,5.31252656 C7.54170438,5.31252656 7.72920531,5.35419344 7.64587156,5.1666925 C7.56253781,4.1666875 7.41670375,3.1666825 7.06253531,2.25001125 C6.95991477,1.88896254 6.75776462,1.56407838 6.47919906,1.31250656 C6.43753219,1.27083969 6.35419844,1.22917281 6.27086469,1.25000625 L6.29169812,1.25000625 Z" id="Path"></path>
                        </g>
                    </g>
                    <path d="M49.3127466,68.1253406 C46.439539,67.8146287 44.0084693,65.8632685 43.0835488,63.1253156 C43.1460491,62.66698 43.7085519,63.3753169 43.9793866,63.4378172 C44.4874958,63.740632 45.0570102,63.9257242 45.6460616,63.9794866 C46.3752319,64.2919881 46.8335675,65.0211584 47.5419044,65.4169938 C47.8752394,65.666995 49.0419119,66.1669975 48.8127441,65.3544934 C48.5419094,64.9378247 48.3544084,64.3961553 48.6044097,63.8961528 C48.9794116,63.0419819 49.5835813,62.2919781 50.2085844,61.5628078 C50.6460866,61.4169738 50.9585881,62.3128116 51.2710897,62.6044797 C51.7085919,63.2919831 52.2502613,64.1253206 51.9794266,64.9586581 C51.7294253,65.2711597 51.5627578,66.2086644 52.2502613,65.9169963 C53.0835988,65.5419944 53.7711022,64.9169913 54.4586056,64.333655 C55.0836088,63.9169863 55.8544459,63.8961528 56.4794491,63.5003175 C56.7919506,63.4378172 57.3961203,62.8544809 57.5211209,63.1669825 C57.1479767,64.0983028 56.6274346,64.9635282 55.9794466,65.7294953 C54.9776061,66.9187875 53.5926308,67.7217785 52.0627603,68.00034 C51.1460891,68.1670075 50.2294178,68.2086744 49.3127466,68.1253406 Z" id="Path"></path>
                    <path d="M52.6044297,64.8336575 C52.66693,64.2711547 52.5419294,63.7086519 52.2502612,63.1669825 C51.8127591,62.2919781 51.2085894,61.5003075 50.5835862,60.6878034 C50.00025,60.3544684 49.6877484,61.4586406 49.3127466,61.7711422 C48.7085769,62.66698 47.9585731,63.5836513 47.9169062,64.6878234 C47.5835712,65.2086594 46.9585681,64.2711547 46.6877334,63.9586531 C46.1325714,63.2449534 45.8384862,62.3626977 45.8543959,61.4586406 C45.8040543,59.9915449 46.0594665,58.5300196 46.6043997,57.1669525 C47.0210684,56.00028 47.666905,54.8752744 47.6044047,53.6252681 C47.6460716,52.6460966 47.4585706,51.6044247 46.6877334,50.9585881 C45.9377297,50.3752519 47.1669025,50.2502513 47.5419044,50.5419194 C48.2085744,50.6044197 48.5627428,51.6877584 49.1669125,51.4169237 C49.3960803,50.8544209 49.4585806,50.1669175 49.9585831,49.7294153 C50.4377522,49.0627453 50.9377547,50.00025 51.1044222,50.4585856 C51.4585906,50.8335875 51.1044222,51.8127591 51.6460916,51.8335925 C52.3127616,51.3544234 52.7919306,50.5835862 53.6461016,50.3960853 C54.00027,50.1877509 54.5836062,50.3960853 54.1252706,50.7710872 C53.5002675,51.3752569 52.9585981,52.1044272 52.8335975,53.000265 C52.6460966,54.1044372 52.9169312,55.2294428 53.3961003,56.2086144 C54.333605,58.1669575 55.0627753,60.3753019 54.5836062,62.5628128 C54.3752719,63.5211509 53.7086019,64.3544884 52.9169312,64.9169912 C52.8127641,64.9794916 52.6460966,64.9794916 52.6044297,64.8336575 Z" id="Path"></path>
                    <path d="M51.6044247,50.1252506 C51.3239306,49.5615336 50.9261482,49.0643055 50.4377522,48.66691 C49.9377497,48.66691 49.6252481,49.2919131 49.2919131,49.6252481 C49.0627453,50.0627503 48.7710772,50.7919206 48.1877409,50.2294178 C47.2502363,49.6877484 47.1044022,48.5002425 47.1044022,47.5210709 C47.0419019,45.9377297 47.6877384,44.4585556 48.2502412,43.0210484 C48.6044097,42.1252106 48.5210759,41.1043722 48.2919081,40.1877009 C48.0210734,39.1460291 47.1669025,38.3960253 46.5210659,37.5626878 C46.5627328,37.2501862 47.3960703,37.4168537 47.7085719,37.4793541 C48.4169088,37.666855 48.8335775,38.2710247 49.3544134,38.7293603 C49.7294153,38.6043597 49.5627478,37.8543559 49.7502487,37.5001875 C49.7502487,37.000185 50.4169188,36.3543484 50.6877534,37.0626853 C51.1044222,37.5210209 50.6877534,38.4168587 51.2085894,38.6876934 C51.7085919,38.5001925 51.9585931,37.9585231 52.4169287,37.7085219 C52.9036188,37.3935491 53.5190143,37.3541006 54.0419369,37.6043547 C54.2294378,38.0626903 53.5002675,38.4376922 53.2919331,38.8543609 C52.4474009,39.9076725 52.1535529,41.2995837 52.5002625,42.6043797 C52.7919306,43.6460516 53.2919331,44.5835563 53.4794341,45.6252281 C53.7044146,46.8131441 53.6688741,48.0357386 53.3752669,49.2085794 C53.1877659,49.9169162 52.5835962,50.3752519 51.9585931,50.66692 C51.7919256,50.5210859 51.7085919,50.3127516 51.6044247,50.1252506 Z" id="Path"></path>
                    <path d="M48.4585756,37.0626853 C47.7502387,36.5418494 47.5210709,36.0626803 47.5210709,35.0835088 C47.5210709,34.6043397 47.6252381,34.333505 47.9377397,33.8751694 C48.4377422,33.2084994 48.3544084,33.000165 47.666905,33.1876659 C46.5627328,33.5001675 46.0418969,33.2293328 46.00023,32.2918281 C46.00023,31.8334925 46.0835637,31.6459916 46.6877334,30.8959878 C47.1877359,30.3126516 47.3752369,30.00015 47.2710697,29.8959828 C47.1669025,29.8126491 46.5835662,30.3126516 45.3960603,31.5209909 C44.6514216,32.3061204 43.8581883,33.0436882 43.0210484,33.7293353 C40.9793716,35.1043422 39.0210284,35.3126766 38.1251906,34.2501712 C37.666855,33.7085019 37.6876884,33.4168337 38.2085244,33.0834987 C38.5402661,32.8594077 38.8475139,32.6010402 39.1251956,32.3126616 C40.1462627,31.3803777 41.2718146,30.569421 42.4793791,29.8959828 C43.2293828,29.5209809 43.3960503,29.2709797 42.9168812,29.2709797 C42.2918781,29.2709797 40.3127016,30.5626528 38.7918606,31.9376597 C38.3543584,32.3543284 37.7085219,32.8126641 37.3751869,32.9793316 C36.4482058,33.3174023 35.4451667,33.3895634 34.4793391,33.1876659 C34.0210034,33.0418319 33.1668325,32.2501612 33.1668325,31.9584931 C33.1668325,31.8959928 33.3751669,31.7293253 33.5835013,31.5834912 C33.9230472,31.3916539 34.2438925,31.1684572 34.5418394,30.9168212 C35.7501788,29.8751494 38.0418569,28.7709772 39.8543659,28.3751419 C40.4377022,28.2709747 40.2085344,27.9584731 39.5626978,28.00014 C37.6503944,28.3653492 35.8598862,29.203307 34.3543384,30.4376522 C32.6251631,31.8751594 30.0209834,31.7293253 29.1876459,30.1668175 C29.0418119,29.8959828 28.9376447,29.6459816 28.9793116,29.6043147 C30.4550095,29.2318206 31.8815603,28.6863748 33.2293328,27.9793066 C34.3901035,27.295145 35.6693551,26.8357452 37.000185,26.6251331 C37.5835213,26.5209659 37.6251881,26.2292978 37.0626853,26.1667975 C36.3126816,26.0834637 35.1876759,26.4584656 33.2084994,27.4168037 C30.6459866,28.6876434 29.9168163,28.9168112 28.5834763,28.8334775 C27.33347,28.7501437 26.6459666,28.4376422 25.666795,27.5001375 C25.000125,26.8751344 24.0834538,25.3126266 24.2501213,25.1251256 C25.3317273,25.3525539 26.437571,25.4435411 27.5418044,25.3959603 C29.2709797,25.3959603 29.7501488,25.3542934 30.66682,25.0834588 C32.4575864,24.5159904 34.145713,23.6648932 35.666845,22.5626128 C37.8112198,20.7485682 40.5248437,19.7457071 43.33355,19.7292653 C45.9168962,19.7292653 47.5419044,20.3126016 49.000245,21.7917756 C49.5002475,22.2917781 49.9169162,22.6042797 49.9794166,22.5417794 C50.0419169,22.4792791 50.1044172,21.6042747 50.1252506,20.6042697 C50.1252506,20.6042697 50.8960878,20.5209359 51.0627553,20.7501037 C51.0627553,22.3542784 51.0627553,22.5001125 51.3127566,22.5001125 C51.4585906,22.5001125 51.6252581,22.333445 51.7294253,22.0834437 C51.9377597,21.5626078 52.7710972,20.8334375 53.6461016,20.3751019 C55.5211109,19.4375972 58.7919606,19.3959303 61.4169738,20.3126016 C62.6719216,20.7887598 63.8455581,21.4563974 64.8961578,22.2917781 C66.4288667,23.3697436 68.1141851,24.2124028 69.8961828,24.7917906 C71.3128566,25.2084594 73.8545359,25.3126266 75.1253756,25.000125 C75.4971107,24.914071 75.8724819,24.8445578 76.2503812,24.7917906 C76.7295503,24.7917906 75.9170462,26.3751319 74.9587081,27.3126366 C73.2086994,29.0209784 70.9378547,29.000145 67.7503387,27.2918031 C65.7503287,26.2084644 63.3753169,25.6251281 63.3753169,26.2084644 C63.3753169,26.333465 63.5003175,26.4167988 63.6878184,26.4167988 C64.3753219,26.4167988 65.7086619,26.8751344 67.5836712,27.7709722 C68.7616508,28.4503153 70.0536129,28.9092089 71.3961903,29.1251456 C71.8753594,29.1251456 71.8961928,29.4376472 71.4378572,30.1043172 C70.9586881,30.8126541 70.1461841,31.1459891 69.000345,31.1459891 C67.8961728,31.1459891 67.2711697,30.9168212 66.2919981,30.1043172 C64.6253231,28.7293103 60.5419694,27.1876359 60.6878034,28.0209734 C60.7294703,28.1668075 60.9169712,28.2709747 61.3544734,28.333475 C63.1139972,28.7157644 64.761158,29.5001267 66.1669975,30.6251531 L67.3961703,31.5209909 C67.6253381,31.6459916 67.6253381,31.6876584 67.4378372,32.0418269 C67.1461691,32.6251631 66.3544984,33.0626653 65.5211609,33.1459991 C64.4378222,33.2709997 63.4794841,32.9376647 62.5003125,32.1043272 C60.4169687,30.3751519 58.4794591,29.1251456 57.8544559,29.1251456 C57.33362,29.1251456 57.5627878,29.4168137 58.4794591,29.8959828 C59.6652563,30.5240614 60.7705457,31.2935667 61.7711422,32.1876609 C62.1878109,32.5834962 62.66698,32.9584981 62.8128141,33.0418319 C63.2086494,33.2501662 63.1878159,33.5418344 62.7711472,34.0835037 C62.3544784,34.6251731 61.6461416,34.8751744 60.7503038,34.7710072 C58.9586281,34.5835063 57.5419544,33.7293353 55.33361,31.4376572 C54.8085009,30.851208 54.2372238,30.307798 53.6252681,29.8126491 C53.3336,29.8126491 53.5211009,30.2084844 54.0836038,30.8543209 C54.7919406,31.6251581 54.9169413,32.0626603 54.6461066,32.7293303 C54.4169388,33.2709997 54.0211034,33.4168338 53.2294328,33.1876659 C52.3960953,32.9793316 52.2710947,33.1876659 52.8127641,33.8335025 C53.6044347,34.8543409 53.5002675,36.0626803 52.5002625,36.9168513 C52.2934239,37.1160723 52.0538066,37.2781664 51.7919256,37.3960203 C51.7085919,37.3960203 51.5002575,37.1876859 51.3127566,36.8960178 C50.6877534,35.9376797 50.1252506,35.9376797 49.5002475,36.8960178 C49.3684063,37.108966 49.2294381,37.3174182 49.0835788,37.5210209 C48.8727456,37.3716793 48.6643831,37.2188801 48.4585756,37.0626853 Z" id="Path"></path>
                    <polygon id="Path" points="51.6044247 17.5000875 50.5210859 18.333425 49.5627478 17.6250881 49.5627478 23.4167838 51.6044247 23.4167838"></polygon>
                    <path d="M44.9793916,11.5208909 C44.7899174,13.863126 44.1534411,16.1473689 43.1043822,18.2500913 L45.4168937,16.1042472 L47.0210684,18.0209234 L48.7710772,16.0625803 L50.5419194,17.7292553 L52.2502612,16.00008 L54.0211034,18.0834238 L55.5627778,16.3750819 L58.1877909,18.2500913 C57.2294528,16.1667475 55.9586131,14.3750719 56.1044472,11.4167238 C53.5836012,13.2917331 47.5627378,13.6250681 44.9793916,11.5000575 L44.9793916,11.5208909 Z" id="Path"></path>
                    <path d="M49.5835812,10.1250506 C48.6460766,10.1250506 47.666905,10.1458841 46.7919006,10.333385 C46.2124253,10.4255692 45.6587914,10.6385053 45.1668925,10.9583881 C45.2293928,12.7500638 53.7086019,13.4792341 55.9794466,11.000055 C55.4684009,10.6463451 54.8847,10.4114411 54.2711047,10.3125516 C53.4377672,10.1458841 52.4794291,10.1458841 51.5835913,10.1042172 L51.5835913,11.5833912 L49.5835812,11.5833912 L49.5835812,10.1250506 Z" id="Path"></path>
                    <polygon id="Path" points="51.2294228 1.04167188 49.9169162 1.04167188 49.9169162 11.33339 51.2502562 11.33339"></polygon>
                    <path d="M51.2294228,1.29167312 L50.7294203,6.22919781 L55.7919456,8.70837687 L53.2294328,5.27085969 L56.7294503,4.12502062 L51.2294228,1.29167312 Z M50.66692,0.0208334375 C49.8960828,0.0208334375 49.33358,0.312501562 49.33358,0.645836562 C49.33358,0.979171562 49.8960828,1.27083969 50.66692,1.27083969 C51.4377572,1.27083969 52.00026,0.979171562 52.00026,0.645836562 C52.00026,0.312501562 51.4377572,0.0208334375 50.66692,0.0208334375 Z" id="Shape" fill-rule="nonzero"></path>
                </g>
                <g id="Group" transform="translate(73.437500, 84.062500)" fill="#F7E017" fill-rule="nonzero">
                    <path d="M24.6875,33.40625 C25.53125,33.125 26,32.625 26.34375,31.65625 C26.5,31.15625 26.625,30.65625 26.59375,30.53125 C26.53125,30.21875 26.15625,30.21875 25.78125,30.5625 C25.5,30.78125 25.46875,30.90625 25.53125,31.375 C25.75,32.53125 25.3125,32.84375 23.125,33.0625 C22.90625,33.0625 22.25,33.0625 21.71875,32.96875 C20.65625,32.84375 20.28125,32.96875 20.65625,33.28125 C20.858121,33.4103072 21.0798234,33.5053225 21.3125,33.5625 C21.90625,33.71875 24.0625,33.625 24.6875,33.40625 Z M29.28125,33.21875 C29.40625,33.09375 29.8125,32.90625 30.21875,32.75 C30.75,32.59375 31.03125,32.4375 31.25,32.0625 C31.90625,31.125 31.78125,30.28125 30.84375,29.15625 C30.3125,28.53125 30.09375,28.5625 29.6875,29.25 C29.3125,29.8125 29.34375,29.875 29.84375,30 C30.125,30.0625 30.375,30.25 30.5,30.5 C31.0625,31.46875 30.90625,32.0625 30.0625,32.0625 C29.3125,32.0625 29.125,32.1875 28.90625,32.6875 L28.71875,33.28125 C28.71875,33.46875 29.03125,33.4375 29.28125,33.21875 Z M27.78125,32.125 C27.90625,31.71875 27.96875,31.03125 27.9375,29.625 C27.9711946,28.9568706 27.9397967,28.2870478 27.84375,27.625 C27.71875,27.5 27.125,27.875 27.03125,28.15625 C27.0000999,28.3868099 27.0557918,28.6207158 27.1875,28.8125 C27.375,29.1875 27.40625,29.5625 27.34375,31 C27.25,32.875 27.375,33.1875 27.78125,32.125 Z" id="Shape"></path>
                    <path d="M24.25,31.25 L24.46875,29.6875 C24.5,29.15625 24.625,28.5 24.6875,28.21875 C24.90625,27.5 24.6875,27.3125 24.125,27.71875 L23.71875,28.03125 L23.78125,29.0625 C23.875,30 23.71875,31.71875 23.5,32.40625 C23.4375,32.59375 23.53125,32.53125 23.78125,32.25 C23.96875,32.03125 24.1875,31.5625 24.25,31.21875 L24.25,31.25 Z M21.125,31.75 C21.875,31.125 21.78125,30 21.96875,29.125 C21.96875,28.53125 22.34375,27.84375 22.09375,27.3125 C21.375,27.4375 20.9375,28.125 21.3125,28.78125 C21.3125,29.5625 21.3125,30.40625 20.90625,31.09375 C20.59375,31.5625 19.53125,31.4375 19.59375,30.78125 C19.84375,29.84375 18.6875,30.3125 18.25,30.5625 C17.90625,30.8125 17.15625,30.84375 17.4375,30.25 C17.25,29.40625 16.21875,29.9375 15.65625,29.9375 C15.125,29.9375 15.625,28.84375 14.84375,29 C13.4375,28.90625 11.875,29.03125 10.625,28.1875 C9.90625,27.84375 10,26.96875 10.40625,26.40625 C10.84375,25.65625 10.96875,24.6875 11.65625,24.09375 C12.375,23.4375 11.03125,23.71875 10.71875,23.9375 C10.03125,24.3125 10.65625,25.28125 10.09375,25.8125 C9.78125,26.375 9.34375,27.125 8.59375,27.03125 C7.5,26.8125 6.875,25.78125 6.09375,25.15625 C5.40625,25 5.78125,26.21875 6.15625,26.46875 C6.84906944,26.9865075 7.63375335,27.3682456 8.46875,27.59375 C9.28125,27.4375 9.3125,28.53125 10.03125,28.6875 C11.28125,29.3125 12.71875,29.46875 14.125,29.5625 C14.6875,29.59375 14.375,30.59375 15.09375,30.375 C15.5,30.5 16.4375,30.21875 16.46875,30.6875 C15.84375,31.4375 17.0625,31.40625 17.5,31.3125 C18.09375,31.1875 18.8125,31 18.96875,31.75 C19.4375,32.28125 20.3125,32.1875 20.90625,31.90625 L21.125,31.75 Z" id="Shape"></path>
                    <path d="M8.6875,25.4375 C8.98124551,25.026491 9.23253228,24.5867392 9.4375,24.125 C9.59650122,23.7246422 9.80657425,23.3465108 10.0625,23 C10.4375,22.625 10.21875,22.375 9.625,22.5 C9.3125,22.5625 9.1875,22.6875 9.15625,22.96875 C9.01615949,23.7354522 8.75229789,24.4742647 8.375,25.15625 C7.84375,25.9375 7.84375,25.96875 8.0625,25.96875 C8.15625,25.96875 8.4375,25.71875 8.6875,25.4375 Z M0.875,20.53125 C0.28125,20.53125 0.25,20.90625 0.8125,21.09375 C1.125,21.1875 1.34375,21.40625 1.53125,21.8125 C2.0625,22.90625 2.40625,23.125 3.875,23.25 L4.8125,23.3125 L4.875,23.90625 C4.875,24.21875 4.96875,24.46875 5.03125,24.46875 L5.84375,24.15625 C6.53125,23.78125 7.1875,22.96875 7.1875,22.4375 C7.1875,22.125 6.625,21.75 6.125,21.75 C5.90625,21.75 5.5,21.9375 5.15625,22.1875 C4.09375,22.9375 2.96875,22.8125 2.34375,21.8125 C1.875,21 1.34375,20.5625 0.875,20.5625 L0.875,20.53125 Z M5.96875,22.5625 C6.25,22.5625 6.28125,22.78125 6.15625,23.1875 C6.11690835,23.3005492 6.01032416,23.3763113 5.890625,23.3763113 C5.77092584,23.3763113 5.66434165,23.3005492 5.625,23.1875 C5.5,22.875 5.65625,22.5625 5.9375,22.5625 L5.96875,22.5625 Z M45.5,21.3125 C45.09375,21.3125 45,21.375 44.75,21.75 C44.34375,22.34375 44.3125,23.625 44.6875,24.0625 C44.90625,24.34375 44.9375,24.34375 45.40625,24.125 C46.09375,23.84375 46.21875,23.875 46.1875,24.21875 C46.1875,25.15625 44.875,26.9375 43.5,27.875 C43.2178726,28.0414414 42.9645883,28.2525117 42.75,28.5 C42.65625,28.75 43.15625,28.71875 43.78125,28.375 C44.816097,27.7815421 45.6696055,26.9172297 46.25,25.875 C46.59375,25.15625 46.65625,24.9375 46.71875,23.6875 C46.71875,22.5 46.71875,22.125 46.53125,21.75 C46.28125,21.3125 46.21875,21.28125 45.65625,21.28125 L45.5,21.28125 L45.5,21.3125 Z M45.53125,22.09375 C45.84375,22.09375 45.84375,22.15625 45.90625,22.59375 C45.90625,22.90625 45.875,23.125 45.6875,23.3125 C45.4375,23.53125 45.375,23.53125 45.1875,23.1875 C44.875,22.6875 45.0625,22.09375 45.53125,22.09375 Z M39.21875,31 C40.4375,30.375 41.15625,29.71875 41.59375,28.75 C41.7561123,28.4390559 41.8920089,28.1149949 42,27.78125 C42,27.59375 41.40625,27.3125 41.0625,27.3125 C40.71875,27.3125 40.625,27.0625 40.75,26.375 C40.90625,25.71875 40.75,24.875 40.4375,24.875 C40.34375,24.875 40.125,25.03125 40.03125,25.21875 C39.84375,25.53125 39.8125,25.65625 39.96875,26.0625 C40.1875,26.6875 40,27.1875 39.4375,27.59375 C39.15625,27.78125 39.03125,28 39.03125,28.21875 L39.0625,28.53125 L39.71875,28.21875 L40.34375,27.84375 L40.6875,28.15625 C40.90625,28.28125 41.0625,28.53125 41.0625,28.6875 C41.0625,29.4375 38.9375,30.6875 37.5,30.8125 C36.71875,30.875 36.5625,30.8125 36.3125,30.5625 C36.09375,30.34375 36.03125,30.15625 36.09375,29.9375 L36.25,29.125 C36.375,28.46875 36.125,28.5625 35.625,29.3125 C35.25,29.9375 35.125,30.59375 35.34375,30.9375 C35.53125,31.25 36.71875,31.5 37.59375,31.4375 C38.125,31.4375 38.65625,31.28125 39.21875,31 Z M47.34375,26.46875 C48.09375,25.6875 48.4375,24.75 48.4375,23.34375 L48.4375,22.25 L49.0625,21.9375 C49.90625,21.5625 50.6875,20.78125 50.6875,20.34375 C50.6875,19.90625 50.46875,19.90625 50.125,20.40625 C49.84375,20.75 49.5,20.96875 48.25,21.5625 C47.9375,21.6875 47.90625,21.78125 47.8125,23.125 C47.75,24.6875 47.5,25.25 46.65625,26.3125 C46.125,26.9375 46.09375,27.0625 46.46875,27.0625 C46.625,27.0625 47.03125,26.78125 47.34375,26.4375 L47.34375,26.46875 Z M39,25.59375 C39.0625,25.375 38.625,25.21875 38.46875,25.40625 C38.375,25.46875 38.34375,25.59375 38.40625,25.6875 C38.53125,25.875 38.90625,25.8125 39,25.59375 Z M50.5,22.625 C50.59375,22.375 50.15625,22.21875 49.96875,22.40625 C49.90625,22.5 49.875,22.625 49.9375,22.71875 C50.0625,22.90625 50.4375,22.84375 50.5,22.625 Z M36.65625,14.53125 C36.34375,14.6875 36.1875,15 36,15.25 C35.84375,15.34375 35.96875,15.4375 36.03125,15.5625 C36.5625,16.09375 36.78125,16.875 37.03125,17.59375 C37.28125,18.4375 37.59375,19.34375 37.34375,20.21875 C37.25,20.53125 36.96875,20.875 36.59375,20.78125 C35.96875,20.75 35.34375,20.5625 34.71875,20.5625 C34.125,20.59375 33.6875,21.125 33.125,21.0625 C32.75,21.0625 32.75,20.3125 32.4375,20.53125 C32.25,20.9375 32.34375,21.375 32.3125,21.78125 C32.375,21.875 32.5625,21.8125 32.65625,21.84375 L33.8125,21.84375 C33.875,22.21875 33.875,22.6875 34.125,23 C34.53125,23.125 35,23 35.375,22.84375 C35.75,22.65625 35.8125,22.1875 35.9375,21.8125 C36.0625,21.40625 36.5625,21.5 36.875,21.34375 C37.6480735,21.1030985 38.1615905,20.3713368 38.125,19.5625 C38.0625,18.34375 37.625,17.25 37.25,16.125 C37.09375,15.625 36.96875,15.09375 36.78125,14.59375 L36.65625,14.53125 Z M34.78125,21.34375 C35.1875,21.34375 35.375,21.84375 35.28125,22.1875 C35.125,22.65625 34.53125,22.375 34.4375,22.03125 C34.21875,21.71875 34.34375,21.3125 34.75,21.34375 L34.78125,21.34375 Z" id="Shape"></path>
                    <path d="M19.0625,17.4375 C18.875,17.4375 18.65625,17.5 18.4375,17.65625 C17.34375,18.4375 17.03125,19.34375 17.8125,19.71875 C18.34375,19.96875 18.21875,20.28125 17.34375,20.71875 C16.09375,21.34375 15,21.25 12.90625,20.40625 C12.40625,20.1875 12.28125,20.28125 12.375,20.71875 C12.5,21.1875 12.9375,21.4375 13.96875,21.65625 C15.09375,21.96875 16.46875,21.875 17.34375,21.5 C17.8573059,21.2378428 18.3139752,20.8767554 18.6875,20.4375 L19.375,19.71875 L20.15625,19.8125 C21.125,19.9375 21.15625,19.9375 21.15625,20.40625 C21.15625,20.78125 21.15625,20.78125 22.0625,20.875 L23.53125,20.9375 C23.9375,20.9375 24.15625,21.03125 24.28125,21.21875 C24.46875,21.4375 24.5625,21.46875 26.03125,21.34375 C27.40625,21.21875 27.65625,21.21875 28.28125,21.4375 C28.71875,21.5625 29.21875,21.625 29.5625,21.59375 C30.625,21.46875 32.0625,20.625 32.28125,20 C32.28125,19.90625 32.6875,19.78125 33.125,19.6875 C34.1875,19.46875 34.21875,19.25 33.25,19.125 C32.7602531,19.0603392 32.2785178,18.9451416 31.8125,18.78125 C31.4639005,18.6337223 31.0952739,18.5389326 30.71875,18.5 C30.1875,18.5 29.6875,18.8125 29.6875,19.1875 C29.6875,19.40625 29.75,19.4375 30.40625,19.375 C30.96875,19.3125 31.15625,19.34375 31.46875,19.59375 C31.6875,19.75 31.8125,19.9375 31.78125,20 C31.625,20.25 30.375,20.8125 29.84375,20.90625 C29.5225695,20.9595104 29.1927958,20.9045481 28.90625,20.75 C28.40625,20.5 27.71875,20.46875 27.5625,20.6875 C27.5,20.78125 27.375,20.71875 27.15625,20.53125 L26.84375,20.21875 L26.09375,20.53125 C25.34375,20.84375 25.0625,20.84375 25.0625,20.46875 C25.0625,20.3125 24.84375,20.28125 23.75,20.375 C22.53125,20.4375 22.40625,20.40625 22.1875,20.15625 C21.96875,19.9375 21.96875,19.84375 22.125,19.625 C22.25,19.375 22.25,19.3125 22.125,19.15625 C22,19.03125 21.8125,19.03125 21.34375,19.15625 C20.125,19.46875 19.78125,19.3125 19.78125,18.375 C19.78125,17.78125 19.46875,17.4375 19.0625,17.4375 Z M18.75,18.3125 C18.8125,18.3125 18.875,18.34375 18.96875,18.4375 C19.0625,18.53125 19.125,18.75 19.0625,18.84375 C18.96875,19.125 18.4375,19.125 18.34375,18.84375 C18.28125,18.6875 18.34375,18.53125 18.5,18.4375 L18.75,18.3125 Z" id="Shape"></path>
                    <path d="M16.5625,19.1875 C17.3125,18.71875 17.3125,18.75 17.40625,17.46875 C17.46875,16.53125 17.46875,16.46875 17.21875,16.46875 C16.84375,16.46875 16.65625,16.875 16.65625,17.625 C16.65625,18.125 16.59375,18.34375 16.34375,18.5625 C15.71875,19.1875 14.21875,18.90625 14,18.15625 C13.9375,17.90625 14.03125,17.65625 14.34375,17.21875 C15,16.28125 14.875,16.03125 14.03125,16.75 C13.5,17.25 13.40625,17.25 13.5,16.84375 C13.59375,16.4375 13.40625,16.28125 12.9375,16.40625 C12.71875,16.46875 12.5625,16.59375 12.53125,16.90625 C12.46875,17.15625 12.34375,17.3125 12.125,17.375 C11.75,17.46875 11.125,17.125 11.125,16.8125 C11.125,16.59375 12.0625,15.4375 13.28125,14.1875 C13.71875,13.71875 14.09375,13.25 14.09375,13.21875 C14.09375,13.15625 13.84375,13.09375 13.5625,13.09375 C13.125,13.09375 13,13.15625 13,13.34375 C13,13.46875 12.40625,14.28125 11.65625,15.125 C10.09375,16.875 9.96875,17.21875 10.71875,17.6875 C11.3569249,18.0808549 12.1680639,18.0562749 12.78125,17.625 L13.28125,17.28125 L13.28125,17.90625 C13.28125,18.6875 13.4375,19 14.0625,19.3125 C14.8581912,19.7210599 15.8115314,19.6733929 16.5625,19.1875 Z M49.1875,8.375 C48.625,8.71875 49.0625,9.4375 49.1875,9.9375 C48.9375,10.5625 48.09375,10.75 47.46875,10.875 C46.59375,11.03125 45.96875,11.75 45.65625,12.53125 C45.46875,13.03125 45.03125,13.78125 44.5625,13.03125 C44.15625,12.625 43.40625,12.28125 42.9375,12.78125 C42.5625,13.125 42.46875,13.625 42.3125,14.09375 C42.09375,13.75 42,13.21875 41.5625,13.09375 C40.8125,13.1875 41.09375,14.125 41.4375,14.5 C41.75,14.96875 42.0625,15.53125 41.75,16.0625 C41.4375,16.6875 40.5,17.125 39.96875,16.59375 C39.46875,16.3125 39.8125,15.34375 39.28125,15.28125 C39.03125,15.46875 39.03125,16.5 38.625,15.9375 C38.3125,15.46875 38.5,14.8125 38.125,14.40625 C37.71875,14.46875 37.375,15.1875 37.5,15.5625 C38.0625,16.3125 38.3125,17.25 38.53125,18.15625 C38.65625,18.53125 38.5,19.25 38.84375,19.40625 C39.0625,18.8125 38.84375,18.15625 39.03125,17.5625 C39.59375,17.5 40.1875,17.75 40.75,17.625 C41.59375,17.53125 42.21875,16.8125 42.5,16.09375 C42.59375,15.53125 42.5,14.96875 42.46875,14.40625 C43.09375,14.53125 43.78125,14.53125 44.40625,14.71875 C44.71875,15.1875 44.3125,15.875 44.21875,16.375 C43.90625,17.4375 43.0625,18.1875 42.28125,18.875 C41.9375,19.09375 41.90625,19.625 42.375,19.34375 C43.4437742,18.8360873 44.2810242,17.9430206 44.71875,16.84375 C45.0625,16.03125 44.78125,15.125 45.03125,14.3125 C45.34375,13.6875 46.125,13.8125 46.71875,13.8125 C47.3125,13.8125 47.8125,13.09375 47.625,12.5 C47.4375,11.8125 48.15625,11.5 48.625,11.25 C49.28125,10.9375 49.78125,10.28125 49.71875,9.53125 C49.71875,9.125 49.71875,8.40625 49.1875,8.375 Z M46.90625,12.28125 C47.59375,12.46875 46.78125,13.78125 46.40625,12.9375 C46.28125,12.625 46.5625,12.28125 46.90625,12.28125 Z M43.6875,13.21875 C44.59375,13.1875 44.25,14.46875 43.5,13.90625 C43.09375,13.6875 43.21875,13.21875 43.6875,13.21875 Z M10.9375,18.3125 C10.9375,18.1875 10.875,18.09375 10.75,18.09375 C10.53125,18.09375 10.375,18.3125 10.46875,18.5 C10.59375,18.71875 10.875,18.59375 10.9375,18.3125 Z M21.5625,17.1875 C21.5625,16.96875 21.46875,16.90625 21.3125,16.9375 C20.96875,17 20.90625,17.46875 21.28125,17.46875 C21.46875,17.46875 21.5625,17.375 21.5625,17.15625 L21.5625,17.1875 Z M8.4375,10.8125 C8.03125,10.71875 7.75,11.09375 7.59375,11.4375 C7.28125,11.96875 6.90625,12.5 6.34375,12.78125 C5.9375,12.90625 5.5,12.75 5.125,12.53125 C4.71875,12.3125 4.8125,11.8125 4.625,11.46875 C4.3125,11.21875 3.78125,11.5625 3.8125,11.9375 C3.78125,12.4375 4.21875,12.71875 4.625,12.90625 C4.9375,13.125 5.4375,13.21875 5.5625,13.625 C5.5625,13.96875 5.6875,14.375 6.09375,14.25 C6.5625,14.25 6.71875,14.8125 6.5,15.15625 C6.29111591,15.5373518 6.21420197,15.9768601 6.28125,16.40625 C6.5,16.625 6.71875,16.09375 6.90625,15.96875 L7.21875,15.53125 C8.0625,15.5625 8.875,15.6875 9.71875,15.65625 C10.34375,15.65625 10.8125,15.28125 11.1875,14.84375 C11.75,14.28125 12.1875,13.625 12.78125,13.15625 C13.21875,13.03125 13,12.21875 12.53125,12.46875 C12.125,12.625 12,13.09375 11.71875,13.375 C11.2629307,13.9756278 10.7385478,14.5209861 10.15625,15 C9.6875,15.1875 9.1875,15.09375 8.71875,15 C8.53125,14.84375 9.09375,14.6875 9.1875,14.5 C9.4375,14.25 9.75,14 9.90625,13.65625 C9.75,13.34375 9.3125,13.34375 9,13.34375 C8.25,13.40625 7.65625,14.0625 6.875,14.125 C6.28125,14.125 6.59375,13.5 6.875,13.28125 C7.375,12.65625 7.9375,12.09375 8.46875,11.5 C8.625,11.3125 9.1875,11.125 8.84375,10.875 C8.71875,10.8125 8.5625,10.8125 8.4375,10.8125 Z M8.8125,13.9375 C9.21875,14.15625 8.5625,14.5 8.3125,14.46875 C7.96875,14.5625 7.9375,14.21875 8.25,14.15625 C8.4375,14.03125 8.625,13.9375 8.8125,13.9375 Z M7.625,14.75 C7.84375,14.75 8.3125,14.96875 7.875,15.09375 C7.5625,15.34375 7.25,14.84375 7.625,14.75 Z" id="Shape"></path>
                    <path d="M17,15.25 C17,14.9375 16.5,15 16.4375,15.3125 C16.375,15.5 16.4375,15.53125 16.6875,15.5 C16.875,15.5 17,15.375 17,15.25 Z M40.34375,13.1875 C40.40625,12.90625 40.03125,12.71875 39.8125,12.9375 C39.59375,13.125 39.8125,13.53125 40.0625,13.46875 C40.1875,13.46875 40.3125,13.3125 40.375,13.1875 L40.34375,13.1875 Z M4.0625,10.34375 C4.40625,10.03125 4.4375,10 4.28125,9.3125 C4.03125,8.34375 4.0625,8.21875 4.4375,8.125 C4.90625,8.03125 6.09375,8.65625 6.3125,9.15625 C6.5625,9.5625 6.53125,9.59375 6.1875,9.90625 C5.8125,10.25 5.8125,10.65625 6.1875,10.65625 C6.5,10.65625 7.34375,9.84375 7.34375,9.5625 C7.34375,9.15625 6.40625,8.1875 5.65625,7.84375 C5.20622256,7.63416384 4.71517355,7.52741406 4.21875,7.53125 C3.25,7.53125 3.125,7.75 3.375,8.84375 C3.6875,10.15625 3.28125,10.34375 2.21875,9.34375 C1.45231507,8.66941377 1.04726357,7.67414435 1.125,6.65625 C1.125,5.40625 1.625,4.75 2.71875,4.59375 C3.46875,4.5 3.4375,4.3125 2.71875,4.21875 C1.59375,4.03125 0.65625,4.78125 0.3125,6.09375 C-0.09375,7.5625 0.8125,9.34375 2.40625,10.25 C3.25,10.71875 3.5625,10.75 4.0625,10.34375 Z M47.5625,8.71875 C47.65625,8.65625 47.71875,8.4375 47.71875,8.28125 C47.71875,8.125 47.875,7.78125 48.0625,7.53125 C48.25,7.28125 48.375,7.03125 48.375,6.96875 C48.375,6.71875 47.96875,6.71875 47.65625,6.96875 C47.3125,7.25 47.03125,7.28125 47.03125,6.96875 L47.40625,6.6875 C47.90625,6.46875 47.9375,6.21875 47.53125,6.03125 C47,5.78125 46.4375,6.21875 46.40625,6.96875 C46.375,7.46875 46.40625,7.53125 46.78125,7.75 C47.125,7.96875 47.1875,8.0625 47.125,8.375 C47.03125,8.875 47.25,9.0625 47.5625,8.71875 Z M51.625,8.28125 C51.9375,7.96875 52.1875,7.6875 52.1875,7.59375 C52.1875,7.5 52.46875,7.21875 52.78125,6.96875 C53.65625,6.34375 53.875,5.71875 53.46875,4.6875 C53.3125,4.28125 52.84375,3.75 51.75,2.8125 C51.2517199,2.28055094 50.6841275,1.81806818 50.0625,1.4375 C49.78125,1.4375 49.84375,2.5 50.125,2.59375 C50.65625,2.78125 51,3 51.8125,3.75 C52.8125,4.625 53.25,5.46875 53,5.9375 C52.78125,6.375 52.46875,6.25 51.59375,5.3125 C51.3100421,4.95980883 50.9725775,4.65398161 50.59375,4.40625 C50.5,4.40625 50.4375,4.59375 50.4375,4.84375 C50.4375,5.15625 50.59375,5.46875 51.0625,5.9375 C51.78125,6.75 51.84375,7.21875 51.28125,7.65625 C51.1545682,7.78491279 51.006544,7.89064437 50.84375,7.96875 C50.1293433,6.74605742 49.1721944,5.68255863 48.03125,4.84375 C47.9375,4.84375 47.875,4.96875 47.875,5.28125 C47.875,5.6875 47.9375,5.8125 48.25,5.96875 C49.0714323,6.59941222 49.8068378,7.33481772 50.4375,8.15625 L51,8.78125 C51.2331761,8.63566207 51.4437484,8.45667557 51.625,8.25 L51.625,8.28125 Z M53.5,3.03125 C53.34375,2.65625 50.875,0.09375 50.59375,0.09375 C50.46875,0.09375 50.4375,0.25 50.46875,0.65625 C50.46875,1.15625 50.5625,1.21875 50.90625,1.3125 C51.4399734,1.62468777 51.9244161,2.01434821 52.34375,2.46875 C52.6832584,2.83396582 53.0724951,3.14956317 53.5,3.40625 L53.5,3.03125 Z M38.5625,31.96875 C38.6082638,32.096694 38.5514373,32.2347344 38.4210624,32.3123241 C38.2906874,32.3899137 38.1155626,32.3899137 37.9851876,32.3123241 C37.8548127,32.2347344 37.7979862,32.096694 37.84375,31.96875 C37.7979862,31.840806 37.8548127,31.7027656 37.9851876,31.6251759 C38.1155626,31.5475863 38.2906874,31.5475863 38.4210624,31.6251759 C38.5514373,31.7027656 38.6082638,31.840806 38.5625,31.96875 Z M39.875,31.53125 C39.875,31.6428955 39.8035254,31.7460602 39.6875,31.801883 C39.5714746,31.8577058 39.4285254,31.8577058 39.3125,31.801883 C39.1964746,31.7460602 39.125,31.6428955 39.125,31.53125 C39.125,31.358661 39.2928932,31.21875 39.5,31.21875 C39.7071068,31.21875 39.875,31.358661 39.875,31.53125 Z" id="Shape"></path>
                </g>
            </g>
        </g>
    </g>
</svg>