<?xml version="1.0" encoding="UTF-8"?>
<svg width="200px" height="141px" viewBox="0 0 200 141" version="1.1" xmlns="http://www.w3.org/2000/svg" xmlns:xlink="http://www.w3.org/1999/xlink">
    <!-- Generator: Sketch 52.5 (67469) - http://www.bohemiancoding.com/sketch -->
    <title>cv</title>
    <desc>Created with Sketch.</desc>
    <defs>
        <polygon id="path-1" points="0.175438596 0 199.766082 0 199.766082 141 0.175438596 141"></polygon>
    </defs>
    <g id="Flags" stroke="none" stroke-width="1" fill="none" fill-rule="evenodd">
        <g id="Africa" transform="translate(-950.000000, -250.000000)">
            <g id="cv" transform="translate(950.000000, 250.000000)">
                <mask id="mask-2" fill="white">
                    <use xlink:href="#path-1"></use>
                </mask>
                <g id="Path"></g>
                <g id="Group" mask="url(#mask-2)">
                    <g transform="translate(-1.000000, 0.000000)">
                        <polygon id="Path" fill="#FFFFFF" fill-rule="evenodd" points="0.164912281 64.1660156 232.80117 64.1660156 232.80117 120.896484 0.137426901 120.896484"></polygon>
                        <path d="M0.329824561,0 L232.85614,0 L232.85614,70.6652344 L0.329824561,70.6652344 L0.329824561,0 Z M0.412280702,106.273242 L234.615205,106.273242 L234.615205,141 L0.412280702,141 L0.412280702,106.273242 Z" id="Shape" fill="#081873" fill-rule="nonzero"></path>
                        <polygon id="Path" fill="#DE3929" fill-rule="evenodd" points="0.412280702 83.3332031 232.938596 83.3332031 232.938596 94.2386719 0.412280702 94.2386719"></polygon>
                        <path d="M81.0877193,109.935937 L82.9017544,115.553906 L88.7836257,115.553906 L84.0011696,119.051367 L85.8152047,124.696875 L81.0877193,121.171875 L76.3052632,124.669336 L78.1467836,119.023828 L73.3643275,115.526367 L79.2736842,115.526367 M132.210526,68.9578125 L134.052047,74.6033203 L139.906433,74.6033203 L135.123977,78.0732422 L136.938012,83.71875 L132.155556,80.2212891 L127.373099,83.71875 L129.187135,78.0732422 L124.404678,74.6033203 L130.34152,74.6033203 M69.3239766,92.3384766 L71.1380117,97.9839844 L77.0473684,97.9839844 L72.2923977,101.508984 L74.1339181,107.126953 L69.351462,103.657031 L64.5690058,107.126953 L66.3830409,101.508984 L61.6005848,98.0115234 L67.5099415,98.0115234 M132.210526,90.7412109 L134.052047,96.3591797 L139.906433,96.3591797 L135.123977,99.8566406 L136.938012,105.474609 L132.155556,102.004687 L127.373099,105.502148 L129.187135,99.8566406 L124.404678,96.3591797 L130.34152,96.3591797 M119.209942,51.8285156 L121.051462,57.4464844 L126.988304,57.4464844 L122.205848,60.9439453 L124.019883,66.5894531 L119.237427,63.0919922 L114.454971,66.5894531 L116.296491,60.9439453 L111.48655,57.4464844 L117.423392,57.4464844 M99.6953216,44.9988281 L101.536842,50.6443359 L107.446199,50.6443359 L102.663743,54.1142578 L104.477778,59.7597656 L99.6953216,56.2898437 L94.9128655,59.7597656 L96.754386,54.1142578 L91.9719298,50.6443359 L97.8538012,50.6443359 M80.125731,51.4429687 L81.9672515,57.0884766 L87.8766082,57.0884766 L83.094152,60.5583984 L84.9356725,66.2039062 L80.125731,62.7064453 L75.3432749,66.2039062 L77.1847953,60.5583984 L72.4023392,57.0884766 L78.3391813,57.0884766 M68.774269,68.9853516 L70.5883041,74.6308594 L76.5251462,74.6308594 L71.7152047,78.1007812 L73.5567251,83.7462891 L68.774269,80.2488281 L63.9918129,83.7462891 L65.805848,78.1007812 L61.0233918,74.6308594 L66.9327485,74.6308594 M99.6953216,115.774219 L101.536842,121.419727 L107.446199,121.419727 L102.663743,124.889648 L104.505263,130.535156 L99.6953216,127.037695 L94.9128655,130.535156 L96.754386,124.889648 L91.9719298,121.419727 L97.8538012,121.419727 M120.446784,109.935937 L122.260819,115.553906 L128.170175,115.553906 L123.415205,119.051367 L125.256725,124.696875 L120.474269,121.199414 L115.664327,124.696875 L117.505848,119.051367 L112.723392,115.553906 L118.632749,115.553906" id="Shape" fill="#FFCE08" fill-rule="nonzero"></path>
                    </g>
                </g>
            </g>
        </g>
    </g>
</svg>