<?xml version="1.0" encoding="UTF-8"?>
<svg width="200px" height="150px" viewBox="0 0 200 150" version="1.1" xmlns="http://www.w3.org/2000/svg" xmlns:xlink="http://www.w3.org/1999/xlink">
    <!-- Generator: Sketch 52.5 (67469) - http://www.bohemiancoding.com/sketch -->
    <title>kh</title>
    <desc>Created with Sketch.</desc>
    <g id="Flags" stroke="none" stroke-width="1" fill="none" fill-rule="evenodd">
        <g id="Asia" transform="translate(-950.000000, -650.000000)">
            <g id="kh" transform="translate(950.000000, 650.000000)">
                <polygon id="Path" fill="#032EA1" points="0 0 200 0 200 150 0 150"></polygon>
                <polygon id="Path" fill="#E00025" points="0 37.5 200 37.5 200 112.5 0 112.5"></polygon>
                <g id="Group" transform="translate(51.500000, 43.875000)" stroke="#000000">
                    <g stroke-linejoin="bevel" transform="translate(10.500000, 26.625000)" fill="#FFFFFF">
                        <polygon id="Path" stroke-width="0.6" points="16.875 0.1875 59.55 0.1875 59.55 16.6125 16.875 16.6125"></polygon>
                        <path d="M57.375,9.225 L58.6875,9.225 L58.6875,15.4125 L57.375,15.4125 L57.375,9.225 Z M16.875,6.1875 L59.55,6.1875 L59.55,8.0625 L16.875,8.0625 L16.875,6.1875 Z M16.875,3.5625 L59.55,3.5625 L59.55,5.2875 L16.875,5.2875 L16.875,3.5625 Z" id="Shape" stroke-width="0.6" fill-rule="nonzero"></path>
                        <polygon id="Path" stroke-width="0.54" points="16.875 1.0125 59.55 1.0125 59.55 2.625 16.875 2.625"></polygon>
                        <path d="M28.125,9.225 L29.475,9.225 L29.475,15.4125 L28.125,15.4125 L28.125,9.225 Z M46.5,9.225 L47.85,9.225 L47.85,15.4125 L46.5,15.4125 L46.5,9.225 Z M17.25,9.225 L18.5625,9.225 L18.5625,15.4125 L17.25,15.4125 L17.25,9.225 Z M19.875,9.225 L21.1875,9.225 L21.1875,15.4125 L19.875,15.4125 L19.875,9.225 Z M22.6875,9.225 L24,9.225 L24,15.4125 L22.6875,15.4125 L22.6875,9.225 Z M25.5,9.225 L26.8125,9.225 L26.8125,15.4125 L25.5,15.4125 L25.5,9.225 Z M49.05,9.225 L50.4,9.225 L50.4,15.4125 L49.05,15.4125 L49.05,9.225 Z M51.8625,9.225 L53.2125,9.225 L53.2125,15.4125 L51.8625,15.4125 L51.8625,9.225 Z M54.675,9.225 L56.025,9.225 L56.025,15.4125 L54.675,15.4125 L54.675,9.225 Z" id="Shape" stroke-width="0.6" fill-rule="nonzero"></path>
                        <path d="M0.1875,17.4375 C0.97162254,17.0106197 1.56217208,16.2992759 1.8375,15.45 L74.25,15.45 C74.5253279,16.2992759 75.1158775,17.0106197 75.9,17.4375 L0.1875,17.4375 Z" id="Path" stroke-width="0.6"></path>
                    </g>
                    <path d="M47.625,1.8 C47.625,1.8 47.5875,0.2625 48.4875,0.225 C49.35,0.225 49.3125,1.8 49.3125,1.8 L47.625,1.8 Z M42.9375,22.2375 L42.9375,20.175 C42.9375,19.125 41.8875,19.05 41.8875,18.3 C41.8875,18.3 41.7375,17.175 42.0375,16.65 C42.45,18.15 43.1625,17.8875 43.1625,17.25 C43.1625,16.725 42.7875,16.2 41.925,14.8875 C41.625,14.475 41.8125,13.1625 42.1875,12.675 C42.3375,13.8 42.525,14.3625 43.0125,14.3625 C43.3125,14.3625 43.5375,14.175 43.5375,13.6125 C43.5375,12.8625 43.05,12.4875 42.7875,11.8125 C42.5234964,11.1264194 42.6847742,10.3493537 43.2,9.825 C43.3875,10.95 43.35,11.4 43.8375,11.4 C44.85,11.0625 43.8375,9.6 43.6125,9.225 C43.3875,8.8125 43.9875,7.95 43.9875,7.95 C44.2875,8.9625 44.3625,9.0375 44.7375,8.925 C45.1875,8.8125 45.1125,8.175 44.5875,7.65 C44.25,7.275 44.2875,6.7875 44.6625,6.4125 C45.0375,7.125 45.4875,7.0875 45.525,6.6375 L45.225,4.9875 L51.75,4.9875 L51.4125,6.6 C51.3375,7.05 51.9375,7.1625 52.3125,6.4125 C52.6875,6.7875 52.725,7.3125 52.3875,7.65 C51.8625,8.175 51.7875,8.8125 52.2375,8.925 C52.6125,9.0375 52.6875,8.925 52.9875,7.95 C52.9875,7.95 53.55,8.5125 53.3625,9.225 C53.1375,9.6 52.125,11.1 53.1375,11.4 C53.625,11.4 53.5875,10.95 53.775,9.825 C54.2772369,10.357506 54.4236691,11.1335966 54.15,11.8125 C53.925,12.4875 53.4,12.8625 53.4,13.6125 C53.4,14.175 53.6625,14.3625 53.9625,14.3625 C54.45,14.3625 54.6375,13.8375 54.7875,12.675 C55.1625,13.1625 55.35,14.475 55.05,14.925 C54.1875,16.2 53.775,16.725 53.775,17.25 C53.775,17.8875 54.525,18.15 54.9,16.65 C55.2375,17.175 55.0875,18.3 55.0875,18.3 C55.0875,19.05 54.075,19.125 54.0375,20.175 L54.0375,22.2375 L42.9375,22.2375 Z M45.6375,4.9875 L45.4875,3.825 L51.45,3.825 L51.3,4.9875 L45.6375,4.9875 Z M46.0125,3.7875 L45.9375,2.85 L51,2.85 L50.8875,3.7875 L46.0125,3.7875 Z M46.875,2.8125 L46.7625,1.8375 L50.1375,1.8375 L50.1,2.8125 L46.875,2.8125 Z M59.25,44.0625 C58.5,43.8 57.375,42.975 57.375,42.1875 L57.375,33.075 L58.35,31.8 L38.625,31.8 L39.5625,33.075 L39.5625,42.1875 C39.5625,42.975 38.8125,43.8 38.0625,44.0625 L59.25,44.0625 Z" id="Shape" stroke-width="0.6" fill="#FFFFFF" fill-rule="nonzero"></path>
                    <path d="M42.075,35.85 L43.425,35.85 L43.425,42.0375 L42.075,42.0375 L42.075,35.85 Z M53.475,35.85 L54.825,35.85 L54.825,42.0375 L53.475,42.0375 L53.475,35.85 Z" id="Shape" stroke-width="0.6" fill="#FFFFFF" fill-rule="nonzero" stroke-linejoin="bevel"></path>
                    <path d="M38.25,21.45 L38.25,31.8 L58.5,31.8 L58.5,21.45 C58.0253899,21.6233433 57.6627602,22.0138675 57.525,22.5 L57.525,26.925 L39.2625,26.925 L39.2625,22.5 C39.2625,22.5 39.0375,21.75 38.2125,21.45 L38.25,21.45 Z" id="Path" stroke-width="0.6" fill="#FFFFFF"></path>
                    <path d="M55.725,44.0625 C55.05,43.8 53.625,42.975 53.625,42.1875 L53.625,31.9875 C53.775,31.425 54.525,31.0875 55.0125,30.7125 L41.625,30.7125 C42.2625,31.0875 42.975,31.35 43.2375,31.9875 L43.2375,42.1875 C43.2375,42.975 42.1125,43.8 41.4375,44.0625 L55.725,44.0625 Z" id="Path" stroke-width="0.6" fill="#FFFFFF"></path>
                    <path d="M57.525,30.825 L57.525,23.475 L55.6875,23.475 L55.6875,22.7625 L41.1375,22.7625 L41.1375,23.5125 L39.2625,23.5125 L39.2625,30.825 L57.525,30.825 Z M52.875,44.0625 C52.2,43.8 51.2625,42.975 51.2625,42.1875 L51.2625,33.4875 L51.7875,32.7 L45.15,32.7 L45.7125,33.45 L45.7125,42.1875 C45.7125,42.975 44.7375,43.8 44.1,44.0625 L52.875,44.0625 Z" id="Shape" stroke-width="0.6" fill="#FFFFFF" fill-rule="nonzero"></path>
                    <polygon id="Path" stroke-width="0.6" fill="#FFFFFF" points="46.7625 32.7 50.1375 32.7 50.1375 44.0625 46.7625 44.0625"></polygon>
                    <path d="M51.9,30.1875 C51.9,29.4375 54.075,29.4 55.2,28.7625 L41.7,28.7625 C42.825,29.4 44.9625,29.4375 44.9625,30.1875 L45.4125,31.65 L51.0375,31.875 L51.9,30.1875 Z" id="Path" stroke-width="0.6" fill="#FFFFFF" stroke-linejoin="bevel"></path>
                    <path d="M54.525,22.2375 C54.525,20.4 54.6,19.725 55.1625,19.725 L55.1625,25.5 C53.775,26.025 52.8,27.75 52.8,27.75 L44.1,27.75 C44.1,27.75 43.125,26.025 41.7375,25.5 L41.7375,19.6875 C42.4125,19.6875 42.4125,20.4375 42.4125,22.2 L54.525,22.2375 Z M55.1625,21.4875 C55.1625,19.3875 57,19.1625 57,19.1625 L57,21.0375 C56.2875,21 55.95,21.6375 55.95,22.5375 C55.95,23.475 56.5125,23.475 56.5125,23.475 L56.5125,28.8 L55.1625,28.8 L55.1625,21.4875 Z" id="Shape" stroke-width="0.6" fill="#FFFFFF" fill-rule="nonzero"></path>
                    <path d="M41.7375,21.4875 C41.7375,19.3875 39.9,19.1625 39.9,19.1625 L39.9,21.0375 C40.6125,21 40.95,21.6375 40.95,22.5375 C40.95,23.475 40.3875,23.475 40.3875,23.475 L40.3875,28.8 L41.7375,28.8 L41.7375,21.4875 Z" id="Path" stroke-width="0.6" fill="#FFFFFF"></path>
                    <g transform="translate(39.000000, 6.750000)" id="Shape">
                        <path d="M6.3,0.225 L12.75,0.225 M5.55,2.25 L13.425,2.25 M4.8,4.6875 L14.1375,4.6875 M4.0125,7.65 L15.075,7.65 M3.75,11.025 L15.15,11.025" stroke-width="0.48"></path>
                        <path d="M0.3,22.125 L18.525,22.125 L0.3,22.125 Z M6.075,22.125 L12.825,22.125 L12.825,24.6 L6.075,24.6 L6.075,22.125 Z" stroke-width="0.6"></path>
                    </g>
                    <path d="M44.25,23.325 C45.375,24.675 45.225,26.9625 45.225,28.3125 L51.75,28.3125 C51.75,26.9625 51.6,24.675 52.725,23.325 L44.25,23.325 Z M47.8875,7.95 L46.9875,7.4625 L46.9875,6.15 C47.3625,6.2625 47.7375,6.3 47.8125,6.9 C47.925,6.0375 48.1875,6.1125 48.525,5.775 C48.9,6.1125 49.0875,6.0375 49.2375,6.9 C49.2375,6.3 49.6875,6.2625 50.025,6.15 L50.025,7.4625 L49.1625,7.9125 L47.8875,7.95 Z" id="Shape" stroke-width="0.6" fill="#FFFFFF" fill-rule="nonzero"></path>
                    <path d="M47.8125,10.0875 L46.3125,9.0375 L46.3125,7.875 C46.875,7.9875 47.4375,8.0625 47.5125,8.7 C47.6625,7.7625 48,7.3125 48.525,6.9375 C49.0125,7.3125 49.35,7.7625 49.5375,8.7 C49.575,8.0625 50.175,7.9875 50.6625,7.875 L50.6625,9.075 L49.2,10.0875 L47.8125,10.0875 Z" id="Path" stroke-width="0.6" fill="#FFFFFF"></path>
                    <path d="M47.7,13.425 L46.0125,11.925 L46.0125,10.1625 C46.6125,10.3125 47.2875,10.3875 47.3625,11.325 C47.55,10.0125 47.925,9.3 48.4875,8.775 C49.0875,9.3 49.4625,10.0125 49.6875,11.325 C49.7625,10.3875 50.4375,10.3125 51.0375,10.1625 L51.0375,11.925 L49.3125,13.425 L47.7,13.425 Z M50.85,15.4125 L49.35,17.55 L47.5875,17.55 L46.05,15.4125 L50.85,15.4125 Z M45.15,18.975 C45.9,19.3875 46.2,20.25 46.275,21.825 L50.625,21.825 C50.7,20.25 51,19.3875 51.75,18.975 L45.15,18.975 Z" id="Shape" stroke-width="0.6" fill="#FFFFFF" fill-rule="nonzero"></path>
                    <path d="M51.825,15.375 L51.825,13.275 C51.1687201,13.4148464 50.6304438,13.8822969 50.4,14.5125 C50.4,13.7625 49.4625,12.15 48.45,11.325 C47.4375,12.225 46.4625,13.725 46.5,14.475 C46.3125,13.9125 45.825,13.4625 45.075,13.275 L45.075,15.4125 L51.825,15.375 Z" id="Path" stroke-width="0.6" fill="#FFFFFF" stroke-linejoin="bevel"></path>
                    <path d="M52.125,18.975 L52.125,16.875 C51.3375,17.1 50.8125,17.5125 50.5875,18.1125 C50.5875,17.3625 49.575,15.75 48.45,14.925 C47.325,15.8625 46.275,17.325 46.3125,18.1125 C46.125,17.55 45.5625,17.1 44.775,16.875 L44.775,19.0125 L52.125,18.975 Z" id="Path" stroke-width="0.6" fill="#FFFFFF" stroke-linejoin="bevel"></path>
                    <path d="M53.025,23.3625 L53.025,20.8875 C52.2441034,21.1313946 51.5695662,21.6339909 51.1125,22.3125 C51.1125,21 49.6125,18.9375 48.45,18.3 C47.25,18.975 45.7875,21.075 45.7875,22.3125 C45.3187652,21.6292753 44.6308245,21.1265493 43.8375,20.8875 L43.8375,23.3625 L53.025,23.3625 Z" id="Path" stroke-width="0.6" fill="#FFFFFF" stroke-linejoin="bevel"></path>
                    <path d="M52.5,28.875 L52.5,26.325 C51.6,26.6625 51.375,27.4875 51.075,28.0875 C51.1875,25.5 49.65,22.7625 48.45,22.05 C47.25,22.7625 45.675,25.575 45.825,28.05 C45.525,27.525 45.2625,26.6625 44.4,26.325 L44.4,28.8375 L52.5,28.875 Z" id="Path" stroke-width="0.6" fill="#FFFFFF" stroke-linejoin="bevel"></path>
                    <path d="M51.9,32.7 L51.9,30.15 C50.9625,30.375 50.925,30.7125 50.625,31.275 C50.7375,29.7375 49.65,27.975 48.45,27.3 C47.25,27.975 46.2,29.7375 46.275,31.275 C45.975,30.7125 45.9375,30.375 45,30.15 L45,32.7 L51.9,32.7 Z" id="Path" stroke-width="0.6" fill="#FFFFFF"></path>
                    <g id="a" transform="translate(10.500000, 10.875000)" fill="#FFFFFF" stroke-width="0.6">
                        <path d="M1.875,31.2 L1.875,23.55 C1.6125,22.575 0.75,21.675 0.15,21.525 L0.15,14.775 L1.5375,15.525 L3.15,22.6125 L3.15,31.2375 L1.875,31.2 Z" id="Path"></path>
                        <path d="M1.875,31.2375 L1.875,23.55 C1.6125,22.575 0.75,21.675 0.15,21.525 L0.15,14.325 C1.0875,14.325 1.5375,15.525 1.5375,15.525 L3.15,22.6125 L3.15,31.2 L1.875,31.2375 Z" id="Path"></path>
                        <path d="M0.8625,33.1875 C1.5,32.925 2.4375,32.1 2.4375,31.3125 L2.4375,21.7125 L1.9875,20.9625 L18.375,20.9625 L17.7375,21.7125 L17.7375,31.3125 C17.7934983,32.1216173 18.2806244,32.8379793 19.0125,33.1875 L0.8625,33.1875 Z" id="Path"></path>
                        <path d="M15.675,33.1875 C15.0375,32.925 14.1,32.1 14.1,31.3125 L14.1,22.2 L15.45,20.925 L4.35,20.925 L5.7,22.2 L5.7,31.3125 C5.7,32.1 4.7625,32.925 4.125,33.1875 L15.675,33.1875 Z" id="Path"></path>
                        <path d="M14.1375,33.1875 C13.5,32.925 12.525,32.1 12.525,31.3125 L12.525,23.0625 L13.425,21.825 L6.375,21.825 L7.275,23.0625 L7.275,31.3125 C7.275,32.1 6.3375,32.925 5.6625,33.1875 L14.1375,33.1875 Z" id="Path"></path>
                        <polygon id="Path" points="8.25 21.825 11.5875 21.825 11.5875 33.225 8.2125 33.225"></polygon>
                        <path d="M3.6375,24.975 L4.9875,24.975 L4.9875,31.1625 L3.6375,31.1625 L3.6375,24.975 Z M15.1875,24.975 L16.5,24.975 L16.5,31.1625 L15.15,31.1625 L15.1875,24.975 Z M2.475,14.55 L4.125,14.55 L4.125,20.925 L2.475,20.925 L2.475,14.55 Z M2.475,13.35 L4.0875,13.35 L4.0875,14.55 L2.475,14.55 L2.475,13.35 Z M15.825,15.9375 L18.1125,15.9375 L18.1125,20.8125 L15.825,20.8125 L15.825,15.9375 Z" id="Shape" fill-rule="nonzero" stroke-linejoin="bevel"></path>
                        <path d="M4.0875,20.85 L4.0875,9.975 C4.5375,9.975 4.6125,11.5875 5.6625,11.5875 C6.225,11.5875 6.1875,10.9125 5.85,10.3875 C5.5875,9.9 5.25,9.2625 5.7,8.025 C6.0375,8.9625 6.8625,9.2625 6.7125,8.7 C6.45,7.6875 5.6625,7.5 6.2625,5.9625 C6.45,7.2375 7.275,7.2 7.0875,6.45 C6.8625,5.5875 6.375,5.2125 6.975,4.0125 C7.3125,5.4 7.725,5.325 7.725,4.4625 C7.725,3.1875 7.725,1.8375 9.3,1.35 C9.3,1.35 9.4125,0.225 10.0125,0.225 C10.575,0.225 10.6875,1.35 10.6875,1.35 C12.3,1.8375 12.2625,3.225 12.2625,4.4625 C12.2625,5.325 12.675,5.4 13.0125,4.0125 C13.6125,5.2125 13.125,5.5875 12.9,6.45 C12.7125,7.2 13.5375,7.2375 13.725,5.9625 C14.325,7.5 13.5375,7.6875 13.275,8.7 C13.125,9.2625 13.95,8.9625 14.2875,8.025 C14.7375,9.2625 14.4,9.9 14.1375,10.3875 C13.8375,10.9125 13.7625,11.5875 14.325,11.5875 C15.375,11.5875 15.45,10.0125 15.9,10.0125 L15.9,20.85 L4.0875,20.85 Z M1.5,12.6375 L1.5,20.925 L2.4375,20.925 L2.4375,12.6375 C2.1,12.45 1.8,12.45 1.5,12.6375 Z" id="Shape" fill-rule="nonzero"></path>
                        <path d="M1.575,18 C2.7375,18.6 3.9,19.3125 4.2,20.925 L1.575,20.925 L1.575,18 Z M17.775,15.525 L17.775,20.925 L18.525,20.925 L18.525,15.525 C18.3,15.4125 17.9625,15.375 17.775,15.525 Z" id="Shape" fill-rule="nonzero"></path>
                        <path d="M18.525,18 C17.3625,18.5625 16.2,19.2375 15.9,20.8875 L18.525,20.8875 L18.525,18 Z M10.8,5.3625 L11.475,4.8 L11.475,4.05 C11.25,4.05 11.1,4.1625 10.9125,4.425 C10.765416,3.93842306 10.4270769,3.53241616 9.975,3.3 C9.51636695,3.51581201 9.16464736,3.90811462 9,4.3875 C8.8125,4.125 8.7,4.0875 8.4375,4.0125 L8.4375,4.7625 L9.1125,5.3625 L10.8,5.3625 Z" id="Shape" fill-rule="nonzero"></path>
                        <path d="M11.175,7.2 L11.475,6.4875 L11.475,5.55 C11.25,5.55 11.1,5.6625 10.9125,5.925 C10.765416,5.43842306 10.4270769,5.03241616 9.975,4.8 C9.51636695,5.01581201 9.16464736,5.40811462 9,5.8875 C8.8125,5.625 8.7,5.5875 8.4375,5.55 L8.4375,6.4875 L8.7375,7.2 L11.175,7.2 Z" id="Path"></path>
                        <path d="M11.25,9.675 L12.225,8.4375 L12.225,7.2375 C11.85,7.2375 11.6625,7.425 11.4,7.8375 C11.1375,6.975 10.65,6.825 9.975,6.4125 C9.2625,6.7875 8.775,6.975 8.55,7.8 C8.25,7.3875 8.0625,7.275 7.6875,7.2375 L7.6875,8.4375 L8.7,9.675 L11.25,9.675 Z" id="Path"></path>
                        <path d="M11.5125,12.1125 C11.5125,12.1125 12.7125,11.1 12.75,10.5375 L12.75,9.225 C12.3,9.2625 11.8875,9.375 11.55,9.9375 C11.25,8.85 10.8,8.55 9.975,8.0625 C9.1125,8.55 8.6625,8.85 8.4,9.9375 C8.025,9.375 7.65,9.2625 7.1625,9.1875 L7.1625,10.5375 C7.47745172,11.1323071 7.89659558,11.6657629 8.4,12.1125 L11.5125,12.1125 Z" id="Path"></path>
                        <path d="M12,16.6125 C12,16.6125 13.65,14.85 13.6875,14.1375 L13.6875,12.1125 C13.0875,12.1875 12.4875,12.6 12.0375,13.4625 C11.6625,11.775 11.0625,10.6125 9.975,9.7875 C8.85,10.6125 8.25,11.775 7.875,13.4625 C7.425,12.6 6.8625,12.1875 6.2625,12.1125 L6.2625,14.1375 C6.375,14.85 7.9125,16.6125 7.9125,16.6125 L12,16.6125 Z" id="Path"></path>
                        <path d="M12,19.275 C12,19.275 13.3875,17.8875 13.6875,17.2875 L13.6875,15.2625 C13.0875,15.3375 12.4875,15.75 12.0375,16.575 C11.8348832,15.1969313 11.0929408,13.9558641 9.975,13.125 C8.85,13.95 8.25,14.8875 7.875,16.575 C7.425,15.75 6.8625,15.3375 6.2625,15.2625 L6.2625,17.2875 C6.6375,17.8875 7.9125,19.275 7.9125,19.275 L12,19.275 Z" id="Path"></path>
                        <path d="M12.5625,20.85 C12.1875,19.0875 11.8125,17.775 9.9,16.4625 C7.95,17.775 7.6125,19.0875 7.2,20.85 L12.5625,20.85 Z" id="Path"></path>
                        <path d="M13.575,21.825 L13.575,19.275 C12.675,19.65 11.8875,20.1375 11.5875,20.7 C11.2875,19.275 10.65,18.675 9.8625,17.8125 C9.075,18.675 8.55,19.3125 8.2125,20.7 C7.9125,20.1375 7.125,19.6125 6.2625,19.275 L6.2625,21.825 L13.575,21.825 Z" id="Path"></path>
                    </g>
                    <g id="a-link" transform="translate(76.950000, 27.562500) scale(-1, 1) translate(-76.950000, -27.562500) translate(67.387500, 10.875000)" fill="#FFFFFF" stroke-width="0.6">
                        <g id="a">
                            <path d="M1.875,31.2 L1.875,23.55 C1.6125,22.575 0.75,21.675 0.15,21.525 L0.15,14.775 L1.5375,15.525 L3.15,22.6125 L3.15,31.2375 L1.875,31.2 Z" id="Path"></path>
                            <path d="M1.875,31.2375 L1.875,23.55 C1.6125,22.575 0.75,21.675 0.15,21.525 L0.15,14.325 C1.0875,14.325 1.5375,15.525 1.5375,15.525 L3.15,22.6125 L3.15,31.2 L1.875,31.2375 Z" id="Path"></path>
                            <path d="M0.8625,33.1875 C1.5,32.925 2.4375,32.1 2.4375,31.3125 L2.4375,21.7125 L1.9875,20.9625 L18.375,20.9625 L17.7375,21.7125 L17.7375,31.3125 C17.7934983,32.1216173 18.2806244,32.8379793 19.0125,33.1875 L0.8625,33.1875 Z" id="Path"></path>
                            <path d="M15.675,33.1875 C15.0375,32.925 14.1,32.1 14.1,31.3125 L14.1,22.2 L15.45,20.925 L4.35,20.925 L5.7,22.2 L5.7,31.3125 C5.7,32.1 4.7625,32.925 4.125,33.1875 L15.675,33.1875 Z" id="Path"></path>
                            <path d="M14.1375,33.1875 C13.5,32.925 12.525,32.1 12.525,31.3125 L12.525,23.0625 L13.425,21.825 L6.375,21.825 L7.275,23.0625 L7.275,31.3125 C7.275,32.1 6.3375,32.925 5.6625,33.1875 L14.1375,33.1875 Z" id="Path"></path>
                            <polygon id="Path" points="8.25 21.825 11.5875 21.825 11.5875 33.225 8.2125 33.225"></polygon>
                            <path d="M3.6375,24.975 L4.9875,24.975 L4.9875,31.1625 L3.6375,31.1625 L3.6375,24.975 Z M15.1875,24.975 L16.5,24.975 L16.5,31.1625 L15.15,31.1625 L15.1875,24.975 Z M2.475,14.55 L4.125,14.55 L4.125,20.925 L2.475,20.925 L2.475,14.55 Z M2.475,13.35 L4.0875,13.35 L4.0875,14.55 L2.475,14.55 L2.475,13.35 Z M15.825,15.9375 L18.1125,15.9375 L18.1125,20.8125 L15.825,20.8125 L15.825,15.9375 Z" id="Shape" fill-rule="nonzero" stroke-linejoin="bevel"></path>
                            <path d="M4.0875,20.85 L4.0875,9.975 C4.5375,9.975 4.6125,11.5875 5.6625,11.5875 C6.225,11.5875 6.1875,10.9125 5.85,10.3875 C5.5875,9.9 5.25,9.2625 5.7,8.025 C6.0375,8.9625 6.8625,9.2625 6.7125,8.7 C6.45,7.6875 5.6625,7.5 6.2625,5.9625 C6.45,7.2375 7.275,7.2 7.0875,6.45 C6.8625,5.5875 6.375,5.2125 6.975,4.0125 C7.3125,5.4 7.725,5.325 7.725,4.4625 C7.725,3.1875 7.725,1.8375 9.3,1.35 C9.3,1.35 9.4125,0.225 10.0125,0.225 C10.575,0.225 10.6875,1.35 10.6875,1.35 C12.3,1.8375 12.2625,3.225 12.2625,4.4625 C12.2625,5.325 12.675,5.4 13.0125,4.0125 C13.6125,5.2125 13.125,5.5875 12.9,6.45 C12.7125,7.2 13.5375,7.2375 13.725,5.9625 C14.325,7.5 13.5375,7.6875 13.275,8.7 C13.125,9.2625 13.95,8.9625 14.2875,8.025 C14.7375,9.2625 14.4,9.9 14.1375,10.3875 C13.8375,10.9125 13.7625,11.5875 14.325,11.5875 C15.375,11.5875 15.45,10.0125 15.9,10.0125 L15.9,20.85 L4.0875,20.85 Z M1.5,12.6375 L1.5,20.925 L2.4375,20.925 L2.4375,12.6375 C2.1,12.45 1.8,12.45 1.5,12.6375 Z" id="Shape" fill-rule="nonzero"></path>
                            <path d="M1.575,18 C2.7375,18.6 3.9,19.3125 4.2,20.925 L1.575,20.925 L1.575,18 Z M17.775,15.525 L17.775,20.925 L18.525,20.925 L18.525,15.525 C18.3,15.4125 17.9625,15.375 17.775,15.525 Z" id="Shape" fill-rule="nonzero"></path>
                            <path d="M18.525,18 C17.3625,18.5625 16.2,19.2375 15.9,20.8875 L18.525,20.8875 L18.525,18 Z M10.8,5.3625 L11.475,4.8 L11.475,4.05 C11.25,4.05 11.1,4.1625 10.9125,4.425 C10.765416,3.93842306 10.4270769,3.53241616 9.975,3.3 C9.51636695,3.51581201 9.16464736,3.90811462 9,4.3875 C8.8125,4.125 8.7,4.0875 8.4375,4.0125 L8.4375,4.7625 L9.1125,5.3625 L10.8,5.3625 Z" id="Shape" fill-rule="nonzero"></path>
                            <path d="M11.175,7.2 L11.475,6.4875 L11.475,5.55 C11.25,5.55 11.1,5.6625 10.9125,5.925 C10.765416,5.43842306 10.4270769,5.03241616 9.975,4.8 C9.51636695,5.01581201 9.16464736,5.40811462 9,5.8875 C8.8125,5.625 8.7,5.5875 8.4375,5.55 L8.4375,6.4875 L8.7375,7.2 L11.175,7.2 Z" id="Path"></path>
                            <path d="M11.25,9.675 L12.225,8.4375 L12.225,7.2375 C11.85,7.2375 11.6625,7.425 11.4,7.8375 C11.1375,6.975 10.65,6.825 9.975,6.4125 C9.2625,6.7875 8.775,6.975 8.55,7.8 C8.25,7.3875 8.0625,7.275 7.6875,7.2375 L7.6875,8.4375 L8.7,9.675 L11.25,9.675 Z" id="Path"></path>
                            <path d="M11.5125,12.1125 C11.5125,12.1125 12.7125,11.1 12.75,10.5375 L12.75,9.225 C12.3,9.2625 11.8875,9.375 11.55,9.9375 C11.25,8.85 10.8,8.55 9.975,8.0625 C9.1125,8.55 8.6625,8.85 8.4,9.9375 C8.025,9.375 7.65,9.2625 7.1625,9.1875 L7.1625,10.5375 C7.47745172,11.1323071 7.89659558,11.6657629 8.4,12.1125 L11.5125,12.1125 Z" id="Path"></path>
                            <path d="M12,16.6125 C12,16.6125 13.65,14.85 13.6875,14.1375 L13.6875,12.1125 C13.0875,12.1875 12.4875,12.6 12.0375,13.4625 C11.6625,11.775 11.0625,10.6125 9.975,9.7875 C8.85,10.6125 8.25,11.775 7.875,13.4625 C7.425,12.6 6.8625,12.1875 6.2625,12.1125 L6.2625,14.1375 C6.375,14.85 7.9125,16.6125 7.9125,16.6125 L12,16.6125 Z" id="Path"></path>
                            <path d="M12,19.275 C12,19.275 13.3875,17.8875 13.6875,17.2875 L13.6875,15.2625 C13.0875,15.3375 12.4875,15.75 12.0375,16.575 C11.8348832,15.1969313 11.0929408,13.9558641 9.975,13.125 C8.85,13.95 8.25,14.8875 7.875,16.575 C7.425,15.75 6.8625,15.3375 6.2625,15.2625 L6.2625,17.2875 C6.6375,17.8875 7.9125,19.275 7.9125,19.275 L12,19.275 Z" id="Path"></path>
                            <path d="M12.5625,20.85 C12.1875,19.0875 11.8125,17.775 9.9,16.4625 C7.95,17.775 7.6125,19.0875 7.2,20.85 L12.5625,20.85 Z" id="Path"></path>
                            <path d="M13.575,21.825 L13.575,19.275 C12.675,19.65 11.8875,20.1375 11.5875,20.7 C11.2875,19.275 10.65,18.675 9.8625,17.8125 C9.075,18.675 8.55,19.3125 8.2125,20.7 C7.9125,20.1375 7.125,19.6125 6.2625,19.275 L6.2625,21.825 L13.575,21.825 Z" id="Path"></path>
                        </g>
                    </g>
                    <path d="M2.5125,53.3625 L94.5,53.3625 L94.5,58.05 L2.5125,58.05 L2.5125,53.3625 Z M0.075,58.05 L96.9375,58.05 L96.9375,62.7375 L0.075,62.7375 L0.075,58.05 Z M7.35,46.3125 L89.625,46.3125 L89.625,49.35 L7.35,49.35 L7.35,46.3125 Z" id="Shape" stroke-width="0.6" fill="#FFFFFF" fill-rule="nonzero"></path>
                    <path d="M4.95,49.35 L92.1,49.35 L92.1,53.325 L4.95,53.325 L4.95,49.35 Z M8.775,43.9875 L88.275,43.9875 L88.275,46.3125 L8.775,46.3125 L8.775,43.9875 Z" id="Shape" stroke-width="0.6" fill="#FFFFFF" fill-rule="nonzero"></path>
                    <polygon id="Path" stroke-width="0.6" fill="#FFFFFF" points="17.4 43.9875 23.4 43.9875 23.4 62.7375 17.4 62.7375"></polygon>
                    <path d="M18.75,43.9875 L22.0875,43.9875 L22.0875,62.7375 L18.7125,62.7375 L18.75,43.9875 Z M45.375,43.9875 L51.375,43.9875 L51.375,62.7375 L45.375,62.7375 L45.375,43.9875 Z" id="Shape" stroke-width="0.6" fill="#FFFFFF" fill-rule="nonzero"></path>
                    <path d="M46.7625,43.9875 L50.1375,43.9875 L50.1375,62.7375 L46.7625,62.7375 L46.7625,43.9875 Z M73.575,43.9875 L79.575,43.9875 L79.575,62.7375 L73.575,62.7375 L73.575,43.9875 Z" id="Shape" stroke-width="0.6" fill="#FFFFFF" fill-rule="nonzero"></path>
                    <polygon id="Path" stroke-width="0.6" fill="#FFFFFF" points="74.8875 43.9875 78.2625 43.9875 78.2625 62.7375 74.8875 62.7375"></polygon>
                    <path d="M12.375,42.075 L84.75,42.075 M18.675,60.375 L22.125,60.375 M18.675,58.0125 L22.125,58.0125 M18.675,55.6875 L22.125,55.6875 M18.675,53.325 L22.125,53.325 M18.675,51 L22.125,51 M18.675,48.6375 L22.125,48.6375 M18.675,46.3125 L22.125,46.3125 M46.8,60.375 L50.025,60.375 M46.8,58.0125 L50.025,58.0125 M46.8,55.6875 L50.025,55.6875 M46.8,53.325 L50.025,53.325 M46.8,51 L50.025,51 M46.8,48.6375 L50.025,48.6375 M46.8,46.3125 L50.025,46.3125 M74.85,60.375 L78.3,60.375 M74.85,58.0125 L78.3,58.0125 M74.85,55.6875 L78.3,55.6875 M74.85,53.325 L78.3,53.325 M74.85,51 L78.3,51 M74.85,48.6375 L78.3,48.6375 M74.85,46.3125 L78.3,46.3125" id="Shape" stroke-width="0.6"></path>
                </g>
            </g>
        </g>
    </g>
</svg>