<?xml version="1.0" encoding="UTF-8"?>
<svg width="200px" height="150px" viewBox="0 0 200 150" version="1.1" xmlns="http://www.w3.org/2000/svg" xmlns:xlink="http://www.w3.org/1999/xlink">
    <!-- Generator: Sketch 52.5 (67469) - http://www.bohemiancoding.com/sketch -->
    <title>ck</title>
    <desc>Created with Sketch.</desc>
    <g id="Flags" stroke="none" stroke-width="1" fill="none" fill-rule="evenodd">
        <g id="Oceania" transform="translate(-510.000000, -50.000000)">
            <g id="ck" transform="translate(510.000000, 50.000000)">
                <polygon id="Path" fill="#000066" points="0 0 200 0 200 150 0 150"></polygon>
                <g id="Group" fill-rule="nonzero">
                    <path d="M0,0 L0,7.75 L99.9375,69.375 L112.5,69.375 L112.5,61.625 L12.5625,0 L0,0 Z M112.5,0 L112.5,7.75 L12.5625,69.375 L0,69.375 L0,61.625 L99.9375,0 L112.5,0 Z" id="Shape" fill="#FFFFFF"></path>
                    <path d="M46.875,0 L46.875,69.375 L65.625,69.375 L65.625,0 L46.875,0 Z M0,23.125 L0,46.25 L112.5,46.25 L112.5,23.125 L0,23.125 Z" id="Shape" fill="#FFFFFF"></path>
                    <path d="M0,27.75 L0,41.625 L112.5,41.625 L112.5,27.75 L0,27.75 Z M50.625,0 L50.625,69.375 L61.875,69.375 L61.875,0 L50.625,0 Z M0,69.375 L37.5,46.25 L45.875,46.25 L8.375,69.375 L0,69.375 Z M0,0 L37.5,23.125 L29.125,23.125 L0,5.15625 L0,0 Z M66.625,23.125 L104.125,0 L112.5,0 L75,23.125 L66.625,23.125 Z M112.5,69.375 L75,46.25 L83.375,46.25 L112.5,64.1875 L112.5,69.34375 L112.5,69.375 Z" id="Shape" fill="#CC0000"></path>
                </g>
                <path d="M147.375,66.5625 L149,61.34375 L144.625,58.03125 L150.125,57.96875 L152,52.8125 L153.75,57.96875 L159.28125,58.125 L154.875,61.40625 L156.4375,66.625 L151.90625,63.5 M160.375,67.5625 L163.625,63.21875 L160.59375,58.59375 L165.8125,60.40625 L169.25,56.1875 L169.25,61.6875 L174.375,63.6875 L169.125,65.25 L168.875,70.71875 L165.6875,66.21875 M134.9375,70.90625 L134.71875,65.4375 L129.46875,63.8125 L134.6875,61.875 L134.6875,56.4375 L138.09375,60.65625 L143.34375,58.90625 L140.28125,63.5 L143.5,67.875 L138.1875,66.46875 M125.8125,79.25 L123.5,74.3125 L118.0625,74.875 L122.0625,71.03125 L120,65.9375 L124.75,68.5 L128.90625,64.8125 L127.84375,70.25 L132.5,73.03125 L127.09375,73.8125 M121.5625,91.1875 L117.40625,87.71875 L112.71875,90.59375 L114.71875,85.375 L110.6875,81.75 L116.09375,81.96875 L118.28125,76.84375 L119.625,82.21875 L125,82.6875 L120.4375,85.75 M121.4375,104.625 L116.28125,103.125 L113.125,107.65625 L112.90625,102.0625 L107.78125,100.34375 L112.8125,98.40625 L112.8125,92.78125 L116.15625,97.1875 L121.28125,95.4375 L118.28125,100.125 M127.5,116 L122.1875,116.75 L121.09375,122.1875 L118.65625,117.1875 L113.3125,117.6875 L117.125,113.84375 L114.90625,108.71875 L119.6875,111.375 L123.6875,107.6875 L122.8125,113.125 M136.875,125 L132.15625,127.5625 L132.96875,133.0625 L129,129.1875 L124.125,131.5625 L126.40625,126.59375 L122.5625,122.5625 L127.96875,123.375 L130.46875,118.53125 L131.53125,123.96875 M148.34375,126.78125 L145.75,131.5625 L149.40625,135.6875 L143.96875,134.65625 L141.1875,139.34375 L140.4375,133.9375 L135.0625,132.6875 L140,130.375 L139.46875,124.90625 L143.28125,128.90625 M161.21875,124.8125 L161.0625,130.25 L166.15625,132.25 L160.84375,133.8125 L160.46875,139.28125 L157.34375,134.8125 L152.03125,136.1875 L155.40625,131.84375 L152.46875,127.25 L157.65625,129.03125 M174.6875,65.5625 L178.4375,69.5 L183.40625,67.1875 L180.8125,72.125 L184.40625,76.21875 L179.09375,75.34375 L176.28125,80.1875 L175.625,74.6875 L170.3125,73.59375 L175.21875,71.09375 M185.90625,77.65625 L187.625,82.84375 L193.09375,82.9375 L188.65625,86.28125 L190.125,91.53125 L185.71875,88.40625 L181.15625,91.5625 L182.84375,86.3125 L178.53125,83 L184.03125,82.875 M190.125,93.25 L189.5,98.6875 L194.40625,101.09375 L189,102.21875 L188.15625,107.625 L185.4375,102.90625 L180,103.8125 L183.75,99.75 L181.21875,94.90625 L186.21875,97.15625 M187.15625,109.59375 L184.71875,114.46875 L188.4375,118.4375 L183,117.59375 L180.375,122.375 L179.4375,116.96875 L174,115.9375 L178.875,113.4375 L178.15625,108 L182.09375,111.84375 M179.03125,124.0625 L174.4375,126.9375 L175.625,132.34375 L171.40625,128.75 L166.71875,131.4375 L168.6875,126.34375 L164.59375,122.5625 L170.03125,123.03125 L172.21875,118.03125 L173.59375,123.40625" id="Shape" fill="#FFFFFF"></path>
            </g>
        </g>
    </g>
</svg>