<?xml version="1.0" encoding="UTF-8"?>
<svg width="200px" height="150px" viewBox="0 0 200 150" version="1.1" xmlns="http://www.w3.org/2000/svg" xmlns:xlink="http://www.w3.org/1999/xlink">
    <!-- Generator: Sketch 52.5 (67469) - http://www.bohemiancoding.com/sketch -->
    <title>eg</title>
    <desc>Created with Sketch.</desc>
    <g id="Flags" stroke="none" stroke-width="1" fill="none" fill-rule="evenodd">
        <g id="Africa" transform="translate(-290.000000, -450.000000)">
            <g id="eg" transform="translate(290.000000, 450.000000)">
                <polygon id="Path" fill="#000000" points="0 100 200 100 200 150 0 150"></polygon>
                <polygon id="Path" fill="#FFFFFF" points="0 50 200 50 200 100 0 100"></polygon>
                <polygon id="Path" fill="#CE1126" points="0 0 200 0 200 50 0 50"></polygon>
                <g id="Group" transform="translate(82.500000, 51.250000)">
                    <path d="M17.7,24.35 L34.825,40.25 L33.6,11.375 C33.425,7 29.625,8 26.85,9.575 C24.075,11.375 20.85,11.375 17.5,10.2 C14.125,11.375 10.925,11.375 8.15,9.575 C5.4,8 1.575,7 1.4,11.375 L0.175,40.25 L17.7,24.35 Z" id="Path" stroke="#C09300" stroke-width="0.5" fill="#FFFFFF" stroke-linejoin="round"></path>
                    <path d="M3.375,10.375 L2.175,38.45 L0.175,40.25 L1.4,11.375 C1.9906099,10.9220527 2.66034024,10.5829488 3.375,10.375 Z M5.775,12.375 L4.775,35.875 L2.775,37.925 L3.975,10.8 C4.375,11.2 5.55,12.175 5.775,12.375 Z M7.95,14.175 L7.175,33.775 L5.55,35.35 L6.55,13 C6.95,13.375 7.75,13.95 7.95,14.175 Z M10.325,15.175 L9.55,31.875 L7.975,33.15 L8.75,14.575 C9.15,14.75 9.925,15.175 10.325,15.175 Z M12.525,15.175 L11.95,29.1 L10.325,30.675 L10.95,15.35 C11.325,15.35 12.35,15.35 12.525,15.175 Z" id="a" fill="#C09300" fill-rule="nonzero"></path>
                    <g id="a-link" transform="translate(28.625000, 25.250000) scale(-1, 1) translate(-28.625000, -25.250000) translate(22.250000, 10.250000)" fill="#C09300" fill-rule="nonzero">
                        <path d="M3.375,0.125 L2.175,28.2 L0.175,30 L1.4,1.125 C1.9906099,0.672052746 2.66034024,0.332948775 3.375,0.125 Z M5.775,2.125 L4.775,25.625 L2.775,27.675 L3.975,0.55 C4.375,0.95 5.55,1.925 5.775,2.125 Z M7.95,3.925 L7.175,23.525 L5.55,25.1 L6.55,2.75 C6.95,3.125 7.75,3.7 7.95,3.925 Z M10.325,4.925 L9.55,21.625 L7.975,22.9 L8.75,4.325 C9.15,4.5 9.925,4.925 10.325,4.925 Z M12.525,4.925 L11.95,18.85 L10.325,20.425 L10.95,5.1 C11.325,5.1 12.35,5.1 12.525,4.925 Z" id="a"></path>
                    </g>
                    <polygon id="Path" stroke="#C09300" stroke-width="0.4" fill="#C09300" points="18.3 27.5 20.7 38.45 19.9 39.25 19.075 38.625 17.725 28.875 18.3 38.625 17.5 39.625 16.725 38.625 17.3 28.875 15.925 38.625 15.1 39.25 14.3 38.45 16.7 27.525 18.3 27.525"></polygon>
                    <g id="b" stroke-linejoin="round" transform="translate(7.250000, 22.500000)" stroke="#C09300" stroke-width="0.5">
                        <polygon id="Path" fill="#FFFFFF" points="4.875 0.2 0.1 17.125 6.675 18.125 9.45 5.4"></polygon>
                        <polyline id="Path" points="3.3 6 3.875 7.375 6.975 4.425"></polyline>
                        <path d="M5.45,2.5 L6.1,8.575 L8.075,5.975 M7.275,6.975 L8.35,10.725 M8.775,9.35 L6.6,12.65 M7.275,15.95 L6.575,12.65 L5.975,9.3 L4.5,11.275 L3.875,9 L1.825,11.1 L2.85,14.9 L4.3,12.55 L5.075,14.95 L6.575,12.65" id="Shape"></path>
                        <polyline id="Path" points="1.5 16.75 2.825 14.875 3.675 17.75 4.875 15.75 5.65 18.15"></polyline>
                    </g>
                    <g id="b-link" transform="translate(23.000000, 31.625000) scale(-1, 1) translate(-23.000000, -31.625000) translate(18.250000, 22.500000)" stroke="#C09300" stroke-linejoin="round" stroke-width="0.5">
                        <g id="b">
                            <polygon id="Path" fill="#FFFFFF" points="4.875 0.2 0.1 17.125 6.675 18.125 9.45 5.4"></polygon>
                            <polyline id="Path" points="3.3 6 3.875 7.375 6.975 4.425"></polyline>
                            <path d="M5.45,2.5 L6.1,8.575 L8.075,5.975 M7.275,6.975 L8.35,10.725 M8.775,9.35 L6.6,12.65 M7.275,15.95 L6.575,12.65 L5.975,9.3 L4.5,11.275 L3.875,9 L1.825,11.1 L2.85,14.9 L4.3,12.55 L5.075,14.95 L6.575,12.65" id="Shape"></path>
                            <polyline id="Path" points="1.5 16.75 2.825 14.875 3.675 17.75 4.875 15.75 5.65 18.15"></polyline>
                        </g>
                    </g>
                    <g stroke-linecap="round" stroke-linejoin="round" transform="translate(2.250000, 38.500000)">
                        <path d="M15.25,8.7 C20.25,8.7 25,8.3 27.8,7.525 C28.975,7.3 28.975,6.7 28.975,5.9 C30.175,5.5 29.575,4.1 30.4,4.1 C29.55,4.35 29.4,2.725 28.4,2.925 C28.4,1.525 26.975,1.35 25.8,1.75 C23.425,2.525 19.225,2.725 15.25,2.725 C11.25,2.525 7.1,2.525 4.7,1.725 C3.525,1.35 2.125,1.525 2.125,2.925 C1.125,2.725 0.95,4.325 0.125,4.1 C0.95,4.1 0.325,5.525 1.525,5.9 C1.525,6.7 1.525,7.3 2.725,7.525 C5.475,8.3 10.275,8.7 15.25,8.7 Z" id="Path" stroke="#C09300" fill="#FFFFFF"></path>
                        <path d="M8.475,1.125 C10.075,1.35 11.875,1.525 13.275,1.35 C14.075,1.35 14.65,2.725 13.05,2.925 C11.675,3.1 9.475,2.925 8.3,2.725 C6.75371263,2.45432535 5.2191047,2.12071493 3.7,1.725 C2.3,1.125 3.3,-0.025 4.1,0.125 C5.52720994,0.582259071 6.9908605,0.91680777 8.475,1.125 Z M22.025,1.125 C20.425,1.35 18.625,1.525 17.275,1.35 C16.425,1.35 15.85,2.725 17.45,2.925 C18.85,3.1 21.025,2.925 22.2,2.725 C23.2,2.525 25.4,2.15 26.8,1.725 C28.2,1.125 27.2,-0.025 26.4,0.125 C24.9728223,0.582376722 23.5091616,0.916927741 22.025,1.125 Z" id="Shape" stroke="#C09300" stroke-width="0.5" fill="#FFFFFF" fill-rule="nonzero"></path>
                        <path d="M3.5,0.35 C2.3,0.125 1.75,1.525 2.125,2.325 C2.3,1.925 3.125,1.925 3.3,1.525 C3.525,0.925 3.125,0.925 3.525,0.35 L3.5,0.35 Z M8.3,4.025 C8.3,3.225 9.075,3.325 9.075,2.525 C9.075,2.15 8.875,1.525 8.475,1.525 C8.04381669,1.54969851 7.69969851,1.89381669 7.675,2.325 C7.5,3.1 8.3,3.225 8.3,4.025 Z M13.975,1.75 C15.15,1.75 15.025,3.325 14.475,4.125 C14.475,3.55 13.475,3.325 13.475,2.925 C13.475,2.325 14.375,2.325 13.975,1.75 Z M26.975,0.35 C28.2,0.125 28.775,1.525 28.375,2.325 C28.2,1.925 27.375,1.925 27.2,1.525 C26.975,0.925 27.375,0.925 26.975,0.35 Z M22.25,4 C22.25,3.2 21.45,3.3 21.45,2.5 C21.45,2.125 21.65,1.5 22.05,1.5 C22.4811833,1.52469851 22.8253015,1.86881669 22.85,2.3 C23.025,3.075 22.225,3.2 22.225,4 L22.25,4 Z M16.5,1.75 C15.325,1.75 15.45,3.325 16,4.125 C16,3.55 17,3.325 17,2.925 C17,2.325 16.1,2.325 16.5,1.75 Z" id="Shape" stroke="#C09300" stroke-width="0.5" fill="#FFFFFF" fill-rule="nonzero"></path>
                        <path d="M3.925,0.75 C4.325,0.75 4.925,0.925 5.1,1.15 L3.925,0.75 Z M5.9,1.35 C6.1,1.35 6.9,1.525 7.275,1.75 L5.9,1.35 Z M13.05,2.15 C12.675,2.15 11.875,2.15 11.675,2.325 L13.05,2.125 L13.05,2.15 Z M10.875,2.15 C10.65,1.925 9.875,1.925 9.475,2.15 L10.875,2.15 Z M26.575,0.75 C26.1508239,0.755347559 25.7393342,0.895429167 25.4,1.15 L26.575,0.75 Z M24.625,1.35 C24.375,1.35 23.625,1.525 23.225,1.75 L24.625,1.35 Z M17.45,2.15 C17.825,2.15 18.625,2.15 18.85,2.325 L17.45,2.125 L17.45,2.15 Z M19.625,2.15 C19.85,1.925 20.625,1.925 21.025,2.15 L19.625,2.15 Z" id="Shape" stroke="#C09300" stroke-width="0.3" fill="#FFFFFF" fill-rule="nonzero"></path>
                        <g transform="translate(3.000000, 2.750000)" fill="#C09300" fill-rule="nonzero" id="Shape">
                            <path d="M0.575,1.15 C0.45,1.125 0.375,1 0.425,0.9 C0.45,0.725 0.575,0.65 0.675,0.7 C0.775,0.7 0.9,0.85 0.9,0.9 L0.8,1.075 L0.75,1.1 C0.75,1.15 0.65,1.15 0.575,1.15 Z M14.325,2.125 C14.275,2.125 14.175,2 14.175,1.95 C14.175,1.85 14.325,1.7 14.425,1.7 L14.625,1.8 C14.7,1.875 14.7,2.025 14.6,2.1 C14.55,2.15 14.4,2.15 14.325,2.1 L14.325,2.125 Z M14.4,2.75 C14.3,2.7 14.275,2.65 14.25,2.55 C14.25,2.425 14.25,2.4 14.375,2.325 L14.475,2.275 L14.575,2.325 C14.675,2.375 14.75,2.425 14.75,2.525 C14.75,2.6 14.675,2.675 14.575,2.725 C14.5,2.775 14.475,2.775 14.4,2.725 L14.4,2.75 Z"></path>
                            <path d="M1.7,0 C1.6,0 1.475,0.1 1.4,0.15 C1.25,0.175 1.05,0.275 0.9,0.15 C0.75,0.125 0.55,0.15 0.525,0.35 C0.55,0.525 0.775,0.6 0.925,0.5 C1.025,0.375 1.3,0.275 1.35,0.5 C1.225,0.7 1.25,0.925 1.15,1.1 C1.15,1.225 1.075,1.325 1.025,1.425 C0.9,1.425 0.775,1.425 0.675,1.5 C0.517621348,1.5 0.369427191,1.57409708 0.275,1.7 C0.175,1.85 0.075,2 0.05,2.2 C0.075,2.35 0.3,2.4 0.45,2.425 L0.95,2.575 L1.75,2.8 C2.15,2.925 2.55,2.975 2.95,3.075 L3.075,3.1 C3.25,3.15 3.325,2.975 3.325,2.85 L3.575,1.95 C3.625,1.825 3.7,1.575 3.475,1.625 C3.35,1.7 3.225,1.825 3.075,1.825 C2.85,1.825 2.975,2.075 3.075,2.15 C3.075,2.3 3.025,2.475 2.95,2.6 C2.8,2.675 2.65,2.6 2.5,2.55 C2.375,2.55 2.075,2.475 2.2,2.3 L2.325,1.85 C2.4,1.7 2.4,1.525 2.45,1.35 C2.35,1.175 2.2,1.425 2.075,1.45 C1.975,1.5 1.675,1.525 1.825,1.7 C1.975,1.8 1.875,1.975 1.825,2.125 C1.825,2.3 1.625,2.375 1.475,2.3 C1.325,2.3 1.1,2.175 1.225,2.025 L1.35,1.575 L1.525,1.075 C1.525,0.9 1.6,0.775 1.675,0.625 C1.675,0.45 1.8,0.3 1.8,0.125 C1.8,0.05 1.75,0.025 1.7,0.025 L1.7,0 Z M0.775,1.825 C0.798205081,1.81160254 0.826794919,1.81160254 0.85,1.825 C0.9,1.875 0.9,1.925 0.85,1.975 L0.775,2.025 C0.65,2.025 0.625,2 0.625,1.95 C0.625,1.925 0.625,1.9 0.7,1.875 C0.73043881,1.85308264 0.764202825,1.83620063 0.8,1.825 L0.775,1.825 Z M0.525,3.075 C0.4,2.975 0.425,2.9 0.6,2.75 C0.7,2.7 0.725,2.7 0.825,2.775 C0.975,2.9 0.975,2.975 0.825,3.1 C0.775,3.15 0.75,3.15 0.7,3.15 C0.625,3.15 0.6,3.15 0.525,3.1 L0.525,3.075 Z M1.275,3.325 C1.15892256,3.28890396 1.09250379,3.16713621 1.125,3.05 C1.175,2.95 1.2,2.925 1.35,2.925 C1.525,2.925 1.55,2.95 1.575,3.1 C1.575,3.2 1.575,3.225 1.5,3.275 C1.4436283,3.31965773 1.37075514,3.33787602 1.3,3.325 L1.275,3.325 Z M23.575,3.325 C23.525,3.3 23.5,3.275 23.5,3.2 C23.5,3.1 23.55,3.025 23.7,2.975 C23.85,2.9 23.95,2.9 24,3.025 C24.075,3.175 24.075,3.225 23.975,3.325 C23.925,3.4 23.9,3.4 23.775,3.4 C23.65,3.4 23.625,3.4 23.575,3.35 L23.575,3.325 Z M2.325,3.625 C2.225,3.625 2.175,3.525 2.175,3.425 C2.175,3.35 2.175,3.325 2.225,3.275 L2.375,3.225 L2.525,3.25 C2.65,3.35 2.675,3.45 2.6,3.55 C2.525,3.65 2.45,3.65 2.3,3.625 L2.325,3.625 Z M7.775,3.875 L7.725,3.8 C7.725,3.65 7.725,3.525 7.775,3.375 C7.8,3.25 7.775,3.125 7.825,3 L7.925,2.3 C7.925,2.175 7.925,2.05 7.975,1.95 C8,1.75 7.975,1.575 8.025,1.4 C8.025,1.325 8.1,1.15 8.175,1.25 C8.275,1.4 8.4,1.5 8.525,1.625 C8.625,1.7 8.525,1.8 8.45,1.825 C8.35,1.85 8.325,1.975 8.325,2.075 L8.275,2.375 C8.275,2.55 8.275,2.7 8.225,2.875 L8.2,3.325 L8.15,3.625 C8.15,3.725 8.15,3.85 8.05,3.9 C7.975,3.95 7.85,3.95 7.8,3.875 L7.775,3.875 Z M15.2,1.425 L14.875,1.725 C14.725,1.85 15,1.9 15.025,2 C15.075,2.15 15.075,2.3 15.075,2.45 C15.125,2.6 15.15,2.725 15.125,2.875 C15.125,3.05 14.925,3 14.825,3.1 C14.7,3.15 14.65,3.275 14.575,3.35 C14.5155585,3.47541407 14.48157,3.61136808 14.475,3.75 C14.475,3.875 14.4,4 14.475,4.1 L14.5,4.15 L14.625,4.15 L15,4.125 C15.3,4.075 15.625,4.075 15.925,4.05 L16.475,4 C16.625,4.025 16.7,3.875 16.7,3.75 C16.6,3.575 16.675,3.4 16.6,3.25 C16.55,3.05 16.575,2.875 16.55,2.7 C16.55,2.55 16.375,2.5 16.3,2.6 C16.2,2.7 16.05,2.725 16,2.825 C15.925,2.975 16.15,2.975 16.2,3.075 L16.225,3.45 C16.25,3.6 16.1,3.6 15.975,3.625 C15.85,3.675 15.675,3.7 15.6,3.55 C15.55,3.425 15.55,3.3 15.55,3.175 C15.55,2.925 15.475,2.725 15.475,2.5 C15.475,2.25 15.4,1.975 15.4,1.7 C15.4,1.575 15.375,1.4 15.2,1.425 Z M15.05,3.475 L15.125,3.475 L15.125,3.675 L15.05,3.7 C15.0172204,3.7104096 14.9838219,3.71875923 14.95,3.725 C14.93334,3.72566693 14.91666,3.72566693 14.9,3.725 C14.85,3.675 14.85,3.6 14.925,3.525 L15.05,3.475 Z M7.55,1.175 C7.475,1.175 7.35,1.35 7.25,1.325 C7.025,1.35 7.05,1.575 7.225,1.65 L7.225,1.85 C7.25,2.05 7.125,2.225 7.15,2.425 C7.15,2.625 7.075,2.85 7.075,3.075 C7,3.3 7,3.525 6.975,3.75 C6.95,3.95 6.8,3.875 6.675,3.825 L6.675,3.575 C6.7,3.35 6.55,3.3 6.375,3.275 C6.2,3.275 6.125,3.15 6.175,3 C6.25,2.9 6.425,2.925 6.55,2.925 C6.8,2.975 6.775,2.65 6.65,2.525 C6.55,2.375 6.35,2.275 6.3,2.125 C6.3,1.925 6.175,1.7 6,1.6 C5.725,1.575 5.5,1.8 5.425,2.05 C5.3,2.05 5.175,2.1 5.075,2.15 C4.9,2.2 4.65,2.5 4.9,2.625 C5.025,2.65 5.45,2.75 5.25,2.925 C5.15,3.125 4.95,3.125 4.775,3.075 C4.6,3.075 4.4,2.975 4.4,2.775 C4.375,2.575 4.375,2.375 4.3,2.2 C4.25,2 4.025,2.05 4,2.25 C3.825,2.375 3.85,2.6 3.975,2.75 C4.05,2.925 3.975,3.15 3.9,3.3 C3.85,3.55 3.6,3.55 3.425,3.6 C3.35,3.65 3.025,3.6 3.15,3.775 C3.33746859,3.86131671 3.54705248,3.8875147 3.75,3.85 C3.95,3.85 4.125,3.675 4.25,3.5 C4.375,3.375 4.6,3.45 4.8,3.45 C4.975,3.45 5.175,3.575 5.375,3.475 C5.425,3.35 5.675,3.1 5.75,3.35 C5.75,3.575 5.925,3.675 6.125,3.65 C6.35,3.65 6.25,3.8 6.25,3.95 C6.25,4.175 6.425,4.3 6.625,4.4 L6.825,4.4 C7,4.325 7.2,4.25 7.275,4.05 C7.35,3.875 7.35,3.675 7.4,3.5 C7.45,3.225 7.5,2.925 7.5,2.65 C7.575,2.4 7.55,2.125 7.6,1.85 L7.675,1.275 C7.675,1.15 7.625,1.15 7.55,1.175 Z M5.875,2.2 C5.9,2.2 5.925,2.25 5.925,2.325 C5.925,2.425 5.975,2.5 6.05,2.525 L6.05,2.6 L5.85,2.65 C5.725,2.65 5.625,2.6 5.55,2.525 L5.5,2.475 L5.575,2.425 L5.7,2.3 C5.775,2.225 5.825,2.2 5.875,2.2 Z M22.375,0.225 C22.2311336,0.235338211 22.0887151,0.260470892 21.95,0.3 C21.7,0.3 21.575,0.55 21.825,0.7 C21.975,1.075 22.2,0.6 22.45,0.65 C22.8,0.7 22.825,1.1 22.9,1.4 C22.9,1.675 23,1.95 23.075,2.225 C23.325,2.5 22.9,2.675 22.725,2.475 C22.575,2.3 22.225,2.1 22.05,2.325 C21.825,2.425 21.8,2.725 21.625,2.825 C21.325,2.9 21.3,2.525 21.125,2.375 C20.975,2.15 20.7,2.125 20.475,2.075 C20.375,1.85 20.425,1.475 20.225,1.325 C20.025,1.4 19.675,1.75 19.975,1.925 C20.225,2.175 19.85,2.275 19.725,2.425 C19.525,2.65 19.475,2.925 19.475,3.175 C19.15,3.35 19.1,2.975 19.05,2.75 C19.05,2.475 18.8,2.55 18.625,2.65 C18.375,2.75 18.275,2.975 18.125,3.15 L18.125,3.65 C18.175,3.875 18.425,3.775 18.575,3.75 C18.825,3.65 18.925,3.925 18.725,4.075 C18.575,4.225 18.175,4.15 18.225,4.425 L18.625,4.425 C18.875,4.35 19.175,4.15 19.2,3.85 C19.25,3.6 19.625,3.625 19.825,3.575 C20.075,3.5 20.4,3.475 20.475,3.825 C20.65,4 21.025,4.2 21.225,3.95 C21.419308,3.82689287 21.5261315,3.60353473 21.5,3.375 C21.475,3.175 21.825,3.175 21.925,3.3 C22.05,3.5 22.45,3.45 22.65,3.3 C22.85,3.175 22.9,2.9 23.2,2.9 L24.55,2.525 C24.9,2.45 24.5,2.225 24.4,2.075 C24.15,1.95 23.9,2.5 23.6,2.225 C23.35,2.05 23.375,1.725 23.3,1.45 C23.225,1.1 23.25,0.7 23,0.45 C22.85,0.275 22.6,0.225 22.375,0.225 Z M20.675,2.6 C20.7,2.6 20.75,2.6 20.8,2.65 C20.9,2.7 20.975,2.8 20.975,2.9 C20.975,2.95 20.975,2.95 20.9,2.975 L20.775,3.025 C20.725,3.025 20.6,2.95 20.6,2.9 L20.6,2.8 C20.55,2.7 20.55,2.7 20.6,2.65 L20.675,2.6 Z M22.3,2.7 C22.4,2.7 22.45,2.7 22.5,2.775 C22.525,2.875 22.5,2.925 22.4,2.975 L22.275,3.025 L22.175,2.95 C22.125,2.925 22.1,2.9 22.1,2.85 C22.1,2.775 22.2,2.7 22.3,2.675 L22.3,2.7 Z M20.05,2.7 C20.1,2.7 20.125,2.7 20.15,2.75 C20.2,2.8 20.225,2.825 20.225,2.9 L20.225,3.05 C20.225,3.125 20.225,3.1 20.075,3.1 C19.925,3.1 19.9,3.1 19.9,2.95 C19.9,2.85 19.9,2.825 19.975,2.775 C20,2.725 20.05,2.725 20.075,2.725 L20.05,2.7 Z M18.7,3.075 C18.7479412,3.08954235 18.7854576,3.12705876 18.8,3.175 C18.8,3.25 18.8,3.3 18.75,3.325 C18.675,3.35 18.55,3.375 18.5,3.325 C18.4993043,3.31668118 18.4993043,3.30831882 18.5,3.3 C18.45,3.275 18.45,3.25 18.5,3.225 L18.5,3.2 L18.55,3.125 C18.5817694,3.07481088 18.644471,3.05391033 18.7,3.075 Z M21,3.375 L21.125,3.4 L21.125,3.55 L20.825,3.55 L20.8,3.5 C20.8,3.45 20.8,3.425 20.85,3.4 L21,3.375 Z M16.725,4.575 C16.7,4.575 16.65,4.55 16.7,4.525 C16.725,4.45 16.825,4.425 16.9,4.375 C17.0361701,4.32305068 17.1566955,4.23696116 17.25,4.125 C17.25,4.025 17.35,3.975 17.35,3.875 L17.325,3.525 C17.2912338,3.41996715 17.220059,3.33099861 17.125,3.275 C17.05,3.25 16.95,3.225 16.925,3.125 C16.925,3.05 17,2.975 17.025,2.9 L17.175,2.6 C17.25,2.525 17.35,2.6 17.375,2.65 L17.5,2.9 C17.575,2.975 17.625,3.05 17.65,3.15 C17.7,3.25 17.75,3.325 17.75,3.4 L17.8,3.725 C17.8,3.85 17.8,4 17.75,4.125 L17.6,4.325 C17.525,4.4 17.45,4.475 17.35,4.5 C17.275,4.525 17.225,4.6 17.125,4.6 L16.75,4.6 L16.725,4.575 Z M15,4.675 C14.95,4.625 14.925,4.6 14.925,4.525 C14.925,4.45 14.925,4.45 15,4.375 C15.1,4.275 15.15,4.275 15.35,4.375 C15.525,4.475 15.6,4.475 15.6,4.4 C15.625,4.35 15.725,4.275 15.85,4.275 C15.8961928,4.27672062 15.9403634,4.29438888 15.975,4.325 C16.025,4.375 16.05,4.4 16.05,4.5 C16.05,4.625 16.05,4.625 15.975,4.7 C15.9,4.75 15.9,4.75 15.8,4.75 C15.7091339,4.74504561 15.6301987,4.68584427 15.6,4.6 C15.6,4.55 15.6,4.525 15.55,4.575 L15.5,4.6 C15.45,4.6 15.35,4.675 15.3,4.725 L15.175,4.75 C15.075,4.75 15.075,4.75 15,4.675 Z M10.05,2.45 C9.875,2.45 9.7,2.6 9.675,2.775 C9.725,2.95 9.875,3.15 9.775,3.325 C9.85,3.575 9.575,3.675 9.4,3.55 C9.3,3.3 9.25,3.05 9.075,2.8 C8.875,2.75 8.8,3.075 8.65,3.2 C8.725,3.375 8.925,3.55 8.95,3.775 C9,4.025 8.85,4.275 8.675,4.375 C8.5,4.55 8.25,4.5 8.05,4.525 C7.8,4.675 8.225,4.725 8.35,4.725 C8.6,4.75 8.875,4.725 9.1,4.525 C9.275,4.45 9.25,4.1 9.475,4.075 L10.675,4.15 C10.875,4.2 11.2,4.125 11.35,4.275 C11.35,4.525 11.6,4.725 11.825,4.825 C11.95,4.875 12.075,4.7 12.2,4.675 C12.45,4.6 12.375,4.3 12.525,4.175 L13.775,4.175 C13.825,4.175 13.85,4.05 13.925,4 L13.875,3.525 C13.8,3.325 13.875,3.075 13.75,2.9 C13.525,2.85 13.35,3.025 13.15,3.05 C12.9,3.15 12.725,3.375 12.7,3.625 C12.575,3.85 12.35,3.575 12.45,3.375 L12.425,3.125 C12.3,3 12.075,3.05 11.9,3.025 L11.15,2.975 C10.9,2.975 10.675,3 10.475,2.95 C10.225,2.95 10.225,2.7 10.225,2.5 C10.1750209,2.46193746 10.1125436,2.44408679 10.05,2.45 Z M10.55,3.375 L10.8,3.4 L11.125,3.4 C11.375,3.45 11.625,3.45 11.875,3.45 C11.925,3.45 11.975,3.5 12.025,3.55 L12.025,4.05 C12.025,4.125 12.025,4.225 11.975,4.25 C11.9619092,4.26989529 11.9448953,4.28690922 11.925,4.3 C11.8508101,4.28683454 11.7865154,4.24090977 11.75,4.175 L11.75,3.825 C11.7004617,3.78309077 11.6395124,3.75696965 11.575,3.75 L10.925,3.725 L10.425,3.7 C10.35,3.675 10.25,3.7 10.2,3.6 C10.15,3.55 10.225,3.45 10.3,3.425 C10.3785419,3.38983585 10.4639751,3.37274922 10.55,3.375 Z M13.375,3.45 C13.4,3.45 13.425,3.45 13.425,3.525 L13.475,3.65 C13.475,3.675 13.475,3.7 13.425,3.7 C13.3,3.75 13.175,3.75 13.125,3.7 C13.125,3.675 13.125,3.575 13.175,3.55 L13.375,3.45 Z"></path>
                        </g>
                    </g>
                    <path d="M17.5,30.55 C25.65,24.3 24.95,15.1 24.95,15.1 L24.325,15.15 C22.6,15.15 18.525,14.15 17.575,12.925 C16.575,14.05 12.375,15.175 10.675,15.175 L10.05,15.1 C10.05,15.1 9.325,24.275 17.5,30.55 Z" id="Path" stroke="#C09300" stroke-width="0.4" fill="#FFFFFF"></path>
                    <path d="M24.3,15.75 L24.1,15.75 C22.55,15.75 18.95,14.975 17.55,13.775 C16.1,14.875 12.425,15.775 10.9,15.775 C10.8327403,15.7724105 10.7658276,15.7640464 10.7,15.75 C10.7136706,17.3298791 10.9321591,18.9013157 11.35,20.425 C12.3527486,24.0959908 14.5087541,27.3475276 17.5,29.7 C20.4930427,27.3385975 22.6488383,24.0786141 23.65,20.4 C24.0657065,18.8843966 24.2841758,17.3215009 24.3,15.75 Z" id="Path" stroke="#C09300" stroke-width="0.3" fill="#FFFFFF"></path>
                    <path d="M14.85,15 C13.5071428,15.4372934 12.1109728,15.6896132 10.7,15.75 L10.725,16.775 C10.8103745,18.0013401 11.0197771,19.2158752 11.35,20.4 C12.0220687,22.8587304 13.2158009,25.143875 14.85,27.1 L14.85,15 Z M20,15 L20,27.3 C21.7129006,25.2988629 22.9596263,22.942039 23.65,20.4 C23.9798887,19.2158 24.1892855,18.001299 24.275,16.775 L24.3,15.775 L24.1,15.775 C23.15,15.775 21.5,15.475 20,14.975 L20,15 Z" id="Shape" fill="#C09300" fill-rule="nonzero"></path>
                    <g transform="translate(12.500000, 0.000000)">
                        <path d="M8.075,12 C8.25,12.025 7.85,11.125 7.85,11.125 C8.3,11.575 9.95,11.7 9.95,11.7 C8.95,11.25 7.95,7.925 8.075,5.25 C8.175,2.6 7.7,1.55 7.325,1.15 C6.825,0.65 5.2,0.2 4.15,0.15 C3.525,0.125 3.65,0.6 3.65,0.6 C2.525,0.325 1.4,0.2 0.9,0.55 C0.45,0.85 0.35,2.425 0.7,2.15 C1.525,1.475 2.25,2.1 2.75,2.825 C3.2,3.45 3.175,5.25 2.525,7.375 C1.94943638,8.98146707 1.10396968,10.4779431 0.025,11.8 C1.025,11.8 2.425,10.925 2.425,10.925 L2.1,12.3 C3.15,11.8 3.975,11.025 3.975,11.025 L4.975,12.075 C5.3,11.625 5.975,11.025 5.975,11.025 C5.975,11.025 6.8,11.9 8.075,12.025 L8.075,12 Z" id="Path" stroke="#C09300" stroke-width="0.96" fill="#FFFFFF"></path>
                        <path d="M4.025,5.65 C4.025,5.65 3.475,9.75 2.425,10.9 M4.925,5.525 C4.925,5.525 4.675,9.7 3.975,11.025 M5.7,5.7 C5.7,5.7 5.7,10.25 5.95,11.025 M6.7,5.925 C6.7,5.925 6.9,9.75 7.85,11.125" id="Shape" stroke="#C09300" stroke-width="0.5"></path>
                        <path d="M3,3.65 C2.97762777,3.36009666 2.89231292,3.07855768 2.75,2.825 C2.25,2.075 1.525,1.475 0.7,2.15 C0.7,2.15 0.975,1.275 1.6,1.25 C2.05,1.225 3.125,1.6 4.075,3.2 C4.075,3.2 3.375,3.05 3.2,3.2 C2.9,3.45 3.025,3.65 3.025,3.65 L3,3.65 Z" id="Path" stroke="#C09300" stroke-width="0.2" fill="#C09300"></path>
                        <path d="M0.6,1.075 C0.675,0.825 0.775,0.625 0.925,0.55 C1.425,0.2 2.525,0.3 3.65,0.6 C3.65,0.6 3.55,0.125 4.15,0.15 C5.2,0.2 6.8,0.65 7.3,1.15 C7.46009821,1.3257961 7.58713643,1.52905725 7.675,1.75 C7.425,1.4 6.725,1.425 6.55,1.45 C6.3,1.475 6.125,1.45 5.775,1.55 C5.6,1.6 5.35,1.65 5.2,1.75 C5.1,1.85 5,2.15 4.85,2.15 C4.6,2.15 4.6,2.1 4.525,2.025 C4.45,1.9 4.4,1.75 4.3,1.775 C4.05,1.8 3.6,1.6 3.05,1.15 C2.475,0.7 2.25,0.6 1.55,0.65 C0.8,0.7 0.6,1.125 0.6,1.125 L0.6,1.075 Z" id="Path" stroke="#C09300" stroke-width="0.2" fill="#C09300"></path>
                        <circle id="Oval" fill="#FFFFFF" cx="4.7" cy="1.425" r="1"></circle>
                    </g>
                </g>
            </g>
        </g>
    </g>
</svg>