<?xml version="1.0" encoding="UTF-8"?>
<svg width="200px" height="150px" viewBox="0 0 200 150" version="1.1" xmlns="http://www.w3.org/2000/svg" xmlns:xlink="http://www.w3.org/1999/xlink">
    <!-- Generator: Sketch 52.5 (67469) - http://www.bohemiancoding.com/sketch -->
    <title>fo</title>
    <desc>Created with Sketch.</desc>
    <defs>
        <polygon id="path-1" points="0 0 200 0 200 150 0 150"></polygon>
    </defs>
    <g id="Flags" stroke="none" stroke-width="1" fill="none" fill-rule="evenodd">
        <g id="Europe" transform="translate(-70.000000, -650.000000)">
            <g id="fo" transform="translate(70.000000, 650.000000)">
                <mask id="mask-2" fill="white">
                    <use xlink:href="#path-1"></use>
                </mask>
                <g id="Path"></g>
                <g id="Group" mask="url(#mask-2)">
                    <g transform="translate(-4.000000, 0.000000)" id="Path">
                        <polygon fill="#FFFFFF" points="0 0 207.46875 0 207.46875 150 0 150"></polygon>
                        <polygon fill="#003897" points="0.625 58.34375 58.71875 58.34375 58.71875 0 91.875 0 91.875 58.34375 208.0625 58.34375 208.0625 91.65625 91.875 91.65625 91.875 150 58.71875 150 58.71875 91.65625 0.59375 91.65625 0.59375 58.34375"></polygon>
                        <polygon fill="#D72828" points="0.625 66.65625 67 66.65625 67 0 83.59375 0 83.59375 66.65625 208.125 66.65625 208.125 83.34375 83.59375 83.34375 83.59375 150 67.03125 150 67.03125 83.34375 0.625 83.34375"></polygon>
                    </g>
                </g>
            </g>
        </g>
    </g>
</svg>