<?xml version="1.0" encoding="UTF-8"?>
<svg width="200px" height="150px" viewBox="0 0 200 150" version="1.1" xmlns="http://www.w3.org/2000/svg" xmlns:xlink="http://www.w3.org/1999/xlink">
    <!-- Generator: Sketch 52.5 (67469) - http://www.bohemiancoding.com/sketch -->
    <title>gi</title>
    <desc>Created with Sketch.</desc>
    <g id="Flags" stroke="none" stroke-width="1" fill="none" fill-rule="evenodd">
        <g id="Europe" transform="translate(-510.000000, -850.000000)">
            <g id="gi" transform="translate(510.000000, 850.000000)">
                <polygon id="Path" fill="#DA000C" points="0 0 200 0 200 150 0 150"></polygon>
                <polygon id="Path" fill="#FFFFFF" points="0 0 200 0 200 100.5 0 100.5"></polygon>
                <g id="Group" transform="translate(56.640625, 14.062500)">
                    <g id="a" stroke-linecap="square" transform="translate(0.000000, 5.273438)">
                        <polygon id="Path" fill="#000000" points="8.5546875 48.8085937 46.0546875 48.8085937 46.0546875 74.5898438 8.5546875 74.5898438"></polygon>
                        <path d="M28.0078125,70.8398438 L5.15625,70.8398438 L0.05859375,74.1796875 L0.05859375,77.6953125 L28.0078125,77.6953125 L28.0078125,70.8398438 Z M18.4570312,56.015625 C21.7382812,56.015625 24.4335937,58.7695312 24.4335937,62.1679688 L24.4335937,70.78125 L28.7109375,70.78125 L28.7109375,37.96875 L5.09765625,37.96875 L5.09765625,70.78125 L12.4804687,70.78125 L12.4804687,62.1679688 C12.4804687,58.8867188 15.1171875,56.015625 18.4570312,56.015625 Z" id="Shape" stroke="#000000" stroke-width="0.94" fill="#DA000C" fill-rule="nonzero"></path>
                        <polygon id="Path" fill="#000000" points="13.1835938 15.8203125 24.0820312 15.8203125 24.0820312 35.7421875 13.1835938 35.7421875"></polygon>
                        <path d="M24.0234375,32.6367188 L14.53125,32.6367188 L14.53125,29.2382813 L7.55859375,29.2382813 L7.55859375,32.6367188 L2.87109375,32.6367188 L2.87109375,29.2382813 L0,29.2382813 L0,35.3320313 L24.0234375,35.3320313 L24.0234375,32.6367188 Z M2.8125,35.3320313 L23.3203125,35.3320313 L23.3203125,37.96875 L2.8125,37.96875 L2.8125,35.3320313 Z M11.015625,8.5546875 L11.015625,29.296875 L14.53125,29.296875 L14.53125,23.6132813 C14.53125,21.5039063 15.9960938,19.7460938 18.1054688,19.6289063 L18.3398438,19.6289063 C19.3965657,19.6289062 20.4100071,20.0486874 21.1572223,20.7959027 C21.9044376,21.5431179 22.3242188,22.5565593 22.3242188,23.6132813 L22.3242188,29.296875 L25.6640625,29.296875 L25.6640625,8.5546875 L11.015625,8.5546875 Z M9.66796875,5.7421875 L9.66796875,8.5546875 L26.8359375,8.5546875 L26.8359375,5.7421875 L9.66796875,5.7421875 Z M7.5,0.41015625 L7.5,5.7421875 L28.0078125,5.7421875 L28.0078125,0.41015625 L24.9023438,0.41015625 L24.9023438,3.1640625 L21.0351563,3.1640625 L21.0351563,0.41015625 L15.1757813,0.41015625 L15.1757813,3.1640625 L11.3671875,3.1640625 L11.3671875,0.41015625 L7.5,0.41015625 Z M0,74.1796875 L28.125,74.1796875 L0,74.1796875 Z M46.2890625,72.5390625 L27.3046875,72.5390625 L21.5625,75.2929687 L21.5625,79.3945312 L46.2890625,79.3945312 L46.2890625,72.5390625 Z" id="Shape" stroke="#000000" stroke-width="0.94" fill="#DA000C" fill-rule="nonzero"></path>
                        <path d="M21.5625,75.2929688 L46.875,75.2929688" id="Path" stroke="#000000" stroke-width="0.94" fill="#DA000C"></path>
                    </g>
                    <g id="a-link" transform="translate(63.281250, 45.117188) scale(-1, 1) translate(-63.281250, -45.117188) translate(39.843750, 5.273438)" stroke-linecap="square">
                        <g id="a">
                            <polygon id="Path" fill="#000000" points="8.5546875 48.8085937 46.0546875 48.8085937 46.0546875 74.5898438 8.5546875 74.5898438"></polygon>
                            <path d="M28.0078125,70.8398438 L5.15625,70.8398438 L0.05859375,74.1796875 L0.05859375,77.6953125 L28.0078125,77.6953125 L28.0078125,70.8398438 Z M18.4570312,56.015625 C21.7382812,56.015625 24.4335937,58.7695312 24.4335937,62.1679688 L24.4335937,70.78125 L28.7109375,70.78125 L28.7109375,37.96875 L5.09765625,37.96875 L5.09765625,70.78125 L12.4804687,70.78125 L12.4804687,62.1679688 C12.4804687,58.8867188 15.1171875,56.015625 18.4570312,56.015625 Z" id="Shape" stroke="#000000" stroke-width="0.94" fill="#DA000C" fill-rule="nonzero"></path>
                            <polygon id="Path" fill="#000000" points="13.1835938 15.8203125 24.0820312 15.8203125 24.0820312 35.7421875 13.1835938 35.7421875"></polygon>
                            <path d="M24.0234375,32.6367188 L14.53125,32.6367188 L14.53125,29.2382813 L7.55859375,29.2382813 L7.55859375,32.6367188 L2.87109375,32.6367188 L2.87109375,29.2382813 L0,29.2382813 L0,35.3320313 L24.0234375,35.3320313 L24.0234375,32.6367188 Z M2.8125,35.3320313 L23.3203125,35.3320313 L23.3203125,37.96875 L2.8125,37.96875 L2.8125,35.3320313 Z M11.015625,8.5546875 L11.015625,29.296875 L14.53125,29.296875 L14.53125,23.6132813 C14.53125,21.5039063 15.9960938,19.7460938 18.1054688,19.6289063 L18.3398438,19.6289063 C19.3965657,19.6289062 20.4100071,20.0486874 21.1572223,20.7959027 C21.9044376,21.5431179 22.3242188,22.5565593 22.3242188,23.6132813 L22.3242188,29.296875 L25.6640625,29.296875 L25.6640625,8.5546875 L11.015625,8.5546875 Z M9.66796875,5.7421875 L9.66796875,8.5546875 L26.8359375,8.5546875 L26.8359375,5.7421875 L9.66796875,5.7421875 Z M7.5,0.41015625 L7.5,5.7421875 L28.0078125,5.7421875 L28.0078125,0.41015625 L24.9023438,0.41015625 L24.9023438,3.1640625 L21.0351563,3.1640625 L21.0351563,0.41015625 L15.1757813,0.41015625 L15.1757813,3.1640625 L11.3671875,3.1640625 L11.3671875,0.41015625 L7.5,0.41015625 Z M0,74.1796875 L28.125,74.1796875 L0,74.1796875 Z M46.2890625,72.5390625 L27.3046875,72.5390625 L21.5625,75.2929687 L21.5625,79.3945312 L46.2890625,79.3945312 L46.2890625,72.5390625 Z" id="Shape" stroke="#000000" stroke-width="0.94" fill="#DA000C" fill-rule="nonzero"></path>
                            <path d="M21.5625,75.2929688 L46.875,75.2929688" id="Path" stroke="#000000" stroke-width="0.94" fill="#DA000C"></path>
                        </g>
                    </g>
                    <g transform="translate(31.054688, 73.828125)" fill="#F8D80E" stroke="#000000">
                        <g stroke-linecap="round" transform="translate(1.171875, 0.000000)">
                            <path d="M21.2695313,0 C19.6875,0.5859375 18.3398438,1.40625 16.875,2.2265625 C15.052126,3.26779215 13.3090558,4.44289565 11.6601563,5.7421875 C11.0742188,6.15234375 10.4882813,6.5625 10.078125,7.1484375 C9.4921875,7.6171875 8.90625,8.3203125 9.0234375,9.19921875 C9.0234375,9.55078125 9.4921875,8.73046875 9.84375,8.671875 C10.4001283,8.37407666 11.0464085,8.29068566 11.6601563,8.4375 C12.421875,7.6171875 13.4179688,7.08984375 14.2382813,6.4453125 C16.626569,4.71688516 19.1777021,3.22545348 21.8554688,1.9921875 L21.2695313,1.66533454e-14 Z" id="Path" stroke-width="0.75"></path>
                            <path d="M13.7109375,4.3359375 L13.7109375,6.62109375 M15.1171875,3.33984375 L15.1171875,5.625 M16.5234375,2.4609375 L16.5234375,4.6875 M17.9882812,1.58203125 L17.9882812,3.92578125" id="Shape" stroke-width="0.94" fill-rule="nonzero"></path>
                            <path d="M1.11328125,0.1171875 L0.41015625,2.05078125 C3.64817231,3.29280617 6.75032687,4.86351734 9.66796875,6.73828125 C10.6640625,7.44140625 11.71875,8.0859375 12.4804688,9.0234375 C12.65625,9.4921875 12.1875,9.90234375 11.71875,9.7265625 C11.3085938,9.609375 10.8398437,9.43359375 10.4296875,9.7265625 C9.78515625,10.0195312 9.19921875,11.015625 10.1367188,11.3085937 C11.5429687,12.2460937 13.7109375,11.8359375 14.3554687,10.2539062 C14.7070313,9.43359375 14.765625,8.37890625 14.0625,7.67578125 C12.890625,6.328125 11.25,5.33203125 9.7265625,4.3359375 C6.99083588,2.66867411 4.10760593,1.25647984 1.11328125,0.1171875 Z" id="Path" stroke-width="0.75"></path>
                            <path d="M9.9609375,4.6875 L9.78515625,6.6796875 M11.6015625,5.68359375 L11.1328125,7.6171875 M13.359375,7.03125 L12.3046875,8.5546875 M13.8867187,10.6640625 L12.3632812,9.84375 M14.3554687,9.0234375 L12.5976562,9.19921875 M12.1289062,11.5429688 L12.0117187,10.0195313 M11.4257812,9.84375 L10.0195312,10.8984375 M4.51171875,1.69921875 L4.51171875,3.515625 M8.203125,3.69140625 L8.203125,5.7421875 M6.328125,2.6953125 L6.328125,4.62890625" id="Shape" stroke-width="0.94" fill-rule="nonzero"></path>
                        </g>
                        <path d="M0.46875,45.46875 L0.46875,50.15625 L3.3984375,50.15625 L3.3984375,47.8125 L7.44140625,47.8125 L7.44140625,50.15625 L10.6054688,50.15625 L10.6054688,45.46875 L0.46875,45.46875 Z M0.46875,51.9140625 L0.46875,56.6015625 L10.546875,56.6015625 L10.546875,51.9140625 L7.3828125,51.9140625 L7.3828125,54.2578125 L3.33984375,54.2578125 L3.33984375,51.9140625 L0.46875,51.9140625 Z" id="Shape" stroke-width="0.94" fill-rule="nonzero"></path>
                        <polygon id="Path" stroke-width="0.94" points="10.546875 25.6054687 13.4765625 25.6054687 13.4765625 59.5898437 10.546875 59.5898437"></polygon>
                        <path d="M10.546875,28.5351562 L13.4765625,28.5351562 L13.4765625,57.8320312 L10.546875,57.8320312 L10.546875,28.5351562 Z M12.0703125,17.2265625 L18.28125,20.859375 L12.0703125,24.4921875 L5.80078125,20.859375 L12.0703125,17.2265625 Z M3.69140625,19.5703125 L2.109375,19.5703125 L2.109375,22.1484375 L3.69140625,22.1484375 L12.0703125,27.0117187 L20.390625,22.1484375 L22.03125,22.1484375 L22.03125,19.5703125 L20.390625,19.5703125 L12.0703125,14.7070312 L3.69140625,19.5703125 Z" id="Shape" stroke-width="0.94" fill-rule="nonzero"></path>
                        <path d="M11.8945312,8.37890625 C10.4860247,8.66521586 9.49323023,9.93102881 9.55078125,11.3671875 L9.55078125,17.9296875 C9.66203217,19.3696722 10.8061091,20.5137491 12.2460937,20.625 C13.4330378,20.7139871 14.5518069,20.0613717 15.0585937,18.984375 L14.0625,18.3984375 C13.7784819,19.1036499 13.0605893,19.5343854 12.3046875,19.453125 C11.3671875,19.453125 10.6054687,18.515625 10.7226562,17.6367188 L10.7226562,11.0742188 C10.8147269,10.1820835 11.5843046,9.5151162 12.4804687,9.55078125 C12.8320313,9.43359375 13.359375,9.9609375 13.59375,9.55078125 C13.9453125,9.0234375 13.359375,8.671875 13.0078125,8.37890625 L11.8945312,8.37890625 Z M15.2929688,10.6640625 C15.006642,11.0652327 14.6237326,11.3876828 14.1796875,11.6015625 L14.1796875,15.9960938 L15.3515625,16.640625 L15.3515625,10.6640625 L15.2929688,10.6640625 Z" id="Shape" stroke-width="0.94" fill-rule="nonzero"></path>
                    </g>
                    <g transform="translate(22.265625, 0.000000)">
                        <polygon id="Path" fill="#000000" points="12.1875 8.4375 29.3554688 8.4375 29.3554688 39.609375 12.1875 39.609375"></polygon>
                        <path d="M11.015625,8.4375 L11.015625,34.5117188 L16.4648438,34.5117188 L16.4648438,26.7773438 C16.4648438,25.0195312 17.6367188,22.5 21.09375,22.5 C24.5507812,22.5 25.78125,25.0195312 25.78125,26.7773438 L25.78125,34.5703125 L31.171875,34.5703125 L31.171875,8.4375 L11.015625,8.4375 Z M20.2734375,11.3671875 L21.9140625,11.3671875 L21.9140625,20.2734375 L20.2734375,20.2734375 L20.2734375,11.3671875 Z M15.4101563,13.125 L17.1679688,13.125 L17.1679688,19.6289062 L15.4101563,19.6289062 L15.4101563,13.125 Z M25.078125,13.125 L26.7773437,13.125 L26.7773437,19.6289062 L25.0195312,19.6289062 L25.078125,13.125 Z M9.140625,4.6875 L9.140625,8.37890625 L33.046875,8.37890625 L33.046875,4.6875 L9.140625,4.6875 Z M6.9140625,0.3515625 L6.9140625,4.6875 L35.3320312,4.6875 L35.3320312,0.3515625 L31.7578125,0.3515625 L31.7578125,2.6953125 L27.65625,2.6953125 L27.65625,0.3515625 L23.0859375,0.3515625 L23.0859375,2.6953125 L19.1015625,2.6953125 L19.1015625,0.3515625 L14.4726562,0.3515625 L14.4726562,2.6953125 L10.546875,2.6953125 L10.546875,0.3515625 L6.9140625,0.3515625 Z M1.640625,43.2421875 L1.640625,45.9375 L40.6054687,45.9375 L40.6054687,43.2421875 L1.640625,43.2421875 Z" id="Shape" stroke="#000000" stroke-width="0.94" fill="#DA000C" fill-rule="nonzero"></path>
                        <polygon id="Path" stroke="#000000" stroke-width="0.94" fill="#DA000C" points="0 34.5117188 0 43.3007812 42.1875 43.3007812 42.1875 34.5117188 38.203125 34.5117188 38.203125 37.9101562 32.8125 37.9101562 32.8125 34.5117188 25.6640625 34.5117188 25.6640625 37.9101562 16.40625 37.9101562 16.40625 34.5117188 9.2578125 34.5117188 9.2578125 37.9101562 3.984375 37.9101562 3.984375 34.5117188"></polygon>
                        <path d="M5.09765625,45.9375 L5.09765625,77.8125 L12.5976562,77.8125 L12.5976562,65.859375 C12.5976562,60.2929688 16.3476562,57.65625 21.09375,57.65625 C25.6640625,57.65625 29.5898438,60.2929688 29.5898438,65.859375 L29.5898438,77.8125 L37.0898438,77.8125 L37.0898438,45.9375 L5.09765625,45.9375 Z" id="Path" stroke="#000000" stroke-width="0.94" fill="#DA000C" stroke-linejoin="round"></path>
                    </g>
                </g>
            </g>
        </g>
    </g>
</svg>