<?xml version="1.0" encoding="UTF-8"?>
<svg width="200px" height="150px" viewBox="0 0 200 150" version="1.1" xmlns="http://www.w3.org/2000/svg" xmlns:xlink="http://www.w3.org/1999/xlink">
    <!-- Generator: Sketch 52.5 (67469) - http://www.bohemiancoding.com/sketch -->
    <title>gr</title>
    <desc>Created with Sketch.</desc>
    <defs>
        <polygon id="path-1" points="0 0 200 0 200 150 0 150"></polygon>
    </defs>
    <g id="Flags" stroke="none" stroke-width="1" fill="none" fill-rule="evenodd">
        <g id="Europe" transform="translate(-730.000000, -850.000000)">
            <g id="gr" transform="translate(730.000000, 850.000000)">
                <mask id="mask-2" fill="white">
                    <use xlink:href="#path-1"></use>
                </mask>
                <g id="Path"></g>
                <g id="Group" mask="url(#mask-2)">
                    <polygon id="Path" fill="#0D5EAF" points="0 0 200 0 200 17 0 17"></polygon>
                    <polygon id="Path" fill="#FFFFFF" points="0 16 200 16 200 33 0 33"></polygon>
                    <polygon id="Path" fill="#0D5EAF" points="0 33 200 33 200 50 0 50"></polygon>
                    <polygon id="Path" fill="#FFFFFF" points="0 50 200 50 200 67 0 67"></polygon>
                    <polygon id="Path" fill="#0D5EAF" points="0 66 200 66 200 83 0 83"></polygon>
                    <polygon id="Path" fill="#FFFFFF" points="0 83 200 83 200 100 0 100"></polygon>
                    <polygon id="Path" fill="#0D5EAF" points="0 99 200 99 200 116 0 116"></polygon>
                    <polygon id="Path" fill="#FFFFFF" points="0 116 200 116 200 133 0 133"></polygon>
                    <path d="M0,133.333333 L200,133.333333 L200,150 L0,150 L0,133.333333 Z M0,0 L74.0740741,0 L74.0740741,83.3333333 L0,83.3333333 L0,0 Z" id="Shape" fill="#0D5EAF" fill-rule="nonzero"></path>
                    <g fill="#FFFFFF" id="Path">
                        <polygon points="29.6 0 44.4 0 44.4 83 29.6 83"></polygon>
                        <polygon points="0 33.2 74 33.2 74 49.8 0 49.8"></polygon>
                    </g>
                </g>
            </g>
        </g>
    </g>
</svg>