<?xml version="1.0" encoding="UTF-8"?>
<svg width="200px" height="150px" viewBox="0 0 200 150" version="1.1" xmlns="http://www.w3.org/2000/svg" xmlns:xlink="http://www.w3.org/1999/xlink">
    <!-- Generator: Sketch 52.5 (67469) - http://www.bohemiancoding.com/sketch -->
    <title>gg</title>
    <desc>Created with Sketch.</desc>
    <g id="Flags" stroke="none" stroke-width="1" fill="none" fill-rule="evenodd">
        <g id="Europe" transform="translate(-290.000000, -850.000000)">
            <g id="gg" transform="translate(290.000000, 850.000000)">
                <polygon id="Path" fill="#FFFFFF" points="0 0 200 0 200 150 0 150"></polygon>
                <polygon id="Path" fill="#E8112D" points="80 0 120 0 120 150 80 150"></polygon>
                <polygon id="Path" fill="#E8112D" points="0 55 200 55 200 95 0 95"></polygon>
                <polygon id="a" fill="#F9DD16" points="34.375 89.59375 41.65625 82.28125 107.28125 82.28125 107.28125 67.71875 41.65625 67.71875 34.375 60.40625"></polygon>
                <g id="a-link" transform="translate(100.000000, 45.937500) rotate(90.000000) translate(-100.000000, -45.937500) translate(63.437500, 31.250000)" fill="#F9DD16">
                    <polygon id="a" points="0 29.28125 7.28125 21.96875 72.90625 21.96875 72.90625 7.40625 7.28125 7.40625 0 0.09375"></polygon>
                </g>
                <g id="a-link" transform="translate(100.000000, 104.062500) rotate(-90.000000) translate(-100.000000, -104.062500) translate(63.437500, 89.375000)" fill="#F9DD16">
                    <polygon id="a" points="0 29.28125 7.28125 21.96875 72.90625 21.96875 72.90625 7.40625 7.28125 7.40625 0 0.09375"></polygon>
                </g>
                <g id="a-link" transform="translate(129.062500, 75.000000) rotate(180.000000) translate(-129.062500, -75.000000) translate(92.500000, 60.312500)" fill="#F9DD16">
                    <polygon id="a" points="0 29.28125 7.28125 21.96875 72.90625 21.96875 72.90625 7.40625 7.28125 7.40625 0 0.09375"></polygon>
                </g>
            </g>
        </g>
    </g>
</svg>