<?xml version="1.0" encoding="UTF-8"?>
<svg width="200px" height="150px" viewBox="0 0 200 150" version="1.1" xmlns="http://www.w3.org/2000/svg" xmlns:xlink="http://www.w3.org/1999/xlink">
    <!-- Generator: Sketch 52.5 (67469) - http://www.bohemiancoding.com/sketch -->
    <title>ht</title>
    <desc>Created with Sketch.</desc>
    <g id="Flags" stroke="none" stroke-width="1" fill="none" fill-rule="evenodd">
        <g id="North-America" transform="translate(-1170.000000, -450.000000)">
            <g id="ht" transform="translate(1170.000000, 450.000000)">
                <polygon id="Path" fill="#D21034" points="0 0 200 0 200 150 0 150"></polygon>
                <polygon id="Path" fill="#00209F" points="0 0 200 0 200 75 0 75"></polygon>
                <g id="Group" transform="translate(76.250000, 55.937500)">
                    <polygon id="Path" fill="#FFFFFF" points="0.09375 0.21875 47.40625 0.21875 47.40625 37.875 0.09375 37.875"></polygon>
                    <path d="M33.28125,27.4375 L23.59375,27.75 L14,27.84375 C14,27.84375 9.0625,29.65625 7.03125,30.0625 C5.03125,30.46875 5.28125,31.125 3.75,31.5 C2.5,31.78125 2.34375,31.84375 1.625,31.90625 C1.15625,31.90625 0.625,32.28125 0.0625,32.65625 L0.0625,37.875 L47.40625,37.875 L47.40625,32.90625 C46.90625,32.625 46.40625,32.4375 45.90625,32.28125 C45.21875,32.03125 44.75,31.78125 43.5,31.5 C41.9375,31.15625 42.1875,30.46875 40.1875,30.0625 C38.15625,29.65625 33.28125,27.4375 33.28125,27.4375 Z" id="Path" stroke="#016A16" stroke-width="0.15" fill="#016A16"></path>
                    <g transform="translate(4.250000, 10.562500)" stroke-width="0.25">
                        <g id="a">
                            <polygon id="Path" stroke="#000000" fill="#F1B517" points="16.75 5.25 17.45 5.25 18.75 10.6 18.45 12.3 16.75 5.3"></polygon>
                            <polygon id="Path" stroke="#000000" fill="#FFFFFF" points="16 1.65 16.5 5.8 17 5.8 16 1.7"></polygon>
                            <polygon id="Path" stroke="#000000" fill="#F1B517" points="17.35 10.8 15.2 5.05 16 5 18.5 12 17.35 10.8"></polygon>
                            <polygon id="Path" stroke="#000000" fill="#FFFFFF" points="14.2 1.75 15.1 5.75 15.8 5.75 14.2 1.75"></polygon>
                            <polygon id="Path" stroke="#000000" fill="#F1B517" points="15.45 8.8 14.2 6.05 14.7 5.95 17.05 10.45"></polygon>
                            <polygon id="Path" stroke="#000000" fill="#FFFFFF" points="12.5 2.9 13.95 6.7 14.65 6.7 12.55 2.9"></polygon>
                            <path d="M15.65,9.2 L9.9,2.95 C8.1,4.35 8.45,6.95 8.45,6.95 L14.95,12.05 L15.6,9.2 L15.65,9.2 Z" id="Path" stroke="#000000" fill="#0A328C"></path>
                            <path d="M18.95,12.6 L14.7,8.3 C12.9,8.4 14.3,11.05 14.4,11.4 L18.9,15.25 L18.9,12.6 L18.95,12.6 Z" id="Path" stroke="#000000" fill="#D20014"></path>
                            <path d="M18.55,11.9 L9.8,2.5 L9.45,2.75 L18.75,13.05 L18.55,11.9 Z M9.3,1.9 L9.1,1.65 L9.1,1.2 L7.3,0.05 L8.1,1.9 L8.75,2 L8.9,2.2 L9.3,1.9 Z" id="Shape" stroke="#000000" fill="#F1B517" fill-rule="nonzero"></path>
                            <path d="M8.35,2.55 C8.71820967,2.09304579 9.17809318,1.71832589 9.7,1.45 L10.2,2.2 L9.1,3.1 L8.35,2.6 L8.35,2.55 Z" id="Path" stroke="#000000" fill="#F1B517"></path>
                            <path d="M7.4,4.15 L7.7,4.65 C7.9,4.6 9.7,2.9 9.7,2.9 L11.05,2.9 L11.4,2.45 C10.4,1.45 9.55,2.6 9.55,2.6 L7.4,4.1 L7.4,4.15 Z" id="Path" stroke="#0A328C" fill="#0A328C"></path>
                            <path d="M8.5,5 C8.5,4.5 9.4,3.4 9.5,3.35 C10.15,3.55 10.75,3.95 11.45,2.45 C10.85,3.15 9.7,2.45 9.7,2.45 L9.2,2.85 L9.2,3.05 L7.7,4.45 L8.45,5 L8.5,5 Z" id="Path" stroke="#D20014" fill="#D20014"></path>
                            <path d="M13.15,10.85 L5.95,5.15 C4.7,6.4 5.75,10.25 5.75,10.25 L12.75,14.05 L13.1,10.85 L13.15,10.85 Z" id="Path" stroke="#000000" fill="#0A328C"></path>
                            <path d="M19.1,15.5 L13.15,10.7 C11.15,11 12.75,13.95 12.85,14.3 L19.1,17.7 L19.1,15.45 L19.1,15.5 Z" id="Path" stroke="#000000" fill="#D20014"></path>
                            <path d="M18.85,14.5 L6.05,4.9 L5.8,5.2 L19.2,15.7 L18.85,14.5 Z M5.45,4.4 L5.25,4.2 L5.15,3.8 L3.15,2.95 L4.3,4.6 L4.95,4.6 L5.15,4.8 L5.45,4.4 Z" id="Shape" stroke="#000000" fill="#F1B517" fill-rule="nonzero"></path>
                            <path d="M4.65,5.2 C4.93616819,4.689564 5.32828653,4.24629979 5.8,3.9 L6.4,4.55 L5.5,5.6 L4.65,5.2 Z" id="Path" stroke="#000000" fill="#F1B517"></path>
                            <path d="M4,6.8 L4,7.35 C4.2,7.25 5.85,5.5 5.85,5.5 L7.1,5.25 L7.4,4.85 C6.5,3.8 5.55,5.2 5.55,5.2 L3.95,6.8 L4,6.8 Z" id="Path" stroke="#0A328C" fill="#0A328C"></path>
                            <path d="M5,7.75 C4.9,7.25 5.6,5.85 5.7,5.75 C6.5,6 7.2,6.35 7.45,4.75 C6.95,5.55 5.7,4.95 5.7,4.95 L5.3,5.45 L5.3,5.7 L4.05,7.35 L5,7.75 Z" id="Path" stroke="#D20014" fill="#D20014"></path>
                            <path d="M12.6,14.35 C9.5099905,12.611789 6.42663465,10.8617762 3.35,9.1 C2.7,10.25 3.3,11.85 3.6,12.1 C3.6,12.85 3.3,13.25 3.95,14.85 C4.15,15.85 4.6,16.8 5.3,17.35 C6.1,20.55 9.4,20.8 10.65,18.15 L12.65,14.35 L12.6,14.35 Z" id="Path" stroke="#000000" fill="#0A328C"></path>
                            <path d="M18.65,17.75 L12.4,14.1 C10.4,14.35 12.4,18.1 12.55,18.45 L18.65,20.6 L18.65,17.75 Z" id="Path" stroke="#000000" fill="#D20014"></path>
                            <path d="M17.6,16.4 L3.45,8.9 L3.2,9.2 L18.2,17.55 L17.6,16.4 Z M2.75,8.5 L2.5,8.35 L2.35,7.95 L0.3,7.45 L1.65,8.9 L2.25,8.8 L2.55,8.95 L2.75,8.5 Z" id="Shape" stroke="#000000" fill="#F1B517" fill-rule="nonzero"></path>
                            <path d="M2.1,9.4 C2.3,8.9 2.5,8.45 3,7.9 L3.7,8.45 L3,9.65 L2.1,9.4 Z" id="Path" stroke="#000000" fill="#F1B517"></path>
                            <path d="M1.55,11.1 L1.85,11.7 L3.35,9.4 L4.6,8.95 L4.85,8.45 C3.85,7.55 3.1,9.15 3.1,9.15 L1.55,11.1 Z" id="Path" stroke="#0A328C" fill="#0A328C"></path>
                            <path d="M2.9,11.9 C2.8,11.4 3.15,9.8 3.25,9.75 C4,10 4.65,10.05 4.85,8.45 C4.35,9.2 3.2,8.95 3.2,8.95 L2.85,9.45 L2.9,9.65 L1.9,11.65 L2.9,11.9 Z" id="Path" stroke="#D20014" fill="#D20014"></path>
                        </g>
                        <g id="a-link" transform="translate(29.200000, 10.500000) scale(-1, 1) translate(-29.200000, -10.500000) translate(19.450000, 0.000000)">
                            <g id="a">
                                <polygon id="Path" stroke="#000000" fill="#F1B517" points="16.75 5.25 17.45 5.25 18.75 10.6 18.45 12.3 16.75 5.3"></polygon>
                                <polygon id="Path" stroke="#000000" fill="#FFFFFF" points="16 1.65 16.5 5.8 17 5.8 16 1.7"></polygon>
                                <polygon id="Path" stroke="#000000" fill="#F1B517" points="17.35 10.8 15.2 5.05 16 5 18.5 12 17.35 10.8"></polygon>
                                <polygon id="Path" stroke="#000000" fill="#FFFFFF" points="14.2 1.75 15.1 5.75 15.8 5.75 14.2 1.75"></polygon>
                                <polygon id="Path" stroke="#000000" fill="#F1B517" points="15.45 8.8 14.2 6.05 14.7 5.95 17.05 10.45"></polygon>
                                <polygon id="Path" stroke="#000000" fill="#FFFFFF" points="12.5 2.9 13.95 6.7 14.65 6.7 12.55 2.9"></polygon>
                                <path d="M15.65,9.2 L9.9,2.95 C8.1,4.35 8.45,6.95 8.45,6.95 L14.95,12.05 L15.6,9.2 L15.65,9.2 Z" id="Path" stroke="#000000" fill="#0A328C"></path>
                                <path d="M18.95,12.6 L14.7,8.3 C12.9,8.4 14.3,11.05 14.4,11.4 L18.9,15.25 L18.9,12.6 L18.95,12.6 Z" id="Path" stroke="#000000" fill="#D20014"></path>
                                <path d="M18.55,11.9 L9.8,2.5 L9.45,2.75 L18.75,13.05 L18.55,11.9 Z M9.3,1.9 L9.1,1.65 L9.1,1.2 L7.3,0.05 L8.1,1.9 L8.75,2 L8.9,2.2 L9.3,1.9 Z" id="Shape" stroke="#000000" fill="#F1B517" fill-rule="nonzero"></path>
                                <path d="M8.35,2.55 C8.71820967,2.09304579 9.17809318,1.71832589 9.7,1.45 L10.2,2.2 L9.1,3.1 L8.35,2.6 L8.35,2.55 Z" id="Path" stroke="#000000" fill="#F1B517"></path>
                                <path d="M7.4,4.15 L7.7,4.65 C7.9,4.6 9.7,2.9 9.7,2.9 L11.05,2.9 L11.4,2.45 C10.4,1.45 9.55,2.6 9.55,2.6 L7.4,4.1 L7.4,4.15 Z" id="Path" stroke="#0A328C" fill="#0A328C"></path>
                                <path d="M8.5,5 C8.5,4.5 9.4,3.4 9.5,3.35 C10.15,3.55 10.75,3.95 11.45,2.45 C10.85,3.15 9.7,2.45 9.7,2.45 L9.2,2.85 L9.2,3.05 L7.7,4.45 L8.45,5 L8.5,5 Z" id="Path" stroke="#D20014" fill="#D20014"></path>
                                <path d="M13.15,10.85 L5.95,5.15 C4.7,6.4 5.75,10.25 5.75,10.25 L12.75,14.05 L13.1,10.85 L13.15,10.85 Z" id="Path" stroke="#000000" fill="#0A328C"></path>
                                <path d="M19.1,15.5 L13.15,10.7 C11.15,11 12.75,13.95 12.85,14.3 L19.1,17.7 L19.1,15.45 L19.1,15.5 Z" id="Path" stroke="#000000" fill="#D20014"></path>
                                <path d="M18.85,14.5 L6.05,4.9 L5.8,5.2 L19.2,15.7 L18.85,14.5 Z M5.45,4.4 L5.25,4.2 L5.15,3.8 L3.15,2.95 L4.3,4.6 L4.95,4.6 L5.15,4.8 L5.45,4.4 Z" id="Shape" stroke="#000000" fill="#F1B517" fill-rule="nonzero"></path>
                                <path d="M4.65,5.2 C4.93616819,4.689564 5.32828653,4.24629979 5.8,3.9 L6.4,4.55 L5.5,5.6 L4.65,5.2 Z" id="Path" stroke="#000000" fill="#F1B517"></path>
                                <path d="M4,6.8 L4,7.35 C4.2,7.25 5.85,5.5 5.85,5.5 L7.1,5.25 L7.4,4.85 C6.5,3.8 5.55,5.2 5.55,5.2 L3.95,6.8 L4,6.8 Z" id="Path" stroke="#0A328C" fill="#0A328C"></path>
                                <path d="M5,7.75 C4.9,7.25 5.6,5.85 5.7,5.75 C6.5,6 7.2,6.35 7.45,4.75 C6.95,5.55 5.7,4.95 5.7,4.95 L5.3,5.45 L5.3,5.7 L4.05,7.35 L5,7.75 Z" id="Path" stroke="#D20014" fill="#D20014"></path>
                                <path d="M12.6,14.35 C9.5099905,12.611789 6.42663465,10.8617762 3.35,9.1 C2.7,10.25 3.3,11.85 3.6,12.1 C3.6,12.85 3.3,13.25 3.95,14.85 C4.15,15.85 4.6,16.8 5.3,17.35 C6.1,20.55 9.4,20.8 10.65,18.15 L12.65,14.35 L12.6,14.35 Z" id="Path" stroke="#000000" fill="#0A328C"></path>
                                <path d="M18.65,17.75 L12.4,14.1 C10.4,14.35 12.4,18.1 12.55,18.45 L18.65,20.6 L18.65,17.75 Z" id="Path" stroke="#000000" fill="#D20014"></path>
                                <path d="M17.6,16.4 L3.45,8.9 L3.2,9.2 L18.2,17.55 L17.6,16.4 Z M2.75,8.5 L2.5,8.35 L2.35,7.95 L0.3,7.45 L1.65,8.9 L2.25,8.8 L2.55,8.95 L2.75,8.5 Z" id="Shape" stroke="#000000" fill="#F1B517" fill-rule="nonzero"></path>
                                <path d="M2.1,9.4 C2.3,8.9 2.5,8.45 3,7.9 L3.7,8.45 L3,9.65 L2.1,9.4 Z" id="Path" stroke="#000000" fill="#F1B517"></path>
                                <path d="M1.55,11.1 L1.85,11.7 L3.35,9.4 L4.6,8.95 L4.85,8.45 C3.85,7.55 3.1,9.15 3.1,9.15 L1.55,11.1 Z" id="Path" stroke="#0A328C" fill="#0A328C"></path>
                                <path d="M2.9,11.9 C2.8,11.4 3.15,9.8 3.25,9.75 C4,10 4.65,10.05 4.85,8.45 C4.35,9.2 3.2,8.95 3.2,8.95 L2.85,9.45 L2.9,9.65 L1.9,11.65 L2.9,11.9 Z" id="Path" stroke="#D20014" fill="#D20014"></path>
                            </g>
                        </g>
                    </g>
                    <g transform="translate(13.250000, 0.562500)" stroke-width="0.25">
                        <polygon id="Path" stroke="#016A16" fill="#016A16" points="9.9 6.3 9.65 10.8 11.1 10.8 10.9 6.3 12.4 6.15 12.25 4.35 8.5 4.5 8.5 6.1 9.9 6.3"></polygon>
                        <g id="b" transform="translate(0.000000, 2.000000)" fill="#016A16" stroke="#000000">
                            <path d="M10.4,2.45 C6.5,-1.45 3.45,0.45 2.75,1 C3.25,1.1 3.65,0.8 3.9,0.75 L3.4,1.35 C3.4,1.35 4.65,0.85 4.8,0.85 C4.6,1 4.4,1.35 4.4,1.35 C4.5,1.35 5.2,0.8 5.3,0.8 C5.1,1 5.05,1.55 5.05,1.55 L5.65,1.3 C5.8,1.4 5.6,1.6 5.7,1.6 C6.7,1.5 8.05,2.45 8.2,2.75" id="Path"></path>
                            <path d="M9.45,3.15 C9.05,2.25 1.65,0.65 0.15,3.3 C0.75,3.45 1.3,2.8 1.3,2.8 L1.3,3.4 L2.25,2.6 L1.9,3.4 L2.65,2.75 L2.65,3.4 L3.65,2.4 L3.5,2.95 L4.35,2.6 L4.25,3.1" id="Path"></path>
                            <path d="M9.1,3.3 C7.2,2.05 4.3,2.9 4.3,2.9 C2.4,3.9 1.4,3.75 1.2,5.7 C1.35,5.65 1.85,5 1.85,5 L2.25,5.75 L2.35,4.7 L2.65,5.55 L3.15,4.15 L3.25,5.1 L3.95,4.15 L4.25,4.45 L4.55,3.7 L4.85,4.2 C4.85,4.2 5.35,3.9 5.6,4.05 L6.1,3.45 L6.25,3.9 L6.75,3.4 L6.9,3.75 L7.35,3.35 L7.35,3.65 L8.85,3.65" id="Path"></path>
                            <path d="M8.7,3.5 C7.35,3.5 3.55,4.95 2.6,6.4 C2.81112296,6.28840169 3.02810395,6.18825662 3.25,6.1 L3.4,6.7 L3.65,6.1 L3.7,6.6 C3.85,6.2 4,6.2 4.3,6.55 L4.4,6 L4.55,6.5 L4.8,5.95 C4.8,5.95 4.95,6.55 5.05,6.55 C5.05,6.55 5.45,5.45 5.65,5.4 L5.7,6.1 L5.95,5.4 L6.2,5.9 L6.2,5.2 L6.5,5.7 C6.5,5.7 6.6,5.2 6.8,5.1 L7.2,5.45 L8.9,4.2" id="Path"></path>
                            <path d="M8.95,3.85 C7.2,4.5 5.6,6.95 5.75,7.95 C6.5,6.95 6.35,7.1 6.7,8.25 C6.7,8.25 6.8,7.25 6.95,7.15 L7.2,7.85 L7.25,6.9 L7.5,6.9 L7.45,6.35 L7.8,6.6 C7.7,6.25 7.65,6.15 8,5.85 C8,5.85 7.5,5.9 7.9,5.1 L8.25,5.4 C8.25,5.4 8.15,5.05 8.25,4.9 L9.55,4.5" id="Path"></path>
                            <path d="M9.1,4 L8.45,5.3 L8.8,5.4 L8,5.95 L8.65,5.9 C8.65,5.9 7.65,6.25 7.55,7.25 L8.55,6.75 C8.55,6.75 7.7,7.65 7.55,8.2 L8.2,7.7 C8.2,7.7 7.6,8.3 7.7,9.2 L8.15,8.7 C8.05,9.85 8.05,9.95 8.55,10.8 C8.55,10.8 8.45,9.5 8.55,9.3 L9.7,10.5 L9.1,8.85 C9.1,8.85 9.8,9.85 10.2,9.8 L9.3,8.45 L10.2,9.15 L9.2,7.65 L10.1,7.95 C10.1,7.95 9.45,7.1 9.5,6.55 L10.15,7.25 C10.15,7.25 9.9,6.5 9.95,6.25 L10.3,6.3 L9.65,5.6 L10.1,5.5 L10.05,5 L10.35,4.95 L10.35,4.4 M9.8,4.4 C8.7,5.9 9.25,8.15 8.6,9.35" id="Shape" fill-rule="nonzero"></path>
                        </g>
                        <g id="b-link" transform="translate(15.700000, 7.500000) scale(-1, 1) translate(-15.700000, -7.500000) translate(10.450000, 2.000000)" fill="#016A16" stroke="#000000">
                            <g id="b">
                                <path d="M10.4,2.45 C6.5,-1.45 3.45,0.45 2.75,1 C3.25,1.1 3.65,0.8 3.9,0.75 L3.4,1.35 C3.4,1.35 4.65,0.85 4.8,0.85 C4.6,1 4.4,1.35 4.4,1.35 C4.5,1.35 5.2,0.8 5.3,0.8 C5.1,1 5.05,1.55 5.05,1.55 L5.65,1.3 C5.8,1.4 5.6,1.6 5.7,1.6 C6.7,1.5 8.05,2.45 8.2,2.75" id="Path"></path>
                                <path d="M9.45,3.15 C9.05,2.25 1.65,0.65 0.15,3.3 C0.75,3.45 1.3,2.8 1.3,2.8 L1.3,3.4 L2.25,2.6 L1.9,3.4 L2.65,2.75 L2.65,3.4 L3.65,2.4 L3.5,2.95 L4.35,2.6 L4.25,3.1" id="Path"></path>
                                <path d="M9.1,3.3 C7.2,2.05 4.3,2.9 4.3,2.9 C2.4,3.9 1.4,3.75 1.2,5.7 C1.35,5.65 1.85,5 1.85,5 L2.25,5.75 L2.35,4.7 L2.65,5.55 L3.15,4.15 L3.25,5.1 L3.95,4.15 L4.25,4.45 L4.55,3.7 L4.85,4.2 C4.85,4.2 5.35,3.9 5.6,4.05 L6.1,3.45 L6.25,3.9 L6.75,3.4 L6.9,3.75 L7.35,3.35 L7.35,3.65 L8.85,3.65" id="Path"></path>
                                <path d="M8.7,3.5 C7.35,3.5 3.55,4.95 2.6,6.4 C2.81112296,6.28840169 3.02810395,6.18825662 3.25,6.1 L3.4,6.7 L3.65,6.1 L3.7,6.6 C3.85,6.2 4,6.2 4.3,6.55 L4.4,6 L4.55,6.5 L4.8,5.95 C4.8,5.95 4.95,6.55 5.05,6.55 C5.05,6.55 5.45,5.45 5.65,5.4 L5.7,6.1 L5.95,5.4 L6.2,5.9 L6.2,5.2 L6.5,5.7 C6.5,5.7 6.6,5.2 6.8,5.1 L7.2,5.45 L8.9,4.2" id="Path"></path>
                                <path d="M8.95,3.85 C7.2,4.5 5.6,6.95 5.75,7.95 C6.5,6.95 6.35,7.1 6.7,8.25 C6.7,8.25 6.8,7.25 6.95,7.15 L7.2,7.85 L7.25,6.9 L7.5,6.9 L7.45,6.35 L7.8,6.6 C7.7,6.25 7.65,6.15 8,5.85 C8,5.85 7.5,5.9 7.9,5.1 L8.25,5.4 C8.25,5.4 8.15,5.05 8.25,4.9 L9.55,4.5" id="Path"></path>
                                <path d="M9.1,4 L8.45,5.3 L8.8,5.4 L8,5.95 L8.65,5.9 C8.65,5.9 7.65,6.25 7.55,7.25 L8.55,6.75 C8.55,6.75 7.7,7.65 7.55,8.2 L8.2,7.7 C8.2,7.7 7.6,8.3 7.7,9.2 L8.15,8.7 C8.05,9.85 8.05,9.95 8.55,10.8 C8.55,10.8 8.45,9.5 8.55,9.3 L9.7,10.5 L9.1,8.85 C9.1,8.85 9.8,9.85 10.2,9.8 L9.3,8.45 L10.2,9.15 L9.2,7.65 L10.1,7.95 C10.1,7.95 9.45,7.1 9.5,6.55 L10.15,7.25 C10.15,7.25 9.9,6.5 9.95,6.25 L10.3,6.3 L9.65,5.6 L10.1,5.5 L10.05,5 L10.35,4.95 L10.35,4.4 M9.8,4.4 C8.7,5.9 9.25,8.15 8.6,9.35" id="Shape" fill-rule="nonzero"></path>
                            </g>
                        </g>
                        <path d="M11,26.75 C11,26.75 11.55,21.75 11.55,19.65 C11.55,17.95 11.15,14.25 11.15,14.25 L9.5,14.25 C9.5,14.25 9.25,17.95 9.3,19.65 C9.3,21.75 9.85,26.75 9.85,26.75 L11,26.75 Z" id="Path" stroke="#000000" fill="#F1B517"></path>
                        <polygon id="Path" stroke="#000000" fill="#F1B517" points="9.35 14.5 11.35 14.5 11.1 13.15 9.65 13.15 9.35 14.45"></polygon>
                        <polygon id="Path" stroke="#000000" fill="#F1B517" points="9.5 13.4 11.25 13.4 10.9 12.05 9.8 12.05 9.45 13.4"></polygon>
                        <polygon id="Path" stroke="#000000" fill="#F1B517" points="9.6 12.35 11.1 12.35 10.8 11 9.85 11"></polygon>
                        <path d="M10.85,10.85 L9.85,10.85 L9.7,11.35 L10.95,11.35 L10.85,10.85 Z M11.05,25.7 L9.75,25.7 L11.05,25.7 Z M11.15,24.7 L9.65,24.7 L11.15,24.7 Z M11.35,23.7 L9.45,23.7 L11.35,23.7 Z M11.45,22.65 L9.45,22.65 L11.45,22.65 Z M11.45,21.55 L9.4,21.55 L11.45,21.55 Z M11.5,20.55 L9.3,20.55 L11.5,20.55 Z M11.5,19.7 L9.2,19.7 L11.5,19.7 Z M11.5,18.6 L9.2,18.6 L11.5,18.6 Z M11.45,17.55 L9.2,17.55 L11.45,17.55 Z M11.35,16.45 L9.3,16.45 L11.35,16.45 Z M11.25,15.45 L9.4,15.45 L11.25,15.45 Z" id="Shape" stroke="#000000" fill="#F1B517" fill-rule="nonzero"></path>
                        <path d="M10.5,3 C10.1,2.85 9.35,2.35 9.55,2.05 L9.9,1.45 C10.4,0.35 9.9,0.75 9.9,0.45 C9.8,0.05 11.8,0.35 11.8,1.1 C11.8,1.35 11.65,1.2 11.7,2.4 L11.3,3.15 C11.0127571,3.18753242 10.7206895,3.15317153 10.45,3.05 L10.5,3 Z" id="Path" stroke="#0A328C" fill="#0A328C"></path>
                        <polygon id="Path" stroke="#000000" fill="#F1B517" points="10.7 6 10.2 5.55 10.35 2 10.85 2.15 10.7 5.95"></polygon>
                        <path d="M11.35,3.15 C11.65,2.95 11.85,2.4 11.65,2.1 C11.15,1.45 10.8,1.7 9.95,1.4 C9.8,1.6 9.45,1.9 9.5,2.2 C10.65,2.7 10.2,2.3 10.6,2.35 C10.8,2.35 10.9,2.6 11.35,3.1 L11.35,3.15 Z" id="Path" stroke="#D20014" fill="#D20014"></path>
                    </g>
                    <g transform="translate(0.250000, 22.062500)">
                        <g id="c-link" transform="translate(16.750000, 1.700000) scale(-1, 1) rotate(-180.000000) translate(-16.750000, -1.700000) translate(15.500000, 1.200000)" fill="#016A16" stroke="#FFFFFF" stroke-linecap="round" stroke-width="0.25">
                            <path d="M2.25,0.05 C2.15,0.3 1.75,0.5 1.25,0.5 C0.75,0.5 0.4,0.3 0.25,0.05 C0.233064446,0.115591118 0.233064446,0.184408882 0.25,0.25 C0.25,0.6 0.7,0.85 1.25,0.85 C1.85,0.85 2.3,0.6 2.3,0.25 C2.31693555,0.184408882 2.31693555,0.115591118 2.3,0.05 L2.25,0.05 Z" id="c"></path>
                        </g>
                        <path d="M17.7,2.9 C17.7,3.5 17.25,4.05 16.75,4.05 C16.25,4.05 15.85,3.55 15.85,2.85 L15.85,2.25 L17.7,2.25 L17.7,2.85 L17.7,2.9 Z" id="Path" stroke="#FFFFFF" stroke-width="0.25" fill="#016A16" stroke-linecap="round"></path>
                        <ellipse id="Oval" fill="#FFFFFF" cx="16.75" cy="2.05" rx="1" ry="1"></ellipse>
                        <polygon id="Path" stroke="#F1B517" stroke-width="0.25" fill="#016A16" points="16.55 2.5 16.4 0.9 17.1 0.9 17 2.55 16.55 2.55"></polygon>
                        <path d="M17.75,2.05 C17.65,2.3 17.25,2.5 16.75,2.5 C16.25,2.5 15.9,2.3 15.75,2.05 C15.7330644,2.11559112 15.7330644,2.18440888 15.75,2.25 C15.75,2.6 16.2,2.85 16.75,2.85 C17.35,2.85 17.8,2.6 17.8,2.25 C17.8169356,2.18440888 17.8169356,2.11559112 17.8,2.05 L17.75,2.05 Z" id="c" stroke="#FFFFFF" stroke-width="0.25" fill="#016A16" stroke-linecap="round"></path>
                        <g id="d" stroke-width="0.25">
                            <polygon id="Path" stroke="#000000" fill="#F1B517" points="21.5 8.4 18 7.3 16.45 4.65 11 4.4 11.2 6.4 15.85 7.25 16.25 8.05 21.6 9.55 21.5 8.4"></polygon>
                            <polygon id="Path" stroke="#000000" fill="#503200" points="17.85 9.15 12.25 0.9 12 1.15 17.5 9.35"></polygon>
                            <path d="M12.8,1.25 L12.2,0.25 C12.05,0.05 11.9,1.38777878e-17 11.65,0.15 C11.4,0.25 11.45,0.5 11.55,0.7 L12.05,1.65 L12.8,1.25 Z" id="Path" stroke="#000000" fill="#FFFFFF"></path>
                            <polygon id="Path" stroke="#000000" fill="#F1B517" points="18.5 4.05 7.25 2.9 6.95 4.55 18.15 5.7"></polygon>
                            <path d="M7,2.5 L6.75,4.75 L7.25,4.75 L7.55,2.7 L7.05,2.5 L7,2.5 Z M8.9,2.85 L8.8,4.9 L9.1,4.9 L9.35,3.15 L8.95,2.85 L8.9,2.85 Z M16.55,3.75 L16.25,5.65 L16.8,5.65 L17.05,3.75 L16.55,3.75 Z M18.2,3.8 L17.85,6 L18.45,6.1 L18.65,4.95 C18.65,5.2 18.9,5.35 19.15,5.35 C19.45,5.35 19.65,5.1 19.65,4.85 C19.65,4.55 19.45,4.35 19.15,4.35 C18.9362395,4.33240773 18.7350706,4.4531091 18.65,4.65 L18.8,3.85 L18.2,3.8 Z M14.2,4.15 L12.6,5.9 L12.8,6.1 L14.8,4.75 L14.15,4.15 L14.2,4.15 Z M10.5,8.5 L12.05,6.75 L11.9,6.55 L9.9,7.9 L10.5,8.5 Z M14.55,8.05 L12.7,6.6 L12.5,6.75 L14,8.65 L14.55,8.05 Z M9.9,4.7 L11.85,6.1 L12.05,5.95 L10.55,4.05 L9.9,4.7 Z M12,3.55 L12.2,5.85 L12.45,5.85 L13.05,3.6 L12,3.55 Z M12.6,9.05 L12.45,6.8 L12.15,6.8 L11.8,9.1 L12.6,9.1 L12.6,9.05 Z M15.15,6.05 L12.75,6.25 L12.75,6.5 L15.15,6.8 L15.15,6 L15.15,6.05 Z M9.45,6.8 L11.8,6.45 L11.8,6.25 L9.4,6 L9.4,6.8 L9.45,6.8 Z" id="Shape" stroke="#000000" fill="#F1B517" fill-rule="nonzero"></path>
                            <ellipse id="Oval" stroke="#000000" fill="#F1B517" cx="12.35" cy="6.3" rx="1" ry="1"></ellipse>
                            <path d="M15.7,6.3 C15.7,8.05 14.2,9.55 12.35,9.55 C11.4747563,9.56336176 10.6300627,9.22843502 10.0017937,8.61892035 C9.37352472,8.00940567 9.01316083,7.17524673 9,6.3 C9,4.5 10.5,3.05 12.35,3.05 C13.2252437,3.03663824 14.0699373,3.37156498 14.6982063,3.98107965 C15.3264753,4.59059433 15.6868392,5.42475327 15.7,6.3 Z M15.05,6.3 C15.0368636,7.0028644 14.744989,7.67170788 14.2386132,8.15932908 C13.7322373,8.64695027 13.0528597,8.91338666 12.35,8.9 C11.6385535,8.91342592 10.951599,8.64016861 10.4437605,8.14173458 C9.93592206,7.64330055 9.64987333,6.96157315 9.65,6.25 C9.70425084,4.80603589 10.9052939,3.67171741 12.35,3.7 C13.0528597,3.68661334 13.7322373,3.95304973 14.2386132,4.44067092 C14.744989,4.92829212 15.0368636,5.5971356 15.05,6.3 Z" id="Shape" stroke="#000000" fill="#F1B517" fill-rule="nonzero" stroke-linecap="round"></path>
                            <path d="M10.25,4.65 L9.75,4.25 L10.25,4.65 Z M14,4.25 L14.5,3.75 L14,4.25 Z M15,8.35 L14.45,7.9 L15,8.35 Z M10.25,8.85 L10.75,8.35 L10.25,8.85 Z M21.6,3.05 L22.15,6.05 L21.7,6.25 L21.2,3.1 L21.6,3.1 L21.6,3.05 Z" id="Shape" stroke="#000000" fill="#F1B517" fill-rule="nonzero"></path>
                            <path d="M21.3,2.7 C21.05,2.55 20.7,2.75 20.1,2.05 C19.15,2.9 20.1,3.05 20.2,3.9 C20.45,4 20.65,3.2 21.35,3.15 L22.5,3.05 L22.25,2.7 L21.25,2.7 L21.3,2.7 Z" id="Path" stroke="#000000" fill="#FFFFFF"></path>
                            <path d="M21.7,3.25 L21.6,2.4 C21.45,2.05 21.1,2.35 21.1,2.5 L21.2,3.35 L21.7,3.25 Z" id="Path" stroke="#000000" fill="#FFFFFF"></path>
                            <path d="M18.9,5.7 L18.9,6.5 C18.6,6.6 18.65,6.8 18.65,7.1 L18.65,9.45 C18.6,9.65 18.3,9.65 18.15,9.75 C18,9.9 18.05,10.15 18.65,10.25 L19.15,10.3 C19.9,10.15 20.05,9.9 19.65,9.8 C19.5,9.7 19.2,9.6 19.15,9.5 L19.15,8.9 L19.65,8.9 C19.75,8.9 20,8.6 20,8.35 L20,7.1 C20,6.4 19.5,6.3 19.3,6.35 L19.3,5.7 L18.9,5.7 Z M19.7,7.05 C19.7,6.85 19.4,6.65 19.3,6.65 C19.2,6.65 18.95,6.9 18.95,7.1 L18.95,7.6 C18.95,7.8 19.1,8.4 19.4,8.45 C19.5,8.45 19.7,8.25 19.7,8.05 L19.7,7.05 Z" id="Shape" stroke="#000000" fill="#F1B517" fill-rule="nonzero"></path>
                            <path d="M15.65,8.15 C15.3,8.05 15.3,8.75 15.3,8.75 L15.8,8.75 C16.05,8.85 16.2,9.15 16.1,9.35 C15.95,9.45 15,9.1 14.95,9.35 C15.1,10.3 16.4,10.65 16.85,10.25 C17.3,9.8 17.4,8.75 15.95,8.4 L15.65,8.15 Z M15.95,8.45 L15.8,8.75 L15.95,8.45 Z" id="Shape" stroke="#000000" fill="#FFFFFF" fill-rule="nonzero"></path>
                            <path d="M6,8.5 L5.5,6.5 M6.55,8.4 L5.8,6.85 M7.8,8 L6.15,7.1 M8.55,7.8 L5.45,6.45" id="Shape" stroke="#000000" fill="#F1B517" fill-rule="nonzero"></path>
                            <path d="M3.6,5 L2.3,5.05 C2.2,5.1 2.55,5.5 2.5,5.6 C2.2,6.15 0.3,6.1 0.15,6 C-0.1,5.75 1.9,5.6 1.95,5.5 C1.95,5.3 1.65,4.9 1.7,4.65 C1.7,4.3 2.55,4.15 2.55,4.15 L3.6,5 Z" id="Path" stroke="#D20014" fill="#D20014"></path>
                            <path d="M5.1,6 L2.6,3.9 C2.6,3.9 2.45,3.8 2.35,3.9 C2.25,4 2.35,4.1 2.35,4.1 L5.05,6.3 L5.1,6.05 L5.1,6 Z" id="Path" stroke="#000000" fill="#503200"></path>
                            <path d="M7.6,8.1 L5.5,6.3 L5.35,5.8 L4.95,6.1 C4.8,6.2 4.65,6.5 4.65,6.5 L5.2,6.5 L7,8.2 L7.55,8.1 L7.6,8.1 Z" id="Path" stroke="#000000" fill="#F1B517"></path>
                            <circle id="Oval" stroke="#000000" fill="#F1B517" cx="14.75" cy="10.55" r="1"></circle>
                            <circle id="Oval" stroke="#000000" fill="#F1B517" cx="13.8" cy="9.85" r="1"></circle>
                            <circle id="Oval" stroke="#000000" fill="#F1B517" cx="12.55" cy="10.3" r="1"></circle>
                            <circle id="Oval" stroke="#000000" fill="#F1B517" cx="10.6" cy="10.7" r="1"></circle>
                            <circle id="Oval" stroke="#000000" fill="#F1B517" cx="9.75" cy="10.8" r="1"></circle>
                            <circle id="Oval" stroke="#000000" fill="#F1B517" cx="8.9" cy="10.8" r="1"></circle>
                            <circle id="Oval" stroke="#000000" fill="#F1B517" cx="8.1" cy="10.8" r="1"></circle>
                            <circle id="Oval" stroke="#000000" fill="#F1B517" cx="8.5" cy="10.15" r="1"></circle>
                            <circle id="Oval" stroke="#000000" fill="#F1B517" cx="9.3" cy="10.2" r="1"></circle>
                            <circle id="Oval" stroke="#000000" fill="#F1B517" cx="10.05" cy="10.1" r="1"></circle>
                            <circle id="Oval" stroke="#000000" fill="#F1B517" cx="9.7" cy="9.5" r="1"></circle>
                            <circle id="Oval" stroke="#000000" fill="#F1B517" cx="8.9" cy="9.45" r="1"></circle>
                            <path d="M16.75,11.0019766 C16.75,10.8513374 16.35,10.9015504 16.35,10.7006982 C16.35,10.4998459 16.95,10.7006982 17,10.8513374 C17.35,10.550059 17.5,10.7509112 17.7,10.8513374 C18,10.4496329 18.35,10.4496329 18.7,10.7509112 C18.9,10.550059 19.4,10.6002721 19.55,10.8513374 C19.9,10.550059 20.2,10.6002721 20.4,10.8513374 C20.5,10.7006982 20.65,10.7006982 20.75,10.8513374 C20.9,10.4998459 21.35,10.6002721 21.55,10.8513374 C21.7,10.6504851 21.9,10.8011243 22.1,10.9015504 C22.25,10.8011243 22.5,10.8011243 22.5,10.9015504 C22.5,11.1024027 22.2,11.0521896 22.2,11.2028288 C22.2,11.3032549 22.4,11.2028288 22.4,11.403681 C22.4,11.5543202 22.1,11.6045333 22.05,11.403681 C21.9,11.6045333 21.5,11.5041072 21.45,11.3032549 C21.3740668,11.389722 21.2648002,11.4392569 21.15,11.4392569 C21.0351998,11.4392569 20.9259332,11.389722 20.85,11.3032549 C20.7,11.403681 20.5,11.403681 20.45,11.3032549 C20.2,11.5543202 19.75,11.5041072 19.6,11.2028288 L19.45,11.2028288 C19.3550835,11.3109126 19.2185003,11.3728312 19.075,11.3728312 C18.9314997,11.3728312 18.7949165,11.3109126 18.7,11.2028288 C18.25,11.5041072 18,11.403681 17.75,11.2028288 C17.5,11.5543202 17.05,11.5543202 17,11.2028288 C16.8,11.353468 16.4,11.403681 16.4,11.2028288 C16.4,11.1024027 16.75,11.1526157 16.75,11.0019766 Z M17.55,11.0521896 C17.55,11.1526157 17.45,11.2028288 17.35,11.2028288 C17.25,11.2028288 17.15,11.1526157 17.15,11.0521896 C17.15,10.9517635 17.2,10.9517635 17.35,10.9517635 C17.5,10.9517635 17.55,11.0019766 17.55,11.0521896 Z M18.5,10.9517635 C18.5,11.0521896 18.35,11.1024027 18.2,11.1024027 C18.05,11.1024027 17.95,11.0521896 17.95,10.9517635 C17.95,10.9015504 18.05,10.8011243 18.2,10.8011243 C18.35,10.8011243 18.45,10.9015504 18.45,10.9517635 L18.5,10.9517635 Z M20.25,11.0521896 C20.25,11.1526157 20.15,11.2028288 20,11.2028288 C19.85,11.2028288 19.8,11.1526157 19.8,11.0521896 C19.8,11.0019766 19.9,10.9015504 20,10.9015504 C20.1,10.9015504 20.25,10.9517635 20.25,11.0521896 Z M19.3,11.0521896 C19.3,11.1526157 19.2,11.2028288 19.05,11.2028288 C18.9,11.2028288 18.85,11.1526157 18.85,11.0019766 C18.85,10.9015504 18.95,10.8011243 19.05,10.8011243 C19.15,10.8011243 19.3,10.9015504 19.3,11.0019766 L19.3,11.0521896 Z M21.3,11.0521896 C21.3,11.1024027 21.25,11.2028288 21.15,11.2028288 C21,11.2028288 20.9,11.1024027 20.9,11.0019766 C20.9,10.9015504 21,10.8513374 21.15,10.8513374 C21.25,10.8513374 21.35,10.9015504 21.35,11.0019766 L21.3,11.0521896 Z M20.7,11.0521896 C20.7,11.1526157 20.7,11.2028288 20.6,11.2028288 C20.5,11.2028288 20.45,11.1526157 20.45,11.0521896 C20.45,10.9517635 20.5,10.9517635 20.6,10.9517635 L20.7,11.0521896 Z M21.9,11.1024027 C21.9,11.2028288 21.9,11.3032549 21.75,11.3032549 C21.7,11.3032549 21.6,11.2028288 21.6,11.1024027 C21.6,11.0019766 21.7,10.9517635 21.75,10.9517635 C21.85,10.9517635 21.9,11.0019766 21.9,11.1024027 Z" id="Shape" stroke="#000000" fill="#F1B517" fill-rule="nonzero"></path>
                        </g>
                        <g id="d-link" transform="translate(35.700000, 6.000000) scale(-1, 1) translate(-35.700000, -6.000000) translate(24.450000, 0.000000)" stroke-width="0.25">
                            <g id="d">
                                <polygon id="Path" stroke="#000000" fill="#F1B517" points="21.5 8.4 18 7.3 16.45 4.65 11 4.4 11.2 6.4 15.85 7.25 16.25 8.05 21.6 9.55 21.5 8.4"></polygon>
                                <polygon id="Path" stroke="#000000" fill="#503200" points="17.85 9.15 12.25 0.9 12 1.15 17.5 9.35"></polygon>
                                <path d="M12.8,1.25 L12.2,0.25 C12.05,0.05 11.9,1.38777878e-17 11.65,0.15 C11.4,0.25 11.45,0.5 11.55,0.7 L12.05,1.65 L12.8,1.25 Z" id="Path" stroke="#000000" fill="#FFFFFF"></path>
                                <polygon id="Path" stroke="#000000" fill="#F1B517" points="18.5 4.05 7.25 2.9 6.95 4.55 18.15 5.7"></polygon>
                                <path d="M7,2.5 L6.75,4.75 L7.25,4.75 L7.55,2.7 L7.05,2.5 L7,2.5 Z M8.9,2.85 L8.8,4.9 L9.1,4.9 L9.35,3.15 L8.95,2.85 L8.9,2.85 Z M16.55,3.75 L16.25,5.65 L16.8,5.65 L17.05,3.75 L16.55,3.75 Z M18.2,3.8 L17.85,6 L18.45,6.1 L18.65,4.95 C18.65,5.2 18.9,5.35 19.15,5.35 C19.45,5.35 19.65,5.1 19.65,4.85 C19.65,4.55 19.45,4.35 19.15,4.35 C18.9362395,4.33240773 18.7350706,4.4531091 18.65,4.65 L18.8,3.85 L18.2,3.8 Z M14.2,4.15 L12.6,5.9 L12.8,6.1 L14.8,4.75 L14.15,4.15 L14.2,4.15 Z M10.5,8.5 L12.05,6.75 L11.9,6.55 L9.9,7.9 L10.5,8.5 Z M14.55,8.05 L12.7,6.6 L12.5,6.75 L14,8.65 L14.55,8.05 Z M9.9,4.7 L11.85,6.1 L12.05,5.95 L10.55,4.05 L9.9,4.7 Z M12,3.55 L12.2,5.85 L12.45,5.85 L13.05,3.6 L12,3.55 Z M12.6,9.05 L12.45,6.8 L12.15,6.8 L11.8,9.1 L12.6,9.1 L12.6,9.05 Z M15.15,6.05 L12.75,6.25 L12.75,6.5 L15.15,6.8 L15.15,6 L15.15,6.05 Z M9.45,6.8 L11.8,6.45 L11.8,6.25 L9.4,6 L9.4,6.8 L9.45,6.8 Z" id="Shape" stroke="#000000" fill="#F1B517" fill-rule="nonzero"></path>
                                <ellipse id="Oval" stroke="#000000" fill="#F1B517" cx="12.35" cy="6.3" rx="1" ry="1"></ellipse>
                                <path d="M15.7,6.3 C15.7,8.05 14.2,9.55 12.35,9.55 C11.4747563,9.56336176 10.6300627,9.22843502 10.0017937,8.61892035 C9.37352472,8.00940567 9.01316083,7.17524673 9,6.3 C9,4.5 10.5,3.05 12.35,3.05 C13.2252437,3.03663824 14.0699373,3.37156498 14.6982063,3.98107965 C15.3264753,4.59059433 15.6868392,5.42475327 15.7,6.3 Z M15.05,6.3 C15.0368636,7.0028644 14.744989,7.67170788 14.2386132,8.15932908 C13.7322373,8.64695027 13.0528597,8.91338666 12.35,8.9 C11.6385535,8.91342592 10.951599,8.64016861 10.4437605,8.14173458 C9.93592206,7.64330055 9.64987333,6.96157315 9.65,6.25 C9.70425084,4.80603589 10.9052939,3.67171741 12.35,3.7 C13.0528597,3.68661334 13.7322373,3.95304973 14.2386132,4.44067092 C14.744989,4.92829212 15.0368636,5.5971356 15.05,6.3 Z" id="Shape" stroke="#000000" fill="#F1B517" fill-rule="nonzero" stroke-linecap="round"></path>
                                <path d="M10.25,4.65 L9.75,4.25 L10.25,4.65 Z M14,4.25 L14.5,3.75 L14,4.25 Z M15,8.35 L14.45,7.9 L15,8.35 Z M10.25,8.85 L10.75,8.35 L10.25,8.85 Z M21.6,3.05 L22.15,6.05 L21.7,6.25 L21.2,3.1 L21.6,3.1 L21.6,3.05 Z" id="Shape" stroke="#000000" fill="#F1B517" fill-rule="nonzero"></path>
                                <path d="M21.3,2.7 C21.05,2.55 20.7,2.75 20.1,2.05 C19.15,2.9 20.1,3.05 20.2,3.9 C20.45,4 20.65,3.2 21.35,3.15 L22.5,3.05 L22.25,2.7 L21.25,2.7 L21.3,2.7 Z" id="Path" stroke="#000000" fill="#FFFFFF"></path>
                                <path d="M21.7,3.25 L21.6,2.4 C21.45,2.05 21.1,2.35 21.1,2.5 L21.2,3.35 L21.7,3.25 Z" id="Path" stroke="#000000" fill="#FFFFFF"></path>
                                <path d="M18.9,5.7 L18.9,6.5 C18.6,6.6 18.65,6.8 18.65,7.1 L18.65,9.45 C18.6,9.65 18.3,9.65 18.15,9.75 C18,9.9 18.05,10.15 18.65,10.25 L19.15,10.3 C19.9,10.15 20.05,9.9 19.65,9.8 C19.5,9.7 19.2,9.6 19.15,9.5 L19.15,8.9 L19.65,8.9 C19.75,8.9 20,8.6 20,8.35 L20,7.1 C20,6.4 19.5,6.3 19.3,6.35 L19.3,5.7 L18.9,5.7 Z M19.7,7.05 C19.7,6.85 19.4,6.65 19.3,6.65 C19.2,6.65 18.95,6.9 18.95,7.1 L18.95,7.6 C18.95,7.8 19.1,8.4 19.4,8.45 C19.5,8.45 19.7,8.25 19.7,8.05 L19.7,7.05 Z" id="Shape" stroke="#000000" fill="#F1B517" fill-rule="nonzero"></path>
                                <path d="M15.65,8.15 C15.3,8.05 15.3,8.75 15.3,8.75 L15.8,8.75 C16.05,8.85 16.2,9.15 16.1,9.35 C15.95,9.45 15,9.1 14.95,9.35 C15.1,10.3 16.4,10.65 16.85,10.25 C17.3,9.8 17.4,8.75 15.95,8.4 L15.65,8.15 Z M15.95,8.45 L15.8,8.75 L15.95,8.45 Z" id="Shape" stroke="#000000" fill="#FFFFFF" fill-rule="nonzero"></path>
                                <path d="M6,8.5 L5.5,6.5 M6.55,8.4 L5.8,6.85 M7.8,8 L6.15,7.1 M8.55,7.8 L5.45,6.45" id="Shape" stroke="#000000" fill="#F1B517" fill-rule="nonzero"></path>
                                <path d="M3.6,5 L2.3,5.05 C2.2,5.1 2.55,5.5 2.5,5.6 C2.2,6.15 0.3,6.1 0.15,6 C-0.1,5.75 1.9,5.6 1.95,5.5 C1.95,5.3 1.65,4.9 1.7,4.65 C1.7,4.3 2.55,4.15 2.55,4.15 L3.6,5 Z" id="Path" stroke="#D20014" fill="#D20014"></path>
                                <path d="M5.1,6 L2.6,3.9 C2.6,3.9 2.45,3.8 2.35,3.9 C2.25,4 2.35,4.1 2.35,4.1 L5.05,6.3 L5.1,6.05 L5.1,6 Z" id="Path" stroke="#000000" fill="#503200"></path>
                                <path d="M7.6,8.1 L5.5,6.3 L5.35,5.8 L4.95,6.1 C4.8,6.2 4.65,6.5 4.65,6.5 L5.2,6.5 L7,8.2 L7.55,8.1 L7.6,8.1 Z" id="Path" stroke="#000000" fill="#F1B517"></path>
                                <circle id="Oval" stroke="#000000" fill="#F1B517" cx="14.75" cy="10.55" r="1"></circle>
                                <circle id="Oval" stroke="#000000" fill="#F1B517" cx="13.8" cy="9.85" r="1"></circle>
                                <circle id="Oval" stroke="#000000" fill="#F1B517" cx="12.55" cy="10.3" r="1"></circle>
                                <circle id="Oval" stroke="#000000" fill="#F1B517" cx="10.6" cy="10.7" r="1"></circle>
                                <circle id="Oval" stroke="#000000" fill="#F1B517" cx="9.75" cy="10.8" r="1"></circle>
                                <circle id="Oval" stroke="#000000" fill="#F1B517" cx="8.9" cy="10.8" r="1"></circle>
                                <circle id="Oval" stroke="#000000" fill="#F1B517" cx="8.1" cy="10.8" r="1"></circle>
                                <circle id="Oval" stroke="#000000" fill="#F1B517" cx="8.5" cy="10.15" r="1"></circle>
                                <circle id="Oval" stroke="#000000" fill="#F1B517" cx="9.3" cy="10.2" r="1"></circle>
                                <circle id="Oval" stroke="#000000" fill="#F1B517" cx="10.05" cy="10.1" r="1"></circle>
                                <circle id="Oval" stroke="#000000" fill="#F1B517" cx="9.7" cy="9.5" r="1"></circle>
                                <circle id="Oval" stroke="#000000" fill="#F1B517" cx="8.9" cy="9.45" r="1"></circle>
                                <path d="M16.75,11.0019766 C16.75,10.8513374 16.35,10.9015504 16.35,10.7006982 C16.35,10.4998459 16.95,10.7006982 17,10.8513374 C17.35,10.550059 17.5,10.7509112 17.7,10.8513374 C18,10.4496329 18.35,10.4496329 18.7,10.7509112 C18.9,10.550059 19.4,10.6002721 19.55,10.8513374 C19.9,10.550059 20.2,10.6002721 20.4,10.8513374 C20.5,10.7006982 20.65,10.7006982 20.75,10.8513374 C20.9,10.4998459 21.35,10.6002721 21.55,10.8513374 C21.7,10.6504851 21.9,10.8011243 22.1,10.9015504 C22.25,10.8011243 22.5,10.8011243 22.5,10.9015504 C22.5,11.1024027 22.2,11.0521896 22.2,11.2028288 C22.2,11.3032549 22.4,11.2028288 22.4,11.403681 C22.4,11.5543202 22.1,11.6045333 22.05,11.403681 C21.9,11.6045333 21.5,11.5041072 21.45,11.3032549 C21.3740668,11.389722 21.2648002,11.4392569 21.15,11.4392569 C21.0351998,11.4392569 20.9259332,11.389722 20.85,11.3032549 C20.7,11.403681 20.5,11.403681 20.45,11.3032549 C20.2,11.5543202 19.75,11.5041072 19.6,11.2028288 L19.45,11.2028288 C19.3550835,11.3109126 19.2185003,11.3728312 19.075,11.3728312 C18.9314997,11.3728312 18.7949165,11.3109126 18.7,11.2028288 C18.25,11.5041072 18,11.403681 17.75,11.2028288 C17.5,11.5543202 17.05,11.5543202 17,11.2028288 C16.8,11.353468 16.4,11.403681 16.4,11.2028288 C16.4,11.1024027 16.75,11.1526157 16.75,11.0019766 Z M17.55,11.0521896 C17.55,11.1526157 17.45,11.2028288 17.35,11.2028288 C17.25,11.2028288 17.15,11.1526157 17.15,11.0521896 C17.15,10.9517635 17.2,10.9517635 17.35,10.9517635 C17.5,10.9517635 17.55,11.0019766 17.55,11.0521896 Z M18.5,10.9517635 C18.5,11.0521896 18.35,11.1024027 18.2,11.1024027 C18.05,11.1024027 17.95,11.0521896 17.95,10.9517635 C17.95,10.9015504 18.05,10.8011243 18.2,10.8011243 C18.35,10.8011243 18.45,10.9015504 18.45,10.9517635 L18.5,10.9517635 Z M20.25,11.0521896 C20.25,11.1526157 20.15,11.2028288 20,11.2028288 C19.85,11.2028288 19.8,11.1526157 19.8,11.0521896 C19.8,11.0019766 19.9,10.9015504 20,10.9015504 C20.1,10.9015504 20.25,10.9517635 20.25,11.0521896 Z M19.3,11.0521896 C19.3,11.1526157 19.2,11.2028288 19.05,11.2028288 C18.9,11.2028288 18.85,11.1526157 18.85,11.0019766 C18.85,10.9015504 18.95,10.8011243 19.05,10.8011243 C19.15,10.8011243 19.3,10.9015504 19.3,11.0019766 L19.3,11.0521896 Z M21.3,11.0521896 C21.3,11.1024027 21.25,11.2028288 21.15,11.2028288 C21,11.2028288 20.9,11.1024027 20.9,11.0019766 C20.9,10.9015504 21,10.8513374 21.15,10.8513374 C21.25,10.8513374 21.35,10.9015504 21.35,11.0019766 L21.3,11.0521896 Z M20.7,11.0521896 C20.7,11.1526157 20.7,11.2028288 20.6,11.2028288 C20.5,11.2028288 20.45,11.1526157 20.45,11.0521896 C20.45,10.9517635 20.5,10.9517635 20.6,10.9517635 L20.7,11.0521896 Z M21.9,11.1024027 C21.9,11.2028288 21.9,11.3032549 21.75,11.3032549 C21.7,11.3032549 21.6,11.2028288 21.6,11.1024027 C21.6,11.0019766 21.7,10.9517635 21.75,10.9517635 C21.85,10.9517635 21.9,11.0019766 21.9,11.1024027 Z" id="Shape" stroke="#000000" fill="#F1B517" fill-rule="nonzero"></path>
                            </g>
                        </g>
                        <path d="M23.4,4.85 C22.15,4.85 21.15,5.35 21.15,5.9 C21.15,6 21.15,6.1 21.25,6.2 C21.5,6.5 22.4,6.7 23.45,6.7 C24.45,6.7 25.25,6.55 25.55,6.25 C25.65,6.15 25.7,6.05 25.7,5.9 C25.7,5.35 24.7,4.9 23.4,4.9 L23.4,4.85 Z" id="Path" stroke="#0A328C" stroke-width="0.25" fill="#0A328C"></path>
                        <path d="M25.7,6 L25.7,9.5 C25.7,9.95 24.7,10.25 23.45,10.25 C22.2,10.25 21.15,9.95 21.15,9.5 L21.15,6 C21.15,6.4 22.15,6.75 23.4,6.75 C24.7,6.75 25.7,6.4 25.7,6 Z" id="Path" stroke="#000000" stroke-width="0.25" fill="#F1B517"></path>
                        <path d="M21.15,6 L21.15,6.5 L22.25,10 L23.15,7.3 L24.15,10.05 L24.8,7.45 L25.7,9.2 L25.7,8.25 L24.9,6.55 C24.8013068,6.58713258 24.7012341,6.62049013 24.6,6.65 L24.1,8.55 L23.35,6.75 C23.2333503,6.7528165 23.1166497,6.7528165 23,6.75 L22.25,8.55 L21.45,6.35 C21.25,6.25 21.15,6.1 21.15,6 Z" id="Path" stroke="#D20014" stroke-width="0.25" fill="#D20014"></path>
                        <path d="M25.7,8.85 L25.7,9.5 C25.7,9.95 24.7,10.25 23.45,10.25 C22.2,10.25 21.15,9.95 21.15,9.5 L21.15,8.85 C21.15,9.3 22.15,9.6 23.4,9.6 C24.7,9.6 25.7,9.3 25.7,8.85 Z" id="Path" stroke="#0A328C" stroke-width="0.25" fill="#0A328C"></path>
                        <path d="M24.35,9.5 L23.8,9.6 L23.8,10.25 L24.4,10.2 L24.4,9.55 L24.35,9.5 Z M21.95,9.45 L21.95,10.1 L22.5,10.2 L22.5,9.55 C22.3147521,9.52822632 22.1310564,9.4948271 21.95,9.45 Z M21.15,8.85 L21.15,9.5 C21.15,9.65 21.25,9.75 21.4,9.85 L21.4,9.2 C21.25,9.1 21.15,9 21.15,8.85 Z M25.7,8.95 C25.7,9.05 25.5,9.2 25.3,9.3 L25.3,9.95 C25.55,9.85 25.7,9.7 25.7,9.5 L25.7,9 L25.7,8.95 Z" id="Shape" stroke="#000000" stroke-width="0.25" fill="#F1B517" fill-rule="nonzero"></path>
                        <path d="M25.7,6 L25.7,9.5 C25.7,9.95 24.7,10.25 23.45,10.25 C22.2,10.25 21.15,9.95 21.15,9.5 L21.15,6" id="Path" stroke="#000000" stroke-width="0.25"></path>
                        <path d="M25.2,5.75 C25.2,6 24.4,6.25 23.45,6.25 C22.45,6.25 21.65,6 21.65,5.75 C21.65,5.5 22.45,5.3 23.4,5.3 C24.4,5.3 25.2,5.5 25.2,5.8 L25.2,5.75 Z" id="Path" stroke="#FFFFFF" stroke-width="0.25" fill="#FFFFFF"></path>
                        <path d="M22.85,6.1 L22.95,6.7 L23.45,6.7 L23.5,6.1 L22.85,6.1 Z M24.9,5.95 L24.4,6.05 L24.45,6.65 L24.95,6.55 L24.95,6 L24.9,5.95 Z M22.2,4.95 L21.85,5.1 L21.9,5.6 L22.2,5.5 L22.2,5 L22.2,4.95 Z M23.4,4.8 L23.25,4.8 L23.35,5.4 L23.65,5.4 L23.75,4.8 C23.6333713,4.79578901 23.5166287,4.79578901 23.4,4.8 Z M24.75,5 L24.7,5.5 L25.05,5.65 L25.05,5.15 C24.9532677,5.09371532 24.8530671,5.04361499 24.75,5 Z M21.5,6.4 L21.6,5.75 L21.1,5.5 L21.1,6.25 L21.5,6.4 Z M25.7,6.25 L25.7,5.6 L25.3,5.75 L25.7,6.25 Z M30.35,2 C30.75,2 31.35,2.5 31.4,3.25 C31.4,3.75 30.55,3.75 30.55,3.75 C30.55,4 30.05,4.2 29.65,4.25 C29.25,4.25 29.75,3.5 29.75,3.5 C29.5,2.85 29.85,2.15 29.85,2.15 L30.35,2 Z" id="Shape" stroke="#000000" stroke-width="0.25" fill="#F1B517" fill-rule="nonzero"></path>
                        <path d="M29.75,3.5 L30.15,3.5 C30.15,3.5 30.15,3.65 30.25,3.65 C30.35,3.65 30.4,3.45 30.4,3.45 L31,3.45" id="Path" stroke="#000000" stroke-width="0.25" fill="#F1B517"></path>
                        <path d="M30.55,2.45 C30.9,2.2 30.6,1.7 30.35,1.7 L29.85,1.7 C29.55,1.7 29.15,2 29.2,2.2 C29.2,2.45 29.4,2.55 29.6,2.5 C29.7,2.5 29.9,2.2 30,2.2 C30.15,2.2 30.5,2.5 30.55,2.45 Z" id="Path" stroke="#F1B517" stroke-width="0.25" fill="#D20014"></path>
                        <path d="M5.6,9.4 C5.3,9.45 5.25,9.8 5.35,10.15 C4.05,10.5 2.85,11 1.65,11.35 C1.6,11.1 2.25,10.45 2.25,10.45 C2.4,10.5 2.55,10.9 2.55,10.9 C2.55,10.1 3.35,9.6 3.35,9.6 C2.85,9.5 1.5,10.1 1.35,10.3 C1.35,10.3 1.85,10.2 1.95,10.3 C1.95,10.3 0.85,11.45 0.8,11.8 C1,12.15 2.8,12.45 2.8,12.45 C2.8,12.55 2.3,12.95 2.3,12.95 C3.05,13.05 4.15,12.55 4.45,12.25 C4.45,12.25 3.6,12.15 2.95,11.6 C2.95,11.6 3.05,11.95 2.95,12.1 C2.95,12.1 1.95,11.8 1.8,11.6 C1.8,11.6 4.3,11 5.5,10.6 C5.55,10.85 5.8,11.25 6.1,11.15 C6.25,11.1 6.2,10.75 6.1,10.45 C6.1820196,10.5231248 6.29050945,10.5592881 6.4,10.55 C6.6,10.55 6.75,10.4 6.75,10.2 C6.75,10 6.6,9.85 6.4,9.85 C6.24464411,9.85818043 6.10812394,9.95569484 6.05,10.1 C6,9.85 5.85,9.4 5.65,9.45 L5.6,9.4 Z M6.6,10.2 C6.6,10.3 6.5,10.35 6.4,10.35 C6.35262899,10.3668427 6.29997028,10.3588332 6.25974937,10.3286675 C6.21952846,10.2985018 6.19709488,10.2501921 6.2,10.2 C6.2,10.1 6.3,10 6.4,10 C6.5,10 6.55,10.1 6.55,10.2 L6.6,10.2 Z" id="Shape" stroke="#000000" stroke-width="0.25" fill="#F1B517" fill-rule="nonzero"></path>
                        <path d="M45,10.95 C45.1,10.75 45,9.85 45,9.85 C44.75,9.85 44.5,10.2 44.5,10.2 C44.75,9.4 44.1,8.2 44.1,8.2 C44.55,8.25 46.05,9.7 46.1,10 C46.1,10 45.45,9.75 45.35,9.8 C45.5,10.55 46,10.9 46.2,11.3 C46.2,11.3 45.35,11.45 45.4,12.2 L44.85,12.2 C44.65,11.95 44.9,11.55 44.9,11.55 L41.05,9.95 C40.8,9.85 40.25,9.55 40.35,9.25 C40.4,9 41.35,9.4 41.55,9.5 L45.05,10.95 L45,10.95 Z" id="Path" stroke="#000000" stroke-width="0.25" fill="#F1B517"></path>
                        <path d="M41.3,10.25 L41.8,9.45 C41.95,9.2 41.6,8.95 41.35,9.25 L40.85,10 C40.65,10.45 41.1,10.55 41.35,10.25 L41.3,10.25 Z" id="Path" stroke="#000000" stroke-width="0.25" fill="#F1B517"></path>
                    </g>
                    <g transform="translate(4.687500, 32.812500)" fill="#FFFFFF" stroke="#000000" stroke-width="0.15">
                        <polygon id="Path" points="9.75 1.4375 9.71875 0.5 8.625 0.59375 8.5625 1.5625 9.75 1.4375"></polygon>
                        <path d="M1.6875,2.71875 L0.21875,1.875 C6.28125,2.4375 7.53125,0.3125 9,0.21875 C9.9375,0.125 10.03125,1.21875 8.28125,0.6875 L8.75,1.8125 C8.75,1.8125 4.4375,4.25 0.1875,3.25 L1.6875,2.71875 Z M28.1875,1.4375 L28.21875,0.5 L29.5625,0.5625 L29.625,1.53125 L28.1875,1.4375 Z" id="Shape" fill-rule="nonzero"></path>
                        <path d="M36.53125,2.5 L37.9375,1.71875 C30.9375,1.9375 32.53125,0.59375 29.0625,0.21875 C28.125,0.09375 27.5,1.28125 29.75,0.6875 L29.3125,1.8125 L30.40625,1.8125 C32.78125,3.375 35.96875,3.53125 38.09375,3.03125 L36.53125,2.5 Z" id="Path"></path>
                        <path d="M8.28125,0.71875 L8.28125,2.28125 C8.28125,2.28125 12.125,3.71875 19.03125,3.71875 C25.96875,3.71875 29.78125,2.28125 29.78125,2.28125 L29.78125,0.71875 C29.78125,0.71875 26.875,2.0625 19.03125,2.0625 C11.21875,2.0625 8.28125,0.71875 8.28125,0.71875 Z" id="Path"></path>
                    </g>
                    <path d="M13.53125,35.09375 L13.875,33.9375 L14.03125,34 L13.71875,35 L14.34375,35.15625 L14.28125,35.3125 L13.53125,35.09375 Z M14.65625,34.59375 L14.65625,34.375 L14.71875,34.15625 L14.90625,34.21875 L14.84375,34.40625 L14.75,34.625 L14.65625,34.59375 Z M16.3125,34.5 L16.46875,34.5625 L16.34375,35.21875 L16.21875,35.53125 C16.1789498,35.5862997 16.1249437,35.6295046 16.0625,35.65625 L15.75,35.65625 C15.6472961,35.6386789 15.5506147,35.5957094 15.46875,35.53125 C15.4052145,35.486471 15.3606477,35.4196209 15.34375,35.34375 L15.375,35.03125 L15.53125,34.34375 L15.6875,34.375 L15.53125,35.0625 C15.5152303,35.1450634 15.5152303,35.2299366 15.53125,35.3125 C15.5378549,35.3598798 15.5598091,35.4037882 15.59375,35.4375 L15.75,35.5 L16.0625,35.5 L16.1875,35.1875 L16.3125,34.5 Z M16.5,35.75 L16.6875,34.59375 L16.875,34.59375 L17.34375,35.65625 L17.5,34.71875 L17.65625,34.71875 L17.46875,35.9375 L17.3125,35.90625 L16.8125,34.875 L16.65625,35.8125 L16.5,35.78125 L16.5,35.75 Z M17.75,35.96875 L17.9375,34.78125 L18.09375,34.78125 L17.9375,35.96875 L17.78125,35.96875 L17.75,35.96875 Z M18.25,35.4375 C18.25,35.25 18.34375,35.09375 18.46875,35 C18.5936977,34.9048437 18.749891,34.860217 18.90625,34.875 C19.03125,34.875 19.125,34.90625 19.21875,34.96875 L19.375,35.21875 C19.4375,35.3125 19.4375,35.4375 19.40625,35.53125 C19.4005274,35.6414301 19.368372,35.7486147 19.3125,35.84375 C19.2546928,35.9415161 19.1670744,36.0181822 19.0625,36.0625 C18.9626911,36.099345 18.8551286,36.1101013 18.75,36.09375 C18.6393702,36.090719 18.5315291,36.0583667 18.4375,36 C18.3628741,35.9330765 18.3087048,35.8464055 18.28125,35.75 C18.2456942,35.6498979 18.2349705,35.5426606 18.25,35.4375 Z M18.40625,35.4375 C18.40625,35.59375 18.40625,35.75 18.5,35.8125 C18.5625,35.90625 18.65625,35.96875 18.78125,35.96875 C18.90625,35.96875 19,35.96875 19.09375,35.875 C19.1875,35.8125 19.21875,35.6875 19.25,35.5625 C19.2779041,35.4602021 19.2779041,35.3522979 19.25,35.25 C19.2147923,35.1834053 19.1603447,35.1289577 19.09375,35.09375 C19.0318271,35.0413635 18.9556405,35.0087121 18.875,35 C18.78125,35 18.65625,35 18.5625,35.09375 C18.5,35.15625 18.4375,35.28125 18.40625,35.46875 L18.40625,35.4375 Z M19.5625,36.15625 L19.65625,34.96875 L19.84375,34.96875 L20.40625,35.96875 L20.46875,35.03125 L20.625,35.03125 L20.53125,36.25 L20.375,36.25 L19.78125,35.25 L19.71875,36.1875 L19.5625,36.1875 L19.5625,36.15625 Z M21.3125,36.28125 L21.34375,35.09375 L22.1875,35.125 L22.1875,35.28125 L21.53125,35.25 L21.5,35.59375 L22.09375,35.625 L22.09375,35.78125 L21.46875,35.75 L21.46875,36.3125 L21.3125,36.3125 L21.3125,36.28125 Z M22.25,36.3125 L22.71875,35.125 L22.90625,35.125 L23.375,36.375 L23.1875,36.375 L23.0625,35.96875 L22.53125,35.96875 L22.40625,36.34375 L22.21875,36.34375 L22.25,36.3125 Z M22.5625,35.84375 L23,35.84375 L22.875,35.53125 C22.8497659,35.4385324 22.8289095,35.3446786 22.8125,35.25 L22.75,35.5 L22.59375,35.84375 L22.5625,35.84375 Z M23.53125,36.34375 L23.53125,35.15625 L23.71875,35.15625 L23.71875,36.34375 L23.53125,36.34375 Z M24.3125,36.34375 L24.3125,35.3125 L23.90625,35.3125 L23.90625,35.1875 L24.875,35.1875 L24.875,35.3125 L24.46875,35.3125 L24.46875,36.375 L24.3125,36.375 L24.3125,36.34375 Z M25.5625,36.34375 L25.46875,35.09375 L25.65625,35.09375 L25.6875,36.15625 L26.3125,36.15625 L26.3125,36.28125 L25.53125,36.3125 L25.5625,36.34375 Z M26.375,36.28125 L26.75,35.03125 L26.9375,35.03125 L27.5625,36.1875 L27.34375,36.1875 L27.1875,35.875 L26.65625,35.875 L26.5625,36.28125 L26.375,36.28125 Z M26.6875,35.75 L27.125,35.75 L26.96875,35.4375 L26.84375,35.15625 C26.8403626,35.2403122 26.8299091,35.3239405 26.8125,35.40625 L26.6875,35.75 Z M28.15625,36.125 L28.03125,34.9375 L28.84375,34.84375 L28.875,35 L28.21875,35.0625 L28.21875,35.4375 L28.84375,35.375 L28.84375,35.53125 L28.25,35.59375 L28.3125,36.125 L28.15625,36.125 Z M29.09375,35.46875 C29.0434982,35.3006972 29.0661776,35.1192623 29.15625,34.96875 C29.25881,34.8466876 29.4041396,34.7684332 29.5625,34.75 L29.875,34.78125 C30,34.8125 30.0625,34.875 30.125,34.96875 L30.25,35.28125 L30.21875,35.59375 C30.1845658,35.6949759 30.1188553,35.7825899 30.03125,35.84375 C29.9493853,35.9082094 29.8527039,35.9511789 29.75,35.96875 C29.6448714,35.9851013 29.5373089,35.974345 29.4375,35.9375 C29.3372532,35.9014776 29.2501506,35.8361506 29.1875,35.75 C29.1193755,35.6584711 29.0762918,35.550762 29.0625,35.4375 L29.09375,35.46875 Z M29.25,35.4375 C29.25,35.5625 29.3125,35.6875 29.40625,35.75 C29.5,35.84375 29.59375,35.84375 29.71875,35.84375 C29.84375,35.84375 29.9375,35.78125 30.03125,35.6875 C30.09375,35.59375 30.09375,35.46875 30.09375,35.3125 C30.0808726,35.2233866 30.048893,35.1381076 30,35.0625 C29.9549928,34.9924294 29.889538,34.9378837 29.8125,34.90625 C29.7407597,34.8877267 29.6654903,34.8877267 29.59375,34.90625 C29.46875,34.90625 29.375,34.9375 29.28125,35.03125 C29.25,35.125 29.21875,35.25 29.25,35.4375 Z M30.53125,35.84375 L30.34375,34.65625 L30.875,34.5625 L31.125,34.5625 C31.1875,34.5625 31.25,34.5625 31.28125,34.625 L31.375,34.8125 C31.375,34.90625 31.375,34.96875 31.3125,35.03125 C31.28125,35.09375 31.1875,35.15625 31.09375,35.1875 C31.1260799,35.1943426 31.1575305,35.2048261 31.1875,35.21875 L31.34375,35.375 L31.65625,35.65625 L31.4375,35.65625 L31.21875,35.46875 C31.1691863,35.4142066 31.1170434,35.3620637 31.0625,35.3125 C31.034576,35.287064 31.0029693,35.2659929 30.96875,35.25 C30.9377796,35.2440882 30.9059704,35.2440882 30.875,35.25 L30.78125,35.25 L30.59375,35.28125 L30.71875,35.8125 L30.53125,35.8125 L30.53125,35.84375 Z M30.59375,35.15625 L30.90625,35.09375 C30.9721092,35.0848284 31.0357097,35.0636283 31.09375,35.03125 C31.1602831,34.9936884 31.1973706,34.9195134 31.1875,34.84375 C31.1835536,34.795586 31.1611634,34.7508055 31.125,34.71875 L30.90625,34.71875 L30.5,34.75 L30.59375,35.15625 Z M32.5625,35.03125 L32.71875,35.03125 C32.71875,35.15625 32.6875,35.28125 32.625,35.34375 C32.5417726,35.4359061 32.4329801,35.5011816 32.3125,35.53125 C32.2100139,35.5577118 32.1024861,35.5577118 32,35.53125 C31.8987741,35.4970658 31.8111601,35.4313553 31.75,35.34375 C31.6758714,35.2521466 31.6225556,35.1455149 31.59375,35.03125 C31.5697619,34.9284644 31.5697619,34.8215356 31.59375,34.71875 C31.59375,34.59375 31.6875,34.5 31.75,34.4375 L32.03125,34.3125 L32.34375,34.3125 C32.46875,34.375 32.53125,34.4375 32.59375,34.5625 L32.4375,34.625 C32.4022923,34.5584053 32.3478447,34.5039577 32.28125,34.46875 C32.2102786,34.4449303 32.1334714,34.4449303 32.0625,34.46875 C31.9800721,34.4699241 31.901447,34.5036205 31.84375,34.5625 C31.78745,34.6219276 31.7542062,34.6994965 31.75,34.78125 L31.75,35 C31.7749057,35.0907102 31.8173753,35.1756493 31.875,35.25 C31.90625,35.3125 31.96875,35.375 32.0625,35.375 L32.28125,35.375 C32.3519866,35.3640345 32.4175356,35.33126 32.46875,35.28125 C32.53125,35.21875 32.5625,35.125 32.5625,35.03125 Z M33,35.34375 L32.6875,34.1875 L33.53125,33.96875 L33.59375,34.09375 L32.875,34.28125 L32.96875,34.625 L33.625,34.46875 L33.6875,34.59375 L33,34.78125 L33.125,35.15625 L33.875,34.96875 L33.875,35.09375 L33,35.34375 Z" id="Shape" fill="#000000" fill-rule="nonzero"></path>
                </g>
            </g>
        </g>
    </g>
</svg>