<?xml version="1.0" encoding="UTF-8"?>
<svg width="200px" height="150px" viewBox="0 0 200 150" version="1.1" xmlns="http://www.w3.org/2000/svg" xmlns:xlink="http://www.w3.org/1999/xlink">
    <!-- Generator: Sketch 52.5 (67469) - http://www.bohemiancoding.com/sketch -->
    <title>xk</title>
    <desc>Created with Sketch.</desc>
    <g id="Flags" stroke="none" stroke-width="1" fill="none" fill-rule="evenodd">
        <g id="Europe" transform="translate(-1060.000000, -1850.000000)">
            <g id="xk" transform="translate(1060.000000, 1850.000000)">
                <polygon id="Path" fill="#244AA5" points="0 0 200 0 200 150 0 150"></polygon>
                <path d="M79.0625,70.25 C79.0625,70.25 79.4375,70 79.5625,69.96875 C79.71875,69.96875 80.1875,69.78125 80.1875,69.78125 C80.1875,69.78125 80.5,69.625 80.65625,69.625 C80.84375,69.625 81.15625,69.8125 81.28125,69.96875 C81.375,70.125 81.90625,70.40625 81.90625,70.40625 C81.90625,70.40625 82.28125,70.53125 82.375,70.40625 C82.4375,70.28125 82.59375,70.1875 82.78125,70.1875 C82.9375,70.1875 82.96875,70.03125 82.96875,69.90625 C82.96875,69.78125 83.03125,69.625 83.15625,69.46875 C83.3125,69.3125 83.5625,69.21875 83.5625,69.21875 C83.5625,69.21875 83.9375,69.0625 83.96875,68.84375 C84.03125,68.625 84.375,68.46875 84.59375,68.4375 C84.8125,68.4375 84.59375,68.3125 85.15625,68.375 C85.6875,68.4375 85.78125,68.25 85.78125,68.09375 C85.8125,67.9375 85.78125,67.78125 86.125,67.78125 C86.46875,67.84375 86.625,67.84375 86.625,67.65625 C86.625,67.46875 86.9375,67.34375 86.40625,67.21875 C85.84375,67.0625 85.90625,67.1875 85.84375,66.90625 C85.84375,66.6875 85.84375,66.71875 85.5,66.6875 C85.125,66.65625 85.3125,66.46875 85.28125,66.28125 C85.25,66.09375 85.15625,65.96875 85.09375,65.875 C85,65.75 84.8125,65.75 84.8125,65.5625 C84.8125,65.375 84.78125,65.25 84.59375,65.25 C84.375,65.25 84.28125,65.25 84.28125,65.09375 C84.28125,64.90625 84.34375,64.78125 84.53125,64.78125 C84.75,64.78125 84.84375,64.59375 84.84375,64.40625 C84.78125,64.21875 84.78125,63.8125 84.78125,63.8125 L85.0625,63.5 C85.0625,63.5 85.875,62.84375 85.9375,62.71875 C86,62.59375 86.28125,62.5 86.40625,62.75 C86.53125,63 86.59375,63.0625 86.71875,63.1875 C86.8125,63.3125 87.125,63.21875 87.1875,63.09375 C87.25,62.96875 87.28125,62.5 87.46875,62.25 C87.65625,62.03125 87.78125,61.90625 87.8125,61.6875 C87.84375,61.46875 87.96875,61.3125 88.1875,61.3125 C88.375,61.3125 88.5,61.03125 88.5,60.875 C88.5,60.71875 88.625,60.5625 88.875,60.5 C89.125,60.46875 89.28125,60.3125 89.375,60.5625 C89.46875,60.8125 89.5625,60.78125 89.71875,60.875 C89.90625,60.96875 90.15625,61.0625 90.28125,60.96875 C90.4375,60.84375 90.5,60.65625 90.6875,60.75 C90.875,60.875 91,60.75 91.0625,60.53125 L91.15625,59.9375 C91.15625,59.9375 91.1875,59.78125 91.5,59.78125 C91.8125,59.78125 91.59375,59.59375 91.75,59.46875 C91.9375,59.34375 91.9375,59.21875 92.15625,59.28125 C92.375,59.375 92.71875,59.1875 92.5625,58.96875 C92.375,58.78125 92,58.46875 92.21875,58.21875 C92.4375,57.96875 92.53125,57.59375 92.3125,57.53125 C92.09375,57.5 91.75,57.5625 91.71875,57.34375 C91.6875,57.09375 91.59375,56.90625 91.875,56.875 C92.125,56.84375 92.5625,56.84375 92.71875,56.71875 C92.84375,56.59375 93.28125,56.5 93.28125,56.15625 C93.28125,55.78125 93.40625,55.75 93.46875,55.53125 C93.5,55.34375 93.5,54.90625 93.3125,54.71875 C93.125,54.5 92.875,54.21875 92.84375,54.09375 C92.78125,53.96875 92.625,53.78125 92.34375,53.6875 C92.09375,53.625 91.84375,53.5625 91.84375,53.375 C91.84375,53.15625 92.03125,53.40625 92.03125,52.875 C92.03125,52.34375 91.6875,52.25 91.6875,52.25 L91.15625,51.9375 C91.15625,51.9375 90.21875,51.6875 89.96875,51.6875 C89.71875,51.6875 89.40625,51.4375 89.6875,51.25 C90,51.09375 90.0625,50.78125 89.96875,50.5625 C89.84375,50.34375 89.78125,50.15625 89.375,50.0625 C88.96875,49.96875 88.875,49.875 89.0625,49.625 C89.21875,49.40625 89.28125,49.21875 89.5,49.40625 C89.6875,49.5625 90.0625,49.625 90.34375,49.5 C90.65625,49.375 90.75,49.25 90.90625,49.40625 C91.03125,49.53125 91.21875,49.65625 91.4375,49.46875 C91.65625,49.25 92.0625,49.21875 92.25,49.3125 C92.40625,49.4375 92.875,49.40625 93,49.3125 C93.125,49.25 93.4375,49 93.4375,48.90625 C93.4375,48.8125 93.625,48.53125 93.78125,48.4375 C93.96875,48.3125 94.1875,48 94.375,48 C94.5625,48 94.625,47.78125 94.625,47.6875 C94.625,47.53125 94.78125,47.25 94.8125,47.15625 C94.8125,47.0625 95.1875,46.90625 95.4375,47.15625 C95.71875,47.3125 96.0625,47.40625 96.0625,47.40625 C96.0625,47.40625 96.375,47.46875 96.59375,47.40625 C96.75,47.3125 97,47.25 97.25,47.40625 C97.53125,47.59375 97.875,47.59375 97.875,47.59375 L97.96875,47.1875 C97.96875,47.0625 98.03125,46.8125 97.875,46.71875 C97.75,46.625 97.5625,46.5 97.84375,46.28125 C98.15625,46.09375 98.15625,46.125 98.4375,46.125 L99.125,46.15625 C99.34375,46.15625 99.6875,46.375 99.6875,46.5625 C99.6875,46.75 99.84375,46.875 100,47 C100.1875,47.09375 100.40625,47.1875 100.3125,47.375 C100.28125,47.53125 100.28125,47.6875 100.5,47.625 C100.71875,47.59375 100.78125,47.71875 100.78125,47.90625 C100.78125,48.0625 100.84375,48.15625 101.09375,48.21875 C101.28125,48.28125 101.40625,48.4375 101.40625,48.59375 C101.40625,48.75 101.34375,48.875 101.40625,49.03125 L101.71875,49.46875 C101.71875,49.46875 102.125,49.9375 101.59375,49.6875 C101.09375,49.46875 100.96875,49.375 100.8125,49.375 L100.5,49.53125 L100.09375,49.59375 C99.90625,49.59375 99.71875,49.96875 100.03125,50.03125 C100.3125,50.09375 100.40625,50.15625 100.40625,50.40625 C100.40625,50.65625 100.3125,50.5625 100.15625,50.71875 C100.03125,50.90625 99.90625,50.78125 99.65625,50.78125 C99.40625,50.78125 99.34375,51 99.34375,51.1875 C99.34375,51.375 99.4375,51.375 99.53125,51.5 C99.65625,51.6875 99.84375,51.71875 100.03125,51.5625 C100.1875,51.40625 100.34375,51.28125 100.4375,51.59375 C100.5625,51.90625 100.71875,51.90625 100.90625,51.90625 C101.125,51.90625 101.21875,51.90625 101.40625,51.78125 C101.5625,51.6875 101.78125,51.78125 101.8125,52.0625 C101.875,52.3125 102.03125,52.375 102.21875,52.46875 C102.40625,52.5625 102.53125,52.625 102.53125,52.78125 C102.59375,52.96875 102.6875,53.03125 102.875,52.9375 C103.0625,52.8125 103.34375,52.75 103.46875,52.90625 L103.75,53.28125 L103.75,53.625 L104.46875,53.875 L104.53125,54.1875 C104.53125,54.28125 104.65625,54.375 104.84375,54.3125 L105.34375,54.3125 C105.34375,54.3125 105.59375,54.21875 105.59375,54 C105.59375,53.8125 105.6875,53.75 105.90625,53.75 C106.0625,53.75 106.46875,53.90625 106.5625,53.6875 C106.6875,53.5 107,53.4375 107.25,53.53125 L108.1875,53.90625 C108.1875,53.90625 108.09375,53.90625 108.3125,54.25 C108.53125,54.59375 108.9375,54.59375 108.9375,54.59375 C108.9375,54.59375 108.9375,54.90625 109.03125,55.03125 C109.09375,55.15625 109.4375,55.21875 109.59375,55.09375 C109.78125,54.96875 110.03125,54.78125 110.25,54.78125 C110.46875,54.78125 110.625,54.78125 110.625,54.65625 C110.625,54.53125 110.40625,54.4375 110.40625,54.21875 C110.40625,54 110.625,54.03125 110.65625,53.8125 C110.6875,53.625 110.90625,53.8125 111.0625,53.9375 C111.21875,54.0625 111.375,54.1875 111.375,54.3125 C111.375,54.46875 111.6875,54.9375 111.84375,55 C112.03125,55.0625 112.5,55.09375 112.65625,54.9375 C112.78125,54.75 113.15625,54.6875 113.125,55.09375 C113.09375,55.5 113,55.53125 113.25,55.65625 C113.5,55.78125 113.5625,56.28125 113.34375,56.40625 C113.125,56.53125 113.03125,56.5625 113.03125,56.78125 C113.03125,57 112.96875,57.28125 113.15625,57.40625 C113.34375,57.5625 113.46875,57.65625 113.46875,57.78125 C113.46875,57.9375 113.65625,58.53125 113.65625,58.53125 C113.65625,58.53125 113.78125,59.125 113.71875,59.25 C113.71875,59.40625 113.625,59.625 113.9375,59.59375 C114.25,59.5625 114.34375,59.5625 114.34375,59.8125 C114.34375,60.0625 114.46875,60.1875 114.28125,60.28125 C114.09375,60.40625 113.96875,60.71875 114.15625,60.78125 C114.34375,60.84375 114.46875,60.96875 114.53125,61.09375 C114.5625,61.21875 114.84375,61.46875 115.03125,61.3125 C115.21875,61.1875 115.25,61.125 115.40625,61.09375 C115.53125,61.0625 115.65625,60.96875 115.5,60.78125 C115.375,60.625 115.3125,60.46875 115.46875,60.34375 C115.625,60.25 115.6875,59.9375 115.6875,59.9375 C115.6875,59.9375 115.90625,59.625 116.15625,59.9375 C116.40625,60.25 116.46875,60.125 116.625,60.125 C116.78125,60.125 116.875,60.28125 116.875,60.4375 C116.875,60.625 117.25,60.59375 117.25,60.84375 L117.3125,61.78125 C117.3125,61.78125 117.3125,62.125 117.53125,62.25 C117.75,62.40625 117.71875,62.4375 117.59375,62.5625 C117.5,62.75 117.53125,63.03125 117.53125,63.1875 C117.53125,63.34375 117.59375,63.34375 117.4375,63.5 C117.25,63.625 117.15625,63.8125 117.28125,64 C117.375,64.1875 117.34375,64.3125 117.625,64.5625 C117.9375,64.78125 117.90625,64.875 117.90625,65.0625 C117.90625,65.21875 118.1875,65.46875 118.1875,65.625 C118.1875,65.78125 118.40625,66 118.59375,66.03125 C118.78125,66.0625 118.96875,66.34375 118.96875,66.53125 L119,67.125 C119,67.125 119,67.21875 119.1875,67.21875 C119.40625,67.21875 119.5625,67.46875 119.625,67.21875 C119.6875,66.90625 119.9375,66.90625 120.0625,66.8125 C120.1875,66.71875 120.5,66.625 120.65625,66.71875 C120.8125,66.8125 120.96875,66.8125 121.125,66.8125 L121.9375,66.84375 C121.9375,66.84375 122.125,66.84375 122.25,67.09375 C122.34375,67.34375 122.65625,67.65625 122.5,67.78125 C122.3125,67.9375 122.3125,68.1875 122.5,68.1875 C122.6875,68.1875 122.96875,68.1875 122.96875,68.34375 C122.96875,68.53125 122.96875,68.65625 123.1875,68.5625 C123.34375,68.46875 123.46875,68.4375 123.53125,68.5625 C123.625,68.6875 123.75,68.6875 123.9375,68.78125 C124.125,68.90625 124.1875,68.8125 124.3125,68.6875 C124.40625,68.5625 124.84375,68.4375 124.84375,68.4375 C124.84375,68.4375 125.40625,68.28125 125.625,68.34375 L126.15625,68.5625 C126.15625,68.5625 126.28125,68.875 126.21875,69.09375 C126.15625,69.28125 126.0625,69.25 126.15625,69.5625 C126.21875,69.875 126.0625,69.875 125.9375,69.875 C125.78125,69.8125 125.625,69.8125 125.625,70.09375 C125.625,70.34375 125.5,70.40625 125.5,70.65625 C125.5,70.90625 125.5,70.84375 125.34375,70.96875 C125.21875,71.0625 125.15625,71.21875 125.375,71.28125 C125.59375,71.28125 125.53125,71.53125 125.53125,71.65625 L125.5,72.09375 C125.5,72.09375 125.5,72.25 125.28125,72.25 C125.0625,72.25 124.8125,72.25 124.78125,72.40625 C124.71875,72.5625 124.46875,72.8125 124.6875,73 C124.9375,73.15625 124.875,73.25 124.71875,73.3125 C124.59375,73.40625 124.46875,73.71875 124.78125,73.8125 C125.0625,73.9375 125.03125,74.03125 124.84375,74.15625 C124.65625,74.28125 124.3125,74.40625 124.3125,74.59375 C124.3125,74.78125 124.21875,74.78125 124,74.8125 C123.78125,74.84375 123.6875,75.125 123.9375,75.4375 C124.1875,75.78125 124.25,75.75 124.4375,75.75 C124.625,75.75 124.625,75.4375 124.625,75.4375 L125.40625,75.5 C125.59375,75.5 125.84375,75.5 126,75.40625 C126.15625,75.28125 126.53125,75.125 126.53125,75.40625 C126.53125,75.71875 126.625,75.71875 126.78125,75.8125 C126.96875,75.96875 127,75.84375 127.15625,76.0625 C127.3125,76.25 127.34375,76.0625 127.46875,75.84375 C127.5625,75.625 127.78125,75.40625 127.96875,75.65625 C128.125,75.9375 128.125,75.84375 128.34375,75.84375 C128.5625,75.84375 128.65625,75.96875 128.65625,76.125 C128.65625,76.28125 128.84375,76.28125 129.125,76.25 C129.375,76.25 129.40625,76.40625 129.5,76.5625 C129.59375,76.71875 129.65625,76.6875 129.8125,76.6875 C129.9375,76.6875 130.09375,76.6875 130.1875,76.5625 C130.3125,76.4375 130.4375,76.25 130.59375,76.46875 C130.75,76.65625 131.03125,76.625 131.09375,76.40625 C131.1875,76.15625 131.5,75.96875 131.6875,76.21875 C131.875,76.5 132,76.5 132.1875,76.53125 C132.375,76.53125 132.625,76.53125 132.71875,76.71875 C132.84375,76.90625 133.1875,77.15625 132.9375,77.34375 C132.6875,77.5625 132.40625,77.8125 132.625,77.90625 C132.820938,77.9539306 132.99628,78.0635193 133.125,78.21875 C133.28125,78.34375 133.75,78.4375 133.96875,78.46875 C134.1875,78.46875 134.34375,78.53125 134.59375,78.3125 C134.875,78.125 135.125,78.125 135.09375,78.40625 C135.0625,78.65625 135.1875,78.96875 135.1875,78.96875 C135.1875,78.96875 135.375,79.40625 135.375,79.5625 C135.375,79.71875 135.34375,79.75 135.6875,79.96875 C136,80.15625 135.9375,80.28125 136.21875,80.09375 C136.46875,79.90625 136.53125,79.78125 136.53125,79.625 L136.53125,79.09375 C136.53125,79.09375 136.90625,79.03125 137.03125,78.9375 C137.1875,78.8125 137.75,78.53125 137.90625,78.65625 C138.0625,78.78125 138.21875,78.75 138.375,78.6875 C138.53125,78.625 138.8125,78.625 138.96875,78.625 C139.09375,78.625 139.34375,78.65625 139.65625,78.4375 C139.9375,78.1875 139.9375,78.25 140.125,78.4375 C140.28125,78.59375 140.28125,78.78125 140.1875,78.9375 C140.0625,79.0625 140.1875,79.34375 140.4375,79.34375 C140.6875,79.34375 140.75,79.5 140.75,79.65625 L140.84375,80.1875 C140.84375,80.3125 140.84375,80.40625 141.28125,80.5 C141.65625,80.59375 141.59375,80.8125 141.65625,81 C141.75,81.15625 141.75,81.3125 141.53125,81.3125 C141.3125,81.3125 141.21875,81.40625 141.21875,81.5625 C141.15625,81.71875 140.84375,81.78125 140.84375,81.78125 L140.53125,81.71875 C140.53125,81.71875 140.28125,81.71875 140.1875,81.84375 C140.0625,82 139.875,82.25 140,82.46875 C140.15625,82.71875 140.15625,82.84375 140,82.96875 C139.875,83.0625 139.78125,83.5625 139.65625,83.46875 C139.5,83.34375 139.34375,83.46875 139.1875,83.5625 C139.03125,83.625 139.0625,84.09375 139.34375,84.25 C139.65625,84.4375 139.71875,84.65625 139.71875,84.65625 L140.03125,85.15625 C140.03125,85.15625 139.9375,85.25 139.875,85.4375 C139.78125,85.59375 139.5625,85.9375 139.78125,86 C140,86.0625 139.90625,86.4375 139.6875,86.4375 C139.46875,86.4375 139.21875,86.3125 139.1875,86.59375 C139.15625,86.875 139.03125,86.78125 138.8125,86.75 C138.59375,86.75 138.0625,86.59375 137.90625,86.84375 C137.75,87.125 137.71875,87.21875 137.46875,87.1875 C137.21875,87.1875 137.3125,87.59375 137.40625,87.75 L137.71875,88.15625 C137.71875,88.15625 137.9375,88.3125 137.9375,88.65625 C137.9375,88.96875 137.78125,88.96875 137.625,88.71875 C137.5,88.5 137.21875,88.53125 137.1875,88.78125 C137.15625,89.0625 137.09375,89.46875 136.875,89.46875 C136.59375,89.46875 136.5,89.53125 136.375,89.65625 C136.28125,89.78125 136.09375,90.03125 136.09375,90.15625 C136.09375,90.28125 136.0625,90.4375 135.875,90.46875 C135.6875,90.5 135.65625,90.84375 135.65625,90.84375 C135.65625,90.84375 135.21875,90.9375 135.1875,91.09375 C135.15625,91.25 135.21875,91.53125 134.875,91.5625 C134.591121,91.5959008 134.337988,91.7569853 134.1875,92 C134.0625,92.15625 134.03125,92.3125 134.1875,92.46875 C134.34375,92.625 134.4375,93.15625 134.625,93.25 C134.78125,93.34375 134.9375,93.40625 134.90625,93.65625 C134.875,93.9375 134.65625,94.125 134.9375,94.125 C135.25,94.125 135.40625,94.1875 135.3125,94.4375 C135.1875,94.65625 135.1875,94.6875 135,94.78125 C134.75,94.90625 134.65625,94.90625 134.65625,95.15625 C134.65625,95.40625 134.71875,95.4375 134.53125,95.53125 C134.34375,95.625 134.34375,95.75 134.34375,95.96875 C134.34375,96.1875 134.28125,96.09375 134.0625,96.3125 C133.84375,96.5625 133.5625,96.5625 133.375,96.5 C133.1875,96.4375 133.15625,96.4375 133.125,96.21875 C133.09375,96.03125 132.78125,96.03125 132.59375,96.0625 C132.40625,96.0625 132.15625,96.28125 132.15625,96.28125 C132.15625,96.28125 131.84375,96.5 131.96875,96.65625 C132.125,96.8125 132.03125,97.09375 131.78125,97.0625 C131.53125,97.03125 130.96875,97.3125 130.78125,97.03125 C130.59375,96.71875 130.09375,96.53125 130,96.9375 C129.9375,97.3125 130.21875,97.28125 130.1875,97.6875 C130.1875,98.09375 130.09375,98.09375 129.9375,98.21875 C129.8125,98.34375 129.8125,98.46875 129.75,98.625 C129.75,98.78125 129.6875,99.15625 129.9375,99.28125 C130.1875,99.4375 130.3125,99.78125 130.3125,100 C130.3125,100.1875 130.3125,100.40625 130.5625,100.40625 C130.8125,100.40625 131.03125,100.34375 131.0625,100.125 C131.09375,99.90625 131.59375,99.75 131.65625,100.21875 C131.65625,100.6875 131.65625,100.9375 131.875,101.125 C132.03125,101.3125 132.1875,101.59375 132.34375,101.6875 C132.46875,101.78125 132.71875,102.625 132.71875,102.625 C132.375,102.71875 132.28125,103.1875 132.0625,103.25 C131.9375,103.3125 131.78125,103.25 131.65625,103.34375 C131.59375,103.4375 131.59375,103.5625 131.46875,103.59375 C131.1875,103.71875 131.25,103.3125 130.90625,103.46875 C130.625,103.59375 130.59375,103.9375 130.1875,103.78125 C129.96875,103.71875 129.84375,102.84375 129.78125,102.65625 L129.4375,102.09375 C129.1875,101.71875 128.71875,102.09375 128.5625,101.96875 C128.3125,101.8125 128.40625,101.53125 128.03125,101.5 C127.28125,101.4375 127.8125,101.96875 127.5,102.0625 C126.875,102.28125 126.875,101.5 126.4375,101.875 C126.28125,102 126.75,102.09375 126.625,102.3125 C126.53125,102.5 126.09375,102.8125 126.09375,103.03125 C126.15625,103.34375 126.46875,103.4375 126.5625,103.65625 C126.875,104.375 126.40625,104.84375 125.71875,104.28125 C125.34375,104 125.25,103.4375 124.6875,103.5 C124.53125,103.5 124.5,103.625 124.375,103.65625 C124.21875,103.65625 124.125,103.53125 123.96875,103.5625 C123.75,103.65625 123.96875,103.8125 123.90625,103.9375 C123.90625,103.9375 123.59375,104.15625 123.59375,104.25 C123.40625,104.4375 123.46875,104.625 123.21875,104.8125 C123.03125,104.96875 122.875,104.875 122.65625,105.125 C122.4375,105.34375 122.40625,105.71875 122.125,105.9375 C121.96875,106.0625 121.875,105.59375 121.6875,105.90625 L121.625,106.03125 C121.5625,106.125 121.5625,106.15625 121.625,106.25 C122,107 121.1875,107.25 120.9375,107.78125 C120.84375,108 121.125,108.1875 121.03125,108.375 L120.5625,108.90625 C120.5625,108.96875 120.5,109.15625 120.4375,109.21875 C120.375,109.28125 120.125,109.21875 120.125,109.34375 C120.125,109.46875 120.375,109.5625 120.4375,109.625 C120.5,109.71875 120.375,109.84375 120.4375,109.875 C120.8125,110.28125 120.59375,110.15625 120.78125,110.5 C120.8125,110.5625 120.9375,110.46875 121,110.59375 C121.03125,110.71875 120.875,110.71875 120.9375,110.84375 C120.9375,110.90625 121.25,111.28125 121.25,111.28125 C121.25,111.40625 120.6875,111.65625 120.5625,111.65625 C120.21875,111.65625 120.875,110.96875 120.3125,110.96875 C120.0625,110.96875 120.03125,111.5 120,111.59375 L119.6875,111.59375 C119.3125,111.59375 119.0625,112.03125 118.9375,112.0625 C118.84375,112.09375 118.625,112 118.46875,112.0625 C118.34375,112.0625 118.15625,112.21875 118.03125,112.21875 C117.9375,112.21875 117.90625,112.15625 117.8125,112.09375 C117.65625,112 117.34375,111.96875 117.1875,111.90625 C117.0625,111.90625 116.875,112.03125 116.8125,112 C116.71875,111.9375 116.90625,111.6875 116.625,111.5625 L116.40625,111.03125 C116.5,110.71875 116.59375,110.40625 116.5625,110.0625 C116.5,109.71875 115.9375,109.4375 115.8125,109.125 C115.71875,108.9375 115.625,108.375 115.40625,108.25 C115.168038,108.067488 114.975478,107.832136 114.84375,107.5625 C114.84375,107.5 114.9375,107.375 114.84375,107.25 C114.75,107.15625 114.59375,107.09375 114.53125,106.9375 C114.5,106.8125 114.53125,106.375 114.375,106.28125 C114.21875,106.1875 113.125,106.03125 112.8125,106 C112.6875,106 112.59375,106 112.5,105.90625 L112.3125,105.6875 L112,105.75 C111.90625,105.75 111.75,105.6875 111.6875,105.75 C111.34375,105.96875 111.25,106.28125 110.90625,106.5625 C110.5625,106.8125 110.1875,106.8125 109.84375,107.09375 C109.625,107.28125 109.46875,107.75 109.25,107.96875 C109.15625,108.0625 109.03125,107.96875 109,108 C108.8125,108.21875 108.5625,108.375 108.375,108.5625 C108.34375,108.625 108.375,108.6875 108.3125,108.71875 L107.90625,108.84375 L107.53125,108.84375 C107.375,108.90625 107.375,109.09375 106.75,109.21875 L106.59375,109.3125 L106.40625,109.46875 L106.125,109.46875 C105.96875,109.46875 105.875,109.625 105.75,109.625 C105.4375,109.6875 104.875,109.46875 104.625,109.59375 C104.46875,109.625 104.0625,110.125 103.90625,110.15625 C103.8125,110.1875 103.71875,110.15625 103.59375,110.125 L103.40625,110.8125 L102.65625,111.46875 C102.5625,111.5625 102.53125,111.6875 102.40625,111.78125 C102.34375,111.875 102.21875,111.9375 102.09375,111.9375 C101.96875,111.9375 101.75,111.8125 101.59375,111.8125 C101.34375,111.75 100.5625,111.71875 100.34375,111.78125 C100.0625,111.8125 100.15625,112.53125 99.53125,112.59375 L98.5,112.71875 C98.46875,112.71875 98.25,112.59375 98.03125,112.625 C97.9375,112.65625 97.6875,112.9375 97.6875,113 L97.6875,113.15625 L97.75,113.28125 C97.625,113.4375 97.3125,113.6875 97.21875,113.90625 L97.09375,114.03125 C97.03125,114.09375 96.59375,114.25 96.5625,114.3125 C96.46875,114.5625 96.875,114.8125 96.8125,114.90625 C96.71875,115.21875 96.28125,115.53125 96.125,115.84375 C96.09375,115.96875 96.28125,116.375 96.28125,116.5 C96.21875,116.90625 96.09375,117.40625 96.125,117.78125 L96.1875,118.3125 L96.40625,118.46875 L96.96875,119.59375 C97.0625,120.28125 96.03125,120.03125 96.65625,120.71875 C96.71875,120.84375 96.78125,120.9375 96.90625,121.03125 L97.78125,121.75 C97.78125,121.875 97.15625,121.96875 97.0625,122.0625 C96.75,122.375 96.53125,122.875 96.25,123.1875 C96.0625,123.34375 95.9375,123.15625 95.6875,123.59375 C95.625,123.75 95.6875,124.09375 95.59375,124.21875 C95.4375,124.34375 95.34375,124.15625 95.1875,124.21875 C95.125,124.21875 95.09375,124.4375 95.03125,124.46875 C94.875,124.625 93.40625,125.40625 93.28125,125.3125 C93.21875,125.28125 93.125,125.03125 93.125,124.96875 C93.125,124.875 93,124.6875 92.9375,124.65625 C92.5625,124.34375 92,124.25 91.625,124.65625 C91.53125,124.75 91.53125,124.90625 91.40625,124.96875 L90.78125,125.46875 L90.625,125.625 C90.46875,125.625 90.125,125.21875 90,125.09375 C89.875,124.90625 89.375,124.46875 89.34375,124.25 C89.34375,123.5 88.75,122.71875 88.53125,122 L88.875,122 C89.28125,121.71875 89.1875,121.0625 89.90625,121.3125 C90,121.1875 90,121.0625 90.15625,121 C90.21875,120.9375 90.34375,120.90625 90.375,120.84375 C90.625,120.46875 90.90625,119.03125 90.65625,118.65625 C90.4375,118.34375 90.1875,118.34375 90.03125,117.8125 C89.96875,117.65625 90.03125,117.5 90.03125,117.3125 L89.71875,116.34375 C89.65625,116.25 89.5,116.1875 89.5,116.125 L89.4375,115.15625 C89.21875,114.46875 88.375,114.0625 88.34375,113.96875 L88.03125,113.4375 C87.90625,113.21875 87.90625,113.125 87.84375,112.9375 C87.8125,112.84375 87.65625,112.75 87.65625,112.65625 C87.65625,112.46875 88.15625,112.125 88.125,111.8125 C88.125,111.71875 87.8125,111.40625 87.875,111.25 C87.9375,111.0625 88.25,110.6875 88.25,110.46875 C88.25,110.21875 87.75,109.65625 87.6875,109.40625 C87.65625,109.25 87.875,109.15625 87.8125,109.0625 C87.75,108.9375 87.25,108.46875 87.1875,108.34375 C87.09375,108.25 87.34375,108.125 87.1875,107.9375 C87,107.78125 87.15625,107.8125 87.09375,107.6875 C87.03125,107.53125 86.875,107.375 86.78125,107.21875 C86.71875,107.0625 86.28125,105.5 86.3125,105.40625 C86.21875,105.3125 86.09375,105.21875 86.03125,105.09375 L85.90625,104.71875 C85.90625,104.71875 85.40625,104.5625 85.3125,104.40625 C85.25,104.3125 85.21875,103.90625 85.09375,103.71875 C85.03125,103.625 84.9375,103.65625 84.875,103.59375 C84.8125,103.53125 84.8125,103.4375 84.78125,103.375 C84.625,103.1875 84.34375,103.375 84.15625,102.625 C83.84375,102.4375 83.625,102.3125 83.40625,102.0625 L83.28125,101.9375 C83.09375,101.875 82.8125,101.84375 82.65625,101.71875 C82.5625,101.71875 82.09375,101.71875 82.03125,101.65625 L81.90625,101.40625 C81.65625,101.375 81.21875,101.40625 81,101.21875 C80.84375,101.0625 80.8125,100.34375 80.5,100.4375 C80.4592203,100.425342 80.4157797,100.425342 80.375,100.4375 C80.15625,100.125 79.46875,100.125 79.1875,99.9375 C79.125,99.90625 78.875,99.9375 78.875,99.875 L78.90625,99.46875 L78.5625,99.03125 C78.28125,98.96875 78.375,98.9375 78.25,98.84375 C77.78125,98.84375 77.71875,98.90625 77.4375,99.15625 C77.375,99.21875 77.21875,99.25 77.125,99.28125 C76.96875,99.375 76.9375,99.65625 76.71875,99.53125 L76.53125,99.375 C76.40625,99.25 76.34375,99.3125 76.28125,99.125 C75.90625,98.90625 74.875,99.59375 74.65625,99.125 C74.46875,99.03125 74.34375,99.125 74.1875,99 C74.125,98.9375 74.40625,98.0625 73.65625,97.75 L74.15625,97.40625 C74.21875,97.3125 74.15625,97.15625 74.15625,97.09375 C74.15625,96.9375 74.25,96.65625 74.21875,96.5625 C74.21875,96.46875 74.09375,96.375 74.0625,96.25 C74,96.15625 74.0625,96 74,95.875 L73.75,95.75 C73.5625,95.59375 73.375,95.5 73.21875,95.3125 L73.09375,95.15625 C72.96875,95.0625 72.53125,94.90625 72.53125,94.71875 C72.53125,94.65625 72.65625,94.625 72.65625,94.5625 C72.6875,94.46875 72.65625,94.375 72.75,94.3125 C72.9375,94 73.40625,94.15625 73.34375,93.625 C73.3125,93.375 73.125,93.1875 73.09375,92.9375 C73,92.875 73,92.78125 72.9375,92.71875 C72.46875,92.6875 72.53125,92.21875 72.375,92.09375 C71.90625,91.78125 71.53125,91.96875 72.0625,91.34375 C72.125,91.125 71.59375,90.78125 71.5,90.6875 C71.3125,90.5 71.40625,90.09375 71.3125,89.90625 C71.3125,89.8125 70.96875,89.625 70.875,89.5 L70.71875,89.1875 L70.71875,89.15625 C70.8125,89.0625 70.78125,88.90625 70.71875,88.84375 C70.6875,88.75 70.53125,88.78125 70.5,88.71875 C70.0625,88.34375 69.5625,88.15625 68.96875,87.9375 C68.8125,87.875 68.875,87.75 68.71875,87.6875 L67.78125,87.3125 C67.71875,87.3125 67.65625,86.96875 67.59375,86.84375 L67.3125,86.53125 C67.3125,86.21875 67.125,86.21875 66.875,86.03125 L66.875,85.84375 L67.0625,85.1875 C67.09375,85.0625 67.25,84.9375 67.21875,84.8125 L67.09375,84.09375 C66.84375,83.46875 66.5625,83.53125 66.71875,82.6875 C66.71875,82.5 66.6875,82.40625 66.8125,82.25 L66.875,82.15625 L67.25,81.875 C67.375,81.6875 67.46875,81.28125 67.625,81.15625 L68.1875,80.78125 C68.25,80.71875 68.3125,80.5 68.28125,80.40625 C68.15625,80.34375 68.03125,80.375 67.90625,80.34375 C67.84375,80.34375 67.6875,80.21875 67.5625,80.21875 C67.53125,80.15625 67.46875,80.125 67.46875,80.0625 L67.40625,80 C67.25,80 67.09375,79.90625 66.96875,79.84375 C66.8125,79.78125 66.59375,79.78125 66.4375,79.6875 C66.125,79.53125 65.8125,79.0625 65.53125,79 C65.15625,78.90625 64.90625,79.03125 64.53125,79.0625 C64.3125,79.0625 64.3125,78.9375 64.125,78.875 C63.875,78.78125 64.0625,79 63.5,78.8125 C63.40625,78.75 63.5,78.5625 63.5,78.5 L63.1875,78.5 C62.75,78.375 62.90625,77.9375 62.78125,77.65625 C62.75,77.59375 62.53125,77.59375 62.46875,77.59375 C62.40625,77.59375 62.40625,77.53125 62.40625,77.53125 L62.46875,77.5 C62.53125,77.375 62.25,77.0625 62.25,77 C62.28125,76.90625 62.875,76.8125 62.9375,76.8125 C62.96875,76.71875 62.90625,76.65625 62.875,76.59375 C62.875,76.4375 62.96875,76.21875 63.03125,76.0625 L63.03125,76 C62.84375,75.90625 62.8125,75.78125 62.65625,75.6875 C62.65625,75.59375 62.75,75.5625 62.78125,75.46875 C63.0625,74.6875 63.5,75.3125 63.875,74.59375 C63.90625,74.53125 64.03125,74.375 64.0625,74.25 L64.125,74.25 C64.1875,74.25 64.3125,74.3125 64.375,74.25 C64.4375,74.1875 64.53125,74.1875 64.625,74.15625 L64.78125,74.15625 C65.46875,74.03125 65.3125,73.78125 65.71875,73.5 C65.84375,73.40625 66.15625,73.375 66.28125,73.3125 C66.4375,73.40625 66.65625,73.625 66.9375,73.75 C67.15625,73.8125 67.875,73.96875 68,74.0625 C68.15625,74.125 68.1875,74.3125 68.3125,74.375 C68.71875,74.625 68.46875,74.25 68.875,74.3125 C69.28125,74.40625 69.59375,74.75 69.96875,74.90625 L70.28125,74.875 C70.375,74.84375 71,74.71875 71.0625,74.75 L71.3125,74.84375 C71.40625,74.875 71.46875,74.6875 71.5625,74.6875 C71.8125,74.75 71.8125,74.84375 72.1875,74.8125 C72.1875,74.8125 72.375,73.78125 72.5625,73.75 C72.65625,73.71875 72.9375,73.96875 73,74 C73.125,74.03125 73,73.78125 73,73.78125 C72.9375,73.6875 72.75,73.0625 72.78125,73 C72.78125,73 72.9375,73.0625 73.03125,73.03125 C73.21875,72.96875 73.5,72.90625 73.65625,72.75 L73.96875,72.28125 C74,72.21875 73.90625,72.03125 73.96875,71.96875 L74.25,71.78125 C74.375,71.65625 74.375,71.46875 74.5625,71.375 C75.1875,71.3125 75.40625,70.8125 76,70.75 L76.1875,70.75 L76.3125,70.9375 C76.3125,70.96875 76.71875,71.21875 76.78125,71.1875 C76.84375,71.1875 76.875,71.09375 76.9375,71.0625 C77.03125,71.09375 77.375,70.90625 77.40625,70.78125 C77.40625,70.78125 77.34375,70.6875 77.375,70.59375 C77.5309415,70.4550547 77.6981889,70.3296191 77.875,70.21875 L78.3125,70.21875 C78.375,70.28125 78.375,70.40625 78.46875,70.40625 L78.84375,70.40625 C78.90625,70.40625 78.9375,70.25 79.0625,70.25 Z" id="Path" fill="#D0A650"></path>
                <g id="h" transform="translate(101.562500, 22.812500)" fill="#FFFFFF">
                    <polygon id="star" points="8.40625 0.125 13.4375 15.625 0.25 6.03125 16.5625 6.03125 3.375 15.625 8.375 0.125"></polygon>
                    <polygon id="star_1_" points="28.03125 3.59375 33.03125 19.09375 19.875 9.5 36.15625 9.5 22.96875 19.09375"></polygon>
                    <polygon id="star_2_" points="46.75 10.40625 51.75 25.90625 38.59375 16.3125 54.875 16.3125 41.6875 25.9375 46.75 10.4375"></polygon>
                </g>
                <g id="h_1_" transform="translate(43.437500, 22.812500)" fill="#FFFFFF">
                    <polygon id="star_3_" points="46.59375 0.125 41.5625 15.625 54.75 6.03125 38.4375 6.03125 51.625 15.625 46.625 0.125"></polygon>
                    <polygon id="star_4_" points="26.96875 3.59375 21.96875 19.09375 35.125 9.5 18.84375 9.5 32.03125 19.09375"></polygon>
                    <g id="Group" transform="translate(8.281250, 18.125000) scale(-1, 1) translate(-8.281250, -18.125000) translate(0.000000, 10.312500)">
                        <polygon id="star_5_" points="8.21875 0.09375 3.15625 15.59375 16.34375 6 0.0625 6 13.25 15.59375 8.21875 0.09375"></polygon>
                    </g>
                </g>
            </g>
        </g>
    </g>
</svg>