<?xml version="1.0" encoding="UTF-8"?>
<svg width="200px" height="150px" viewBox="0 0 200 150" version="1.1" xmlns="http://www.w3.org/2000/svg" xmlns:xlink="http://www.w3.org/1999/xlink">
    <!-- Generator: Sketch 52.5 (67469) - http://www.bohemiancoding.com/sketch -->
    <title>nu</title>
    <desc>Created with Sketch.</desc>
    <defs>
        <polygon id="path-1" points="0 0 200 0 200 150 0 150"></polygon>
    </defs>
    <g id="Flags" stroke="none" stroke-width="1" fill="none" fill-rule="evenodd">
        <g id="Oceania" transform="translate(-70.000000, -450.000000)">
            <g id="nu" transform="translate(70.000000, 450.000000)">
                <mask id="mask-2" fill="white">
                    <use xlink:href="#path-1"></use>
                </mask>
                <g id="Path"></g>
                <g id="Group" mask="url(#mask-2)">
                    <polygon id="Path" fill="#FFFFFF" points="0 0 201 0 201 100 0 100"></polygon>
                    <polygon id="Path" fill="#CC0000" points="0 0 0 7.5498155 47.9414991 32.4723247 66 33"></polygon>
                    <polygon id="Path" fill="#000066" points="21 0 79 30 79 0"></polygon>
                    <polygon id="Path" fill="#CC0000" points="86.6532258 0 86.6532258 38.9023406 0 38.9023406 0 61.0976594 86.6935484 61.0976594 86.6935484 100 113.306452 100 113.306452 61.0976594 200 61.0976594 200 38.9023406 113.306452 38.9023406 113.306452 0 86.6935484 0"></polygon>
                    <polygon id="Path" fill="#000066" points="121 0 121 29 178 0.244725738"></polygon>
                    <polygon id="Path" fill="#CC0000" points="123 31.9591837 138.985582 31.8367347 201 0 184.532441 0.244897959 123.040165 32"></polygon>
                    <polygon id="Path" fill="#000066" points="0 68 0 89 40 68.1988636 0 68.0397727"></polygon>
                    <path d="M153.898852,68.121673 L137.215394,68 L200,99.4321926 L199.597018,92.2534854 L153.858553,68.121673 L153.898852,68.121673 Z M15.595406,100 L74.471086,68.851711 L59.0368729,68.973384 L0,99.9188847 L15.595406,100 Z" id="Shape" fill="#CC0000" fill-rule="nonzero"></path>
                    <path d="M200.264214,8.79032258 L152.80252,32.3790323 L199.620665,32.5806452 L199.620665,67.7016129 L159.760887,67.7016129 L199.258669,89.1935484 L199.821774,100.080645 L178.745565,99.8387097 L120.987097,71.4112903 L120.987097,100.120968 L78.8346774,100.120968 L78.8346774,71.3709677 L24.6559476,100 L0.160887097,100.080645 L0.160887097,200 L399,200 L399,0.161290323 L200.706653,0 L200.264214,8.79032258 Z M0.241330645,11.2903226 L0,32.016129 L41.9915323,32.5403226 L0.201108871,11.2903226 L0.241330645,11.2903226 Z" id="Shape" fill="#000066" fill-rule="nonzero"></path>
                    <g fill="#FFD900" id="Path">
                        <polygon points="199.79859 0 399.637462 0 399.637462 200 199.838872 200"></polygon>
                        <polygon points="0 100 210.876133 100 210.876133 200 0 200"></polygon>
                    </g>
                    <g transform="translate(34.000000, 10.000000)">
                        <path d="M82.7389571,40.5252525 C83.0454673,46.8955137 79.8399162,52.9183047 74.3985446,56.1957437 C68.9571731,59.4731827 62.1633791,59.4731827 56.7220075,56.1957437 C51.280636,52.9183047 48.0750848,46.8955137 48.3815951,40.5252525 C48.8249817,31.3102641 56.3847422,24.0679644 65.5602761,24.0679644 C74.73581,24.0679644 82.2955704,31.3102641 82.7389571,40.5252525 Z" id="Path" fill="#000067"></path>
                        <path d="M62.3656442,36.0808081 L65.6607362,26.1414141 L68.9558282,36.0808081 L79.6849693,36.0808081 L71.0052147,42.2222222 L74.3404908,52.1212121 L65.6607362,45.9393939 L56.9809816,52.0808081 L60.3162577,42.1818182 L51.6365031,36.040404 L62.3656442,36.0808081 Z M122.038957,37.6969697 L123.686503,33.0505051 L125.293865,37.7373737 L130.638344,37.7373737 L126.33865,40.5656566 L127.986196,45.2121212 L123.686503,42.3838384 L119.38681,45.2121212 L121.034356,40.5656566 L116.734663,37.7373737 L122.038957,37.6969697 Z M63.9328221,72.3232323 L65.540184,67.6767677 L67.1877301,72.3232323 L72.4920245,72.3232323 L68.1923313,75.1515152 L69.8398773,79.8383838 L65.540184,76.969697 L61.2404908,79.7979798 L62.8880368,75.1919192 L58.5883436,72.3232323 L63.9328221,72.3232323 Z M63.9328221,4.84848485 L65.540184,0.161616162 L67.1877301,4.80808081 L72.4920245,4.80808081 L68.1923313,7.67676768 L69.8398773,12.3232323 L65.540184,9.49494949 L61.2404908,12.3232323 L62.8880368,7.67676768 L58.5883436,4.84848485 L63.9328221,4.84848485 Z M5.58558282,37.6565657 L7.23312883,33.010101 L8.8404908,37.6565657 L14.1849693,37.6565657 L9.88527607,40.5252525 L11.5328221,45.1717172 L7.23312883,42.3434343 L2.93343558,45.1717172 L4.5809816,40.5252525 L0.281288344,37.6969697 L5.58558282,37.6565657 Z" id="Shape" fill="#FFF40D" fill-rule="nonzero"></path>
                    </g>
                </g>
            </g>
        </g>
    </g>
</svg>