<?xml version="1.0" encoding="UTF-8"?>
<svg width="200px" height="141px" viewBox="0 0 200 141" version="1.1" xmlns="http://www.w3.org/2000/svg" xmlns:xlink="http://www.w3.org/1999/xlink">
    <!-- Generator: Sketch 52.5 (67469) - http://www.bohemiancoding.com/sketch -->
    <title>se</title>
    <desc>Created with Sketch.</desc>
    <defs>
        <polygon id="path-1" points="0.175438596 0 199.766082 0 199.766082 141 0.175438596 141"></polygon>
    </defs>
    <g id="Flags" stroke="none" stroke-width="1" fill="none" fill-rule="evenodd">
        <g id="Europe" transform="translate(-730.000000, -1650.000000)">
            <g id="se" transform="translate(730.000000, 1650.000000)">
                <mask id="mask-2" fill="white">
                    <use xlink:href="#path-1"></use>
                </mask>
                <g id="Path"></g>
                <g id="Group" mask="url(#mask-2)">
                    <g transform="translate(-3.033626, 0.000000)">
                        <g>
                            <path d="M0.246710526,0.0823974609 L70.4221491,0.0823974609 L70.4221491,56.3323975 L0.246710526,56.3323975 L0.246710526,0.0823974609 Z M0.246710526,84.375 L70.4221491,84.375 L70.4221491,140.625 L0.246710526,140.625 L0.246710526,84.375 Z" id="Shape" fill="#006AA7" fill-rule="nonzero"></path>
                            <polygon id="Path" fill="#FECC00" points="0.246710526 56.3049316 70.4221491 56.3049316 70.4221491 84.4299316 0.246710526 84.4299316"></polygon>
                            <polygon id="Path" fill="#FECC00" points="70.120614 0 98.1907895 0 98.1907895 140.625 70.120614 140.625"></polygon>
                            <polygon id="Path" fill="#FECC00" points="97.3135965 56.3049316 223.629386 56.3049316 223.629386 84.4299316 97.3135965 84.4299316"></polygon>
                            <path d="M98.1907895,84.375 L224.506579,84.375 L224.506579,140.625 L98.1907895,140.625 L98.1907895,84.375 Z M98.1907895,0.0823974609 L224.506579,0.0823974609 L224.506579,56.3323975 L98.1907895,56.3323975 L98.1907895,0.0823974609 Z" id="Shape" fill="#006AA7" fill-rule="nonzero"></path>
                        </g>
                    </g>
                </g>
            </g>
        </g>
    </g>
</svg>