<?xml version="1.0" encoding="UTF-8"?>
<svg width="200px" height="138px" viewBox="0 0 200 138" version="1.1" xmlns="http://www.w3.org/2000/svg" xmlns:xlink="http://www.w3.org/1999/xlink">
    <!-- Generator: Sketch 52.5 (67469) - http://www.bohemiancoding.com/sketch -->
    <title>zm</title>
    <desc>Created with Sketch.</desc>
    <defs>
        <polygon id="path-1" points="0.0878477306 0 200 0 200 137.926794 0.0878477306 137.926794"></polygon>
    </defs>
    <g id="Flags" stroke="none" stroke-width="1" fill="none" fill-rule="evenodd">
        <g id="Africa" transform="translate(-840.000000, -1850.000000)">
            <g id="zm" transform="translate(840.000000, 1850.000000)">
                <mask id="mask-2" fill="white">
                    <use xlink:href="#path-1"></use>
                </mask>
                <g id="Path"></g>
                <g id="Group" mask="url(#mask-2)">
                    <g transform="translate(0.000000, -1.000000)">
                        <polygon id="Path" fill="#198A00" points="0 0.365604103 200 0.365604103 200 138.365604 0 138.365604"></polygon>
                        <polygon id="Path" fill="#EF7D00" points="177 50.3656041 200 50.3656041 200 138.365604 177 138.365604"></polygon>
                        <polygon id="Path" fill="#000000" points="153 50.3656041 176 50.3656041 176 138.365604 153 138.365604"></polygon>
                        <polygon id="Path" fill="#DE2010" points="129.026087 50.3656041 153 50.3656041 153 138.365604 129 138.365604"></polygon>
                        <g id="Group" stroke-width="1" fill="none" transform="translate(130.000000, 13.365604)">
                            <path d="M53.621374,5.73451327 C53.621374,5.73451327 62.4458015,1.88495575 63.2763359,1.08849558 C63.6656489,1.56637168 59.7465649,6.39823009 52.1419847,8.17699115 C59.0458015,6.53097345 64.9374046,1.27433628 66.1572519,1.43362832 C66.4946565,1.51327434 66.4167939,6.55752212 50.5847328,10.9380531 C61.5374046,8.01769912 67.8961832,2.60176991 67.8183206,3.18584071 C67.8961832,3.31858407 66.7282443,7.43362832 57.151145,10.6460177 C59.8244275,10.0088496 67.0916031,5.49557522 67.0137405,6.37168142 C67.2473282,6.71681416 60.0061069,16.2477876 46.8732824,13.1415929 C57.3587786,15.9292035 64.1328244,9.21238938 65.0931298,9.34513274 C65.3007634,9.37168142 63.1725191,15.1858407 49.9877863,15.5575221 C56.2946565,14.8938053 54.4778626,15.5309735 54.4778626,15.5309735 C54.4778626,15.5309735 50.7664122,18.5044248 46.2503817,16.4867257 C49.7801527,17.4690265 50.1694656,17.5221239 50.2473282,17.8141593 C50.0137405,18.2389381 47.1328244,18.8230088 44.3038168,17.2831858 C46.5618321,18.2389381 48.5862595,18.3982301 48.6122137,18.7433628 C48.5862595,18.8495575 47.1587786,19.699115 45.8610687,19.0884956 C44.589313,18.5044248 32.8061069,11.0973451 32.8061069,11.0973451 L52.8946565,5.44247788 L53.621374,5.7079646 L53.621374,5.73451327 Z M30.0030534,25.8053097 C28.2381679,25.8053097 28.1862595,27.3982301 28.1862595,27.3982301 C28.1862595,27.3982301 28.0564885,27.5309735 28.1343511,28.300885 L28.5755725,27.6106195 C28.7832061,27.6371681 29.5877863,27.8761062 30.859542,26.8672566 C29.6916031,28.1150442 30.3923664,28.5663717 30.3923664,28.5663717 C30.3923664,28.5663717 30.1328244,29.5486726 31.0152672,29.7345133 C30.7557252,29.3362832 30.9114504,28.9911504 30.9114504,28.9911504 C30.9114504,28.9911504 32.1572519,28.8584071 32.0793893,27.3185841 C32.1053435,28.7256637 32.8580153,29.0707965 32.8580153,29.0707965 C32.8580153,29.0707965 32.8580153,29.840708 33.6625954,29.920354 C33.2473282,29.5221239 33.3251908,28.9115044 33.3251908,28.9115044 C33.3251908,28.9115044 34.3633588,28.1150442 33.5068702,26.7876106 C34.0259542,26.4690265 34.4671756,25.5929204 34.4671756,25.5929204 C34.4671756,25.5929204 33.740458,25.2743363 33.4030534,25.0088496 C33.2473282,24.6637168 33.4030534,22.7522124 33.4030534,22.7522124 L32.9358779,20.2831858 L31.6900763,24.1327434 C31.7419847,23.6017699 31.7679389,25.8053097 30.0030534,25.8053097 Z" id="Shape" stroke="#000000" stroke-width="0.47" fill="#EF7D00" fill-rule="nonzero" stroke-linejoin="round"></path>
                            <path d="M38.7236641,20.2566372 C38.7755725,20.2831858 40.0473282,21.7433628 41.2931298,21.6637168 C41.7603053,21.2654867 40.3328244,20.4159292 40.3328244,20.2035398 C40.8519084,20.6814159 42.9541985,22.539823 44.329771,21.8761062 C44.848855,21.079646 43.3435115,21.2123894 41.6824427,19.0619469 C42.8503817,19.8584071 45.7572519,21.5840708 47.1328244,20.920354 C47.6778626,20.2831858 44.0961832,18.2920354 42.8763359,16.7522124 L39.7618321,15.1327434 L35.5572519,18.6637168 L38.7496183,20.2566372 L38.7236641,20.2566372 Z" id="Path" stroke="#000000" stroke-width="0.47" fill="#EF7D00" stroke-linejoin="round"></path>
                            <path d="M33.9740458,8.17699115 C33.9740458,8.17699115 35.4015267,7.32743363 41.1374046,7.75221239 C41.7603053,7.83185841 45.0305344,6.61061947 46.0946565,6.23893805 C47.7557252,5.92035398 53.1022901,4.75221239 54.5038168,3.63716814 C55.5419847,3.50442478 54.2442748,5.52212389 52.9465649,6.02654867 C51.5969466,6.63716814 46.6916031,8.38938053 44.9267176,8.15044248 C47.0290076,8.17699115 45.8610687,9.92920354 42.3832061,9.10619469 C44.0442748,10.0619469 43.421374,10.2212389 43.421374,10.2212389 C43.421374,10.2212389 40.4885496,10.380531 39.7099237,9.69026549 C41.6824427,10.460177 40.8519084,10.7522124 40.8519084,10.7522124 C40.8519084,10.7522124 38.8534351,10.9380531 37.919084,10.4867257 C39.3465649,10.9380531 38.6198473,11.2035398 38.6198473,11.2035398 C38.6198473,11.2035398 37.4519084,11.4159292 36.4916031,11.0442478 C35.5053435,10.699115 34.0519084,8.20353982 33.9740458,8.20353982 L33.9740458,8.17699115 Z" id="Path" stroke="#000000" stroke-width="0.47" fill="#EF7D00" stroke-linecap="round" stroke-linejoin="round"></path>
                            <path d="M36.2580153,21.079646 L36.4656489,24.9557522 L36.2580153,25.2743363 C36.1801527,25.380531 33.5847328,24.8495575 33.9221374,26.8672566 C33.9221374,27.7168142 33.9221374,27.9292035 34.4931298,28.380531 C34.3633588,27.8495575 34.389313,27.4513274 34.389313,27.4513274 C34.389313,27.4513274 35.1419847,27.9026549 35.8427481,26.6548673 C35.3496183,27.8761062 35.6870229,28.3274336 35.8167939,28.3539823 C35.9206107,28.5663717 35.6091603,29.5486726 36.5954198,29.5221239 C36.2061069,29.1504425 36.3877863,28.619469 36.3877863,28.619469 C36.3877863,28.619469 37.4259542,28.460177 37.0625954,26.5752212 C37.4259542,26.2035398 37.5816794,26.5752212 37.5816794,26.5752212 C37.5816794,26.5752212 37.6854962,27.6902655 38.5938931,27.4513274 C38.9832061,27.6902655 38.5160305,28.300885 38.5160305,28.300885 C38.5160305,28.300885 39.1648855,28.300885 39.3725191,27.7699115 C39.5541985,27.1858407 39.7877863,26.1769912 38.7236641,25.7522124 C38.5938931,25.3539823 39.1389313,25.3274336 39.1389313,25.3274336 C39.1389313,25.3274336 39.8137405,25.5663717 40.021374,25.9115044 C40.2290076,26.2566372 40.151145,25.0088496 39.2946565,24.8495575 C38.2564885,24.8495575 38.2045802,24.6106195 38.2045802,24.5840708 L37.9450382,20.9469027 L36.2580153,21.079646 Z" id="Path" stroke="#000000" stroke-width="0.47" fill="#EF7D00" stroke-linejoin="round"></path>
                            <path d="M39.8656489,24.3716814 C39.8656489,24.1858407 38.1007634,21.7433628 38.5679389,21.4513274 C39.0091603,21.5309735 39.7358779,22.6460177 40.3587786,22.2743363 C40.1770992,21.8495575 39.6320611,22.0884956 39.0351145,20.9734513 C38.4122137,19.699115 38.3343511,17.8141593 36.1801527,15.7699115 C37.5816794,17.9469027 40.6961832,19.2212389 40.8519084,18.5840708 C41.0076336,17.9469027 38.0748092,15.5575221 38.2305344,14.9734513 C38.8015267,16.1415929 41.7083969,18.7964602 43.8366412,18.5840708 C43.9923664,18.0530973 42.0977099,17.0442478 41.6045802,16.0884956 C40.2290076,15.1327434 36.5694656,11.920354 36.5175573,11.1769912 C35.8736128,10.0572166 34.9963171,9.09637474 33.9480916,8.36283186 C33.8516213,8.22716195 33.7811665,8.07401624 33.740458,7.91150442 C32.9099237,5.92035398 34,5.25663717 34.648855,5.17699115 C35.1679389,5.09734513 35.3236641,5.17699115 35.6870229,4.99115044 L34.3633588,4.46017699 C34.9603053,4.91150442 36.4396947,4.51327434 36.1282443,5.78761062 C36.7770992,5.52212389 38.178626,3.82300885 34.5450382,3.45132743 C33.351145,2.07079646 28.4977099,1.27433628 27.2778626,7.32743363 C27.3816794,7.40707965 27.4335878,7.48672566 27.7450382,7.69911504 C26.1877863,6.95575221 22.0610687,6.37168142 20.5816794,6.10619469 C16.5328244,4.9380531 12.3541985,2.07079646 11.9648855,2.4159292 C11.4458015,2.68141593 14.4045802,5.49557522 14.248855,5.54867257 C11.9404304,4.20409485 9.55724196,2.99850441 7.11145038,1.9380531 C5.55419847,1.3539823 4.02290076,-0.0265486726 3.86717557,0.238938053 C3.29618321,1.43362832 6.33282443,4.46017699 6.90381679,4.80530973 C7.47480916,5.15044248 11.9129771,7.27433628 11.8351145,7.30088496 C5.1389313,4.19469027 4.04885496,3.61061947 3.68549618,3.26548673 C3.08854962,3.13274336 1.6610687,1.14159292 1.27175573,1.27433628 C1.03816794,1.48672566 1.47938931,4.61946903 4.67175573,6.05309735 C5.19083969,6.42477876 11.5236641,8.73451327 11.4717557,8.92035398 C11.4717557,8.97345133 4.20458015,5.86725664 3.94503817,5.73451327 C2.54351145,5.20353982 0.830534351,3.23893805 0.519083969,3.45132743 C0.207633588,3.66371681 1.29770992,5.78761062 2.69923664,6.45132743 C3.4519084,6.7699115 6.28091603,8.20353982 8.82442748,9.10619469 C8.98015267,9.18584071 4.23053435,7.27433628 1.94656489,6.31858407 C0.908396947,5.73451327 0.441221374,4.99115044 0.285496183,5.15044248 C0.0259541985,5.30973451 0.648854962,8.44247788 7.99389313,10.1946903 C8.17557252,10.300885 10.589313,9.63716814 10.459542,9.71681416 C9.11151396,10.0634274 7.74115704,10.3118378 6.35877863,10.460177 C6.28091603,10.6725664 6.8259542,11.7876106 10.6152672,11.5752212 C11.0824427,11.5486726 13.729771,10.5929204 13.4961832,10.7787611 C12.2354198,11.2708759 10.9537266,11.7049398 9.65496183,12.079646 C9.42137405,12.079646 8.20152672,12.2389381 8.14961832,12.3451327 C8.09770992,12.5575221 9.05801527,13.3539823 11.0824427,13.460177 C12.8992366,13.5663717 16.3251908,12.3451327 16.2732824,12.4247788 C16.1694656,12.5044248 12.951145,13.6460177 12.8732824,13.699115 C12.7435115,13.7787611 11.5755725,13.8318584 11.5236641,13.9380531 C11.4198473,14.1769912 13.2366412,15.9026549 18.5572519,14.0442478 C18.0381679,14.7876106 15.4427481,15.2920354 15.4427481,15.4247788 C15.4427481,15.5309735 16.0137405,16.0884956 16.9221374,16.300885 C17.3633588,16.4070796 17.9862595,16.380531 18.5572519,16.300885 C19.5954198,16.0884956 20.6335878,15.6902655 22.0091603,14.3893805 C22.1648855,14.7876106 18.6091603,16.6460177 18.7648855,16.8053097 C19.5435115,17.5486726 22.1129771,16.7256637 22.2687023,16.619469 C22.4503817,16.539823 27.2,13.7787611 27.2,13.4336283 C27.2778626,13.8584071 21.048855,17.3362832 21.1267176,17.4690265 C21.5160305,18.1061947 23.6442748,17.4424779 23.7221374,17.3628319 L26.5251908,15.8230088 C26.6030534,15.7964602 23.4625954,17.6814159 23.7221374,18 C23.5923664,19.2477876 28.6534351,17.1504425 29.0427481,16.8849558 C29.2244275,16.7522124 26.6030534,18.0530973 26.6030534,18.6637168 C27.459542,20.1238938 30.1587786,19.6725664 30.5740458,19.3539823 C30.7816794,19.1946903 30.3145038,20.4159292 30.470229,20.3097345 C30.7893726,19.9755873 31.0524459,19.5898788 31.248855,19.1681416 C31.1969466,19.5929204 30.8854962,20.2300885 30.729771,20.9734513 C30.5480916,21.6902655 30.4961832,22.539823 30.2625954,23.4159292 C30.210687,23.7876106 31.9236641,22.6460177 31.6641221,19.9115044 C31.8198473,21.3451327 31.1450382,24 31.3267176,24.159292 C31.6641221,24.4247788 32.6763359,22.8318584 32.7801527,21.7433628 C33.0656489,22.2743363 33.6885496,23.4159292 34.2335878,23.6814159 C34.1816794,22.8584071 34.2335878,22.8849558 33.9740458,22.0884956 C34.129771,21 34.1557252,19.5132743 34.1816794,17.8141593 C35.6351145,20.6548673 36.2320611,21.8761062 35.8167939,24.0530973 C36.2580153,24.2389381 36.9328244,22.5132743 36.880916,21.6637168 C37.2135103,23.1226369 38.4098901,24.2080788 39.8656489,24.3716814 Z" id="Path" stroke="#000000" stroke-width="0.5" fill="#EF7D00" stroke-linecap="round" stroke-linejoin="round"></path>
                            <path d="M15.6763359,6.2920354 C15.6763359,6.2920354 14.6641221,7.0619469 13.4442748,7.00884956 C13.7557252,8.28318584 16.2992366,7.30088496 16.2992366,7.30088496 C16.2992366,7.30088496 15.0793893,8.7079646 14.1969466,8.92035398 C14.7160305,9.37168142 16.9480916,9.21238938 17.3114504,9 C17.6748092,8.76106195 18.3496183,7.88495575 18.3496183,7.88495575 C18.3496183,7.88495575 16.0656489,10.5929204 15.7541985,10.5663717 C15.6763359,10.8849558 18.1160305,10.7787611 18.6091603,10.300885 C19.1282443,9.82300885 20.4259542,9.13274336 20.4259542,9.13274336 C20.4259542,9.13274336 17.0519084,11.5221239 16.9221374,11.5221239 C18.1679389,11.840708 20.6854962,11.0973451 22.2946565,10.0884956 C19.9068702,11.7079646 19.6992366,12 18.4793893,12.5575221 C19.5694656,12.7964602 20.1145038,13.539823 23.7480916,11.920354 C25.8244275,10.9115044 27.0183206,9.05309735 27.0183206,9.05309735 C25.4336359,10.9654403 23.5368507,12.5822991 21.4122137,13.8318584 C21.2824427,14.0973451 23.8519084,15.2123894 27.0961832,11.7345133" id="Path" stroke="#000000" stroke-width="0.5" fill="#EF7D00" stroke-linecap="round" stroke-linejoin="round"></path>
                            <path d="M33.3251908,13.8053097 C33.3251908,13.8053097 33.5587786,14.8672566 34.4412214,15.6637168 C35.3236641,16.460177 35.3755725,17.2566372 35.3755725,17.2566372 M32.9099237,6.90265487 C32.9099237,6.90265487 33.1954198,7.88495575 34.1038168,8.49557522 C35.0381679,9.07964602 36.4396947,10.9911504 36.5175573,11.3362832 C36.621374,11.7345133 37.1664122,14.6814159 37.1145038,15 M27.3038168,8.36283186 C27.3557252,8.76106195 26.0061069,10.5663717 27.8748092,12.7168142 C26.1618321,14.840708 26.1618321,15.1061947 26.1618321,15.1061947 C26.1618321,15.1061947 27.1221374,15.6371681 28.8091603,14.1504425 C31.6122137,17.6548673 30.6778626,19.2477876 30.6778626,19.2477876" id="Shape" stroke="#000000" stroke-width="0.5" fill="#EF7D00" fill-rule="nonzero" stroke-linecap="round"></path>
                            <path d="M30.4442748,16.7787611 C30.4442748,16.7787611 30.1847328,16.4070796 30.6519084,15 C31.0671756,15.5309735 31.5343511,15.6106195 31.7160305,15.7964602 C31.9236641,16.0353982 34.0519084,16.3274336 34.1557252,17.7876106" id="Path" stroke="#000000" stroke-width="0.5" fill="#EF7D00" stroke-linecap="round" stroke-linejoin="round"></path>
                            <path d="M32.9358779,3.5840708 C32.9358779,3.47787611 32.4946565,2.52212389 30.9114504,3.69026549 C31.7679389,3.74336283 32.5984733,4.24778761 32.9358779,3.5840708 Z" id="Path" stroke="#000000" stroke-width="0.5" fill="#EF7D00"></path>
                            <path d="M48.0412214,7.83185841 C48.119084,7.88495575 52.7648855,8.89380531 54.3221374,8.38938053 C52.3496183,11.0973451 48.378626,9.26548673 48.378626,9.26548673 C50.3251908,9.84955752 50.4030534,9.79646018 51.0259542,10.380531 C51.2335878,10.9115044 47.4442748,10.6460177 46.2244275,9.92920354 C49.6763359,11.0442478 49.7541985,10.9911504 49.8580153,11.3893805 C50.0137405,12 44.2,11.2300885 43.7068702,10.460177 C45.2641221,11.6814159 46.0946565,11.920354 46.951145,12.4778761 C45.9129771,12.9557522 43.9664122,13.4336283 40.410687,10.8584071 C45.0824427,15.2123894 49.3129771,14.9469027 49.9877863,15.7168142 C48.3526718,18.1858407 42.0198473,14.2566372 39.1129771,12.2654867 C36.2061069,10.2743363 45.4717557,17.0707965 46.3282443,16.9646018 C45.9129771,17.6283186 42.8503817,17.0442478 42.6427481,16.699115" id="Path" stroke="#000000" stroke-width="0.5" fill="#EF7D00" stroke-linejoin="round"></path>
                            <path d="M49.2351145,12.3982301 C48.7160305,12.4778761 47.080916,12.4778761 46.8473282,12.4247788" id="Path" stroke="#000000" stroke-width="0.5" fill="#EF7D00" stroke-linecap="round"></path>
                            <path d="M14.3007634,5.57522124 C14.3007634,5.57522124 17.8305344,7.48672566 19.3358779,7.3539823 C19.0485925,7.60194016 18.7120817,7.7831078 18.3496183,7.88495575 C18.7129771,8.04424779 19.751145,8.60176991 21.3083969,8.25663717 L20.4519084,9.05309735 C20.4519084,9.05309735 21.8015267,9.5840708 23.3068702,8.78761062 C23.0487674,9.10244209 22.806225,9.43028553 22.5801527,9.7699115 L23.6442748,9.84955752" id="Path" stroke="#000000" stroke-width="0.5" fill="#EF7D00" stroke-linecap="round" stroke-linejoin="round"></path>
                        </g>
                    </g>
                </g>
            </g>
        </g>
    </g>
</svg>