<?xml version="1.0" encoding="UTF-8"?>
<svg width="200px" height="150px" viewBox="0 0 200 150" version="1.1" xmlns="http://www.w3.org/2000/svg" xmlns:xlink="http://www.w3.org/1999/xlink">
    <!-- Generator: Sketch 52.5 (67469) - http://www.bohemiancoding.com/sketch -->
    <title>as</title>
    <desc>Created with Sketch.</desc>
    <defs>
        <polygon id="path-1" points="0 0 200 0 200 150 0 150"></polygon>
    </defs>
    <g id="Flags" stroke="none" stroke-width="1" fill="none" fill-rule="evenodd">
        <g id="Oceania" transform="translate(-70.000000, -50.000000)">
            <g id="as" transform="translate(70.000000, 50.000000)">
                <mask id="mask-2" fill="white">
                    <use xlink:href="#path-1"></use>
                </mask>
                <g id="Path"></g>
                <g id="Group" mask="url(#mask-2)">
                    <g transform="translate(-116.875000, -5.000000)">
                        <polygon id="Path" fill="#000066" points="0 0 320 0 320 160 0 160"></polygon>
                        <polygon id="Path" fill="#BD1021" points="0 80 320 160 320 0"></polygon>
                        <polygon id="Path" fill="#FFFFFF" points="320 8.5625 320 151.4375 34.28125 80"></polygon>
                        <g id="Group" stroke-width="1" fill="none" transform="translate(212.812500, 24.062500)">
                            <path d="M53.4375,73.875 C53.4375,73.875 51.4375,72.25 53.8125,69.59375 C52.53125,68.53125 53.71875,66.4375 53.71875,66.4375 C53.71875,66.4375 51.53125,65.625 53.8125,62.25 C52.15625,61.15625 52.875,58.71875 52.875,58.71875 C52.875,58.71875 47.5625,56.71875 52.625,54.8125 C48.4375,56.625 44.53125,52.34375 44.53125,52.34375 L38.46875,52.53125 C37.4375,47.46875 29.40625,51.875 35.34375,37.375 C33.8125,37.09375 32.09375,36.65625 30.34375,37.90625 C28.65625,39.1875 23.75,41.90625 20.84375,39.1875 C17.9375,36.46875 22.71875,32.5625 22.84375,32.46875 C22.9375,32.375 29.28125,29.09375 30.1875,26.9375 C30.09375,25.28125 28.09375,24.03125 29.90625,20.46875 C32,17.125 44.8125,13.9375 50.625,12.84375 C52.3264621,12.0470846 53.7439009,10.749583 54.6875,9.125 L55.34375,11.5 C55.34375,11.5 68.25,7.6875 68.875,5.875 C69.5,4.0625 69.15625,7.5 69.15625,7.5 C74.21875,7.03125 80.6875,2.6875 81.59375,4.6875 C85.84375,3.875 94.03125,0.21875 94.03125,0.21875 C94.03125,0.21875 96.84375,0.125 94.84375,3.21875 C96.09375,5.21875 94.46875,6.96875 94.375,6.96875 C94.3125,6.96875 94.9375,8.9375 93.3125,10.03125 C93.84375,11.75 92.3125,13.15625 92.3125,13.15625 C92.3125,13.15625 93.03125,15.21875 90.125,16.28125 C90.40625,18.125 88.5,18.46875 88.5,18.46875 C88.5,18.46875 88.75,20.375 87.5,21.21875 C87.5,22.65625 86.03125,23.40625 86.03125,23.40625 C86.03125,23.40625 86.96875,23.9375 85.65625,24.84375 C80.8955028,27.8955871 76.0822817,30.8647819 71.21875,33.75 C71.21875,33.65625 80.84375,35.46875 81.5,35.8125 C82.15625,36.15625 89.40625,41 89.40625,41 L82.03125,50.0625 C82.03125,50.0625 73.875,49.1875 73.5,49.625 C73.125,50.0625 75.21875,50.25 75.6875,51 C76.125,51.71875 76.875,53.4375 78.3125,53.25 C79.78125,53.09375 75.59375,55.90625 72.875,56.15625 C72.875,57.15625 76.3125,57.25 77.25,56.46875 C78.125,55.625 75.0625,58.8125 74.6875,59.28125 C74.3125,59.75 78.75,58.625 78.75,58.625 C78.75,58.625 78.03125,61.625 74.15625,62.53125 C75.6875,65.0625 75.0625,66.6875 74.96875,66.6875 C74.875,66.6875 72.40625,64.1875 70.0625,64.625 C70.6875,67.0625 72.59375,69.3125 73.15625,69.6875 C73.6875,70.0625 68.875,70 68.25,68.59375 C67.625,67.1875 67.0625,71.875 68.78125,73.34375 C66.78125,73.4375 65.0625,72.25 65.0625,72.25 C65.0625,72.25 63.875,74.96875 64.6875,76.3125 C65.5,77.6875 61.875,73.59375 61.875,73.59375 L55,76.5 L53.4375,73.875 Z" id="Path" stroke="#000000" stroke-width="0.9" fill="#9C3900" stroke-linejoin="round"></path>
                            <path d="M0.09375,68.46875 C0.25,68.46875 10.125,68.3125 14.65625,65.71875 C16.1208786,67.9610899 17.9113601,69.9727486 19.96875,71.6875 L21.4375,66.53125 C21.4375,66.53125 25,66.6875 25.3125,67.46875 C24.84375,68.46875 24.6875,69.75 24.6875,69.75 C24.6875,69.75 27.09375,69.9375 27.28125,70.25 C27.4375,70.5625 26.625,73.3125 26.625,73.3125 L36.96875,75.75 C36.96875,75.75 37.78125,71.6875 38.59375,72.1875 C39.40625,72.6875 42.96875,77.6875 47.96875,78 C52.96875,78.3125 53.28125,73.8125 53.28125,73.8125 L54.4375,74.4375 C54.4375,74.4375 56.53125,69.9375 56.875,69.9375 C57.21875,69.9375 57.65625,70.5625 60.40625,70.5625 C61.21875,71.53125 61.5625,73.8125 61.5625,73.8125 C61.5625,73.8125 58.46875,76.875 59.4375,79.3125 C60.40625,81.75 60.59375,81.09375 60.59375,81.09375 L82.90625,86.40625 C82.90625,86.40625 84.03125,88.1875 82.09375,89.15625 C82.09375,89.3125 59.59375,84 59.59375,84 C59.59375,84 57.5,86.40625 55.875,85.9375 C54.25,85.46875 55.40625,86.875 55.40625,86.875 L79.65625,88.84375 C79.65625,88.84375 81.4375,91.09375 80.15625,91.75 C78.53125,91.90625 53.9375,90.125 53.9375,90.125 C53.9375,90.125 52.5,93.21875 50.875,90.625 C49.75,92.40625 48.4375,90.125 48.4375,90.125 C48.4375,90.125 46.34375,91.75 46.03125,89.96875 C44.25,91.28125 43.125,89.15625 43.125,89.15625 L32.75,88.53125 L32.125,89.46875 C32.125,89.46875 33.90625,89.96875 31.15625,91.09375 C28.40625,92.25 47.65625,91.75 48.125,91.90625 C48.625,92.09375 46.84375,93.53125 46.84375,93.53125 C46.84375,93.53125 56.6875,94.15625 58.46875,92.09375 C60.25,89.96875 57.84375,94.84375 57.84375,94.84375 C57.84375,94.84375 65.59375,94.53125 65.59375,94.1875 C65.59375,93.84375 65.4375,96.59375 60.09375,96.28125 C62.3819575,97.6925429 64.8251509,98.835496 67.375,99.6875 C67.375,99.6875 63.3125,100.625 58.625,99.53125 C59.4375,101.625 63,103.5625 63,103.5625 C63,103.5625 60.40625,105.8125 54.59375,100.3125 C56.21875,103.25 54.90625,104.375 54.75,104.0625 C52.4822119,100.992864 49.1296255,98.9030853 45.375,98.21875 C49.4375,100.8125 47.65625,101.96875 47.65625,101.96875 C47.65625,101.96875 45.53125,98.21875 42.15625,101.96875 C40.84375,98.53125 35.84375,96.59375 29.6875,96.28125 C27.75,94.03125 26.625,94.65625 22.09375,93.375 C19.5,90.46875 15.78125,87.21875 15.78125,87.21875 C15.78125,87.21875 15.9375,82.84375 20.3125,83.34375 C20.8125,84.8125 20.8125,84.3125 20.8125,84.3125 C20.8125,84.3125 25.65625,82.53125 27.09375,84.9375 C29.21875,81.25 32.09375,84.40625 32.59375,85.6875 C34,85.90625 41.03125,86.09375 41.03125,86.09375 C41.03125,86.09375 40.1875,84.625 40.71875,84.8125 C41.1875,84.96875 45.0625,83.34375 44.90625,82.875 C44.71875,82.375 44.59375,80.75 45.21875,80.90625 C45.84375,81.09375 39.71875,80.125 36.3125,82.6875 C35.1875,81.5625 36,78.5 36,78.5 L26,76.40625 L25.5,78.96875 C25.5,78.96875 22.5625,79.46875 22.75,78.8125 L22.09375,81.09375 C22.09375,81.09375 18.21875,80.125 18.21875,79.9375 C18.21875,79.75 19.34375,74.125 19.34375,74.3125 C19.34375,74.4375 16.09375,74.625 11.59375,78 C10.28125,73.9375 0.09375,68.625 0.09375,68.46875 Z" id="Path" stroke="#000000" fill="#FFC221"></path>
                            <path d="M24.6875,69.9375 L22.59375,79.3125 M26.625,73.46875 L26,76.5625 M36.96875,75.9375 L36.03125,78.8125 M54.90625,95.625 C54.75,95.625 49.75,96.28125 49.09375,96.125 C48.46875,95.96875 57.03125,98.71875 57.03125,99.84375 M45.875,96.78125 C45.875,96.78125 40.875,93.53125 40.03125,93.84375 C39.25,94.15625 45.03125,93.6875 45.53125,93.21875 M35.53125,93.0625 C35.53125,93.0625 30.34375,93.21875 29.84375,92.75 C29.34375,92.28125 34.84375,96.28125 35.84375,95.96875 M25.5,90.78125 C25.34375,90.78125 21.9375,89.5 20.5,89.15625 C21.75,90.46875 22.75,92.25 25.96875,92.90625 M26.78125,88.6875 C26.625,88.375 20.3125,86.40625 20.3125,85.4375 C22.0500386,86.1600149 23.9537429,86.3871614 25.8125,86.09375 M60.25,81.25 L59.625,84.15625" id="Shape" stroke="#000000"></path>
                            <path d="M12.71875,55.21875 C12.71875,55.21875 5.9375,61.03125 12.71875,64.4375 C13.03125,62.15625 13.53125,61.84375 13.53125,61.84375 C13.53125,61.84375 19.15625,63.9375 22.59375,58.9375 C21.125,56.8125 18.53125,57.625 18.53125,57.625 C18.53125,57.625 13.21875,57.625 12.71875,55.21875 Z" id="Path" stroke="#000000" fill="#FFC221"></path>
                            <path d="M18.375,57.8125 L13.6875,61.84375 M32.8125,85.875 C32.8125,85.875 33.90625,87.0625 32.9375,88.53125 M55.5625,87.0625 L53.78125,87.21875 M41,86.09375 L44.25,86.59375 M49.71875,77.78125 C49.71875,77.78125 49.8125,81.0625 47.09375,80.96875 C44.34375,80.875 45.25,81.0625 45.25,81.0625" id="Shape" stroke="#000000"></path>
                            <path d="M51.8125,77.21875 C51.8125,77.21875 52.90625,77.59375 52.625,78.40625 C52.34375,79.21875 52.90625,81.59375 49.71875,83.875 C46.34375,84.59375 46.71875,81.0625 46.71875,81.0625" id="Path" stroke="#000000"></path>
                            <path d="M53,78.25 C53,78.25 54.96875,77.0625 55.25,78.96875 C55.53125,80.84375 53.625,84.40625 52.25,84.96875 C50.90625,85.5 49.34375,84.875 49.53125,83.96875 M55.4375,79.0625 C55.4375,79.0625 57.25,77.59375 57.8125,79.5 C58.34375,81.40625 56.34375,85.6875 55.53125,85.75 M57.96875,79.5 C57.96875,79.5 58.90625,79.0625 59.53125,79.59375 M55.0625,86.03125 C54.71875,86.125 53.1875,86.21875 52.625,85.03125 M46.90625,82.84375 L45,82.96875 M53.875,90.03125 L53.71875,87.03125 L52.96875,86.03125 L51.71875,87.3125 C51.71875,87.3125 51.53125,90.3125 50.96875,90.59375 M51.71875,87.21875 L50.71875,85.34375 L49.15625,87.21875 C49.15625,87.21875 49,89.9375 48.4375,90.21875 M49.15625,87.125 L48.53125,85.3125 C48.53125,85.3125 46.71875,86.3125 46.53125,87.03125 C46.34375,87.78125 46.25,89.75 45.8125,89.9375 M46.53125,86.6875 C46.53125,86.6875 46.71875,85.03125 46.15625,85.03125 C45.625,85.03125 43.1875,87.3125 43.09375,89.3125" id="Shape" stroke="#000000"></path>
                            <path d="M12.9375,55.25 C12.9375,55.25 13.84375,54.34375 14.125,53.25 C14.375,52.1875 13.75,51 14.84375,50 C15.9375,49 30.28125,42.90625 31.46875,41.71875 C32.7855203,40.3982804 33.997514,38.9773224 35.09375,37.46875 C35.375,36.90625 36.1875,40.1875 33.71875,41.625 C36.375,40.90625 38.09375,40.09375 39.1875,40.46875 C38.09375,42 35.1875,44.53125 33.8125,44.53125 C37,43.375 39.90625,42.34375 40.71875,43 C41.53125,43.625 36.8125,46.8125 34.90625,47 C38.09375,46.1875 42.34375,44.90625 42.90625,46.28125 C41.1875,46.8125 41.71875,47.28125 38.1875,49.28125 C37.3094119,49.5671505 36.392201,49.7147477 35.46875,49.71875 C38.1875,49.4375 41.90625,48.34375 42.28125,50.34375 C40.09375,51.1875 39.28125,52.25 37.46875,52.71875 C35.625,53.15625 31.46875,53.96875 28.90625,55 C26.40625,56 22.65625,58.90625 22.65625,58.90625 C22.65625,58.90625 14.5625,59.15625 14.5625,59.0625 C14.5625,58.96875 13,55.34375 12.9375,55.25 Z" id="Path" stroke="#000000" fill="#FFFFFF" stroke-linejoin="round"></path>
                            <path d="M16.75,54.625 C16.75,54.625 16.84375,52.8125 17.6875,52.1875 C18.46875,51.5625 22.5625,50 23.46875,48.625 C24.40625,47.28125 22.125,51 22.46875,52 M18.40625,51.90625 C18.40625,51.90625 20.375,52.625 19.9375,54.15625" id="Shape" stroke="#000000"></path>
                            <path d="M20.75,52.9375 C20.75,53.7659271 20.0784271,54.4375 19.25,54.4375 C18.4215729,54.4375 17.75,53.7659271 17.75,52.9375 C17.75,52.1090729 18.4215729,51.4375 19.25,51.4375 C20.0784271,51.4375 20.75,52.1090729 20.75,52.9375 Z" id="Path" stroke="#000000" stroke-width="0.8"></path>
                            <path d="M82.21875,49.71875 L97.9375,52.71875 C97.9375,52.71875 99.65625,50.71875 98.75,49.625 C101.125,49.09375 100.46875,46 100.46875,46 C100.46875,46 103.1875,44.8125 100.9375,42.09375 C102.5,40.53125 100.5625,39.375 100.5625,39.375 C100.5625,39.375 101.1875,36.65625 99.21875,36.375 C99.75,34.1875 95.78125,33.46875 95.78125,33.46875 C95.78125,33.46875 87.5,35.75 81.6875,35.90625 C83.5625,37.8125 80.96875,39.03125 80.96875,39.03125 C80.96875,39.03125 82.5,40.09375 82.03125,41 C81.59375,41.9375 82.34375,42.90625 80.3125,43.5625 C82.9375,44.71875 80.03125,46.71875 80.03125,46.71875 C80.03125,46.71875 82.9375,48.71875 82.21875,49.71875 Z" id="Path" stroke="#000000" fill="#FFFFFF"></path>
                            <path d="M80.6875,46.375 C80.6875,46.375 94.5625,48 95.21875,48 C95.875,48 98.28125,48.8125 98.75,49.625 M81.40625,45.5625 L100.75,46 M81.5,45.0625 C81.5,45.0625 99.84375,44 101.125,42.09375 M82.0625,41.09375 C82.0625,41.09375 100.5,39.09375 100.65625,39.375 M81.40625,38.8125 C81.40625,38.8125 99.28125,36 99.46875,36.46875 M30.375,27.28125 C30.375,27.28125 36,33.46875 35.46875,37.65625" id="Shape" stroke="#000000"></path>
                            <path d="M35.09375,34.375 C35.09375,34.375 36.90625,37 37.625,37.28125 C38.34375,37.5625 44.71875,37.90625 45.09375,40.65625 C45.4375,42.375 43.71875,41.8125 44,43.09375 C44.4375,44.71875 48.6875,46.84375 53.375,44.34375 M49.0625,45.625 C49.0625,45.625 52.875,51.25 58.5,45.1875 M55.59375,47.625 C55.59375,47.625 60.21875,50.09375 64.03125,43.71875 M59.125,48.1875 C59.125,48.1875 61.40625,50.0625 66.125,47.5625 M72.65625,45 C72.65625,45 79.65625,46.4375 80.09375,46.875 M75.3125,43.4375 L80.21875,43.625 M72.3125,40.71875 C72.3125,40.71875 80.6875,40.1875 81.78125,41.90625 M68.6875,38.125 C68.6875,38.125 80.40625,38.59375 80.9375,39.21875 M71.3125,50.125 C71.3125,50.125 73.3125,49.5625 73.59375,49.8125 M66.78125,55 C66.78125,55 69.40625,57.25 72.78125,56.25 M68.25,58.8125 C68.25,58.8125 71.25,60.15625 74.78125,59.34375 M69.25,61.0625 C69.25,61.0625 72.25,63.0625 74.25,62.71875 M67.875,62.25 C67.875,62.25 69.96875,63.8125 70.0625,64.625 M64.96875,64.0625 C64.96875,64.0625 65.59375,67.34375 67.875,68.53125 M63.4375,65.53125 C63.4375,65.53125 62.4375,69.78125 64.96875,72.40625 M60.78125,68.875 C60.78125,68.96875 60.625,70.875 60.71875,71.0625 M44.46875,52.34375 L49.34375,52.09375 C49.34375,52.09375 51.15625,51.34375 49.90625,50.1875 M50.53125,51.28125 C50.625,51.28125 55.15625,51.625 56.34375,53 C57.53125,54.34375 58.96875,57.0625 59.78125,57.53125 C60.625,58 60.78125,57.34375 60.78125,57.34375 M58.78125,56.625 C58.78125,56.625 56.34375,60.8125 58.25,62.0625 M57.4375,61.25 C57.4375,61.25 55.25,64.15625 56.96875,65.625 M56.53125,65.25 C56.53125,65.25 54.8125,68.0625 56.875,69.96875 M55.75,57.78125 C55.65625,57.90625 53.65625,59.3125 52.9375,58.96875 M53.65625,62.21875 C53.65625,62.21875 54.46875,63.0625 55.1875,62.9375 M53.75,66.5 L55.0625,67.375 M53.9375,69.75 L55.0625,70.4375 M33.40625,25.21875 C33.40625,25.21875 35.8125,26.46875 37.71875,25.21875 C39.625,23.96875 48.78125,19.28125 51.15625,18.53125 C53.5625,17.78125 54.90625,13.375 55.375,11.46875 M53.5625,16.625 L66.9375,12.71875 C66.9375,12.71875 69.125,10.90625 69.21875,7.5625 M68.28125,11.1875 C68.28125,11.1875 81.625,9.84375 81.625,4.875 M79.53125,8.3125 C79.53125,8.3125 93.59375,4.5 94.90625,3.0625" id="Shape" stroke="#000000"></path>
                            <path d="M40.375,28.28125 C40.375,28.28125 48.875,23.90625 50.21875,23.40625 C51.5625,22.9375 54.59375,19.09375 50.03125,19.09375" id="Path" stroke="#000000"></path>
                            <path d="M44.5,30 C44.59375,30 51.46875,25.5 53.75,24.9375 C55,23.21875 54.3125,21.40625 52.21875,21.78125" id="Path" stroke="#000000"></path>
                            <path d="M54.34375,23.78125 C54.53125,23.6875 58.0625,23.59375 56.8125,26.375 C55,27.6875 47.15625,31.625 47.15625,31.625 M52.5,20.84375 L67.40625,15.84375 C67.40625,15.84375 68.65625,13.28125 66.84375,12.90625 M79.25,8.40625 C79.25,8.5 81.15625,9.5625 80,11.28125 C77.90625,12.53125 68,14.90625 68,14.90625 M94.34375,6.875 L80.28125,10.8125 M93.28125,10.03125 L81.09375,13.78125 M92.25,13.09375 L81.4375,16.34375 M90.21875,16.15625 C89.9375,16.15625 82.21875,18.53125 82.21875,18.53125 M88.53125,18.53125 L83.53125,20.53125 M87.28125,21.21875 C85.8298564,21.7893123 84.3919655,22.3936432 82.96875,23.03125 M86.03125,23.40625 L82.21875,25.21875 M79.4375,27.5 C79.4375,27.5 79.90625,27.6875 79.8125,28.28125 M69.8125,32.75 C69.8125,32.75 71.40625,33.34375 69.90625,34.875 C69.125,35.90625 66.9375,35.625 65.59375,37.53125 M80.21875,11.375 C80.21875,11.375 82.21875,11.84375 80.6875,14.4375 C76.6875,15.96875 68.5625,18.4375 68.5625,18.4375 C68.5625,18.4375 68.1875,19.125 67.125,19.6875 C62.9631676,21.0746139 58.7636337,22.3459368 54.53125,23.5 M80.875,14.34375 C80.875,14.34375 83.0625,15.28125 80.875,16.90625 C78.375,18.34375 69.71875,21.03125 69.71875,21.03125 C69.71875,21.03125 69.59375,21.78125 69.21875,22.0625 C68.84375,22.375 57.375,26.1875 57.375,26.1875" id="Shape" stroke="#000000"></path>
                            <path d="M81.4375,16.90625 C81.4375,16.90625 83.75,17.59375 81.75,19.5 C78.4890333,21.0322374 75.1392962,22.3679581 71.71875,23.5 C71.71875,23.5 70.9375,24.4375 69.6875,24.84375 C66.6149225,25.9996624 63.5623905,27.2081734 60.53125,28.46875 M82.03125,19.5 C82.6875,19.78125 84.53125,20.0625 82.3125,21.78125 C79.71875,22.9375 73.4375,25.40625 73.4375,25.40625 L72.84375,26.46875 L62.84375,30.75 M82.59375,22.0625 C82.59375,22.0625 83.53125,23.21875 81.4375,24.5625 C79.15625,25.8125 74.1875,27.6875 74.1875,27.6875 M81.4375,24.75 C81.4375,24.75 82.5,25.40625 81.15625,26.375 C79.625,27.125 73.625,30.28125 73.625,30.28125 L69.71875,32.875" id="Shape" stroke="#000000"></path>
                            <path d="M67.6875,15.9375 C67.6875,16.0625 69.3125,17.375 68.75,18.90625 C70.1875,19.96875 69.90625,21.09375 69.90625,21.09375 C69.90625,21.09375 71.90625,22.25 71.625,23.90625 C73.625,24.375 73.5,25.5 73.5,25.5 L72.875,26.5625 C72.875,26.5625 74.84375,26.46875 73.125,29.0625 C74.1875,29.625 73.71875,30.28125 73.71875,30.28125 M73.125,29.125 C72.84375,29.125 66.15625,31.625 64.4375,33.15625" id="Shape" stroke="#000000"></path>
                            <path d="M57,26.1875 C57,26.1875 59,26.09375 58.71875,28.28125 C61.03125,27.5 60.53125,29.71875 60.53125,29.71875 C60.53125,29.71875 63.21875,28.65625 62.71875,32 C64.46875,31.625 64.15625,33.34375 64.15625,33.34375 C64.15625,33.34375 65.71875,33.25 65.71875,34.09375 C66.75,33.15625 67.90625,33.625 67.90625,33.625 C67.90625,33.625 68.65625,32.5625 69.71875,32.875 M58.8125,28.1875 C58.8125,28.375 49.84375,33.34375 49.84375,33.34375 M60.53125,29.8125 L53.75,34 M62.8125,31.90625 C62.8125,32 56.90625,35.4375 56.90625,35.4375 M64.15625,33.25 C64.15625,33.25 59.96875,36.6875 59,36.5 M65.59375,34.3125 C65.59375,34.3125 63.21875,36.09375 61.21875,36.96875 M68.09375,33.53125 C68.09375,33.53125 68.84375,34.46875 64.0625,36.96875" id="Shape" stroke="#000000"></path>
                        </g>
                    </g>
                </g>
            </g>
        </g>
    </g>
</svg>