<?xml version="1.0" encoding="UTF-8"?>
<svg width="200px" height="150px" viewBox="0 0 200 150" version="1.1" xmlns="http://www.w3.org/2000/svg" xmlns:xlink="http://www.w3.org/1999/xlink">
    <!-- Generator: Sketch 52.5 (67469) - http://www.bohemiancoding.com/sketch -->
    <title>ad</title>
    <desc>Created with Sketch.</desc>
    <g id="Flags" stroke="none" stroke-width="1" fill="none" fill-rule="evenodd">
        <g id="Europe" transform="translate(-70.000000, -50.000000)">
            <g id="ad" transform="translate(70.000000, 50.000000)">
                <polygon id="Path" fill="#D0103A" points="0 0 200 0 200 150 0 150"></polygon>
                <polygon id="Path" fill="#FEDF00" points="0 0 136 0 136 150 0 150"></polygon>
                <polygon id="Path" fill="#0018A8" points="0 0 64 0 64 150 0 150"></polygon>
                <path d="M93.875,42.6875 C96.28125,42.6875 97.28125,44.75 99.6875,44.75 C101.15625,44.75 102.03125,44.28125 103.34375,43.53125 C104.25,43.03125 104.8125,42.75 105.84375,42.75 C106.90625,42.75 107.5625,43.0625 108.125,44 C108.4375,44.5 108.6875,45.53125 108.53125,46.09375 C108.345452,46.9865217 108.062518,47.8562815 107.6875,48.6875 C107.46875,49.1875 107.28125,49.46875 107.28125,50 C107.28125,51.28125 109.03125,51.71875 110.21875,51.75 C110.46875,51.75 112.625,51.75 113.96875,50.4375 C113.25,50.40625 112.4375,49.8125 112.4375,49.09375 C112.4375,48.28125 113,47.75 113.78125,47.5 C113.9375,47.46875 114.1875,47.59375 114.3125,47.5 C114.53125,47.40625 114.4375,47.1875 114.625,47.0625 C115,46.75 115.25,46.5625 115.75,46.5625 C116.0625,46.5625 116.25,46.59375 116.53125,46.78125 C116.65625,46.90625 116.71875,47.03125 116.84375,47.03125 C117.21875,47.03125 117.40625,46.78125 117.78125,46.78125 C118.032422,46.7850651 118.278972,46.8493824 118.5,46.96875 C118.6875,47.0625 118.6875,47.4375 118.9375,47.4375 C119.0625,47.4375 119.6875,47.15625 120.03125,47.15625 C120.71875,47.15625 121.09375,47.40625 121.53125,47.9375 C121.65625,48.09375 121.71875,48.375 121.84375,48.375 C122.465549,48.4277057 123.0239,48.7766751 123.34375,49.3125 C123.4375,49.4375 123.5625,49.75 123.6875,49.78125 C123.875,49.875 124,49.84375 124.21875,50 C124.738334,50.3266605 125.065157,50.8869284 125.09375,51.5 C125.09375,51.71875 125,52 124.9375,52.1875 C124.375,54.21875 122.96875,54.875 121.5625,56.65625 C120.9375,57.40625 120.46875,58 120.46875,58.96875 C120.46875,59.1875 120.78125,59.625 120.875,59.8125 C120.8125,59.375 121.03125,58.8125 121.5,58.78125 C122.144348,58.7780209 122.685573,59.2651234 122.75,59.90625 C122.757494,60.098185 122.725588,60.2896205 122.65625,60.46875 C123.035123,60.2316204 123.462195,60.0821453 123.90625,60.03125 L124.5,60.03125 C125.53125,60.03125 126.6875,60.625 127.40625,61.21875 C128.930043,62.5274147 129.770602,64.4618512 129.6875,66.46875 C129.4375,68.09375 129.59375,71.09375 125.375,72.28125 C126.15625,72.59375 126.6875,73.21875 126.6875,73.90625 C126.704416,74.2845518 126.568045,74.6536878 126.309246,74.9301322 C126.050447,75.2065765 125.691094,75.3669629 125.3125,75.375 C124.900745,75.4006346 124.499238,75.2400319 124.21875,74.9375 C123.34375,75.8125 123.1875,76.71875 123.1875,77.96875 C123.1875,78.71875 123.3125,79.15625 123.625,79.84375 C123.9375,80.53125 124.1875,80.9375 124.78125,81.4375 C125.09375,80.96875 125.4375,80.625 126.03125,80.625 C126.5625,80.625 127.03125,80.8125 127.25,81.3125 C127.3125,81.46875 127.25,81.59375 127.34375,81.75 C127.4375,81.9375 127.59375,81.96875 127.6875,82.15625 C127.84375,82.46875 127.6875,82.71875 127.84375,83 C127.9375,83.21875 128.125,83.25 128.21875,83.4375 C128.34375,83.75 128.375,83.9375 128.375,84.28125 C128.375,85.21875 127.53125,85.90625 126.59375,85.90625 C126.28125,85.90625 126.15625,85.78125 125.875,85.8125 C126.40625,86.34375 126.8125,86.59375 127.21875,87.21875 C127.856703,88.1688482 128.184252,89.2934343 128.15625,90.4375 C128.181351,91.6612569 127.879284,92.8695268 127.28125,93.9375 C126.81499,95.0101568 126.057095,95.9304573 125.09375,96.59375 C123.619815,97.6667083 121.901054,98.3542127 120.09375,98.59375 C118.960395,98.8248879 117.811371,98.9711273 116.65625,99.03125 L112.25,99.28125 C110,99.40625 108.4375,99.75 106.84375,101.34375 C107.59375,101.875 108.09375,102.4375 108.09375,103.34375 C108.09375,104.28125 107.53125,105 106.625,105.28125 C106.40625,105.34375 106.25,105.28125 106.03125,105.40625 C105.8125,105.53125 105.8125,105.8125 105.59375,105.9375 C105.242268,106.167663 104.825496,106.27734 104.40625,106.25 C103.656003,106.30371 102.921445,106.016774 102.40625,105.46875 C101.71875,106.03125 101.46875,106.53125 100.6875,107 C100.4375,107.125 100.3125,107.3125 100.03125,107.3125 C99.5625,107.3125 99.34375,107 98.96875,106.75 C98.4582581,106.394587 97.9960629,105.97441 97.59375,105.5 C96.875,105.90625 96.46875,106.25 95.625,106.25 C95.186409,106.27369 94.7508438,106.164799 94.375,105.9375 C94.1875,105.78125 94.125,105.5625 93.90625,105.4375 C93.6875,105.28125 93.5,105.34375 93.25,105.21875 C92.3125,104.8125 91.6875,104.125 91.6875,103.09375 C91.6875,102.1875 92.25,101.625 93.0625,101.21875 C91.5,99.65625 89.9375,99.40625 87.75,99.28125 L83.375,99.03125 C82,98.9375 81.25,98.8125 79.9375,98.59375 C78.90625,98.4375 78.3125,98.375 77.375,97.9375 C74.1875,96.4375 72.125,94.40625 71.75,90.90625 C71.6875,90.59375 71.6875,90.4375 71.6875,90.125 C71.6875,88.3125 72.40625,87.1875 73.6875,85.90625 C73.375,85.8125 73.15625,85.90625 72.8125,85.8125 C72.03125,85.5 71.4375,84.96875 71.4375,84.09375 C71.4375,83.78125 71.4375,83.5625 71.59375,83.28125 C71.71875,83.09375 71.90625,83.0625 71.96875,82.84375 C72.03125,82.53125 71.96875,82.34375 72.09375,82.0625 C72.1875,81.90625 72.34375,81.875 72.40625,81.6875 C72.71875,81.09375 73.03125,80.625 73.6875,80.625 C74.25,80.625 74.625,80.9375 74.875,81.40625 C75.4375,81.15625 75.5625,80.75 75.875,80.25 C76.6417467,79.0019933 76.8025824,77.4740545 76.3125,76.09375 C76.1875,75.625 76.125,75.3125 75.75,74.9375 C75.4375,75.25 75.125,75.375 74.6875,75.375 C73.78125,75.375 73.125,74.59375 73.125,73.71875 C73.1054434,73.090485 73.4796777,72.5166592 74.0625,72.28125 C73.5625,71.84375 73.125,71.8125 72.59375,71.46875 C71.78125,70.96875 71.5,70.40625 70.96875,69.59375 C70.59375,69.09375 70.5,68.71875 70.34375,68.125 C70.070742,67.3431828 69.9642957,66.5129021 70.03125,65.6875 C70.21875,64.125 70.5,63.1875 71.46875,61.96875 C72.03125,61.25 72.40625,60.8125 73.28125,60.4375 C74,60.125 74.4375,59.90625 75.21875,59.90625 L75.84375,59.9375 C76.1498805,59.9576367 76.4481896,60.0428679 76.71875,60.1875 C76.84375,60.25 77.0625,60.46875 77.0625,60.3125 C77.0625,60.15625 76.96875,60.0625 76.96875,59.90625 C76.96875,59.28125 77.4375,58.65625 78.09375,58.65625 C78.5625,58.65625 78.75,59.09375 79,59.5 C79.125,59.25 79.21875,59.0625 79.21875,58.78125 C79.21875,57.71875 78.625,57.15625 77.96875,56.3125 C76.5,54.5 74.6875,53.65625 74.6875,51.3125 C74.6875,50.625 75,50.15625 75.625,49.78125 C75.78125,49.6875 76.03125,49.78125 76.1875,49.6875 C76.34375,49.59375 76.3125,49.375 76.40625,49.25 C76.5625,49.03125 76.71875,48.9375 76.90625,48.75 C77.21875,48.4375 77.53125,48.5625 77.875,48.28125 C78.0625,48.15625 78.125,47.96875 78.25,47.84375 C78.65625,47.34375 79.03125,47.09375 79.6875,47.09375 C80,47.09375 80.1875,47.09375 80.46875,47.21875 L80.78125,47.375 C80.875,47.3125 81.03125,47.125 81.25,47.03125 C81.4561198,46.9033677 81.694995,46.8382199 81.9375,46.84375 C82.28125,46.84375 82.5,47.03125 82.875,47.03125 C82.96875,47.03125 83,46.90625 83.125,46.84375 C83.4375,46.625 83.59375,46.53125 83.96875,46.53125 C84.34375,46.53125 84.53125,46.625 84.84375,46.84375 C85.15625,47 85.15625,47.25 85.46875,47.40625 C85.625,47.5 85.78125,47.46875 85.9375,47.53125 C86.75,47.8125 87.34375,48.34375 87.34375,49.1875 C87.34375,49.65625 87.25,49.96875 86.90625,50.28125 C86.625,50.5 86.375,50.46875 86.03125,50.59375 C87.0253839,51.3960633 88.2889127,51.7874218 89.5625,51.6875 C90.875,51.6875 92.46875,51.15625 92.46875,49.84375 C92.46875,49.21875 92.15625,48.90625 91.90625,48.34375 C91.4814963,47.5223212 91.256649,46.6122253 91.25,45.6875 C91.25,44.8125 91.34375,44.28125 91.84375,43.59375 C92.34375,42.875 92.96875,42.6875 93.875,42.6875 Z" id="Path" fill="#C7B37F"></path>
                <g id="Group" transform="translate(70.000000, 42.500000)">
                    <path d="M15.125,7.1875 C15.2340677,7.54705931 15.5154407,7.82843234 15.875,7.9375 C16.125,8.03125 16.71875,8 17.0625,7.5 C17.375,7.125 17.375,6.625 17.25,6.25 C17.1463018,5.97250197 16.961114,5.73284719 16.71875,5.5625 L15.125,7.1875 Z" id="Path" stroke="#703D29" stroke-width="0.3" stroke-linejoin="round"></path>
                    <path d="M55.3125,31.28125 C54.9375,30.375 53.96875,30.78125 53.9375,31.28125 C53.78125,32.4375 54.78125,32.78125 55.5,32.59375 C55.8360703,32.5032636 56.1191991,32.2767607 56.28125,31.96875 C56.46875,31.65625 56.53125,31.21875 56.40625,30.8125 C56.3543031,30.6319051 56.2695578,30.4624145 56.15625,30.3125 C56.0442005,30.1643456 55.9066307,30.0373581 55.75,29.9375 C55.46875,29.75 55.15625,29.75 54.6875,29.75 C52.96875,29.75 51.4375,31.78125 50.9375,33.9375 C50.75,34.625 50.53125,36.21875 50.84375,37.6875 C51.1033628,39.0183078 51.7438872,40.245075 52.6875,41.21875 C53.5689829,42.0483413 54.6265875,42.6679481 55.78125,43.03125 C56.1883313,43.1487606 56.6188053,43.1595224 57.03125,43.0625 C58.03125,42.84375 58.5,41.875 57.96875,40.875 C57.5625,40.09375 56.3125,39.625 55.71875,40.6875 C55.6875,40.78125 55.59375,40.96875 55.59375,41.15625 C55.59375,41.4375 55.71875,41.78125 55.90625,41.90625 C56.375,42.1875 57.09375,42.09375 57.0625,41.28125" id="Path" stroke="#703D29" stroke-width="0.3" stroke-linecap="round"></path>
                    <path d="M49.9375,43.125 C50.4717035,42.5140242 51.2000573,42.1057046 52,41.96875 C52.9375,41.84375 53.75,42.125 54.5625,42.59375 C56.637318,43.5433696 57.9594784,45.624548 57.9375,47.90625 C57.9375,49.03125 57.625,50.25 57.3125,50.84375 C57.0625,51.375 56.375,53.65625 52.53125,55.21875 C50.3125,56.15625 46.90625,56.34375 44.5,56.46875 C41.25,56.5625 38.25,56.6875 36.53125,58.84375" id="Path" stroke="#703D29" stroke-width="0.4"></path>
                    <g transform="translate(22.500000, 1.562500)" id="Shape" stroke="#703D29" stroke-width="0.3">
                        <path d="M28.25,45.21875 C28.15625,44.90625 28.25,44.5625 28.5,44.1875 C28.875,43.6875 29.65625,43.53125 30.375,43.875 C30.6842691,44.0418324 30.9514505,44.2769521 31.15625,44.5625 L31.5,45.0625 C31.71875,45.40625 31.8125,45.6875 31.8125,45.84375 C32.59375,48.03125 31.375,50.375 29.78125,51.34375 C28.53125,52.09375 27.0625,52.40625 25.28125,52.59375 C24.5,52.71875 24.03125,52.6875 23.25,52.75 L20.25,52.75 C19.5004952,52.7114582 18.7495048,52.7114582 18,52.75 C17.09375,52.84375 16.4375,52.875 15.625,53 C15.125,53.0625 14.5625,53.15625 13.9375,53.3125 C13.75,53.3125 13.5625,53.375 13.375,53.4375 L13,53.53125 C11.875,53.875 10.8125,54.28125 9.9375,54.84375 C9.6875,55 9.375,55.15625 9.15625,55.375 L8.75,55.75 C8.125,56.375 7.53125,57 7.375,57.84375 L7.375,58.34375 C7.375,58.90625 7.8125,59.6875 9.0625,59.90625 M10.78125,6.78125 C11.03125,7.21875 11.1875,7.5 11.03125,8 C10.84375,8.53125 10.46875,8.875 9.90625,8.875 C8.65625,8.875 7.9375,7.375 8.5,6.4375 C9.5,4.78125 11.40625,5.71875 13.1875,6.53125 C13.09375,6.125 12.9375,5.96875 12.96875,5.4375 C13,4.125 13.96875,3.5625 14.375,2.3125 C14.59375,1.59375 14.6875,0.96875 14.15625,0.4375 C13.6875,0.03125 13.15625,0.03125 12.5625,0.25 C11.375,0.71875 9.90625,2.09375 7.375,2.125 C4.8125,2.09375 3.375,0.71875 2.15625,0.25 C1.53125,0.03125 1.03125,0.03125 0.5625,0.46875 C0.03125,0.96875 0.125,1.59375 0.34375,2.34375 C0.75,3.53125 1.71875,4.125 1.75,5.46875 C1.75,5.96875 1.625,6.09375 1.53125,6.53125 C3.3125,5.71875 5.28125,4.6875 6.21875,6.4375 C6.75,7.4375 6.0625,8.84375 4.8125,8.84375 C4.25,8.84375 3.875,8.53125 3.6875,8 C3.5625,7.53125 3.6875,7.125 3.9375,6.75"></path>
                        <path d="M5.82893099,5.90625 C6.42215904,6.24427686 6.75016559,6.84823483 6.67751694,7.46875 C6.60680144,8.25 6.39465495,8.4375 5.6875,8.875 M6.53608595,7.6875 C6.5007282,8.15625 6.28858171,8.46875 5.72285775,8.65625" stroke-linecap="round"></path>
                    </g>
                    <polygon id="Path" fill="#C7B37F" points="16.46875 5.40625 16.6875 5.5625 16.9375 5.8125 17.09375 6.125 17.15625 6.375 17.15625 6.96875 17.09375 7.21875 16.9375 7.40625 16.75 7.59375 16.46875 7.75 16.15625 7.8125 15.84375 7.875 15.53125 7.71875 15.25 7.53125 15.09375 7.28125 14.96875 6.96875 14.96875 6.84375 16.46875 5.40625"></polygon>
                    <path d="M16,6.625 C15.90625,6.09375 15.3125,6 15.0625,6.3125 C14.71875,6.78125 14.96875,7.5625 15.6875,7.78125 C16.1435126,7.87360079 16.6130819,7.70503746 16.90625,7.34375 C17.21875,6.9375 17.1875,6.46875 17.0625,6.09375 C16.9624251,5.81425222 16.7764631,5.5735955 16.53125,5.40625 C15.6875,4.78125 14.3125,4.90625 13.84375,6.03125 C13.28125,7.40625 14.53125,8.46875 15.71875,9.25 C17.15625,10.25 18.84375,10.4375 20.09375,10.4375 C22.96875,10.40625 25.15625,9.03125 26.5625,8.25 C26.875,8.0625 27.21875,8.09375 27.40625,8.3125 C27.6001082,8.57508414 27.5592704,8.94262459 27.3125,9.15625" id="Path" stroke="#703D29" stroke-width="0.3" stroke-linecap="round"></path>
                    <path d="M7.5,45.375 L6.875,45.59375 L6.25,46.09375 L5.9375,46.5 L5.59375,47.125 L5.4375,47.59375 L5.3125,48.15625 L5.25,48.59375 M11.1875,45.4375 L11.15625,46 L11.0625,46.375 L10.75,47.0625 L10.34375,47.625 L9.875,48 L9.53125,48.15625 L9.03125,48.28125" id="Shape" stroke="#703D29" stroke-width="0.3"></path>
                    <path d="M29.90625,60.34375 C29.8125,60.875 29.3125,61.46875 28.25,61.65625 L28.0625,61.71875" id="Path" stroke="#703D29" stroke-width="0.4"></path>
                    <path d="M56.3125,43.8125 C57.456443,44.9146658 58.0904112,46.4429817 58.0625,48.03125 C58.0625,49.15625 57.75,50.375 57.4375,50.96875 C57.1875,51.5 56.5,53.78125 52.65625,55.34375 C50.0691324,56.1667976 47.3711267,56.588361 44.65625,56.59375 C41.4375,56.6875 38.46875,56.8125 36.71875,58.875" id="Path" stroke="#703D29" stroke-width="0.4"></path>
                    <path d="M51.09375,45.90625 C51.34375,45.59375 52.1875,45.15625 52.90625,45.5625 C53.1941075,45.7077801 53.4411558,45.9226047 53.625,46.1875" id="Path" stroke="#703D29" stroke-width="0.3"></path>
                    <path d="M55.5,43.0625 L55.9375,43.21875 C56.3452974,43.3403317 56.7797026,43.3403317 57.1875,43.21875 C58.0625,42.96875 58.625,42.15625 58.1875,41.0625 C58.0536661,40.8029287 57.8610488,40.5782085 57.625,40.40625" id="Path" stroke="#703D29" stroke-width="0.4"></path>
                    <path d="M5.09375,19.9375 C4.46875,20.28125 4.0625,20.375 3.59375,20.90625 C3.23191726,21.5763546 2.95879231,22.2906814 2.78125,23.03125 M17.15625,6.875 C17.15625,7.4375 16.78125,7.75 16.21875,7.875" id="Shape" stroke="#703D29" stroke-width="0.3" stroke-linecap="round"></path>
                    <path d="M54.09375,17.5 C55.6909603,17.5322019 57.2078089,18.2066728 58.3016019,19.3710331 C59.3953948,20.5353933 59.9738392,22.0913955 59.90625,23.6875 C59.90625,28.6875 56.8125,29.46875 55.59375,29.8125" id="Path" stroke="#703D29" stroke-width="0.3"></path>
                    <path d="M54.5,17.5 C57.03125,17.40625 59.65625,19.28125 59.78125,23.96875 C59.875,27.625 57.28125,29.28125 56.03125,29.59375" id="Path" stroke="#703D29" stroke-width="0.3"></path>
                    <path d="M53.0625,35.125 L53.09375,34.625 L53.28125,33.84375 L53.5,33.21875 L53.78125,32.71875 L54.09375,32.3125 M56.53125,31.25 L56.53125,31.71875 L56.375,32.03125 L56.15625,32.375 L55.90625,32.5625 L55.53125,32.71875 L55.1875,32.71875 L54.9375,32.6875 M50.46875,16.1875 L50.5625,15.65625 L50.8125,15.15625 L51.125,14.6875 L51.625,14 L52.0625,13.5625 L52.6875,12.875 L53.3125,12.28125 L53.65625,11.875 L54.125,11.28125 L54.5625,10.65625 L54.8125,10.125 L54.96875,9.4375 L55,8.59375 L54.9375,8.34375 M51.09375,48.40625 L51.59375,48.28125 L51.96875,48.09375 L52.1875,47.875 L52.34375,47.625 L52.4375,47.25 L52.4375,46.96875 M3,43.1875 L3.84375,43.1875 L4.34375,43 M5.90625,31.59375 L5.84375,32.03125 L5.71875,32.21875 L5.59375,32.40625 L5.375,32.5625 L5.15625,32.65625 L4.84375,32.6875 L4.65625,32.6875 M7.75,27.84375 L7.65625,28.5 L7.5,28.8125 L7.25,29.1875 L6.875,29.46875 L6.5,29.65625 L5.78125,29.8125 M10.5625,17.40625 L10.40625,17.8125 L10.25,18.125 L10,18.4375 L9.6875,18.75 L9.3125,18.90625 L8.96875,19 L8.78125,18.96875 M8.875,17.03125 L8.875,17.34375" id="Shape" stroke="#703D29" stroke-width="0.3"></path>
                    <g stroke="#703D29" stroke-width="0.3">
                        <path d="M9.46875,27.5 C9.27875882,27.6849405 9.05628786,27.8332545 8.8125,27.9375 M55.84375,41.9375 L56,42 C56.4375,42.25 57.3125,41.9375 57.0625,41.25" id="Shape" stroke-linecap="round"></path>
                        <path d="M54.3125,32.375 C54.625,32.78125 55.21875,32.90625 55.6875,32.78125 C56.0235703,32.6907636 56.3066991,32.4642607 56.46875,32.15625 C56.65625,31.84375 56.71875,31.40625 56.59375,31 C56.5323363,30.8171034 56.436912,30.6474601 56.3125,30.5 C56.20074,30.3247204 56.0638654,30.1667882 55.90625,30.03125 L55.78125,29.96875 M57.78125,40.59375 C57.7981039,40.5218988 57.8085614,40.4486962 57.8125,40.375 C57.8168146,40.0188972 57.6690322,39.6778609 57.40625,39.4375 L57.15625,39.1875 M57.28125,39.34375 C57.28125,38.78125 56.8125,38.34375 56.21875,38.25 M54.90625,39.125 L54.5,38.8125 C53.6441479,37.9087227 53.1637984,36.7134344 53.15625,35.46875 C53.15625,34.15625 53.65625,32.84375 54.28125,32.34375 M36.625,58.75 L37.1875,58.25 L37.5625,57.9375 L38.28125,57.5 L38.96875,57.1875 L39.46875,57.03125 L40.40625,56.84375 L41.53125,56.65625 M32.3125,62.71875 C31.7238263,63.5723247 30.8982318,64.234973 29.9375,64.625 C28.9830595,64.224332 28.1602012,63.56388 27.5625,62.71875" id="Shape"></path>
                        <path d="M28.25,61.4375 C28.1293627,61.9237871 27.8935689,62.3739389 27.5625,62.75" id="Path" stroke-linecap="round"></path>
                        <path d="M28.34375,60.78125 L28.21875,61.46875 M27.5,62.8125 L27.1875,63.125 L26.65625,63.40625 L26.03125,63.59375 M24.28125,8.03125 C24.375,7.78125 24.4375,7.59375 24.4375,7.21875 C24.40625,5.90625 23.4375,5.3125 23.03125,4.09375 C22.8125,3.375 22.71875,2.75 23.25,2.21875 C23.6875,1.78125 24.25,1.78125 24.8125,2.03125 C26.0625,2.5 27.5,3.84375 30.03125,3.90625 C27.5,3.84375 26.03125,2.5 24.84375,2.03125 C24.21875,1.78125 23.65625,1.71875 23.1875,2.1875 C22.65625,2.6875 22.8125,3.375 23.03125,4.09375 C23.4375,5.3125 24.34375,5.90625 24.375,7.21875 C24.375,7.59375 24.28125,7.78125 24.21875,8.03125 M30,3.75 C32.5,3.625 34.65625,1.9375 35.34375,1.78125 C35.96875,1.65625 36.28125,1.71875 36.75,2.125 C36.3125,1.71875 35.8125,1.75 35.1875,1.96875 C34,2.4375 32.5625,3.78125 30,3.84375 M54.875,39.125 C53.6553154,38.2102366 52.9375,36.7746057 52.9375,35.25 C52.9375,33.96875 53.46875,32.625 54.0625,32.125 M32.1875,62.625 C31.78125,63.25 30.84375,64.1875 29.8125,64.5625 C28.8541278,64.1532848 28.0308492,63.4816627 27.4375,62.625" id="Shape"></path>
                        <path d="M25.84375,8.65625 L26.5625,8.25 C26.875,8.0625 27.28125,8.09375 27.46875,8.3125 C27.65625,8.53125 27.6875,8.9375 27.40625,9.1875" id="Path" stroke-linecap="round"></path>
                        <path d="M22.09375,10.40625 C23.8125,10.03125 25.21875,9.28125 26.28125,8.6875 M36.34375,60 C36.5,60.09375 36.59375,60.3125 36.59375,60.3125 C36.625,60.375 36.6875,60.46875 36.6875,60.5625 C36.78125,61.03125 36.46875,61.3125 36.0625,61.375 C35.53125,61.4375 35.125,61.125 34.96875,60.75 M22,10.3125 C23.71875,9.96875 25.125,9.1875 26.1875,8.59375 M56.6875,42 C56.375,42.125 56.1875,42.09375 55.75,41.9375 L55.1875,41.625 C54.0475165,40.9754124 53.1320185,39.9945217 52.5625,38.8125 C52.3234116,38.3585843 52.1448091,37.875307 52.03125,37.375 C51.9313825,37.0402069 51.8787906,36.6931002 51.875,36.34375 C51.8409715,34.6339822 52.3557227,32.958303 53.34375,31.5625 C53.6875,31.0625 54,30.78125 54.65625,30.75 M9.75,18.46875 C10.2940109,18.898136 10.6061324,19.5570593 10.59375,20.25 C10.59375,21.21875 9.78125,22.8125 7.78125,23.375 C7.11780696,23.5559472 6.409661,23.4660239 5.8125,23.125" id="Shape"></path>
                        <path d="M10.09375,21.75 C10.4375,22 10.59375,22.28125 10.59375,22.78125 C10.59375,23.09375 10.375,23.53125 10,23.9375 C9.29016885,24.7090165 8.29801783,25.1599942 7.25,25.1875 C6.625,25.1875 6,25.0625 5.375,24.65625 C4.77966554,24.2645149 4.35524047,23.6613846 4.1875,22.96875" id="Path"></path>
                        <path d="M10.0625,23.84375 C10.46875,24.21875 10.59375,24.6875 10.59375,25.28125 C10.59375,26.125 10.25,26.78125 9.4375,27.46875 C9.25,27.65625 9.0625,27.78125 8.8125,27.9375 M49.28125,21.03125 L49.28125,22.125 M49.1875,20.75 L49.1875,22.3125 M49.28125,17.375 L49.28125,19.4375 M49.1875,16.9375 L49.1875,19.71875 M48.59375,45.34375 C48.2703035,46.0044982 47.8250032,46.5982318 47.28125,47.09375 C46.7601562,47.6276543 46.1459055,48.061866 45.46875,48.375 C44.8172898,48.7007147 44.122847,48.9321957 43.40625,49.0625 C42.7096096,49.2298116 41.99743,49.3240706 41.28125,49.34375 C40.5,49.34375 40.0625,49.34375 39.28125,49.28125 C38.46875,49.21875 38.03125,49.09375 37.1875,49.03125 C36.5,48.96875 36.125,48.90625 35.4375,48.9375 C34.2657071,48.8952645 33.0972135,49.0864726 32,49.5 C31.1875,49.8125 30.21875,50.4375 30.03125,50.6875 C29.436868,50.1809466 28.7605238,49.7793673 28.03125,49.5 C27.5195253,49.2906103 26.9844097,49.1437158 26.4375,49.0625 C25.71875,48.9375 25.34375,48.9375 24.625,48.9375 C23.9375,48.9375 23.5625,48.96875 22.875,49.03125 C22.0625,49.125 21.625,49.21875 20.78125,49.28125 C20,49.34375 19.5625,49.375 18.78125,49.34375 C17.3351214,49.3283317 15.9084049,49.0089176 14.59375,48.40625 C13.8305815,48.0498451 13.1495859,47.5390984 12.59375,46.90625 M25.75,63.59375 L26.3125,63.53125 M35.78125,62.78125 L36.34375,62.75 L36.875,62.53125 L37.25,62.28125 L37.78125,61.65625 L37.875,61.46875 L37.96875,60.9375 L37.96875,60.6875 M52.65625,17.96875 C52.875,17.15625 52.59375,16.28125 51.78125,16.3125 M10.53125,30.84375 C10.360021,31.4513407 9.97054716,31.9743484 9.4375,32.3125 M10.5625,17.71875 C10.3856911,18.2783744 9.97547252,18.7341728 9.4375,18.96875 C8.84375,19.21875 8.1875,18.96875 7.8125,18.71875" id="Shape"></path>
                        <path d="M6.1875,20.75 C6.65625,21 7.15625,20.625 7.0625,20 C6.97273077,19.6292484 6.66040617,19.3544028 6.28125,19.3125" id="Path" stroke-linecap="round"></path>
                        <path d="M8.1875,47.0625 C8.28125,47.15625 8.3125,47.28125 8.4375,47.3125 C8.65625,47.375 8.8125,47.4375 9.03125,47.15625 C9.28125,46.8125 9.125,46.28125 8.875,45.9375 C8.40262596,45.451117 7.67047724,45.3248845 7.0625,45.625 C6.8125,45.78125 6.53125,45.9375 6.25,46.3125 L5.90625,46.8125 C5.6875,47.15625 5.59375,47.4375 5.5625,47.5625 C4.9375,49.40625 5.6875,51.3125 6.84375,52.46875" id="Path"></path>
                        <path d="M36.3125,59.9375 L36.53125,60.1875 L36.59375,60.46875 C36.6875,60.9375 36.375,61.21875 35.96875,61.28125 C35.46875,61.34375 35.09375,61.03125 34.9375,60.65625" id="Path" stroke-linecap="round"></path>
                        <path d="M51.6875,5.875 C52.7829244,6.03861118 53.608532,6.95595305 53.65625,8.0625 C53.65625,9.4375 53.1875,9.9375 52.46875,10.9375 C51.6875,12 49.125,13.9375 49.125,16.15625 C49.125,17.5 49.5,18.34375 50.46875,18.78125 C51.09375,19.09375 51.8125,18.78125 52.15625,18.46875 C52.96875,17.71875 52.625,16.4375 51.78125,16.28125 C50.78125,16.09375 50.5625,17.71875 51.5625,17.625 M57.15625,39.1875 C57.0521524,38.6470872 56.5815752,38.2549396 56.03125,38.25 C55.3926708,38.25 54.875,38.7676708 54.875,39.40625 C54.875,39.71875 55,40.03125 55.1875,40.21875" id="Shape"></path>
                        <path d="M49.96875,18.46875 C49.4247391,18.898136 49.1126176,19.5570593 49.125,20.25 C49.125,21.21875 49.9375,22.8125 51.9375,23.375 C52.6875,23.59375 53.4375,23.5625 53.875,23.28125 M5.125,20.0625 C4.51991367,20.2553509 3.99362204,20.6391052 3.625,21.15625 C2.8805481,22.3364014 2.6333849,23.7632071 2.9375,25.125 C3.06204407,25.7492087 3.30610668,26.3434481 3.65625,26.875 C3.74793453,27.0098947 3.8526,27.1354932 3.96875,27.25 L4.34375,27.5625 M24.34375,56.3125 C25.875,56.96875 26.96875,57.46875 27.90625,58.96875 C28.1600591,59.4387307 28.2891674,59.965923 28.28125,60.5 C28.28125,61.34375 27.96875,62.28125 27.25,62.875 C26.6781679,63.3814832 25.9121503,63.6101452 25.15625,63.5 C24.5625,63.4375 24,63 23.90625,62.6875 M9.375,27.53125 C10.21875,28.21875 10.59375,28.84375 10.59375,29.875 C10.6322719,30.8249709 10.1541135,31.721518 9.34375,32.21875" id="Shape"></path>
                        <path d="M8.59375,31.375 C9.84375,32.96875 10.5625,33.90625 10.59375,35.78125 C10.625,37.5625 10.0625,38.78125 9.03125,40.0625" id="Path" stroke-linecap="round"></path>
                        <path d="M33.0625,10.40625 C33.290886,10.2356161 33.4558389,9.99368503 33.53125,9.71875 C33.6875,9.25 33.6875,8.84375 33.46875,8.46875 C33.78125,8.90625 33.78125,9.25 33.6875,9.71875 C33.65625,10.03125 33.4375,10.1875 33.1875,10.4375 M49.28125,37.34375 L49.28125,42.40625 L49.25,43.1875 C49.2231988,43.3653397 49.191939,43.5424788 49.15625,43.71875" id="Shape"></path>
                        <path d="M49.1875,36.875 L49.1875,43.09375 L49.03125,43.90625 M49.1875,30.46875 L49.1875,35.03125 M49.28125,30.84375 L49.28125,34.53125 M49.28125,26.15625 L49.28125,28.90625 M49.1875,25.8125 L49.1875,29.25 M49.28125,23.3125 L49.28125,24.40625 M49.1875,23.09375 L49.1875,24.65625 M48.625,45.03125 L48.5,45.25 C48.1892169,45.9193229 47.7544716,46.523725 47.21875,47.03125 C46.6857362,47.5571092 46.0608206,47.9807808 45.375,48.28125 C44.7333622,48.6041918 44.0496282,48.8356095 43.34375,48.96875 C42.5,49.15625 42.03125,49.21875 41.1875,49.25 C40.40625,49.25 39.96875,49.25 39.21875,49.1875 C38.375,49.125 37.9375,49.03125 37.09375,48.9375 C36.40625,48.875 36.03125,48.84375 35.34375,48.84375 C34.65625,48.84375 34.25,48.84375 33.5625,48.96875 C33.0049612,49.0474883 32.459207,49.1944221 31.9375,49.40625 C31.09375,49.75 30.15625,50.34375 29.9375,50.59375 C29.75,50.34375 28.78125,49.75 27.96875,49.40625 C27.447043,49.1944221 26.9012888,49.0474883 26.34375,48.96875 C25.65625,48.84375 25.25,48.84375 24.53125,48.84375 C23.84375,48.84375 23.46875,48.875 22.78125,48.9375 C21.96875,49.03125 21.53125,49.125 20.6875,49.1875 C19.90625,49.25 19.46875,49.28125 18.71875,49.25 C17.2620691,49.2389735 15.8242516,48.9194585 14.5,48.3125 C13.8224903,47.9999789 13.2081341,47.5656927 12.6875,47.03125 C12.4026312,46.7623728 12.1412634,46.4696409 11.90625,46.15625 M11.28125,45.15625 C11.3848089,46.0232225 11.1245989,46.8943604 10.5625,47.5625 C10.3125,47.84375 9.75,48.375 9,48.375 C7.84375,48.375 7.5,47.59375 7.4375,47.375" id="Shape"></path>
                        <path d="M9.875,44.65625 C10.09375,44.875 10.28125,45.125 10.46875,45.4375 C10.78125,46 10.65625,46.9375 10.4375,47.375 C10.4086446,47.41841 10.3773441,47.460144 10.34375,47.5 M4,53.125 C4.71875,53.875 5.78125,54.6875 7.40625,55.34375 C9.625,56.28125 13.0625,56.46875 15.4375,56.59375 C18.5625,56.6875 21.46875,56.8125 23.25,58.78125 M28.65625,57.53125 C29.2299395,57.9716412 29.6640417,58.5685316 29.90625,59.25 M27.625,62.84375 C27.5565553,62.9210056 27.4835056,62.9940553 27.40625,63.0625 C26.8419364,63.5601092 26.0893583,63.7881631 25.34375,63.6875 C24.71875,63.625 24.15625,63.1875 24,62.875 M22.3125,61.96875 L22.40625,62.09375 C22.8217297,62.5387898 23.3922557,62.8072726 24,62.84375 M32.4375,62.84375 C31.8276726,63.6899769 30.9945614,64.3499741 30.03125,64.75 C29.0768095,64.349332 28.2539512,63.68888 27.65625,62.84375 L27.5625,62.6875 M32.4375,62.8125 L32.65625,63.03125 C33.2280821,63.5377332 33.9940997,63.7663952 34.75,63.65625 C35.2628575,63.5967938 35.7218209,63.3099416 36,62.875 L36.15625,62.65625" id="Shape"></path>
                        <polyline id="Path" points="35.9375 62.6875 35.71875 63.0625 35.375 63.375 34.84375 63.59375 34.34375 63.59375"></polyline>
                        <path d="M37.1875,59.15625 C37.5086269,59.391631 37.7663273,59.703019 37.9375,60.0625 C38.03125,60.28125 38.0625,60.53125 38.09375,60.78125 C38.1186718,61.2637385 37.9499322,61.7362093 37.625,62.09375 C37.1888419,62.5641525 36.5789357,62.835222 35.9375,62.84375 C35.8958471,62.8452657 35.8541529,62.8452657 35.8125,62.84375 M35.875,62.78125 C35.259294,62.7984222 34.6664295,62.5475949 34.25,62.09375 M54.15625,40.875 C53.5469842,40.2977443 53.039821,39.6215268 52.65625,38.875 C52.4196797,38.4309328 52.2411352,37.9583149 52.125,37.46875 C52.0251325,37.1339569 51.9725406,36.7868502 51.96875,36.4375 C51.9342398,34.7323804 52.4371574,33.0596328 53.40625,31.65625 C53.625,31.40625 53.84375,31.09375 54.0625,30.96875 M53.65625,7.25 C54.4375,7.3125 55.15625,8.1875 55.15625,9.03125 C55.15625,10.21875 54.75,10.75 53.78125,11.9375 C52.96875,12.9375 50.46875,14.75 50.5625,16.46875 C50.5625,16.78125 50.71875,17.09375 50.90625,17.34375 M49.90625,18.4375 C50.0873484,18.618817 50.2988983,18.766902 50.53125,18.875 C50.9703314,19.0483395 51.4642421,19.0138807 51.875,18.78125 M45.3125,5.3125 C45.6153382,5.51123938 45.8541268,5.7934441 46,6.125 C46.5625,7.53125 45.3125,8.59375 44.125,9.375 C43.3430179,9.89820165 42.4590007,10.2496784 41.53125,10.40625" id="Shape"></path>
                        <path d="M43.9375,8 C43.5624245,7.98940926 43.2098166,7.81879254 42.96875,7.53125 C42.8775785,7.44113259 42.8034677,7.33526004 42.75,7.21875 M38.0625,8.75 C37.9205985,8.66797379 37.7937703,8.56228363 37.6875,8.4375 C37.375,8.125 37.21875,7.71875 37.4375,7.0625 C37.625,6.46875 38.59375,4.8125 38.625,3.65625 C38.6875,1.90625 38,0.84375 36.96875,0.46875" id="Shape"></path>
                        <path d="M38.53125,3.28125 L38.5,3.90625 L38.3125,4.59375 L38,5.53125 L37.6875,6.125 L37.4375,6.71875 L37.3125,7.125 L37.25,7.4375 L37.28125,7.71875 M49.15625,47.1875 L49.34375,47.4375 C49.5625,47.75 50.34375,48.375 51.0625,48.375 C52.21875,48.375 52.5,47.5625 52.53125,47.375 C52.6875,46.46875 52.375,46.25 51.90625,45.96875 C51.90625,45.96875 51.65625,45.84375 51.3125,45.90625" id="Shape" stroke-linecap="round"></path>
                        <path d="M4.0625,43.25 C3.68427061,43.3552634 3.28447939,43.3552634 2.90625,43.25 C2,42.96875 1.28125,42.125 1.65625,41.0625 M5.84375,31.125 C5.9375,31.21875 5.96875,31.34375 5.96875,31.4375 C6.09375,32.625 5.09375,32.9375 4.40625,32.75 C4.01988788,32.6263216 3.68849568,32.3722542 3.46875,32.03125 C3.33475387,31.814683 3.25937096,31.5669964 3.25,31.3125 M10.125,23.9375 C10.3125,24.09375 10.4375,24.25 10.53125,24.46875 M10.1875,21.8125 C10.34375,21.9375 10.46875,22.09375 10.53125,22.21875" id="Shape"></path>
                        <path d="M10.59375,23.28125 C10.4710285,23.5579097 10.3019276,23.811561 10.09375,24.03125 C9.38391885,24.8027665 8.39176783,25.2537442 7.34375,25.28125 C6.71875,25.28125 6.09375,25.15625 5.46875,24.75 C4.84801599,24.3433889 4.40206303,23.7190547 4.21875,23" id="Path" stroke-linecap="round"></path>
                        <path d="M9.8125,18.53125 C10.1541136,18.8109551 10.4133413,19.1781943 10.5625,19.59375" id="Path"></path>
                        <path d="M10.5625,21 C10.28125,21.9375 9.46875,23.0625 7.875,23.46875 C7.125,23.65625 6.125,23.40625 5.8125,23.15625" id="Path" stroke-linecap="round"></path>
                        <path d="M5,20.8125 C5.09375,21.625 5.625,22.25 6.6875,22.25 C8.15625,22.28125 9.0625,20.15625 7.75,18.65625" id="Path"></path>
                        <path d="M1.6875,27.96875 C1.90625,28.25 2.15625,28.5 2.4375,28.71875 C2.98507333,29.1875794 3.62332939,29.5386202 4.3125,29.75 M5.9375,29.90625 C7.25,29.75 8,28.75 7.8125,27.625 C7.71875,26.75 6.9375,26.0625 6.375,26.03125" id="Shape" stroke-linecap="round"></path>
                        <path d="M8.0625,16.28125 C8.65625,16.28125 9,16.78125 8.96875,17.21875" id="Path"></path>
                        <path d="M7.9375,8.4375 C8.22986673,9.21403469 8.78193565,9.86547601 9.5,10.28125 M54.5625,19.96875 C55.09375,20.6875 54.75,22.15625 53.3125,22.15625 C52.7386875,22.1623991 52.2041752,21.8654479 51.90625,21.375" id="Shape" stroke-linecap="round"></path>
                        <path d="M49.28125,10.34375 L49.28125,15.3125" id="Path"></path>
                        <path d="M6.1875,20.71875 C6.625,21.03125 7.21875,20.5 6.96875,19.90625 C6.8125,19.53125 6.28125,19.09375 5.5,19.625 C4.625,20.21875 4.875,22.0625 6.5,22.09375 C7.96875,22.09375 8.875,19.96875 7.5625,18.46875 C6.3125,17.03125 4.03125,17.34375 2.5625,18.53125 C1.43105765,19.469603 0.640293884,20.7545941 0.3125,22.1875 C0.114482831,23.1356044 0.114482831,24.1143956 0.3125,25.0625 C0.469615556,25.8972811 0.788062217,26.6933978 1.25,27.40625 L1.65625,27.9375 C1.90625,28.1875 1.96875,28.3125 2.28125,28.5625 C3.17823077,29.3470114 4.34032859,29.7604501 5.53125,29.71875 C6.96875,29.65625 7.8125,28.65625 7.65625,27.4375 C7.53125,26.25 6.34375,25.65625 5.5625,26.21875 C5.03125,26.59375 4.84375,27.75 5.78125,28.03125 C6.28125,28.1875 6.75,27.5 6.40625,27.09375 M46.875,4.65625 C47.71875,4.21875 48.375,4.28125 48.84375,4.96875 C49.2940042,5.62635158 49.4731138,6.43234442 49.34375,7.21875 C49.2229651,7.94003829 48.8318417,8.58818566 48.25,9.03125" id="Shape" stroke-linecap="round"></path>
                        <path d="M48.90625,5 C49.875,4.375 50.9375,4.65625 51.5,5.5 C51.90625,6.125 52.03125,6.625 52,7.40625 C51.939403,8.60689665 51.2668477,9.69242448 50.21875,10.28125" id="Path" stroke-linecap="round"></path>
                        <path d="M53.4375,7.25 C54.25,7.3125 54.875,8.03125 54.875,8.84375 C54.875,10.03125 54.5625,10.5625 53.625,11.75 C52.78125,12.78125 50.3125,14.5625 50.375,16.3125 C50.375,16.96875 50.9375,17.5625 51.40625,17.625" id="Path"></path>
                        <path d="M53.5625,20.71875 C53.09375,21.03125 52.53125,20.53125 52.78125,19.96875 C52.9375,19.59375 53.46875,19.09375 54.25,19.625 C55.09375,20.21875 54.875,22.0625 53.21875,22.09375 C51.75,22.09375 50.71875,20.03125 52.15625,18.46875 C53.40625,17.03125 55.8125,17.3125 57.3125,18.5 C57.9375,19 59.21875,20.375 59.5,22.25 C59.8125,24.4375 59.78125,27.125 57.5,28.8125 C56.5625,29.46875 55.3125,29.78125 54.1875,29.75 C52.75,29.6875 51.90625,28.65625 52.0625,27.4375 C52.21875,26.25 53.3125,25.75 54.15625,26.21875 C55.03125,26.6875 54.875,27.90625 53.9375,28.03125 C53.40625,28.09375 52.96875,27.5 53.3125,27.09375" id="Path" stroke-linecap="round"></path>
                        <path d="M52.78125,19.96875 C53.03125,18.875 53.9375,18.78125 54.71875,18.78125 C56.75,18.8125 58.1875,21.28125 58.21875,23.625 C58.21875,26.59375 56.96875,28.375 54.78125,28.46875 C54.1875,28.46875 53.21875,28.21875 53.21875,27.53125" id="Path"></path>
                        <path d="M54.0625,19.46875 C56.21875,19.96875 56.96875,21.90625 56.96875,23.78125 C56.96875,25.3125 56.8125,27.40625 53.84375,28.125" id="Path" stroke-linecap="square"></path>
                        <path d="M57.625,40.40625 C57.7211672,39.8216088 57.3829353,39.2525096 56.8234308,39.0575528 C56.2639264,38.862596 55.6452738,39.0982732 55.3572981,39.6160795 C55.0693225,40.1338859 55.1954689,40.7837796 55.65625,41.15625" id="Path"></path>
                        <path d="M53.25,38.5625 C53.6875,39.1875 54.1875,39.84375 55.21875,40.4375 M54.8125,43.71875 C53.8125,43.03125 51.84375,42.15625 50.125,43.03125 C49.4914403,43.2723503 48.9911003,43.7726903 48.75,44.40625 C48.4148311,45.4267412 48.6272519,46.547851 49.3125,47.375 C49.59375,47.6875 50.15625,48.1875 50.875,48.21875 C52.0625,48.21875 52.34375,47.40625 52.375,47.21875 C52.5,46.34375 52,46 51.75,45.9375 C51.53125,45.84375 50.875,45.875 50.75,46.34375 C50.6875,46.5 50.6875,46.75 50.8125,46.96875" id="Shape" stroke-linecap="round"></path>
                        <path d="M36.40625,60.125 C36.71875,60.8125 36.34375,61.125 35.90625,61.1875 C35.21875,61.28125 34.875,60.75 34.84375,60.25 C34.8180263,59.8747456 34.9471521,59.5053352 35.2010483,59.2278207 C35.4549444,58.9503063 35.8114432,58.7889179 36.1875,58.78125 C36.90625,58.78125 37.46875,59.25 37.75,59.875 C37.84375,60.09375 37.90625,60.34375 37.90625,60.625 C37.9313889,61.0925619 37.7746063,61.5517109 37.46875,61.90625 C37.0380449,62.3882209 36.427414,62.6709203 35.78125,62.6875 C34.46875,62.71875 33.4375,61.5 33.4375,60.25 C33.4375,57.84375 37,56.5 38.4375,56.1875 C40.2697116,55.7371993 42.1451317,55.4857464 44.03125,55.4375 C45.125,55.40625 45.96875,55.4375 47.1875,55.28125 C48.28125,55.1875 48.875,55.125 50,54.875 C51.4657894,54.5668992 52.8241388,53.8769439 53.9375,52.875 C54.84375,52.03125 55.34375,51.46875 55.78125,50.3125 C56.2740296,48.8732047 56.12612,47.2917094 55.375,45.96875 C54.6787237,44.8100319 53.4953517,44.0287766 52.15625,43.84375 C51,43.6875 49.96875,44.1875 49.34375,45.34375 C49.03125,45.90625 49.15625,46.84375 49.375,47.28125 C49.6869143,47.8247832 50.2497493,48.1765551 50.875,48.21875 C52.0625,48.21875 52.34375,47.40625 52.375,47.21875 C52.5,46.34375 52,46 51.75,45.90625 C51.53125,45.84375 50.875,45.875 50.75,46.34375 C50.6875,46.5 50.6875,46.75 50.8125,46.96875" id="Path" stroke-linecap="round"></path>
                        <path d="M35.375,56.3125 C33.875,56.96875 32.75,57.46875 31.8125,58.96875 C31.5573673,59.4382199 31.4281727,59.9657645 31.4375,60.5 C31.4375,61.34375 31.78125,62.28125 32.46875,62.875 C33.0405821,63.3814832 33.8065997,63.6101452 34.5625,63.5 C35.1875,63.4375 35.71875,63 35.8125,62.6875" id="Path" stroke-linecap="round"></path>
                        <path d="M50.34375,27.53125 C49.625,27.78125 49.125,28.84375 49.125,29.875 C49.0864781,30.8249709 49.5646365,31.721518 50.375,32.21875" id="Path"></path>
                        <path d="M51.125,31.375 C49.875,32.96875 49.15625,33.90625 49.125,35.78125 C49.125,37.5625 49.65625,38.78125 50.71875,40.0625" id="Path" stroke-linecap="round"></path>
                        <path d="M44.34375,5 L44.4375,4.84375 C44.96875,4.09375 45.90625,3.875 46.59375,4.375 C47.40625,5 47.625,6.0625 47.40625,7.1875 C47.25,7.875 46.78125,8.46875 46.15625,8.90625" id="Path"></path>
                        <path d="M12.84375,4.625 C12.03125,4.25 11.375,4.3125 10.875,4.9375 C10.382935,5.57625072 10.1997767,6.400463 10.375,7.1875 C10.5625,8.03125 10.8125,8.375 11.46875,9" id="Path" stroke-linecap="round"></path>
                        <path d="M10.8125,5 C10.4071317,4.70693301 9.89866947,4.59442158 9.40750061,4.68910473 C8.91633175,4.78378789 8.4861289,5.0772468 8.21875,5.5 C7.83019947,6.05550872 7.6528776,6.73154838 7.71875,7.40625 C7.78125,8.71875 8.59375,9.78125 9.53125,10.28125" id="Path"></path>
                        <path d="M8.03125,5.875 C6.97966632,5.99930912 6.1800724,6.87886244 6.15625,7.9375 C6.15625,9.34375 6.46875,9.90625 7.25,10.9375 C8.03125,12 10.59375,13.9375 10.59375,16.15625 C10.59375,17.5 10.21875,18.34375 9.25,18.78125 C8.625,19.09375 7.90625,18.78125 7.5625,18.46875 C6.75,17.71875 7.09375,16.4375 7.9375,16.28125 C8.96875,16.09375 9.15625,17.71875 8.15625,17.625" id="Path"></path>
                        <path d="M6.25,7.25 C5.46875,7.3125 4.6875,7.96875 4.6875,8.8125 C4.6875,10 5.15625,10.5625 6.125,11.75 C6.9375,12.78125 9.28125,14.5625 9.21875,16.28125 C9.21875,16.90625 8.75,17.71875 8.3125,17.625" id="Path"></path>
                        <path d="M4.375,31.28125 C4.78125,30.375 5.75,30.78125 5.8125,31.28125 C5.9375,32.4375 4.9375,32.78125 4.21875,32.59375 C3.88267965,32.5032636 3.59955091,32.2767607 3.4375,31.96875 C3.24203763,31.6158259 3.19698011,31.1990438 3.3125,30.8125 C3.37391371,30.6296034 3.46933803,30.4599601 3.59375,30.3125 C3.69646862,30.167045 3.82329502,30.0402186 3.96875,29.9375 C4.28125,29.75 4.5625,29.75 5.03125,29.75 C6.75,29.75 8.28125,31.78125 8.78125,33.9375 C8.96875,34.625 9.1875,36.21875 8.875,37.6875 C8.62420203,39.0148075 7.9947254,40.2412017 7.0625,41.21875 C6.17134071,42.0515146 5.10285483,42.6712364 3.9375,43.03125 C3.54241996,43.1569505 3.11975282,43.1677881 2.71875,43.0625 C1.84375,42.78125 1.28125,41.96875 1.71875,40.875 C2.09375,40.0625 3.40625,39.625 4,40.6875 C4.0625,40.78125 4.125,40.96875 4.125,41.15625 C4.125,41.4375 4,41.78125 3.8125,41.90625 C3.375,42.1875 2.65625,42.09375 2.6875,41.28125" id="Path" stroke-linecap="round"></path>
                        <path d="M3.0625,42 C3.375,42.125 3.5625,42.09375 3.96875,41.9375 L4.53125,41.625 C5.34375,41.15625 6.28125,40.4375 7.15625,38.78125 C7.3928203,38.3371828 7.57136484,37.8645649 7.6875,37.375 C7.78125,37.0625 7.84375,36.6875 7.875,36.34375 C7.89992647,34.6304894 7.3741228,32.9544902 6.375,31.5625 C6.03125,31.0625 5.75,30.78125 5.0625,30.75 M2.09375,40.4375 C1.98379188,39.8525329 2.31245045,39.2737101 2.87113204,39.0684002 C3.42981363,38.8630902 4.05507022,39.0913584 4.35006273,39.6083272 C4.64505524,40.125296 4.52348058,40.7797208 4.0625,41.15625" id="Shape"></path>
                        <path d="M2.5625,39.1875 C2.66876411,38.6354701 3.15667671,38.2398653 3.71875,38.25 C4.34509294,38.2669343 4.84397888,38.7796782 4.84375,39.40625 C4.8461881,39.7068765 4.73451045,39.9972384 4.53125,40.21875" id="Path"></path>
                        <path d="M4.8125,39.15625 C6.03218455,38.2414866 6.75,36.8058557 6.75,35.28125 C6.75,34 6.25,32.65625 5.625,32.15625" id="Path"></path>
                        <path d="M6.46875,38.5625 C5.99205726,39.3523722 5.31217247,39.9998815 4.5,40.4375" id="Path" stroke-linecap="round"></path>
                        <path d="M9.5625,43.03125 C9.25,42.34375 8.6875,42.03125 7.75,41.9375 C6.8125,41.84375 6.03125,42.09375 5.1875,42.53125 C3.11813271,43.4871107 1.79848732,45.5643303 1.8125,47.84375 C1.82484365,48.8646661 2.03717989,49.8732632 2.4375,50.8125 C2.71875,51.3125 3.375,53.625 7.21875,55.1875 C9.81872803,55.9978534 12.5266653,56.4087855 15.25,56.40625 C18.5,56.53125 21.5,56.65625 23.25,58.78125" id="Path"></path>
                        <path d="M4.90625,43.71875 C5.9375,43.03125 7.875,42.15625 9.625,43.03125 C10.2382915,43.2921445 10.7220212,43.7871237 10.96875,44.40625 C11.3039189,45.4267412 11.0914981,46.547851 10.40625,47.375 C10.125,47.6875 9.5625,48.1875 8.84375,48.21875 C7.65625,48.21875 7.375,47.40625 7.34375,47.21875 C7.21875,46.34375 7.71875,46 7.96875,45.90625 C8.1875,45.84375 8.84375,45.875 8.96875,46.34375 C9.03125,46.5 9.03125,46.75 8.90625,46.96875" id="Path" stroke-linecap="round"></path>
                        <path d="M8.96875,46.78125 C9.0625,46.46875 9.03125,46.09375 8.71875,45.75 C8.23106226,45.243727 7.46927288,45.1167621 6.84375,45.4375 C6.625,45.59375 6.34375,45.75 6.09375,46.125 C5.96875,46.25 5.78125,46.46875 5.71875,46.625 C5.5,46.96875 5.40625,47.25 5.40625,47.40625 C4.625,49.59375 5.875,51.90625 7.4375,52.90625 C8.8125,53.78125 10.1875,54.03125 11.9375,54.15625 C12.71875,54.25 13.1875,54.25 13.96875,54.3125 L16.96875,54.3125 C17.7182548,54.2739582 18.4692452,54.2739582 19.21875,54.3125 C20.15625,54.40625 20.8125,54.4375 21.59375,54.5625 C22.09375,54.625 22.6875,54.71875 23.28125,54.875 C23.46875,54.875 23.65625,54.9375 23.84375,55 L24.21875,55.09375 C25.34375,55.4375 26.40625,55.84375 27.28125,56.40625 C27.53125,56.5625 27.84375,56.71875 28.0625,56.9375 L28.46875,57.3125 C29.09375,57.9375 29.71875,58.5625 29.84375,59.40625 L29.84375,59.90625 C29.84375,60.46875 29.40625,61.25 28.1875,61.46875" id="Path"></path>
                        <path d="M23.3125,60.125 C23,60.8125 23.375,61.125 23.8125,61.1875 C24.5,61.28125 24.84375,60.75 24.90625,60.25 C24.9322633,59.8693743 24.7989651,59.495051 24.5382294,59.2165379 C24.2774938,58.9380248 23.9127625,58.7803621 23.53125,58.78125 C22.8373503,58.7969009 22.2209649,59.2283707 21.96875,59.875 C21.8723164,60.1136692 21.819398,60.3676775 21.8125,60.625 C21.7873611,61.0925619 21.9441437,61.5517109 22.25,61.90625 C22.6807051,62.3882209 23.291336,62.6709203 23.9375,62.6875 C25.25,62.71875 26.28125,61.5 26.28125,60.25 C26.28125,57.84375 22.71875,56.5 21.28125,56.1875 C19.4490384,55.7371993 17.5736183,55.4857464 15.6875,55.4375 C14.59375,55.40625 13.75,55.4375 12.53125,55.28125 C11.4375,55.1875 10.84375,55.125 9.71875,54.875 C8.26404933,54.5617484 6.91707222,53.8720962 5.8125,52.875 C3.65980627,51.2812639 3.03021657,48.3342483 4.34375,46 C5.03312511,44.8293474 6.21759944,44.0358646 7.5625,43.84375 C8.75,43.6875 9.75,44.1875 10.375,45.34375 C10.6875,45.90625 10.5625,46.84375 10.34375,47.28125 C10.0318357,47.8247832 9.4690007,48.1765551 8.84375,48.21875 C7.65625,48.21875 7.375,47.40625 7.34375,47.21875 C7.21875,46.34375 7.71875,46 7.96875,45.90625 C8.1875,45.84375 8.84375,45.875 8.96875,46.34375 C9.03125,46.5 9.03125,46.75 8.90625,46.96875" id="Path"></path>
                        <path d="M15.40625,5 L15.28125,4.84375 C14.75,4.09375 13.8125,3.875 13.125,4.375 C12.3125,5 12.09375,6.0625 12.34375,7.1875 C12.5195913,7.90185025 12.9683301,8.51886604 13.59375,8.90625" id="Path" stroke-linecap="round"></path>
                        <path d="M44.625,7.375 C43.375,8.75 42.09375,9.1875 40.21875,9.25 C39.59375,9.25 38.5,9.0625 37.84375,8.59375 C37.4375,8.28125 36.96875,7.78125 37.25,6.875 C37.4375,6.28125 38.40625,4.625 38.4375,3.46875 C38.53125,1.71875 37.84375,0.75 36.78125,0.375 C34.84375,-0.3125 32.71875,1.625 31.46875,2.0625 C30.8125,2.28125 30.46875,2.3125 29.875,2.3125 C29.25,2.3125 28.9375,2.28125 28.25,2.0625 C27,1.625 24.90625,-0.3125 22.9375,0.375 C21.875,0.75 21.21875,1.71875 21.28125,3.5 C21.3125,4.625 22.28125,6.3125 22.46875,6.875 C22.78125,7.78125 22.3125,8.28125 21.875,8.59375 C21.25,9.0625 20.09375,9.25 19.53125,9.21875 C17.65625,9.1875 16.375,8.75 15.125,7.375" id="Path"></path>
                        <path d="M22.90625,55.75 C23.15625,55.84375 22.96875,55.6875 24.5625,56.375 C26.0179664,56.8802252 27.2615508,57.8596855 28.09375,59.15625 C28.4594816,59.8578849 28.5593644,60.668045 28.375,61.4375" id="Path" stroke-linecap="round"></path>
                        <path d="M23.03125,62.5 C23.3412142,62.662733 23.6819012,62.7585512 24.03125,62.78125 C25.34375,62.8125 26.375,61.59375 26.375,60.34375 C26.375,59.46875 25.90625,58.71875 25.25,58.15625" id="Path"></path>
                        <path d="M23.3125,60.125 C23,60.84375 23.4375,61.21875 23.875,61.28125 C24.5625,61.34375 24.9375,60.84375 25,60.34375 C25.0385871,59.8112099 24.7722534,59.3027546 24.3125,59.03125" id="Path" stroke-linecap="round"></path>
                        <path d="M51.90625,5.875 C52.90625,5.875 53.78125,7 53.78125,8.125 C53.78125,9.46875 53.09375,10.28125 52.5625,10.875 C52.15625,11.375 51.71875,11.8125 51.1875,12.34375" id="Path"></path>
                        <path d="M50.71875,4.8125 C51.0590588,4.9994231 51.3569788,5.25478311 51.59375,5.5625 C52,6.1875 52.125,6.71875 52.09375,7.5 C52.03125,8.8125 51.09375,9.71875 50.21875,10.3125 M48.75,4.8125 L48.9375,5.03125 C49.53125,5.71875 49.5625,6.71875 49.4375,7.28125 C49.2956406,7.98530884 48.8648258,8.59751933 48.25,8.96875 M46.6875,4.46875 C47.5,5.09375 47.75,6.15625 47.46875,7.28125 C47.28125,8.0625 46.78125,8.53125 46.15625,8.90625 M49.625,21.75 C49.71875,22.0625 49.90625,22.15625 50.09375,22.375 C50.6300786,22.9063845 51.2991818,23.2841041 52.03125,23.46875 C52.78125,23.6875 53.46875,23.53125 54,23.1875 M3.0625,40.0625 C3.4375,40.0625 3.84375,40.34375 4.09375,40.78125 C4.125,40.84375 4.21875,41.03125 4.21875,41.25 C4.21875,41.53125 4.09375,41.8125 3.90625,41.9375 C3.4375,42.25 2.65625,42.09375 2.65625,41.3125" id="Shape" stroke-linecap="round"></path>
                        <path d="M5.46875,29.78125 C7.03125,30.09375 8.5,31.9375 8.96875,33.9375 C9.15625,34.65625 9.375,36.21875 9.0625,37.6875 C8.79982427,39.0329814 8.147857,40.2717192 7.1875,41.25 C6.98617024,41.4663581 6.76661176,41.6650062 6.53125,41.84375 L6.21875,42.0625 M3.71875,38.28125 C4.34375,38.28125 4.90625,38.875 4.90625,39.53125 C4.9086881,39.8318765 4.79701045,40.1222384 4.59375,40.34375" id="Shape"></path>
                        <path d="M3.3125,38.96875 C3.96875,38.96875 4.59375,39.59375 4.59375,40.28125 C4.59436899,40.6432127 4.4340643,40.9867228 4.15625,41.21875" id="Path"></path>
                        <path d="M9.375,32.34375 C9.95914931,33.0382937 10.3665744,33.8638654 10.5625,34.75 M10.5625,37.40625 C10.4584927,37.8406825 10.3010426,38.2605495 10.09375,38.65625 C9.80336811,39.2052007 9.42310966,39.7016493 8.96875,40.125" id="Shape" stroke-linecap="round"></path>
                        <path d="M9.46875,27.59375 C10.03125,28.0625 10.40625,28.53125 10.5625,29.09375" id="Path"></path>
                        <path d="M10.59375,26.09375 C10.3871068,26.6661501 10.0178301,27.1657597 9.53125,27.53125 M6.65625,22.15625 L7.34375,21.96875 L7.75,21.65625 L8,21.3125 L8.21875,20.75 L8.3125,20.28125" id="Shape" stroke-linecap="round"></path>
                        <path d="M5.3125,19.78125 C5.09375,19.84375 4.8125,19.90625 4.53125,20.03125 C4.09146117,20.2434983 3.71451306,20.5665967 3.4375,20.96875 C2.69626768,22.1501373 2.44933261,23.5756261 2.75,24.9375 C2.87454407,25.5617087 3.11860668,26.1559481 3.46875,26.6875 L3.78125,27.125 C4.21875,27.53125 4.59375,27.75 5.21875,27.65625" id="Path"></path>
                        <path d="M9.0625,16.8125 C8.96875,17.21875 8.75,17.71875 8.125,17.65625" id="Path" stroke-linecap="round"></path>
                        <path d="M6.78125,19.53125 C6.15625,18.9375 4.90625,18.78125 3.625,19.59375 L3.125,20 C2.95949574,20.1483732 2.81259058,20.3162648 2.6875,20.5 C2.35603241,20.9776547 2.10285359,21.5051106 1.9375,22.0625 C1.71875,23 1.71875,23.8125 1.75,24.03125 C1.75,24.34375 1.8125,24.625 1.84375,24.875 C2.03125,25.75 2.28125,26.375 2.5625,26.8125 C2.84375,27.28125 3.5,28.375 4.96875,28.5 C5.53125,28.53125 6.46875,28.28125 6.53125,27.5625" id="Path"></path>
                        <path d="M43.6875,6.5625 C43.78125,6.0625 44.40625,5.96875 44.625,6.25 C45,6.75 44.75,7.5625 44,7.78125 C43.5541336,7.86136913 43.0998137,7.69398813 42.8125,7.34375 C42.5,6.9375 42.53125,6.46875 42.65625,6.09375 C42.71875,5.84375 42.9375,5.625 43.1875,5.40625 C44.03125,4.78125 45.40625,4.90625 45.875,6.03125 C46.4375,7.40625 45.1875,8.46875 44,9.25 C42.5625,10.25 40.875,10.4375 39.625,10.40625 C36.75,10.40625 34.59375,9.03125 33.15625,8.21875 C32.84375,8.0625 32.5,8.09375 32.3125,8.3125 C32.1186418,8.57508414 32.1594796,8.94262459 32.40625,9.15625" id="Path" stroke-linecap="round"></path>
                        <path d="M44.25,6.09375 C44.5625,6.09375 44.625,6.21875 44.71875,6.34375 C45.09375,6.8125 44.8125,7.625 44.09375,7.875 M49.65625,23.96875 C48.5625,25.15625 49.59375,27.1875 50.40625,27.65625 C50.6875,27.875 50.8125,27.75 51.03125,27.875" id="Shape" stroke-linecap="round"></path>
                        <path d="M49.71875,21.6875 C49.375,21.9375 49.25,22.21875 49.21875,22.71875 C49.1844036,23.1781276 49.3429286,23.6310561 49.65625,23.96875 C50.4494227,24.6991234 51.4843679,25.1108758 52.5625,25.125 C53.1875,25.125 53.8125,25 54.4375,24.59375 C55.0328345,24.2020149 55.4572595,23.5988846 55.625,22.90625 L49.71875,21.6875 Z M49.125,42.21875 L49.0625,43 C48.9978965,43.7627797 48.785626,44.5057267 48.4375,45.1875 C48.1140535,45.8482482 47.6687532,46.4419818 47.125,46.9375 C46.5919862,47.4633592 45.9670706,47.8870308 45.28125,48.1875 C44.641266,48.5212528 43.9574678,48.7632122 43.25,48.90625 C41.8923933,49.1769895 40.5015702,49.2402087 39.125,49.09375 C38.28125,49.03125 37.84375,48.9375 37,48.84375 C36.3125,48.8125 35.9375,48.75 35.25,48.75 C34.0865765,48.7218719 32.9290409,48.9236441 31.84375,49.34375 C31,49.65625 30.0625,50.28125 29.84375,50.53125 C29.65625,50.25 28.6875,49.65625 27.875,49.34375 C27.3546898,49.1212163 26.8088944,48.9637753 26.25,48.875 C25.5625,48.75 25.15625,48.75 24.4375,48.75 C23.75,48.75 23.375,48.8125 22.6875,48.875 C21.875,48.9375 21.4375,49.0625 20.59375,49.09375 C19.8125,49.15625 19.375,49.1875 18.625,49.15625 C17.8890012,49.1512177 17.155656,49.0674069 16.4375,48.90625 C15.7316218,48.7731095 15.0478878,48.5416918 14.40625,48.21875 C13.7290945,47.905616 13.1148438,47.4714043 12.59375,46.9375 C12.0468124,46.4327469 11.6013289,45.8281622 11.28125,45.15625 C10.9376941,44.483784 10.7255697,43.7519548 10.65625,43 C10.59375,42.6875 10.59375,42.21875 10.59375,42.21875 L10.59375,10.40625 L49.09375,10.40625 L49.09375,42.21875 L49.125,42.21875 Z" id="Shape"></path>
                    </g>
                    <g transform="translate(2.500000, 5.937500)" fill="#C7B37F" fill-rule="nonzero" id="Shape">
                        <path d="M5,40.8125 C5,40.3810275 5.34977754,40.03125 5.78125,40.03125 C6.21272246,40.03125 6.5625,40.3810275 6.5625,40.8125 C6.5625,41.2439725 6.21272246,41.59375 5.78125,41.59375 C5.34977754,41.59375 5,41.2439725 5,40.8125 Z M0.15625,35.3125 C0.15625,34.90625 0.40625,34.59375 0.71875,34.59375 C1.03125,34.59375 1.25,34.90625 1.25,35.3125 C1.25,35.6875 1,36 0.71875,36 C0.40625,36 0.15625,35.6875 0.15625,35.3125 Z" stroke="#C7B37F" stroke-width="0.1"></path>
                        <path d="M2.90625,21.4375 C2.90625,21.125 3.15625,20.875 3.4375,20.875 C3.75,20.875 3.96875,21.125 3.96875,21.4375 C3.96875,21.75 3.75,22 3.4375,22 C3.125,22 2.90625,21.75 2.90625,21.4375 Z M12.5,0.9375 C12.5,0.625 12.65625,0.3125 12.9375,0.3125 C13.21875,0.28125 13.46875,0.5 13.5,0.8125 C13.5,1.125 13.34375,1.4375 13.0625,1.4375 C12.78125,1.46875 12.5625,1.25 12.5,0.9375 Z"></path>
                    </g>
                    <g stroke-linecap="round" transform="translate(4.062500, 7.187500)" stroke="#C7B37F" stroke-width="0.3">
                        <path d="M0.71875,23.4375 C0.59375,23.46875 0.53125,23.5 0.46875,23.59375 C0.375,23.6875 0.34375,23.71875 0.28125,23.875 L0.21875,24.25 M1.6875,32.59375 L2,32.28125 L2.1875,31.96875 L2.34375,31.65625 L2.5625,31.25 M2.15625,35.625 L1.6875,35.84375 L1.34375,36.03125 C1.20474152,36.1086006 1.06919446,36.1920141 0.9375,36.28125 L0.5625,36.59375 M5.25,24.75 L5,24.5 L4.6875,24.25 L4.40625,24" id="Shape"></path>
                        <path d="M5.375,20.625 L5,20.78125 C4.84935184,20.8358885 4.69132466,20.867494 4.53125,20.875" id="Path"></path>
                        <path d="M0.125,15.4375 C0.1875,15.625 0.1875,15.75 0.28125,15.90625 C0.34375,16.125 0.4375,16.25 0.5625,16.4375 C0.765452187,16.7770256 1.04337186,17.0656345 1.375,17.28125 L1.84375,17.53125 M1.53125,15.71875 L1.9375,15.90625 C2.23352741,16.033372 2.55285086,16.0972367 2.875,16.09375 L3.4375,16.0625 M5.6875,3.34375 L5.0625,2.96875 C4.78125,2.8125 4.65625,2.6875 4.4375,2.5 C4.31073352,2.37538116 4.19566792,2.23939454 4.09375,2.09375 L3.84375,1.6875 M6.1875,0.25 L6.375,0.78125 C6.48712427,1.01125548 6.63476557,1.22217163 6.8125,1.40625 C7.125,1.71875 7.34375,1.8125 7.6875,2.09375 M8.125,0.21875 C8.21875,0.4375 8.21875,0.53125 8.34375,0.71875 C8.40625,0.875 8.46875,0.96875 8.59375,1.09375 L9,1.5 C9.21875,1.6875 9.375,1.71875 9.625,1.84375" id="Shape"></path>
                    </g>
                    <path d="M34.15625,4.875 C34.15625,4.34375 33.625,4.3125 33.40625,4.3125 C32.84375,4.3125 32.6875,4.65625 31.96875,5.03125 C31.3491667,5.44454808 30.6197566,5.66228242 29.875,5.65625 C29.1305155,5.66037407 28.4016519,5.44280283 27.78125,5.03125 C27.0625,4.65625 26.9375,4.3125 26.34375,4.3125 C26.1530626,4.32061019 25.9734309,4.40423065 25.8444622,4.54492373 C25.7154936,4.6856168 25.6477794,4.87182829 25.65625,5.0625 L25.65625,5.34375 L25.75,5.40625 C25.75,5.15625 25.78125,5.03125 25.90625,4.875 C26.0299848,4.72460998 26.2116971,4.63375384 26.40625,4.625 C26.96875,4.625 27.1875,5 27.90625,5.375 C28.84375,5.875 29.21875,5.96875 30,6 C30.7551065,6.01038619 31.4957565,5.79254797 32.125,5.375 C32.84375,5 33.0625,4.59375 33.625,4.59375 C33.8125,4.59375 33.9375,4.71875 34.03125,4.90625 L34.03125,5.1875 L34.09375,5.21875 C34.09375,5.125 34.15625,5.09375 34.15625,4.90625 L34.15625,4.875 Z" id="Path" stroke="#703D29" stroke-width="0.1" fill="#703D29"></path>
                </g>
                <g id="Group" transform="translate(80.312500, 90.625000)" fill="#703D29">
                    <path d="M2.3125,1.25 C2.46875,1.09375 2.59375,1.15625 2.625,1.0625 C2.625,1 2.625,1 2.53125,0.96875 L2.25,0.90625 L2,0.78125 C1.96875,0.78125 1.875,0.71875 1.84375,0.78125 C1.8125,0.90625 2.15625,0.90625 2.03125,1.21875 C1.97332107,1.35893836 1.88837428,1.48635854 1.78125,1.59375 L0.96875,2.53125 L0.90625,2.5625 L0.90625,1.21875 L0.9375,0.65625 C1,0.53125 1.1875,0.65625 1.21875,0.53125 C1.21875,0.5 1.21875,0.46875 1.125,0.4375 C1.0625,0.4375 0.96875,0.4375 0.78125,0.34375 L0.46875,0.1875 C0.40625,0.1875 0.3125,0.125 0.28125,0.1875 L0.3125,0.28125 C0.4375,0.34375 0.46875,0.40625 0.46875,0.59375 L0.46875,2.90625 C0.46875,3.0625 0.5,3.09375 0.53125,3.125 C0.5625,3.125 0.59375,3.125 0.65625,3.03125 L2.3125,1.25 Z" id="Path"></path>
                    <path d="M3.28125,1.625 C3.375,1.28125 3.59375,1.5 3.59375,1.375 C3.625,1.3125 3.59375,1.3125 3.53125,1.28125 L3.125,1.15625 C3,1.15625 2.875,1.0625 2.75,1.03125 C2.75,1.03125 2.65625,1 2.625,1.03125 C2.59375,1.1875 2.96875,1.1875 2.875,1.5 L2.34375,3.21875 C2.25,3.53125 2.03125,3.40625 2,3.53125 L2,3.5625 L2.375,3.6875 L2.875,3.84375 L2.96875,3.84375 C3.03125,3.71875 2.59375,3.75 2.75,3.3125 L3.28125,1.625 Z M4.4375,1.9375 C4.5,1.75 4.59375,1.78125 4.71875,1.8125 C5.03125,1.90625 5.15625,2.21875 5.03125,2.59375 C4.96875,2.78125 4.90625,2.96875 4.40625,2.84375 C4.3125,2.8125 4.1875,2.78125 4.21875,2.6875 L4.4375,1.96875 L4.4375,1.9375 Z M3.5625,3.5 C3.40625,3.9375 3.1875,3.75 3.15625,3.875 C3.15625,3.9375 3.21875,3.9375 3.25,3.96875 L3.75,4.09375 L4,4.1875 L4.125,4.1875 C4.15625,4.03125 3.8125,4.09375 3.90625,3.71875 L4.09375,3.09375 C4.125,2.96875 4.125,2.9375 4.28125,3 C4.46875,3.03125 4.5,3.09375 4.53125,3.25 L4.625,3.875 C4.6875,4.15625 4.71875,4.40625 4.9375,4.5 C5.09375,4.5 5.3125,4.5 5.375,4.375 L5.3125,4.3125 L5.21875,4.3125 C5.21875,4.3125 5.125,4.3125 5.125,4.21875 L4.90625,3.09375 C4.90625,3.03125 5.03125,3.03125 5.15625,3 C5.3137048,2.91548621 5.42745184,2.76761505 5.46875,2.59375 C5.5,2.4375 5.59375,1.90625 4.90625,1.6875 L4.25,1.53125 L3.875,1.40625 L3.78125,1.40625 C3.75,1.5625 4.125,1.53125 4,1.9375 L3.53125,3.5 L3.5625,3.5 Z M6.1875,4.28125 C6.0625,4.71875 5.75,4.4375 5.71875,4.59375 C5.71875,4.65625 5.75,4.6875 5.8125,4.6875 L6.28125,4.78125 L6.71875,4.90625 C6.8125,4.90625 6.875,4.96875 6.90625,4.875 C6.90625,4.78125 6.5,4.78125 6.59375,4.3125 L7,2.6875 C7,2.5 7.0625,2.5 7.1875,2.53125 L7.5,2.59375 C7.84375,2.6875 7.65625,3.0625 7.8125,3.09375 C7.875,3.09375 7.875,2.96875 7.875,2.90625 L7.90625,2.59375 L7.90625,2.46875 L6.875,2.25 L5.875,2 C5.84375,2 5.8125,2 5.8125,2.0625 L5.65625,2.53125 C5.625,2.5625 5.59375,2.65625 5.65625,2.65625 C5.8125,2.6875 5.8125,2.1875 6.1875,2.28125 L6.46875,2.34375 C6.59375,2.375 6.625,2.40625 6.59375,2.59375 L6.1875,4.28125 Z M10.15625,3.25 C10.28125,3.0625 10.40625,3.09375 10.4375,3.03125 C10.4375,2.96875 10.375,2.96875 10.3125,2.9375 L10.03125,2.9375 L9.75,2.84375 C9.71875,2.84375 9.625,2.8125 9.625,2.875 C9.59375,3 9.9375,2.9375 9.875,3.28125 C9.875,3.34375 9.84375,3.46875 9.6875,3.6875 L9.0625,4.71875 L8.96875,4.78125 L8.96875,4.71875 L8.75,3.46875 C8.70813762,3.28432569 8.69757378,3.09417645 8.71875,2.90625 C8.71875,2.75 8.9375,2.84375 8.9375,2.75 C8.9375,2.6875 8.9375,2.6875 8.8125,2.65625 L8.46875,2.625 C8.34375,2.625 8.25,2.5625 8.15625,2.53125 C8.09375,2.53125 8,2.5 7.96875,2.5625 L8,2.625 C8.15625,2.6875 8.1875,2.75 8.21875,2.90625 L8.625,5.1875 C8.65625,5.34375 8.6875,5.40625 8.71875,5.40625 C8.75,5.40625 8.78125,5.40625 8.84375,5.3125 L10.15625,3.25 Z M10.34375,5.375 C10.34375,5.46875 10.34375,5.46875 10.40625,5.53125 C10.59375,5.59375 10.71875,5.71875 10.9375,5.75 C11.375,5.8125 11.75,5.53125 11.8125,5.0625 C11.90625,4.59375 11.71875,4.40625 11.375,4.15625 C10.96875,3.875 10.8125,3.8125 10.84375,3.53125 C10.875,3.3125 11.0625,3.21875 11.28125,3.21875 C11.84375,3.3125 11.78125,4.03125 11.84375,4.03125 C11.9375,4.03125 11.9375,4 11.9375,3.90625 L12,3.40625 L12,3.28125 L11.8125,3.28125 C11.6875,3.28125 11.59375,3.125 11.3125,3.0625 C10.9375,3 10.59375,3.28125 10.53125,3.6875 C10.46875,4.0625 10.65625,4.25 10.90625,4.4375 C11.40625,4.78125 11.59375,4.875 11.53125,5.1875 C11.5,5.5 11.25,5.625 11,5.59375 C10.625,5.53125 10.5,5.15625 10.4375,4.78125 C10.4375,4.71875 10.4375,4.6875 10.375,4.6875 C10.3125,4.6875 10.3125,4.78125 10.3125,4.84375 L10.3125,5.375 L10.34375,5.375 Z M15.28125,3.96875 C15.375,3.75 15.53125,3.78125 15.53125,3.6875 C15.53125,3.625 15.5,3.65625 15.40625,3.625 L15.125,3.625 L14.84375,3.59375 C14.8125,3.59375 14.71875,3.59375 14.71875,3.65625 C14.71875,3.78125 15.03125,3.65625 15.03125,4 C15.03125,4.0625 15,4.1875 14.875,4.4375 L14.3125,5.53125 L14.28125,5.625 L14.25,5.53125 L13.90625,4.28125 C13.8499136,4.12027826 13.8183045,3.95169648 13.8125,3.78125 C13.8125,3.625 14.03125,3.6875 14.03125,3.59375 C14.03125,3.53125 14.03125,3.53125 13.90625,3.53125 L13.53125,3.53125 L13.21875,3.46875 C13.15625,3.46875 13.0625,3.4375 13.03125,3.5 L13.09375,3.5625 C13.21875,3.625 13.28125,3.65625 13.3125,3.8125 L13.96875,6.03125 L14.09375,6.25 C14.125,6.25 14.15625,6.25 14.1875,6.125 L15.28125,3.9375 L15.28125,3.96875 Z" id="Shape" fill-rule="nonzero"></path>
                    <path d="M15.8125,5.78125 C15.8125,6.15625 15.5,6.09375 15.5,6.25 C15.5,6.3125 15.53125,6.28125 15.59375,6.28125 L16.28125,6.28125 L16.40625,6.25 C16.40625,6.0625 15.96875,6.3125 15.96875,5.625 L15.96875,4.3125 L16,4.28125 L16.0625,4.3125 L17.65625,6.28125 L17.75,6.3125 L17.8125,6.21875 L17.8125,4.125 C17.8125,3.71875 18.125,3.8125 18.125,3.71875 C18.125,3.71875 18.125,3.65625 18.03125,3.65625 L17.3125,3.65625 C17.25,3.65625 17.25,3.6875 17.25,3.71875 C17.25,3.84375 17.65625,3.78125 17.65625,4.125 L17.65625,5.375 L17.625,5.5 L17.5,5.40625 L16.1875,3.75 C16.125,3.65625 16.15625,3.65625 16.0625,3.65625 L15.5,3.65625 L15.4375,3.6875 C15.4375,3.875 15.8125,3.625 15.8125,4.34375 L15.8125,5.78125 Z M19.0625,4.0625 C19.0625,3.71875 19.3125,3.84375 19.3125,3.71875 C19.3125,3.6875 19.3125,3.65625 19.1875,3.65625 L18.375,3.65625 C18.375,3.65625 18.28125,3.65625 18.28125,3.71875 C18.28125,3.84375 18.625,3.71875 18.625,4.09375 L18.625,5.875 C18.625,6.21875 18.375,6.125 18.375,6.25 C18.375,6.25 18.375,6.3125 18.4375,6.3125 L19.3125,6.3125 C19.375,6.3125 19.40625,6.3125 19.40625,6.25 C19.40625,6.125 19.03125,6.3125 19.03125,5.84375 L19.0625,4.0625 Z M20.46875,5.78125 C20.46875,6.25 20.09375,6.09375 20.09375,6.21875 C20.09375,6.28125 20.15625,6.28125 20.21875,6.28125 L21.15625,6.28125 C21.25,6.28125 21.3125,6.28125 21.3125,6.1875 C21.3125,6.09375 20.875,6.1875 20.875,5.75 L20.875,4.0625 C20.875,3.875 20.875,3.875 21.03125,3.875 L21.34375,3.875 C21.71875,3.84375 21.59375,4.25 21.75,4.25 C21.8125,4.25 21.78125,4.125 21.78125,4.0625 L21.75,3.75 C21.75,3.6875 21.75,3.625 21.6875,3.625 L20.65625,3.65625 L19.625,3.65625 L19.5625,3.75 L19.53125,4.25 L19.5625,4.375 C19.71875,4.375 19.625,3.875 20,3.875 L20.28125,3.875 C20.40625,3.875 20.4375,3.875 20.46875,4.0625 L20.46875,5.8125 L20.46875,5.78125 Z M22.4375,5.09375 L22.3125,5.09375 L22.34375,4.9375 L22.5625,4.25 L22.5625,4.1875 L22.625,4.21875 L22.9375,4.875 L23,5 C23,5.0625 22.9375,5.0625 22.875,5.0625 L22.4375,5.0625 L22.4375,5.09375 Z M23,5.25 C23.09375,5.25 23.09375,5.25 23.25,5.5625 L23.3125,5.8125 C23.3125,6.03125 23.09375,6 23.09375,6.125 C23.09375,6.15625 23.15625,6.15625 23.21875,6.125 L23.59375,6.125 L24,6.09375 C24.09375,6.09375 24.125,6.09375 24.125,6.03125 C24.125,5.90625 23.9375,6.03125 23.8125,5.8125 L22.75,3.625 L22.65625,3.5 C22.59375,3.5 22.59375,3.5625 22.5625,3.625 L21.875,5.9375 C21.8125,6.15625 21.625,6.15625 21.65625,6.25 L22.375,6.25 C22.4375,6.21875 22.53125,6.25 22.53125,6.15625 C22.53125,6.0625 22.15625,6.15625 22.125,5.875 L22.1875,5.5625 C22.25,5.3125 22.3125,5.3125 22.375,5.3125 L23.03125,5.25 L23,5.25 Z M25.59375,3.6875 C25.5625,3.4375 25.59375,3.4375 25.96875,3.375 C26.59375,3.3125 26.40625,3.78125 26.59375,3.75 C26.65625,3.75 26.59375,3.625 26.59375,3.5625 L26.5625,3.21875 C26.5625,3.1875 26.53125,3.15625 26.46875,3.15625 C26.15625,3.15625 25.9375,3.21875 25.71875,3.25 L24.84375,3.375 C24.78125,3.375 24.75,3.375 24.75,3.4375 C24.78125,3.59375 25.15625,3.4375 25.1875,3.75 L25.40625,5.46875 C25.46875,5.9375 25.1875,5.78125 25.21875,5.9375 C25.21875,5.9375 25.21875,5.96875 25.28125,5.9375 L25.71875,5.90625 L26.09375,5.875 C26.1875,5.875 26.25,5.875 26.25,5.78125 C26.25,5.6875 25.875,5.8125 25.8125,5.40625 L25.75,4.875 C25.71875,4.65625 25.71875,4.59375 25.84375,4.5625 L26.09375,4.5625 C26.4375,4.5 26.40625,4.90625 26.5,4.875 C26.59375,4.875 26.5625,4.75 26.53125,4.71875 L26.4375,4.0625 C26.4375,3.96875 26.375,3.96875 26.375,3.96875 C26.28125,3.96875 26.34375,4.3125 26.0625,4.34375 L25.84375,4.375 C25.6875,4.40625 25.6875,4.375 25.65625,4.21875 L25.59375,3.6875 Z M26.84375,4.5625 C26.96875,5.28125 27.5,5.71875 28.15625,5.59375 C29.21875,5.375 29.25,4.46875 29.15625,3.9375 C29,3.15625 28.4375,2.78125 27.78125,2.90625 C27,3.0625 26.6875,3.75 26.84375,4.5625 Z M27.1875,4.25 C27.09375,3.75 27.1875,3.1875 27.71875,3.09375 C28.15625,3 28.65625,3.34375 28.78125,4.15625 C28.875,4.78125 28.78125,5.28125 28.21875,5.40625 C27.625,5.53125 27.28125,4.78125 27.1875,4.28125 L27.1875,4.25 Z M29.78125,2.96875 C29.75,2.75 29.84375,2.71875 29.96875,2.6875 C30.28125,2.625 30.53125,2.84375 30.625,3.1875 C30.6875,3.40625 30.71875,3.625 30.21875,3.75 C30.125,3.75 30,3.78125 29.96875,3.6875 L29.8125,2.96875 L29.78125,2.96875 Z M29.78125,4.75 C29.90625,5.1875 29.625,5.15625 29.625,5.25 C29.65625,5.34375 29.71875,5.3125 29.75,5.28125 C29.9375,5.28125 30.0625,5.1875 30.25,5.15625 L30.5625,5.09375 C30.625,5.09375 30.625,5.0625 30.625,5.03125 C30.625,4.90625 30.3125,5.125 30.21875,4.71875 L30.0625,4.09375 C30.0625,3.96875 30,3.96875 30.1875,3.9375 C30.34375,3.875 30.40625,3.90625 30.53125,4.03125 L30.9375,4.53125 C31.09375,4.71875 31.25,4.9375 31.5,4.875 C31.65625,4.84375 31.8125,4.71875 31.8125,4.59375 L31.75,4.5625 L31.65625,4.59375 C31.65625,4.59375 31.5625,4.625 31.53125,4.59375 L30.78125,3.6875 L30.9375,3.5 C31,3.375 31.0625,3.21875 31,3 C30.96875,2.84375 30.78125,2.34375 30.0625,2.5 L29.40625,2.6875 L29.03125,2.75 C28.96875,2.75 28.9375,2.78125 28.96875,2.8125 C28.96875,2.96875 29.3125,2.75 29.40625,3.125 L29.78125,4.75 Z M32.5,4.125 C32.59375,4.5625 32.1875,4.5 32.21875,4.625 C32.21875,4.71875 32.3125,4.6875 32.375,4.6875 L32.8125,4.53125 L33.28125,4.4375 C33.375,4.4375 33.4375,4.4375 33.40625,4.3125 C33.40625,4.21875 33,4.4375 32.875,4 L32.46875,2.34375 C32.40625,2.1875 32.46875,2.15625 32.5625,2.125 L32.875,2.0625 C33.21875,1.9375 33.21875,2.375 33.34375,2.34375 C33.4375,2.34375 33.34375,2.1875 33.34375,2.125 L33.21875,1.8125 C33.21875,1.8125 33.21875,1.71875 33.15625,1.75 L32.15625,2.03125 L31.15625,2.25 L31.15625,2.34375 L31.1875,2.84375 C31.1875,2.90625 31.1875,2.96875 31.28125,2.96875 C31.4375,2.9375 31.1875,2.46875 31.59375,2.375 L31.84375,2.3125 C31.96875,2.28125 32.03125,2.3125 32.0625,2.46875 L32.5,4.125 Z M34.21875,1.84375 C34.125,1.53125 34.40625,1.5625 34.34375,1.4375 L34.25,1.4375 L33.8125,1.5625 L33.4375,1.65625 C33.4375,1.65625 33.34375,1.65625 33.34375,1.71875 C33.375,1.84375 33.71875,1.65625 33.8125,1.96875 L34.3125,3.71875 C34.375,4.03125 34.125,4.03125 34.15625,4.125 C34.15625,4.15625 34.15625,4.1875 34.21875,4.15625 L34.5625,4.0625 L35.0625,3.9375 C35.15625,3.9375 35.15625,3.90625 35.15625,3.84375 C35.125,3.75 34.8125,4 34.6875,3.5625 L34.21875,1.84375 Z M34.9375,2.6875 C35.15625,3.40625 35.75,3.75 36.40625,3.53125 C37.40625,3.1875 37.34375,2.25 37.15625,1.75 C36.90625,1 36.28125,0.71875 35.65625,0.90625 C34.90625,1.1875 34.65625,1.90625 34.9375,2.6875 Z M35.25,2.375 C35.0625,1.84375 35.0625,1.28125 35.59375,1.125 C36,0.96875 36.53125,1.25 36.8125,2.03125 C37,2.59375 36.96875,3.15625 36.4375,3.34375 C35.875,3.53125 35.4375,2.875 35.25,2.34375 L35.25,2.375 Z M37.625,0.65625 C37.5625,0.4375 37.625,0.40625 37.75,0.34375 C38.0625,0.25 38.375,0.4375 38.5,0.78125 C38.5625,0.96875 38.625,1.1875 38.15625,1.375 C38.0625,1.375 37.9375,1.4375 37.90625,1.375 L37.625,0.65625 Z M37.875,2.40625 C38.0625,2.84375 37.75,2.84375 37.8125,2.9375 C37.8125,3.03125 37.875,2.96875 37.9375,2.96875 L38.40625,2.75 L38.6875,2.6875 C38.75,2.65625 38.75,2.625 38.75,2.59375 C38.6875,2.46875 38.4375,2.71875 38.3125,2.34375 L38.0625,1.75 C38,1.625 38,1.59375 38.15625,1.53125 C38.3125,1.46875 38.375,1.5 38.5,1.625 L39,2.0625 C39.15625,2.21875 39.34375,2.40625 39.625,2.3125 C39.71875,2.25 39.90625,2.09375 39.84375,2 L39.78125,1.96875 L39.71875,2.03125 L39.5625,2.03125 L38.6875,1.25 L38.8125,1.03125 C38.8820707,0.87184346 38.8820707,0.69065654 38.8125,0.53125 C38.78125,0.34375 38.5,-0.09375 37.84375,0.15625 L37.21875,0.4375 L36.84375,0.5625 L36.78125,0.625 C36.84375,0.75 37.125,0.5 37.28125,0.875 L37.90625,2.4375 L37.875,2.40625 Z" id="Shape" fill-rule="nonzero"></path>
                </g>
                <g id="Group" transform="translate(82.400000, 54.800000)">
                    <polygon id="Path" fill="#D52B1E" points="0.14 0.06 16.56 0.06 16.56 16.46 0.14 16.46"></polygon>
                    <path d="M7.84,12.96 C7.84,12.96 7.84,13.56 7.68,14.02 C7.48,14.56 7.48,14.56 7.3,14.82 C7.1058468,15.1372239 6.84685704,15.4098447 6.54,15.62 C6.14,15.86 5.74,15.98 5.34,15.94 C4.26,15.86 3.74,14.66 3.5,13.7 C3.24,12.68 2.5,12.1 2,12.5 C1.72,12.7 1.72,13.06 1.94,13.42 C2.15542079,13.6798582 2.43956715,13.8739094 2.76,13.98 L2.18,14.72 C2.18,14.72 0.92,14.56 0.68,13.24 C0.58,12.74 0.82,11.82 1.66,11.54 C2.72,11.18 3.38,11.94 3.72,12.58 C4.16,13.46 4.36,15.06 5.6,14.82 C6.28,14.68 6.6,13.7 6.6,13.24 L7.08,12.72 L7.82,12.96 L7.84,12.96 Z" id="a" fill="#FFFFFF"></path>
                    <g id="a-link" transform="translate(12.400000, 13.700000) scale(-1, 1) translate(-12.400000, -13.700000) translate(8.700000, 11.400000)" fill="#FFFFFF">
                        <path d="M7.24,1.56 C7.24,1.56 7.24,2.16 7.08,2.62 C6.88,3.16 6.88,3.16 6.7,3.42 C6.5058468,3.73722392 6.24685704,4.00984473 5.94,4.22 C5.54,4.46 5.14,4.58 4.74,4.54 C3.66,4.46 3.14,3.26 2.9,2.3 C2.64,1.28 1.9,0.7 1.4,1.1 C1.12,1.3 1.12,1.66 1.34,2.02 C1.55542079,2.27985824 1.83956715,2.47390942 2.16,2.58 L1.58,3.32 C1.58,3.32 0.32,3.16 0.08,1.84 C-0.02,1.34 0.22,0.42 1.06,0.14 C2.12,-0.22 2.78,0.54 3.12,1.18 C3.56,2.06 3.76,3.66 5,3.42 C5.68,3.28 6,2.3 6,1.84 L6.48,1.32 L7.22,1.56 L7.24,1.56 Z" id="a"></path>
                    </g>
                    <path d="M9.82,6 L11.98,3.66 C11.98,3.66 12.3,3.4 12.3,2.98 L11.86,3.06 L11.76,2.82 L11.74,2.6 L12.34,2.46 L12.34,2.2 L12.4,1.94 L11.76,1.98 L11.82,1.7 L11.92,1.5 L12.3,1.42 L12.68,1.42 C13.04,0.74 14.52,0.14 15.56,1.22 C16.32,2.02 16.16,3.46 15.16,3.86 C14.7031624,4.06293829 14.1695562,3.97661965 13.8,3.64 L14.2,2.84 C14.74,3.18 15.2,2.78 15.16,2.36 C15.12,1.82 14.76,1.5 14.3,1.46 C13.84,1.42 13.5,1.66 13.3,2.06 C13.18,2.32 13.24,2.5 13.2,2.78 C13.16,3.08 13.2,3.24 13.1,3.54 C13.0024126,3.8162063 12.837426,4.06368614 12.62,4.26 L10.42,6.66 L1.82,15.94 L1.18,15.34 L9.82,6 Z" id="Path" fill="#FEDF00"></path>
                    <path d="M3.5,6.8 C3.5,6.8 4.04,9.48 5.88,13.5 C6.82,13.16 7.36,12.94 8.36,12.94 C9.34,12.94 9.88,13.14 10.82,13.5 C11.8439635,11.3554234 12.6416064,9.10995819 13.2,6.8 L8.36,0.6 L3.48,6.8 L3.5,6.8 Z" id="Path" fill="#FFFFFF"></path>
                    <path d="M8.82,2.68 L12.18,7.02 C12.18,7.02 11.74,9.12 10.38,12.28 C9.84,12.16 9.38,12.06 8.82,12.02 L8.82,2.68 Z M7.88,2.68 L4.52,7.02 C4.52,7.02 4.96,9.12 6.32,12.28 C6.86,12.16 7.32,12.06 7.88,12.02 L7.88,2.68 Z" id="Shape" fill="#FEDF00" fill-rule="nonzero"></path>
                </g>
                <g id="Group" transform="translate(100.625000, 54.687500)">
                    <polygon id="Path" fill="#FEDF00" points="0.09375 0.15625 16.53125 0.15625 16.53125 16.5625 0.09375 16.5625"></polygon>
                    <path d="M2.40625,0.15625 L4.84375,0.15625 L4.84375,16.5625 L2.40625,16.5625 L2.40625,0.15625 Z M7.09375,0.15625 L9.53125,0.15625 L9.53125,16.5625 L7.09375,16.5625 L7.09375,0.15625 Z M11.78125,0.15625 L14.25,0.15625 L14.25,16.5625 L11.78125,16.5625 L11.78125,0.15625 Z" id="Shape" fill="#D52B1E" fill-rule="nonzero"></path>
                </g>
                <g id="Group" transform="translate(82.500000, 72.812500)">
                    <path d="M0.09375,12.65625 C0.125,12.96875 0.25,13.46875 0.53125,14 C0.84375,14.46875 0.71875,14.4375 1.375,15.1875 C1.73981898,15.5553074 2.16198866,15.8613804 2.625,16.09375 C4.10181821,16.7295921 5.7078379,17.0079688 7.3125,16.90625 C8.15625,16.875 8.8125,16.78125 9.375,16.6875 C10.514248,16.5360665 11.6635399,16.4733778 12.8125,16.5 C13.28125,16.5 13.75,16.59375 14.28125,16.6875 C15.375,16.90625 16.46875,17.3125 16.46875,17.3125 L16.46875,0.21875 L0.03125,0.21875 L0.03125,11.875 L0.09375,12.625 L0.09375,12.65625 Z" id="Path" fill="#FEDF00"></path>
                    <path d="M2,15.65625 L2.78125,16.125 L3.84375,16.5 L3.84375,0.1875 L2,0.1875 L2,15.65625 Z M11.125,16.40625 L11.125,0.1875 L9.3125,0.1875 L9.3125,16.6875 L11.125,16.46875 L11.125,16.40625 Z M14.78125,0.1875 L12.96875,0.1875 L12.96875,16.46875 C13.5625,16.53125 14.15625,16.65625 14.78125,16.78125 L14.78125,0.21875 L14.78125,0.1875 Z M7.46875,0.1875 L7.46875,16.875 C7.46875,16.875 6.28125,16.9375 5.65625,16.875 L5.65625,0.1875 L7.46875,0.1875 Z" id="Shape" stroke="#D52B1E" stroke-width="0.1" fill="#D52B1E" fill-rule="nonzero"></path>
                </g>
                <g id="Group" transform="translate(100.600000, 73.000000)">
                    <path d="M16.5,12.48 C16.428479,12.9415816 16.2797322,13.3878221 16.06,13.8 C15.76,14.26 15.86,14.26 15.2,15 C14.4847933,15.7053572 13.582568,16.1911709 12.6,16.4 C11.5178802,16.6852806 10.3966864,16.7933475 9.28,16.72 C8.42,16.68 7.78,16.58 7.22,16.52 C6.46,16.4 5.88,16.34 5.02,16.32 C4.60691797,16.2996167 4.19308203,16.2996167 3.78,16.32 C2.5322419,16.4611721 1.30444455,16.7429617 0.12,17.16 L0.12,0 L16.56,0 L16.56,11.7 L16.5,12.46 L16.5,12.48 Z" id="Path" fill="#FEDF00"></path>
                    <g id="b" transform="translate(2.600000, 0.400000)">
                        <path d="M1.72,1 L1.6,1.04 L1.44,1.2 C1.36,1.28 1.3,1.3 1.2,1.36 L1.08,1.46 C1.02,1.52 1.08,1.58 1.02,1.66 C1,1.74 0.96,1.78 0.9,1.86 C0.82,1.94 0.76,1.96 0.7,2.06 L0.46,2.26 L0.4,2.28 L0.28,2.28 C0.2,2.32 0.18,2.4 0.12,2.44 L0.18,2.56 L0.34,2.84 C0.38,2.9 0.38,2.98 0.44,3 C0.54,3.04 0.62,3.04 0.7,3.02 C0.86,3.06 0.96,3.06 1.1,3.12 L1.4,3.28 C1.5,3.34 1.56,3.36 1.66,3.38 L2.02,3.38 L2.02,3.44 L2.42,3.64 C2.41011224,3.66575645 2.40339619,3.69262065 2.4,3.72 C2.38,3.78 2.36,3.86 2.38,3.88 C2.5,4.26 2.62,4.48 2.68,4.52 C2.8,4.56 2.84,4.7 2.9,4.82 L2.84,4.88 C2.72,5 2.6,5.08 2.5,5.24 C2.36,5.48 2.26,5.48 2.44,5.8 L2.74,6.28 C2.82,6.42 2.86,6.52 2.9,6.68 C2.94,6.82 2.96,6.92 2.96,7.08 L3.16,7.14 L3.3,7.02 L3.42,6.78 L3.42,6.58 C3.38,6.56 3.36,6.5 3.38,6.44 C3.38,6.36 3.48,6.38 3.52,6.32 C3.58,6.22 3.44,6.16 3.38,6.1 C3.26,5.96 3.1,5.92 3.06,5.72 C3.06,5.68 3.06,5.64 3.14,5.58 L3.54,5.22 C3.58,5.24 3.66,5.26 3.74,5.24 L4,5.32 C4.12,5.36 4.18,5.32 4.24,5.32 L4.32,5.32 L4.34,5.44 C4.36,5.64 4.32,6.04 4.38,6.14 L4.44,6.26 L4.48,6.38 L4.48,6.78 L4.44,7.12 C4.44,7.2 4.4,7.26 4.34,7.32 C4.3,7.4 4.22,7.4 4.14,7.46 L4.14,7.66 L4.36,7.76 L4.62,7.82 L4.76,7.76 L4.78,7.64 L4.88,7.54 C4.96,7.5 5.04,7.54 5.06,7.52 C5.1,7.46 5.06,7.44 5.06,7.36 C5.06,7.24 5.02,7.16 5,7.04 C4.97111734,6.85479002 4.96440336,6.66679853 4.98,6.48 C4.98,6.36 4.98,6.28 5.02,6.18 C5.04,5.98 5.1,5.9 5.14,5.74 C5.2,5.54 5.2,5.42 5.22,5.24 C5.8943218,5.34157638 6.58244696,5.30069766 7.24,5.12 C7.4,5.26 7.58,5.36 7.78,5.44 L7.78,5.64 C7.78,5.7 7.78,5.72 7.82,5.78 L7.88,5.84 C7.94,5.84 7.98,5.84 8.02,5.8 C8.06,5.76 8.06,5.72 8.06,5.66 L8.06,5.52 L8.42,5.52 L8.42,5.74 C8.44,5.8 8.48,5.82 8.52,5.82 C8.55797233,5.83801186 8.60202767,5.83801186 8.64,5.82 C8.7,5.78 8.68,5.7 8.7,5.62 L8.7,5.48 L8.9,5.4 C8.90530446,5.45988276 8.90530446,5.52011724 8.9,5.58 L8.84,5.76 C8.8,5.88 8.74,5.92 8.68,6.04 C8.6,6.16 8.58,6.24 8.48,6.34 L8.36,6.48 L8.24,6.66 L8.06,6.86 C7.92,6.98 7.82,6.9 7.66,7.04 L7.6,7.24 L7.88,7.36 L8.14,7.4 L8.22,7.36 C8.22,7.3 8.22,7.24 8.28,7.2 C8.32,7.14 8.36,7.14 8.42,7.12 C8.5,7.12 8.58,7.12 8.62,7.08 C8.7,7.02 8.7,6.88 8.76,6.78 C8.90724014,6.48337254 9.1110648,6.21840048 9.36,6 L9.7,5.72 C9.74,5.64 9.8,5.62 9.8,5.52 L9.76,5.4 L9.72,5.2 C10.02,5.34 9.92,5.34 9.96,5.48 C10.02,5.6 9.96,5.68 9.98,5.82 C10,5.98 10.08,6.04 10.08,6.2 C10.1,6.38 10.06,6.48 10.02,6.66 C10,6.82 10,6.92 9.92,7.06 C9.87265211,7.17668138 9.79705397,7.27976975 9.7,7.36 L9.58,7.46 L9.56,7.66 L9.78,7.74 L10.1,7.82 L10.18,7.76 C10.22,7.62 10.18,7.42 10.26,7.42 C10.34,7.4 10.4,7.42 10.42,7.36 L10.42,7.22 L10.56,6.32 L10.64,5.94 L10.72,5.6 C10.86,5.2 10.68,5.14 10.52,4.88 C10.42,4.74 10.38,4.68 10.38,4.58 L10.38,4 C10.3738781,3.81338353 10.3738781,3.62661647 10.38,3.44 L10.46,3.4 C10.7,3.26 10.8,3.22 10.94,2.9 C10.9825281,2.80585574 11.0030474,2.70325934 11,2.6 L11,2.4 L10.92,2.2 C10.888632,2.1407076 10.8481377,2.08671516 10.8,2.04 C10.66,1.84 10.46,1.82 10.26,1.74 C9.96,1.64 9.76,1.66 9.46,1.64 C9.1,1.6 8.92,1.6 8.58,1.64 C8.18,1.64 7.96,1.72 7.56,1.78 L6.58,1.86 C6.12,1.86 5.7,1.76 5.42,1.78 C4.94,1.82 4.92,1.94 4.18,2 C3.92709647,2.02052612 3.67366095,2.03386483 3.42,2.04 L2.98,1.9 C3.16,1.84 3.2,1.8 3.28,1.7 C3.34,1.62 3.32,1.56 3.4,1.48 L3.54,1.28 C3.48681669,1.24007316 3.42527472,1.21272117 3.36,1.2 L3.16,1.2 C3.07670069,1.20311138 2.99496357,1.22354566 2.92,1.26 L2.76,1.38 L2.32,1.14 C2.13237256,1.04460442 1.92915443,0.983638977 1.72,0.96 L1.72,1 Z" id="Path" fill="#D52B1E"></path>
                        <g id="Group" stroke-linecap="round" transform="translate(0.200000, 1.600000)" stroke="#FEDF00">
                            <path d="M10.36,1.9 L10.2,1.96 C10.02,2.04 9.88,2.04 9.68,2.06 C9.16,2.1 8.82,1.84 8.28,1.88 C8,1.9 7.88,2.12 7.58,2.2 C7.4681373,2.22375702 7.354322,2.23714706 7.24,2.24 L7.34,2.04 C7.34,2.04 7.1,2.1 6.94,2.1 C6.83220582,2.09820505 6.72491927,2.08479423 6.62,2.06 L6.82,1.86 L6.56,1.82 C6.48656351,1.78384019 6.41911164,1.73662388 6.36,1.68 C6.47412552,1.66478279 6.58755939,1.64476504 6.7,1.62 C7,1.54 7.1,1.38 7.48,1.34 C7.7,1.34 8.08,1.34 9,1.5 C9.6,1.6 9.88,1.54 10.1,1.44 C10.26,1.38 10.3,1.24 10.32,1.08 C10.34,0.92 10.24,0.8 10.16,0.72 C10.14,0.72 10.06,0.66 9.94,0.64" id="Path" stroke-width="0.3"></path>
                            <path d="M1.56,0.12 C1.46,0.12 1.38,0.12 1.3,0.18 C1.2,0.24 1.18,0.32 1.1,0.4 C1.2,0.42 1.26,0.48 1.34,0.46 C1.42,0.46 1.44,0.42 1.5,0.36 C1.56,0.28 1.58,0.22 1.58,0.12 L1.56,0.12 Z" id="Path" stroke-width="0.2" fill="#FCD900"></path>
                            <path d="M3.8,2.76 C3.85235602,2.91916619 3.91930729,3.07315411 4,3.22 C4.04,3.38 4,3.46 4.04,3.62 L4.04,3.94 M5.4,2.54 L5.34,2.8 L5.14,3.5 L5.14,3.64 M2.94,2.84 C3.12,2.88 3.06,3.5 3.32,3.64" id="Shape" stroke-width="0.3"></path>
                            <path d="M8.62,3.96 L8.7,3.9 C8.90218379,3.8171695 9.08577808,3.69477331 9.24,3.54" id="Path" stroke-width="0.3"></path>
                            <path d="M7.08,3.6 C7.78,3.42 8.26,3.08 8.6,3.02 M7.8,2.72 L7.96,2.72 C8.26,2.66 8.3,2.84 8.5,2.96 C8.88,3.16 8.92,3.42 9.36,3.64 L9.44,3.66 L9.6,3.74" id="Shape" stroke-width="0.3"></path>
                            <path d="M0.14,0.9 L0.28,0.9 L0.44,0.86 C0.5,0.86 0.54,0.86 0.58,0.9 C0.62,0.9 0.62,0.92 0.64,0.96 C0.64,1 0.68,1.02 0.66,1.06 C0.66,1.1 0.6,1.14 0.54,1.14 C0.5,1.14 0.46,1.14 0.44,1.08 C0.428868685,1.05449495 0.428868685,1.02550505 0.44,1 C0.383390486,1.02852572 0.316609514,1.02852572 0.26,1 C0.208098459,0.984311041 0.164791057,0.948221539 0.14,0.9 Z" id="Path" stroke-width="0.2" fill="#FCD900"></path>
                        </g>
                        <path d="M1.82,4.44 L1.42,4.26 C1.5,4.22 1.56,4.22 1.62,4.16 C1.68,4.08 1.68,4 1.72,3.9 C1.76,3.8 1.76,3.7 1.86,3.62 C1.92,3.58 2.02,3.58 2.08,3.6 C2.16,3.6 2.24,3.68 2.26,3.74 C2.26,3.86 2.22,3.94 2.2,4.04 C2.2,4.16 2.14,4.22 2.16,4.32 C2.16,4.4 2.2,4.44 2.24,4.52 L1.84,4.44 L1.82,4.44 Z M1.62,4.64 C1.61007901,4.57491113 1.65445607,4.51398413 1.71945027,4.50346083 C1.78444448,4.49293752 1.84577981,4.53674847 1.85690453,4.60164244 C1.86802926,4.66653641 1.82478817,4.72827482 1.76,4.74 C1.72488033,4.7459399 1.68893681,4.73597136 1.66189327,4.71279119 C1.63484973,4.68961101 1.61950122,4.65561495 1.62,4.62 L1.62,4.64 Z M1.28,1.32 L1.24,1.32 C1.16,1.24 1.16,1.16 1.12,1.08 C1.08767684,1.00359496 1.06743488,0.922627108 1.06,0.84 L1.06,0.44 C1.06,0.38 1.06,0.32 1.02,0.26 C1.02,0.22 0.94,0.2 0.96,0.18 C0.96,0.16 1.02,0.18 1.04,0.18 C1.12,0.18 1.16,0.2 1.24,0.26 C1.3,0.32 1.34,0.38 1.36,0.46 L1.44,0.76 L1.5,0.92 L1.6,1.04 L1.46,1.2 L1.28,1.32 Z M2,3.44 L2.44,3.64 C2.7411333,3.45872514 2.98404536,3.19499205 3.14,2.88 C3.32,2.52 3.34,2.34 3.42,2 L3.06,1.9 L2.98,1.9 C2.88,2.26 2.84,2.44 2.66,2.74 C2.5,3 2.32,3.2 2.14,3.34 L2,3.44 Z M3,7.08 L3.16,6.82 L3.44,6.6 L3.52,6.6 C3.51761246,6.79088848 3.48382772,6.98008298 3.42,7.16 L3.34,7.36 L3.24,7.46 C3.14,7.3 2.98,7.2 2.98,7.06 L3,7.08 Z M9.6,7.44 L9.88,7.56 L10.18,7.74 L10.18,7.84 L9.88,7.88 C9.79346346,7.88671642 9.70653654,7.88671642 9.62,7.88 L9.42,7.88 L9.3,7.8 C9.4,7.66 9.46,7.48 9.58,7.44 L9.6,7.44 Z M7.64,7.04 L7.92,7.14 L8.22,7.34 C8.22,7.36 8.24,7.4 8.22,7.42 C8.04407269,7.46720743 7.86199901,7.48743784 7.68,7.48 L7.48,7.46 L7.34,7.4 C7.46,7.26 7.52,7.06 7.64,7.04 Z M4.16,7.46 L4.46,7.56 L4.76,7.76 L4.76,7.86 C4.57657449,7.90254147 4.38760983,7.91603894 4.2,7.9 L4,7.9 L3.88,7.82 C3.98,7.68 4.04,7.5 4.16,7.46 Z M2.36,1.5 C2.24,1.44 2.16,1.3 2.24,1.18 C2.26,1.14 2.32,1.14 2.36,1.1 C2.4,1.04 2.38,1 2.36,0.94 L2.34,0.74 L2.3,0.54 C2.3,0.42 2.3,0.34 2.38,0.22 C2.42,0.16 2.52,0.1 2.54,0.1 C2.58,0.12 2.54,0.2 2.54,0.26 C2.54,0.36 2.56,0.4 2.6,0.5 L2.74,0.76 C2.78,0.88 2.82,0.92 2.82,1.04 C2.82,1.14 2.82,1.18 2.78,1.28 C2.75419377,1.34263423 2.71290311,1.39768844 2.66,1.44 C2.61338985,1.47840334 2.55868877,1.50575388 2.5,1.52 C2.46077282,1.53111986 2.41922718,1.53111986 2.38,1.52 L2.36,1.5 Z" id="Shape" fill="#0065BD" fill-rule="nonzero"></path>
                    </g>
                    <g id="b-link" transform="translate(2.600000, 7.720000)">
                        <g id="b">
                            <path d="M1.72,1 L1.6,1.04 L1.44,1.2 C1.36,1.28 1.3,1.3 1.2,1.36 L1.08,1.46 C1.02,1.52 1.08,1.58 1.02,1.66 C1,1.74 0.96,1.78 0.9,1.86 C0.82,1.94 0.76,1.96 0.7,2.06 L0.46,2.26 L0.4,2.28 L0.28,2.28 C0.2,2.32 0.18,2.4 0.12,2.44 L0.18,2.56 L0.34,2.84 C0.38,2.9 0.38,2.98 0.44,3 C0.54,3.04 0.62,3.04 0.7,3.02 C0.86,3.06 0.96,3.06 1.1,3.12 L1.4,3.28 C1.5,3.34 1.56,3.36 1.66,3.38 L2.02,3.38 L2.02,3.44 L2.42,3.64 C2.41011224,3.66575645 2.40339619,3.69262065 2.4,3.72 C2.38,3.78 2.36,3.86 2.38,3.88 C2.5,4.26 2.62,4.48 2.68,4.52 C2.8,4.56 2.84,4.7 2.9,4.82 L2.84,4.88 C2.72,5 2.6,5.08 2.5,5.24 C2.36,5.48 2.26,5.48 2.44,5.8 L2.74,6.28 C2.82,6.42 2.86,6.52 2.9,6.68 C2.94,6.82 2.96,6.92 2.96,7.08 L3.16,7.14 L3.3,7.02 L3.42,6.78 L3.42,6.58 C3.38,6.56 3.36,6.5 3.38,6.44 C3.38,6.36 3.48,6.38 3.52,6.32 C3.58,6.22 3.44,6.16 3.38,6.1 C3.26,5.96 3.1,5.92 3.06,5.72 C3.06,5.68 3.06,5.64 3.14,5.58 L3.54,5.22 C3.58,5.24 3.66,5.26 3.74,5.24 L4,5.32 C4.12,5.36 4.18,5.32 4.24,5.32 L4.32,5.32 L4.34,5.44 C4.36,5.64 4.32,6.04 4.38,6.14 L4.44,6.26 L4.48,6.38 L4.48,6.78 L4.44,7.12 C4.44,7.2 4.4,7.26 4.34,7.32 C4.3,7.4 4.22,7.4 4.14,7.46 L4.14,7.66 L4.36,7.76 L4.62,7.82 L4.76,7.76 L4.78,7.64 L4.88,7.54 C4.96,7.5 5.04,7.54 5.06,7.52 C5.1,7.46 5.06,7.44 5.06,7.36 C5.06,7.24 5.02,7.16 5,7.04 C4.97111734,6.85479002 4.96440336,6.66679853 4.98,6.48 C4.98,6.36 4.98,6.28 5.02,6.18 C5.04,5.98 5.1,5.9 5.14,5.74 C5.2,5.54 5.2,5.42 5.22,5.24 C5.8943218,5.34157638 6.58244696,5.30069766 7.24,5.12 C7.4,5.26 7.58,5.36 7.78,5.44 L7.78,5.64 C7.78,5.7 7.78,5.72 7.82,5.78 L7.88,5.84 C7.94,5.84 7.98,5.84 8.02,5.8 C8.06,5.76 8.06,5.72 8.06,5.66 L8.06,5.52 L8.42,5.52 L8.42,5.74 C8.44,5.8 8.48,5.82 8.52,5.82 C8.55797233,5.83801186 8.60202767,5.83801186 8.64,5.82 C8.7,5.78 8.68,5.7 8.7,5.62 L8.7,5.48 L8.9,5.4 C8.90530446,5.45988276 8.90530446,5.52011724 8.9,5.58 L8.84,5.76 C8.8,5.88 8.74,5.92 8.68,6.04 C8.6,6.16 8.58,6.24 8.48,6.34 L8.36,6.48 L8.24,6.66 L8.06,6.86 C7.92,6.98 7.82,6.9 7.66,7.04 L7.6,7.24 L7.88,7.36 L8.14,7.4 L8.22,7.36 C8.22,7.3 8.22,7.24 8.28,7.2 C8.32,7.14 8.36,7.14 8.42,7.12 C8.5,7.12 8.58,7.12 8.62,7.08 C8.7,7.02 8.7,6.88 8.76,6.78 C8.90724014,6.48337254 9.1110648,6.21840048 9.36,6 L9.7,5.72 C9.74,5.64 9.8,5.62 9.8,5.52 L9.76,5.4 L9.72,5.2 C10.02,5.34 9.92,5.34 9.96,5.48 C10.02,5.6 9.96,5.68 9.98,5.82 C10,5.98 10.08,6.04 10.08,6.2 C10.1,6.38 10.06,6.48 10.02,6.66 C10,6.82 10,6.92 9.92,7.06 C9.87265211,7.17668138 9.79705397,7.27976975 9.7,7.36 L9.58,7.46 L9.56,7.66 L9.78,7.74 L10.1,7.82 L10.18,7.76 C10.22,7.62 10.18,7.42 10.26,7.42 C10.34,7.4 10.4,7.42 10.42,7.36 L10.42,7.22 L10.56,6.32 L10.64,5.94 L10.72,5.6 C10.86,5.2 10.68,5.14 10.52,4.88 C10.42,4.74 10.38,4.68 10.38,4.58 L10.38,4 C10.3738781,3.81338353 10.3738781,3.62661647 10.38,3.44 L10.46,3.4 C10.7,3.26 10.8,3.22 10.94,2.9 C10.9825281,2.80585574 11.0030474,2.70325934 11,2.6 L11,2.4 L10.92,2.2 C10.888632,2.1407076 10.8481377,2.08671516 10.8,2.04 C10.66,1.84 10.46,1.82 10.26,1.74 C9.96,1.64 9.76,1.66 9.46,1.64 C9.1,1.6 8.92,1.6 8.58,1.64 C8.18,1.64 7.96,1.72 7.56,1.78 L6.58,1.86 C6.12,1.86 5.7,1.76 5.42,1.78 C4.94,1.82 4.92,1.94 4.18,2 C3.92709647,2.02052612 3.67366095,2.03386483 3.42,2.04 L2.98,1.9 C3.16,1.84 3.2,1.8 3.28,1.7 C3.34,1.62 3.32,1.56 3.4,1.48 L3.54,1.28 C3.48681669,1.24007316 3.42527472,1.21272117 3.36,1.2 L3.16,1.2 C3.07670069,1.20311138 2.99496357,1.22354566 2.92,1.26 L2.76,1.38 L2.32,1.14 C2.13237256,1.04460442 1.92915443,0.983638977 1.72,0.96 L1.72,1 Z" id="Path" fill="#D52B1E"></path>
                            <g id="Group" stroke-linecap="round" transform="translate(0.200000, 1.600000)" stroke="#FEDF00">
                                <path d="M10.36,1.9 L10.2,1.96 C10.02,2.04 9.88,2.04 9.68,2.06 C9.16,2.1 8.82,1.84 8.28,1.88 C8,1.9 7.88,2.12 7.58,2.2 C7.4681373,2.22375702 7.354322,2.23714706 7.24,2.24 L7.34,2.04 C7.34,2.04 7.1,2.1 6.94,2.1 C6.83220582,2.09820505 6.72491927,2.08479423 6.62,2.06 L6.82,1.86 L6.56,1.82 C6.48656351,1.78384019 6.41911164,1.73662388 6.36,1.68 C6.47412552,1.66478279 6.58755939,1.64476504 6.7,1.62 C7,1.54 7.1,1.38 7.48,1.34 C7.7,1.34 8.08,1.34 9,1.5 C9.6,1.6 9.88,1.54 10.1,1.44 C10.26,1.38 10.3,1.24 10.32,1.08 C10.34,0.92 10.24,0.8 10.16,0.72 C10.14,0.72 10.06,0.66 9.94,0.64" id="Path" stroke-width="0.3"></path>
                                <path d="M1.56,0.12 C1.46,0.12 1.38,0.12 1.3,0.18 C1.2,0.24 1.18,0.32 1.1,0.4 C1.2,0.42 1.26,0.48 1.34,0.46 C1.42,0.46 1.44,0.42 1.5,0.36 C1.56,0.28 1.58,0.22 1.58,0.12 L1.56,0.12 Z" id="Path" stroke-width="0.2" fill="#FCD900"></path>
                                <path d="M3.8,2.76 C3.85235602,2.91916619 3.91930729,3.07315411 4,3.22 C4.04,3.38 4,3.46 4.04,3.62 L4.04,3.94 M5.4,2.54 L5.34,2.8 L5.14,3.5 L5.14,3.64 M2.94,2.84 C3.12,2.88 3.06,3.5 3.32,3.64" id="Shape" stroke-width="0.3"></path>
                                <path d="M8.62,3.96 L8.7,3.9 C8.90218379,3.8171695 9.08577808,3.69477331 9.24,3.54" id="Path" stroke-width="0.3"></path>
                                <path d="M7.08,3.6 C7.78,3.42 8.26,3.08 8.6,3.02 M7.8,2.72 L7.96,2.72 C8.26,2.66 8.3,2.84 8.5,2.96 C8.88,3.16 8.92,3.42 9.36,3.64 L9.44,3.66 L9.6,3.74" id="Shape" stroke-width="0.3"></path>
                                <path d="M0.14,0.9 L0.28,0.9 L0.44,0.86 C0.5,0.86 0.54,0.86 0.58,0.9 C0.62,0.9 0.62,0.92 0.64,0.96 C0.64,1 0.68,1.02 0.66,1.06 C0.66,1.1 0.6,1.14 0.54,1.14 C0.5,1.14 0.46,1.14 0.44,1.08 C0.428868685,1.05449495 0.428868685,1.02550505 0.44,1 C0.383390486,1.02852572 0.316609514,1.02852572 0.26,1 C0.208098459,0.984311041 0.164791057,0.948221539 0.14,0.9 Z" id="Path" stroke-width="0.2" fill="#FCD900"></path>
                            </g>
                            <path d="M1.82,4.44 L1.42,4.26 C1.5,4.22 1.56,4.22 1.62,4.16 C1.68,4.08 1.68,4 1.72,3.9 C1.76,3.8 1.76,3.7 1.86,3.62 C1.92,3.58 2.02,3.58 2.08,3.6 C2.16,3.6 2.24,3.68 2.26,3.74 C2.26,3.86 2.22,3.94 2.2,4.04 C2.2,4.16 2.14,4.22 2.16,4.32 C2.16,4.4 2.2,4.44 2.24,4.52 L1.84,4.44 L1.82,4.44 Z M1.62,4.64 C1.61007901,4.57491113 1.65445607,4.51398413 1.71945027,4.50346083 C1.78444448,4.49293752 1.84577981,4.53674847 1.85690453,4.60164244 C1.86802926,4.66653641 1.82478817,4.72827482 1.76,4.74 C1.72488033,4.7459399 1.68893681,4.73597136 1.66189327,4.71279119 C1.63484973,4.68961101 1.61950122,4.65561495 1.62,4.62 L1.62,4.64 Z M1.28,1.32 L1.24,1.32 C1.16,1.24 1.16,1.16 1.12,1.08 C1.08767684,1.00359496 1.06743488,0.922627108 1.06,0.84 L1.06,0.44 C1.06,0.38 1.06,0.32 1.02,0.26 C1.02,0.22 0.94,0.2 0.96,0.18 C0.96,0.16 1.02,0.18 1.04,0.18 C1.12,0.18 1.16,0.2 1.24,0.26 C1.3,0.32 1.34,0.38 1.36,0.46 L1.44,0.76 L1.5,0.92 L1.6,1.04 L1.46,1.2 L1.28,1.32 Z M2,3.44 L2.44,3.64 C2.7411333,3.45872514 2.98404536,3.19499205 3.14,2.88 C3.32,2.52 3.34,2.34 3.42,2 L3.06,1.9 L2.98,1.9 C2.88,2.26 2.84,2.44 2.66,2.74 C2.5,3 2.32,3.2 2.14,3.34 L2,3.44 Z M3,7.08 L3.16,6.82 L3.44,6.6 L3.52,6.6 C3.51761246,6.79088848 3.48382772,6.98008298 3.42,7.16 L3.34,7.36 L3.24,7.46 C3.14,7.3 2.98,7.2 2.98,7.06 L3,7.08 Z M9.6,7.44 L9.88,7.56 L10.18,7.74 L10.18,7.84 L9.88,7.88 C9.79346346,7.88671642 9.70653654,7.88671642 9.62,7.88 L9.42,7.88 L9.3,7.8 C9.4,7.66 9.46,7.48 9.58,7.44 L9.6,7.44 Z M7.64,7.04 L7.92,7.14 L8.22,7.34 C8.22,7.36 8.24,7.4 8.22,7.42 C8.04407269,7.46720743 7.86199901,7.48743784 7.68,7.48 L7.48,7.46 L7.34,7.4 C7.46,7.26 7.52,7.06 7.64,7.04 Z M4.16,7.46 L4.46,7.56 L4.76,7.76 L4.76,7.86 C4.57657449,7.90254147 4.38760983,7.91603894 4.2,7.9 L4,7.9 L3.88,7.82 C3.98,7.68 4.04,7.5 4.16,7.46 Z M2.36,1.5 C2.24,1.44 2.16,1.3 2.24,1.18 C2.26,1.14 2.32,1.14 2.36,1.1 C2.4,1.04 2.38,1 2.36,0.94 L2.34,0.74 L2.3,0.54 C2.3,0.42 2.3,0.34 2.38,0.22 C2.42,0.16 2.52,0.1 2.54,0.1 C2.58,0.12 2.54,0.2 2.54,0.26 C2.54,0.36 2.56,0.4 2.6,0.5 L2.74,0.76 C2.78,0.88 2.82,0.92 2.82,1.04 C2.82,1.14 2.82,1.18 2.78,1.28 C2.75419377,1.34263423 2.71290311,1.39768844 2.66,1.44 C2.61338985,1.47840334 2.55868877,1.50575388 2.5,1.52 C2.46077282,1.53111986 2.41922718,1.53111986 2.38,1.52 L2.36,1.5 Z" id="Shape" fill="#0065BD" fill-rule="nonzero"></path>
                        </g>
                    </g>
                </g>
                <path d="M82.53125,54.84375 L98.96875,54.84375 L98.96875,71.25 L82.53125,71.25 L82.53125,54.84375 Z M100.71875,54.84375 L117.15625,54.84375 L117.15625,71.25 L100.71875,71.25 L100.71875,54.84375 Z M82.59375,85.46875 C82.625,85.78125 82.75,86.28125 83.03125,86.8125 C83.34375,87.28125 83.21875,87.25 83.875,88 C84.239819,88.3678074 84.6619887,88.6738804 85.125,88.90625 C86.6018182,89.5420921 88.2078379,89.8204688 89.8125,89.71875 C90.65625,89.6875 91.3125,89.59375 91.875,89.5 C93.014248,89.3485665 94.1635399,89.2858778 95.3125,89.3125 C95.78125,89.3125 96.25,89.40625 96.78125,89.5 C97.875,89.71875 98.96875,90.125 98.96875,90.125 L98.96875,73.03125 L82.53125,73.03125 L82.53125,84.6875 L82.59375,85.4375 L82.59375,85.46875 Z M117.09375,85.46875 C117.027541,85.9387864 116.879468,86.3935826 116.65625,86.8125 C116.34375,87.28125 116.46875,87.25 115.8125,88 C115.447322,88.367388 115.025224,88.6734087 114.5625,88.90625 C114.15625,89.125 113.84375,89.21875 113.1875,89.40625 C112.107919,89.69124 110.988831,89.7968143 109.875,89.71875 C109.03125,89.6875 108.375,89.5625 107.84375,89.5 C107.097418,89.3993558 106.346446,89.3367748 105.59375,89.3125 C105.187736,89.2929285 104.781014,89.2929285 104.375,89.3125 C103.90625,89.3125 103.4375,89.40625 102.90625,89.5 C101.8125,89.71875 100.71875,90.125 100.71875,90.125 L100.71875,73 L117.1875,73 L117.1875,84.71875 L117.125,85.46875 L117.09375,85.46875 Z" id="Shape" stroke="#703D29" stroke-width="0.2"></path>
            </g>
        </g>
    </g>
</svg>