<?xml version="1.0" encoding="UTF-8"?>
<svg width="200px" height="150px" viewBox="0 0 200 150" version="1.1" xmlns="http://www.w3.org/2000/svg" xmlns:xlink="http://www.w3.org/1999/xlink">
    <!-- Generator: Sketch 52.5 (67469) - http://www.bohemiancoding.com/sketch -->
    <title>aq</title>
    <desc>Created with Sketch.</desc>
    <g id="Flags" stroke="none" stroke-width="1" fill="none" fill-rule="evenodd">
        <g id="Antarctica" transform="translate(-400.000000, -50.000000)">
            <g id="aq" transform="translate(400.000000, 50.000000)">
                <polygon id="Path" fill="#3A7DCE" points="0 0 200 0 200 150 0 150"></polygon>
                <path d="M57.75,70.40625 C56.84375,68.5625 56.84375,68.5625 56.84375,66.71875 C56.40625,66.71875 56.3125,66.8125 56.0625,66.71875 C55.8125,66.65625 55.6875,68.4375 54.84375,68.09375 C54.71875,67.90625 55.46875,66.625 54.65625,66.09375 C54.40625,65.9375 54.71875,64.875 54.59375,64.40625 C54.59375,64.40625 53.5625,64.96875 52.8125,63.03125 C52.40625,62.53125 51.875,63.5 51.875,63.5 C51.875,63.5 52.125,64.09375 51.71875,64.21875 C51.125,63.78125 50.71875,64.03125 49.96875,63.4375 C49.25,62.8125 50.125,62.15625 48.71875,61.65625 C49.65625,59.34375 49.65625,59.78125 51.90625,58.875 C50.53125,57.9375 50.53125,57.9375 49.625,56.5625 C48.28125,56.125 47.84375,55.625 46.5,54.71875 C44.6875,52.4375 43.78125,47.8125 43.78125,44.59375 C44.90625,43.5 46.46875,48.28125 48.75,49.65625 L51.875,51.03125 C53.6875,51.96875 54.15625,52.90625 55.5,53.8125 L59.5625,55.1875 C61.375,56.5625 62.28125,58.40625 63.625,58.875 C65.09375,58.875 65.375,58.03125 65.84375,57.9375 C68.5,57.8125 69.84375,57.46875 70.375,56.6875 C70.90625,56 72.1875,57.03125 75.8125,55.65625 L75.34375,53.78125 C75.34375,53.78125 76.3125,53 77.625,53.34375 C77.5625,52.5 77.5,50.25 78.78125,49.25 C78,48.40625 78.5,47.8125 78.5,47.8125 C78.5,47.8125 79.21875,47.09375 79.3125,46.71875 C78.9375,44.6875 79.625,44.65625 79.8125,44.0625 C80,43.46875 79.1875,43.6875 79.40625,42.84375 C79.625,42.03125 80.9375,41.84375 81.125,41.15625 C81.28125,40.46875 80.75,40.125 80.78125,39.96875 C81.0625,39.34375 80.8125,37.78125 80.78125,37.1875 C83.1875,36.5625 84,34.53125 84.84375,35.34375 C85.28125,32.59375 85.71875,31.65625 88.4375,31.65625 C88.8125,30.8125 87.46875,30.09375 88,29.8125 C88.90625,29.71875 89.5625,29.75 90.65625,31.15625 C90.96875,31.59375 91.03125,30.53125 91.375,30.40625 C91.6875,30.28125 92.53125,30.28125 92.625,29.71875 C92.78125,29.15625 92.9375,28.4375 93.40625,27.53125 C93.78125,26.75 94.09375,27.8125 94.40625,29.28125 C97.1063048,29.3928341 99.7925251,29.7273051 102.4375,30.28125 C103.78125,30.625 104.6875,29.90625 105.96875,29.78125 C106.9375,30.75 107.84375,30.03125 108.34375,32.125 C109.0625,33.25 110.21875,32.21875 110.5,32.53125 C112,36.78125 117.1875,33.9375 117.59375,34 C118.21875,34 119.0625,35.875 119.5625,35.875 C120.4375,35.71875 120.1875,35.125 120.9375,35.34375 C120.71875,36.96875 122.375,38.78125 122.375,40 C122.375,40 122.78125,40.1875 123.15625,39.84375 C123.53125,39.5 123.875,38.59375 124.1875,38.59375 L126.21875,38.96875 C128.65625,39.84375 129.90625,40.03125 130.84375,40.46875 C131.3125,41.28125 131.71875,41.71875 132.625,41.5625 C133.375,42.0625 132.8125,42.75 133.25,42.78125 C134.1875,42.3125 134.46875,41.8125 135.375,42.28125 C136.339317,42.8098159 137.123047,43.6153163 137.625,44.59375 C137.625,45.03125 137.15625,46.875 137.625,49.65625 C137.84375,50.59375 137.9375,51.3125 138.90625,52.875 C138.65625,54.53125 140.15625,57.25 140.15625,57.9375 C140.15625,58.875 139.40625,59.34375 138.96875,60.28125 C140.78125,61.65625 138.96875,63.96875 138.0625,65.34375 C144.84375,66.71875 141.6875,69.5 147.09375,68.09375 C145.75,71.34375 146.21875,71.0625 147.5625,74.3125 C144.875,76.15625 147.5,76.71875 145.6875,79 C145.59375,79.15625 146.78125,81.03125 148.4375,81.03125 C148,84.71875 146.625,83.34375 147.09375,88.84375 C143.53125,88.78125 144.96875,93 142.59375,92.5625 C142.71875,95.1875 143.9375,95.4375 143.46875,98.09375 C141.6875,98.5625 141.6875,98.5625 140.78125,99.9375 L139.40625,99.46875 C138.96875,101.78125 138.0625,102.25 139.40625,104.5625 L137.1875,104.5625 C137.15625,105.34375 137.96875,105.5625 138.125,106.40625 C138.03125,106.71875 135.53125,108.1875 133.59375,108.25 C133.09375,109.375 134.9375,110.59375 134.84375,111.15625 C132.71875,111.59375 131.78125,114.25 131.78125,114.25 C131.78125,114.25 132.875,114.6875 132.6875,115.1875 C132.09375,114.71875 131.78125,114.6875 130.875,114.6875 C130.4375,114.8125 129.3125,114.6875 128.28125,116.5 C127.125,116.875 126.5625,116.75 125.6875,117.9375 C125.3125,116.78125 124.75,117.9375 124.0625,118.375 C123.375,118.8125 122.46875,119.90625 122.34375,119.84375 C122.34375,119.53125 122.75,118.375 122.75,118.375 L120.5,118.84375 L120.21875,118.875 C120.0625,118.875 120.09375,117.53125 119.65625,117.59375 C119.25,117.625 118.03125,119.3125 117.59375,119.34375 C117.1875,119.40625 117.0625,118.8125 116.6875,118.875 C116.34375,118.9375 115.625,120.625 115.375,120.6875 C115.125,120.71875 114.125,119.625 113.25,119.78125 C108.8125,121.375 108.125,116.65625 107.40625,119.3125 C106.46875,118.8125 106.65625,119.09375 105.71875,119.34375 C105.09375,119.5 105.0625,118.53125 104.5,118.5625 C103.4375,118.5625 103.5,119.625 102.90625,119.3125 C102.4375,117.125 99.53125,117.53125 99.25,116.625 C99.03125,115.65625 100.5,115.6875 101,115 C101.34375,114.0625 100.59375,113.71875 102.09375,112.8125 C104.03125,111.46875 102.90625,110.9375 103.25,109.9375 C103.875,108.5 103.875,108.125 103.375,106.84375 C103.375,106.84375 101.84375,102.71875 101.5625,102.71875 C100.625,102.4375 100.625,104.25 99.3125,104.71875 C96.625,105.65625 91.8125,102.375 91,102.375 C90.25,102.375 86.71875,103.25 86.84375,101.4375 C86.34375,103.1875 84.40625,101.84375 84.28125,101.84375 C82.46875,101.84375 83.15625,103.28125 81.9375,103.21875 C81.40625,103.03125 75.84375,102.71875 75.84375,102.71875 L75.84375,103.65625 L72.21875,101.78125 L69.09375,100.84375 C66.375,99.9375 67.71875,97.625 63.21875,99.03125 L63.21875,96.21875 L60.9375,96.21875 C61.875,90.71875 60.9375,93.46875 60.5,88.40625 L58.6875,88.875 C56.90625,86.375 61.1875,86.84375 57.34375,85.1875 C57.34375,85.1875 57.40625,82.4375 56.4375,83.3125 C56.25,83.4375 56.90625,84.71875 56.90625,84.71875 C53.28125,84.25 52.375,83.34375 52.375,79.65625 C52.375,79.65625 55.34375,80.0625 55.09375,79.65625 C54.5785542,77.8655326 54.2846983,76.0184386 54.21875,74.15625 C54.15625,73.53125 56.96875,72.03125 56.40625,70.5625 C56.78125,70.4375 57.78125,70.40625 57.78125,70.40625" id="Path" fill="#FFFFFF"></path>
                <path d="M179.5625,88.84375 C179.418042,89.1175296 179.418042,89.4449704 179.5625,89.71875 C179.875,89.3125 179.625,89.125 179.5625,88.84375 Z" id="Path" stroke="#FFFFFF" stroke-width="1.1" stroke-linecap="round" stroke-linejoin="round"></path>
                <path d="M63.53125,52.4375 C63.53125,52.4375 62.78125,52.34375 62.9375,53 C63.1875,52.46875 63.5,52.46875 63.53125,52.4375 Z M63.6875,50.875 C63.28125,50.875 62.75,50.8125 62.9375,51.5 C63.1875,50.96875 63.6875,50.90625 63.6875,50.875 Z M66.53125,59.71875 C66.53125,59.71875 67.1875,59.6875 67.03125,60.34375 C66.78125,59.84375 66.5625,59.75 66.53125,59.71875 Z" id="Shape" stroke="#FFFFFF" stroke-linejoin="round"></path>
            </g>
        </g>
    </g>
</svg>