<?xml version="1.0" encoding="UTF-8"?>
<svg width="200px" height="150px" viewBox="0 0 200 150" version="1.1" xmlns="http://www.w3.org/2000/svg" xmlns:xlink="http://www.w3.org/1999/xlink">
    <!-- Generator: Sketch 52.5 (67469) - http://www.bohemiancoding.com/sketch -->
    <title>au</title>
    <desc>Created with Sketch.</desc>
    <g id="Flags" stroke="none" stroke-width="1" fill="none" fill-rule="evenodd">
        <g id="Oceania" transform="translate(-290.000000, -50.000000)">
            <g id="au" transform="translate(290.000000, 50.000000)">
                <polygon id="Path" fill="#000066" points="0 0 200 0 200 150 0 150"></polygon>
                <path d="M0,0 L0,8.75 L95.9375,78.125 L108.03125,78.125 L108.03125,69.375 L12.09375,0 L0,0 Z M108.03125,0 L108.03125,8.75 L12.09375,78.125 L0,78.125 L0,69.375 L95.9375,0 L108.03125,0 Z" id="Shape" fill="#FFFFFF" fill-rule="nonzero"></path>
                <path d="M45,0 L45,78.125 L63,78.125 L63,0 L45,0 Z M0,26.03125 L0,52.09375 L108.03125,52.09375 L108.03125,26.03125 L0,26.03125 Z" id="Shape" fill="#FFFFFF" fill-rule="nonzero"></path>
                <path d="M0,31.25 L0,46.875 L108.03125,46.875 L108.03125,31.25 L0,31.25 Z M48.625,0 L48.625,78.125 L59.375,78.125 L59.375,0 L48.59375,0 L48.625,0 Z M0,78.125 L36,52.09375 L44.0625,52.09375 L8.0625,78.125 L0,78.125 Z M0,0 L36,26.03125 L27.96875,26.03125 L0,5.8125 L0,0 Z M63.96875,26.03125 L99.96875,0 L108.03125,0 L72.03125,26.03125 L63.96875,26.03125 Z M108.03125,78.125 L72.03125,52.09375 L80.0625,52.09375 L108.03125,72.3125 L108.03125,78.125 Z" id="Shape" fill="#CC0000" fill-rule="nonzero"></path>
                <path d="M93.6875,122.65625 L80.03125,123.84375 L81.90625,137.40625 L72.5,127.5 L63.09375,137.40625 L64.96875,123.84375 L51.3125,122.65625 L63.09375,115.6875 L55.5,104.28125 L68.3125,109.125 L72.5,96.09375 L76.71875,109.125 L89.53125,104.28125 L81.9375,115.6875 M152.0625,135.15625 L148.75,130.21875 L154.3125,132.3125 L156.125,126.65625 L157.9375,132.3125 L163.5,130.21875 L160.21875,135.15625 L165.34375,138.1875 L159.40625,138.71875 L160.21875,144.625 L156.15625,140.28125 L152.03125,144.625 L152.84375,138.71875 L146.90625,138.21875 M152.03125,47 L148.75,42.0625 L154.3125,44.15625 L156.125,38.5 L157.9375,44.15625 L163.5,42.0625 L160.21875,47 L165.34375,50.0625 L159.40625,50.5625 L160.21875,56.46875 L156.15625,52.15625 L152.03125,56.4375 L152.84375,50.5625 L146.90625,50.0625 M119,82.8125 L115.71875,77.875 L121.28125,79.96875 L123.09375,74.3125 L124.9375,79.96875 L130.5,77.875 L127.1875,82.8125 L132.3125,85.84375 L126.375,86.375 L127.21875,92.28125 L123.09375,87.9375 L119.03125,92.28125 L119.8125,86.375 L113.875,85.875 M181.46875,74 L178.125,69.0625 L183.6875,71.15625 L185.5,65.5 L187.34375,71.15625 L192.90625,69.0625 L189.625,74 L194.71875,77.03125 L188.78125,77.5625 L189.59375,83.4375 L185.53125,79.125 L181.40625,83.4375 L182.21875,77.5625 L176.28125,77.03125 M169.375,100 L166.15625,102.03125 L167.0625,98.3125 L164.15625,95.875 L167.9375,95.5625 L169.375,92.0625 L170.84375,95.59375 L174.625,95.875 L171.71875,98.3125 L172.625,102.03125" id="Shape" fill="#FFFFFF"></path>
            </g>
        </g>
    </g>
</svg>