<?xml version="1.0" encoding="UTF-8"?>
<svg width="188px" height="141px" viewBox="0 0 188 141" version="1.1" xmlns="http://www.w3.org/2000/svg" xmlns:xlink="http://www.w3.org/1999/xlink">
    <!-- Generator: Sketch 52.5 (67469) - http://www.bohemiancoding.com/sketch -->
    <title>ba</title>
    <desc>Created with Sketch.</desc>
    <defs>
        <polygon id="path-1" points="2.7000624e-13 0 187.590643 0 187.590643 140.707602 2.7000624e-13 140.707602"></polygon>
    </defs>
    <g id="Flags" stroke="none" stroke-width="1" fill="none" fill-rule="evenodd">
        <g id="Europe" transform="translate(-950.000000, -50.000000)">
            <g id="ba" transform="translate(950.000000, 50.000000)">
                <mask id="mask-2" fill="white">
                    <use xlink:href="#path-1"></use>
                </mask>
                <g id="Path"></g>
                <g id="Group" mask="url(#mask-2)">
                    <g transform="translate(0.000000, -15.000000)">
                        <polygon id="Path" fill="#000099" fill-rule="evenodd" points="0.191885965 14.8026316 187.308114 14.8026316 187.308114 155.153509 0.191885965 155.153509"></polygon>
                        <polygon id="Path" fill="#FFCC00" fill-rule="evenodd" points="39.0625 14.8026316 179.139254 155.235746 179.139254 14.8848684"></polygon>
                        <path d="M144.161184,146.792763 L136.513158,141.22807 L128.673246,146.765351 L131.633772,137.664474 L123.903509,132.044956 L133.497807,132.044956 L136.458333,122.944079 L139.391447,132.072368 L148.985746,132.072368 L141.310307,137.746711 L144.161184,146.792763 Z M166.447368,149.64364 L156.85307,149.616228 L153.919956,140.487939 L150.95943,149.588816 L141.365132,149.588816 L149.095395,155.208333 L146.134868,164.309211 L153.974781,158.77193 L161.650219,164.336623 L158.77193,155.29057 L166.447368,149.64364 Z M123.79386,120.257675 L131.469298,114.583333 L121.875,114.555921 L118.941886,105.455044 L115.98136,114.555921 L106.387061,114.528509 L114.117325,120.148026 L111.156798,129.276316 L118.996711,123.711623 L126.672149,129.303728 L123.79386,120.257675 Z M106.167763,102.576754 L113.843202,96.9298246 L104.248904,96.9024123 L101.315789,87.7741228 L98.3278509,96.875 L88.7609649,96.875 L96.4912281,102.494518 L93.5307018,111.595395 L101.370614,106.058114 L109.01864,111.622807 L106.167763,102.576754 Z M88.7061404,85.1425439 L96.3815789,79.4682018 L86.7872807,79.4682018 L83.8815789,70.3125 L80.9210526,79.4133772 L71.3267544,79.4133772 L79.0570175,85.0054825 L76.0964912,94.1337719 L83.9364035,88.5690789 L91.6118421,94.1611842 L88.7335526,85.1151316 L88.7061404,85.1425439 Z M71.0526316,67.5164474 L78.7280702,61.8695175 L69.1337719,61.8421053 L66.2006579,52.7138158 L63.2127193,61.814693 L53.6458333,61.814693 L61.4035088,67.4342105 L58.4429825,76.5350877 L66.2828947,70.997807 L73.9309211,76.5625 L71.0800439,67.5164474 L71.0526316,67.5164474 Z M53.6184211,50 L61.2664474,44.3256579 L51.6721491,44.3256579 L48.7664474,35.1699561 L45.7785088,44.2982456 L36.1842105,44.2982456 L43.9692982,49.8903509 L40.9813596,58.9912281 L48.8212719,53.4539474 L56.441886,59.0460526 L53.6184211,50 Z M36.0745614,32.4561404 L43.7225877,26.7817982 L34.1282895,26.7817982 L31.2225877,17.6260965 L28.2346491,26.754386 L18.6403509,26.754386 L26.4254386,32.3464912 L23.4100877,41.4747807 L31.2774123,35.9100877 L38.8980263,41.502193 L36.0745614,32.4561404 Z M18.5307018,14.9122807 L26.1513158,9.2379386 L16.5570175,9.2379386 L13.6239035,0.109649123 L10.6907895,9.21052632 L1.09649123,9.21052632 L8.85416667,14.8026316 L5.89364035,23.9035088 L13.7335526,18.3662281 L21.3541667,23.9583333 L18.5307018,14.9122807 Z" id="Shape" fill="#FFFFFF" fill-rule="nonzero"></path>
                    </g>
                </g>
            </g>
        </g>
    </g>
</svg>