<?xml version="1.0" encoding="UTF-8"?>
<svg width="200px" height="141px" viewBox="0 0 200 141" version="1.1" xmlns="http://www.w3.org/2000/svg" xmlns:xlink="http://www.w3.org/1999/xlink">
    <!-- Generator: Sketch 52.5 (67469) - http://www.bohemiancoding.com/sketch -->
    <title>ca</title>
    <desc>Created with Sketch.</desc>
    <g id="Flags" stroke="none" stroke-width="1" fill="none" fill-rule="evenodd">
        <g id="North-America" transform="translate(-290.000000, -250.000000)">
            <g id="ca" transform="translate(290.000000, 250.000000)">
                <polygon id="Path" fill="#FFFFFF" points="50.0386029 0 149.9375 0 149.9375 141 50.0386029 141"></polygon>
                <path d="M0.102941176,0 L50.0386029,0 L50.0386029,141 L0.102941176,141 L0.102941176,0 Z M149.9375,0 L199.873162,0 L199.873162,141 L149.965074,141 L149.9375,0 Z M65.0110294,68.1316406 L61.0955882,69.4535156 L79.15625,85.2884766 C80.5349265,89.3367187 78.6875,90.5208984 77.5018382,92.6689453 L97.0790441,90.1904297 L96.6102941,109.880859 L100.691176,109.770703 L99.78125,90.2179687 L119.413603,92.5587891 C118.200368,89.9976562 117.125,88.6482422 118.227941,84.5724609 L136.261029,69.5636719 L133.117647,68.4070313 C130.525735,66.4242187 134.220588,58.8509766 134.772059,54.0591797 C134.772059,54.0591797 124.266544,57.6667969 123.577206,55.7666016 L120.875,50.6167969 L111.306985,61.1367188 C110.259191,61.3845703 109.818015,60.9714844 109.569853,60.0902344 L113.981618,38.1140625 L106.977941,42.0521484 C106.398897,42.3275391 105.819853,42.1072266 105.433824,41.41875 L98.6783088,27.9246094 L91.7297794,41.9419922 C91.2058824,42.4376953 90.6819853,42.4927734 90.2408088,42.1623047 L83.5680147,38.4169922 L87.59375,60.2003906 C87.2628676,61.0816406 86.4908088,61.3019531 85.6084559,60.8337891 L76.4264706,50.4515625 C75.2408088,52.3792969 74.4411765,55.4912109 72.8419118,56.2072266 C71.2702206,56.8681641 65.9485294,54.8853516 62.3915441,54.1142578 C63.6047794,58.4929688 67.4099265,65.7632813 65.0110294,68.1591797 L65.0110294,68.1316406 Z" id="Shape" fill="#FF0000" fill-rule="nonzero"></path>
            </g>
        </g>
    </g>
</svg>