<?xml version="1.0" encoding="UTF-8"?>
<svg width="200px" height="141px" viewBox="0 0 200 141" version="1.1" xmlns="http://www.w3.org/2000/svg" xmlns:xlink="http://www.w3.org/1999/xlink">
    <!-- Generator: Sketch 52.5 (67469) - http://www.bohemiancoding.com/sketch -->
    <title>cw</title>
    <desc>Created with Sketch.</desc>
    <defs>
        <polygon id="path-1" points="0 0 199.912152 0 199.912152 150 0 150"></polygon>
    </defs>
    <g id="Flags" stroke="none" stroke-width="1" fill="none" fill-rule="evenodd">
        <g id="South-America" transform="translate(-290.000000, -250.000000)">
            <g id="cw" transform="translate(290.000000, 250.000000)">
                <mask id="mask-2" fill="white">
                    <use xlink:href="#path-1"></use>
                </mask>
                <g id="Path"></g>
                <g id="Group" mask="url(#mask-2)">
                    <polygon id="Path" fill="#002B7F" points="0 0 211.396779 0 211.396779 141 0 141"></polygon>
                    <polygon id="Path" fill="#F9E814" points="0 88.125 211.396779 88.125 211.396779 105.75 0 105.75"></polygon>
                    <g id="b-link" transform="translate(11.745183, 11.750918)" fill="#FFFFFF">
                        <polygon id="b" points="11.745183 0 14.0942196 8.22564258 23.490366 8.22564258 15.2687379 11.750918 17.6177745 19.9765605 11.745183 16.4512852 4.69807321 21.1516523 7.04710981 12.9260098 1.1745183 8.22564258 9.39614641 8.22564258"></polygon>
                    </g>
                    <g id="b-link" transform="translate(31.324158, 31.339453)" fill="#FFFFFF">
                        <polygon id="b" points="15.6620791 0 18.7944949 10.9688086 31.3241581 10.9688086 20.3607028 15.6697266 23.4931186 26.6385352 15.6620791 21.9376172 6.26483163 28.2055078 9.39724744 17.2366992 1.56620791 10.9688086 12.5296633 10.9688086"></polygon>
                    </g>
                </g>
            </g>
        </g>
    </g>
</svg>