<?xml version="1.0" encoding="UTF-8"?>
<svg width="200px" height="150px" viewBox="0 0 200 150" version="1.1" xmlns="http://www.w3.org/2000/svg" xmlns:xlink="http://www.w3.org/1999/xlink">
    <!-- Generator: Sketch 52.5 (67469) - http://www.bohemiancoding.com/sketch -->
    <title>cy</title>
    <desc>Created with Sketch.</desc>
    <g id="Flags" stroke="none" stroke-width="1" fill="none" fill-rule="evenodd">
        <g id="Europe" transform="translate(-730.000000, -250.000000)">
            <g id="cy" transform="translate(730.000000, 250.000000)">
                <polygon id="Path" fill="#FFFFFF" points="0 0 200 0 200 150 0 150"></polygon>
                <path d="M96.1875,124.5625 C96.1631199,124.545544 96.1419559,124.52438 96.125,124.5 L96.09375,124.5 L95.6875,124.0625 L94.5,122.65625 L92.96875,120.6875 L92.78125,120.40625 L90.84375,119.8125 L89.40625,119.15625 L90.15625,118.3125 L92.78125,119.40625 L94.71875,119.8125 L98.3125,122.46875 L97.28125,123.375 C96.9142628,123.716953 96.5697928,124.0823 96.25,124.46875 L96.46875,124.3125 L96.71875,124.5 L96.21875,124.5625 L96.1875,124.5625 Z M82.875,120.5625 C81.1129244,120.546799 79.3869288,120.061362 77.875,119.15625 C77.875,119.15625 78.09375,118.75 78.59375,118.40625 C79.09375,118.03125 79.96875,117.625 81.40625,117.59375 C83.09375,117.59375 85.15625,118.1875 87.5,119.28125 C86.099588,120.108136 84.5012888,120.540108 82.875,120.53125 L82.875,120.5625 Z M75.53125,118.9375 C75.21875,118.9375 74.90625,118.8125 74.71875,118.625 C74.5415545,118.408735 74.4231553,118.150409 74.375,117.875 C74.2919802,117.52732 74.2603942,117.169345 74.28125,116.8125 C74.4115001,116.766181 74.5493504,116.744973 74.6875,116.75 C75.3125,116.75 75.8125,117.28125 76.03125,117.8125 C76.15625,118.125 76.1875,118.375 76.09375,118.59375 C76.03125,118.78125 75.78125,118.90625 75.53125,118.90625 L75.53125,118.9375 Z M88.4375,117.4375 C84.09375,116.8125 82.25,115.25 81.46875,114.03125 C80.65625,112.75 80.84375,111.53125 80.84375,111.53125 C80.84375,111.53125 81.09375,111.46875 81.46875,111.46875 C82.65625,111.46875 85.59375,112.0625 88.4375,117.40625 L88.4375,117.4375 Z M79.53125,116.5625 C77.6875,116.5625 76.28125,116.25 75.34375,115.625 C74.9430195,115.373217 74.618815,115.016592 74.40625,114.59375 C74.3392277,114.434467 74.2970695,114.265834 74.28125,114.09375 C74.993787,113.796732 75.7593311,113.647876 76.53125,113.65625 C78.7841456,113.737089 80.9110046,114.716119 82.4375,116.375 C81.375,116.5 80.40625,116.5625 79.53125,116.5625 Z M70.5625,116.25 C68.625,116.25 65.9375,115.625 64.25,113.96875 C64.25,113.96875 66.09375,113.5 68.125,113.4375 L68.5,113.4375 C70.34375,113.4375 71.75,113.78125 72.6875,114.5 C73,114.75 73.1875,114.96875 73.21875,115.1875 C73.25,115.375 73.15625,115.5625 72.96875,115.71875 C72.53125,116.03125 71.78125,116.21875 70.71875,116.21875 L70.5625,116.21875 L70.5625,116.25 Z M64.21875,112.96875 C63.9739757,112.964064 63.7443631,112.849258 63.59375,112.65625 C63.4631558,112.47008 63.377575,112.256128 63.34375,112.03125 C63.25,111.59375 63.28125,111.15625 63.28125,111.125 C63.3797365,111.082021 63.4863088,111.060706 63.59375,111.0625 C63.875,111.0625 64.09375,111.21875 64.21875,111.375 C64.4087726,111.548623 64.5581552,111.762027 64.65625,112 C64.71875,112.28125 64.75,112.5 64.65625,112.6875 C64.65625,112.8125 64.46875,113 64.25,113 L64.21875,112.96875 Z M78.875,112.65625 C78.5625,112.65625 78.25,112.53125 78.0625,112.34375 C77.8853045,112.127485 77.7669053,111.869159 77.71875,111.59375 C77.6357302,111.24607 77.6041442,110.888095 77.625,110.53125 C77.7552501,110.484931 77.8931004,110.463723 78.03125,110.46875 C78.65625,110.46875 79.1875,111 79.375,111.53125 C79.5,111.84375 79.53125,112.09375 79.46875,112.3125 C79.375,112.5 79.15625,112.625 78.84375,112.625 L78.875,112.65625 Z M71.75,112.34375 C67.8125,112.21875 65.75,111.09375 64.75,110.15625 C64.3141673,109.779436 63.9536472,109.323484 63.6875,108.8125 C63.53125,108.5 63.46875,108.25 63.46875,108.1875 C63.46875,108.125 63.84375,108.0625 64.40625,108.0625 L64.53125,108.0625 C65.84375,108.0625 68.5625,108.625 71.71875,112.34375 L71.75,112.34375 Z M76,111.96875 C73.7508744,111.724245 71.6597554,110.695282 70.09375,109.0625 C69.5172807,108.431774 69.0806526,107.686311 68.8125,106.875 C68.8125,106.875 69.1875,106.78125 69.75,106.75 C69.8541344,106.746331 69.9583656,106.746331 70.0625,106.75 C71.625,106.78125 74.53125,107.5 76,111.96875 Z M59.75,110.40625 C58.7517525,110.415324 57.7557287,110.310479 56.78125,110.09375 C55.125,109.65625 54.40625,109.03125 54.09375,108.5625 C53.9659971,108.374805 53.8806842,108.161523 53.84375,107.9375 C53.8339119,107.854457 53.8339119,107.770543 53.84375,107.6875 C53.84375,107.6875 54.9375,107.375 56.46875,107.34375 C57.2440509,107.324087 58.0192443,107.38694 58.78125,107.53125 C60.3753469,107.867137 61.7952501,108.76567 62.78125,110.0625 C62.78125,110.0625 61.53125,110.4375 59.75,110.4375 L59.75,110.40625 Z M67.09375,107.78125 C66.8014253,107.789032 66.5188164,107.675989 66.3125,107.46875 C66.1353045,107.252485 66.0169053,106.994159 65.96875,106.71875 C65.84375,106.21875 65.875,105.71875 65.875,105.65625 C65.9934429,105.602985 66.1204255,105.571239 66.25,105.5625 L66.28125,105.5625 C66.90625,105.5625 67.40625,106.125 67.625,106.65625 C67.75,106.96875 67.75,107.21875 67.6875,107.40625 C67.59375,107.625 67.375,107.75 67.09375,107.75 L67.09375,107.78125 Z M61.59375,107 C60.5387397,106.700897 59.5294422,106.25933 58.59375,105.6875 C57.21875,104.84375 55.5,103.34375 55.3125,101 L55.625,100.96875 L55.71875,100.96875 C56.125,100.96875 56.96875,101.0625 58,101.84375 C59.3125,102.84375 60.5,104.59375 61.59375,107 Z M65.1875,106.875 C64.3256745,106.482624 63.5256068,105.966791 62.8125,105.34375 C60.9836274,103.765195 59.5586094,101.772312 58.65625,99.53125 C58.65625,99.53125 58.9375,99.375 59.375,99.34375 C59.3958285,99.3431185 59.4166715,99.3431185 59.4375,99.34375 L59.5625,99.34375 C60.1875,99.34375 61.09375,99.625 62.09375,100.71875 C63.28125,101.96875 64.3125,104.03125 65.21875,106.875 L65.1875,106.875 Z M55.84375,106.59375 C54.625,106.59375 54.21875,105.96875 54.09375,105.65625 C53.9726566,105.359566 53.9296208,105.036797 53.96875,104.71875 C54.1738782,104.673271 54.383678,104.652291 54.59375,104.65625 C55.3806826,104.631466 56.1333134,104.978834 56.625,105.59375 C56.6875,105.71875 56.875,106.03125 56.71875,106.3125 C56.59375,106.5 56.3125,106.625 55.84375,106.625 L55.84375,106.59375 Z M53.1875,103.21875 C52.2453825,103.228946 51.304211,103.155744 50.375,103 C49.3125,102.8125 48.71875,101.90625 48.375,101.15625 C48.0625,100.375 47.9375,99.59375 47.9375,99.59375 C51.25,99.6875 52.84375,100.65625 53.5625,101.46875 C54.0163642,101.935765 54.3021724,102.540359 54.375,103.1875 C54.375,103.1875 53.875,103.25 53.1875,103.25 L53.1875,103.21875 Z M56.625,99.78125 C56.357879,99.4394841 56.1075818,99.0848964 55.875,98.71875 C55.46875,98.09375 55.125,97.46875 55.125,96.96875 C55.125,96.4375 55,95.40625 54.9375,94.78125 L54.75,93.375 C54.84375,93.375 56.8125,94.125 56.8125,96 C56.8125,97.875 56.625,99.75 56.625,99.75 L56.625,99.78125 Z M54.0625,99.59375 L54,99.59375 C51.856278,98.9517362 49.9031743,97.7927516 48.3125,96.21875 C47.78125,95.59375 47.4375,94.59375 47.34375,93.28125 C47.28125,92.34375 47.34375,91.5625 47.34375,91.46875 C47.455764,91.4390952 47.5719747,91.4285305 47.6875,91.4375 C48.125,91.4375 48.625,91.625 49.25,92.0625 C49.8301543,92.473309 50.3738318,92.9333438 50.875,93.4375 C51.875,94.4375 52.65625,95.4375 52.65625,95.4375 C52.75,95.5625 53.28125,96.59375 53.75,97.59375 C53.969355,98.0529349 54.137049,98.5350551 54.25,99.03125 C54.28125,99.21875 54.3125,99.34375 54.25,99.46875 C54.235204,99.5205371 54.2018228,99.5650454 54.15625,99.59375 C54.1151108,99.6031265 54.0723892,99.6031265 54.03125,99.59375 L54.0625,99.59375 Z" id="a" fill="#435125" fill-rule="nonzero"></path>
                <g id="a-link" transform="translate(112.718750, 107.968750) scale(-1, 1) translate(-112.718750, -107.968750) translate(87.093750, 91.250000)" fill="#435125" fill-rule="nonzero">
                    <path d="M49,33.3125 C48.9756199,33.2955441 48.9544559,33.2743801 48.9375,33.25 L48.90625,33.25 L48.5,32.8125 L47.3125,31.40625 L45.78125,29.4375 L45.59375,29.15625 L43.65625,28.5625 L42.21875,27.90625 L42.96875,27.0625 L45.59375,28.15625 L47.53125,28.5625 L51.125,31.21875 L50.09375,32.125 C49.7267628,32.4669527 49.3822928,32.8322997 49.0625,33.21875 L49.28125,33.0625 L49.53125,33.25 L49.03125,33.3125 L49,33.3125 Z M35.6875,29.3125 C33.9254244,29.2967986 32.1994288,28.8113624 30.6875,27.90625 C30.6875,27.90625 30.90625,27.5 31.40625,27.15625 C31.90625,26.78125 32.78125,26.375 34.21875,26.34375 C35.90625,26.34375 37.96875,26.9375 40.3125,28.03125 C38.912088,28.8581357 37.3137888,29.2901084 35.6875,29.28125 L35.6875,29.3125 Z M28.34375,27.6875 C28.03125,27.6875 27.71875,27.5625 27.53125,27.375 C27.3540545,27.1587346 27.2356553,26.9004089 27.1875,26.625 C27.1044802,26.2773202 27.0728942,25.9193453 27.09375,25.5625 C27.2240001,25.5161805 27.3618504,25.4949728 27.5,25.5 C28.125,25.5 28.625,26.03125 28.84375,26.5625 C28.96875,26.875 29,27.125 28.90625,27.34375 C28.84375,27.53125 28.59375,27.65625 28.34375,27.65625 L28.34375,27.6875 Z M41.25,26.1875 C36.90625,25.5625 35.0625,24 34.28125,22.78125 C33.46875,21.5 33.65625,20.28125 33.65625,20.28125 C33.65625,20.28125 33.90625,20.21875 34.28125,20.21875 C35.46875,20.21875 38.40625,20.8125 41.25,26.15625 L41.25,26.1875 Z M32.34375,25.3125 C30.5,25.3125 29.09375,25 28.15625,24.375 C27.7555195,24.1232173 27.431315,23.7665923 27.21875,23.34375 C27.1517277,23.1844668 27.1095695,23.0158339 27.09375,22.84375 C27.806287,22.5467317 28.5718311,22.3978759 29.34375,22.40625 C31.5966456,22.4870889 33.7235046,23.4661192 35.25,25.125 C34.1875,25.25 33.21875,25.3125 32.34375,25.3125 Z M23.375,25 C21.4375,25 18.75,24.375 17.0625,22.71875 C17.0625,22.71875 18.90625,22.25 20.9375,22.1875 L21.3125,22.1875 C23.15625,22.1875 24.5625,22.53125 25.5,23.25 C25.8125,23.5 26,23.71875 26.03125,23.9375 C26.0625,24.125 25.96875,24.3125 25.78125,24.46875 C25.34375,24.78125 24.59375,24.96875 23.53125,24.96875 L23.375,24.96875 L23.375,25 Z M17.03125,21.71875 C16.7864757,21.7140644 16.5568631,21.5992581 16.40625,21.40625 C16.2756558,21.2200798 16.190075,21.0061279 16.15625,20.78125 C16.0625,20.34375 16.09375,19.90625 16.09375,19.875 C16.1922365,19.8320205 16.2988088,19.8107061 16.40625,19.8125 C16.6875,19.8125 16.90625,19.96875 17.03125,20.125 C17.2212726,20.2986234 17.3706552,20.5120271 17.46875,20.75 C17.53125,21.03125 17.5625,21.25 17.46875,21.4375 C17.46875,21.5625 17.28125,21.75 17.0625,21.75 L17.03125,21.71875 Z M31.6875,21.40625 C31.375,21.40625 31.0625,21.28125 30.875,21.09375 C30.6978045,20.8774846 30.5794053,20.6191589 30.53125,20.34375 C30.4482302,19.9960702 30.4166442,19.6380953 30.4375,19.28125 C30.5677501,19.2349305 30.7056004,19.2137228 30.84375,19.21875 C31.46875,19.21875 32,19.75 32.1875,20.28125 C32.3125,20.59375 32.34375,20.84375 32.28125,21.0625 C32.1875,21.25 31.96875,21.375 31.65625,21.375 L31.6875,21.40625 Z M24.5625,21.09375 C20.625,20.96875 18.5625,19.84375 17.5625,18.90625 C17.1266673,18.5294359 16.7661472,18.073484 16.5,17.5625 C16.34375,17.25 16.28125,17 16.28125,16.9375 C16.28125,16.875 16.65625,16.8125 17.21875,16.8125 L17.34375,16.8125 C18.65625,16.8125 21.375,17.375 24.53125,21.09375 L24.5625,21.09375 Z M28.8125,20.71875 C26.5633744,20.474245 24.4722554,19.4452817 22.90625,17.8125 C22.3297807,17.181774 21.8931526,16.4363115 21.625,15.625 C21.625,15.625 22,15.53125 22.5625,15.5 C22.6666344,15.496331 22.7708656,15.496331 22.875,15.5 C24.4375,15.53125 27.34375,16.25 28.8125,20.71875 Z M12.5625,19.15625 C11.5642525,19.165324 10.5682287,19.0604794 9.59375,18.84375 C7.9375,18.40625 7.21875,17.78125 6.90625,17.3125 C6.77849705,17.1248048 6.69318419,16.9115227 6.65625,16.6875 C6.64641192,16.604457 6.64641192,16.520543 6.65625,16.4375 C6.65625,16.4375 7.75,16.125 9.28125,16.09375 C10.0565509,16.0740865 10.8317443,16.13694 11.59375,16.28125 C13.1878469,16.617137 14.6077501,17.5156695 15.59375,18.8125 C15.59375,18.8125 14.34375,19.1875 12.5625,19.1875 L12.5625,19.15625 Z M19.90625,16.53125 C19.6139253,16.5390322 19.3313164,16.4259886 19.125,16.21875 C18.9478045,16.0024846 18.8294053,15.7441589 18.78125,15.46875 C18.65625,14.96875 18.6875,14.46875 18.6875,14.40625 C18.8059429,14.3529846 18.9329255,14.3212389 19.0625,14.3125 L19.09375,14.3125 C19.71875,14.3125 20.21875,14.875 20.4375,15.40625 C20.5625,15.71875 20.5625,15.96875 20.5,16.15625 C20.40625,16.375 20.1875,16.5 19.90625,16.5 L19.90625,16.53125 Z M14.40625,15.75 C13.3512397,15.4508973 12.3419422,15.0093297 11.40625,14.4375 C10.03125,13.59375 8.3125,12.09375 8.125,9.75 L8.4375,9.71875 L8.53125,9.71875 C8.9375,9.71875 9.78125,9.8125 10.8125,10.59375 C12.125,11.59375 13.3125,13.34375 14.40625,15.75 Z M18,15.625 C17.1381745,15.2326244 16.3381068,14.7167913 15.625,14.09375 C13.7961274,12.5151946 12.3711094,10.5223122 11.46875,8.28125 C11.46875,8.28125 11.75,8.125 12.1875,8.09375 C12.2083285,8.09311854 12.2291715,8.09311854 12.25,8.09375 L12.375,8.09375 C13,8.09375 13.90625,8.375 14.90625,9.46875 C16.09375,10.71875 17.125,12.78125 18.03125,15.625 L18,15.625 Z M8.65625,15.34375 C7.4375,15.34375 7.03125,14.71875 6.90625,14.40625 C6.78515659,14.1095658 6.74212079,13.7867973 6.78125,13.46875 C6.98637824,13.4232712 7.19617801,13.4022913 7.40625,13.40625 C8.19318259,13.3814661 8.94581345,13.7288342 9.4375,14.34375 C9.5,14.46875 9.6875,14.78125 9.53125,15.0625 C9.40625,15.25 9.125,15.375 8.65625,15.375 L8.65625,15.34375 Z M6,11.96875 C5.05788251,11.9789463 4.11671102,11.9057441 3.1875,11.75 C2.125,11.5625 1.53125,10.65625 1.1875,9.90625 C0.875,9.125 0.75,8.34375 0.75,8.34375 C4.0625,8.4375 5.65625,9.40625 6.375,10.21875 C6.82886418,10.6857647 7.11467236,11.2903589 7.1875,11.9375 C7.1875,11.9375 6.6875,12 6,12 L6,11.96875 Z M9.4375,8.53125 C9.17037902,8.18948415 8.92008181,7.83489644 8.6875,7.46875 C8.28125,6.84375 7.9375,6.21875 7.9375,5.71875 C7.9375,5.1875 7.8125,4.15625 7.75,3.53125 L7.5625,2.125 C7.65625,2.125 9.625,2.875 9.625,4.75 C9.625,6.625 9.4375,8.5 9.4375,8.5 L9.4375,8.53125 Z M6.875,8.34375 L6.8125,8.34375 C4.66877803,7.7017362 2.71567429,6.54275157 1.125,4.96875 C0.59375,4.34375 0.25,3.34375 0.15625,2.03125 C0.09375,1.09375 0.15625,0.3125 0.15625,0.21875 C0.268263953,0.189095154 0.384474746,0.178530536 0.5,0.1875 C0.9375,0.1875 1.4375,0.375 2.0625,0.8125 C2.64265429,1.22330899 3.18633181,1.68334381 3.6875,2.1875 C4.6875,3.1875 5.46875,4.1875 5.46875,4.1875 C5.5625,4.3125 6.09375,5.34375 6.5625,6.34375 C6.78185498,6.80293488 6.94954895,7.28505506 7.0625,7.78125 C7.09375,7.96875 7.125,8.09375 7.0625,8.21875 C7.047704,8.27053714 7.01432278,8.31504544 6.96875,8.34375 C6.92761084,8.35312648 6.88488916,8.35312648 6.84375,8.34375 L6.875,8.34375 Z" id="a"></path>
                </g>
                <polygon id="Path" fill="#D47600" points="162.1875 23.875 161.625 24.09375 161.375 24.1875 160.6875 24.15625 160 24.46875 158.8125 25.28125 158.78125 25.3125 158.3125 25.4375 157.90625 25.25 157.6875 25.375 157.59375 25.84375 157.375 26.1875 157.09375 26.375 156.15625 26.46875 155.375 26.90625 154.3125 26.59375 153.84375 26.8125 152.8125 27.75 152.28125 27.96875 152.125 27.96875 151.40625 27.9375 151.125 28.03125 150.6875 28.4375 149.875 28.5 149.59375 28.6875 149.1875 29.5 148.75 30 148.5 30.03125 148.25 29.9375 148.03125 29.96875 147.9375 30.5 147.75 30.71875 147.1875 30.90625 146.75 31.28125 146.34375 31.46875 145.71875 31.46875 145.1875 31.78125 144.21875 31.84375 143.8125 32.21875 143.71875 32.3125 143.53125 32.40625 143.21875 32.59375 143.15625 32.65625 142.78125 32.59375 142.34375 32.75 142.15625 32.5 141.84375 32.65625 141.46875 32.6875 140.96875 32.46875 140.5625 32.28125 140.28125 32.34375 140.1875 32.8125 140.1875 32.875 139.875 33.25 139.34375 33.59375 139.28125 33.6875 138.65625 34.5 137.46875 35.75 136.46875 36.25 135.4375 36.5625 134.71875 37.15625 132.84375 38.09375 129.8125 39.59375 129.1875 39.78125 128.3125 39.90625 126.75 40.5 125.375 40.90625 125.28125 40.9375 125.03125 41.03125 123.0625 41.625 122.15625 41.5 121.625 41.71875 120.21875 41.5625 119.25 41.5625 118.625 41.6875 117.46875 42.25 115.5 43.1875 114.875 43.8125 113.875 44.3125 112.6875 44.6875 112.6875 44.1875 112.28125 44.3125 111.96875 44.40625 111.03125 44.53125 110.5 44.53125 110.15625 44.4375 110.09375 44.4375 108.15625 45.09375 105.96875 45.3125 104.875 45.65625 104.0625 45.65625 103.5625 45.8125 102.5625 45.9375 102.1875 45.84375 102.125 45.8125 99.1875 45.9375 97.84375 45.78125 97.21875 45.9375 96.125 45.5625 94.5625 45.375 94.1875 45.28125 93.375 45.03125 93 45.25 92.6875 45.28125 92.0625 45.03125 91.8125 45.03125 91.25 45.21875 90.9375 45.15625 90.625 44.90625 89.96875 44.8125 89.53125 44.46875 87.1875 44.78125 86.5625 44.59375 84.40625 43.96875 84.09375 43.96875 83.65625 44.28125 83.03125 44.53125 82.4375 44.65625 81.6875 44.6875 80.8125 44.46875 79.9375 44.03125 79.59375 43.9375 78.84375 44.03125 78.625 44.03125 77.25 43.3125 75.5 42.21875 74.3125 41.625 73.84375 41.5625 73.78125 41.78125 74 42.46875 74.09375 43.1875 74.09375 43.8125 74.0625 44.21875 74.15625 44.5625 74.59375 45.0625 74.78125 45.53125 74.90625 46.84375 74.90625 48.1875 74.6875 50.3125 74.625 50.625 74.375 51.75 74.15625 52.78125 73.25 55.5 73.03125 55.8125 72.40625 56.21875 71.0625 57.15625 70.0625 57.71875 69.75 57.84375 68.9375 57.90625 68.4375 57.90625 67.8125 57.5625 67.1875 57.40625 66.375 56.8125 65.5 56.625 64.5 56.0625 64.25 55.75 63.71875 55.6875 62.96875 55.46875 62.6875 55.375 62.5 55.34375 61.5625 55.3125 60.65625 54.90625 60.1875 54.78125 59.5625 54.78125 58.90625 55.09375 58.5625 55.21875 58.125 55.0625 57.8125 55.0625 57.5 55.59375 57.4375 55.6875 57.1875 55.8125 56.65625 55.8125 56.40625 55.90625 56.0625 56.0625 55.75 56.1875 55.59375 56.25 55.5 56.25 55.34375 56.3125 55.15625 56.3125 54.78125 56.125 54.59375 56.03125 54.28125 55.96875 54.125 56.0625 54.09375 56.65625 53.9375 57 53.4375 57.4375 52.9375 57.875 52.625 58.375 51.6875 60.46875 51.09375 61.3125 50.9375 61.53125 50.3125 62.1875 49.78125 62.59375 48.5625 63.53125 47.40625 64 46.40625 64.1875 45.90625 64.1875 44.96875 64.0625 44.15625 63.8125 43.21875 63.25 42.25 62.4375 40.78125 61.03125 40.59375 60.90625 40.53125 60.875 40.09375 60.5625 39.75 60.5625 39.625 60.8125 39.53125 61.125 39.46875 61.40625 39.3125 62.96875 39.3125 63.0625 39.40625 63.71875 40.53125 65.28125 40.84375 66.09375 40.90625 66.1875 41.125 66.5625 41.3125 66.875 41.71875 68 41.4375 68.625 41.5625 69.0625 41.25 69.3125 41.1875 69.6875 42.15625 70.9375 42.375 71.46875 42.15625 72.21875 41.75 72.65625 41.65625 72.75 41.71875 73.0625 42.15625 73.5 42.9375 74.1875 43.34375 75.1875 43.65625 75.5 44.03125 75.40625 44.21875 75.5625 44.53125 75.5625 44.84375 75.875 45.03125 75.9375 45.34375 76.09375 45.59375 76.40625 45.625 77.40625 46.09375 78.59375 46.09375 79.375 46.40625 79.84375 46.46875 80.21875 46.3125 81.25 46.6875 81.5625 47.0625 81.5 47.3125 81.53125 47.71875 81.875 48.21875 82.625 48.71875 82.5625 49.03125 82.6875 50.5 84.03125 50.8125 84.21875 51.09375 84.34375 51.40625 84.65625 51.84375 84.34375 51.90625 84.34375 52.40625 84.28125 52.625 84.4375 53.0625 84.71875 53.59375 84.71875 54.84375 85.09375 55.34375 85.21875 56.40625 85.875 56.875 86.15625 57.125 86.375 57.5 86.6875 58.1875 87 58.8125 87.125 59.125 87.1875 59.40625 87.28125 60.71875 87.8125 61.4375 87.96875 62.0625 88.21875 62.5625 88.375 62.9375 88.375 63.4375 87.96875 63.90625 87.96875 64.3125 88.03125 64.71875 87.96875 65.34375 87.59375 65.4375 87.40625 65.875 87.21875 67.375 87.03125 67.8125 87.15625 68.9375 86.6875 69.6875 86.875 70.3125 86.65625 71.78125 86.96875 72.15625 87.25 72.59375 87.71875 73.125 87.71875 72.90625 88.0625 73.53125 88.75 74.125 89.59375 74.15625 89.71875 74.5625 90.9375 74.875 91.375 75.09375 91.96875 75.09375 92.34375 74.78125 92.625 74.71875 92.75 74.71875 92.8125 74.78125 92.96875 74.90625 92.90625 75.125 92.78125 75.4375 92.71875 75.9375 92.78125 76.28125 92.8125 76.8125 92.5625 77.1875 92.375 77.75 92.625 78.375 92.625 78.65625 92.71875 79.40625 93.0625 79.78125 93.09375 79.90625 93 80 92.8125 79.96875 92.5625 79.65625 92.21875 79.03125 91.46875 78.78125 91.09375 78.59375 90.5625 78.53125 89.875 78.46875 89.40625 78.5625 88.78125 78.71875 88.5625 78.84375 88.0625 78.875 87.9375 79.25 87.46875 80.1875 86.84375 81.1875 85.96875 81.96875 85.4375 82.78125 85.09375 82.78125 85 82.90625 85.03125 84.96875 84.3125 85.90625 84.15625 92.15625 84.59375 92.375 84.53125 92.59375 83.9375 92.6875 83.84375 92.78125 83.78125 93.46875 83.46875 93.78125 83.40625 94.65625 83.625 95.03125 83.71875 95.625 83.40625 96.03125 83.40625 96.875 82.9375 97.40625 82.9375 97.625 82.875 98.65625 82.125 99.625 81.84375 99.875 81.71875 99.96875 81.65625 101 81.125 101.625 80.625 102.1875 80.3125 102.8125 80.1875 104.375 80.0625 104.71875 79.53125 105.40625 79.4375 105.8125 78.96875 106.28125 78.78125 106.625 78.28125 106.9375 77.875 107.3125 77.65625 108.59375 77.5625 110.09375 77.75 110.3125 77.625 110.625 76.40625 111 76.1875 111.9375 74.78125 111.9375 74.28125 111.96875 73.84375 112.125 73.21875 112.03125 72.15625 112.15625 71.03125 112.75 69.625 113.28125 69.0625 114.125 68.46875 114.5625 68.28125 115.1875 68.1875 115.25 68.1875 115.40625 68.125 118.28125 68.125 119 68.09375 120.78125 68.40625 120.90625 68.40625 121.5 68.625 122.1875 69.15625 122.9375 69.875 123.0625 70 123.53125 70.21875 123.6875 70.28125 124.0625 70.21875 124.625 69.90625 125.0625 69.59375 125.625 69.28125 125.625 69.21875 125.96875 68.75 126.09375 68.53125 127.21875 68.09375 128.53125 68.03125 128.6875 67.9375 128.75 67.9375 129.09375 67.5 129.40625 67.5 130.21875 67.8125 130.75 67.6875 131.1875 67.84375 131.53125 67.8125 132.15625 67.71875 132.875 68.21875 133.28125 68.28125 134.6875 69.09375 134.8125 69.09375 134.875 69.125 135.03125 69.0625 135.28125 69 135.3125 69 135.34375 69.03125 135.53125 69.25 135.75 69.28125 136 68.96875 135.90625 68.78125 135.875 68.71875 135.34375 68.625 134.90625 67.84375 135.34375 67.375 134.65625 66.5625 134.53125 66.40625 134.53125 66.375 134.28125 66 133.09375 64.1875 131.53125 62.9375 131 62.53125 130.8125 62.375 129.96875 61.53125 129.375 60.75 129.3125 60.59375 129.1875 60.3125 128.84375 59.5625 128.21875 59.09375 127.71875 58.53125 126.65625 57.09375 126.5 56.875 126.25 56.71875 125.71875 56.71875 125.6875 56.65625 125.65625 56.65625 125.65625 56.625 125.90625 56.375 126.21875 56.3125 126.3125 56.03125 125.78125 54.5 125.78125 54.4375 125.75 53.96875 126.15625 51.75 126.21875 51.46875 126.96875 50 127.40625 49.625 127.90625 48.65625 128.34375 48.03125 128.75 47.625 128.8125 47.59375 129.53125 47.15625 130.15625 47.0625 130.75 46.96875 131.78125 47.28125 132.71875 47.28125 132.9375 47.25 133.375 47.1875 134.09375 46.96875 134.4375 46.75 134.625 46.5 135 45.25 135.125 44.84375 135.34375 44.40625 136.6875 42.875 137.6875 41.9375 139.9375 40.3125 141.03125 39.65625 141.59375 39.3125 146.625 37.0625 147.9375 35.75 148.625 35.0625 149.8125 34.25 151.21875 33.65625 152.46875 32.71875 152.71875 32.375 153.03125 31.28125 153.34375 31.21875 153.5625 30.6875 153.65625 30.53125 154.625 29.84375 154.75 29.78125 158.59375 27.84375 159.15625 27.9375 159.46875 27.46875 160.5625 27.28125 160.78125 27.28125 161.0625 27.125 161.28125 26.71875 161.28125 26.625 161.3125 25.5625 161.5625 25.28125 161.6875 24.59375 161.8125 24.40625 161.9375 24.25 162.25 24.03125 162.1875 23.90625"></polygon>
            </g>
        </g>
    </g>
</svg>