<?xml version="1.0" encoding="UTF-8"?>
<svg width="200px" height="150px" viewBox="0 0 200 150" version="1.1" xmlns="http://www.w3.org/2000/svg" xmlns:xlink="http://www.w3.org/1999/xlink">
    <!-- Generator: Sketch 52.5 (67469) - http://www.bohemiancoding.com/sketch -->
    <title>gq</title>
    <desc>Created with Sketch.</desc>
    <g id="Flags" stroke="none" stroke-width="1" fill="none" fill-rule="evenodd">
        <g id="Africa" transform="translate(-730.000000, -650.000000)">
            <g id="gq" transform="translate(730.000000, 650.000000)">
                <polygon id="Path" fill="#E32118" points="0 0 200 0 200 150 0 150"></polygon>
                <polygon id="Path" fill="#FFFFFF" points="0 0 200 0 200 100 0 100"></polygon>
                <polygon id="Path" fill="#3E9A00" points="0 0 200 0 200 50 0 50"></polygon>
                <polygon id="Path" fill="#0073CE" points="0 0 0 150 56.25 75"></polygon>
                <g id="Group" transform="translate(81.250000, 52.812500)">
                    <path d="M6.75,7.125 L30.6875,7.125 L30.6875,32.1875 C30.6875,40.625 19.6875,34.125 18.75,38.625 C17.125,34 6.8125,40.6875 6.8125,31.6875 L6.75,7.125 Z" id="Path" stroke="#000000" stroke-width="0.5" fill="#FFFFFF"></path>
                    <path d="M20.4375,34.625 C20.4375,34.625 20.125,34.9375 19.5625,34.6875 C19,34.4375 18.9375,18.625 18.9375,18.625 C20.1875,17.25 21.1875,16.8125 21.1875,16.8125 L21.9375,17.4375 C19.125,18.875 19.375,20.9375 19.625,24.5 C19.6875,25.8125 19.6875,27.5 20,29.125 C20.4375,31.1875 21.3125,32.9375 21.375,34.25 C21.4375,35.0625 20.4375,34.625 20.4375,34.625 Z" id="Path" stroke="#000000" stroke-width="0.1" fill="#73452B"></path>
                    <path d="M18.5,16.4375 L19.625,16.4375 C18.6875,25.5 19.5,30.875 19.5,33.5 C19.5,34.375 20,34.6875 19.9375,34.6875 C18.8125,35.9375 18.25,34.625 18.25,34.625 L18.5,16.4375 Z" id="Path" stroke="#000000" stroke-width="0.1" fill="#73452B"></path>
                    <path d="M16.75,34.625 C15.6875,35.125 15.5625,34.125 15.625,34 C17.9375,29.3125 18.9375,19 16.8125,17.875 L16.9375,16.875 C17.75,17.125 18.5,18.1875 18.5,18.1875 C18.8125,29.75 18.5,34.5 18.3125,34.6875 C17.1875,35.875 16.75,34.5 16.6875,34.375" id="Path" stroke="#000000" stroke-width="0.1" fill="#A36629"></path>
                    <path d="M16.6875,34.4375 C16.5,33.4375 18.3125,30.875 18.1875,28.1875 M19.75,30.375 C20.3125,31.9375 20.5625,33.3125 20.4375,34.625" id="Shape" stroke="#000000" stroke-width="0.1"></path>
                    <path d="M22.1875,12.1875 C22.5625,11.75 22.5625,11.75 23.25,11.75 C23.375,10.8125 24.9375,10.8125 25.0625,12 C26.3125,11.75 26.5625,12.5 26.0625,13.25 C27.25,12.9375 28.3125,13.25 28,14.625 C30.125,15.1875 29.3125,16.6875 28.375,17 C28.25,17.9375 27.375,18.25 26.1875,17.875 C24.6875,18.9375 23.8125,18.5625 23.125,17.5 C21.4375,17.75 21.3125,17.375 20.5625,16.4375 C19.25,17 19,17 17.875,16.3125 C17.8125,17.1875 17.5,16.9375 16.9375,16.875 C17,18 16.5625,18.5 15.5625,18.125 C16.3125,19.6875 14.375,20.375 13.4375,19.0625 C12.5625,19.125 12.5,18.875 12.0625,18.5625 C11.6875,19.8125 10.3125,19.625 10.0625,18.9375 C8.3125,18.6875 8.5,17.75 9.9375,17.6875 C10.0625,16.6875 10.9375,16.875 11.5,17 C11.5625,16.375 11.9375,16.5 12.25,16.625 C12.0625,16.1875 12.1875,15.9375 12.75,15.8125 C11.9375,14.75 12.4375,14.375 13.25,14 C12.8125,13 13.5625,13.0625 14.125,13 C14.0625,11.9375 14.375,11.75 15.5,11.625 C15.375,11.25 15.5625,10.9375 16.1875,10.9375 C15.8125,9.875 16.3125,9.625 17.4375,9.8125 C17.625,8.25 20.9375,9 20.6875,11.125 C21.625,11.25 21.9375,11.4375 22.1875,12.1875 Z" id="Path" stroke="#000000" stroke-width="0.1" fill="#009A3B"></path>
                    <path d="M15.5,11.625 C15.75,11.75 16.0625,11.625 16.125,12.3125 C16.625,11.4375 17.25,11.9375 17.25,12.9375 M20.6875,11.125 C20.4375,11.5 19.5,11.5 19.625,12.5 C19.3125,12.0625 18.6875,11.9375 18.4375,12.375 M22.1875,12.1875 C22.1875,12.4375 22.125,13.1875 21.875,13.5625 M26.0625,13.25 C26.125,13.3125 25.1875,13.25 24.75,13.5625 M28.375,17 C28.125,16.875 27.625,16.5625 27.25,17.0625 C27.25,16.8125 27.25,16.125 26.5625,16.125 M26.1875,17.875 C26.1875,17.25 26.0625,17.0625 25.9375,16.875 M24.125,17 C23.625,16.625 23.125,17.1875 23.125,17.5 M20.5,16.4375 C20.5,16.1875 20.3125,15.6875 20.75,15.5 M13.375,19.0625 C13.5,18.4375 13.9375,18.4375 13.875,18.125 C13.8125,17.625 13.25,17.1875 12.5625,17.875 M13.875,18.125 C14.25,18 14.625,18.0625 14.75,18.25 M12.8125,15.8125 C13.0625,15.5625 13.6875,15.625 14.0625,15.8125 M14.0625,14.3125 C14.375,14.3125 14.9375,14.1875 15.125,14.75 C15.8125,13.6875 16.3125,13.8125 16.4375,14.0625 M17.6875,13.9375 C18.1875,13.75 19.0625,14.25 19.5625,15.125 C19.8125,14.4375 20.1875,14.5625 20.5625,14.5 M22.9375,15.125 C23.75,14.75 24.25,15.5 24.5,15.8125 C24.875,15.3125 25.1875,15.3125 25.5625,15.3125 M15.375,16.625 C15.5625,16.3125 16,16.25 16.3125,16.4375 C16.25,15.875 16.625,15.625 16.875,15.75" id="Shape" stroke="#000000" stroke-width="0.1"></path>
                    <path d="M17.9375,3.59375 L16.5625,3.65625 L15.875,4.90625 L15.125,3.71875 L13.75,3.78125 L14.375,2.53125 L13.625,1.375 L15.0625,1.3125 L15.6875,0.0625 L16.4375,1.25 L17.8125,1.1875 L17.1875,2.4375 L17.9375,3.59375 Z M12.0625,4.0625 L10.6875,4.375 L10.3125,5.71875 L9.3125,4.71875 L8,5.03125 L8.375,3.71875 L7.4375,2.71875 L8.75,2.375 L9.125,1.03125 L10.125,2.03125 L11.5,1.71875 L11.0625,3.0625 L12.0625,4.0625 Z M6.375,5.21875 L5.125,5.84375 L5.0625,7.21875 L3.875,6.46875 L2.625,7.09375 L2.75,5.6875 L1.5625,4.9375 L2.8125,4.3125 L2.9375,2.90625 L4.0625,3.6875 L5.3125,3.0625 L5.25,4.4375 L6.375,5.21875 Z M19.75,3.59375 L21.125,3.65625 L21.75,4.90625 L22.5,3.71875 L23.875,3.78125 L23.25,2.53125 L24,1.375 L22.625,1.3125 L21.9375,0.0625 L21.1875,1.25 L19.8125,1.1875 L20.4375,2.4375 L19.75,3.59375 Z M25.625,4.0625 L26.9375,4.375 L27.3125,5.71875 L28.3125,4.71875 L29.625,5.03125 L29.25,3.71875 L30.25,2.71875 L28.875,2.375 L28.5,1.03125 L27.5,2.03125 L26.1875,1.71875 L26.5625,3.0625 L25.625,4.0625 Z M31.25,5.21875 L32.5,5.84375 L32.5625,7.21875 L33.75,6.46875 L35,7.09375 L34.9375,5.6875 L36.0625,4.9375 L34.8125,4.3125 L34.75,2.90625 L33.5625,3.6875 L32.3125,3.0625 L32.4375,4.4375 L31.25,5.21875 Z" id="Shape" stroke="#000000" stroke-width="0.3" fill="#FFD700" fill-rule="nonzero"></path>
                    <g transform="translate(0.000000, 25.625000)" fill="#FFFFFF" stroke="#000000" stroke-width="0.3">
                        <path d="M32.9375,6.0625 L34.5,8.3125 L35.9375,6.1875 L34.9375,4.375 L32.9375,6.0625 Z M23,12.625 L23.125,14.875 C23.125,14.875 23.75,14.875 24.3125,14.6875 C24.8125,14.5 25.25,14.125 25.25,14.125 L25.1875,12.9375 L23,12.625 Z M14.625,12.625 L14.5,14.8125 C14.5,14.8125 13.9375,14.8125 13.375,14.6875 C12.875,14.5625 12.4375,14.25 12.4375,14.25 L11.8125,12.75 L14.625,12.625 Z M4.5625,6.0625 L2.9375,8.3125 L1.1875,5.4375 L2.5,4.0625 L4.5625,6.0625 Z" id="Shape" fill-rule="nonzero"></path>
                        <path d="M12.375,17.125 C12.375,19.25 25.25,19.25 25.25,17.125 L25.25,14.125 C25.25,15.6875 12.375,15.375 12.375,14.125 L12.375,17.125 Z" id="Path"></path>
                        <path d="M0.875,10.1875 C2,15.9375 12.375,16.0625 12.375,16.0625 L12.375,14.125 C12.125,13.375 12.5625,13.125 14.25,12.875 C14.9375,12.8125 14.625,11.8125 14.625,11.8125 C14.625,11.8125 10.125,12.625 6.9375,11.375 C2.625,9.625 2,6.25 2,6.25 C2,6.25 1.6875,8.875 0.875,10.1875 Z M36.6875,10.1875 C35.625,15.9375 25.25,16.0625 25.25,16.0625 L25.25,14.125 C25.4375,13.375 25,13.125 23.3125,12.875 C22.625,12.8125 23,11.8125 23,11.8125 C23,11.8125 27.5,12.625 30.6875,11.375 C34.9375,9.625 35.4375,6.25 35.4375,6.25 C35.4375,6.25 35.875,8.875 36.6875,10.1875 Z" id="Shape" fill-rule="nonzero"></path>
                        <path d="M1.6875,8 C-1.1875,6.4375 1.0625,4.8125 1.3125,0.1875 C1.75,3 4.9375,4.1875 4.5625,6 C3.25,6.0625 2.625,4.0625 2,6.25 L1.6875,8 Z M35.875,8 C38.75,6.375 36.375,4.8125 36.125,0.1875 C35.6875,3 32.5625,4.1875 32.9375,6 C34.1875,6.0625 34.8125,4.0625 35.4375,6.25 L35.875,7.9375 L35.875,8 Z" id="Shape" fill-rule="nonzero"></path>
                    </g>
                    <path d="M3.4375,35.75 L3.75,36 L3.0625,36.75 C2.75,37.0625 2.71875,37.25 2.90625,37.4375 C3.125,37.65625 3.3125,37.5625 3.53125,37.3125 L4.3125,36.5 L4.5625,36.75 L3.8125,37.625 C3.40625,38.09375 3.03125,38 2.6875,37.6875 C2.4375,37.4375 2.25,37.0625 2.6875,36.59375 L3.4375,35.75 Z M4.6875,36.8125 L5,37 L4.9375,38.5 L5.625,37.4375 L5.9375,37.625 L4.9375,39.25 L4.5625,39.0625 L4.625,37.5625 L3.9375,38.625 L3.625,38.4375 L4.6875,36.8125 Z M5.25,39.4375 L6.125,37.6875 L6.4375,37.875 L5.625,39.5625 L5.25,39.4375 Z M6.625,37.9375 L5.9375,39.75 L6.625,40 C7.25,40.21875 7.5625,39.9375 7.75,39.40625 C7.96875,38.84375 7.875,38.46875 7.25,38.1875 L6.625,37.9375 Z M6.875,38.375 C7.5,38.59375 7.5625,38.84375 7.375,39.3125 C7.1875,39.71875 7.0625,39.875 6.4375,39.5625 L6.875,38.375 Z M8.6875,38.625 L7.5625,40.3125 L8,40.4375 L8.25,40 L9,40.1875 L9.0625,40.625 L9.5,40.6875 L9.0625,38.6875 L8.6875,38.625 Z M8.8125,39.0625 L8.9375,39.8125 L8.4375,39.75 L8.8125,39.0625 Z M9.75,38.78125 L9.6875,40.71875 L10.40625,40.71875 C11.09375,40.75 11.28125,40.40625 11.3125,39.78125 C11.3125,39.21875 11.09375,38.84375 10.40625,38.84375 L9.75,38.78125 Z M10.125,39.09375 C10.8125,39.125 10.90625,39.34375 10.90625,39.8125 C10.875,40.28125 10.78125,40.46875 10.09375,40.375 L10.09375,39.125 L10.125,39.09375 Z M16.3125,41.5 L16.3125,43.5 L16.75,43.5 L16.75,42.75 C16.75,42.75 17.125,42.75 17.4375,42.6875 C17.65625,42.625 17.84375,42.46875 17.84375,42.0625 C17.84375,41.6875 17.625,41.5 17.25,41.5 L16.3125,41.5 Z M16.75,41.8125 L17.1875,41.8125 C17.53125,41.8125 17.5,42.375 17.1875,42.375 L16.75,42.375 L16.75,41.8125 Z M18.5625,41.5 L17.75,43.5 L18.1875,43.5 L18.375,43 L19.1875,43 L19.375,43.5 L19.8125,43.5 L19,41.5 L18.5625,41.5 Z M18.75,41.9375 L19.0625,42.6875 L18.5,42.6875 L18.75,41.9375 Z M19.8125,43.125 L20.875,41.8125 L19.9375,41.8125 L19.9375,41.5 L21.4375,41.5 L21.4375,41.8125 L20.3125,43.125 L21.4375,43.125 L21.4375,43.5 L19.8125,43.5 L19.8125,43.125 Z M26.125,39.25 L26.5,39.1875 L26.6875,40.3125 C26.75,40.71875 26.5625,40.96875 26.28125,41.09375 C25.96875,41.21875 25.53125,41.09375 25.5,40.5625 L25.8125,40.5 C25.875,40.8125 26,40.84375 26.125,40.8125 C26.28125,40.75 26.34375,40.5625 26.3125,40.375 L26.125,39.25 Z M26.75,39.125 L27.09375,39.0625 L27.28125,40 C27.34375,40.40625 27.46875,40.5625 27.75,40.53125 C28.0625,40.46875 28.09375,40.28125 28.03125,39.90625 L27.8125,38.9375 L28.1875,38.875 L28.4375,39.90625 C28.5625,40.53125 28.25,40.75 27.8125,40.84375 C27.46875,40.90625 27.0625,40.84375 26.9375,40.21875 L26.75,39.125 Z M28.6875,40 L29,39.875 C29.15625,40.15625 29.375,40.125 29.5625,40.0625 C29.8125,39.9375 29.875,39.71875 29.71875,39.625 C29.53125,39.53125 29.09375,39.6875 28.875,39.625 C28.59375,39.5 28.46875,39.3125 28.5,39.09375 C28.5,38.78125 28.75,38.65625 29.03125,38.5625 C29.34375,38.46875 29.65625,38.5 29.875,38.875 L29.5,39 C29.375,38.78125 29.1875,38.8125 29.0625,38.875 C28.9375,38.9375 28.75,39.03125 28.875,39.1875 C28.9375,39.34375 29.40625,39.25 29.65625,39.25 C29.90625,39.25 30.09375,39.4375 30.125,39.65625 C30.1875,40 30.0625,40.1875 29.65625,40.34375 C29.1875,40.53125 28.75,40.34375 28.6875,40 Z M30.375,38.4375 L29.875,38.6875 L29.75,38.375 L31.125,37.8125 L31.25,38.0625 L30.75,38.3125 L31.3125,39.6875 L31,39.875 L30.375,38.4375 Z M31.1875,37.75 L31.5,37.5625 L32.375,39.1875 L32.0625,39.375 L31.1875,37.75 Z M33.3125,37.875 L33.6875,37.75 C33.7855823,37.9904118 33.7523395,38.2644521 33.5996209,38.4744402 C33.4469023,38.6844283 33.1964361,38.8004879 32.9375,38.78125 C32,38.78125 31.875,37.71875 32.03125,37.375 C32.28125,36.78125 32.96875,36.8125 33.28125,37.125 L32.96875,37.375 C32.78125,37.125 32.34375,37.28125 32.34375,37.5 C32.2584186,37.8757371 32.4384649,38.2615506 32.78125,38.4375 C33.09375,38.5625 33.53125,38.1875 33.3125,37.875 Z M33.125,36.5625 L33.4375,36.3125 L34.5625,37.8125 L34.25,38.0625 L33.125,36.5625 Z M34.3125,35.625 L34,35.875 L34.6875,37.75 L35,37.4375 L34.8125,37.0625 L35.375,36.5625 L35.75,36.75 L36.0625,36.5 L34.3125,35.625 Z M34.4375,36.0625 L35.0625,36.375 L34.6875,36.75 L34.4375,36.0625 Z" id="Shape" fill="#000000" fill-rule="nonzero"></path>
                </g>
            </g>
        </g>
    </g>
</svg>