<?xml version="1.0" encoding="UTF-8"?>
<svg width="200px" height="150px" viewBox="0 0 200 150" version="1.1" xmlns="http://www.w3.org/2000/svg" xmlns:xlink="http://www.w3.org/1999/xlink">
    <!-- Generator: Sketch 52.5 (67469) - http://www.bohemiancoding.com/sketch -->
    <title>er</title>
    <desc>Created with Sketch.</desc>
    <g id="Flags" stroke="none" stroke-width="1" fill="none" fill-rule="evenodd">
        <g id="Africa" transform="translate(-730.000000, -450.000000)">
            <g id="er" transform="translate(730.000000, 450.000000)">
                <polygon id="Path" fill="#BE0027" points="0 0 200 0 200 150 0 150"></polygon>
                <polygon id="Path" fill="#B4D7F4" points="0 150 200 149.90625 200 75"></polygon>
                <polygon id="Path" fill="#239E46" points="0 0 200 0.09375 200 75"></polygon>
                <path d="M58.1875,112.625 C54.84375,113.5625 52.9375,116.15625 52.96875,118.59375 L69.46875,118.53125 C69.59375,115.90625 67.4375,113.46875 64.15625,112.5 C80.28125,112.1875 94.28125,106.125 96.84375,102.25 C94.34375,101.15625 91.40625,102.90625 89.34375,102.5 C94.25,100.21875 109.03125,90.65625 106.625,80.40625 C104.75,86.09375 99.125,90.8125 96.6875,92.09375 C102.21875,83.71875 109.75,74.96875 103.21875,68.21875 C103.53125,72.125 100.71875,76.4375 99.46875,76.78125 C102.6875,67.90625 105.71875,56.78125 98.8125,49.46875 C99.71875,52.125 99.34375,59.59375 98.09375,59.9375 C97.71875,53.90625 96.6875,41.25 90.34375,41.40625 C92.34375,43.21875 93.21875,48.09375 93.28125,53.03125 C91.9919361,49.6139763 89.691858,46.6707485 86.6875,44.59375 C83.5518236,39.1700546 79.0892419,34.6322004 73.71875,31.40625 C74.28125,35.375 74.75,38.5 80.28125,42.625 C77.40625,42.4375 74.53125,36.96875 71.4375,36.8125 C68.96875,36.6875 67.0625,39.03125 63.03125,37.6875 C63.46875,39 65.34375,39.59375 65.75,40.5625 C64.875,41.1875 62.84375,40.46875 61.15625,39.625 C63.5,42.75 67.09375,44.625 70.15625,44 C73.8125,43.3125 77.71875,43.6875 81.46875,45.8125 C79.1552571,46.2965633 76.7735033,46.3600767 74.4375,46 C76.59375,48.1875 78.03125,49.65625 81.8125,49.625 C85.15625,49.625 86.9375,47.8125 87.78125,48.9375 C89.90625,51.4375 91.3125,53.9375 93.09375,56.875 C89.1875,57.28125 90.375,52.46875 86.03125,50 C83.5625,55 88.84375,61 92.375,63.5 C92.2748175,66.9156429 93.0379476,70.3013609 94.59375,73.34375 C95.6875,75.375 97.09375,77.46875 96.5625,82.0625 C94.40625,80.5 92.34375,75.25 93.125,71.09375 C90.4375,71.8125 89.375,76.53125 90.625,78.90625 C91.5625,80.6875 92.1875,84.15625 91.125,85.6875 C90.0625,87.125 89.96875,86.9375 89.96875,90.0625 C90,91.875 88.96875,94.0625 87.3125,95.59375 C87.7974484,93.9948042 87.9149559,92.3069692 87.65625,90.65625 C86.34375,92.90625 83,95.21875 81.96875,97.65625 C80.9375,100.0625 80.6875,104.28125 75.71875,105.25 C69.28125,106.5 67.0625,107.625 62.96875,109.3125 C62.5,106.1875 63.875,99.625 66.5,100.03125 C69.03125,100.46875 76.8125,97.34375 74,90.8125 C73.46875,92.875 71.65625,94.875 69.65625,94.96875 C71.8125,92.21875 75.59375,89.34375 73.75,84.71875 C72.6337686,87.0482267 70.8639345,89.0026447 68.65625,90.34375 C71.28125,85.34375 68.96875,83.78125 65.84375,87.96875 C64.65625,89.5625 63.9375,92.78125 63.1875,96.875 C61.9375,93.5625 62.03125,89.1875 60.5625,85.625 C59.0625,81.78125 62.59375,80.78125 64.25,81.09375 C68.3125,82.1875 75.15625,82.1875 74.65625,75.4375 C72.875,77.71875 69.8125,78.40625 66.46875,77.625 C70.21875,74.875 73.15625,69.71875 68.96875,67 C68.5884222,70.239407 66.6035031,73.0699722 63.6875,74.53125 C63.0164208,71.9953394 62.9842108,69.332652 63.59375,66.78125 C61.96875,68.53125 60.78125,72.09375 59.8125,76.21875 C59.71875,72.15625 60.5,69.25 61.0625,67.0625 C61.9375,63.90625 64.0625,65.96875 67.3125,66.1875 C70.5,66.375 74.8125,64.625 74,60.34375 C72.9375,62.0625 70.71875,62.71875 68.46875,62.53125 C71.1875,60.875 75.90625,57.96875 73.3125,53.46875 C72.21875,55.15625 71.875,56.59375 68.71875,57.125 C69.53125,55.25 69.65625,52.53125 72.15625,51.5 C67.78125,50.59375 65.28125,53.46875 63.96875,57.96875 C63.46875,54.84375 62.84375,53.71875 62.71875,51.40625 C65.09375,48.8125 65.34375,43.65625 60.21875,42.53125 C59.8829059,44.3463549 60.0119113,46.2169336 60.59375,47.96875 C58.1875,46.53125 54.8125,45.75 52.53125,47.75 C54.09375,49.40625 56.4375,50.875 60.09375,49.0625 C59.21875,51.875 56.96875,51.40625 53.90625,50.3125 C55.78125,53.84375 58.15625,54.46875 60.78125,54.0625 C62.15625,57.6875 62.21875,60.4375 58.1875,65.6875 C58.375,62.4375 58.15625,60 55.5625,57.34375 C53.3125,55.15625 51.5,57.4375 55,62.28125 C52.875,60.71875 50.5,57.59375 49.78125,54.4375 C49.09375,58.3125 49.71875,62.90625 51.875,65.5 C50.84375,66.59375 49.6875,65.375 47.96875,62.6875 C48.59375,71.25 52.25,72.90625 57.15625,71 C57.28125,75.6875 57.28125,80.03125 57.5625,85.6875 C54.71875,81.5625 51.09375,78.5 49.09375,77.75 C48.46875,80.03125 50.8125,83.0625 52.15625,84.71875 C50.125,84.28125 45.75,80.96875 45.75,80.96875 C45.3125,84.75 50.21875,88.28125 53.40625,89.84375 C49.65625,89.6875 48,88.28125 45.59375,85.96875 C45.65625,96.53125 57.03125,94.6875 59.1875,93.0625 L60.125,109.46875 C56.90625,108.90625 57.15625,107.90625 54.40625,107.6875 C46.75,107.375 40.6875,98.5 38.6875,91.96875 C38.09375,93.03125 38.5625,94.15625 38.03125,95.5 C36.78125,92.28125 35.21875,88.125 33.0625,86.1875 C33.625,88.0625 33.6875,89.96875 33.5,93.46875 C32.75,91.21875 32.09375,90.5 32.03125,87.84375 C32.0625,85.8125 34,84.3125 33.90625,81.4375 C33.8125,79.34375 31.90625,74.78125 31.625,71.28125 C30.6875,74.90625 30.125,78.71875 28.6875,80.96875 C29.40625,77.09375 29.1875,74.40625 30.375,71.8125 C31.75,69.09375 32.90625,66.625 32,63.875 C31.125,64.9375 31.40625,65.90625 29.1875,68.5 C28.71875,65.6875 32.0625,61.15625 35.3125,59.34375 C37.59375,58.15625 40.46875,53.84375 38.59375,50.90625 C36.4375,52.46875 35.46875,54.53125 32.4375,58.09375 C34.625,49.65625 40.25,47.40625 46.96875,47.375 C48.4375,47.375 51.4375,46.84375 52.28125,44.875 C50.40625,45.59375 48.15625,45.6875 46.15625,45.3125 C47.625,43.15625 50.65625,43.4375 53.53125,43.4375 C55.75,43.4375 59.25,43.125 60.65625,39.9375 C57.5682521,41.1418953 54.1807176,41.3495184 50.96875,40.53125 C55.25,38.34375 61.90625,38.09375 65.34375,35.1875 C61.4375,32.28125 51.6875,35.875 45.53125,40.09375 C47.25,38.53125 49.96875,35.71875 51.46875,33.46875 C48.09375,31.84375 39.59375,41.28125 36.65625,46.90625 C33.84375,48.46875 32.75,50.96875 31.65625,52.6875 C33.125,47.65625 33.28125,44 34.53125,39.875 C25,43.125 28.9375,60.8125 26.875,65.0625 C27.125,60.375 26.90625,54.40625 25,51.3125 C22.0625,53.5625 21.8125,66.78125 24.5625,77.78125 C23.5625,74.84375 21.6875,72.09375 21.09375,68.5 C16.71875,76.4375 23.65625,85.84375 29.4375,93.25 C25.0625,90.96875 20.78125,86.09375 17.9375,82 C18.71875,96.25 33.5625,99.1875 35.875,102.6875 C32.75,101.21875 26.78125,98.34375 24.21875,101.375 C27.7786716,102.035073 31.1950961,103.31491 34.3125,105.15625 C38.1875,109.96875 45.46875,112.09375 58.1875,112.625 Z" id="Path" fill="#F3E295"></path>
            </g>
        </g>
    </g>
</svg>