<?xml version="1.0" encoding="UTF-8"?>
<svg width="200px" height="150px" viewBox="0 0 200 150" version="1.1" xmlns="http://www.w3.org/2000/svg" xmlns:xlink="http://www.w3.org/1999/xlink">
    <!-- Generator: Sketch 52.5 (67469) - http://www.bohemiancoding.com/sketch -->
    <title>fk</title>
    <desc>Created with Sketch.</desc>
    <defs>
        <linearGradient x1="-88.0307136%" y1="335.139001%" x2="-76.0614273%" y2="316.441797%" id="linearGradient-1">
            <stop stop-color="#A43907" offset="0%"></stop>
            <stop stop-color="#FFFFFF" offset="100%"></stop>
        </linearGradient>
        <linearGradient x1="-4.5112782%" y1="87.5248958%" x2="95.112782%" y2="30.4418433%" id="linearGradient-2">
            <stop stop-color="#A43907" offset="0%"></stop>
            <stop stop-color="#FFFFFF" offset="100%"></stop>
        </linearGradient>
        <linearGradient x1="-4.45914397%" y1="51.9367771%" x2="109.474708%" y2="34.2484487%" id="linearGradient-3">
            <stop stop-color="#A43907" offset="0%"></stop>
            <stop stop-color="#FFFFFF" offset="100%"></stop>
        </linearGradient>
        <linearGradient x1="100.75188%" y1="36.4903787%" x2="-1.12781955%" y2="42.1608806%" id="linearGradient-4">
            <stop stop-color="#A43907" offset="0%"></stop>
            <stop stop-color="#FFFFFF" offset="100%"></stop>
        </linearGradient>
        <linearGradient x1="104.902724%" y1="35.8896338%" x2="-7.75097276%" y2="43.9132054%" id="linearGradient-5">
            <stop stop-color="#A43907" offset="0%"></stop>
            <stop stop-color="#FFFFFF" offset="100%"></stop>
        </linearGradient>
        <linearGradient x1="100.033347%" y1="49.9202552%" x2="-0.0318931776%" y2="49.9202552%" id="linearGradient-6">
            <stop stop-color="#A43907" offset="0%"></stop>
            <stop stop-color="#FFFFFF" offset="100%"></stop>
        </linearGradient>
        <linearGradient x1="-1547.84263%" y1="52.8596308%" x2="947.654549%" y2="66.2877931%" id="linearGradient-7">
            <stop stop-color="#A43907" offset="0%"></stop>
            <stop stop-color="#FFFFFF" offset="100%"></stop>
        </linearGradient>
        <linearGradient x1="112.81481%" y1="36.5504326%" x2="6.64751895%" y2="40.9978322%" id="linearGradient-8">
            <stop stop-color="#A43907" offset="0%"></stop>
            <stop stop-color="#FFFFFF" offset="100%"></stop>
        </linearGradient>
        <linearGradient x1="118.413533%" y1="93.1441178%" x2="-75.9398305%" y2="112.447101%" id="linearGradient-9">
            <stop stop-color="#A43907" offset="0%"></stop>
            <stop stop-color="#FFFFFF" offset="100%"></stop>
        </linearGradient>
        <linearGradient x1="-15.509133%" y1="94.3666272%" x2="158.974501%" y2="32.103033%" id="linearGradient-10">
            <stop stop-color="#A43907" offset="0%"></stop>
            <stop stop-color="#FFFFFF" offset="100%"></stop>
        </linearGradient>
    </defs>
    <g id="Flags" stroke="none" stroke-width="1" fill="none" fill-rule="evenodd">
        <g id="South-America" transform="translate(-730.000000, -250.000000)">
            <g id="fk" transform="translate(730.000000, 250.000000)">
                <polygon id="Path" fill="#000066" points="0 0 200 0 200 150 0 150"></polygon>
                <polygon id="Path" fill="#000066" points="0 0 125 0 125 62.5 0 62.5"></polygon>
                <g id="Group" fill-rule="nonzero">
                    <path d="M0,0 L0,8 L99.09375,71.4375 L111.59375,71.4375 L111.59375,63.46875 L12.46875,0 L0,0 Z M111.5625,0 L111.5625,8 L12.5,71.4375 L0,71.4375 L0,63.46875 L99.09375,0 L111.59375,0 L111.5625,0 Z" id="Shape" fill="#FFFFFF"></path>
                    <path d="M46.5,0 L46.5,71.4375 L65.09375,71.4375 L65.09375,0 L46.5,0 Z M0,23.8125 L0,47.625 L111.5625,47.625 L111.5625,23.8125 L0,23.8125 Z" id="Shape" fill="#FFFFFF"></path>
                    <path d="M0,28.59375 L0,42.875 L111.5625,42.875 L111.5625,28.59375 L0,28.59375 Z M50.21875,0 L50.21875,71.4375 L61.375,71.4375 L61.375,0 L50.21875,0 Z M0,71.4375 L37.1875,47.625 L45.5,47.625 L8.3125,71.4375 L0,71.4375 Z M0,0 L37.1875,23.8125 L28.875,23.8125 L0,5.3125 L0,0 Z M66.0625,23.8125 L103.25,0 L111.59375,0 L74.375,23.8125 L66.03125,23.8125 L66.0625,23.8125 Z M111.59375,71.4375 L74.40625,47.625 L82.71875,47.625 L111.59375,66.125 L111.59375,71.4375 Z" id="Shape" fill="#CC0000"></path>
                </g>
                <path d="M123.709375,110.71 C123.465051,110.703654 123.220598,110.715877 122.978125,110.746563 C121.735,110.965938 119.760625,115.024375 118.700312,117.400937 C116.981875,119.448438 116.104375,121.057187 115.409687,122.227187 C115.117187,122.7025 114.678437,123.214375 114.824687,123.835937 C112.265312,124.4575 112.119062,126.65125 112.119062,127.492187 C112.119062,128.442812 112.411562,128.881562 112.411562,128.881562 L113.947187,131.733437 L113.947187,131.77 C115.5925,135.170312 117.969062,139.704062 119.358437,140.069687 C121.259687,140.618125 126.232187,138.79 129.961562,135.609062 C137.147178,138.601459 144.846674,140.166196 152.630312,140.215937 C161.332187,140.215937 169.156562,138.131875 175.2625,135.609062 C178.991875,138.79 183.927812,140.618125 185.865625,140.069687 C187.218437,139.704062 189.631562,135.13375 191.276875,131.77 L192.775937,128.881563 C192.775937,128.881563 193.068437,128.442813 193.068437,127.52875 C193.068437,126.687813 192.922187,124.4575 190.362812,123.8725 C190.509062,123.250938 190.106875,122.7025 189.814375,122.227188 C189.083125,121.020625 188.205625,119.411875 186.52375,117.327813 C185.426875,114.95125 183.4525,110.965938 182.245937,110.746563 C180.490937,110.454063 176.761562,111.331563 176.761562,111.660625 L176.761562,111.843438 L169.193125,118.9 C169.193125,119.082812 169.55875,124.201562 171.02125,128.771875 C165.095803,130.880144 158.846304,131.93204 152.557187,131.879687 C145.317812,131.879687 139.13875,130.6 134.129687,128.735312 C135.070549,125.51479 135.683045,122.207311 135.957812,118.863437 L128.4625,111.843437 L128.4625,111.660625 C128.4625,111.404687 125.574062,110.71 123.709375,110.71 Z M125.610625,119.485 C126.56125,119.485 127.548437,120.289375 128.389375,121.130312 L128.31625,121.642187 C128.017725,122.959929 127.626757,124.255009 127.14625,125.517812 C125.278795,124.445288 123.526743,123.183321 121.917812,121.751875 C122.722187,120.874375 124.038437,119.704375 125.427812,119.521562 L125.610625,119.521562 L125.610625,119.485 Z M179.576875,119.485 L179.759687,119.485 C181.149062,119.704375 182.465312,120.874375 183.30625,121.751875 C181.686134,123.185793 179.921699,124.447854 178.04125,125.517812 C177.560281,124.255166 177.169304,122.960054 176.87125,121.642187 C176.839785,121.472651 176.815389,121.301878 176.798125,121.130312 C177.6025,120.252812 178.62625,119.485 179.576875,119.485 Z M118.883125,129.503125 C119.870312,130.270937 121.186562,131.148437 122.75875,132.0625 C122.334305,132.347124 121.864452,132.557321 121.369375,132.684062 C120.71125,132.830312 120.053125,132.79375 119.358438,132.6475 C119.096788,131.982202 118.948484,131.277758 118.919688,130.563437 C118.900206,130.210289 118.888016,129.856776 118.883125,129.503125 Z M186.340937,129.503125 L186.267812,130.563437 C186.238334,131.277673 186.090053,131.982004 185.829062,132.6475 C184.663296,132.925043 183.434736,132.713678 182.42875,132.0625 C184.0375,131.148437 185.35375,130.270937 186.340937,129.503125 Z" id="Shape" stroke="#FFFFFF" stroke-width="6" fill="url(#linearGradient-1)"></path>
                <path d="M117.1075,122.396875 C117.1075,122.396875 119.74375,118.161875 121.87125,118.49875 C124.045,118.7875 126.08,121.4825 126.21875,121.626875 C127.422621,120.566533 128.494651,119.354044 129.41,118.0175 C129.27125,117.873125 126.08,110.076875 124.3225,109.74 C122.565,109.403125 118.865,110.3175 118.865,110.60625 L117.1075,122.396875 Z" id="Path" stroke="#000000" stroke-width="0.9" fill="url(#linearGradient-2)" transform="translate(123.258750, 116.031698) scale(-1, 1) translate(-123.258750, -116.031698) "></path>
                <path d="M111.51125,117.873125 C111.51125,118.161875 112.43625,129.326875 116.13625,133.225 C119.83625,137.123125 125.9875,139.529375 128.16125,138.951875 C130.28875,138.32625 135.2375,127.065 135.2375,127.065 C135.2375,127.065 130.01125,132.455 126.12625,131.540625 C122.24125,130.674375 119.92875,123.88875 119.18875,120.568125 C118.44875,117.295625 119.05,110.79875 119.05,110.79875 L111.465,117.873125 L111.51125,117.873125 Z" id="Path" stroke="#000000" stroke-width="0.9" fill="url(#linearGradient-3)" transform="translate(123.351250, 124.917930) scale(-1, 1) translate(-123.351250, -124.917930) "></path>
                <path d="M174.9025,122.396875 C174.9025,122.396875 177.53875,118.161875 179.66625,118.49875 C181.84,118.7875 183.875,121.4825 184.01375,121.626875 C185.217621,120.566533 186.289651,119.354044 187.205,118.0175 C187.06625,117.873125 183.875,110.076875 182.1175,109.74 C180.36,109.403125 176.66,110.3175 176.66,110.60625 L174.9025,122.396875 Z" id="Path" stroke="#000000" stroke-width="0.9" fill="url(#linearGradient-4)"></path>
                <path d="M169.12125,117.873125 C169.12125,118.161875 170.04625,129.326875 173.74625,133.225 C177.44625,137.123125 183.5975,139.529375 185.77125,138.951875 C187.89875,138.32625 192.8475,127.065 192.8475,127.065 C192.8475,127.065 187.62125,132.455 183.73625,131.540625 C179.85125,130.674375 177.53875,123.88875 176.79875,120.568125 C176.05875,117.295625 176.66,110.79875 176.66,110.79875 L169.075,117.873125 L169.12125,117.873125 Z" id="Path" stroke="#000000" stroke-width="0.9" fill="url(#linearGradient-5)"></path>
                <path d="M118.74625,117.300625 C117.027812,119.384687 116.11375,121.03 115.3825,122.236562 C114.65125,123.443125 115.09,125.161562 116.735312,127.538125 C118.563437,130.0975 133.334687,140.225312 152.603125,140.225312 C171.871563,140.225312 186.642812,130.134062 188.434375,127.538125 C190.11625,125.125 190.555,123.443125 189.82375,122.236562 C189.0925,121.03 188.178437,119.384687 186.46,117.300625 C186.46,120.445 174.211562,131.925625 152.603125,131.925625 C130.994687,131.925625 118.74625,120.445 118.74625,117.300625 Z" id="Path" stroke="#000000" stroke-width="0.8" fill="url(#linearGradient-6)"></path>
                <path d="M185.4825,137.271875 L188.8125,131.545 L187.1475,130.341875 C186.685,131.785625 184.78875,132.266875 184.465,134.095625 C184.14125,135.924375 185.76,137.705 185.4825,137.271875 Z" id="Path" stroke="#000000" stroke-width="0.9" fill="url(#linearGradient-7)"></path>
                <path d="M188.5,135.63125 C188.5,135.63125 189.10125,133.080625 187.205,132.74375 C185.355,132.455 184.3375,134.1875 184.615,133.51375 C184.8925,132.74375 186.0025,132.021875 186.1875,129.47125 C186.32625,126.920625 186.04875,125.525 186.04875,125.525 C186.04875,125.525 186.78875,122.2525 189.795,122.685625 C192.8475,123.166875 192.98625,125.573125 192.98625,126.439375 C192.98625,127.305625 192.70875,127.786875 192.70875,127.786875 L188.5,135.63125 Z" id="Path" stroke="#000000" stroke-width="0.9" fill="url(#linearGradient-8)"></path>
                <path d="M177.59375,126.96875 L178.21875,128.0625 L178.625,127.8125 L178.34375,127.09375 L178.40625,126.9375 L179.125,126.5 L181,129.8125 L181,129.96875 L180.59375,130.25 L180.78125,130.5625 L182.5625,129.40625 L182.40625,129.09375 L182,129.34375 L181.84375,129.3125 L179.96875,126 L180.65625,125.53125 L180.8125,125.53125 L181.28125,126.15625 L181.6875,125.875 L181.0625,124.8125 L177.59375,127 L177.59375,126.96875 Z M173.125,129.53125 L173.28125,129.84375 L173.65625,129.6875 L173.8125,129.71875 L175.4375,133.09375 L175.40625,133.25 L175.0625,133.46875 L175.1875,133.78125 L176.96875,132.84375 L176.8125,132.53125 L176.4375,132.6875 L176.28125,132.65625 L175.5,131.0625 L177.3125,130.125 L178.09375,131.6875 L178.0625,131.84375 L177.6875,132.09375 L177.84375,132.40625 L179.625,131.46875 L179.46875,131.15625 L179.09375,131.3125 L178.9375,131.25 L177.3125,127.90625 L177.34375,127.75 L177.6875,127.53125 L177.5625,127.21875 L175.78125,128.15625 L175.9375,128.46875 L176.3125,128.28125 L176.46875,128.34375 L177.125,129.71875 L175.34375,130.65625 L174.65625,129.28125 L174.71875,129.125 L175.0625,128.90625 L174.90625,128.59375 L173.125,129.53125 Z M172.09375,132.40625 L172.1875,132.71875 L172.6875,132.59375 L172.84375,132.65625 L173.21875,134.0625 L172.875,134.1875 C171.84375,134.5 171,134 170.625,132.78125 C170.3125,131.59375 170.71875,130.6875 171.71875,130.375 C171.910479,130.314592 172.112395,130.293338 172.3125,130.3125 L172.4375,130.40625 L172.78125,131.0625 L173.28125,130.90625 L172.96875,129.78125 C172.40625,129.78125 171.90625,129.84375 171.46875,129.96875 C169.96875,130.46875 169.28125,131.6875 169.65625,133.09375 C170.0625,134.5 171.3125,135.15625 172.71875,134.71875 C173.236885,134.551849 173.722949,134.29825 174.15625,133.96875 L173.6875,132.40625 L173.78125,132.28125 L174.15625,132.125 L174.0625,131.78125 L172.09375,132.40625 Z M167.9375,136.3125 L169.9375,135.6875 L169.84375,135.34375 L169.375,135.4375 L169.25,135.375 L168.15625,131.75 L168.21875,131.625 L168.65625,131.4375 L168.5625,131.125 L166.5625,131.75 L166.65625,132.0625 L167.125,131.96875 L167.25,132.03125 L168.34375,135.65625 L168.25,135.78125 L167.8125,135.96875 L167.9375,136.28125 L167.9375,136.3125 Z M157.0625,138.09375 L160.59375,137.78125 L160.46875,136.5 L160.03125,136.53125 L159.96875,137.28125 L159.90625,137.40625 L158.375,137.5625 L158.21875,135.6875 L159.09375,135.625 L159.1875,135.71875 L159.28125,136.21875 L159.6875,136.21875 L159.53125,134.5625 L159.15625,134.5625 L159.15625,135.09375 L159.03125,135.21875 L158.1875,135.28125 L158.03125,133.59375 L159.34375,133.5 L159.4375,133.5625 L159.59375,134.1875 L160.0625,134.15625 L159.96875,133.03125 L156.65625,133.34375 L156.65625,133.65625 L157.09375,133.65625 L157.1875,133.78125 L157.5,137.53125 L157.4375,137.65625 L157.03125,137.71875 L157.03125,138.09375 L157.0625,138.09375 Z M151.78125,133.40625 L151.78125,133.75 L152.1875,133.78125 L152.28125,133.90625 L152.34375,137.65625 L152.25,137.78125 L151.875,137.84375 L151.875,138.15625 L153.75,138.15625 L153.75,137.8125 L153.34375,137.78125 L153.21875,137.65625 L153.21875,135.875 L155.09375,135.84375 L155.125,137.625 L155.03125,137.75 L154.65625,137.78125 L154.65625,138.125 L156.53125,138.125 L156.53125,137.75 L156.125,137.75 L156.03125,137.625 L155.96875,133.84375 L156.0625,133.71875 L156.4375,133.6875 L156.4375,133.34375 L154.5625,133.34375 L154.5625,133.71875 L154.96875,133.75 L155.0625,133.84375 L155.09375,135.40625 L153.21875,135.4375 L153.15625,133.875 L153.28125,133.78125 L153.65625,133.75 L153.65625,133.40625 L151.78125,133.40625 Z M147.78125,133.28125 L147.78125,134.53125 L148.21875,134.53125 L148.34375,133.78125 L148.4375,133.6875 L149.21875,133.6875 L149.21875,137.5625 L149.09375,137.6875 L148.65625,137.6875 L148.65625,138.0625 L150.625,138.0625 L150.625,137.75 L150.1875,137.6875 L150.09375,137.5625 L150.125,133.71875 L150.90625,133.71875 L151,133.8125 L151.125,134.59375 L151.5625,134.59375 L151.5625,133.34375 L147.78125,133.28125 Z M141.6875,137.3125 L145.125,137.46875 L145.1875,136.21875 L144.75,136.1875 L144.625,136.9375 L144.53125,137.03125 L143.03125,136.96875 L143.125,135.09375 L143.9375,135.15625 L144.03125,135.25 L144.09375,135.78125 L144.46875,135.78125 L144.53125,134.15625 L144.15625,134.15625 L144.0625,134.625 L143.96875,134.71875 L143.125,134.71875 L143.21875,133 L144.46875,133.0625 L144.5625,133.15625 L144.625,133.78125 L145.09375,133.8125 L145.125,132.6875 L141.90625,132.53125 L141.90625,132.875 L142.28125,132.9375 L142.375,133.0625 L142.1875,136.8125 L142.09375,136.9375 L141.6875,136.9375 L141.6875,137.28125 L141.6875,137.3125 Z M133.75,135.25 L135.625,135.875 L135.6875,135.5625 L135.3125,135.375 L135.25,135.21875 L136.34375,131.625 L136.46875,131.5625 L136.875,131.65625 L137,131.34375 L135.15625,130.71875 L135.0625,131.03125 L135.4375,131.21875 L135.53125,131.34375 L134.40625,134.9375 L134.28125,135.03125 L133.875,134.90625 L133.75,135.25 Z M130.5,134 C130.833948,134.274902 131.215167,134.48669 131.625,134.625 C132.625,134.9375 133.4375,134.5625 133.65625,133.78125 C133.791587,133.363971 133.709506,132.906666 133.4375,132.5625 C133.125,132.1875 132.84375,131.96875 132.6875,131.78125 C132.4375,131.46875 132.34375,131.1875 132.4375,130.875 C132.53125,130.53125 132.90625,130.34375 133.375,130.5 C133.53125,130.5625 133.6875,130.625 133.78125,130.75 L133.8125,130.875 L133.71875,131.59375 L134.15625,131.75 L134.46875,130.65625 C134.155136,130.385597 133.795183,130.17386 133.40625,130.03125 C132.53125,129.71875 131.78125,130.125 131.53125,130.875 C131.433393,131.23549 131.490004,131.620445 131.6875,131.9375 C131.875,132.28125 132.15625,132.5 132.34375,132.71875 C132.71875,133.09375 132.84375,133.4375 132.75,133.78125 C132.625,134.15625 132.25,134.34375 131.75,134.15625 C131.568754,134.091173 131.399734,133.996099 131.25,133.875 L131.1875,133.75 L131.34375,132.90625 L130.875,132.75 L130.5,134 Z M126.34375,132.25 L129.46875,133.8125 L130,132.65625 L129.59375,132.46875 L129.1875,133.09375 L129.0625,133.15625 L127.71875,132.46875 L128.5,130.8125 L129.25,131.1875 L129.28125,131.3125 L129.125,131.8125 L129.46875,132 L130.15625,130.5 L129.8125,130.34375 L129.53125,130.75 L129.40625,130.8125 L128.65625,130.4375 L129.34375,128.90625 L130.5,129.5 L130.5625,129.625 L130.375,130.21875 L130.78125,130.40625 L131.25,129.40625 L128.3125,127.9375 L128.15625,128.25 L128.5,128.46875 L128.5625,128.625 L127,132.03125 L126.875,132.0625 L126.5,131.9375 L126.34375,132.25 Z M125.84375,126.5625 L124.28125,125.46875 L124.0625,125.78125 L124.375,126.03125 L124.40625,126.1875 L122.4375,129.3125 L122.28125,129.34375 L121.96875,129.15625 L121.75,129.46875 L123.3125,130.53125 C123.875,130.90625 124.34375,131.09375 124.84375,131.03125 C125.5,130.96875 126.09375,130.59375 126.53125,129.875 C127.3125,128.625 127.09375,127.40625 125.84375,126.5625 Z M125.1875,126.5625 L125.5,126.8125 C126.34375,127.375 126.4375,128.21875 125.71875,129.3125 C125,130.40625 124.25,130.6875 123.40625,130.09375 L123.09375,129.90625 L125.1875,126.59375 L125.1875,126.5625 Z M137.6875,131.5 L137.625,131.8125 L138,131.9375 L138.0625,132.0625 L137.3125,135.75 L137.1875,135.84375 L136.8125,135.8125 L136.75,136.125 L138.53125,136.53125 L138.59375,136.21875 L138.21875,136.0625 L138.125,135.9375 L138.4375,134.375 L138.5625,134.40625 C139.1875,134.5625 139.3125,134.875 139.34375,135.59375 C139.375,135.9375 139.375,136.25 139.65625,136.625 C139.78125,136.78125 139.96875,136.9375 140.28125,136.96875 C140.48701,137.015244 140.695904,137.046578 140.90625,137.0625 L140.96875,136.75 L140.90625,136.71875 C140.46875,136.625 140.28125,136.46875 140.25,136.0625 C140.1875,135.6875 140.25,135.3125 140.09375,134.9375 C139.983498,134.686044 139.782706,134.485252 139.53125,134.375 C140.25,134.375 140.71875,134.0625 140.84375,133.4375 C141,132.65625 140.59375,132.125 139.59375,131.90625 L137.71875,131.5 L137.6875,131.5 Z M138.9375,132.15625 L139.1875,132.21875 C139.8125,132.375 140.0625,132.75 139.9375,133.3125 C139.8125,133.96875 139.4375,134.1875 138.75,134.03125 C138.6875,134.03125 138.625,134.03125 138.53125,133.96875 L138.90625,132.15625 L138.9375,132.15625 Z M162.0625,132.5625 L162.125,132.90625 L162.53125,132.90625 L162.65625,132.96875 L163.25,136.71875 L163.15625,136.8125 L162.75,136.9375 L162.8125,137.25 L164.75,136.9375 L164.71875,136.59375 L164.28125,136.625 L164.15625,136.53125 L163.90625,134.96875 L164.03125,134.96875 C164.71875,134.8125 164.96875,135.09375 165.28125,135.71875 C165.4375,136.03125 165.53125,136.34375 165.9375,136.5625 C166.125,136.65625 166.40625,136.71875 166.71875,136.65625 C166.951966,136.60968 167.181682,136.54703 167.40625,136.46875 L167.34375,136.15625 L167.25,136.15625 C166.78125,136.25 166.5625,136.15625 166.34375,135.8125 C166.15625,135.5 166.03125,135.125 165.78125,134.84375 C165.59375,134.65625 165.34375,134.53125 165,134.53125 C165.75,134.25 166.09375,133.78125 166,133.125 C165.875,132.34375 165.25,132.03125 164.1875,132.1875 L162.0625,132.5625 Z M163.5625,132.71875 L163.875,132.6875 C164.53125,132.5625 164.9375,132.8125 165.03125,133.40625 C165.125,134.03125 164.84375,134.40625 164.09375,134.53125 L163.84375,134.53125 L163.53125,132.71875 L163.5625,132.71875 Z" id="Shape" fill="#000000" fill-rule="nonzero"></path>
                <path d="M116.591771,137.271875 L119.921771,131.545 L118.256771,130.341875 C117.794271,131.785625 115.898021,132.266875 115.574271,134.095625 C115.250521,135.924375 116.869271,137.705 116.591771,137.271875 Z" id="Path" stroke="#000000" stroke-width="0.9" fill="url(#linearGradient-9)" transform="translate(117.726510, 133.839748) scale(-1, 1) translate(-117.726510, -133.839748) "></path>
                <path d="M115.256434,135.63125 C115.256434,135.63125 115.857684,133.080625 113.961434,132.74375 C112.111434,132.455 111.093934,134.1875 111.371434,133.51375 C111.648934,132.74375 112.758934,132.021875 112.943934,129.47125 C113.082684,126.920625 112.805184,125.525 112.805184,125.525 C112.805184,125.525 113.545184,122.2525 116.551434,122.685625 C119.603934,123.166875 119.742684,125.573125 119.742684,126.439375 C119.742684,127.305625 119.465184,127.786875 119.465184,127.786875 L115.256434,135.63125 Z" id="Path" stroke="#000000" stroke-width="0.9" fill="url(#linearGradient-10)" transform="translate(115.534467, 129.138692) scale(-1, 1) translate(-115.534467, -129.138692) "></path>
                <path d="M152.535,128.66875 C152.535,128.66875 117.61625,118.37 117.8475,79.485 L118.07875,27.99125 L186.945,27.99125 L187.17625,79.19625 C187.4075,118.08125 152.48875,128.620625 152.48875,128.620625 L152.535,128.66875 Z" id="Path" stroke="#FFFFFF" stroke-width="3" fill="#0072C4"></path>
                <g id="Group" transform="translate(121.875000, 33.437500)">
                    <path d="M0.71875,6.875 C0.78125,6.875 1.1875,6.46875 1.59375,6.125 C2.125,5.8125 2.625,5.46875 3.15625,5.1875 C3.59375,4.96875 4.40625,4.78125 4.75,4.59375 C5.25973513,4.33951544 5.70770107,3.97687634 6.0625,3.53125 C6.125,2.875 6.21875,2.375 6.21875,1.59375 C6.78125,1.28125 7.28125,1.03125 7.78125,0.84375 C8.5,0.625 8.65625,0.34375 9.375,0.21875 C9.84375,0.0625 10.59375,0.0625 11.25,0.0625 C11.96875,0.0625 12.40625,0.59375 13.0625,0.6875 C13.84375,1 14.1875,1.21875 14.8125,1.75 C15.125,2.1875 15.34375,2.5625 15.9375,2.875 C16.40625,3.125 16.84375,3.5 17.375,3.625 C18,3.96875 18.5,4.1875 18.96875,4.6875 C19.40625,5 19.59375,5.4375 19.96875,5.75 C20.4290393,6.1429922 20.920208,6.49830568 21.4375,6.8125 C22.0625,7.21875 22.6875,7.53125 23.65625,7.4375 C24.1875,7.4375 24.75,7.34375 25.375,7.4375 C26.09375,7.4375 26.78125,7.4375 27.40625,7.625 C28.15625,7.625 28.75,7.71875 29.4375,7.78125 C30.0625,7.875 30.71875,7.90625 31.4375,7.90625 C32.0625,8.09375 32.75,8.0625 33.46875,8.0625 L37.53125,8.0625 C38.25,8.0625 39,8.09375 39.53125,8.21875 C40.2109727,8.21003918 40.8894418,8.15784925 41.5625,8.0625 C42.34375,8.0625 42.9375,7.9375 43.71875,7.90625 L46.15625,7.90625 C46.78125,8.09375 47.59375,8.21875 48.03125,8.53125 C48.625,8.6875 48.90625,8.96875 49.46875,9.125 C49.9375,9.34375 50.59375,9.71875 50.9375,10.1875 C51.393802,10.6865523 51.7825465,11.2434025 52.09375,11.84375 C52.46875,12.40625 52.625,13.09375 52.9375,13.8125 C53.125,14.5 53.25,15.15625 53.25,15.90625 C53.40625,16.5625 53.375,17.28125 53.375,18.03125 C53.21875,18.71875 53.1875,19.46875 52.9375,20.125 C52.9375,20.875 52.78125,21.53125 52.65625,22.09375 C52.53125,22.71875 52.375,23.125 52.34375,23.90625 L52.34375,26.03125 C52.34375,26.71875 52.15625,27.21875 52.09375,27.96875 C51.7073392,28.7091518 51.3630413,29.4707805 51.0625,30.25 C50.6082721,30.5724549 50.2164797,30.9748363 49.90625,31.4375 C49.59375,31.625 49.4375,31.9375 49.5,32.0625 C50.0625,32.25 49.90625,32.65625 49.90625,33.40625 C50,34 50.0625,34.71875 50.21875,35.375 C50.25,36.09375 50.40625,36.53125 50.625,37.03125 C50.875,37.34375 50.9375,37.1875 50.34375,37.1875 C49.9375,37.5 49.5,37.34375 49.34375,36.71875 C49.0172854,36.2215664 48.8137673,35.6538581 48.75,35.0625 C48.6875,34.375 48.5625,33.6875 48.34375,33.25 C48.25,32.40625 48.03125,32.40625 47.1875,32.34375 C46.78125,32 46.25,31.90625 45.4375,31.90625 C44.65625,31.90625 44.59375,31.8125 44.59375,32.65625 L44.59375,34.78125 C44.4375,35.40625 44.15625,35.875 44,36.4375 C43.5625,36.75 43.375,37.28125 42.84375,37.625 C42.59375,38.3125 42.25,38.4375 41.5625,38.5625 L40.6875,37.5 C41.09375,36.8125 41.4375,36.71875 41.6875,35.96875 C42,35.375 42.1875,35 42.40625,34.46875 C42.09375,34 41.84375,33.78125 41.5625,33.125 C41.2628193,32.6009875 41.0217819,32.0455535 40.84375,31.46875 C40.34375,31.28125 39.59375,31.25 39.25,31 C38.53125,30.84375 38.34375,31.625 37.5,31.625 L35.5,31.625 C34.59375,31.625 34.375,32.09375 33.625,32.0625 C33.40625,32.125 32.84375,32.03125 32.03125,32.0625 C31.40625,32.28125 30.6875,32.21875 30,32.21875 C29.28125,32.21875 28.6875,32.03125 28.125,31.90625 C27.46875,31.71875 26.8125,31.53125 26.125,31.46875 C25.28125,31.46875 24.9375,31.53125 24.375,31.90625 C23.9375,32.1875 23.28125,32.78125 22.8125,33.125 C22.59375,33.625 22.5,34.46875 22.1875,35.0625 C22.0625,35.6875 21.8125,36.03125 21.65625,36.59375 C21.4127789,37.1700909 21.2650031,37.7823048 21.21875,38.40625 C21.15625,39.40625 20.9375,39.28125 20.34375,39 C20.09375,38.5625 19.71875,38.125 19.46875,37.625 C19.59375,36.875 19.78125,36.5 19.78125,35.6875 C19.625,35.0625 19.3125,35.125 18.90625,35.53125 C18.90625,36.3125 18.90625,36.9375 18.59375,37.34375 C18.4840465,37.8371251 18.1798056,38.2653159 17.75,38.53125 C17.53125,39.09375 17.0625,39.375 16.59375,39.59375 C16.53125,39.59375 16.59375,39.40625 16.59375,38.96875 C16.25,38.3125 16.59375,37.71875 16.59375,36.875 C16.59375,36.125 16.53125,35.625 16.75,34.9375 C16.75,34.1875 16.4375,33.5 16.3125,32.96875 C16.03125,32.40625 15.875,32.125 15.15625,31.90625 C14.625,31.6875 13.90625,31.4375 13.5625,30.96875 C13.2313642,30.5077604 12.776246,30.1501675 12.25,29.9375 C11.625,29.71875 11.28125,29.46875 10.8125,29.1875 C10.375,28.6875 10,28.5 9.8125,27.84375 C9.5,27.375 9.46875,26.5 9.25,25.875 C9.18831857,25.2535708 9.04109391,24.64364 8.8125,24.0625 C8.74167491,23.4426554 8.5947342,22.833901 8.375,22.25 C8.28125,21.625 8.125,21 7.9375,20.28125 C7.9375,19.5625 7.9375,18.84375 7.78125,18.1875 L7.78125,16.0625 C7.6875,15.4375 7.65625,14.5625 7.5,14.09375 C7.5,13.28125 7.40625,12.84375 7.1875,12.28125 C6.875,11.75 6.875,11.53125 6.34375,11.375 C5.96875,11.84375 5.375,12.0625 4.625,12.15625 C4.09375,12.03125 3.34375,11.9375 2.75,11.6875 C2.15625,11.5625 1.78125,11.3125 1.3125,11.0625 C1.04269245,10.6510163 0.750589878,10.2545914 0.4375,9.875 C0.34375,9.09375 0.1875,8.6875 0.125,7.90625 C0.125,7.34375 0.15625,7.65625 0.75,6.875 L0.71875,6.875 Z" id="Path" fill="#BCBCBC"></path>
                    <path d="M9.25,12.3125 L9.375,12.1875 C9.125,12.4375 9.21875,12.3125 9.78125,12.09375 C10.09375,11.90625 10.6875,11.5625 10.90625,11.34375 C11.15625,11.21875 11.59375,11.03125 11.84375,10.8125 C12.09375,10.5 12.375,10.25 12.75,9.96875 C13.125,9.625 13.5,9.5 13.96875,9.21875 C14.53125,9.15625 14.75,8.90625 15.28125,9.09375 C15.78125,9.21875 16,9.21875 16.40625,8.78125 C16.8125,8.53125 17.28125,8.25 17.4375,7.84375 L17.4375,7.1875 C17.4375,7.875 17.28125,8.125 16.8125,8.34375 C16.5,8.75 16.0625,9.15625 15.875,9.53125 C15.5625,10 15.5,10.25 15.1875,10.46875 C14.90625,10.8125 14.46875,11 14.375,11.5625 C14.5,11.8125 14.375,11.9375 14.6875,11.96875 C14.96875,12.21875 15.28125,12.125 15.6875,11.96875 C16.0268894,11.6008862 16.3015989,11.1782562 16.5,10.71875 C16.84375,10.21875 17.03125,10 17.21875,9.625 C17.59375,9.375 17.8125,9.1875 17.9375,8.78125 C18.34375,8.53125 18.6875,8.28125 18.96875,8.03125 C19.28125,7.84375 19.4375,7.6875 19.875,7.59375 C19.9070751,8.01343878 19.7970029,8.43171333 19.5625,8.78125 C19.46875,9.375 19.5,9.65625 19.6875,10.03125 C19.96875,10.25 19.90625,10.40625 20.09375,10.8125 C20.25,10.4375 20.34375,9.75 20.40625,9.3125 L20.40625,9.21875 C20.40625,9.65625 20.40625,10.28125 20.28125,10.59375 C20.28125,11.21875 20.4375,11.5 20.59375,11.96875 C20.75,12.21875 20.90625,12.375 21.09375,12.5 C21.09375,11.875 21.28125,11.5 21.3125,10.9375 C21.4375,11.34375 21.40625,11.9375 21.5,12.40625 C21.53125,12.90625 21.71875,13.28125 21.90625,13.6875 C22.15625,13.8125 22.21875,14.25 22.3125,13.90625 C22.5625,13.15625 22.5625,12.34375 22.71875,11.5625 C22.75,11.15625 22.78125,10.5625 22.9375,10.28125 L22.71875,11.53125 C22.75,11.15625 22.78125,10.59375 22.9375,10.28125 L22.9375,10.15625 C23.0510997,10.7232516 23.1242011,11.2976192 23.15625,11.875 C23.15625,12.34375 23.125,12.8125 23.25,13.25 C23.5625,13.09375 23.78125,12.71875 23.96875,12.3125 C24.1882192,11.8838662 24.4612367,11.4848405 24.78125,11.125 L23.96875,12.28125 C24.1904616,11.8635542 24.4634013,11.47514 24.78125,11.125 L24.78125,11.03125 C24.7213953,11.5185872 24.6900918,12.0090077 24.6875,12.5 C24.6875,13 24.6875,13.5625 24.78125,13.90625 C24.90625,14.46875 25.0625,14.5625 25.09375,15.15625 C25.09375,15.46875 25.03125,15.78125 25.1875,15.9375 C25.625,16.03125 25.625,15.78125 25.6875,15.1875 C25.6875,14.5 25.875,14.03125 25.90625,13.375 C25.90625,12.5625 26,13.46875 26.09375,13.78125 C26.2808574,14.2276411 26.3866876,14.7038767 26.40625,15.1875 C26.40625,15.5 26.375,15.78125 26.5,15.9375 C26.90625,15.75 27.0625,15.3125 27.3125,15.0625 C27.53125,14.5625 27.75,14.34375 27.9375,14 C28.46875,13.90625 28.4375,13.6875 28.4375,13.0625 C28.4375,12.53125 28.40625,12 28.5625,11.5625 C28.7246039,11.1018746 28.8602419,10.6323586 28.96875,10.15625 C29.15625,10.0625 29.34375,10.34375 29.46875,10.59375 C29.6875,10.9375 29.65625,11.4375 29.65625,11.96875 C29.78125,12.4375 29.96875,12.8125 30.1875,13.25 C30.377262,13.6354301 30.6191094,13.9929436 30.90625,14.3125 C31,14.65625 31,15.25 31,15.71875 C31.40625,15.25 31.46875,14.59375 31.5,13.90625 C31.4375,13.4375 31.4375,12.84375 31.3125,12.40625 C31.3125,11.9375 31.1875,11.46875 31.09375,11.125 C30.78125,10.96875 30.6875,10.8125 31,10.375 C31.3125,10.09375 31.6875,10.21875 32.21875,10.28125 C32.5,10.5625 32.59375,10.71875 32.625,11.34375 C32.625,11.90625 32.625,12.34375 32.84375,12.71875 C33.03125,13.03125 33.21875,13.25 33.34375,13.78125 C33.5,13.9375 33.625,14.15625 33.84375,13.90625 C33.96875,13.59375 34.0625,12.96875 34.15625,12.625 C34.25,12.21875 34.4375,12 34.65625,11.875 C34.65625,12.46875 34.65625,12.8125 34.875,13.25 C35.0625,13.71875 35.1875,13.90625 35.375,14.4375 C35.59375,14.59375 35.625,14.90625 35.90625,15.0625 C35.96875,14.5625 36,14 36,13.375 L36,11.875 C36.03125,11.375 36.15625,11.09375 36.3125,10.6875 C36.625,11.125 36.625,11.28125 36.625,11.875 C36.9375,11.75 37,11.5 37.125,11.125 C37.34375,10.90625 37.4375,10.8125 37.53125,11.34375 C37.59375,11.90625 37.71875,12.40625 37.84375,12.9375 C38.03125,13.1875 38.28125,13.78125 38.53125,14 C38.7083246,14.3127757 38.9178107,14.6060562 39.15625,14.875 C39.3125,15.1875 39.34375,15.40625 39.78125,15.5 C39.78125,14.78125 39.78125,14.0625 39.65625,13.375 C39.65625,12.75 39.53125,12.53125 39.46875,11.96875 C39.28125,11.625 39.1875,11.0625 39.25,10.90625 C39.6581943,11.2543298 39.9792565,11.6931147 40.1875,12.1875 C40.40625,12.71875 40.625,13.0625 40.8125,13.59375 C41.1096587,13.9193735 41.3715329,14.2755224 41.59375,14.65625 C41.96875,14.96875 42.15625,15.3125 42.53125,15.59375 C42.71875,15.78125 43.15625,15.90625 43.25,15.8125 C43.21875,15.1875 43.125,14.65625 42.9375,14.125 C42.9363526,13.6791853 42.8292415,13.2400296 42.625,12.84375 C42.21875,12.5 41.90625,12.25 41.6875,11.78125 C41.5625,11.625 41.53125,11.53125 41.5,11.25 C42.038732,11.6775097 42.5216734,12.1709498 42.9375,12.71875 C43.1396368,13.0342047 43.419408,13.2924551 43.75,13.46875 C43.9375,13.71875 44.53125,14 44.96875,14.09375 C45.2224452,14.4293439 45.588544,14.6623158 46,14.75 L44.96875,14.125 C45.2276004,14.4489271 45.5930613,14.6704186 46,14.75 L46,14.875 C45.9250088,14.2620267 45.7112597,13.6742166 45.375,13.15625 C45.1796761,12.6805477 44.8548827,12.2691428 44.4375,11.96875 C44.183684,11.5809873 43.8408148,11.2595473 43.4375,11.03125 C43.15625,10.71875 42.75,10.15625 42.5,9.96875 C42.96875,9.65625 43.46875,10.15625 43.9375,10.375 C44.34375,10.8125 44.71875,11.375 44.96875,11.65625 C45.2086438,12.1695401 45.5247106,12.6436403 45.90625,13.0625 C46.34375,13.3125 46.625,13.5625 47,13.90625 C47.625,14.0625 47.375,13.84375 47.21875,13.375 C47,12.75 47.21875,12.75 47.625,13.15625 C47.90625,13.375 48.25,13.6875 48.65625,13.90625 C48.8125,14.125 49.09375,14.28125 49.34375,14.125 C49.46875,13.96875 49.46875,13.96875 49.46875,13.8125 C49.25,13.125 49.0625,12.625 48.53125,12.40625 C48.3125,12.09375 47.90625,11.78125 47.59375,11.46875 C47.40625,11.15625 47.1875,10.96875 47,10.59375 L47.625,11.4375 C47.40625,11.125 47.1875,10.96875 47,10.59375 L46.90625,10.59375 C47.53125,10.59375 47.75,10.78125 48.21875,11.03125 C48.5968445,11.1859394 48.9223372,11.4463336 49.15625,11.78125 C49.34375,12.03125 49.65625,12.3125 49.875,12.625 L50.875,13.375 C51.21875,13.8125 51.28125,14.09375 51.28125,14.75 C51.5,15.0625 51.53125,15.6875 51.59375,16.03125 C51.53125,16.625 51.3125,16.15625 51.28125,15.8125 C51.21875,15.34375 51.03125,15.375 50.65625,15.5 C50.65625,16.125 50.75,16.3125 50.96875,16.78125 C50.9262287,17.1593378 50.7979716,17.5227329 50.59375,17.84375 C50.34375,18 50.28125,17.53125 50.0625,17.3125 C50.0625,16.6875 49.875,16.59375 49.4375,16.25 L49.4375,16.6875 C49.6875,17.125 49.9375,17.53125 49.96875,18.15625 C50.1307613,18.6067396 50.2050149,19.0840841 50.1875,19.5625 C50.1875,20.09375 50.1875,20.59375 50.0625,21.0625 C50.0625,21.625 49.96875,21.875 49.96875,22.4375 L49.96875,25.4375 C49.8940961,25.8918383 49.8627056,26.3522334 49.875,26.8125 L49.96875,25.4375 C49.875,25.8125 49.875,26.28125 49.875,26.8125 L49.875,26.90625 C49.6875,26.375 49.46875,25.90625 49.34375,25.34375 C49.0430219,25.0293749 48.8091453,24.6572986 48.65625,24.25 C48.5625,23.78125 48.53125,23.25 48.4375,22.875 C48.28125,22.5 48.125,22.09375 47.8125,22.34375 C47.6875,23.125 47.84375,23.59375 48.125,24.34375 C48.28125,24.84375 48.28125,25.28125 48.4375,25.75 C48.6875,26.3125 48.875,26.375 48.4375,27 C48.21875,27.375 48.125,27.46875 48.03125,27.875 C47.65625,28.0625 47.5625,28.1875 47.53125,28.625 C47.40625,28.21875 47.09375,27.71875 46.90625,27.25 C46.71875,26.71875 46.5,26.1875 46.40625,25.75 C46.15625,25.375 45.84375,24.8125 45.59375,24.5625 C45.3125,24.25 44.96875,23.625 44.78125,23.3125 C44.375,22.84375 44.28125,22.5625 43.9375,22.34375 C43.875,22.125 43.75,21.84375 43.53125,22.03125 C43.53125,22.53125 43.53125,23.0625 43.65625,23.5 C43.75,24.125 43.9375,24.46875 43.96875,25.09375 L43.96875,26.28125 C43.71875,25.65625 43.4375,25.15625 43.25,24.5625 C43,24.25 42.78125,23.625 42.53125,23.40625 C42.34375,22.96875 42.21875,22.625 42,22.34375 C41.96875,22.03125 41.8125,22.03125 41.6875,21.8125 C41.6875,22.40625 41.90625,22.625 42,23.0625 C42.21875,23.5 42.28125,24.15625 42.21875,24.375 C41.96875,23.625 41.71875,22.8125 41.40625,22.125 C41.09375,21.6875 40.78125,21.125 40.59375,20.71875 C40.28125,20.375 39.96875,20.34375 39.65625,20.09375 C39.3767219,19.9782956 39.1298864,19.795852 38.9375,19.5625 C39.03125,20.125 39.25,20.5 39.34375,20.9375 C39.4375,21.46875 39.65625,21.90625 39.75,22.34375 C39.65625,23.0625 39.5,22.125 39.34375,21.8125 C39.25,21.1875 39.03125,20.875 38.84375,20.53125 C38.5625,20.3125 38.3125,19.96875 38.03125,19.78125 C37.71875,19.65625 37.84375,19.78125 37.84375,20.1875 C37.84375,20.84375 37.84375,21.28125 38.03125,21.6875 C38.25,22 38.25,22.40625 38.25,22.96875 C38.21875,23.5 38.125,23.90625 38.125,24.46875 L38.125,25.3125 C37.90625,24.875 37.6875,24.59375 37.5,24.03125 C37.1875,23.53125 37.0625,23.1875 36.8125,22.65625 C36.59375,22.5625 36.1875,22.46875 36,22.65625 C36.03125,23.1875 36.28125,23.40625 36.3125,24.03125 C35.90625,24.4375 35.96875,24.5625 35.6875,23.9375 C35.46875,23.4375 35.1875,23.46875 34.875,23.1875 C34.34375,23.125 34.53125,22.78125 34.375,22.3125 C34.375,21.90625 34.375,21.5 34.25,21.15625 C33.6875,21.15625 33.375,21.15625 33.03125,21.46875 C32.875,21.78125 32.9375,22.40625 33.03125,22.875 L33.03125,24.34375 C32.90625,24.71875 32.71875,24.75 32.625,25.21875 C32.4375,25.65625 32.375,26.15625 32.21875,26.46875 C31.84375,26.8125 32,26.84375 31.8125,26.28125 L31.8125,22.84375 C31.8125,22.28125 31.90625,22 31.90625,21.46875 C31.6875,21.03125 31.65625,20.9375 30.96875,20.9375 C30.84375,21.21875 30.90625,21.71875 30.96875,22 C30.96875,22.53125 31.03125,23.03125 31.09375,23.40625 C31.09375,23.96875 31.15625,24.3125 31.1875,24.78125 C31.1875,25.34375 31.0625,25.78125 30.78125,26.03125 C30.4375,26.15625 30.75,26.40625 30.375,26.5 C29.9657256,26.3056812 29.5867845,26.0530538 29.25,25.75 C28.875,25.625 28.5,25.53125 27.9375,25.53125 C27.25,25.53125 27.25,25.4375 27,24.90625 C26.8131954,24.3467093 26.6772282,23.7714633 26.59375,23.1875 C26.375,22.6875 26.34375,22.34375 26.1875,21.78125 C26.0466004,21.4819997 25.8314365,21.2238029 25.5625,21.03125 C25.4375,21.59375 25.3125,22.03125 25.28125,22.65625 C25.15625,22.90625 25.125,23.53125 25.0625,23.8125 C24.875,23.5 24.78125,22.875 24.65625,22.4375 C24.46875,21.8125 24.3125,21.375 23.65625,21.59375 C22.96875,21.59375 22.9375,21.59375 22.9375,22.34375 L23.75,23.59375 L23.75,25.09375 C23.75,25.71875 23.78125,25.90625 23.34375,26.03125 C23.1875,25.40625 22.8125,24.78125 22.40625,24.25 C22.375,23.8125 22.25,23.9375 21.8125,23.9375 C21.53125,23.9375 21.25,23.875 21.09375,24.03125 L21.09375,24.96875 C20.84375,25.03125 20.78125,24.96875 20.59375,24.78125 C20.40625,25.09375 20.53125,25.53125 20.59375,25.9375 C20.46875,26.4375 20.28125,26.875 20.09375,27.125 C20.03125,26.96875 19.9375,27.03125 20.09375,27.03125 C19.375,26.75 18.84375,26.59375 18.21875,26.40625 C17.90625,26.40625 17.625,26.75 17.4375,27.03125 C16.90625,27.1875 16.6875,27.34375 16.09375,27.34375 C15.53125,27.34375 15.28125,27.4375 14.78125,27.4375 C14.40625,27.53125 13.9375,27.5625 13.4375,27.5625 C13.1875,27.46875 12.6875,27.46875 12.53125,27.34375 C12.75,27.03125 12.96875,26.875 13.15625,26.40625 C13.4500611,26.1708367 13.7220001,25.9093569 13.96875,25.625 C14.21875,25.4375 14.53125,25.03125 14.78125,24.78125 C14.9375,24.25 15.15625,24.15625 15.5,23.9375 C16.125,23.9375 16.21875,24.15625 16.8125,24.25 C17.40625,24.46875 17.75,24.5625 18.0625,24.125 C18.53125,23.9375 18.9375,23.59375 19.46875,23.5 L20.5,22.875 C20.9375,22.59375 21.125,22.3125 21.5,22 C21.625,21.5625 21.9375,21.21875 21.8125,20.75 C21.25,20.59375 20.90625,20.625 20.5625,20.9375 C20.15625,21.3125 20.0625,21.46875 19.5625,21.78125 C19.15625,21.90625 18.9375,22.09375 18.4375,22.21875 C18.03125,22.375 17.5,22.3125 17.03125,22.3125 C16.5625,22.3125 15.96875,22.28125 15.6875,22.4375 C16.15625,22.125 16.6875,21.8125 17.125,21.6875 C17.53125,21.40625 17.6875,21.28125 18.25,21.25 C18.5,20.9375 18.75,20.9375 18.875,20.40625 C19.03125,19.78125 18.46875,19.96875 18.03125,20.1875 C17.625,20.28125 17.15625,20.5625 16.8125,20.71875 C16.3883681,20.8567575 15.945965,20.9304914 15.5,20.9375 C15.375,20.75 15.59375,20.59375 15.6875,20.3125 C16.15625,20.125 16.25,20.0625 16.3125,19.5625 C15.75,19.625 15.5625,19.8125 15.0625,19.875 C14.5625,20 14.03125,20.0625 13.4375,20.09375 L12.03125,20.09375 C11.53125,20.09375 11.25,19.96875 10.6875,19.96875 C10.28125,19.75 10.28125,19.65625 10.28125,19.03125 C10.59375,18.65625 10.90625,18.71875 11.53125,18.71875 L12.625,18.15625 C13,18.09375 13.25,17.9375 13.15625,17.75 L11.71875,17.75 C11.15625,17.5 11.71875,17.40625 12.03125,17.21875 C12.5,17.21875 13.03125,17.21875 13.34375,17.40625 C13.96875,17.40625 14.1875,17.1875 14.65625,16.78125 C15.0625,16.46875 15.28125,16.25 15.6875,16.03125 C16,15.6875 16.3125,15.5 16.5,15.1875 C16.9375,14.78125 17.21875,14.5625 17.4375,14.21875 C17.6875,14.0625 17.875,13.90625 17.75,13.6875 C17.09375,13.75 16.8125,14 16.40625,14.3125 C16.1716651,14.5641359 15.8971392,14.7753097 15.59375,14.9375 C15.1990776,15.2174928 14.7331913,15.3800113 14.25,15.40625 C13.75,15.40625 13.3125,15.3125 12.84375,15.28125 C12.28125,15.21875 12.78125,15.09375 12.9375,14.84375 C13.15625,14.71875 13.3125,14.375 13.125,14.125 C12.71875,13.96875 12.1875,14 11.71875,14 L10.28125,14 C9.75,14 9.53125,13.875 9.15625,13.6875 C9.0625,13.375 9.15625,13.46875 9.5625,13.46875 C10.0176213,13.4505076 10.4688421,13.3770531 10.90625,13.25 C11.375,13.125 11.4375,12.9375 11.53125,12.40625 C11.03125,12.40625 10.5,12.40625 10.1875,12.3125 L9.25,12.3125 Z M0.4375,9.875 C0.34375,9.09375 0.15625,8.6875 0.125,7.90625 C0.125,7.34375 0.15625,7.65625 0.71875,6.875 C0.78125,6.875 1.1875,6.46875 1.59375,6.125 C2.125,5.8125 2.625,5.46875 3.15625,5.1875 C3.5625,4.96875 4.40625,4.78125 4.75,4.59375 C5.25973513,4.33951544 5.70770107,3.97687634 6.0625,3.53125 C6.09375,2.875 6.1875,2.375 6.1875,1.59375 C6.78125,1.28125 7.28125,1.03125 7.78125,0.84375 C8.5,0.625 8.65625,0.34375 9.375,0.21875 C9.84375,0.0625 10.59375,0.0625 11.25,0.0625 C11.96875,0.0625 12.40625,0.59375 13.0625,0.6875 C13.84375,1 14.1875,1.21875 14.78125,1.75 C15.125,2.1875 15.34375,2.5625 15.9375,2.875 C16.40625,3.125 16.84375,3.5 17.375,3.625 C17.375,4.1875 17.5,4.09375 17.125,4.09375 C17.0625,4.65625 16.9375,4.59375 16.40625,4.625 C16.0229868,4.4198073 15.6998559,4.11821841 15.46875,3.75 C15.6875,3.21875 15.5625,4.21875 15.46875,4.40625 C15.21875,4.625 15.0625,4.84375 14.78125,4.625 C14.59375,4.09375 14.46875,3.75 14.46875,3.125 C14.375,2.46875 14.1875,2.9375 14.0625,3.21875 C13.90625,3.78125 13.96875,3.96875 14.15625,4.40625 C13.625,4.40625 13.21875,4.34375 12.84375,4.28125 C12.46875,4.1875 12.03125,4.3125 11.59375,4.5 C11.0625,4.84375 11.25,4.84375 11.5,5.25 C11.96875,5.40625 12.3125,5.65625 12.75,5.875 C13.1875,5.8125 13.6875,5.6875 14.15625,5.5625 C14.65625,5.40625 15.09375,5.5 15.59375,5.5625 C15.84375,5.71875 16.15625,5.71875 16.3125,5.875 C16.3125,6.21875 16.3125,6.5625 16.1875,6.75 C16,6.90625 15.78125,7.28125 15.46875,7.375 C15.0310691,7.63238489 14.5569482,7.82203323 14.0625,7.9375 C13.4375,7.9375 13.1875,8.09375 12.71875,8.34375 C12.65625,8.90625 12.5,9.03125 12,9.21875 C11.5608792,9.42782071 11.0800894,9.53466289 10.59375,9.53125 C10.28125,9.53125 10,9.5625 9.875,9.40625 C10.2217751,9.04418288 10.4973948,8.62015257 10.6875,8.15625 C10.78125,7.90625 10.96875,7.78125 10.78125,7.59375 C10.1875,7.625 10.03125,7.625 9.96875,8.21875 C9.90625,8.8125 9.6875,8.90625 9.25,9.09375 C9.375,8.5625 9.40625,8.15625 9.5625,7.71875 C9.12841482,7.78685358 8.68935792,7.81821479 8.25,7.8125 C7.9375,8 7.8125,8.09375 7.9375,8.4375 C7.53125,8.59375 7,8.5 6.5,8.4375 C6.0625,8.4375 6.3125,8.25 6,8.03125 C5.78125,7.625 5.5625,7.53125 5.0625,7.5 C4.84375,7.8125 4.4375,7.90625 4.15625,8.125 C3.71875,8.28125 3.4375,8.15625 3.03125,7.9375 C2.53125,7.9375 2.59375,8.09375 2.71875,8.46875 C2.9375,8.59375 2.71875,8.75 3.03125,8.78125 C3.34375,9.03125 3.59375,9.09375 4.15625,9.09375 C4.59375,8.96875 5.09375,9 5.59375,9 C6.09375,9 6,9.125 6,9.625 C5.6875,9.875 5.1875,9.84375 4.65625,9.84375 C4.23882562,9.78941757 3.82956621,9.68447926 3.4375,9.53125 C2.96875,9.5 2.59375,9.40625 2.21875,9.53125 C2.0625,9.71875 1.59375,9.78125 2.125,9.84375 C2.34375,10.0625 3.53125,9.9375 3.59375,10.3125 C3.90625,10.625 3.8125,11.03125 3.34375,11.03125 C3.12324281,10.8960416 2.84550719,10.8960416 2.625,11.03125 C2.3125,11.09375 1.875,11.03125 1.28125,11.09375 C2.0625,11.15625 0.71875,10.25 0.4375,9.875 Z" id="Shape" fill="#FEFEFE" fill-rule="nonzero"></path>
                    <path d="M3.65625,6.34375 L3.03125,6.75 C2.59375,7 2.09375,7.375 1.8125,7.59375 C1.59375,7.78125 1.59375,7.90625 1.3125,7.90625 C1.78125,7.84375 2,7.71875 2.4375,7.5 C2.96875,7.4375 3.46875,7.3125 3.75,7.0625 C4.03125,6.96875 3.75,6.5625 3.65625,6.3125 L3.65625,6.34375 Z M8.34375,1.3125 C8.40625,1.3125 8.53125,1.625 8.75,1.84375 C8.90625,2.25 9.0625,2.53125 9.0625,3.03125 C9.1875,2.5 9.375,2.09375 9.46875,1.53125 C9.3125,1.21875 9.3125,1.125 8.84375,1.09375 C8.84375,1.40625 8.90625,1.1875 8.34375,1.3125 Z" id="Shape" fill="#BCBCBC" fill-rule="nonzero"></path>
                    <path d="M5.50375,5.080625 C5.2725,5.080625 5.87375,4.84 6.105,4.791875 C6.29,4.406875 6.3825,4.16625 6.70625,3.925625 C7.215,3.925625 7.4925,4.118125 7.72375,4.455 C8.18625,4.599375 8.325,4.791875 8.83375,4.888125 C9.065,5.080625 9.29625,5.080625 8.83375,5.225 C8.55625,5.369375 8.14,5.4175 7.63125,5.4175 C7.21362459,5.45011045 6.80565878,5.56440025 6.42875,5.754375 C5.735,5.754375 5.8275,5.754375 5.50375,5.080625 Z" id="Path" stroke="#000000" stroke-width="0.68" fill="#C4C4C2"></path>
                    <path d="M10.1875,1.40625 L10.1875,1.53125 C10.1875,1.21875 10.1875,1.375 10.28125,1.96875 C10.4484417,2.36331098 10.5232627,2.79085951 10.5,3.21875 C10.7900839,2.96923025 11.0062448,2.64498885 11.125,2.28125 C11.125,1.4375 10.96875,1.46875 10.1875,1.40625 Z M13.9375,13.6875 L14.0625,13.6875 C13.75,13.6875 13.9375,13.6875 14.46875,13.375 C14.8125,13.125 15.09375,12.75 15.59375,12.625 C15.9804743,12.2950871 16.4256804,12.0406836 16.90625,11.875 C17.15625,11.75 17.375,11.5625 17.625,11.78125 C17.5625,12.28125 17.46875,12.5 17,12.71875 C16.78125,13.03125 16.4375,13.21875 16.09375,13.34375 C15.78125,13.53125 15.40625,13.53125 15.28125,13.90625 C14.71875,14.15625 14.65625,14.09375 13.96875,13.6875 L13.9375,13.6875 Z M15.90625,16.78125 C16.0625,16.625 16.71875,15.96875 17.03125,15.71875 C17.3070814,15.3145581 17.6445014,14.9560493 18.03125,14.65625 C18.34375,14.1875 18.71875,13.875 18.96875,13.46875 L19.78125,12.40625 C19.78125,12.875 19.71875,13.5 19.875,13.78125 C19.9051201,14.2303117 19.7959927,14.6777341 19.5625,15.0625 C19.34375,15.4375 19.15625,15.6875 18.625,15.9375 C18.1875,16.1875 17.90625,16.25 17.53125,16.5625 C17.2308499,16.7601334 16.9176613,16.9376069 16.59375,17.09375 C16.3125,17.21875 16.4375,17.1875 15.90625,16.78125 Z M12.71875,19.21875 L12.84375,19.21875 C12.53125,19.21875 12.6875,19.25 13.25,18.90625 C13.6875,18.46875 14.03125,18.28125 14.5625,18.0625 C14.9959701,18.0436465 15.4211542,17.9373505 15.8125,17.75 C16.03125,17.6875 16.21875,17.53125 16.40625,17.75 C16.71875,18.1875 16.8125,18.3125 16.3125,18.59375 C16.007481,18.8376225 15.656896,19.0182269 15.28125,19.125 C15.03125,19.34375 14.53125,19.34375 14.03125,19.4375 C13.65625,19.4375 13.40625,19.5 13.25,19.21875 L14.0625,19.4375 C13.65625,19.4375 13.4375,19.5 12.71875,19.21875 Z M17.09375,19.21875 L17.09375,19.125 C17.09375,19.4375 17.09375,19.28125 17.3125,18.6875 C17.71875,18.09375 17.84375,17.75 18.34375,17.625 C18.5625,17.3125 18.96875,17.25 19.46875,17.09375 C19.65625,17.40625 19.5,17.78125 19.46875,18.15625 C19.34375,18.5625 18.96875,18.84375 18.75,19.125 C18.4375,19.34375 18.3125,19.5625 17.8125,19.65625 C17.4375,19.65625 17.65625,19.65625 17.125,19.21875 L17.09375,19.21875 Z" id="Shape" fill="#BCBCBC" fill-rule="nonzero"></path>
                    <path d="M7.125,5.375 C7.125,5.65625 6.90625,5.90625 6.625,5.90625 C6.3125,5.90625 6.09375,5.65625 6.09375,5.375 C6.09375,5.09375 6.34375,4.84375 6.625,4.84375 C6.90625,4.84375 7.125,5.0625 7.125,5.375 Z" id="Path" fill="#000000"></path>
                </g>
                <g id="Group" transform="translate(130.000000, 67.812500)" fill="#005120" stroke="#002B0D" stroke-width="0.75">
                    <path d="M0.52,0.0575 L0.93625,0.0575 C-0.35875,0.0575 0.4275,-0.03875 2.555,1.741875 C3.48,0.971875 3.48,0.875625 4.17375,2.223125 C4.63625,2.945 4.72875,2.126875 5.4225,1.356875 C5.74625,2.896875 5.93125,4.485 7.04125,3.04125 C8.33625,3.04125 9.63125,2.945 10.325,3.474375 C11.1575,5.0625 10.88,3.185625 11.5275,3.9075 C13.3775,4.1 13.33125,2.27125 15.27375,1.79 C16.47625,3.378125 17.03125,2.175 18.51125,1.405 C19.6675,1.69375 20.73125,3.474375 20.9625,1.741875 C21.8875,0.201875 21.93375,0.298125 22.58125,1.741875 C23.50625,2.608125 23.87625,1.356875 24.61625,0.92375 C26.00375,1.741875 27.53,1.88625 29.51875,1.356875 C29.88875,2.7525 30.72125,2.126875 31.6,1.741875 C33.40375,2.56 34.005,2.800625 36.08625,1.741875 C37.10375,0.490625 36.54875,1.79 37.28875,2.608125 C38.815,2.126875 38.39875,2.030625 40.15625,2.175 C41.96,2.175 42.09875,2.175 42.6075,0.92375 C43.5325,1.838125 43.81,2.511875 45.05875,1.356875 C47.00125,1.356875 46.4,1.5975 47.51,0.875625 C48.38875,2.800625 48.57375,1.453125 49.59125,2.175 C49.0191647,3.59660422 48.0108774,4.781144 46.72375,5.54375 C45.9375,6.9875 45.42875,8.43125 43.85625,9.00875 C42.7,10.211875 41.45125,10.93375 40.15625,11.9925 C38.39875,12.47375 36.45625,12.3775 34.4675,12.3775 L17.2625,12.3775 C16.06,13.05125 14.025,13.34 12.36,13.676875 C10.51,13.676875 8.33625,13.676875 7.04125,13.24375 C6.1625,12.329375 4.63625,11.31875 3.80375,10.26 C2.87875,9.538125 2.87875,8.1425 2.13875,7.27625 C1.49125,6.073125 1.21375,4.148125 0.52,3.04125 L0.52,0.0575 Z" id="Path"></path>
                    <path d="M40.15625,3.9075 L40.15625,4.2925 C40.15625,3.1375 40.2025,3.763125 39.32375,6.025 C39.185,6.554375 38.76875,6.69875 38.12125,6.89125 L40.15625,3.9075 Z M36.5025,5.591875 L36.91875,5.591875 C35.3925,7.035625 34.375,7.7575 34.05125,9.441875 L36.91875,5.591875 C35.3925,7.035625 34.375,7.7575 34.05125,9.441875 L36.5025,5.591875 Z M30.7675,3.474375 C30.7675,3.474375 30.72125,4.96625 30.35125,5.591875 L30.7675,3.474375 Z M29.14875,6.458125 L29.14875,6.843125 L29.14875,6.458125 Z M25.865,3.9075 L26.28125,3.9075 L25.81875,3.9075 C26.00375,3.9075 26.1425,3.9075 25.81875,3.9075 L25.865,3.9075 Z M2.97125,3.9075 C3.15625,3.9075 3.98875,5.255 5.00625,6.025 C4.775,7.27625 4.35875,8.72 5.00625,9.875 L2.97125,3.9075 Z M6.255,6.458125 C6.44,6.458125 7.22625,7.805625 8.29,8.575625 L6.255,6.458125 C6.44,6.458125 7.22625,7.805625 8.29,8.575625 L8.29,9.00875 C8.29,7.66125 8.1975,6.31375 8.70625,5.591875 C9.16875,6.41 9.72375,7.66125 9.90875,6.458125 C12.22125,6.361875 13.33125,5.688125 14.81125,5.15875 C14.81125,5.784375 14.71875,5.495625 15.27375,6.025 L6.255,6.458125 Z M43.02375,4.2925 L43.44,4.2925 C42.65375,4.96625 42.0525,6.361875 41.405,7.27625 L43.02375,4.2925 Z M26.28125,3.04125 L29.51875,3.04125 L26.28125,3.04125 Z" id="Shape"></path>
                </g>
                <path d="M129.25,74.78125 C124.34375,74.78125 122.71875,79.90625 117.8125,79.90625 L117.53125,79.90625 L117.53125,80.21875 C117.53125,83.78125 117.78125,87.09375 118.3125,90.1875 C122.84375,89.875 124.5,85.0625 129.25,85.0625 C134.15625,85.0625 135.8125,90.1875 140.71875,90.1875 C145.625,90.1875 147.25,85.0625 152.15625,85.0625 C157.0625,85.0625 158.71875,90.1875 163.625,90.1875 C168.53125,90.1875 170.15625,85.0625 175.0625,85.0625 C179.78125,85.0625 181.46875,89.8125 186,90.15625 C186.554762,86.7789207 186.816154,83.3599108 186.78125,79.9375 L186.5,79.9375 C181.59375,79.9375 179.96875,74.8125 175.0625,74.8125 C170.15625,74.8125 168.5,79.9375 163.625,79.9375 C158.75,79.9375 157.0625,74.8125 152.15625,74.8125 C147.25,74.8125 145.59375,79.9375 140.71875,79.9375 C135.84375,79.9375 134.15625,74.8125 129.25,74.8125 L129.25,74.78125 Z M129.25,94.8125 C125.4375,94.8125 123.625,97.9375 120.65625,99.28125 C121.636323,101.980588 122.860124,104.585088 124.3125,107.0625 C125.71875,106 127.1875,105.09375 129.25,105.09375 C134.15625,105.09375 135.8125,110.21875 140.6875,110.21875 C145.625,110.21875 147.25,105.09375 152.15625,105.09375 C157.0625,105.09375 158.71875,110.21875 163.59375,110.21875 C168.46875,110.21875 170.15625,105.09375 175.0625,105.09375 C176.843671,105.148039 178.552758,105.809621 179.90625,106.96875 C181.353121,104.510215 182.576764,101.926967 183.5625,99.25 C180.6875,97.84375 178.84375,94.8125 175.0625,94.8125 C170.15625,94.8125 168.5,99.9375 163.59375,99.9375 C158.6875,99.9375 157.0625,94.8125 152.15625,94.8125 C147.25,94.8125 145.59375,99.9375 140.71875,99.9375 C135.84375,99.9375 134.15625,94.8125 129.25,94.8125 Z M152.15625,114.8125 C147.25,114.8125 145.59375,119.96875 140.71875,119.96875 C136.0625,119.96875 134.34375,115.375 130.03125,114.875 C135.8125,121.3125 142.34375,125.1875 146.8125,127.375 C148.34375,126.1875 149.90625,128.78125 152.125,128.78125 C154.40625,128.78125 155.9375,126.15625 157.4375,127.3125 C163.726291,124.271091 169.378907,120.060793 174.09375,114.90625 C169.90625,115.53125 168.15625,119.96875 163.59375,119.96875 C158.6875,119.96875 157.0625,114.84375 152.15625,114.84375 L152.15625,114.8125 Z" id="Shape" fill="#FFFFFF"></path>
                <g id="Group" transform="translate(121.350000, 74.700000)" stroke="#512007">
                    <path d="M0.37796875,20.583625 C1.96736134,20.0212125 3.58263248,19.5412462 5.2178125,19.1455 L12.7310937,26.6716875 L6.55453125,27.966 L0.37796875,20.583625 Z" id="Path" stroke-width="0.752394594"></path>
                    <path d="M15.1984,32.8666875 C15.3156625,31.11955 18.6381,21.0925 18.6381,21.0925 M16.3319375,32.9806312 L18.9508,21.1684625 M17.23095,33.0186125 L19.41985,21.1684625 M15.3156625,31.4234 C15.901975,31.11955 17.5827375,30.663775 17.5827375,30.663775 M16.1365,29.6762625 C16.683725,29.6762625 17.8172625,29.2204875 17.8172625,29.2204875 M16.4492,28.3469187 C17.0062944,28.1422895 17.5821772,27.9896756 18.16905,27.8911437 M16.683725,26.6757437 L18.5208375,26.3718937 M17.5045625,25.2324562 C17.5045625,25.3464 18.7553625,25.3464 18.7553625,25.3464 M17.8172625,23.9410937 L19.0680625,24.131" id="Shape" stroke-width="0.739936216"></path>
                    <path d="M31.675625,40.179 C31.8139063,37.1936 35.731875,20.06 35.731875,20.06 M33.0123438,39.5949 L36.100625,20.1249 M34.3951563,38.1022 C34.4873438,36.9989 36.65375,20.1898 36.65375,20.1898 M31.8139063,37.7128 C32.5053125,37.1936 34.4873438,36.4148 34.4873438,36.4148 M32.781875,34.7274 C33.4271875,34.7274 34.7639063,33.9486 34.7639063,33.9486 M33.150625,32.4559 C33.8075759,32.1062423 34.486683,31.8454651 35.17875,31.6771 M33.4271875,29.6003 L35.5935938,29.0811 M34.3951563,27.1341 C34.3951563,27.3288 35.8701563,27.3288 35.8701563,27.3288 M34.7639063,24.9275 L36.2389063,25.252" id="Shape" stroke-width="0.720484461" transform="translate(34.164688, 30.119500) scale(-1, 1) translate(-34.164688, -30.119500) "></path>
                    <path d="M43.07,34.035625 C43.2082812,31.8305 47.12625,19.175 47.12625,19.175 M44.4067187,33.6041875 L47.495,19.2229375 M45.7895312,32.501625 C45.8817187,31.6866875 48.048125,19.270875 48.048125,19.270875 M43.2082812,32.214 C43.8996875,31.8305 45.8817187,31.25525 45.8817187,31.25525 M44.17625,30.008875 C44.8215625,30.008875 46.1582812,29.433625 46.1582812,29.433625 M44.545,28.3310625 C45.2019509,28.0727926 45.881058,27.8801731 46.573125,27.7558125 M44.8215625,26.2218125 L46.9879687,25.8383125 M45.7895312,24.4001875 C45.7895312,24.544 47.2645312,24.544 47.2645312,24.544 M46.1582812,22.7703125 L47.6332812,23.01" id="Shape" stroke-width="0.752394594" transform="translate(45.559062, 26.605313) scale(-1, 1) translate(-45.559062, -26.605313) "></path>
                    <path d="M29.3248438,35.348375 L29.7396875,0.354 C29.7396875,0.354 30.938125,0.2101875 30.938125,0.354 C30.938125,0.4978125 30.7998438,35.2045625 30.6615625,35.348375 C30.5232813,35.4921875 29.1865625,35.5880625 29.3248438,35.348375 Z M42.4615625,1.888 L42.185,31.2736875 L41.263125,32.4241875 L41.5396875,1.888 L42.4615625,1.888 Z" id="Shape" stroke-width="0.752394594" fill="#DD8B59"></path>
                    <path d="M14.4365625,29.595875 C14.4365625,29.595875 15.819375,43.977125 31.2146875,43.5456875 C46.61,43.11425 50.8967187,29.0685625 50.8967187,29.0685625 L44.213125,28.7809375 C44.0748437,28.7809375 38.86625,35.4921875 32.1365625,35.348375 C25.406875,35.2045625 23.2865625,33.52675 21.8115625,32.1365625 C20.3365625,30.6984375 19.0459375,28.637125 19.0459375,28.637125 L11.21,25.4253125 L11.6709375,28.4933125 L14.4365625,29.595875 Z M56.0592187,28.15775 L55.5982812,26.24025 L55.5982812,24.610375 L56.3357812,22.884625 C56.3357812,22.884625 44.6740625,24.6583125 44.6740625,24.802125 L44.6279687,28.061875 L56.0592187,28.1098125 L56.0592187,28.15775 Z" id="Shape" stroke-width="0.752394594" fill="#DD8B59"></path>
                    <path d="M53.8467187,24.610375 L53.5701562,27.486625 L55.46,27.486625 L55.3217187,24.610375 L53.8467187,24.610375 Z M51.8646875,24.7541875 L51.7264062,27.8221875 L52.9248437,27.678375 L53.063125,24.7541875 L51.8646875,24.7541875 Z M49.8365625,27.8221875 L49.8365625,25.4253125 L51.035,24.993875 L51.1732813,27.39075 L49.8365625,27.8221875 Z M47.531875,27.678375 L47.8084375,25.569125 L49.19125,25.7129375 L49.2834375,27.966 L47.531875,27.678375 Z M44.9967187,27.678375 L45.135,25.85675 L46.5178125,25.7129375 L46.5178125,27.8221875 L44.9967187,27.678375 Z M13.9295312,29.4520625 C14.344375,29.4520625 17.4326562,30.171125 17.4326562,30.171125 L20.6592187,34.6293125 L13.9295312,29.4520625 Z" id="Shape" stroke-width="0.752394594"></path>
                    <path d="M16.188125,30.0273125 C16.3264062,30.171125 18.9998437,39.5189375 31.86,39.5189375 C44.7201562,39.5189375 47.8084375,28.92475 47.8084375,28.92475" id="Path" stroke-width="0.752394594"></path>
                    <path d="M49.8365625,29.212375 C49.8365625,29.212375 43.66,43.11425 31.86,42.1555 C20.1060937,41.19675 18.21625,36.59475 17.294375,34.197875 C16.3725,31.801 15.819375,29.8835 15.819375,29.8835" id="Path" stroke-width="0.752394594"></path>
                    <path d="M19.138125,28.637125 C19.2764062,27.8221875 19.2764062,2.559125 19.2764062,2.559125 L18.4928125,2.46325 L18.3545312,28.2056875 L19.138125,28.6850625 L19.138125,28.637125 Z M0.00921875,20.4398125 L10.1498437,25.569125 L9.919375,26.2881875 C9.919375,26.2881875 0.1475,21.4944375 0.1475,21.350625 C0.1475,21.2068125 0.2396875,20.6315625 0.00921875,20.391875 L0.00921875,20.4398125 Z" id="Shape" stroke-width="0.752394594" fill="#DD8B59"></path>
                    <path d="M4.6646875,18.9058125 C4.6646875,19.2893125 6.1396875,27.8221875 6.1396875,27.8221875 C6.1396875,27.8221875 7.0615625,27.966 7.0615625,27.8221875 L5.494375,19.049625 L4.6646875,18.9058125 Z M14.0678125,19.1455 C14.5748437,19.1455 23.7475,17.6115 23.7475,17.6115 L23.563125,19.1455 L14.5748437,20.10425 L14.0678125,19.1455 Z" id="Shape" stroke-width="0.752394594" fill="#DD8B59"></path>
                    <path d="M15.3584375,7.5925625 C15.6810937,7.5925625 18.585,9.1265625 19.8295312,8.7430625 C21.0740625,8.3595625 20.244375,7.3049375 20.4748437,7.3049375 C20.7514062,7.3049375 21.6732812,8.024 22.2264062,7.44875 C22.7795312,6.9214375 23.1482812,5.243625 22.9178125,5.3874375 C22.64125,5.53125 15.5428125,8.1678125 15.4045312,7.5925625 L15.3584375,7.5925625 Z" id="Path" stroke-width="0.752394594" fill="#FECF3E"></path>
                    <path d="M14.2060937,11.092 C14.713125,11.2358125 25.1764062,8.1678125 25.1764062,8.1678125 C25.1764062,8.1678125 25.1764062,9.1265625 25.038125,9.1265625 L14.2060937,12.05075 L14.2060937,11.092 Z" id="Path" stroke-width="0.752394594" fill="#DD8B59"></path>
                    <path d="M38.4053125,6.777625 C38.4053125,6.777625 39.0967187,8.4554375 39.788125,8.1678125 C40.4795312,7.8801875 41.1248437,7.3049375 41.1248437,7.3049375 C41.1248437,7.3049375 41.6779687,8.7430625 42.5998437,8.4554375 C43.5217187,8.1678125 44.0748437,6.6338125 44.0748437,6.6338125 C44.0748437,6.6338125 44.9967187,6.9214375 45.4115625,6.777625 C45.8264062,6.6338125 46.3334375,4.38075 46.3334375,4.38075 L38.4514062,6.777625 L38.4053125,6.777625 Z M37.6217188,20.296 C37.4834375,20.583625 38.313125,21.25475 39.0045313,21.25475 C39.6959375,21.25475 39.9264063,20.296 40.0646875,20.583625 C40.2029688,20.8233125 40.2029688,22.117625 41.9084375,21.6861875 C43.6139063,21.25475 43.66,20.008375 43.66,20.008375 C43.66,20.008375 43.1529688,20.4398125 44.3514063,20.583625 C45.5498438,20.7274375 46.7482813,18.762 46.6560938,18.762 C46.4717188,18.762 37.8982813,20.4398125 37.6217188,20.296 Z" id="Shape" stroke-width="0.752394594" fill="#FECF3E"></path>
                    <path d="M14.6209375,7.0173125 C14.53663,7.44935719 14.5685287,7.89721438 14.713125,8.311625 L23.4709375,5.243625 C23.4709375,5.243625 23.8396875,4.5245625 23.4709375,4.5245625 C23.1021875,4.5245625 14.4826562,7.3049375 14.5748437,7.06525 L14.6209375,7.0173125 Z M26.144375,5.0998125 C26.3748437,5.0998125 35.0865625,2.175625 35.0865625,2.175625 C35.0865625,2.175625 35.2248437,3.422 35.0865625,3.422 L26.9279687,5.91475 L26.0982812,5.0998125 L26.144375,5.0998125 Z" id="Shape" stroke-width="0.752394594" fill="#DD8B59"></path>
                    <path d="M37.6217187,11.2358125 C37.6217187,11.2358125 36.285,12.7698125 36.6998437,14.831125 C37.1146875,16.940375 37.6217187,18.762 37.76,18.762 C37.8982813,18.762 39.3732812,15.981625 40.9865625,15.8378125 C42.5998438,15.694 45.5498438,17.3718125 45.5498438,17.3718125 C45.5498438,17.3718125 45.135,14.0161875 45.2732812,12.4821875 C45.4115625,10.9481875 47.6701562,8.311625 47.6701562,8.311625 L37.6217187,11.187875 L37.6217187,11.2358125 Z" id="Path" stroke-width="0.752394594" fill="#FECF3E"></path>
                    <path d="M25.4529687,8.695125 C25.4529687,8.695125 25.1764062,9.9894375 25.3146875,9.9894375 L36.6998437,6.9214375 L36.6998437,6.010625 L25.4529687,8.6471875 L25.4529687,8.695125 Z" id="Path" stroke-width="0.752394594" fill="#DD8B59"></path>
                    <path d="M10.9795312,25.569125 C10.9795312,25.569125 8.30609375,25.185625 8.444375,25.85675 C8.58265625,26.5758125 9.78109375,27.2469375 9.919375,27.678375 C10.0576562,28.1098125 9.50453125,29.595875 10.3342187,29.5 C11.1178125,29.3561875 11.9014062,28.7809375 11.9014062,28.3495 L11.763125,25.952625 L10.9795312,25.569125 Z" id="Path" stroke-width="0.752394594" fill="#B6B6B4"></path>
                    <polygon id="Path" stroke-width="0.752394594" fill="#DD8B59" points="25.8678125 18.6181875 25.8678125 19.5769375 35.5014062 18.18675 35.2248437 17.4676875 25.8678125 18.6181875"></polygon>
                    <path d="M14.4365625,20.296 C14.6209375,20.296 14.4365625,21.542375 15.5428125,21.25475 C16.6029688,20.967125 16.8795312,20.296 16.8795312,20.296 C16.8795312,20.296 17.1560937,21.83 18.6310937,21.6861875 C20.1060937,21.542375 20.9357812,19.8645625 20.9357812,19.8645625 C20.9357812,19.8645625 21.0279687,21.1109375 21.9498437,20.6795 C22.8717187,20.2480625 23.1482812,19.2893125 23.1482812,19.2893125 L14.713125,20.5356875 L14.4826562,20.296 L14.4365625,20.296 Z M14.4365625,12.05075 C14.4365625,12.05075 13.238125,12.4821875 13.6529688,14.9749375 C14.0678125,17.4676875 15.0357813,18.9058125 15.1279688,18.9058125 C15.26625,18.9058125 16.3264063,16.5089375 17.9396875,16.1254375 C19.5529688,15.6460625 22.3646875,17.3718125 22.3646875,17.3718125 C22.3646875,17.3718125 22.088125,15.11875 22.5029688,13.0574375 C22.9178125,10.9481875 24.2545313,9.4141875 24.2545313,9.4141875 C24.2545313,9.4141875 14.8514063,12.05075 14.4826563,12.05075 L14.4365625,12.05075 Z" id="Shape" stroke-width="0.752394594" fill="#FECF3E"></path>
                    <path d="M36.9764062,19.2893125 L37.1146875,20.1521875 C37.1146875,20.1521875 46.794375,18.9058125 46.794375,18.7140625 C46.794375,18.6181875 46.794375,17.7553125 46.61,17.7553125 C46.4717187,17.7553125 37.1146875,19.433125 36.9303125,19.2893125 L36.9764062,19.2893125 Z M36.838125,10.3729375 L36.9764062,11.3316875 L48.3615625,8.1678125 C48.3615625,8.1678125 48.638125,7.3049375 48.4998437,7.3049375 C48.3615625,7.3049375 37.1146875,10.804375 36.838125,10.3729375 Z" id="Shape" stroke-width="0.752394594" fill="#DD8B59"></path>
                    <path d="M38.0365625,5.91475 C38.0365625,5.91475 37.8982812,6.777625 38.0365625,6.777625 C38.1748437,6.777625 46.4717187,4.668375 46.4717187,4.5245625 C46.4717187,4.38075 47.3014062,3.5658125 46.61,3.709625 C45.9646875,3.8534375 38.313125,6.3461875 38.0365625,5.91475 Z M55.8748437,22.0696875 L47.5779687,8.4554375 L55.8748437,22.0696875 Z M46.4717187,17.899125 C46.61,17.515625 47.0248437,9.1265625 47.0248437,9.1265625 L46.4717187,17.899125 Z" id="Shape" stroke-width="0.752394594"></path>
                    <path d="M26.4209375,5.53125 C26.881875,5.627125 27.8498437,7.06525 28.4029687,6.777625 C28.9560937,6.49 29.7396875,5.627125 29.7396875,5.627125 C29.7396875,5.627125 29.6014062,7.3049375 30.6615625,7.06525 C31.7678125,6.777625 31.9060937,5.627125 31.9060937,5.627125 C31.9060937,5.627125 32.6896875,6.1065 33.3810937,5.627125 C34.0264062,5.243625 34.6717187,3.134375 34.44125,3.134375 C34.2107812,3.134375 26.6514062,5.627125 26.3748437,5.53125 L26.4209375,5.53125 Z M26.144375,9.558 C26.144375,9.845625 24.7615625,12.05075 25.2225,14.16 C25.6834375,16.26925 26.3748437,18.18675 26.513125,18.18675 C26.6514062,18.18675 28.6795312,15.981625 30.4310937,15.5501875 C32.1365625,15.11875 34.7178125,16.940375 34.5795313,16.940375 C34.44125,16.940375 33.888125,14.831125 33.888125,13.297125 C33.888125,11.763125 35.91625,7.06525 35.91625,7.06525 L26.144375,9.558 Z M26.144375,19.624875 C26.144375,19.72075 26.513125,20.6795 27.4810937,20.6795 C28.4029687,20.6795 28.54125,19.72075 28.54125,19.72075 C28.54125,19.72075 28.4029687,21.3985625 29.8779687,21.25475 C31.3529687,21.1109375 31.86,19.5769375 31.86,19.5769375 C31.86,19.5769375 31.9982812,20.4398125 33.2428125,20.008375 C34.44125,19.5769375 36.0084375,18.18675 35.91625,18.18675 C35.7779687,18.18675 26.2365625,20.008375 26.0982812,19.624875 L26.144375,19.624875 Z" id="Shape" stroke-width="0.752394594" fill="#FECF3E"></path>
                    <g id="k-link" transform="translate(26.328750, 14.123125)" fill="#BE0F17" stroke-width="0.740613349">
                        <path d="M1.6440424,0.91560625 C1.6440424,1.31059301 1.30816982,1.63079305 0.89385,1.63079305 C0.479530179,1.63079305 0.143657601,1.31059301 0.143657601,0.91560625 C0.143657601,0.520619488 0.479530179,0.200419451 0.89385,0.200419451 C1.30816982,0.200419451 1.6440424,0.520619488 1.6440424,0.91560625 Z" id="k" transform="translate(0.893850, 0.915606) rotate(-87.858949) translate(-0.893850, -0.915606) "></path>
                    </g>
                    <g id="k-link" transform="translate(31.196250, 12.832500)" fill="#BE0F17" stroke-width="0.740613349">
                        <path d="M1.6440424,0.91560625 C1.6440424,1.31059301 1.30816982,1.63079305 0.89385,1.63079305 C0.479530179,1.63079305 0.143657601,1.31059301 0.143657601,0.91560625 C0.143657601,0.520619488 0.479530179,0.200419451 0.89385,0.200419451 C1.30816982,0.200419451 1.6440424,0.520619488 1.6440424,0.91560625 Z" id="k" transform="translate(0.893850, 0.915606) rotate(-87.858949) translate(-0.893850, -0.915606) "></path>
                    </g>
                    <g id="k-link" transform="translate(28.762500, 15.487500)" fill="#BE0F17" stroke-width="0.740613349">
                        <path d="M1.6440424,0.91560625 C1.6440424,1.31059301 1.30816982,1.63079305 0.89385,1.63079305 C0.479530179,1.63079305 0.143657601,1.31059301 0.143657601,0.91560625 C0.143657601,0.520619488 0.479530179,0.200419451 0.89385,0.200419451 C1.30816982,0.200419451 1.6440424,0.520619488 1.6440424,0.91560625 Z" id="k" transform="translate(0.893850, 0.915606) rotate(-87.858949) translate(-0.893850, -0.915606) "></path>
                    </g>
                    <path d="M30.4065424,12.3468562 C30.4065424,12.741843 30.0706698,13.062043 29.65635,13.062043 C29.2420302,13.062043 28.9061576,12.741843 28.9061576,12.3468562 C28.9061576,11.9518695 29.2420302,11.6316695 29.65635,11.6316695 C30.0706698,11.6316695 30.4065424,11.9518695 30.4065424,12.3468562 Z" id="k" stroke-width="0.35" fill="#BE0F17" transform="translate(29.656350, 12.346856) rotate(-87.858949) translate(-29.656350, -12.346856) "></path>
                    <path d="M30.6615625,0.7375 C30.6615625,0.641625 34.81,2.559125 34.81,2.7029375 C34.81,2.84675 49.56,23.2201875 49.6982812,23.2201875 M42.3232812,2.7029375 L46.1029687,4.38075 L47.3014062,7.44875 M18.9998438,2.46325 C18.8615625,2.46325 23.1482813,5.818875 23.1482813,5.818875 L23.7014062,8.5513125 M4.43421875,22.78875 C6.27796875,21.9738125 19.2764062,10.13325 19.2764062,10.13325 M0.93109375,20.5356875 L15.5428125,7.736375 M25.3146875,9.653875 L39.1428125,33.52675 M37.4834375,19.529 C37.4834375,19.529 39.0967187,25.1376875 40.71,26.0005625 C42.3232812,26.8634375 44.213125,28.2056875 44.213125,28.2056875" id="Shape" stroke-width="0.35"></path>
                    <path d="M37.2990625,19.6728125 C37.2990625,19.6728125 38.4514062,26.2881875 40.0646875,27.5345625 C41.6779687,28.7809375 43.29125,30.171125 43.29125,30.171125" id="Path" stroke-width="0.35"></path>
                    <path d="M26.1996875,19.6175 C26.1996875,19.6175 27.766875,28.8215 30.9934375,30.93075 C32.969995,32.2087354 34.9367242,33.503089 36.8934375,34.8136875" id="Path" stroke-width="0.35"></path>
                    <path d="M26.0614062,19.4736875 C26.0614062,19.4736875 29.5184375,26.7601875 32.5145312,28.9653125 C35.4184375,31.218375 39.4285937,33.2796875 39.4285937,33.2796875 M14.8145312,20.096875 C15.7364062,21.7746875 15.598125,24.9865 16.6582812,26.0890625 C17.6329399,27.2346696 18.5264292,28.4522798 19.3317187,29.7323125 M15.045,20.19275 C15.598125,21.0076875 17.073125,25.17825 17.995,26.424625 C18.6864062,27.575125 25.5082812,34.669875 25.5082812,34.669875" id="Shape" stroke-width="0.35"></path>
                    <path d="M23.2496875,35.0054375 C23.2496876,35.3822188 23.0564084,35.730379 22.7426563,35.9187697 C22.4289042,36.1071603 22.0423458,36.1071603 21.7285937,35.9187697 C21.4148416,35.730379 21.2215624,35.3822188 21.2215625,35.0054375 C21.2215626,34.4229843 21.6755738,33.9508127 22.235625,33.9508127 C22.7956762,33.9508127 23.2496874,34.4229843 23.2496875,35.0054375 Z M28.1817187,37.2585 C28.1817188,37.7615279 27.7896181,38.1693125 27.3059375,38.1693125 C26.8222569,38.1693125 26.4301563,37.7615279 26.4301563,37.2585 C26.4301563,36.7554721 26.8222569,36.3476875 27.3059375,36.3476875 C27.7896181,36.3476875 28.1817188,36.7554721 28.1817188,37.2585 Z M34.4965625,37.83375 C34.4965625,38.3367779 34.1044619,38.7445625 33.6207812,38.7445625 C33.1371006,38.7445625 32.745,38.3367779 32.745,37.83375 C32.745,37.3307221 33.1371006,36.9229375 33.6207813,36.9229375 C34.1044619,36.9229375 34.4965625,37.3307221 34.4965625,37.83375 Z M39.9817187,35.6765625 C39.9817187,36.1559375 39.6590625,36.4915 39.2442187,36.4915 C38.829375,36.4915 38.5067187,36.108 38.5067187,35.6765625 C38.5067187,35.245125 38.829375,34.8136875 39.2442187,34.8136875 C39.6590625,34.8136875 39.9817187,35.1971875 39.9817187,35.6765625 Z M44.4067187,32.944125 C44.4067187,33.3755625 43.991875,33.711125 43.5309375,33.711125 C43.07,33.711125 42.6551562,33.3755625 42.6551562,32.944125 C42.6551562,32.5126875 43.07,32.177125 43.5309375,32.177125 C43.991875,32.177125 44.4067187,32.5126875 44.4067187,32.944125 Z" id="Shape" stroke-width="0.35" fill="#000000" fill-rule="nonzero"></path>
                    <path d="M18.4098437,3.031125 C17.995,3.31875 11.3114063,4.9965625 12.2332813,4.85275 C13.1551563,4.7089375 18.548125,6.290875 18.4098437,5.8115 C18.2715625,5.332125 18.4098437,3.31875 18.4098437,3.031125 Z M29.795,0.9698125 C29.5184375,0.9698125 25.6465625,2.5038125 25.7848437,2.5038125 C25.923125,2.5038125 30.2098438,3.7501875 30.0715625,3.4625625 C29.9332812,3.1749375 29.9332812,1.3533125 29.795,0.9698125 Z M41.4567187,2.36 C41.1801562,2.5038125 36.616875,3.606375 37.4465625,3.7501875 C38.27625,3.894 41.3184375,4.9965625 41.3184375,4.7089375 C41.3184375,4.46925 41.3184375,2.5038125 41.4567187,2.3120625 L41.4567187,2.36 Z" id="Shape" stroke-width="0.35" fill="#FF0000"></path>
                    <path d="M36.616875,34.9575 C36.7551562,32.752375 40.673125,20.096875 40.673125,20.096875 M37.9535937,34.5260625 L41.041875,20.1448125 M39.3364062,33.4235 C39.4285937,32.6085625 41.595,20.19275 41.595,20.19275 M36.7551562,33.135875 C37.4465625,32.752375 39.4285937,32.177125 39.4285937,32.177125 M37.723125,30.93075 C38.3684375,30.93075 39.7051562,30.3555 39.7051562,30.3555 M38.091875,29.2529375 C38.7488259,28.9946676 39.427933,28.8020481 40.12,28.6776875 M38.3684375,27.1436875 L40.5348437,26.7601875 M39.3364062,25.3220625 C39.3364062,25.465875 40.8114062,25.465875 40.8114062,25.465875 M39.7051562,23.6921875 L41.1801562,23.931875" id="Shape" stroke-width="0.35"></path>
                    <path d="M25.185625,36.56525 C25.3239062,34.25835 29.241875,21.01875 29.241875,21.01875 M26.5223438,36.7157 L29.610625,21.11905 M27.5825,36.76585 L30.16375,21.11905 M25.3239063,34.65955 C26.0153125,34.25835 27.9973438,33.65655 27.9973438,33.65655 M26.291875,32.35265 C26.9371875,32.35265 28.2739063,31.75085 28.2739063,31.75085 M26.660625,30.5974 C27.3175759,30.3272099 27.996683,30.1257003 28.68875,29.9956 M26.9371875,28.3908 L29.1035938,27.9896 M27.9051563,26.4851 C27.9051563,26.63555 29.3801563,26.63555 29.3801563,26.63555 M28.2739063,24.78 L29.7489063,25.03075" id="Shape" stroke-width="0.35"></path>
                    <path d="M20.170625,35.554875 C20.3089063,33.315825 24.226875,20.465625 24.226875,20.465625 M21.5073438,35.1168 L24.595625,20.5143 M22.8901563,33.997275 C22.9823438,33.1698 25.14875,20.562975 25.14875,20.562975 M20.3089063,33.705225 C21.0003125,33.315825 22.9823438,32.731725 22.9823438,32.731725 M21.276875,31.466175 C21.9221875,31.466175 23.2589063,30.882075 23.2589063,30.882075 M21.645625,29.76255 C22.3025759,29.5003067 22.981683,29.3047239 23.67375,29.17845 M21.9221875,27.62085 L24.0885937,27.23145 M22.8901562,25.7712 C22.8901562,25.917225 24.3651562,25.917225 24.3651562,25.917225 M23.2589062,24.11625 L24.7339062,24.359625" id="Shape" stroke-width="0.35" transform="translate(22.659688, 28.010250) scale(-1, 1) translate(-22.659688, -28.010250) "></path>
                    <path d="M43.66,28.7809375 L56.381875,29.0685625 L56.5201563,28.1098125 L43.3834375,27.966 L43.66,28.7809375 Z M44.213125,25.2815 C45.688125,25.2815 56.7967187,23.076375 56.7967187,23.076375 C56.7967187,23.076375 57.2115625,21.63825 56.7967187,21.63825 C56.381875,21.63825 44.213125,24.32275 44.213125,24.32275 L44.213125,25.2815 Z" id="Shape" stroke-width="0.35" fill="#DD8B59"></path>
                    <g id="k-link" transform="translate(28.762500, 13.459375)" fill="#BE0F17" stroke-width="0.35">
                        <path d="M1.6440424,0.91560625 C1.6440424,1.31059301 1.30816982,1.63079305 0.89385,1.63079305 C0.479530179,1.63079305 0.143657601,1.31059301 0.143657601,0.91560625 C0.143657601,0.520619488 0.479530179,0.200419451 0.89385,0.200419451 C1.30816982,0.200419451 1.6440424,0.520619488 1.6440424,0.91560625 Z" id="k" transform="translate(0.893850, 0.915606) rotate(-87.858949) translate(-0.893850, -0.915606) "></path>
                    </g>
                </g>
            </g>
        </g>
    </g>
</svg>