<?xml version="1.0" encoding="UTF-8"?>
<svg width="200px" height="150px" viewBox="0 0 200 150" version="1.1" xmlns="http://www.w3.org/2000/svg" xmlns:xlink="http://www.w3.org/1999/xlink">
    <!-- Generator: Sketch 52.5 (67469) - http://www.bohemiancoding.com/sketch -->
    <title>pf</title>
    <desc>Created with Sketch.</desc>
    <defs>
        <polygon id="path-1" points="0 0 200 0 200 150 0 150"></polygon>
    </defs>
    <g id="Flags" stroke="none" stroke-width="1" fill="none" fill-rule="evenodd">
        <g id="Oceania" transform="translate(-510.000000, -450.000000)">
            <g id="pf" transform="translate(510.000000, 450.000000)">
                <mask id="mask-2" fill="white">
                    <use xlink:href="#path-1"></use>
                </mask>
                <g id="Path"></g>
                <g id="Group" mask="url(#mask-2)">
                    <g transform="translate(-12.686567, 0.000000)">
                        <polygon id="Path" stroke="none" fill="#FFFFFF" fill-rule="evenodd" points="12.5207297 0 212.852405 0 212.852405 150 12.5207297 150"></polygon>
                        <polygon id="Path" stroke="none" fill="#FFFFFF" fill-rule="evenodd" points="37.5621891 0 187.810945 0 187.810945 150 37.5621891 150"></polygon>
                        <path d="M99.3206882,106.5 C99.3206882,106.5 102.701285,103.75 106.019279,103.75 C109.337272,103.75 110.213723,106.03125 112.530058,106.21875 C114.815091,106.40625 116.724502,103.9375 119.572968,103.84375 C122.421434,103.75 125.989842,105.84375 125.989842,105.84375 L113.531716,109.59375 L99.3206882,106.46875 L99.3206882,106.5 Z M92.1525705,102.4375 L134.53524,102.65625 C134.53524,102.65625 130.872927,98.6875 126.553275,98.59375 C122.233624,98.53125 123.423093,100.46875 120.136401,100.71875 C116.818408,101 116.004561,98.71875 112.968284,98.78125 C109.963308,98.875 108.210406,100.71875 105.925373,100.8125 C103.609038,100.90625 100.697968,98.53125 98.9450663,98.625 C97.1921642,98.71875 90.9631012,101.34375 90.9631012,101.34375 L92.1525705,102.46875 L92.1525705,102.4375 Z M86.7373549,97.4375 L139.011401,97.59375 C139.856551,96.40625 136.444652,93.5625 133.345771,93.3125 C130.779022,93.40625 128.963516,95.96875 126.834992,96.0625 C124.706468,96.15625 122.327529,93.40625 119.94859,93.5 C117.569652,93.59375 115.096808,96.0625 112.717869,96.0625 C110.307629,96.0625 108.586028,93.40625 105.549751,93.40625 C102.513474,93.40625 101.167496,96.3125 98.8511609,96.15625 C96.5661277,95.96875 94.5315091,93.21875 92.3403814,93.21875 C90.1492537,93.21875 86.4869403,96.5 85.7669983,96.34375 C85.0157546,96.125 86.6747512,97.6875 86.7373549,97.40625 L86.7373549,97.4375 Z" id="Shape" stroke="#083D9C" stroke-width="0.75" fill="#083D9C" fill-rule="evenodd"></path>
                        <path d="M106.833126,68.40625 L118.853027,71.59375 L118.853027,54.46875 C113.343905,54.78125 108.773839,44.03125 118.477405,43.3125 C108.930348,41.9375 107.834784,44.40625 106.739221,47.0625 L106.833126,68.40625 Z" id="Path" stroke="#000000" stroke-width="1" fill="#FF0000" fill-rule="evenodd" stroke-linejoin="round"></path>
                        <path d="M99.2267828,80.84375 L126.365464,80.9375" id="Path" stroke="#083D9C" stroke-width="2.5" fill="#083D9C" fill-rule="evenodd" stroke-linecap="round"></path>
                        <path d="M100.510158,74.375 L103.734245,78.65625 M100.510158,78.65625 L103.98466,74.4375 M102.356965,74.0625 L102.26306,76.71875 M105.643657,74.34375 L108.867745,78.65625 M105.643657,78.65625 L109.118159,74.4375 M107.490464,74.0625 L107.396559,76.71875 M110.871061,74.34375 L114.095149,78.65625 M110.871061,78.65625 L114.345564,74.4375 M112.717869,74.0625 L112.623964,76.71875 M116.286277,74.34375 L119.479063,78.65625 M116.286277,78.65625 L119.760779,74.4375 M118.101783,74.0625 L118.039179,76.71875 M121.48238,74.34375 L124.706468,78.65625 M121.513682,78.65625 L124.988184,74.4375 M123.329187,74.0625 L123.235282,76.71875" id="Shape" stroke="#000000" stroke-width="1" fill="none" stroke-linecap="round"></path>
                        <path d="M80.9778192,81.125 L92.5281924,81.21875 L92.5281924,74 L79.3188226,73.34375 L80.9778192,81.125 Z M80.4143864,71.125 L92.7160033,72.34375 L92.6220978,67.21875 L80.6021973,62.4375 L80.4143864,71.15625 L80.4143864,71.125 Z M82.9185323,60.90625 L92.3403814,65.46875 L93.6863599,64.0625 C93.6863599,64.0625 92.8099088,63.46875 92.8725124,62.90625 C92.8725124,62.375 93.7489635,62.28125 93.7489635,61.65625 C93.7489635,61.125 92.8099088,61.03125 92.778607,60.5 C92.7160033,59.875 93.5298507,59.25 93.5298507,59.25 L85.0157546,51.84375 L82.8872305,60.90625 L82.9185323,60.90625 Z M144.896144,81.21875 L132.688433,81.21875 L132.594527,74.15625 L145.991708,73.15625 L144.896144,81.21875 Z M132.782338,72.5 L147.275083,70.75 L144.1449,62.40625 L132.688433,67.28125 L132.782338,72.5 Z M143.331053,60.125 L132.876244,65.625 C132.719735,65 132.594527,64.4375 131.874585,63.96875 C131.874585,63.96875 132.500622,63.59375 132.500622,62.96875 C132.500622,62.34375 131.686774,62.21875 131.686774,61.875 C131.686774,61.53125 132.438018,61.1875 132.500622,60.34375 C132.406716,59.78125 131.686774,58.96875 131.811982,58.8125 L139.950456,52.625 L143.331053,60.125 Z M120.668532,72.34375 L125.895937,72.125 L125.989842,70.03125 L120.668532,72.34375 Z M104.704602,72.1875 L99.2267828,72.03125 L99.2267828,69.84375 L104.735904,72.1875 L104.704602,72.1875 Z M104.704602,71.5625 L99.2267828,68.75 L99.2267828,65.0625 C99.2267828,65.0625 98.6007463,65.15625 98.6633499,64.4375 C98.6946517,62.90625 102.701285,67.21875 104.735904,68.625 L104.704602,71.5625 Z M120.668532,71.21875 L120.668532,68.8125 C120.668532,68.8125 125.614221,64.375 126.647181,63.53125 C126.647181,64.46875 126.083748,65.15625 126.083748,65.15625 L126.083748,68.65625 L120.668532,71.21875 Z M88.5841625,51.1875 L94.1558872,57.34375 C94.2810945,56.78125 95.5644693,56.6875 96.8478441,56.78125 C98.0999171,56.875 99.1328773,56.6875 99.1328773,57.59375 C99.1328773,58.5 98.5068408,58.375 98.5068408,59.03125 C98.5068408,59.6875 99.4458955,59.625 99.4458955,60.4375 C99.4458955,61.25 98.7572554,61.09375 98.7572554,61.71875 C98.7572554,62.25 99.5084992,62.28125 99.5084992,62.28125 L104.704602,67.3125 L104.704602,61.9375 L93.9993781,45.15625 L88.5841625,51.1875 Z M97.1608624,44.8125 L104.454187,59.65625 C104.454187,59.65625 104.516791,45.96875 105.737562,45.25 L103.702944,41.5 L97.1608624,44.8125 Z M128.775705,45.40625 L120.637231,59.84375 L120.637231,53.75 C120.637231,53.75 121.325871,52.75 120.261609,52.8125 C119.197347,52.90625 117.913972,52.75 117.913972,52.75 L121.169362,41.3125 L128.775705,45.375 L128.775705,45.40625 Z M137.10199,51.5625 C137.008085,51.71875 131.624171,57.1875 131.624171,57.1875 C131.373756,56.5625 129.746061,56.875 128.18097,56.875 C126.647181,56.875 126.428068,57.375 126.521973,57.78125 C126.678483,58.8125 127.210614,58.03125 127.210614,59.03125 C127.210614,60 126.45937,59.65625 126.365464,60.34375 C126.45937,61.1875 127.554934,60.96875 126.897595,61.59375 L120.668532,67.59375 L120.668532,61.90625 L132.281509,43.90625 L137.10199,51.5625 Z" id="Shape" stroke="none" fill="#EF7D08" fill-rule="evenodd"></path>
                        <path d="M109.493781,83.875 C106.89573,88.1875 99.9154229,86.90625 98.2564262,83.875 C97.7868988,83.75 98.0686153,65.28125 98.0686153,65.28125 C98.0686153,65.28125 97.2860697,64.9375 97.2547678,64.34375 C97.223466,63.78125 98.3190299,63.71875 98.3190299,63 C98.3190299,62.28125 97.1921642,62.5625 97.1608624,61.8125 C97.1608624,61.125 98.3816335,61.1875 98.3190299,60.5625 C98.2564262,59.8125 96.9730514,59.9375 96.9104478,59.25 C96.9104478,58.71875 97.8495025,58.25 98.0999171,58 C97.8078048,58.0066621 97.5155783,58.0066621 97.223466,58 L95.2201493,58.03125 C93.7802653,58.03125 95.2201493,58.34375 95.2201493,59.15625 C95.2201493,59.6875 94.5002073,60.0625 94.4376036,60.5 C94.4063018,61 95.439262,61.3125 95.4705638,61.90625 C95.4705638,62.40625 94.4376036,62.4375 94.4689055,62.9375 C94.5315091,63.71875 95.4079602,63.90625 95.3766584,64.40625 C95.3766584,64.875 94.2497927,65.0625 94.2184909,65.4375 C94.2810945,66.1875 94.4063018,84.4375 94.4063018,84.4375 C96.1905058,93.75 106.55141,96.09375 109.493781,83.875 Z M116.348881,83.875 C118.946932,88.1875 125.927239,86.90625 127.554934,83.875 C128.055763,83.75 127.774046,65.28125 127.774046,65.28125 C127.774046,65.28125 128.556592,64.9375 128.587894,64.34375 C128.619196,63.78125 127.586235,63.71875 127.586235,63 C127.586235,62.28125 128.650498,62.5625 128.650498,61.8125 C128.650498,61.125 127.554934,61.1875 127.617537,60.5 C127.680141,59.78125 128.556592,59.875 128.587894,59.1875 C128.619196,58.59375 128.055763,58.25 127.774046,58 L128.619196,58 L130.622512,58.03125 C132.031095,58.03125 130.622512,58.34375 130.622512,59.15625 C130.622512,59.6875 131.342454,60.0625 131.405058,60.5 C131.405058,61 130.4034,61.3125 130.372098,61.90625 C130.372098,62.40625 131.405058,62.4375 131.373756,62.9375 C131.311153,63.71875 130.434701,63.90625 130.434701,64.40625 C130.466003,64.875 131.592869,65.0625 131.592869,65.4375 L131.43636,84.4375 C129.652156,93.75 119.25995,96.09375 116.348881,83.875 Z" id="Shape" stroke="#000000" stroke-width="1" fill="#FF0000" fill-rule="evenodd" stroke-linejoin="round"></path>
                        <path d="M106.958333,92.375 L118.633914,92.375 C118.727819,92.28125 116.004561,88.3125 112.811774,88.625 C109.212065,88.71875 106.770522,92.375 106.958333,92.375 Z M144.176202,92.0625 L128.212272,92.0625 C128.212272,92.0625 130.278192,90.875 130.841625,89.75 C131.874585,90.3125 131.592869,90.875 133.658789,90.96875 C135.72471,91.0625 137.696725,88.625 139.66874,88.71875 C141.640755,88.8125 144.176202,92.15625 144.176202,92.09375 L144.176202,92.0625 Z M81.2595357,92.0625 L97.223466,92.0625 C97.223466,92.0625 95.1575456,90.875 94.5941128,89.75 C93.5611526,90.3125 93.842869,90.875 91.7769486,90.96875 C89.7110282,91.0625 87.7077114,88.625 85.7669983,88.71875 C83.7949834,88.8125 81.2595357,92.15625 81.2595357,92.09375 L81.2595357,92.0625 Z M82.449005,87.0625 L93.8115672,87.15625 C93.8115672,87.15625 93.0916252,85.59375 92.9977197,83.6875 C90.0553483,82.6875 87.6764096,85.875 85.5478856,85.96875 C83.4506633,86.0625 81.2595357,83.6875 81.2595357,83.6875 L82.449005,87.0625 Z M143.174544,87.0625 L131.78068,87.15625 C131.78068,87.15625 132.500622,85.59375 132.594527,83.6875 C135.536899,82.6875 137.915837,85.875 140.044362,85.96875 C142.141584,86.0625 144.332711,83.6875 144.332711,83.6875 L143.143242,87.0625 L143.174544,87.0625 Z M109.869403,87.1875 L115.628939,87.03125 C115.628939,87.03125 115.722844,85.28125 112.717869,85.28125 C109.712894,85.28125 109.963308,87.28125 109.869403,87.1875 Z M106.363599,84.71875 C107.462927,84.2386382 108.367452,83.4016861 108.930348,82.34375 L104.986318,82.4375 C104.986318,82.4375 103.170813,83.53125 102.26306,84.71875 L106.363599,84.71875 Z M119.134743,84.71875 C118.035414,84.2386382 117.130889,83.4016861 116.567993,82.34375 L120.512023,82.4375 C120.512023,82.4375 122.327529,83.53125 123.235282,84.71875 L119.134743,84.71875 Z" id="Shape" stroke="#083D9C" stroke-width="0.75" fill="#083D9C" fill-rule="evenodd"></path>
                        <path d="M0,112.5 L225.373134,112.5 L225.373134,150 L0,150 L0,112.5 Z M0,0 L225.373134,0 L225.373134,37.5 L0,37.5 L0,0 Z" id="Shape" stroke="none" fill="#DE2010" fill-rule="evenodd"></path>
                    </g>
                </g>
            </g>
        </g>
    </g>
</svg>