<?xml version="1.0" encoding="UTF-8"?>
<svg width="200px" height="141px" viewBox="0 0 200 141" version="1.1" xmlns="http://www.w3.org/2000/svg" xmlns:xlink="http://www.w3.org/1999/xlink">
    <!-- Generator: Sketch 52.5 (67469) - http://www.bohemiancoding.com/sketch -->
    <title>im</title>
    <desc>Created with Sketch.</desc>
    <defs>
        <polygon id="path-1" points="0.117130307 0 200 0 200 150 0.117130307 150"></polygon>
    </defs>
    <g id="Flags" stroke="none" stroke-width="1" fill="none" fill-rule="evenodd">
        <g id="Europe" transform="translate(-290.000000, -1050.000000)">
            <g id="im" transform="translate(290.000000, 1050.000000)">
                <mask id="mask-2" fill="white">
                    <use xlink:href="#path-1"></use>
                </mask>
                <g id="Path"></g>
                <g id="Group" mask="url(#mask-2)">
                    <g transform="translate(-1.000000, 0.000000)">
                        <polygon id="Path" stroke="none" fill="#BA0000" fill-rule="evenodd" points="201.322401 141 0 141 0 0 201.322401 0"></polygon>
                        <path d="M105.423133,103.546875 C105.478184,103.381641 105.588287,101.674219 105.533236,101.674219 C105.478184,101.674219 102.945827,98.6724609 103.000878,98.6724609 C103.05593,98.6724609 106.248902,99.3884766 106.248902,99.2783203 C106.248902,99.1681641 107.542606,96.1113281 107.542606,96.05625 L109.084041,99.7740234 L112.249488,101.150977 L110.047438,102.996094 L110.515373,106.576172 C110.515373,106.658789 108.313324,104.483203 108.313324,104.483203 L105.863543,104.758594 C105.863543,104.758594 105.533236,103.657031 105.423133,103.546875 Z" id="Path" stroke="#000000" stroke-width="1" fill="#FFEF00" fill-rule="evenodd"></path>
                        <path d="M88.2746706,56.9783203 C86.1551977,58.0798828 78.0901903,67.3054688 76.9891654,68.7375 C75.8649258,71.1564625 74.2962584,73.342459 72.3648609,75.1816406 C70.3554905,76.6962891 69.2544656,78.7617188 69.5297218,80.6894531 C69.5297218,83.1679688 70.8784773,84.8203125 71.9519766,86.5001953 C72.5850659,87.2988281 73.4658858,87.7945313 74.3742313,87.8771484 C76.2734993,88.0974609 76.438653,88.7033203 77.4020498,89.0337891 C81.0904832,94.1009766 86.6506589,97.8462891 90.6143485,100.792969 C92.438168,101.658175 94.11106,102.811174 95.5689605,104.207812 C96.7250366,106.466016 96.5048316,108.614062 96.3396779,109.715625 L93.3944363,120.896484 C92.8714495,123.925781 95.5414348,123.264844 95.679063,122.658984 C96.8626647,121.089258 98.6518302,122.19082 101.184187,113.213086 L104.707467,108.503906 C104.707467,108.503906 106.056223,107.953125 106.056223,107.81543 C108.120644,105.336914 106.551684,103.959961 105.368082,103.491797 L102.835725,102.555469 C102.835725,102.555469 99.8629575,99.58125 99.7253294,99.58125 C98.3215227,95.4779297 91.3850659,86.7480469 89.7885798,85.5363281 C88.6875549,84.3521484 88.1370425,83.8839844 87.0910688,83.2230469 C85.4670571,82.4519531 84.9440703,82.1765625 83.9531479,81.7910156 C83.1273792,81.4605469 83.7054173,80.5517578 84.2284041,80.1386719 C89.7335286,77.1369141 94.0550512,73.8322266 99.3124451,70.4724609 L100.138214,69.9216797 L98.2389458,59.1263672 L89.485798,56.0419922 C89.0178624,56.3449219 88.6600293,56.6753906 88.2746706,56.9783203 Z" id="Path" stroke="#000000" stroke-width="1.22" fill="#FFFFFF" fill-rule="evenodd"></path>
                        <path d="M95.5964861,113.763867 C95.5964861,113.653711 101.101611,112.662305 101.101611,112.662305 L100.41347,114.700195 L94.9909224,116.352539 L95.5964861,113.791406 L95.5964861,113.763867 Z" id="Path" stroke="none" fill="#FFEC00" fill-rule="evenodd"></path>
                        <path d="M81.3657394,93.2197266 C82.5007632,90.6155415 84.6478003,88.5867941 87.3112738,87.6017578" id="Path" stroke="#000000" stroke-width="1" fill="none"></path>
                        <path d="M95.4038067,113.818945 C95.7616398,113.736328 97.3306003,113.268164 97.7710102,113.185547 C98.2664714,113.075391 98.734407,112.965234 99.2023426,112.8 C99.7528551,112.689844 100.083163,112.579687 100.633675,112.49707 C101.083366,112.33811 101.543145,112.209309 102.009956,112.111523 M94.4128843,117.20625 C94.6213903,116.997973 94.8521576,116.813269 95.1010249,116.655469 C95.4038067,116.545312 96.477306,116.104687 96.8901903,116.02207 C97.3270384,115.913222 97.7587182,115.784574 98.1838946,115.636523 L99.4500732,115.306055 C99.8629575,115.14082 100.248316,115.030664 100.661201,114.920508" id="Shape" stroke="#000000" stroke-width="1.13" fill="none"></path>
                        <path d="M96.6149341,94.0183594 L96.5598829,94.0183594 C96.7800878,94.0183594 96.6424597,94.0183594 96.3121523,94.4039062 C96.2020498,94.7068359 95.2111274,95.4228516 94.44041,95.4228516 C94.0106118,95.4695555 93.578951,95.4971218 93.1467057,95.5054688 L92.7888726,95.4228516 M96.5598829,110.15625 L96.9452416,110.15625 C97.3581259,110.15625 97.7710102,110.238867 98.1013177,110.238867 C98.514202,110.238867 98.8995608,110.349023 99.2849195,110.349023 C99.6978038,110.404102 100.165739,110.376563 100.578624,110.45918 C101.019034,110.45918 101.404392,110.541797 101.872328,110.541797 C102.257687,110.569336 102.477892,110.624414 102.890776,110.624414 L101.872328,110.541797 C102.257687,110.569336 102.477892,110.624414 102.890776,110.624414 M93.8898975,119.712305 C94.0796327,119.505557 94.2919958,119.320804 94.5229868,119.161523 C94.798243,119.078906 95.7891654,118.610742 96.1745242,118.555664 C96.5662384,118.436468 96.9520369,118.298615 97.3306003,118.142578 L98.514202,117.867188 C98.8720351,117.674414 99.2298682,117.564258 99.6152269,117.454102 M101.211713,106.108008 C100.991508,106.741406 101.29429,106.906641 101.404392,107.182031 C101.828994,107.63551 102.372782,107.960033 102.973353,108.118359 C103.30366,108.200977 103.523865,108.283594 103.909224,108.448828 C104.156955,108.448828 104.267057,108.531445 104.459736,108.586523 M70.2178624,82.4794922 L70.3004392,82.4794922 C70.0527086,82.4794922 70.2178624,82.5070312 70.6032211,82.2041016 C70.8784773,81.9011719 71.0711567,81.7634766 71.3188873,81.4605469 M75.2825769,88.0699219 C75.3376281,88.0699219 79.8518302,85.8117188 80.3197657,85.3160156 L81.3382138,84.5173828 C81.61347,84.3796875 81.8061493,84.2144531 82.0538799,84.0492188 C82.2465593,83.7738281 82.5218155,83.5810547 82.6869693,83.3056641 C82.9622255,83.0578125 82.8245974,82.8099609 83.072328,82.5070313 L83.4301611,81.4605469 M89.1554905,84.8203125 C89.1830161,84.9855469 89.1004392,85.48125 89.1004392,85.8667969 C89.1004392,86.3074219 88.5224012,87.6568359 87.8342606,88.0699219" id="Shape" stroke="#000000" stroke-width="1" fill="none"></path>
                        <path d="M81.0904832,84.7652344 L82.9346999,85.3435547 C84.310981,85.8392578 87.1736457,87.6568359 87.4764275,87.9046875 C87.7516837,88.125 88.3021962,88.3453125 88.4673499,88.5931641 C88.7976574,88.8685547 89.0178624,89.1714844 89.265593,89.4744141 C89.5408492,89.8048828 89.8161054,90.1078125 89.9537335,90.4107422 C91.45683,92.4988417 92.6957321,94.7651045 93.6421669,97.1578125 C93.8348463,97.3505859 93.9174231,97.6259766 94.1101025,97.9289063 C94.2752562,98.3144531 94.4679356,98.4796875 94.6606149,98.7826172 C94.9358712,98.9753906 95.2661786,99.3333984 95.5964861,99.4986328 C95.9543192,99.8015625 96.2846266,99.9117188 96.5598829,100.132031 C96.917716,100.297266 101.046559,102.885938 101.239239,103.023633 C101.624597,103.326563 102.753148,104.510742 101.954905,105.391992 C101.624597,105.667383 101.29429,106.080469 101.019034,106.218164 C100.716252,106.548633 100.303367,106.686328 99.9455344,106.824023 C98.1013177,107.374805 97.1379209,107.182031 96.7800878,107.182031 L96.3947291,107.182031 M71.9519766,75.5396484 C72.502489,75.7599609 72.282284,75.5947266 72.7502196,75.8150391 C73.0805271,75.9527344 73.3007321,75.9527344 73.5759883,76.0904297 C73.9338214,76.1730469 74.8696925,76.3658203 75.3101025,76.8064453 C75.64041,77.0818359 75.8606149,77.3572266 76.2459736,77.55 C76.6402302,77.8199562 77.0652996,78.0418398 77.5121523,78.2109375 C77.9525622,78.3761719 78.4480234,78.5689453 78.8884334,78.5689453 L81.0354319,78.5689453 L79.934407,78.5689453 L81.0354319,78.5689453" id="Shape" stroke="#000000" stroke-width="1" fill="none"></path>
                        <path d="M71.8418741,80.7720703 C72.9979502,80.6894531 74.9522694,81.0474609 75.0073206,81.0474609 L77.5947291,80.9923828 C78.9710102,80.8822266 79.2462665,80.3589844 79.4664714,79.9734375 C79.9894583,79.2023437 80.3197657,78.9269531 80.7326501,78.3210938 C81.3382138,77.8804688 82.2190337,78.9544922 82.2465593,78.9544922 C84.4486091,81.0474609 82.6869693,83.5810547 82.5768668,83.6636719 C81.4758419,84.6826172 81.2281113,84.7376953 80.5674963,84.1042969 C79.9068814,83.3056641 79.714202,82.9476563 79.1636896,82.6722656 C78.0901903,82.1765625 75.9156662,82.5621094 75.8606149,82.5621094 L74.7320644,83.0027344 C74.181552,83.1955078 73.8512445,83.6636719 72.942899,83.8289063 C71.9795022,83.8839844 71.6767204,83.8013672 71.2087848,83.0302734 C70.5756955,82.0664063 70.8784773,80.8822266 71.8418741,80.7720703 Z" id="Path" stroke="#000000" stroke-width="1" fill="#FFE606" fill-rule="evenodd"></path>
                        <path d="M133.16896,33.2396484 C133.003807,33.2396484 131.434846,34.0107422 131.462372,34.0658203 C131.489898,34.0933594 130.141142,37.7835937 130.113616,37.7560547 C130.086091,37.7009766 129.15022,34.5339844 129.040117,34.5890625 C128.95754,34.6441406 125.654466,35.0296875 125.62694,35.0572266 L128.104246,31.8902344 L127.746413,28.4478516 L130.443924,29.4943359 L133.334114,27.2912109 C133.389165,27.2636719 132.590922,30.2654297 132.590922,30.2654297 L134.022255,32.2482422 C134.022255,32.2482422 133.196486,33.0744141 133.16896,33.2396484 Z" id="Path" stroke="#000000" stroke-width="1" fill="#FFEF00" fill-rule="evenodd"></path>
                        <path d="M101.019034,71.0232422 C102.973353,72.3175781 114.974524,74.8511719 116.791215,75.0990234 C119.447361,74.8951884 122.118107,75.194159 124.663543,75.9802734 C126.94817,76.9716797 129.287848,76.9166016 130.856808,75.7048828 C133.003807,74.5482422 133.774524,72.5654297 134.710395,70.7478516 C135.110907,69.8736115 135.110907,68.8681854 134.710395,67.9939453 C133.994729,66.2314453 134.435139,65.7908203 134.269985,64.7994141 C136.857394,59.0712891 137.407906,52.4068359 138.01347,47.4773437 C137.958419,44.5857422 138.261201,42.3826172 138.563982,41.5013672 C139.632761,39.9368125 141.177166,38.7586286 142.968082,38.1416016 L154.17101,35.2224609 C157.088726,34.1759766 155.189458,32.1931641 154.583895,32.3583984 C152.657101,32.0830078 152.712152,29.9900391 143.656223,32.165625 L137.820791,31.4220703 C137.820791,31.4220703 136.719766,30.5132812 136.582138,30.5958984 C133.416691,30.0175781 132.976281,32.0554687 133.141435,33.2947266 L133.581845,35.9935547 C133.581845,35.9935547 132.453294,40.0142578 132.508346,40.1244141 C129.618155,43.3740234 125.351684,53.7837891 125.076428,55.7941406 C124.938799,57.6667969 124.250659,57.3087891 124.415813,59.1539062 C124.415813,60.5859375 124.250659,59.7046875 124.718594,62.6238281 C124.856223,63.5050781 123.755198,63.45 123.149634,63.1746094 C117.864714,59.8699219 112.855051,57.6943359 107.322401,54.7751953 L106.469107,54.3345703 L97.9912152,61.2744141 L99.5877013,70.4173828 C100.083163,70.6927734 100.523572,70.8304687 100.991508,71.0232422 L101.019034,71.0232422 Z" id="Path" stroke="#000000" stroke-width="1.22" fill="#FFFFFF" fill-rule="evenodd"></path>
                        <path d="M146.904246,36.7921875 C145.645825,35.4119061 144.425074,33.9977137 143.243338,32.5511719 L145.335286,32.1380859 L149.409078,36.0761719 L146.904246,36.7921875 Z" id="Path" stroke="none" fill="#FFEC00" fill-rule="evenodd"></path>
                        <path d="M135.976574,59.2640625 C133.14966,59.5552488 130.326361,58.6799967 128.159297,56.840625" id="Path" stroke="#000000" stroke-width="1" fill="none"></path>
                        <path d="M147.041874,36.9298828 C146.766618,36.6820312 145.610542,35.5529297 145.335286,35.1673828 C145.000864,34.8045966 144.651921,34.4554835 144.289312,34.1208984 C143.931479,33.7078125 143.656223,33.4599609 143.298389,33.0193359 C142.945781,32.7119586 142.614694,32.3807101 142.307467,32.0279297 M150.455051,36.1587891 C150.372474,36.1587891 149.904539,35.9660156 149.629283,35.8283203 C149.409078,35.5804687 148.473206,34.8919922 148.225476,34.5615234 C147.918556,34.2351024 147.597098,33.9226765 147.262079,33.6251953 C146.931772,33.2671875 146.684041,33.0744141 146.353734,32.6613281 C146.02159,32.40971 145.708757,32.1335463 145.417862,31.8351562" id="Shape" stroke="#000000" stroke-width="1.13" fill="none"></path>
                        <path d="M129.177745,45.5771484 L129.205271,45.6597656 C129.095168,45.4394531 129.15022,45.5771484 129.673206,45.6597656 C130.003514,45.6046875 131.104539,46.1279297 131.462372,46.7888672 C131.682577,47.0917969 132.012884,47.5599609 132.178038,47.8904297 C132.233089,47.9730469 132.233089,48.1658203 132.288141,48.2484375 M143.298389,37.7285156 L143.243338,37.6734375 L143.078184,37.3980469 L142.582723,36.3240234 C142.390044,35.9935547 142.307467,35.5804688 142.114788,35.25 C141.949634,34.8644531 141.701903,34.4789063 141.564275,34.0933594 C141.34407,33.6802734 141.233968,33.3222656 141.013763,32.8816406 C140.821083,32.5511719 140.793558,32.3308594 140.573353,31.9728516 L141.013763,32.8816406 C140.821083,32.5511719 140.793558,32.3308594 140.573353,31.9728516 M152.904832,35.3601563 C152.637509,35.3006795 152.378616,35.2081727 152.134114,35.0847656 C151.913909,34.8919922 151.033089,34.2585938 150.757833,33.9832031 C150.468289,33.6935871 150.165166,33.4178862 149.849488,33.1570313 C149.574231,32.7990234 149.326501,32.60625 149.023719,32.2482422 C148.710756,32.0242964 148.41621,31.7756511 148.142899,31.5046875 M137.435432,35.6355469 C138.123572,35.5253906 138.123572,35.1949219 138.288726,34.9470703 C138.426354,34.6716797 138.536457,33.9832031 138.343777,33.1294922 L138.178624,32.165625 C138.068521,31.9177734 138.068521,31.7800781 138.040996,31.6148438 M132.067936,74.2453125 L132.04041,74.1902344 C132.150512,74.4105469 132.095461,74.2728516 131.6,74.0525391 L130.636603,73.7771484 M134.462665,67.0851562 C134.435139,67.0300781 130.251245,64.2210937 129.59063,64.0558594 C129.205271,63.8630859 128.847438,63.7804687 128.407028,63.5601562 L127.63631,63.1746094 C127.278477,63.1195312 126.975695,62.9818359 126.672914,62.9818359 C126.342606,62.8716797 126.149927,63.0919922 125.792094,63.0369141 L124.691069,63.2296875 M124.828697,56.5927734 C124.938799,56.4826172 125.434261,56.3173828 125.764568,56.1246094 C126.149927,55.9318359 127.608785,55.7666016 128.296925,56.1521484" id="Shape" stroke="#000000" stroke-width="1" fill="none"></path>
                        <path d="M128.737335,63.6703125 L128.324451,61.7425781 C128.161947,60.0206261 128.161947,58.2871864 128.324451,56.5652344 C128.379502,56.2072266 128.324451,55.6289062 128.462079,55.3259766 C128.544656,54.9404297 128.682284,54.5824219 128.819912,54.2244141 C128.985066,53.8113281 129.122694,53.4533203 129.287848,53.1503906 C129.480527,52.0488281 132.590922,47.6150391 132.811127,47.3947266 C132.984879,47.1397938 133.168523,46.8917529 133.36164,46.6511719 C133.444217,46.3757812 133.636896,46.1554687 133.80205,45.825 C134.077306,45.5220703 134.132357,45.2742187 134.297511,44.94375 C134.325037,44.6408203 134.462665,44.1451172 134.462665,43.7871094 C134.545242,43.3189453 134.462665,42.9609375 134.545242,42.6580078 C134.49019,42.2449219 134.737921,37.3705078 134.765447,37.1501953 C134.848023,36.6544922 135.315959,35.0847656 136.472035,35.3601563 C136.884919,35.4978516 137.380381,35.5804688 137.683163,35.7732422 C138.068521,35.8833984 138.398829,36.1863281 138.701611,36.4066406 C140.077892,37.7560547 140.380673,38.6648438 140.573353,38.9953125 L140.766032,39.3257813 M125.131479,76.0078125 L125.103953,75.9527344 C125.214056,76.1455078 125.159004,76.0353516 125.021376,75.6498047 C124.993851,75.2917969 124.883748,74.8236328 124.828697,74.4931641 C124.74612,74.1351562 124.580966,73.7496094 124.636018,73.5292969 C124.498389,73.1712891 124.580966,72.8958984 124.636018,72.5378906 C124.718594,72.0972656 124.773646,71.7943359 124.773646,71.38125 C124.828697,70.8304687 124.773646,70.5 124.801171,70.0042969 C124.663543,69.5912109 124.636018,69.2607422 124.443338,68.8476562 L123.892826,67.7460937 L123.342313,66.7822266 L123.892826,67.7185547 L123.342313,66.7822266" id="Shape" stroke="#000000" stroke-width="1" fill="none"></path>
                        <path d="M129.783309,73.6945312 C129.15022,72.703125 128.489605,70.8304688 128.462079,70.8029297 L127.168375,68.5447266 C126.397657,67.4431641 125.792094,67.4431641 125.351684,67.4431641 C124.415813,67.3605469 124.002928,67.1677734 123.314788,67.1402344 C122.599122,66.8097656 123.122108,65.5154297 123.094583,65.4878906 C123.837775,62.56875 126.94817,62.8441406 127.058272,62.8992188 C128.462079,63.3673828 128.627233,63.5601563 128.407028,64.4414063 C128.049195,65.4052734 127.856515,65.7632813 127.856515,66.3691406 C127.939092,67.5257813 129.370425,69.2607422 129.370425,69.2882812 L130.306296,70.059375 C130.746706,70.4449219 131.324744,70.5 131.902782,71.2435547 C132.425769,72.0421875 132.508346,72.3451172 132.067936,73.1162109 C131.517423,74.1626953 130.361347,74.465625 129.783309,73.6945313 Z" id="Path" stroke="#000000" stroke-width="1" fill="#FFE606" fill-rule="evenodd"></path>
                        <path d="M57.0330893,46.4583984 C57.1707174,46.5685547 58.6295754,47.4773437 58.6846266,47.4222656 C58.7396779,47.3671875 62.5382138,46.4859375 62.4831625,46.5410156 C62.4281113,46.5960938 60.336164,49.1021484 60.4462665,49.1572266 C60.556369,49.2123047 62.6483163,51.7458984 62.7033675,51.7734375 L58.7121523,51.4429687 L56.0146413,53.5910156 L55.4090776,50.7820313 L52.0234261,49.5703125 C51.9683748,49.5427734 54.9136164,48.5789063 54.9136164,48.5789063 L55.7944363,46.2931641 C55.7944363,46.2931641 56.9229868,46.4859375 57.0881406,46.4583984 L57.0330893,46.4583984 Z" id="Path" stroke="#000000" stroke-width="1" fill="#FFEF00" fill-rule="evenodd"></path>
                        <path d="M106.248902,52.6822266 C106.248902,50.2863281 101.789751,38.8576172 101.019034,37.2328125 C99.39307,35.1190927 98.1791726,32.7181393 97.4407028,30.1552734 C97.0278184,27.6767578 95.7065886,25.7490234 93.8623719,25.0880859 C91.6878477,23.9589844 89.5959004,24.3996094 87.58653,24.5923828 C86.5956076,24.7851563 85.7423133,25.3359375 85.2743777,26.1070313 C84.1733529,27.6767578 83.5953148,27.5390625 82.8245974,28.2275391 C76.6313324,29.1914063 70.7683748,32.3859375 66.309224,34.5615234 C64.7011624,35.7779724 62.9072371,36.7265202 60.9967789,37.3705078 C59.1035413,37.3427859 57.2696262,36.7054307 55.7669107,35.5529297 L47.2064422,27.759375 C44.7291362,25.9142578 44.1235725,28.5855469 44.5915081,28.9986328 C45.4172767,30.7611328 43.6281113,31.8351562 50.42694,38.2517578 L52.9868228,43.5392578 C52.9868228,43.5392578 52.8491947,44.9712891 52.9868228,45.0263672 C54.1979502,48.0005859 56.179795,47.2570312 57.1156662,46.4308594 L59.1250366,44.5857422 C59.1250366,44.5857422 63.1162518,43.3189453 63.1713031,43.2087891 C67.4653001,43.8421875 78.5306003,41.7492187 80.3472914,40.8679687 C81.9988287,39.9591797 82.0814056,40.7302734 83.5127379,39.5736328 C84.6963397,38.775 84.0632504,39.4083984 86.2653001,37.3980469 C86.9259151,36.8472656 87.4489019,37.7560547 87.58653,38.4169922 C87.6966325,44.6683594 88.6325037,50.0384766 89.2105417,56.2623047 L89.3206442,57.2261719 L99.7803807,60.5308594 L106.551684,54.196875 L106.276428,52.6546875 L106.248902,52.6822266 Z" id="Path" stroke="#000000" stroke-width="1.22" fill="#FFFFFF" fill-rule="evenodd"></path>
                        <path d="M52.4913616,32.9917969 C52.5739385,33.0744141 50.9499268,38.3894531 50.9499268,38.3894531 L49.4635432,36.8748047 L50.5095168,31.284375 L52.4913616,32.9917969 Z" id="Path" stroke="none" fill="#FFEC00" fill-rule="evenodd"></path>
                        <path d="M77.2919473,29.8523438 C79.2737921,32.0554688 79.9068814,35.690625 79.5490483,37.7285156" id="Path" stroke="#000000" stroke-width="1" fill="none"></path>
                        <path d="M52.5739385,32.7990234 C52.4913616,33.1570312 52.1610542,34.7818359 52.0234261,35.1949219 C51.8935814,35.6767615 51.7833877,36.1636877 51.6931186,36.6544922 L51.3077599,38.0865234 C51.2527086,38.5546875 51.1701318,38.9953125 51.0325037,39.4634766 M50.0140556,30.3755859 C50.0415813,30.4582031 50.1516837,30.9263672 50.1792094,31.2292969 C50.1241581,31.5597656 50.0415813,32.7164062 49.9039531,33.1294922 C49.8016395,33.5661848 49.7189794,34.0072541 49.6562225,34.4513672 L49.3809663,35.7181641 C49.3399184,36.1454243 49.2663025,36.5689224 49.1607613,36.9849609" id="Shape" stroke="#000000" stroke-width="1.13" fill="none"></path>
                        <path d="M69.5572474,43.0435547 L69.5847731,42.9609375 C69.4746706,43.18125 69.5847731,43.0435547 69.3645681,42.5753906 C69.1168375,42.3 68.9792094,41.1158203 69.3095168,40.4273437 C69.4759184,40.0248819 69.6595933,39.6297882 69.8600293,39.2431641 C69.8875549,39.1605469 70.025183,39.0503906 70.0802343,38.9677734 M55.2714495,35.5253906 L55.2439239,35.5804687 L55.0787701,35.8558594 C54.9136164,36.2414062 54.6383602,36.571875 54.4732064,36.8748047 C54.3080527,37.2328125 54.0052709,37.5082031 53.8401171,37.8662109 L53.1795022,38.9677734 C52.9317716,39.3533203 52.684041,39.65625 52.463836,40.0693359 L51.9133236,40.9505859 L52.463836,40.0693359 L51.9133236,40.9505859 M48.0046852,28.7507812 C48.0597365,28.8058594 48.1973646,29.2740234 48.2248902,29.5769531 C48.1698389,29.8523437 48.1147877,30.9539062 48.0046852,31.3119141 L47.8120059,32.5236328 C47.7019034,32.9642578 47.6743777,33.2671875 47.5367496,33.7078125 C47.522105,34.0964402 47.4760791,34.4832472 47.3991215,34.8644531 M56.7027818,41.5839844 C56.2348463,41.0607422 55.95959,41.2535156 55.6568082,41.2259766 C55.0530832,41.3919971 54.5089559,41.7262735 54.0878477,42.1898437 C53.8676428,42.4376953 53.6749634,42.6304687 53.3721816,42.8783203 C53.2345534,43.0986328 53.124451,43.1537109 52.9868228,43.2914062 M91.9355783,24.8953125 L91.9080527,24.9779297 C92.0181552,24.7576172 91.9355783,24.8677734 92.0456808,25.3910156 C92.1833089,25.7490234 92.1833089,25.996875 92.320937,26.3273438 M84.6412884,26.8230469 C84.6412884,26.878125 84.5587116,31.9177734 84.7789165,32.5787109 C84.8339678,32.9917969 84.9440703,33.3222656 84.9991215,33.8455078 C84.9991215,34.1208984 85.0816984,34.3962891 85.109224,34.6716797 C85.2743777,35.0021484 85.3019034,35.3326172 85.4945827,35.5804688 C85.5771596,35.9384766 85.8524158,35.9660156 86.0175695,36.2689453 C86.2102489,36.5167969 86.568082,36.9298828 86.788287,37.0951172 M81.1455344,40.6476563 C80.9803807,40.5925781 80.595022,40.2621094 80.2647145,40.096875 C79.8793558,39.8765625 78.915959,38.7474609 78.8884334,37.9488281" id="Shape" stroke="#000000" stroke-width="1" fill="none"></path>
                        <path d="M84.9165447,33.4875 L83.5402635,34.8644531 C82.1889697,35.9529948 80.7320014,36.9032543 79.1912152,37.7009766 C78.8609078,37.8662109 78.4480234,38.2517578 78.0901903,38.2792969 C77.7323572,38.4445312 77.3469985,38.4996094 76.9891654,38.5822266 C74.3840475,39.0545577 71.7294503,39.1933674 69.0893119,38.9953125 C68.7767524,38.9892684 68.4645528,38.9708947 68.1534407,38.9402344 C67.8781845,38.9953125 67.6029283,38.9677734 67.2450952,38.9953125 C66.8046852,38.9677734 66.5844802,39.0503906 66.2266471,39.0779297 C65.9513909,39.2431641 65.4834553,39.3808594 65.1531479,39.6011719 C64.7402635,39.7664063 64.4650073,40.0142578 64.1622255,40.1519531 C63.8869693,40.3998047 59.6480234,42.8507813 59.4278184,42.9609375 C58.9874085,43.1537109 57.418448,43.6494141 57.0055637,42.5203125 C56.8954612,42.0796875 56.7303075,41.6115234 56.7027818,41.2810547 C56.5651537,40.8955078 56.6477306,40.4548828 56.6477306,40.0693359 C57.0330893,38.1691406 57.638653,37.4255859 57.8038067,37.0951172 L57.9964861,36.7646484 M97.1654466,29.7421875 L97.1379209,29.8248047 C97.2204978,29.6320312 97.1929722,29.7146484 96.917716,30.0451172 C96.6424597,30.2654297 96.3121523,30.5958984 96.0644217,30.8712891 C95.7891654,31.0916016 95.5689605,31.4220703 95.3487555,31.5322266 C95.1285505,31.8076172 94.8532943,31.9177734 94.5229868,32.0830078 C94.1567493,32.2197719 93.8061136,32.3951754 93.4770132,32.60625 C93.0090776,32.8265625 92.7338214,33.0744141 92.320937,33.3222656 C92.0456808,33.6527344 91.7704246,33.8730469 91.5502196,34.2585938 C91.3300146,34.6166016 91.1098097,34.9195313 90.9171303,35.3326172 L90.4216691,36.2964844 L90.9171303,35.3326172 L90.4216691,36.2964844 M93.6421669,56.4275391 L93.7247438,56.2898438 C93.5871157,56.5652344 93.6146413,56.4826172 93.7522694,56.0419922 C93.7522694,55.5462891 93.8898975,54.9128906 93.8898975,54.4447266 C93.9724744,53.9490234 94.0550512,53.4257812 94.0550512,52.9300781 C94.0275256,52.3792969 94.0275256,51.8285156 93.9449488,51.2777344 C93.9449488,50.7820312 93.8623719,50.2587891 93.8623719,49.7355469 C93.8623719,49.2398437 93.8073206,48.8267578 93.6972182,48.3585937 C93.6965929,47.9157027 93.6597694,47.4736045 93.5871157,47.0367187 C93.6146413,46.70625 93.5320644,46.3757812 93.4494876,46.1003906 L93.1191801,44.6958984 L92.8439239,43.5667969 C92.7888726,43.1261719 92.5686676,42.5753906 92.4585652,42.2173828 C92.3169141,41.9199559 92.2151082,41.6051295 92.1557833,41.2810547 C92.0181552,40.978125 91.8254758,40.6201172 91.7979502,40.2896484 L91.3575403,39.2707031 L90.9721816,38.2792969 C90.8345534,37.89375 90.6693997,37.5632812 90.5592972,37.1777344 C90.4216691,37.0400391 90.3941435,36.9023438 90.3390922,36.7921875" id="Shape" stroke="#000000" stroke-width="1" fill="none"></path>
                        <path d="M92.7338214,27.1259766 C92.2533548,28.0699358 91.6817717,28.9646234 91.0272328,29.7972656 L89.8711567,32.1105469 C89.3756955,33.3773438 89.6784773,33.9005859 89.8986823,34.2585938 C90.3666179,35.0847656 90.4491947,35.5253906 90.7795022,36.13125 C90.9171303,36.9023438 89.5408492,37.1777344 89.5408492,37.2052734 C86.6781845,38.1966797 85.2193265,35.4427734 85.2193265,35.3050781 C84.8339678,33.8730469 84.889019,33.6527344 85.7698389,33.3498047 C86.7607613,33.1019531 87.1461201,33.0744141 87.6415813,32.7439453 C88.604978,32.0279297 89.265593,29.9074219 89.2931186,29.8798828 L89.4032211,28.6681641 C89.485798,28.1173828 89.2380673,27.5666016 89.5133236,26.6853516 C89.8986823,25.8041016 90.1188873,25.5837891 90.9997072,25.5011719 C92.1557833,25.4185547 93.0641288,26.2171875 92.7338214,27.1259766 Z" id="Path" stroke="#000000" stroke-width="1" fill="#FFE606" fill-rule="evenodd"></path>
                        <path d="M88.9903367,54.9955078 C88.5499268,54.5824219 97.0828697,58.0798828 98.2664714,58.1074219 C99.8629575,57.5291016 106.496633,51.9386719 106.496633,51.9386719 C106.551684,52.4894531 106.799414,53.8939453 107.432504,54.196875 C104.872621,56.2623047 102.560469,58.2726562 100.000586,60.3380859 C100.165739,63.6427734 99.5877013,67.1402344 101.239239,70.8029297 C101.239239,70.8029297 99.2573939,70.8580078 99.2573939,70.8029297 C97.495754,69.0404297 96.8626647,60.5583984 96.8626647,60.5583984 L88.4398243,56.8130859 C88.8527086,56.5376953 89.1554905,55.7390625 88.9903367,54.9679688 L88.9903367,54.9955078 Z" id="Path" stroke="#000000" stroke-width="1" fill="#FFEF00" fill-rule="evenodd"></path>
                        <path d="M97.1103953,63.6978516 C97.2480234,63.5876953 95.5689605,64.4689453 95.1285505,64.6892578 C87.3938507,68.8201172 83.4026354,74.8787109 83.1549048,75.0990234 L82.5493411,76.0353516 L81.9162518,76.8615234 C81.6072189,77.3088633 81.2765169,77.7408239 80.9253294,78.1558594 C80.8702782,78.3210937 81.0354319,78.0732422 80.9803807,78.2109375 M102.42284,58.7683594 C102.996937,59.2298377 103.594095,59.6618397 104.212006,60.0626953 C111.423719,65.0748047 118.607906,65.8734375 118.938214,65.9835937 C119.21347,65.9835937 119.626354,66.0662109 120.039239,66.1212891 C120.369546,66.1212891 120.754905,66.2314453 121.085212,66.2589844 C121.470571,66.3140625 122.29634,66.4792969 122.681698,66.5894531 C122.846852,66.534375 122.54407,66.5068359 122.681698,66.4792969" id="Shape" stroke="#000000" stroke-width="1" fill="none"></path>
                    </g>
                </g>
            </g>
        </g>
    </g>
</svg>