<?xml version="1.0" encoding="UTF-8"?>
<svg width="200px" height="141px" viewBox="0 0 200 141" version="1.1" xmlns="http://www.w3.org/2000/svg" xmlns:xlink="http://www.w3.org/1999/xlink">
    <!-- Generator: Sketch 52.5 (67469) - http://www.bohemiancoding.com/sketch -->
    <title>il</title>
    <desc>Created with Sketch.</desc>
    <defs>
        <polygon id="path-1" points="0.117130307 0 200 0 200 141 0.117130307 141"></polygon>
    </defs>
    <g id="Flags" stroke="none" stroke-width="1" fill="none" fill-rule="evenodd">
        <g id="Asia" transform="translate(-510.000000, -450.000000)">
            <g id="il" transform="translate(510.000000, 450.000000)">
                <mask id="mask-2" fill="white">
                    <use xlink:href="#path-1"></use>
                </mask>
                <g id="Path"></g>
                <g id="Group" mask="url(#mask-2)">
                    <g transform="translate(-1.000000, 0.000000)">
                        <polygon id="Path" fill="#FFFFFF" fill-rule="evenodd" points="201.322401 141 0 141 0 0 201.322401 0"></polygon>
                        <path d="M201.322401,31.725 L0,31.725 L0,13.21875 L201.322401,13.21875 L201.322401,31.725 Z M201.322401,128.249414 L0,128.249414 L0,109.743164 L201.322401,109.743164 L201.322401,128.249414 Z M68.3736457,52.5169922 L98.6793558,105.281836 L129.645681,52.7648438 L68.3736457,52.5445312 L68.3736457,52.5169922 Z" id="Shape" fill="#0000CC" fill-rule="nonzero"></path>
                        <polygon id="Path" fill="#FFFFFF" fill-rule="evenodd" points="92.981552 87.5191406 98.734407 97.2955078 104.62489 87.5742187 92.9540264 87.5191406"></polygon>
                        <polygon id="Path" fill="#0000CC" fill-rule="evenodd" points="68.2635432 88.2902344 98.5967789 35.5253906 129.535578 88.0699219"></polygon>
                        <path d="M92.981552,52.7648437 L98.734407,42.9884766 L104.62489,52.7373047 L92.9540264,52.7648437 L92.981552,52.7648437 Z M80.9253294,74.6583984 L74.9522694,84.5724609 L86.2377745,84.5449219 L80.9253294,74.6308594 L80.9253294,74.6583984 Z M75.0623719,56.3449219 L86.4029283,56.4275391 L80.9528551,66.4242187 L75.0623719,56.3449219 Z M116.681113,74.7960937 L122.433968,84.5724609 L110.955783,84.4347656 L116.681113,74.7960937 Z M122.323865,56.3449219 L110.983309,56.4275391 L116.433382,66.4242187 L122.323865,56.3449219 Z M90.8620791,56.3449219 L83.0448023,70.5 L90.9721816,84.3521484 L105.50571,84.6826172 L114.313909,70.5 L106.166325,56.1796875 L90.8620791,56.3173828 L90.8620791,56.3449219 Z" id="Shape" fill="#FFFFFF" fill-rule="nonzero"></path>
                    </g>
                </g>
            </g>
        </g>
    </g>
</svg>