<?xml version="1.0" encoding="UTF-8"?>
<svg width="195px" height="113px" viewBox="0 0 195 113" version="1.1" xmlns="http://www.w3.org/2000/svg" xmlns:xlink="http://www.w3.org/1999/xlink">
    <!-- Generator: Sketch 52.5 (67469) - http://www.bohemiancoding.com/sketch -->
    <title>je</title>
    <desc>Created with Sketch.</desc>
    <defs>
        <polygon id="path-1" points="0.414634146 0 195.536585 0 195.536585 113 0.414634146 113"></polygon>
    </defs>
    <g id="Flags" stroke="none" stroke-width="1" fill="none" fill-rule="evenodd">
        <g id="Europe" transform="translate(-954.000000, -1050.000000)">
            <g id="je" transform="translate(953.000000, 1050.000000)">
                <mask id="mask-2" fill="white">
                    <use xlink:href="#path-1"></use>
                </mask>
                <g id="Path"></g>
                <g id="Group" mask="url(#mask-2)">
                    <g transform="translate(1.000000, 0.000000)">
                        <polygon id="Path" fill="#FFFFFF" points="0.5 0 195.5 0 195.5 113 0.5 113"></polygon>
                        <polygon id="Path" fill="#DF112D" points="0 0 0 7.53333333 85.239521 56.5 0.389221557 105.466667 0.389221557 113 12.8443114 113 97.6946108 64.0333333 182.155689 113 194.610778 113 194.610778 105.466667 110.149701 56.5 195 7.53333333 195 0 182.155689 0 97.3053892 48.9666667 12.8443114 0 0.389221557 0"></polygon>
                        <g id="Group" stroke-width="1" fill="none" transform="translate(82.000000, 2.000000)">
                            <path d="M24.8459459,14.8210526 C27.2756757,24.7017544 25.9432432,36.8982456 14.7351351,43.6912281 C3.60540541,36.8982456 2.19459459,24.7017544 4.7027027,14.8210526 C7.36756757,12.5052632 19.2810811,11.0385965 24.8459459,14.8210526 Z" id="Path" stroke="#000000" stroke-width="0.25" fill="#E8112D"></path>
                            <path d="M14.7351351,12.8912281 C18.2852231,12.8008719 21.7976574,13.6257848 24.9243243,15.2842105 C25.4393886,11.9162262 26.7553318,8.71579884 28.7648649,5.94385965 C26.8054054,5.94385965 25.9432432,6.94736842 25.9432432,7.95087719 C25.472973,6.63859649 23.5918919,6.71578947 22.9648649,7.41052632 C25.0810811,8.8 23.4351351,11.2701754 21.5540541,10.8070175 C20.6918919,10.5754386 20.2216216,9.95789474 19.9864865,9.03157895 C20.5013018,8.93221873 20.8553738,8.46411282 20.8046937,7.94985632 C20.7540136,7.43559983 20.3151478,7.04329222 19.7905405,7.04329222 C19.2659333,7.04329222 18.8270674,7.43559983 18.7763874,7.94985632 C18.7257073,8.46411282 19.0797793,8.93221873 19.5945946,9.03157895 C19.0841997,9.84142099 18.1091029,10.2441481 17.1648649,10.0350877 C16.1459459,9.80350877 15.6756757,8.87719298 15.6756757,8.10526316 C15.6756757,6.02105263 17.7135135,5.7122807 18.3405405,6.09824561 C18.3405405,4.70877193 16.0675676,3.55087719 15.3621622,4.70877193 C16.2085089,3.24906717 15.9511071,1.4111281 14.7351351,0.231578947 C13.5574052,1.39846589 13.302033,3.19047419 14.1081081,4.63157895 C13.4027027,3.47368421 11.2081081,4.63157895 11.2081081,6.02105263 C11.7567568,5.63508772 13.7945946,5.94385965 13.7945946,8.02807018 C13.7945946,8.8 13.3243243,9.72631579 12.3837838,9.95789474 C11.4164733,10.1784811 10.4127288,9.77687702 9.87567568,8.95438596 C10.0588603,8.89719698 10.2218898,8.79015439 10.3459459,8.64561404 C10.669367,8.30714456 10.7144756,7.7942384 10.4549628,7.40604061 C10.1954501,7.01784281 9.69923507,6.85595167 9.25572801,7.01478784 C8.81222094,7.17362401 8.53749553,7.61161722 8.59178135,8.07331431 C8.64606718,8.53501141 9.01515668,8.89957801 9.48378378,8.95438596 C9.32702703,9.88070175 8.77837838,10.4982456 7.91621622,10.7298246 C7.0068659,10.9582051 6.06570771,10.4915523 5.71037942,9.63610847 C5.35505114,8.78066464 5.69426264,7.79814604 6.50540541,7.33333333 C5.87837838,6.56140351 3.9972973,6.56140351 3.52702703,7.87368421 C3.52702703,6.87017544 2.66486486,5.86666667 0.705405405,5.86666667 C2.74281964,8.63135681 4.08583685,11.8323039 4.62432432,15.2070175 C7.75099126,13.5485918 11.2634255,12.7236789 14.8135135,12.8140351 L14.7351351,12.8912281 Z" id="Path" stroke="#000000" stroke-width="0.25" fill="#F9DD16"></path>
                            <g id="b" transform="translate(3.918919, 14.666667)" stroke="#000000" stroke-width="0.25">
                                <g id="Group" transform="translate(0.783784, 0.000000)" fill="#F9DD16">
                                    <path d="M18.5756757,7.87368421 C18.2621622,7.87368421 18.2621622,8.25964912 18.1837838,8.25964912 C18.8108108,8.25964912 19.1243243,8.02807018 19.2810811,7.71929825 L19.2810811,8.18245614 C19.7513514,8.02807018 19.9081081,7.64210526 19.7513514,7.41052632 L20.3,7.56491228 C19.9864865,7.33333333 20.2216216,6.79298246 19.672973,6.48421053 C19.8297297,6.48421053 20.1432432,6.63859649 20.3,6.87017544 C20.2216216,6.32982456 20.1432432,6.02105263 19.672973,5.7122807 L20.0648649,5.7122807 C19.8565487,5.57576472 19.7372516,5.34077887 19.7513514,5.09473684 C19.7513514,4.78596491 19.5945946,4.78596491 19.2810811,4.86315789 L17.8702703,4.94035088 C17.0864865,4.94035088 16.3027027,4.94035088 15.6756757,4.47719298 C16.6945946,4.94035088 18.027027,4.01403509 18.027027,3.31929825 C18.027027,2.54736842 16.9297297,1.7754386 14.8918919,2.23859649 C12.8540541,2.70175439 10.3459459,2.54736842 10.3459459,1.85263158 C10.3459459,1.15789474 12.1486486,1.08070175 13.0891892,1.23508772 C14.0297297,1.38947368 14.6567568,1.46666667 16.3810811,0.849122807 C15.9891892,1.00350877 14.5783784,1.08070175 13.4810811,0.771929825 C12.3837838,0.463157895 9.71891892,0.463157895 9.71891892,1.85263158 C9.71891892,3.31929825 12.5405405,3.16491228 15.0486486,2.77894737 C16.4594595,2.6245614 17.2432432,2.77894737 17.2432432,3.16491228 C17.2432432,3.62807018 15.9108108,3.78245614 14.8918919,3.70526316 C13.8159961,3.56243577 12.7217054,3.64129484 11.6783784,3.93684211 C10.6594595,4.24561404 9.95405405,3.93684211 8.85675676,4.16842105 C8.30810811,4.16842105 6.97567568,4.16842105 6.34864865,3.0877193 C5.95675676,3.39649123 4.78108108,3.93684211 4.54594595,4.55438596 C4.31081081,5.01754386 4.54594595,5.55789474 4.85945946,6.09824561 C5.32972973,6.71578947 4.62432432,6.63859649 4.07567568,6.63859649 C3.44864865,6.63859649 2.50810811,6.63859649 2.03783784,6.02105263 C1.56756757,5.55789474 1.01891892,5.17192982 0.548648649,5.48070175 C0.313513514,5.7122807 0.548648649,5.94385965 0.705405405,5.86666667 L1.33243243,6.02105263 C1.07606415,5.90622777 0.77685357,5.9356963 0.548648649,6.09824561 C0.313513514,6.25263158 0.548648649,6.56140351 0.783783784,6.48421053 C0.940540541,6.40701754 1.33243243,6.32982456 1.56756757,6.48421053 C1.33243243,6.48421053 1.01891892,6.48421053 0.940540541,6.63859649 C0.862162162,6.79298246 0.940540541,6.94736842 1.17567568,6.94736842 C1.64594595,6.94736842 1.72432432,7.25614035 2.19459459,7.17894737 C1.97251318,7.19092944 1.76917651,7.30536453 1.64594595,7.4877193 C2.11621622,7.25614035 2.50810811,7.79649123 3.05675676,7.64210526 C2.9,7.71929825 2.50810811,7.95087719 2.50810811,8.10526316 C2.82162162,7.71929825 5.01621622,8.41403509 5.01621622,7.56491228 L4.93783784,8.18245614 C5.17297297,8.02807018 6.03513514,7.95087719 6.34864865,7.41052632 C6.34864865,7.56491228 6.34864865,7.79649123 6.19189189,7.87368421 C6.42702703,7.87368421 6.81891892,7.71929825 7.21081081,7.17894737 C7.36756757,6.94736842 7.36756757,6.79298246 7.36756757,6.63859649 C7.75945946,6.63859649 7.99459459,6.56140351 8.30810811,6.32982456 C8.62162162,6.09824561 8.93513514,6.56140351 9.48378378,6.1754386 C9.95405405,5.86666667 10.4243243,6.1754386 10.7378378,6.02105263 C10.972973,5.86666667 11.3648649,6.02105263 11.6783784,5.86666667 C11.9918919,5.7122807 12.4621622,5.94385965 12.9324324,5.55789474 C13.7162162,5.86666667 14.7351351,6.32982456 17.0081081,5.94385965 C18.2621622,5.7122807 18.7324324,6.1754386 18.7324324,6.71578947 C18.7324324,7.17894737 18.4189189,7.17894737 18.2621622,7.17894737 C17.4783784,7.25614035 17.2432432,6.94736842 16.9297297,7.0245614 C16.772973,7.10175439 16.6162162,7.41052632 16.9297297,7.56491228 C16.6945946,7.64210526 16.6945946,7.87368421 16.8513514,7.95087719 C17.0081081,8.02807018 17.2432432,7.95087719 17.4783784,7.87368421 C17.1648649,7.95087719 16.9297297,8.18245614 17.0864865,8.41403509 C17.1648649,8.56842105 17.4,8.64561404 17.6351351,8.41403509 C17.8702703,8.10526316 18.2621622,7.87368421 18.5756757,7.87368421 Z M3.9972973,1.69824561 C3.37027027,1.46666667 3.21351351,1.46666667 3.29189189,2.00701754 C3.29189189,2.23859649 3.52702703,2.54736842 3.68378378,2.70175439 C3.68378378,2.47017544 3.76216216,1.92982456 3.9972973,1.7754386 L3.9972973,1.69824561 Z" id="Shape" fill-rule="nonzero"></path>
                                    <path d="M6.11351351,1.7754386 C6.74054054,1.46666667 6.97567568,1.46666667 6.81891892,2.00701754 C6.81891892,2.23859649 6.58378378,2.54736842 6.42702703,2.70175439 C6.42702703,2.47017544 6.42702703,1.92982456 6.11351351,1.7754386 Z" id="Path"></path>
                                    <path d="M5.09459459,1.38947368 C6.34864865,1.38947368 6.50540541,2.00701754 6.42702703,2.70175439 C6.42702703,3.47368421 6.03513514,3.16491228 5.8,4.24561404 C5.72162162,4.55438596 5.40810811,4.63157895 5.01621622,4.63157895 C4.78108108,4.63157895 4.46756757,4.63157895 4.31081081,4.16842105 C4.07567568,3.16491228 3.68378378,3.39649123 3.68378378,2.6245614 C3.68378378,2.00701754 3.84054054,1.38947368 5.09459459,1.38947368 Z" id="Path"></path>
                                    <path d="M1.88108108,4.24561404 C1.56756757,4.09122807 1.33243243,4.24561404 1.17567568,4.24561404 C1.64594595,4.32280702 1.64594595,4.86315789 2.58648649,5.01754386 C2.35135135,5.01754386 2.27297297,5.17192982 2.03783784,5.01754386 C2.42972973,5.32631579 2.82162162,5.7122807 3.76216216,5.7122807 C4.31081081,5.7122807 3.91891892,5.94385965 3.60540541,5.78947368 C3.91891892,6.1754386 4.62432432,5.86666667 5.09459459,6.56140351 C5.09459459,6.02105263 4.31081081,5.24912281 4.7027027,4.70877193 C3.37027027,4.63157895 3.29189189,3.93684211 2.58648649,3.39649123 C1.95945946,2.93333333 1.88108108,2.47017544 1.64594595,1.62105263 C1.56756757,1.23508772 1.0972973,1.00350877 0.862162162,1.08070175 C0.627027027,1.08070175 0.47027027,1.3122807 0.705405405,1.46666667 C0.862162162,1.62105263 1.17567568,1.62105263 1.17567568,2.00701754 C0.940540541,1.69824561 0.548648649,1.62105263 0.391891892,1.7754386 C0.313513514,1.92982456 0.391891892,2.16140351 0.548648649,2.16140351 C0.940540541,2.16140351 0.705405405,2.6245614 1.0972973,2.93333333 C0.705405405,2.54736842 0.391891892,2.47017544 0.156756757,2.70175439 C0.0783783784,2.85614035 0.156756757,3.0877193 0.47027027,3.0877193 C0.862162162,3.0877193 1.25405405,4.01403509 1.88108108,4.24561404 Z M12.0702703,7.79649123 C11.9135135,7.79649123 11.9918919,8.18245614 11.6783784,8.18245614 C12.3054054,8.18245614 12.6972973,8.02807018 12.9324324,7.79649123 L12.7756757,8.18245614 C13.0891892,7.95087719 13.9513514,7.87368421 14.3432432,7.95087719 C14.7351351,8.02807018 14.8135135,7.87368421 14.9702703,7.64210526 C15.127027,7.33333333 14.9702703,7.17894737 14.7351351,7.0245614 C14.5,6.79298246 14.4216216,6.48421053 14.5,6.02105263 C13.4027027,4.47719298 11.3648649,5.24912281 11.3648649,5.86666667 C12.0702703,6.71578947 12.1486486,6.63859649 12.7756757,6.71578947 C13.3243243,6.87017544 13.7162162,6.87017544 13.3243243,7.17894737 C13.1675676,7.33333333 12.5405405,7.17894737 12.1486486,7.25614035 C11.1297297,7.25614035 10.5810811,6.56140351 10.3459459,6.94736842 C10.1108108,7.25614035 10.3459459,7.41052632 10.8162162,7.41052632 C10.5027027,7.41052632 10.0324324,7.41052632 10.1108108,7.71929825 C10.2675676,8.25964912 10.7378378,7.64210526 10.972973,7.79649123 C10.8162162,7.79649123 10.5027027,7.87368421 10.5027027,8.02807018 C10.5027027,8.18245614 10.8945946,8.41403509 11.2864865,8.02807018 C11.5141076,7.86673729 11.7900671,7.78520151 12.0702703,7.79649123 Z" id="Shape" fill-rule="nonzero"></path>
                                </g>
                                <path d="M13.7162162,5.55789474 C13.4027027,5.40350877 13.0108108,5.32631579 12.6189189,5.40350877 M8.22972973,5.40350877 C7.91621622,6.02105263 8.07297297,6.32982456 8.15135135,6.63859649 M5.01621622,2.31578947 C5.17297297,2.47017544 5.32972973,2.16140351 5.64324324,2.47017544 C5.56486486,2.39298246 5.40810811,2.70175439 5.17297297,2.47017544 M6.74054054,2.39298246 C6.50540541,2.39298246 6.34864865,2.16140351 6.03513514,2.47017544 C6.11351351,2.39298246 6.27027027,2.70175439 6.50540541,2.47017544 M6.03513514,2.47017544 L6.03513514,2.70175439 C6.11351351,3.24210526 6.27027027,3.47368421 5.8,3.47368421 C5.40810811,3.47368421 5.56486486,3.24210526 5.64324324,2.70175439 L5.64324324,2.47017544" id="Shape"></path>
                                <path d="M5.87837838,4.4 C6.19189189,4.4 6.34864865,4.4 6.34864865,3.93684211 C6.34864865,3.78245614 6.58378378,3.70526316 6.42702703,3.39649123 C6.58378378,3.70526316 5.87837838,3.70526316 5.87837838,3.55087719 C5.87837838,3.70526316 5.09459459,3.70526316 5.25135135,3.39649123 C5.17297297,3.70526316 5.40810811,3.78245614 5.32972973,3.93684211 C5.32972973,4.4 5.48648649,4.4 5.87837838,4.4 Z" id="Path" fill="#FF0016"></path>
                                <path d="M5.42084068,3.18647047 L4.7027027,3.08745171 M5.42084068,3.18647047 L4.7027027,3.18647047 M5.42084068,3.21947672 L4.7745165,3.31849548 M5.99535105,3.18647047 L6.71348903,3.08745171 M5.99535105,3.18647047 L6.85711662,3.18647047 M5.99535105,3.21947672 L6.71348903,3.31849548" id="Shape" fill="#000000" fill-rule="nonzero"></path>
                                <path d="M1.64594595,1.08070175 C1.41081081,0.771929825 0.862162162,1.08070175 0.862162162,1.38947368 C1.01891892,1.15789474 1.33243243,1.46666667 1.56756757,1.38947368 C1.64594595,1.38947368 1.8027027,1.23508772 1.64594595,1.08070175 Z M1.41081081,1.7754386 C1.17567568,1.46666667 0.548648649,1.7754386 0.548648649,2.08421053 C0.705405405,1.85263158 1.01891892,2.16140351 1.25405405,2.08421053 C1.33243243,2.08421053 1.48918919,1.85263158 1.41081081,1.7754386 Z M1.25405405,2.70175439 C0.940540541,2.39298246 0.391891892,2.70175439 0.47027027,3.0877193 C0.627027027,2.85614035 0.940540541,3.0877193 1.0972973,3.0877193 C1.25405405,3.01052632 1.33243243,2.77894737 1.17567568,2.70175439 L1.25405405,2.70175439 Z M1.48918919,5.55789474 C1.17567568,5.24912281 0.705405405,5.63508772 0.705405405,6.02105263 C0.862162162,5.7122807 1.25405405,6.02105263 1.48918919,5.86666667 C1.48918919,5.86666667 1.64594595,5.63508772 1.48918919,5.48070175 L1.48918919,5.55789474 Z M1.48918919,6.09824561 C1.0972973,6.02105263 0.705405405,6.56140351 0.940540541,6.87017544 C0.940540541,6.48421053 1.41081081,6.63859649 1.56756757,6.48421053 L1.48918919,6.09824561 Z M1.95945946,6.63859649 C1.56756757,6.48421053 1.17567568,6.94736842 1.41081081,7.25614035 C1.41081081,7.0245614 1.88108108,7.10175439 1.95945946,6.94736842 L1.95945946,6.56140351 L1.95945946,6.63859649 Z M11.1297297,7.4877193 C10.7378378,7.41052632 10.3459459,7.87368421 10.5810811,8.25964912 C10.5810811,7.87368421 11.0513514,8.02807018 11.2081081,7.87368421 L11.1297297,7.4877193 Z M11.6,7.95087719 C11.2081081,7.87368421 10.8945946,8.41403509 11.1297297,8.72280702 C11.1297297,8.33684211 11.6,8.41403509 11.6783784,8.25964912 C11.7567568,8.18245614 11.7567568,7.95087719 11.6783784,7.95087719 L11.6,7.95087719 Z M11.2864865,6.87017544 C10.972973,6.71578947 10.5027027,7.17894737 10.5810811,7.4877193 C10.7378378,7.17894737 11.1297297,7.41052632 11.2864865,7.25614035 L11.2864865,6.94736842 L11.2864865,6.87017544 Z M17.7918919,7.64210526 C17.4783784,7.56491228 17.1648649,8.10526316 17.3216216,8.41403509 C17.3216216,8.10526316 17.7918919,8.18245614 17.9486486,8.02807018 C17.9486486,7.87368421 17.9486486,7.64210526 17.7918919,7.64210526 Z M17.7918919,7.10175439 C17.4783784,6.87017544 17.0081081,7.33333333 17.1648649,7.64210526 C17.3216216,7.41052632 17.7135135,7.56491228 17.8702703,7.41052632 L17.8702703,7.0245614 L17.7918919,7.10175439 Z M18.1054054,8.10526316 C17.7135135,8.10526316 17.4,8.64561404 17.6351351,8.87719298 C17.6351351,8.56842105 18.1054054,8.64561404 18.1837838,8.49122807 C18.2621622,8.33684211 18.1837838,8.18245614 18.1054054,8.10526316 Z M5.87837838,4.09122807 C6.11351351,4.09122807 6.19189189,4.16842105 6.19189189,4.63157895 C6.19189189,5.40350877 6.19189189,5.86666667 5.87837838,5.86666667 C5.64324324,5.86666667 5.64324324,5.48070175 5.64324324,4.86315789 C5.64324324,4.55438596 5.64324324,4.32280702 5.56486486,4.4 C5.56486486,4.16842105 5.64324324,4.09122807 5.87837838,4.09122807 Z" id="Shape" fill="#0051BA" fill-rule="nonzero"></path>
                            </g>
                            <g id="b-link" transform="translate(4.702703, 23.543860)" stroke="#000000" stroke-width="0.25">
                                <g id="b">
                                    <g id="Group" transform="translate(0.705405, 0.000000)" fill="#F9DD16">
                                        <path d="M16.7181081,7.08631579 C16.4359459,7.08631579 16.4359459,7.43368421 16.3654054,7.43368421 C16.9297297,7.43368421 17.2118919,7.22526316 17.352973,6.94736842 L17.352973,7.36421053 C17.7762162,7.22526316 17.9172973,6.87789474 17.7762162,6.66947368 L18.27,6.80842105 C17.9878378,6.6 18.1994595,6.11368421 17.7056757,5.83578947 C17.8467568,5.83578947 18.1289189,5.97473684 18.27,6.18315789 C18.1994595,5.69684211 18.1289189,5.41894737 17.7056757,5.14105263 L18.0583784,5.14105263 C17.8708939,5.01818825 17.7635264,4.80670098 17.7762162,4.58526316 C17.7762162,4.30736842 17.6351351,4.30736842 17.352973,4.37684211 L16.0832432,4.44631579 C15.3778378,4.44631579 14.6724324,4.44631579 14.1081081,4.02947368 C15.0251351,4.44631579 16.2243243,3.61263158 16.2243243,2.98736842 C16.2243243,2.29263158 15.2367568,1.59789474 13.4027027,2.01473684 C11.5686486,2.43157895 9.31135135,2.29263158 9.31135135,1.66736842 C9.31135135,1.04210526 10.9337838,0.972631579 11.7802703,1.11157895 C12.6267568,1.25052632 13.1910811,1.32 14.742973,0.764210526 C14.3902703,0.903157895 13.1205405,0.972631579 12.132973,0.694736842 C11.1454054,0.416842105 8.74702703,0.416842105 8.74702703,1.66736842 C8.74702703,2.98736842 11.2864865,2.84842105 13.5437838,2.50105263 C14.8135135,2.36210526 15.5189189,2.50105263 15.5189189,2.84842105 C15.5189189,3.26526316 14.3197297,3.40421053 13.4027027,3.33473684 C12.4343965,3.20619219 11.4495349,3.27716535 10.5105405,3.54315789 C9.59351351,3.82105263 8.95864865,3.54315789 7.97108108,3.75157895 C7.4772973,3.75157895 6.27810811,3.75157895 5.71378378,2.77894737 C5.36108108,3.05684211 4.30297297,3.54315789 4.09135135,4.09894737 C3.87972973,4.51578947 4.09135135,5.00210526 4.37351351,5.48842105 C4.79675676,6.04421053 4.16189189,5.97473684 3.66810811,5.97473684 C3.10378378,5.97473684 2.2572973,5.97473684 1.83405405,5.41894737 C1.41081081,5.00210526 0.917027027,4.65473684 0.493783784,4.93263158 C0.282162162,5.14105263 0.493783784,5.34947368 0.634864865,5.28 L1.19918919,5.41894737 C0.968457734,5.31560499 0.699168213,5.34212667 0.493783784,5.48842105 C0.282162162,5.62736842 0.493783784,5.90526316 0.705405405,5.83578947 C0.846486486,5.76631579 1.19918919,5.69684211 1.41081081,5.83578947 C1.19918919,5.83578947 0.917027027,5.83578947 0.846486486,5.97473684 C0.775945946,6.11368421 0.846486486,6.25263158 1.05810811,6.25263158 C1.48135135,6.25263158 1.55189189,6.53052632 1.97513514,6.46105263 C1.77526187,6.4718365 1.59225886,6.57482808 1.48135135,6.73894737 C1.90459459,6.53052632 2.2572973,7.01684211 2.75108108,6.87789474 C2.61,6.94736842 2.2572973,7.15578947 2.2572973,7.29473684 C2.53945946,6.94736842 4.51459459,7.57263158 4.51459459,6.80842105 L4.44405405,7.36421053 C4.65567568,7.22526316 5.43162162,7.15578947 5.71378378,6.66947368 C5.71378378,6.80842105 5.71378378,7.01684211 5.5727027,7.08631579 C5.78432432,7.08631579 6.13702703,6.94736842 6.48972973,6.46105263 C6.63081081,6.25263158 6.63081081,6.11368421 6.63081081,5.97473684 C6.98351351,5.97473684 7.19513514,5.90526316 7.4772973,5.69684211 C7.75945946,5.48842105 8.04162162,5.90526316 8.53540541,5.55789474 C8.95864865,5.28 9.38189189,5.55789474 9.66405405,5.41894737 C9.87567568,5.28 10.2283784,5.41894737 10.5105405,5.28 C10.7927027,5.14105263 11.2159459,5.34947368 11.6391892,5.00210526 C12.3445946,5.28 13.2616216,5.69684211 15.3072973,5.34947368 C16.4359459,5.14105263 16.8591892,5.55789474 16.8591892,6.04421053 C16.8591892,6.46105263 16.577027,6.46105263 16.4359459,6.46105263 C15.7305405,6.53052632 15.5189189,6.25263158 15.2367568,6.32210526 C15.0956757,6.39157895 14.9545946,6.66947368 15.2367568,6.80842105 C15.0251351,6.87789474 15.0251351,7.08631579 15.1662162,7.15578947 C15.3072973,7.22526316 15.5189189,7.15578947 15.7305405,7.08631579 C15.4483784,7.15578947 15.2367568,7.36421053 15.3778378,7.57263158 C15.4483784,7.71157895 15.66,7.78105263 15.8716216,7.57263158 C16.0832432,7.29473684 16.4359459,7.08631579 16.7181081,7.08631579 Z M3.59756757,1.52842105 C3.03324324,1.32 2.89216216,1.32 2.9627027,1.80631579 C2.9627027,2.01473684 3.17432432,2.29263158 3.31540541,2.43157895 C3.31540541,2.22315789 3.38594595,1.73684211 3.59756757,1.59789474 L3.59756757,1.52842105 Z" id="Shape" fill-rule="nonzero"></path>
                                        <path d="M5.50216216,1.59789474 C6.06648649,1.32 6.27810811,1.32 6.13702703,1.80631579 C6.13702703,2.01473684 5.92540541,2.29263158 5.78432432,2.43157895 C5.78432432,2.22315789 5.78432432,1.73684211 5.50216216,1.59789474 Z" id="Path"></path>
                                        <path d="M4.58513514,1.25052632 C5.71378378,1.25052632 5.85486486,1.80631579 5.78432432,2.43157895 C5.78432432,3.12631579 5.43162162,2.84842105 5.22,3.82105263 C5.14945946,4.09894737 4.8672973,4.16842105 4.51459459,4.16842105 C4.30297297,4.16842105 4.02081081,4.16842105 3.87972973,3.75157895 C3.66810811,2.84842105 3.31540541,3.05684211 3.31540541,2.36210526 C3.31540541,1.80631579 3.45648649,1.25052632 4.58513514,1.25052632 Z" id="Path"></path>
                                        <path d="M1.69297297,3.82105263 C1.41081081,3.68210526 1.19918919,3.82105263 1.05810811,3.82105263 C1.48135135,3.89052632 1.48135135,4.37684211 2.32783784,4.51578947 C2.11621622,4.51578947 2.04567568,4.65473684 1.83405405,4.51578947 C2.18675676,4.79368421 2.53945946,5.14105263 3.38594595,5.14105263 C3.87972973,5.14105263 3.52702703,5.34947368 3.24486486,5.21052632 C3.52702703,5.55789474 4.16189189,5.28 4.58513514,5.90526316 C4.58513514,5.41894737 3.87972973,4.72421053 4.23243243,4.23789474 C3.03324324,4.16842105 2.9627027,3.54315789 2.32783784,3.05684211 C1.76351351,2.64 1.69297297,2.22315789 1.48135135,1.45894737 C1.41081081,1.11157895 0.987567568,0.903157895 0.775945946,0.972631579 C0.564324324,0.972631579 0.423243243,1.18105263 0.634864865,1.32 C0.775945946,1.45894737 1.05810811,1.45894737 1.05810811,1.80631579 C0.846486486,1.52842105 0.493783784,1.45894737 0.352702703,1.59789474 C0.282162162,1.73684211 0.352702703,1.94526316 0.493783784,1.94526316 C0.846486486,1.94526316 0.634864865,2.36210526 0.987567568,2.64 C0.634864865,2.29263158 0.352702703,2.22315789 0.141081081,2.43157895 C0.0705405405,2.57052632 0.141081081,2.77894737 0.423243243,2.77894737 C0.775945946,2.77894737 1.12864865,3.61263158 1.69297297,3.82105263 Z M10.8632432,7.01684211 C10.7221622,7.01684211 10.7927027,7.36421053 10.5105405,7.36421053 C11.0748649,7.36421053 11.4275676,7.22526316 11.6391892,7.01684211 L11.4981081,7.36421053 C11.7802703,7.15578947 12.5562162,7.08631579 12.9089189,7.15578947 C13.2616216,7.22526316 13.3321622,7.08631579 13.4732432,6.87789474 C13.6143243,6.6 13.4732432,6.46105263 13.2616216,6.32210526 C13.05,6.11368421 12.9794595,5.83578947 13.05,5.41894737 C12.0624324,4.02947368 10.2283784,4.72421053 10.2283784,5.28 C10.8632432,6.04421053 10.9337838,5.97473684 11.4981081,6.04421053 C11.9918919,6.18315789 12.3445946,6.18315789 11.9918919,6.46105263 C11.8508108,6.6 11.2864865,6.46105263 10.9337838,6.53052632 C10.0167568,6.53052632 9.52297297,5.90526316 9.31135135,6.25263158 C9.09972973,6.53052632 9.31135135,6.66947368 9.73459459,6.66947368 C9.45243243,6.66947368 9.02918919,6.66947368 9.09972973,6.94736842 C9.24081081,7.43368421 9.66405405,6.87789474 9.87567568,7.01684211 C9.73459459,7.01684211 9.45243243,7.08631579 9.45243243,7.22526316 C9.45243243,7.36421053 9.80513514,7.57263158 10.1578378,7.22526316 C10.3626968,7.08006356 10.6110604,7.00668136 10.8632432,7.01684211 Z" id="Shape" fill-rule="nonzero"></path>
                                    </g>
                                    <path d="M12.3445946,5.00210526 C12.0624324,4.86315789 11.7097297,4.79368421 11.357027,4.86315789 M7.40675676,4.86315789 C7.12459459,5.41894737 7.26567568,5.69684211 7.33621622,5.97473684 M4.51459459,2.08421053 C4.65567568,2.22315789 4.79675676,1.94526316 5.07891892,2.22315789 C5.00837838,2.15368421 4.8672973,2.43157895 4.65567568,2.22315789 M6.06648649,2.15368421 C5.85486486,2.15368421 5.71378378,1.94526316 5.43162162,2.22315789 C5.50216216,2.15368421 5.64324324,2.43157895 5.85486486,2.22315789 M5.43162162,2.22315789 L5.43162162,2.43157895 C5.50216216,2.91789474 5.64324324,3.12631579 5.22,3.12631579 C4.8672973,3.12631579 5.00837838,2.91789474 5.07891892,2.43157895 L5.07891892,2.22315789" id="Shape"></path>
                                    <path d="M5.29054054,3.96 C5.5727027,3.96 5.71378378,3.96 5.71378378,3.54315789 C5.71378378,3.40421053 5.92540541,3.33473684 5.78432432,3.05684211 C5.92540541,3.33473684 5.29054054,3.33473684 5.29054054,3.19578947 C5.29054054,3.33473684 4.58513514,3.33473684 4.72621622,3.05684211 C4.65567568,3.33473684 4.8672973,3.40421053 4.79675676,3.54315789 C4.79675676,3.96 4.93783784,3.96 5.29054054,3.96 Z" id="Path" fill="#FF0016"></path>
                                    <path d="M4.81412419,2.86031723 L4.23243243,2.77466474 M4.81412419,2.86031723 L4.23243243,2.86031723 M4.81412419,2.88886806 L4.29060161,2.97452055 M5.2794776,2.86031723 L5.86116936,2.77466474 M5.2794776,2.86031723 L5.97750771,2.86031723 M5.2794776,2.88886806 L5.86116936,2.97452055" id="Shape" fill="#000000" fill-rule="nonzero"></path>
                                    <path d="M1.48135135,0.972631579 C1.26972973,0.694736842 0.775945946,0.972631579 0.775945946,1.25052632 C0.917027027,1.04210526 1.19918919,1.32 1.41081081,1.25052632 C1.48135135,1.25052632 1.62243243,1.11157895 1.48135135,0.972631579 Z M1.26972973,1.59789474 C1.05810811,1.32 0.493783784,1.59789474 0.493783784,1.87578947 C0.634864865,1.66736842 0.917027027,1.94526316 1.12864865,1.87578947 C1.19918919,1.87578947 1.34027027,1.66736842 1.26972973,1.59789474 Z M1.12864865,2.43157895 C0.846486486,2.15368421 0.352702703,2.43157895 0.423243243,2.77894737 C0.564324324,2.57052632 0.846486486,2.77894737 0.987567568,2.77894737 C1.12864865,2.70947368 1.19918919,2.50105263 1.05810811,2.43157895 L1.12864865,2.43157895 Z M1.34027027,5.00210526 C1.05810811,4.72421053 0.634864865,5.07157895 0.634864865,5.41894737 C0.775945946,5.14105263 1.12864865,5.41894737 1.34027027,5.28 C1.34027027,5.28 1.48135135,5.07157895 1.34027027,4.93263158 L1.34027027,5.00210526 Z M1.34027027,5.48842105 C0.987567568,5.41894737 0.634864865,5.90526316 0.846486486,6.18315789 C0.846486486,5.83578947 1.26972973,5.97473684 1.41081081,5.83578947 L1.34027027,5.48842105 Z M1.76351351,5.97473684 C1.41081081,5.83578947 1.05810811,6.25263158 1.26972973,6.53052632 C1.26972973,6.32210526 1.69297297,6.39157895 1.76351351,6.25263158 L1.76351351,5.90526316 L1.76351351,5.97473684 Z M10.0167568,6.73894737 C9.66405405,6.66947368 9.31135135,7.08631579 9.52297297,7.43368421 C9.52297297,7.08631579 9.94621622,7.22526316 10.0872973,7.08631579 L10.0167568,6.73894737 Z M10.44,7.15578947 C10.0872973,7.08631579 9.80513514,7.57263158 10.0167568,7.85052632 C10.0167568,7.50315789 10.44,7.57263158 10.5105405,7.43368421 C10.5810811,7.36421053 10.5810811,7.15578947 10.5105405,7.15578947 L10.44,7.15578947 Z M10.1578378,6.18315789 C9.87567568,6.04421053 9.45243243,6.46105263 9.52297297,6.73894737 C9.66405405,6.46105263 10.0167568,6.66947368 10.1578378,6.53052632 L10.1578378,6.25263158 L10.1578378,6.18315789 Z M16.0127027,6.87789474 C15.7305405,6.80842105 15.4483784,7.29473684 15.5894595,7.57263158 C15.5894595,7.29473684 16.0127027,7.36421053 16.1537838,7.22526316 C16.1537838,7.08631579 16.1537838,6.87789474 16.0127027,6.87789474 Z M16.0127027,6.39157895 C15.7305405,6.18315789 15.3072973,6.6 15.4483784,6.87789474 C15.5894595,6.66947368 15.9421622,6.80842105 16.0832432,6.66947368 L16.0832432,6.32210526 L16.0127027,6.39157895 Z M16.2948649,7.29473684 C15.9421622,7.29473684 15.66,7.78105263 15.8716216,7.98947368 C15.8716216,7.71157895 16.2948649,7.78105263 16.3654054,7.64210526 C16.4359459,7.50315789 16.3654054,7.36421053 16.2948649,7.29473684 Z M5.29054054,3.68210526 C5.50216216,3.68210526 5.5727027,3.75157895 5.5727027,4.16842105 C5.5727027,4.86315789 5.5727027,5.28 5.29054054,5.28 C5.07891892,5.28 5.07891892,4.93263158 5.07891892,4.37684211 C5.07891892,4.09894737 5.07891892,3.89052632 5.00837838,3.96 C5.00837838,3.75157895 5.07891892,3.68210526 5.29054054,3.68210526 Z" id="Shape" fill="#0051BA" fill-rule="nonzero"></path>
                                </g>
                            </g>
                            <g id="b-link" transform="translate(7.226486, 31.649123)" stroke="#000000" stroke-width="0.25">
                                <g id="b">
                                    <g id="Group" transform="translate(0.525135, 0.000000)" fill="#F9DD16">
                                        <path d="M12.4457027,5.90526316 C12.2356486,5.90526316 12.2356486,6.19473684 12.1831351,6.19473684 C12.6032432,6.19473684 12.8132973,6.02105263 12.9183243,5.78947368 L12.9183243,6.13684211 C13.2334054,6.02105263 13.3384324,5.73157895 13.2334054,5.55789474 L13.601,5.67368421 C13.3909459,5.5 13.5484865,5.09473684 13.1808919,4.86315789 C13.2859189,4.86315789 13.495973,4.97894737 13.601,5.15263158 C13.5484865,4.74736842 13.495973,4.51578947 13.1808919,4.28421053 L13.4434595,4.28421053 C13.3038877,4.18182354 13.2239586,4.00558415 13.2334054,3.82105263 C13.2334054,3.58947368 13.1283784,3.58947368 12.9183243,3.64736842 L11.9730811,3.70526316 C11.4479459,3.70526316 10.9228108,3.70526316 10.5027027,3.35789474 C11.1853784,3.70526316 12.0781081,3.01052632 12.0781081,2.48947368 C12.0781081,1.91052632 11.3429189,1.33157895 9.97756757,1.67894737 C8.61221622,2.02631579 6.93178378,1.91052632 6.93178378,1.38947368 C6.93178378,0.868421053 8.13959459,0.810526316 8.76975676,0.926315789 C9.39991892,1.04210526 9.82002703,1.1 10.9753243,0.636842105 C10.7127568,0.752631579 9.76751351,0.810526316 9.03232432,0.578947368 C8.29713514,0.347368421 6.51167568,0.347368421 6.51167568,1.38947368 C6.51167568,2.48947368 8.40216216,2.37368421 10.0825946,2.08421053 C11.0278378,1.96842105 11.552973,2.08421053 11.552973,2.37368421 C11.552973,2.72105263 10.6602432,2.83684211 9.97756757,2.77894737 C9.25671739,2.67182682 8.52354262,2.73097113 7.82451351,2.95263158 C7.14183784,3.18421053 6.66921622,2.95263158 5.93402703,3.12631579 C5.56643243,3.12631579 4.6737027,3.12631579 4.25359459,2.31578947 C3.99102703,2.54736842 3.20332432,2.95263158 3.04578378,3.41578947 C2.88824324,3.76315789 3.04578378,4.16842105 3.25583784,4.57368421 C3.57091892,5.03684211 3.0982973,4.97894737 2.7307027,4.97894737 C2.31059459,4.97894737 1.68043243,4.97894737 1.36535135,4.51578947 C1.05027027,4.16842105 0.682675676,3.87894737 0.367594595,4.11052632 C0.210054054,4.28421053 0.367594595,4.45789474 0.472621622,4.4 L0.89272973,4.51578947 C0.72096298,4.42967082 0.520491892,4.45177222 0.367594595,4.57368421 C0.210054054,4.68947368 0.367594595,4.92105263 0.525135135,4.86315789 C0.630162162,4.80526316 0.89272973,4.74736842 1.05027027,4.86315789 C0.89272973,4.86315789 0.682675676,4.86315789 0.630162162,4.97894737 C0.577648649,5.09473684 0.630162162,5.21052632 0.787702703,5.21052632 C1.10278378,5.21052632 1.1552973,5.44210526 1.47037838,5.38421053 C1.32158383,5.39319708 1.18534826,5.4790234 1.10278378,5.61578947 C1.41786486,5.44210526 1.68043243,5.84736842 2.04802703,5.73157895 C1.943,5.78947368 1.68043243,5.96315789 1.68043243,6.07894737 C1.89048649,5.78947368 3.36086486,6.31052632 3.36086486,5.67368421 L3.30835135,6.13684211 C3.46589189,6.02105263 4.04354054,5.96315789 4.25359459,5.55789474 C4.25359459,5.67368421 4.25359459,5.84736842 4.14856757,5.90526316 C4.30610811,5.90526316 4.56867568,5.78947368 4.83124324,5.38421053 C4.93627027,5.21052632 4.93627027,5.09473684 4.93627027,4.97894737 C5.19883784,4.97894737 5.35637838,4.92105263 5.56643243,4.74736842 C5.77648649,4.57368421 5.98654054,4.92105263 6.35413514,4.63157895 C6.66921622,4.4 6.9842973,4.63157895 7.19435135,4.51578947 C7.35189189,4.4 7.61445946,4.51578947 7.82451351,4.4 C8.03456757,4.28421053 8.34964865,4.45789474 8.66472973,4.16842105 C9.18986486,4.4 9.87254054,4.74736842 11.3954324,4.45789474 C12.2356486,4.28421053 12.5507297,4.63157895 12.5507297,5.03684211 C12.5507297,5.38421053 12.3406757,5.38421053 12.2356486,5.38421053 C11.7105135,5.44210526 11.552973,5.21052632 11.3429189,5.26842105 C11.2378919,5.32631579 11.1328649,5.55789474 11.3429189,5.67368421 C11.1853784,5.73157895 11.1853784,5.90526316 11.2904054,5.96315789 C11.3954324,6.02105263 11.552973,5.96315789 11.7105135,5.90526316 C11.5004595,5.96315789 11.3429189,6.13684211 11.4479459,6.31052632 C11.5004595,6.42631579 11.658,6.48421053 11.8155405,6.31052632 C11.9730811,6.07894737 12.2356486,5.90526316 12.4457027,5.90526316 Z M2.67818919,1.27368421 C2.25808108,1.1 2.15305405,1.1 2.20556757,1.50526316 C2.20556757,1.67894737 2.36310811,1.91052632 2.46813514,2.02631579 C2.46813514,1.85263158 2.52064865,1.44736842 2.67818919,1.33157895 L2.67818919,1.27368421 Z" id="Shape" fill-rule="nonzero"></path>
                                        <path d="M4.09605405,1.33157895 C4.51616216,1.1 4.6737027,1.1 4.56867568,1.50526316 C4.56867568,1.67894737 4.41113514,1.91052632 4.30610811,2.02631579 C4.30610811,1.85263158 4.30610811,1.44736842 4.09605405,1.33157895 Z" id="Path"></path>
                                        <path d="M3.41337838,1.04210526 C4.25359459,1.04210526 4.35862162,1.50526316 4.30610811,2.02631579 C4.30610811,2.60526316 4.04354054,2.37368421 3.886,3.18421053 C3.83348649,3.41578947 3.62343243,3.47368421 3.36086486,3.47368421 C3.20332432,3.47368421 2.99327027,3.47368421 2.88824324,3.12631579 C2.7307027,2.37368421 2.46813514,2.54736842 2.46813514,1.96842105 C2.46813514,1.50526316 2.57316216,1.04210526 3.41337838,1.04210526 Z" id="Path"></path>
                                        <path d="M1.26032432,3.18421053 C1.05027027,3.06842105 0.89272973,3.18421053 0.787702703,3.18421053 C1.10278378,3.24210526 1.10278378,3.64736842 1.73294595,3.76315789 C1.57540541,3.76315789 1.52289189,3.87894737 1.36535135,3.76315789 C1.62791892,3.99473684 1.89048649,4.28421053 2.52064865,4.28421053 C2.88824324,4.28421053 2.62567568,4.45789474 2.41562162,4.34210526 C2.62567568,4.63157895 3.0982973,4.4 3.41337838,4.92105263 C3.41337838,4.51578947 2.88824324,3.93684211 3.15081081,3.53157895 C2.25808108,3.47368421 2.20556757,2.95263158 1.73294595,2.54736842 C1.31283784,2.2 1.26032432,1.85263158 1.10278378,1.21578947 C1.05027027,0.926315789 0.735189189,0.752631579 0.577648649,0.810526316 C0.420108108,0.810526316 0.315081081,0.984210526 0.472621622,1.1 C0.577648649,1.21578947 0.787702703,1.21578947 0.787702703,1.50526316 C0.630162162,1.27368421 0.367594595,1.21578947 0.262567568,1.33157895 C0.210054054,1.44736842 0.262567568,1.62105263 0.367594595,1.62105263 C0.630162162,1.62105263 0.472621622,1.96842105 0.735189189,2.2 C0.472621622,1.91052632 0.262567568,1.85263158 0.105027027,2.02631579 C0.0525135135,2.14210526 0.105027027,2.31578947 0.315081081,2.31578947 C0.577648649,2.31578947 0.840216216,3.01052632 1.26032432,3.18421053 Z M8.08708108,5.84736842 C7.98205405,5.84736842 8.03456757,6.13684211 7.82451351,6.13684211 C8.24462162,6.13684211 8.50718919,6.02105263 8.66472973,5.84736842 L8.5597027,6.13684211 C8.76975676,5.96315789 9.34740541,5.90526316 9.60997297,5.96315789 C9.87254054,6.02105263 9.92505405,5.90526316 10.0300811,5.73157895 C10.1351081,5.5 10.0300811,5.38421053 9.87254054,5.26842105 C9.715,5.09473684 9.66248649,4.86315789 9.715,4.51578947 C8.97981081,3.35789474 7.61445946,3.93684211 7.61445946,4.4 C8.08708108,5.03684211 8.13959459,4.97894737 8.5597027,5.03684211 C8.9272973,5.15263158 9.18986486,5.15263158 8.9272973,5.38421053 C8.82227027,5.5 8.40216216,5.38421053 8.13959459,5.44210526 C7.45691892,5.44210526 7.08932432,4.92105263 6.93178378,5.21052632 C6.77424324,5.44210526 6.93178378,5.55789474 7.24686486,5.55789474 C7.03681081,5.55789474 6.72172973,5.55789474 6.77424324,5.78947368 C6.87927027,6.19473684 7.19435135,5.73157895 7.35189189,5.84736842 C7.24686486,5.84736842 7.03681081,5.90526316 7.03681081,6.02105263 C7.03681081,6.13684211 7.29937838,6.31052632 7.56194595,6.02105263 C7.71445208,5.90005297 7.89934499,5.83890113 8.08708108,5.84736842 Z" id="Shape" fill-rule="nonzero"></path>
                                    </g>
                                    <path d="M9.18986486,4.16842105 C8.97981081,4.05263158 8.71724324,3.99473684 8.45467568,4.05263158 M5.51391892,4.05263158 C5.30386486,4.51578947 5.40889189,4.74736842 5.46140541,4.97894737 M3.36086486,1.73684211 C3.46589189,1.85263158 3.57091892,1.62105263 3.78097297,1.85263158 C3.72845946,1.79473684 3.62343243,2.02631579 3.46589189,1.85263158 M4.51616216,1.79473684 C4.35862162,1.79473684 4.25359459,1.62105263 4.04354054,1.85263158 C4.09605405,1.79473684 4.20108108,2.02631579 4.35862162,1.85263158 M4.04354054,1.85263158 L4.04354054,2.02631579 C4.09605405,2.43157895 4.20108108,2.60526316 3.886,2.60526316 C3.62343243,2.60526316 3.72845946,2.43157895 3.78097297,2.02631579 L3.78097297,1.85263158" id="Shape"></path>
                                    <path d="M3.93851351,3.3 C4.14856757,3.3 4.25359459,3.3 4.25359459,2.95263158 C4.25359459,2.83684211 4.41113514,2.77894737 4.30610811,2.54736842 C4.41113514,2.77894737 3.93851351,2.77894737 3.93851351,2.66315789 C3.93851351,2.77894737 3.41337838,2.77894737 3.51840541,2.54736842 C3.46589189,2.77894737 3.62343243,2.83684211 3.57091892,2.95263158 C3.57091892,3.3 3.67594595,3.3 3.93851351,3.3 Z" id="Path" fill="#FF0016"></path>
                                    <path d="M3.47318295,2.38359769 L3.15081081,2.31222062 M3.47318295,2.38359769 L3.15081081,2.38359769 M3.47318295,2.40739005 L3.18304802,2.47876712 M3.73108066,2.38359769 L4.05345279,2.31222062 M3.73108066,2.38359769 L4.11792722,2.38359769 M3.73108066,2.40739005 L4.05345279,2.47876712" id="Shape" fill="#000000" fill-rule="nonzero"></path>
                                    <path d="M1.10278378,0.810526316 C0.945243243,0.578947368 0.577648649,0.810526316 0.577648649,1.04210526 C0.682675676,0.868421053 0.89272973,1.1 1.05027027,1.04210526 C1.10278378,1.04210526 1.20781081,0.926315789 1.10278378,0.810526316 Z M0.945243243,1.33157895 C0.787702703,1.1 0.367594595,1.33157895 0.367594595,1.56315789 C0.472621622,1.38947368 0.682675676,1.62105263 0.840216216,1.56315789 C0.89272973,1.56315789 0.997756757,1.38947368 0.945243243,1.33157895 Z M0.840216216,2.02631579 C0.630162162,1.79473684 0.262567568,2.02631579 0.315081081,2.31578947 C0.420108108,2.14210526 0.630162162,2.31578947 0.735189189,2.31578947 C0.840216216,2.25789474 0.89272973,2.08421053 0.787702703,2.02631579 L0.840216216,2.02631579 Z M0.997756757,4.16842105 C0.787702703,3.93684211 0.472621622,4.22631579 0.472621622,4.51578947 C0.577648649,4.28421053 0.840216216,4.51578947 0.997756757,4.4 C0.997756757,4.4 1.10278378,4.22631579 0.997756757,4.11052632 L0.997756757,4.16842105 Z M0.997756757,4.57368421 C0.735189189,4.51578947 0.472621622,4.92105263 0.630162162,5.15263158 C0.630162162,4.86315789 0.945243243,4.97894737 1.05027027,4.86315789 L0.997756757,4.57368421 Z M1.31283784,4.97894737 C1.05027027,4.86315789 0.787702703,5.21052632 0.945243243,5.44210526 C0.945243243,5.26842105 1.26032432,5.32631579 1.31283784,5.21052632 L1.31283784,4.92105263 L1.31283784,4.97894737 Z M7.45691892,5.61578947 C7.19435135,5.55789474 6.93178378,5.90526316 7.08932432,6.19473684 C7.08932432,5.90526316 7.40440541,6.02105263 7.50943243,5.90526316 L7.45691892,5.61578947 Z M7.772,5.96315789 C7.50943243,5.90526316 7.29937838,6.31052632 7.45691892,6.54210526 C7.45691892,6.25263158 7.772,6.31052632 7.82451351,6.19473684 C7.87702703,6.13684211 7.87702703,5.96315789 7.82451351,5.96315789 L7.772,5.96315789 Z M7.56194595,5.15263158 C7.35189189,5.03684211 7.03681081,5.38421053 7.08932432,5.61578947 C7.19435135,5.38421053 7.45691892,5.55789474 7.56194595,5.44210526 L7.56194595,5.21052632 L7.56194595,5.15263158 Z M11.9205676,5.73157895 C11.7105135,5.67368421 11.5004595,6.07894737 11.6054865,6.31052632 C11.6054865,6.07894737 11.9205676,6.13684211 12.0255946,6.02105263 C12.0255946,5.90526316 12.0255946,5.73157895 11.9205676,5.73157895 Z M11.9205676,5.32631579 C11.7105135,5.15263158 11.3954324,5.5 11.5004595,5.73157895 C11.6054865,5.55789474 11.8680541,5.67368421 11.9730811,5.55789474 L11.9730811,5.26842105 L11.9205676,5.32631579 Z M12.1306216,6.07894737 C11.8680541,6.07894737 11.658,6.48421053 11.8155405,6.65789474 C11.8155405,6.42631579 12.1306216,6.48421053 12.1831351,6.36842105 C12.2356486,6.25263158 12.1831351,6.13684211 12.1306216,6.07894737 Z M3.93851351,3.06842105 C4.09605405,3.06842105 4.14856757,3.12631579 4.14856757,3.47368421 C4.14856757,4.05263158 4.14856757,4.4 3.93851351,4.4 C3.78097297,4.4 3.78097297,4.11052632 3.78097297,3.64736842 C3.78097297,3.41578947 3.78097297,3.24210526 3.72845946,3.3 C3.72845946,3.12631579 3.78097297,3.06842105 3.93851351,3.06842105 Z" id="Shape" fill="#0051BA" fill-rule="nonzero"></path>
                                </g>
                            </g>
                        </g>
                    </g>
                </g>
            </g>
        </g>
    </g>
</svg>