<?xml version="1.0" encoding="UTF-8"?>
<svg width="200px" height="141px" viewBox="0 0 200 141" version="1.1" xmlns="http://www.w3.org/2000/svg" xmlns:xlink="http://www.w3.org/1999/xlink">
    <!-- Generator: Sketch 52.5 (67469) - http://www.bohemiancoding.com/sketch -->
    <title>jo</title>
    <desc>Created with Sketch.</desc>
    <defs>
        <polygon id="path-1" points="0.0585651537 0 199.941435 0 199.941435 141 0.0585651537 141"></polygon>
    </defs>
    <g id="Flags" stroke="none" stroke-width="1" fill="none" fill-rule="evenodd">
        <g id="Asia" transform="translate(-290.000000, -650.000000)">
            <g id="jo" transform="translate(290.000000, 650.000000)">
                <mask id="mask-2" fill="white">
                    <use xlink:href="#path-1"></use>
                </mask>
                <g id="Path"></g>
                <g id="Group" mask="url(#mask-2)">
                    <g id="Path">
                        <polygon fill="#000000" points="0.0549048316 0 281.167643 0 281.167643 46.8841553 0.0549048316 46.8841553"></polygon>
                        <polygon fill="#FFFFFF" points="0.0549048316 46.8841553 281.167643 46.8841553 281.167643 93.7408447 0.0549048316 93.7408447"></polygon>
                        <polygon fill="#009900" points="0.0549048316 93.7408447 281.167643 93.7408447 281.167643 140.625 0.0549048316 140.625"></polygon>
                        <polygon fill="#FF0000" points="0.0549048316 140.625 140.611274 70.3125 0.0549048316 0"></polygon>
                        <polygon fill="#FFFFFF" points="39.1196925 79.3762207 40.6844802 72.5372314 33.6841142 72.5372314 39.9981698 69.5159912 35.6332357 64.050293 41.9472914 67.0715332 43.4846266 60.2600098 45.0494143 67.098999 51.3360176 64.050293 46.943631 69.5159912 53.2576867 72.5372314 46.2847731 72.5372314 47.8495608 79.3762207 43.4846266 73.8830566"></polygon>
                    </g>
                </g>
            </g>
        </g>
    </g>
</svg>