<?xml version="1.0" encoding="UTF-8"?>
<svg width="200px" height="150px" viewBox="0 0 200 150" version="1.1" xmlns="http://www.w3.org/2000/svg" xmlns:xlink="http://www.w3.org/1999/xlink">
    <!-- Generator: Sketch 52.5 (67469) - http://www.bohemiancoding.com/sketch -->
    <title>ke</title>
    <desc>Created with Sketch.</desc>
    <g id="Flags" stroke="none" stroke-width="1" fill="none" fill-rule="evenodd">
        <g id="Africa" transform="translate(-1170.000000, -650.000000)">
            <g id="ke" transform="translate(1170.000000, 650.000000)">
                <polygon id="Path" fill="#FFFFFF" points="0.31152648 0 199.688474 0 199.688474 150 0.31152648 150"></polygon>
                <polygon id="Path" fill="#000000" points="0.31152648 0 199.688474 0 199.688474 45 0.31152648 45"></polygon>
                <polygon id="Path" fill="#006600" points="0.31152648 105 199.688474 105 199.688474 150 0.31152648 150"></polygon>
                <g id="b" transform="translate(72.897196, 22.500000)">
                    <g id="a-link" fill="#000000" stroke="#000000" stroke-width="1.5">
                        <path d="M0.373831776,97.03125 L2.05607477,97.96875 L45.7009346,22.03125 C48.2242991,21.46875 49.6261682,19.03125 51.0280374,16.59375 C51.9626168,14.90625 55.7009346,8.4375 57.2897196,0 C52.8558509,3.95240943 49.0987462,8.6080424 46.1682243,13.78125 C44.7663551,16.21875 43.364486,18.65625 44.0186916,21.1875 L0.373831776,97.03125 Z" id="a"></path>
                    </g>
                    <g id="a-link" fill="#FFFFFF">
                        <path d="M0.373831776,97.03125 L2.05607477,97.96875 L45.7009346,22.03125 C48.2242991,21.46875 49.6261682,19.03125 51.0280374,16.59375 C51.9626168,14.90625 55.7009346,8.4375 57.2897196,0 C52.8558509,3.95240943 49.0987462,8.6080424 46.1682243,13.78125 C44.7663551,16.21875 43.364486,18.65625 44.0186916,21.1875 L0.373831776,97.03125 Z" id="a"></path>
                    </g>
                </g>
                <g id="b-link" transform="translate(98.130841, 71.718750) scale(-1, 1) translate(-98.130841, -71.718750) translate(69.158879, 22.500000)">
                    <g id="b">
                        <g id="a-link" fill="#000000" stroke="#000000" stroke-width="1.5">
                            <path d="M0.373831776,97.03125 L2.05607477,97.96875 L45.7009346,22.03125 C48.2242991,21.46875 49.6261682,19.03125 51.0280374,16.59375 C51.9626168,14.90625 55.7009346,8.4375 57.2897196,0 C52.8558509,3.95240943 49.0987462,8.6080424 46.1682243,13.78125 C44.7663551,16.21875 43.364486,18.65625 44.0186916,21.1875 L0.373831776,97.03125 Z" id="a"></path>
                        </g>
                        <g id="a-link" fill="#FFFFFF">
                            <path d="M0.373831776,97.03125 L2.05607477,97.96875 L45.7009346,22.03125 C48.2242991,21.46875 49.6261682,19.03125 51.0280374,16.59375 C51.9626168,14.90625 55.7009346,8.4375 57.2897196,0 C52.8558509,3.95240943 49.0987462,8.6080424 46.1682243,13.78125 C44.7663551,16.21875 43.364486,18.65625 44.0186916,21.1875 L0.373831776,97.03125 Z" id="a"></path>
                        </g>
                    </g>
                </g>
                <path d="M199.844237,52.5 L117.757009,52.5 C114.953271,45 105.607477,30 100,30 C94.3925234,30 85.046729,45 82.2429907,52.5 L0.249221184,52.5 L0.249221184,97.5 L82.2429907,97.5 C85.046729,105 94.3925234,120 100,120 C105.607477,120 114.953271,105 117.757009,97.5 L199.844237,97.5 L199.844237,52.5 Z" id="Path" fill="#BB0000"></path>
                <path d="M117.757009,97.5 C120.560748,90 122.429907,82.5 122.429907,75 C122.429907,67.5 120.560748,60 117.757009,52.5 C114.953271,60 113.084112,67.5 113.084112,75 C113.084112,82.5 114.953271,90 117.757009,97.5" id="c" fill="#000000"></path>
                <g id="c-link" transform="translate(82.242991, 75.000000) scale(-1, 1) translate(-82.242991, -75.000000) translate(77.570093, 52.500000)" fill="#000000">
                    <path d="M4.6728972,45 C7.47663551,37.5 9.34579439,30 9.34579439,22.5 C9.34579439,15 7.47663551,7.5 4.6728972,0 C1.86915888,7.5 0,15 0,22.5 C0,30 1.86915888,37.5 4.6728972,45" id="c"></path>
                </g>
                <g id="Group" transform="translate(95.327103, 30.000000)" fill="#FFFFFF">
                    <ellipse id="Oval" cx="4.6728972" cy="45" rx="3.73831776" ry="5.625"></ellipse>
                    <path d="M5.60747664,50.4375 C5.60747664,50.4375 9.34579439,57.9375 9.34579439,70.125 C9.34579439,82.3125 5.60747664,89.8125 5.60747664,89.8125 L5.60747664,50.4375 Z" id="d"></path>
                    <g id="d-link" transform="translate(1.869159, 20.156250) rotate(180.000000) translate(-1.869159, -20.156250) ">
                        <path d="M0,0.75 C0,0.75 3.73831776,8.25 3.73831776,20.4375 C3.73831776,32.625 0,40.125 0,40.125 L0,0.75 Z" id="d"></path>
                    </g>
                    <g id="d-link" transform="translate(1.869159, 69.843750) scale(-1, 1) translate(-1.869159, -69.843750) translate(0.000000, 49.687500)">
                        <path d="M0,0.75 C0,0.75 3.73831776,8.25 3.73831776,20.4375 C3.73831776,32.625 0,40.125 0,40.125 L0,0.75 Z" id="d"></path>
                    </g>
                    <g id="d-link" transform="translate(7.476636, 20.156250) scale(-1, 1) rotate(-180.000000) translate(-7.476636, -20.156250) translate(5.607477, 0.000000)">
                        <path d="M0,0.75 C0,0.75 3.73831776,8.25 3.73831776,20.4375 C3.73831776,32.625 0,40.125 0,40.125 L0,0.75 Z" id="d"></path>
                    </g>
                </g>
            </g>
        </g>
    </g>
</svg>