<?xml version="1.0" encoding="UTF-8"?>
<svg width="200px" height="141px" viewBox="0 0 200 141" version="1.1" xmlns="http://www.w3.org/2000/svg" xmlns:xlink="http://www.w3.org/1999/xlink">
    <!-- Generator: Sketch 52.5 (67469) - http://www.bohemiancoding.com/sketch -->
    <title>kg</title>
    <desc>Created with Sketch.</desc>
    <defs>
        <polygon id="path-1" points="-1.13686838e-13 0 199.912152 0 199.912152 141 -1.13686838e-13 141"></polygon>
    </defs>
    <g id="Flags" stroke="none" stroke-width="1" fill="none" fill-rule="evenodd">
        <g id="Asia" transform="translate(-730.000000, -650.000000)">
            <g id="kg" transform="translate(730.000000, 650.000000)">
                <mask id="mask-2" fill="white">
                    <use xlink:href="#path-1"></use>
                </mask>
                <g id="Path"></g>
                <g id="Group" mask="url(#mask-2)">
                    <g transform="translate(-6.000000, 0.000000)" id="Path">
                        <polygon fill="#BE0027" points="0 0 211.054173 0 211.054173 140.625 0 140.625"></polygon>
                        <path d="M64.1013909,71.7132568 C67.8349195,67.1539307 75.6039531,71.6033936 81.9454612,68.3349609 C74.4234993,68.7469482 70.3330893,64.7094727 64.4033675,65.2862549 C70.5527086,61.4959717 75.7961201,66.5222168 82.659224,64.5172119 C73.5724744,63.7481689 73.9568082,59.6557617 65.6661786,59.0789795 C73.0234261,55.947876 76.6471449,62.3199463 83.8671303,60.8642578 C75.3568814,58.9141846 74.2587848,53.9154053 67.9447291,52.8442383 C77.1687408,51.4709473 76.5647877,56.9091797 85.5966325,57.5683594 C76.4275256,53.6407471 78.8158858,50.2075195 71.1566618,47.2137451 C79.7492679,47.0214844 79.1727672,52.9815674 87.9026354,54.5196533 C80.4355783,49.7955322 81.3415081,45.4833984 75.2196193,42.1051025 C82.4945095,42.2424316 83.1808199,49.6856689 90.6204246,51.9927979 C84.0043924,46.7468262 85.7338946,42.2973633 80.0237921,37.600708 C87.2712299,39.3035889 86.2005857,45.7305908 93.75,49.8504639 C88.1497072,43.6431885 90.2909956,39.1937256 85.431918,34.1125488 C92.4048316,36.3372803 89.7419473,42.4621582 96.9619327,48.2849121 C92.8440703,41.4459229 95.3971449,37.0788574 91.306735,31.338501 C97.7855051,34.6618652 94.6559297,40.9240723 100.640556,47.1313477 C97.8129575,40.1275635 100.640556,35.7879639 97.7580527,29.5806885 C103.303441,33.7005615 100.009151,40.3747559 104.483895,46.7468262 C102.83675,37.9577637 106.625183,36.529541 105.444729,28.8391113 C109.644949,34.0026855 104.950586,39.1662598 108.189971,46.774292 C107.778184,38.1225586 112.39019,36.1175537 111.59407,29.196167 C115.739385,35.4034424 109.260615,40.814209 111.978404,47.4609375 C112.664714,39.276123 118.045388,37.1337891 118.127745,30.7617187 C121.422035,36.6119385 114.284407,40.8416748 115.437408,48.614502 C117.770864,40.045166 123.508419,39.0014648 124.222182,33.2336426 C126.171303,39.9902344 118.347365,43.1213379 118.814056,50.6469727 C121.147511,43.0389404 128.312592,42.1325684 129.795022,36.529541 C130.700952,43.6706543 123.645681,44.9615479 121.641654,52.8717041 C125.347731,46.4172363 131.853953,45.8953857 134.763909,40.7867432 C134.54429,47.8729248 126.583089,48.8067627 124.139824,55.4260254 C128.724378,49.7955322 134.489385,50.7568359 139.073939,45.7855225 C138.579795,52.1850586 130.481332,51.8280029 126.171303,58.4472656 C131.14019,53.8604736 138.6347,55.2337646 142.450586,51.2786865 C142.258419,56.9366455 132.320644,56.4971924 127.626281,61.5783691 C133.391288,58.392334 140.748536,60.2600098 144.976208,57.321167 C144.20754,62.2650146 133.720717,61.1114502 128.696925,65.0115967 C135.614934,63.0889893 140.968155,66.027832 146.540996,63.9129639 C143.823206,68.7194824 134.297218,65.6707764 129.245974,68.8018799 C135.285505,67.7856445 141.654466,71.4385986 147.117496,70.2575684 C145.333089,74.432373 134.873719,69.9829102 129.273426,72.5921631 C135.971816,72.5372314 140.33675,76.8493652 146.568448,76.5472412 C143.191801,80.3375244 134.022694,75.1464844 128.669473,76.0253906 C135.203148,77.3986816 140.199488,82.7819824 145.140922,83.0566406 C141.050512,86.1602783 133.473646,79.0740967 127.296852,79.9530029 C133.665813,81.6558838 138.991581,88.8793945 142.6153,89.0441895 C138.689605,91.7358398 130.948023,82.8643799 125.649707,83.1939697 C132.101025,86.1053467 135.038433,93.4936523 139.293558,94.5373535 C134.050146,96.2127686 128.889092,86.517334 123.261347,86.1602783 C129.795022,90.2801514 130.151903,96.59729 135.175695,99.3988037 C129.877379,100.689697 126.116398,89.730835 120.543558,88.7969971 C125.896779,92.7246094 126.720351,101.156616 130.261713,103.793335 C124.88104,104.067993 122.931918,92.6147461 117.413982,90.9667969 C122.135798,94.921875 121.010249,103.491211 124.688873,107.171631 C119.08858,105.990601 119.802343,96.0205078 113.954978,92.6422119 C118.155198,97.9705811 116.013909,105.523682 118.759151,109.780884 C113.29612,107.583618 115.657028,98.6297607 110.468521,93.5760498 C113.29612,99.2340088 110.248902,105.825806 112.5,111.291504 C107.50366,108.847046 110.852855,98.2727051 107.036969,94.0704346 C108.793924,100.6073 105.554539,106.018066 106.872255,111.868286 C101.766105,105.963135 107.640922,100.003052 103.221083,93.9880371 C104.374085,100.881958 99.5424597,105.715942 100.311127,111.483765 C96.2756223,106.759644 102.507321,99.206543 99.3502928,93.24646 C100.009151,100.030518 93.7774524,105.990601 94.2166911,110.275269 C90.9224012,104.782104 97.8678624,98.3001709 96.0010981,92.0654297 C95.6167643,98.5473633 89.3027086,102.062988 88.1222548,107.96814 C86.0084187,101.45874 93.5029283,96.762085 92.8440703,90.3625488 C90.7027818,96.4324951 84.6083455,98.8769531 82.4670571,104.782104 C80.7101025,98.2727051 89.6046852,94.8394775 89.8243045,88.0279541 C87.079063,94.4000244 79.8041728,95.8282471 77.3883602,100.717163 C76.4824305,94.2626953 86.6672767,91.3787842 87.0516105,85.2539062 C83.7573206,91.1315918 75.7961201,91.3787842 73.0508785,96.0479736 C72.6390922,89.6209717 83.3729868,88.8244629 85.0475842,82.0953369 C81.7807467,87.0941162 73.0508785,86.4624023 69.3997072,90.5273437 C69.9762079,84.5672607 81.5885798,84.2102051 83.4553441,78.8269043 C79.1178624,83.001709 71.101757,81.2988281 66.5721083,84.5947266 C69.0977306,78.717041 79.9963397,79.9530029 82.4396047,75.7232666 C77.6354319,78.2226562 69.0977306,75.7781982 64.8700586,78.3050537 C68.7133968,72.756958 77.1687408,76.0803223 81.9729136,72.2625732 C74.1764275,73.3886719 69.4820644,70.2850342 64.0739385,71.7132568 L64.1013909,71.7132568 Z" fill="#FFFF00"></path>
                        <path d="M132.869693,70.3399658 C132.869693,85.3951524 120.671009,97.5997925 105.62317,97.5997925 C90.5753309,97.5997925 78.3766471,85.3951524 78.3766471,70.3399658 C78.3766474,55.2923639 90.5691856,43.0938725 105.609444,43.0938725 C120.649702,43.0938725 132.84224,55.2923639 132.84224,70.3399658 L132.869693,70.3399658 Z" fill="#FFFF00"></path>
                        <path d="M129.355783,70.3948975 C129.355783,83.4857045 118.748767,94.0979004 105.664348,94.0979004 C92.5799303,94.0979004 81.9729136,83.4857045 81.9729136,70.3948975 C81.9729136,57.3040904 92.5799303,46.6918945 105.664348,46.6918945 C118.748767,46.6918945 129.355783,57.3040904 129.355783,70.3948975 Z" fill="#BE0027"></path>
                        <path d="M126.061493,70.4498291 C126.061494,77.7209602 122.184285,84.4397626 115.890373,88.0753282 C109.596462,91.7108938 101.842044,91.7108938 95.5481331,88.0753282 C89.2542221,84.4397626 85.377013,77.7209602 85.3770132,70.4498291 C85.3770134,59.2096346 94.4845445,50.0976567 105.719253,50.0976567 C116.953962,50.0976567 126.061493,59.2096346 126.061493,70.4498291 Z" fill="#FFFF00"></path>
                        <path d="M88.3967789,57.1289062 C94.0245242,56.9915771 101.02489,57.5134277 105.664348,61.1938477 C110.620768,58.0989897 116.456209,56.7190303 122.27306,57.2662354 L125.292826,62.7868652 C120.600474,62.3585357 115.876424,63.1336583 111.566618,65.0390625 C117.821076,69.6541202 121.379572,77.0729901 121.065154,84.8419189 C120.323939,85.7757568 119.143485,86.7919922 118.402269,87.7258301 C119.500366,79.8980713 115.382504,71.1639404 109.370425,66.5771484 C114.256955,73.6083984 117.139458,79.9255371 116.343338,88.659668 L113.598097,90.4174805 C114.860908,82.7270508 113.049048,73.6633301 107.366398,68.4448242 C110.660688,73.2513428 113.900073,81.9030762 111.868594,90.6921387 C110.990117,90.9667969 109.617496,91.708374 108.739019,91.9555664 C110.916445,84.6600347 109.83545,76.7789403 105.774158,70.3399658 C101.985725,75.7781982 100.750366,84.072876 102.891654,91.7633057 C101.848463,91.4886475 101.052343,91.1590576 99.9816984,90.9118652 C98.4169107,82.6721191 100.585652,73.3337402 104.346633,68.47229 C100.503294,70.6970215 96.9070278,80.2001953 97.9227672,89.8956299 L95.3696925,88.7145996 C94.1343338,81.4910889 97.4011713,72.0703125 102.095534,66.6320801 C96.7697657,69.9829102 92.432284,78.2501221 93.1734993,87.121582 C92.3499268,86.4074707 91.6087116,86.050415 90.7851391,85.3088379 C89.851757,77.5634766 94.3539531,69.7631836 99.5973646,65.0939941 C95.1775256,63.0889893 91.3616398,62.7044678 85.8711567,62.7868652 C86.7221816,61.0015869 87.5183016,58.9141846 88.3967789,57.1014404 L88.3967789,57.1289062 Z" fill="#BE0027"></path>
                    </g>
                </g>
            </g>
        </g>
    </g>
</svg>