<?xml version="1.0" encoding="UTF-8"?>
<svg width="200px" height="150px" viewBox="0 0 200 150" version="1.1" xmlns="http://www.w3.org/2000/svg" xmlns:xlink="http://www.w3.org/1999/xlink">
    <!-- Generator: Sketch 52.5 (67469) - http://www.bohemiancoding.com/sketch -->
    <title>mw</title>
    <desc>Created with Sketch.</desc>
    <g id="Flags" stroke="none" stroke-width="1" fill="none" fill-rule="evenodd">
        <g id="Africa" transform="translate(-730.000000, -1050.000000)">
            <g id="mw" transform="translate(730.000000, 1050.000000)">
                <polygon id="Path" fill="#F41408" points="0 0 200 0 200 150 0 150"></polygon>
                <polygon id="Path" fill="#21873B" points="0 100 200 100 200 150 0 150"></polygon>
                <polygon id="Path" fill="#000000" points="0 0 200 0 200 50 0 50"></polygon>
                <path d="M68.90625,44.0625 C75.875,28.6875 95.3125,21.3125 112.28125,27.65625 C120.330645,30.3850896 126.891581,36.3238679 130.40625,44.0625 L68.90625,44.0625 Z M60.78125,46.0625 C55.266745,45.6870891 49.7910147,44.8719995 44.40625,43.625 C43.125,43.21875 43.0625,42.5 43.21875,41.96875 C43.375,41.4375 44.1875,40.84375 45.15625,41.03125 C46.90625,41.46875 54.15625,43.21875 60.78125,46.0625 Z M99.71875,19.21875 C98.40625,12.65625 98.09375,5.46875 98.21875,4.21875 C98.34375,3 99.0625,2.8125 99.6875,2.8125 C100.3125,2.8125 101.15625,3.375 101.15625,4.28125 C101.15625,5.9375 101.125,12.71875 99.71875,19.28125 L99.71875,19.21875 Z M103.34375,19.375 C102.825468,14.3690128 102.794071,9.32455077 103.25,4.3125 C103.5,3.09375 104.25,2.9375 104.84375,3 C105.46875,3.03125 106.25,3.65625 106.15625,4.5625 C106,6.21875 105.34375,12.96875 103.34375,19.375 Z M106.59375,19.78125 C106.53125,13.125 107.53125,5.9375 107.875,4.78125 C108.21875,3.5625 109,3.46875 109.59375,3.5625 C110.21875,3.65625 110.9375,4.34375 110.78125,5.21875 C110.46875,6.875 109.15625,13.53125 106.59375,19.78125 Z M110.03125,20.46875 C110.59375,13.84375 112.3125,6.78125 112.78125,5.625 C113.25,4.46875 114.03125,4.4375 114.59375,4.5625 C115.21875,4.71875 115.84375,5.4375 115.625,6.3125 C115.125,7.90625 113.21875,14.4375 110.0625,20.46875 L110.03125,20.46875 Z M113.4375,21.46875 C114.65625,14.90625 117.03125,8 117.59375,6.875 C118.1875,5.78125 118.9375,5.78125 119.53125,5.96875 C120.09375,6.15625 120.6875,6.96875 120.375,7.78125 C118.492763,12.5493745 116.170219,17.1316915 113.4375,21.46875 Z M116.59375,22.65625 C118.40625,16.1875 121.4375,9.53125 122.125,8.4375 C122.8125,7.375 123.5625,7.46875 124.125,7.71875 C124.6875,7.9375 125.1875,8.78125 124.78125,9.59375 C124,11.09375 120.875,17.21875 116.59375,22.65625 Z M119.71875,24.125 C121.577401,19.347612 123.879105,14.7546665 126.59375,10.40625 C127.34375,9.40625 128.125,9.5625 128.65625,9.84375 C128.973937,10.03191 129.202601,10.3399321 129.290769,10.6984791 C129.378936,11.0570261 129.319197,11.4359667 129.125,11.75 C128.1875,13.1875 124.46875,19.0625 119.71875,24.125 Z M122.65625,25.84375 C125.6875,19.78125 129.9375,13.65625 130.8125,12.71875 C131.6875,11.78125 132.4375,12 132.9375,12.3125 C133.238722,12.5258159 133.441533,12.8512808 133.500306,13.2156764 C133.55908,13.580072 133.46888,13.9527966 133.25,14.25 C132.15625,15.625 127.875,21.15625 122.625,25.8125 L122.65625,25.84375 Z M125.40625,27.78125 C129.03125,21.96875 133.84375,16.21875 134.8125,15.375 C135.75,14.5 136.5,14.75 136.96875,15.125 C137.244971,15.3653584 137.411146,15.7080272 137.428843,16.0737556 C137.44654,16.439484 137.314225,16.7965958 137.0625,17.0625 C135.875,18.34375 131.09375,23.53125 125.40625,27.78125 Z M128,29.9375 C131.170343,25.757946 134.705015,21.8677149 138.5625,18.3125 C139.59375,17.53125 140.28125,17.84375 140.71875,18.21875 C140.980678,18.4858032 141.119436,18.8499499 141.101643,19.2235902 C141.083851,19.5972305 140.911119,19.9465443 140.625,20.1875 C139.34375,21.375 134.0625,26.15625 128,29.9375 Z M130.375,32.28125 C133.916601,28.3628664 137.807668,24.7751352 142,21.5625 C143.125,20.84375 143.78125,21.21875 144.1875,21.65625 C144.5625,22.0625 144.65625,23.03125 143.875,23.59375 C139.626464,26.8628671 135.110554,29.7689387 130.375,32.28125 Z M132.40625,34.71875 C136.313378,31.0815625 140.526906,27.78811 145,24.875 C146.15625,24.25 146.78125,24.6875 147.125,25.15625 C147.5,25.59375 147.46875,26.5625 146.6875,27.0625 C145.1875,28 139.09375,31.9375 132.40625,34.71875 Z M134.25,37.3125 C138.475991,34.0151701 142.970888,31.0778074 147.6875,28.53125 C148.9375,28 149.53125,28.46875 149.84375,28.9375 C150.15625,29.4375 150.03125,30.375 149.21875,30.8125 C144.404042,33.3839089 139.387366,35.5578015 134.21875,37.3125 L134.25,37.3125 Z M135.9375,40.3125 C140.489338,37.379537 145.276578,34.8291294 150.25,32.6875 C151.53125,32.25 152.0625,32.78125 152.3125,33.28125 C152.59375,33.78125 152.40625,34.71875 151.5,35.09375 C149.84375,35.78125 143.0625,38.65625 135.9375,40.3125 Z M137.25,43.1875 C142.064223,40.615085 147.080982,38.441156 152.25,36.6875 C153.5625,36.375 154.03125,36.9375 154.25,37.46875 C154.4375,37.96875 154.15625,38.90625 153.25,39.1875 C151.53125,39.78125 144.5,42.09375 137.25,43.1875 Z M138.3125,46.25 C143.348572,44.0714394 148.553159,42.3052241 153.875,40.96875 C155.1875,40.78125 155.625,41.34375 155.78125,41.90625 C155.9375,42.4375 155.5625,43.3125 154.625,43.5625 C152.84375,43.96875 145.625,45.75 138.3125,46.25 Z M96.1875,19.375 C94.7050902,14.5459579 93.6900112,9.5856748 93.15625,4.5625 C93.15625,3.34375 93.875,3.0625 94.46875,3 C95.09375,2.96875 96.03125,3.46875 96.09375,4.34375 C96.25,6 96.90625,12.75 96.21875,19.375 L96.1875,19.375 Z M92.75,19.78125 C90.795337,15.103685 89.2987535,10.2476379 88.28125,5.28125 C88.15625,4.03125 88.84375,3.71875 89.4375,3.625 C90.0625,3.53125 91,3.9375 91.1875,4.8125 C92.165042,9.74379463 92.6880676,14.7543802 92.75,19.78125 Z M89.3125,20.46875 C86.9125975,15.9564651 84.9454796,11.2270116 83.4375,6.34375 C83.1875,5.125 83.84375,4.75 84.4375,4.59375 C85.03125,4.46875 86,4.78125 86.28125,5.65625 C86.75,7.25 88.6875,13.78125 89.28125,20.4375 L89.3125,20.46875 Z M86.03125,21.40625 C83.2390102,17.1062395 80.853691,12.5553016 78.90625,7.8125 C78.5625,6.625 79.15625,6.1875 79.71875,6 C80.3125,5.8125 81.3125,6.0625 81.65625,6.875 C82.28125,8.4375 84.84375,14.8125 86.03125,21.375 L86.03125,21.40625 Z M82.875,22.5 C79.6718233,18.4442049 76.8474874,14.103096 74.4375,9.53125 C74,8.375 74.5625,7.875 75.125,7.65625 C75.6875,7.40625 76.6875,7.59375 77.125,8.40625 C77.90625,9.90625 81.03125,16.0625 82.875,22.5 Z M79.65625,24.0625 C76.0627542,20.2809808 72.8202596,16.1807941 69.96875,11.8125 C69.4375,10.71875 69.9375,10.1875 70.46875,9.90625 C71,9.625 72.03125,9.71875 72.53125,10.5 C73.46875,11.9375 77.21875,17.78125 79.65625,24.0625 Z M76.71875,25.75 C72.7937844,22.252538 69.1859674,18.4146573 65.9375,14.28125 C65.28125,13.21875 65.71875,12.65625 66.25,12.3125 C66.71875,12 67.8125,12 68.34375,12.75 C69.40625,14.09375 73.6875,19.625 76.71875,25.71875 L76.71875,25.75 Z M74,27.625 C69.7517441,24.4446223 65.7888261,20.8999542 62.15625,17.03125 C61.40625,16.03125 61.8125,15.46875 62.28125,15.09375 C62.9614199,14.672272 63.8424687,14.7759248 64.40625,15.34375 C65.59375,16.59375 70.40625,21.8125 74,27.625 Z M71.34375,29.8125 C66.8063657,26.9869498 62.5198086,23.7772595 58.53125,20.21875 C57.65625,19.28125 58,18.65625 58.4375,18.25 C59.0887203,17.7698219 59.9866629,17.8088629 60.59375,18.34375 C61.90625,19.5 67.15625,24.28125 71.34375,29.78125 L71.34375,29.8125 Z M69.03125,32 C64.2467417,29.5344798 59.6784973,26.67018 55.375,23.4375 C54.4375,22.5625 54.71875,21.9375 55.125,21.5 C55.5,21.0625 56.53125,20.84375 57.28125,21.40625 C61.4985187,24.6005998 65.4299967,28.1556597 69.03125,32.03125 L69.03125,32 Z M66.84375,34.5625 C61.8333967,32.4878403 57.004255,30.0001006 52.40625,27.125 C51.375,26.34375 51.59375,25.65625 51.9375,25.21875 C52.28125,24.75 53.28125,24.4375 54.09375,24.9375 C55.59375,25.90625 61.6875,29.78125 66.84375,34.5625 Z M64.875,37.3125 C57.9375,35.125 50.84375,31.8125 49.75,31.09375 C48.625,30.40625 48.8125,29.71875 49.09375,29.21875 C49.375,28.71875 50.34375,28.34375 51.21875,28.78125 C52.78125,29.625 59.28125,33 64.875,37.3125 Z M63.21875,40.125 C56.09375,38.46875 48.75,35.75 47.5625,35.125 C46.40625,34.5 46.46875,33.8125 46.75,33.3125 C47,32.8125 47.90625,32.34375 48.8125,32.6875 C50.46875,33.40625 57.25,36.25 63.21875,40.125 Z M61.90625,42.9375 C56.4584149,42.0999432 51.0868835,40.8249882 45.84375,39.125 C44.59375,38.625 44.65625,37.90625 44.84375,37.40625 C45.0625,36.875 45.9375,36.34375 46.84375,36.625 C48.59375,37.21875 55.59375,39.53125 61.90625,42.9375 Z" id="Shape" fill="#F31509" fill-rule="nonzero"></path>
                <path d="M60.78125,46.0625 C55.2667593,45.6869568 49.7910395,44.8718687 44.40625,43.625 C43.125,43.21875 43.0625,42.5 43.21875,41.96875 C43.375,41.4375 44.1875,40.84375 45.15625,41.03125 C46.90625,41.46875 54.15625,43.21875 60.78125,46.0625 Z" id="Path" fill="#F31509"></path>
                <polygon id="Path" fill="#000000" points="40.4375 44.21875 159.5625 44.21875 159.5625 48.15625 40.4375 48.15625"></polygon>
            </g>
        </g>
    </g>
</svg>