<?xml version="1.0" encoding="UTF-8"?>
<svg width="200px" height="150px" viewBox="0 0 200 150" version="1.1" xmlns="http://www.w3.org/2000/svg" xmlns:xlink="http://www.w3.org/1999/xlink">
    <!-- Generator: Sketch 52.5 (67469) - http://www.bohemiancoding.com/sketch -->
    <title>ms</title>
    <desc>Created with Sketch.</desc>
    <g id="Flags" stroke="none" stroke-width="1" fill="none" fill-rule="evenodd">
        <g id="North-America" transform="translate(-70.000000, -850.000000)">
            <g id="ms" transform="translate(70.000000, 850.000000)">
                <polygon id="Path" fill="#000066" points="0 0 200 0 200 150 0 150"></polygon>
                <g id="Group" transform="translate(127.500000, 60.000000)">
                    <path d="M0.09375,0.09375 L67.0625,0.09375 L66.96875,48.03125 C67.53125,67.3125 55.59375,79.28125 33.625,84.65625 C18,80.75 0.03125,72.6875 0,48.5625 L0.09375,0.0625 L0.09375,0.09375 Z" id="Path" fill="#FFFFFF"></path>
                    <path d="M1.53825,1.5095125 L65.57145,1.5095125 L65.49585,47.4588125 C66.02505,65.9450375 54.60945,77.394325 33.63045,82.567425 C18.69945,78.83975 1.50045,71.0801 1.50045,47.9533 L1.57605,1.54755 L1.53825,1.5095125 Z" id="Path" stroke="#000000" stroke-width="0.6" fill="#00A2BD"></path>
                    <path d="M65.09375,52.90625 C62.75,70.53125 49.25,78.25 33.625,82.34375 C19.78125,78.59375 4.875,72.65625 2.03125,53 L65.09375,52.90625 Z" id="Path" fill="#A53D08"></path>
                </g>
                <g id="Group" transform="translate(169.375000, 126.562500)" stroke="#000000">
                    <path d="M1.92365,1.32245 C1.92365,1.32245 2.15045,4.8599375 0.26045,6.9900375 C1.96145,7.5225625 3.09545,6.875925 3.62465,6.2292875 C4.15385,5.5446125 4.34285,4.66975 4.34285,4.66975 C4.34285,4.66975 4.79645,4.36545 4.87205,3.7188125 C4.87205,2.84395 4.49405,2.84395 4.19165,2.6537625 L4.26725,0.6758125 C4.26725,0.6758125 2.33945,-0.50335 1.92365,1.32245 Z" id="Path" stroke-width="0.78" fill="#FFC6B5" stroke-linejoin="round"></path>
                    <path d="M1.81025,6.3053625 L1.24325,5.8489125" id="Path" stroke-width="0.6" fill="#FF9A08" stroke-linecap="round"></path>
                </g>
                <path d="M165.93105,79.273025 C165.93105,79.273025 166.00665,81.403125 165.85545,81.63135 C165.70425,81.859575 164.49465,82.3921 164.49465,82.3921 L165.55305,84.6363125 L168.46365,84.2179 L169.71105,80.9086375 C169.71105,80.9086375 169.06845,79.80555 169.21965,78.6263875 C168.27465,75.5833875 165.96885,79.273025 165.93105,79.273025 Z" id="Path" stroke="#000000" stroke-width="0.6" fill="#FFC6B5"></path>
                <path d="M162.07545,130.091125 C162.07545,130.091125 163.73865,131.764775 165.59085,131.574588 C169.86225,131.0801 171.10965,127.27635 172.39485,127.238313 C173.68005,127.200275 174.54945,129.520563 175.79685,129.2543 C174.416133,126.319207 173.718069,123.106152 173.75565,119.859037 C173.94465,116.816037 173.94465,103.883287 173.94465,103.883287 C173.94465,103.883287 171.82785,97.1886875 170.80725,96.0856 C171.972609,94.683778 172.566895,92.889716 172.47045,91.06465 L172.47045,86.6903375 C172.47045,86.6903375 172.96185,86.119775 172.92405,84.5222 C172.88625,82.924625 170.24025,80.6043375 169.90005,80.71845 C169.52205,80.794525 166.15785,83.685375 165.89325,84.37005 C165.59085,85.054725 165.21285,81.8976125 165.85545,81.63135 C166.49805,81.32705 164.34345,81.1749 163.02045,82.772475 C161.65965,84.37005 162.07545,130.205238 162.07545,130.129163 L162.07545,130.091125 Z" id="Path" stroke="#000000" stroke-width="0.78" fill="#005121" stroke-linejoin="round"></path>
                <polygon id="Path" fill="#000000" points="146.09375 70.03125 158.59375 70.09375 158.5 64.28125 163.0625 64.34375 163.09375 70.09375 175.53125 70.09375 175.59375 74.5625 163.09375 74.625 163 127.5625 158.5625 127.5625 158.5 74.5625 146.09375 74.625 146.09375 70"></polygon>
                <path d="M158.52225,84.06575 C158.52225,84.06575 157.69065,83.9136 157.01025,84.06575 C156.32985,84.2179 158.03085,76.6484375 158.03085,76.0018 C158.59785,75.7355375 161.50845,75.24105 161.43285,73.1489875 C161.20605,71.9317875 156.97245,73.2250625 157.04805,74.7846 C156.74565,75.5833875 153.98625,83.5712625 154.51545,86.19585 C155.49825,86.9566 157.31265,86.8424875 158.52225,86.6142625 L158.52225,84.06575 Z" id="Path" stroke="#000000" stroke-width="0.6" fill="#FFC6B5"></path>
                <path d="M159.35385,73.11095 C159.35385,73.11095 159.12705,74.5183375 160.37445,74.7465625" id="Path" stroke="#000000" stroke-width="0.36" stroke-linecap="round"></path>
                <path d="M161.24385,73.0729125 L159.58065,74.1379625 M161.13045,73.71955 L159.99645,74.556375 M160.75245,72.7686125 L159.46725,73.5293625" id="Shape" stroke="#000000" stroke-width="0.25"></path>
                <path d="M148.50525,115.10435 L159.88305,126.97205 C163.85205,122.635775 161.09265,106.317688 155.91405,103.350763 C155.30925,105.252638 154.25085,107.572925 153.11685,108.295638 C150.65985,110.007325 144.61185,111.985275 146.61525,113.240513 C147.06885,112.631913 148.27845,112.023313 148.88325,113.4307 C149.52585,115.71295 146.35065,115.827063 146.35065,115.827063 C146.35065,115.827063 144.30945,115.598838 143.96925,113.544813 C143.59125,111.45275 146.99325,109.550875 147.25785,109.398725 C147.56025,109.32265 151.94505,108.143488 152.70105,104.187588 C153.60825,100.3458 154.59105,100.916363 154.74225,100.840288 C160.48785,101.41085 164.26785,111.75705 164.45685,119.06025 C164.68365,126.325413 161.54625,131.156175 160.94145,131.498513 C160.37445,131.802813 147.25785,115.789025 147.25785,115.789025 L148.50525,115.10435 Z" id="Path" stroke="#000000" stroke-width="0.6" fill="#FF9A08"></path>
                <path d="M156.82125,103.9974 L156.85905,125.488588 M155.53605,104.415813 L155.61165,123.891013 M154.13745,107.230587 L154.21305,122.749887 M153.00345,108.333675 L153.07905,121.152313 M151.79385,108.904238 L151.79385,119.744925 M150.47085,109.7791 L150.47085,118.2995 M149.33685,110.3877 L149.33685,116.968187" id="Shape" stroke="#000000" stroke-width="0.6"></path>
                <path d="M148.31625,116.435663 L160.07205,129.977013 M160.63905,107.915263 C160.63905,107.915263 165.93105,119.630813 161.01705,129.2543 M146.95545,113.963225 C146.95545,113.963225 147.33345,112.936213 147.82485,113.354625 M146.01045,110.9963 C146.01045,110.9963 143.89365,112.898175 145.06545,114.077337" id="Shape" stroke="#FFDF00" stroke-width="0.78" stroke-linecap="round"></path>
                <path d="M165.70425,84.446125 C165.70425,84.446125 165.89325,86.0817375 165.55305,87.336975 C165.21285,88.5922125 166.87605,92.053625 166.23345,92.7763375 M166.42245,96.1236375 L170.88285,96.0856" id="Shape" stroke="#000000" stroke-width="0.6"></path>
                <path d="M164.79705,97.9494375 C164.79705,98.0255125 165.32625,100.307762 165.17505,101.8673 M166.23345,98.748225 C166.12005,99.2427125 164.26785,104.529925 164.34345,104.720112 M167.36745,96.3518625 C167.36745,96.465975 167.21625,99.7372 166.72485,100.19365 M169.63545,96.1236375 C169.63545,96.1236375 172.54605,102.894312 172.50825,105.594975 C172.47045,108.295637 173.49105,113.696962 172.81065,116.093325 M170.54265,105.5189 C170.54265,105.5189 170.31585,110.53985 168.23685,112.5178 C166.15785,114.49575 173.22645,120.087262 173.22645,120.087262" id="Shape" stroke="#000000" stroke-width="0.6" stroke-linecap="round"></path>
                <path d="M170.46705,119.782962 C170.46705,119.782962 171.22305,126.705787 172.58385,127.200275 M164.04105,108.181525 C164.07885,108.219562 163.32285,112.8221 163.92765,113.58285 C164.53245,114.3436 169.55985,121.380537 169.33305,128.6457 M167.93445,126.477562 C167.93445,126.477562 167.78325,130.889912 163.73865,131.23225 M166.72485,123.62475 C166.72485,123.62475 167.93445,128.18925 163.81425,131.042062" id="Shape" stroke="#000000" stroke-width="0.78" stroke-linecap="round"></path>
                <path d="M168.31245,112.555837 C168.31245,112.555837 172.96185,117.424637 173.15085,119.554737 M169.67325,96.23775 C169.67325,96.23775 170.46705,99.661125 170.16465,100.307762" id="Shape" stroke="#000000" stroke-width="0.6" stroke-linecap="round"></path>
                <path d="M155.30925,103.350763 C155.30925,103.350763 154.81785,102.4759 154.89345,101.486925 C154.96905,100.49795 154.70445,99.0144875 157.84185,97.7972875 C159.73185,95.8954125 161.84865,94.71625 162.98265,94.10765 C164.68365,93.0045625 165.77985,93.270825 166.76265,92.89045 C167.40525,92.1297 167.36745,90.4940875 168.08565,89.010625 C168.76605,87.5271625 169.97565,84.4841625 171.26085,84.97865 C172.58385,85.4351 171.56325,89.391 171.07185,90.76035 C170.58045,92.1297 170.12685,93.575125 169.25745,94.41195 C168.38805,95.2868125 164.41905,96.8083125 163.66305,97.074575 C162.90705,97.3408375 159.31605,98.2157 158.40885,99.4329 C157.50165,100.688138 157.57725,102.551975 155.30925,103.350763 Z" id="Path" stroke="#000000" stroke-width="0.6" fill="#FFC6B5"></path>
                <path d="M155.04465,100.726175 C155.15805,100.688138 156.63225,100.231688 157.31265,101.524962" id="Path" stroke="#000000" stroke-width="0.6"></path>
                <path d="M166.08225,73.8717 C166.08225,73.8717 165.40185,74.93675 165.21285,75.621425 C165.06165,76.1159125 164.60805,75.5833875 164.38125,76.6484375 L164.75925,76.7245125 C164.60805,77.0288125 164.57025,77.5613375 164.53245,77.67545 C164.49465,77.7895625 164.26785,78.360125 164.30565,78.816575 C164.30565,79.0067625 164.72145,79.9577 168.12345,78.512275 C171.52545,77.06685 167.02725,72.882725 166.04445,73.8717 L166.08225,73.8717 Z" id="Path" stroke="#000000" stroke-width="0.78" fill="#FFC6B5" stroke-linejoin="round"></path>
                <path d="M165.66645,74.02385 C166.04445,73.8336625 168.50145,73.6054375 168.08565,78.4742375 C168.53925,78.3981625 168.84165,78.3220875 169.10625,78.816575 C169.40865,79.273025 169.37085,79.8435875 169.86225,79.8435875 C170.39145,79.8435875 170.42925,79.729475 170.58045,79.3491 C170.69385,78.968725 172.65945,79.80555 173.18865,78.055825 C173.07525,77.67545 171.97905,77.1809625 171.82785,76.534325 C172.13025,75.6594625 171.71445,72.80665 168.08565,72.6545 C166.23345,72.6545 165.85545,73.41525 165.66645,74.02385 Z" id="Path" stroke="#000000" stroke-width="0.78" fill="#C59200" stroke-linecap="round" stroke-linejoin="round"></path>
                <path d="M165.47745,74.9747875 C165.51525,75.012825 166.61145,75.3551625 166.72485,75.84965" id="Path" stroke="#000000" stroke-width="0.6" stroke-linecap="round"></path>
                <path d="M166.15625,76.28125 C166.15625,76.4375 166.03125,76.59375 165.875,76.59375 C165.71875,76.59375 165.59375,76.4375 165.59375,76.28125 C165.59375,76.125 165.71875,75.96875 165.90625,75.96875 C166.09375,75.96875 166.15625,76.125 166.15625,76.28125 Z" id="Path" fill="#000000"></path>
                <path d="M170.76945,76.2680625 C170.76945,76.2680625 170.39145,78.207975 172.13025,78.968725 M169.48425,76.534325 C169.48425,76.534325 170.12685,76.534325 170.12685,77.142925 C170.12685,77.7895625 169.59765,77.8656375 169.63545,78.3220875 C169.63545,78.816575 170.54265,79.0067625 170.58045,79.3871375 M166.61145,72.9588 C166.61145,72.9588 169.71105,73.339175 169.55985,74.099925 C169.37085,74.860675 168.87945,74.556375 168.91725,75.24105 C168.95505,75.925725 170.12685,75.469275 170.12685,75.469275 C170.12685,75.469275 170.20245,74.93675 170.73165,74.9747875 C171.26085,75.012825 170.99625,75.5833875 171.71445,75.5833875" id="Shape" stroke="#000000" stroke-width="0.78" stroke-linecap="round" stroke-linejoin="round"></path>
                <path d="M164.72145,77.7895625 L165.47745,77.751525" id="Path" stroke="#000000" stroke-width="0.78" stroke-linecap="round"></path>
                <path d="M166.61145,80.9086375 C166.61145,80.9086375 166.91385,82.2019125 165.85545,82.0497625" id="Path" stroke="#000000" stroke-width="0.6" stroke-linecap="round"></path>
                <g id="Group" fill-rule="nonzero">
                    <path d="M0,0 L0,8.90625 L107.375,79.53125 L120.9375,79.53125 L120.9375,70.625 L13.53125,0 L0,0 Z M120.90625,0 L120.90625,8.90625 L13.53125,79.53125 L0,79.53125 L0,70.625 L107.375,0 L120.9375,0 L120.90625,0 Z" id="Shape" fill="#FFFFFF"></path>
                    <path d="M50.375,0 L50.375,79.5 L70.53125,79.5 L70.53125,0.03125 L50.375,0.03125 L50.375,0 Z M0,26.5625 L0,53.03125 L120.90625,53.03125 L120.90625,26.5 L0,26.5 L0,26.5625 Z" id="Shape" fill="#FFFFFF"></path>
                    <path d="M0,31.8125 L0,47.71875 L120.90625,47.71875 L120.90625,31.8125 L0,31.8125 Z M54.40625,0.03125 L54.40625,79.5 L66.5,79.5 L66.5,0.03125 L54.40625,0.03125 Z M0,79.5 L40.3125,53 L49.3125,53 L9,79.5 L0,79.5 Z M0,0.03125 L40.3125,26.53125 L31.25,26.53125 L0,5.9375 L0,0 L0,0.03125 Z M71.59375,26.53125 L111.90625,0 L120.90625,0 L80.59375,26.5 L71.59375,26.5 L71.59375,26.53125 Z M120.90625,79.5 L80.59375,53 L89.625,53 L120.90625,73.59375 L120.90625,79.53125 L120.90625,79.5 Z" id="Shape" fill="#CC0000"></path>
                </g>
            </g>
        </g>
    </g>
</svg>