<?xml version="1.0" encoding="UTF-8"?>
<svg width="200px" height="150px" viewBox="0 0 200 150" version="1.1" xmlns="http://www.w3.org/2000/svg" xmlns:xlink="http://www.w3.org/1999/xlink">
    <!-- Generator: Sketch 52.5 (67469) - http://www.bohemiancoding.com/sketch -->
    <title>na</title>
    <desc>Created with Sketch.</desc>
    <defs>
        <polygon id="path-1" points="0 0 200 0 200 150 0 150"></polygon>
    </defs>
    <g id="Flags" stroke="none" stroke-width="1" fill="none" fill-rule="evenodd">
        <g id="Africa" transform="translate(-1170.000000, -1050.000000)">
            <g id="na" transform="translate(1170.000000, 1050.000000)">
                <mask id="mask-2" fill="white">
                    <use xlink:href="#path-1"></use>
                </mask>
                <g id="Path"></g>
                <g id="Group" mask="url(#mask-2)">
                    <g transform="translate(-8.437500, 0.000000)" id="Path">
                        <polygon fill="#FFFFFF" points="8.4375 0 208.4375 0 208.4375 150 8.4375 150"></polygon>
                        <polygon fill="#3662A2" points="0.1875 0.0625 0.4375 108.0625 168.59375 0"></polygon>
                        <polygon fill="#38A100" points="216.6875 149.875 216.25 37.59375 46.65625 149.9375 216.65625 149.875"></polygon>
                        <polygon fill="#C70000" points="0.3125 116.1875 0.4375 150 37.15625 149.96875 216.375 29.8125 216.15625 0.40625 179.90625 0.09375 0.3125 116.15625"></polygon>
                        <polygon fill="#FFE700" points="77.0625 53.75 70.25 49.625 66.3125 56.53125 62.5 49.59375 55.625 53.625 55.8125 45.6875 47.875 45.75 52 38.9375 45.09375 35.03125 52.03125 31.1875 48.03125 24.3125 55.96875 24.5 55.9375 16.53125 62.71875 20.65625 66.65625 13.75 70.46875 20.6875 77.34375 16.65625 77.15625 24.59375 85.09375 24.53125 80.96875 31.34375 87.875 35.25 80.9375 39.09375 84.9375 45.96875 77 45.78125"></polygon>
                        <path d="M81.0625,35.125 C81.0625,43.125 74.53125,49.59375 66.5,49.59375 C58.46875,49.59375 51.9375,43.125 51.9375,35.125 C51.9375,27.125 58.4375,20.6875 66.5,20.6875 C74.5625,20.6875 81.0625,27.15625 81.0625,35.125 Z" fill="#3662A2"></path>
                        <path d="M77.90625,35.125 C77.90625,41.4244979 72.7994979,46.53125 66.5,46.53125 C60.2005021,46.53125 55.09375,41.4244979 55.09375,35.125 C55.0937502,28.8255022 60.2005022,23.7187503 66.5,23.7187503 C72.7994978,23.7187503 77.9062498,28.8255022 77.90625,35.125 Z" fill="#FFE700"></path>
                    </g>
                </g>
            </g>
        </g>
    </g>
</svg>