<?xml version="1.0" encoding="UTF-8"?>
<svg width="193px" height="144px" viewBox="0 0 193 144" version="1.1" xmlns="http://www.w3.org/2000/svg" xmlns:xlink="http://www.w3.org/1999/xlink">
    <!-- Generator: Sketch 52.5 (67469) - http://www.bohemiancoding.com/sketch -->
    <title>nz</title>
    <desc>Created with Sketch.</desc>
    <g id="Flags" stroke="none" stroke-width="1" fill="none" fill-rule="evenodd">
        <g id="Oceania" transform="translate(-290.000000, -450.000000)">
            <g id="nz" transform="translate(290.000000, 450.000000)">
                <polygon id="Path" fill="#00247D" points="0 0 192.481203 0 192.481203 144 0 144"></polygon>
                <g id="Group" transform="translate(134.620827, 7.421925)">
                    <g id="b-link" transform="translate(0.040195, 0.160380)" fill="#FFFFFF">
                        <g id="b">
                            <g id="a" transform="translate(9.124376, 18.203130)">
                                <polygon id="Path" points="9.12437594 6.3710955 9.12437594 10.921878 18.2487519 6.3710955"></polygon>
                                <polygon id="Path" transform="translate(13.418405, 6.913086) rotate(-36.000000) translate(-13.418405, -6.913086) " points="8.86286956 9.18502384 8.85744594 4.63030084 17.9793645 9.19587108"></polygon>
                            </g>
                            <g id="a-link" transform="translate(13.686564, 27.304695) scale(-1, 1) translate(-13.686564, -27.304695) translate(0.000000, 18.203130)">
                                <g id="a">
                                    <polygon id="Path" points="9.12437594 6.3710955 9.12437594 10.921878 18.2487519 6.3710955"></polygon>
                                    <polygon id="Path" transform="translate(13.418405, 6.913086) rotate(-36.000000) translate(-13.418405, -6.913086) " points="8.86286956 9.18502384 8.85744594 4.63030084 17.9793645 9.19587108"></polygon>
                                </g>
                            </g>
                            <g id="a-link" transform="translate(19.658545, 31.632746) rotate(72.000000) translate(-19.658545, -31.632746) translate(5.971982, 22.531181)">
                                <g id="a">
                                    <polygon id="Path" points="9.12437594 6.3710955 9.12437594 10.921878 18.2487519 6.3710955"></polygon>
                                    <polygon id="Path" transform="translate(13.418405, 6.913086) rotate(-36.000000) translate(-13.418405, -6.913086) " points="8.86286956 9.18502384 8.85744594 4.63030084 17.9793645 9.19587108"></polygon>
                                </g>
                            </g>
                            <g id="a-link" transform="translate(19.658545, 22.976644) rotate(-72.000000) translate(-19.658545, -22.976644) translate(5.971982, 13.875079)">
                                <g id="a">
                                    <polygon id="Path" points="9.12437594 6.3710955 9.12437594 10.921878 18.2487519 6.3710955"></polygon>
                                    <polygon id="Path" transform="translate(13.418405, 6.913086) rotate(-36.000000) translate(-13.418405, -6.913086) " points="8.86286956 9.18502384 8.85744594 4.63030084 17.9793645 9.19587108"></polygon>
                                </g>
                            </g>
                            <g id="a-link" transform="translate(16.838958, 31.632746) scale(-1, 1) rotate(72.000000) translate(-16.838958, -31.632746) translate(3.152394, 22.531181)">
                                <g id="a">
                                    <polygon id="Path" points="9.12437594 6.3710955 9.12437594 10.921878 18.2487519 6.3710955"></polygon>
                                    <polygon id="Path" transform="translate(13.418405, 6.913086) rotate(-36.000000) translate(-13.418405, -6.913086) " points="8.86286956 9.18502384 8.85744594 4.63030084 17.9793645 9.19587108"></polygon>
                                </g>
                            </g>
                        </g>
                    </g>
                    <g id="b-link" transform="translate(6.230301, 9.422325)" fill="#CC142B">
                        <g id="b">
                            <g id="a" transform="translate(6.029323, 12.028500)">
                                <polygon id="Path" points="6.02932331 4.209975 6.02932331 7.2171 12.0586466 4.209975"></polygon>
                                <polygon id="Path" transform="translate(8.866788, 4.568118) rotate(-36.000000) translate(-8.866788, -4.568118) " points="5.85652174 6.06939901 5.85293785 3.05967016 11.8806373 6.07656679"></polygon>
                            </g>
                            <g id="a-link" transform="translate(9.043985, 18.042750) scale(-1, 1) translate(-9.043985, -18.042750) translate(0.000000, 12.028500)">
                                <g id="a">
                                    <polygon id="Path" points="6.02932331 4.209975 6.02932331 7.2171 12.0586466 4.209975"></polygon>
                                    <polygon id="Path" transform="translate(8.866788, 4.568118) rotate(-36.000000) translate(-8.866788, -4.568118) " points="5.85652174 6.06939901 5.85293785 3.05967016 11.8806373 6.07656679"></polygon>
                                </g>
                            </g>
                            <g id="a-link" transform="translate(12.990228, 20.902696) rotate(72.000000) translate(-12.990228, -20.902696) translate(3.946243, 14.888446)">
                                <g id="a">
                                    <polygon id="Path" points="6.02932331 4.209975 6.02932331 7.2171 12.0586466 4.209975"></polygon>
                                    <polygon id="Path" transform="translate(8.866788, 4.568118) rotate(-36.000000) translate(-8.866788, -4.568118) " points="5.85652174 6.06939901 5.85293785 3.05967016 11.8806373 6.07656679"></polygon>
                                </g>
                            </g>
                            <g id="a-link" transform="translate(12.990228, 15.182804) rotate(-72.000000) translate(-12.990228, -15.182804) translate(3.946243, 9.168554)">
                                <g id="a">
                                    <polygon id="Path" points="6.02932331 4.209975 6.02932331 7.2171 12.0586466 4.209975"></polygon>
                                    <polygon id="Path" transform="translate(8.866788, 4.568118) rotate(-36.000000) translate(-8.866788, -4.568118) " points="5.85652174 6.06939901 5.85293785 3.05967016 11.8806373 6.07656679"></polygon>
                                </g>
                            </g>
                            <g id="a-link" transform="translate(11.127065, 20.902696) scale(-1, 1) rotate(72.000000) translate(-11.127065, -20.902696) translate(2.083080, 14.888446)">
                                <g id="a">
                                    <polygon id="Path" points="6.02932331 4.209975 6.02932331 7.2171 12.0586466 4.209975"></polygon>
                                    <polygon id="Path" transform="translate(8.866788, 4.568118) rotate(-36.000000) translate(-8.866788, -4.568118) " points="5.85652174 6.06939901 5.85293785 3.05967016 11.8806373 6.07656679"></polygon>
                                </g>
                            </g>
                        </g>
                    </g>
                </g>
                <g id="Group" transform="translate(176.821000, 55.600327) rotate(82.000000) translate(-176.821000, -55.600327) translate(150.291977, 36.154252)">
                    <g id="b-link" transform="translate(26.532008, 19.435782) rotate(-82.000000) translate(-26.532008, -19.435782) translate(10.293031, -4.861788)" fill="#FFFFFF">
                        <g id="b">
                            <g id="a" transform="translate(8.119489, 16.198380)">
                                <polygon id="Path" points="8.11948872 5.669433 8.11948872 9.719028 16.2389774 5.669433"></polygon>
                                <polygon id="Path" transform="translate(11.940607, 6.151733) rotate(-36.000000) translate(-11.940607, -6.151733) " points="7.88678261 8.17345733 7.8819563 4.12035582 15.9992583 8.18310995"></polygon>
                            </g>
                            <g id="a-link" transform="translate(12.179233, 24.297570) scale(-1, 1) translate(-12.179233, -24.297570) translate(0.000000, 16.198380)">
                                <g id="a">
                                    <polygon id="Path" points="8.11948872 5.669433 8.11948872 9.719028 16.2389774 5.669433"></polygon>
                                    <polygon id="Path" transform="translate(11.940607, 6.151733) rotate(-36.000000) translate(-11.940607, -6.151733) " points="7.88678261 8.17345733 7.8819563 4.12035582 15.9992583 8.18310995"></polygon>
                                </g>
                            </g>
                            <g id="a-link" transform="translate(17.493507, 28.148964) rotate(72.000000) translate(-17.493507, -28.148964) translate(5.314274, 20.049774)">
                                <g id="a">
                                    <polygon id="Path" points="8.11948872 5.669433 8.11948872 9.719028 16.2389774 5.669433"></polygon>
                                    <polygon id="Path" transform="translate(11.940607, 6.151733) rotate(-36.000000) translate(-11.940607, -6.151733) " points="7.88678261 8.17345733 7.8819563 4.12035582 15.9992583 8.18310995"></polygon>
                                </g>
                            </g>
                            <g id="a-link" transform="translate(17.493507, 20.446176) rotate(-72.000000) translate(-17.493507, -20.446176) translate(5.314274, 12.346986)">
                                <g id="a">
                                    <polygon id="Path" points="8.11948872 5.669433 8.11948872 9.719028 16.2389774 5.669433"></polygon>
                                    <polygon id="Path" transform="translate(11.940607, 6.151733) rotate(-36.000000) translate(-11.940607, -6.151733) " points="7.88678261 8.17345733 7.8819563 4.12035582 15.9992583 8.18310995"></polygon>
                                </g>
                            </g>
                            <g id="a-link" transform="translate(14.984447, 28.148964) scale(-1, 1) rotate(72.000000) translate(-14.984447, -28.148964) translate(2.805214, 20.049774)">
                                <g id="a">
                                    <polygon id="Path" points="8.11948872 5.669433 8.11948872 9.719028 16.2389774 5.669433"></polygon>
                                    <polygon id="Path" transform="translate(11.940607, 6.151733) rotate(-36.000000) translate(-11.940607, -6.151733) " points="7.88678261 8.17345733 7.8819563 4.12035582 15.9992583 8.18310995"></polygon>
                                </g>
                            </g>
                        </g>
                    </g>
                    <g id="b-link" transform="translate(26.532008, 19.435782) rotate(-82.000000) translate(-26.532008, -19.435782) translate(16.483136, 4.400157)" fill="#CC142B">
                        <g id="b">
                            <g id="a" transform="translate(5.024436, 10.023750)">
                                <polygon id="Path" points="5.02443609 3.5083125 5.02443609 6.01425 10.0488722 3.5083125"></polygon>
                                <polygon id="Path" transform="translate(7.388990, 3.806765) rotate(-36.000000) translate(-7.388990, -3.806765) " points="4.88043478 5.05783251 4.87744821 2.54972513 9.90053112 5.06380566"></polygon>
                            </g>
                            <g id="a-link" transform="translate(7.536654, 15.035625) scale(-1, 1) translate(-7.536654, -15.035625) translate(0.000000, 10.023750)">
                                <g id="a">
                                    <polygon id="Path" points="5.02443609 3.5083125 5.02443609 6.01425 10.0488722 3.5083125"></polygon>
                                    <polygon id="Path" transform="translate(7.388990, 3.806765) rotate(-36.000000) translate(-7.388990, -3.806765) " points="4.88043478 5.05783251 4.87744821 2.54972513 9.90053112 5.06380566"></polygon>
                                </g>
                            </g>
                            <g id="a-link" transform="translate(10.825190, 17.418913) rotate(72.000000) translate(-10.825190, -17.418913) translate(3.288536, 12.407038)">
                                <g id="a">
                                    <polygon id="Path" points="5.02443609 3.5083125 5.02443609 6.01425 10.0488722 3.5083125"></polygon>
                                    <polygon id="Path" transform="translate(7.388990, 3.806765) rotate(-36.000000) translate(-7.388990, -3.806765) " points="4.88043478 5.05783251 4.87744821 2.54972513 9.90053112 5.06380566"></polygon>
                                </g>
                            </g>
                            <g id="a-link" transform="translate(10.825190, 12.652337) rotate(-72.000000) translate(-10.825190, -12.652337) translate(3.288536, 7.640462)">
                                <g id="a">
                                    <polygon id="Path" points="5.02443609 3.5083125 5.02443609 6.01425 10.0488722 3.5083125"></polygon>
                                    <polygon id="Path" transform="translate(7.388990, 3.806765) rotate(-36.000000) translate(-7.388990, -3.806765) " points="4.88043478 5.05783251 4.87744821 2.54972513 9.90053112 5.06380566"></polygon>
                                </g>
                            </g>
                            <g id="a-link" transform="translate(9.272554, 17.418913) scale(-1, 1) rotate(72.000000) translate(-9.272554, -17.418913) translate(1.735900, 12.407038)">
                                <g id="a">
                                    <polygon id="Path" points="5.02443609 3.5083125 5.02443609 6.01425 10.0488722 3.5083125"></polygon>
                                    <polygon id="Path" transform="translate(7.388990, 3.806765) rotate(-36.000000) translate(-7.388990, -3.806765) " points="4.88043478 5.05783251 4.87744821 2.54972513 9.90053112 5.06380566"></polygon>
                                </g>
                            </g>
                        </g>
                    </g>
                </g>
                <g id="Group" transform="translate(125.075398, 62.854516) rotate(82.000000) translate(-125.075398, -62.854516) translate(95.330736, 41.002741)">
                    <g id="b-link" transform="translate(29.756662, 21.851826) rotate(-82.000000) translate(-29.756662, -21.851826) translate(11.507910, -5.452869)" fill="#FFFFFF">
                        <g id="b">
                            <g id="a" transform="translate(9.124376, 18.203130)">
                                <polygon id="Path" points="9.12437594 6.3710955 9.12437594 10.921878 18.2487519 6.3710955"></polygon>
                                <polygon id="Path" transform="translate(13.418405, 6.913086) rotate(-36.000000) translate(-13.418405, -6.913086) " points="8.86286956 9.18502384 8.85744594 4.63030084 17.9793645 9.19587108"></polygon>
                            </g>
                            <g id="a-link" transform="translate(13.686564, 27.304695) scale(-1, 1) translate(-13.686564, -27.304695) translate(0.000000, 18.203130)">
                                <g id="a">
                                    <polygon id="Path" points="9.12437594 6.3710955 9.12437594 10.921878 18.2487519 6.3710955"></polygon>
                                    <polygon id="Path" transform="translate(13.418405, 6.913086) rotate(-36.000000) translate(-13.418405, -6.913086) " points="8.86286956 9.18502384 8.85744594 4.63030084 17.9793645 9.19587108"></polygon>
                                </g>
                            </g>
                            <g id="a-link" transform="translate(19.658545, 31.632746) rotate(72.000000) translate(-19.658545, -31.632746) translate(5.971982, 22.531181)">
                                <g id="a">
                                    <polygon id="Path" points="9.12437594 6.3710955 9.12437594 10.921878 18.2487519 6.3710955"></polygon>
                                    <polygon id="Path" transform="translate(13.418405, 6.913086) rotate(-36.000000) translate(-13.418405, -6.913086) " points="8.86286956 9.18502384 8.85744594 4.63030084 17.9793645 9.19587108"></polygon>
                                </g>
                            </g>
                            <g id="a-link" transform="translate(19.658545, 22.976644) rotate(-72.000000) translate(-19.658545, -22.976644) translate(5.971982, 13.875079)">
                                <g id="a">
                                    <polygon id="Path" points="9.12437594 6.3710955 9.12437594 10.921878 18.2487519 6.3710955"></polygon>
                                    <polygon id="Path" transform="translate(13.418405, 6.913086) rotate(-36.000000) translate(-13.418405, -6.913086) " points="8.86286956 9.18502384 8.85744594 4.63030084 17.9793645 9.19587108"></polygon>
                                </g>
                            </g>
                            <g id="a-link" transform="translate(16.838958, 31.632746) scale(-1, 1) rotate(72.000000) translate(-16.838958, -31.632746) translate(3.152394, 22.531181)">
                                <g id="a">
                                    <polygon id="Path" points="9.12437594 6.3710955 9.12437594 10.921878 18.2487519 6.3710955"></polygon>
                                    <polygon id="Path" transform="translate(13.418405, 6.913086) rotate(-36.000000) translate(-13.418405, -6.913086) " points="8.86286956 9.18502384 8.85744594 4.63030084 17.9793645 9.19587108"></polygon>
                                </g>
                            </g>
                        </g>
                    </g>
                    <g id="b-link" transform="translate(29.756662, 21.851826) rotate(-82.000000) translate(-29.756662, -21.851826) translate(17.698016, 3.809076)" fill="#CC142B">
                        <g id="b">
                            <g id="a" transform="translate(6.029323, 12.028500)">
                                <polygon id="Path" points="6.02932331 4.209975 6.02932331 7.2171 12.0586466 4.209975"></polygon>
                                <polygon id="Path" transform="translate(8.866788, 4.568118) rotate(-36.000000) translate(-8.866788, -4.568118) " points="5.85652174 6.06939901 5.85293785 3.05967016 11.8806373 6.07656679"></polygon>
                            </g>
                            <g id="a-link" transform="translate(9.043985, 18.042750) scale(-1, 1) translate(-9.043985, -18.042750) translate(0.000000, 12.028500)">
                                <g id="a">
                                    <polygon id="Path" points="6.02932331 4.209975 6.02932331 7.2171 12.0586466 4.209975"></polygon>
                                    <polygon id="Path" transform="translate(8.866788, 4.568118) rotate(-36.000000) translate(-8.866788, -4.568118) " points="5.85652174 6.06939901 5.85293785 3.05967016 11.8806373 6.07656679"></polygon>
                                </g>
                            </g>
                            <g id="a-link" transform="translate(12.990228, 20.902696) rotate(72.000000) translate(-12.990228, -20.902696) translate(3.946243, 14.888446)">
                                <g id="a">
                                    <polygon id="Path" points="6.02932331 4.209975 6.02932331 7.2171 12.0586466 4.209975"></polygon>
                                    <polygon id="Path" transform="translate(8.866788, 4.568118) rotate(-36.000000) translate(-8.866788, -4.568118) " points="5.85652174 6.06939901 5.85293785 3.05967016 11.8806373 6.07656679"></polygon>
                                </g>
                            </g>
                            <g id="a-link" transform="translate(12.990228, 15.182804) rotate(-72.000000) translate(-12.990228, -15.182804) translate(3.946243, 9.168554)">
                                <g id="a">
                                    <polygon id="Path" points="6.02932331 4.209975 6.02932331 7.2171 12.0586466 4.209975"></polygon>
                                    <polygon id="Path" transform="translate(8.866788, 4.568118) rotate(-36.000000) translate(-8.866788, -4.568118) " points="5.85652174 6.06939901 5.85293785 3.05967016 11.8806373 6.07656679"></polygon>
                                </g>
                            </g>
                            <g id="a-link" transform="translate(11.127065, 20.902696) scale(-1, 1) rotate(72.000000) translate(-11.127065, -20.902696) translate(2.083080, 14.888446)">
                                <g id="a">
                                    <polygon id="Path" points="6.02932331 4.209975 6.02932331 7.2171 12.0586466 4.209975"></polygon>
                                    <polygon id="Path" transform="translate(8.866788, 4.568118) rotate(-36.000000) translate(-8.866788, -4.568118) " points="5.85652174 6.06939901 5.85293785 3.05967016 11.8806373 6.07656679"></polygon>
                                </g>
                            </g>
                        </g>
                    </g>
                </g>
                <g id="Group" transform="translate(132.611053, 76.585800)">
                    <g id="b-link" transform="translate(0.040195, 0.160380)" fill="#FFFFFF">
                        <g id="b">
                            <g id="a" transform="translate(10.129263, 20.207880)">
                                <polygon id="Path" points="10.1292632 7.072758 10.1292632 12.124728 20.2585263 7.072758"></polygon>
                                <polygon id="Path" transform="translate(14.896203, 7.674439) rotate(-36.000000) translate(-14.896203, -7.674439) " points="9.83895652 10.1965903 9.83293558 5.14024587 19.9594707 10.2086322"></polygon>
                            </g>
                            <g id="a-link" transform="translate(15.193895, 30.311820) scale(-1, 1) translate(-15.193895, -30.311820) translate(0.000000, 20.207880)">
                                <g id="a">
                                    <polygon id="Path" points="10.1292632 7.072758 10.1292632 12.124728 20.2585263 7.072758"></polygon>
                                    <polygon id="Path" transform="translate(14.896203, 7.674439) rotate(-36.000000) translate(-14.896203, -7.674439) " points="9.83895652 10.1965903 9.83293558 5.14024587 19.9594707 10.2086322"></polygon>
                                </g>
                            </g>
                            <g id="a-link" transform="translate(21.823584, 35.116529) rotate(72.000000) translate(-21.823584, -35.116529) translate(6.629689, 25.012589)">
                                <g id="a">
                                    <polygon id="Path" points="10.1292632 7.072758 10.1292632 12.124728 20.2585263 7.072758"></polygon>
                                    <polygon id="Path" transform="translate(14.896203, 7.674439) rotate(-36.000000) translate(-14.896203, -7.674439) " points="9.83895652 10.1965903 9.83293558 5.14024587 19.9594707 10.2086322"></polygon>
                                </g>
                            </g>
                            <g id="a-link" transform="translate(21.823584, 25.507111) rotate(-72.000000) translate(-21.823584, -25.507111) translate(6.629689, 15.403171)">
                                <g id="a">
                                    <polygon id="Path" points="10.1292632 7.072758 10.1292632 12.124728 20.2585263 7.072758"></polygon>
                                    <polygon id="Path" transform="translate(14.896203, 7.674439) rotate(-36.000000) translate(-14.896203, -7.674439) " points="9.83895652 10.1965903 9.83293558 5.14024587 19.9594707 10.2086322"></polygon>
                                </g>
                            </g>
                            <g id="a-link" transform="translate(18.693469, 35.116529) scale(-1, 1) rotate(72.000000) translate(-18.693469, -35.116529) translate(3.499574, 25.012589)">
                                <g id="a">
                                    <polygon id="Path" points="10.1292632 7.072758 10.1292632 12.124728 20.2585263 7.072758"></polygon>
                                    <polygon id="Path" transform="translate(14.896203, 7.674439) rotate(-36.000000) translate(-14.896203, -7.674439) " points="9.83895652 10.1965903 9.83293558 5.14024587 19.9594707 10.2086322"></polygon>
                                </g>
                            </g>
                        </g>
                    </g>
                    <g id="b-link" transform="translate(6.230301, 9.422325)" fill="#CC142B">
                        <g id="b">
                            <g id="a" transform="translate(7.034211, 14.033250)">
                                <polygon id="Path" points="7.03421053 4.9116375 7.03421053 8.41995 14.0684211 4.9116375"></polygon>
                                <polygon id="Path" transform="translate(10.344586, 5.329472) rotate(-36.000000) translate(-10.344586, -5.329472) " points="6.83260869 7.08096551 6.82842749 3.56961519 13.8607436 7.08932793"></polygon>
                            </g>
                            <g id="a-link" transform="translate(10.551316, 21.049875) scale(-1, 1) translate(-10.551316, -21.049875) translate(0.000000, 14.033250)">
                                <g id="a">
                                    <polygon id="Path" points="7.03421053 4.9116375 7.03421053 8.41995 14.0684211 4.9116375"></polygon>
                                    <polygon id="Path" transform="translate(10.344586, 5.329472) rotate(-36.000000) translate(-10.344586, -5.329472) " points="6.83260869 7.08096551 6.82842749 3.56961519 13.8607436 7.08932793"></polygon>
                                </g>
                            </g>
                            <g id="a-link" transform="translate(15.155266, 24.386478) rotate(72.000000) translate(-15.155266, -24.386478) translate(4.603951, 17.369853)">
                                <g id="a">
                                    <polygon id="Path" points="7.03421053 4.9116375 7.03421053 8.41995 14.0684211 4.9116375"></polygon>
                                    <polygon id="Path" transform="translate(10.344586, 5.329472) rotate(-36.000000) translate(-10.344586, -5.329472) " points="6.83260869 7.08096551 6.82842749 3.56961519 13.8607436 7.08932793"></polygon>
                                </g>
                            </g>
                            <g id="a-link" transform="translate(15.155266, 17.713272) rotate(-72.000000) translate(-15.155266, -17.713272) translate(4.603951, 10.696647)">
                                <g id="a">
                                    <polygon id="Path" points="7.03421053 4.9116375 7.03421053 8.41995 14.0684211 4.9116375"></polygon>
                                    <polygon id="Path" transform="translate(10.344586, 5.329472) rotate(-36.000000) translate(-10.344586, -5.329472) " points="6.83260869 7.08096551 6.82842749 3.56961519 13.8607436 7.08932793"></polygon>
                                </g>
                            </g>
                            <g id="a-link" transform="translate(12.981576, 24.386478) scale(-1, 1) rotate(72.000000) translate(-12.981576, -24.386478) translate(2.430260, 17.369853)">
                                <g id="a">
                                    <polygon id="Path" points="7.03421053 4.9116375 7.03421053 8.41995 14.0684211 4.9116375"></polygon>
                                    <polygon id="Path" transform="translate(10.344586, 5.329472) rotate(-36.000000) translate(-10.344586, -5.329472) " points="6.83260869 7.08096551 6.82842749 3.56961519 13.8607436 7.08932793"></polygon>
                                </g>
                            </g>
                        </g>
                    </g>
                </g>
                <path d="M0,0 L0,7.3584 L95.88304,65.7 L107.969925,65.7 L107.969925,58.3416 L12.0868848,0 L0,0 Z M107.969925,0 L107.969925,7.3584 L12.0868848,65.7 L0,65.7 L0,58.3416 L95.88304,0 L107.969925,0 Z" id="Shape" fill="#FFFFFF" fill-rule="nonzero"></path>
                <path d="M44.9744552,0 L44.9744552,65.7 L62.9642373,65.7 L62.9642373,0 L44.9744552,0 Z M0,21.89124 L0,43.80876 L107.969925,43.80876 L107.969925,21.89124 L0,21.89124 Z" id="Shape" fill="#FFFFFF" fill-rule="nonzero"></path>
                <path d="M0,26.28 L0,39.42 L107.969925,39.42 L107.969925,26.28 L0,26.28 Z M48.5973975,0 L48.5973975,65.7 L59.3412951,65.7 L59.3412951,0 L48.5661652,0 L48.5973975,0 Z M0,65.7 L35.9795642,43.80876 L44.0374874,43.80876 L8.05792323,65.7 L0,65.7 Z M0,0 L35.9795642,21.89124 L27.9528732,21.89124 L0,4.88808 L0,0 Z M63.9324374,21.89124 L99.9120016,0 L107.969925,0 L71.9903606,21.89124 L63.9324374,21.89124 Z M107.969925,65.7 L71.9903606,43.80876 L80.0170516,43.80876 L107.969925,60.81192 L107.969925,65.7 Z" id="Shape" fill="#CC0000" fill-rule="nonzero"></path>
            </g>
        </g>
    </g>
</svg>