<?xml version="1.0" encoding="UTF-8"?>
<svg width="200px" height="150px" viewBox="0 0 200 150" version="1.1" xmlns="http://www.w3.org/2000/svg" xmlns:xlink="http://www.w3.org/1999/xlink">
    <!-- Generator: Sketch 52.5 (67469) - http://www.bohemiancoding.com/sketch -->
    <title>ni</title>
    <desc>Created with Sketch.</desc>
    <defs>
        <polygon id="path-1" points="20 0.125 0.09375 34.59375 39.90625 34.59375"></polygon>
        <linearGradient x1="36.7585924%" y1="75.5102041%" x2="55.9589568%" y2="17.3469388%" id="linearGradient-3">
            <stop stop-color="#510000" offset="0%"></stop>
            <stop stop-color="#8A0000" offset="30%"></stop>
            <stop stop-color="#AA0000" offset="100%"></stop>
        </linearGradient>
        <linearGradient x1="63.3484163%" y1="65.8209%" x2="78.6199095%" y2="18.8815521%" id="linearGradient-4">
            <stop stop-color="#FF2A2A" offset="0%"></stop>
            <stop stop-color="#FF0000" offset="100%"></stop>
        </linearGradient>
        <linearGradient x1="88.9%" y1="63.5%" x2="126.88%" y2="63.5%" id="linearGradient-5">
            <stop stop-color="#002255" offset="0%"></stop>
            <stop stop-color="#0044AA" offset="50%"></stop>
            <stop stop-color="#002255" offset="100%"></stop>
        </linearGradient>
        <linearGradient x1="0%" y1="-299.079337%" x2="171.081081%" y2="-299.079337%" id="linearGradient-6">
            <stop stop-color="#002255" offset="0%"></stop>
            <stop stop-color="#0044AA" offset="50%"></stop>
            <stop stop-color="#002255" offset="100%"></stop>
        </linearGradient>
        <linearGradient x1="69.453125%" y1="66.375%" x2="99.125%" y2="66.375%" id="linearGradient-7">
            <stop stop-color="#002255" offset="0%"></stop>
            <stop stop-color="#0044AA" offset="50%"></stop>
            <stop stop-color="#002255" offset="100%"></stop>
        </linearGradient>
        <linearGradient x1="69.453125%" y1="66.6041667%" x2="99.125%" y2="66.6041667%" id="linearGradient-8">
            <stop stop-color="#002255" offset="0%"></stop>
            <stop stop-color="#0044AA" offset="50%"></stop>
            <stop stop-color="#002255" offset="100%"></stop>
        </linearGradient>
        <linearGradient x1="69.453125%" y1="66.8333333%" x2="99.125%" y2="66.8333333%" id="linearGradient-9">
            <stop stop-color="#002255" offset="0%"></stop>
            <stop stop-color="#0044AA" offset="50%"></stop>
            <stop stop-color="#002255" offset="100%"></stop>
        </linearGradient>
        <linearGradient x1="69.453125%" y1="66.1458333%" x2="99.125%" y2="66.1458333%" id="linearGradient-10">
            <stop stop-color="#002255" offset="0%"></stop>
            <stop stop-color="#0044AA" offset="50%"></stop>
            <stop stop-color="#002255" offset="100%"></stop>
        </linearGradient>
        <linearGradient x1="69.453125%" y1="67.5416667%" x2="99.125%" y2="67.5416667%" id="linearGradient-11">
            <stop stop-color="#002255" offset="0%"></stop>
            <stop stop-color="#0044AA" offset="50%"></stop>
            <stop stop-color="#002255" offset="100%"></stop>
        </linearGradient>
        <linearGradient x1="-6.17408907%" y1="217.391304%" x2="186.032389%" y2="217.391304%" id="linearGradient-12">
            <stop stop-color="#002255" offset="0%"></stop>
            <stop stop-color="#0044AA" offset="50%"></stop>
            <stop stop-color="#002255" offset="100%"></stop>
        </linearGradient>
        <linearGradient x1="-15.1408451%" y1="520%" x2="207.746479%" y2="520%" id="linearGradient-13">
            <stop stop-color="#002255" offset="0%"></stop>
            <stop stop-color="#0044AA" offset="50%"></stop>
            <stop stop-color="#002255" offset="100%"></stop>
        </linearGradient>
        <linearGradient x1="-21.1726384%" y1="44.5454545%" x2="-21.1726384%" y2="62.4242424%" id="linearGradient-14">
            <stop stop-color="#F5F549" offset="0%"></stop>
            <stop stop-color="#97C924" offset="100%"></stop>
        </linearGradient>
        <linearGradient x1="26.899696%" y1="44.3768997%" x2="26.899696%" y2="62.3100304%" id="linearGradient-15">
            <stop stop-color="#F5F549" offset="0%"></stop>
            <stop stop-color="#97C924" offset="100%"></stop>
        </linearGradient>
        <linearGradient x1="58.3673469%" y1="44.5454545%" x2="58.3673469%" y2="62.4242424%" id="linearGradient-16">
            <stop stop-color="#F5F549" offset="0%"></stop>
            <stop stop-color="#97C924" offset="100%"></stop>
        </linearGradient>
        <linearGradient x1="0.0104432014%" y1="0.394440678%" x2="100.123709%" y2="0.394440678%" id="linearGradient-17">
            <stop stop-color="#002255" offset="0%"></stop>
            <stop stop-color="#0044AA" offset="50%"></stop>
            <stop stop-color="#002255" offset="100%"></stop>
        </linearGradient>
        <linearGradient x1="0.348576498%" y1="2.52%" x2="99.6481743%" y2="2.52%" id="linearGradient-18">
            <stop stop-color="#002255" offset="0%"></stop>
            <stop stop-color="#0044AA" offset="50%"></stop>
            <stop stop-color="#002255" offset="100%"></stop>
        </linearGradient>
    </defs>
    <g id="Flags" stroke="none" stroke-width="1" fill="none" fill-rule="evenodd">
        <g id="North-America" transform="translate(-510.000000, -850.000000)">
            <g id="ni" transform="translate(510.000000, 850.000000)">
                <polygon id="Path" fill="#0067C6" points="0 0 200 0 200 150 0 150"></polygon>
                <polygon id="Path" fill="#FFFFFF" points="0 50 200 50 200 100 0 100"></polygon>
                <path d="M77.5,74.84375 L80,75 L80,74.625 L79.0625,74.5625 L79.125,73.375 L80.15625,72.625 L80.1875,72.15625 L79.09375,72.9375 C79.0625,72.6875 78.90625,72.40625 78.65625,72.3125 C78.40625,72.25 78.15625,72.25 77.9375,72.40625 C77.6875,72.59375 77.625,72.90625 77.625,73.1875 L77.5,74.84375 Z M77.875,74.5 L77.96875,73.25 C78,73.0625 78.03125,72.8125 78.21875,72.6875 C78.2990631,72.6337274 78.3997383,72.6201434 78.4914308,72.6507076 C78.5831233,72.6812717 78.6555131,72.752544 78.6875,72.84375 C78.8125,73.15625 78.75,73.5 78.71875,73.84375 L78.6875,74.53125 L77.875,74.5 Z M77.8125,71 L80.25,71.5625 L80.8125,69.1875 C80.6978581,69.1669902 80.5832743,69.1461568 80.46875,69.125 L80,71.125 L79.25,70.96875 L79.6875,69.15625 L79.34375,69.0625 L78.90625,70.875 L78.28125,70.71875 L78.71875,68.78125 L78.34375,68.71875 L77.8125,71 Z M78.6875,67.71875 L81.0625,68.5625 L81.1875,68.21875 L80.25,67.90625 L80.625,66.8125 C80.6875,66.5 80.75,66.1875 80.59375,65.875 C80.4462075,65.6782767 80.2146541,65.5625 79.96875,65.5625 C79.65625,65.5625 79.46875,65.78125 79.34375,66.03125 C79.15625,66.34375 79.03125,66.71875 78.9375,67.09375 L78.6875,67.71875 Z M79.15625,67.5 L79.53125,66.4375 C79.625,66.25 79.71875,66.03125 79.9375,65.96875 C80.0253177,65.9505311 80.1167303,65.9709218 80.1884804,66.0247345 C80.2602306,66.0785471 80.3054012,66.1605937 80.3125,66.25 C80.375,66.5625 80.21875,66.875 80.125,67.1875 L79.90625,67.78125 L79.15625,67.5 Z M80,64.6875 L81.34375,65.5 C81.59375,65.625 81.90625,65.6875 82.1875,65.5625 C82.5262516,65.3327084 82.7876732,65.0059314 82.9375,64.625 C83.0625,64.3125 83.1875,63.9375 83,63.625 C82.8125,63.3125 82.46875,63.1875 82.15625,63 L81.3125,62.5 L81.125,62.8125 L82.375,63.5625 C82.59375,63.6875 82.75,63.875 82.71875,64.15625 C82.6564704,64.4423765 82.5280405,64.7099387 82.34375,64.9375 C82.21875,65.125 81.96875,65.28125 81.71875,65.25 C81.46875,65.1875 81.25,65 81.03125,64.875 L80.1875,64.40625 L80,64.71875 L80,64.6875 Z M81.8125,61.78125 L83.78125,63.28125 L84.71875,62.09375 C84.90625,61.8125 85.03125,61.46875 84.9375,61.15625 C84.8193741,60.911694 84.5827165,60.7460337 84.3125,60.71875 C84.15625,60.71875 84,60.8125 83.9375,60.84375 C84,60.5625 83.78125,60.3125 83.5625,60.25 C83.25,60.15625 82.9375,60.34375 82.75,60.5625 L82.125,61.34375 L81.8125,61.78125 Z M82.3125,61.6875 C82.53125,61.375 82.75,61.0625 83,60.8125 C83.125,60.6875 83.3125,60.5 83.46875,60.625 C83.625,60.6875 83.6875,60.90625 83.59375,61.03125 C83.46875,61.3125 83.28125,61.5 83.09375,61.75 L82.84375,62.09375 L82.3125,61.6875 Z M83.125,62.3125 L83.84375,61.375 C83.96875,61.25 84.15625,61.0625 84.34375,61.125 C84.53125,61.15625 84.65625,61.34375 84.59375,61.53125 C84.5,61.84375 84.25,62.09375 84.03125,62.375 L83.71875,62.78125 L83.09375,62.3125 L83.125,62.3125 Z M84.0625,59.125 L85.78125,60.9375 L87.25,59.53125 L87,59.28125 L85.8125,60.40625 L85.78125,60.40625 L84.3125,58.84375 L84.0625,59.125 Z M86.25,57.1875 L87.78125,59.15625 L88.09375,58.9375 L86.53125,56.96875 L86.25,57.1875 Z M88.5,55.65625 C88.2557727,55.7995571 88.0431524,55.9909153 87.875,56.21875 C87.5839144,56.6041803 87.5713376,57.1324031 87.84375,57.53125 C87.9647585,57.7300047 88.1376096,57.8920527 88.34375,58 C88.5356771,58.1010459 88.7527227,58.144455 88.96875,58.125 C89.2698245,58.0852175 89.5581472,57.9784313 89.8125,57.8125 C90.0726628,57.6633967 90.2883967,57.4476628 90.4375,57.1875 C90.5625,56.9375 90.59375,56.6875 90.53125,56.4375 L90.21875,56.5625 C90.28125,57.0625 89.96875,57.3125 89.59375,57.5 C89.03125,57.875 88.5,57.84375 88.15625,57.34375 C87.8125,56.75 88.15625,56.28125 88.65625,55.96875 C89,55.75 89.34375,55.59375 89.65625,55.8125 L89.9375,55.5625 C89.7559918,55.4318754 89.5359378,55.3658592 89.3125,55.375 C89.03125,55.375 88.78125,55.5 88.5,55.6875 L88.5,55.65625 Z M91.46875,54.1875 L91.1875,57 L91.59375,56.84375 L91.65625,55.96875 L92.90625,55.46875 L93.59375,56.03125 L93.96875,55.875 L91.84375,54.03125 L91.46875,54.1875 Z M91.78125,54.5 L92.625,55.1875 L91.6875,55.5625 L91.78125,54.46875 L91.78125,54.5 Z M96.9375,52.625 L97.09375,55.125 L98.4375,55.0625 C98.8125,55 99.1875,54.9375 99.40625,54.625 C99.71875,54.3125 99.78125,53.78125 99.625,53.34375 C99.5044678,52.9567078 99.1797543,52.6680736 98.78125,52.59375 C98.40625,52.53125 98.03125,52.59375 97.65625,52.59375 L96.9375,52.65625 L96.9375,52.625 Z M97.3125,52.96875 L98.40625,52.9375 C98.6056011,52.9283881 98.8026588,52.9831264 98.96875,53.09375 C99.21875,53.28125 99.375,53.5625 99.34375,53.875 C99.3158878,54.2323833 99.0652502,54.5331484 98.71875,54.625 C98.53125,54.6875 98.3125,54.6875 98.125,54.71875 L97.4375,54.75 L97.3125,52.96875 Z M100.4375,52.5 L100.28125,55 L102.71875,55.125 L102.71875,54.78125 L100.65625,54.65625 L100.6875,53.90625 L102.5625,54 L102.5625,53.65625 L100.71875,53.5625 L100.75,52.875 L102.75,53 L102.75,52.625 L100.40625,52.5 L100.4375,52.5 Z M106.9375,53.53125 L106.03125,55.875 L106.34375,56 L107.09375,54.125 L107.09375,54.0625 L107.15625,54.15625 L108.03125,56.65625 L108.4375,56.8125 L109.34375,54.46875 L109.03125,54.34375 L108.3125,56.21875 L108.28125,56.28125 L108.21875,56.1875 L107.375,53.6875 L106.9375,53.53125 Z M110.3125,55 L109.15625,57.1875 L108.84375,57.03125 L109.96875,54.8125 L110.3125,55 Z M112.1875,56.09375 C111.960304,55.9416098 111.705507,55.8354445 111.4375,55.78125 C110.963132,55.6466785 110.456415,55.8366972 110.1875,56.25 C110.066815,56.4477737 110.002016,56.6745708 110,56.90625 C110,57.125 110.03125,57.34375 110.1875,57.5625 C110.3125,57.78125 110.5,57.96875 110.8125,58.1875 C111.064217,58.358605 111.353805,58.4658596 111.65625,58.5 C111.903562,58.5069391 112.14592,58.4298251 112.34375,58.28125 L112.09375,58 C111.65625,58.3125 111.3125,58.09375 110.96875,57.875 C110.40625,57.5 110.1875,57 110.53125,56.46875 C110.90625,55.90625 111.5,56.0625 112,56.375 C112.3125,56.59375 112.625,56.84375 112.5625,57.21875 L112.875,57.34375 C112.912135,57.1307599 112.879242,56.911471 112.78125,56.71875 C112.65625,56.46875 112.46875,56.28125 112.1875,56.09375 Z M114.5625,57.875 L111.96875,58.9375 L112.28125,59.21875 L113.09375,58.90625 L114.125,59.78125 L113.90625,60.625 L114.21875,60.90625 L114.875,58.15625 L114.5625,57.875 Z M114.46875,58.3125 L114.21875,59.375 L113.4375,58.75 L114.46875,58.3125 Z M116.46875,59.625 L114.53125,61.1875 L114.75,61.5 L115.53125,60.875 L116.28125,61.8125 L116.0625,63.0625 L116.34375,63.40625 L116.59375,62.09375 C116.8125,62.25 117.125,62.34375 117.375,62.21875 C117.59375,62.09375 117.8125,61.90625 117.8125,61.65625 C117.8125,61.3125 117.59375,61.03125 117.40625,60.78125 L116.46875,59.625 Z M116.40625,60.125 L117.21875,61.125 C117.34375,61.3125 117.5,61.5625 117.34375,61.75 C117.25,61.9375 117,61.9375 116.84375,61.8125 C116.53125,61.59375 116.34375,61.28125 116.09375,61 L115.78125,60.65625 L116.40625,60.125 Z M119.375,63.59375 L116.5625,63.71875 L116.78125,64.09375 L117.65625,64.0625 L118.34375,65.25 L117.84375,65.96875 L118.0625,66.34375 L119.59375,63.96875 L119.375,63.59375 Z M119.15625,63.96875 L118.53125,64.90625 L118.0625,64.03125 L119.15625,63.96875 Z M121,66.90625 C120.84375,66.5 120.59375,66.0625 120.15625,65.84375 C119.670625,65.6192404 119.094833,65.7471941 118.75,66.15625 C118.4375,66.46875 118.4375,66.9375 118.53125,67.375 C118.625,67.84375 118.84375,68.3125 119.15625,68.65625 L118.96875,68.71875 L119.09375,69.0625 L120.28125,68.65625 L119.8125,67.375 L119.5625,67.46875 L119.875,68.40625 L119.5,68.5625 C119.160921,68.246224 118.931114,67.830382 118.84375,67.375 C118.75,67.03125 118.75,66.625 119,66.375 C119.3125,66.0625 119.8125,65.96875 120.15625,66.21875 C120.5,66.46875 120.6875,66.875 120.78125,67.28125 C120.875,67.5625 120.84375,67.875 120.65625,68.09375 C120.59375,68.09375 120.65625,68.1875 120.6875,68.21875 L120.78125,68.375 C120.995744,68.2111235 121.122595,67.9574212 121.125,67.6875 C121.131166,67.4216503 121.088806,67.1569042 121,66.90625 Z M121.71875,68.875 L120.3125,69.125 C120.096521,69.1564031 119.892144,69.2424567 119.71875,69.375 C119.583219,69.4972496 119.494769,69.6630939 119.46875,69.84375 L119.46875,70.59375 C119.5625,70.90625 119.65625,71.125 119.78125,71.3125 C119.875,71.5 120,71.625 120.15625,71.625 C120.361222,71.6779236 120.576278,71.6779236 120.78125,71.625 L122.1875,71.375 L122.125,71.03125 L120.75,71.28125 C120.125,71.40625 119.9375,71.09375 119.8125,70.53125 C119.71875,69.96875 119.8125,69.59375 120.40625,69.5 L121.78125,69.21875 L121.71875,68.875 Z M122.46875,73.125 L119.875,72 L119.90625,72.4375 L120.71875,72.75 L120.8125,74.125 L120.0625,74.59375 L120.09375,75 L122.5,73.53125 L122.46875,73.125 Z M122.09375,73.34375 L121.15625,73.9375 L121.09375,72.9375 L122.09375,73.34375 Z M79.4375,79.59375 L79.0625,79.6875 L79.46875,81.21875 L79.84375,81.125 L79.4375,79.59375 Z M120.5625,79.59375 L120.9375,79.6875 L120.53125,81.21875 L120.15625,81.125 L120.5625,79.59375 Z M83.3125,86 L80.5,86.3125 L80.75,86.65625 L81.625,86.5625 L82.375,87.6875 L81.9375,88.46875 L82.1875,88.78125 L83.53125,86.34375 L83.3125,86 Z M83.09375,86.40625 L82.5625,87.34375 L82,86.53125 L83.09375,86.40625 Z M84.375,87.53125 L82.59375,89.1875 L82.84375,89.4375 L84.34375,88.03125 L83.53125,90.21875 L83.84375,90.5 L85.96875,89.875 L84.5,91.21875 L84.75,91.46875 L86.53125,89.8125 L86.15625,89.4375 L83.96875,90.0625 L84.78125,87.96875 L84.375,87.53125 Z M86.96875,90.15625 L85.46875,92.1875 L87.40625,93.625 L87.625,93.34375 L85.96875,92.09375 L86.4375,91.46875 L87.90625,92.625 L88.125,92.3125 L86.65625,91.21875 L87.0625,90.6875 L88.625,91.875 L88.84375,91.5625 L86.96875,90.15625 Z M89.40625,91.96875 L88.25,94.15625 L88.5625,94.34375 L89.03125,93.46875 L90.09375,94.03125 L90.34375,95.28125 L90.75,95.5 L90.46875,94.1875 C90.75,94.28125 91.09375,94.21875 91.25,94 C91.40625,93.8125 91.53125,93.59375 91.4375,93.34375 C91.375,93.03125 91.03125,92.84375 90.78125,92.6875 L89.40625,91.96875 Z M89.5625,92.4375 L90.6875,93.0625 C90.875,93.1875 91.09375,93.34375 91.0625,93.5625 C91.0625,93.78125 90.84375,93.875 90.65625,93.84375 C90.28125,93.78125 89.96875,93.5625 89.65625,93.40625 L89.1875,93.15625 L89.5625,92.4375 Z M92.25,93.4375 L91.3125,95.75 L91.625,95.90625 L92.5625,93.59375 L92.25,93.4375 Z M94.5,94.21875 C94.2400876,94.1238023 93.9639325,94.0813169 93.6875,94.09375 C93.1933038,94.1017763 92.7622297,94.4314213 92.625,94.90625 C92.5680287,95.1212906 92.5680287,95.3474594 92.625,95.5625 C92.625,95.8125 92.75,96 92.9375,96.1875 C93.1529697,96.3787374 93.4096096,96.5177507 93.6875,96.59375 C93.9781917,96.6970278 94.2916326,96.7186444 94.59375,96.65625 C94.8397823,96.6088531 95.0611492,96.4760329 95.21875,96.28125 L94.90625,96.09375 C94.59375,96.5 94.1875,96.40625 93.78125,96.25 C93.15625,96.03125 92.8125,95.625 93,95 C93.21875,94.375 93.84375,94.375 94.375,94.53125 C94.75,94.65625 95.09375,94.84375 95.125,95.1875 L95.5,95.25 C95.482798,95.0150412 95.3831943,94.7936997 95.21875,94.625 C95.0164999,94.4321597 94.7695251,94.2925652 94.5,94.21875 Z M97,94.78125 L95.375,97.0625 L95.78125,97.125 L96.28125,96.40625 L97.65625,96.625 L97.9375,97.4375 L98.34375,97.5 L97.40625,94.84375 L97,94.78125 Z M97.15625,95.1875 L97.53125,96.25 L96.53125,96.09375 L97.15625,95.1875 Z M102.875,94.8125 C102.5625,94.84375 102.34375,94.9375 102.125,95.09375 C101.701133,95.3407194 101.486168,95.8338734 101.59375,96.3125 C101.625,96.53125 101.71875,96.71875 101.90625,96.9375 C102.03125,97.09375 102.21875,97.1875 102.46875,97.25 C102.6875,97.3125 103,97.3125 103.34375,97.25 C103.65625,97.1875 103.96875,97.0625 104.15625,96.875 C104.33943,96.712502 104.46086,96.4917201 104.5,96.25 L104.125,96.25 C104.03125,96.75 103.65625,96.875 103.25,96.9375 C102.59375,97.0625 102.09375,96.84375 101.96875,96.21875 C101.84375,95.5625 102.375,95.25 102.90625,95.125 C103.3125,95.0625 103.6875,95.03125 103.90625,95.34375 L104.21875,95.21875 C104.101461,95.0318848 103.925668,94.8890528 103.71875,94.8125 C103.442037,94.7410531 103.151713,94.7410531 102.875,94.8125 Z M104.53125,94.5 L105.25,96.90625 L107.59375,96.21875 L107.46875,95.875 L105.5,96.46875 L105.28125,95.71875 L107.0625,95.1875 L106.96875,94.875 L105.1875,95.375 L105,94.75 L106.875,94.1875 L106.78125,93.84375 L104.53125,94.5 Z M107.25,93.65625 L108.28125,95.9375 L108.59375,95.78125 L107.71875,93.90625 L110.15625,95 L110.3125,95 L110.625,94.84375 L109.5625,92.5625 L109.25,92.71875 L110.125,94.59375 L107.625,93.46875 L107.25,93.65625 Z M110,92.375 L110.1875,92.6875 L111.0625,92.0625 L111.125,92.0625 L112.28125,93.84375 L112.59375,93.625 L111.4375,91.875 L111.4375,91.84375 L112.34375,91.21875 L112.15625,90.9375 L110,92.375 Z M112.5,90.625 L114.1875,92.5 L114.46875,92.21875 L113.8125,91.5 L114.6875,90.6875 L115.9375,90.875 L116.3125,90.5625 L114.96875,90.375 C115.125,90.15625 115.1875,89.8125 115.03125,89.5625 C114.90625,89.34375 114.71875,89.15625 114.4375,89.1875 C114.125,89.1875 113.8125,89.4375 113.59375,89.625 L112.5,90.65625 L112.5,90.625 Z M113,90.65625 L113.9375,89.78125 C114.125,89.65625 114.375,89.5 114.5625,89.625 C114.78125,89.71875 114.78125,89.96875 114.65625,90.125 C114.46875,90.4375 114.1875,90.65625 113.90625,90.9375 L113.5625,91.25 L113,90.625 L113,90.65625 Z M115.40625,87.71875 L116.53125,90.3125 L116.78125,90 L116.46875,89.1875 L117.3125,88.125 L118.15625,88.3125 L118.4375,88 L115.6875,87.375 L115.40625,87.71875 Z M115.84375,87.8125 L116.9375,88.03125 L116.3125,88.8125 L115.84375,87.8125 Z M116.5,86.3125 L118.59375,87.65625 L119.6875,85.96875 L119.375,85.78125 L118.53125,87.125 L118.5,87.1875 L118.46875,87.1875 L116.6875,86 L116.5,86.3125 Z" id="Shape" fill="#C8A400" fill-rule="nonzero"></path>
                <g id="Clipped" transform="translate(80.250000, 56.625000)">
                    <mask id="mask-2" fill="white">
                        <use xlink:href="#path-1"></use>
                    </mask>
                    <g id="Path"></g>
                    <g id="Group" mask="url(#mask-2)">
                        <g transform="translate(0.500000, -6.125000)">
                            <polygon id="Path" fill="#FFFFFF" points="19.25 6.1 11.375 19.725 7.525 26.4 30.975 26.4 27.3 20.05 19.25 6.1"></polygon>
                            <g id="e" stroke-width="1" fill="none" transform="translate(4.750000, 6.000000)">
                                <g id="d" transform="translate(13.750000, 0.000000)">
                                    <polygon id="Path" stroke="#17C0EB" stroke-width="0.1" fill="#17C0EB" opacity="0.6" points="0.75 0.1 0.15 1.1 0.75 14.85 1.35 1.1"></polygon>
                                    <polygon id="Path" fill="#FFFFFF" points="0.75 12.875 0.725 12.875 0.75 13.625 0.775 12.875"></polygon>
                                </g>
                                <g id="d-link" transform="translate(21.514042, 12.596000) rotate(72.000000) translate(-21.514042, -12.596000) translate(20.764042, 5.096000)">
                                    <g id="d">
                                        <polygon id="Path" stroke="#17C0EB" stroke-width="0.1" fill="#17C0EB" opacity="0.6" points="0.75 0.1 0.15 1.1 0.75 14.85 1.35 1.1"></polygon>
                                        <polygon id="Path" fill="#FFFFFF" points="0.75 12.875 0.725 12.875 0.75 13.625 0.775 12.875"></polygon>
                                    </g>
                                </g>
                                <g id="d-link" transform="translate(18.834916, 20.841500) rotate(144.000000) translate(-18.834916, -20.841500) translate(18.084916, 13.341500)">
                                    <g id="d">
                                        <polygon id="Path" stroke="#17C0EB" stroke-width="0.1" fill="#17C0EB" opacity="0.6" points="0.75 0.1 0.15 1.1 0.75 14.85 1.35 1.1"></polygon>
                                        <polygon id="Path" fill="#FFFFFF" points="0.75 12.875 0.725 12.875 0.75 13.625 0.775 12.875"></polygon>
                                    </g>
                                </g>
                                <g id="d-link" transform="translate(10.165084, 20.841500) rotate(-144.000000) translate(-10.165084, -20.841500) translate(9.415084, 13.341500)">
                                    <g id="d">
                                        <polygon id="Path" stroke="#17C0EB" stroke-width="0.1" fill="#17C0EB" opacity="0.6" points="0.75 0.1 0.15 1.1 0.75 14.85 1.35 1.1"></polygon>
                                        <polygon id="Path" fill="#FFFFFF" points="0.75 12.875 0.725 12.875 0.75 13.625 0.775 12.875"></polygon>
                                    </g>
                                </g>
                                <g id="d-link" transform="translate(7.485958, 12.596000) rotate(-72.000000) translate(-7.485958, -12.596000) translate(6.735958, 5.096000)">
                                    <g id="d">
                                        <polygon id="Path" stroke="#17C0EB" stroke-width="0.1" fill="#17C0EB" opacity="0.6" points="0.75 0.1 0.15 1.1 0.75 14.85 1.35 1.1"></polygon>
                                        <polygon id="Path" fill="#FFFFFF" points="0.75 12.875 0.725 12.875 0.75 13.625 0.775 12.875"></polygon>
                                    </g>
                                </g>
                            </g>
                            <g id="e-link" stroke-width="1" fill="none" transform="translate(19.406570, 19.760948) rotate(8.000000) translate(-19.406570, -19.760948) translate(4.906570, 6.010948)">
                                <g id="e">
                                    <g id="d" transform="translate(13.750000, 0.000000)">
                                        <polygon id="Path" stroke="#17C0EB" stroke-width="0.1" fill="#17C0EB" opacity="0.6" points="0.75 0.1 0.15 1.1 0.75 14.85 1.35 1.1"></polygon>
                                        <polygon id="Path" fill="#FFFFFF" points="0.75 12.875 0.725 12.875 0.75 13.625 0.775 12.875"></polygon>
                                    </g>
                                    <g id="d-link" transform="translate(21.514042, 12.596000) rotate(72.000000) translate(-21.514042, -12.596000) translate(20.764042, 5.096000)">
                                        <g id="d">
                                            <polygon id="Path" stroke="#17C0EB" stroke-width="0.1" fill="#17C0EB" opacity="0.6" points="0.75 0.1 0.15 1.1 0.75 14.85 1.35 1.1"></polygon>
                                            <polygon id="Path" fill="#FFFFFF" points="0.75 12.875 0.725 12.875 0.75 13.625 0.775 12.875"></polygon>
                                        </g>
                                    </g>
                                    <g id="d-link" transform="translate(18.834916, 20.841500) rotate(144.000000) translate(-18.834916, -20.841500) translate(18.084916, 13.341500)">
                                        <g id="d">
                                            <polygon id="Path" stroke="#17C0EB" stroke-width="0.1" fill="#17C0EB" opacity="0.6" points="0.75 0.1 0.15 1.1 0.75 14.85 1.35 1.1"></polygon>
                                            <polygon id="Path" fill="#FFFFFF" points="0.75 12.875 0.725 12.875 0.75 13.625 0.775 12.875"></polygon>
                                        </g>
                                    </g>
                                    <g id="d-link" transform="translate(10.165084, 20.841500) rotate(-144.000000) translate(-10.165084, -20.841500) translate(9.415084, 13.341500)">
                                        <g id="d">
                                            <polygon id="Path" stroke="#17C0EB" stroke-width="0.1" fill="#17C0EB" opacity="0.6" points="0.75 0.1 0.15 1.1 0.75 14.85 1.35 1.1"></polygon>
                                            <polygon id="Path" fill="#FFFFFF" points="0.75 12.875 0.725 12.875 0.75 13.625 0.775 12.875"></polygon>
                                        </g>
                                    </g>
                                    <g id="d-link" transform="translate(7.485958, 12.596000) rotate(-72.000000) translate(-7.485958, -12.596000) translate(6.735958, 5.096000)">
                                        <g id="d">
                                            <polygon id="Path" stroke="#17C0EB" stroke-width="0.1" fill="#17C0EB" opacity="0.6" points="0.75 0.1 0.15 1.1 0.75 14.85 1.35 1.1"></polygon>
                                            <polygon id="Path" fill="#FFFFFF" points="0.75 12.875 0.725 12.875 0.75 13.625 0.775 12.875"></polygon>
                                        </g>
                                    </g>
                                </g>
                            </g>
                            <g id="e-link" stroke-width="1" fill="none" transform="translate(19.560092, 19.793581) rotate(16.000000) translate(-19.560092, -19.793581) translate(5.060092, 6.043581)">
                                <g id="e">
                                    <g id="d" transform="translate(13.750000, 0.000000)">
                                        <polygon id="Path" stroke="#17C0EB" stroke-width="0.1" fill="#17C0EB" opacity="0.6" points="0.75 0.1 0.15 1.1 0.75 14.85 1.35 1.1"></polygon>
                                        <polygon id="Path" fill="#FFFFFF" points="0.75 12.875 0.725 12.875 0.75 13.625 0.775 12.875"></polygon>
                                    </g>
                                    <g id="d-link" transform="translate(21.514042, 12.596000) rotate(72.000000) translate(-21.514042, -12.596000) translate(20.764042, 5.096000)">
                                        <g id="d">
                                            <polygon id="Path" stroke="#17C0EB" stroke-width="0.1" fill="#17C0EB" opacity="0.6" points="0.75 0.1 0.15 1.1 0.75 14.85 1.35 1.1"></polygon>
                                            <polygon id="Path" fill="#FFFFFF" points="0.75 12.875 0.725 12.875 0.75 13.625 0.775 12.875"></polygon>
                                        </g>
                                    </g>
                                    <g id="d-link" transform="translate(18.834916, 20.841500) rotate(144.000000) translate(-18.834916, -20.841500) translate(18.084916, 13.341500)">
                                        <g id="d">
                                            <polygon id="Path" stroke="#17C0EB" stroke-width="0.1" fill="#17C0EB" opacity="0.6" points="0.75 0.1 0.15 1.1 0.75 14.85 1.35 1.1"></polygon>
                                            <polygon id="Path" fill="#FFFFFF" points="0.75 12.875 0.725 12.875 0.75 13.625 0.775 12.875"></polygon>
                                        </g>
                                    </g>
                                    <g id="d-link" transform="translate(10.165084, 20.841500) rotate(-144.000000) translate(-10.165084, -20.841500) translate(9.415084, 13.341500)">
                                        <g id="d">
                                            <polygon id="Path" stroke="#17C0EB" stroke-width="0.1" fill="#17C0EB" opacity="0.6" points="0.75 0.1 0.15 1.1 0.75 14.85 1.35 1.1"></polygon>
                                            <polygon id="Path" fill="#FFFFFF" points="0.75 12.875 0.725 12.875 0.75 13.625 0.775 12.875"></polygon>
                                        </g>
                                    </g>
                                    <g id="d-link" transform="translate(7.485958, 12.596000) rotate(-72.000000) translate(-7.485958, -12.596000) translate(6.735958, 5.096000)">
                                        <g id="d">
                                            <polygon id="Path" stroke="#17C0EB" stroke-width="0.1" fill="#17C0EB" opacity="0.6" points="0.75 0.1 0.15 1.1 0.75 14.85 1.35 1.1"></polygon>
                                            <polygon id="Path" fill="#FFFFFF" points="0.75 12.875 0.725 12.875 0.75 13.625 0.775 12.875"></polygon>
                                        </g>
                                    </g>
                                </g>
                            </g>
                            <g id="e-link" stroke-width="1" fill="none" transform="translate(19.707579, 19.847261) rotate(24.000000) translate(-19.707579, -19.847261) translate(5.207579, 6.097261)">
                                <g id="e">
                                    <g id="d" transform="translate(13.750000, 0.000000)">
                                        <polygon id="Path" stroke="#17C0EB" stroke-width="0.1" fill="#17C0EB" opacity="0.6" points="0.75 0.1 0.15 1.1 0.75 14.85 1.35 1.1"></polygon>
                                        <polygon id="Path" fill="#FFFFFF" points="0.75 12.875 0.725 12.875 0.75 13.625 0.775 12.875"></polygon>
                                    </g>
                                    <g id="d-link" transform="translate(21.514042, 12.596000) rotate(72.000000) translate(-21.514042, -12.596000) translate(20.764042, 5.096000)">
                                        <g id="d">
                                            <polygon id="Path" stroke="#17C0EB" stroke-width="0.1" fill="#17C0EB" opacity="0.6" points="0.75 0.1 0.15 1.1 0.75 14.85 1.35 1.1"></polygon>
                                            <polygon id="Path" fill="#FFFFFF" points="0.75 12.875 0.725 12.875 0.75 13.625 0.775 12.875"></polygon>
                                        </g>
                                    </g>
                                    <g id="d-link" transform="translate(18.834916, 20.841500) rotate(144.000000) translate(-18.834916, -20.841500) translate(18.084916, 13.341500)">
                                        <g id="d">
                                            <polygon id="Path" stroke="#17C0EB" stroke-width="0.1" fill="#17C0EB" opacity="0.6" points="0.75 0.1 0.15 1.1 0.75 14.85 1.35 1.1"></polygon>
                                            <polygon id="Path" fill="#FFFFFF" points="0.75 12.875 0.725 12.875 0.75 13.625 0.775 12.875"></polygon>
                                        </g>
                                    </g>
                                    <g id="d-link" transform="translate(10.165084, 20.841500) rotate(-144.000000) translate(-10.165084, -20.841500) translate(9.415084, 13.341500)">
                                        <g id="d">
                                            <polygon id="Path" stroke="#17C0EB" stroke-width="0.1" fill="#17C0EB" opacity="0.6" points="0.75 0.1 0.15 1.1 0.75 14.85 1.35 1.1"></polygon>
                                            <polygon id="Path" fill="#FFFFFF" points="0.75 12.875 0.725 12.875 0.75 13.625 0.775 12.875"></polygon>
                                        </g>
                                    </g>
                                    <g id="d-link" transform="translate(7.485958, 12.596000) rotate(-72.000000) translate(-7.485958, -12.596000) translate(6.735958, 5.096000)">
                                        <g id="d">
                                            <polygon id="Path" stroke="#17C0EB" stroke-width="0.1" fill="#17C0EB" opacity="0.6" points="0.75 0.1 0.15 1.1 0.75 14.85 1.35 1.1"></polygon>
                                            <polygon id="Path" fill="#FFFFFF" points="0.75 12.875 0.725 12.875 0.75 13.625 0.775 12.875"></polygon>
                                        </g>
                                    </g>
                                </g>
                            </g>
                            <g id="e-link" stroke-width="1" fill="none" transform="translate(19.846159, 19.920946) rotate(32.000000) translate(-19.846159, -19.920946) translate(5.346159, 6.170946)">
                                <g id="e">
                                    <g id="d" transform="translate(13.750000, 0.000000)">
                                        <polygon id="Path" stroke="#17C0EB" stroke-width="0.1" fill="#17C0EB" opacity="0.6" points="0.75 0.1 0.15 1.1 0.75 14.85 1.35 1.1"></polygon>
                                        <polygon id="Path" fill="#FFFFFF" points="0.75 12.875 0.725 12.875 0.75 13.625 0.775 12.875"></polygon>
                                    </g>
                                    <g id="d-link" transform="translate(21.514042, 12.596000) rotate(72.000000) translate(-21.514042, -12.596000) translate(20.764042, 5.096000)">
                                        <g id="d">
                                            <polygon id="Path" stroke="#17C0EB" stroke-width="0.1" fill="#17C0EB" opacity="0.6" points="0.75 0.1 0.15 1.1 0.75 14.85 1.35 1.1"></polygon>
                                            <polygon id="Path" fill="#FFFFFF" points="0.75 12.875 0.725 12.875 0.75 13.625 0.775 12.875"></polygon>
                                        </g>
                                    </g>
                                    <g id="d-link" transform="translate(18.834916, 20.841500) rotate(144.000000) translate(-18.834916, -20.841500) translate(18.084916, 13.341500)">
                                        <g id="d">
                                            <polygon id="Path" stroke="#17C0EB" stroke-width="0.1" fill="#17C0EB" opacity="0.6" points="0.75 0.1 0.15 1.1 0.75 14.85 1.35 1.1"></polygon>
                                            <polygon id="Path" fill="#FFFFFF" points="0.75 12.875 0.725 12.875 0.75 13.625 0.775 12.875"></polygon>
                                        </g>
                                    </g>
                                    <g id="d-link" transform="translate(10.165084, 20.841500) rotate(-144.000000) translate(-10.165084, -20.841500) translate(9.415084, 13.341500)">
                                        <g id="d">
                                            <polygon id="Path" stroke="#17C0EB" stroke-width="0.1" fill="#17C0EB" opacity="0.6" points="0.75 0.1 0.15 1.1 0.75 14.85 1.35 1.1"></polygon>
                                            <polygon id="Path" fill="#FFFFFF" points="0.75 12.875 0.725 12.875 0.75 13.625 0.775 12.875"></polygon>
                                        </g>
                                    </g>
                                    <g id="d-link" transform="translate(7.485958, 12.596000) rotate(-72.000000) translate(-7.485958, -12.596000) translate(6.735958, 5.096000)">
                                        <g id="d">
                                            <polygon id="Path" stroke="#17C0EB" stroke-width="0.1" fill="#17C0EB" opacity="0.6" points="0.75 0.1 0.15 1.1 0.75 14.85 1.35 1.1"></polygon>
                                            <polygon id="Path" fill="#FFFFFF" points="0.75 12.875 0.725 12.875 0.75 13.625 0.775 12.875"></polygon>
                                        </g>
                                    </g>
                                </g>
                            </g>
                            <g id="e-link" stroke-width="1" fill="none" transform="translate(19.973136, 20.013200) rotate(40.000000) translate(-19.973136, -20.013200) translate(5.473136, 6.263200)">
                                <g id="e">
                                    <g id="d" transform="translate(13.750000, 0.000000)">
                                        <polygon id="Path" stroke="#17C0EB" stroke-width="0.1" fill="#17C0EB" opacity="0.6" points="0.75 0.1 0.15 1.1 0.75 14.85 1.35 1.1"></polygon>
                                        <polygon id="Path" fill="#FFFFFF" points="0.75 12.875 0.725 12.875 0.75 13.625 0.775 12.875"></polygon>
                                    </g>
                                    <g id="d-link" transform="translate(21.514042, 12.596000) rotate(72.000000) translate(-21.514042, -12.596000) translate(20.764042, 5.096000)">
                                        <g id="d">
                                            <polygon id="Path" stroke="#17C0EB" stroke-width="0.1" fill="#17C0EB" opacity="0.6" points="0.75 0.1 0.15 1.1 0.75 14.85 1.35 1.1"></polygon>
                                            <polygon id="Path" fill="#FFFFFF" points="0.75 12.875 0.725 12.875 0.75 13.625 0.775 12.875"></polygon>
                                        </g>
                                    </g>
                                    <g id="d-link" transform="translate(18.834916, 20.841500) rotate(144.000000) translate(-18.834916, -20.841500) translate(18.084916, 13.341500)">
                                        <g id="d">
                                            <polygon id="Path" stroke="#17C0EB" stroke-width="0.1" fill="#17C0EB" opacity="0.6" points="0.75 0.1 0.15 1.1 0.75 14.85 1.35 1.1"></polygon>
                                            <polygon id="Path" fill="#FFFFFF" points="0.75 12.875 0.725 12.875 0.75 13.625 0.775 12.875"></polygon>
                                        </g>
                                    </g>
                                    <g id="d-link" transform="translate(10.165084, 20.841500) rotate(-144.000000) translate(-10.165084, -20.841500) translate(9.415084, 13.341500)">
                                        <g id="d">
                                            <polygon id="Path" stroke="#17C0EB" stroke-width="0.1" fill="#17C0EB" opacity="0.6" points="0.75 0.1 0.15 1.1 0.75 14.85 1.35 1.1"></polygon>
                                            <polygon id="Path" fill="#FFFFFF" points="0.75 12.875 0.725 12.875 0.75 13.625 0.775 12.875"></polygon>
                                        </g>
                                    </g>
                                    <g id="d-link" transform="translate(7.485958, 12.596000) rotate(-72.000000) translate(-7.485958, -12.596000) translate(6.735958, 5.096000)">
                                        <g id="d">
                                            <polygon id="Path" stroke="#17C0EB" stroke-width="0.1" fill="#17C0EB" opacity="0.6" points="0.75 0.1 0.15 1.1 0.75 14.85 1.35 1.1"></polygon>
                                            <polygon id="Path" fill="#FFFFFF" points="0.75 12.875 0.725 12.875 0.75 13.625 0.775 12.875"></polygon>
                                        </g>
                                    </g>
                                </g>
                            </g>
                            <g id="e-link" stroke-width="1" fill="none" transform="translate(20.086038, 20.122228) rotate(48.000000) translate(-20.086038, -20.122228) translate(5.586038, 6.372228)">
                                <g id="e">
                                    <g id="d" transform="translate(13.750000, 0.000000)">
                                        <polygon id="Path" stroke="#17C0EB" stroke-width="0.1" fill="#17C0EB" opacity="0.6" points="0.75 0.1 0.15 1.1 0.75 14.85 1.35 1.1"></polygon>
                                        <polygon id="Path" fill="#FFFFFF" points="0.75 12.875 0.725 12.875 0.75 13.625 0.775 12.875"></polygon>
                                    </g>
                                    <g id="d-link" transform="translate(21.514042, 12.596000) rotate(72.000000) translate(-21.514042, -12.596000) translate(20.764042, 5.096000)">
                                        <g id="d">
                                            <polygon id="Path" stroke="#17C0EB" stroke-width="0.1" fill="#17C0EB" opacity="0.6" points="0.75 0.1 0.15 1.1 0.75 14.85 1.35 1.1"></polygon>
                                            <polygon id="Path" fill="#FFFFFF" points="0.75 12.875 0.725 12.875 0.75 13.625 0.775 12.875"></polygon>
                                        </g>
                                    </g>
                                    <g id="d-link" transform="translate(18.834916, 20.841500) rotate(144.000000) translate(-18.834916, -20.841500) translate(18.084916, 13.341500)">
                                        <g id="d">
                                            <polygon id="Path" stroke="#17C0EB" stroke-width="0.1" fill="#17C0EB" opacity="0.6" points="0.75 0.1 0.15 1.1 0.75 14.85 1.35 1.1"></polygon>
                                            <polygon id="Path" fill="#FFFFFF" points="0.75 12.875 0.725 12.875 0.75 13.625 0.775 12.875"></polygon>
                                        </g>
                                    </g>
                                    <g id="d-link" transform="translate(10.165084, 20.841500) rotate(-144.000000) translate(-10.165084, -20.841500) translate(9.415084, 13.341500)">
                                        <g id="d">
                                            <polygon id="Path" stroke="#17C0EB" stroke-width="0.1" fill="#17C0EB" opacity="0.6" points="0.75 0.1 0.15 1.1 0.75 14.85 1.35 1.1"></polygon>
                                            <polygon id="Path" fill="#FFFFFF" points="0.75 12.875 0.725 12.875 0.75 13.625 0.775 12.875"></polygon>
                                        </g>
                                    </g>
                                    <g id="d-link" transform="translate(7.485958, 12.596000) rotate(-72.000000) translate(-7.485958, -12.596000) translate(6.735958, 5.096000)">
                                        <g id="d">
                                            <polygon id="Path" stroke="#17C0EB" stroke-width="0.1" fill="#17C0EB" opacity="0.6" points="0.75 0.1 0.15 1.1 0.75 14.85 1.35 1.1"></polygon>
                                            <polygon id="Path" fill="#FFFFFF" points="0.75 12.875 0.725 12.875 0.75 13.625 0.775 12.875"></polygon>
                                        </g>
                                    </g>
                                </g>
                            </g>
                            <g id="e-link" stroke-width="1" fill="none" transform="translate(20.182667, 20.245908) rotate(56.000000) translate(-20.182667, -20.245908) translate(5.682667, 6.495908)">
                                <g id="e">
                                    <g id="d" transform="translate(13.750000, 0.000000)">
                                        <polygon id="Path" stroke="#17C0EB" stroke-width="0.1" fill="#17C0EB" opacity="0.6" points="0.75 0.1 0.15 1.1 0.75 14.85 1.35 1.1"></polygon>
                                        <polygon id="Path" fill="#FFFFFF" points="0.75 12.875 0.725 12.875 0.75 13.625 0.775 12.875"></polygon>
                                    </g>
                                    <g id="d-link" transform="translate(21.514042, 12.596000) rotate(72.000000) translate(-21.514042, -12.596000) translate(20.764042, 5.096000)">
                                        <g id="d">
                                            <polygon id="Path" stroke="#17C0EB" stroke-width="0.1" fill="#17C0EB" opacity="0.6" points="0.75 0.1 0.15 1.1 0.75 14.85 1.35 1.1"></polygon>
                                            <polygon id="Path" fill="#FFFFFF" points="0.75 12.875 0.725 12.875 0.75 13.625 0.775 12.875"></polygon>
                                        </g>
                                    </g>
                                    <g id="d-link" transform="translate(18.834916, 20.841500) rotate(144.000000) translate(-18.834916, -20.841500) translate(18.084916, 13.341500)">
                                        <g id="d">
                                            <polygon id="Path" stroke="#17C0EB" stroke-width="0.1" fill="#17C0EB" opacity="0.6" points="0.75 0.1 0.15 1.1 0.75 14.85 1.35 1.1"></polygon>
                                            <polygon id="Path" fill="#FFFFFF" points="0.75 12.875 0.725 12.875 0.75 13.625 0.775 12.875"></polygon>
                                        </g>
                                    </g>
                                    <g id="d-link" transform="translate(10.165084, 20.841500) rotate(-144.000000) translate(-10.165084, -20.841500) translate(9.415084, 13.341500)">
                                        <g id="d">
                                            <polygon id="Path" stroke="#17C0EB" stroke-width="0.1" fill="#17C0EB" opacity="0.6" points="0.75 0.1 0.15 1.1 0.75 14.85 1.35 1.1"></polygon>
                                            <polygon id="Path" fill="#FFFFFF" points="0.75 12.875 0.725 12.875 0.75 13.625 0.775 12.875"></polygon>
                                        </g>
                                    </g>
                                    <g id="d-link" transform="translate(7.485958, 12.596000) rotate(-72.000000) translate(-7.485958, -12.596000) translate(6.735958, 5.096000)">
                                        <g id="d">
                                            <polygon id="Path" stroke="#17C0EB" stroke-width="0.1" fill="#17C0EB" opacity="0.6" points="0.75 0.1 0.15 1.1 0.75 14.85 1.35 1.1"></polygon>
                                            <polygon id="Path" fill="#FFFFFF" points="0.75 12.875 0.725 12.875 0.75 13.625 0.775 12.875"></polygon>
                                        </g>
                                    </g>
                                </g>
                            </g>
                            <g id="e-link" stroke-width="1" fill="none" transform="translate(20.261143, 20.381832) rotate(64.000000) translate(-20.261143, -20.381832) translate(5.761143, 6.631832)">
                                <g id="e">
                                    <g id="d" transform="translate(13.750000, 0.000000)">
                                        <polygon id="Path" stroke="#17C0EB" stroke-width="0.1" fill="#17C0EB" opacity="0.6" points="0.75 0.1 0.15 1.1 0.75 14.85 1.35 1.1"></polygon>
                                        <polygon id="Path" fill="#FFFFFF" points="0.75 12.875 0.725 12.875 0.75 13.625 0.775 12.875"></polygon>
                                    </g>
                                    <g id="d-link" transform="translate(21.514042, 12.596000) rotate(72.000000) translate(-21.514042, -12.596000) translate(20.764042, 5.096000)">
                                        <g id="d">
                                            <polygon id="Path" stroke="#17C0EB" stroke-width="0.1" fill="#17C0EB" opacity="0.6" points="0.75 0.1 0.15 1.1 0.75 14.85 1.35 1.1"></polygon>
                                            <polygon id="Path" fill="#FFFFFF" points="0.75 12.875 0.725 12.875 0.75 13.625 0.775 12.875"></polygon>
                                        </g>
                                    </g>
                                    <g id="d-link" transform="translate(18.834916, 20.841500) rotate(144.000000) translate(-18.834916, -20.841500) translate(18.084916, 13.341500)">
                                        <g id="d">
                                            <polygon id="Path" stroke="#17C0EB" stroke-width="0.1" fill="#17C0EB" opacity="0.6" points="0.75 0.1 0.15 1.1 0.75 14.85 1.35 1.1"></polygon>
                                            <polygon id="Path" fill="#FFFFFF" points="0.75 12.875 0.725 12.875 0.75 13.625 0.775 12.875"></polygon>
                                        </g>
                                    </g>
                                    <g id="d-link" transform="translate(10.165084, 20.841500) rotate(-144.000000) translate(-10.165084, -20.841500) translate(9.415084, 13.341500)">
                                        <g id="d">
                                            <polygon id="Path" stroke="#17C0EB" stroke-width="0.1" fill="#17C0EB" opacity="0.6" points="0.75 0.1 0.15 1.1 0.75 14.85 1.35 1.1"></polygon>
                                            <polygon id="Path" fill="#FFFFFF" points="0.75 12.875 0.725 12.875 0.75 13.625 0.775 12.875"></polygon>
                                        </g>
                                    </g>
                                    <g id="d-link" transform="translate(7.485958, 12.596000) rotate(-72.000000) translate(-7.485958, -12.596000) translate(6.735958, 5.096000)">
                                        <g id="d">
                                            <polygon id="Path" stroke="#17C0EB" stroke-width="0.1" fill="#17C0EB" opacity="0.6" points="0.75 0.1 0.15 1.1 0.75 14.85 1.35 1.1"></polygon>
                                            <polygon id="Path" fill="#FFFFFF" points="0.75 12.875 0.725 12.875 0.75 13.625 0.775 12.875"></polygon>
                                        </g>
                                    </g>
                                </g>
                            </g>
                            <path d="M19.25,15.95 C16.5869362,15.9469661 14.01236,16.9057738 12,18.65 L8.35,25 C8.21925625,25.683986 8.15230222,26.3786341 8.15,27.075 L9.4,27.075 C9.66426563,21.8344709 13.990312,17.7210784 19.2375,17.7210784 C24.484688,17.7210784 28.8107344,21.8344709 29.075,27.075 L30.325,27.075 C30.3309433,26.3794105 30.272359,25.6847688 30.15,25 L26.5,18.65 C24.4864762,16.907737 21.9126599,15.9492124 19.25,15.95 Z" id="Path" fill="#FF0000"></path>
                            <path d="M19.25,16.175 C16.4246696,16.1690705 13.7079371,17.2629364 11.675,19.225 L8.675,24.45 C8.4625135,25.3004453 8.35339194,26.1734178 8.35,27.05 L9.425,27.05 C9.79296128,21.8952536 14.0821372,17.901338 19.25,17.901338 C24.4178628,17.901338 28.7070387,21.8952536 29.075,27.05 L30.15,27.05 C30.1478886,26.1650975 30.0387629,25.283698 29.825,24.425 L26.825,19.225 C24.7920629,17.2629364 22.0753304,16.1690705 19.25,16.175 Z" id="Path" fill="#FF6600"></path>
                            <path d="M19.25,16.375 C16.1945965,16.3668669 13.2821617,17.6683613 11.25,19.95 L9.075,23.7 C8.72846794,24.7909179 8.55964552,25.9304692 8.575,27.075 L9.4,27.075 C9.66426563,21.8344709 13.990312,17.7210784 19.2375,17.7210784 C24.484688,17.7210784 28.8107344,21.8344709 29.075,27.075 L29.95,27.075 C29.95,25.9 29.75,24.775 29.425,23.725 L27.225,19.95 C25.2005696,17.6722363 22.2973773,16.3708053 19.25,16.375 Z" id="Path" fill="#FFFF00"></path>
                            <path d="M19.25,16.575 C15.7482293,16.5731244 12.4759863,18.3170705 10.525,21.225 L9.825,22.45 C9.11652113,23.8887539 8.74869333,25.4712689 8.74999653,27.075 L9.425,27.075 C9.79296128,21.9202536 14.0821372,17.926338 19.25,17.926338 C24.4178628,17.926338 28.7070387,21.9202536 29.075,27.075 L29.7500035,27.075 C29.7513067,25.4712689 29.3834789,23.8887539 28.675,22.45 L27.975,21.2 C26.0240137,18.2920705 22.7517707,16.5481244 19.25,16.55 L19.25,16.575 Z" id="Path" fill="#00FF00"></path>
                            <path d="M19.25,16.75 C16.5139331,16.7499919 13.890292,17.8385985 11.957947,19.7756336 C10.0256021,21.7126687 8.94335906,24.3389412 8.94996962,27.075 L9.425,27.075 C9.79296128,21.9202536 14.0821372,17.926338 19.25,17.926338 C24.4178628,17.926338 28.7070387,21.9202536 29.075,27.075 L29.5500304,27.075 C29.5566409,24.3389412 28.4743979,21.7126687 26.542053,19.7756336 C24.609708,17.8385985 21.9860669,16.7499919 19.25,16.75 Z" id="Path" fill="#00CCFF"></path>
                            <path d="M19.25,16.95 C13.671924,16.95 9.15,21.471924 9.15,27.05 L9.5,27.05 C9.5,21.6652237 13.8652237,17.3 19.25,17.3 C24.6347763,17.3 29,21.6652237 29,27.05 L29.35,27.05 C29.3224821,21.4914602 24.808608,16.9999319 19.25,17 L19.25,16.95 Z" id="Path" fill="#0000FF"></path>
                            <path d="M19.25,17.175 C16.5937529,17.174585 14.0487609,18.2416059 12.1870372,20.1362388 C10.3253136,22.0308717 9.3030461,24.5941679 9.35,27.25 L9.55,27.25 L9.55,27.05 C9.60522847,21.6928379 13.9928379,17.3947715 19.35,17.45 C24.7071621,17.5052285 29.0052285,21.8928379 28.95,27.25 L29.15,27.25 L29.15,27.05 C29.15,24.4243568 28.1069673,21.906253 26.2503571,20.0496429 C24.393747,18.1930327 21.8756432,17.15 19.25,17.15 L19.25,17.175 Z" id="Path" fill="#800080"></path>
                            <path d="M19.35,21.525 C19.175,21.525 19.05,21.4 18.9,21.375 C18.7514625,21.5057712 18.6846327,21.7062605 18.725,21.9 C18.8,21.925 18.8,22 18.95,22.125 C19.1,22.25 19.075,22.3 19.05,22.625 C19.05,22.725 19.075,23 19.2,23.025 C19.325,23.05 19.45,22.95 19.475,22.725 C19.5,22.55 19.575,22.425 19.65,22.325 C19.725,21.85 19.6,21.675 19.35,21.525 Z" id="Path" fill="#510000"></path>
                            <path d="M18.55,20.375 C18.4,20.375 18.15,20.625 18.05,20.5 C18,20.425 17.975,20.275 18.05,20.15 C18.1626039,19.9013604 18.356608,19.6985379 18.6,19.575 C19.175,19.225 19.575,19.325 19.85,19.825 C20.125,20.275 20.4,20.775 20.425,21.175 C20.425,21.3 20.5,21.525 20.375,21.65 C20.05,22 19.225,21.275 18.75,21.4 C18.6,21.425 18.4,21.55 18.25,21.45 C18.15,21.375 18.25,21.2 18.325,21.125 C18.475,21 18.7,20.525 18.675,20.325 C18.675,20.225 18.675,20.375 18.55,20.375 Z" id="Path" fill="#FF0000"></path>
                            <path d="M18.5,20.15 C18.2,20.25 18.25,20.4 18.1,20.525 C18.15,20.55 18.3,20.6 18.45,20.45 C18.5,20.4 18.575,20.375 18.625,20.375 L18.45,20.55 C18.3014756,20.6722565 18.1819349,20.8259516 18.1,21 C18.025,21.2 18,21.425 18.025,21.45 C18.025,21.45 18.125,21.65 18.4,21.75 C18.9,21.95 19,22.375 19.525,22.375 C19.925,22.375 19.875,22.1 20.2,22.15 C20.45,22.2 20.625,21.975 20.35,21.85 C19.904264,21.7623919 19.445736,21.7623919 19,21.85 C18.9,20.85 19,21.2 18.975,20.75 C18.95,20.325 18.8,20.3 18.975,19.925 C18.85,20.175 18.675,20.125 18.475,20.125 L18.5,20.15 Z" id="Path" fill="url(#linearGradient-3)"></path>
                            <path d="M19.5,19.45 L19.475,19.6 L19.55,19.85 L19.6,20.1 C19.6,20.175 19.7,20.2 19.775,20.25 C19.875,20.325 19.775,20.5 19.85,20.525 C19.9,20.525 19.975,20.275 19.975,20.225 L19.975,20.05 C19.9358693,19.9736189 19.894179,19.8985765 19.85,19.825 C19.8345965,19.7991806 19.8179089,19.7741492 19.8,19.75 C19.7444866,19.6657829 19.6771278,19.5900042 19.6,19.525 C19.5757642,19.5072145 19.5507388,19.4905309 19.525,19.475 L19.475,19.45 L19.5,19.45 Z" id="Path" fill="#FF2A2A"></path>
                            <path d="M19.575,21.35 L19.075,21.175 C18.75,21.075 18.425,20.875 18.2,20.975 C18.125,21 18.125,21.075 18.1,21.2 C18.1,21.325 17.975,21.525 18.1,21.45 C18.25,21.35 18.7,21.65 18.85,21.725 C18.925,21.775 19.1,21.875 19.125,21.975 C19.175,22.125 19.125,22.425 19.125,22.575 C19.125,22.7 19.175,23.025 19.3,23.075 C19.45,23.1 19.575,22.975 19.625,22.75 C19.7,22.525 19.725,22.4 19.825,22.275 C19.925,22.15 20.025,22.075 20.15,22.05 C20.3,22.05 20.5,22.175 20.5,22 C20.5,21.9 20.4,21.8 20.45,21.65 C20.475,21.525 20.35,21.55 20.225,21.5 L19.55,21.35 L19.575,21.35 Z" id="Path" fill="url(#linearGradient-4)"></path>
                            <path d="M18.85,21.725 C18.75,21.675 18.275,21.35 18.1,21.475 C18.025,21.475 18,21.475 18,21.4 L18.05,21.175 C18.05,21.1 18.1,20.975 18.175,20.925 C18.35,20.775 18.75,21.05 18.95,21.125 L18.85,21.725 Z" id="Path" fill="#910000"></path>
                            <path d="M19.7,22.35 C19.925,21.95 20.075,22 20.35,22 C20.45,22 20.475,21.925 20.45,21.825 C20.375,21.975 20.025,21.825 19.825,21.9 C19.45,22.075 19.525,22.825 19.325,22.9 C19.525,23.075 19.6,22.475 19.7,22.35 Z" id="Path" fill="#FF3A3A"></path>
                            <g id="Group" stroke-width="1" fill="none" transform="translate(5.000000, 26.250000)">
                                <polygon id="Path" fill="#FFFFFF" points="2.525 0.15 0.025 4.475 28.5 4.475 26 0.175 2.55 0.175"></polygon>
                                <g id="n" transform="translate(0.250000, 2.750000)" fill="url(#linearGradient-6)">
                                    <path d="M1.425,0.85 C1.03211615,0.84932658 0.639609808,0.874380176 0.25,0.925 L0.125,1.15 C0.725,1.075 1.3,0.975 1.925,0.975 C2.725,0.975 3.475,1.175 4.35,1.175 L5.5,1.175 C6.375,1.175 7.1,0.975 7.925,0.975 C8.75,0.975 9.5,1.175 10.375,1.175 L11.525,1.175 C12.4,1.175 13.125,0.975 13.95,0.975 C14.775,0.975 15.525,1.175 16.4,1.175 L17.525,1.175 C18.4,1.175 19.15,0.975 19.975,0.975 C20.8,0.975 21.55,1.175 22.425,1.175 L23.55,1.175 C24.425,1.175 25.175,0.975 26,0.975 C26.65,0.975 27.25,1.1 27.875,1.15 L27.75,0.9 C27.3846085,0.86207949 27.017325,0.845384786 26.65,0.85 L25.525,0.85 C24.65,0.85 23.9,1.025 23.075,1.05 C22.25,1.05 21.5,0.85 20.625,0.85 L19.5,0.85 C18.625,0.85 17.875,1.025 17.05,1.05 C16.225,1.05 15.475,0.85 14.6,0.85 L13.5,0.85 C12.625,0.85 11.875,1.025 11.05,1.05 C10.225,1.05 9.475,0.85 8.6,0.85 L7.475,0.85 C6.6,0.85 5.85,1.025 5.025,1.05 C4.2,1.05 3.475,0.85 2.6,0.85 L1.45,0.85 L1.425,0.85 Z" id="k"></path>
                                    <g id="k-link" transform="translate(0.000000, 0.475000)">
                                        <path d="M1.425,0.2 C1.03211615,0.198653159 0.639609808,0.248760353 0.25,0.35 L0.125,0.8 C0.725,0.65 1.3,0.45 1.925,0.45 C2.725,0.45 3.475,0.85 4.35,0.85 L5.5,0.85 C6.375,0.85 7.1,0.45 7.925,0.45 C8.75,0.45 9.5,0.85 10.375,0.85 L11.525,0.85 C12.4,0.85 13.125,0.45 13.95,0.45 C14.775,0.45 15.525,0.85 16.4,0.85 L17.525,0.85 C18.4,0.85 19.15,0.45 19.975,0.45 C20.8,0.45 21.55,0.85 22.425,0.85 L23.55,0.85 C24.425,0.85 25.175,0.45 26,0.45 C26.65,0.45 27.25,0.7 27.875,0.8 L27.75,0.3 C27.3846085,0.224158979 27.017325,0.190769573 26.65,0.2 L25.525,0.2 C24.65,0.2 23.9,0.55 23.075,0.6 C22.25,0.6 21.5,0.2 20.625,0.2 L19.5,0.2 C18.625,0.2 17.875,0.55 17.05,0.6 C16.225,0.6 15.475,0.2 14.6,0.2 L13.5,0.2 C12.625,0.2 11.875,0.55 11.05,0.6 C10.225,0.6 9.475,0.2 8.6,0.2 L7.475,0.2 C6.6,0.2 5.85,0.55 5.025,0.6 C4.2,0.6 3.475,0.2 2.6,0.2 L1.45,0.2 L1.425,0.2 Z" id="k"></path>
                                    </g>
                                    <g id="k-link" transform="translate(0.000000, 0.200000)">
                                        <path d="M1.425,0.2 C1.03211615,0.198653159 0.639609808,0.248760353 0.25,0.35 L0.125,0.8 C0.725,0.65 1.3,0.45 1.925,0.45 C2.725,0.45 3.475,0.85 4.35,0.85 L5.5,0.85 C6.375,0.85 7.1,0.45 7.925,0.45 C8.75,0.45 9.5,0.85 10.375,0.85 L11.525,0.85 C12.4,0.85 13.125,0.45 13.95,0.45 C14.775,0.45 15.525,0.85 16.4,0.85 L17.525,0.85 C18.4,0.85 19.15,0.45 19.975,0.45 C20.8,0.45 21.55,0.85 22.425,0.85 L23.55,0.85 C24.425,0.85 25.175,0.45 26,0.45 C26.65,0.45 27.25,0.7 27.875,0.8 L27.75,0.3 C27.3846085,0.224158979 27.017325,0.190769573 26.65,0.2 L25.525,0.2 C24.65,0.2 23.9,0.55 23.075,0.6 C22.25,0.6 21.5,0.2 20.625,0.2 L19.5,0.2 C18.625,0.2 17.875,0.55 17.05,0.6 C16.225,0.6 15.475,0.2 14.6,0.2 L13.5,0.2 C12.625,0.2 11.875,0.55 11.05,0.6 C10.225,0.6 9.475,0.2 8.6,0.2 L7.475,0.2 C6.6,0.2 5.85,0.55 5.025,0.6 C4.2,0.6 3.475,0.2 2.6,0.2 L1.45,0.2 L1.425,0.2 Z" id="k"></path>
                                    </g>
                                </g>
                                <g id="n-link" transform="translate(0.250000, 1.925000)" fill="url(#linearGradient-6)">
                                    <g id="n">
                                        <path d="M1.425,0.85 C1.03211615,0.84932658 0.639609808,0.874380176 0.25,0.925 L0.125,1.15 C0.725,1.075 1.3,0.975 1.925,0.975 C2.725,0.975 3.475,1.175 4.35,1.175 L5.5,1.175 C6.375,1.175 7.1,0.975 7.925,0.975 C8.75,0.975 9.5,1.175 10.375,1.175 L11.525,1.175 C12.4,1.175 13.125,0.975 13.95,0.975 C14.775,0.975 15.525,1.175 16.4,1.175 L17.525,1.175 C18.4,1.175 19.15,0.975 19.975,0.975 C20.8,0.975 21.55,1.175 22.425,1.175 L23.55,1.175 C24.425,1.175 25.175,0.975 26,0.975 C26.65,0.975 27.25,1.1 27.875,1.15 L27.75,0.9 C27.3846085,0.86207949 27.017325,0.845384786 26.65,0.85 L25.525,0.85 C24.65,0.85 23.9,1.025 23.075,1.05 C22.25,1.05 21.5,0.85 20.625,0.85 L19.5,0.85 C18.625,0.85 17.875,1.025 17.05,1.05 C16.225,1.05 15.475,0.85 14.6,0.85 L13.5,0.85 C12.625,0.85 11.875,1.025 11.05,1.05 C10.225,1.05 9.475,0.85 8.6,0.85 L7.475,0.85 C6.6,0.85 5.85,1.025 5.025,1.05 C4.2,1.05 3.475,0.85 2.6,0.85 L1.45,0.85 L1.425,0.85 Z" id="k"></path>
                                        <g id="k-link" transform="translate(0.000000, 0.475000)">
                                            <path d="M1.425,0.2 C1.03211615,0.198653159 0.639609808,0.248760353 0.25,0.35 L0.125,0.8 C0.725,0.65 1.3,0.45 1.925,0.45 C2.725,0.45 3.475,0.85 4.35,0.85 L5.5,0.85 C6.375,0.85 7.1,0.45 7.925,0.45 C8.75,0.45 9.5,0.85 10.375,0.85 L11.525,0.85 C12.4,0.85 13.125,0.45 13.95,0.45 C14.775,0.45 15.525,0.85 16.4,0.85 L17.525,0.85 C18.4,0.85 19.15,0.45 19.975,0.45 C20.8,0.45 21.55,0.85 22.425,0.85 L23.55,0.85 C24.425,0.85 25.175,0.45 26,0.45 C26.65,0.45 27.25,0.7 27.875,0.8 L27.75,0.3 C27.3846085,0.224158979 27.017325,0.190769573 26.65,0.2 L25.525,0.2 C24.65,0.2 23.9,0.55 23.075,0.6 C22.25,0.6 21.5,0.2 20.625,0.2 L19.5,0.2 C18.625,0.2 17.875,0.55 17.05,0.6 C16.225,0.6 15.475,0.2 14.6,0.2 L13.5,0.2 C12.625,0.2 11.875,0.55 11.05,0.6 C10.225,0.6 9.475,0.2 8.6,0.2 L7.475,0.2 C6.6,0.2 5.85,0.55 5.025,0.6 C4.2,0.6 3.475,0.2 2.6,0.2 L1.45,0.2 L1.425,0.2 Z" id="k"></path>
                                        </g>
                                        <g id="k-link" transform="translate(0.000000, 0.200000)">
                                            <path d="M1.425,0.2 C1.03211615,0.198653159 0.639609808,0.248760353 0.25,0.35 L0.125,0.8 C0.725,0.65 1.3,0.45 1.925,0.45 C2.725,0.45 3.475,0.85 4.35,0.85 L5.5,0.85 C6.375,0.85 7.1,0.45 7.925,0.45 C8.75,0.45 9.5,0.85 10.375,0.85 L11.525,0.85 C12.4,0.85 13.125,0.45 13.95,0.45 C14.775,0.45 15.525,0.85 16.4,0.85 L17.525,0.85 C18.4,0.85 19.15,0.45 19.975,0.45 C20.8,0.45 21.55,0.85 22.425,0.85 L23.55,0.85 C24.425,0.85 25.175,0.45 26,0.45 C26.65,0.45 27.25,0.7 27.875,0.8 L27.75,0.3 C27.3846085,0.224158979 27.017325,0.190769573 26.65,0.2 L25.525,0.2 C24.65,0.2 23.9,0.55 23.075,0.6 C22.25,0.6 21.5,0.2 20.625,0.2 L19.5,0.2 C18.625,0.2 17.875,0.55 17.05,0.6 C16.225,0.6 15.475,0.2 14.6,0.2 L13.5,0.2 C12.625,0.2 11.875,0.55 11.05,0.6 C10.225,0.6 9.475,0.2 8.6,0.2 L7.475,0.2 C6.6,0.2 5.85,0.55 5.025,0.6 C4.2,0.6 3.475,0.2 2.6,0.2 L1.45,0.2 L1.425,0.2 Z" id="k"></path>
                                        </g>
                                    </g>
                                </g>
                                <g id="n-link" transform="translate(0.250000, 1.075000)" fill="url(#linearGradient-6)">
                                    <g id="n">
                                        <path d="M1.425,0.85 C1.03211615,0.84932658 0.639609808,0.874380176 0.25,0.925 L0.125,1.15 C0.725,1.075 1.3,0.975 1.925,0.975 C2.725,0.975 3.475,1.175 4.35,1.175 L5.5,1.175 C6.375,1.175 7.1,0.975 7.925,0.975 C8.75,0.975 9.5,1.175 10.375,1.175 L11.525,1.175 C12.4,1.175 13.125,0.975 13.95,0.975 C14.775,0.975 15.525,1.175 16.4,1.175 L17.525,1.175 C18.4,1.175 19.15,0.975 19.975,0.975 C20.8,0.975 21.55,1.175 22.425,1.175 L23.55,1.175 C24.425,1.175 25.175,0.975 26,0.975 C26.65,0.975 27.25,1.1 27.875,1.15 L27.75,0.9 C27.3846085,0.86207949 27.017325,0.845384786 26.65,0.85 L25.525,0.85 C24.65,0.85 23.9,1.025 23.075,1.05 C22.25,1.05 21.5,0.85 20.625,0.85 L19.5,0.85 C18.625,0.85 17.875,1.025 17.05,1.05 C16.225,1.05 15.475,0.85 14.6,0.85 L13.5,0.85 C12.625,0.85 11.875,1.025 11.05,1.05 C10.225,1.05 9.475,0.85 8.6,0.85 L7.475,0.85 C6.6,0.85 5.85,1.025 5.025,1.05 C4.2,1.05 3.475,0.85 2.6,0.85 L1.45,0.85 L1.425,0.85 Z" id="k"></path>
                                        <g id="k-link" transform="translate(0.000000, 0.475000)">
                                            <path d="M1.425,0.2 C1.03211615,0.198653159 0.639609808,0.248760353 0.25,0.35 L0.125,0.8 C0.725,0.65 1.3,0.45 1.925,0.45 C2.725,0.45 3.475,0.85 4.35,0.85 L5.5,0.85 C6.375,0.85 7.1,0.45 7.925,0.45 C8.75,0.45 9.5,0.85 10.375,0.85 L11.525,0.85 C12.4,0.85 13.125,0.45 13.95,0.45 C14.775,0.45 15.525,0.85 16.4,0.85 L17.525,0.85 C18.4,0.85 19.15,0.45 19.975,0.45 C20.8,0.45 21.55,0.85 22.425,0.85 L23.55,0.85 C24.425,0.85 25.175,0.45 26,0.45 C26.65,0.45 27.25,0.7 27.875,0.8 L27.75,0.3 C27.3846085,0.224158979 27.017325,0.190769573 26.65,0.2 L25.525,0.2 C24.65,0.2 23.9,0.55 23.075,0.6 C22.25,0.6 21.5,0.2 20.625,0.2 L19.5,0.2 C18.625,0.2 17.875,0.55 17.05,0.6 C16.225,0.6 15.475,0.2 14.6,0.2 L13.5,0.2 C12.625,0.2 11.875,0.55 11.05,0.6 C10.225,0.6 9.475,0.2 8.6,0.2 L7.475,0.2 C6.6,0.2 5.85,0.55 5.025,0.6 C4.2,0.6 3.475,0.2 2.6,0.2 L1.45,0.2 L1.425,0.2 Z" id="k"></path>
                                        </g>
                                        <g id="k-link" transform="translate(0.000000, 0.200000)">
                                            <path d="M1.425,0.2 C1.03211615,0.198653159 0.639609808,0.248760353 0.25,0.35 L0.125,0.8 C0.725,0.65 1.3,0.45 1.925,0.45 C2.725,0.45 3.475,0.85 4.35,0.85 L5.5,0.85 C6.375,0.85 7.1,0.45 7.925,0.45 C8.75,0.45 9.5,0.85 10.375,0.85 L11.525,0.85 C12.4,0.85 13.125,0.45 13.95,0.45 C14.775,0.45 15.525,0.85 16.4,0.85 L17.525,0.85 C18.4,0.85 19.15,0.45 19.975,0.45 C20.8,0.45 21.55,0.85 22.425,0.85 L23.55,0.85 C24.425,0.85 25.175,0.45 26,0.45 C26.65,0.45 27.25,0.7 27.875,0.8 L27.75,0.3 C27.3846085,0.224158979 27.017325,0.190769573 26.65,0.2 L25.525,0.2 C24.65,0.2 23.9,0.55 23.075,0.6 C22.25,0.6 21.5,0.2 20.625,0.2 L19.5,0.2 C18.625,0.2 17.875,0.55 17.05,0.6 C16.225,0.6 15.475,0.2 14.6,0.2 L13.5,0.2 C12.625,0.2 11.875,0.55 11.05,0.6 C10.225,0.6 9.475,0.2 8.6,0.2 L7.475,0.2 C6.6,0.2 5.85,0.55 5.025,0.6 C4.2,0.6 3.475,0.2 2.6,0.2 L1.45,0.2 L1.425,0.2 Z" id="k"></path>
                                        </g>
                                    </g>
                                </g>
                                <path d="M2.55,0.125 L2.55,0.175 L25.975,0.175 L25.95,0.125 L2.55,0.125 Z M2.5,0.2 L2.475,0.275 L26,0.275 L25.975,0.2 L2.475,0.2 L2.5,0.2 Z M2.45,0.3 L2.4,0.375 L26.1,0.375 L26.05,0.3 L2.45,0.3 Z M2.375,0.425 L2.3,0.55 L26.2,0.55 L26.125,0.425 L2.375,0.425 Z M2.275,0.6 L2.2,0.725 L26.3,0.725 L26.225,0.6 L2.275,0.6 Z M2.175,0.775 L2.125,0.875 L26.375,0.875 L26.325,0.775 L2.175,0.775 Z M2.075,0.95 L2.025,1.05 L26.5,1.05 L26.425,0.95 L2.075,0.95 Z M1.975,1.125 L1.9,1.275 L26.6,1.275 L26.525,1.125 L2,1.125 L1.975,1.125 Z" id="Shape" fill="url(#linearGradient-12)" fill-rule="nonzero"></path>
                                <path d="M3.6,1.325 C4.45,2.025 4.525,1.325 4.525,1.325 L3.6,1.325 Z M23.975,1.325 C23.975,1.325 24.05,2.025 24.9,1.325 L23.975,1.325 Z" id="Shape" fill="url(#linearGradient-13)" fill-rule="nonzero"></path>
                            </g>
                            <g id="Group" stroke-width="1" fill="none" transform="translate(4.250000, 23.750000)">
                                <g id="t" transform="translate(14.250000, 0.000000)">
                                    <path d="M8.4,0 C7.975,0 7.85,0.225 7.85,0.225 C7.175,2.875 4.9,5.55 2.2,5.55 L0.2,5.55 L0.2,8.25 L15.55,8.25 L14,5.5 C11.575,5.15 9.6,2.675 8.975,0.225 C8.975,0.225 8.825,0 8.4,0 Z" id="Path" fill="url(#linearGradient-14)"></path>
                                    <path d="M8.4,0.125 C8.2,0.125 8.1,0.15 8.025,0.2 L7.95,0.275 C7.57516855,1.65917082 6.85221735,2.92433541 5.85,3.95 C4.85,4.975 3.6,5.675 2.2,5.675 L0.275,5.675 L0.275,8.15 L15.5,8.15 L14.075,5.65 C12.9,5.475 11.825,4.85 10.975,3.95 C9.97278265,2.92433541 9.24983145,1.65917082 8.875,0.275 L8.8,0.2 C8.67703682,0.135937263 8.5378186,0.109833846 8.4,0.125 Z" id="Path" fill="#97C924"></path>
                                    <path d="M8.4,0.125 L8.5,0.125 L8.5,2.825 C8.47611005,3.3928794 8.30370863,3.94456394 8,4.425 C7.875,4.825 7.75,4.675 7.425,5.15 C7.00340327,5.2953716 6.56766551,5.39592647 6.125,5.45 C5.5,5.55 4.125,5.65 3.4,5.475 C4.33042527,5.19034375 5.17339966,4.67423697 5.85,3.975 C6.03599762,3.77615786 6.21124701,3.56752763 6.375,3.35 C6.65362503,3.00369133 6.90440784,2.63587654 7.125,2.25 L7.375,1.75 C7.49460785,1.51354702 7.60306032,1.27161457 7.7,1.025 C7.79654854,0.779600843 7.87999934,0.529248448 7.95,0.275 L8.025,0.2 L8.175,0.15 L8.425,0.125 L8.4,0.125 Z" id="Path" fill="#EDE71F"></path>
                                    <path d="M8.25,0.475 C8.125,1.975 7.675,3.775 6.575,4.925 C6.175,5.25 5.65,5.575 5.175,5.5 C6.85,4.125 7.875,2 8.225,0.475 L8.25,0.475 Z" id="Path" fill="#C6CB24"></path>
                                    <path d="M6.875,3.075 C6.625,3.75 5.675,4.75 4.675,5.575 L3.95,5.575 C4.575,5.525 6.025,4.325 6.875,3.075 Z" id="Path" fill="#9ECB34"></path>
                                </g>
                                <g id="t-link" transform="translate(10.425000, 0.000000)">
                                    <g id="t">
                                        <path d="M8.4,0 C7.975,0 7.85,0.225 7.85,0.225 C7.175,2.875 4.9,5.55 2.2,5.55 L0.2,5.55 L0.2,8.25 L15.55,8.25 L14,5.5 C11.575,5.15 9.6,2.675 8.975,0.225 C8.975,0.225 8.825,0 8.4,0 Z" id="Path" fill="url(#linearGradient-14)"></path>
                                        <path d="M8.4,0.125 C8.2,0.125 8.1,0.15 8.025,0.2 L7.95,0.275 C7.57516855,1.65917082 6.85221735,2.92433541 5.85,3.95 C4.85,4.975 3.6,5.675 2.2,5.675 L0.275,5.675 L0.275,8.15 L15.5,8.15 L14.075,5.65 C12.9,5.475 11.825,4.85 10.975,3.95 C9.97278265,2.92433541 9.24983145,1.65917082 8.875,0.275 L8.8,0.2 C8.67703682,0.135937263 8.5378186,0.109833846 8.4,0.125 Z" id="Path" fill="#97C924"></path>
                                        <path d="M8.4,0.125 L8.5,0.125 L8.5,2.825 C8.47611005,3.3928794 8.30370863,3.94456394 8,4.425 C7.875,4.825 7.75,4.675 7.425,5.15 C7.00340327,5.2953716 6.56766551,5.39592647 6.125,5.45 C5.5,5.55 4.125,5.65 3.4,5.475 C4.33042527,5.19034375 5.17339966,4.67423697 5.85,3.975 C6.03599762,3.77615786 6.21124701,3.56752763 6.375,3.35 C6.65362503,3.00369133 6.90440784,2.63587654 7.125,2.25 L7.375,1.75 C7.49460785,1.51354702 7.60306032,1.27161457 7.7,1.025 C7.79654854,0.779600843 7.87999934,0.529248448 7.95,0.275 L8.025,0.2 L8.175,0.15 L8.425,0.125 L8.4,0.125 Z" id="Path" fill="#EDE71F"></path>
                                        <path d="M8.25,0.475 C8.125,1.975 7.675,3.775 6.575,4.925 C6.175,5.25 5.65,5.575 5.175,5.5 C6.85,4.125 7.875,2 8.225,0.475 L8.25,0.475 Z" id="Path" fill="#C6CB24"></path>
                                        <path d="M6.875,3.075 C6.625,3.75 5.675,4.75 4.675,5.575 L3.95,5.575 C4.575,5.525 6.025,4.325 6.875,3.075 Z" id="Path" fill="#9ECB34"></path>
                                    </g>
                                </g>
                                <g transform="translate(6.750000, 0.000000)" id="Path">
                                    <path d="M8.8,0.25 C9.5,2.875 11.75,5.55 14.45,5.55 L16.475,5.55 L16.475,8.25 L0.025,8.25 L0.025,5.55 L2.025,5.55 C4.725,5.55 7,2.875 7.675,0.225 C7.675,0.225 7.825,0.025 8.25,0.025 C8.675,0.025 8.8,0.225 8.8,0.225 L8.8,0.25 Z" fill="url(#linearGradient-15)"></path>
                                    <path d="M8.25,0.125 C8.45,0.125 8.55,0.175 8.625,0.2 L8.7,0.275 C9.07483145,1.65917082 9.79778265,2.92433541 10.8,3.95 C11.8,4.975 13.05,5.675 14.45,5.675 L16.375,5.675 L16.375,8.15 L0.125,8.15 L0.125,5.65 L2.05,5.65 C3.425,5.65 4.7,4.975 5.7,3.95 C6.69314341,2.92154673 7.40735155,1.65662388 7.775,0.275 L7.85,0.2 C7.97387246,0.138611253 8.11230258,0.112655605 8.25,0.125 Z" fill="#97C924"></path>
                                    <path d="M8.075,0.125 C8.05001218,0.123896522 8.02498782,0.123896522 8,0.125 L7.85,0.2 L7.775,0.275 C7.70541704,0.529375281 7.6219588,0.77975 7.525,1.025 C7.43687202,1.27958685 7.33676032,1.52986609 7.225,1.775 C7.14665855,1.93591081 7.06328414,2.09432219 6.975,2.25 C6.75449681,2.63593217 6.50370932,3.00375382 6.225,3.35 C6.06051296,3.55896037 5.8852766,3.7592305 5.7,3.95 C5.0262487,4.65833745 4.18302525,5.18320102 3.25,5.475 C3.95,5.65 4.25,5.475 4.875,5.375 C5.375,5.3 5.925,5.225 6.375,5.075 C6.75,4.575 6.625,4.75 6.75,4.35 C7.05,3.8 7.5,3.3 7.6,2.675 C8,1.925 8.075,0.525 8.075,0.125 Z" fill="#EDE71F"></path>
                                    <path d="M8.075,0.475 C7.975,1.975 7.5,3.775 6.4,4.925 C6,5.25 5.5,5.575 5,5.5 C6.7,4.125 7.725,2 8.075,0.475 Z" fill="#C6CB24"></path>
                                    <path d="M6.7,3.075 C6.15648692,4.05790567 5.40582587,4.91092958 4.5,5.575 L3.8,5.575 C4.425,5.525 5.85,4.325 6.7,3.075 Z" fill="#9ECB34"></path>
                                    <path d="M8.5,0.15 L8.625,0.2 L8.725,0.275 C8.79603809,0.528931806 8.87947139,0.779231699 8.975,1.025 C9.06291472,1.27966631 9.16303045,1.52995562 9.275,1.775 L9.525,2.25 C9.74550319,2.63593217 9.99629068,3.00375382 10.275,3.35 C10.439487,3.55896037 10.6147234,3.7592305 10.8,3.95 C11.469272,4.68645897 12.3112119,5.24488847 13.25,5.575 C11.425,5.575 10.65,5.425 10,4.575 C9.52733957,4.07463342 9.16907148,3.47751994 8.95,2.825 C8.825,2.325 8.45,1.2 8.475,0.15 L8.5,0.15 Z" fill="#EDE71F"></path>
                                    <path d="M8.625,0.475 C8.725,1.975 9.175,3.475 10.275,4.625 C10.675,4.975 11.175,5.275 11.675,5.2 C10.1043718,4.06074824 9.01647427,2.37539872 8.625,0.475 Z" fill="#C6CB24"></path>
                                </g>
                                <g id="w" transform="translate(4.000000, 0.000000)">
                                    <path d="M7.2,0 C6.75,0 6.625,0.225 6.625,0.225 C6,2.675 3.675,5.8 1.25,6.175 L0.05,8.25 L12.3,8.25 L12.3,5.425 C10.1,4.825 8.325,2.5 7.75,0.225 C7.75,0.225 7.625,0.025 7.175,0.025 L7.2,0 Z" id="Path" fill="url(#linearGradient-16)"></path>
                                    <path d="M7.2,0.125 C7,0.125 6.875,0.175 6.8,0.2 L6.725,0.275 C6.3045484,1.64657986 5.6162731,2.92116375 4.7,4.025 C3.85,5.1 2.275,6.175 1.2,6.275 L0.125,8.15 L12.125,8.15 L12.125,5.475 C11.2223848,5.17715708 10.4067998,4.66205077 9.75,3.975 C8.74409532,2.94230471 8.02089996,1.66810337 7.65,0.275 L7.575,0.2 C7.4589652,0.141888602 7.32945958,0.115987478 7.2,0.125 Z" id="Path" fill="#97C924"></path>
                                    <path d="M6.85,0.475 C6.7,2.725 5.45,5.6 4.025,6.075 C3.55,6.25 2.75,6.3 2.475,6.325 C4.70424238,5.08645104 6.30338827,2.9603139 6.875,0.475 L6.85,0.475 Z" id="Path" fill="#93BC30"></path>
                                    <path d="M7.2,0.125 L7.075,0.125 L7.075,2.825 C7.075,3.4 7.3,3.875 7.575,4.425 L7.625,4.55 C7.75,4.825 7.825,4.925 8.2,5.225 C9.2735384,5.9911845 10.5866598,6.34608218 11.9,6.225 C11.625,6 11.325,5.8 11.05,5.625 L12.175,5.5 C11.2483422,5.19725505 10.4138698,4.66388093 9.75,3.95 C9.6291606,3.82896075 9.51242789,3.70389 9.4,3.575 L9.25,3.375 C8.95412236,3.02165334 8.68662344,2.64548298 8.45,2.25 C8.36123898,2.08610287 8.27786109,1.9193471 8.2,1.75 C8.04662826,1.43358638 7.91303823,1.1079607 7.8,0.775 C7.74452296,0.610025736 7.69449582,0.443268629 7.65,0.275 L7.575,0.2 C7.52766914,0.176195816 7.4771472,0.159355171 7.425,0.15 C7.34324547,0.130018642 7.25909234,0.121603329 7.175,0.125 L7.2,0.125 Z" id="Path" fill="#EDE71F"></path>
                                    <path d="M7.35,0.475 C7.475,1.975 7.925,3.775 9.025,4.925 C9.425,5.25 9.925,5.575 10.425,5.5 C8.8999834,4.1875688 7.82459488,2.43022658 7.35,0.475 Z" id="Path" fill="#CCD11E"></path>
                                    <path d="M8.4,2.575 C9.20975142,4.15881001 10.4829854,5.45820629 12.05,6.3 L12.675,6.3 C11.575,5.7 9.8,4.85 8.425,2.55 L8.4,2.575 Z" id="Path" fill="#9ECB34"></path>
                                </g>
                                <g id="w-link" transform="translate(0.150000, 0.000000)">
                                    <g id="w">
                                        <path d="M7.2,0 C6.75,0 6.625,0.225 6.625,0.225 C6,2.675 3.675,5.8 1.25,6.175 L0.05,8.25 L12.3,8.25 L12.3,5.425 C10.1,4.825 8.325,2.5 7.75,0.225 C7.75,0.225 7.625,0.025 7.175,0.025 L7.2,0 Z" id="Path" fill="url(#linearGradient-16)"></path>
                                        <path d="M7.2,0.125 C7,0.125 6.875,0.175 6.8,0.2 L6.725,0.275 C6.3045484,1.64657986 5.6162731,2.92116375 4.7,4.025 C3.85,5.1 2.275,6.175 1.2,6.275 L0.125,8.15 L12.125,8.15 L12.125,5.475 C11.2223848,5.17715708 10.4067998,4.66205077 9.75,3.975 C8.74409532,2.94230471 8.02089996,1.66810337 7.65,0.275 L7.575,0.2 C7.4589652,0.141888602 7.32945958,0.115987478 7.2,0.125 Z" id="Path" fill="#97C924"></path>
                                        <path d="M6.85,0.475 C6.7,2.725 5.45,5.6 4.025,6.075 C3.55,6.25 2.75,6.3 2.475,6.325 C4.70424238,5.08645104 6.30338827,2.9603139 6.875,0.475 L6.85,0.475 Z" id="Path" fill="#93BC30"></path>
                                        <path d="M7.2,0.125 L7.075,0.125 L7.075,2.825 C7.075,3.4 7.3,3.875 7.575,4.425 L7.625,4.55 C7.75,4.825 7.825,4.925 8.2,5.225 C9.2735384,5.9911845 10.5866598,6.34608218 11.9,6.225 C11.625,6 11.325,5.8 11.05,5.625 L12.175,5.5 C11.2483422,5.19725505 10.4138698,4.66388093 9.75,3.95 C9.6291606,3.82896075 9.51242789,3.70389 9.4,3.575 L9.25,3.375 C8.95412236,3.02165334 8.68662344,2.64548298 8.45,2.25 C8.36123898,2.08610287 8.27786109,1.9193471 8.2,1.75 C8.04662826,1.43358638 7.91303823,1.1079607 7.8,0.775 C7.74452296,0.610025736 7.69449582,0.443268629 7.65,0.275 L7.575,0.2 C7.52766914,0.176195816 7.4771472,0.159355171 7.425,0.15 C7.34324547,0.130018642 7.25909234,0.121603329 7.175,0.125 L7.2,0.125 Z" id="Path" fill="#EDE71F"></path>
                                        <path d="M7.35,0.475 C7.475,1.975 7.925,3.775 9.025,4.925 C9.425,5.25 9.925,5.575 10.425,5.5 C8.8999834,4.1875688 7.82459488,2.43022658 7.35,0.475 Z" id="Path" fill="#C6CB24"></path>
                                        <path d="M8.4,2.575 C9.20975142,4.15881001 10.4829854,5.45820629 12.05,6.3 L12.675,6.3 C11.575,5.7 9.8,4.85 8.425,2.55 L8.4,2.575 Z" id="Path" fill="#9ECB34"></path>
                                    </g>
                                </g>
                            </g>
                            <path d="M33.375,30.675 C33.225,30.725 32.275,30.625 31.775,30.675 L31.45,30.75 L30.625,30.75 C29.725,30.75 28.95,31 28.1,31 C27.25,31 26.475,30.75 25.6,30.75 L24.75,30.75 C23.85,30.75 23.075,31 22.225,31 C21.375,31 20.6,30.75 19.725,30.75 L18.875,30.75 C17.975,30.75 17.2,31 16.375,31 C15.5,31 14.75,30.75 13.85,30.75 L13,30.75 C12.1,30.75 11.35,31 10.5,31 C9.625,31 8.875,30.75 7.975,30.75 L7.125,30.75 C6.425,30.75 5.575,30.9 4.9,30.95 L3.325,33.675 L35.175,33.675 L33.375,30.675 Z" id="Path" fill="#FFFFFF"></path>
                            <path d="M31.25,30.275 L31.1,30.275 C30.3,30.3 29.7,30.55 28.3,30.55 C26.9,30.55 26.75,30.3 25.15,30.35 C23.65,30.35 23.05,30.65 22.225,30.65 C21.425,30.65 20.125,30.475 19.1,30.575 C18.1,30.675 16.9,30.9 16.1,30.9 C15.125,30.9 14.15,30.725 13.15,30.825 C12.125,30.925 11.65,31.2 10.375,31.2 C9.275,31.2 8.125,31.025 7.175,31.025 C6.325,31.025 5.375,31.275 4.675,31.375 L4.45,31.75 C5.025,31.675 6.6,31.425 7.15,31.425 C7.75,31.425 9.825,31.55 10.975,31.5 C12.15,31.475 12.275,31.2 13.65,31.2 C14.6,31.2 15.3,31.3 16.275,31.3 C16.9,31.3 17.45,31 18.375,31 L19.075,30.975 C19.85,30.85 21.175,30.975 22.075,31.025 C22.9,31.075 23.45,30.875 24.325,30.85 L25.425,30.825 C26.3,30.775 27.025,30.975 27.85,30.975 C28.65,30.925 29.45,30.725 30.3,30.725 L31.425,30.675 C32,30.675 32.9,30.675 33.5,30.8 L33.3,30.45 C32.7,30.425 31.975,30.275 31.25,30.275 Z" id="Path" fill="url(#linearGradient-17)"></path>
                            <g id="A" stroke-width="1" fill="none" transform="translate(3.250000, 32.250000)">
                                <path d="M3.575,0.95 C2.725,0.95 1.975,1.15 1.175,1.175 C0.873821212,1.16707395 0.573336495,1.14203356 0.275,1.1 L0.15,1.3 L1.65,1.3 C2.525,1.3 3.25,1.1 4.05,1.075 C4.875,1.1 5.6,1.325 6.475,1.325 L7.6,1.325 C8.45,1.325 9.2,1.1 10,1.075 C10.825,1.1 11.575,1.325 12.425,1.325 L13.55,1.325 C14.425,1.325 15.15,1.1 15.975,1.075 C16.775,1.1 17.5,1.325 18.375,1.325 L19.5,1.325 C20.35,1.325 21.1,1.1 21.925,1.075 C22.725,1.1 23.475,1.325 24.325,1.325 L25.45,1.325 C26.325,1.325 27.05,1.1 27.85,1.075 C28.675,1.1 29.4,1.325 30.275,1.325 L31.4,1.325 L31.85,1.3 L31.725,1.1 C31.475,1.125 31.2,1.175 30.925,1.175 C30.1,1.175 29.375,0.925 28.5,0.925 L27.375,0.925 C26.525,0.925 25.775,1.175 24.975,1.175 C24.15,1.15 23.425,0.925 22.55,0.925 L21.425,0.925 C20.575,0.925 19.825,1.175 19.025,1.175 C18.2,1.15 17.475,0.925 16.6,0.925 L15.475,0.925 C14.6,0.925 13.875,1.175 13.075,1.175 C12.25,1.15 11.525,0.925 10.65,0.925 L9.525,0.925 C8.675,0.925 7.925,1.175 7.125,1.175 C6.3,1.15 5.575,0.925 4.7,0.925 L3.575,0.925 L3.575,0.95 Z" id="z" fill="url(#linearGradient-18)"></path>
                                <g id="z-link" transform="translate(0.000000, 0.425000)" fill="url(#linearGradient-18)">
                                    <path d="M3.575,0.266666667 C2.725,0.266666667 1.975,0.533333333 1.175,0.566666667 C0.873821212,0.556098607 0.573336495,0.522711416 0.275,0.466666667 L0.15,0.733333333 L1.65,0.733333333 C2.525,0.733333333 3.25,0.466666667 4.05,0.433333333 C4.875,0.466666667 5.6,0.766666667 6.475,0.766666667 L7.6,0.766666667 C8.45,0.766666667 9.2,0.466666667 10,0.433333333 C10.825,0.466666667 11.575,0.766666667 12.425,0.766666667 L13.55,0.766666667 C14.425,0.766666667 15.15,0.466666667 15.975,0.433333333 C16.775,0.466666667 17.5,0.766666667 18.375,0.766666667 L19.5,0.766666667 C20.35,0.766666667 21.1,0.466666667 21.925,0.433333333 C22.725,0.466666667 23.475,0.766666667 24.325,0.766666667 L25.45,0.766666667 C26.325,0.766666667 27.05,0.466666667 27.85,0.433333333 C28.675,0.466666667 29.4,0.766666667 30.275,0.766666667 L31.4,0.766666667 L31.85,0.733333333 L31.725,0.466666667 C31.475,0.5 31.2,0.566666667 30.925,0.566666667 C30.1,0.566666667 29.375,0.233333333 28.5,0.233333333 L27.375,0.233333333 C26.525,0.233333333 25.775,0.566666667 24.975,0.566666667 C24.15,0.533333333 23.425,0.233333333 22.55,0.233333333 L21.425,0.233333333 C20.575,0.233333333 19.825,0.566666667 19.025,0.566666667 C18.2,0.533333333 17.475,0.233333333 16.6,0.233333333 L15.475,0.233333333 C14.6,0.233333333 13.875,0.566666667 13.075,0.566666667 C12.25,0.533333333 11.525,0.233333333 10.65,0.233333333 L9.525,0.233333333 C8.675,0.233333333 7.925,0.566666667 7.125,0.566666667 C6.3,0.533333333 5.575,0.233333333 4.7,0.233333333 L3.575,0.233333333 L3.575,0.266666667 Z" id="z"></path>
                                </g>
                                <g id="z-link" transform="translate(0.000000, 0.100000)" fill="url(#linearGradient-18)">
                                    <path d="M3.575,0.266666667 C2.725,0.266666667 1.975,0.533333333 1.175,0.566666667 C0.873821212,0.556098607 0.573336495,0.522711416 0.275,0.466666667 L0.15,0.733333333 L1.65,0.733333333 C2.525,0.733333333 3.25,0.466666667 4.05,0.433333333 C4.875,0.466666667 5.6,0.766666667 6.475,0.766666667 L7.6,0.766666667 C8.45,0.766666667 9.2,0.466666667 10,0.433333333 C10.825,0.466666667 11.575,0.766666667 12.425,0.766666667 L13.55,0.766666667 C14.425,0.766666667 15.15,0.466666667 15.975,0.433333333 C16.775,0.466666667 17.5,0.766666667 18.375,0.766666667 L19.5,0.766666667 C20.35,0.766666667 21.1,0.466666667 21.925,0.433333333 C22.725,0.466666667 23.475,0.766666667 24.325,0.766666667 L25.45,0.766666667 C26.325,0.766666667 27.05,0.466666667 27.85,0.433333333 C28.675,0.466666667 29.4,0.766666667 30.275,0.766666667 L31.4,0.766666667 L31.85,0.733333333 L31.725,0.466666667 C31.475,0.5 31.2,0.566666667 30.925,0.566666667 C30.1,0.566666667 29.375,0.233333333 28.5,0.233333333 L27.375,0.233333333 C26.525,0.233333333 25.775,0.566666667 24.975,0.566666667 C24.15,0.533333333 23.425,0.233333333 22.55,0.233333333 L21.425,0.233333333 C20.575,0.233333333 19.825,0.566666667 19.025,0.566666667 C18.2,0.533333333 17.475,0.233333333 16.6,0.233333333 L15.475,0.233333333 C14.6,0.233333333 13.875,0.566666667 13.075,0.566666667 C12.25,0.533333333 11.525,0.233333333 10.65,0.233333333 L9.525,0.233333333 C8.675,0.233333333 7.925,0.566666667 7.125,0.566666667 C6.3,0.533333333 5.575,0.233333333 4.7,0.233333333 L3.575,0.233333333 L3.575,0.266666667 Z" id="z"></path>
                                </g>
                            </g>
                            <g id="A-link" stroke-width="1" fill="none" transform="translate(3.250000, 31.275000)">
                                <g id="A" fill="url(#linearGradient-18)">
                                    <path d="M3.575,0.95 C2.725,0.95 1.975,1.15 1.175,1.175 C0.873821212,1.16707395 0.573336495,1.14203356 0.275,1.1 L0.15,1.3 L1.65,1.3 C2.525,1.3 3.25,1.1 4.05,1.075 C4.875,1.1 5.6,1.325 6.475,1.325 L7.6,1.325 C8.45,1.325 9.2,1.1 10,1.075 C10.825,1.1 11.575,1.325 12.425,1.325 L13.55,1.325 C14.425,1.325 15.15,1.1 15.975,1.075 C16.775,1.1 17.5,1.325 18.375,1.325 L19.5,1.325 C20.35,1.325 21.1,1.1 21.925,1.075 C22.725,1.1 23.475,1.325 24.325,1.325 L25.45,1.325 C26.325,1.325 27.05,1.1 27.85,1.075 C28.675,1.1 29.4,1.325 30.275,1.325 L31.4,1.325 L31.85,1.3 L31.725,1.1 C31.475,1.125 31.2,1.175 30.925,1.175 C30.1,1.175 29.375,0.925 28.5,0.925 L27.375,0.925 C26.525,0.925 25.775,1.175 24.975,1.175 C24.15,1.15 23.425,0.925 22.55,0.925 L21.425,0.925 C20.575,0.925 19.825,1.175 19.025,1.175 C18.2,1.15 17.475,0.925 16.6,0.925 L15.475,0.925 C14.6,0.925 13.875,1.175 13.075,1.175 C12.25,1.15 11.525,0.925 10.65,0.925 L9.525,0.925 C8.675,0.925 7.925,1.175 7.125,1.175 C6.3,1.15 5.575,0.925 4.7,0.925 L3.575,0.925 L3.575,0.95 Z" id="z"></path>
                                    <g id="z-link" transform="translate(0.000000, 0.425000)">
                                        <path d="M3.575,0.266666667 C2.725,0.266666667 1.975,0.533333333 1.175,0.566666667 C0.873821212,0.556098607 0.573336495,0.522711416 0.275,0.466666667 L0.15,0.733333333 L1.65,0.733333333 C2.525,0.733333333 3.25,0.466666667 4.05,0.433333333 C4.875,0.466666667 5.6,0.766666667 6.475,0.766666667 L7.6,0.766666667 C8.45,0.766666667 9.2,0.466666667 10,0.433333333 C10.825,0.466666667 11.575,0.766666667 12.425,0.766666667 L13.55,0.766666667 C14.425,0.766666667 15.15,0.466666667 15.975,0.433333333 C16.775,0.466666667 17.5,0.766666667 18.375,0.766666667 L19.5,0.766666667 C20.35,0.766666667 21.1,0.466666667 21.925,0.433333333 C22.725,0.466666667 23.475,0.766666667 24.325,0.766666667 L25.45,0.766666667 C26.325,0.766666667 27.05,0.466666667 27.85,0.433333333 C28.675,0.466666667 29.4,0.766666667 30.275,0.766666667 L31.4,0.766666667 L31.85,0.733333333 L31.725,0.466666667 C31.475,0.5 31.2,0.566666667 30.925,0.566666667 C30.1,0.566666667 29.375,0.233333333 28.5,0.233333333 L27.375,0.233333333 C26.525,0.233333333 25.775,0.566666667 24.975,0.566666667 C24.15,0.533333333 23.425,0.233333333 22.55,0.233333333 L21.425,0.233333333 C20.575,0.233333333 19.825,0.566666667 19.025,0.566666667 C18.2,0.533333333 17.475,0.233333333 16.6,0.233333333 L15.475,0.233333333 C14.6,0.233333333 13.875,0.566666667 13.075,0.566666667 C12.25,0.533333333 11.525,0.233333333 10.65,0.233333333 L9.525,0.233333333 C8.675,0.233333333 7.925,0.566666667 7.125,0.566666667 C6.3,0.533333333 5.575,0.233333333 4.7,0.233333333 L3.575,0.233333333 L3.575,0.266666667 Z" id="z"></path>
                                    </g>
                                    <g id="z-link" transform="translate(0.000000, 0.100000)">
                                        <path d="M3.575,0.266666667 C2.725,0.266666667 1.975,0.533333333 1.175,0.566666667 C0.873821212,0.556098607 0.573336495,0.522711416 0.275,0.466666667 L0.15,0.733333333 L1.65,0.733333333 C2.525,0.733333333 3.25,0.466666667 4.05,0.433333333 C4.875,0.466666667 5.6,0.766666667 6.475,0.766666667 L7.6,0.766666667 C8.45,0.766666667 9.2,0.466666667 10,0.433333333 C10.825,0.466666667 11.575,0.766666667 12.425,0.766666667 L13.55,0.766666667 C14.425,0.766666667 15.15,0.466666667 15.975,0.433333333 C16.775,0.466666667 17.5,0.766666667 18.375,0.766666667 L19.5,0.766666667 C20.35,0.766666667 21.1,0.466666667 21.925,0.433333333 C22.725,0.466666667 23.475,0.766666667 24.325,0.766666667 L25.45,0.766666667 C26.325,0.766666667 27.05,0.466666667 27.85,0.433333333 C28.675,0.466666667 29.4,0.766666667 30.275,0.766666667 L31.4,0.766666667 L31.85,0.733333333 L31.725,0.466666667 C31.475,0.5 31.2,0.566666667 30.925,0.566666667 C30.1,0.566666667 29.375,0.233333333 28.5,0.233333333 L27.375,0.233333333 C26.525,0.233333333 25.775,0.566666667 24.975,0.566666667 C24.15,0.533333333 23.425,0.233333333 22.55,0.233333333 L21.425,0.233333333 C20.575,0.233333333 19.825,0.566666667 19.025,0.566666667 C18.2,0.533333333 17.475,0.233333333 16.6,0.233333333 L15.475,0.233333333 C14.6,0.233333333 13.875,0.566666667 13.075,0.566666667 C12.25,0.533333333 11.525,0.233333333 10.65,0.233333333 L9.525,0.233333333 C8.675,0.233333333 7.925,0.566666667 7.125,0.566666667 C6.3,0.533333333 5.575,0.233333333 4.7,0.233333333 L3.575,0.233333333 L3.575,0.266666667 Z" id="z"></path>
                                    </g>
                                </g>
                            </g>
                            <g id="A-link" stroke-width="1" fill="none" transform="translate(3.250000, 30.325000)">
                                <g id="A" fill="url(#linearGradient-18)">
                                    <path d="M3.575,0.95 C2.725,0.95 1.975,1.15 1.175,1.175 C0.873821212,1.16707395 0.573336495,1.14203356 0.275,1.1 L0.15,1.3 L1.65,1.3 C2.525,1.3 3.25,1.1 4.05,1.075 C4.875,1.1 5.6,1.325 6.475,1.325 L7.6,1.325 C8.45,1.325 9.2,1.1 10,1.075 C10.825,1.1 11.575,1.325 12.425,1.325 L13.55,1.325 C14.425,1.325 15.15,1.1 15.975,1.075 C16.775,1.1 17.5,1.325 18.375,1.325 L19.5,1.325 C20.35,1.325 21.1,1.1 21.925,1.075 C22.725,1.1 23.475,1.325 24.325,1.325 L25.45,1.325 C26.325,1.325 27.05,1.1 27.85,1.075 C28.675,1.1 29.4,1.325 30.275,1.325 L31.4,1.325 L31.85,1.3 L31.725,1.1 C31.475,1.125 31.2,1.175 30.925,1.175 C30.1,1.175 29.375,0.925 28.5,0.925 L27.375,0.925 C26.525,0.925 25.775,1.175 24.975,1.175 C24.15,1.15 23.425,0.925 22.55,0.925 L21.425,0.925 C20.575,0.925 19.825,1.175 19.025,1.175 C18.2,1.15 17.475,0.925 16.6,0.925 L15.475,0.925 C14.6,0.925 13.875,1.175 13.075,1.175 C12.25,1.15 11.525,0.925 10.65,0.925 L9.525,0.925 C8.675,0.925 7.925,1.175 7.125,1.175 C6.3,1.15 5.575,0.925 4.7,0.925 L3.575,0.925 L3.575,0.95 Z" id="z"></path>
                                    <g id="z-link" transform="translate(0.000000, 0.425000)">
                                        <path d="M3.575,0.266666667 C2.725,0.266666667 1.975,0.533333333 1.175,0.566666667 C0.873821212,0.556098607 0.573336495,0.522711416 0.275,0.466666667 L0.15,0.733333333 L1.65,0.733333333 C2.525,0.733333333 3.25,0.466666667 4.05,0.433333333 C4.875,0.466666667 5.6,0.766666667 6.475,0.766666667 L7.6,0.766666667 C8.45,0.766666667 9.2,0.466666667 10,0.433333333 C10.825,0.466666667 11.575,0.766666667 12.425,0.766666667 L13.55,0.766666667 C14.425,0.766666667 15.15,0.466666667 15.975,0.433333333 C16.775,0.466666667 17.5,0.766666667 18.375,0.766666667 L19.5,0.766666667 C20.35,0.766666667 21.1,0.466666667 21.925,0.433333333 C22.725,0.466666667 23.475,0.766666667 24.325,0.766666667 L25.45,0.766666667 C26.325,0.766666667 27.05,0.466666667 27.85,0.433333333 C28.675,0.466666667 29.4,0.766666667 30.275,0.766666667 L31.4,0.766666667 L31.85,0.733333333 L31.725,0.466666667 C31.475,0.5 31.2,0.566666667 30.925,0.566666667 C30.1,0.566666667 29.375,0.233333333 28.5,0.233333333 L27.375,0.233333333 C26.525,0.233333333 25.775,0.566666667 24.975,0.566666667 C24.15,0.533333333 23.425,0.233333333 22.55,0.233333333 L21.425,0.233333333 C20.575,0.233333333 19.825,0.566666667 19.025,0.566666667 C18.2,0.533333333 17.475,0.233333333 16.6,0.233333333 L15.475,0.233333333 C14.6,0.233333333 13.875,0.566666667 13.075,0.566666667 C12.25,0.533333333 11.525,0.233333333 10.65,0.233333333 L9.525,0.233333333 C8.675,0.233333333 7.925,0.566666667 7.125,0.566666667 C6.3,0.533333333 5.575,0.233333333 4.7,0.233333333 L3.575,0.233333333 L3.575,0.266666667 Z" id="z"></path>
                                    </g>
                                    <g id="z-link" transform="translate(0.000000, 0.100000)">
                                        <path d="M3.575,0.266666667 C2.725,0.266666667 1.975,0.533333333 1.175,0.566666667 C0.873821212,0.556098607 0.573336495,0.522711416 0.275,0.466666667 L0.15,0.733333333 L1.65,0.733333333 C2.525,0.733333333 3.25,0.466666667 4.05,0.433333333 C4.875,0.466666667 5.6,0.766666667 6.475,0.766666667 L7.6,0.766666667 C8.45,0.766666667 9.2,0.466666667 10,0.433333333 C10.825,0.466666667 11.575,0.766666667 12.425,0.766666667 L13.55,0.766666667 C14.425,0.766666667 15.15,0.466666667 15.975,0.433333333 C16.775,0.466666667 17.5,0.766666667 18.375,0.766666667 L19.5,0.766666667 C20.35,0.766666667 21.1,0.466666667 21.925,0.433333333 C22.725,0.466666667 23.475,0.766666667 24.325,0.766666667 L25.45,0.766666667 C26.325,0.766666667 27.05,0.466666667 27.85,0.433333333 C28.675,0.466666667 29.4,0.766666667 30.275,0.766666667 L31.4,0.766666667 L31.85,0.733333333 L31.725,0.466666667 C31.475,0.5 31.2,0.566666667 30.925,0.566666667 C30.1,0.566666667 29.375,0.233333333 28.5,0.233333333 L27.375,0.233333333 C26.525,0.233333333 25.775,0.566666667 24.975,0.566666667 C24.15,0.533333333 23.425,0.233333333 22.55,0.233333333 L21.425,0.233333333 C20.575,0.233333333 19.825,0.566666667 19.025,0.566666667 C18.2,0.533333333 17.475,0.233333333 16.6,0.233333333 L15.475,0.233333333 C14.6,0.233333333 13.875,0.566666667 13.075,0.566666667 C12.25,0.533333333 11.525,0.233333333 10.65,0.233333333 L9.525,0.233333333 C8.675,0.233333333 7.925,0.566666667 7.125,0.566666667 C6.3,0.533333333 5.575,0.233333333 4.7,0.233333333 L3.575,0.233333333 L3.575,0.266666667 Z" id="z"></path>
                                    </g>
                                </g>
                            </g>
                            <path d="M5.225,30.675 L4.6,31.725 C5.325,31.6 6.375,31.3 7.275,31.3 C8.175,31.3 9.275,31.525 10.375,31.55 C11.625,31.55 12.125,31.25 13.125,31.15 C14.15,31.05 15.125,31.275 16.125,31.3 C16.9,31.3 18.1,31.025 19.125,30.925 C20.125,30.8 21.05,31 22.25,31 C23.475,31.025 23.675,30.7 25.15,30.675 C26.75,30.65 26.9,30.9 28.3,30.9 C29.35,30.95 30.275,30.675 31.225,30.625 C32.175,30.55 32.6,30.625 33.3,30.625 L32.825,29.825 L7.5,30.4 L5.225,30.675 Z" id="Path" fill="#97C924"></path>
                            <path d="M31.75,30.65 L32.75,30.725 C32.9912525,30.753853 33.23295,30.7788562 33.475,30.8 L33.375,30.675 C33.225,30.725 32.275,30.625 31.775,30.675 L31.75,30.65 Z" id="Path" fill="#FFFFFF"></path>
                        </g>
                    </g>
                </g>
                <path d="M100.15,56.21875 L92.11875,70.125 L83.9,84.375 L116.4,84.375 L108.36875,70.4375 L100.15,56.25 L100.15,56.21875 Z M100.15,56.96875 L108.025,70.625 L115.74375,84 L84.55625,84 L92.43125,70.3125 L100.15,56.96875 Z" id="Shape" fill="#C8A400" fill-rule="nonzero"></path>
            </g>
        </g>
    </g>
</svg>