<?xml version="1.0" encoding="UTF-8"?>
<svg width="200px" height="150px" viewBox="0 0 200 150" version="1.1" xmlns="http://www.w3.org/2000/svg" xmlns:xlink="http://www.w3.org/1999/xlink">
    <!-- Generator: Sketch 52.5 (67469) - http://www.bohemiancoding.com/sketch -->
    <title>mp</title>
    <desc>Created with Sketch.</desc>
    <defs>
        <polygon id="path-1" points="0 0 200 0 200 150 0 150"></polygon>
    </defs>
    <g id="Flags" stroke="none" stroke-width="1" fill="none" fill-rule="evenodd">
        <g id="Oceania" transform="translate(-510.000000, -250.000000)">
            <g id="mp" transform="translate(510.000000, 250.000000)">
                <mask id="mask-2" fill="white">
                    <use xlink:href="#path-1"></use>
                </mask>
                <g id="Path"></g>
                <g id="Group" mask="url(#mask-2)">
                    <g transform="translate(-50.000000, 0.000000)">
                        <polygon id="Path" stroke="none" fill="#0071BC" fill-rule="evenodd" points="0 0 300 0 300 150 0 150"></polygon>
                        <path d="M165.625,114.28125 C165.625,114.28125 170.375,109.25 174.9375,110.21875 C176.3125,104.90625 181.5,104.46875 181.5,104.46875 C181.5,104.46875 180.96875,98.625 187.59375,97.34375 C187.78125,93.375 191.8125,90.0625 191.8125,90.0625 C191.8125,90.0625 191,83.90625 195.1875,82.46875 C192.625,77.59375 196.0625,74.03125 196.03125,73.9375 C195.96875,73.84375 191.65625,66.1875 195.53125,64 C191.46875,60.5625 192.78125,56.6875 192.78125,56.6875 C192.78125,56.6875 188.34375,55.53125 189.9375,50.21875 C186.28125,49.59375 185.5625,43.6875 185.5625,43.6875 C185.5625,43.6875 179.9375,44.84375 179.25,39.9375 C175.5,40.53125 175.125,36.875 175.0625,36.875 C175.03125,36.875 167.71875,38.84375 166.25,33.3125 C163.40625,34.78125 162.1875,32.15625 162.1875,32.15625 C162.1875,32.15625 158.125,34.1875 155.6875,30.28125 C150.84375,33.3125 148.125,30.15625 148.125,30.15625 C148.125,30.15625 141.78125,34.34375 139.6875,31.09375 C135.9375,34.90625 132.5625,33.28125 132.5625,33.28125 C132.5625,33.28125 129.75,38.28125 125.15625,37.03125 C124.125,41.6875 118.84375,41.78125 118.84375,41.78125 C118.84375,41.78125 119.40625,45.875 113.09375,47 C112.28125,51.84375 108.96875,52.625 108.96875,52.625 C108.96875,52.625 109.28125,57.375 106.3125,58.875 C107.375,61.53125 104.625,64.78125 104.625,64.78125 C104.625,64.78125 107.5625,68.4375 103.5625,72.5625 C107.40625,73.5625 104.625,80.1875 104.625,80.1875 C104.625,80.1875 109.9375,82.5625 106.59375,86.96875 C110.40625,88.21875 109.21875,91.21875 109.25,93 C111.6875,94.09375 113.8125,93.5625 112.78125,98.4375 C120.21875,99.28125 116.71875,103.375 116.71875,103.375 C116.71875,103.375 120.15625,103.53125 118.8125,106.28125 C125.15625,106.125 126.09375,111.03125 126.09375,111.03125 C126.09375,111.03125 131.96875,109.46875 132.75,111.75 C133.53125,114.03125 130.1875,129.46875 130.1875,129.46875 C130.1875,129.46875 125.1875,129.46875 121.5,125.46875 C112.8125,125.25 114.75,119.53125 114.625,119.53125 C114.46875,119.53125 111.71875,120.59375 110.3125,115.8125 C104.5,117 104.6875,112.125 104.625,112.0625 C104.59375,112.03125 102.03125,110.875 102.96875,108.46875 C97,109 97.4375,103.15625 97.4375,103.15625 C96.125,102.625 95.65625,101.40625 95.84375,100.1875 C95.0625,99.90625 89.75,99.8125 92.5,92.8125 C87.4375,89.75 90.59375,86.25 90.59375,86.25 C90.59375,86.25 83.59375,82.625 89,78.4375 C84.9375,72.5 89.3125,69.53125 89.3125,69.53125 C89.3125,69.53125 83.71875,63.875 89.40625,59.84375 C88.46875,51.25 93.59375,49.1875 93.59375,49.1875 C93.59375,49.1875 90.90625,42.1875 98.21875,39.25 C98.6875,32.15625 103.8125,31.96875 103.8125,31.96875 C103.8125,31.96875 103.9375,26.34375 112,26.90625 C113.5625,21.875 119.03125,22.875 119.03125,22.875 C119.03125,22.875 120.71875,16.78125 128.1875,19.71875 C131.96875,12.3125 137.625,16.09375 137.625,16.09375 C137.625,16.09375 141.1875,13.78125 142.9375,14.53125 C145.21875,10.625 150.0625,14.34375 153.15625,15.125 C154.3125,14.65625 158.34375,11.625 161.4375,15.4375 C165.5625,12.78125 169.09375,17.625 169.09375,17.625 C169.09375,17.625 174.75,14.75 177.40625,21.3125 C189.4375,20.21875 187.71875,28.09375 187.71875,28.09375 C187.71875,28.09375 197.15625,25.9375 195.09375,35.375 C203.71875,35.96875 202.84375,41.625 202.84375,41.625 C202.84375,41.625 208.28125,45.75 205.90625,49.4375 C210.75,49.6875 208.96875,54.34375 208.96875,54.34375 C208.96875,54.34375 212.6875,55.78125 209.59375,61.53125 C216.6875,67.1875 210.96875,72.84375 210.9375,72.78125 C210.875,72.75 214.71875,77.34375 211.25,82.65625 C212.3125,91.09375 208.0625,93.21875 208.0625,93.21875 C208.0625,93.21875 209.15625,98.6875 204.40625,100.21875 C204.3125,106.625 198.25,107.40625 198.25,107.40625 C198.25,107.40625 199.875,110.21875 193.875,113.125 C193.625,117.40625 187.375,117.75 187.375,117.75 C187.375,117.75 186.78125,125.625 178.8125,123.5 C176.90625,129.8125 167.5625,127.9375 167.375,127.875 C167.21875,127.78125 165.59375,114.3125 165.59375,114.28125 L165.625,114.28125 Z" id="Path" stroke="#000000" stroke-width="0.9" fill="#FFFFFF" fill-rule="evenodd"></path>
                        <path d="M107.8125,38.75 C107.8125,38.75 109.8125,40.5 109.4375,43.125 C109.0625,45.71875 107.5625,49.34375 107.875,52.03125 C108.0625,53.125 107.96875,55.0625 107.96875,55.0625 C107.96875,55.0625 106.1875,52.5 106.15625,49.75 C106.125,47 108.09375,44.40625 108.09375,42.375 C108.09375,40.34375 107.75,38.71875 107.78125,38.78125 L107.8125,38.75 Z M106.8125,39.5625 C106.8125,39.5625 104.1875,42.0625 103.84375,44.46875 C103.59375,45.71875 103.53125,51.5625 103.46875,54.15625 C103.40625,54.9375 103.09375,58.0625 103.03125,59.21875 C102.9375,60.34375 104.9375,57.28125 105.0625,54.75 C105,52.15625 105,46.6875 105.25,45.84375 C105.5,44.78125 105.4375,43.625 105.8125,42.5625 L106.8125,39.5625 Z" id="Shape" stroke="#000000" stroke-width="0.9" fill="#217900" fill-rule="evenodd" stroke-linejoin="round"></path>
                        <g id="Group" stroke="none" stroke-width="1" fill="none" fill-rule="evenodd" transform="translate(91.875000, 15.937500)">
                            <path d="M72.5,15.46875 C72.5,15.46875 75.875,13.90625 76.875,10.96875 C77.875,8.03125 73.90625,8.03125 73.40625,8.96875 C72.875,9.90625 73.84375,12.1875 73.59375,12.8125 C73.34375,13.4375 71.96875,14.875 72.5,15.4375 L72.5,15.46875 Z" id="Path" stroke="#EF8A10" stroke-width="1.9" fill="#FFD200"></path>
                            <path d="M42.4375,16.53125 C42.4375,16.53125 44.625,13.5 44.0625,10.46875 C43.46875,7.46875 40.0625,9.34375 40.0625,10.40625 C40.0625,11.46875 42,13 42.09375,13.65625 C42.1875,14.3125 41.6875,16.28125 42.40625,16.5 L42.4375,16.53125 Z M36.46875,18.3125 C36.46875,18.3125 38.65625,15.28125 38.09375,12.28125 C37.53125,9.25 34.09375,11.125 34.09375,12.1875 C34.09375,13.25 36.0625,14.8125 36.15625,15.46875 C36.21875,16.09375 35.75,18.0625 36.46875,18.3125 Z M29.875,20.34375 C29.875,20.34375 32.0625,17.34375 31.5,14.3125 C30.90625,11.28125 27.5,13.15625 27.5,14.21875 C27.5,15.28125 29.4375,16.84375 29.53125,17.5 C29.625,18.125 29.125,20.09375 29.84375,20.34375 L29.875,20.34375 Z M25.1875,25 C25.1875,25 27.40625,21.96875 26.84375,18.96875 C26.28125,15.9375 22.84375,17.8125 22.84375,18.875 C22.84375,19.9375 24.8125,21.5 24.875,22.15625 C24.96875,22.78125 24.46875,24.75 25.1875,25 Z M20.3125,29.5 C20.3125,29.5 22.5,26.46875 21.9375,23.4375 C21.375,20.40625 17.9375,22.3125 17.9375,23.375 C17.9375,24.4375 19.90625,25.96875 20,26.625 C20.0625,27.28125 19.59375,29.25 20.3125,29.5 Z" id="Shape" stroke="#EF8A10" stroke-width="0.5" fill="#FFD200"></path>
                            <path d="M31.5625,3.34375 C31.5625,3.34375 28.625,5.65625 28.375,8.71875 C28.125,11.78125 31.90625,10.90625 32.1875,9.875 C32.5,8.84375 31.03125,6.84375 31.125,6.1875 C31.21875,5.5625 32.21875,3.78125 31.5625,3.375 L31.5625,3.34375 Z M41.34375,0.34375 C41.34375,0.34375 38.4375,2.65625 38.15625,5.71875 C37.90625,8.78125 41.6875,7.90625 42,6.875 C42.28125,5.84375 40.8125,3.8125 40.90625,3.15625 C41,2.53125 42,0.75 41.34375,0.34375 Z M4.875,26.75 C4.875,26.75 5.5,30.4375 8.0625,32.15625 C10.625,33.84375 11.65625,30.09375 10.90625,29.34375 C10.15625,28.59375 7.6875,28.90625 7.15625,28.53125 C6.625,28.125 5.59375,26.40625 4.875,26.75 Z M2.84217094e-14,39.25 C2.84217094e-14,39.25 2.84217094e-14,43 2.28125,45.09375 C4.53125,47.15625 6.15625,43.625 5.53125,42.78125 C4.90625,41.9375 2.40625,41.84375 1.96875,41.375 C1.5,40.875 0.71875,39.03125 2.84217094e-14,39.28125 L2.84217094e-14,39.25 Z M11.25,53.25 C11.25,53.25 9.9375,49.75 7.09375,48.5625 C4.25,47.4375 3.96875,51.3125 4.84375,51.90625 C5.75,52.46875 8.09375,51.6875 8.6875,51.96875 C9.3125,52.25 10.65625,53.71875 11.28125,53.21875 L11.25,53.25 Z M8.9375,47.1875 C8.9375,47.1875 11.1875,44.21875 10.6875,41.21875 C10.15625,38.1875 6.71875,39.96875 6.6875,41.03125 C6.6875,42.09375 8.5625,43.6875 8.65625,44.34375 C8.71875,45 8.1875,46.9375 8.9375,47.21875 L8.9375,47.1875 Z M79.4375,18.46875 C79.4375,18.46875 82.8125,16.90625 83.8125,14 C84.8125,11.09375 80.84375,11.0625 80.34375,11.96875 C79.8125,12.90625 80.78125,15.21875 80.53125,15.8125 C80.28125,16.4375 78.90625,17.90625 79.4375,18.46875 Z M89.6875,23.59375 C89.6875,23.59375 91.6875,20.4375 90.90625,17.46875 C90.125,14.5 86.84375,16.59375 86.90625,17.65625 C86.96875,18.6875 89.03125,20.125 89.15625,20.78125 C89.28125,21.40625 88.9375,23.40625 89.6875,23.59375 Z M117.6875,52.65625 C117.6875,52.65625 116.34375,49.1875 113.5,48 C110.65625,46.84375 110.375,50.75 111.25,51.3125 C112.15625,51.90625 114.53125,51.09375 115.09375,51.375 C115.71875,51.6875 117.0625,53.15625 117.6875,52.65625 Z M104,54.84375 C104,54.84375 104.0625,51.09375 106.34375,49.03125 C108.625,46.96875 110.21875,50.5625 109.59375,51.40625 C108.9375,52.25 106.46875,52.28125 105.96875,52.75 C105.53125,53.21875 104.71875,55.0625 104,54.8125 L104,54.84375 Z M101.8125,15.21875 C101.8125,15.21875 98.28125,13.875 95.5625,15.21875 C92.75,16.59375 95.5,19.40625 96.5,19.125 C97.53125,18.8125 98.5,16.53125 99.125,16.28125 C99.75,16.03125 101.75,15.96875 101.78125,15.21875 L101.8125,15.21875 Z M93.75,8.53125 C93.75,8.53125 90.28125,7.1875 87.5,8.53125 C84.75,9.90625 87.46875,12.71875 88.5,12.4375 C89.5,12.125 90.5,9.84375 91.09375,9.59375 C91.71875,9.34375 93.71875,9.28125 93.75,8.53125 Z M81.875,2.15625 C81.875,2.15625 78.90625,4.4375 78.625,7.46875 C78.3125,10.53125 82.125,9.6875 82.4375,8.6875 C82.75,7.65625 81.28125,5.625 81.375,4.96875 C81.5,4.34375 82.5,2.59375 81.875,2.15625 Z M74.125,0.28125 C74.125,0.28125 72.75,3.75 74.09375,6.53125 C75.4375,9.3125 78.25,6.59375 77.96875,5.59375 C77.6875,4.5625 75.40625,3.5625 75.15625,2.96875 C74.90625,2.34375 74.875,0.3125 74.125,0.28125 Z M52.09375,13.71875 C52.09375,13.71875 54.5,10.84375 54.15625,7.78125 C53.8125,4.75 50.25,6.375 50.1875,7.4375 C50.09375,8.5 51.9375,10.1875 51.96875,10.84375 C52,11.46875 51.375,13.40625 52.09375,13.6875 L52.09375,13.71875 Z" id="Shape" stroke="#EF8A10" stroke-width="0.9" fill="#FFD200"></path>
                        </g>
                        <path d="M157.125,35.75 C157.125,35.75 162.90625,36.125 163.1875,39.4375 C163.46875,42.75 161.8125,44.78125 161.8125,44.78125 C161.8125,44.78125 162.53125,51.96875 156.875,54.0625 C150.8125,54.78125 141.28125,54.21875 141.28125,54.21875 C141.28125,54.21875 138.46875,54.90625 137.34375,49.125 C136.692478,45.8606928 136.212653,42.5645096 135.90625,39.25 C135.90625,39.25 136.46875,36 140.5625,35.8125 C144.625,35.59375 157.0625,35.8125 157.125,35.75 Z" id="Path" stroke="#000000" stroke-width="0.9" fill="#8C8A8C" fill-rule="evenodd"></path>
                        <path d="M161.78125,44.75 C161.78125,44.75 158.65625,48.625 158.96875,50.21875" id="Path" stroke="#000000" stroke-width="0.9" fill="none" stroke-linecap="round"></path>
                        <path d="M157.59375,53.84375 C158.375,54.5 159.09375,55.21875 159.25,57.59375 L159.5625,62.40625 L163.625,98.84375 L167.1875,125.1875 L167.4375,129.25 C167.4375,129.25 166.59375,132.28125 164.1875,132.53125 C162.46875,136.15625 153.03125,137.21875 152.09375,137.1875 C151.25,137.125 148.25,135.875 146.4375,136.03125 C144.59375,136.1875 141.4375,137.40625 140.03125,137.21875 C138.625,137 135.40625,135.90625 134.84375,133.59375 C130.875,132.34375 130.25,129.3125 130.25,129.3125 L134.53125,98.84375 L138.6875,60.28125 C138.6875,60.28125 139.1875,55.15625 141.25,54.375 C143.40625,54.1875 154.5,54.59375 157.59375,53.84375 Z" id="Path" stroke="#000000" stroke-width="0.9" fill="#8C8A8C" fill-rule="evenodd"></path>
                        <path d="M135.75,106.59375 L134.90625,133.5625 M161.9375,110.15625 L164.3125,132.40625" id="Shape" stroke="#000000" stroke-width="0.9" fill="none"></path>
                        <path d="M92.6875,92.59375 L92.59375,92.90625 M204.6875,91.625 L204.78125,91.9375" id="Shape" stroke="#000000" stroke-width="0.5" fill="none"></path>
                        <path d="M89.6875,56.1875 C89.6875,56.1875 91.4375,58.65625 91.78125,60.0625 C92.09375,61.46875 92.6875,64.25 93.4375,65.375 C94.21875,66.53125 98.625,72.84375 98.875,75.46875 C98.90625,77.21875 97.03125,80.15625 94.28125,80.21875 C92.53125,80.15625 88.09375,79.03125 87.90625,75.21875 C87.71875,71.375 89.25,71.3125 89.46875,68.96875 C89.625,66.65625 89.6875,56.25 89.6875,56.1875 Z" id="Path" stroke="#6B18B5" stroke-width="0.9" fill="none" stroke-linejoin="round"></path>
                        <path d="M120.15625,22.75 C120.15625,22.75 118.28125,22.875 116.90625,23.65625 C115.8125,24.3125 113.9375,25.3125 112.65625,27.09375 C109.34375,29.65625 104.375,30.84375 102.8125,33.03125 C101.875,34.46875 101.9375,37.9375 104.28125,39.4375 C105.78125,40.28125 110.21875,41.625 112.34375,38.46875 C114.46875,35.28125 113.1875,34.40625 114.21875,32.34375 C115.691411,28.8588169 117.694255,25.6226416 120.15625,22.75 Z M164.6875,18.125 C164.6875,18.125 163.3125,16.875 161.78125,16.40625 C160.53125,16.09375 158.46875,16.21875 156.3125,16 C152.15625,15.4375 147.875,12.4375 145.28125,12.8125 C143.59375,13.125 141.125,15.625 141.6875,18.3125 C142.09375,20 143.96875,23.375 147.75,22.71875 C151.5,22.0625 151.5,21.21875 153.6875,20.53125 C159.125,17.5 164.625,18.125 164.6875,18.125 Z M208.875,61.0625 C209.1875,60.34375 208.59375,59 208.1875,57.46875 C207.8125,56.21875 207.21875,54.34375 205.78125,52.625 C204.09375,48.8125 204.375,43.5625 202.65625,41.5625 C201.5,40.3125 198.09375,39.5 196.09375,41.4375 C194.875,42.6875 192.53125,46.625 195.09375,49.46875 C197.65625,52.28125 198.78125,51.25 200.53125,52.75 C204.75,55.5625 206.78125,60.5625 208.875,61.0625 Z M207.34375,94.375 C207.9375,93.59375 208.96875,92.0625 208.84375,90.78125 C208.75,89.78125 209.3125,86.71875 209.375,85.375 C209.75,81.21875 212.34375,77.8125 211.625,74.21875 C211.21875,72.53125 208.75,70.15625 206.0625,70.84375 C204.4375,71.34375 200.75,73.34375 201.59375,77.09375 C202.4375,80.84375 203.65625,80.75 204.4375,82.9375 C206.71875,87.46875 205.28125,92.84375 207.34375,94.375 Z" id="Shape" stroke="#6B18B5" stroke-width="0.5" fill="none" stroke-linejoin="round"></path>
                        <path d="M176.71875,120.875 C176.71875,120.875 176,122.25 178.84375,123.4375 M182.375,117.6875 C182.375,117.6875 185.5,116.90625 187.625,117.6875 M191.75,109.75 C191.75,109.8125 191.3125,111.15625 193.8125,113.125 M193.5625,106.25 C193.5625,106.25 195.40625,107.59375 198.5,107.5 M174.9375,110.1875 C174.9375,110.1875 175.03125,113.78125 173.1875,115.4375 M181.125,104.65625 C181.125,104.65625 184.15625,105.40625 186.65625,104.15625 M200.59375,99.375 C200.59375,99.375 201.25,100.3125 204.625,100.15625 M187.46875,97.25 C187.5625,97.3125 191.4375,98.5625 193.875,97.4375 M195.1875,82.5 C195.1875,82.5 195.34375,82.28125 196.53125,86.46875 M198.15625,70.71875 C198.15625,70.71875 198,72.9375 196.21875,73.90625 M209.625,61.59375 C209.625,61.59375 207,63.71875 207.5,64.5625 M196.65625,60.0625 C196.65625,60.0625 198,62.34375 195.78125,63.90625 M190.0625,50.3125 C190.0625,50.3125 192.40625,50.21875 193.4375,52.21875 M185.6875,43.6875 L187.46875,43.6875 M194.96875,35.5625 C194.96875,35.59375 195.4375,36.03125 194.53125,36.96875 M178.28125,35.78125 C178.28125,35.78125 179.53125,37.71875 179.3125,40.125 M185.5,29.15625 C186.0625,29.09375 187.90625,28.28125 187.90625,28.28125 M177.46875,21.40625 C177.4375,21.40625 176.78125,23.8125 177.96875,24.6875 M174.5,32.5 C174.5,35.125 176.5625,34.46875 175.125,36.96875 M169.4375,30.3125 C168.237427,31.154212 167.14584,32.1408385 166.1875,33.25 M161.0625,28.96875 C161.0625,28.96875 162.4375,30.3125 162.09375,32.15625 M157.09375,27.875 C157.09375,27.875 156.40625,29.9375 155.5,30.46875 M149.875,27.34375 C149.84375,27.4375 148.75,29.78125 148,30.1875 M140,27.375 C140.0625,27.375 141.09375,29.5625 139.75,31.125 M137.71875,16.125 C137.78125,16.1875 137.9375,17.8125 136.90625,19.25 M127.9375,19.84375 C127.9375,19.875 128.375,21.6875 125.5,22.28125 M122.40625,36.40625 C122.46875,36.5 125.1875,36.9375 125.1875,36.9375 M115.625,42.6875 C115.6875,42.625 118.9375,41.65625 118.9375,41.65625 M110.375,46.75 C110.46875,46.75 112.65625,47.15625 113.1875,46.875 M108.8125,48.75 C108.8125,48.75 109.53125,49.15625 108.9375,52.8125 M98.25,39.21875 L99.5625,41.15625 M93.78125,49.28125 C93.78125,49.21875 95.09375,51.21875 96.84375,51.59375 M104.03125,59.46875 C104.880664,59.3310322 105.716958,59.1219587 106.53125,58.84375 M103.125,66.8125 C103.1875,66.8125 103.09375,65.46875 104.75,64.53125 M100.9375,70.21875 C100.9375,70.28125 102.5,72.21875 103.59375,72.5 M100,73.96875 C100.1875,73.90625 101.875,72.4375 103.8125,72.5625 M99.46875,79 C99.46875,79 99.53125,80.6875 104.53125,80.25 M99.96875,84.9375 C99.96875,84.875 101.4375,81.5625 104.40625,80.3125 M103.96875,89.1875 C103.96875,89.1875 104.40625,87.75 106.90625,86.78125 M106.75,94.75 C106.75,94.75 108.53125,93.28125 109.1875,93.09375 M108.96875,99.125 C108.96875,99.125 110.0625,100.25 112.78125,98.28125 M95.90625,100.03125 C96.21875,99.96875 100.1875,99.0625 101.53125,101.125 M97.46875,103.3125 C97.46875,103.3125 101.65625,102.75 102.1875,103.1875 M112.40625,104.15625 C112.40625,104.15625 111.84375,105.3125 117,103.40625 M118.8125,106.21875 C117.875,107.78125 119.03125,109.03125 117.8125,109.75 M103.125,108.40625 C103.28125,108.28125 105,107.6875 104.75,105.1875 M104.6875,112.15625 C104.90625,112.09375 107.78125,110.84375 108.375,111.5 M110.34375,115.78125 C110.34375,115.78125 110.71875,113.21875 111.53125,112.96875 M114.65625,119.625 C114.65625,119.625 117.0625,119.59375 118.09375,118.8125 M119.28125,111 C119.34375,111.0625 121.5,112.1875 126.15625,111.0625 M121.03125,121.375 C121.03125,121.375 121.65625,124.6875 121.65625,125.4375" id="Shape" stroke="#000000" stroke-width="0.9" fill="none"></path>
                        <g id="Group" stroke="none" stroke-width="1" fill="none" fill-rule="evenodd" transform="translate(94.375000, 17.812500)">
                            <path d="M110.018548,52.8981018 C110.018548,51.854027 109.613205,50.8099522 109.005192,50.2879148 C108.295843,49.7136737 107.485158,49.7136737 106.877144,50.2879148 C106.269131,50.862156 105.81312,51.854027 105.81312,52.8981018 C105.81312,53.9943803 106.218463,54.9862513 106.826476,55.5604925 C107.535826,56.1347336 108.34651,56.1347336 108.954524,55.5604925 C109.562538,54.9862513 110.069216,53.9943803 110.018548,52.9503055 L110.018548,52.8981018 Z" id="Path" stroke="#000000" stroke-width="1.469192" fill="#DE2010" transform="translate(107.917583, 52.924204) rotate(-7.124929) translate(-107.917583, -52.924204) "></path>
                            <path d="M109.581048,47.3668518 C109.581048,46.322777 109.175705,45.2787022 108.567692,44.7566648 C107.858343,44.1824237 107.047658,44.1824237 106.439644,44.7566648 C105.831631,45.330906 105.37562,46.322777 105.37562,47.3668518 C105.37562,48.4631303 105.780963,49.4550013 106.388976,50.0292425 C107.098326,50.6034836 107.90901,50.6034836 108.517024,50.0292425 C109.125038,49.4550013 109.631716,48.4631303 109.581048,47.4190555 L109.581048,47.3668518 Z" id="Path" stroke="#000000" stroke-width="1.469192" fill="#DE2010" transform="translate(107.480083, 47.392954) rotate(-7.124929) translate(-107.480083, -47.392954) "></path>
                            <path d="M108.451486,41.6231998 C108.451486,40.5791251 108.04614,39.5350505 107.43812,39.0130131 C106.728765,38.4387721 105.918072,38.4387721 105.310053,39.0130131 C104.702033,39.5872542 104.246019,40.5791251 104.246019,41.6231998 C104.246019,42.7194782 104.651365,43.7113491 105.259384,44.2855902 C105.96874,44.8598312 106.779433,44.8598312 107.387452,44.2855902 C107.995471,43.7113491 108.502154,42.7194782 108.451486,41.6754035 L108.451486,41.6231998 Z" id="Path" stroke="#000000" stroke-width="1.469203" fill="#DE2010" transform="translate(106.350502, 41.649302) rotate(-12.166231) translate(-106.350502, -41.649302) "></path>
                            <path d="M106.633396,36.0252577 C106.633396,34.9811879 106.228049,33.9371181 105.620028,33.4150831 C104.91067,32.8408447 104.099976,32.8408447 103.491955,33.4150831 C102.883934,33.9893215 102.427918,34.9811879 102.427918,36.0252577 C102.427918,37.121531 102.833266,38.1133973 103.441286,38.6876357 C104.150644,39.2618741 104.961339,39.2618741 105.569359,38.6876357 C106.17738,38.1133973 106.684064,37.121531 106.633396,36.0774612 L106.633396,36.0252577 Z" id="Path" stroke="#000000" stroke-width="1.4692" fill="#DE2010" transform="translate(104.532406, 36.051359) rotate(-26.934809) translate(-104.532406, -36.051359) "></path>
                            <path d="M104.445896,31.0565077 C104.445896,30.0124379 104.040549,28.9683681 103.432528,28.4463331 C102.72317,27.8720947 101.912476,27.8720947 101.304455,28.4463331 C100.696434,29.0205715 100.240418,30.0124379 100.240418,31.0565077 C100.240418,32.152781 100.645766,33.1446473 101.253786,33.7188857 C101.963144,34.2931241 102.773839,34.2931241 103.381859,33.7188857 C103.98988,33.1446473 104.496564,32.152781 104.445896,31.1087112 L104.445896,31.0565077 Z" id="Path" stroke="#000000" stroke-width="1.4692" fill="#DE2010" transform="translate(102.344906, 31.082609) rotate(-26.934809) translate(-102.344906, -31.082609) "></path>
                            <path d="M101.439857,26.2591747 C101.439857,25.215102 101.034512,24.1710294 100.426495,23.6489931 C99.717142,23.0747531 98.9064527,23.0747531 98.2984358,23.6489931 C97.6904188,24.223233 97.2344061,25.215102 97.2344061,26.2591747 C97.2344061,27.3554509 97.6397507,28.3473199 98.2477677,28.9215599 C98.9571208,29.4957998 99.7678101,29.4957998 100.375827,28.9215599 C100.983844,28.3473199 101.490525,27.3554509 101.439857,26.3113783 L101.439857,26.2591747 Z" id="Path" stroke="#000000" stroke-width="1.469196" fill="#DE2010" transform="translate(99.338881, 26.285276) rotate(-31.792902) translate(-99.338881, -26.285276) "></path>
                            <path d="M98.0947677,21.6117612 C98.0947677,20.5676896 97.689421,19.523618 97.081401,19.0015822 C96.3720443,18.4273428 95.5613509,18.4273428 94.9533309,19.0015822 C94.3453108,19.5758216 93.8892958,20.5676896 93.8892958,21.6117612 C93.8892958,22.7080364 94.2946425,23.6999044 94.9026625,24.2741437 C95.6120192,24.8483831 96.4227126,24.8483831 97.0307327,24.2741437 C97.6387527,23.6999044 98.1454361,22.7080364 98.0947677,21.6639648 L98.0947677,21.6117612 Z" id="Path" stroke="#000000" stroke-width="1.469201" fill="#DE2010" transform="translate(95.993781, 21.637863) rotate(-37.341119) translate(-95.993781, -21.637863) "></path>
                            <path d="M94.1684261,17.3905405 C94.1684261,16.3464689 93.7630772,15.3023973 93.155054,14.7803615 C92.4456934,14.2061222 91.6349957,14.2061222 91.0269724,14.7803615 C90.4189491,15.3546009 89.9629317,16.3464689 89.9629317,17.3905405 C89.9629317,18.4868156 90.3682805,19.4786836 90.9763038,20.052923 C91.6856643,20.6271623 92.4963621,20.6271623 93.1043853,20.052923 C93.7124086,19.4786836 94.2190947,18.4868156 94.1684261,17.442744 L94.1684261,17.3905405 Z" id="Path" stroke="#000000" stroke-width="1.469207" fill="#DE2010" transform="translate(92.067428, 17.416642) rotate(-45.675681) translate(-92.067428, -17.416642) "></path>
                            <path d="M89.6935766,13.428922 C89.6935766,12.3848464 89.2882332,11.3407708 88.6802181,10.818733 C87.9708672,10.2444914 87.1601805,10.2444914 86.5521654,10.818733 C85.9441503,11.3929746 85.488139,12.3848464 85.488139,13.428922 C85.488139,14.5252014 85.8934824,15.5170732 86.5014975,16.0913148 C87.2108484,16.6655564 88.0215351,16.6655564 88.6295502,16.0913148 C89.2375653,15.5170732 89.7442445,14.5252014 89.6935766,13.4811258 L89.6935766,13.428922 Z" id="Path" stroke="#000000" stroke-width="1.469196" fill="#DE2010" transform="translate(87.592607, 13.455024) rotate(-50.953765) translate(-87.592607, -13.455024) "></path>
                            <path d="M85.0736603,10.348513 C85.0736603,9.3044403 84.6683133,8.26036763 84.0602927,7.73833129 C83.3509354,7.16409132 82.5402414,7.16409132 81.9322208,7.73833129 C81.3242003,8.31257126 80.8681848,9.3044403 80.8681848,10.348513 C80.8681848,11.4447893 81.2735319,12.4366583 81.8815524,13.0108983 C82.5909097,13.5851382 83.4016038,13.5851382 84.0096244,13.0108983 C84.6176449,12.4366583 85.1243287,11.4447893 85.0736603,10.4007166 L85.0736603,10.348513 Z" id="Path" stroke="#000000" stroke-width="1.469203" fill="#DE2010" transform="translate(82.972672, 10.374615) rotate(-60.509681) translate(-82.972672, -10.374615) "></path>
                            <path d="M79.7507643,7.52610503 C79.7507643,6.48203444 79.3454176,5.43796384 78.7373975,4.91592855 C78.0280408,4.34168972 77.2173474,4.34168972 76.6093273,4.91592855 C76.0013073,5.49016737 75.5452922,6.48203444 75.5452922,7.52610503 C75.5452922,8.62237915 75.9506389,9.61424622 76.558659,10.188485 C77.2680157,10.7627239 78.0787091,10.7627239 78.6867292,10.188485 C79.2947492,9.61424622 79.8014326,8.62237915 79.7507643,7.57830856 L79.7507643,7.52610503 Z" id="Path" stroke="#000000" stroke-width="1.4692" fill="#DE2010" transform="translate(77.649778, 7.552207) rotate(-65.731242) translate(-77.649778, -7.552207) "></path>
                            <path d="M74.4914407,5.40324173 C74.4914407,4.35916757 74.0860951,3.3150934 73.4780767,2.79305632 C72.768722,2.21881553 71.9580308,2.21881553 71.3500125,2.79305632 C70.7419941,3.36729711 70.2859803,4.35916757 70.2859803,5.40324173 C70.2859803,6.49951961 70.6913259,7.49139007 71.2993443,8.06563086 C72.008699,8.63987165 72.8193902,8.63987165 73.4274085,8.06563086 C74.0354269,7.49139007 74.5421089,6.49951961 74.4914407,5.45544544 L74.4914407,5.40324173 Z" id="Path" stroke="#000000" stroke-width="1.469201" fill="#DE2010" transform="translate(72.390460, 5.429344) rotate(-69.575469) translate(-72.390460, -5.429344) "></path>
                            <path d="M69.166264,3.75111658 C69.166264,2.70703986 68.7609192,1.66296314 68.152902,1.14092479 C67.4435486,0.566682591 66.632859,0.566682591 66.0248418,1.14092479 C65.4168246,1.71516698 64.9608117,2.70703986 64.9608117,3.75111658 C64.9608117,4.84739713 65.3661565,5.83927002 65.9741737,6.41351221 C66.6835271,6.98775441 67.4942167,6.98775441 68.1022339,6.41351221 C68.7102511,5.83927002 69.2169321,4.84739713 69.166264,3.80332042 L69.166264,3.75111658 Z" id="Path" stroke="#000000" stroke-width="1.469202" fill="#DE2010" transform="translate(67.065287, 3.777218) rotate(-73.952683) translate(-67.065287, -3.777218) "></path>
                            <path d="M63.476076,2.7751269 C63.476076,1.73105846 63.0707302,0.686990016 62.4627116,0.164955796 C61.7533565,-0.409281846 60.942665,-0.409281846 60.3346463,0.164955796 C59.7266277,0.739193438 59.2706137,1.73105846 59.2706137,2.7751269 C59.2706137,3.87139876 59.6759595,4.86326378 60.2839781,5.43750142 C60.9933332,6.01173906 61.8040247,6.01173906 62.4120434,5.43750142 C63.020062,4.86326378 63.5267442,3.87139876 63.476076,2.82733032 L63.476076,2.7751269 Z" id="Path" stroke="#000000" stroke-width="1.469194" fill="#DE2010" transform="translate(61.375094, 2.801229) rotate(-82.811866) translate(-61.375094, -2.801229) "></path>
                            <path d="M57.6922581,2.45609681 C57.6922581,1.41201847 57.2869116,0.367940139 56.6788919,-0.154099028 C55.9695356,-0.728342112 55.1588427,-0.728342112 54.550823,-0.154099028 C53.9428033,0.420144056 53.4867886,1.41201847 53.4867886,2.45609681 C53.4867886,3.55237906 53.892135,4.54425348 54.5001547,5.11849656 C55.209511,5.69273964 56.0202039,5.69273964 56.6282236,5.11849656 C57.2362433,4.54425348 57.7429264,3.55237906 57.6922581,2.50830072 L57.6922581,2.45609681 Z" id="Path" stroke="#000000" stroke-width="1.469208" fill="#DE2010" transform="translate(55.591273, 2.482199) rotate(-87.700323) translate(-55.591273, -2.482199) "></path>
                            <path d="M52.2235081,2.64359681 C52.2235081,1.59951847 51.8181616,0.555440139 51.2101419,0.0334009718 C50.5007856,-0.540842112 49.6900927,-0.540842112 49.082073,0.0334009718 C48.4740533,0.607644056 48.0180386,1.59951847 48.0180386,2.64359681 C48.0180386,3.73987906 48.423385,4.73175348 49.0314047,5.30599656 C49.740761,5.88023964 50.5514539,5.88023964 51.1594736,5.30599656 C51.7674933,4.73175348 52.2741764,3.73987906 52.2235081,2.69580072 L52.2235081,2.64359681 Z" id="Path" stroke="#000000" stroke-width="1.469208" fill="#DE2010" transform="translate(50.122523, 2.669699) rotate(-87.700323) translate(-50.122523, -2.669699) "></path>
                            <path d="M46.4004182,3.340398 C46.4004182,2.29631966 45.9950751,1.25224133 45.3870604,0.730202159 C44.67771,0.155959075 43.8670238,0.155959075 43.2590091,0.730202159 C42.6509945,1.30444524 42.1949835,2.29631966 42.1949835,3.340398 C42.1949835,4.43668025 42.6003266,5.42855467 43.2083412,6.00279775 C43.9176917,6.57704084 44.7283779,6.57704084 45.3363925,6.00279775 C45.9444072,5.42855467 46.451086,4.43668025 46.4004182,3.39260191 L46.4004182,3.340398 Z" id="Path" stroke="#000000" stroke-width="1.469199" fill="#DE2010" transform="translate(44.299450, 3.366500) rotate(-102.876356) translate(-44.299450, -3.366500) "></path>
                            <path d="M40.7624298,4.74803108 C40.7624298,3.70395142 40.3570855,2.65987177 39.749069,2.13783194 C39.0397165,1.56358813 38.2290278,1.56358813 37.6210114,2.13783194 C37.0129949,2.71207575 36.5569826,3.70395142 36.5569826,4.74803108 C36.5569826,5.84431471 36.9623269,6.83619038 37.5703433,7.41043419 C38.2796959,7.984678 39.0903845,7.984678 39.698401,7.41043419 C40.3064174,6.83619038 40.8130978,5.84431471 40.7624298,4.80023506 L40.7624298,4.74803108 Z" id="Path" stroke="#000000" stroke-width="1.469204" fill="#DE2010" transform="translate(38.661456, 4.774133) rotate(-107.607180) translate(-38.661456, -4.774133) "></path>
                            <path d="M35.6977153,6.94224661 C35.6977153,5.89817368 35.2923715,4.85410074 34.6843559,4.33206427 C33.9750043,3.75782416 33.1643167,3.75782416 32.556301,4.33206427 C31.9482854,4.90630439 31.4922736,5.89817368 31.4922736,6.94224661 C31.4922736,8.0385232 31.8976174,9.03039249 32.5056331,9.6046326 C33.2149847,10.1788727 34.0256722,10.1788727 34.6336879,9.6046326 C35.2417036,9.03039249 35.7483833,8.0385232 35.6977153,6.99445026 L35.6977153,6.94224661 Z" id="Path" stroke="#000000" stroke-width="1.469194" fill="#DE2010" transform="translate(33.596744, 6.968348) rotate(-114.447922) translate(-33.596744, -6.968348) "></path>
                            <path d="M30.5682922,9.56018607 C30.5682922,8.51611956 30.1629494,7.47205306 29.5549351,6.9500198 C28.8455852,6.37578323 28.0348995,6.37578323 27.4268852,6.9500198 C26.818871,7.52425638 26.3628603,8.51611956 26.3628603,9.56018607 C26.3628603,10.6564559 26.7682031,11.6483191 27.3762174,12.2225557 C28.0855673,12.7967922 28.896253,12.7967922 29.5042673,12.2225557 C30.1122815,11.6483191 30.6189601,10.6564559 30.5682922,9.61238939 L30.5682922,9.56018607 Z" id="Path" stroke="#000000" stroke-width="1.469183" fill="#DE2010" transform="translate(28.467326, 9.586288) rotate(-119.341747) translate(-28.467326, -9.586288) "></path>
                            <path d="M25.737079,12.8390618 C25.737079,11.7949935 25.3317338,10.7509252 24.7237161,10.2288911 C24.014362,9.65465353 23.2036717,9.65465353 22.5956539,10.2288911 C21.9876362,10.8031286 21.5316229,11.7949935 21.5316229,12.8390618 C21.5316229,13.9353335 21.936968,14.9271984 22.5449858,15.5014359 C23.2543398,16.0756735 24.0650302,16.0756735 24.6730479,15.5014359 C25.2810657,14.9271984 25.7877471,13.9353335 25.737079,12.8912652 L25.737079,12.8390618 Z" id="Path" stroke="#000000" stroke-width="1.469192" fill="#DE2010" transform="translate(23.636100, 12.865163) rotate(-125.580244) translate(-23.636100, -12.865163) "></path>
                            <path d="M21.2645855,16.2349116 C21.2645855,15.1908473 20.8592427,14.146783 20.2512285,13.6247508 C19.5418787,13.0505154 18.7311931,13.0505154 18.1231789,13.6247508 C17.5151648,14.1989862 17.0591541,15.1908473 17.0591541,16.2349116 C17.0591541,17.3311791 17.4644969,18.3230402 18.0725111,18.8972756 C18.781861,19.4715109 19.5925465,19.4715109 20.2005607,18.8972756 C20.8085749,18.3230402 21.3152533,17.3311791 21.2645855,16.2871148 L21.2645855,16.2349116 Z" id="Path" stroke="#000000" stroke-width="1.46918" fill="#DE2010" transform="translate(19.163619, 16.261013) rotate(-130.434375) translate(-19.163619, -16.261013) "></path>
                            <path d="M17.2799072,20.404434 C17.2799072,19.3603624 16.8745632,18.3162909 16.2665472,17.7942551 C15.5571952,17.2200157 14.7465072,17.2200157 14.1384912,17.7942551 C13.5304752,18.3684944 13.0744632,19.3603624 13.0744632,20.404434 C13.0744632,21.5007091 13.4798072,22.4925771 14.0878232,23.0668164 C14.7971752,23.6410558 15.6078632,23.6410558 16.2158792,23.0668164 C16.8238952,22.4925771 17.3305752,21.5007091 17.2799072,20.4566376 L17.2799072,20.404434 Z" id="Path" stroke="#000000" stroke-width="1.469193" fill="#DE2010" transform="translate(15.178935, 20.430536) rotate(-134.545987) translate(-15.178935, -20.430536) "></path>
                            <path d="M13.8804506,25.0352551 C13.8804506,23.9911819 13.4751056,22.9471088 12.8670881,22.4250722 C12.1577343,21.850832 11.3470442,21.850832 10.7390267,22.4250722 C10.1310091,22.9993124 9.67499597,23.9911819 9.67499597,25.0352551 C9.67499597,26.1315319 10.080341,27.1234014 10.6883585,27.6976416 C11.3977123,28.2718819 12.2084024,28.2718819 12.8164199,27.6976416 C13.4244375,27.1234014 13.9311187,26.1315319 13.8804506,25.0874587 L13.8804506,25.0352551 Z" id="Path" stroke="#000000" stroke-width="1.469198" fill="#DE2010" transform="translate(11.779473, 25.061357) rotate(-139.347530) translate(-11.779473, -25.061357) "></path>
                            <path d="M10.792463,29.6965779 C10.792463,28.6525093 10.3871173,27.6084407 9.77909865,27.0864064 C9.06974361,26.5121687 8.25905213,26.5121687 7.65103353,27.0864064 C7.04301492,27.6606441 6.58700096,28.6525093 6.58700096,29.6965779 C6.58700096,30.7928499 6.9923467,31.7847151 7.60036531,32.3589528 C8.30972035,32.9331906 9.12041183,32.9331906 9.72843044,32.3589528 C10.336449,31.7847151 10.8431312,30.7928499 10.792463,29.7487813 L10.792463,29.6965779 Z" id="Path" stroke="#000000" stroke-width="1.469194" fill="#DE2010" transform="translate(8.691481, 29.722680) rotate(-145.469112) translate(-8.691481, -29.722680) "></path>
                            <path d="M8.29991452,34.870903 C8.29991452,33.8268328 7.89457168,32.7827625 7.28655743,32.2607274 C6.57720747,31.6864888 5.7665218,31.6864888 5.15850754,32.2607274 C4.55049329,32.834966 4.0944826,33.8268328 4.0944826,34.870903 C4.0944826,35.9671767 4.49982544,36.9590434 5.10783969,37.533282 C5.81718965,38.1075207 6.62787532,38.1075207 7.23588958,37.533282 C7.84390383,36.9590434 8.35058237,35.9671767 8.29991452,34.9231065 L8.29991452,34.870903 Z" id="Path" stroke="#000000" stroke-width="1.469188" fill="#DE2010" transform="translate(6.198948, 34.897005) rotate(-155.360420) translate(-6.198948, -34.897005) "></path>
                            <path d="M6.25214066,40.468806 C6.25214066,39.4247326 5.84679862,38.3806593 5.23878556,37.8586226 C4.529437,37.2843823 3.71875292,37.2843823 3.11073987,37.8586226 C2.50272681,38.432863 2.04671702,39.4247326 2.04671702,40.468806 C2.04671702,41.565083 2.45205906,42.5569527 3.06007211,43.131193 C3.76942068,43.7054334 4.58010475,43.7054334 5.18811781,43.131193 C5.79613087,42.5569527 6.30280841,41.565083 6.25214066,40.5210097 L6.25214066,40.468806 Z" id="Path" stroke="#000000" stroke-width="1.469189" fill="#DE2010" transform="translate(4.151178, 40.494908) rotate(-160.561822) translate(-4.151178, -40.494908) "></path>
                            <path d="M4.50985432,50.8553138 C4.50985432,50.0163534 4.1051275,49.177393 3.49803727,48.7579128 C2.78976533,48.2964846 1.98031168,48.2964846 1.37322145,48.7579128 C0.766131219,49.219341 0.310813545,50.0163534 0.310813545,50.8553138 C0.310813545,51.7362222 0.715540366,52.5332346 1.3226306,52.9946628 C2.03090254,53.456091 2.84035618,53.456091 3.44744641,52.9946628 C4.05453665,52.5332346 4.56044517,51.7362222 4.50985432,50.8972618 L4.50985432,50.8553138 Z" id="Path" stroke="#000000" stroke-width="1.230598" fill="#DE2010" transform="translate(2.412081, 50.876288) rotate(-173.425175) translate(-2.412081, -50.876288) "></path>
                            <path d="M4.9563917,46.0690302 C4.9563917,45.0249644 4.55104894,43.9808986 3.94303481,43.4588656 C3.23368499,42.8846294 2.42299947,42.8846294 1.81498534,43.4588656 C1.20697121,44.0331018 0.750960607,45.0249644 0.750960607,46.0690302 C0.750960607,47.1652993 1.15630336,48.1571618 1.7643175,48.731398 C2.47366732,49.3056342 3.28435283,49.3056342 3.89236696,48.731398 C4.5003811,48.1571618 5.00705954,47.1652993 4.9563917,46.1212335 L4.9563917,46.0690302 Z" id="Path" stroke="#000000" stroke-width="1.469182" fill="#DE2010" transform="translate(2.855425, 46.095132) rotate(-167.159441) translate(-2.855425, -46.095132) "></path>
                        </g>
                        <path d="M200,60.84375 C200.6875,60.125 201.3125,59.90625 202.09375,60.1875 C201.78125,58.28125 201.21875,57.625 200.46875,57.875 C199.75,58.09375 199.40625,59.0625 200,60.84375 Z M201.03125,66.53125 C201.75,65.875 202.375,65.71875 203.15625,66.03125 C203.03125,64.15625 202.46875,63.4375 201.71875,63.625 C200.96875,63.78125 200.59375,64.75 201.03125,66.53125 Z M198.59375,55.59375 C199.0625,54.75 199.625,54.40625 200.46875,54.4375 C199.6875,52.6875 198.96875,52.21875 198.28125,52.625 C197.65625,53.03125 197.59375,54.0625 198.59375,55.625 L198.59375,55.59375 Z M196.0625,50.40625 C196.53125,49.53125 197.09375,49.1875 197.9375,49.25 C197.15625,47.46875 196.40625,47 195.75,47.40625 C195.125,47.8125 195.0625,48.84375 196.0625,50.40625 Z M189.96875,40.875 C190.28125,39.9375 190.78125,39.5 191.59375,39.4375 C190.5625,37.8125 189.75,37.46875 189.1875,37.96875 C188.625,38.46875 188.71875,39.53125 189.96875,40.875 Z M185.9375,36.71875 C186.25,35.78125 186.6875,35.34375 187.5,35.21875 C186.4375,33.65625 185.625,33.34375 185.0625,33.84375 C184.5,34.375 184.625,35.40625 185.9375,36.71875 Z M177.59375,29.6875 C177.59375,28.6875 177.90625,28.125 178.625,27.75 C177.125,26.59375 176.21875,26.5625 175.875,27.21875 C175.53125,27.875 175.9375,28.8125 177.59375,29.6875 Z M181.96875,32.96875 C182.09375,32 182.5,31.46875 183.3125,31.25 C182,29.84375 181.15625,29.625 180.6875,30.21875 C180.21875,30.84375 180.46875,31.8125 181.9375,32.96875 L181.96875,32.96875 Z M172.59375,26.9375 C172.5,25.96875 172.75,25.375 173.4375,24.90625 C171.8125,23.90625 170.9375,23.96875 170.625,24.65625 C170.34375,25.375 170.875,26.25 172.625,26.9375 L172.59375,26.9375 Z M167.5625,24.6875 C167.3125,23.75 167.46875,23.125 168.09375,22.5625 C166.34375,21.8125 165.46875,21.96875 165.28125,22.71875 C165.09375,23.46875 165.75,24.25 167.5625,24.6875 Z M162.09375,23 C161.75,22.0625 161.84375,21.4375 162.4375,20.8125 C160.625,20.21875 159.78125,20.46875 159.625,21.21875 C159.53125,21.96875 160.25,22.71875 162.09375,23 Z M156.6875,21.9375 C156.3125,21.0625 156.375,20.375 156.90625,19.75 C155.03125,19.28125 154.21875,19.59375 154.15625,20.375 C154.0625,21.125 154.84375,21.8125 156.6875,21.9375 Z M151,21.5 C150.5,20.65625 150.5,20 151,19.3125 C149.09375,19.03125 148.28125,19.4375 148.3125,20.1875 C148.3125,20.96875 149.15625,21.5625 151,21.5 Z M139.84375,22.34375 C139.15625,21.65625 139,21 139.28125,20.21875 C137.40625,20.40625 136.71875,20.96875 136.90625,21.71875 C137.09375,22.46875 138.0625,22.84375 139.84375,22.34375 Z M145.34375,21.625 C144.75,20.84375 144.65625,20.1875 145.0625,19.4375 C143.15625,19.375 142.40625,19.84375 142.5,20.625 C142.59375,21.375 143.5,21.875 145.3125,21.625 L145.34375,21.625 Z M134.4375,23.5 C133.6875,22.90625 133.40625,22.3125 133.59375,21.5 C131.71875,21.96875 131.15625,22.625 131.4375,23.3125 C131.75,24.03125 132.75,24.25 134.4375,23.5 Z M124.125,28.25 C123.25,27.8125 122.875,27.28125 122.90625,26.4375 C121.15625,27.25 120.71875,28 121.15625,28.625 C121.5625,29.25 122.59375,29.3125 124.125,28.25 Z M129.125,25.71875 C128.28125,25.1875 128,24.59375 128.125,23.78125 C126.28125,24.34375 125.75,25.03125 126.09375,25.71875 C126.4375,26.40625 127.46875,26.59375 129.09375,25.71875 L129.125,25.71875 Z M114.875,34.71875 C113.9375,34.46875 113.4375,34 113.3125,33.15625 C111.75,34.34375 111.5,35.15625 112.03125,35.6875 C112.59375,36.21875 113.59375,36.0625 114.84375,34.71875 L114.875,34.71875 Z M119.28125,31.09375 C118.34375,30.78125 117.90625,30.28125 117.84375,29.46875 C116.21875,30.46875 115.875,31.28125 116.375,31.875 C116.875,32.4375 117.9375,32.34375 119.28125,31.09375 Z M110.9375,38.59375 C110,38.40625 109.46875,38 109.25,37.1875 C107.8125,38.46875 107.625,39.34375 108.21875,39.8125 C108.8125,40.3125 109.78125,40.03125 110.9375,38.5625 L110.9375,38.59375 Z M107.40625,43.125 C106.40625,43.0625 105.84375,42.71875 105.59375,41.9375 C104.28125,43.34375 104.15625,44.1875 104.78125,44.625 C105.40625,45.0625 106.375,44.6875 107.40625,43.125 Z M104.46875,47.8125 C103.46875,47.875 102.90625,47.59375 102.46875,46.875 C101.40625,48.46875 101.40625,49.375 102.09375,49.6875 C102.78125,50 103.6875,49.5 104.46875,47.8125 Z M101.875,52.8125 C100.9375,53 100.3125,52.8125 99.78125,52.125 C98.9375,53.84375 99.0625,54.71875 99.78125,54.9375 C100.5,55.1875 101.34375,54.5625 101.875,52.78125 L101.875,52.8125 Z M99.8125,57.90625 C98.875,58.25 98.25,58.15625 97.625,57.59375 C97.0625,59.40625 97.3125,60.25 98.09375,60.375 C98.84375,60.46875 99.5625,59.75 99.8125,57.875 L99.8125,57.90625 Z M98.40625,63.59375 C97.53125,64 96.875,63.96875 96.21875,63.4375 C95.78125,65.3125 96.09375,66.09375 96.84375,66.15625 C97.625,66.25 98.3125,65.46875 98.40625,63.59375 Z M97.84375,68.34375 C97.03125,68.78125 96.375,68.84375 95.65625,68.5 C95.4375,70.03125 95.84375,70.625 96.59375,70.5625 C97.34375,70.5 97.9375,69.8125 97.84375,68.34375 Z M193.78125,45.78125 C194.125,44.84375 194.625,44.40625 195.4375,44.34375 C194.4375,42.71875 193.65625,42.375 193.0625,42.84375 C192.46875,43.34375 192.5625,44.40625 193.78125,45.78125 Z M201.65625,72.34375 C202.375,71.65625 203.03125,71.5 203.78125,71.84375 C203.65625,69.9375 203.09375,69.25 202.34375,69.40625 C201.625,69.59375 201.21875,70.53125 201.65625,72.34375 Z" id="Shape" stroke="none" fill="#FFE300" fill-rule="evenodd"></path>
                        <path d="M194.15625,41.25 C194.15625,41.25 191.96875,43.40625 192.375,46 C192.75,48.59375 194.40625,51.8125 194.09375,54.53125 C193.78125,57.21875 193.3125,59 193.3125,59 C193.3125,59 195.8125,56.15625 195.8125,53.375 C195.875,50.65625 194.125,47.03125 194.125,45.03125 C194.125,43.03125 194.21875,41.21875 194.15625,41.28125 L194.15625,41.25 Z M198.125,50 C198.125,50 196.46875,51.25 196.625,54.0625 C196.78125,56.90625 199.75,62.125 199.75,62.125 C199.75,62.125 201.875,66.5 201.78125,67.65625 C201.71875,68.8125 202.1875,66.5625 201.96875,64.0625 C201.75,61.5625 198.53125,56 198.53125,56 C198.53125,56 197.84375,54.875 197.90625,52.96875 C197.96875,51.09375 198.15625,50.03125 198.15625,50 L198.125,50 Z" id="Shape" stroke="#000000" stroke-width="0.9" fill="#217900" fill-rule="evenodd" stroke-linejoin="round"></path>
                        <path d="M147.8125,14.8125 C147.8125,14.25 147.125,13.75 146.3125,13.75 C145.5,13.75 144.84375,14.25 144.84375,14.8125 C144.84375,15.375 145.46875,15.875 146.3125,15.875 C147.15625,15.875 147.78125,15.40625 147.78125,14.8125 L147.8125,14.8125 Z M148.4375,17.3125 C148.4375,16.75 147.75,16.28125 146.875,16.28125 C146.0625,16.28125 145.375,16.71875 145.375,17.28125 C145.375,17.84375 146.0625,18.3125 146.90625,18.3125 C147.75,18.3125 148.40625,17.84375 148.40625,17.28125 L148.4375,17.3125 Z M150.3125,14.375 C150.3125,14.375 148.5625,15.65625 149.28125,16.1875 C150,16.71875 151.96875,15.0625 151.96875,15.0625 L150.3125,14.375 Z M201.34375,44.1875 C201.34375,43.8125 201.1875,43.46875 200.90625,43.28125 C200.625262,43.0827817 200.249738,43.0827817 199.96875,43.28125 C199.6875,43.46875 199.53125,43.8125 199.53125,44.1875 C199.53125,44.5625 199.6875,44.90625 199.96875,45.09375 C200.249738,45.2922183 200.625262,45.2922183 200.90625,45.09375 C201.1875,44.90625 201.34375,44.5625 201.34375,44.1875 Z M200.6875,41.6875 C200.6875,41.0625 200.25,40.59375 199.75,40.59375 C199.25,40.59375 198.78125,41.09375 198.78125,41.71875 C198.78125,42.34375 199.21875,42.8125 199.71875,42.8125 C200.21875,42.8125 200.6875,42.3125 200.6875,41.71875 L200.6875,41.6875 Z M201.15625,46.75 C201.15625,46.4375 200.96875,46.1875 200.78125,46.1875 C200.59375,46.1875 200.40625,46.4375 200.40625,46.75 C200.40625,47.0625 200.5625,47.34375 200.78125,47.34375 C201,47.34375 201.15625,47.0625 201.15625,46.75 Z M202.6875,42.25 C202.6875,41.875 202.5,41.59375 202.3125,41.59375 C202.09375,41.59375 201.9375,41.875 201.9375,42.21875 C201.9375,42.5625 202.09375,42.90625 202.3125,42.90625 C202.5,42.90625 202.6875,42.59375 202.6875,42.25 Z M198.5,42.6875 C198.5,42.375 198.3125,42.15625 198.125,42.15625 C197.9375,42.15625 197.75,42.40625 197.75,42.6875 C197.75,42.96875 197.90625,43.25 198.125,43.25 C198.34375,43.25 198.5,43 198.5,42.6875 Z M199.15625,46.25 C199.15625,45.78125 198.8125,45.40625 198.375,45.40625 C197.9375,45.40625 197.59375,45.78125 197.59375,46.25 C197.59375,46.75 197.90625,47.125 198.375,47.125 C198.84375,47.125 199.15625,46.75 199.15625,46.25 Z M197.09375,44.6875 C197.09375,44.28125 196.78125,43.9375 196.4375,43.9375 C196.0625,43.9375 195.75,44.25 195.75,44.6875 C195.75,45.125 196.0625,45.4375 196.4375,45.4375 C196.78125,45.4375 197.0625,45.125 197.0625,44.6875 L197.09375,44.6875 Z M196.78125,42.5625 C196.777712,42.3427955 196.659061,42.141088 196.46875,42.03125 C196.286952,41.9182869 196.056798,41.9182869 195.875,42.03125 C195.696658,42.1486646 195.590598,42.3489999 195.59375,42.5625 C195.585978,42.7933387 195.706149,43.009646 195.90625,43.125 C196.080288,43.2254809 196.294712,43.2254809 196.46875,43.125 C196.65625,43 196.78125,42.8125 196.78125,42.5625 Z M206.1875,53.3125 C205.34375,52.1875 203.96875,51.71875 203.125,52.25 C202.3125,52.78125 202.3125,54.125 203.1875,55.28125 C204.03125,56.40625 205.375,56.875 206.21875,56.34375 C207.0625,55.78125 207.0625,54.46875 206.21875,53.3125 L206.1875,53.3125 Z M208.625,74.15625 C208.78125,72.75 208.125,71.53125 207.125,71.40625 C206.125,71.3125 205.1875,72.34375 205,73.71875 C204.84375,75.09375 205.53125,76.3125 206.53125,76.4375 C207.53125,76.5625 208.46875,75.5 208.625,74.15625 Z M209.125,86.28125 C209.4375,84.90625 208.84375,83.625 207.875,83.40625 C206.875,83.21875 205.84375,84.15625 205.5625,85.53125 C205.28125,86.875 205.875,88.15625 206.8125,88.34375 C207.8125,88.5625 208.84375,87.625 209.125,86.25 L209.125,86.28125 Z M211.46875,74.90625 C211.46875,74.375 211.09375,73.9375 210.65625,73.9375 C210.21875,73.9375 209.8125,74.375 209.8125,74.90625 C209.8125,75.46875 210.1875,75.90625 210.65625,75.90625 C211.125,75.90625 211.46875,75.46875 211.46875,74.90625 Z M209.4375,77.1875 L207.75,79.125 C207.75,79.125 206.15625,79.15625 206.25,79.6875 C206.3125,80.1875 208.4375,81.75 208.4375,82.375 C208.40625,83 209.8125,82.21875 209.8125,82.21875 L210.96875,78.75 C210.96875,78.75 210.90625,76.34375 210.28125,76.375 C209.65625,76.4375 209.5,77.15625 209.4375,77.1875 Z M97.75,76.4375 C97.8141413,76.1151782 97.677795,75.785958 97.4045443,75.6033669 C97.1312937,75.4207758 96.7749563,75.4207758 96.5017057,75.6033669 C96.228455,75.785958 96.0921087,76.1151782 96.15625,76.4375 C96.2318978,76.8176439 96.5655273,77.0914236 96.953125,77.0914236 C97.3407227,77.0914236 97.6743522,76.8176439 97.75,76.4375 Z M98.53125,73.9375 C98.53125,73.5 98.15625,73.125 97.71875,73.125 C97.28125,73.125 96.90625,73.5 96.90625,73.96875 C96.90625,74.4375 97.28125,74.8125 97.71875,74.8125 C98.1724928,74.7956833 98.5315615,74.4228042 98.53125,73.96875 L98.53125,73.9375 Z M91.875,62.25 C91.5625,61.5625 90.9375,61.1875 90.46875,61.40625 C90,61.625 89.84375,62.34375 90.15625,63.03125 C90.46875,63.71875 91.09375,64.09375 91.5625,63.875 C92.0625,63.65625 92.1875,62.9375 91.875,62.25 Z M93.90625,69.5625 C93.46875,68.6875 92.625,68.1875 91.96875,68.46875 C91.3125,68.75 91.125,69.6875 91.53125,70.5625 C91.9375,71.4375 92.78125,71.9375 93.46875,71.65625 C94.15625,71.375 94.3125,70.4375 93.90625,69.5625 Z M96.03125,74.9375 C96.1875,73.84375 95.71875,72.8125 95.03125,72.6875 C94.3125,72.53125 93.65625,73.3125 93.5,74.40625 C93.375,75.5 93.8125,76.5 94.53125,76.65625 C95.21875,76.8125 95.90625,76.03125 96.03125,74.9375 Z M92.59375,75.71875 C93.03125,74.6875 92.875,73.59375 92.25,73.28125 C91.625,72.96875 90.75,73.5 90.3125,74.53125 C89.875,75.5625 90.03125,76.625 90.6875,76.96875 C91.34375,77.3125 92.15625,76.75 92.59375,75.71875 Z" id="Shape" stroke="none" fill="#6B18B5" fill-rule="evenodd"></path>
                        <path d="M91.03125,73.375 C91.03125,72.84375 90.625,72.4375 90.125,72.4375 C89.625,72.4375 89.21875,72.875 89.21875,73.375 C89.21875,73.875 89.625,74.3125 90.15625,74.3125 C90.6875,74.3125 91.03125,73.90625 91.03125,73.375 Z M90.3125,71.03125 C90.3125,70.5625 89.9375,70.1875 89.5,70.1875 C89.2761709,70.1956362 89.0647611,70.2924336 88.9123558,70.4565625 C88.7599504,70.6206914 88.6790567,70.8386822 88.6875,71.0625 C88.6875,71.5 89.0625,71.90625 89.5,71.90625 C89.9375,71.90625 90.3125,71.5 90.3125,71.03125 Z M91.0625,66.5625 C91.0625,65.75 90.71875,65.125 90.28125,65.125 C89.84375,65.125 89.5,65.75 89.5,66.5625 C89.5,67.34375 89.84375,68 90.28125,68 C90.71875,68 91.0625,67.375 91.0625,66.5625 Z M93.5,66.21875 C93.59375,65.4375 93.34375,64.75 92.875,64.65625 C92.46875,64.625 92.03125,65.21875 91.9375,66 C91.8125,66.78125 92.09375,67.46875 92.53125,67.53125 C92.9375,67.59375 93.375,67 93.46875,66.21875 L93.5,66.21875 Z M110.6875,31.84375 C111.03125,30.71875 110.6875,29.59375 109.96875,29.34375 C109.25,29.0625 108.40625,29.75 108.09375,30.875 C107.78125,32 108.09375,33.125 108.8125,33.375 C109.53125,33.65625 110.375,32.96875 110.6875,31.84375 Z M107.4375,36.8125 C108.375,35.96875 108.8125,34.84375 108.375,34.28125 C107.90625,33.6875 106.75,33.90625 105.78125,34.71875 C104.8125,35.53125 104.4375,36.65625 104.875,37.21875 C105.34375,37.8125 106.5,37.625 107.4375,36.8125 Z M105.5625,34.0625 C106.5,33.34375 106.875,32.375 106.4375,31.875 C106,31.375 104.875,31.5625 103.9375,32.25 C102.96875,32.96875 102.5625,33.9375 103,34.4375 C103.4375,34.9375 104.5625,34.75 105.53125,34.0625 L105.5625,34.0625 Z M112.90625,29.21875 C113.53125,28.71875 113.8125,28.03125 113.53125,27.6875 C113.21875,27.375 112.4375,27.46875 111.78125,27.96875 C111.125,28.46875 110.875,29.125 111.1875,29.46875 C111.5,29.8125 112.25,29.6875 112.90625,29.21875 Z" id="Shape" stroke="none" fill="#6B18B5" fill-rule="evenodd"></path>
                        <path d="M109.0625,33.90625 C109.5,33.21875 109.53125,32.5 109.125,32.28125 C108.71875,32.0625 108.03125,32.40625 107.59375,33.09375 C107.15625,33.78125 107.125,34.5 107.53125,34.71875 C107.9375,34.9375 108.625,34.5625 109.0625,33.90625 Z M114.59375,31 C115.28125,30.40625 115.53125,29.65625 115.21875,29.28125 C114.84375,28.90625 113.96875,29.09375 113.28125,29.65625 C112.59375,30.21875 112.34375,31 112.6875,31.375 C113.0625,31.75 113.90625,31.5625 114.59375,31 Z M104.59375,37.75 C105.21875,37.75 105.71875,37.40625 105.65625,37.03125 C105.65625,36.6875 105.0625,36.40625 104.40625,36.4375 C103.78125,36.46875 103.28125,36.8125 103.34375,37.15625 C103.375,37.53125 103.96875,37.78125 104.59375,37.78125 L104.59375,37.75 Z M116.6875,27.40625 C117.125,26.71875 117.15625,26 116.75,25.78125 C116.375,25.5625 115.6875,25.90625 115.25,26.59375 C114.8125,27.28125 114.78125,28 115.1875,28.21875 C115.59375,28.4375 116.25,28.09375 116.6875,27.40625 Z" id="Shape" stroke="none" fill="#6B18B5" fill-rule="evenodd"></path>
                        <path d="M189.625,47.9375 C189.625,47.9375 191.625,44.78125 190.875,41.78125 C190.09375,38.8125 186.8125,40.9375 186.875,42 C186.9375,43.03125 189,44.46875 189.125,45.125 C189.25,45.75 188.875,47.71875 189.625,47.9375 Z" id="Path" stroke="#EF8A10" stroke-width="0.2" fill="#FFD200" fill-rule="evenodd"></path>
                        <path d="M151.53125,21.65625 C151.53125,21.65625 158.71875,21.9375 158.75,26.59375 C158.75,27.3125 158.75,28.15625 158.5,30.25 C159.9375,29.46875 160.875,27.34375 160.6875,25.96875 C160.71875,21.25 154.28125,18 151.53125,21.65625 Z" id="Path" stroke="#000000" stroke-width="1.3" fill="#217900" fill-rule="evenodd" stroke-linejoin="round"></path>
                        <path d="M146.96875,21.4375 C146.96875,21.4375 152.75,20.25 152.8125,24.875 C152.84375,29.5625 150.9375,30.28125 150.9375,30.28125 C150.9375,30.28125 155.40625,29.34375 155.4375,24.625 C155.4375,19.875 149.71875,17.78125 146.96875,21.4375 Z" id="Path" stroke="#000000" stroke-width="1.3" fill="#217900" fill-rule="evenodd" stroke-linejoin="round"></path>
                        <path d="M166.65625,121.875 C166.65625,121.875 193.78125,114.1875 201.96875,80.9375 C197.1875,115.03125 167.5,125.9375 167.5,125.9375 L166.625,121.875 L166.65625,121.875 Z" id="Path" stroke="#000000" stroke-width="1.5" fill="#F7DF73" fill-rule="evenodd" stroke-linejoin="round"></path>
                        <path d="M169.4375,123.9375 C170.28125,123.9375 172.34375,121.625 173.53125,121.375 C174.71875,121.125 174.84375,119.90625 173.5,119.875 C172.125,119.8125 170.9375,121.4375 170.9375,121.4375 C170.9375,121.4375 169.75,122.4375 168.5,122.5625 C167.25,122.6875 168.0625,124.25 169.4375,123.9375 Z" id="Path" stroke="none" fill="#8C1800" fill-rule="evenodd"></path>
                        <path d="M185.0625,112.28125 C185.0625,112.28125 182.25,113.90625 182.625,114.3125 C183.03125,114.71875 185.53125,112.75 185.59375,112.75 C185.625,112.6875 186.65625,111.4375 185.0625,112.28125 Z" id="Path" stroke="#8C1800" stroke-width="1.5" fill="#8C1800" fill-rule="evenodd"></path>
                        <path d="M175.21875,119.6875 C175.21875,119.6875 174.375,119.375 176.53125,118.5625 C178.71875,117.71875 178.5625,116.75 179.28125,116.34375 C179.96875,115.9375 181.46875,114.875 181.78125,115.5 C182.09375,116.125 180.21875,117.375 179.75,117.5 C179.3125,117.625 177.15625,119.625 176.53125,119.78125 C175.90625,119.96875 175.46875,119.875 175.21875,119.6875 Z" id="Path" stroke="none" fill="#8C1800" fill-rule="evenodd"></path>
                        <path d="M189.25,108.125 C187.375,110.21875 187.375,110.15625 187.375,110.15625" id="Path" stroke="#8C1800" stroke-width="2" fill="none" stroke-linecap="round"></path>
                        <path d="M192.03125,104.75 L190.25,106.90625" id="Path" stroke="#8C1800" stroke-width="1.8" fill="none" stroke-linecap="round"></path>
                        <path d="M194.8125,100.3125 L192.8125,103.5" id="Path" stroke="#8C1800" stroke-width="1.5" fill="none" stroke-linecap="round"></path>
                        <path d="M197.15625,95.8125 L195.5,99.09375 M198.1875,93.46875 L197.6875,94.59375" id="Shape" stroke="#8C1800" stroke-width="2.3" fill="none" stroke-linecap="round"></path>
                        <path d="M199.375,90.3125 L198.9375,91.6875" id="Path" stroke="#8C1800" stroke-width="0.4" fill="none" stroke-linecap="round"></path>
                        <path d="M96.1130275,121.16685 C96.1130275,121.16685 123.011327,113.354627 131.080817,79.4485156 C126.373615,114.258081 96.9406675,125.258967 96.9406675,125.258967 L96.1130275,121.16685 Z" id="Path" stroke="#000000" stroke-width="1.517155" fill="#F7DF73" fill-rule="evenodd" stroke-linejoin="round" transform="translate(113.596922, 102.353741) scale(-1, 1) translate(-113.596922, -102.353741) "></path>
                        <path d="M128.34375,123.25 C127.5,123.25 125.46875,120.90625 124.28125,120.65625 C123.09375,120.375 122.96875,119.15625 124.3125,119.09375 C125.6875,119.09375 126.84375,120.6875 126.84375,120.6875 C126.84375,120.6875 128.03125,121.71875 129.25,121.875 C130.5,122 129.6875,123.5625 128.34375,123.25 Z" id="Path" stroke="none" fill="#8C1800" fill-rule="evenodd"></path>
                        <path d="M114.422472,111.388285 C114.422472,111.388285 111.629187,113.088905 112.043007,113.51406 C112.405099,113.886071 114.888019,111.919729 114.939747,111.866584 C114.991474,111.81344 115.974297,110.537975 114.422472,111.388285 Z" id="Path" stroke="#8C1800" stroke-width="1.517155" fill="#8C1800" fill-rule="evenodd" transform="translate(113.647605, 112.328838) scale(-1, 1) translate(-113.647605, -112.328838) "></path>
                        <path d="M122.625,118.9375 C122.625,118.9375 123.4375,118.625 121.3125,117.78125 C119.1875,116.9375 119.28125,115.90625 118.59375,115.53125 C117.90625,115.125 116.40625,114.0625 116.09375,114.6875 C115.78125,115.3125 117.65625,116.5625 118.125,116.6875 C118.5625,116.84375 120.6875,118.875 121.3125,119.03125 C121.9375,119.21875 122.34375,119.125 122.625,118.9375 Z" id="Path" stroke="none" fill="#8C1800" fill-rule="evenodd"></path>
                        <path d="M110.545,107.189879 L108.734537,109.26251" id="Path" stroke="#8C1800" stroke-width="2.020586" fill="none" stroke-linecap="round" transform="translate(109.639769, 108.226195) scale(-1, 1) translate(-109.639769, -108.226195) "></path>
                        <path d="M107.699987,103.735495 L105.941252,105.914414" id="Path" stroke="#8C1800" stroke-width="1.852775" fill="none" stroke-linecap="round" transform="translate(106.820620, 104.824955) scale(-1, 1) translate(-106.820620, -104.824955) "></path>
                        <path d="M105.16534,99.2182231 L103.199695,102.46003" id="Path" stroke="#8C1800" stroke-width="2.5171547" fill="none" stroke-linecap="round" transform="translate(104.182517, 100.839127) scale(-1, 1) translate(-104.182517, -100.839127) "></path>
                        <path d="M101.492687,94.6478069 L99.8374075,97.9959025 M102.527237,92.2031656 L102.009962,93.3723419" id="Shape" stroke="#8C1800" stroke-width="2.34934439" fill="none" stroke-linecap="round" transform="translate(101.182322, 95.099534) scale(-1, 1) translate(-101.182322, -95.099534) "></path>
                        <path d="M99.1132225,89.0145031 L98.647675,90.4494012" id="Path" stroke="#8C1800" stroke-width="0.342483" fill="none" stroke-linecap="round" transform="translate(98.880449, 89.731952) scale(-1, 1) translate(-98.880449, -89.731952) "></path>
                        <path d="M203.25,74.78125 C203.40625,76.875 205.4375,78.84375 204.625,82.5 C203.625,86.65625 200,96.46875 200.625,98.1875 C199.5625,96.71875 199.75,95.375 199.6875,93.3125 C199.5625,91.28125 202.625,83.65625 202.90625,81.09375 C202.90625,78.78125 203.125,75.625 203.25,74.78125 Z" id="Path" stroke="#000000" stroke-width="1.3" fill="#217900" fill-rule="evenodd" stroke-linejoin="round"></path>
                        <path d="M203.25,74.8125 C203.25,74.8125 206.59375,79.03125 206.40625,82.375 C206.25,85.71875 204.375,89.625 205,91.34375 C204.011176,90.0811042 203.501859,88.5088634 203.5625,86.90625 C203.46875,84.875 205.21875,82.59375 204.84375,80.375 C204.5,78.1875 203.21875,74.8125 203.28125,74.8125 L203.25,74.8125 Z M94.09375,75.75 C93.96875,77.84375 92.40625,79.71875 93.21875,83.34375 C94.21875,87.5 97.90625,92.71875 97.28125,98.71875 C98.375,97.25 98.6875,95.59375 98.78125,93.5625 C98.84375,91.53125 94.71875,84.65625 94.46875,82.0625 C94.46875,79.75 94.21875,76.59375 94.09375,75.75 Z" id="Shape" stroke="#000000" stroke-width="1.3" fill="#217900" fill-rule="evenodd" stroke-linejoin="round"></path>
                        <path d="M94.09375,75.8125 C94.09375,75.8125 90.84375,79.875 91.03125,83.21875 C91.0625,85.4375 95.15625,94.71875 94.53125,96.46875 C95.625,95 95.90625,95.1875 95.875,92.96875 C94.6875,87.25 92.53125,83.625 92.90625,81.40625 C93.25,79.1875 94.15625,75.78125 94.09375,75.78125 L94.09375,75.8125 Z" id="Path" stroke="#000000" stroke-width="1.3" fill="#217900" fill-rule="evenodd" stroke-linejoin="round"></path>
                        <polygon id="Path" stroke="#000000" stroke-width="0.980925" fill="#FFFFFF" fill-rule="evenodd" stroke-linecap="square" stroke-linejoin="round" points="149.53625 38.4374288 157.546725 63.2737375 183.762825 63.2737375 162.6443 78.6416588 170.691186 103.477968 149.572661 88.1464631 128.454136 103.477968 136.464611 78.6416588 115.309675 63.2737375 141.452952 63.2737375"></polygon>
                    </g>
                </g>
            </g>
        </g>
    </g>
</svg>