<?xml version="1.0" encoding="UTF-8"?>
<svg width="200px" height="150px" viewBox="0 0 200 150" version="1.1" xmlns="http://www.w3.org/2000/svg" xmlns:xlink="http://www.w3.org/1999/xlink">
    <!-- Generator: Sketch 52.5 (67469) - http://www.bohemiancoding.com/sketch -->
    <title>pg</title>
    <desc>Created with Sketch.</desc>
    <g id="Flags" stroke="none" stroke-width="1" fill="none" fill-rule="evenodd">
        <g id="Oceania" transform="translate(-730.000000, -450.000000)">
            <g id="pg" transform="translate(730.000000, 450.000000)">
                <g id="Group">
                    <polygon id="Path" fill="#000000" points="0.187207488 0 0.031201248 149.765991 199.719189 149.765991"></polygon>
                    <polygon id="Path" fill="#FF0000" points="199.563183 149.765991 199.719189 0 0.031201248 0"></polygon>
                </g>
                <path d="M123.319944,37.2682559 L120.687937,37.1302253 C119.856777,35.1977972 117.571087,34.5076443 116.116557,35.3358278 C113.437773,35.3363115 110.759184,35.2902943 108.082009,35.1977972 L112.999706,37.3372711 C114.31571,40.7190203 118.47151,41.4091732 118.47151,41.4091732 C118.05593,47.4825186 112.307073,40.650005 107.458639,44.1007694 C103.995472,46.1712281 103.995472,48.5867632 102.125362,52.5896499 C101.501992,53.6938945 99.0777754,56.5925367 99.0777754,56.5925367 L103.164312,56.2474602 L101.848309,57.9728424 L106.696743,57.2826895 L105.657793,58.2489036 C106.350426,58.3869342 111.19886,57.0756437 111.19886,57.0756437 L110.852543,58.6629953 L116.39361,56.661552 C116.39361,56.661552 117.501823,57.5587507 118.47151,57.9728424 L119.164144,55.2122309 L121.934677,55.9023838 L122.62731,53.1417722 C126.783111,58.6629953 128.168378,64.1842184 135.787345,65.5645242 L135.094711,62.8039126 C137.120045,63.6874906 139.129017,64.6078479 141.120622,65.5645242 L141.743992,64.3912643 C145.068632,66.7377841 147.769902,66.6687688 149.640012,66.94483 L148.254746,63.4940655 L149.640012,64.1842184 L147.562112,58.6629953 L149.640012,59.3531482 L146.869479,55.2122309 L147.908429,54.522078 L147.562112,52.4516193 C151.717913,53.8319251 157.25898,55.9023838 157.951613,60.733454 C158.644246,68.3251357 150.332646,70.3955944 144.791579,69.7054415 C148.947379,73.1562059 156.566346,71.7759002 160.029513,68.3251357 C161.41478,66.94483 162.107413,64.8743713 162.800047,62.8039126 C163.49268,64.8743713 164.877947,67.6349828 164.877947,70.3955944 C164.185314,76.6069704 155.873713,78.677429 150.332646,79.3675819 C156.566346,82.8183463 167.64848,78.677429 168.341114,69.7054415 C168.341114,62.1137598 163.49268,58.6629953 161.41478,55.2122309 L160.722147,51.4854053 L162.800047,52.4516193 C162.800047,52.4516193 161.553307,50.1741148 161.41478,49.6910078 C161.41478,49.6910078 159.267617,43.8247083 158.50572,42.5134178 L160.029513,42.7894789 L154.34992,35.6809042 L155.942976,35.5428736 C155.942976,35.5428736 149.362959,30.366727 147.562112,29.6765741 L149.640012,28.9864212 C145.484212,26.9159626 140.635778,28.2962683 136.479978,31.0568799 L137.172612,28.9864212 L135.925871,29.1244518 L135.925871,26.7089167 L137.172612,24.8455039 L135.094711,24.155351 L136.479978,20.7045866 L134.402078,21.3947395 L135.094711,17.943975 C135.094711,17.943975 133.570918,18.6341279 132.601231,18.5651126 C132.99905,17.7965787 133.368699,17.0138885 133.709445,16.2185928 C133.016811,15.1833635 133.709445,13.1129048 133.709445,13.1129048 C128.861011,13.8030577 128.168378,14.4932106 125.397844,18.6341279 C121.242044,26.2258097 122.62731,29.6765741 123.319944,37.2682559 Z" id="Path" stroke="#FFCC00" stroke-width="2.43751042" fill="#FFCC00"></path>
                <path d="M149.501486,48.5867632 C149.847802,49.2079008 153.795813,51.0713136 156.704873,52.7276805 C155.942976,49.5529772 150.194119,48.8628243 149.501486,48.5867632 Z" id="Path" stroke="#FF0000" stroke-width="3.10228599" fill="#FF0000"></path>
                <path d="M54.2901716,124.49298 L49.8595944,121.684867 L43.9313573,124.524181 L45.2730109,119.469579 L40.74883,114.75819 L45.9594384,114.446178 L49.0795632,108.705148 L50.9828393,113.541342 L57.4414977,114.726989 L53.3853354,118.034321 L54.2901716,124.49298 Z M65.5850234,99.8439938 L63.525741,98.9079563 L61.5600624,100.031201 L61.8720749,97.7847114 L60.1872075,96.2558502 L62.4024961,95.850234 L63.3385335,93.7909516 L64.4305772,95.7878315 L66.6770671,96.0374415 L65.1170047,97.6599064 L65.5850234,99.8439938 Z M75.5694228,85.7410296 L71.0452418,83.5569423 L66.7082683,85.9906396 L67.425897,81.0920437 L63.7441498,77.7223089 L68.6427457,76.8486739 L70.7020281,72.3556942 L73.0733229,76.723869 L78.0031201,77.2854914 L74.5709828,80.8736349 L75.5694228,85.7410296 Z M55.0390016,66.0842434 L49.7347894,63.4321373 L44.5865835,66.2714509 L45.4602184,60.4680187 L41.1544462,56.4118565 L46.9890796,55.475819 L49.4851794,50.1716069 L52.199688,55.3822153 L58.0655226,56.099844 L53.9157566,60.2808112 L55.0390016,66.0842434 Z M36.0686427,86.4898596 L30.7644306,83.3697348 L25.4602184,86.5834633 L26.8018721,80.5616225 L22.0904836,76.5054602 L28.2371295,75.9438378 L30.6396256,70.2340094 L33.1045242,75.9126365 L39.2823713,76.4118565 L34.6333853,80.4680187 L36.0686427,86.4898596 Z" id="Shape" fill="#FFFFFF"></path>
            </g>
        </g>
    </g>
</svg>