<?xml version="1.0" encoding="UTF-8"?>
<svg width="200px" height="150px" viewBox="0 0 200 150" version="1.1" xmlns="http://www.w3.org/2000/svg" xmlns:xlink="http://www.w3.org/1999/xlink">
    <!-- Generator: Sketch 52.5 (67469) - http://www.bohemiancoding.com/sketch -->
    <title>py</title>
    <desc>Created with Sketch.</desc>
    <g id="Flags" stroke="none" stroke-width="1" fill="none" fill-rule="evenodd">
        <g id="South-America" transform="translate(-290.000000, -450.000000)">
            <g id="py" transform="translate(290.000000, 450.000000)">
                <polygon id="Path" fill="#0038A8" points="0 99.90625 200 99.90625 200 150 0 150"></polygon>
                <polygon id="Path" fill="#FFFFFF" points="0 50 200 50 200 100 0 100"></polygon>
                <polygon id="Path" fill="#D52B1E" points="0 0 200 0 200 50 0 50"></polygon>
                <g id="Group" transform="translate(80.443547, 55.454719)" stroke="#000000">
                    <circle id="Oval" stroke-width="0.8" cx="19.5455156" cy="19.5455156" r="19.1818781"></circle>
                    <circle id="Oval" stroke-width="0.35" cx="19.5455156" cy="19.5455156" r="15.7727766"></circle>
                    <circle id="Oval" stroke-width="0.3" cx="19.5455156" cy="19.5455156" r="12.0909469"></circle>
                </g>
                <path d="M89.78125,82.40625 L87.5625,83.71875 L86.875,82.5625 C86.7788575,82.4069892 86.7052104,82.2386529 86.65625,82.0625 C86.6209945,81.9273944 86.6319961,81.7843741 86.6875,81.65625 C86.75,81.53125 86.84375,81.4375 87,81.34375 C87.125,81.28125 87.21875,81.25 87.34375,81.25 C87.4617298,81.2422427 87.5798014,81.2637103 87.6875,81.3125 L87.9375,81.5 L87.9375,81.09375 L88.03125,80.9375 L88.5,80.21875 L88.9375,81 L88.5,81.75 L88.40625,82 L88.4375,82.1875 L88.46875,82.25 L89.40625,81.71875 L89.78125,82.40625 Z M88.0625,82.5 L87.875,82.1875 L87.75,82.03125 C87.7083347,81.9904145 87.6520838,81.9679142 87.59375,81.96875 C87.5396523,81.9618452 87.4847806,81.9728195 87.4375,82 L87.3125,82.1875 C87.3125,82.25 87.34375,82.34375 87.4375,82.46875 L87.59375,82.78125 L88.0625,82.5 Z M85.96875,80.78125 L85.28125,78.75 L85.8125,78.5625 L86.21875,79.84375 L86.625,79.71875 L86.21875,78.53125 L86.71875,78.375 L87.125,79.53125 L87.59375,79.375 L87.15625,78.0625 L87.71875,77.90625 L88.40625,79.96875 L85.96875,80.78125 Z M85.0625,77.75 L84.9375,76.4375 C84.875,76.125 84.9375,75.9375 85.0625,75.78125 C85.1875,75.59375 85.375,75.5 85.625,75.46875 C85.875,75.46875 86.09375,75.5 86.25,75.65625 C86.40625,75.78125 86.5,76.03125 86.5625,76.34375 L86.59375,76.78125 L87.53125,76.65625 L87.65625,77.46875 L85.0625,77.75 Z M86.09375,76.8125 L86.0625,76.625 C86.0625,76.46875 86,76.375 85.9375,76.3125 C85.8788357,76.257774 85.7974712,76.234527 85.71875,76.25 C85.6428791,76.2668977 85.576029,76.3114645 85.53125,76.375 C85.46875,76.40625 85.46875,76.53125 85.46875,76.6875 L85.5,76.90625 L86.09375,76.8125 Z M85,72.90625 L85.09375,72.09375 L86.59375,72.28125 C86.7457486,72.297128 86.8938063,72.3394302 87.03125,72.40625 C87.15625,72.46875 87.28125,72.53125 87.34375,72.65625 C87.46875,72.75 87.5,72.875 87.53125,72.96875 C87.59375,73.15625 87.59375,73.34375 87.5625,73.5625 L87.5,73.96875 C87.46875,74.125 87.40625,74.21875 87.34375,74.3125 C87.215107,74.5148728 87.0138061,74.6602568 86.78125,74.71875 L86.34375,74.71875 L84.8125,74.5625 L84.90625,73.78125 L86.46875,73.9375 C86.59375,73.9375 86.71875,73.9375 86.78125,73.875 C86.90625,73.8125 86.9375,73.6875 86.96875,73.5625 C86.9789623,73.4501419 86.9453744,73.3381821 86.875,73.25 C86.8125,73.125 86.6875,73.09375 86.5625,73.0625 L85,72.90625 Z M85.3125,71.03125 L85.84375,69.59375 C85.90625,69.34375 86.03125,69.1875 86.1875,69.125 C86.3380123,69.0349276 86.5194472,69.0122482 86.6875,69.0625 C86.84375,69.125 86.9375,69.21875 87,69.34375 C87.0625,69.4375 87.09375,69.53125 87.09375,69.65625 C87.1875,69.5 87.3125,69.40625 87.4375,69.34375 C87.5785707,69.2910414 87.7339293,69.2910414 87.875,69.34375 C88.1264055,69.4255276 88.3086485,69.6442192 88.34375,69.90625 L88.34375,70.21875 L88.25,70.53125 L87.78125,71.84375 L85.3125,71.03125 Z M86.5625,70.59375 L86.6875,70.25 C86.6875,70.125 86.71875,70.03125 86.6875,70 C86.6875,69.9375 86.625,69.875 86.5625,69.84375 C86.5031682,69.8156065 86.4343318,69.8156065 86.375,69.84375 C86.3125,69.90625 86.25,69.96875 86.21875,70.09375 L86.09375,70.40625 L86.5625,70.59375 Z M87.5,70.90625 L87.65625,70.53125 C87.6875,70.40625 87.71875,70.3125 87.65625,70.21875 C87.6311968,70.1632508 87.5867492,70.1188032 87.53125,70.09375 C87.4635685,70.0546741 87.3801815,70.0546741 87.3125,70.09375 L87.15625,70.375 L87.03125,70.75 L87.5,70.90625 Z M86.5625,67.90625 L86.96875,67.21875 L88.65625,68.21875 L89.28125,67.15625 L89.84375,67.46875 L88.78125,69.21875 L86.5625,67.90625 Z M88.125,65.53125 L88.625,64.90625 L90.625,66.5625 L90.125,67.1875 L88.125,65.53125 Z M91.59375,64.1875 L92.28125,63.875 C92.375,64.0625 92.40625,64.25 92.4375,64.40625 C92.4458969,64.5678781 92.4136657,64.7290344 92.34375,64.875 C92.2539453,65.0564194 92.1260313,65.2163119 91.96875,65.34375 C91.798225,65.5166042 91.5810481,65.6360515 91.34375,65.6875 C91.1398513,65.7482908 90.9226487,65.7482908 90.71875,65.6875 C90.4681461,65.5819071 90.2517781,65.4088127 90.09375,65.1875 C89.78125,64.875 89.65625,64.5625 89.6875,64.21875 C89.7229908,63.8609296 89.9037304,63.533339 90.1875,63.3125 C90.389665,63.1375626 90.6404313,63.0285338 90.90625,63 C91.125,62.96875 91.375,63 91.625,63.15625 L91.1875,63.75 C91.1310549,63.7078768 91.0675656,63.6761321 91,63.65625 C90.9281038,63.638998 90.8531462,63.638998 90.78125,63.65625 C90.7095154,63.6820501 90.6451557,63.7249566 90.59375,63.78125 C90.4563491,63.882142 90.3845505,64.0496721 90.40625,64.21875 C90.40625,64.34375 90.53125,64.5 90.65625,64.65625 C90.84375,64.875 91,65 91.15625,65.03125 C91.28125,65.03125 91.40625,65.03125 91.53125,64.90625 C91.65625,64.8125 91.71875,64.71875 91.71875,64.59375 C91.71875,64.46875 91.6875,64.34375 91.59375,64.1875 Z M94.34375,63.1875 L93.5625,63.625 L93.65625,64.0625 L92.9375,64.4375 L92.5625,61.71875 L93.34375,61.3125 L95.40625,63.125 L94.65625,63.53125 L94.34375,63.1875 Z M93.9375,62.78125 L93.25,62.09375 L93.4375,63.03125 L93.9375,62.78125 Z M96.375,60.125 L97.5625,59.9375 C97.7481704,59.9004573 97.9393296,59.9004573 98.125,59.9375 C98.28125,59.96875 98.4375,60.03125 98.53125,60.15625 C98.625,60.28125 98.75,60.375 98.8125,60.53125 C98.875,60.65625 98.9375,60.84375 98.9375,61 C99,61.28125 99,61.5 98.96875,61.625 C98.9401403,61.7831365 98.8760318,61.932723 98.78125,62.0625 C98.7024831,62.1811162 98.5949792,62.2778697 98.46875,62.34375 C98.3200767,62.4162832 98.1624585,62.4688226 98,62.5 L96.84375,62.6875 L96.375,60.125 Z M97.28125,60.5625 L97.53125,61.96875 L97.71875,61.9375 C97.875,61.90625 98,61.875 98.03125,61.8125 C98.125,61.78125 98.15625,61.6875 98.1875,61.59375 L98.1875,61.15625 C98.125,60.875 98.03125,60.71875 97.9375,60.625 C97.84375,60.53125 97.6875,60.5 97.46875,60.53125 L97.28125,60.5625 Z M99.71875,59.6875 L101.84375,59.78125 L101.84375,60.34375 L100.5,60.28125 L100.46875,60.6875 L101.71875,60.75 L101.6875,61.28125 L100.4375,61.21875 L100.4375,61.71875 L101.8125,61.78125 L101.78125,62.375 L99.59375,62.28125 L99.71875,59.6875 Z M102.84375,59.9375 L103.59375,60.125 L103.125,62 L104.375,62.3125 L104.1875,62.9375 L102.21875,62.4375 L102.84375,59.9375 Z M106.96875,61.3125 L108.125,62 C108.375,62.125 108.53125,62.3125 108.5625,62.5 C108.625,62.6875 108.5625,62.90625 108.46875,63.125 C108.361508,63.3331979 108.166523,63.4823045 107.9375,63.53125 C107.75,63.5625 107.5,63.53125 107.21875,63.34375 L106.84375,63.125 L106.34375,63.9375 L105.65625,63.53125 L106.96875,61.3125 Z M107.09375,62.6875 L107.28125,62.78125 L107.59375,62.875 C107.67255,62.8654616 107.742138,62.8190696 107.78125,62.75 C107.807604,62.6794646 107.807604,62.6017854 107.78125,62.53125 C107.78125,62.4375 107.71875,62.375 107.59375,62.28125 L107.40625,62.1875 L107.09375,62.6875 Z M109.34375,65.6875 L108.6875,65.0625 L108.3125,65.28125 L107.6875,64.75 L110.1875,63.5 L110.8125,64.125 L109.75,66.65625 L109.125,66.09375 L109.34375,65.6875 Z M109.59375,65.15625 L110.03125,64.28125 L109.1875,64.78125 L109.59375,65.15625 Z M109.90625,66.875 L112.0625,65.40625 L112.78125,66.5 L113.09375,67.03125 L113.0625,67.40625 C112.999257,67.5522665 112.889346,67.673168 112.75,67.75 C112.65625,67.84375 112.53125,67.875 112.4375,67.875 C112.309156,67.888202 112.179625,67.8666134 112.0625,67.8125 C112,67.8125 111.90625,67.71875 111.8125,67.65625 L111.875,67.875 L111.8125,68.0625 C111.797718,68.1268568 111.776788,68.1896451 111.75,68.25 L111.34375,68.96875 L110.84375,68.25 L111.25,67.4375 L111.34375,67.21875 C111.351142,67.1405705 111.328828,67.0624739 111.28125,67 L111.25,66.9375 L110.375,67.5625 L109.90625,66.875 Z M111.625,66.6875 L111.84375,66.96875 L111.96875,67.09375 C112.03125,67.15625 112.0625,67.15625 112.125,67.15625 C112.179098,67.1631548 112.233969,67.1521805 112.28125,67.125 C112.33846,67.0792529 112.372728,67.0107164 112.375,66.9375 C112.375,66.875 112.375,66.78125 112.28125,66.65625 L112.0625,66.375 L111.625,66.6875 Z M112.4375,70.5625 L112.125,69.6875 L111.65625,69.75 L111.34375,68.96875 L114.125,68.9375 L114.4375,69.75 L112.40625,71.625 L112.09375,70.8125 L112.4375,70.5625 Z M112.90625,70.1875 L113.65625,69.5625 L112.6875,69.65625 L112.90625,70.1875 Z M113.5625,73 L114.09375,72.9375 L114.28125,74.15625 L113.1875,74.3125 C113.026595,74.144795 112.889862,73.955472 112.78125,73.75 C112.686946,73.5525622 112.6237,73.341744 112.59375,73.125 C112.537789,72.8661433 112.548543,72.59731 112.625,72.34375 C112.714404,72.1444507 112.854473,71.9720584 113.03125,71.84375 C113.23386,71.6949945 113.469973,71.5984026 113.71875,71.5625 C113.970108,71.5219149 114.227576,71.5433706 114.46875,71.625 C114.687187,71.7117583 114.872966,71.8647526 115,72.0625 C115.125,72.25 115.1875,72.46875 115.25,72.75 L115.25,73.375 C115.225198,73.5248226 115.16042,73.6651744 115.0625,73.78125 C114.96875,73.90625 114.84375,73.96875 114.6875,74.0625 L114.4375,73.3125 C114.53125,73.28125 114.59375,73.21875 114.65625,73.125 C114.71875,73.03125 114.6875,72.9375 114.65625,72.8125 C114.640067,72.6620509 114.560495,72.5256421 114.4375,72.4375 C114.3125,72.34375 114.125,72.3125 113.8125,72.375 C113.616887,72.390522 113.431076,72.4670325 113.28125,72.59375 C113.15625,72.71875 113.125,72.90625 113.15625,73.0625 C113.15625,73.15625 113.1875,73.25 113.25,73.3125 L113.40625,73.5625 L113.65625,73.5625 L113.5625,73 Z M115.25,76.75 L115.1875,77.5625 L113.625,77.4375 C113.483691,77.4181827 113.346476,77.3759625 113.21875,77.3125 C113.097804,77.2526302 112.991209,77.1673542 112.90625,77.0625 C112.820251,76.9623915 112.756358,76.8452536 112.71875,76.71875 C112.664525,76.5364803 112.643358,76.3459772 112.65625,76.15625 L112.71875,75.75 L112.875,75.375 C112.941723,75.2765652 113.026565,75.1917234 113.125,75.125 C113.2193,75.0619784 113.32575,75.0193983 113.4375,75 C113.579544,74.9581207 113.726912,74.9370682 113.875,74.9375 L115.4375,75.09375 L115.34375,75.875 L113.78125,75.75 C113.625,75.75 113.5,75.75 113.4375,75.84375 C113.344278,75.9216972 113.287675,76.0349043 113.28125,76.15625 C113.28125,76.28125 113.28125,76.40625 113.375,76.46875 C113.4375,76.5625 113.53125,76.625 113.6875,76.625 L115.25,76.75 Z M112.40625,79.5 L112.6875,78.625 L112.3125,78.375 L112.5625,77.59375 L114.75,79.34375 L114.4375,80.15625 L111.6875,80.28125 L111.96875,79.5 L112.40625,79.5 Z M113,79.5 L113.9375,79.53125 L113.15625,78.96875 L113,79.5 Z M113.9375,81.625 L113.46875,82.375 L112.4375,82.375 L112.90625,83.28125 L112.46875,84.03125 L111.6875,82.40625 L110.75,81.84375 L111.1875,81.15625 L112.125,81.71875 L113.9375,81.625 Z" id="Shape" fill="#000000" fill-rule="nonzero"></path>
                <g id="Group" transform="translate(89.062500, 65.000000)" fill="#009B3A" stroke="#000000" stroke-width="0.05">
                    <path d="M13.46875,1.03125 C13.46875,1.03125 20.78125,4.1875 19.5,10.6875 C18.25,17.1875 14.1875,17.125 12.5625,17.875 C11,18.5625 9.875,19.59375 9.25,19.4375 C8.625,19.3125 7.78125,18.8125 7.78125,18.8125 C7.78125,18.8125 7.71875,19.90625 9,20.0625 C10.28125,20.28125 11.96875,18.40625 12.75,18.1875 C13.5625,18 18.53125,17.4375 19.75,10.84375 C21.15625,3.78125 13.5,1.25 13.5,1.03125 L13.46875,1.03125 Z" id="Path"></path>
                    <path d="M17.15625,2.4375 C17.1992502,2.78052205 17.1623074,3.00019181 17.0616198,3.00019181 C16.9609322,3.00019181 16.8148792,2.78052205 16.6875,2.4375 C16.536482,2.03082051 16.4475245,1.54850406 16.4723843,1.27116932 C16.4972441,0.993834581 16.6294357,0.993834581 16.792048,1.27116932 C16.9546603,1.54850406 17.1052699,2.03082051 17.15625,2.4375 Z" id="Path"></path>
                    <path d="M16.90625,2.5 C17.0787768,2.84783721 17.1965046,3.18414262 17.2150866,3.38223321 C17.2336685,3.5803238 17.1502814,3.61010489 16.9963365,3.46035822 C16.8423916,3.31061156 16.6412768,3.00408722 16.46875,2.65625 C16.2020467,2.11854033 16.0837787,1.64766277 16.204591,1.60451552 C16.3254033,1.56136828 16.6395467,1.96229033 16.90625,2.5 Z M16.1875,2.96875 C16.6559704,3.12076537 16.9982102,3.33268427 16.9821916,3.46083242 C16.9661731,3.58898058 16.5970173,3.59239034 16.125,3.46875 C15.6565296,3.31673463 15.3142898,3.10481573 15.3303084,2.97666758 C15.3463269,2.84851942 15.7154827,2.84510966 16.1875,2.96875 Z" id="Shape" fill-rule="nonzero"></path>
                    <path d="M16.28125,2.71875 C16.7769729,3.0522844 17.1298669,3.41360962 17.0694608,3.52579246 C17.0090546,3.6379753 16.5582229,3.4585344 16.0625,3.125 C15.5667771,2.7914656 15.2138831,2.43014038 15.2742892,2.31795754 C15.3346954,2.2057747 15.7855271,2.3852156 16.28125,2.71875 Z" id="Path"></path>
                    <path d="M16.59375,2.59375 C16.9922619,3.00853109 17.2453641,3.41473311 17.1590696,3.50102761 C17.0727751,3.5873221 16.6797619,3.32103109 16.28125,2.90625 C15.8827381,2.49146891 15.6296359,2.08526689 15.7159304,1.99897239 C15.8022249,1.9126779 16.1952381,2.17896891 16.59375,2.59375 Z" id="Path"></path>
                    <path d="M17.09375,3.5 L16.78125,3.6875 C16.6875,3.6875 16.59375,3.59375 16.40625,3.6875 C16.21875,3.78125 16.09375,3.96875 16.0625,4.0625 C16.03125,4.15625 16.125,4.21875 16.34375,4.09375 C16.5625,4 16.625,3.8125 16.71875,3.75 L17.125,3.53125 L17.375,3.125 C17.46875,3 17.75,2.8125 17.875,2.5625 C17.96875,2.375 17.9375,2.21875 17.8125,2.28125 C17.6495047,2.37589195 17.5188208,2.51746621 17.4375,2.6875 C17.375,2.8125 17.4375,3 17.34375,3.125 L17.09375,3.5 Z M19.375,4.25 C19.3901868,5.15506061 19.2485961,5.85377945 19.0587482,5.81063221 C18.8689003,5.76748496 18.7026868,4.99881061 18.6875,4.09375 C18.6723132,3.18868939 18.8139039,2.48997055 19.0037518,2.53311779 C19.1935997,2.57626504 19.3598132,3.34493939 19.375,4.25 Z" id="Shape" fill-rule="nonzero"></path>
                    <path d="M19,4.21875 C19.196226,5.13405268 19.2013964,5.88304766 19.0115485,5.89167711 C18.8217006,5.90030656 18.508726,5.16530268 18.3125,4.25 C18.1935978,3.69022111 18.1462678,3.17296406 18.1883389,2.8930746 C18.23041,2.61318514 18.3554906,2.61318514 18.5164639,2.8930746 C18.6774373,3.17296406 18.8498478,3.69022111 18.96875,4.25 L19,4.21875 Z" id="Path"></path>
                    <path d="M17.8125,4.59375 C18.2482068,4.88785466 18.6299697,5.22513699 18.8139824,5.47854597 C18.997995,5.73195496 18.9563015,5.86299173 18.7046074,5.822296 C18.4529132,5.78160028 18.0294568,5.5753547 17.59375,5.28125 C16.9202058,4.8266036 16.4231591,4.30413775 16.4835653,4.11428987 C16.5439714,3.92444198 17.1389558,4.1391036 17.8125,4.59375 Z" id="Path"></path>
                    <path d="M18.0625,4.25 C18.6375431,4.94777358 19.00577,5.62535961 18.8849577,5.7634308 C18.7641454,5.90150198 18.2000431,5.44777356 17.625,4.75 C17.0681582,4.07249941 16.7146864,3.4183434 16.8354987,3.28890167 C16.9563109,3.15945993 17.5056582,3.60374941 18.0625,4.28125 L18.0625,4.25 Z" id="Path"></path>
                    <path d="M18.53125,4.21875 C18.9598978,5.01707508 19.1814656,5.73420093 19.0261355,5.82049542 C18.8708054,5.90678991 18.3973978,5.32957508 17.96875,4.53125 C17.5401022,3.73292492 17.3185344,3.01579907 17.4738645,2.92950458 C17.6291946,2.84321009 18.1026022,3.42042492 18.53125,4.21875 Z" id="Path"></path>
                    <path d="M18.9375,5.75 L18.375,5.875 C18.28125,5.875 18.1875,5.65625 17.90625,5.71875 C17.625,5.78125 17.375,5.96875 17.28125,6.09375 C17.21875,6.21875 17.3125,6.34375 17.65625,6.28125 C18.03125,6.21875 18.15625,5.96875 18.34375,5.96875 C18.5,5.90625 18.78125,5.84375 18.96875,5.84375 C19.03125,5.71875 19.28125,5.46875 19.4375,5.34375 C19.59375,5.1875 20.0625,5.03125 20.28125,4.78125 C20.5,4.53125 20.5,4.28125 20.28125,4.3125 C20.0420517,4.39316881 19.8270805,4.53290007 19.65625,4.71875 C19.5,4.90625 19.53125,5.1875 19.375,5.34375 L18.9375,5.75 Z M20.53125,7.28125 C20.3857156,8.15079081 20.1278256,8.78573741 19.9552366,8.69944292 C19.7826476,8.61314842 19.7607156,7.83829081 19.90625,6.96875 C20.0517844,6.09920919 20.3096744,5.46426259 20.4822634,5.55055708 C20.6548524,5.63685158 20.6767844,6.41170919 20.53125,7.28125 Z" id="Shape" fill-rule="nonzero"></path>
                    <path d="M20.1875,7.1875 C20.2159387,7.78184756 20.1749836,8.34859047 20.0819277,8.64842617 C19.9888717,8.94826186 19.8599368,8.92892163 19.7495647,8.59857172 C19.6391926,8.26822182 19.5666239,7.68445033 19.5625,7.09375 C19.5340613,6.49940244 19.5750164,5.93265953 19.6680723,5.63282383 C19.7611283,5.33298814 19.8900632,5.35232837 20.0004353,5.68267828 C20.1108074,6.01302818 20.1833761,6.59679967 20.1875,7.1875 Z" id="Path"></path>
                    <path d="M18.96875,7.3125 C19.4108049,7.69632792 19.8389828,8.19780915 20.0369916,8.56362264 C20.2350004,8.92943612 20.1597402,9.07995659 19.8492283,8.93914928 C19.5387164,8.79834198 19.0605409,8.39685591 18.65625,7.9375 C18.2141951,7.55367208 17.7860172,7.05219085 17.5880084,6.68637736 C17.3899996,6.32056388 17.4652598,6.17004341 17.7757717,6.31085072 C18.0862836,6.45165802 18.5644591,6.85314409 18.96875,7.3125 Z" id="Path"></path>
                    <path d="M19.28125,7.03125 C19.5632519,7.54909265 19.7732045,8.06631444 19.8320208,8.38808288 C19.8908371,8.70985133 19.7895814,8.78728215 19.5663958,8.5912079 C19.3432102,8.39513365 19.0320019,7.95534267 18.75,7.4375 C18.4679981,6.91965733 18.2580454,6.4024355 18.1992291,6.08066702 C18.1404128,5.75889854 18.2416685,5.68146772 18.4648542,5.877542 C18.6880398,6.07361627 18.9992481,6.51340729 19.28125,7.03125 Z" id="Path"></path>
                    <path d="M19.71875,7.09375 C19.8929055,7.64259655 19.9972477,8.17059851 19.9924719,8.47886258 C19.9876962,8.78712665 19.8745281,8.82882017 19.6955969,8.58823759 C19.5166657,8.34765502 19.2991554,7.86134657 19.125,7.3125 C18.9429937,6.73765921 18.8343751,6.18563758 18.8400598,5.86437639 C18.8457445,5.5431152 18.9648689,5.50142167 19.1525599,5.75500137 C19.3402509,6.00858107 19.5679938,6.51890919 19.75,7.09375 L19.71875,7.09375 Z" id="Path"></path>
                    <path d="M19.84375,8.6875 L19.3125,8.6875 C19.21875,8.6875 19.15625,8.4375 18.875,8.4375 C18.6337387,8.44149158 18.4015157,8.52995752 18.21875,8.6875 C18.09375,8.8125 18.1875,8.9375 18.53125,8.9375 C18.875,8.9375 19.0625,8.78125 19.25,8.75 L19.875,8.75 L20.4375,8.375 C20.625,8.25 21.09375,8.1875 21.375,7.96875 C21.59375,7.78125 21.65625,7.53125 21.46875,7.53125 C21.2094173,7.56342125 20.962295,7.66012131 20.75,7.8125 C20.59375,7.9375 20.5625,8.21875 20.375,8.34375 C20.25,8.40625 19.875,8.6875 19.84375,8.65625 M20.625,10.65625 C20.1663837,11.3854437 19.6966641,11.8576477 19.5758518,11.710947 C19.4550396,11.5642464 19.7288838,10.8541938 20.1875,10.125 C20.6461163,9.39580623 21.1158359,8.92360224 21.2366482,9.07030287 C21.3574605,9.21700351 21.0836163,9.92705623 20.625,10.65625" id="Shape" fill-rule="nonzero"></path>
                    <path d="M20.34375,10.40625 C20.0228067,11.2406635 19.6367109,11.8401382 19.4813808,11.7452143 C19.3260508,11.6502903 19.4603068,10.8969135 19.78125,10.0625 C20.1021933,9.2280865 20.4882891,8.62861181 20.6436192,8.72353575 C20.7989492,8.81845968 20.6646932,9.57183647 20.34375,10.40625 M19.1875,10.03125 C19.5132189,10.8844245 19.6513464,11.6809924 19.4960163,11.8104341 C19.3406862,11.9398759 18.9507189,11.3531745 18.625,10.5 C18.4142968,9.94809285 18.273205,9.39343799 18.2548724,9.04496854 C18.2365399,8.69649909 18.3437518,8.60715584 18.5361224,8.81059354 C18.7284931,9.01403124 18.9767968,9.47934285 19.1875,10.03125" id="Shape" fill-rule="nonzero"></path>
                    <path d="M19.5625,9.90625 C19.6445335,10.798286 19.5711238,11.5564018 19.3985348,11.5995491 C19.2259458,11.6426963 19.0195335,10.954536 18.9375,10.0625 C18.8844336,9.4854538 18.8949604,8.93735055 18.965115,8.62465547 C19.0352697,8.31196039 19.154394,8.28217931 19.2776151,8.54653047 C19.4008361,8.81088162 19.5094336,9.32920379 19.5625,9.90625" id="Path"></path>
                    <path d="M20,10.125 C19.915488,11.0186459 19.7070665,11.7360935 19.5344775,11.7274641 C19.3618886,11.7188346 19.290488,10.9873959 19.375,10.09375 C19.4296697,9.51566244 19.5397487,8.98446562 19.6637713,8.70025624 C19.787794,8.41604685 19.9069183,8.42200307 19.9762713,8.71588124 C20.0456243,9.00975941 20.0546697,9.54691244 20,10.125" id="Path"></path>
                    <path d="M19.46875,11.65625 C19.46875,11.65625 19.03125,11.5 18.96875,11.4375 C18.875,11.375 18.9375,11.1875 18.65625,11.03125 C18.4347903,10.9471981 18.1902097,10.9471981 17.96875,11.03125 C17.8125,11.03125 17.84375,11.21875 18.15625,11.34375 C18.46875,11.53125 18.71875,11.40625 18.875,11.46875 L19.4375,11.75 C19.59375,11.6875 19.9375,11.65625 20.125,11.625 C20.3125,11.59375 20.78125,11.75 21.125,11.625 C21.40625,11.53125 21.53125,11.3125 21.34375,11.25 C21.1082116,11.1877394 20.8605384,11.1877394 20.625,11.25 C20.40625,11.28125 20.28125,11.5625 20.0625,11.5625 C19.90625,11.5625 19.46875,11.6875 19.4375,11.65625 M19.75,14.0625 C19.2432335,14.5456139 18.6705279,14.9480531 18.3074755,15.0761593 C17.944423,15.2042656 17.8653774,15.0318026 18.1083764,14.6417613 C18.3513753,14.2517201 18.8666521,13.7239819 19.40625,13.3125 C19.9220814,12.8002788 20.5378841,12.3539459 20.9298729,12.2081804 C21.3218618,12.0624149 21.4002711,12.2505972 21.1238737,12.6737822 C20.8474763,13.0969672 20.2795674,13.6582453 19.71875,14.0625" id="Shape" fill-rule="nonzero"></path>
                    <path d="M19.46875,13.71875 C19.0671379,14.2293621 18.6513614,14.6416249 18.3780395,14.8002431 C18.1047176,14.9588613 18.0153744,14.8397369 18.1436645,14.4877431 C18.2719547,14.1357492 18.5983879,13.6043621 19,13.09375 C19.4016121,12.5831379 19.8173886,12.170875 20.0907106,12.0122568 C20.3640325,11.8536386 20.4533758,11.9727629 20.3250856,12.3247568 C20.1967954,12.6767507 19.8703621,13.2081379 19.46875,13.71875" id="Path"></path>
                    <path d="M18.34375,12.875 C18.455455,13.5574123 18.4609162,14.3586488 18.3572512,14.8558308 C18.2535862,15.3530128 18.0646488,15.4317368 17.8901569,15.0504534 C17.715665,14.6691701 17.5957698,13.9156144 17.59375,13.1875 C17.482045,12.5050877 17.4765838,11.7038512 17.5802488,11.2066692 C17.6839138,10.7094872 17.8728512,10.6307632 18.0473431,11.0120466 C18.221835,11.3933299 18.3417302,12.1468856 18.34375,12.875" id="Path"></path>
                    <path d="M18.78125,12.875 C18.5808337,13.6291482 18.3314314,14.1339755 18.1663634,14.1196218 C18.0012954,14.1052681 17.9591677,13.5750903 18.0625,12.8125 C18.1578264,12.063534 18.3759718,11.2422827 18.6016816,10.7826444 C18.8273915,10.3230061 19.0086594,10.3308873 19.0497146,10.8021241 C19.0907699,11.2733608 18.9821528,12.0993743 18.78125,12.84375" id="Path"></path>
                    <path d="M19.15625,13.25 C18.9182166,13.993758 18.5399435,14.7908414 18.2276925,15.2066229 C17.9154415,15.6224044 17.7441207,15.5571393 17.8071464,15.0464148 C17.8701722,14.5356904 18.1524249,13.7020278 18.5,13 C18.7380334,12.256242 19.1163065,11.4591586 19.4285575,11.0433771 C19.7408085,10.6275956 19.9121293,10.6928607 19.8491036,11.2035852 C19.7860778,11.7143096 19.5038251,12.5479722 19.15625,13.25" id="Path"></path>
                    <path d="M18.125,14.78125 C17.9489902,14.6464529 17.7819683,14.5003088 17.625,14.34375 C17.5625,14.25 17.65625,14.03125 17.40625,13.78125 C17.15625,13.53125 16.84375,13.46875 16.65625,13.46875 C16.46875,13.5 16.46875,13.6875 16.75,13.96875 C17.0625,14.28125 17.375,14.21875 17.5,14.34375 C17.6875,14.46875 17.9375,14.6875 18.03125,14.84375 L18.84375,14.96875 C19.0625,14.96875 19.53125,15.3125 19.9375,15.3125 C20.25,15.3125 20.5,15.15625 20.3125,15 C20.0743764,14.8252486 19.793853,14.717355 19.5,14.6875 C19.25,14.6875 19.03125,14.9375 18.8125,14.875 L18.09375,14.78125 M17.375,17.0625 C16.3525689,17.2299173 15.5447114,17.1627648 15.5705998,16.9125108 C15.5964881,16.6622568 16.4463189,16.3236673 17.46875,16.15625 C18.1301469,16.04795 18.7323686,16.0342418 19.0485639,16.1202892 C19.3647592,16.2063366 19.3468905,16.3790668 19.0016889,16.5734142 C18.6564872,16.7677616 18.0363969,16.9542 17.375,17.0625" id="Shape" fill-rule="nonzero"></path>
                    <path d="M17.34375,16.5625 C16.3119827,16.959736 15.4405924,17.0998751 15.3974451,16.8755095 C15.3542979,16.6511438 16.1557327,16.1472361 17.1875,15.75 C18.2562797,15.3388749 19.1576746,15.1944719 19.2008219,15.4274671 C19.2439691,15.6604622 18.4125297,16.1826248 17.34375,16.59375" id="Path"></path>
                    <path d="M16.6875,15.125 C16.2741516,15.8989873 15.8273192,16.4256792 15.6160432,16.3879514 C15.4047672,16.3502235 15.4866961,15.7583702 15.8125,14.96875 C16.0934928,14.2877343 16.4954992,13.6074974 16.8287148,13.2492084 C17.1619304,12.8909194 17.3597109,12.9262373 17.3286756,13.3384871 C17.2976403,13.7507369 17.0439964,14.4574671 16.6875,15.125" id="Path"></path>
                    <path d="M17.15625,15.375 C16.6547211,15.9428777 16.1227928,16.4229468 15.7608373,16.6343698 C15.3988818,16.8457927 15.2618888,16.7564495 15.4014623,16.3999948 C15.5410357,16.04354 15.9359711,15.4741277 16.4375,14.90625 C17.2127965,14.0283871 18.0021962,13.4216719 18.2006736,13.5511136 C18.3991509,13.6805553 17.9315465,14.4971371 17.15625,15.375" id="Path"></path>
                    <path d="M17.28125,15.96875 C16.6641447,16.4751826 15.9803009,16.909699 15.5415285,17.0741743 C15.1027561,17.2386497 14.9931,17.1015795 15.2625596,16.7254632 C15.5320192,16.3493469 16.1289808,15.8062278 16.78125,15.34375 C17.574382,14.7813963 18.2424898,14.4836666 18.3656942,14.6376721 C18.4888986,14.7916776 18.0316243,15.3529492 17.28125,15.96875" id="Path"></path>
                    <path d="M15.4375,16.78125 C15.3500275,16.5569719 15.2769622,16.3273382 15.21875,16.09375 C15.1875,15.96875 15.40625,15.84375 15.3125,15.46875 C15.2066981,15.1659876 14.9960979,14.9110505 14.71875,14.75 C14.5625,14.65625 14.4375,14.8125 14.5625,15.25 C14.6875,15.6875 15,15.84375 15.09375,16.0625 L15.34375,16.8125 L16.03125,17.40625 C16.21875,17.5625 16.5,18.15625 16.875,18.375 C17.1875,18.59375 17.5,18.53125 17.4375,18.3125 C17.2966004,18.0132497 17.0814365,17.7550529 16.8125,17.5625 C16.59375,17.375 16.25,17.46875 16.03125,17.3125 C15.90625,17.15625 15.40625,16.8125 15.40625,16.78125" id="Path"></path>
                    <path d="M14.3125,18.75 C13.4566839,18.7026688 12.8536982,18.4862303 12.8536982,18.2263707 C12.8536982,17.9665111 13.4566839,17.7308556 14.3125,17.65625 C15.1683161,17.7035812 15.7713018,17.9200197 15.7713018,18.1798793 C15.7713018,18.4397389 15.1683161,18.6753944 14.3125,18.75" id="Path"></path>
                    <path d="M14.0625,17.03125 C13.3814154,17.9120061 12.6404074,18.4720978 12.4074123,18.2822499 C12.1744172,18.0924021 12.5376655,17.2245061 13.21875,16.34375 C13.6500623,15.7875472 14.1260421,15.3391129 14.4673924,15.1673682 C14.8087428,14.9956234 14.9636044,15.1266601 14.8736425,15.5111182 C14.7836805,15.8955762 14.4625623,16.4750472 14.03125,17.03125" id="Path"></path>
                    <path d="M14.3125,17.90625 C13.2989197,18.3414096 12.393304,18.463323 12.2897506,18.1785512 C12.1861972,17.8937794 12.9239197,17.3101597 13.9375,16.875 C14.9510803,16.4398403 15.8566962,16.3179269 15.9602495,16.6026987 C16.0638029,16.8874706 15.3260803,17.4710903 14.3125,17.90625 M14.84375,1.21875 C15.2874038,1.63430281 15.5342605,2.00322196 15.4122204,2.06831003 C15.2901802,2.13339811 14.8397701,1.87304078 14.375,1.46875 C14.0363545,1.17417155 13.7603915,0.863501567 13.6617492,0.66579587 C13.5631069,0.468090173 13.6586435,0.417137309 13.9086721,0.534103672 C14.1587006,0.651070035 14.5204905,0.915965691 14.84375,1.21875 M14.25,1.6875 C14.7816971,1.78613023 15.1662521,1.93591224 15.1881911,2.05292019 C15.2101301,2.16992814 14.8640023,2.22509104 14.34375,2.1875 C13.8591026,2.15248161 13.3310848,2.0445865 13.0229451,1.91760685 C12.7148054,1.7906272 12.6925158,1.67174902 12.9671889,1.62024019 C13.2418619,1.56873136 13.754691,1.5956198 14.25,1.6875" id="Shape" fill-rule="nonzero"></path>
                    <path d="M14.5,1.375 C15.1686163,1.71490679 15.6546725,2.08139785 15.5856369,2.19358069 C15.5166013,2.30576353 14.9186163,2.12115679 14.25,1.78125 C13.5813837,1.44134321 13.0953275,1.07485215 13.1643631,0.962669305 C13.2333987,0.850486466 13.8313837,1.03509321 14.5,1.375 M5.84375,16.875 C5.84375,16.875 7.4375,17.21875 8.84375,17.71875 C10.25,18.25 12.375,19.96875 12.9375,20.09375 C13.5625,20.09375 14.46875,19.875 14.8125,18.96875 C13.8125,19.21875 13.25,19.625 12.3125,19.125 C11.96875,19 10.875,18 9.65625,17.46875 C8.46875,16.9375 6.0625,16.34375 6.0625,16.34375 L5.84375,16.875 M7.5625,2.34375 L9.40625,1.375 L7.375,1.90625 L7.125,2.25 L7.5625,2.34375" id="Shape" fill-rule="nonzero"></path>
                    <path d="M9.3125,2.8125 C8.59375,2.65625 7.5,2.40625 6.8125,2.375 C7.28125,1.84375 7.9375,0.90625 8.375,0.375 C8.0625,0.90625 7.65625,1.625 7.5,2.09375 C7.96875,2.375 8.75,2.59375 9.3125,2.78125" id="Path"></path>
                    <path d="M7.21875,2.46875 C7.76626636,2.0357954 8.31838104,1.60868782 8.875,1.1875 L6.96875,2.03125 L6.78125,2.4375 L7.21875,2.4375" id="Path"></path>
                    <path d="M8.96875,2.78125 C8.25,2.625 7.15625,2.375 6.46875,2.3125 C6.90625,1.78125 7.5625,0.84375 7.96875,0.25 C7.71875,0.8125 7.28125,1.53125 7.125,2.0625 C7.625,2.34375 8.40625,2.5625 9,2.78125" id="Path"></path>
                    <polyline id="Path" points="6.96875 2.5625 8.875 1.75 6.8125 2.09375 6.53125 2.40625 6.9375 2.5625"></polyline>
                    <path d="M8.75,2.8125 C8.03125,2.71875 6.875,2.59375 6.1875,2.625 C6.59375,2 7.125,0.96875 7.46875,0.34375 C7.28125,0.9375 6.9375,1.71875 6.84375,2.25 C7.375,2.5 8.1875,2.625 8.75,2.78125" id="Path"></path>
                    <polyline id="Path" points="6.75 2.5625 8.0625 1 6.40625 2.21875 6.3125 2.625 6.75 2.5625"></polyline>
                    <path d="M8.75,2.90625 C7.96875,2.90625 6.75,2.8125 6,2.90625 C6.375,2.1875 6.84375,1.03125 7.125,0.3125 C7,0.96875 6.71875,1.875 6.6875,2.46875 C7.25,2.65625 8.125,2.78125 8.75,2.90625" id="Path"></path>
                    <polyline id="Path" points="6.5 2.9375 8.0625 1.40625 6.15625 2.5 6.03125 2.9375 6.5 2.9375"></polyline>
                    <path d="M8.40625,2.9375 C7.5625,2.9375 6.28125,2.90625 5.4375,3 C6,2.21875 6.75,0.9375 7.1875,0.15625 C6.875,0.875 6.4375,1.84375 6.25,2.5 C6.84375,2.71875 7.75,2.8125 8.40625,2.9375" id="Path"></path>
                    <polyline id="Path" points="5.9375 3.0625 8 1.34375 5.6875 2.5625 5.4375 3.0625 5.9375 3.0625"></polyline>
                    <path d="M8.125,3 C7.28125,3.125 5.96875,3.25 5.1875,3.46875 C5.59375,2.625 6.15625,1.28125 6.5,0.4375 C6.3125,1.1875 5.96875,2.1875 5.875,2.875 C6.5,3 7.4375,2.96875 8.09375,3" id="Path"></path>
                    <polyline id="Path" points="5.6875 3.40625 7.25 1.21875 5.28125 3 5.1875 3.53125 5.6875 3.40625"></polyline>
                    <path d="M7.625,3.25 C6.8125,3.34375 5.5,3.40625 4.6875,3.5625 C5.15625,2.75 5.78125,1.4375 6.1875,0.625 C5.9375,1.34375 5.5625,2.34375 5.4375,3.03125 C6.0625,3.1875 7,3.1875 7.625,3.25" id="Path"></path>
                    <polyline id="Path" points="5.40625 3.625 7.40625 1.90625 5.125 3.125 4.90625 3.625 5.40625 3.625"></polyline>
                    <path d="M7.40625,3.34375 C6.5625,3.53125 5.25,3.75 4.46875,4 C4.84375,3.15625 5.34375,1.78125 5.65625,0.9375 C5.5,1.6875 5.21875,2.6875 5.15625,3.375 C5.78125,3.46875 6.71875,3.375 7.40625,3.34375" id="Path"></path>
                    <polyline id="Path" points="5.0625 3.75 6.3125 1.34375 4.625 3.40625 4.59375 3.9375 5.0625 3.71875"></polyline>
                    <path d="M7.40625,3.46875 C6.46875,3.71875 5.09375,4.03125 4.28125,4.34375 C4.59375,3.375 4.9375,1.84375 5.1875,0.875 C5.09375,1.71875 4.90625,2.84375 4.9375,3.625 C5.65625,3.6875 6.65625,3.53125 7.375,3.46875" id="Path"></path>
                    <polyline id="Path" points="4.8125 4.28125 6.4375 1.90625 4.375 3.8125 4.28125 4.4375 4.8125 4.28125"></polyline>
                    <path d="M7.03125,3.75 C6.15625,4.03125 4.78125,4.40625 3.96875,4.78125 C4.21875,3.78125 4.53125,2.25 4.71875,1.28125 C4.6875,2.125 4.5625,3.25 4.625,4 C5.3125,4.03125 6.3125,3.8125 7.03125,3.75" id="Path"></path>
                    <polyline id="Path" points="4.5 4.625 5.71875 2 3.96875 4.25 3.96875 4.875 4.5 4.625"></polyline>
                    <path d="M6.6875,4.125 C5.8125,4.3125 4.40625,4.59375 3.5625,4.875 C3.90625,3.9375 4.34375,2.375 4.625,1.4375 C4.5,2.28125 4.28125,3.4375 4.28125,4.15625 C4.96875,4.25 5.96875,4.125 6.6875,4.09375" id="Path"></path>
                    <polyline id="Path" points="4.1875 4.875 6.1875 2.8125 3.84375 4.34375 3.65625 4.90625 4.1875 4.875"></polyline>
                    <path d="M6.3125,4.46875 C5.40625,4.59375 4.03125,4.71875 3.1875,4.9375 C3.59375,4 4.125,2.5 4.4375,1.5625 C4.25,2.40625 3.96875,3.53125 3.90625,4.28125 C4.59375,4.4375 5.59375,4.40625 6.3125,4.46875" id="Path"></path>
                    <polyline id="Path" points="3.8125 4.6875 5.15625 2.09375 3.3125 4.28125 3.3125 4.875 3.8125 4.65625"></polyline>
                    <path d="M6.40625,4.15625 C5.46875,4.5625 3.90625,5.09375 3,5.59375 C3.3125,4.4375 3.625,2.625 3.8125,1.5 C3.8125,2.46875 3.65625,3.8125 3.71875,4.65625 C4.5,4.65625 5.59375,4.3125 6.40625,4.15625" id="Path"></path>
                    <polyline id="Path" points="3.625 5.4375 5.25 2.5 3.09375 5 3.03125 5.6875 3.625 5.4375"></polyline>
                    <path d="M6.03125,4.53125 C5.09375,4.96875 3.59375,5.59375 2.71875,6.125 C2.96875,5 3.1875,3.15625 3.34375,2.0625 C3.34375,3 3.28125,4.34375 3.375,5.1875 C4.15625,5.09375 5.25,4.71875 6.03125,4.53125" id="Path"></path>
                    <polyline id="Path" points="3.28125 5.875 4.46875 2.71875 2.6875 5.53125 2.75 6.25 3.28125 5.875"></polyline>
                    <path d="M5.625,4.78125 C4.6875,5.25 3.1875,5.875 2.3125,6.4375 C2.53125,5.28125 2.75,3.46875 2.90625,2.34375 C2.90625,3.28125 2.84375,4.625 2.96875,5.46875 C3.75,5.375 4.84375,4.96875 5.625,4.78125" id="Path"></path>
                    <polyline id="Path" points="3.03125 6.25 4.84375 3.46875 2.53125 5.75 2.4375 6.4375 3.03125 6.25"></polyline>
                    <path d="M5.53125,4.625 C4.6875,5.3125 3.34375,6.3125 2.59375,7.0625 C2.59375,5.875 2.4375,4.09375 2.34375,3 C2.53125,3.90625 2.75,5.1875 3.0625,5.96875 C3.8125,5.6875 4.78125,5.03125 5.5625,4.65625" id="Path"></path>
                    <polyline id="Path" points="3.125 6.40625 3.3125 3.0625 2.4375 6.3125 2.6875 6.9375 3.125 6.40625"></polyline>
                    <path d="M5.3125,4.9375 C4.4375,5.625 3.125,6.59375 2.34375,7.34375 C2.34375,6.1875 2.1875,4.375 2.09375,3.28125 C2.3125,4.21875 2.5,5.46875 2.8125,6.25 C3.5625,6 4.53125,5.3125 5.3125,4.9375" id="Path"></path>
                    <polyline id="Path" points="2.90625 6.96875 3.75 3.6875 2.28125 6.6875 2.375 7.375 2.90625 6.96875"></polyline>
                    <path d="M5.1875,5 C4.40625,5.8125 3.125,7 2.40625,7.8125 C2.28125,6.65625 1.9375,4.8125 1.71875,3.6875 C2.03125,4.625 2.375,5.90625 2.78125,6.65625 C3.5,6.3125 4.46875,5.53125 5.1875,5.03125" id="Path"></path>
                    <polyline id="Path" points="2.90625 7.375 3.0625 3.90625 2.21875 7.28125 2.46875 7.90625 2.90625 7.375"></polyline>
                    <path d="M4.9375,5.625 C4.09375,6.3125 2.75,7.34375 1.9375,8.125 C1.9375,6.9375 1.71875,5.0625 1.625,3.90625 C1.84375,4.84375 2.09375,6.1875 2.40625,7 C3.1875,6.6875 4.1875,6.03125 4.9375,5.59375" id="Path"></path>
                    <polyline id="Path" points="2.65625 7.78125 3.84375 4.5 2.03125 7.40625 2.09375 8.125 2.65625 7.78125"></polyline>
                    <path d="M4.9375,5.625 C4.15625,6.40625 2.96875,7.625 2.28125,8.46875 C2.15625,7.28125 1.8125,5.40625 1.625,4.28125 C1.9375,5.21875 2.25,6.53125 2.625,7.28125 C3.34375,6.90625 4.21875,6.125 4.9375,5.625" id="Path"></path>
                    <polyline id="Path" points="2.6875 7.9375 2.5625 4.5 2 7.9375 2.3125 8.53125 2.6875 7.9375"></polyline>
                    <path d="M4.5625,5.875 C3.8125,6.6875 2.65625,7.90625 2,8.78125 C1.84375,7.53125 1.4375,5.71875 1.21875,4.5625 C1.53125,5.5 1.9375,6.8125 2.3125,7.5625 C3,7.1875 3.875,6.375 4.5625,5.875" id="Path"></path>
                    <polyline id="Path" points="2.5 8.28125 2.875 4.78125 1.84375 8.09375 2.0625 8.78125 2.5 8.28125"></polyline>
                    <path d="M4.375,6 C3.75,6.90625 2.65625,8.1875 2.0625,9.125 C1.8125,7.9375 1.28125,6.15625 0.96875,5.0625 C1.375,5.9375 1.84375,7.1875 2.28125,7.90625 C2.9375,7.46875 3.75,6.59375 4.40625,6.03125" id="Path"></path>
                    <polyline id="Path" points="2.5 8.625 2.25 5.09375 1.8125 8.59375 2.125 9.21875 2.46875 8.59375"></polyline>
                    <path d="M4.34375,6.21875 C3.71875,7.15625 2.6875,8.5 2.15625,9.46875 C1.84375,8.28125 1.21875,6.5 0.84375,5.40625 C1.28125,6.28125 1.8125,7.53125 2.3125,8.21875 C2.9375,7.75 3.71875,6.8125 4.34375,6.21875" id="Path"></path>
                    <polyline id="Path" points="2.6875 8.9375 3.0625 5.40625 2.0625 8.71875 2.25 9.4375 2.6875 8.9375"></polyline>
                    <path d="M4.1875,6.5625 C3.65625,7.53125 2.78125,9.0625 2.3125,10.09375 C1.90625,8.96875 1.125,7.28125 0.65625,6.21875 C1.1875,7.03125 1.8125,8.1875 2.375,8.84375 C2.96875,8.28125 3.625,7.21875 4.1875,6.53125" id="Path"></path>
                    <polyline id="Path" points="2.59375 9.25 1.59375 5.875 1.90625 9.40625 2.375 9.90625 2.5625 9.25"></polyline>
                    <path d="M4.1875,6.9375 C3.625,7.9375 2.6875,9.4375 2.21875,10.46875 C1.8125,9.34375 1.03125,7.65625 0.53125,6.625 C1.0625,7.4375 1.71875,8.59375 2.28125,9.21875 C2.90625,8.65625 3.59375,7.625 4.15625,6.9375" id="Path"></path>
                    <polyline id="Path" points="2.625 9.875 2.25 6.34375 1.9375 9.875 2.28125 10.5 2.625 9.875"></polyline>
                    <path d="M4.25,7.25 C3.65625,8.21875 2.6875,9.71875 2.21875,10.71875 C1.8125,9.59375 1.0625,7.90625 0.59375,6.84375 C1.125,7.65625 1.75,8.84375 2.3125,9.46875 C2.9375,8.9375 3.65625,7.90625 4.25,7.25" id="Path"></path>
                    <polyline id="Path" points="2.59375 10.15625 1.9375 6.71875 1.90625 10.21875 2.3125 10.78125 2.59375 10.15625"></polyline>
                    <path d="M4,7.75 C3.375,8.6875 2.34375,10.09375 1.8125,11.09375 C1.46875,9.9375 0.78125,8.15625 0.375,7.09375 C0.84375,7.9375 1.4375,9.15625 1.9375,9.84375 C2.59375,9.34375 3.375,8.375 4,7.75" id="Path"></path>
                    <polyline id="Path" points="2.28125 10.53125 2.59375 7 1.625 10.34375 1.84375 11.03125 2.28125 10.53125"></polyline>
                    <path d="M4.03125,7.8125 C3.5,8.84375 2.59375,10.40625 2.15625,11.4375 C1.71875,10.34375 0.90625,8.6875 0.375,7.6875 C0.9375,8.4375 1.625,9.5625 2.1875,10.1875 C2.8125,9.59375 3.4375,8.53125 4.03125,7.84375" id="Path"></path>
                    <polyline id="Path" points="2.1875 10.84375 1.09375 7.53125 1.5 11.03125 1.96875 11.53125 2.15625 10.84375"></polyline>
                    <path d="M3.875,8.09375 C3.5,9.21875 2.875,10.90625 2.625,12.0625 C2,11.0625 0.90625,9.625 0.25,8.71875 C0.90625,9.375 1.78125,10.34375 2.4375,10.8125 C2.9375,10.09375 3.4375,8.9375 3.875,8.09375" id="Path"></path>
                    <polyline id="Path" points="3.125 11.09375 1.96875 7.84375 2.46875 11.34375 2.9375 11.78125 3.125 11.09375"></polyline>
                    <path d="M3.875,8.4375 C3.5,9.5625 2.875,11.28125 2.625,12.40625 C2,11.40625 0.9375,10 0.25,9.125 C0.90625,9.75 1.78125,10.6875 2.4375,11.1875 C2.9375,10.46875 3.4375,9.28125 3.875,8.4375" id="Path"></path>
                    <polyline id="Path" points="3.125 11.65625 1.625 8.625 2.5 12 3.03125 12.375 3.15625 11.65625"></polyline>
                    <path d="M3.75,8.71875 C3.53125,9.875 3.125,11.6875 2.96875,12.84375 C2.25,11.9375 1,10.65625 0.25,9.90625 C0.96875,10.4375 1.9375,11.28125 2.65625,11.625 C3.0625,10.84375 3.40625,9.59375 3.75,8.71875" id="Path"></path>
                    <polyline id="Path" points="3.25 12.125 2.4375 8.71875 2.5625 12.25 3 12.78125 3.25 12.15625"></polyline>
                    <path d="M3.75,9.0625 C3.625,10.28125 3.375,12.125 3.375,13.28125 C2.5625,12.5 1.21875,11.40625 0.40625,10.75 C1.15625,11.1875 2.1875,11.875 2.9375,12.125 C3.25,11.3125 3.5,10 3.75,9.09375" id="Path"></path>
                    <polyline id="Path" points="3.28125 12.375 1.125 9.9375 2.75 12.90625 3.375 13.09375 3.28125 12.375"></polyline>
                    <path d="M3.8125,9.5 C3.6875,10.6875 3.4375,12.53125 3.40625,13.6875 C2.59375,12.90625 1.25,11.8125 0.4375,11.125 C1.21875,11.5625 2.25,12.28125 2.96875,12.53125 C3.3125,11.71875 3.53125,10.40625 3.8125,9.5" id="Path"></path>
                    <polyline id="Path" points="3.53125 12.9375 1.875 10 2.90625 13.34375 3.4375 13.6875 3.53125 12.96875"></polyline>
                    <path d="M3.90625,10 C3.8125,11.1875 3.65625,13.03125 3.65625,14.21875 C2.67812104,13.3734995 1.65585202,12.5807194 0.59375,11.84375 C1.40625,12.21875 2.46875,12.875 3.1875,13.09375 C3.5,12.25 3.6875,10.90625 3.90625,9.96875" id="Path"></path>
                    <polyline id="Path" points="3.75 13.5 1.6875 10.90625 3.1875 13.96875 3.75 14.21875 3.75 13.5"></polyline>
                    <path d="M3.9375,10.5625 C3.84375,11.75 3.6875,13.59375 3.71875,14.78125 C2.875,14.03125 1.5,13.03125 0.625,12.40625 C1.4375,12.8125 2.5,13.4375 3.25,13.65625 C3.5625,12.8125 3.71875,11.46875 3.9375,10.53125" id="Path"></path>
                    <polyline id="Path" points="3.90625 13.9375 2.5 10.8125 3.28125 14.25 3.78125 14.65625 3.90625 13.9375"></polyline>
                    <path d="M3.96875,10.90625 C4.03125,12.125 4.03125,13.96875 4.15625,15.15625 C3.10266274,14.4617781 2.01822268,13.815285 0.90625,13.21875 C1.71875,13.5 2.8125,13.96875 3.59375,14.09375 C3.8125,13.1875 3.84375,11.875 3.96875,10.90625" id="Path"></path>
                    <polyline id="Path" points="4.15625 13.8125 1.5625 12.03125 3.75 14.46875 4.375 14.5 4.15625 13.8125"></polyline>
                    <path d="M4.0625,11.03125 C4.15625,12.25 4.28125,14.09375 4.46875,15.25 C3.53125,14.65625 2.03125,13.90625 1.09375,13.4375 C1.9375,13.6875 3.0625,14.125 3.84375,14.21875 C4,13.3125 3.96875,12 4.0625,11.03125" id="Path"></path>
                    <polyline id="Path" points="4.46875 14.46875 2.28125 11.96875 3.9375 14.96875 4.53125 15.1875 4.4375 14.46875"></polyline>
                    <path d="M4.25,11.5 C4.40625,12.6875 4.5625,14.53125 4.84375,15.6875 C3.90625,15.15625 2.34375,14.5 1.40625,14.09375 C2.25,14.28125 3.40625,14.65625 4.15625,14.71875 C4.28125,13.78125 4.21875,12.46875 4.25,11.5" id="Path"></path>
                    <polyline id="Path" points="4.875 14.90625 2.28125 13.0625 4.46875 15.5625 5.09375 15.59375 4.875 14.90625"></polyline>
                    <path d="M4.34375,12 C4.5625,13.1875 4.875,15.03125 5.1875,16.15625 C4.21875,15.6875 2.625,15.1875 1.65625,14.875 C2.53125,14.96875 3.6875,15.25 4.46875,15.1875 C4.53125,14.28125 4.375,13 4.34375,12" id="Path"></path>
                    <polyline id="Path" points="5.1875 15.28125 3 12.71875 4.625 15.75 5.25 16 5.1875 15.28125"></polyline>
                    <path d="M4.46875,12.3125 C4.8125,13.46875 5.28125,15.28125 5.71875,16.375 C4.6875,16.0625 3.09375,15.75 2.09375,15.5625 C2.96875,15.5625 4.125,15.65625 4.90625,15.53125 C4.90625,14.59375 4.59375,13.3125 4.46875,12.34375" id="Path"></path>
                    <polyline id="Path" points="5.3125 15.28125 2.28125 14.65625 5.125 16.0625 5.71875 15.84375 5.28125 15.28125"></polyline>
                    <path d="M4.6875,12.6875 C5,13.84375 5.46875,15.625 5.875,16.71875 C4.875,16.40625 3.28125,16.09375 2.28125,15.90625 C3.15625,15.90625 4.3125,16 5.09375,15.90625 C5.09375,14.96875 4.78125,13.65625 4.6875,12.6875" id="Path"></path>
                    <polyline id="Path" points="5.78125 15.59375 2.90625 14.1875 5.46875 16.28125 6.09375 16.21875 5.78125 15.59375"></polyline>
                    <path d="M4.53125,12.875 C5.09375,13.9375 5.9375,15.59375 6.5625,16.53125 C5.5,16.46875 3.875,16.53125 2.875,16.53125 C3.71875,16.375 4.875,16.21875 5.59375,15.90625 C5.375,15 4.84375,13.8125 4.53125,12.875" id="Path"></path>
                    <polyline id="Path" points="6.25 15.90625 3.25 15.09375 6.0625 16.65625 6.625 16.5 6.21875 15.875"></polyline>
                    <path d="M4.8125,13.34375 C5.40625,14.375 6.25,16.03125 6.90625,16.96875 C5.84375,16.90625 4.21875,16.96875 3.21875,17.03125 C4.03125,16.8125 5.21875,16.65625 5.90625,16.34375 C5.71875,15.4375 5.15625,14.25 4.84375,13.34375" id="Path"></path>
                    <polyline id="Path" points="6.59375 16.15625 3.8125 14.5 6.25 16.8125 6.875 16.8125 6.59375 16.15625"></polyline>
                    <path d="M5.0625,13.59375 C5.71875,14.5625 6.71875,16.09375 7.4375,17 C6.21890472,17.0981093 5.00800289,17.2755691 3.8125,17.53125 C4.625,17.21875 5.75,16.90625 6.4375,16.5 C6.125,15.625 5.46875,14.46875 5.0625,13.59375" id="Path"></path>
                    <path d="M6.8125,16.40625 L3.8125,16.3125 L6.78125,17.21875 L7.3125,16.875 L6.8125,16.40625 M8.5625,1.84375 L10.71875,1.5 L8.5625,1.53125 L8.1875,1.71875 L8.5625,1.84375" id="Shape" fill-rule="nonzero"></path>
                    <path d="M9.75,2.3125 C9.125,2.125 8.1875,1.8125 7.53125,1.6875 L9.84375,0.59375 C9.375,0.90625 8.65625,1.28125 8.28125,1.59375 C8.65625,1.84375 9.3125,2.09375 9.75,2.3125" id="Path"></path>
                    <polyline id="Path" points="8.4375 1.90625 10.5625 1.34375 8.375 1.625 8.0625 1.84375 8.46875 1.90625"></polyline>
                    <path d="M9.84375,2.46875 C9.09375,2.375 7.96875,2.25 7.25,2.25 C7.8125,1.75 8.5625,0.96875 9.03125,0.46875 C8.71875,0.9375 8.21875,1.53125 8,1.96875 C8.5,2.1875 9.28125,2.3125 9.84375,2.46875" id="Path"></path>
                    <polyline id="Path" points="7.6875 2.0625 9.875 1.8125 7.75 1.75 7.34375 1.9375 7.65625 2.0625"></polyline>
                    <path d="M9.28125,2.53125 L6.9375,2.125 L9.09375,0.9375 C8.65625,1.25 8.03125,1.6875 7.71875,2 C8.125,2.1875 8.8125,2.375 9.28125,2.53125" id="Path"></path>
                    <polyline id="Path" points="7.5 2.0625 9.40625 1.21875 7.3125 1.78125 7.0625 2.03125 7.5 2.03125"></polyline>
                    <path d="M9.21875,2.78125 C8.6875,2.5625 7.8125,2.15625 7.28125,2 L8.65625,0.5 C8.40625,0.90625 8.03125,1.4375 7.84375,1.875 C8.21875,2.1875 8.78125,2.5 9.21875,2.78125" id="Path"></path>
                    <path d="M7.59375,2.1875 L9.09375,1.5625 L7.46875,1.75 L7.28125,2.0625 L7.59375,2.1875 M6.34375,16.125 L3.28125,16.125 L6.40625,16.90625 L6.90625,16.59375 L6.34375,16.125" id="Shape" fill-rule="nonzero"></path>
                    <polyline id="Path" points="6.90625 16.3125 3.78125 15.59375 6.78125 17.0625 7.40625 16.875 6.90625 16.3125"></polyline>
                    <polyline id="Path" points="7.4375 16.53125 4.3125 16.375 7.4375 17.3125 7.96875 17 7.4375 16.53125"></polyline>
                    <path d="M5.46875,14.34375 C6.25,15.21875 7.46875,16.65625 8.3125,17.4375 C7.28125,17.59375 5.71875,18 4.75,18.28125 C5.5,17.90625 6.625,17.46875 7.25,17.03125 C6.8125,16.21875 6,15.15625 5.46875,14.34375" id="Path"></path>
                    <polyline id="Path" points="7.84375 16.6875 4.71875 15.65625 7.65625 17.40625 8.28125 17.28125 7.84375 16.65625"></polyline>
                    <path d="M5.75,14.53125 C6.625,15.34375 7.9375,16.625 8.875,17.34375 C7.875,17.625 6.375,18.21875 5.4375,18.59375 C6.15625,18.15625 7.1875,17.59375 7.75,17.03125 C7.25,16.28125 6.34375,15.3125 5.75,14.53125" id="Path"></path>
                    <polyline id="Path" points="8.125 16.875 5.15625 17.46875 8.28125 17.65625 8.71875 17.25 8.09375 16.875"></polyline>
                    <polyline id="Path" points="7.5 16.6875 4.4375 16.9375 7.59375 17.46875 8.09375 17.09375 7.46875 16.6875"></polyline>
                    <polygon id="Path" points="8.0625 16.875 4.875 16.34375 8 17.59375 8.5625 17.375 8.0625 16.84375"></polygon>
                    <polygon id="Path" points="8.59375 17.03125 5.46875 17.09375 8.65625 17.8125 9.15625 17.46875"></polygon>
                    <path d="M6.46875,15 C7.34375,15.8125 8.65625,17.125 9.5625,17.875 C8.53125,18.09375 6.96875,18.625 6.03125,18.9375 C6.78125,18.53125 7.84375,18.03125 8.4375,17.53125 C7.9375,16.75 7.0625,15.75 6.46875,14.96875 L6.46875,15 Z" id="Path"></path>
                    <polygon id="Path" points="9.03125 17.15625 5.84375 16.34375 8.90625 17.90625 9.5 17.71875 9.03125 17.15625"></polygon>
                    <path d="M6.75,15.15625 C7.6875,15.90625 9.125,17.09375 10.09375,17.71875 C9.09375,18.0625 7.65625,18.8125 6.78125,19.25 C7.46875,18.71875 8.4375,18.09375 8.96875,17.53125 C8.40625,16.78125 7.40625,15.875 6.78125,15.15625 L6.75,15.15625 Z" id="Path"></path>
                    <polygon id="Path" points="9.3125 17.3125 6.40625 18.125 9.53125 18.125 9.9375 17.65625 9.3125 17.34375"></polygon>
                </g>
                <polygon id="Path" stroke="#000000" stroke-width="0.2" fill="#FEDF00" points="102.375 77.96875 100 76.3125 97.625 77.96875 98.53125 75.34375 96.4375 73.71875 99.125 73.71875 100 71.09375 100.875 73.71875 103.5625 73.71875 101.46875 75.34375"></polygon>
            </g>
        </g>
    </g>
</svg>