<?xml version="1.0" encoding="UTF-8"?>
<svg width="200px" height="150px" viewBox="0 0 200 150" version="1.1" xmlns="http://www.w3.org/2000/svg" xmlns:xlink="http://www.w3.org/1999/xlink">
    <!-- Generator: Sketch 52.5 (67469) - http://www.bohemiancoding.com/sketch -->
    <title>ph</title>
    <desc>Created with Sketch.</desc>
    <g id="Flags" stroke="none" stroke-width="1" fill="none" fill-rule="evenodd">
        <g id="Asia" transform="translate(-290.000000, -1250.000000)">
            <g id="ph" transform="translate(290.000000, 1250.000000)">
                <polygon id="Path" fill="#0038A8" points="0 0 200 0 200 75 0 75"></polygon>
                <polygon id="Path" fill="#CE1126" points="0 75 200 75 200 150 0 150"></polygon>
                <polyline id="Path" fill="#FFFFFF" points="129.90625 75 0 150 0 0"></polyline>
                <g id="Group" transform="translate(4.375000, 13.125000)" fill="#FCD116">
                    <path d="M3.96875,0.125 L8.4375,4.0625 L13.625,1.1875 L11.3125,6.65625 L15.6875,10.71875 L9.75,10.21875 L7.21875,15.59375 L5.875,9.8125 L0,9.0625 L5.09375,5.9375 L3.96875,0.125 Z M105.15625,53.96875 L105.28125,59.90625 L110.90625,61.875 L105.28125,63.8125 L105.15625,69.75 L101.5625,65.03125 L95.875,66.75 L99.25,61.875 L95.875,57 L101.5625,58.71875 L105.15625,53.96875 Z M7.25,108.15625 L9.75,113.53125 L15.6875,113.03125 L11.34375,117.09375 L13.65625,122.5625 L8.46875,119.71875 L3.96875,123.59375 L5.09375,117.75 L0,114.6875 L5.90625,113.9375 L7.25,108.15625 Z" id="Shape" fill-rule="nonzero"></path>
                    <path d="M42.9375,30.34375 L41,32.28125 L41.96875,46.96875 L41.03125,47.0625 L39.25,33.65625 L37.65625,35.21875 L40.03125,47.21875 C38.1108257,47.5967317 36.2841142,48.3507811 34.65625,49.4375 L27.875,39.3125 L25.625,39.3125 L33.875,50.03125 C33.6182847,50.2313903 33.3681522,50.439834 33.125,50.65625 L23.40625,39.5625 L20.65625,39.5625 L20.65625,42.3125 L31.71875,52 L31.09375,52.78125 L20.375,44.5625 L20.375,46.78125 L30.53125,53.5625 C29.46875,55.1875 28.6875,57 28.3125,58.9375 L16.34375,56.5625 L14.75,58.125 L28.15625,59.90625 C28.09375,60.21875 28.0625,60.5625 28.0625,60.875 L13.375,59.9375 L11.4375,61.875 L13.375,63.8125 L28.0625,62.84375 L28.15625,63.8125 L14.75,65.59375 L16.3125,67.15625 L28.3125,64.78125 C28.6904817,66.7016743 29.4445311,68.5283858 30.53125,70.15625 L20.375,76.9375 L20.375,79.1875 L31.09375,70.96875 C31.2938903,71.2254653 31.502334,71.4755978 31.71875,71.71875 L20.65625,81.40625 L20.65625,84.15625 L23.4375,84.15625 L33.125,73.09375 L33.90625,73.71875 L25.625,84.4375 L27.875,84.4375 L34.65625,74.28125 C36.25,75.34375 38.09375,76.125 40.03125,76.5 L37.65625,88.5 L39.21875,90.0625 L41,76.65625 C41.3125,76.71875 41.625,76.75 41.96875,76.75 L41.03125,91.4375 L42.9375,93.375 L44.90625,91.4375 L43.9375,76.75 L44.875,76.65625 L46.65625,90.09375 L48.25,88.5 L45.875,76.5 C47.7954243,76.1220183 49.6221358,75.3679689 51.25,74.28125 L58.03125,84.4375 L60.28125,84.4375 L52.03125,73.71875 C52.2879653,73.5186097 52.5380978,73.310166 52.78125,73.09375 L62.5,84.15625 L65.25,84.15625 L65.25,81.40625 L54.1875,71.71875 L54.8125,70.96875 L65.53125,79.1875 L65.53125,76.9375 L55.375,70.15625 C56.4375,68.5625 57.21875,66.71875 57.59375,64.78125 L69.5625,67.15625 L71.15625,65.59375 L57.75,63.8125 C57.8125,63.5 57.84375,63.1875 57.84375,62.84375 L72.53125,63.78125 L74.46875,61.875 L72.53125,59.9375 L57.84375,60.875 L57.75,59.9375 L71.15625,58.15625 L69.59375,56.59375 L57.59375,58.9375 C57.2157683,57.0170757 56.4617189,55.1903642 55.375,53.5625 L65.53125,46.78125 L65.53125,44.5625 L54.8125,52.78125 C54.6123597,52.5245347 54.403916,52.2744022 54.1875,52.03125 L65.25,42.34375 L65.25,39.5625 L62.5,39.5625 L52.8125,50.65625 C52.5591055,50.4392874 52.298544,50.2308382 52.03125,50.03125 L60.28125,39.3125 L58.03125,39.3125 L51.25,49.4375 C49.65625,48.375 47.8125,47.59375 45.875,47.21875 L48.25,35.25 L46.6875,33.6875 L44.90625,47.0625 L43.9375,46.96875 L44.875,32.28125 L42.9375,30.34375 Z" id="Path"></path>
                </g>
            </g>
        </g>
    </g>
</svg>