<?xml version="1.0" encoding="UTF-8"?>
<svg width="200px" height="150px" viewBox="0 0 200 150" version="1.1" xmlns="http://www.w3.org/2000/svg" xmlns:xlink="http://www.w3.org/1999/xlink">
    <!-- Generator: Sketch 52.5 (67469) - http://www.bohemiancoding.com/sketch -->
    <title>pn</title>
    <desc>Created with Sketch.</desc>
    <g id="Flags" stroke="none" stroke-width="1" fill="none" fill-rule="evenodd">
        <g id="Oceania" transform="translate(-950.000000, -450.000000)">
            <g id="pn" transform="translate(950.000000, 450.000000)">
                <polygon id="Path" fill="#00247D" points="0 0 200 0 200 150 0 150"></polygon>
                <path d="M0,0 L0,11.235 L177.610645,100.3125 L200,100.3125 L200,89.0775 L22.3893549,0 L0,0 Z M200,0 L200,11.235 L22.3893549,100.3125 L0,100.3125 L0,89.0775 L177.610645,0 L200,0 Z" id="Shape" fill="#FFFFFF" fill-rule="nonzero"></path>
                <path d="M83.3092277,0 L83.3092277,100.3125 L116.632919,100.3125 L116.632919,0 L83.3092277,0 Z M0,33.424125 L0,66.888375 L200,66.888375 L200,33.424125 L0,33.424125 Z" id="Shape" fill="#FFFFFF" fill-rule="nonzero"></path>
                <path d="M0,40.125 L0,60.1875 L200,60.1875 L200,40.125 L0,40.125 Z M90.0202488,0 L90.0202488,100.3125 L109.921898,100.3125 L109.921898,0 L89.9623951,0 L90.0202488,0 Z M0,100.3125 L66.6473821,66.888375 L81.5736187,66.888375 L14.9262366,100.3125 L0,100.3125 Z M0,0 L66.6473821,33.424125 L51.7789991,33.424125 L0,7.46325 L0,0 Z M118.426381,33.424125 L185.073763,0 L200,0 L133.352618,33.424125 L118.426381,33.424125 Z M200,100.3125 L133.352618,66.888375 L148.221001,66.888375 L200,92.84925 L200,100.3125 Z" id="Shape" fill="#CC0000" fill-rule="nonzero"></path>
                <path d="M128.125,97 C125.150472,99.3438338 122.959666,102.537396 121.84375,106.15625 C119.96875,115.1875 117.46875,117.1875 113.5625,115.21875 C113.5625,120.09375 117.8125,120.46875 119.6875,117.625 C119.6875,122.15625 121.34375,126.09375 125.03125,129.46875 C126.59375,130.875 126.90625,129.90625 126.15625,128.34375 C125.40625,126.78125 125.40625,121.71875 123.9375,118.8125 C126.3125,120.53125 129.8125,119.5625 129.5,114.875 C126.46875,116.65625 123.40625,116.59375 123.09375,112.34375 C122.71875,107.34375 124.65625,100.125 128.09375,97 L128.125,97 Z M124.5,61.125 C124.6875,59.34375 124.3125,57.5 123,56.375 C120.5,54.125 118,54.875 116.15625,56.6875 C113.40625,55.1875 111.9375,60.4375 108.8125,59.5625 C109.34375,61.28125 110.15625,62 111.71875,61.4375 C110.09375,62.90625 111.71875,64.6875 109.78125,66.5 C113.28125,67.59375 115.15625,65.65625 115,62.3125 C116.34375,63.5 118.4375,63.4375 119.53125,62.09375 C117.65625,61.46875 117.65625,59.875 118.40625,58.34375 C119.53125,56.15625 124.78125,56.21875 124.5,61.15625 L124.5,61.125 Z" id="Shape" stroke="#000000" stroke-width="0.6" fill="#F7E017" fill-rule="nonzero"></path>
                <path d="M132.5625,87.03125 C128.625,89.125 121.40625,88.21875 120.71875,83.09375 C120.0625,77.96875 125.03125,75.65625 126.375,74.96875 C128.46875,73.9375 130.125,75.78125 129.4375,77.9375 C130.427952,77.5989672 131.205276,76.8200458 131.541776,75.8289015 C131.878275,74.8377573 131.735861,73.7465789 131.15625,72.875 C134.1875,73.09375 137.03125,70.8125 138.21875,67.53125 C137.15625,68.5625 134.21875,67.84375 131.8125,67.6875 C132.5625,66.875 132.5625,65.28125 132.34375,64.46875 C129.8125,67.0625 126.15625,65.875 121.3125,73.40625 C122.0625,70.8125 123.5,65.59375 124.3125,62.15625 C124.396233,61.8167012 124.458853,61.4722917 124.5,61.125 C124.78125,56.21875 119.53125,56.125 118.40625,58.375 C119.65625,59.75 119.03125,61.375 118.5625,63.8125 C118.0625,66.71875 116.9375,73.40625 115.96875,75.65625 C115.65625,72.15625 113.34375,71.90625 112.90625,70.21875 C112.25,70.65625 111.875,71.84375 112,72.65625 C111.1875,71.78125 108.375,72.875 107.3125,71.5625 C106.21875,73.78125 108,76.03125 109.875,76.96875 C108.78125,77.0625 108.5,78.375 107.3125,78.375 C108.571869,79.9714238 110.441414,80.968514 112.46875,81.125 C114.34375,81.28125 115.78125,81.96875 116.9375,84.28125 C118.8125,88 125.875,90.40625 132.5625,87.03125 Z" id="Path" stroke="#000000" stroke-width="0.6" fill="#337321"></path>
                <path d="M142.40625,82.5 C140.15625,88.65625 134.0625,93.0625 131.28125,93.75 C126.59375,94.875 117.03125,99.5 114.46875,101.875" id="Path" stroke="#000000" stroke-width="0.6" fill="#F7E017"></path>
                <path d="M128.125,97 C124.5625,100 122.71875,107.34375 123.125,112.34375 C123.21875,113.71875 123.59375,114.6875 124.1875,115.25 C124.4375,112.4375 126.40625,105.125 131.4375,101.84375 C135.6875,99.09375 142.3125,92.90625 144.78125,85.84375 C144.31493,84.5335105 143.379755,83.4424735 142.15625,82.78125 C139.71875,89.46875 133.1875,92.65625 128.09375,97 L128.125,97 Z" id="Path" stroke="#000000" stroke-width="0.6" fill="#337321"></path>
                <path d="M140.125,79.625 C138.875,81.5 136,84.125 133.25,85.1875 C133.84375,84.5 134.03125,83.625 134.0625,82.9375 C129.709079,84.1852742 125.100196,84.2392423 120.71875,83.09375 C127.260996,84.7917393 134.205261,82.7216983 138.75,77.71875 C139.375,78.40625 139.875,78.96875 140.125,79.625 Z" id="Path" stroke="#000000" stroke-width="0.6" fill="#316D3A"></path>
                <path d="M113.34375,95.21875 C107.65625,100.53125 111.40625,105.21875 113.65625,106.25 C113.03125,109.96875 116.5625,109.5 116.46875,112.625 C117.90625,111.8125 118.28125,109.65625 118.03125,107.9375 C119.84375,109.875 124.375,107.71875 125.34375,111.3125 C125.96875,107.34375 122.875,103.40625 119.09375,103.78125 C120.65625,102.375 119.75,100.0625 118.28125,99.46875 C117.96875,102.375 114.6875,102.375 113.4375,101.46875 C112.1875,100.59375 111.125,97.6875 113.34375,95.21875 Z" id="Path" stroke="#000000" stroke-width="0.6" fill="#337321"></path>
                <path d="M125.6875,129.09375 C125.0625,129.4375 125.09375,130.25 125.5,130.75 C126.28125,131.8125 124.9375,134.1875 127.46875,134.6875 C128.21875,134.84375 128.78125,134.375 129.0625,133.53125 C129.84375,131.1875 127.34375,130.90625 127.125,129.78125 C126.90625,128.6875 126.1875,128.78125 125.6875,129.09375 Z" id="Path" stroke="#000000" stroke-width="0.6" fill="#F7E017"></path>
                <path d="M127.8125,133.5 C126.96875,133.875 126.25,134.4375 126.5625,137.09375 C126.71875,138.21875 126.625,140.90625 125.6875,140.9375 C126.28125,141.25 127.5625,141.5625 128.0625,140.84375 C128.5625,141.6875 129.6875,141.46875 130.15625,140.40625 C130.75,140.90625 131.5625,140.09375 131.5625,139.375 C132.09375,139.6875 133.125,139.21875 132.84375,137.625 C133.46875,137.84375 134.3125,137.40625 134.625,137 C133.6875,136.8125 131.34375,135.53125 130.78125,134.5 C130.21875,133.53125 128.78125,133.03125 127.8125,133.5 Z" id="Path" stroke="#000000" stroke-width="0.6" fill="#F7E017"></path>
                <path d="M114.90625,58.1875 C115.270313,57.63631 115.689104,57.123291 116.15625,56.65625 M129.0625,68.03125 C129.71875,67.6875 130.71875,67.625 131.84375,67.71875 M128.0625,140.84375 C127.8125,140.5 127.71875,138.90625 127.875,137.96875" id="Shape" stroke="#000000" stroke-width="0.6"></path>
                <path d="M167.1875,95.3125 C176.34375,102.96875 176.9375,109.0625 175.53125,112.625 C174.78125,109.28125 171,104.09375 167.03125,102.75 L167.1875,95.28125 L167.1875,95.3125 Z" id="Path" stroke="#000000" stroke-width="0.6" fill="#F7E017"></path>
                <path d="M150.8125,90.96875 L167.78125,90.96875 L167.78125,111.09375 C167.78125,128.1875 158.25,138.3125 148.5625,143.6875 C136.467295,137.378413 129.021918,124.730975 129.375,111.09375 L129.375,90.9375 L141.25,90.9375 C141.25,92 141.375,93.5625 142.59375,95.125 C145.40625,94.8125 148.59375,92.71875 150.78125,90.9375 L150.8125,90.96875 Z" id="Path" stroke="#000000" stroke-width="0.6" fill="#337321"></path>
                <path d="M167.78125,90.96875 L167.78125,111.09375 C167.78125,116.25 166.90625,120.78125 165.4375,124.71875 L148.5625,93.78125 L131.71875,124.71875" id="Path" stroke="#000000" stroke-width="0.6" fill="#006EC7"></path>
                <g id="Group" transform="translate(138.437500, 112.500000)" fill="#F7E017" stroke="#000000" stroke-width="0.6">
                    <path d="M17.8125,21.75 L19.4375,22.5625 C20.2981102,20.488654 20.5580083,18.2145453 20.1875,16 C19.25,18.46875 15.9375,18.375 15.0625,19.875 C15.5872655,20.1460081 16.0889438,20.4595571 16.5625,20.8125 C15.0475867,22.2676078 13.2787728,23.4326949 11.34375,24.25 L11.34375,8.3125 C11.34375,7.1875 10.96875,6.25 10.96875,5.3125 L10.96875,2.03125 C10.96875,1.28125 10.8125,0.1875 10.125,0.1875 C9.46875,0.1875 9.3125,1.28125 9.3125,2.03125 L9.3125,5.3125 C9.3125,6.25 8.9375,7.3125 8.9375,8.3125 L8.9375,24.25 C8.125,21.875 4.90625,22.6875 3.4375,20.3125 C4.02002319,20.1650487 4.62732465,20.1437399 5.21875,20.25 C4.125,16.4375 1.0625,16.15625 0.46875,15.03125 C0.46875,16.59375 -0.1875,20.25 0.84375,21.8125 C1.13282125,21.4913312 1.4702078,21.2172046 1.84375,21 C3.09375,23.75 8.8125,23.75 10.125,28.28125 C11.21875,26.625 15.09375,24.6875 17.8125,21.75 Z" id="Path"></path>
                    <path d="M10.125,8.46875 C11.375,8.46875 15.4375,8.0625 16.875,8.0625 C17.25,8.0625 17.5625,7.5 17.5625,6.8125 C17.5625,6.125 17.25,5.5625 16.875,5.5625 C15.4375,5.5625 11.40625,5.125 10.15625,5.125 C8.90625,5.125 4.84375,5.53125 3.40625,5.53125 C3.03125,5.53125 2.71875,6.09375 2.71875,6.78125 C2.71875,7.46875 3.03125,8.0625 3.40625,8.0625 C4.84375,8.0625 8.875,8.46875 10.125,8.46875 Z" id="Path"></path>
                    <path d="M3.40625,8.0625 C3.78125,8.0625 4.09375,7.5 4.09375,6.8125 C4.09375,6.125 3.78125,5.5625 3.40625,5.5625" id="Path"></path>
                    <path d="M3.96875,8.0625 C4.34375,8.0625 4.65625,7.5 4.65625,6.8125 C4.65625,6.125 4.34375,5.5625 3.96875,5.5625 M7.625,8.3125 C8.09375,8.3125 8.46875,7.65625 8.46875,6.8125 C8.46875,5.96875 8.09375,5.28125 7.625,5.28125 M8.5,8.40625 C8.96875,8.40625 9.375,7.6875 9.375,6.8125 C9.375,5.9375 8.96875,5.21875 8.5,5.21875 M11.34375,8.40625 C11.84375,8.40625 12.21875,7.6875 12.21875,6.8125 C12.21875,5.90625 11.84375,5.1875 11.34375,5.1875 M12.28125,8.375 C12.71875,8.375 13.125,7.65625 13.125,6.8125 C13.125,5.9375 12.71875,5.25 12.25,5.25 M16.25,8.09375 C16.625,8.09375 16.9375,7.53125 16.9375,6.8125 C16.9375,6.09375 16.625,5.53125 16.25,5.53125 M1.8125,21 C2.31486761,20.6872385 2.86320442,20.4552499 3.4375,20.3125 M17,21.125 L16.5625,20.8125 M17.8125,21.75 C18.84375,20.65625 19.6875,19.375 20.1875,17.9375" id="Shape" fill-rule="nonzero"></path>
                </g>
                <g id="Group" transform="translate(145.000000, 103.750000)" stroke="#000000" stroke-width="0.6">
                    <path d="M0.15625,1.4375 C0.15625,1.0625 0.46875,0.90625 0.8125,0.65625 C1.21875,0.34375 1.40625,0.1875 1.78125,0.1875 L6.65625,0.1875 C7.03125,0.1875 7.125,0.28125 7.125,0.625 L7.125,7.25 C7.125,7.59375 7.03125,7.6875 6.65625,7.6875 L0.15625,7.6875 L0.15625,1.375" id="Path" fill="#FFFFFF"></path>
                    <path d="M5.46875,8.28125 C6.09375,8.28125 6,8.28125 6.40625,7.8125 C6.90625,7.34375 6.875,7.375 6.875,6.9375 L6.875,0.875 C6.875,0.5625 6.78125,0.46875 6.4375,0.46875 L1.9375,0.46875 C1.59375,0.46875 1.4375,0.59375 1.03125,0.90625 C0.71875,1.15625 0.4375,1.3125 0.4375,1.625 L0.4375,8.28125 L5.4375,8.28125 L5.46875,8.28125 Z" id="Path" fill="#E5E5E5"></path>
                    <path d="M5.9375,8.125 C5.9375,8.4375 5.84375,8.5625 5.5,8.5625 L0.59375,8.5625 C0.25,8.5625 0.15625,8.46875 0.15625,8.125 L0.15625,1.46875 C0.15625,1.15625 0.25,1.0625 0.59375,1.0625 L5.5,1.0625 C5.84375,1.0625 5.9375,1.15625 5.9375,1.5 L5.9375,8.125 Z" id="Path" fill="#FFFFFF"></path>
                </g>
                <path d="M160.40625,87.09375 C161.370758,88.1387275 161.661204,89.6393605 161.15625,90.96875 L159.75,90.96875 C160.34375,89.1875 159.96875,87.46875 157.4375,87.25 C153.65625,86.9375 149.25,94.25 142.625,95.15625 C140.6875,92.84375 140.78125,88.4375 143.25,86.375 C141.983544,82.8622358 140.004642,79.6491793 137.4375,76.9375" id="Path" stroke="#000000" stroke-width="0.6" fill="#96877D"></path>
                <path d="M143.90625,89.0625 C143.59375,84.0625 141.5625,80 138.75,77.1875 C140.774991,77.679379 142.912574,77.341866 144.6875,76.25 C147.1875,74.59375 153.5625,71.71875 155.90625,72.96875 C156.126553,73.5790465 156.180482,74.2369753 156.0625,74.875 C155.5,73.40625 149.3125,75.71875 147.5625,76.4375 C145.90625,77.1875 145.15625,78.25 145.75,80.59375 C144.78125,79.78125 145.125,79 144.09375,78.40625 C144.570468,79.7353959 144.864814,81.1230292 144.96875,82.53125 C144.59375,81.53125 143.90625,79.375 142.46875,78.09375 C144.003581,81.7217772 144.636223,85.6677482 144.3125,89.59375 C145.79502,89.3568867 147.198973,88.7674409 148.40625,87.875 C147.625,89 145.375,89.78125 143.9375,90.0625 C143.3125,90.875 142.84375,92.875 142.875,94 C142.78125,92.625 143.1875,89.25 143.90625,89.03125 L143.90625,89.0625 Z M160.40625,87.09375 C159.15625,85.71875 156.875,84.96875 153.9375,85.78125 C154.662362,85.4338441 155.429152,85.1817487 156.21875,85.03125 C156.09375,84.25 155.375,80.875 155.28125,80.0625 L156.09375,79.75 C156.425228,81.5191937 156.842386,83.2712552 157.34375,85 C157.65625,85.0625 158.21875,85.1875 158.75,85.4375 C158.5,84.65625 157.25,79.03125 157.28125,78.4375 L158.40625,77.8125 C158.84375,80.875 159.5625,85.3125 160.40625,87.09375 Z" id="Shape" fill="#000000" fill-rule="nonzero"></path>
                <path d="M159.75,90.96875 C160.34375,89.1875 159.96875,87.46875 157.4375,87.25 C155.46875,87.09375 153.375,89 150.8125,91 L159.75,91 L159.75,90.96875 Z" id="Path" stroke="#000000" stroke-width="0.6" fill="#96877D"></path>
                <path d="M143.25,86.375 C143.65625,87.5625 143.9375,88.6875 143.96875,89.71875 M139.875,71.5 C139.1875,72.5 138.625,73.5625 138.40625,74.4375 C139.65625,74.875 142.15625,75.0625 143.28125,74.9375" id="Shape" stroke="#000000" stroke-width="0.6"></path>
                <path d="M137.4375,76.9375 L138.75,77.1875 C140.774845,77.6829353 142.913809,77.345204 144.6875,76.25 C146.5625,74.90625 151.625,70.71875 157.375,70.28125" id="Path" stroke="#000000" stroke-width="0.6"></path>
                <path d="M135.9375,75.625 C137.75,76.03125 141.4375,76.1875 143.28125,74.9375 C146.973348,72.1830376 151.351628,70.496589 155.9375,70.0625" id="Path" stroke="#000000" stroke-width="0.6"></path>
                <path d="M167.1875,95.3125 C173.4375,99.625 178.0625,103.78125 179.375,110.5 C180.75,117.1875 183.28125,118.96875 186.40625,117.1875 C185.65625,121.0625 181.78125,121.5 178.5,118.53125 C178.8125,123 177,128.34375 172.40625,130.28125 C172.09375,127.59375 173.875,125.5 173.34375,123.28125 C173.15625,122.34375 173.0625,120.09375 174.34375,119.03125 C171.875,119.875 168,118.3125 167.625,114.65625 C170.4375,116 174.125,116.21875 175.53125,112.65625 C176.9375,109.0625 176.34375,102.96875 167.1875,95.28125 L167.1875,95.3125 Z M175.09375,60.46875 C177,55.375 182.09375,55.90625 183.78125,58.0625 C188.78125,55.25 189.4375,61.65625 193.6875,60.375 C193.625,61.5625 192.1875,62.6875 190.65625,62.625 C192.28125,64.09375 189.96875,66.34375 193.46875,67.6875 C190.5,69.15625 186.3125,67.59375 185.1875,63.5 C184.25,65.4375 180.71875,65.4375 179.3125,63.875 C182.375,63.0625 182.125,60.21875 180.4375,59.125 C178.71875,58 175.65625,58.4375 175.09375,60.4375 L175.09375,60.46875 Z M159.96875,71.5625 C161.405672,75.9622669 163.94453,79.9211638 167.34375,83.0625 C170.90625,86.34375 176.3125,85.5 179.3125,82.375 C179.40625,88.625 172.9375,89.09375 169.34375,87.15625 C167.78125,86.28125 166.46875,86.75 168,88.09375 C170.3125,90.1875 175.375,91.75 181.34375,93.03125 C191.75,95.25 188.03125,103.53125 184.96875,103.46875 C185.875,103.4375 186.59375,102.53125 185.3125,101.375 C176.25,93.25 157.875,96.46875 158.1875,78.28125 C156.25,83.0625 148.28125,81.1875 152,75.53125 C153.1875,76.5 155.28125,76.5625 155.875,75.09375 C156.34375,73.9375 156.03125,71.90625 153.9375,70.1875 C154.28125,70.15625 155.03125,70.1875 154.9375,69.34375 C155.03125,69.84375 155.5,70.59375 156.65625,70.34375 C157,70.84375 157.34375,71.21875 157.84375,71.03125 C157.9375,70.96875 158.21875,70.84375 158.09375,70.3125 C158.1875,71.28125 159.34375,71.65625 159.96875,71.5625 Z" id="Shape" stroke="#000000" stroke-width="0.6" fill="#337321" fill-rule="nonzero"></path>
                <path d="M169.375,87.1875 C173.65625,90 178.53125,90 183.03125,84.8125 C184.46875,83.15625 186.6875,81.75 188.25,81.59375 C189.8125,81.4375 189.75,79.96875 190.9375,79.65625 C190.1875,79.4375 189.90625,78.5625 188.78125,78.65625 C191.59375,77.6875 190.75,75.46875 192.125,74.375 C191,74.78125 189.28125,73.125 187.65625,75.25 C188.0625,74.25 187.5,73.09375 187.09375,72.65625 C187.25,73.78125 184.90625,74 184.46875,76.84375 C184.21875,78.40625 183.34375,78.3125 183.21875,75.875 C183.09375,74.0625 182.21875,69.09375 181.1875,66.5625 C180.15625,64.03125 179.90625,60.5625 181.3125,60 L169.375,87.1875 Z M170.84375,133.25 C171.78125,133.71875 172.5625,134.34375 172.0625,137.3125 C171.84375,138.5625 171.8125,141.5625 172.90625,141.65625 C172.21875,141.96875 170.78125,142.25 170.25,141.46875 C169.625,142.375 168.375,142.0625 167.9375,140.84375 C167.25,141.375 166.375,140.4375 166.375,139.625 C165.8125,140 164.65625,139.40625 165.03125,137.625 C164.3125,137.84375 163.40625,137.3125 163.09375,136.84375 C164.125,136.6875 166.8125,135.375 167.46875,134.28125 C168.15625,133.1875 169.78125,132.71875 170.84375,133.25 Z" id="Shape" stroke="#000000" stroke-width="0.6" fill="#F7E017" fill-rule="nonzero"></path>
                <path d="M170.21875,141.46875 C170.53125,141.0625 170.71875,139.3125 170.53125,138.25 M167.90625,140.875 C168.693517,140.20948 169.251152,139.31289 169.5,138.3125 M166.375,139.65625 C167,139.40625 168.46875,137.625 168.8125,136.46875 M165,137.625 C166.510587,137.081637 167.826358,136.102964 168.78125,134.8125" id="Shape" stroke="#000000" stroke-width="0.6"></path>
                <path d="M158.1875,78.3125 C158.0625,85.96875 161.21875,89.8125 165.625,92.3125 C164,91.375 164.6875,88 162.5,86.90625 C163.03125,86.90625 163.84375,87.625 165.15625,87.3125 C164.53125,85.90625 163.46875,83.75 161.0625,83.46875 C161.6875,83.375 163.0625,83.59375 163.9375,83.28125 C162.6875,81.34375 159.34375,82.25 158.1875,78.3125 Z M157.375,71.0625 C157.125,70.96875 156.875,70.71875 156.65625,70.34375 C155.5,70.59375 155.03125,69.875 154.9375,69.34375 C155,70.21875 154.28125,70.1875 153.9375,70.21875 C156.03125,71.9375 156.34375,73.96875 155.875,75.125 C155.25,76.59375 153.1875,76.53125 152,75.5625 C151.84375,78.71875 155.9375,79.78125 157.4375,75.78125 C157.4375,76.46875 158.28125,76.40625 158.5,77.28125 C159.5625,75.5625 158.78125,73.09375 157.375,71.0625 Z" id="Shape" stroke="#000000" stroke-width="0.6" fill="#F7E017" fill-rule="nonzero"></path>
                <path d="M152.1875,47.09375 C152.1875,46.40625 153.3125,45.53125 154.875,45.53125 C156.75,45.59375 158.21875,47.28125 159.71875,47.125 C161.21875,46.96875 160.5,47.78125 160.15625,48.03125 C159.84375,48.25 159.65625,48.59375 159.78125,48.96875 C159.90625,49.40625 159.6875,49.65625 159.09375,49.28125 C157.75,48.4375 156.40625,49.59375 154.625,48.96875 C153.09375,48.40625 152.21875,48.09375 152.1875,47.09375 Z" id="Path" stroke="#000000" stroke-width="0.6" fill="#CF142B"></path>
                <path d="M144.53125,64.6875 C143.53929,62.3405296 141.790061,60.3932739 139.5625,59.15625 L139.5,57.90625 C140.715573,57.2172948 141.839081,56.3772894 142.84375,55.40625 C148.4375,58.0625 156.03125,54.28125 159.53125,50.3125 L160.875,51.15625 L160.1875,52.03125 L159.5,51.65625 C158.625,52.71875 155.4375,55.71875 154.46875,56.34375 C155.636821,56.632878 156.829644,56.8107552 158.03125,56.875 C161.15625,54.65625 163.625,52.625 164.8125,52.5 L165.8125,53.8125 L164.90625,54.4375 L164.21875,54.0625 C160.434762,57.6520362 157.480494,62.0247798 155.5625,66.875 C153.5,66.40625 146.03125,66.71875 144.53125,64.65625 L144.53125,64.6875 Z" id="Path" stroke="#000000" stroke-width="0.6" fill="#96877D"></path>
                <path d="M144.8125,63.84375 C144.3125,61.0625 145.125,58 146.53125,57.0625 C150.102055,59.1400877 154.530073,59.0678917 158.03125,56.875" id="Path" stroke="#000000" stroke-width="0.6"></path>
                <path d="M144.8125,62.375 C147.1875,62.3125 152.375,62.71875 153.65625,62.90625 C154.90625,63.09375 157.03125,63.625 156.71875,64.25 L144.8125,62.375 Z M145.90625,62 L146.59375,61.3125 L145.90625,60.625 L145.21875,61.3125 L145.90625,62 Z" id="Shape" stroke="#000000" stroke-width="0.6"></path>
                <path d="M147.53125,48.125 C146.6875,46.9375 144.3125,46.5625 143.8125,48.15625 C143.59375,48.875 143.25,49.625 142.6875,49.96875 C142.15625,50.28125 142.28125,51.3125 142.5,51.75 C143.125,52.8125 142.59375,53.84375 143.75,54.5625 C143.75,53.71875 145,52.8125 146.09375,52.59375 C147.15625,52.375 148.8125,51.40625 149.03125,50.34375 C149.25,49.25 149.625,48.34375 147.53125,48.15625 L147.53125,48.125 Z" id="Path" stroke="#000000" stroke-width="0.6" fill="#337321"></path>
                <path d="M142.1875,58.84375 L142.46875,58.84375 L142.46875,60.875 L142.65625,60.96875 L144.40625,59.96875 L144.5625,60.25 L142.78125,61.25 C142.792367,61.3120057 142.792367,61.3754943 142.78125,61.4375 L144.5625,62.46875 L144.40625,62.71875 L142.625,61.71875" id="Path" stroke="#000000" stroke-width="0.6" fill="#96877D"></path>
                <path d="M140.84375,67.1875 C140.625,66.9375 140.21875,66.21875 140.21875,65.6875 C140.692608,65.691873 141.148433,65.869756 141.5,66.1875 C141.46875,65.8125 141.3125,65 141.40625,64.625 C141.8125,64.78125 142.65625,65.25 142.96875,65.8125" id="Path" stroke="#000000" stroke-width="0.6" fill="#337321"></path>
                <path d="M153.28125,47.46875 C153.28125,47.1875 153.90625,46.5625 155,46.59375 C156.3125,46.59375 157.5,47.53125 158.5625,47.5 C159.625,47.40625 159.09375,47.75 158.875,47.84375 C158.65625,47.9375 158.5625,48.09375 158.625,48.25 C158.6875,48.40625 158.5625,48.53125 158.125,48.375 C157.1875,48.03125 156.25,48.5 155,48.21875 C153.9375,48 153.3125,47.90625 153.28125,47.46875 Z" id="Path" fill="#F7E017"></path>
                <g id="Group" transform="translate(139.375000, 66.250000)" stroke="#000000" stroke-width="0.6">
                    <path d="M2.625,3.1875 C1.5,4.5 0.375,4.28125 0.15625,3.4375 C-0.0625,2.5625 0.78125,2.1875 0.46875,1.40625 C0.15625,0.6875 0.9375,0.34375 1.3125,0.6875 C1.6875,1 2.875,-0.0625 3.40625,1.0625 C3.90625,2.15625 4.34375,2.9375 4.03125,3.40625 C3.71875,3.84375 2.84375,3.625 2.625,3.1875 Z M7.40625,1.15625 C7.1875,0.6875 8.34375,-0.28125 8.96875,0.40625 C9.5625,1.0625 10.5,-0.34375 11,0.71875 C11.53125,1.78125 11.6875,2.34375 11.9375,2.9375 C12.21875,3.5625 10.53125,3.875 10.03125,3.34375 C10.09375,3.6875 8.5625,3.96875 8.15625,2.96875 L7.40625,1.15625 Z M15.15625,1.78125 C14.875,1.25 16.25,0.53125 16.9375,1.46875 C17.125,1.0625 18.5,1 18.5625,2.125 L18.71875,4.375 C18.75,4.84375 17.90625,5.25 17.3125,4.09375 C16.21875,4.34375 15.6875,3.71875 15.5625,3.0625 C15.4818755,2.61993923 15.3453665,2.18941087 15.15625,1.78125 Z" id="Shape" fill="#F7E017" fill-rule="nonzero"></path>
                    <path d="M3.34375,1.03125 C3.15625,0.65625 4.28125,-0.09375 5.03125,0.46875 C5.8125,1.03125 6.875,-3.05311332e-15 7.3125,1 C8.25,3.03125 8.28125,3.1875 8,3.5625 C7.71875,3.96875 6.53125,3.8125 6.25,3.25 C6.1875,3.625 5.15625,3.5625 4.625,3.28125 C4,2.96875 3.5625,1.71875 3.34375,1.03125 Z M11.15625,1.125 C10.90625,0.5625 12.65625,0.0625 13.40625,1.0625 C13.8125,0.6875 14.65625,0.6875 15.15625,1.78125 C15.625,2.875 15.71875,3.5 15.34375,3.78125 C15.09375,3.96875 14.21875,4.09375 13.90625,3.625 C13.5,3.875 12.21875,3.65625 11.9375,2.96875 C11.6875,2.25 11.4375,1.625 11.1875,1.09375 L11.15625,1.125 Z M18.59375,2.21875 C18.53125,1.71875 19.5,1.46875 19.84375,2.21875 C20.1875,3 21.34375,2.3125 21.40625,3.5625 C21.4204195,4.13943012 21.2567684,4.7067539 20.9375,5.1875 C20.59375,5.625 18.875,5.1875 18.75,4.25 L18.59375,2.21875 Z" id="Shape" fill="#337321" fill-rule="nonzero"></path>
                    <path d="M2.625,3.1875 C2.21875,2.625 1.65625,1.71875 0.9375,2.6875" id="Path"></path>
                </g>
            </g>
        </g>
    </g>
</svg>