<?xml version="1.0" encoding="UTF-8"?>
<svg width="200px" height="150px" viewBox="0 0 200 150" version="1.1" xmlns="http://www.w3.org/2000/svg" xmlns:xlink="http://www.w3.org/1999/xlink">
    <!-- Generator: Sketch 52.5 (67469) - http://www.bohemiancoding.com/sketch -->
    <title>pt</title>
    <desc>Created with Sketch.</desc>
    <g id="Flags" stroke="none" stroke-width="1" fill="none" fill-rule="evenodd">
        <g id="Europe" transform="translate(-1170.000000, -1450.000000)">
            <g id="pt" transform="translate(1170.000000, 1450.000000)">
                <polygon id="Path" fill="#FF0000" points="80 0 200 0 200 150 80 150"></polygon>
                <polygon id="Path" fill="#006600" points="0 0 80 0 80 150 0 150"></polygon>
                <g id="Group" stroke-linecap="round" stroke-linejoin="round" transform="translate(46.562500, 41.250000)" fill="#FFFF00" stroke="#000000" stroke-width="0.3">
                    <path d="M59.53125,54.4375 C49.4375,54.125 3.28125,25.3125 2.96875,20.6875 L5.5,16.46875 C10.09375,23.125 57.28125,51.15625 61.9375,50.15625 L59.53125,54.4375" id="Path"></path>
                    <path d="M4.96875,15.875 C4.0625,18.3125 17.03125,26.3125 32.59375,35.8125 C48.1875,45.28125 61.625,51.125 62.59375,50.3125 L63.0625,49.4375 C62.875,49.75 62.4375,49.84375 61.71875,49.625 C57.5,48.40625 46.53125,43.375 32.9375,35.125 C19.3125,26.875 7.5,19.28125 5.65625,16.0625 C5.51252916,15.7607351 5.44800253,15.4273475 5.46875,15.09375 L5.40625,15.09375 L5.03125,15.78125 L4.96875,15.875 Z M59.75,54.5625 C59.59375,54.875 59.25,54.875 58.65625,54.8125 C54.90625,54.40625 43.46875,48.84375 29.9375,40.75 C14.1875,31.3125 1.1875,22.75 2.625,20.5 L3,19.8125 L3.0625,19.84375 C1.8125,23.65625 28.71875,39.03125 30.3125,40.03125 C45.875,49.65625 59,55.3125 60.15625,53.84375 L59.75,54.5625 Z" id="Shape"></path>
                    <path d="M33.5,23.5 C43.5625,23.40625 56,22.125 63.1875,19.25 L61.625,16.75 C57.40625,19.09375 44.90625,20.65625 33.40625,20.875 C19.84375,20.75 10.25,19.46875 5.4375,16.25 L4,18.9375 C12.8125,22.6875 21.875,23.46875 33.5,23.5" id="Path"></path>
                    <path d="M63.59375,19.3125 C63.34375,19.71875 58.65625,21.3125 51.78125,22.5 C45.7207465,23.4183934 39.5983975,23.8676443 33.46875,23.84375 C27.5958952,23.8657878 21.7282939,23.4899272 15.90625,22.71875 C8.6875,21.59375 4.96875,20.03125 3.5625,19.46875 L3.90625,18.78125 C7.875,20.34375 11.625,21.28125 16,21.96875 C21.779556,22.7491349 27.6055056,23.1354434 33.4375,23.125 C39.5354056,23.131394 45.6252689,22.6822274 51.65625,21.78125 C58.6875,20.625 62.53125,19.15625 63.09375,18.5 L63.59375,19.34375 L63.59375,19.3125 Z M62.21875,16.78125 C61.46875,17.40625 57.65625,18.75 50.96875,19.8125 C45.1938759,20.6479868 39.3662477,21.0657379 33.53125,21.0625 C26.65625,21.0625 21,20.5625 16.71875,19.9375 C9.90625,19.0625 6.28125,17.4375 4.96875,17 L5.375,16.3125 C6.40625,16.84375 9.875,18.25 16.78125,19.21875 C22.3330425,19.9623988 27.9299908,20.3174291 33.53125,20.28125 C39.3246914,20.283042 45.1106569,19.8652827 50.84375,19.03125 C57.5625,18.09375 61.1875,16.40625 61.75,15.96875 L62.21875,16.78125 Z M0.40625,35.625 C6.59375,38.96875 20.375,40.625 33.40625,40.75 C45.28125,40.78125 60.71875,38.9375 66.5,35.875 L66.34375,32.53125 C64.53125,35.34375 47.96875,38.0625 33.28125,37.96875 C18.59375,37.84375 4.9375,35.59375 0.375,32.65625 L0.375,35.625 L0.40625,35.625 Z" id="Shape"></path>
                    <path d="M66.8125,35.15625 L66.8125,35.9375 C65.9375,37 60.5,38.5625 53.6875,39.6875 C46.9194011,40.660366 40.0874208,41.1200099 33.25,41.0625 C26.7665908,41.1177436 20.28871,40.6684713 13.875,39.71875 C9.08924772,39.1657103 4.41277674,37.9017992 -2.84217094e-14,35.96875 L-2.84217094e-14,35.0625 C3.03125,37.0625 11.21875,38.5625 13.96875,39 C18.90625,39.75 25.25,40.3125 33.25,40.3125 C41.65625,40.3125 48.375,39.71875 53.5625,38.9375 C58.46875,38.21875 65.4375,36.375 66.8125,35.15625 Z M66.8125,32.34375 L66.8125,33.125 C65.9375,34.15625 60.5,35.71875 53.6875,36.84375 C46.9201946,37.8270711 40.0882102,38.2971618 33.25,38.25 C26.767121,38.2881574 20.2905436,37.8389754 13.875,36.90625 C9.08924772,36.3532103 4.41277674,35.0892992 -5.68434189e-14,33.15625 L-5.68434189e-14,32.21875 C3.03125,34.25 11.25,35.71875 13.96875,36.15625 C20.3525765,37.0913713 26.798175,37.5405784 33.25,37.5 C41.65625,37.5 48.40625,36.875 53.5625,36.09375 C58.46875,35.40625 65.4375,33.5625 66.8125,32.34375 Z M33.375,53.84375 C19.125,53.78125 6.90625,49.96875 4.3125,49.34375 L6.1875,52.28125 C14.9528396,55.3856851 24.2023401,56.8990473 33.5,56.75 C44.34375,56.4375 53.8125,55.59375 60.46875,52.34375 L62.40625,49.28125 C57.875,51.4375 42.40625,53.84375 33.34375,53.84375 L33.375,53.84375 Z" id="Shape"></path>
                    <path d="M61.21875,51.65625 C60.9342185,52.077866 60.6425093,52.4945934 60.34375,52.90625 C57.21875,54.03125 52.21875,55.21875 50.15625,55.53125 C44.621823,56.5625247 39.0046841,57.0855357 33.375,57.09375 C20.75,56.90625 10.40625,54.4375 5.5625,52.3125 L5.15625,51.65625 L5.21875,51.53125 L5.875,51.8125 C14.7688524,54.755626 24.0695169,56.2846468 33.4375,56.34375 C39.3125,56.34375 45.15625,55.6875 49.875,54.84375 C57.125,53.375 60.0625,52.28125 60.96875,51.78125 L61.1875,51.65625 L61.21875,51.65625 Z M62.875,48.90625 C62.6692279,49.2722909 62.4608894,49.6368833 62.25,50 C60.5625,50.625 56,51.9375 49.34375,52.875 C44.96875,53.46875 42.25,54.0625 33.53125,54.21875 C23.5644381,54.1186857 13.6588854,52.6465229 4.09375,49.84375 L3.75,49.0625 C13.4682728,51.7483989 23.4822876,53.2179608 33.5625,53.4375 C41.53125,53.28125 44.9375,52.6875 49.28125,52.09375 C57.03125,50.90625 60.9375,49.59375 62.09375,49.25 C62.0944686,49.2291729 62.0944686,49.2083271 62.09375,49.1875 L62.90625,48.875 L62.875,48.90625 Z" id="Shape"></path>
                    <path d="M63.0625,33 C63.09375,42.375 58.28125,50.8125 54.4375,54.5 C48.760452,60.0368211 41.1790787,63.1901356 33.25,63.3125 C23.78125,63.46875 14.875,57.3125 12.46875,54.59375 C7.08571244,48.8851691 4.02196778,41.3762095 3.875,33.53125 C4.4375,23.28125 8.46875,16.15625 14.28125,11.25 C19.9276389,6.60178392 27.030524,4.09032768 34.34375,4.15625 C42.9761919,4.57477898 51.031964,8.61401117 56.53125,15.28125 C60.4375,20.03125 62.15625,25.1875 63.0625,33 Z M33.3125,0.9375 C51.5097443,0.936981737 66.3001623,15.6157739 66.4375,33.8125 C66.4375,52.0551556 51.6489056,66.84375 33.40625,66.84375 C15.1635944,66.84375 0.375,52.0551556 0.375,33.8125 C0.34375,15.6875 15.15625,0.9375 33.3125,0.9375 Z" id="Shape"></path>
                    <path d="M33.40625,0.78125 C51.59375,0.78125 66.40625,15.59375 66.40625,33.78125 C66.40625,51.96875 51.59375,66.78125 33.4375,66.78125 C15.28125,66.78125 0.4375,51.96875 0.4375,33.78125 C0.4375,15.59375 15.25,0.78125 33.4375,0.78125 L33.40625,0.78125 Z M1.125,33.75 C1.125,51.5 15.71875,66.03125 33.40625,66.03125 C51.09375,66.03125 65.6875,51.5 65.6875,33.75 C65.6875,16 51.09375,1.46875 33.40625,1.46875 C15.71875,1.46875 1.125,16 1.125,33.75 Z" id="Shape"></path>
                    <path d="M33.4375,3.53125 C50.1054881,3.58272125 63.6047787,17.0820119 63.65625,33.75 C63.6048777,50.4231038 50.1105418,63.9313946 33.4375,64 C16.875,64 3.21875,50.375 3.21875,33.75 C3.28724378,17.0890987 16.7765987,3.59974378 33.4375,3.53125 Z M3.9375,33.75 C3.9375,50 17.25,63.25 33.4375,63.25 C49.625,63.25 62.9375,49.96875 62.9375,33.75 C62.9375,17.5 49.625,4.25 33.4375,4.25 C17.17355,4.3184807 4.0059807,17.48605 3.9375,33.75 Z" id="Shape"></path>
                    <polygon id="Path" points="34.78125 0.625 31.9375 0.625 31.9375 66.96875 34.75 66.96875"></polygon>
                    <path d="M34.46875,0.25 L35.1875,0.25 L35.1875,67.34375 L34.5,67.34375 L34.5,0.25 L34.46875,0.25 Z M31.65625,0.25 L32.40625,0.25 L32.40625,67.34375 L31.6875,67.34375 L31.6875,0.25 L31.65625,0.25 Z" id="Shape"></path>
                    <polygon id="Path" points="66.4375 35.0625 66.4375 32.625 64.4375 30.75 53.09375 27.75 36.78125 26.09375 17.09375 27.09375 3.09375 30.40625 0.28125 32.5 0.28125 34.96875 7.4375 31.75 24.4375 29.09375 40.78125 29.09375 52.78125 30.40625 61.09375 32.40625"></polygon>
                    <path d="M33.4375,28.6875 C41.21875,28.6875 48.75,29.40625 54.78125,30.5625 C60.96875,31.8125 65.3125,33.375 66.8125,35.09375 L66.8125,35.96875 C65,33.78125 59.15625,32.21875 54.625,31.28125 C48.6875,30.15625 41.1875,29.40625 33.40625,29.40625 C25.25,29.40625 17.625,30.21875 11.75,31.34375 C7.0625,32.28125 0.78125,34.15625 2.84217094e-14,35.96875 L2.84217094e-14,35.0625 C0.40625,33.8125 5.09375,31.9375 11.65625,30.59375 C17.5625,29.4375 25.1875,28.6875 33.40625,28.6875 L33.4375,28.6875 Z M33.4375,25.84375 C40.593831,25.8294012 47.7370289,26.456915 54.78125,27.71875 C60.96875,28.96875 65.3125,30.53125 66.8125,32.28125 L66.8125,33.125 C65,30.96875 59.15625,29.375 54.625,28.46875 C48.6875,27.3125 41.1875,26.59375 33.40625,26.59375 C26.1535687,26.5707949 18.9143386,27.2193964 11.78125,28.53125 C7.25,29.375 0.71875,31.3125 0,33.125 L0,32.25 C0.4375,31 5.1875,29.03125 11.65625,27.78125 C17.59375,26.625 25.1875,25.84375 33.4375,25.84375 Z M33.25,11.40625 C45.53125,11.34375 56.25,13.125 61.15625,15.625 L62.9375,18.75 C58.6875,16.4375 47.125,14.0625 33.28125,14.375 C22,14.46875 9.9375,15.625 3.90625,18.875 L6.03125,15.3125 C11,12.71875 22.6875,11.40625 33.25,11.40625 Z" id="Shape"></path>
                    <path d="M33.4375,13.96875 C39.8497956,13.860552 46.259355,14.3101622 52.59375,15.3125 C57.59375,16.25 62.375,17.625 63.0625,18.375 L63.59375,19.3125 C61.9375,18.25 57.78125,17.03125 52.46875,16.03125 C47.15625,15.03125 40.375,14.6875 33.40625,14.71875 C25.5,14.6875 19.34375,15.09375 14.09375,16.03125 C10.4746774,16.5384699 6.96092738,17.6253055 3.6875,19.25 L4.21875,18.28125 C6.09375,17.34375 9,16.1875 13.9375,15.28125 C19.40625,14.28125 25.625,14 33.4375,13.96875 Z M33.4375,11.15625 C40.125,11.09375 46.75,11.46875 51.90625,12.40625 C55.2469277,12.9022343 58.479874,13.9587527 61.46875,15.53125 L62.25,16.78125 C60.9375,15.3125 56,13.90625 51.59375,13.15625 C46.46875,12.25 40.125,11.90625 33.4375,11.84375 C27.212261,11.7882561 20.9931105,12.2481596 14.84375,13.21875 C11.6283759,13.6667827 8.50550032,14.626856 5.59375,16.0625 L6.28125,15.03125 C8.09375,14.09375 11.03125,13.21875 14.71875,12.5 C20.9086329,11.5166774 27.1703706,11.0567167 33.4375,11.125 L33.4375,11.15625 Z M49.8125,47.5 C44.3959859,46.5622176 38.9023169,46.1436524 33.40625,46.25 C12.9375,46.5 6.34375,50.46875 5.53125,51.65625 L3.96875,49.15625 C9.21875,45.40625 20.34375,43.28125 33.53125,43.46875 C40.375,43.59375 46.28125,44.0625 51.21875,45.03125 L49.8125,47.53125 L49.8125,47.5 Z" id="Shape"></path>
                    <path d="M33.3125,45.90625 C39,46 44.5625,46.21875 49.96875,47.21875 L49.59375,47.90625 C44.59375,46.96875 39.21875,46.65625 33.34375,46.65625 C25.75,46.59375 18.125,47.3125 11.46875,49.21875 C9.375,49.8125 5.90625,51.15625 5.53125,52.28125 L5.15625,51.65625 C5.28125,50.96875 7.34375,49.59375 11.28125,48.53125 C18.90625,46.34375 26.03125,45.9375 33.3125,45.90625 Z M33.5625,43.03125 C39.5655584,43.025116 45.5574816,43.5479714 51.46875,44.59375 L51.0625,45.3125 C45.290198,44.2536466 39.4309767,43.7409648 33.5625,43.78125 C26,43.78125 17.96875,44.34375 10.65625,46.46875 C8.3125,47.15625 4.21875,48.65625 4.09375,49.8125 L3.71875,49.125 C3.78125,48.0625 7.3125,46.65625 10.5,45.75 C17.84375,43.59375 25.90625,43.0625 33.5625,43.03125 Z" id="Shape"></path>
                    <polygon id="Path" points="62.625 49.53125 60.1875 53.375 53.09375 47.09375 34.78125 34.75 14.09375 23.40625 3.375 19.75 5.65625 15.5 6.4375 15.09375 13.09375 16.75 35.09375 28.09375 47.78125 36.09375 58.4375 43.75 62.78125 48.75"></polygon>
                    <path d="M3,19.84375 C4.875,18.59375 18.6875,24.71875 33.1875,33.46875 C47.59375,42.21875 61.40625,52.09375 60.15625,53.9375 L59.75,54.59375 L59.5625,54.75 C59.59375,54.71875 59.8125,54.4375 59.5625,53.78125 C58.9375,51.75 49.125,43.9375 32.90625,34.125 C17.0625,24.71875 3.875,19.03125 2.59375,20.65625 L3,19.84375 Z M63.125,49.5 C64.3125,47.125 51.5,37.46875 35.59375,28.0625 C19.34375,18.84375 7.59375,13.40625 5.4375,15.03125 L5,15.9375 C5,15.96875 5,15.875 5.125,15.78125 C5.5,15.46875 6.15625,15.46875 6.4375,15.46875 C10.125,15.53125 20.65625,20.375 35.4375,28.84375 C41.9375,32.59375 62.8125,46.03125 62.71875,49.78125 C62.71875,50.09375 62.75,50.15625 62.625,50.34375 L63.15625,49.53125 L63.125,49.5 Z" id="Shape"></path>
                </g>
                <g id="Group" transform="translate(60.000187, 52.010553)">
                    <path d="M0.200000625,26.66675 C0.209989278,31.8932214 2.31051423,36.8984723 6.03335219,40.5667934 C9.71064667,44.3006795 14.7261224,46.4124588 19.9667291,46.4334784 C25.217887,46.4330996 30.2538329,44.3467791 33.9667728,40.6334603 C37.6761851,36.9451746 39.7633977,31.9310661 39.7667909,26.7000834 L39.7667909,0.300000938 L0.200000625,0.233334063 L0.200000625,26.66675 Z" id="Path" stroke="#000000" stroke-width="0.37" fill="#FFFFFF"></path>
                    <path d="M0.93333625,26.7000834 C0.947550116,31.7134341 2.96355772,36.5134522 6.53335375,40.0334584 C10.0822367,43.60094 14.9013831,45.6149116 19.9333956,45.6334759 C24.9565773,45.6362433 29.7757185,43.6462496 33.3334375,40.1001253 C36.8909955,36.5746161 38.8947168,31.7752835 38.9001216,26.7667503 L38.9001216,1.10000344 L1.00000312,1.10000344 L1.00000312,26.7000834 L0.93333625,26.7000834 Z M31.3334312,8.8000275 L31.3334312,25.1000784 L31.3000978,26.8000838 C31.3227919,29.8090319 30.1192651,32.6974961 27.9667541,34.8001088 C25.8470076,36.9272207 22.9697069,38.126096 19.9667291,38.1334525 C16.8333859,38.1334525 14.0667106,36.800115 12.0000375,34.7334419 C9.87292556,32.6136955 8.67405026,29.7363947 8.66669375,26.7334169 L8.66669375,8.73336063 L31.3334312,8.8000275 Z" id="Shape" stroke="#000000" stroke-width="0.25" fill="#FF0000" fill-rule="nonzero"></path>
                    <g id="e" transform="translate(1.666672, 1.333338)">
                        <g id="d">
                            <path d="M1.73333875,6.46668688 C1.76667219,4.63334781 3.06667625,4.20001312 3.06667625,4.20001312 C3.10000969,4.20001312 4.50001406,4.66668125 4.50001406,6.50002031 L1.73333875,6.50002031" id="Path" fill="#FFFF00"></path>
                            <path d="M0.600001875,4.23334656 L0.366667813,6.33335312 L1.76667219,6.33335312 C1.76667219,4.60001438 3.10000969,4.33334687 3.10000969,4.33334687 C3.13334313,4.33334687 4.43334719,4.70001469 4.46668063,6.33335312 L5.866685,6.33335312 L5.6000175,4.20001312 L0.600001875,4.20001312 L0.600001875,4.23334656 Z M0.2666675,6.36668656 L5.93335188,6.36668656 C6.03335219,6.36668656 6.1333525,6.46668688 6.1333525,6.60002062 C6.1333525,6.76668781 6.03335219,6.86668812 5.93335188,6.86668812 L0.2666675,6.86668812 C0.166667187,6.86668812 0.066666875,6.76668781 0.066666875,6.60002062 C0.066666875,6.46668687 0.166667188,6.36668656 0.300000938,6.36668656 L0.2666675,6.36668656 Z" id="Shape" stroke="#000000" stroke-width="0.25" fill="#FFFF00" fill-rule="nonzero"></path>
                            <path d="M2.33334063,6.33335312 C2.33334063,5.23334969 3.10000969,4.93334875 3.10000969,4.93334875 C3.10000969,4.93334875 3.86667875,5.26668313 3.86667875,6.33335312 L2.33334063,6.33335312 Z M0.40000125,3.33334375 L5.83335156,3.33334375 C5.93335188,3.33334375 6.03335219,3.4666775 6.03335219,3.60001125 C6.03335219,3.70001156 5.93335187,3.80001188 5.83335156,3.80001188 L0.40000125,3.80001188 C0.300000937,3.80001188 0.200000625,3.70001156 0.200000625,3.56667781 C0.200000625,3.4666775 0.300000938,3.36667719 0.40000125,3.36667719 L0.40000125,3.33334375 Z M0.533335,3.83334531 L5.66668437,3.83334531 C5.76668469,3.83334531 5.866685,3.93334563 5.866685,4.06667937 C5.866685,4.20001312 5.76668469,4.30001344 5.66668437,4.30001344 L0.500001562,4.30001344 C0.366667812,4.30001344 0.300000938,4.20001312 0.300000938,4.06667937 C0.300000938,3.93334562 0.366667812,3.83334531 0.500001562,3.83334531 L0.533335,3.83334531 Z M2.20000687,0.300000938 L2.60000812,0.300000938 L2.60000812,0.566668438 L2.90000906,0.566668438 L2.90000906,0.300000938 L3.33334375,0.300000938 L3.33334375,0.600001875 L3.63334469,0.600001875 L3.63334469,0.2666675 L4.03334594,0.2666675 L4.03334594,0.93333625 C4.03334594,1.06667 3.96667906,1.13333688 3.86667875,1.13333688 L2.4000075,1.13333688 C2.30000719,1.13333688 2.20000687,1.06667 2.20000687,0.966669688 L2.20000687,0.300000938 Z M3.733345,1.20000375 L3.83334531,3.33334375 L2.4000075,3.33334375 L2.50000781,1.16667031 L3.733345,1.16667031 L3.733345,1.20000375 Z" id="Shape" stroke="#000000" stroke-width="0.25" fill="#FFFF00" fill-rule="nonzero"></path>
                            <polygon id="a" stroke="#000000" stroke-width="0.25" fill="#FFFF00" points="2.00000625 2.20000687 2.00000625 3.33334375 0.66666875 3.33334375 0.66666875 2.20000687"></polygon>
                            <g id="a-link" transform="translate(4.200013, 2.000006)" fill="#FFFF00" stroke="#000000" stroke-width="0.25">
                                <polygon id="a" points="1.3333375 0.200000625 1.3333375 1.3333375 0 1.3333375 0 0.200000625"></polygon>
                            </g>
                            <path d="M0.433334687,1.3333375 L0.833335937,1.3333375 L0.833335937,1.66667188 L1.13333688,1.66667188 L1.13333688,1.3333375 L1.53333812,1.3333375 L1.53333812,1.66667188 L1.83333906,1.66667188 L1.83333906,1.3333375 L2.23334031,1.3333375 L2.23334031,2.00000625 C2.23334031,2.13334 2.16667344,2.20000687 2.06667312,2.20000687 L0.633335312,2.20000687 C0.522878017,2.20000687 0.433334687,2.11046355 0.433334687,2.00000625 L0.433334687,1.3333375 Z" id="b" stroke="#000000" stroke-width="0.25" fill="#FFFF00"></path>
                            <g id="b-link" transform="translate(3.866679, 1.333338)" fill="#FFFF00" stroke="#000000" stroke-width="0.25">
                                <path d="M0.100000312,0 L0.500001563,0 L0.500001563,0.333334375 L0.8000025,0.333334375 L0.8000025,0 L1.20000375,0 L1.20000375,0.333334375 L1.50000469,0.333334375 L1.50000469,0 L1.90000594,0 L1.90000594,0.66666875 C1.90000594,0.8000025 1.83333906,0.866669375 1.73333875,0.866669375 L0.300000937,0.866669375 C0.189543642,0.866669375 0.100000312,0.777126045 0.100000312,0.66666875 L0.100000312,0 Z" id="b"></path>
                            </g>
                            <path d="M2.96667594,1.8666725 C2.96667594,1.66667188 3.26667688,1.66667188 3.26667688,1.8666725 L3.26667688,2.4000075 L2.96667594,2.4000075 L2.96667594,1.8666725" id="Path" fill="#000000"></path>
                            <path d="M1.20000375,2.60000813 C1.20000375,2.4000075 1.46667125,2.4000075 1.46667125,2.60000813 L1.46667125,3.00000937 L1.20000375,3.00000937 L1.20000375,2.60000813" id="c" fill="#000000"></path>
                            <g id="c-link" transform="translate(4.533347, 2.333341)" fill="#000000">
                                <path d="M0.3,0.4 C0.3,0.1 0.7,0.1 0.7,0.4 L0.7,1 L0.3,1 L0.3,0.4" id="c"></path>
                            </g>
                        </g>
                        <g id="d-link" transform="translate(0.000000, 15.433382)">
                            <g id="d">
                                <path d="M1.73333875,6.46668687 C1.76667219,4.63334781 3.06667625,4.20001312 3.06667625,4.20001312 C3.10000969,4.20001312 4.50001406,4.66668125 4.50001406,6.50002031 L1.73333875,6.50002031" id="Path" fill="#FFFF00"></path>
                                <path d="M0.600001875,4.23334656 L0.366667813,6.33335312 L1.76667219,6.33335312 C1.76667219,4.60001437 3.10000969,4.33334687 3.10000969,4.33334687 C3.13334313,4.33334687 4.43334719,4.70001469 4.46668063,6.33335312 L5.866685,6.33335312 L5.6000175,4.20001312 L0.600001875,4.20001312 L0.600001875,4.23334656 Z M0.2666675,6.36668656 L5.93335188,6.36668656 C6.03335219,6.36668656 6.1333525,6.46668687 6.1333525,6.60002062 C6.1333525,6.76668781 6.03335219,6.86668812 5.93335188,6.86668812 L0.2666675,6.86668812 C0.166667187,6.86668812 0.066666875,6.76668781 0.066666875,6.60002062 C0.066666875,6.46668687 0.166667188,6.36668656 0.300000938,6.36668656 L0.2666675,6.36668656 Z" id="Shape" stroke="#000000" stroke-width="0.25" fill="#FFFF00" fill-rule="nonzero"></path>
                                <path d="M2.33334063,6.33335312 C2.33334063,5.23334969 3.10000969,4.93334875 3.10000969,4.93334875 C3.10000969,4.93334875 3.86667875,5.26668313 3.86667875,6.33335312 L2.33334063,6.33335312 Z M0.40000125,3.33334375 L5.83335156,3.33334375 C5.93335188,3.33334375 6.03335219,3.4666775 6.03335219,3.60001125 C6.03335219,3.70001156 5.93335187,3.80001188 5.83335156,3.80001188 L0.40000125,3.80001188 C0.300000937,3.80001188 0.200000625,3.70001156 0.200000625,3.56667781 C0.200000625,3.4666775 0.300000938,3.36667719 0.40000125,3.36667719 L0.40000125,3.33334375 Z M0.533335,3.83334531 L5.66668437,3.83334531 C5.76668469,3.83334531 5.866685,3.93334563 5.866685,4.06667937 C5.866685,4.20001312 5.76668469,4.30001344 5.66668437,4.30001344 L0.500001562,4.30001344 C0.366667812,4.30001344 0.300000938,4.20001312 0.300000938,4.06667937 C0.300000938,3.93334562 0.366667812,3.83334531 0.500001562,3.83334531 L0.533335,3.83334531 Z M2.20000687,0.300000938 L2.60000812,0.300000938 L2.60000812,0.566668438 L2.90000906,0.566668438 L2.90000906,0.300000938 L3.33334375,0.300000938 L3.33334375,0.600001875 L3.63334469,0.600001875 L3.63334469,0.2666675 L4.03334594,0.2666675 L4.03334594,0.93333625 C4.03334594,1.06667 3.96667906,1.13333688 3.86667875,1.13333688 L2.4000075,1.13333688 C2.30000719,1.13333688 2.20000687,1.06667 2.20000687,0.966669688 L2.20000687,0.300000938 Z M3.733345,1.20000375 L3.83334531,3.33334375 L2.4000075,3.33334375 L2.50000781,1.16667031 L3.733345,1.16667031 L3.733345,1.20000375 Z" id="Shape" stroke="#000000" stroke-width="0.25" fill="#FFFF00" fill-rule="nonzero"></path>
                                <polygon id="a" stroke="#000000" stroke-width="0.25" fill="#FFFF00" points="2.00000625 2.20000687 2.00000625 3.33334375 0.66666875 3.33334375 0.66666875 2.20000687"></polygon>
                                <g id="a-link" transform="translate(4.200013, 2.000006)" fill="#FFFF00" stroke="#000000" stroke-width="0.25">
                                    <polygon id="a" points="1.3333375 0.200000625 1.3333375 1.3333375 0 1.3333375 0 0.200000625"></polygon>
                                </g>
                                <path d="M0.433334687,1.3333375 L0.833335937,1.3333375 L0.833335937,1.66667188 L1.13333688,1.66667188 L1.13333688,1.3333375 L1.53333812,1.3333375 L1.53333812,1.66667188 L1.83333906,1.66667188 L1.83333906,1.3333375 L2.23334031,1.3333375 L2.23334031,2.00000625 C2.23334031,2.13334 2.16667344,2.20000687 2.06667312,2.20000687 L0.633335312,2.20000687 C0.522878017,2.20000687 0.433334687,2.11046355 0.433334687,2.00000625 L0.433334687,1.3333375 Z" id="b" stroke="#000000" stroke-width="0.25" fill="#FFFF00"></path>
                                <g id="b-link" transform="translate(3.866679, 1.333338)" fill="#FFFF00" stroke="#000000" stroke-width="0.25">
                                    <path d="M0.100000312,0 L0.500001563,0 L0.500001563,0.333334375 L0.8000025,0.333334375 L0.8000025,0 L1.20000375,0 L1.20000375,0.333334375 L1.50000469,0.333334375 L1.50000469,0 L1.90000594,0 L1.90000594,0.66666875 C1.90000594,0.8000025 1.83333906,0.866669375 1.73333875,0.866669375 L0.300000937,0.866669375 C0.189543642,0.866669375 0.100000312,0.777126045 0.100000312,0.66666875 L0.100000312,0 Z" id="b"></path>
                                </g>
                                <path d="M2.96667594,1.8666725 C2.96667594,1.66667187 3.26667688,1.66667187 3.26667688,1.8666725 L3.26667688,2.4000075 L2.96667594,2.4000075 L2.96667594,1.8666725" id="Path" fill="#000000"></path>
                                <path d="M1.20000375,2.60000813 C1.20000375,2.4000075 1.46667125,2.4000075 1.46667125,2.60000813 L1.46667125,3.00000937 L1.20000375,3.00000937 L1.20000375,2.60000813" id="c" fill="#000000"></path>
                                <g id="c-link" transform="translate(4.533347, 2.333341)" fill="#000000">
                                    <path d="M0.3,0.4 C0.3,0.1 0.7,0.1 0.7,0.4 L0.7,1 L0.3,1 L0.3,0.4" id="c"></path>
                                </g>
                            </g>
                        </g>
                        <g id="d-link" transform="translate(6.653882, 34.877555) rotate(-45.200000) translate(-6.653882, -34.877555) translate(3.487205, 31.377544)">
                            <g id="d">
                                <path d="M1.73333875,6.46668687 C1.76667219,4.63334781 3.06667625,4.20001312 3.06667625,4.20001312 C3.10000969,4.20001312 4.50001406,4.66668125 4.50001406,6.50002031 L1.73333875,6.50002031" id="Path" fill="#FFFF00"></path>
                                <path d="M0.600001875,4.23334656 L0.366667813,6.33335312 L1.76667219,6.33335312 C1.76667219,4.60001438 3.10000969,4.33334687 3.10000969,4.33334687 C3.13334313,4.33334687 4.43334719,4.70001469 4.46668063,6.33335312 L5.866685,6.33335312 L5.6000175,4.20001312 L0.600001875,4.20001312 L0.600001875,4.23334656 Z M0.2666675,6.36668656 L5.93335188,6.36668656 C6.03335219,6.36668656 6.1333525,6.46668687 6.1333525,6.60002062 C6.1333525,6.76668781 6.03335219,6.86668812 5.93335188,6.86668812 L0.2666675,6.86668812 C0.166667187,6.86668812 0.066666875,6.76668781 0.066666875,6.60002062 C0.066666875,6.46668687 0.166667188,6.36668656 0.300000938,6.36668656 L0.2666675,6.36668656 Z" id="Shape" stroke="#000000" stroke-width="0.25" fill="#FFFF00" fill-rule="nonzero"></path>
                                <path d="M2.33334063,6.33335312 C2.33334063,5.23334969 3.10000969,4.93334875 3.10000969,4.93334875 C3.10000969,4.93334875 3.86667875,5.26668313 3.86667875,6.33335312 L2.33334063,6.33335312 Z M0.40000125,3.33334375 L5.83335156,3.33334375 C5.93335188,3.33334375 6.03335219,3.4666775 6.03335219,3.60001125 C6.03335219,3.70001156 5.93335187,3.80001187 5.83335156,3.80001187 L0.40000125,3.80001187 C0.300000937,3.80001187 0.200000625,3.70001156 0.200000625,3.56667781 C0.200000625,3.4666775 0.300000938,3.36667719 0.40000125,3.36667719 L0.40000125,3.33334375 Z M0.533335,3.83334531 L5.66668438,3.83334531 C5.76668469,3.83334531 5.866685,3.93334563 5.866685,4.06667937 C5.866685,4.20001312 5.76668469,4.30001344 5.66668438,4.30001344 L0.500001563,4.30001344 C0.366667812,4.30001344 0.300000938,4.20001312 0.300000938,4.06667937 C0.300000938,3.93334562 0.366667812,3.83334531 0.500001563,3.83334531 L0.533335,3.83334531 Z M2.20000687,0.300000938 L2.60000812,0.300000938 L2.60000812,0.566668438 L2.90000906,0.566668438 L2.90000906,0.300000938 L3.33334375,0.300000938 L3.33334375,0.600001875 L3.63334469,0.600001875 L3.63334469,0.2666675 L4.03334594,0.2666675 L4.03334594,0.93333625 C4.03334594,1.06667 3.96667906,1.13333688 3.86667875,1.13333688 L2.4000075,1.13333688 C2.30000719,1.13333688 2.20000687,1.06667 2.20000687,0.966669688 L2.20000687,0.300000938 Z M3.733345,1.20000375 L3.83334531,3.33334375 L2.4000075,3.33334375 L2.50000781,1.16667031 L3.733345,1.16667031 L3.733345,1.20000375 Z" id="Shape" stroke="#000000" stroke-width="0.25" fill="#FFFF00" fill-rule="nonzero"></path>
                                <polygon id="a" stroke="#000000" stroke-width="0.25" fill="#FFFF00" points="2.00000625 2.20000687 2.00000625 3.33334375 0.66666875 3.33334375 0.66666875 2.20000687"></polygon>
                                <g id="a-link" transform="translate(4.200013, 2.000006)" fill="#FFFF00" stroke="#000000" stroke-width="0.25">
                                    <polygon id="a" points="1.3333375 0.200000625 1.3333375 1.3333375 0 1.3333375 0 0.200000625"></polygon>
                                </g>
                                <path d="M0.433334687,1.3333375 L0.833335938,1.3333375 L0.833335938,1.66667187 L1.13333688,1.66667187 L1.13333688,1.3333375 L1.53333812,1.3333375 L1.53333812,1.66667187 L1.83333906,1.66667187 L1.83333906,1.3333375 L2.23334031,1.3333375 L2.23334031,2.00000625 C2.23334031,2.13334 2.16667344,2.20000687 2.06667312,2.20000687 L0.633335312,2.20000687 C0.522878017,2.20000687 0.433334687,2.11046355 0.433334687,2.00000625 L0.433334687,1.3333375 Z" id="b" stroke="#000000" stroke-width="0.25" fill="#FFFF00"></path>
                                <g id="b-link" transform="translate(3.866679, 1.333337)" fill="#FFFF00" stroke="#000000" stroke-width="0.25">
                                    <path d="M0.100000312,0 L0.500001563,0 L0.500001563,0.333334375 L0.8000025,0.333334375 L0.8000025,0 L1.20000375,0 L1.20000375,0.333334375 L1.50000469,0.333334375 L1.50000469,0 L1.90000594,0 L1.90000594,0.66666875 C1.90000594,0.8000025 1.83333906,0.866669375 1.73333875,0.866669375 L0.300000937,0.866669375 C0.189543642,0.866669375 0.100000312,0.777126045 0.100000312,0.66666875 L0.100000312,0 Z" id="b"></path>
                                </g>
                                <path d="M2.96667594,1.8666725 C2.96667594,1.66667187 3.26667688,1.66667187 3.26667688,1.8666725 L3.26667688,2.4000075 L2.96667594,2.4000075 L2.96667594,1.8666725" id="Path" fill="#000000"></path>
                                <path d="M1.20000375,2.60000813 C1.20000375,2.4000075 1.46667125,2.4000075 1.46667125,2.60000813 L1.46667125,3.00000937 L1.20000375,3.00000937 L1.20000375,2.60000813" id="c" fill="#000000"></path>
                                <g id="c-link" transform="translate(4.533347, 2.333341)" fill="#000000">
                                    <path d="M0.3,0.4 C0.3,0.1 0.7,0.1 0.7,0.4 L0.7,1 L0.3,1 L0.3,0.4" id="c"></path>
                                </g>
                            </g>
                        </g>
                    </g>
                    <g id="d-link" transform="translate(16.900053, 1.333338)">
                        <g id="d">
                            <path d="M1.73333875,6.46668688 C1.76667219,4.63334781 3.06667625,4.20001312 3.06667625,4.20001312 C3.10000969,4.20001312 4.50001406,4.66668125 4.50001406,6.50002031 L1.73333875,6.50002031" id="Path" fill="#FFFF00"></path>
                            <path d="M0.600001875,4.23334656 L0.366667813,6.33335313 L1.76667219,6.33335313 C1.76667219,4.60001438 3.10000969,4.33334688 3.10000969,4.33334688 C3.13334313,4.33334688 4.43334719,4.70001469 4.46668063,6.33335313 L5.866685,6.33335313 L5.6000175,4.20001312 L0.600001875,4.20001312 L0.600001875,4.23334656 Z M0.2666675,6.36668656 L5.93335188,6.36668656 C6.03335219,6.36668656 6.1333525,6.46668688 6.1333525,6.60002062 C6.1333525,6.76668781 6.03335219,6.86668812 5.93335188,6.86668812 L0.2666675,6.86668812 C0.166667188,6.86668812 0.066666875,6.76668781 0.066666875,6.60002062 C0.066666875,6.46668687 0.166667188,6.36668656 0.300000938,6.36668656 L0.2666675,6.36668656 Z" id="Shape" stroke="#000000" stroke-width="0.25" fill="#FFFF00" fill-rule="nonzero"></path>
                            <path d="M2.33334063,6.33335313 C2.33334063,5.23334969 3.10000969,4.93334875 3.10000969,4.93334875 C3.10000969,4.93334875 3.86667875,5.26668313 3.86667875,6.33335313 L2.33334063,6.33335313 Z M0.40000125,3.33334375 L5.83335156,3.33334375 C5.93335188,3.33334375 6.03335219,3.4666775 6.03335219,3.60001125 C6.03335219,3.70001156 5.93335188,3.80001188 5.83335156,3.80001188 L0.40000125,3.80001188 C0.300000938,3.80001188 0.200000625,3.70001156 0.200000625,3.56667781 C0.200000625,3.4666775 0.300000938,3.36667719 0.40000125,3.36667719 L0.40000125,3.33334375 Z M0.533335,3.83334531 L5.66668438,3.83334531 C5.76668469,3.83334531 5.866685,3.93334563 5.866685,4.06667937 C5.866685,4.20001312 5.76668469,4.30001344 5.66668438,4.30001344 L0.500001563,4.30001344 C0.366667813,4.30001344 0.300000938,4.20001312 0.300000938,4.06667937 C0.300000938,3.93334562 0.366667813,3.83334531 0.500001563,3.83334531 L0.533335,3.83334531 Z M2.20000688,0.300000938 L2.60000813,0.300000938 L2.60000813,0.566668438 L2.90000906,0.566668438 L2.90000906,0.300000938 L3.33334375,0.300000938 L3.33334375,0.600001875 L3.63334469,0.600001875 L3.63334469,0.2666675 L4.03334594,0.2666675 L4.03334594,0.93333625 C4.03334594,1.06667 3.96667906,1.13333688 3.86667875,1.13333688 L2.4000075,1.13333688 C2.30000719,1.13333688 2.20000688,1.06667 2.20000688,0.966669688 L2.20000688,0.300000938 Z M3.733345,1.20000375 L3.83334531,3.33334375 L2.4000075,3.33334375 L2.50000781,1.16667031 L3.733345,1.16667031 L3.733345,1.20000375 Z" id="Shape" stroke="#000000" stroke-width="0.25" fill="#FFFF00" fill-rule="nonzero"></path>
                            <polygon id="a" stroke="#000000" stroke-width="0.25" fill="#FFFF00" points="2.00000625 2.20000687 2.00000625 3.33334375 0.66666875 3.33334375 0.66666875 2.20000687"></polygon>
                            <g id="a-link" transform="translate(4.200013, 2.000006)" fill="#FFFF00" stroke="#000000" stroke-width="0.25">
                                <polygon id="a" points="1.3333375 0.200000625 1.3333375 1.3333375 0 1.3333375 0 0.200000625"></polygon>
                            </g>
                            <path d="M0.433334688,1.3333375 L0.833335938,1.3333375 L0.833335938,1.66667188 L1.13333688,1.66667188 L1.13333688,1.3333375 L1.53333813,1.3333375 L1.53333813,1.66667188 L1.83333906,1.66667188 L1.83333906,1.3333375 L2.23334031,1.3333375 L2.23334031,2.00000625 C2.23334031,2.13334 2.16667344,2.20000687 2.06667313,2.20000687 L0.633335313,2.20000687 C0.522878017,2.20000687 0.433334688,2.11046355 0.433334688,2.00000625 L0.433334688,1.3333375 Z" id="b" stroke="#000000" stroke-width="0.25" fill="#FFFF00"></path>
                            <g id="b-link" transform="translate(3.866679, 1.333338)" fill="#FFFF00" stroke="#000000" stroke-width="0.25">
                                <path d="M0.100000312,0 L0.500001563,0 L0.500001563,0.333334375 L0.8000025,0.333334375 L0.8000025,0 L1.20000375,0 L1.20000375,0.333334375 L1.50000469,0.333334375 L1.50000469,0 L1.90000594,0 L1.90000594,0.66666875 C1.90000594,0.8000025 1.83333906,0.866669375 1.73333875,0.866669375 L0.300000937,0.866669375 C0.189543642,0.866669375 0.100000312,0.777126045 0.100000312,0.66666875 L0.100000312,0 Z" id="b"></path>
                            </g>
                            <path d="M2.96667594,1.8666725 C2.96667594,1.66667188 3.26667688,1.66667188 3.26667688,1.8666725 L3.26667688,2.4000075 L2.96667594,2.4000075 L2.96667594,1.8666725" id="Path" fill="#000000"></path>
                            <path d="M1.20000375,2.60000813 C1.20000375,2.4000075 1.46667125,2.4000075 1.46667125,2.60000813 L1.46667125,3.00000938 L1.20000375,3.00000938 L1.20000375,2.60000813" id="c" fill="#000000"></path>
                            <g id="c-link" transform="translate(4.533348, 2.333341)" fill="#000000">
                                <path d="M0.3,0.4 C0.3,0.1 0.7,0.1 0.7,0.4 L0.7,1 L0.3,1 L0.3,0.4" id="c"></path>
                            </g>
                        </g>
                    </g>
                    <g id="e-link" transform="translate(32.433435, 21.166733) scale(-1, 1) translate(-32.433435, -21.166733) translate(26.600083, 1.333338)">
                        <g id="e">
                            <g id="d">
                                <path d="M1.73333875,6.46668688 C1.76667219,4.63334781 3.06667625,4.20001312 3.06667625,4.20001312 C3.10000969,4.20001312 4.50001406,4.66668125 4.50001406,6.50002031 L1.73333875,6.50002031" id="Path" fill="#FFFF00"></path>
                                <path d="M0.600001875,4.23334656 L0.366667813,6.33335312 L1.76667219,6.33335312 C1.76667219,4.60001438 3.10000969,4.33334687 3.10000969,4.33334687 C3.13334313,4.33334687 4.43334719,4.70001469 4.46668063,6.33335312 L5.866685,6.33335312 L5.6000175,4.20001312 L0.600001875,4.20001312 L0.600001875,4.23334656 Z M0.2666675,6.36668656 L5.93335188,6.36668656 C6.03335219,6.36668656 6.1333525,6.46668688 6.1333525,6.60002062 C6.1333525,6.76668781 6.03335219,6.86668812 5.93335188,6.86668812 L0.2666675,6.86668812 C0.166667188,6.86668812 0.066666875,6.76668781 0.066666875,6.60002062 C0.066666875,6.46668687 0.166667188,6.36668656 0.300000938,6.36668656 L0.2666675,6.36668656 Z" id="Shape" stroke="#000000" stroke-width="0.25" fill="#FFFF00" fill-rule="nonzero"></path>
                                <path d="M2.33334063,6.33335312 C2.33334063,5.23334969 3.10000969,4.93334875 3.10000969,4.93334875 C3.10000969,4.93334875 3.86667875,5.26668313 3.86667875,6.33335312 L2.33334063,6.33335312 Z M0.40000125,3.33334375 L5.83335156,3.33334375 C5.93335188,3.33334375 6.03335219,3.4666775 6.03335219,3.60001125 C6.03335219,3.70001156 5.93335187,3.80001188 5.83335156,3.80001188 L0.40000125,3.80001188 C0.300000937,3.80001188 0.200000625,3.70001156 0.200000625,3.56667781 C0.200000625,3.4666775 0.300000938,3.36667719 0.40000125,3.36667719 L0.40000125,3.33334375 Z M0.533335,3.83334531 L5.66668438,3.83334531 C5.76668469,3.83334531 5.866685,3.93334563 5.866685,4.06667937 C5.866685,4.20001312 5.76668469,4.30001344 5.66668438,4.30001344 L0.500001563,4.30001344 C0.366667812,4.30001344 0.300000938,4.20001312 0.300000938,4.06667937 C0.300000938,3.93334562 0.366667812,3.83334531 0.500001563,3.83334531 L0.533335,3.83334531 Z M2.20000687,0.300000938 L2.60000812,0.300000938 L2.60000812,0.566668438 L2.90000906,0.566668438 L2.90000906,0.300000938 L3.33334375,0.300000938 L3.33334375,0.600001875 L3.63334469,0.600001875 L3.63334469,0.2666675 L4.03334594,0.2666675 L4.03334594,0.93333625 C4.03334594,1.06667 3.96667906,1.13333688 3.86667875,1.13333688 L2.4000075,1.13333688 C2.30000719,1.13333688 2.20000687,1.06667 2.20000687,0.966669688 L2.20000687,0.300000938 Z M3.733345,1.20000375 L3.83334531,3.33334375 L2.4000075,3.33334375 L2.50000781,1.16667031 L3.733345,1.16667031 L3.733345,1.20000375 Z" id="Shape" stroke="#000000" stroke-width="0.25" fill="#FFFF00" fill-rule="nonzero"></path>
                                <polygon id="a" stroke="#000000" stroke-width="0.25" fill="#FFFF00" points="2.00000625 2.20000687 2.00000625 3.33334375 0.66666875 3.33334375 0.66666875 2.20000687"></polygon>
                                <g id="a-link" transform="translate(4.200013, 2.000006)" fill="#FFFF00" stroke="#000000" stroke-width="0.25">
                                    <polygon id="a" points="1.3333375 0.200000625 1.3333375 1.3333375 0 1.3333375 0 0.200000625"></polygon>
                                </g>
                                <path d="M0.433334687,1.3333375 L0.833335938,1.3333375 L0.833335938,1.66667187 L1.13333688,1.66667187 L1.13333688,1.3333375 L1.53333812,1.3333375 L1.53333812,1.66667187 L1.83333906,1.66667187 L1.83333906,1.3333375 L2.23334031,1.3333375 L2.23334031,2.00000625 C2.23334031,2.13334 2.16667344,2.20000687 2.06667312,2.20000687 L0.633335312,2.20000687 C0.522878017,2.20000687 0.433334687,2.11046355 0.433334687,2.00000625 L0.433334687,1.3333375 Z" id="b" stroke="#000000" stroke-width="0.25" fill="#FFFF00"></path>
                                <g id="b-link" transform="translate(3.866679, 1.333337)" fill="#FFFF00" stroke="#000000" stroke-width="0.25">
                                    <path d="M0.100000312,0 L0.500001563,0 L0.500001563,0.333334375 L0.8000025,0.333334375 L0.8000025,0 L1.20000375,0 L1.20000375,0.333334375 L1.50000469,0.333334375 L1.50000469,0 L1.90000594,0 L1.90000594,0.66666875 C1.90000594,0.8000025 1.83333906,0.866669375 1.73333875,0.866669375 L0.300000937,0.866669375 C0.189543642,0.866669375 0.100000312,0.777126045 0.100000312,0.66666875 L0.100000312,0 Z" id="b"></path>
                                </g>
                                <path d="M2.96667594,1.8666725 C2.96667594,1.66667187 3.26667688,1.66667187 3.26667688,1.8666725 L3.26667688,2.4000075 L2.96667594,2.4000075 L2.96667594,1.8666725" id="Path" fill="#000000"></path>
                                <path d="M1.20000375,2.60000813 C1.20000375,2.4000075 1.46667125,2.4000075 1.46667125,2.60000813 L1.46667125,3.00000937 L1.20000375,3.00000937 L1.20000375,2.60000813" id="c" fill="#000000"></path>
                                <g id="c-link" transform="translate(4.533348, 2.333341)" fill="#000000">
                                    <path d="M0.3,0.4 C0.3,0.1 0.7,0.1 0.7,0.4 L0.7,1 L0.3,1 L0.3,0.4" id="c"></path>
                                </g>
                            </g>
                            <g id="d-link" transform="translate(0.000000, 15.433382)">
                                <g id="d">
                                    <path d="M1.73333875,6.46668687 C1.76667219,4.63334781 3.06667625,4.20001312 3.06667625,4.20001312 C3.10000969,4.20001312 4.50001406,4.66668125 4.50001406,6.50002031 L1.73333875,6.50002031" id="Path" fill="#FFFF00"></path>
                                    <path d="M0.600001875,4.23334656 L0.366667813,6.33335312 L1.76667219,6.33335312 C1.76667219,4.60001437 3.10000969,4.33334687 3.10000969,4.33334687 C3.13334313,4.33334687 4.43334719,4.70001469 4.46668063,6.33335312 L5.866685,6.33335312 L5.6000175,4.20001312 L0.600001875,4.20001312 L0.600001875,4.23334656 Z M0.2666675,6.36668656 L5.93335188,6.36668656 C6.03335219,6.36668656 6.1333525,6.46668687 6.1333525,6.60002062 C6.1333525,6.76668781 6.03335219,6.86668812 5.93335188,6.86668812 L0.2666675,6.86668812 C0.166667188,6.86668812 0.066666875,6.76668781 0.066666875,6.60002062 C0.066666875,6.46668687 0.166667188,6.36668656 0.300000938,6.36668656 L0.2666675,6.36668656 Z" id="Shape" stroke="#000000" stroke-width="0.25" fill="#FFFF00" fill-rule="nonzero"></path>
                                    <path d="M2.33334063,6.33335313 C2.33334063,5.23334969 3.10000969,4.93334875 3.10000969,4.93334875 C3.10000969,4.93334875 3.86667875,5.26668313 3.86667875,6.33335313 L2.33334063,6.33335313 Z M0.40000125,3.33334375 L5.83335156,3.33334375 C5.93335188,3.33334375 6.03335219,3.4666775 6.03335219,3.60001125 C6.03335219,3.70001156 5.93335187,3.80001188 5.83335156,3.80001188 L0.40000125,3.80001188 C0.300000937,3.80001188 0.200000625,3.70001156 0.200000625,3.56667781 C0.200000625,3.4666775 0.300000938,3.36667719 0.40000125,3.36667719 L0.40000125,3.33334375 Z M0.533335,3.83334531 L5.66668438,3.83334531 C5.76668469,3.83334531 5.866685,3.93334563 5.866685,4.06667937 C5.866685,4.20001312 5.76668469,4.30001344 5.66668438,4.30001344 L0.500001563,4.30001344 C0.366667812,4.30001344 0.300000938,4.20001312 0.300000938,4.06667937 C0.300000938,3.93334562 0.366667812,3.83334531 0.500001563,3.83334531 L0.533335,3.83334531 Z M2.20000687,0.300000938 L2.60000812,0.300000938 L2.60000812,0.566668438 L2.90000906,0.566668438 L2.90000906,0.300000938 L3.33334375,0.300000938 L3.33334375,0.600001875 L3.63334469,0.600001875 L3.63334469,0.2666675 L4.03334594,0.2666675 L4.03334594,0.93333625 C4.03334594,1.06667 3.96667906,1.13333688 3.86667875,1.13333688 L2.4000075,1.13333688 C2.30000719,1.13333688 2.20000687,1.06667 2.20000687,0.966669688 L2.20000687,0.300000938 Z M3.733345,1.20000375 L3.83334531,3.33334375 L2.4000075,3.33334375 L2.50000781,1.16667031 L3.733345,1.16667031 L3.733345,1.20000375 Z" id="Shape" stroke="#000000" stroke-width="0.25" fill="#FFFF00" fill-rule="nonzero"></path>
                                    <polygon id="a" stroke="#000000" stroke-width="0.25" fill="#FFFF00" points="2.00000625 2.20000687 2.00000625 3.33334375 0.66666875 3.33334375 0.66666875 2.20000687"></polygon>
                                    <g id="a-link" transform="translate(4.200013, 2.000006)" fill="#FFFF00" stroke="#000000" stroke-width="0.25">
                                        <polygon id="a" points="1.3333375 0.200000625 1.3333375 1.3333375 0 1.3333375 0 0.200000625"></polygon>
                                    </g>
                                    <path d="M0.433334687,1.3333375 L0.833335938,1.3333375 L0.833335938,1.66667188 L1.13333688,1.66667188 L1.13333688,1.3333375 L1.53333812,1.3333375 L1.53333812,1.66667188 L1.83333906,1.66667188 L1.83333906,1.3333375 L2.23334031,1.3333375 L2.23334031,2.00000625 C2.23334031,2.13334 2.16667344,2.20000687 2.06667312,2.20000687 L0.633335312,2.20000687 C0.522878017,2.20000687 0.433334687,2.11046355 0.433334687,2.00000625 L0.433334687,1.3333375 Z" id="b" stroke="#000000" stroke-width="0.25" fill="#FFFF00"></path>
                                    <g id="b-link" transform="translate(3.866679, 1.333338)" fill="#FFFF00" stroke="#000000" stroke-width="0.25">
                                        <path d="M0.100000312,0 L0.500001563,0 L0.500001563,0.333334375 L0.8000025,0.333334375 L0.8000025,0 L1.20000375,0 L1.20000375,0.333334375 L1.50000469,0.333334375 L1.50000469,0 L1.90000594,0 L1.90000594,0.66666875 C1.90000594,0.8000025 1.83333906,0.866669375 1.73333875,0.866669375 L0.300000937,0.866669375 C0.189543642,0.866669375 0.100000312,0.777126045 0.100000312,0.66666875 L0.100000312,0 Z" id="b"></path>
                                    </g>
                                    <path d="M2.96667594,1.8666725 C2.96667594,1.66667187 3.26667688,1.66667187 3.26667688,1.8666725 L3.26667688,2.4000075 L2.96667594,2.4000075 L2.96667594,1.8666725" id="Path" fill="#000000"></path>
                                    <path d="M1.20000375,2.60000813 C1.20000375,2.4000075 1.46667125,2.4000075 1.46667125,2.60000813 L1.46667125,3.00000938 L1.20000375,3.00000938 L1.20000375,2.60000813" id="c" fill="#000000"></path>
                                    <g id="c-link" transform="translate(4.533348, 2.333341)" fill="#000000">
                                        <path d="M0.3,0.4 C0.3,0.1 0.7,0.1 0.7,0.4 L0.7,1 L0.3,1 L0.3,0.4" id="c"></path>
                                    </g>
                                </g>
                            </g>
                            <g id="d-link" transform="translate(6.653882, 34.877555) rotate(-45.200000) translate(-6.653882, -34.877555) translate(3.487205, 31.377544)">
                                <g id="d">
                                    <path d="M1.73333875,6.46668688 C1.76667219,4.63334781 3.06667625,4.20001312 3.06667625,4.20001312 C3.10000969,4.20001312 4.50001406,4.66668125 4.50001406,6.50002031 L1.73333875,6.50002031" id="Path" fill="#FFFF00"></path>
                                    <path d="M0.600001875,4.23334656 L0.366667813,6.33335312 L1.76667219,6.33335312 C1.76667219,4.60001438 3.10000969,4.33334687 3.10000969,4.33334687 C3.13334313,4.33334687 4.43334719,4.70001469 4.46668063,6.33335312 L5.866685,6.33335312 L5.6000175,4.20001312 L0.600001875,4.20001312 L0.600001875,4.23334656 Z M0.2666675,6.36668656 L5.93335188,6.36668656 C6.03335219,6.36668656 6.1333525,6.46668688 6.1333525,6.60002062 C6.1333525,6.76668781 6.03335219,6.86668812 5.93335188,6.86668812 L0.2666675,6.86668812 C0.166667188,6.86668812 0.066666875,6.76668781 0.066666875,6.60002062 C0.066666875,6.46668687 0.166667188,6.36668656 0.300000938,6.36668656 L0.2666675,6.36668656 Z" id="Shape" stroke="#000000" stroke-width="0.25" fill="#FFFF00" fill-rule="nonzero"></path>
                                    <path d="M2.33334063,6.33335312 C2.33334063,5.23334969 3.10000969,4.93334875 3.10000969,4.93334875 C3.10000969,4.93334875 3.86667875,5.26668313 3.86667875,6.33335312 L2.33334063,6.33335312 Z M0.40000125,3.33334375 L5.83335156,3.33334375 C5.93335188,3.33334375 6.03335219,3.4666775 6.03335219,3.60001125 C6.03335219,3.70001156 5.93335187,3.80001188 5.83335156,3.80001188 L0.40000125,3.80001188 C0.300000937,3.80001188 0.200000625,3.70001156 0.200000625,3.56667781 C0.200000625,3.4666775 0.300000938,3.36667719 0.40000125,3.36667719 L0.40000125,3.33334375 Z M0.533335,3.83334531 L5.66668438,3.83334531 C5.76668469,3.83334531 5.866685,3.93334563 5.866685,4.06667937 C5.866685,4.20001312 5.76668469,4.30001344 5.66668438,4.30001344 L0.500001563,4.30001344 C0.366667812,4.30001344 0.300000938,4.20001312 0.300000938,4.06667937 C0.300000938,3.93334562 0.366667812,3.83334531 0.500001563,3.83334531 L0.533335,3.83334531 Z M2.20000687,0.300000938 L2.60000812,0.300000938 L2.60000812,0.566668438 L2.90000906,0.566668438 L2.90000906,0.300000938 L3.33334375,0.300000938 L3.33334375,0.600001875 L3.63334469,0.600001875 L3.63334469,0.2666675 L4.03334594,0.2666675 L4.03334594,0.93333625 C4.03334594,1.06667 3.96667906,1.13333688 3.86667875,1.13333688 L2.4000075,1.13333688 C2.30000719,1.13333688 2.20000687,1.06667 2.20000687,0.966669688 L2.20000687,0.300000938 Z M3.733345,1.20000375 L3.83334531,3.33334375 L2.4000075,3.33334375 L2.50000781,1.16667031 L3.733345,1.16667031 L3.733345,1.20000375 Z" id="Shape" stroke="#000000" stroke-width="0.25" fill="#FFFF00" fill-rule="nonzero"></path>
                                    <polygon id="a" stroke="#000000" stroke-width="0.25" fill="#FFFF00" points="2.00000625 2.20000687 2.00000625 3.33334375 0.66666875 3.33334375 0.66666875 2.20000687"></polygon>
                                    <g id="a-link" transform="translate(4.200013, 2.000006)" fill="#FFFF00" stroke="#000000" stroke-width="0.25">
                                        <polygon id="a" points="1.3333375 0.200000625 1.3333375 1.3333375 0 1.3333375 0 0.200000625"></polygon>
                                    </g>
                                    <path d="M0.433334687,1.3333375 L0.833335938,1.3333375 L0.833335938,1.66667187 L1.13333688,1.66667187 L1.13333688,1.3333375 L1.53333812,1.3333375 L1.53333812,1.66667187 L1.83333906,1.66667187 L1.83333906,1.3333375 L2.23334031,1.3333375 L2.23334031,2.00000625 C2.23334031,2.13334 2.16667344,2.20000687 2.06667312,2.20000687 L0.633335312,2.20000687 C0.522878017,2.20000687 0.433334687,2.11046355 0.433334687,2.00000625 L0.433334687,1.3333375 Z" id="b" stroke="#000000" stroke-width="0.25" fill="#FFFF00"></path>
                                    <g id="b-link" transform="translate(3.866679, 1.333337)" fill="#FFFF00" stroke="#000000" stroke-width="0.25">
                                        <path d="M0.100000312,0 L0.500001563,0 L0.500001563,0.333334375 L0.8000025,0.333334375 L0.8000025,0 L1.20000375,0 L1.20000375,0.333334375 L1.50000469,0.333334375 L1.50000469,0 L1.90000594,0 L1.90000594,0.66666875 C1.90000594,0.8000025 1.83333906,0.866669375 1.73333875,0.866669375 L0.300000937,0.866669375 C0.189543642,0.866669375 0.100000312,0.777126045 0.100000312,0.66666875 L0.100000312,0 Z" id="b"></path>
                                    </g>
                                    <path d="M2.96667594,1.8666725 C2.96667594,1.66667187 3.26667688,1.66667187 3.26667688,1.8666725 L3.26667688,2.4000075 L2.96667594,2.4000075 L2.96667594,1.8666725" id="Path" fill="#000000"></path>
                                    <path d="M1.20000375,2.60000813 C1.20000375,2.4000075 1.46667125,2.4000075 1.46667125,2.60000813 L1.46667125,3.00000937 L1.20000375,3.00000937 L1.20000375,2.60000813" id="c" fill="#000000"></path>
                                    <g id="c-link" transform="translate(4.533348, 2.333341)" fill="#000000">
                                        <path d="M0.3,0.4 C0.3,0.1 0.7,0.1 0.7,0.4 L0.7,1 L0.3,1 L0.3,0.4" id="c"></path>
                                    </g>
                                </g>
                            </g>
                        </g>
                    </g>
                    <g id="f" transform="translate(17.333388, 20.000062)">
                        <path d="M0.200000625,3.80001188 C0.193967719,4.50355267 0.456196874,5.18296457 0.93333625,5.70001781 C1.38346633,6.2033371 2.02479876,6.49375179 2.70000844,6.50002031 C3.40001062,6.50002031 4.03334594,6.16668594 4.46668063,5.70001781 C4.94382,5.18296457 5.20604916,4.50355267 5.20001625,3.80001188 L5.20001625,0.200000625 L0.200000625,0.200000625 L0.200000625,3.80001188" id="Path" fill="#003399"></path>
                        <circle id="Oval" fill="#FFFFFF" cx="1.36667094" cy="1.56667156" r="1"></circle>
                        <circle id="Oval" fill="#FFFFFF" cx="4.13334625" cy="1.56667156" r="1"></circle>
                        <circle id="Oval" fill="#FFFFFF" cx="2.73334187" cy="2.90000906" r="1"></circle>
                        <circle id="Oval" fill="#FFFFFF" cx="1.36667094" cy="4.30001344" r="1"></circle>
                        <circle id="Oval" fill="#FFFFFF" cx="4.13334625" cy="4.30001344" r="1"></circle>
                    </g>
                    <g id="f-link" transform="translate(17.333388, 11.333369)">
                        <g id="f">
                            <path d="M0.200000625,3.80001188 C0.193967719,4.50355267 0.456196874,5.18296457 0.93333625,5.70001781 C1.38346633,6.2033371 2.02479876,6.49375179 2.70000844,6.50002031 C3.40001062,6.50002031 4.03334594,6.16668594 4.46668063,5.70001781 C4.94382,5.18296457 5.20604916,4.50355267 5.20001625,3.80001188 L5.20001625,0.200000625 L0.200000625,0.200000625 L0.200000625,3.80001188" id="Path" fill="#003399"></path>
                            <circle id="Oval" fill="#FFFFFF" cx="1.36667094" cy="1.56667156" r="1"></circle>
                            <circle id="Oval" fill="#FFFFFF" cx="4.13334625" cy="1.56667156" r="1"></circle>
                            <circle id="Oval" fill="#FFFFFF" cx="2.73334187" cy="2.90000906" r="1"></circle>
                            <circle id="Oval" fill="#FFFFFF" cx="1.36667094" cy="4.30001344" r="1"></circle>
                            <circle id="Oval" fill="#FFFFFF" cx="4.13334625" cy="4.30001344" r="1"></circle>
                        </g>
                    </g>
                    <g id="f-link" transform="translate(10.400032, 20.000062)">
                        <g id="f">
                            <path d="M0.200000625,3.80001188 C0.193967719,4.50355267 0.456196874,5.18296457 0.93333625,5.70001781 C1.38346633,6.2033371 2.02479876,6.49375179 2.70000844,6.50002031 C3.40001062,6.50002031 4.03334594,6.16668594 4.46668063,5.70001781 C4.94382,5.18296457 5.20604916,4.50355267 5.20001625,3.80001188 L5.20001625,0.200000625 L0.200000625,0.200000625 L0.200000625,3.80001188" id="Path" fill="#003399"></path>
                            <circle id="Oval" fill="#FFFFFF" cx="1.36667094" cy="1.56667156" r="1"></circle>
                            <circle id="Oval" fill="#FFFFFF" cx="4.13334625" cy="1.56667156" r="1"></circle>
                            <circle id="Oval" fill="#FFFFFF" cx="2.73334187" cy="2.90000906" r="1"></circle>
                            <circle id="Oval" fill="#FFFFFF" cx="1.36667094" cy="4.30001344" r="1"></circle>
                            <circle id="Oval" fill="#FFFFFF" cx="4.13334625" cy="4.30001344" r="1"></circle>
                        </g>
                    </g>
                    <g id="f-link" transform="translate(24.266743, 20.000062)">
                        <g id="f">
                            <path d="M0.200000625,3.80001188 C0.193967719,4.50355267 0.456196874,5.18296457 0.93333625,5.70001781 C1.38346633,6.2033371 2.02479876,6.49375179 2.70000844,6.50002031 C3.40001062,6.50002031 4.03334594,6.16668594 4.46668063,5.70001781 C4.94382,5.18296457 5.20604916,4.50355267 5.20001625,3.80001188 L5.20001625,0.200000625 L0.200000625,0.200000625 L0.200000625,3.80001188" id="Path" fill="#003399"></path>
                            <circle id="Oval" fill="#FFFFFF" cx="1.36667094" cy="1.56667156" r="1"></circle>
                            <circle id="Oval" fill="#FFFFFF" cx="4.13334625" cy="1.56667156" r="1"></circle>
                            <circle id="Oval" fill="#FFFFFF" cx="2.73334187" cy="2.90000906" r="1"></circle>
                            <circle id="Oval" fill="#FFFFFF" cx="1.36667094" cy="4.30001344" r="1"></circle>
                            <circle id="Oval" fill="#FFFFFF" cx="4.13334625" cy="4.30001344" r="1"></circle>
                        </g>
                    </g>
                    <g id="f-link" transform="translate(17.333388, 28.600089)">
                        <g id="f">
                            <path d="M0.200000625,3.80001188 C0.193967719,4.50355267 0.456196874,5.18296457 0.93333625,5.70001781 C1.38346633,6.2033371 2.02479876,6.49375179 2.70000844,6.50002031 C3.40001062,6.50002031 4.03334594,6.16668594 4.46668063,5.70001781 C4.94382,5.18296457 5.20604916,4.50355267 5.20001625,3.80001188 L5.20001625,0.200000625 L0.200000625,0.200000625 L0.200000625,3.80001188" id="Path" fill="#003399"></path>
                            <circle id="Oval" fill="#FFFFFF" cx="1.36667094" cy="1.56667156" r="1"></circle>
                            <circle id="Oval" fill="#FFFFFF" cx="4.13334625" cy="1.56667156" r="1"></circle>
                            <circle id="Oval" fill="#FFFFFF" cx="2.73334187" cy="2.90000906" r="1"></circle>
                            <circle id="Oval" fill="#FFFFFF" cx="1.36667094" cy="4.30001344" r="1"></circle>
                            <circle id="Oval" fill="#FFFFFF" cx="4.13334625" cy="4.30001344" r="1"></circle>
                        </g>
                    </g>
                </g>
            </g>
        </g>
    </g>
</svg>