<?xml version="1.0" encoding="UTF-8"?>
<svg width="200px" height="150px" viewBox="0 0 200 150" version="1.1" xmlns="http://www.w3.org/2000/svg" xmlns:xlink="http://www.w3.org/1999/xlink">
    <!-- Generator: Sketch 52.5 (67469) - http://www.bohemiancoding.com/sketch -->
    <title>rw</title>
    <desc>Created with Sketch.</desc>
    <g id="Flags" stroke="none" stroke-width="1" fill="none" fill-rule="evenodd">
        <g id="Africa" transform="translate(-730.000000, -1250.000000)">
            <g id="rw" transform="translate(730.000000, 1250.000000)">
                <polygon id="Path" fill="#20603D" points="0 0 200 0 200 150 0 150"></polygon>
                <polygon id="Path" fill="#FAD201" points="0 0 200 0 200 112.5 0 112.5"></polygon>
                <polygon id="Path" fill="#00A1DE" points="0 0 200 0 200 75 0 75"></polygon>
                <g id="Group" transform="translate(135.312378, 14.812378)" fill="#E5BE01">
                    <g id="b" transform="translate(24.166788, 0.000000)">
                        <polygon id="a" points="24.3959553 24.3751219 7.64587156 25.3542934 23.5626178 30.6459866 7.14586906 27.2501363 21.1667725 36.4585156 6.1666975 28.9168113 17.2917531 41.4793741 4.77085719 30.333485 12.3125616 45.33356 3.08334875 31.3126566 6.45836563 47.7085719 1.18750594 31.8126591 0.208334375 48.5627428 0 24.1667875"></polygon>
                        <g id="a-link" transform="translate(12.291728, 12.291728) scale(-1, 1) rotate(-180.000000) translate(-12.291728, -12.291728) ">
                            <polygon id="a" points="24.3959553 0.208334375 7.64587156 1.18750594 23.5626178 6.47919906 7.14586906 3.08334875 21.1667725 12.2917281 6.1666975 4.75002375 17.2917531 17.3125866 4.77085719 6.1666975 12.3125616 21.1667725 3.08334875 7.14586906 6.45836563 23.5417844 1.18750594 7.64587156 0.208334375 24.3959553 0 0"></polygon>
                        </g>
                    </g>
                    <g id="b-link" transform="translate(12.291728, 24.375122) scale(-1, 1) translate(-12.291728, -24.375122) ">
                        <g id="b">
                            <polygon id="a" points="24.3959553 24.3751219 7.64587156 25.3542934 23.5626178 30.6459866 7.14586906 27.2501363 21.1667725 36.4585156 6.1666975 28.9168113 17.2917531 41.4793741 4.77085719 30.333485 12.3125616 45.33356 3.08334875 31.3126566 6.45836563 47.7085719 1.18750594 31.8126591 0.208334375 48.5627428 0 24.1667875"></polygon>
                            <g id="a-link" transform="translate(12.291728, 12.291728) scale(-1, 1) rotate(-180.000000) translate(-12.291728, -12.291728) ">
                                <polygon id="a" points="24.3959553 0.208334375 7.64587156 1.18750594 23.5626178 6.47919906 7.14586906 3.08334875 21.1667725 12.2917281 6.1666975 4.75002375 17.2917531 17.3125866 4.77085719 6.1666975 12.3125616 21.1667725 3.08334875 7.14586906 6.45836563 23.5417844 1.18750594 7.64587156 0.208334375 24.3959553 0 0"></polygon>
                            </g>
                        </g>
                    </g>
                    <circle id="Oval" stroke="#00A1DE" stroke-width="2.266678" cx="24.3751219" cy="24.3751219" r="7.14586906"></circle>
                </g>
            </g>
        </g>
    </g>
</svg>