<?xml version="1.0" encoding="UTF-8"?>
<svg width="200px" height="150px" viewBox="0 0 200 150" version="1.1" xmlns="http://www.w3.org/2000/svg" xmlns:xlink="http://www.w3.org/1999/xlink">
    <!-- Generator: Sketch 52.5 (67469) - http://www.bohemiancoding.com/sketch -->
    <title>ws</title>
    <desc>Created with Sketch.</desc>
    <g id="Flags" stroke="none" stroke-width="1" fill="none" fill-rule="evenodd">
        <g id="Oceania" transform="translate(-620.000000, -850.000000)">
            <g id="ws" transform="translate(620.000000, 850.000000)">
                <polygon id="Path" fill="#CE1126" points="0 0 200 0 200 150 0 150"></polygon>
                <polygon id="Path" fill="#002B7F" points="0 0 100 0 100 75 0 75"></polygon>
                <path d="M56.25,71.65625 L49.78125,67.28125 L43.5625,71.6875 L45.59375,63.90625 L39.65625,59.15625 L47.3125,58.6875 L49.84375,51.3125 L52.59375,58.8125 L60.09375,59.03125 L54.15625,64.125 L56.25,71.65625 Z M55.125,19.90625 L49.9375,16.5625 L44.9375,19.8125 L46.3125,13.5625 L41.75,9.59375 L47.8125,9.09375 L50.0625,3.28125 L52.375,9.125 L58.34375,9.65625 L53.75,13.84375 L55.125,19.90625 Z M32.3125,38.5 L27.3125,35.0625 L22.09375,38.5 L23.71875,32.4375 L19,28.4375 L25,28.125 L27.1875,22.1875 L29.3125,28.09375 L35.4375,28.4375 L30.75,32.34375 L32.3125,38.5 Z M78.125,34.375 L73.3125,31.25 L68.625,34.375 L70,28.65625 L65.625,24.96875 L71.34375,24.5 L73.3125,19.125 L75.5,24.5625 L81.03125,24.875 L76.75,28.71875 L78.125,34.375 Z M64.65625,47.9375 L61.4375,45.9375 L58.21875,48 L59.0625,44.15625 L56.1875,41.5625 L59.9375,41.25 L61.375,37.625 L62.90625,41.25 L66.625,41.5625 L63.78125,44.15625 L64.65625,47.9375 Z" id="Shape" fill="#FFFFFF" fill-rule="nonzero"></path>
            </g>
        </g>
    </g>
</svg>