<?xml version="1.0" encoding="UTF-8"?>
<svg width="200px" height="150px" viewBox="0 0 200 150" version="1.1" xmlns="http://www.w3.org/2000/svg" xmlns:xlink="http://www.w3.org/1999/xlink">
    <!-- Generator: Sketch 52.5 (67469) - http://www.bohemiancoding.com/sketch -->
    <title>sm</title>
    <desc>Created with Sketch.</desc>
    <g id="Flags" stroke="none" stroke-width="1" fill="none" fill-rule="evenodd">
        <g id="Europe" transform="translate(-400.000000, -1850.000000)">
            <g id="sm" transform="translate(400.000000, 1850.000000)">
                <g id="Group">
                    <polygon id="Path" fill="#19B6EF" points="0 75 200 75 200 150 0 150"></polygon>
                    <polygon id="Path" fill="#FFFFFF" points="0 0 200 0 200 75 0 75"></polygon>
                </g>
                <path d="M99.1652421,106.115869 C116.472919,93.1541367 135.03096,66.7016214 113.281199,52.7479196 C109.233966,51.9543441 104.726074,52.1858036 102.521484,53.9382827 C101.369832,53.2769699 100.448511,53.3431011 99.2968594,54.56653 C98.4742512,53.5745607 97.651643,53.1116416 96.0064266,53.6076263 C92.824935,51.8892989 89.0886356,51.5317163 85.6415633,52.615657 C66.5899574,63.9902386 78.2380895,91.1701981 99.1652421,106.082804 L99.1652421,106.115869 Z" id="Path" stroke="#7D6C00" stroke-width="1.2" fill="#FFDD00"></path>
                <g id="Group" transform="translate(116.000000, 50.000000)" stroke="#3A9D4F">
                    <path d="M15.4650341,26.8162374 C15.4650341,26.8162374 17.4392938,24.1709859 17.5051025,24.1709859 C19.4464578,23.046754 19.6438838,21.5588 19.6438838,21.5588 C21.5852391,20.9636184 20.9600569,19.3434018 21.1245785,19.145008 C21.7459258,18.5331834 21.9289577,17.6003994 21.5852391,16.7973472 C21.5852391,16.5328221 22.2433257,14.0198331 21.3220045,13.6891767 C21.3549088,11.0439251 19.7425968,11.2753847 18.4264236,13.0278638 C17.0444419,13.4246515 16.7483029,14.5819491 17.2418678,15.8384435 C15.4321298,15.8384435 15.3663211,18.4836951 15.8927904,19.9385834 C13.4907744,19.8724521 14.8069476,22.583835 14.7411389,22.7160975 C13.951435,23.1128853 15.3663211,26.9485 15.4979385,26.8162374 L15.4650341,26.8162374 Z M0.329043279,49.3670067 L1.51359908,50.0944509 C1.77683371,51.0202889 2.63234623,51.6154705 3.25752846,51.4501423 C3.58657174,52.871965 5.10017083,52.6735711 6.21891798,51.84693 C7.10733483,53.1695558 8.19317765,53.1695558 9.70677674,52.7397024 C11.0229499,53.7316717 12.7668792,53.3018184 13.9185307,52.2767834 C15.1359908,53.2687527 15.958599,52.5413086 16.5837813,51.4501423 C17.5709111,51.7146674 18.2948063,51.5493392 18.6567539,50.5904355 C20.5323006,50.4251073 19.6109794,48.6395625 18.064476,47.8790527 C19.2819362,46.8209521 20.6639179,44.5724883 18.7225626,44.2418319 C18.1302847,43.8119785 16.9786332,43.9111754 16.1231207,44.3079632 C15.8927904,43.3159938 14.5437129,43.0845343 13.0301139,44.1757006 C12.5365489,43.0845343 10.7268109,43.6135846 9.90420271,44.3740944 C8.81835988,43.4482564 7.53509109,43.4482564 5.6595444,44.506357 L0.329043279,49.3670067 Z M0.329043279,46.4902957 C0.526469247,45.2338012 -0.329043279,42.9853374 0.987129838,42.7869435 C0.756799542,40.7038079 1.08584282,38.3892129 3.45495443,38.5876067 C3.84980637,36.6367337 3.78399771,34.8181233 6.02149201,34.5535981 C6.02149201,34.5535981 7.83123005,28.2380601 9.70677674,32.6027251 C10.430672,33.8922853 10.2990546,35.9754208 8.81835988,35.5786331 C9.11449884,37.1327184 8.58802959,38.5214754 6.87700454,38.4553441 C7.63380408,39.579576 7.40347378,41.06753 6.54796126,41.7619086 L0.296138951,46.4902957 L0.329043279,46.4902957 Z M11.2203758,38.5876067 L13.1946355,38.190819 C15.1688952,36.8681932 15.9915034,36.3060773 16.9786332,37.7940313 C18.6567539,37.4633748 20.269066,37.5956374 20.2032573,38.9182632 C22.177517,39.0835914 22.177517,40.3400859 21.9471867,41.3651208 C22.27623,43.1176 21.4865261,45.4321951 20.3019703,42.6216153 C16.3863553,40.2408889 14.1817653,40.5715454 8.02865601,41.9603024 L11.2203758,38.5876067 Z M12.24041,36.6367337 C12.3062186,36.5706024 17.9986674,35.0826484 17.4063895,33.3301693 C19.0187015,33.0656441 19.3477448,31.4454276 19.3806491,31.4454276 C22.7697949,30.387327 22.572369,28.436454 22.572369,28.436454 C23.5265945,27.411419 25.2047152,26.3533184 24.8427676,24.534708 C24.9414806,22.4515724 25.1389065,21.1620123 22.3420387,22.5177037 C20.269066,22.3193098 19.5451708,23.509673 18.9528929,25.3282834 C17.965763,24.1709859 16.3863553,26.0226619 16.1889293,27.6759442 C16.1889293,27.6759442 13.6552961,30.1889331 13.6552961,30.2550644 L11.5165148,34.2229417 L12.24041,36.6367337 Z" id="Shape" stroke-width="1.2" fill="#4FD46B" stroke-linejoin="round"></path>
                    <path d="M12.339123,32.2059374 C10.9900455,31.1809024 10.233246,29.924408 10.4635763,28.7009791 C9.57515943,27.4775503 8.9499772,26.7501061 9.80548972,25.6589399 L9.14740316,23.1790165 C7.37056946,22.5177037 8.127369,21.0297497 8.58802959,20.5006994 C7.76542139,19.3434018 7.73251706,18.119973 8.52222093,17.0618724 C8.52222093,14.9126055 10.03582,15.7392466 11.2532802,17.0618724 C11.2532802,17.0618724 13.3591571,18.5498264 11.8126537,19.8724521 C13.3591571,20.4345681 13.7869134,21.7571938 12.9314009,22.3193098 C14.2804783,22.9144914 14.4779043,24.1379202 13.7540091,24.9645613 C15.1030865,26.0226619 14.6095216,27.411419 15.0043735,28.6348478 L12.339123,32.2059374 Z" id="Path" stroke-width="1.2" fill="#4FD46B" stroke-linejoin="round"></path>
                    <path d="M14.7411389,22.1539816 C14.6753303,22.1209159 12.4707403,19.2772705 13.0959225,19.0788767 C12.9314009,18.2191699 12.2733143,17.2602662 12.6681663,16.4005595 C11.5823234,15.2763276 11.5494191,13.9867675 12.4049316,12.9617325 C11.6810364,11.9697632 12.0100797,10.6140718 12.9972095,9.72129938 C12.6681663,8.06801717 13.8527221,7.67122944 14.8727562,7.37363865 C15.6295558,4.72838711 16.8470159,5.3897 17.5709111,7.43976993 C18.6238496,8.36560797 18.459328,9.75436502 18.0973804,10.8124656 C19.3477448,11.6391067 18.5909453,12.6972074 18.0315717,13.1270607 L14.7411389,22.1870472 L14.7411389,22.1539816 Z" id="Path" stroke-width="1.2" fill="#4FD46B" stroke-linejoin="round"></path>
                    <path d="M14.4120956,7.96882024 L12.5365489,6.08407852 C13.0301139,5.0921092 13.4249658,3.33963006 12.0100797,2.51298896 C11.2203758,0.628247239 7.33766513,-1.75247914 6.7124829,2.77751411 C6.12020499,1.4218227 4.86984053,0.0661312883 3.98142368,1.65328221 C1.94135535,-0.0991969324 0.855512526,0.429853374 1.90845102,2.64525153 C1.90845102,2.64525153 0.95422551,4.13320552 3.4220501,5.29050306 C3.61947607,5.48889693 2.63234623,7.96882024 5.59373575,8.03495153 C5.03436217,8.89465828 5.92277903,10.0850215 7.10733483,10.0188902 C6.28472663,11.0439251 7.69961273,12.168157 8.58802959,11.7383037 C8.22608198,12.8956012 8.25898631,13.4577172 9.87129838,13.6230454 L11.6810364,15.706181 L13.1617312,17.7231853 L14.4120956,7.96882024 Z" id="Path" stroke-width="1.2" fill="#4FD46B" stroke-linejoin="round"></path>
                    <path d="M15.5637471,25.6258742 C15.6624601,25.5266773 19.1832232,17.4255945 19.6438838,14.9787368 M15.9256947,11.242319 C15.9256947,11.242319 16.5179726,17.8554478 14.9056605,22.6830319 M5.13307516,4.59612454 C5.13307516,4.59612454 12.339123,11.5399098 13.0301139,14.4166208 M10.1674373,3.83561472 C10.1674373,3.83561472 10.6280979,9.55597116 12.6352619,15.1771307 M22.8356036,24.5677736 C22.8356036,24.5677736 15.6624601,30.6849178 12.1746013,36.0415521 M16.057312,45.9612454 C16.057312,45.9612454 6.58086558,47.2838711 2.43492027,47.3830681 M12.9643052,50.0283196 C12.9643052,50.0283196 1.18455581,49.7637944 0.329043279,48.9040877 M7.0744305,34.6858607 C7.0744305,34.8181233 1.08584282,44.7047509 0.888416854,47.9121184" id="Shape" stroke-width="1.1" stroke-linecap="round"></path>
                </g>
                <path d="M99.7431312,104.45723 C87.3052952,92.6858607 74.5713203,70.5980104 87.2394866,59.4218227 C89.4769809,60.6783172 92.1422314,59.5540853 95.7946118,58.0991969 C96.913359,59.3226258 98.3282451,59.6202166 99.7431312,58.6943785 C100.938557,59.2850033 102.379291,59.0008561 103.263894,58 C106.88337,60.0831356 111.457072,61.1743018 112.542915,59.0911663 C124.980751,70.9947982 112.345489,93.214911 99.7102268,104.490296 L99.7431312,104.45723 Z" id="Path" stroke="#7D6C00" stroke-width="1.2" fill="#65C7FF"></path>
                <path d="M99.9185307,103.930553 C94.2437973,98.4157895 89.5379438,91.976403 86,84.8847417 C86.6580866,84.3226258 86.9542255,84.1572975 87.2832688,83.2314595 C89.1917198,83.4959847 90.211754,83.562116 92.7124829,83.0991969 C93.2389521,85.0170043 93.3376651,86.6041552 94.5222209,88.1913061 L97.0558542,83.2314595 C98.8374614,83.6849343 100.703461,83.6849343 102.485068,83.2314595 C103.538007,84.6202166 103.143155,86.7694834 105.018702,88.3897 C106.137449,85.0831356 107.223292,84.8847417 108.342039,83.0991969 C109.987255,83.6943785 111.040194,83.4298534 112.389271,83 C113.047358,83.8266411 112.718314,83.7935755 114.034487,84.9839386 C110.55115,92.1231763 105.775408,98.5482147 99.951435,103.930553 L99.9185307,103.930553 Z" id="Path" fill="#8FC753"></path>
                <path d="M84.6102297,48.7866428 C84.6864038,49.22805 84.4945154,49.6727747 84.1218163,49.9185999 C83.7491173,50.164425 83.2667521,50.164425 82.894053,49.9185999 C82.521354,49.6727747 82.3294656,49.22805 82.4056397,48.7866428 C82.4056397,48.1657466 82.9065199,47.6624109 83.5243868,47.6624109 C84.1422538,47.6624109 84.643134,48.1657466 84.643134,48.7866428 L84.6102297,48.7866428 Z M83.4585782,46.2405882 C83.5705786,46.6943416 83.3914492,47.170392 83.0087082,47.4361531 C82.6259672,47.7019143 82.1195035,47.7019143 81.7367625,47.4361531 C81.3540215,47.170392 81.1748922,46.6943416 81.2868925,46.2405882 C81.3798636,45.7018479 81.8450739,45.3084503 82.3891875,45.3084503 C82.9333011,45.3084503 83.3985115,45.7018479 83.4914825,46.2405882 L83.4585782,46.2405882 Z M82.1424051,43.8929274 C82.2185792,44.3343347 82.0266908,44.7790594 81.6539917,45.0248845 C81.2812927,45.2707096 80.7989275,45.2707096 80.4262285,45.0248845 C80.0535294,44.7790594 79.861641,44.3343347 79.9378151,43.8929274 C80.0307861,43.3541872 80.4959965,42.9607896 81.0401101,42.9607896 C81.5842237,42.9607896 82.0494341,43.3541872 82.1424051,43.8929274 Z M81.2210839,41.5783323 C81.297258,42.0197396 81.1053696,42.4644643 80.7326705,42.7102894 C80.3599715,42.9561146 79.8776063,42.9561146 79.5049073,42.7102894 C79.1322082,42.4644643 78.9403198,42.0197396 79.0164939,41.5783323 C79.1094649,41.0395921 79.5746753,40.6461945 80.1187889,40.6461945 C80.6629025,40.6461945 81.1281129,41.0395921 81.2210839,41.5783323 Z M81.3856055,39.0653434 C81.4617797,39.5067506 81.2698912,39.9514754 80.8971922,40.1973005 C80.5244931,40.4431256 80.042128,40.4431256 79.6694289,40.1973005 C79.2967299,39.9514754 79.1048414,39.5067506 79.1810156,39.0653434 C79.2739866,38.5266031 79.739197,38.1332055 80.2833105,38.1332055 C80.8274241,38.1332055 81.2926345,38.5266031 81.3856055,39.0653434 Z M87.1767672,34.9321379 C87.2529414,35.3735451 87.0610529,35.8182698 86.6883539,36.064095 C86.3156548,36.3099201 85.8332897,36.3099201 85.4605906,36.064095 C85.0878916,35.8182698 84.8960031,35.3735451 84.9721773,34.9321379 C85.0651483,34.3933976 85.5303587,34 86.0744723,34 C86.6185858,34 87.0837962,34.3933976 87.1767672,34.9321379 Z" id="Shape" stroke="#000000" stroke-width="0.65" fill="#FFFFFF"></path>
                <path d="M85.6230998,35.2173 C85.699274,35.6587073 85.5073855,36.103432 85.1346865,36.3492571 C84.7619874,36.5950822 84.2796223,36.5950822 83.9069232,36.3492571 C83.5342242,36.103432 83.3423357,35.6587073 83.4185099,35.2173 C83.5114809,34.6785598 83.9766913,34.2851622 84.5208048,34.2851622 C85.0649184,34.2851622 85.5301288,34.6785598 85.6230998,35.2173 Z M83.2210839,36.6391227 C83.297258,37.08053 83.1053696,37.5252547 82.7326705,37.7710798 C82.3599715,38.0169049 81.8776063,38.0169049 81.5049073,37.7710798 C81.1322082,37.5252547 80.9403198,37.08053 81.0164939,36.6391227 C81.1094649,36.1003825 81.5746753,35.7069849 82.1187889,35.7069849 C82.6629025,35.7069849 83.1281129,36.1003825 83.2210839,36.6391227 Z M90.5916533,34.8535779 C90.7036537,35.3073314 90.5245244,35.7833817 90.1417834,36.0491429 C89.7590423,36.3149041 89.2525787,36.3149041 88.8698377,36.0491429 C88.4870967,35.7833817 88.3079673,35.3073314 88.4199677,34.8535779 C88.5437414,34.3521265 88.9916842,34 89.5058105,34 C90.0199369,34 90.4678797,34.3521265 90.5916533,34.8535779 Z M93.6846602,35.1181031 C93.7608343,35.5595103 93.5689459,36.0042351 93.1962468,36.2500602 C92.8235478,36.4958853 92.3411826,36.4958853 91.9684836,36.2500602 C91.5957845,36.0042351 91.4038961,35.5595103 91.4800702,35.1181031 C91.5730412,34.5793628 92.0382516,34.1859652 92.5823652,34.1859652 C93.1264788,34.1859652 93.5916892,34.5793628 93.6846602,35.1181031 Z M96.3828151,34.9527749 C96.4948154,35.4065283 96.3156861,35.8825787 95.9329451,36.1483399 C95.5502041,36.414101 95.0437404,36.414101 94.6609994,36.1483399 C94.2782584,35.8825787 94.0991291,35.4065283 94.2111294,34.9527749 C94.3041004,34.4140346 94.7693108,34.020637 95.3134244,34.020637 C95.857538,34.020637 96.3227484,34.4140346 96.4157194,34.9527749 L96.3828151,34.9527749 Z" id="Shape" stroke="#000000" stroke-width="0.65" fill="#FFFFFF"></path>
                <path d="M102.659544,32.8436454 C102.659544,34.4141474 101.392612,35.6872908 99.8297722,35.6872908 C98.2669322,35.6872908 97,34.4141474 97,32.8436454 C97,31.2731434 98.2669322,30 99.8297722,30 C101.392612,30 102.659544,31.2731434 102.659544,32.8436454 Z" id="Path" stroke="#7D6C00" stroke-width="0.65" fill="#FFDD00"></path>
                <path d="M105.237494,34.9321379 C105.237494,35.553034 104.736614,36.0563698 104.118747,36.0563698 C103.50088,36.0563698 103,35.553034 103,34.9321379 C103.092971,34.3933976 103.558181,34 104.102295,34 C104.646409,34 105.111619,34.3933976 105.20459,34.9321379 L105.237494,34.9321379 Z M108.067267,35.1635974 C108.179267,35.6173508 108.000138,36.0934012 107.617397,36.3591624 C107.234655,36.6249235 106.728192,36.6249235 106.345451,36.3591624 C105.96271,36.0934012 105.78358,35.6173508 105.895581,35.1635974 C105.988552,34.6248571 106.453762,34.2314595 106.997876,34.2314595 C107.541989,34.2314595 108.0072,34.6248571 108.100171,35.1635974 L108.067267,35.1635974 Z M110.864134,35.0313348 C110.940309,35.472742 110.74842,35.9174668 110.375721,36.1632919 C110.003022,36.409117 109.520657,36.409117 109.147958,36.1632919 C108.775259,35.9174668 108.58337,35.472742 108.659544,35.0313348 C108.752515,34.4925945 109.217726,34.0991969 109.761839,34.0991969 C110.305953,34.0991969 110.771163,34.4925945 110.864134,35.0313348 Z M113.200342,34.9321379 C113.276516,35.3735451 113.084627,35.8182698 112.711928,36.064095 C112.339229,36.3099201 111.856864,36.3099201 111.484165,36.064095 C111.111466,35.8182698 110.919578,35.3735451 110.995752,34.9321379 C111.088723,34.3933976 111.553933,34 112.098047,34 C112.64216,34 113.107371,34.3933976 113.200342,34.9321379 Z M116.128827,35.2627943 C116.205001,35.7042016 116.013113,36.1489263 115.640413,36.3947514 C115.267714,36.6405765 114.785349,36.6405765 114.41265,36.3947514 C114.039951,36.1489263 113.848063,35.7042016 113.924237,35.2627943 C114.017208,34.7240541 114.482418,34.3306564 115.026532,34.3306564 C115.570645,34.3306564 116.035856,34.7240541 116.128827,35.2627943 Z M118.43213,36.7176827 C118.508304,37.1590899 118.316415,37.6038146 117.943716,37.8496397 C117.571017,38.0954649 117.088652,38.0954649 116.715953,37.8496397 C116.343254,37.6038146 116.151366,37.1590899 116.22754,36.7176827 C116.320511,36.1789424 116.785721,35.7855448 117.329835,35.7855448 C117.873948,35.7855448 118.339159,36.1789424 118.43213,36.7176827 Z" id="Shape" stroke="#000000" stroke-width="0.65" fill="#FFFFFF"></path>
                <path d="M84,43.926781 L86.8297722,49.3826123 L112.89,49.3826123 L115.917198,44.1251748 C114.140364,42.901746 112.955809,41.975908 110.422175,42.5380239 C109.007289,40.487954 107.460786,40.1242319 105.157483,40.3226258 C104.466492,39.6282472 103.84131,39.1983939 102.656754,39 L97.1946355,39.1653282 C95.7468451,39.2975908 94.6280979,40.4218227 94.5622893,40.4218227 C92.2589863,40.1242319 90.120205,40.1903632 89.5608314,42.4718926 C87.4220501,41.9428423 85.9413553,42.5380239 84,43.926781 Z" id="Path" stroke="#AC0000" stroke-width="1.2" fill="#E40000"></path>
                <path d="M119.51943,38.9321379 C119.595605,39.3735451 119.403716,39.8182698 119.031017,40.064095 C118.658318,40.3099201 118.175953,40.3099201 117.803254,40.064095 C117.430555,39.8182698 117.238666,39.3735451 117.31484,38.9321379 C117.407812,38.3933976 117.873022,38 118.417135,38 C118.961249,38 119.426459,38.3933976 119.51943,38.9321379 Z M119.716856,41.5773894 C119.793031,42.0187966 119.601142,42.4635214 119.228443,42.7093465 C118.855744,42.9551716 118.373379,42.9551716 118.00068,42.7093465 C117.627981,42.4635214 117.436092,42.0187966 117.512266,41.5773894 C117.605237,41.0386491 118.070448,40.6452515 118.614561,40.6452515 C119.158675,40.6452515 119.623885,41.0386491 119.716856,41.5773894 Z M118.894248,43.9581158 C118.970422,44.399523 118.778534,44.8442477 118.405835,45.0900729 C118.033136,45.335898 117.550771,45.335898 117.178072,45.0900729 C116.805373,44.8442477 116.613484,44.399523 116.689658,43.9581158 C116.782629,43.4193755 117.24784,43.0259779 117.791953,43.0259779 C118.336067,43.0259779 118.801277,43.4193755 118.894248,43.9581158 Z M117.907118,45.9420544 C117.907118,46.5629506 117.406238,47.0662863 116.788371,47.0662863 C116.170504,47.0662863 115.669624,46.5629506 115.669624,45.9420544 C115.762595,45.4033142 116.227805,45.0099166 116.771919,45.0099166 C117.316033,45.0099166 117.781243,45.4033142 117.874214,45.9420544 L117.907118,45.9420544 Z M116.689658,48.4219777 C116.765832,48.863385 116.573944,49.3081097 116.201245,49.5539348 C115.828546,49.79976 115.346181,49.79976 114.973482,49.5539348 C114.600783,49.3081097 114.408894,48.863385 114.485068,48.4219777 C114.578039,47.8832375 115.04325,47.4898399 115.587363,47.4898399 C116.131477,47.4898399 116.596687,47.8832375 116.689658,48.4219777 Z M101.290433,45.2476759 C101.290433,46.1607584 100.553844,46.9009581 99.6452164,46.9009581 C98.7365885,46.9009581 98,46.1607584 98,45.2476759 C98,44.3345933 98.7365885,43.5943937 99.6452164,43.5943937 C100.553844,43.5943937 101.290433,44.3345933 101.290433,45.2476759 Z" id="Shape" stroke="#000000" stroke-width="0.65" fill="#FFFFFF"></path>
                <path d="M101.948519,40.9839386 C101.948519,42.0796377 101.064613,42.9678773 99.9742597,42.9678773 C98.8839062,42.9678773 98,42.0796377 98,40.9839386 C98,39.8882396 98.8839062,39 99.9742597,39 C101.064613,39 101.948519,39.8882396 101.948519,40.9839386 Z" id="Path" stroke="#000000" stroke-width="0.65" fill="#FFFFFF"></path>
                <path d="M101.553667,37.7855448 C101.553667,38.7716739 100.758152,39.5710896 99.7768337,39.5710896 C98.7955155,39.5710896 98,38.7716739 98,37.7855448 C98,36.7994156 98.7955155,36 99.7768337,36 C100.758152,36 101.553667,36.7994156 101.553667,37.7855448 Z" id="Path" stroke="#000000" stroke-width="0.65" fill="#FFFFFF"></path>
                <polygon id="Path" stroke="#7D6C00" stroke-width="0.65" fill="#FFDD00" points="99.1845558 30.4057613 99.1845558 29.0170043 98 28.9839386 98.0658087 27.925838 99.0529385 27.925838 99.0529385 27 100.533633 27 100.533633 27.8266411 101.685285 27.8266411 101.65238 28.950873 100.467825 28.950873 100.467825 30.438827 99.1516515 30.438827"></polygon>
                <path d="M86.3077166,50.1520957 C83.9715094,46.1842184 80.5165549,40.7614528 82.6882406,38.413792 C85.6167258,35.074162 92.5266346,38.0831356 96.9358146,36.1653282 C97.2648578,39.9348117 96.2119194,46.217284 97.8900401,47.5068442 L96.3106323,48.8956012 C95.3235025,47.6721724 93.5466688,45.9858245 91.3091745,48.9617325 C89.9930014,47.8375006 88.5781153,48.0358945 87.8871244,49.5238485 C87.2290378,49.6230454 87.2619422,49.8875705 86.3077166,50.1520957 Z M112.631179,49.9867675 C115.000291,46.0188902 118.422341,40.6291902 116.283559,38.2815294 C113.32217,34.9418994 106.412261,37.950873 102.035985,36 C101.706942,39.8025491 102.759881,46.0850215 101.048856,47.3745816 L102.628263,48.7633386 C104.174767,46.6140718 106.050313,46.5479405 107.662625,48.8294699 C108.945894,47.705238 110.262067,47.8375006 111.084676,49.3915859 C111.742762,49.4907828 111.676953,49.7222423 112.664083,49.9867675 L112.631179,49.9867675 Z" id="Shape" stroke="#FFDD00" stroke-width="1.65"></path>
                <path d="M86.197426,52.3195198 C94.8771619,51.524849 103.610822,51.524849 112.290558,52.3195198 L113.310592,49.3436118 C104.196093,47.6903296 97.9113667,47.4919357 86,49.1452179 L86.197426,52.3195198 Z" id="Path" stroke="#7D6C00" stroke-width="1.2" fill="#FFDD00"></path>
                <path d="M98.4420843,102.993855 L98.6395102,101.605098 C99.5937357,101.869623 100.284727,101.770426 101.074431,101.472836 L101.864134,100.249407 L101.271856,99.5550282 C100.745387,99.6542251 100.284727,100.15021 99.9556834,100.580063 C99.4292141,100.613129 98.9685535,100.348604 98.4420843,100.249407 L97.9485194,98.1332055 C97.4549544,97.5380239 96.4020159,97.5710896 96.6323462,98.6291902 L96.7310592,99.4558313 C96.9284852,99.9518159 97.0271982,100.646194 97.3562414,101.009917 L97.3562414,101.869623 L98.4420843,102.993855 Z M98.8369362,96.9428423 C98.1788496,97.2734988 97.3233371,96.6783172 96.4349203,96.3145951 C95.6123121,96.2815294 94.9871298,96.975908 94,96.7444485 C94.197426,96.2153982 94.6251822,96.1162012 94.9213212,95.8186104 C94.6909909,94.462919 95.4148861,94 95.6123121,94 C95.809738,94 96.6323462,94.1983939 96.6323462,94.1983939 L97.4220501,94.2975908 C97.915615,95.1903632 98.5737016,95.950873 98.8369362,96.9428423 Z" id="Shape" fill="#C76E2E"></path>
                <path d="M94.0801367,114.841272 C96.3834396,111.071789 112.572369,103.466691 127.774168,87 C112.309134,101.978737 102.635262,105.649023 90,114.775141 L94.0801367,114.874338 L94.0801367,114.841272 Z" id="Path" stroke="#E9BF00" stroke-width="1.2" fill="#FFE100"></path>
                <path d="M116.369112,98.0172072 C116.369112,98.6746267 115.838768,99.2075704 115.184556,99.2075704 C114.530344,99.2075704 114,98.6746267 114,98.0172072 C114,97.3597878 114.530344,96.826844 115.184556,96.826844 C115.838768,96.826844 116.369112,97.3597878 116.369112,98.0172072 Z M127.6882,86.4772974 C127.6882,87.2168943 127.091564,87.816456 126.355575,87.816456 C125.619587,87.816456 125.02295,87.2168943 125.02295,86.4772974 C125.02295,85.7468314 125.612221,85.1546716 126.339123,85.1546716 C127.066025,85.1546716 127.655296,85.7468314 127.655296,86.4772974 L127.6882,86.4772974 Z M131.439294,76.6898667 C131.517462,77.1562491 131.313458,77.6248948 130.919581,77.8837742 C130.525704,78.1426536 130.016677,78.1426536 129.622799,77.8837742 C129.228922,77.6248948 129.024919,77.1562491 129.103087,76.6898667 C129.199133,76.1168121 129.692899,75.6972074 130.27119,75.6972074 C130.849481,75.6972074 131.343247,76.1168121 131.439294,76.6898667 Z M127.754009,63.9926594 C127.832177,64.4590417 127.628173,64.9276874 127.234296,65.1865668 C126.840419,65.4454462 126.331392,65.4454462 125.937515,65.1865668 C125.543637,64.9276874 125.339634,64.4590417 125.417802,63.9926594 C125.513848,63.4196047 126.007615,63 126.585905,63 C127.164196,63 127.657963,63.4196047 127.754009,63.9926594 Z" id="Shape" stroke="#68300E" stroke-width="0.65" fill="#9D4916"></path>
                <path d="M87.4935649,82.8152945 L87.4935649,77.7893166 L87,77.3925288 L87,76.2021656 L87.9213212,76.1029687 L88.0858428,70.4818092 L87.4935649,70.1511528 L87.4277563,69.2253147 C87.4277563,69.2253147 88.0858428,69.4898399 88.0858428,69.3245116 L88.2503645,68.2002797 C88.2503645,68.2002797 87.8226082,68.1341485 87.8226082,67.9688202 C87.8226082,67.803492 88.3490774,67.3736386 88.3490774,67.3736386 C88.3490774,67.3736386 88.0858428,67.1091135 88.0200342,66.9437853 L87.7567995,66.0179472 L88.0200342,65.0590436 L87.8555125,64.5630589 L87.4277563,63.8025491 L88.0200342,63.2073675 L87.8555125,62.2815294 C87.9666473,61.9368815 88.1333909,61.6129301 88.3490774,61.3226258 C88.4477904,61.2564945 89.105877,60.3306564 89.105877,60.3306564 L90.5536674,60 L92.2317881,60.2314595 L93.1531093,60.8266411 L93.317631,62.3476607 C93.317631,62.3476607 93.1531093,63.2734988 93.0873007,63.2734988 L92.3305011,63.6041552 C92.3305011,63.6041552 91.4749886,63.7033521 91.3762756,63.6041552 C91.2775626,63.5049583 91.6395102,64.6622558 91.6395102,64.6622558 L91.6395102,65.6542251 L91.5737016,66.9437853 C91.5737016,66.9437853 91.5737016,67.5389669 91.4749886,67.6050982 C91.3762756,67.6712294 91.211754,67.9357546 91.211754,67.9357546 L91.1459453,69.2583804 L92.4621184,69.5890368 L92.3963098,70.3495466 L91.4749886,70.4156779 L91.6395102,75.606984 L92.9885877,75.8384435 L92.9885877,77.2933319 L92.3963098,77.6239883 L92.2317881,82.8152945 L87.4935649,82.8152945 Z M108.025866,82.9144914 L108.025866,77.8885135 L107.532301,77.4586601 L107.532301,76.2682969 L108.453622,76.2021656 L108.618143,70.5810061 L108.025866,70.2503497 L107.960057,69.3245116 C107.960057,69.3245116 108.618143,69.5559712 108.618143,69.3906429 L108.782665,68.2994767 C108.782665,68.2994767 108.354909,68.2002797 108.354909,68.0349515 C108.354909,67.8696233 108.881378,67.4397699 108.881378,67.4397699 C108.881378,67.4397699 108.618143,67.2083104 108.552335,67.0099166 L108.2891,66.0840785 L108.552335,65.1582405 L108.354909,64.6622558 L107.960057,63.901746 L108.552335,63.3065644 L108.354909,62.3476607 C108.479397,62.0124577 108.657198,61.69978 108.881378,61.4218227 L109.638178,60.4298534 L111.085968,60.0661313 L112.764089,60.3306564 L113.68541,60.925838 L113.849932,62.4468577 C113.849932,62.4468577 113.68541,63.3726957 113.619601,63.3726957 L112.862802,63.7033521 C112.862802,63.7033521 112.007289,63.8025491 111.908576,63.7033521 C111.809863,63.6041552 112.171811,64.7283871 112.171811,64.7283871 L112.171811,65.7534221 L112.073098,67.0429822 C112.073098,67.0429822 112.073098,67.6050982 112.007289,67.7042951 L111.744055,68.0349515 L111.678246,69.3245116 L112.994419,69.6551681 L112.92861,70.4156779 L112.007289,70.5148748 L112.171811,75.6731153 L113.520888,75.9376405 L113.520888,77.3925288 L112.92861,77.7231853 L112.764089,82.9144914 L108.025866,82.9144914 Z M97.6280979,83.0798196 L97.6280979,78.0538417 L97.134533,77.657054 L97.134533,76.4336251 L98.0558542,76.3674939 L98.2203758,70.7463343 L97.6280979,70.4156779 L97.5622893,69.4898399 C97.5622893,69.4898399 98.2203758,69.754365 98.2203758,69.5890368 L98.3848975,68.4648049 C98.3848975,68.4648049 97.9900455,68.3986736 97.9900455,68.2333454 C97.9900455,68.0680172 98.4836104,67.6050982 98.4836104,67.6050982 C98.4836104,67.6050982 98.2203758,67.3736386 98.1545672,67.2083104 L97.8913325,66.2494067 L98.1545672,65.3235687 L97.9900455,64.827584 L97.5622893,64.0670742 L98.1545672,63.4718926 L97.9900455,62.512989 C98.0986418,62.1774108 98.2657659,61.8639164 98.4836104,61.5871509 C98.5823234,61.5210196 99.24041,60.5951816 99.24041,60.5951816 L100.6882,60.2645252 L102.366321,60.4959847 L103.287642,61.0911663 L103.485068,62.6121859 C103.485068,62.6121859 103.287642,63.5380239 103.221834,63.5380239 L102.465034,63.8686804 C102.465034,63.8686804 101.609522,63.9678773 101.543713,63.8686804 C101.477904,63.7694834 101.774043,64.8937153 101.774043,64.8937153 L101.774043,65.9187503 L101.708235,67.2083104 C101.708235,67.2083104 101.708235,67.803492 101.609522,67.8696233 L101.346287,68.2002797 L101.280478,69.4898399 L102.596651,69.8204963 L102.530843,70.5810061 L101.609522,70.6802031 L101.774043,75.8715092 L103.123121,76.1029687 L103.123121,77.557857 L102.530843,77.8885135 L102.366321,83.0798196 L97.6610022,83.0798196 L97.6280979,83.0798196 Z" id="Shape" stroke="#A9A9A9" stroke-width="0.65" fill="#FFFFFF"></path>
                <path d="M88.5329043,82.6721724 L88.5329043,78.7042951 L90.70459,78.7042951 L90.70459,82.8375006 L88.5,82.6721724 L88.5329043,82.6721724 Z M98.8648633,83.0028288 L98.9635763,78.9688202 L100.937836,78.9688202 L100.937836,82.9036319 L98.8648633,82.9697632 L98.8648633,83.0028288 Z M109.065205,82.9036319 L108.933588,79.1010828 L111.072369,79.0349515 L111.072369,83.0028288 L109.098109,82.9036319 L109.065205,82.9036319 Z M89.0593736,71 L90.309738,71 L90.309738,73.0170043 L89.0593736,73.0170043 L89.0593736,71 Z M99.0293849,71.0661313 L100.773314,71.0661313 L100.773314,73.0500699 L99.0293849,73.0500699 L99.0293849,71.0661313 Z M109.229727,71.2314595 L110.743326,71.2314595 L110.743326,73.1162012 L109.262631,73.1162012 L109.229727,71.2314595 Z" id="Shape" fill="#000000" fill-rule="nonzero"></path>
                <path d="M90,63 C91.3161731,66.341126 91.4148861,66.341126 91.4148861,66.341126 M100.03582,63 C100.299055,64.0894976 100.693907,66.4863923 101.220376,66.7042919 M110.861344,63.5084322 C110.861344,63.5084322 111.2891,66.1232265 111.848474,66.4863923" id="Shape" stroke="#A8A8A8" stroke-width="0.65"></path>
                <path d="M88.4549926,58.6283419 C92.403512,57.3387817 87.5336714,54.7927271 86.7110632,58.6283419 C85.4606988,58.8598014 85.2961771,59.7856394 82.5322136,59.3888517 C75.8197307,70.3005143 80.7882842,87.9906339 100.333455,106.275935 C65.3232501,76.3184615 79.5379198,54.1644799 89.2446965,55.0241867 C94.509389,55.3548431 91.8770427,61.9679719 88.4549926,58.6614075 L88.4549926,58.6283419 Z" id="Path" fill="#B97700"></path>
                <path d="M89,52.2314595 C89,52.2314595 92.1917198,53.1242319 92.1917198,54.4799233 M92.1917198,52 C92.1917198,52 94.4292141,52.9919693 94.922779,53.8516761 M109.762631,52.3637221 C109.762631,52.3637221 106.932859,52.7605098 106.307676,53.6202166 M105.452164,52.6282472 C105.452164,52.6282472 103.806948,53.9839386 103.971469,54.3807264 M105.090216,58.5800632 C104.826982,58.4808663 103.708235,56.9598466 103.971469,55.1081705 M94.1659795,57.5880939 C94.1659795,57.5880939 94.922779,56.7283871 94.922779,55.1081705 M99.3767369,54.4799233 L99.5241857,58.1171442 M102.589487,57.5880939 C102.589487,57.3566344 103.576617,54.975908 102.45787,53.8516761 M95.7782916,53.3556914 C95.7782916,53.3556914 94.922779,55.7364178 95.5479613,57.7203564 M102.128827,55.4718926 C102.128827,55.4718926 100.746845,55.8686804 100.154567,56.463862 M96.2718565,55.8356147 C96.2718565,55.7364178 97.7854556,55.5049583 98.2461161,56.364665" id="Shape" stroke="#7D6C00" stroke-width="1.2"></path>
                <path d="M93.6795786,93.5229055 C93.7453872,93.5229055 94.929943,93.291446 94.929943,92.7293301 C95.5222209,92.3325423 95.0944647,91.2413761 95.0944647,91.2413761 L93.9757175,91.0429822 L92.4621184,89.3235687 C92.3963098,88.7945184 92.5608314,88.2985337 92.2317881,87.7364178 C91.1788496,88.0009429 90.5865717,88.8937153 90.2575285,89.8856847 C90.4878588,90.2163411 90.5207631,90.5469975 91.014328,90.8445883 C91.5078929,90.9107196 91.8369362,90.6131288 92.2975968,90.7123258 C92.5279271,91.1421791 92.4621184,91.5059012 92.5608314,91.902689 C93.1860136,92.3325423 93.317631,92.9607896 93.6795786,93.5229055 Z M92.3305011,86.1823325 L92.3305011,84.1322626 L90.8827107,84.0661313 C90.6852847,84.3967877 90.3562414,84.5290503 90.1588155,84.7935755 L89.1387813,85.3226258 C89.5665376,85.8186104 90.0930068,86.1162012 90.3891458,86.3807264 C91.1459453,86.5791202 91.7382232,86.5791202 92.3305011,86.1823325 Z M87.7897039,89.1913061 L87,87.8686804 C87.5119913,87.7265979 88.0566435,87.7615334 88.5465034,87.9678773 C88.5465034,87.9678773 88.8755467,88.7945184 88.6452164,89.0921092 C88.5135991,89.3897 87.7567995,89.2574374 87.7897039,89.1913061 Z M99.7997836,90.5469975 C100.255917,90.3514841 100.587817,89.9438403 100.6882,89.4558313 L99.2075057,87.7694834 L97.8913325,87.7364178 C97.5622893,87.4057613 97.1016287,87.3396301 96.7067767,87.3396301 C96.7067767,87.3396301 97.1016287,88.0009429 97.6280979,88.1001399 C98.0229499,88.9598466 99.6681663,90.5469975 99.7997836,90.5469975 Z M101.21467,90.7453914 C101.21467,90.7123258 102.530843,90.2824724 103.188929,90.315538 C103.156025,89.7864877 104.176059,88.5630589 104.176059,88.5630589 L106.018702,90.9768509 C105.689658,91.2413761 105.09738,91.1752448 104.63672,91.2413761 C104.63672,91.2413761 103.748303,92.1010828 103.64959,92.1341485 C103.550877,92.1672141 101.938565,92.5640018 101.148861,92.0680172 C100.819818,91.4067043 101.247574,90.6461945 101.21467,90.7453914 Z M102.267608,86.512989 C102.498193,85.6913503 102.498193,84.8216387 102.267608,84 L100.161731,84 L98.7797494,84.6613129 C98.7797494,84.6613129 99.2075057,86.0500699 99.7668792,85.9178074 C99.9972095,86.6121859 100.721105,86.4468577 101.083052,86.7113828 L102.267608,86.512989 Z M110.460786,84.3967877 C110.131743,85.2895601 110.000125,86.2153982 110.394977,87.0420393 C110.789829,87.1412362 111.25049,87.3726957 111.579533,87.3065644 L113.257654,84.2645252 C112.106002,83.9008031 111.151777,83.9338687 110.427881,84.3967877 L110.460786,84.3967877 Z" id="Shape" fill="#C76E2E"></path>
                <path d="M111.878462,57.6596114 C107.929943,56.3700513 112.799784,53.7909311 113.622392,57.6596114 C114.905661,57.8580053 115.070182,58.816909 117.834146,58.4201212 C124.513724,69.3317838 119.545171,87.0219034 100,105.307205 C135.043109,75.349731 120.795535,53.1957495 111.088759,54.0223906 C105.824066,54.353047 108.456412,60.9661758 111.878462,57.6596114 Z" id="Path" fill="#B97700"></path>
                <path d="M111.882492,87.7648019 C111.816683,87.7648019 110.895362,88.4261147 110.895362,88.4261147 L109.51338,88.9882307 L108.06559,89.0212963 L107.736546,88.029327 L108.855294,87.0373577 C107.933972,86.8720295 106.979747,87.2688172 106.222947,87.9631957 C106.222947,87.9631957 106.222947,89.054362 106.881034,89.6164779 C107.242981,90.079397 108.361729,90.9391037 108.361729,90.9391037 C108.974101,91.0767068 109.615832,90.957285 110.138562,90.6084473 L111.882492,87.7648019 Z M104.248688,97.7175608 C104.709348,97.8498233 107.966877,93.5182239 107.966877,93.5182239 C107.672229,92.7403336 107.096481,92.1027247 106.354565,91.7326792 C106.354565,91.7326792 104.775157,93.6174209 104.742253,94.2456681 C104.479018,94.8077841 103.755123,96.9901166 104.084166,97.2877074 C104.051262,97.3538387 103.919644,98.2466111 104.248688,97.7175608 Z" id="Shape" fill="#C76E2E"></path>
                <path d="M82.6310136,98.8976174 C77.7611731,94.6321493 71.1803075,92.2844885 62,95.491856 C64.4678246,96.5499566 67.1330752,96.9136787 69.4034738,98.1040419 L82.6310136,98.8976174 Z" id="Path" stroke="#004100" stroke-width="1.2" fill="#006800" stroke-linejoin="round"></path>
                <path d="M69,96 C78.6409681,96.1983939 81.437836,98.6121859 80.944271,98.2153982" id="Path" stroke="#00A400" stroke-width="1.1" stroke-linecap="round"></path>
                <path d="M82.9600569,99.0958738 C80.064476,99.6249241 76.1159567,102.402438 74.9314009,102.303241 C71.8054897,101.939519 68.8441002,100.649959 65.816902,99.6579898 C64.5665376,99.261202 63.2832688,99.6579898 62,99.6579898 C72.7926196,94.5328149 76.4779043,95.2271935 82.9600569,99.0628082 L82.9600569,99.0958738 Z" id="Path" stroke="#004100" stroke-width="1.1" fill="#006800" stroke-linejoin="round"></path>
                <path d="M76.3405808,91.6178435 C76.3405808,91.6178435 72.7211047,92.1468938 71.1087927,92.2460908 C69.5293849,92.1468938 67.1602733,90.6589399 64.5937357,87.947557 C63.2775626,86.4265374 60.1845558,86.6249313 60.1845558,86.6249313 C66.9628474,85.1700429 72.2604442,86.5588 76.3076765,91.6509092 L76.3405808,91.6178435 Z M71.4049316,84.607927 C66.5021868,84.2772705 60.3819818,79.8795399 59,74.6221024 C59,74.6882337 60.809738,75.7794 60.5135991,76.0439251 C68.5422551,78.0939951 69.0687243,79.7472773 71.4049316,84.607927 Z M79.6310136,93.0396662 C80.3220045,88.5758043 80.5194305,85.6329619 78.4464578,82.9877104 C76.7025284,81.0037718 76.2747722,79.7803429 75.0244077,76.9366975 C74.6624601,82.8223822 73.3791913,87.6830319 79.6310136,93.0396662 Z M71.9314009,80.706181 C75.5508769,75.3826123 76.2089635,71.3486037 75.6166856,65 C75.5179726,65.4959847 74.3005125,68.6372209 74.2347038,68.6372209 C68.8054897,72.0429822 71.2075057,77.3996166 71.9314009,80.706181 Z" id="Shape" stroke="#004100" stroke-width="1.2" fill="#006800" stroke-linejoin="round"></path>
                <path d="M68.8215039,55 C72.44098,60.3235687 71.9145107,65.3495466 71.3222328,71.6981503 C71.2235198,71.2021656 70.0060597,68.0609294 69.940251,68.0609294 C64.5110369,64.6551681 68.130513,58.3065644 68.8215039,55 Z" id="Path" stroke="#004100" stroke-width="1.2" fill="#006800" stroke-linejoin="round"></path>
                <path d="M71,63.5488834 C79.8183599,59.0519558 76.4292141,53.3977307 78.0415262,49 C71.9213212,53.5961245 71.1316173,58.4567742 71.0329043,63.5488834 L71,63.5488834 Z" id="Path" stroke="#004100" stroke-width="1.2" fill="#006800" stroke-linejoin="round"></path>
                <path d="M73.0472323,62.4648049 C74.1659795,59.3235687 76.3376651,54 76.5679954,54 M70.4148861,69.0118024 C70.2174601,66.7964043 69.098713,60.8445883 69,60.2494067" id="Shape" stroke="#00A400" stroke-width="1.1" stroke-linecap="round"></path>
                <path d="M70.6152278,78.7831718 C65.6795786,78.4525153 60.4148861,71.7401896 59,66.5158178 C59,66.5819491 60.809738,67.6400497 60.5135991,67.9045748 C67.5551253,71.0788767 68.2790205,73.9225221 70.6152278,78.7831718 Z M69.1674373,74.1539816 C65.5479613,68.8304129 64.8898747,64.7964043 65.4492483,58.4478006 C65.5479613,58.9437853 66.7654214,62.0850215 66.8641344,62.0850215 C72.2604442,65.4907828 69.8584282,70.8474172 69.1674373,74.1539816 Z M72.4249658,64.7964043 C81.5394646,60.7293301 78.7425968,56.463862 81.4407516,52 C75.3205467,56.5630589 72.5236788,59.7373607 72.4249658,64.7964043 Z" id="Shape" stroke="#004100" stroke-width="1.2" fill="#006800" stroke-linejoin="round"></path>
                <path d="M73,63.8445883 C75.0689843,61.8890178 76.7640967,59.5692248 78.0014578,57" id="Path" stroke="#00A400" stroke-width="1.1" stroke-linecap="round"></path>
                <g id="Group" transform="translate(69.000000, 63.000000)">
                    <path d="M36.0631434,52.3759803 L40.4723233,52.4421116 C25.7640888,38.5545411 -2.46782459,32.5365938 1.44779043,7.00991656 C-2.59944191,34.6858607 24.5137243,37.264981 36.0631434,52.3759803 Z" id="Path" stroke="#E9BF00" stroke-width="1.2" fill="#FFE100"></path>
                    <path d="M3.75109338,1.55408527 C3.75109338,2.33933627 3.1176273,2.97590797 2.33620728,2.97590797 C1.55478727,2.97590797 0.921321182,2.33933627 0.921321182,1.55408527 C0.921321182,0.768834282 1.55478727,0.132262577 2.33620728,0.132262577 C3.1176273,0.132262577 3.75109338,0.768834282 3.75109338,1.55408527 Z M2.89558086,9.35757729 C2.89558086,10.0971742 2.2989442,10.6967359 1.56295558,10.6967359 C0.826966957,10.6967359 0.230330295,10.0971742 0.230330295,9.35757729 C0.230330295,8.62711125 0.819601072,8.03495153 1.54650341,8.03495153 C2.27340575,8.03495153 2.86267653,8.62711125 2.86267653,9.35757729 L2.89558086,9.35757729 Z M4.14594532,20.5006994 C4.14594535,20.9259752 3.9201703,21.3189463 3.55366744,21.5315842 C3.18716459,21.7442221 2.73561444,21.7442221 2.36911158,21.5315842 C2.00260873,21.3189463 1.77683367,20.9259752 1.77683371,20.5006994 C1.77683376,19.84328 2.30717745,19.3103363 2.96138951,19.3103363 C3.61560158,19.3103363 4.14594526,19.84328 4.14594532,20.5006994 Z M14.445,32.801119 C14.445,33.4585384 13.9146563,33.9914822 13.2604442,33.9914822 C12.606232,33.9914822 12.0758883,33.4585384 12.0758883,32.801119 C12.0758883,32.1436996 12.606232,31.6107558 13.2604442,31.6107558 C13.9146563,31.6107558 14.445,32.1436996 14.445,32.801119 Z M15.9256947,36.3391429 C15.9256947,36.9965624 15.395351,37.5295061 14.7411389,37.5295061 C14.0869268,37.5295061 13.5565831,36.9965624 13.5565831,36.3391429 C13.5565831,35.6817235 14.0869268,35.1487797 14.7411389,35.1487797 C15.395351,35.1487797 15.9256947,35.6817235 15.9256947,36.3391429 Z" id="Shape" stroke="#68300E" stroke-width="0.65" fill="#9D4916" fill-rule="nonzero"></path>
                </g>
                <g id="Group" transform="translate(53.000000, 102.000000)" fill="#FFFFFF">
                    <g stroke="#000000" stroke-width="0.65">
                        <path d="M36.9186559,7.60509815 C36.243345,7.10598063 35.7008746,6.44728206 35.3392482,5.68729079 L30.7326423,5.19130613 L30.6668336,7.83655766 L36.9186559,7.60509815 Z" id="Path"></path>
                        <path d="M3.0601025,4.4969276 C5.75825739,4.99291227 9.80548972,4.23240245 11.1216628,5.98488159 C12.7010706,7.77042637 6.15310932,10.5810061 7.0744305,12.1350914 C9.11449884,14.2843583 11.1874715,13.3915859 13.4578701,12.2012227 C14.0172437,11.0439251 14.445,8.96078956 14.7082346,8.33254233 C13.8856264,6.44780061 11.6481321,5.48889693 12.24041,2.61218589 C15.958599,1.22342883 23.1646469,1.32262577 23.9543507,1.88474172 C24.5466286,3.07510491 23.9872551,3.60415521 24.1188724,4.56305889 C23.4936901,5.78648773 21.9142824,7.80349202 21.9142824,8.89465828 C25.8628017,10.2834153 26.8499316,8.69626441 30.403599,8.7623957 C34.5495443,8.82852699 37.0502732,9.95275889 37.9715944,8.29947668 C37.3135079,6.84458834 33.5295102,8.03495153 32.1146241,7.10911349 C31.3907288,6.87765398 30.9300682,6.28247239 30.304886,5.65422515 C29.6797038,5.02597791 27.9357744,4.99291227 27.6725398,3.3726957 C28.396435,1.70530257e-13 33.2662755,0.529050306 34.0230751,1.70530257e-13 L46.658337,0.892772392 C48.96164,0.826641104 50.2778131,4.95984662 47.1519019,6.18327546 C44.0588951,7.43976993 34.9443963,4.36466503 30.9629726,6.48086625 C30.7655466,5.62115951 27.9028701,4.29853374 27.7054441,4.2654681 C26.487984,4.59612454 24.1188724,4.4969276 24.1188724,4.4969276 C23.5594988,5.55502822 22.8685079,6.34860368 22.3091343,7.43976993 C19.6767881,6.28247239 17.2089635,8.33254233 14.346287,7.73736073 L9.87129838,8.23334539 L7.04152618,7.96882024 L2.69815489,9.22531472 L5.79116171,6.48086625 L3.0601025,4.4969276 Z" id="Path" stroke-linejoin="round"></path>
                        <path d="M3.85074151,3.9678773 C3.85074151,4.62529673 3.12618582,5.15824049 2.23240108,5.15824049 C1.33861634,5.15824049 0.614060648,4.62529673 0.614060648,3.9678773 C0.614060648,3.31045786 1.33861634,2.77751411 2.23240108,2.77751411 C3.12618582,2.77751411 3.85074151,3.31045786 3.85074151,3.9678773 Z M3.4012025,9.91969324 C3.4012025,10.5771127 2.67664681,11.1100564 1.78286207,11.1100564 C0.88907733,11.1100564 0.16452164,10.5771127 0.16452164,9.91969324 C0.16452164,9.25314298 0.899140604,8.71279723 1.80533902,8.71279723 C2.71153744,8.71279723 3.4461564,9.25314298 3.4461564,9.91969324 L3.4012025,9.91969324 Z" id="Shape"></path>
                    </g>
                    <g transform="translate(43.762756, 0.000000)" stroke="#000000" stroke-width="0.65">
                        <path d="M12.2733143,7.6381638 C13.0301139,6.94378527 13.5236788,6.48086625 13.8198177,5.72035644 L18.4264236,5.19130613 L18.5251366,7.83655766 L12.2733143,7.6381638 Z" id="Path"></path>
                        <path d="M46.0989634,4.4969276 C43.4337129,4.99291227 39.3864805,4.2654681 38.0703074,5.98488159 C36.4579953,7.80349202 43.0059566,10.6140718 42.0846354,12.1350914 C40.0445671,14.3174239 37.9715944,13.4246515 35.7011958,12.2342883 C35.1747266,11.0769908 34.7469703,8.99385521 34.4508313,8.36560797 C35.3063439,6.44780061 37.5109338,5.52196257 36.9515603,2.64525153 C33.2004669,1.22342883 25.9944191,1.32262577 25.2376195,1.88474172 C24.6124373,3.10817055 25.1718109,3.63722086 25.0401936,4.59612454 C25.6982801,5.78648773 27.2776878,7.83655766 27.2776878,8.89465828 C23.3291685,10.316481 22.3091343,8.69626441 18.7883712,8.79546134 C14.6424259,8.86159263 12.1087927,9.95275889 11.2203758,8.29947668 C11.8455581,6.87765398 15.6295558,8.03495153 17.0773462,7.14217914 C17.8012414,6.87765398 18.261902,6.31553803 18.8870842,5.65422515 C19.5122665,4.99291227 21.2561958,4.99291227 21.5194305,3.40576135 C20.7955352,0.0330656441 15.9256947,0.529050306 15.1359908,0.0330656441 L2.50072892,0.892772392 C0.197425968,0.826641104 -1.08584282,4.95984662 2.007164,6.2163411 C5.10017083,7.47283558 14.247574,4.36466503 18.1960933,6.48086625 C18.4264236,5.62115951 21.2561958,4.33159938 21.4865261,4.2654681 C22.6710819,4.62919018 25.0401936,4.4969276 25.0401936,4.4969276 C25.6324715,5.58809386 26.290558,6.38166932 26.8828359,7.47283558 C29.5151821,6.28247239 31.9830067,8.36560797 34.8456833,7.73736073 L39.2877675,8.23334539 L42.1504441,8.00188588 L46.4938154,9.22531472 L43.4008085,6.5139319 L46.0989634,4.52999325 L46.0989634,4.4969276 Z" id="Path" stroke-linejoin="round"></path>
                        <path d="M46.2963894,3.9678773 C46.2963894,4.63442756 47.0310084,5.17477331 47.9372068,5.17477331 C48.8434052,5.17477331 49.5780242,4.63442756 49.5780242,3.9678773 C49.5780242,3.30132704 48.8434052,2.76098129 47.9372068,2.76098129 C47.0310084,2.76098129 46.2963894,3.30132704 46.2963894,3.9678773 Z M46.7459284,9.91969324 C46.7459284,10.5771127 47.4704841,11.1100564 48.3642688,11.1100564 C49.2580536,11.1100564 49.9826093,10.5771127 49.9826093,9.91969324 C49.9826093,9.26227381 49.2580536,8.72933006 48.3642688,8.72933006 C47.4704841,8.72933006 46.7459284,9.26227381 46.7459284,9.91969324 Z" id="Shape"></path>
                    </g>
                    <path d="M46.3951024,1.09116626 C45.3421639,0.892772392 44.9473119,0.95890368 44.2234167,0.892772392 L42.545296,6.11714417 C45.1776422,6.34860368 47.5796582,6.34860368 47.5796582,6.34860368 C46.0002504,6.01794723 46.362198,1.1242319 46.3951024,1.09116626 Z" id="Path"></path>
                </g>
                <g id="Group" transform="translate(87.762430, 99.784826)" fill="#000000" font-family="TrebuchetMS-Bold, Trebuchet MS" font-size="5" font-weight="bold">
                    <g transform="translate(0.041652, 1.340419)" id="L">
                        <text>
                            <tspan x="0.0892112912" y="5.18285768">L</tspan>
                        </text>
                    </g>
                    <g transform="translate(2.880624, 0.946022)" id="I">
                        <text>
                            <tspan x="0.518317602" y="5.90169495">I</tspan>
                        </text>
                    </g>
                    <g transform="translate(5.668805, 1.843676)" id="B">
                        <text>
                            <tspan x="0.0860854683" y="5.02218664">B</tspan>
                        </text>
                    </g>
                    <g transform="translate(8.837570, 1.515174)" id="E">
                        <text>
                            <tspan x="0.518317602" y="5.74384751">E</tspan>
                        </text>
                    </g>
                    <g transform="translate(12.737570, 1.215174)" id="R">
                        <text>
                            <tspan x="0.259158801" y="5.90169495">R</tspan>
                        </text>
                    </g>
                    <g transform="translate(15.694290, 1.715174)" id="T">
                        <text>
                            <tspan x="0.777476403" y="5.32061544">T</tspan>
                        </text>
                    </g>
                    <g transform="translate(19.258315, 1.715174)" id="A">
                        <text>
                            <tspan x="0.402991935" y="5.00350877">A</tspan>
                        </text>
                    </g>
                    <g transform="translate(22.533262, 1.515174)" id="S">
                        <text>
                            <tspan x="0.671653226" y="5.18285768">S</tspan>
                        </text>
                    </g>
                </g>
                <path d="M69,99.0728893 C73.0669991,99.5174043 78.7044236,99.184018 81.16073,99.0728893 M66,87 C68.5686956,89.472074 74.0943779,90.9479391 74.0047722,90.9479391 M79.166028,92.5504068 C78.0642354,87.3848791 76.8837434,86.1303939 75.9,82.8834908 M62,78 C66.0454521,79.9849135 66.6678294,81.287513 69.242208,83.2724266 M72,78.8750498 C72.3056573,73.8278407 72.9169719,72.4858082 74.0122439,71.3188235 M62.643811,71 C64.0691356,72.3815887 68.7288508,76.7445006 68.7288508,76.7445006 M66,63.1267582 C69.060552,64.7871064 69.060552,70.8750498 69.060552,70.8750498" id="Shape" stroke="#00A400" stroke-width="1.1" stroke-linecap="round"></path>
            </g>
        </g>
    </g>
</svg>