<?xml version="1.0" encoding="UTF-8"?>
<svg width="200px" height="150px" viewBox="0 0 200 150" version="1.1" xmlns="http://www.w3.org/2000/svg" xmlns:xlink="http://www.w3.org/1999/xlink">
    <!-- Generator: Sketch 52.5 (67469) - http://www.bohemiancoding.com/sketch -->
    <title>st</title>
    <desc>Created with Sketch.</desc>
    <g id="Flags" stroke="none" stroke-width="1" fill="none" fill-rule="evenodd">
        <g id="Africa" transform="translate(-1170.000000, -1449.000000)">
            <g id="st" transform="translate(1170.000000, 1449.000000)">
                <polygon id="Path" fill="#12AD2B" points="0 0 200 0 200 150 0 150"></polygon>
                <polygon id="Path" fill="#FFCE00" points="0 42.84375 200 42.84375 200 107.1875 0 107.1875"></polygon>
                <polyline id="Path" fill="#D21034" points="0 0 0 150 75 75"></polyline>
                <g id="c" transform="translate(86.303375, 53.571250)" fill="#000000">
                    <g id="b" transform="translate(13.285825, 0.000000)">
                        <polyline id="a" transform="translate(12.069864, 11.845438) rotate(18.000000) translate(-12.069864, -11.845438) " points="6.71267662 1.13106314 6.71267662 22.5598131 17.4270516 22.5598131"></polyline>
                        <g id="a-link" transform="translate(8.464356, 11.892956) scale(-1, 1) translate(-8.464356, -11.892956) ">
                            <polyline id="a" transform="translate(8.426977, 11.845438) rotate(18.000000) translate(-8.426977, -11.845438) " points="3.06978912 1.13106314 3.06978912 22.5598131 13.7841641 22.5598131"></polyline>
                        </g>
                    </g>
                    <g id="b-link" transform="translate(32.640704, 18.482028) rotate(72.000000) translate(-32.640704, -18.482028) translate(22.354904, 6.589071)">
                        <g id="b">
                            <polyline id="a" transform="translate(12.069864, 11.845438) rotate(18.000000) translate(-12.069864, -11.845438) " points="6.71267662 1.13106314 6.71267662 22.5598131 17.4270516 22.5598131"></polyline>
                            <g id="a-link" transform="translate(8.464356, 11.892956) scale(-1, 1) translate(-8.464356, -11.892956) ">
                                <polyline id="a" transform="translate(8.426977, 11.845438) rotate(18.000000) translate(-8.426977, -11.845438) " points="3.06978912 1.13106314 3.06978912 22.5598131 13.7841641 22.5598131"></polyline>
                            </g>
                        </g>
                    </g>
                    <g id="b-link" transform="translate(29.176624, 29.143369) rotate(144.000000) translate(-29.176624, -29.143369) translate(18.890824, 17.250413)">
                        <g id="b">
                            <polyline id="a" transform="translate(12.069864, 11.845438) rotate(18.000000) translate(-12.069864, -11.845438) " points="6.71267662 1.13106314 6.71267662 22.5598131 17.4270516 22.5598131"></polyline>
                            <g id="a-link" transform="translate(8.464356, 11.892956) scale(-1, 1) translate(-8.464356, -11.892956) ">
                                <polyline id="a" transform="translate(8.426977, 11.845438) rotate(18.000000) translate(-8.426977, -11.845438) " points="3.06978912 1.13106314 3.06978912 22.5598131 13.7841641 22.5598131"></polyline>
                            </g>
                        </g>
                    </g>
                    <g id="b-link" transform="translate(17.966626, 29.143369) rotate(-144.000000) translate(-17.966626, -29.143369) translate(7.680826, 17.250413)">
                        <g id="b">
                            <polyline id="a" transform="translate(12.069864, 11.845438) rotate(18.000000) translate(-12.069864, -11.845438) " points="6.71267662 1.13106314 6.71267662 22.5598131 17.4270516 22.5598131"></polyline>
                            <g id="a-link" transform="translate(8.464356, 11.892956) scale(-1, 1) translate(-8.464356, -11.892956) ">
                                <polyline id="a" transform="translate(8.426977, 11.845438) rotate(18.000000) translate(-8.426977, -11.845438) " points="3.06978912 1.13106314 3.06978912 22.5598131 13.7841641 22.5598131"></polyline>
                            </g>
                        </g>
                    </g>
                    <g id="b-link" transform="translate(14.502546, 18.482028) rotate(-72.000000) translate(-14.502546, -18.482028) translate(4.216746, 6.589071)">
                        <g id="b">
                            <polyline id="a" transform="translate(12.069864, 11.845438) rotate(18.000000) translate(-12.069864, -11.845438) " points="6.71267662 1.13106314 6.71267662 22.5598131 17.4270516 22.5598131"></polyline>
                            <g id="a-link" transform="translate(8.464356, 11.892956) scale(-1, 1) translate(-8.464356, -11.892956) ">
                                <polyline id="a" transform="translate(8.426977, 11.845438) rotate(18.000000) translate(-8.426977, -11.845438) " points="3.06978912 1.13106314 3.06978912 22.5598131 13.7841641 22.5598131"></polyline>
                            </g>
                        </g>
                    </g>
                </g>
                <g id="c-link" transform="translate(141.500000, 53.437500)" fill="#000000">
                    <g id="c" transform="translate(0.053375, 0.133750)">
                        <g id="b" transform="translate(13.285825, 0.000000)">
                            <polyline id="a" transform="translate(12.069864, 11.845438) rotate(18.000000) translate(-12.069864, -11.845438) " points="6.71267662 1.13106314 6.71267662 22.5598131 17.4270516 22.5598131"></polyline>
                            <g id="a-link" transform="translate(8.464356, 11.892956) scale(-1, 1) translate(-8.464356, -11.892956) ">
                                <polyline id="a" transform="translate(8.426977, 11.845438) rotate(18.000000) translate(-8.426977, -11.845438) " points="3.06978912 1.13106314 3.06978912 22.5598131 13.7841641 22.5598131"></polyline>
                            </g>
                        </g>
                        <g id="b-link" transform="translate(32.640704, 18.482028) rotate(72.000000) translate(-32.640704, -18.482028) translate(22.354904, 6.589071)">
                            <g id="b">
                                <polyline id="a" transform="translate(12.069864, 11.845438) rotate(18.000000) translate(-12.069864, -11.845438) " points="6.71267662 1.13106314 6.71267662 22.5598131 17.4270516 22.5598131"></polyline>
                                <g id="a-link" transform="translate(8.464356, 11.892956) scale(-1, 1) translate(-8.464356, -11.892956) ">
                                    <polyline id="a" transform="translate(8.426977, 11.845438) rotate(18.000000) translate(-8.426977, -11.845438) " points="3.06978912 1.13106314 3.06978912 22.5598131 13.7841641 22.5598131"></polyline>
                                </g>
                            </g>
                        </g>
                        <g id="b-link" transform="translate(29.176624, 29.143369) rotate(144.000000) translate(-29.176624, -29.143369) translate(18.890824, 17.250413)">
                            <g id="b">
                                <polyline id="a" transform="translate(12.069864, 11.845438) rotate(18.000000) translate(-12.069864, -11.845438) " points="6.71267662 1.13106314 6.71267662 22.5598131 17.4270516 22.5598131"></polyline>
                                <g id="a-link" transform="translate(8.464356, 11.892956) scale(-1, 1) translate(-8.464356, -11.892956) ">
                                    <polyline id="a" transform="translate(8.426977, 11.845438) rotate(18.000000) translate(-8.426977, -11.845438) " points="3.06978912 1.13106314 3.06978912 22.5598131 13.7841641 22.5598131"></polyline>
                                </g>
                            </g>
                        </g>
                        <g id="b-link" transform="translate(17.966626, 29.143369) rotate(-144.000000) translate(-17.966626, -29.143369) translate(7.680826, 17.250413)">
                            <g id="b">
                                <polyline id="a" transform="translate(12.069864, 11.845438) rotate(18.000000) translate(-12.069864, -11.845438) " points="6.71267662 1.13106314 6.71267662 22.5598131 17.4270516 22.5598131"></polyline>
                                <g id="a-link" transform="translate(8.464356, 11.892956) scale(-1, 1) translate(-8.464356, -11.892956) ">
                                    <polyline id="a" transform="translate(8.426977, 11.845438) rotate(18.000000) translate(-8.426977, -11.845438) " points="3.06978912 1.13106314 3.06978912 22.5598131 13.7841641 22.5598131"></polyline>
                                </g>
                            </g>
                        </g>
                        <g id="b-link" transform="translate(14.502546, 18.482028) rotate(-72.000000) translate(-14.502546, -18.482028) translate(4.216746, 6.589071)">
                            <g id="b">
                                <polyline id="a" transform="translate(12.069864, 11.845438) rotate(18.000000) translate(-12.069864, -11.845438) " points="6.71267662 1.13106314 6.71267662 22.5598131 17.4270516 22.5598131"></polyline>
                                <g id="a-link" transform="translate(8.464356, 11.892956) scale(-1, 1) translate(-8.464356, -11.892956) ">
                                    <polyline id="a" transform="translate(8.426977, 11.845438) rotate(18.000000) translate(-8.426977, -11.845438) " points="3.06978912 1.13106314 3.06978912 22.5598131 13.7841641 22.5598131"></polyline>
                                </g>
                            </g>
                        </g>
                    </g>
                </g>
            </g>
        </g>
    </g>
</svg>