<?xml version="1.0" encoding="UTF-8"?>
<svg width="200px" height="150px" viewBox="0 0 200 150" version="1.1" xmlns="http://www.w3.org/2000/svg" xmlns:xlink="http://www.w3.org/1999/xlink">
    <!-- Generator: Sketch 52.5 (67469) - http://www.bohemiancoding.com/sketch -->
    <title>sg</title>
    <desc>Created with Sketch.</desc>
    <defs>
        <polygon id="path-1" points="0 0 200 0 200 150 0 150"></polygon>
    </defs>
    <g id="Flags" stroke="none" stroke-width="1" fill="none" fill-rule="evenodd">
        <g id="Asia" transform="translate(-70.000000, -1450.000000)">
            <g id="sg" transform="translate(70.000000, 1450.000000)">
                <mask id="mask-2" fill="white">
                    <use xlink:href="#path-1"></use>
                </mask>
                <g id="Path"></g>
                <g id="Group" mask="url(#mask-2)">
                    <g transform="translate(-6.250000, 0.000000)">
                        <polygon id="Path" fill="#FFFFFF" fill-rule="evenodd" points="0 0 225 0 225 150 0 150"></polygon>
                        <polygon id="Path" fill="#DF0000" fill-rule="evenodd" points="0 0 225 0 225 75 0 75"></polygon>
                        <path d="M51.875,12.5625 C39.6746666,15.184396 30.9814426,25.9977574 31.0418723,38.4764921 C31.1023021,50.9552269 39.8998458,61.6838872 52.125,64.1875 C45.2622973,66.1733193 37.8913343,65.3449238 31.6406209,61.8853357 C25.3899076,58.4257477 20.7739217,52.6197155 18.8125,45.75 C14.7969804,31.5161004 23.0366433,16.7126383 37.25,12.625 C42.25,11.1875 46.875,11.15625 51.90625,12.5625 L51.875,12.5625 Z" id="Path" fill="#FFFFFF" fill-rule="evenodd"></path>
                        <path d="M47.8125,34.375 L49.34375,39.0625 L45.28125,36.1875 L41.28125,39.125 L42.75,34.375 L38.75,31.46875 L43.71875,31.40625 L45.28125,26.71875 L46.84375,31.40625 L51.78125,31.40625 L47.8125,34.375 Z M53.28125,50.625 L54.84375,55.34375 L50.78125,52.46875 L46.75,55.375 L48.25,50.65625 L44.25,47.71875 L49.21875,47.6875 L50.75,42.96875 L52.3125,47.65625 L57.3125,47.65625 L53.28125,50.625 Z M71.5625,50.5 L73.09375,55.25 L69.03125,52.34375 L65.03125,55.25 L66.5,50.53125 L62.5,47.625 L67.46875,47.5625 L69.03125,42.875 L70.59375,47.5625 L75.53125,47.5625 L71.5625,50.5 Z M77,34.375 L78.53125,39.09375 L74.46875,36.21875 L70.46875,39.125 L71.96875,34.40625 L67.9375,31.46875 L72.9375,31.4375 L74.4375,26.71875 L76,31.40625 L81,31.40625 L77,34.375 Z M62.53125,23.65625 L64.09375,28.40625 L60.03125,25.5 L56,28.4375 L57.5,23.6875 L53.5,20.75 L58.4375,20.71875 L60,16 L61.5625,20.6875 L66.5625,20.6875 L62.53125,23.65625 Z" id="Shape" fill="#FFFFFF" fill-rule="nonzero"></path>
                    </g>
                </g>
            </g>
        </g>
    </g>
</svg>