<?xml version="1.0" encoding="UTF-8"?>
<svg width="200px" height="141px" viewBox="0 0 200 141" version="1.1" xmlns="http://www.w3.org/2000/svg" xmlns:xlink="http://www.w3.org/1999/xlink">
    <!-- Generator: Sketch 52.5 (67469) - http://www.bohemiancoding.com/sketch -->
    <title>si</title>
    <desc>Created with Sketch.</desc>
    <defs>
        <polygon id="path-1" points="0.292397661 0 199.883041 0 199.883041 141 0.263157895 141"></polygon>
    </defs>
    <g id="Flags" stroke="none" stroke-width="1" fill="none" fill-rule="evenodd">
        <g id="Europe" transform="translate(-950.000000, -1650.000000)">
            <g id="si" transform="translate(950.000000, 1650.000000)">
                <mask id="mask-2" fill="white">
                    <use xlink:href="#path-1"></use>
                </mask>
                <g id="Path"></g>
                <g id="Group" mask="url(#mask-2)">
                    <g transform="translate(-8.194444, 0.000000)">
                        <polygon id="Path" fill="#FFFFFF" fill-rule="evenodd" points="0 0 280.701754 0 280.701754 140.625 0 140.625"></polygon>
                        <polygon id="Path" fill="#DE2918" fill-rule="evenodd" points="0 93.7408447 280.701754 93.7408447 280.701754 140.625 0 140.625"></polygon>
                        <polygon id="Path" fill="#08399C" fill-rule="evenodd" points="0 46.8841553 280.701754 46.8841553 280.701754 93.7408447 0 93.7408447"></polygon>
                        <path d="M79.6052632,25.5432129 C78.5087719,42.4621582 77.8508772,51.7456055 75.3015351,56.0302734 C72.5054825,60.6445313 69.8190789,64.0228271 58.9364035,68.1152344 C48.0811404,64.0228271 45.3947368,60.6445313 42.5986842,56.0302734 C40.0219298,51.7456055 39.3914474,42.4621582 38.2949561,25.5432129 L39.8848684,24.9938965 C43.1195175,24.005127 45.5317982,23.2086182 47.3135965,22.8515625 C49.8629386,22.3022461 52.0559211,21.697998 58.9089912,21.5606689 C65.7620614,21.6705322 67.9550439,22.3297119 70.504386,22.8790283 C72.2587719,23.2635498 74.7807018,23.9776611 77.9879386,24.9938965 L79.6052632,25.5432129 Z" id="Path" fill="#DE2918" fill-rule="evenodd"></path>
                        <path d="M78.0153509,24.9938965 C76.9736842,41.885376 76.0964912,49.6307373 74.7258772,53.338623 C72.0942982,59.7106934 67.9276316,63.1988525 58.9364035,66.5222168 C49.9451754,63.1988525 45.7785088,59.7106934 43.1195175,53.338623 C41.7489035,49.6032715 40.9265351,41.885376 39.8848684,24.9664307 C43.064693,23.9776611 45.5317982,23.2086182 47.3135965,22.8515625 C49.8629386,22.3022461 52.0559211,21.6705322 58.9089912,21.5606689 C65.7620614,21.6705322 67.9550439,22.3022461 70.504386,22.8515625 C73.0417447,23.4302982 75.5485467,24.1361404 78.0153509,24.9664307 L78.0153509,24.9938965 Z" id="Path" fill="#08399C" fill-rule="evenodd"></path>
                        <polygon id="Path" fill="#FFCC00" fill-rule="evenodd" points="58.9364035 30.1574707 59.3475877 31.1737061 61.2664474 31.4483643 60.0328947 32.1899414 61.2116228 32.9864502 59.4846491 33.2611084 58.9364035 34.1949463 58.3881579 33.2336426 56.7434211 33.013916 57.8399123 32.1899414 56.6885965 31.4483643 58.5252193 31.1737061 58.9364035 30.1574707"></polygon>
                        <path d="M74.0953947,49.3286133 L73.0263158,48.5046387 L72.2861842,47.2412109 L70.8059211,45.9503174 L70.0109649,44.6594238 L68.5307018,43.3135986 L67.8179825,42.0227051 L66.995614,41.3909912 L66.502193,40.8691406 L65.1315789,42.0501709 L64.4188596,43.3410645 L63.5142544,44.1650391 L62.5,43.3685303 L61.7598684,42.0501709 L58.9364035,37.0239258 L56.1129386,42.0501709 L55.372807,43.3685303 L54.3585526,44.1650391 L53.4539474,43.3410645 L52.7138158,42.0501709 L51.370614,40.8691406 L50.8497807,41.3635254 L50.0548246,42.0227051 L49.3421053,43.3135986 L47.8618421,44.6594238 L47.066886,45.9503174 L45.5866228,47.2412109 L44.8464912,48.5046387 L43.7774123,49.3286133 C44.380091,53.1091961 46.165457,56.6003449 48.8760965,59.2987061 C51.8168421,61.8204444 55.2266613,63.734046 58.9089912,64.9291992 C62.6193838,63.7607739 66.0522289,61.8447203 68.9967105,59.2987061 C70.5866228,57.6507568 73.5471491,53.9978027 74.0953947,49.3286133 Z" id="Path" fill="#FFFFFF" fill-rule="evenodd"></path>
                        <path d="M63.4320175,23.0438232 L63.870614,24.0600586 L65.7894737,24.3347168 L64.5285088,25.0762939 L65.7346491,25.8728027 L64.0076754,26.1474609 L63.4594298,27.0812988 L62.9111842,26.1199951 L61.2664474,25.9002686 L62.3629386,25.0762939 L61.2116228,24.3347168 L63.0208333,24.0600586 L63.4594298,23.0438232 L63.4320175,23.0438232 Z M54.3859649,23.0438232 L54.8245614,24.0600586 L56.7434211,24.307251 L55.5098684,25.0488281 L56.6885965,25.8453369 L54.9616228,26.1199951 L54.4133772,27.053833 L53.8651316,26.1199951 L52.2203947,25.8728027 L53.316886,25.0488281 L52.1655702,24.307251 L54.002193,24.0325928 L54.4133772,23.0163574 L54.3859649,23.0438232 Z" id="Shape" fill="#FFCC00" fill-rule="nonzero"></path>
                        <path d="M71.7379386,55.7556152 L69.7094298,55.7556152 L67.7905702,55.6182861 L65.5153509,54.5196533 L62.9385965,54.5196533 L60.7182018,55.6182861 L58.9364035,55.7830811 L57.1820175,55.6182861 L54.9616228,54.5196533 L52.3574561,54.5196533 L50.0548246,55.6182861 L48.1633772,55.7830811 L46.0800439,55.7556152 L45.0932018,54.0527344 L45.120614,53.9978027 L48.1907895,54.5196533 L50.0822368,54.3823242 L52.3574561,53.2562256 L54.9342105,53.2562256 L57.1820175,54.3548584 L58.9364035,54.5196533 L60.7182018,54.3548584 L62.9385965,53.2562256 L65.5153509,53.2562256 L67.8179825,54.3548584 L69.7094298,54.5196533 L72.6699561,53.9703369 L72.7247807,54.0802002 L71.7105263,55.7556152 L71.7379386,55.7556152 Z M48.0537281,58.3648682 L50.0822368,58.2275391 L52.3574561,57.1289062 L54.9342105,57.1289062 L57.1820175,58.2275391 L58.9364035,58.3648682 L60.6907895,58.2275391 L62.9385965,57.1289062 L65.5153509,57.1289062 L67.7905702,58.2275391 L69.8464912,58.3648682 L71.1622807,56.7169189 L71.1348684,56.7169189 L69.7094298,57.1014404 L67.8179825,56.9641113 L65.5427632,55.8654785 L62.9660088,55.8654785 L60.7182018,56.9641113 L58.9638158,57.1289062 L57.1820175,56.9641113 L54.9616228,55.8654785 L52.3574561,55.8654785 L50.0548246,56.9641113 L48.1633772,57.1289062 L46.7927632,56.7718506 L46.7927632,56.8267822 L48.0263158,58.3648682 L48.0537281,58.3648682 Z" id="Shape" fill="#08399C" fill-rule="nonzero"></path>
                    </g>
                </g>
            </g>
        </g>
    </g>
</svg>