<?xml version="1.0" encoding="UTF-8"?>
<svg width="200px" height="141px" viewBox="0 0 200 141" version="1.1" xmlns="http://www.w3.org/2000/svg" xmlns:xlink="http://www.w3.org/1999/xlink">
    <!-- Generator: Sketch 52.5 (67469) - http://www.bohemiancoding.com/sketch -->
    <title>sb</title>
    <desc>Created with Sketch.</desc>
    <defs>
        <polygon id="path-1" points="0 0 199.912152 0 199.912152 150 0 150"></polygon>
    </defs>
    <g id="Flags" stroke="none" stroke-width="1" fill="none" fill-rule="evenodd">
        <g id="Oceania" transform="translate(-70.000000, -650.000000)">
            <g id="sb" transform="translate(70.000000, 650.000000)">
                <mask id="mask-2" fill="white">
                    <use xlink:href="#path-1"></use>
                </mask>
                <g id="Path"></g>
                <g id="Group" mask="url(#mask-2)">
                    <polygon id="Path" fill="#0000D6" points="0 139.306641 271.065154 0 0 0"></polygon>
                    <polygon id="Path" fill="#006000" points="281.112738 0 7.4670571 140.625 281.112738 140.625"></polygon>
                    <polygon id="Path" fill="#FFCC00" points="281.112738 0 266.041362 0 0 133.319092 0 140.625 15.0713763 140.625 281.112738 7.58056641"></polygon>
                    <path d="M19.6010249,2.49938965 L22.84041,11.9750977 L33.40959,11.9750977 L24.8718887,17.7703857 L28.1387262,27.2186279 L19.6010249,21.4233398 L11.0633236,27.2460938 L14.3301611,17.7978516 L5.79245974,11.9476318 L16.3341874,11.9476318 L19.6010249,2.49938965 Z M72.0625915,2.49938965 L75.329429,11.9750977 L85.8986091,11.9750977 L77.3334553,17.7978516 L80.6277452,27.2460937 L72.0351391,21.4233398 L63.5248902,27.2735596 L66.7917277,17.8253174 L58.2265739,11.9750977 L68.795754,11.9750977 L72.0625915,2.49938965 Z M72.0625915,42.1875 L75.329429,51.663208 L85.8986091,51.663208 L77.3334553,57.4859619 L80.6277452,66.9342041 L72.0625915,61.0839844 L63.5523426,66.9342041 L66.8191801,57.4859619 L58.2540264,51.6357422 L68.8232064,51.6357422 L72.0625915,42.1875 Z M45.9827965,22.5769043 L49.249634,32.0251465 L59.7913616,32.0251465 L51.2811127,37.8753662 L54.5204978,47.3236084 L46.0102489,41.4733887 L37.4450952,47.3236084 L40.7393851,37.8753662 L32.1742313,32.0251465 L42.7434114,32.0251465 L45.9827965,22.5769043 Z M19.6010249,42.1875 L22.84041,51.663208 L33.40959,51.663208 L24.8718887,57.4859619 L28.1387262,66.9342041 L19.6010249,61.0839844 L11.0633236,66.9342041 L14.3576135,57.4859619 L5.76500732,51.6357422 L16.306735,51.6357422 L19.6010249,42.1875 Z" id="Shape" fill="#FFFFFF" fill-rule="nonzero"></path>
                </g>
            </g>
        </g>
    </g>
</svg>