<?xml version="1.0" encoding="UTF-8"?>
<svg width="200px" height="141px" viewBox="0 0 200 141" version="1.1" xmlns="http://www.w3.org/2000/svg" xmlns:xlink="http://www.w3.org/1999/xlink">
    <!-- Generator: Sketch 52.5 (67469) - http://www.bohemiancoding.com/sketch -->
    <title>sz</title>
    <desc>Created with Sketch.</desc>
    <defs>
        <polygon id="path-1" points="0.204678363 0 199.795322 0 199.795322 140.707602 0.204678363 140.707602"></polygon>
    </defs>
    <g id="Flags" stroke="none" stroke-width="1" fill="none" fill-rule="evenodd">
        <g id="Africa" transform="translate(-70.000000, -1650.000000)">
            <g id="sz" transform="translate(70.000000, 1650.000000)">
                <mask id="mask-2" fill="white">
                    <use xlink:href="#path-1"></use>
                </mask>
                <g id="Path"></g>
                <g id="Group" mask="url(#mask-2)">
                    <g transform="translate(-5.000000, 0.000000)">
                        <polygon id="Path" stroke="none" fill="#3E5EB9" points="0 0 210.526316 0 210.526316 140.350877 0 140.350877"></polygon>
                        <polygon id="Path" stroke="none" fill="#FFD900" points="0 25.0548246 210.526316 25.0548246 210.526316 115.296053 0 115.296053"></polygon>
                        <polygon id="Path" stroke="none" fill="#B10C0C" points="0 35.0877193 210.526316 35.0877193 210.526316 105.263158 0 105.263158"></polygon>
                        <rect id="Rectangle" stroke="#000000" stroke-width="0.7" fill="#FFD900" x="20.997807" y="68.6677632" width="170.422149" height="3.01535088" rx="1.50767544"></rect>
                        <g id="Group" stroke="none" stroke-width="1" fill="none" transform="translate(42.880510, 54.093640)">
                            <polygon id="Path" stroke="#000000" stroke-width="0.65" fill="#FFFFFF" points="130.047429 0.0396091009 121.524682 3.04424232 130.047429 6.04887555 138.570176 3.04424232"></polygon>
                            <rect id="Rectangle" stroke="#000000" stroke-width="0.65" fill="#FFD900" x="0.226337719" y="2.03703947" width="125.30622" height="2.00874726" rx="1.00437363"></rect>
                            <path d="M123.520366,4.04578673 C123.025242,4.04578673 122.530119,3.53652686 122.530119,3.027267 C122.530119,2.51800713 123.025242,2.03703947 123.520366,2.03703947" id="Path" stroke="#000000" stroke-width="0.65" transform="translate(123.025242, 3.041413) scale(-1, 1) translate(-123.025242, -3.041413) "></path>
                            <path d="M122.530138,4.04578673 C122.035015,4.04578673 121.539891,3.53652686 121.539891,3.027267 C121.539891,2.51800713 122.035015,2.03703947 122.530138,2.03703947" id="Path" stroke="#000000" stroke-width="0.65" transform="translate(122.035015, 3.041413) scale(-1, 1) translate(-122.035015, -3.041413) "></path>
                            <path d="M121.511619,4.07407895 C121.016495,4.07407895 120.521371,3.56481908 120.521371,3.05555921 C120.521371,2.54629934 121.016495,2.06533169 121.511619,2.06533169" id="Path" stroke="#000000" stroke-width="0.65" transform="translate(121.016495, 3.069705) scale(-1, 1) translate(-121.016495, -3.069705) "></path>
                        </g>
                        <g id="Group" stroke="none" stroke-width="1" fill="none" transform="translate(34.848712, 60.096930)">
                            <polygon id="Path" stroke="#000000" stroke-width="0.65" fill="#FFFFFF" points="130.047429 0.0396091009 121.524682 3.04424232 130.047429 6.04887555 138.570176 3.04424232"></polygon>
                            <rect id="Rectangle" stroke="#000000" stroke-width="0.65" fill="#FFD900" x="0.226337719" y="2.03703947" width="125.30622" height="2.00874726" rx="1.00437363"></rect>
                            <path d="M123.520366,4.04578673 C123.025242,4.04578673 122.530119,3.53652686 122.530119,3.027267 C122.530119,2.51800713 123.025242,2.03703947 123.520366,2.03703947" id="Path" stroke="#000000" stroke-width="0.65" transform="translate(123.025242, 3.041413) scale(-1, 1) translate(-123.025242, -3.041413) "></path>
                            <path d="M122.530138,4.04578673 C122.035015,4.04578673 121.539891,3.53652686 121.539891,3.027267 C121.539891,2.51800713 122.035015,2.03703947 122.530138,2.03703947" id="Path" stroke="#000000" stroke-width="0.65" transform="translate(122.035015, 3.041413) scale(-1, 1) translate(-122.035015, -3.041413) "></path>
                            <path d="M121.511619,4.07407895 C121.016495,4.07407895 120.521371,3.56481908 120.521371,3.05555921 C120.521371,2.54629934 121.016495,2.06533169 121.511619,2.06533169" id="Path" stroke="#000000" stroke-width="0.65" transform="translate(121.016495, 3.069705) scale(-1, 1) translate(-121.016495, -3.069705) "></path>
                        </g>
                        <g id="Group" stroke="none" stroke-width="1" fill="none" transform="translate(171.052632, 68.804825)">
                            <path d="M8.3627193,0.189563596 C6.86348684,2.81089912 9.53484649,-0.677168311 16.1042105,3.71991064 C17.3035965,4.52322314 18.3666886,6.679483 18.3666886,8.18040899 C18.0668421,7.96901096 17.8215132,7.54621491 17.4944079,7.22911787 C17.00375,7.71533333 17.957807,9.892733 18.0941009,10.9285833 C17.0582675,10.3578087 17.1673026,10.0829912 16.8129386,9.36423794 C16.8947149,10.20983 16.649386,12.5774879 17.0582675,13.4653596 C16.2405044,13.2539616 16.2950219,12.5986277 15.8861404,12.4506491 C16.1587281,13.4864995 15.6135526,14.5857692 15.7771053,15.7484583 C15.2864474,15.2833827 14.7957895,14.9028662 14.5777193,14.712608 C14.5504605,15.2622429 13.6781798,16.6997495 13.6509211,17.2282445 C13.2420395,16.9745669 13.1330044,16.5940504 13.0784868,16.3403728 C12.5878289,16.9745669 10.8160088,19.2999452 10.7069737,19.9764189 C9.34403509,18.7714501 5.85491228,15.8541573 5.39151316,14.289812 C4.98263158,15.1776837 4.41019737,15.4736409 3.26532895,16.1289748 C2.80192982,13.6556179 1.08462719,10.8863037 2.01142544,8.77232346 C1.38401093,9.16337905 0.783492096,9.57970104 0.212346491,10.0195718 C1.00827507,5.99468052 3.97103015,2.42135848 8.3627193,0.189563596 Z" id="Path" stroke="#000000" stroke-width="0.58" fill="#3D5DA7"></path>
                            <path d="M2.71381579,13.2127193 C3.34429825,11.9517544 3.91995614,11.5679825 4.33114035,10.745614 C5.04385965,9.32017544 5.15350877,8.16885965 5.78399123,8.33333333 C6.41447368,8.49780702 6.41447368,9.10087719 5.59210526,10.4989035 C4.76973684,11.8695175 4.38596491,12.1984649 2.71381579,13.2127193 Z M6.9627193,16.2280702 C6.88048246,15.2412281 7.18201754,14.8574561 7.12719298,14.2269737 C7.04495614,13.1304825 6.57894737,12.3903509 7.15460526,12.3355263 C7.73026316,12.2807018 8.00438596,12.6644737 8.00438596,13.7609649 C8.00438596,14.8574561 7.83991228,15.1315789 6.9627193,16.2280702 Z M10.1973684,18.0921053 C9.95065789,16.7214912 10.1425439,16.1732456 9.97807018,15.2960526 C9.70394737,13.7609649 9.15570175,12.7741228 9.70394737,12.6370614 C10.2247807,12.5 10.5263158,12.9934211 10.745614,14.5285088 C10.9375,16.0635965 10.8278509,16.502193 10.1973684,18.0921053 Z M13.5690789,8.68969298 C12.7741228,8.11403509 12.308114,8.05921053 11.814693,7.6754386 C10.9100877,6.99013158 10.4440789,6.27741228 10.1699561,6.63377193 C9.89583333,6.99013158 10.0877193,7.37390351 11.0197368,8.00438596 C11.9791667,8.63486842 12.2807018,8.68969298 13.5690789,8.68969298 Z M13.0208333,13.1578947 C12.6096491,12.2807018 12.1710526,12.0614035 11.8969298,11.5131579 C11.4035088,10.5263158 11.4035088,9.67653509 10.9100877,9.89583333 C10.3618421,10.1151316 10.3618421,10.5537281 10.9100877,11.5131579 C11.4583333,12.4451754 11.7324561,12.6096491 13.0208333,13.1578947 Z" id="Shape" fill="#A70000" fill-rule="nonzero"></path>
                        </g>
                        <g id="Group" stroke="none" stroke-width="1" fill="none" transform="translate(22.478070, 69.353070)">
                            <path d="M5.87201754,2.1723273 C5.77849781,1.39555921 5.96553728,1.30925164 5.46676535,0.733867873 C6.15257675,1.02155976 6.18375,1.79832785 7.02542763,1.25171327 C7.33716009,1.07909814 7.46185307,1.07909814 7.08777412,0.244791667 C7.960625,0.244791667 10.8285636,1.25171327 11.264989,1.28048246 C12.4807456,1.33802083 14.6628728,0.0146381579 16.1591886,1.62571272 C17.6243311,3.09294134 17.1255592,4.61770833 17.1255592,6.66032072 C16.5644408,6.37262884 16.8138268,6.25755208 16.1903618,5.50955318 C16.6891338,7.29324287 16.1903618,10.515392 16.1903618,12.4141584 C15.9409759,11.9538514 15.9721491,12.1264666 15.7539364,11.6661595 C15.1304715,13.3923109 14.3823136,13.7663103 14.3823136,15.7801535 C14.1641009,15.0033854 14.3823136,15.1472314 14.1329276,14.7444627 C13.5094627,16.0390762 9.45694079,17.1610746 11.0156031,18.4844572 C9.64398026,17.67892 9.02051535,17.7652275 8.36587719,17.0172286 C8.08531798,17.1898438 7.86710526,17.535074 7.6177193,17.995381 C5.12385965,16.8446135 6.05905702,14.3992325 4.09514254,12.7593887 C3.78341009,13.4498492 3.90810307,13.3347725 3.53402412,14.4567708 C3.15994518,12.9032346 3.03525219,11.896313 2.59882675,10.7743147 C2.22474781,11.4072368 2.2870943,11.1483141 1.57010965,12.1264666 C1.25837719,10.2277001 0.821951754,9.76739309 1.00899123,8.53031798 C0.260833333,9.04816338 0.759605263,8.81800987 0.0114473684,9.47970121 C0.697258772,4.58893914 3.7210636,1.02155976 5.87201754,2.1723273 Z" id="Path" stroke="#000000" stroke-width="0.72" fill="#3D5DA7"></path>
                            <path d="M2.82346491,10.0877193 C3.45394737,8.5252193 4.02960526,8.03179825 4.46820175,7.01754386 C5.18092105,5.26315789 5.29057018,3.8377193 5.89364035,4.05701754 C6.52412281,4.27631579 6.49671053,4.98903509 5.67434211,6.74342105 C5.11692625,8.14091081 4.1151043,9.31612502 2.82346491,10.0877193 Z M5.23574561,14.0076754 C5.50986842,12.6096491 5.89364035,12.0888158 6.05811404,11.1842105 C6.33223684,9.59429825 6.19517544,8.41557018 6.77083333,8.47039474 C7.31907895,8.55263158 7.45614035,9.12828947 7.07236842,10.7182018 C6.68859649,12.308114 6.44188596,12.6644737 5.23574561,14.0076754 Z M8.11403509,16.7214912 C8.19627193,15.3508772 8.5252193,14.8300439 8.55263158,13.9802632 C8.63486842,12.4177632 8.36074561,11.3212719 8.88157895,11.3212719 C9.42982456,11.3212719 9.62171053,11.8695175 9.45723684,13.4046053 C9.29276316,14.939693 9.10087719,15.3234649 8.11403509,16.6940789 L8.11403509,16.7214912 Z M14.3366228,7.83991228 C13.1304825,6.66118421 12.4177632,6.44188596 11.6502193,5.64692982 C10.3070175,4.33114035 9.64912281,3.07017544 9.18311404,3.53618421 C8.68969298,3.9747807 8.99122807,4.63267544 10.4166667,5.92105263 C11.8421053,7.18201754 12.3355263,7.34649123 14.3366228,7.83991228 Z M13.5964912,12.3903509 C12.8289474,11.2390351 12.2807018,10.9100877 11.7872807,10.1425439 C10.9100877,8.79934211 10.6085526,7.64802632 10.1425439,7.9495614 C9.59429825,8.22368421 9.73135965,8.82675439 10.6907895,10.1425439 C11.622807,11.4309211 12.0065789,11.6502193 13.6239035,12.3903509 L13.5964912,12.3903509 Z" id="Shape" fill="#A70000" fill-rule="nonzero"></path>
                        </g>
                        <g id="Group" stroke="none" stroke-width="1" fill="none" transform="translate(55.098684, 40.021930)">
                            <path d="M100.288116,30.1577791 C90.2726231,40.1732231 76.8997714,60.238062 50.154068,60.238062 C26.7657237,60.238062 10.0543745,40.1901985 0.0388818531,30.1577791 C10.0543745,20.142335 26.7657237,0.0944714912 50.154068,0.0944714912 C76.8997714,0.0944714912 90.2537615,20.1253596 100.288116,30.1577791 Z" id="Path" stroke="#000000" stroke-width="0.65" fill="#FFFFFF"></path>
                            <path d="M46.6557018,10.5263158 C49.3421053,13.5416667 47.0942982,14.747807 49.9451754,14.939693 C52.9057018,15.1589912 51.2061404,18.1195175 53.7280702,18.2291667 C55.4824561,18.2839912 53.5361842,25.2741228 55.2357456,27.6041667 C56.9627193,29.9890351 58.3881579,28.2894737 58.4155702,30.0438596 C58.4429825,31.8256579 53.7554825,31.6611842 53.6732456,37.1710526 C53.5361842,40.3782895 49.6984649,40.5975877 49.5065789,42.6535088 C49.2872807,44.5723684 57.0449561,45.6688596 56.9627193,47.3958333 C56.8530702,49.122807 48.5471491,48.8486842 48.1907895,50.7949561 C48.0263158,52.5767544 59.5942982,54.0296053 60.5263158,59.1282895 C58.7993421,59.6765351 53.8651316,60.2247807 50.1644737,60.2247807 C26.7817982,60.2247807 10.060307,40.1864035 0.0274122807,30.1535088 C10.060307,20.120614 26.7817982,0.0822368421 50.1644737,0.0822368421 C50.1644737,0.0822368421 43.2291667,6.41447368 46.6557018,10.5537281 L46.6557018,10.5263158 Z" id="Path" fill="#000000"></path>
                            <path d="M18.75,19.4627193 L21.189693,19.4627193 L21.189693,27.4671053 L18.75,27.4671053 L18.75,19.4627193 Z M18.75,32.8399123 L21.189693,32.8399123 L21.189693,40.8442982 L18.75,40.8442982 L18.75,32.8399123 Z M23.6019737,19.4627193 L26.0416667,19.4627193 L26.0416667,27.4671053 L23.6019737,27.4671053 L23.6019737,19.4627193 Z M23.6019737,32.8399123 L26.0416667,32.8399123 L26.0416667,40.8442982 L23.6019737,40.8442982 L23.6019737,32.8399123 Z M28.5087719,19.4627193 L30.9210526,19.4627193 L30.9210526,27.4671053 L28.5087719,27.4671053 L28.5087719,19.4627193 Z M28.5087719,32.8399123 L30.9210526,32.8399123 L30.9210526,40.8442982 L28.5087719,40.8442982 L28.5087719,32.8399123 Z M33.3607456,19.4627193 L35.8004386,19.4627193 L35.8004386,27.4671053 L33.3607456,27.4671053 L33.3607456,19.4627193 Z M33.3607456,32.8399123 L35.8004386,32.8399123 L35.8004386,40.8442982 L33.3607456,40.8442982 L33.3607456,32.8399123 Z M38.2127193,19.4627193 L40.6524123,19.4627193 L40.6524123,27.4671053 L38.2127193,27.4671053 L38.2127193,19.4627193 Z M38.2127193,32.8399123 L40.6524123,32.8399123 L40.6524123,40.8442982 L38.2127193,40.8442982 L38.2127193,32.8399123 Z M43.0921053,19.4627193 L45.504386,19.4627193 L45.504386,27.4671053 L43.0921053,27.4671053 L43.0921053,19.4627193 Z M43.0921053,32.8399123 L45.504386,32.8399123 L45.504386,40.8442982 L43.0921053,40.8442982 L43.0921053,32.8399123 Z" id="Shape" fill="#FFFFFF" fill-rule="nonzero"></path>
                            <path d="M55.5098684,19.4627193 L57.9495614,19.4627193 L57.9495614,27.4671053 L55.5098684,27.4671053 L55.5098684,19.4627193 Z M55.5098684,32.8399123 L57.9495614,32.8399123 L57.9495614,40.8442982 L55.5098684,40.8442982 L55.5098684,32.8399123 Z M60.3618421,19.4627193 L62.8015351,19.4627193 L62.8015351,27.4671053 L60.3618421,27.4671053 L60.3618421,19.4627193 Z M60.3618421,32.8399123 L62.8015351,32.8399123 L62.8015351,40.8442982 L60.3618421,40.8442982 L60.3618421,32.8399123 Z M65.2412281,19.4627193 L67.6535088,19.4627193 L67.6535088,27.4671053 L65.2412281,27.4671053 L65.2412281,19.4627193 Z M65.2412281,32.8399123 L67.6535088,32.8399123 L67.6535088,40.8442982 L65.2412281,40.8442982 L65.2412281,32.8399123 Z M70.0932018,19.4627193 L72.5328947,19.4627193 L72.5328947,27.4671053 L70.0657895,27.4671053 L70.0932018,19.4627193 Z M70.0932018,32.8399123 L72.5328947,32.8399123 L72.5328947,40.8442982 L70.0657895,40.8442982 L70.0932018,32.8399123 Z M74.9451754,19.4627193 L77.3848684,19.4627193 L77.3848684,27.4671053 L74.9451754,27.4671053 L74.9451754,19.4627193 Z M74.9451754,32.8399123 L77.3848684,32.8399123 L77.3848684,40.8442982 L74.9451754,40.8442982 L74.9451754,32.8399123 Z M79.8245614,19.4627193 L82.2368421,19.4627193 L82.2368421,27.4671053 L79.8245614,27.4671053 L79.8245614,19.4627193 Z M79.8245614,32.8399123 L82.2368421,32.8399123 L82.2368421,40.8442982 L79.8245614,40.8442982 L79.8245614,32.8399123 Z" id="Shape" fill="#000000" fill-rule="nonzero"></path>
                        </g>
                        <g id="Group" stroke="none" stroke-width="1" fill="none" transform="translate(81.414474, 45.230263)">
                            <path d="M7.61436404,0.2151875 C6.24328399,2.89196272 10.0573794,-0.669875274 16.0402741,3.82019929 C17.5432945,5.44610849 18.4852195,7.40667346 18.7575055,9.47596628 C17.4861404,9.21692352 15.2176261,7.9648835 15.2176261,7.9648835 C15.2176261,7.9648835 17.8600713,10.5984849 17.8600713,13.6638243 C16.9377083,13.0809781 16.4640625,13.1673257 16.1649178,12.4549581 C16.1649178,13.4263684 16.9875658,14.0739753 16.9875658,15.606645 C16.4264235,15.1484328 15.8171904,14.7365008 15.1677686,14.3761919 C16.0402741,15.9088616 13.5474013,18.8878533 14.7938377,19.8808506 C12.6250384,19.5570471 10.3814529,18.1538988 9.50894737,16.6428161 C9.03530154,16.9450326 9.01037281,17.4415312 8.96051535,17.9812037 C9.03530154,18.0243775 5.64499452,15.4555367 5.96906798,14.4625395 C5.49542215,15.1101464 5.44556469,15.4555367 5.34584978,16.1894912 C4.02628967,15.0643262 3.05719546,13.6681652 2.52890351,12.1311546 L1.38218202,13.5774767 C0.983322368,11.0518098 0.983322368,11.1381573 1.80597039,8.97946765 C1.23218645,9.37879383 0.682999174,9.80392079 0.160674342,10.2530946 C0.885548784,6.14209019 3.59577867,2.49221518 7.61436404,0.2151875 Z" id="Path" stroke="#000000" stroke-width="0.56" fill="#3D5DA7"></path>
                            <path d="M4.22149123,13.3223684 C4.44078947,11.4857456 4.90679825,10.7730263 5.04385965,9.59429825 C5.31798246,7.48355263 5.01644737,5.97587719 5.75657895,6.00328947 C6.49671053,6.03070175 6.71600877,6.82565789 6.35964912,8.90899123 C5.97587719,10.9923246 5.67434211,11.5131579 4.22149123,13.3223684 Z M8.08662281,16.7214912 C7.9495614,15.1589912 8.22368421,14.5010965 8.14144737,13.4868421 C7.97697368,11.7324561 7.42872807,10.5263158 8.05921053,10.4166667 C8.71710526,10.3070175 9.04605263,10.8826754 9.10087719,12.691886 C9.18311404,14.4736842 9.01864035,14.939693 8.08662281,16.7214912 Z M14.1447368,19.4627193 C13.4868421,18.1469298 12.9111842,17.7357456 12.5,16.8585526 C11.7324561,15.3234649 11.5953947,14.0899123 11.0197368,14.3092105 C10.4166667,14.5285088 10.4714912,15.1864035 11.2938596,16.6940789 C12.1162281,18.1743421 12.5274123,18.4758772 14.1447368,19.4901316 L14.1447368,19.4627193 Z M16.2280702,7.40131579 C14.5833333,6.49671053 13.7061404,6.49671053 12.6096491,5.92105263 C10.7182018,4.93421053 9.59429825,3.81030702 9.21052632,4.41337719 C8.82675439,5.04385965 9.34758772,5.64692982 11.3212719,6.55153509 C13.2675439,7.45614035 13.870614,7.51096491 16.2554825,7.37390351 L16.2280702,7.40131579 Z M16.8585526,12.4451754 C15.625,11.4309211 14.9122807,11.2664474 14.1173246,10.6085526 C12.7467105,9.48464912 12.0339912,8.36074561 11.5679825,8.79934211 C11.129386,9.26535088 11.4309211,9.86842105 12.8837719,10.9375 C14.3366228,12.0339912 14.8300439,12.1710526 16.8585526,12.4451754 Z" id="Shape" fill="#A70000" fill-rule="nonzero"></path>
                        </g>
                    </g>
                </g>
            </g>
        </g>
    </g>
</svg>