<?xml version="1.0" encoding="UTF-8"?>
<svg width="200px" height="141px" viewBox="0 0 200 141" version="1.1" xmlns="http://www.w3.org/2000/svg" xmlns:xlink="http://www.w3.org/1999/xlink">
    <!-- Generator: Sketch 52.5 (67469) - http://www.bohemiancoding.com/sketch -->
    <title>tw</title>
    <desc>Created with Sketch.</desc>
    <defs>
        <polygon id="path-1" points="-1.13686838e-13 0 199.912152 0 199.912152 141 -1.13686838e-13 141"></polygon>
    </defs>
    <g id="Flags" stroke="none" stroke-width="1" fill="none" fill-rule="evenodd">
        <g id="Asia" transform="translate(-400.000000, -1650.000000)">
            <g id="tw" transform="translate(400.000000, 1650.000000)">
                <mask id="mask-2" fill="white">
                    <use xlink:href="#path-1"></use>
                </mask>
                <g id="Path"></g>
                <g id="Group" mask="url(#mask-2)">
                    <polygon id="Path" fill="#FE0000" points="0 0 210.834553 0 210.834553 140.625 0 140.625"></polygon>
                    <polygon id="Path" fill="#000095" points="0 0 105.883968 0 105.883968 70.3125 0 70.3125"></polygon>
                    <polygon id="Path" fill="#FFFFFF" points="77.443265 49.0539551 64.4582723 46.3623047 67.2035139 59.3536377 57.3206442 50.5371094 53.2027818 63.1713867 49.0300146 50.5645752 39.1471449 59.463501 41.8374817 46.4447021 28.8799414 49.21875 37.6647145 39.3035889 25.0366032 35.1837158 37.6647145 31.0089111 28.7701318 21.1761475 41.7551245 23.840332 39.0098829 10.848999 48.8927526 19.6655273 53.0106149 7.03125 57.1833821 19.6380615 67.0387994 10.7391357 64.3759151 23.7579346 77.3334553 20.9838867 68.5486823 30.8990479 81.1493411 35.0189209 68.5486823 39.1937256"></polygon>
                    <polygon id="Path" fill="#000095" points="65.4740117 48.0651855 61.3561493 50.2349854 57.375549 52.5970459 52.7086384 52.432251 48.0691801 52.4871826 44.1434846 50.0152588 40.0805271 47.7905273 37.8843338 43.6706543 35.5234261 39.6881104 35.6881406 35.0738525 35.6332357 30.4046631 38.1039531 26.5045166 40.3825037 22.4395752 44.4729136 20.2697754 48.4809663 17.9077148 53.1204246 18.0725098 57.7873353 18.0175781 61.7130307 20.489502 65.7485359 22.7416992 67.9447291 26.8341064 70.3056369 30.8166504 70.1409224 35.458374 70.1958272 40.1000977 67.7251098 44.02771"></polygon>
                    <path d="M67.1486091,35.2386475 C67.3785429,40.4756711 64.7169532,45.4164004 60.2182188,48.1035842 C55.7194844,50.790768 50.1095785,50.790768 45.6108441,48.1035842 C41.1121097,45.4164004 38.4505201,40.4756711 38.6804539,35.2386475 C39.0151036,27.6165908 45.2888482,21.6094505 52.9145315,21.6094505 C60.5402148,21.6094505 66.8139594,27.6165908 67.1486091,35.2386475 Z" id="Path" fill="#FFFFFF"></path>
                </g>
            </g>
        </g>
    </g>
</svg>