<?xml version="1.0" encoding="UTF-8"?>
<svg width="200px" height="141px" viewBox="0 0 200 141" version="1.1" xmlns="http://www.w3.org/2000/svg" xmlns:xlink="http://www.w3.org/1999/xlink">
    <!-- Generator: Sketch 52.5 (67469) - http://www.bohemiancoding.com/sketch -->
    <title>tn</title>
    <desc>Created with Sketch.</desc>
    <defs>
        <polygon id="path-1" points="0.204678363 0 199.795322 0 199.795322 140.707602 0.204678363 140.707602"></polygon>
    </defs>
    <g id="Flags" stroke="none" stroke-width="1" fill="none" fill-rule="evenodd">
        <g id="Africa" transform="translate(-950.000000, -1650.000000)">
            <g id="tn" transform="translate(950.000000, 1650.000000)">
                <mask id="mask-2" fill="white">
                    <use xlink:href="#path-1"></use>
                </mask>
                <g id="Path"></g>
                <g id="Group" mask="url(#mask-2)">
                    <g transform="translate(-5.000000, 0.000000)" id="Path">
                        <polygon fill="#E70013" points="0 0 210.526316 0 210.526316 140.350877 0 140.350877"></polygon>
                        <path d="M140.844298,70.120614 C140.844298,89.6655595 124.999989,105.509868 105.455044,105.509868 C85.9100984,105.509868 70.0657895,89.6655595 70.0657895,70.120614 C70.0657895,50.5756685 85.9100984,34.7313596 105.455044,34.7313596 C124.999989,34.7313596 140.844298,50.5756685 140.844298,70.120614 Z" fill="#FFFFFF"></path>
                        <path d="M105.455044,93.5855263 C92.8002857,93.1530588 82.7650848,82.7690535 82.7650848,70.1069079 C82.7650848,57.4447623 92.8002857,47.060757 105.455044,46.6282895 C108.689693,46.6282895 112.390351,47.3958333 114.884868,49.2324561 C97.7247807,49.8629386 93.3662281,64.4462719 93.3662281,70.3125 C93.3662281,76.1787281 96.1348684,89.254386 114.884868,91.2006579 C112.746711,92.5712719 108.689693,93.5855263 105.455044,93.5855263 Z" fill="#E70013"></path>
                        <polygon fill="#E70013" points="126.123904 79.9890351 115.460526 76.0964912 108.41557 84.9780702 108.826754 73.6567982 98.1907895 69.6820175 109.100877 66.5570175 109.566886 55.2357456 115.926535 64.6381579 126.836623 61.622807 119.846491 70.5317982"></polygon>
                    </g>
                </g>
            </g>
        </g>
    </g>
</svg>