<?xml version="1.0" encoding="UTF-8"?>
<svg width="200px" height="151px" viewBox="0 0 200 151" version="1.1" xmlns="http://www.w3.org/2000/svg" xmlns:xlink="http://www.w3.org/1999/xlink">
    <!-- Generator: Sketch 52.5 (67469) - http://www.bohemiancoding.com/sketch -->
    <title>us</title>
    <desc>Created with Sketch.</desc>
    <g id="Flags" stroke="none" stroke-width="1" fill="none" fill-rule="evenodd">
        <g id="North-America" transform="translate(-730.000000, -1050.000000)">
            <g id="us" transform="translate(730.000000, 1050.000000)">
                <g id="Group" fill-rule="nonzero">
                    <path d="M0,0 L200,0 L200,11.6199219 L0,11.6199219 L0,0 Z M0,23.2398437 L200,23.2398437 L200,34.8597656 L0,34.8597656 L0,23.2398437 Z M0,46.4501953 L200,46.4501953 L200,58.0996094 L0,58.0996094 L0,46.4501953 Z M0,69.6900391 L200,69.6900391 L200,81.3099609 L0,81.3099609 L0,69.6900391 Z M0,92.9298828 L200,92.9298828 L200,104.549805 L0,104.549805 L0,92.9298828 Z M0,116.140234 L200,116.140234 L200,127.760156 L0,127.760156 L0,116.140234 Z M0,139.380078 L200,139.380078 L200,151 L0,151 L0,139.380078 Z" id="Shape" fill="#BD3D44"></path>
                    <path d="M0,11.6199219 L200,11.6199219 L200,23.2398437 L0,23.2398437 L0,11.6199219 Z M0,34.8597656 L200,34.8597656 L200,46.4501953 L0,46.4501953 L0,34.8597656 Z M0,58.0701172 L200,58.0701172 L200,69.6900391 L0,69.6900391 L0,58.0701172 Z M0,81.3099609 L200,81.3099609 L200,92.9298828 L0,92.9298828 L0,81.3099609 Z M0,104.549805 L200,104.549805 L200,116.169727 L0,116.169727 L0,104.549805 Z M0,127.760156 L200,127.760156 L200,139.380078 L0,139.380078 L0,127.760156 Z" id="Shape" fill="#FFFFFF"></path>
                </g>
                <polygon id="Path" fill="#192F5D" points="0 0 100.823213 0 100.823213 81.5628894 0 81.5628894"></polygon>
                <path d="M8.39545644,3.4909035 L9.32828494,6.71555165 L12.2822418,6.71555165 L9.8983468,8.69767482 L10.8052634,11.9519069 L8.39545644,9.9401998 L6.0115614,11.922323 L6.918478,8.69767482 L4.50867105,6.71555165 L7.51445176,6.71555165 L8.39545644,3.4909035 Z M25.2122812,3.4909035 L26.1191978,6.71555165 L29.0990666,6.71555165 L26.6892597,8.69767482 L27.5961763,11.9519069 L25.2122812,9.9401998 L22.8024743,11.922323 L23.7093909,8.69767482 L21.3254958,6.71555165 L24.2794527,6.71555165 L25.2122812,3.4909035 Z M42.0031941,3.4909035 L42.9360226,6.71555165 L45.8640676,6.71555165 L43.4801726,8.69767482 L44.3870892,11.9519069 L41.9772822,9.9401998 L39.5933872,11.922323 L40.5003038,8.69767482 L38.0904968,6.71555165 L41.0703656,6.71555165 L42.0031941,3.4909035 Z M58.8200189,3.4909035 L59.7269355,6.71555165 L62.7068043,6.71555165 L60.2969974,8.69767482 L61.2298259,11.9519069 L58.8200189,9.9401998 L56.410212,11.922323 L57.3430405,8.69767482 L54.9332335,6.71555165 L57.8871904,6.71555165 L58.8200189,3.4909035 Z M75.6109318,3.4909035 L76.5437603,6.71555165 L79.4977172,6.71555165 L77.1138222,8.69767482 L78.0207387,11.9519069 L75.6109318,9.9401998 L73.2270368,11.922323 L74.1339534,8.69767482 L71.7500583,6.71555165 L74.7040152,6.71555165 L75.6109318,3.4909035 Z M92.4277566,3.4909035 L93.3346732,6.71555165 L96.314542,6.71555165 L93.904735,8.69767482 L94.8375635,11.9519069 L92.4277566,9.9401998 L90.0179497,11.922323 L90.9507781,8.69767482 L88.5409712,6.71555165 L91.52084,6.71555165 L92.4277566,3.4909035 Z M16.8168248,11.6560676 L17.7237414,14.8807158 L20.7036102,14.8807158 L18.2938032,16.8628389 L19.1748079,20.0874871 L16.8427367,18.1053639 L14.4329298,20.0874871 L15.2880225,16.8628389 L12.9559513,14.8807158 L15.9099082,14.8807158 L16.8168248,11.6560676 Z M33.6077377,11.6560676 L34.5405662,14.8807158 L37.4945231,14.8807158 L35.0847161,16.8628389 L36.0175446,20.0874871 L33.6077377,18.1053639 L31.1979307,20.0874871 L32.1307592,16.8628389 L29.7209523,14.8807158 L32.7008211,14.8807158 L33.6077377,11.6560676 Z M50.4245625,11.6560676 L51.3314791,14.8807158 L54.3113479,14.8807158 L51.9015409,16.8628389 L52.8084575,20.0874871 L50.4245625,18.1053639 L48.0147555,20.0874871 L48.9216721,16.8628389 L46.5377771,14.8807158 L49.491734,14.8807158 L50.4245625,11.6560676 Z M67.2154754,11.6560676 L68.1483039,14.8807158 L71.1022608,14.8807158 L68.6924538,16.8628389 L69.6252823,20.0874871 L67.2154754,18.1053639 L64.8315803,20.0874871 L65.7384969,16.8628389 L63.32869,14.8807158 L66.3344707,14.8807158 L67.2154754,11.6560676 Z M84.0323002,11.6560676 L84.9392167,14.8807158 L87.9190855,14.8807158 L85.5092786,16.8628389 L86.4161952,20.0874871 L84.0323002,18.1053639 L81.6224932,20.0874871 L82.5294098,16.8628389 L80.1455148,14.8807158 L83.0994717,14.8807158 L84.0323002,11.6560676 Z M8.39545644,19.7916478 L9.32828494,23.0754638 L12.2822418,23.0754638 L9.8983468,25.057587 L10.8052634,28.2822351 L8.39545644,26.270528 L6.0115614,28.2822351 L6.918478,25.0280031 L4.50867105,23.0458799 L7.51445176,23.0458799 L8.39545644,19.7916478 Z M25.2122812,19.7916478 L26.1191978,23.0458799 L29.0990666,23.0458799 L26.6892597,25.0280031 L27.5961763,28.2526512 L25.2122812,26.2409441 L22.8024743,28.2526512 L23.7093909,24.9984191 L21.3254958,23.016296 L24.2794527,23.016296 L25.2122812,19.7916478 Z M42.0031941,19.7916478 L42.9360226,23.0458799 L45.8640676,23.0458799 L43.4801726,25.0280031 L44.3870892,28.2526512 L41.9772822,26.2409441 L39.5933872,28.2526512 L40.5003038,24.9984191 L38.0904968,23.016296 L41.0703656,23.016296 L42.0031941,19.7916478 Z M58.8200189,19.7916478 L59.7269355,23.0458799 L62.7068043,23.0458799 L60.2969974,25.0280031 L61.2298259,28.2526512 L58.8200189,26.2409441 L56.410212,28.2526512 L57.3430405,24.9984191 L54.9332335,23.016296 L57.8871904,23.016296 L58.8200189,19.7916478 Z M75.6109318,19.7916478 L76.5437603,23.0458799 L79.4977172,23.0458799 L77.1138222,25.0280031 L78.0207387,28.2526512 L75.6109318,26.2409441 L73.2270368,28.2526512 L74.1339534,24.9984191 L71.7500583,23.016296 L74.7040152,23.016296 L75.6109318,19.7916478 Z M92.4277566,19.7916478 L93.3346732,23.0458799 L96.314542,23.0458799 L93.904735,25.0280031 L94.8375635,28.2526512 L92.4277566,26.2409441 L90.0179497,28.2526512 L90.9507781,24.9984191 L88.5409712,23.016296 L91.52084,23.016296 L92.4277566,19.7916478 Z M16.8168248,27.9568119 L17.7237414,31.1814601 L20.7036102,31.1814601 L18.2938032,33.1635832 L19.2007198,36.4178153 L16.8168248,34.4061082 L14.4070178,36.3882314 L15.3139344,33.1635832 L12.9300394,31.1814601 L15.8839963,31.1814601 L16.8168248,27.9568119 Z M33.6077377,27.9568119 L34.5405662,31.1814601 L37.4945231,31.1814601 L35.0847161,33.1635832 L36.0175446,36.4178153 L33.6077377,34.4061082 L31.1979307,36.3882314 L32.1307592,33.1635832 L29.7209523,31.1814601 L32.7008211,31.1814601 L33.6077377,27.9568119 Z M50.4245625,27.9568119 L51.3314791,31.1814601 L54.3113479,31.1814601 L51.9015409,33.1635832 L52.8084575,36.4178153 L50.4245625,34.4061082 L48.0147555,36.3882314 L48.9216721,33.1635832 L46.5377771,31.1814601 L49.491734,31.1814601 L50.4245625,27.9568119 Z M67.2154754,27.9568119 L68.1483039,31.1814601 L71.1022608,31.1814601 L68.7183657,33.1635832 L69.6252823,36.4178153 L67.2154754,34.4061082 L64.8315803,36.3882314 L65.7384969,33.1635832 L63.32869,31.1814601 L66.3344707,31.1814601 L67.2154754,27.9568119 Z M84.0323002,27.9568119 L84.9392167,31.1814601 L87.9190855,31.1814601 L85.5092786,33.1635832 L86.4161952,36.4178153 L84.0323002,34.4061082 L81.6224932,36.3882314 L82.5294098,33.1635832 L80.1455148,31.1814601 L83.0994717,31.1814601 L84.0323002,27.9568119 Z M8.39545644,36.121976 L9.32828494,39.3466242 L12.2822418,39.3466242 L9.8983468,41.3287474 L10.8052634,44.5829794 L8.39545644,42.5712723 L6.0115614,44.5533955 L6.918478,41.3287474 L4.50867105,39.3466242 L7.51445176,39.3466242 L8.39545644,36.121976 Z M25.2122812,36.121976 L26.1191978,39.3466242 L29.0990666,39.3466242 L26.6892597,41.3287474 L27.5961763,44.5533955 L25.2122812,42.5712723 L22.8024743,44.5533955 L23.7093909,41.3287474 L21.3254958,39.3466242 L24.2794527,39.3466242 L25.2122812,36.121976 Z M42.0031941,36.121976 L42.9360226,39.3466242 L45.8640676,39.3466242 L43.4801726,41.3287474 L44.3870892,44.5829794 L41.9772822,42.5712723 L39.5933872,44.5533955 L40.5003038,41.3287474 L38.0904968,39.3466242 L41.0703656,39.3466242 L42.0031941,36.121976 Z M58.8200189,36.121976 L59.7269355,39.3466242 L62.7068043,39.3466242 L60.2969974,41.3287474 L61.2298259,44.5829794 L58.8200189,42.5712723 L56.410212,44.5533955 L57.3430405,41.3287474 L54.9332335,39.3466242 L57.8871904,39.3466242 L58.8200189,36.121976 Z M75.6109318,36.121976 L76.5437603,39.3466242 L79.4977172,39.3466242 L77.1138222,41.3287474 L78.0207387,44.5829794 L75.6109318,42.5712723 L73.2270368,44.5533955 L74.1339534,41.3287474 L71.7500583,39.3466242 L74.7040152,39.3466242 L75.6109318,36.121976 Z M92.4277566,36.121976 L93.3346732,39.3466242 L96.314542,39.3466242 L93.904735,41.3287474 L94.8375635,44.5829794 L92.4277566,42.5712723 L90.0179497,44.5533955 L90.9507781,41.3287474 L88.5409712,39.3466242 L91.52084,39.3466242 L92.4277566,36.121976 Z M16.8168248,44.2871402 L17.7237414,47.5117883 L20.7036102,47.5117883 L18.2938032,49.4939115 L19.2007198,52.7185596 L16.8168248,50.7068525 L14.4070178,52.7185596 L15.3139344,49.4643276 L12.9300394,47.4822044 L15.8839963,47.4822044 L16.8168248,44.2871402 Z M33.6077377,44.2871402 L34.5405662,47.5117883 L37.4945231,47.5117883 L35.0847161,49.4939115 L36.0175446,52.7185596 L33.6077377,50.7068525 L31.1979307,52.7185596 L32.1307592,49.4643276 L29.7209523,47.4822044 L32.7008211,47.4822044 L33.6077377,44.2871402 Z M50.4245625,44.2871402 L51.3314791,47.5117883 L54.3113479,47.5117883 L51.9015409,49.4939115 L52.8084575,52.7185596 L50.4245625,50.7068525 L48.0147555,52.7185596 L48.9216721,49.4643276 L46.5377771,47.4822044 L49.491734,47.4822044 L50.4245625,44.2871402 Z M67.2154754,44.2871402 L68.1483039,47.5117883 L71.1022608,47.5117883 L68.7183657,49.4939115 L69.6252823,52.7185596 L67.2154754,50.7068525 L64.8315803,52.7185596 L65.7384969,49.4643276 L63.32869,47.4822044 L66.3344707,47.4822044 L67.2154754,44.2871402 Z M84.0323002,44.2871402 L84.9392167,47.5117883 L87.9190855,47.5117883 L85.5092786,49.4939115 L86.4161952,52.7185596 L84.0323002,50.7068525 L81.6224932,52.7185596 L82.5294098,49.4643276 L80.1455148,47.4822044 L83.0994717,47.4822044 L84.0323002,44.2871402 Z M8.39545644,52.4227204 L9.32828494,55.6769524 L12.2822418,55.6769524 L9.8983468,57.6590756 L10.8052634,60.8541398 L8.39545644,58.8720166 L6.0115614,60.8541398 L6.918478,57.6294917 L4.50867105,55.6473685 L7.51445176,55.6473685 L8.39545644,52.4227204 Z M25.2122812,52.4227204 L26.1191978,55.6769524 L29.0990666,55.6769524 L26.6892597,57.6590756 L27.6220882,60.8541398 L25.2122812,58.8720166 L22.8024743,60.8541398 L23.7353028,57.6294917 L21.3254958,55.6473685 L24.2794527,55.6473685 L25.2122812,52.4227204 Z M42.0031941,52.4227204 L42.9360226,55.6769524 L45.8640676,55.6769524 L43.4801726,57.6590756 L44.3870892,60.8541398 L41.9772822,58.8720166 L39.5933872,60.8541398 L40.5003038,57.6294917 L38.0904968,55.6473685 L41.0703656,55.6473685 L42.0031941,52.4227204 Z M58.8200189,52.4227204 L59.7269355,55.6769524 L62.7068043,55.6769524 L60.2969974,57.6590756 L61.2298259,60.8541398 L58.8200189,58.8720166 L56.410212,60.8541398 L57.3430405,57.6294917 L54.9332335,55.6473685 L57.8871904,55.6473685 L58.8200189,52.4227204 Z M75.6109318,52.4227204 L76.5437603,55.6769524 L79.4977172,55.6769524 L77.1138222,57.6590756 L78.0207387,60.8541398 L75.6109318,58.8720166 L73.2270368,60.8541398 L74.1339534,57.6294917 L71.7500583,55.6473685 L74.7040152,55.6473685 L75.6109318,52.4227204 Z M92.4277566,52.4227204 L93.3346732,55.6769524 L96.314542,55.6769524 L93.904735,57.6590756 L94.8375635,60.8541398 L92.4277566,58.8720166 L90.0179497,60.8541398 L90.9507781,57.6294917 L88.5409712,55.6473685 L91.52084,55.6473685 L92.4277566,52.4227204 Z M16.8168248,60.5878845 L17.7237414,63.8125326 L20.7036102,63.8125326 L18.2938032,65.7946558 L19.2007198,69.0488879 L16.8168248,67.0371808 L14.4070178,69.0193039 L15.3139344,65.7946558 L12.9300394,63.8125326 L15.8839963,63.8125326 L16.8168248,60.5878845 Z M33.6077377,60.5878845 L34.5405662,63.8125326 L37.4945231,63.8125326 L35.0847161,65.7946558 L36.0175446,69.0488879 L33.6077377,67.0371808 L31.1979307,69.0193039 L32.1307592,65.7946558 L29.7209523,63.8125326 L32.7008211,63.8125326 L33.6077377,60.5878845 Z M50.4245625,60.5878845 L51.3314791,63.8125326 L54.3113479,63.8125326 L51.9015409,65.7946558 L52.8084575,69.0488879 L50.4245625,67.0371808 L48.0147555,69.0193039 L48.9216721,65.7946558 L46.5377771,63.8125326 L49.491734,63.8125326 L50.4245625,60.5878845 Z M67.2154754,60.5878845 L68.1483039,63.8125326 L71.1022608,63.8125326 L68.7183657,65.7946558 L69.6252823,69.0488879 L67.2154754,67.0371808 L64.8315803,69.0193039 L65.7384969,65.7946558 L63.32869,63.8125326 L66.3344707,63.8125326 L67.2154754,60.5878845 Z M84.0323002,60.5878845 L84.9392167,63.8125326 L87.9190855,63.8125326 L85.5092786,65.7946558 L86.4161952,69.0488879 L84.0323002,67.0371808 L81.6224932,69.0193039 L82.5294098,65.7946558 L80.1455148,63.8125326 L83.0994717,63.8125326 L84.0323002,60.5878845 Z M8.39545644,68.7530486 L9.32828494,71.9776967 L12.2822418,71.9776967 L9.8983468,73.9598199 L10.8052634,77.1844681 L8.39545644,75.2023449 L6.0115614,77.1844681 L6.918478,73.930236 L4.50867105,71.9481128 L7.51445176,71.9481128 L8.39545644,68.7530486 Z M25.2122812,68.7530486 L26.1191978,71.9776967 L29.0990666,71.9776967 L26.6892597,73.9598199 L27.6220882,77.1844681 L25.2122812,75.2023449 L22.8024743,77.1844681 L23.7353028,73.930236 L21.3254958,71.9481128 L24.2794527,71.9481128 L25.2122812,68.7530486 Z M42.0031941,68.7530486 L42.9360226,71.9776967 L45.8640676,71.9776967 L43.5319964,73.9598199 L44.438913,77.1844681 L42.029106,75.2023449 L39.645211,77.1844681 L40.5521276,73.930236 L38.1423206,71.9481128 L41.1221894,71.9481128 L42.0031941,68.7530486 Z M58.8200189,68.7530486 L59.7269355,71.9776967 L62.7068043,71.9776967 L60.2969974,73.9598199 L61.2298259,77.1844681 L58.8200189,75.2023449 L56.410212,77.1844681 L57.3430405,73.930236 L54.9332335,71.9481128 L57.8871904,71.9481128 L58.8200189,68.7530486 Z M75.6109318,68.7530486 L76.5437603,71.9776967 L79.4977172,71.9776967 L77.1138222,73.9598199 L78.0207387,77.1844681 L75.6109318,75.2023449 L73.2270368,77.1844681 L74.1339534,73.930236 L71.7500583,71.9481128 L74.7040152,71.9481128 L75.6109318,68.7530486 Z M92.4277566,68.7530486 L93.3346732,71.9776967 L96.314542,71.9776967 L93.904735,73.9598199 L94.8375635,77.1844681 L92.4277566,75.2023449 L90.0179497,77.1844681 L90.9507781,73.930236 L88.5409712,71.9481128 L91.52084,71.9481128 L92.4277566,68.7530486 Z" id="Shape" fill="#FFFFFF" fill-rule="nonzero"></path>
            </g>
        </g>
    </g>
</svg>