<?xml version="1.0" encoding="UTF-8"?>
<svg width="200px" height="150px" viewBox="0 0 200 150" version="1.1" xmlns="http://www.w3.org/2000/svg" xmlns:xlink="http://www.w3.org/1999/xlink">
    <!-- Generator: Sketch 52.5 (67469) - http://www.bohemiancoding.com/sketch -->
    <title>uy</title>
    <desc>Created with Sketch.</desc>
    <g id="Flags" stroke="none" stroke-width="1" fill="none" fill-rule="evenodd">
        <g id="South-America" transform="translate(-950.000000, -450.000000)">
            <g id="uy" transform="translate(950.000000, 450.000000)">
                <polygon id="Path" fill="#FFFFFF" points="0 0 200 0 200 150 0 150"></polygon>
                <path d="M83.125,16.65625 L200,16.65625 L200,33.34375 L83.125,33.34375 L83.125,16.65625 Z M83.125,50 L200,50 L200,66.65625 L83.125,66.65625 L83.125,50 Z M0,83.34375 L200,83.34375 L200,100 L0,100 L0,83.34375 Z M0,116.65625 L200,116.65625 L200,133.34375 L0,133.34375 L0,116.65625 Z" id="Shape" fill="#0038A8" fill-rule="nonzero"></path>
                <g id="Group" transform="translate(9.572953, 9.572953)" stroke="#000000" stroke-width="0.8">
                    <g id="c">
                        <g id="b" transform="translate(0.000000, 21.083309)">
                            <g id="a" transform="translate(17.416647, 10.999987)">
                                <path d="M8.57033521,7.31086241 L12.6953305,10.0608593 C5.36200552,21.9775124 13.6119961,23.8108437 7.19533677,29.3108374 C9.94533365,22.894178 4.4453399,24.7275093 4.4453399,13.7275218" id="Path" fill="#FCD116" stroke-linecap="square" transform="translate(8.570335, 18.310850) rotate(22.500000) translate(-8.570335, -18.310850) "></path>
                                <path d="M6.90631572,8.76386935 C5.07298447,20.6805225 11.031311,24.347185 6.90631572,28.9305131" id="Path" transform="translate(7.469815, 18.847191) rotate(22.500000) translate(-7.469815, -18.847191) "></path>
                                <polyline id="Path" fill="#FCD116" points="14.66665 0 20.1666437 0 14.66665 30.2499656 9.16665625 0 14.66665 0 14.66665 30.2499656"></polyline>
                            </g>
                            <g id="a-link" transform="translate(18.471507, 18.778153) rotate(45.000000) translate(-18.471507, -18.778153) translate(7.929852, 3.653170)">
                                <g id="a">
                                    <path d="M8.57033521,7.31086241 L12.6953305,10.0608593 C5.36200552,21.9775124 13.6119961,23.8108437 7.19533677,29.3108374 C9.94533365,22.894178 4.4453399,24.7275093 4.4453399,13.7275218" id="Path" fill="#FCD116" stroke-linecap="square" transform="translate(8.570335, 18.310850) rotate(22.500000) translate(-8.570335, -18.310850) "></path>
                                    <path d="M6.90631572,8.76386935 C5.07298447,20.6805225 11.031311,24.347185 6.90631572,28.9305131" id="Path" transform="translate(7.469815, 18.847191) rotate(22.500000) translate(-7.469815, -18.847191) "></path>
                                    <polyline id="Path" fill="#FCD116" points="14.66665 0 20.1666437 0 14.66665 30.2499656 9.16665625 0 14.66665 0 14.66665 30.2499656"></polyline>
                                </g>
                            </g>
                        </g>
                        <g id="b-link" transform="translate(22.458308, 19.249978) rotate(90.000000) translate(-22.458308, -19.249978) translate(3.208330, -1.374998)">
                            <g id="b">
                                <g id="a" transform="translate(17.416647, 10.999987)">
                                    <path d="M8.57033521,7.31086241 L12.6953305,10.0608593 C5.36200552,21.9775124 13.6119961,23.8108437 7.19533677,29.3108374 C9.94533365,22.894178 4.4453399,24.7275093 4.4453399,13.7275218" id="Path" fill="#FCD116" stroke-linecap="square" transform="translate(8.570335, 18.310850) rotate(22.500000) translate(-8.570335, -18.310850) "></path>
                                    <path d="M6.90631572,8.76386935 C5.07298447,20.6805225 11.031311,24.347185 6.90631572,28.9305131" id="Path" transform="translate(7.469815, 18.847191) rotate(22.500000) translate(-7.469815, -18.847191) "></path>
                                    <polyline id="Path" fill="#FCD116" points="14.66665 0 20.1666437 0 14.66665 30.2499656 9.16665625 0 14.66665 0 14.66665 30.2499656"></polyline>
                                </g>
                                <g id="a-link" transform="translate(18.471507, 18.778153) rotate(45.000000) translate(-18.471507, -18.778153) translate(7.929852, 3.653170)">
                                    <g id="a">
                                        <path d="M8.57033521,7.31086241 L12.6953305,10.0608593 C5.36200552,21.9775124 13.6119961,23.8108437 7.19533677,29.3108374 C9.94533365,22.894178 4.4453399,24.7275093 4.4453399,13.7275218" id="Path" fill="#FCD116" stroke-linecap="square" transform="translate(8.570335, 18.310850) rotate(22.500000) translate(-8.570335, -18.310850) "></path>
                                        <path d="M6.90631572,8.76386935 C5.07298447,20.6805225 11.031311,24.347185 6.90631572,28.9305131" id="Path" transform="translate(7.469815, 18.847191) rotate(22.500000) translate(-7.469815, -18.847191) "></path>
                                        <polyline id="Path" fill="#FCD116" points="14.66665 0 20.1666437 0 14.66665 30.2499656 9.16665625 0 14.66665 0 14.66665 30.2499656"></polyline>
                                    </g>
                                </g>
                            </g>
                        </g>
                    </g>
                    <g id="c-link" transform="translate(42.624952, 32.999962) rotate(180.000000) translate(-42.624952, -32.999962) translate(21.083309, 1.833331)">
                        <g id="c">
                            <g id="b" transform="translate(0.000000, 21.083309)">
                                <g id="a" transform="translate(17.416647, 10.999987)">
                                    <path d="M8.57033521,7.31086241 L12.6953305,10.0608593 C5.36200552,21.9775124 13.6119961,23.8108437 7.19533677,29.3108374 C9.94533365,22.894178 4.4453399,24.7275093 4.4453399,13.7275218" id="Path" fill="#FCD116" stroke-linecap="square" transform="translate(8.570335, 18.310850) rotate(22.500000) translate(-8.570335, -18.310850) "></path>
                                    <path d="M6.90631572,8.76386935 C5.07298447,20.6805225 11.031311,24.347185 6.90631572,28.9305131" id="Path" transform="translate(7.469815, 18.847191) rotate(22.500000) translate(-7.469815, -18.847191) "></path>
                                    <polyline id="Path" fill="#FCD116" points="14.66665 0 20.1666437 0 14.66665 30.2499656 9.16665625 0 14.66665 0 14.66665 30.2499656"></polyline>
                                </g>
                                <g id="a-link" transform="translate(18.471507, 18.778153) rotate(45.000000) translate(-18.471507, -18.778153) translate(7.929852, 3.653170)">
                                    <g id="a">
                                        <path d="M8.57033521,7.31086241 L12.6953305,10.0608593 C5.36200552,21.9775124 13.6119961,23.8108437 7.19533677,29.3108374 C9.94533365,22.894178 4.4453399,24.7275093 4.4453399,13.7275218" id="Path" fill="#FCD116" stroke-linecap="square" transform="translate(8.570335, 18.310850) rotate(22.500000) translate(-8.570335, -18.310850) "></path>
                                        <path d="M6.90631572,8.76386935 C5.07298447,20.6805225 11.031311,24.347185 6.90631572,28.9305131" id="Path" transform="translate(7.469815, 18.847191) rotate(22.500000) translate(-7.469815, -18.847191) "></path>
                                        <polyline id="Path" fill="#FCD116" points="14.66665 0 20.1666437 0 14.66665 30.2499656 9.16665625 0 14.66665 0 14.66665 30.2499656"></polyline>
                                    </g>
                                </g>
                            </g>
                            <g id="b-link" transform="translate(22.458308, 19.249978) rotate(90.000000) translate(-22.458308, -19.249978) translate(3.208330, -1.374998)">
                                <g id="b">
                                    <g id="a" transform="translate(17.416647, 10.999987)">
                                        <path d="M8.57033521,7.31086241 L12.6953305,10.0608593 C5.36200552,21.9775124 13.6119961,23.8108437 7.19533677,29.3108374 C9.94533365,22.894178 4.4453399,24.7275093 4.4453399,13.7275218" id="Path" fill="#FCD116" stroke-linecap="square" transform="translate(8.570335, 18.310850) rotate(22.500000) translate(-8.570335, -18.310850) "></path>
                                        <path d="M6.90631572,8.76386935 C5.07298447,20.6805225 11.031311,24.347185 6.90631572,28.9305131" id="Path" transform="translate(7.469815, 18.847191) rotate(22.500000) translate(-7.469815, -18.847191) "></path>
                                        <polyline id="Path" fill="#FCD116" points="14.66665 0 20.1666437 0 14.66665 30.2499656 9.16665625 0 14.66665 0 14.66665 30.2499656"></polyline>
                                    </g>
                                    <g id="a-link" transform="translate(18.471507, 18.778153) rotate(45.000000) translate(-18.471507, -18.778153) translate(7.929852, 3.653170)">
                                        <g id="a">
                                            <path d="M8.57033521,7.31086241 L12.6953305,10.0608593 C5.36200552,21.9775124 13.6119961,23.8108437 7.19533677,29.3108374 C9.94533365,22.894178 4.4453399,24.7275093 4.4453399,13.7275218" id="Path" fill="#FCD116" stroke-linecap="square" transform="translate(8.570335, 18.310850) rotate(22.500000) translate(-8.570335, -18.310850) "></path>
                                            <path d="M6.90631572,8.76386935 C5.07298447,20.6805225 11.031311,24.347185 6.90631572,28.9305131" id="Path" transform="translate(7.469815, 18.847191) rotate(22.500000) translate(-7.469815, -18.847191) "></path>
                                            <polyline id="Path" fill="#FCD116" points="14.66665 0 20.1666437 0 14.66665 30.2499656 9.16665625 0 14.66665 0 14.66665 30.2499656"></polyline>
                                        </g>
                                    </g>
                                </g>
                            </g>
                        </g>
                    </g>
                    <circle id="Oval" fill="#FCD116" cx="32.0832969" cy="32.0832969" r="10.0833219"></circle>
                </g>
                <g id="Group" transform="translate(34.231334, 36.064647)" fill="#000000">
                    <g id="d" transform="translate(6.966587, 0.000000)" fill-rule="nonzero">
                        <path d="M7.88324375,1.55831562 C7.24158437,2.29164062 6.87492187,1.00832187 4.58328125,1.00832187 C2.29164062,1.00832187 1.92497812,2.38330625 1.55831562,2.10830937 C1.19165312,1.8333125 3.48329375,0.18333125 4.21661875,0.091665625 C4.94994375,-3.05311332e-16 7.05825312,0.733325 7.88324375,1.55831562 M5.22494062,2.38330625 C5.8666,2.9333 5.31660625,4.12495312 4.67494687,4.12495312 C4.0332875,4.12495312 2.84163437,3.02496562 3.39162812,2.29164062" id="Shape"></path>
                        <path d="M2.199975,3.20829687 C2.29164062,2.10830937 3.20829687,1.92497812 4.67494687,1.92497812 C6.14159687,1.92497812 6.78325625,3.02496562 7.33325,3.2999625 C6.69159062,3.2999625 6.14159687,2.38330625 4.67494687,2.38330625 C3.20829687,2.38330625 3.20829687,2.38330625 2.199975,3.2999625 M2.47497187,3.48329375 C2.84163437,2.9333 3.2999625,4.0332875 4.30828437,4.0332875 C5.31660625,4.0332875 5.8666,3.75829062 6.50825937,3.2999625 C7.14991875,2.84163437 5.59160312,4.39995 4.58328125,4.39995 C3.57495937,4.39995 2.199975,3.84995625 2.47497187,3.48329375" id="Shape"></path>
                        <path d="M5.59160312,4.0332875 C6.78325625,3.39162812 6.04993125,2.47497187 5.59160312,2.29164062 C5.77493437,2.47497187 6.50825937,3.39162812 5.59160312,4.0332875 M0.458328125,9.533225 C1.00832187,9.533225 1.19165312,9.34989375 1.92497812,9.34989375 C2.65830312,9.34989375 4.39995,10.3582156 5.40827187,9.99155312 C3.2999625,10.8165437 4.12495312,10.26655 0.458328125,10.26655 L0,10.26655 M5.77493437,10.8165437 C5.40827187,10.1748844 5.4999375,10.3582156 4.7666125,9.34989375 C5.4999375,9.8998875 5.68326875,10.1748844 5.77493437,10.8165437 M0.458328125,11.7332 C2.74996875,11.7332 2.38330625,11.2748719 5.40827187,9.99155312 C3.20829687,10.26655 2.74996875,10.999875 0.458328125,10.999875 L0,10.999875 M0.458328125,8.34157187 C1.0999875,8.34157187 1.28331875,7.88324375 2.01664375,7.88324375 C2.74996875,7.88324375 3.75829062,8.15824062 4.21661875,8.52490312 C4.30828437,8.61656875 3.94162187,7.79157812 3.20829687,7.6999125 C2.47497187,7.60824687 2.74996875,6.41659375 1.92497812,6.2332625 C1.92497812,6.599925 2.199975,6.50825937 2.29164062,7.05825312 C2.29164062,7.51658125 1.46665,7.51658125 1.28331875,7.05825312 C1.46665,7.79157812 0.91665625,7.79157812 0.458328125,7.79157812" id="Shape"></path>
                    </g>
                    <g id="d-link" transform="translate(3.941622, 5.866600) scale(-1, 1) translate(-3.941622, -5.866600) " fill-rule="nonzero">
                        <g id="d">
                            <path d="M7.88324375,1.55831562 C7.24158437,2.29164062 6.87492187,1.00832187 4.58328125,1.00832187 C2.29164062,1.00832187 1.92497812,2.38330625 1.55831562,2.10830937 C1.19165312,1.8333125 3.48329375,0.18333125 4.21661875,0.091665625 C4.94994375,-3.05311332e-16 7.05825312,0.733325 7.88324375,1.55831562 M5.22494062,2.38330625 C5.8666,2.9333 5.31660625,4.12495312 4.67494687,4.12495312 C4.0332875,4.12495312 2.84163437,3.02496562 3.39162812,2.29164062" id="Shape"></path>
                            <path d="M2.199975,3.20829687 C2.29164062,2.10830937 3.20829687,1.92497812 4.67494687,1.92497812 C6.14159687,1.92497812 6.78325625,3.02496562 7.33325,3.2999625 C6.69159062,3.2999625 6.14159687,2.38330625 4.67494687,2.38330625 C3.20829687,2.38330625 3.20829687,2.38330625 2.199975,3.2999625 M2.47497187,3.48329375 C2.84163437,2.9333 3.2999625,4.0332875 4.30828437,4.0332875 C5.31660625,4.0332875 5.8666,3.75829062 6.50825937,3.2999625 C7.14991875,2.84163437 5.59160312,4.39995 4.58328125,4.39995 C3.57495937,4.39995 2.199975,3.84995625 2.47497187,3.48329375" id="Shape"></path>
                            <path d="M5.59160312,4.0332875 C6.78325625,3.39162812 6.04993125,2.47497187 5.59160312,2.29164062 C5.77493437,2.47497187 6.50825937,3.39162812 5.59160312,4.0332875 M0.458328125,9.533225 C1.00832187,9.533225 1.19165312,9.34989375 1.92497812,9.34989375 C2.65830312,9.34989375 4.39995,10.3582156 5.40827187,9.99155312 C3.2999625,10.8165437 4.12495312,10.26655 0.458328125,10.26655 L0,10.26655 M5.77493437,10.8165437 C5.40827187,10.1748844 5.4999375,10.3582156 4.7666125,9.34989375 C5.4999375,9.8998875 5.68326875,10.1748844 5.77493437,10.8165437 M0.458328125,11.7332 C2.74996875,11.7332 2.38330625,11.2748719 5.40827187,9.99155312 C3.20829687,10.26655 2.74996875,10.999875 0.458328125,10.999875 L0,10.999875 M0.458328125,8.34157187 C1.0999875,8.34157187 1.28331875,7.88324375 2.01664375,7.88324375 C2.74996875,7.88324375 3.75829062,8.15824062 4.21661875,8.52490312 C4.30828437,8.61656875 3.94162187,7.79157812 3.20829687,7.6999125 C2.47497187,7.60824687 2.74996875,6.41659375 1.92497812,6.2332625 C1.92497812,6.599925 2.199975,6.50825937 2.29164062,7.05825312 C2.29164062,7.51658125 1.46665,7.51658125 1.28331875,7.05825312 C1.46665,7.79157812 0.91665625,7.79157812 0.458328125,7.79157812" id="Shape"></path>
                        </g>
                    </g>
                    <path d="M7.42491562,12.5581906 C6.9665875,12.5581906 5.77493437,12.8331875 7.42491562,12.8331875 C9.07489687,12.8331875 7.88324375,12.5581906 7.42491562,12.5581906" id="Path"></path>
                </g>
            </g>
        </g>
    </g>
</svg>