<?xml version="1.0" encoding="UTF-8"?>
<svg width="200px" height="150px" viewBox="0 0 200 150" version="1.1" xmlns="http://www.w3.org/2000/svg" xmlns:xlink="http://www.w3.org/1999/xlink">
    <!-- Generator: Sketch 52.5 (67469) - http://www.bohemiancoding.com/sketch -->
    <title>uz</title>
    <desc>Created with Sketch.</desc>
    <g id="Flags" stroke="none" stroke-width="1" fill="none" fill-rule="evenodd">
        <g id="Asia" transform="translate(-620.000000, -1650.000000)">
            <g id="uz" transform="translate(620.000000, 1650.000000)">
                <polygon id="Path" fill="#1EB53A" points="0 100 200 100 200 150 0 150"></polygon>
                <polygon id="Path" fill="#0099B5" points="0 0 200 0 200 50 0 50"></polygon>
                <polygon id="Path" fill="#CE1126" points="0 48 200 48 200 102 0 102"></polygon>
                <polygon id="Path" fill="#FFFFFF" points="0 51 200 51 200 99 0 99"></polygon>
                <circle id="Oval" fill="#FFFFFF" cx="42" cy="24" r="18"></circle>
                <circle id="Oval" fill="#0099B5" cx="48" cy="24" r="18"></circle>
                <g id="Group" transform="translate(47.993750, 6.006250)" fill="#FFFFFF">
                    <g id="e" transform="translate(28.800000, 0.000000)">
                        <g id="d" transform="translate(0.000000, 28.800000)">
                            <g id="c" transform="translate(3.600000, 0.000000)">
                                <g id="b">
                                    <polyline id="a" points="1.2 0 0.06 3.42 1.8 4.02"></polyline>
                                    <g id="a-link" transform="translate(1.500000, 2.100000) scale(-1, 1) translate(-1.500000, -2.100000) translate(0.600000, 0.000000)">
                                        <polyline id="a" points="1.2 0 0.06 3.42 1.8 4.02"></polyline>
                                    </g>
                                </g>
                                <g id="b-link" transform="translate(2.626585, 3.136475) rotate(72.000000) translate(-2.626585, -3.136475) translate(1.426585, 1.036475)">
                                    <g id="b">
                                        <polyline id="a" points="1.2 0 0.06 3.42 1.8 4.02"></polyline>
                                        <g id="a-link" transform="translate(1.500000, 2.100000) scale(-1, 1) translate(-1.500000, -2.100000) translate(0.600000, 0.000000)">
                                            <polyline id="a" points="1.2 0 0.06 3.42 1.8 4.02"></polyline>
                                        </g>
                                    </g>
                                </g>
                            </g>
                            <g id="b-link" transform="translate(3.373415, 3.136475) rotate(-72.000000) translate(-3.373415, -3.136475) translate(2.173415, 1.036475)">
                                <g id="b">
                                    <polyline id="a" points="1.2 0 0.06 3.42 1.8 4.02"></polyline>
                                    <g id="a-link" transform="translate(1.500000, 2.100000) scale(-1, 1) translate(-1.500000, -2.100000) translate(0.600000, 0.000000)">
                                        <polyline id="a" points="1.2 0 0.06 3.42 1.8 4.02"></polyline>
                                    </g>
                                </g>
                            </g>
                            <g id="c-link" transform="translate(4.115481, 5.209793) rotate(144.000000) translate(-4.115481, -5.209793) translate(1.415481, 2.509793)">
                                <g id="c">
                                    <g id="b">
                                        <polyline id="a" points="1.2 0 0.06 3.42 1.8 4.02"></polyline>
                                        <g id="a-link" transform="translate(1.500000, 2.100000) scale(-1, 1) translate(-1.500000, -2.100000) translate(0.600000, 0.000000)">
                                            <polyline id="a" points="1.2 0 0.06 3.42 1.8 4.02"></polyline>
                                        </g>
                                    </g>
                                    <g id="b-link" transform="translate(2.626585, 3.136475) rotate(72.000000) translate(-2.626585, -3.136475) translate(1.426585, 1.036475)">
                                        <g id="b">
                                            <polyline id="a" points="1.2 0 0.06 3.42 1.8 4.02"></polyline>
                                            <g id="a-link" transform="translate(1.500000, 2.100000) scale(-1, 1) translate(-1.500000, -2.100000) translate(0.600000, 0.000000)">
                                                <polyline id="a" points="1.2 0 0.06 3.42 1.8 4.02"></polyline>
                                            </g>
                                        </g>
                                    </g>
                                </g>
                            </g>
                        </g>
                        <g id="d-link" transform="translate(0.000000, 14.400000)">
                            <g id="d">
                                <g id="c" transform="translate(3.600000, 0.000000)">
                                    <g id="b">
                                        <polyline id="a" points="1.2 0 0.06 3.42 1.8 4.02"></polyline>
                                        <g id="a-link" transform="translate(1.500000, 2.100000) scale(-1, 1) translate(-1.500000, -2.100000) translate(0.600000, 0.000000)">
                                            <polyline id="a" points="1.2 0 0.06 3.42 1.8 4.02"></polyline>
                                        </g>
                                    </g>
                                    <g id="b-link" transform="translate(2.626585, 3.136475) rotate(72.000000) translate(-2.626585, -3.136475) translate(1.426585, 1.036475)">
                                        <g id="b">
                                            <polyline id="a" points="1.2 0 0.06 3.42 1.8 4.02"></polyline>
                                            <g id="a-link" transform="translate(1.500000, 2.100000) scale(-1, 1) translate(-1.500000, -2.100000) translate(0.600000, 0.000000)">
                                                <polyline id="a" points="1.2 0 0.06 3.42 1.8 4.02"></polyline>
                                            </g>
                                        </g>
                                    </g>
                                </g>
                                <g id="b-link" transform="translate(3.373415, 3.136475) rotate(-72.000000) translate(-3.373415, -3.136475) translate(2.173415, 1.036475)">
                                    <g id="b">
                                        <polyline id="a" points="1.2 0 0.06 3.42 1.8 4.02"></polyline>
                                        <g id="a-link" transform="translate(1.500000, 2.100000) scale(-1, 1) translate(-1.500000, -2.100000) translate(0.600000, 0.000000)">
                                            <polyline id="a" points="1.2 0 0.06 3.42 1.8 4.02"></polyline>
                                        </g>
                                    </g>
                                </g>
                                <g id="c-link" transform="translate(4.115481, 5.209793) rotate(144.000000) translate(-4.115481, -5.209793) translate(1.415481, 2.509793)">
                                    <g id="c">
                                        <g id="b">
                                            <polyline id="a" points="1.2 0 0.06 3.42 1.8 4.02"></polyline>
                                            <g id="a-link" transform="translate(1.500000, 2.100000) scale(-1, 1) translate(-1.500000, -2.100000) translate(0.600000, 0.000000)">
                                                <polyline id="a" points="1.2 0 0.06 3.42 1.8 4.02"></polyline>
                                            </g>
                                        </g>
                                        <g id="b-link" transform="translate(2.626585, 3.136475) rotate(72.000000) translate(-2.626585, -3.136475) translate(1.426585, 1.036475)">
                                            <g id="b">
                                                <polyline id="a" points="1.2 0 0.06 3.42 1.8 4.02"></polyline>
                                                <g id="a-link" transform="translate(1.500000, 2.100000) scale(-1, 1) translate(-1.500000, -2.100000) translate(0.600000, 0.000000)">
                                                    <polyline id="a" points="1.2 0 0.06 3.42 1.8 4.02"></polyline>
                                                </g>
                                            </g>
                                        </g>
                                    </g>
                                </g>
                            </g>
                        </g>
                        <g id="d-link">
                            <g id="d">
                                <g id="c" transform="translate(3.600000, 0.000000)">
                                    <g id="b">
                                        <polyline id="a" points="1.2 0 0.06 3.42 1.8 4.02"></polyline>
                                        <g id="a-link" transform="translate(1.500000, 2.100000) scale(-1, 1) translate(-1.500000, -2.100000) translate(0.600000, 0.000000)">
                                            <polyline id="a" points="1.2 0 0.06 3.42 1.8 4.02"></polyline>
                                        </g>
                                    </g>
                                    <g id="b-link" transform="translate(2.626585, 3.136475) rotate(72.000000) translate(-2.626585, -3.136475) translate(1.426585, 1.036475)">
                                        <g id="b">
                                            <polyline id="a" points="1.2 0 0.06 3.42 1.8 4.02"></polyline>
                                            <g id="a-link" transform="translate(1.500000, 2.100000) scale(-1, 1) translate(-1.500000, -2.100000) translate(0.600000, 0.000000)">
                                                <polyline id="a" points="1.2 0 0.06 3.42 1.8 4.02"></polyline>
                                            </g>
                                        </g>
                                    </g>
                                </g>
                                <g id="b-link" transform="translate(3.373415, 3.136475) rotate(-72.000000) translate(-3.373415, -3.136475) translate(2.173415, 1.036475)">
                                    <g id="b">
                                        <polyline id="a" points="1.2 0 0.06 3.42 1.8 4.02"></polyline>
                                        <g id="a-link" transform="translate(1.500000, 2.100000) scale(-1, 1) translate(-1.500000, -2.100000) translate(0.600000, 0.000000)">
                                            <polyline id="a" points="1.2 0 0.06 3.42 1.8 4.02"></polyline>
                                        </g>
                                    </g>
                                </g>
                                <g id="c-link" transform="translate(4.115481, 5.209793) rotate(144.000000) translate(-4.115481, -5.209793) translate(1.415481, 2.509793)">
                                    <g id="c">
                                        <g id="b">
                                            <polyline id="a" points="1.2 0 0.06 3.42 1.8 4.02"></polyline>
                                            <g id="a-link" transform="translate(1.500000, 2.100000) scale(-1, 1) translate(-1.500000, -2.100000) translate(0.600000, 0.000000)">
                                                <polyline id="a" points="1.2 0 0.06 3.42 1.8 4.02"></polyline>
                                            </g>
                                        </g>
                                        <g id="b-link" transform="translate(2.626585, 3.136475) rotate(72.000000) translate(-2.626585, -3.136475) translate(1.426585, 1.036475)">
                                            <g id="b">
                                                <polyline id="a" points="1.2 0 0.06 3.42 1.8 4.02"></polyline>
                                                <g id="a-link" transform="translate(1.500000, 2.100000) scale(-1, 1) translate(-1.500000, -2.100000) translate(0.600000, 0.000000)">
                                                    <polyline id="a" points="1.2 0 0.06 3.42 1.8 4.02"></polyline>
                                                </g>
                                            </g>
                                        </g>
                                    </g>
                                </g>
                            </g>
                        </g>
                    </g>
                    <g id="e-link" transform="translate(43.200000, 0.000000)">
                        <g id="e">
                            <g id="d" transform="translate(0.000000, 28.800000)">
                                <g id="c" transform="translate(3.600000, 0.000000)">
                                    <g id="b">
                                        <polyline id="a" points="1.2 0 0.06 3.42 1.8 4.02"></polyline>
                                        <g id="a-link" transform="translate(1.500000, 2.100000) scale(-1, 1) translate(-1.500000, -2.100000) translate(0.600000, 0.000000)">
                                            <polyline id="a" points="1.2 0 0.06 3.42 1.8 4.02"></polyline>
                                        </g>
                                    </g>
                                    <g id="b-link" transform="translate(2.626585, 3.136475) rotate(72.000000) translate(-2.626585, -3.136475) translate(1.426585, 1.036475)">
                                        <g id="b">
                                            <polyline id="a" points="1.2 0 0.06 3.42 1.8 4.02"></polyline>
                                            <g id="a-link" transform="translate(1.500000, 2.100000) scale(-1, 1) translate(-1.500000, -2.100000) translate(0.600000, 0.000000)">
                                                <polyline id="a" points="1.2 0 0.06 3.42 1.8 4.02"></polyline>
                                            </g>
                                        </g>
                                    </g>
                                </g>
                                <g id="b-link" transform="translate(3.373415, 3.136475) rotate(-72.000000) translate(-3.373415, -3.136475) translate(2.173415, 1.036475)">
                                    <g id="b">
                                        <polyline id="a" points="1.2 0 0.06 3.42 1.8 4.02"></polyline>
                                        <g id="a-link" transform="translate(1.500000, 2.100000) scale(-1, 1) translate(-1.500000, -2.100000) translate(0.600000, 0.000000)">
                                            <polyline id="a" points="1.2 0 0.06 3.42 1.8 4.02"></polyline>
                                        </g>
                                    </g>
                                </g>
                                <g id="c-link" transform="translate(4.115481, 5.209793) rotate(144.000000) translate(-4.115481, -5.209793) translate(1.415481, 2.509793)">
                                    <g id="c">
                                        <g id="b">
                                            <polyline id="a" points="1.2 0 0.06 3.42 1.8 4.02"></polyline>
                                            <g id="a-link" transform="translate(1.500000, 2.100000) scale(-1, 1) translate(-1.500000, -2.100000) translate(0.600000, 0.000000)">
                                                <polyline id="a" points="1.2 0 0.06 3.42 1.8 4.02"></polyline>
                                            </g>
                                        </g>
                                        <g id="b-link" transform="translate(2.626585, 3.136475) rotate(72.000000) translate(-2.626585, -3.136475) translate(1.426585, 1.036475)">
                                            <g id="b">
                                                <polyline id="a" points="1.2 0 0.06 3.42 1.8 4.02"></polyline>
                                                <g id="a-link" transform="translate(1.500000, 2.100000) scale(-1, 1) translate(-1.500000, -2.100000) translate(0.600000, 0.000000)">
                                                    <polyline id="a" points="1.2 0 0.06 3.42 1.8 4.02"></polyline>
                                                </g>
                                            </g>
                                        </g>
                                    </g>
                                </g>
                            </g>
                            <g id="d-link" transform="translate(0.000000, 14.400000)">
                                <g id="d">
                                    <g id="c" transform="translate(3.600000, 0.000000)">
                                        <g id="b">
                                            <polyline id="a" points="1.2 0 0.06 3.42 1.8 4.02"></polyline>
                                            <g id="a-link" transform="translate(1.500000, 2.100000) scale(-1, 1) translate(-1.500000, -2.100000) translate(0.600000, 0.000000)">
                                                <polyline id="a" points="1.2 0 0.06 3.42 1.8 4.02"></polyline>
                                            </g>
                                        </g>
                                        <g id="b-link" transform="translate(2.626585, 3.136475) rotate(72.000000) translate(-2.626585, -3.136475) translate(1.426585, 1.036475)">
                                            <g id="b">
                                                <polyline id="a" points="1.2 0 0.06 3.42 1.8 4.02"></polyline>
                                                <g id="a-link" transform="translate(1.500000, 2.100000) scale(-1, 1) translate(-1.500000, -2.100000) translate(0.600000, 0.000000)">
                                                    <polyline id="a" points="1.2 0 0.06 3.42 1.8 4.02"></polyline>
                                                </g>
                                            </g>
                                        </g>
                                    </g>
                                    <g id="b-link" transform="translate(3.373415, 3.136475) rotate(-72.000000) translate(-3.373415, -3.136475) translate(2.173415, 1.036475)">
                                        <g id="b">
                                            <polyline id="a" points="1.2 0 0.06 3.42 1.8 4.02"></polyline>
                                            <g id="a-link" transform="translate(1.500000, 2.100000) scale(-1, 1) translate(-1.500000, -2.100000) translate(0.600000, 0.000000)">
                                                <polyline id="a" points="1.2 0 0.06 3.42 1.8 4.02"></polyline>
                                            </g>
                                        </g>
                                    </g>
                                    <g id="c-link" transform="translate(4.115481, 5.209793) rotate(144.000000) translate(-4.115481, -5.209793) translate(1.415481, 2.509793)">
                                        <g id="c">
                                            <g id="b">
                                                <polyline id="a" points="1.2 0 0.06 3.42 1.8 4.02"></polyline>
                                                <g id="a-link" transform="translate(1.500000, 2.100000) scale(-1, 1) translate(-1.500000, -2.100000) translate(0.600000, 0.000000)">
                                                    <polyline id="a" points="1.2 0 0.06 3.42 1.8 4.02"></polyline>
                                                </g>
                                            </g>
                                            <g id="b-link" transform="translate(2.626585, 3.136475) rotate(72.000000) translate(-2.626585, -3.136475) translate(1.426585, 1.036475)">
                                                <g id="b">
                                                    <polyline id="a" points="1.2 0 0.06 3.42 1.8 4.02"></polyline>
                                                    <g id="a-link" transform="translate(1.500000, 2.100000) scale(-1, 1) translate(-1.500000, -2.100000) translate(0.600000, 0.000000)">
                                                        <polyline id="a" points="1.2 0 0.06 3.42 1.8 4.02"></polyline>
                                                    </g>
                                                </g>
                                            </g>
                                        </g>
                                    </g>
                                </g>
                            </g>
                            <g id="d-link">
                                <g id="d">
                                    <g id="c" transform="translate(3.600000, 0.000000)">
                                        <g id="b">
                                            <polyline id="a" points="1.2 0 0.06 3.42 1.8 4.02"></polyline>
                                            <g id="a-link" transform="translate(1.500000, 2.100000) scale(-1, 1) translate(-1.500000, -2.100000) translate(0.600000, 0.000000)">
                                                <polyline id="a" points="1.2 0 0.06 3.42 1.8 4.02"></polyline>
                                            </g>
                                        </g>
                                        <g id="b-link" transform="translate(2.626585, 3.136475) rotate(72.000000) translate(-2.626585, -3.136475) translate(1.426585, 1.036475)">
                                            <g id="b">
                                                <polyline id="a" points="1.2 0 0.06 3.42 1.8 4.02"></polyline>
                                                <g id="a-link" transform="translate(1.500000, 2.100000) scale(-1, 1) translate(-1.500000, -2.100000) translate(0.600000, 0.000000)">
                                                    <polyline id="a" points="1.2 0 0.06 3.42 1.8 4.02"></polyline>
                                                </g>
                                            </g>
                                        </g>
                                    </g>
                                    <g id="b-link" transform="translate(3.373415, 3.136475) rotate(-72.000000) translate(-3.373415, -3.136475) translate(2.173415, 1.036475)">
                                        <g id="b">
                                            <polyline id="a" points="1.2 0 0.06 3.42 1.8 4.02"></polyline>
                                            <g id="a-link" transform="translate(1.500000, 2.100000) scale(-1, 1) translate(-1.500000, -2.100000) translate(0.600000, 0.000000)">
                                                <polyline id="a" points="1.2 0 0.06 3.42 1.8 4.02"></polyline>
                                            </g>
                                        </g>
                                    </g>
                                    <g id="c-link" transform="translate(4.115481, 5.209793) rotate(144.000000) translate(-4.115481, -5.209793) translate(1.415481, 2.509793)">
                                        <g id="c">
                                            <g id="b">
                                                <polyline id="a" points="1.2 0 0.06 3.42 1.8 4.02"></polyline>
                                                <g id="a-link" transform="translate(1.500000, 2.100000) scale(-1, 1) translate(-1.500000, -2.100000) translate(0.600000, 0.000000)">
                                                    <polyline id="a" points="1.2 0 0.06 3.42 1.8 4.02"></polyline>
                                                </g>
                                            </g>
                                            <g id="b-link" transform="translate(2.626585, 3.136475) rotate(72.000000) translate(-2.626585, -3.136475) translate(1.426585, 1.036475)">
                                                <g id="b">
                                                    <polyline id="a" points="1.2 0 0.06 3.42 1.8 4.02"></polyline>
                                                    <g id="a-link" transform="translate(1.500000, 2.100000) scale(-1, 1) translate(-1.500000, -2.100000) translate(0.600000, 0.000000)">
                                                        <polyline id="a" points="1.2 0 0.06 3.42 1.8 4.02"></polyline>
                                                    </g>
                                                </g>
                                            </g>
                                        </g>
                                    </g>
                                </g>
                            </g>
                        </g>
                    </g>
                    <g id="e-link" transform="translate(57.600000, 0.000000)">
                        <g id="e">
                            <g id="d" transform="translate(0.000000, 28.800000)">
                                <g id="c" transform="translate(3.600000, 0.000000)">
                                    <g id="b">
                                        <polyline id="a" points="1.2 0 0.06 3.42 1.8 4.02"></polyline>
                                        <g id="a-link" transform="translate(1.500000, 2.100000) scale(-1, 1) translate(-1.500000, -2.100000) translate(0.600000, 0.000000)">
                                            <polyline id="a" points="1.2 0 0.06 3.42 1.8 4.02"></polyline>
                                        </g>
                                    </g>
                                    <g id="b-link" transform="translate(2.626585, 3.136475) rotate(72.000000) translate(-2.626585, -3.136475) translate(1.426585, 1.036475)">
                                        <g id="b">
                                            <polyline id="a" points="1.2 0 0.06 3.42 1.8 4.02"></polyline>
                                            <g id="a-link" transform="translate(1.500000, 2.100000) scale(-1, 1) translate(-1.500000, -2.100000) translate(0.600000, 0.000000)">
                                                <polyline id="a" points="1.2 0 0.06 3.42 1.8 4.02"></polyline>
                                            </g>
                                        </g>
                                    </g>
                                </g>
                                <g id="b-link" transform="translate(3.373415, 3.136475) rotate(-72.000000) translate(-3.373415, -3.136475) translate(2.173415, 1.036475)">
                                    <g id="b">
                                        <polyline id="a" points="1.2 0 0.06 3.42 1.8 4.02"></polyline>
                                        <g id="a-link" transform="translate(1.500000, 2.100000) scale(-1, 1) translate(-1.500000, -2.100000) translate(0.600000, 0.000000)">
                                            <polyline id="a" points="1.2 0 0.06 3.42 1.8 4.02"></polyline>
                                        </g>
                                    </g>
                                </g>
                                <g id="c-link" transform="translate(4.115481, 5.209793) rotate(144.000000) translate(-4.115481, -5.209793) translate(1.415481, 2.509793)">
                                    <g id="c">
                                        <g id="b">
                                            <polyline id="a" points="1.2 0 0.06 3.42 1.8 4.02"></polyline>
                                            <g id="a-link" transform="translate(1.500000, 2.100000) scale(-1, 1) translate(-1.500000, -2.100000) translate(0.600000, 0.000000)">
                                                <polyline id="a" points="1.2 0 0.06 3.42 1.8 4.02"></polyline>
                                            </g>
                                        </g>
                                        <g id="b-link" transform="translate(2.626585, 3.136475) rotate(72.000000) translate(-2.626585, -3.136475) translate(1.426585, 1.036475)">
                                            <g id="b">
                                                <polyline id="a" points="1.2 0 0.06 3.42 1.8 4.02"></polyline>
                                                <g id="a-link" transform="translate(1.500000, 2.100000) scale(-1, 1) translate(-1.500000, -2.100000) translate(0.600000, 0.000000)">
                                                    <polyline id="a" points="1.2 0 0.06 3.42 1.8 4.02"></polyline>
                                                </g>
                                            </g>
                                        </g>
                                    </g>
                                </g>
                            </g>
                            <g id="d-link" transform="translate(0.000000, 14.400000)">
                                <g id="d">
                                    <g id="c" transform="translate(3.600000, 0.000000)">
                                        <g id="b">
                                            <polyline id="a" points="1.2 0 0.06 3.42 1.8 4.02"></polyline>
                                            <g id="a-link" transform="translate(1.500000, 2.100000) scale(-1, 1) translate(-1.500000, -2.100000) translate(0.600000, 0.000000)">
                                                <polyline id="a" points="1.2 0 0.06 3.42 1.8 4.02"></polyline>
                                            </g>
                                        </g>
                                        <g id="b-link" transform="translate(2.626585, 3.136475) rotate(72.000000) translate(-2.626585, -3.136475) translate(1.426585, 1.036475)">
                                            <g id="b">
                                                <polyline id="a" points="1.2 0 0.06 3.42 1.8 4.02"></polyline>
                                                <g id="a-link" transform="translate(1.500000, 2.100000) scale(-1, 1) translate(-1.500000, -2.100000) translate(0.600000, 0.000000)">
                                                    <polyline id="a" points="1.2 0 0.06 3.42 1.8 4.02"></polyline>
                                                </g>
                                            </g>
                                        </g>
                                    </g>
                                    <g id="b-link" transform="translate(3.373415, 3.136475) rotate(-72.000000) translate(-3.373415, -3.136475) translate(2.173415, 1.036475)">
                                        <g id="b">
                                            <polyline id="a" points="1.2 0 0.06 3.42 1.8 4.02"></polyline>
                                            <g id="a-link" transform="translate(1.500000, 2.100000) scale(-1, 1) translate(-1.500000, -2.100000) translate(0.600000, 0.000000)">
                                                <polyline id="a" points="1.2 0 0.06 3.42 1.8 4.02"></polyline>
                                            </g>
                                        </g>
                                    </g>
                                    <g id="c-link" transform="translate(4.115481, 5.209793) rotate(144.000000) translate(-4.115481, -5.209793) translate(1.415481, 2.509793)">
                                        <g id="c">
                                            <g id="b">
                                                <polyline id="a" points="1.2 0 0.06 3.42 1.8 4.02"></polyline>
                                                <g id="a-link" transform="translate(1.500000, 2.100000) scale(-1, 1) translate(-1.500000, -2.100000) translate(0.600000, 0.000000)">
                                                    <polyline id="a" points="1.2 0 0.06 3.42 1.8 4.02"></polyline>
                                                </g>
                                            </g>
                                            <g id="b-link" transform="translate(2.626585, 3.136475) rotate(72.000000) translate(-2.626585, -3.136475) translate(1.426585, 1.036475)">
                                                <g id="b">
                                                    <polyline id="a" points="1.2 0 0.06 3.42 1.8 4.02"></polyline>
                                                    <g id="a-link" transform="translate(1.500000, 2.100000) scale(-1, 1) translate(-1.500000, -2.100000) translate(0.600000, 0.000000)">
                                                        <polyline id="a" points="1.2 0 0.06 3.42 1.8 4.02"></polyline>
                                                    </g>
                                                </g>
                                            </g>
                                        </g>
                                    </g>
                                </g>
                            </g>
                            <g id="d-link">
                                <g id="d">
                                    <g id="c" transform="translate(3.600000, 0.000000)">
                                        <g id="b">
                                            <polyline id="a" points="1.2 0 0.06 3.42 1.8 4.02"></polyline>
                                            <g id="a-link" transform="translate(1.500000, 2.100000) scale(-1, 1) translate(-1.500000, -2.100000) translate(0.600000, 0.000000)">
                                                <polyline id="a" points="1.2 0 0.06 3.42 1.8 4.02"></polyline>
                                            </g>
                                        </g>
                                        <g id="b-link" transform="translate(2.626585, 3.136475) rotate(72.000000) translate(-2.626585, -3.136475) translate(1.426585, 1.036475)">
                                            <g id="b">
                                                <polyline id="a" points="1.2 0 0.06 3.42 1.8 4.02"></polyline>
                                                <g id="a-link" transform="translate(1.500000, 2.100000) scale(-1, 1) translate(-1.500000, -2.100000) translate(0.600000, 0.000000)">
                                                    <polyline id="a" points="1.2 0 0.06 3.42 1.8 4.02"></polyline>
                                                </g>
                                            </g>
                                        </g>
                                    </g>
                                    <g id="b-link" transform="translate(3.373415, 3.136475) rotate(-72.000000) translate(-3.373415, -3.136475) translate(2.173415, 1.036475)">
                                        <g id="b">
                                            <polyline id="a" points="1.2 0 0.06 3.42 1.8 4.02"></polyline>
                                            <g id="a-link" transform="translate(1.500000, 2.100000) scale(-1, 1) translate(-1.500000, -2.100000) translate(0.600000, 0.000000)">
                                                <polyline id="a" points="1.2 0 0.06 3.42 1.8 4.02"></polyline>
                                            </g>
                                        </g>
                                    </g>
                                    <g id="c-link" transform="translate(4.115481, 5.209793) rotate(144.000000) translate(-4.115481, -5.209793) translate(1.415481, 2.509793)">
                                        <g id="c">
                                            <g id="b">
                                                <polyline id="a" points="1.2 0 0.06 3.42 1.8 4.02"></polyline>
                                                <g id="a-link" transform="translate(1.500000, 2.100000) scale(-1, 1) translate(-1.500000, -2.100000) translate(0.600000, 0.000000)">
                                                    <polyline id="a" points="1.2 0 0.06 3.42 1.8 4.02"></polyline>
                                                </g>
                                            </g>
                                            <g id="b-link" transform="translate(2.626585, 3.136475) rotate(72.000000) translate(-2.626585, -3.136475) translate(1.426585, 1.036475)">
                                                <g id="b">
                                                    <polyline id="a" points="1.2 0 0.06 3.42 1.8 4.02"></polyline>
                                                    <g id="a-link" transform="translate(1.500000, 2.100000) scale(-1, 1) translate(-1.500000, -2.100000) translate(0.600000, 0.000000)">
                                                        <polyline id="a" points="1.2 0 0.06 3.42 1.8 4.02"></polyline>
                                                    </g>
                                                </g>
                                            </g>
                                        </g>
                                    </g>
                                </g>
                            </g>
                        </g>
                    </g>
                    <g id="d-link" transform="translate(0.000000, 28.800000)">
                        <g id="d">
                            <g id="c" transform="translate(3.600000, 0.000000)">
                                <g id="b">
                                    <polyline id="a" points="1.2 0 0.06 3.42 1.8 4.02"></polyline>
                                    <g id="a-link" transform="translate(1.500000, 2.100000) scale(-1, 1) translate(-1.500000, -2.100000) translate(0.600000, 0.000000)">
                                        <polyline id="a" points="1.2 0 0.06 3.42 1.8 4.02"></polyline>
                                    </g>
                                </g>
                                <g id="b-link" transform="translate(2.626585, 3.136475) rotate(72.000000) translate(-2.626585, -3.136475) translate(1.426585, 1.036475)">
                                    <g id="b">
                                        <polyline id="a" points="1.2 0 0.06 3.42 1.8 4.02"></polyline>
                                        <g id="a-link" transform="translate(1.500000, 2.100000) scale(-1, 1) translate(-1.500000, -2.100000) translate(0.600000, 0.000000)">
                                            <polyline id="a" points="1.2 0 0.06 3.42 1.8 4.02"></polyline>
                                        </g>
                                    </g>
                                </g>
                            </g>
                            <g id="b-link" transform="translate(3.373415, 3.136475) rotate(-72.000000) translate(-3.373415, -3.136475) translate(2.173415, 1.036475)">
                                <g id="b">
                                    <polyline id="a" points="1.2 0 0.06 3.42 1.8 4.02"></polyline>
                                    <g id="a-link" transform="translate(1.500000, 2.100000) scale(-1, 1) translate(-1.500000, -2.100000) translate(0.600000, 0.000000)">
                                        <polyline id="a" points="1.2 0 0.06 3.42 1.8 4.02"></polyline>
                                    </g>
                                </g>
                            </g>
                            <g id="c-link" transform="translate(4.115481, 5.209793) rotate(144.000000) translate(-4.115481, -5.209793) translate(1.415481, 2.509793)">
                                <g id="c">
                                    <g id="b">
                                        <polyline id="a" points="1.2 0 0.06 3.42 1.8 4.02"></polyline>
                                        <g id="a-link" transform="translate(1.500000, 2.100000) scale(-1, 1) translate(-1.500000, -2.100000) translate(0.600000, 0.000000)">
                                            <polyline id="a" points="1.2 0 0.06 3.42 1.8 4.02"></polyline>
                                        </g>
                                    </g>
                                    <g id="b-link" transform="translate(2.626585, 3.136475) rotate(72.000000) translate(-2.626585, -3.136475) translate(1.426585, 1.036475)">
                                        <g id="b">
                                            <polyline id="a" points="1.2 0 0.06 3.42 1.8 4.02"></polyline>
                                            <g id="a-link" transform="translate(1.500000, 2.100000) scale(-1, 1) translate(-1.500000, -2.100000) translate(0.600000, 0.000000)">
                                                <polyline id="a" points="1.2 0 0.06 3.42 1.8 4.02"></polyline>
                                            </g>
                                        </g>
                                    </g>
                                </g>
                            </g>
                        </g>
                    </g>
                    <g id="d-link" transform="translate(14.400000, 28.800000)">
                        <g id="d">
                            <g id="c" transform="translate(3.600000, 0.000000)">
                                <g id="b">
                                    <polyline id="a" points="1.2 0 0.06 3.42 1.8 4.02"></polyline>
                                    <g id="a-link" transform="translate(1.500000, 2.100000) scale(-1, 1) translate(-1.500000, -2.100000) translate(0.600000, 0.000000)">
                                        <polyline id="a" points="1.2 0 0.06 3.42 1.8 4.02"></polyline>
                                    </g>
                                </g>
                                <g id="b-link" transform="translate(2.626585, 3.136475) rotate(72.000000) translate(-2.626585, -3.136475) translate(1.426585, 1.036475)">
                                    <g id="b">
                                        <polyline id="a" points="1.2 0 0.06 3.42 1.8 4.02"></polyline>
                                        <g id="a-link" transform="translate(1.500000, 2.100000) scale(-1, 1) translate(-1.500000, -2.100000) translate(0.600000, 0.000000)">
                                            <polyline id="a" points="1.2 0 0.06 3.42 1.8 4.02"></polyline>
                                        </g>
                                    </g>
                                </g>
                            </g>
                            <g id="b-link" transform="translate(3.373415, 3.136475) rotate(-72.000000) translate(-3.373415, -3.136475) translate(2.173415, 1.036475)">
                                <g id="b">
                                    <polyline id="a" points="1.2 0 0.06 3.42 1.8 4.02"></polyline>
                                    <g id="a-link" transform="translate(1.500000, 2.100000) scale(-1, 1) translate(-1.500000, -2.100000) translate(0.600000, 0.000000)">
                                        <polyline id="a" points="1.2 0 0.06 3.42 1.8 4.02"></polyline>
                                    </g>
                                </g>
                            </g>
                            <g id="c-link" transform="translate(4.115481, 5.209793) rotate(144.000000) translate(-4.115481, -5.209793) translate(1.415481, 2.509793)">
                                <g id="c">
                                    <g id="b">
                                        <polyline id="a" points="1.2 0 0.06 3.42 1.8 4.02"></polyline>
                                        <g id="a-link" transform="translate(1.500000, 2.100000) scale(-1, 1) translate(-1.500000, -2.100000) translate(0.600000, 0.000000)">
                                            <polyline id="a" points="1.2 0 0.06 3.42 1.8 4.02"></polyline>
                                        </g>
                                    </g>
                                    <g id="b-link" transform="translate(2.626585, 3.136475) rotate(72.000000) translate(-2.626585, -3.136475) translate(1.426585, 1.036475)">
                                        <g id="b">
                                            <polyline id="a" points="1.2 0 0.06 3.42 1.8 4.02"></polyline>
                                            <g id="a-link" transform="translate(1.500000, 2.100000) scale(-1, 1) translate(-1.500000, -2.100000) translate(0.600000, 0.000000)">
                                                <polyline id="a" points="1.2 0 0.06 3.42 1.8 4.02"></polyline>
                                            </g>
                                        </g>
                                    </g>
                                </g>
                            </g>
                        </g>
                    </g>
                    <g id="d-link" transform="translate(14.400000, 14.400000)">
                        <g id="d">
                            <g id="c" transform="translate(3.600000, 0.000000)">
                                <g id="b">
                                    <polyline id="a" points="1.2 0 0.06 3.42 1.8 4.02"></polyline>
                                    <g id="a-link" transform="translate(1.500000, 2.100000) scale(-1, 1) translate(-1.500000, -2.100000) translate(0.600000, 0.000000)">
                                        <polyline id="a" points="1.2 0 0.06 3.42 1.8 4.02"></polyline>
                                    </g>
                                </g>
                                <g id="b-link" transform="translate(2.626585, 3.136475) rotate(72.000000) translate(-2.626585, -3.136475) translate(1.426585, 1.036475)">
                                    <g id="b">
                                        <polyline id="a" points="1.2 0 0.06 3.42 1.8 4.02"></polyline>
                                        <g id="a-link" transform="translate(1.500000, 2.100000) scale(-1, 1) translate(-1.500000, -2.100000) translate(0.600000, 0.000000)">
                                            <polyline id="a" points="1.2 0 0.06 3.42 1.8 4.02"></polyline>
                                        </g>
                                    </g>
                                </g>
                            </g>
                            <g id="b-link" transform="translate(3.373415, 3.136475) rotate(-72.000000) translate(-3.373415, -3.136475) translate(2.173415, 1.036475)">
                                <g id="b">
                                    <polyline id="a" points="1.2 0 0.06 3.42 1.8 4.02"></polyline>
                                    <g id="a-link" transform="translate(1.500000, 2.100000) scale(-1, 1) translate(-1.500000, -2.100000) translate(0.600000, 0.000000)">
                                        <polyline id="a" points="1.2 0 0.06 3.42 1.8 4.02"></polyline>
                                    </g>
                                </g>
                            </g>
                            <g id="c-link" transform="translate(4.115481, 5.209793) rotate(144.000000) translate(-4.115481, -5.209793) translate(1.415481, 2.509793)">
                                <g id="c">
                                    <g id="b">
                                        <polyline id="a" points="1.2 0 0.06 3.42 1.8 4.02"></polyline>
                                        <g id="a-link" transform="translate(1.500000, 2.100000) scale(-1, 1) translate(-1.500000, -2.100000) translate(0.600000, 0.000000)">
                                            <polyline id="a" points="1.2 0 0.06 3.42 1.8 4.02"></polyline>
                                        </g>
                                    </g>
                                    <g id="b-link" transform="translate(2.626585, 3.136475) rotate(72.000000) translate(-2.626585, -3.136475) translate(1.426585, 1.036475)">
                                        <g id="b">
                                            <polyline id="a" points="1.2 0 0.06 3.42 1.8 4.02"></polyline>
                                            <g id="a-link" transform="translate(1.500000, 2.100000) scale(-1, 1) translate(-1.500000, -2.100000) translate(0.600000, 0.000000)">
                                                <polyline id="a" points="1.2 0 0.06 3.42 1.8 4.02"></polyline>
                                            </g>
                                        </g>
                                    </g>
                                </g>
                            </g>
                        </g>
                    </g>
                </g>
            </g>
        </g>
    </g>
</svg>