<?xml version="1.0" encoding="UTF-8"?>
<svg width="200px" height="141px" viewBox="0 0 200 141" version="1.1" xmlns="http://www.w3.org/2000/svg" xmlns:xlink="http://www.w3.org/1999/xlink">
    <!-- Generator: Sketch 52.5 (67469) - http://www.bohemiancoding.com/sketch -->
    <title>eh</title>
    <desc>Created with Sketch.</desc>
    <defs>
        <polygon id="path-1" points="0.0878477306 0 200 0 200 140.926794 0.0878477306 140.926794"></polygon>
    </defs>
    <g id="Flags" stroke="none" stroke-width="1" fill="none" fill-rule="evenodd">
        <g id="Africa" transform="translate(-510.000000, -450.000000)">
            <g id="eh" transform="translate(510.000000, 450.000000)">
                <mask id="mask-2" fill="white">
                    <use xlink:href="#path-1"></use>
                </mask>
                <g id="Path"></g>
                <g id="Group" mask="url(#mask-2)">
                    <polygon id="Path" fill="#000000" points="0 0 281.862372 0 281.862372 70.465593 0 70.465593"></polygon>
                    <polygon id="Path" fill="#107B00" points="0 70.465593 281.862372 70.465593 281.862372 140.931186 0 140.931186"></polygon>
                    <polygon id="Path" fill="#FFFFFF" points="0 46.6008785 281.862372 46.6008785 281.862372 95.0734993 0 95.0734993"></polygon>
                    <path d="M134.875549,53.8401171 C122.433968,48.4726208 111.726501,59.5103953 111.754026,69.804978 C111.754026,80.595022 122.213763,92.1007321 135.426061,87.0084919 C126.06735,84.2559297 122.213763,77.2919473 122.213763,70.3004392 C122.131186,63.3639824 126.562811,55.2714495 134.875549,53.8125915 L134.875549,53.8401171 Z" id="Path" fill="#FF00FF"></path>
                    <polyline id="Path" fill="#FF1800" points="149.491654 80.9803807 142.390044 75.7780381 135.233382 81.0079063 137.985944 72.6125915 130.829283 67.4377745 139.637482 67.4377745 142.362518 59.0424597 145.060029 67.4102489 153.895754 67.4102489 146.766618 72.5850659"></polyline>
                    <path d="M136.059151,86.8708638 C130.587566,89.0382251 124.401041,88.3851953 119.502561,85.1232032 C114.604081,81.8612111 111.616202,76.4048279 111.506296,70.5206442 C111.442193,64.5311061 114.379587,58.9068459 119.331749,55.5371625 C124.283911,52.167479 130.593772,51.4994728 136.141728,53.7575403 C128.095862,55.0203641 122.138264,61.908837 122.048609,70.0527086 C121.957823,78.3472785 127.90946,85.477573 136.086676,86.8708638 L136.059151,86.8708638 Z M0,0 L95.9543192,70.6307467 L0,140.931186 L0,0 Z" id="Shape" fill="#FF0000" fill-rule="nonzero"></path>
                </g>
            </g>
        </g>
    </g>
</svg>