<?xml version="1.0" encoding="UTF-8"?>
<svg width="200px" height="150px" viewBox="0 0 200 150" version="1.1" xmlns="http://www.w3.org/2000/svg" xmlns:xlink="http://www.w3.org/1999/xlink">
    <!-- Generator: Sketch 52.5 (67469) - http://www.bohemiancoding.com/sketch -->
    <title>al</title>
    <desc>Created with Sketch.</desc>
    <g id="Flags" stroke="none" stroke-width="1" fill="none" fill-rule="evenodd">
        <g id="Europe" transform="translate(-290.000000, -50.000000)">
            <g id="al" transform="translate(290.000000, 50.000000)">
                <polygon id="Path" fill="#E41E20" points="0 0 200 0 200 150 0 150"></polygon>
                <path d="M85,29.15625 C83.5625,29.15625 81.15625,29.625 81.1875,30.71875 C77.125,30.0625 76.71875,31.71875 76.96875,33.21875 C77.34375,32.625 77.8125,32.28125 78.1875,32.25 C78.71875,32.15625 79.28125,32.34375 79.875,32.6875 C80.4350471,33.038821 80.9404432,33.4705135 81.375,33.96875 C79.9375,34.3125 78.8125,34.09375 77.6875,33.90625 C77.0517851,33.7707563 76.4474204,33.516287 75.90625,33.15625 C75.4375,32.84375 75.28125,32.53125 74.5625,31.8125 C73.71875,30.9375 72.8125,31.1875 73.09375,32.53125 C73.75,33.78125 74.84375,34.34375 76.21875,34.59375 C76.875,34.6875 77.875,34.90625 79,34.90625 C80.125,34.90625 81.375,34.75 82.0625,34.90625 C81.65625,35.15625 81.1875,35.625 80.25,35.78125 C79.3125,35.96875 77.90625,35.21875 77.03125,35.03125 C77.125,35.75 78.0625,36.4375 79.875,36.8125 C82.875,37.4375 85.34375,37.9375 87,38.84375 C88.3097857,39.5740469 89.4663448,40.5502252 90.40625,41.71875 C91.875,43.4375 91.96875,44.78125 92.03125,45.09375 C92.34375,47.84375 91.375,49.40625 89.5625,49.90625 C88.6875,50.125 87.0625,49.6875 86.5,49 C85.875,48.3125 85.34375,47.125 85.5,45.25 C85.65625,44.5625 86.46875,42.65625 85.78125,42.28125 C82.5228049,40.4906177 79.151069,38.9143573 75.6875,37.5625 C74.90625,37.25 74.28125,38.3125 74.03125,38.75 C69.3583135,38.098617 65.2267086,35.3786438 62.78125,31.34375 C61.46875,28.96875 59.25,31.34375 59.625,33.625 C60.21875,36.125 62.125,37.9375 64.4375,39.25 C66.78125,40.53125 69.75,41.8125 72.71875,41.75 C74.34375,42.0625 74.3125,44.125 72.40625,44.53125 C68.625,44.53125 65.59375,44.46875 62.75,41.71875 C60.59375,39.75 59.40625,42.09375 60,43.40625 C61.0625,47.5 66.90625,48.65625 72.8125,47.34375 C75.125,46.96875 73.75,49.40625 73.125,49.4375 C70.625,51.21875 66.21875,52.9375 62.3125,49.4375 C60.53125,48.0625 59.3125,49.1875 60,51.15625 C61.71875,56.3125 68.34375,55.21875 72.875,52.71875 C74.03125,52.0625 75.09375,53.5625 73.6875,54.71875 C68.03125,58.65625 65.21875,58.71875 62.65625,57.21875 C59.46875,55.9375 59.21875,59.46875 61.09375,60.65625 C63.1875,61.90625 68.53125,60.96875 72.46875,58.46875 C74.15625,57.21875 74.21875,59.1875 73.15625,59.96875 C68.5,64 66.65625,65.0625 61.8125,64.40625 C59.40625,64.21875 59.4375,67.1875 61.3125,68.34375 C63.90625,69.9375 68.96875,67.3125 72.875,64.03125 C74.53125,63.15625 74.8125,64.59375 74,66.3125 C72.2700973,68.760242 69.9183673,70.7020373 67.1875,71.9375 C65,72.78125 62.9375,72.65625 61.46875,72.15625 C59.65625,71.53125 59.4375,73.40625 60.4375,75.09375 C61.03125,76.125 63.5,76.4375 66.1875,75.5 C68.875,74.5625 71.75,72.3125 73.71875,69.71875 C75.4375,68.1875 75.25,70.21875 74.4375,71.65625 C70.5,77.90625 66.875,80.21875 62.09375,79.84375 C60,79.46875 59.5,81.09375 60.84375,82.65625 C63.21875,84.59375 66.15625,84.53125 68.78125,82.59375 C71.0625,80.40625 75.46875,75.59375 77.78125,73.03125 C79.40625,71.75 79.9375,73.03125 79.4375,75.65625 C79,77.15625 77.9375,78.78125 74.96875,79.90625 C72.9375,81.0625 74.46875,82.65625 75.96875,82.71875 C76.8125,82.71875 78.5,81.71875 79.8125,80.28125 C81.5,78.34375 81.625,77.0625 82.5625,74.0625 C83.4375,72.625 85.03125,73.3125 85.03125,74.8125 C84.25,77.8125 83.625,78.34375 82.0625,79.5625 C80.59375,80.96875 83.09375,81.4375 83.9375,80.84375 C86.375,79.21875 87.25,77.09375 88.0625,75.15625 C88.6875,73.78125 90.375,74.4375 89.5625,76.71875 C87.6875,82.15625 84.5625,84.28125 79.15625,85.40625 C78.625,85.5 78.28125,85.8125 78.46875,86.4375 L80.65625,88.625 C77.3125,89.625 74.59375,90.1875 71.21875,91.125 L66.59375,88.0625 C66.1875,87.0625 65.96875,85.5 63.53125,86.59375 C61.90625,85.84375 61.125,86.125 60.21875,86.90625 C61.53125,86.90625 62.09375,87.28125 62.625,87.875 C63.3125,89.65625 64.875,89.84375 66.46875,89.34375 C67.5,90.1875 68.03125,90.875 69.09375,91.75 L63.875,91.59375 C62,89.625 60.5625,89.71875 59.25,91.28125 C58.21875,91.4375 57.8125,91.4375 57.125,92.65625 C58.1875,92.21875 58.875,92.09375 59.34375,92.5625 C61.3125,93.71875 62.59375,93.46875 63.5625,92.5625 L69.03125,92.90625 C68.34375,93.53125 67.40625,93.84375 66.6875,94.40625 C63.875,93.59375 62.375,94.71875 61.875,97 C61.48001,97.9144361 61.3500661,98.9215012 61.5,99.90625 C61.75,98.96875 62.21875,98.1875 63.03125,97.71875 C65.53125,98.34375 66.46875,97.3125 66.625,95.8125 C67.875,94.8125 69.6875,94.59375 70.90625,93.59375 C72.34375,94.03125 73.03125,94.3125 74.46875,94.78125 C74.96875,96.34375 76.125,96.9375 78,96.53125 C80.1875,96.59375 79.8125,97.53125 80,98.25 C80.625,97.21875 80.59375,96.1875 79.21875,95.25 C78.71875,93.90625 77.59375,93.28125 76.15625,94.0625 C74.78125,93.6875 74.4375,93.125 73.0625,92.71875 C76.5,91.625 78.9375,91.375 82.375,90.28125 L84.78125,92.40625 C85.25,92.6875 85.6875,92.75 85.96875,92.40625 C88.125,89.28125 89.09375,86.5625 91.0625,84.5 C91.84375,83.625 92.8125,82.5 93.875,82.21875 C94.40625,82.0625 95.0625,82.15625 95.5,82.625 C95.90625,83.0625 96.25,83.90625 96.125,85.1875 C95.90625,86.96875 95.46875,87.5625 94.96875,88.625 C94.4375,89.71875 93.84375,90.375 93.1875,91.21875 C91.9375,92.875 90.25,93.84375 89.25,94.5 C87.25,95.78125 86.4375,95.21875 84.875,95.125 C82.875,95.34375 82.375,96.3125 84,97.65625 C85.5,98.46875 86.875,98.5625 88,98.34375 C88.9375,98.15625 90.0625,96.9375 90.875,96.28125 C91.75,95.25 93.25,96.46875 92.21875,97.6875 C90.375,99.875 88.5625,101.3125 86.28125,101.28125 C83.875,101.59375 84.34375,102.9375 85.90625,103.59375 C88.78125,104.75 91.34375,102.5625 92.65625,101.09375 C93.65625,100 94.375,99.96875 94.21875,101.6875 C93.1875,104.78125 91.84375,105.96875 89.59375,106.125 C87.78125,105.9375 87.75,107.375 89.09375,108.3125 C92.09375,110.375 94.28125,106.8125 95.3125,104.6875 C96.03125,102.75 97.15625,103.65625 97.28125,105.25 C97.28125,107.40625 96.34375,109.125 93.75,111.3125 C95.71875,114.46875 98.03125,117.6875 100,120.84375 L106,53.96875 L100,43.4375 C99.375,42.875 97.25,40.375 96.71875,40 C96.5,39.8125 96.40625,39.6875 96.6875,39.5625 C96.96875,39.4375 97.625,39.3125 98.09375,39.25 C96.84375,37.96875 95.71875,37.5625 93.3125,36.875 C93.90625,36.625 94.46875,36.75 96.21875,36.6875 C95.1449507,35.244719 93.6812454,34.1388083 92,33.5 C93.3125,32.5625 93.5625,32.5 94.875,31.40625 C92.8048092,31.2463194 90.7600136,30.8478464 88.78125,30.21875 C87.5995325,29.657182 86.3319096,29.2980222 85.03125,29.15625 L85,29.15625 Z M85.25,31.78125 C86.4375,31.78125 87.15625,32.1875 87.15625,32.6875 C87.15625,33.1875 86.4375,33.59375 85.25,33.59375 C84.0625,33.59375 83.3125,33.125 83.3125,32.65625 C83.3125,32.15625 84.0625,31.78125 85.25,31.78125 Z" id="a" fill="#000000" fill-rule="nonzero"></path>
                <g id="a-link" transform="translate(118.437500, 75.000000) scale(-1, 1) translate(-118.437500, -75.000000) translate(93.750000, 29.062500)" fill="#000000" fill-rule="nonzero">
                    <path d="M28.125,0.09375 C26.6875,0.09375 24.28125,0.5625 24.3125,1.65625 C20.25,1 19.84375,2.65625 20.09375,4.15625 C20.46875,3.5625 20.9375,3.21875 21.3125,3.1875 C21.84375,3.09375 22.40625,3.28125 23,3.625 C23.5600471,3.97632103 24.0654432,4.40801348 24.5,4.90625 C23.0625,5.25 21.9375,5.03125 20.8125,4.84375 C20.1767851,4.70825634 19.5724204,4.453787 19.03125,4.09375 C18.5625,3.78125 18.40625,3.46875 17.6875,2.75 C16.84375,1.875 15.9375,2.125 16.21875,3.46875 C16.875,4.71875 17.96875,5.28125 19.34375,5.53125 C20,5.625 21,5.84375 22.125,5.84375 C23.25,5.84375 24.5,5.6875 25.1875,5.84375 C24.78125,6.09375 24.3125,6.5625 23.375,6.71875 C22.4375,6.90625 21.03125,6.15625 20.15625,5.96875 C20.25,6.6875 21.1875,7.375 23,7.75 C26,8.375 28.46875,8.875 30.125,9.78125 C31.4347857,10.5115469 32.5913448,11.4877252 33.53125,12.65625 C35,14.375 35.09375,15.71875 35.15625,16.03125 C35.46875,18.78125 34.5,20.34375 32.6875,20.84375 C31.8125,21.0625 30.1875,20.625 29.625,19.9375 C29,19.25 28.46875,18.0625 28.625,16.1875 C28.78125,15.5 29.59375,13.59375 28.90625,13.21875 C25.6478049,11.4281177 22.276069,9.85185727 18.8125,8.5 C18.03125,8.1875 17.40625,9.25 17.15625,9.6875 C12.4833135,9.03611699 8.35170861,6.3161438 5.90625,2.28125 C4.59375,-0.09375 2.375,2.28125 2.75,4.5625 C3.34375,7.0625 5.25,8.875 7.5625,10.1875 C9.90625,11.46875 12.875,12.75 15.84375,12.6875 C17.46875,13 17.4375,15.0625 15.53125,15.46875 C11.75,15.46875 8.71875,15.40625 5.875,12.65625 C3.71875,10.6875 2.53125,13.03125 3.125,14.34375 C4.1875,18.4375 10.03125,19.59375 15.9375,18.28125 C18.25,17.90625 16.875,20.34375 16.25,20.375 C13.75,22.15625 9.34375,23.875 5.4375,20.375 C3.65625,19 2.4375,20.125 3.125,22.09375 C4.84375,27.25 11.46875,26.15625 16,23.65625 C17.15625,23 18.21875,24.5 16.8125,25.65625 C11.15625,29.59375 8.34375,29.65625 5.78125,28.15625 C2.59375,26.875 2.34375,30.40625 4.21875,31.59375 C6.3125,32.84375 11.65625,31.90625 15.59375,29.40625 C17.28125,28.15625 17.34375,30.125 16.28125,30.90625 C11.625,34.9375 9.78125,36 4.9375,35.34375 C2.53125,35.15625 2.5625,38.125 4.4375,39.28125 C7.03125,40.875 12.09375,38.25 16,34.96875 C17.65625,34.09375 17.9375,35.53125 17.125,37.25 C15.3950973,39.697742 13.0433673,41.6395373 10.3125,42.875 C8.125,43.71875 6.0625,43.59375 4.59375,43.09375 C2.78125,42.46875 2.5625,44.34375 3.5625,46.03125 C4.15625,47.0625 6.625,47.375 9.3125,46.4375 C12,45.5 14.875,43.25 16.84375,40.65625 C18.5625,39.125 18.375,41.15625 17.5625,42.59375 C13.625,48.84375 10,51.15625 5.21875,50.78125 C3.125,50.40625 2.625,52.03125 3.96875,53.59375 C6.34375,55.53125 9.28125,55.46875 11.90625,53.53125 C14.1875,51.34375 18.59375,46.53125 20.90625,43.96875 C22.53125,42.6875 23.0625,43.96875 22.5625,46.59375 C22.125,48.09375 21.0625,49.71875 18.09375,50.84375 C16.0625,52 17.59375,53.59375 19.09375,53.65625 C19.9375,53.65625 21.625,52.65625 22.9375,51.21875 C24.625,49.28125 24.75,48 25.6875,45 C26.5625,43.5625 28.15625,44.25 28.15625,45.75 C27.375,48.75 26.75,49.28125 25.1875,50.5 C23.71875,51.90625 26.21875,52.375 27.0625,51.78125 C29.5,50.15625 30.375,48.03125 31.1875,46.09375 C31.8125,44.71875 33.5,45.375 32.6875,47.65625 C30.8125,53.09375 27.6875,55.21875 22.28125,56.34375 C21.75,56.4375 21.40625,56.75 21.59375,57.375 L23.78125,59.5625 C20.4375,60.5625 17.71875,61.125 14.34375,62.0625 L9.71875,59 C9.3125,58 9.09375,56.4375 6.65625,57.53125 C5.03125,56.78125 4.25,57.0625 3.34375,57.84375 C4.65625,57.84375 5.21875,58.21875 5.75,58.8125 C6.4375,60.59375 8,60.78125 9.59375,60.28125 C10.625,61.125 11.15625,61.8125 12.21875,62.6875 L7,62.53125 C5.125,60.5625 3.6875,60.65625 2.375,62.21875 C1.34375,62.375 0.9375,62.375 0.25,63.59375 C1.3125,63.15625 2,63.03125 2.46875,63.5 C4.4375,64.65625 5.71875,64.40625 6.6875,63.5 L12.15625,63.84375 C11.46875,64.46875 10.53125,64.78125 9.8125,65.34375 C7,64.53125 5.5,65.65625 5,67.9375 C4.60500995,68.8519361 4.47506606,69.8590012 4.625,70.84375 C4.875,69.90625 5.34375,69.125 6.15625,68.65625 C8.65625,69.28125 9.59375,68.25 9.75,66.75 C11,65.75 12.8125,65.53125 14.03125,64.53125 C15.46875,64.96875 16.15625,65.25 17.59375,65.71875 C18.09375,67.28125 19.25,67.875 21.125,67.46875 C23.3125,67.53125 22.9375,68.46875 23.125,69.1875 C23.75,68.15625 23.71875,67.125 22.34375,66.1875 C21.84375,64.84375 20.71875,64.21875 19.28125,65 C17.90625,64.625 17.5625,64.0625 16.1875,63.65625 C19.625,62.5625 22.0625,62.3125 25.5,61.21875 L27.90625,63.34375 C28.375,63.625 28.8125,63.6875 29.09375,63.34375 C31.25,60.21875 32.21875,57.5 34.1875,55.4375 C34.96875,54.5625 35.9375,53.4375 37,53.15625 C37.53125,53 38.1875,53.09375 38.625,53.5625 C39.03125,54 39.375,54.84375 39.25,56.125 C39.03125,57.90625 38.59375,58.5 38.09375,59.5625 C37.5625,60.65625 36.96875,61.3125 36.3125,62.15625 C35.0625,63.8125 33.375,64.78125 32.375,65.4375 C30.375,66.71875 29.5625,66.15625 28,66.0625 C26,66.28125 25.5,67.25 27.125,68.59375 C28.625,69.40625 30,69.5 31.125,69.28125 C32.0625,69.09375 33.1875,67.875 34,67.21875 C34.875,66.1875 36.375,67.40625 35.34375,68.625 C33.5,70.8125 31.6875,72.25 29.40625,72.21875 C27,72.53125 27.46875,73.875 29.03125,74.53125 C31.90625,75.6875 34.46875,73.5 35.78125,72.03125 C36.78125,70.9375 37.5,70.90625 37.34375,72.625 C36.3125,75.71875 34.96875,76.90625 32.71875,77.0625 C30.90625,76.875 30.875,78.3125 32.21875,79.25 C35.21875,81.3125 37.40625,77.75 38.4375,75.625 C39.15625,73.6875 40.28125,74.59375 40.40625,76.1875 C40.40625,78.34375 39.46875,80.0625 36.875,82.25 C38.84375,85.40625 41.15625,88.625 43.125,91.78125 L49.125,24.90625 L43.125,14.375 C42.5,13.8125 40.375,11.3125 39.84375,10.9375 C39.625,10.75 39.53125,10.625 39.8125,10.5 C40.09375,10.375 40.75,10.25 41.21875,10.1875 C39.96875,8.90625 38.84375,8.5 36.4375,7.8125 C37.03125,7.5625 37.59375,7.6875 39.34375,7.625 C38.2699507,6.182219 36.8062454,5.07630834 35.125,4.4375 C36.4375,3.5 36.6875,3.4375 38,2.34375 C35.9298092,2.18381938 33.8850136,1.78534638 31.90625,1.15625 C30.7245325,0.594682027 29.4569096,0.23552222 28.15625,0.09375 L28.125,0.09375 Z M28.375,2.71875 C29.5625,2.71875 30.28125,3.125 30.28125,3.625 C30.28125,4.125 29.5625,4.53125 28.375,4.53125 C27.1875,4.53125 26.4375,4.0625 26.4375,3.59375 C26.4375,3.09375 27.1875,2.71875 28.375,2.71875 Z" id="a"></path>
                </g>
            </g>
        </g>
    </g>
</svg>