<?xml version="1.0" encoding="UTF-8"?>
<svg width="200px" height="150px" viewBox="0 0 200 150" version="1.1" xmlns="http://www.w3.org/2000/svg" xmlns:xlink="http://www.w3.org/1999/xlink">
    <!-- Generator: Sketch 52.5 (67469) - http://www.bohemiancoding.com/sketch -->
    <title>ao</title>
    <desc>Created with Sketch.</desc>
    <g id="Flags" stroke="none" stroke-width="1" fill="none" fill-rule="evenodd">
        <g id="Africa" transform="translate(-70.000000, -50.000000)">
            <g id="ao" transform="translate(70.000000, 50.000000)">
                <g id="Group">
                    <polygon id="Path" fill="#FF0000" points="0 0 200 0 200 76.125 0 76.125"></polygon>
                    <polygon id="Path" fill="#000000" points="0 73.875 200 73.875 200 150 0 150"></polygon>
                </g>
                <path d="M71.46875,46.3125 C123.09375,59.84375 89.90625,126.1875 49.1875,98.5625 L46.4375,102.8125 C70.40625,119.875 94.125,106.125 100.8125,88.3125 C107.75,69.9375 98.4375,44.09375 71.875,41.4375 L71.46875,46.3125 Z" id="Path" fill="#FFEC00"></path>
                <path d="M53.125,103.375 L59.90625,106.53125 L56.71875,113.34375 L49.9375,110.15625 L53.125,103.375 Z M99.6875,72.28125 L107.1875,72.28125 L107.1875,79.78125 L99.6875,79.78125 L99.6875,72.28125 Z M96.03125,60.125 L103,57.4375 L105.71875,64.40625 L98.75,67.125 L96.03125,60.125 Z M87.90625,51.03125 L93.25,45.75 L98.53125,51.0625 L93.21875,56.34375 L87.90625,51.03125 Z M79.71875,38.59375 L86.71875,41.21875 L84.0625,48.21875 L77.0625,45.59375 L79.71875,38.59375 Z M98.75,84.375 L105.71875,87.15625 L102.90625,94.09375 L95.96875,91.3125 L98.75,84.375 Z M76.90625,106.25 L83.78125,103.34375 L86.75,110.21875 L79.875,113.15625 L76.90625,106.25 Z M64.5625,107.125 L72.0625,107.125 L72.0625,114.625 L64.5625,114.625 L64.5625,107.125 Z M77.46875,70.875 L71.125,66.1875 L64.78125,70.75 L67.28125,63.5625 L60.9375,58.875 L68.59375,58.875 L71.25,51.8125 L73.6875,58.90625 L81.40625,58.8125 L75.28125,63.59375 L77.46875,70.90625 L77.46875,70.875 Z" id="Shape" fill="#FFEC00"></path>
                <path d="M105,108.25 C104.625,108.375 103.0625,112.125 101.96875,113.9375 L103.125,114.25 C107.375,115.75 109.5,117.125 111.3125,119.71875 C112.178224,120.562052 113.527188,120.654628 114.5,119.9375 C114.5,119.9375 115.375,119.625 116.5,118.375 C117.4375,116.96875 117.1875,115.875 116.0625,114.90625 C112.625,112.40625 108.90625,110.53125 105,108.25 Z" id="Path" fill="#FFEE00"></path>
                <path d="M114.15625,116.5 C114.15625,117.250762 113.547637,117.859375 112.796875,117.859375 C112.046113,117.859375 111.4375,117.250762 111.4375,116.5 C111.4375,115.757867 112.039117,115.15625 112.78125,115.15625 C113.523383,115.15625 114.125,115.757867 114.125,116.5 L114.15625,116.5 Z M107.46875,112.25 C107.46875,113.000762 106.860137,113.609375 106.109375,113.609375 C105.358613,113.609375 104.75,113.000762 104.75,112.25 C104.75,111.499238 105.358613,110.890625 106.109375,110.890625 C106.860137,110.890625 107.46875,111.499238 107.46875,112.25 Z M110.875,114.4375 C110.875,115.188262 110.266387,115.796875 109.515625,115.796875 C108.764863,115.796875 108.15625,115.188262 108.15625,114.4375 C108.15625,113.686738 108.764863,113.078125 109.515625,113.078125 C110.266387,113.078125 110.875,113.686738 110.875,114.4375 Z" id="Shape" fill="#000000" fill-rule="nonzero"></path>
                <path d="M101.40625,113.65625 C88.09375,106.0625 74.125,97.875 60.78125,90.28125 C54.9375,86.625 54.65625,79.84375 58.59375,74.6875 C58.96875,73.96875 59.46875,74.125 59.65625,74.53125 C60.125,77.03125 61.53125,79.625 63.21875,81.25 C77.0691804,89.9624137 90.7894436,98.8800639 104.375,108 C103.3125,109.8125 102.5,111.84375 101.40625,113.625 L101.40625,113.65625 Z" id="Path" fill="#FFEE00"></path>
                <polygon id="Path" fill="#FFEC00" points="92.875 95.46875 98.4375 100.46875 93.4375 106.03125 87.875 101.03125"></polygon>
                <path d="M103.59375,109 L64.53125,85.40625 M98.78125,103.5625 L85.625,95.03125 M91.3125,108.375 L77.90625,100.625" id="Shape" stroke="#000000"></path>
            </g>
        </g>
    </g>
</svg>