<?xml version="1.0" encoding="UTF-8"?>
<svg width="200px" height="150px" viewBox="0 0 200 150" version="1.1" xmlns="http://www.w3.org/2000/svg" xmlns:xlink="http://www.w3.org/1999/xlink">
    <!-- Generator: Sketch 52.5 (67469) - http://www.bohemiancoding.com/sketch -->
    <title>ar</title>
    <desc>Created with Sketch.</desc>
    <g id="Flags" stroke="none" stroke-width="1" fill="none" fill-rule="evenodd">
        <g id="South-America" transform="translate(-70.000000, -50.000000)">
            <g id="ar" transform="translate(70.000000, 50.000000)">
                <polygon id="Path" fill="#74ACDF" points="0 0 200 0 200 150 0 150"></polygon>
                <polygon id="Path" fill="#FFFFFF" points="0 50 200 50 200 100 0 100"></polygon>
                <g id="c" transform="translate(80.200000, 73.500000)" fill-rule="nonzero">
                    <path d="M18.84,1.89 L27.39,20.49 C27.39,20.49 27.54,20.85 27.78,20.76 C28.02,20.64 27.87,20.31 27.87,20.31 L20.76,1.11 M20.55,8.34 C20.43,11.16 22.17,12.72 21.96,15.24 C21.72,17.79 23.1,19.2 23.46,20.19 C23.76,21.18 23.07,21.75 23.37,21.9 C23.67,22.05 24.27,21.27 24.09,19.86 C23.88,18.48 22.83,18.06 23.07,14.97 C23.31,11.88 21.81,11.16 22.17,8.37" id="a" stroke="#85340A" stroke-width="1.056" fill="#F6B40E"></path>
                    <g id="a-link" transform="translate(19.279998, 12.162650) rotate(22.500000) translate(-19.279998, -12.162650) translate(14.479998, 1.512650)" fill="#F6B40E" stroke="#85340A" stroke-width="1.056">
                        <path d="M0.24,0.99 L8.79,19.59 C8.79,19.59 8.94,19.95 9.18,19.86 C9.42,19.74 9.27,19.41 9.27,19.41 L2.16,0.21 M1.95,7.44 C1.83,10.26 3.57,11.82 3.36,14.34 C3.12,16.89 4.5,18.3 4.86,19.29 C5.16,20.28 4.47,20.85 4.77,21 C5.07,21.15 5.67,20.37 5.49,18.96 C5.28,17.58 4.23,17.16 4.47,14.07 C4.71,10.98 3.21,10.26 3.57,7.47" id="a"></path>
                    </g>
                    <g id="a-link" transform="translate(15.239161, 11.152008) rotate(45.000000) translate(-15.239161, -11.152008) translate(10.439161, 0.502008)" fill="#F6B40E" stroke="#85340A" stroke-width="1.056">
                        <path d="M0.24,0.99 L8.79,19.59 C8.79,19.59 8.94,19.95 9.18,19.86 C9.42,19.74 9.27,19.41 9.27,19.41 L2.16,0.21 M1.95,7.44 C1.83,10.26 3.57,11.82 3.36,14.34 C3.12,16.89 4.5,18.3 4.86,19.29 C5.16,20.28 4.47,20.85 4.77,21 C5.07,21.15 5.67,20.37 5.49,18.96 C5.28,17.58 4.23,17.16 4.47,14.07 C4.71,10.98 3.21,10.26 3.57,7.47" id="a"></path>
                    </g>
                    <g id="a-link" transform="translate(11.892671, 8.671935) rotate(67.500000) translate(-11.892671, -8.671935) translate(7.092671, -1.978065)" fill="#F6B40E" stroke="#85340A" stroke-width="1.056">
                        <path d="M0.24,0.99 L8.79,19.59 C8.79,19.59 8.94,19.95 9.18,19.86 C9.42,19.74 9.27,19.41 9.27,19.41 L2.16,0.21 M1.95,7.44 C1.83,10.26 3.57,11.82 3.36,14.34 C3.12,16.89 4.5,18.3 4.86,19.29 C5.16,20.28 4.47,20.85 4.77,21 C5.07,21.15 5.67,20.37 5.49,18.96 C5.28,17.58 4.23,17.16 4.47,14.07 C4.71,10.98 3.21,10.26 3.57,7.47" id="a"></path>
                    </g>
                    <path d="M21.09,8.82 C21.24,11.52 22.77,12.72 22.47,15.21 C23.13,13.26 21.54,11.73 21.63,8.85 M19.32,1.71 L25.17,14.49 L20.28,1.32" id="b" fill="#85340A"></path>
                    <g id="b-link" transform="translate(19.434198, 8.654627) rotate(22.500000) translate(-19.434198, -8.654627) translate(16.434198, 1.604627)" fill="#85340A">
                        <path d="M1.89,7.62 C2.04,10.32 3.57,11.52 3.27,14.01 C3.93,12.06 2.34,10.53 2.43,7.65 M0.12,0.51 L5.97,13.29 L1.08,0.12" id="b"></path>
                    </g>
                    <g id="b-link" transform="translate(16.724086, 7.970027) rotate(45.000000) translate(-16.724086, -7.970027) translate(13.724086, 0.920027)" fill="#85340A">
                        <path d="M1.89,7.62 C2.04,10.32 3.57,11.52 3.27,14.01 C3.93,12.06 2.34,10.53 2.43,7.65 M0.12,0.51 L5.97,13.29 L1.08,0.12" id="b"></path>
                    </g>
                    <g id="b-link" transform="translate(14.482253, 6.300424) rotate(67.500000) translate(-14.482253, -6.300424) translate(11.482253, -0.749576)" fill="#85340A">
                        <path d="M1.89,7.62 C2.04,10.32 3.57,11.52 3.27,14.01 C3.93,12.06 2.34,10.53 2.43,7.65 M0.12,0.51 L5.97,13.29 L1.08,0.12" id="b"></path>
                    </g>
                </g>
                <g id="c-link" transform="translate(89.531250, 69.218750) rotate(90.000000) translate(-89.531250, -69.218750) translate(75.312500, 57.187500)" fill-rule="nonzero">
                    <g id="c" transform="translate(0.200000, 0.062500)">
                        <path d="M18.84,1.89 L27.39,20.49 C27.39,20.49 27.54,20.85 27.78,20.76 C28.02,20.64 27.87,20.31 27.87,20.31 L20.76,1.11 M20.55,8.34 C20.43,11.16 22.17,12.72 21.96,15.24 C21.72,17.79 23.1,19.2 23.46,20.19 C23.76,21.18 23.07,21.75 23.37,21.9 C23.67,22.05 24.27,21.27 24.09,19.86 C23.88,18.48 22.83,18.06 23.07,14.97 C23.31,11.88 21.81,11.16 22.17,8.37" id="a" stroke="#85340A" stroke-width="1.056" fill="#F6B40E"></path>
                        <g id="a-link" transform="translate(19.279998, 12.162650) rotate(22.500000) translate(-19.279998, -12.162650) translate(14.479998, 1.512650)" fill="#F6B40E" stroke="#85340A" stroke-width="1.056">
                            <path d="M0.24,0.99 L8.79,19.59 C8.79,19.59 8.94,19.95 9.18,19.86 C9.42,19.74 9.27,19.41 9.27,19.41 L2.16,0.21 M1.95,7.44 C1.83,10.26 3.57,11.82 3.36,14.34 C3.12,16.89 4.5,18.3 4.86,19.29 C5.16,20.28 4.47,20.85 4.77,21 C5.07,21.15 5.67,20.37 5.49,18.96 C5.28,17.58 4.23,17.16 4.47,14.07 C4.71,10.98 3.21,10.26 3.57,7.47" id="a"></path>
                        </g>
                        <g id="a-link" transform="translate(15.239161, 11.152008) rotate(45.000000) translate(-15.239161, -11.152008) translate(10.439161, 0.502008)" fill="#F6B40E" stroke="#85340A" stroke-width="1.056">
                            <path d="M0.24,0.99 L8.79,19.59 C8.79,19.59 8.94,19.95 9.18,19.86 C9.42,19.74 9.27,19.41 9.27,19.41 L2.16,0.21 M1.95,7.44 C1.83,10.26 3.57,11.82 3.36,14.34 C3.12,16.89 4.5,18.3 4.86,19.29 C5.16,20.28 4.47,20.85 4.77,21 C5.07,21.15 5.67,20.37 5.49,18.96 C5.28,17.58 4.23,17.16 4.47,14.07 C4.71,10.98 3.21,10.26 3.57,7.47" id="a"></path>
                        </g>
                        <g id="a-link" transform="translate(11.892671, 8.671935) rotate(67.500000) translate(-11.892671, -8.671935) translate(7.092671, -1.978065)" fill="#F6B40E" stroke="#85340A" stroke-width="1.056">
                            <path d="M0.24,0.99 L8.79,19.59 C8.79,19.59 8.94,19.95 9.18,19.86 C9.42,19.74 9.27,19.41 9.27,19.41 L2.16,0.21 M1.95,7.44 C1.83,10.26 3.57,11.82 3.36,14.34 C3.12,16.89 4.5,18.3 4.86,19.29 C5.16,20.28 4.47,20.85 4.77,21 C5.07,21.15 5.67,20.37 5.49,18.96 C5.28,17.58 4.23,17.16 4.47,14.07 C4.71,10.98 3.21,10.26 3.57,7.47" id="a"></path>
                        </g>
                        <path d="M21.09,8.82 C21.24,11.52 22.77,12.72 22.47,15.21 C23.13,13.26 21.54,11.73 21.63,8.85 M19.32,1.71 L25.17,14.49 L20.28,1.32" id="b" fill="#85340A"></path>
                        <g id="b-link" transform="translate(19.434198, 8.654627) rotate(22.500000) translate(-19.434198, -8.654627) translate(16.434198, 1.604627)" fill="#85340A">
                            <path d="M1.89,7.62 C2.04,10.32 3.57,11.52 3.27,14.01 C3.93,12.06 2.34,10.53 2.43,7.65 M0.12,0.51 L5.97,13.29 L1.08,0.12" id="b"></path>
                        </g>
                        <g id="b-link" transform="translate(16.724086, 7.970027) rotate(45.000000) translate(-16.724086, -7.970027) translate(13.724086, 0.920027)" fill="#85340A">
                            <path d="M1.89,7.62 C2.04,10.32 3.57,11.52 3.27,14.01 C3.93,12.06 2.34,10.53 2.43,7.65 M0.12,0.51 L5.97,13.29 L1.08,0.12" id="b"></path>
                        </g>
                        <g id="b-link" transform="translate(14.482253, 6.300424) rotate(67.500000) translate(-14.482253, -6.300424) translate(11.482253, -0.749576)" fill="#85340A">
                            <path d="M1.89,7.62 C2.04,10.32 3.57,11.52 3.27,14.01 C3.93,12.06 2.34,10.53 2.43,7.65 M0.12,0.51 L5.97,13.29 L1.08,0.12" id="b"></path>
                        </g>
                    </g>
                </g>
                <g id="c-link" transform="translate(105.781250, 64.531250) rotate(180.000000) translate(-105.781250, -64.531250) translate(91.562500, 52.500000)" fill-rule="nonzero">
                    <g id="c" transform="translate(0.200000, 0.062500)">
                        <path d="M18.84,1.89 L27.39,20.49 C27.39,20.49 27.54,20.85 27.78,20.76 C28.02,20.64 27.87,20.31 27.87,20.31 L20.76,1.11 M20.55,8.34 C20.43,11.16 22.17,12.72 21.96,15.24 C21.72,17.79 23.1,19.2 23.46,20.19 C23.76,21.18 23.07,21.75 23.37,21.9 C23.67,22.05 24.27,21.27 24.09,19.86 C23.88,18.48 22.83,18.06 23.07,14.97 C23.31,11.88 21.81,11.16 22.17,8.37" id="a" stroke="#85340A" stroke-width="1.056" fill="#F6B40E"></path>
                        <g id="a-link" transform="translate(19.279998, 12.162650) rotate(22.500000) translate(-19.279998, -12.162650) translate(14.479998, 1.512650)" fill="#F6B40E" stroke="#85340A" stroke-width="1.056">
                            <path d="M0.24,0.99 L8.79,19.59 C8.79,19.59 8.94,19.95 9.18,19.86 C9.42,19.74 9.27,19.41 9.27,19.41 L2.16,0.21 M1.95,7.44 C1.83,10.26 3.57,11.82 3.36,14.34 C3.12,16.89 4.5,18.3 4.86,19.29 C5.16,20.28 4.47,20.85 4.77,21 C5.07,21.15 5.67,20.37 5.49,18.96 C5.28,17.58 4.23,17.16 4.47,14.07 C4.71,10.98 3.21,10.26 3.57,7.47" id="a"></path>
                        </g>
                        <g id="a-link" transform="translate(15.239161, 11.152008) rotate(45.000000) translate(-15.239161, -11.152008) translate(10.439161, 0.502008)" fill="#F6B40E" stroke="#85340A" stroke-width="1.056">
                            <path d="M0.24,0.99 L8.79,19.59 C8.79,19.59 8.94,19.95 9.18,19.86 C9.42,19.74 9.27,19.41 9.27,19.41 L2.16,0.21 M1.95,7.44 C1.83,10.26 3.57,11.82 3.36,14.34 C3.12,16.89 4.5,18.3 4.86,19.29 C5.16,20.28 4.47,20.85 4.77,21 C5.07,21.15 5.67,20.37 5.49,18.96 C5.28,17.58 4.23,17.16 4.47,14.07 C4.71,10.98 3.21,10.26 3.57,7.47" id="a"></path>
                        </g>
                        <g id="a-link" transform="translate(11.892671, 8.671935) rotate(67.500000) translate(-11.892671, -8.671935) translate(7.092671, -1.978065)" fill="#F6B40E" stroke="#85340A" stroke-width="1.056">
                            <path d="M0.24,0.99 L8.79,19.59 C8.79,19.59 8.94,19.95 9.18,19.86 C9.42,19.74 9.27,19.41 9.27,19.41 L2.16,0.21 M1.95,7.44 C1.83,10.26 3.57,11.82 3.36,14.34 C3.12,16.89 4.5,18.3 4.86,19.29 C5.16,20.28 4.47,20.85 4.77,21 C5.07,21.15 5.67,20.37 5.49,18.96 C5.28,17.58 4.23,17.16 4.47,14.07 C4.71,10.98 3.21,10.26 3.57,7.47" id="a"></path>
                        </g>
                        <path d="M21.09,8.82 C21.24,11.52 22.77,12.72 22.47,15.21 C23.13,13.26 21.54,11.73 21.63,8.85 M19.32,1.71 L25.17,14.49 L20.28,1.32" id="b" fill="#85340A"></path>
                        <g id="b-link" transform="translate(19.434198, 8.654627) rotate(22.500000) translate(-19.434198, -8.654627) translate(16.434198, 1.604627)" fill="#85340A">
                            <path d="M1.89,7.62 C2.04,10.32 3.57,11.52 3.27,14.01 C3.93,12.06 2.34,10.53 2.43,7.65 M0.12,0.51 L5.97,13.29 L1.08,0.12" id="b"></path>
                        </g>
                        <g id="b-link" transform="translate(16.724086, 7.970027) rotate(45.000000) translate(-16.724086, -7.970027) translate(13.724086, 0.920027)" fill="#85340A">
                            <path d="M1.89,7.62 C2.04,10.32 3.57,11.52 3.27,14.01 C3.93,12.06 2.34,10.53 2.43,7.65 M0.12,0.51 L5.97,13.29 L1.08,0.12" id="b"></path>
                        </g>
                        <g id="b-link" transform="translate(14.482253, 6.300424) rotate(67.500000) translate(-14.482253, -6.300424) translate(11.482253, -0.749576)" fill="#85340A">
                            <path d="M1.89,7.62 C2.04,10.32 3.57,11.52 3.27,14.01 C3.93,12.06 2.34,10.53 2.43,7.65 M0.12,0.51 L5.97,13.29 L1.08,0.12" id="b"></path>
                        </g>
                    </g>
                </g>
                <g id="c-link" transform="translate(110.468750, 80.781250) rotate(-90.000000) translate(-110.468750, -80.781250) translate(96.250000, 68.750000)" fill-rule="nonzero">
                    <g id="c" transform="translate(0.200000, 0.062500)">
                        <path d="M18.84,1.89 L27.39,20.49 C27.39,20.49 27.54,20.85 27.78,20.76 C28.02,20.64 27.87,20.31 27.87,20.31 L20.76,1.11 M20.55,8.34 C20.43,11.16 22.17,12.72 21.96,15.24 C21.72,17.79 23.1,19.2 23.46,20.19 C23.76,21.18 23.07,21.75 23.37,21.9 C23.67,22.05 24.27,21.27 24.09,19.86 C23.88,18.48 22.83,18.06 23.07,14.97 C23.31,11.88 21.81,11.16 22.17,8.37" id="a" stroke="#85340A" stroke-width="1.056" fill="#F6B40E"></path>
                        <g id="a-link" transform="translate(19.279998, 12.162650) rotate(22.500000) translate(-19.279998, -12.162650) translate(14.479998, 1.512650)" fill="#F6B40E" stroke="#85340A" stroke-width="1.056">
                            <path d="M0.24,0.99 L8.79,19.59 C8.79,19.59 8.94,19.95 9.18,19.86 C9.42,19.74 9.27,19.41 9.27,19.41 L2.16,0.21 M1.95,7.44 C1.83,10.26 3.57,11.82 3.36,14.34 C3.12,16.89 4.5,18.3 4.86,19.29 C5.16,20.28 4.47,20.85 4.77,21 C5.07,21.15 5.67,20.37 5.49,18.96 C5.28,17.58 4.23,17.16 4.47,14.07 C4.71,10.98 3.21,10.26 3.57,7.47" id="a"></path>
                        </g>
                        <g id="a-link" transform="translate(15.239161, 11.152008) rotate(45.000000) translate(-15.239161, -11.152008) translate(10.439161, 0.502008)" fill="#F6B40E" stroke="#85340A" stroke-width="1.056">
                            <path d="M0.24,0.99 L8.79,19.59 C8.79,19.59 8.94,19.95 9.18,19.86 C9.42,19.74 9.27,19.41 9.27,19.41 L2.16,0.21 M1.95,7.44 C1.83,10.26 3.57,11.82 3.36,14.34 C3.12,16.89 4.5,18.3 4.86,19.29 C5.16,20.28 4.47,20.85 4.77,21 C5.07,21.15 5.67,20.37 5.49,18.96 C5.28,17.58 4.23,17.16 4.47,14.07 C4.71,10.98 3.21,10.26 3.57,7.47" id="a"></path>
                        </g>
                        <g id="a-link" transform="translate(11.892671, 8.671935) rotate(67.500000) translate(-11.892671, -8.671935) translate(7.092671, -1.978065)" fill="#F6B40E" stroke="#85340A" stroke-width="1.056">
                            <path d="M0.24,0.99 L8.79,19.59 C8.79,19.59 8.94,19.95 9.18,19.86 C9.42,19.74 9.27,19.41 9.27,19.41 L2.16,0.21 M1.95,7.44 C1.83,10.26 3.57,11.82 3.36,14.34 C3.12,16.89 4.5,18.3 4.86,19.29 C5.16,20.28 4.47,20.85 4.77,21 C5.07,21.15 5.67,20.37 5.49,18.96 C5.28,17.58 4.23,17.16 4.47,14.07 C4.71,10.98 3.21,10.26 3.57,7.47" id="a"></path>
                        </g>
                        <path d="M21.09,8.82 C21.24,11.52 22.77,12.72 22.47,15.21 C23.13,13.26 21.54,11.73 21.63,8.85 M19.32,1.71 L25.17,14.49 L20.28,1.32" id="b" fill="#85340A"></path>
                        <g id="b-link" transform="translate(19.434198, 8.654627) rotate(22.500000) translate(-19.434198, -8.654627) translate(16.434198, 1.604627)" fill="#85340A">
                            <path d="M1.89,7.62 C2.04,10.32 3.57,11.52 3.27,14.01 C3.93,12.06 2.34,10.53 2.43,7.65 M0.12,0.51 L5.97,13.29 L1.08,0.12" id="b"></path>
                        </g>
                        <g id="b-link" transform="translate(16.724086, 7.970027) rotate(45.000000) translate(-16.724086, -7.970027) translate(13.724086, 0.920027)" fill="#85340A">
                            <path d="M1.89,7.62 C2.04,10.32 3.57,11.52 3.27,14.01 C3.93,12.06 2.34,10.53 2.43,7.65 M0.12,0.51 L5.97,13.29 L1.08,0.12" id="b"></path>
                        </g>
                        <g id="b-link" transform="translate(14.482253, 6.300424) rotate(67.500000) translate(-14.482253, -6.300424) translate(11.482253, -0.749576)" fill="#85340A">
                            <path d="M1.89,7.62 C2.04,10.32 3.57,11.52 3.27,14.01 C3.93,12.06 2.34,10.53 2.43,7.65 M0.12,0.51 L5.97,13.29 L1.08,0.12" id="b"></path>
                        </g>
                    </g>
                </g>
                <circle id="Oval" stroke="#85340A" stroke-width="1.4" fill="#F6B40E" cx="100" cy="75" r="8.34375"></circle>
                <path d="M102.84375,73.21875 C102.28125,73.21875 101.71875,73.4793207 101.40625,74.000462 C102.03125,74.6193174 103.46875,74.6518887 104.4375,73.9353194 C104.02379,73.4776069 103.447077,73.2183096 102.84375,73.21875 Z M102.84375,73.3490354 C103.375,73.3490354 103.90625,73.609606 103.96875,73.8701767 C103.34375,74.6193174 102.3125,74.5216034 101.65625,74.000462 C101.912281,73.5781108 102.364776,73.3298857 102.84375,73.3490354 Z" id="h" fill="#843511" fill-rule="nonzero"></path>
                <g id="d-link" transform="translate(102.875000, 73.437500) scale(-1, 1) translate(-102.875000, -73.437500) translate(100.687500, 72.812500)" fill="#85340A">
                    <path d="M2.125,0 C2.96875,0 3.15625,0.21875 3.53125,0.53125 C3.90625,0.84375 4.125,0.78125 4.15625,0.84375 C4.25,0.90625 4.15625,1.09375 4.0625,1.03125 C3.90625,0.96875 3.65625,0.84375 3.28125,0.53125 C2.90625,0.21875 2.5,0.21875 2.125,0.21875 C0.96875,0.21875 0.34375,1.15625 0.1875,1.09375 C0.09375,1.03125 0.84375,0 2.125,0 Z" id="d"></path>
                </g>
                <g id="e-link" transform="translate(102.718750, 73.906250) scale(-1, 1) translate(-102.718750, -73.906250) translate(100.062500, 71.562500)" fill="#85340A">
                    <path d="M0.125,1.65625 C1.59375,0.375 3.46875,0.15625 4.5,1.125 C4.74200549,1.44654076 4.90281047,1.8217524 4.96875,2.21875 C5.09375,2.9375 4.875,3.71875 4.3125,4.53125 L4.5625,4.65625 C5.05322553,3.76063679 5.22928624,2.72628011 5.0625,1.71875 C5.02157732,1.47405068 4.95882678,1.23350695 4.875,1 C3.46875,-0.15625 1.53125,-0.25 0.125,1.625 L0.125,1.65625 Z" id="e"></path>
                </g>
                <g id="f-link" transform="translate(102.218750, 73.125000)" fill="#85340A">
                    <circle id="f" cx="0.59375" cy="0.71875" r="1"></circle>
                </g>
                <g id="g-link" transform="translate(102.875000, 74.687500) scale(-1, 1) translate(-102.875000, -74.687500) translate(101.000000, 74.062500)" fill="#85340A">
                    <path d="M0.28125,0.208333333 C1.375,1.33333333 2.46875,1.25 3.09375,0.75 C3.71875,0.208333333 3.71875,0.0416666667 3.59375,0.0416666667 C3.46875,0.0416666667 3.34375,0.208333333 2.84375,0.583333333 C2.3125,0.916666667 1.5625,0.916666667 0.28125,0.208333333 Z" id="g"></path>
                </g>
                <path d="M98.75,76.15625 C98.4734483,76.1841052 98.2532307,76.4000863 98.2200095,76.6760449 C98.1867884,76.9520035 98.3494554,77.214078 98.6114949,77.3067713 C98.8735345,77.3994646 99.1648107,77.2979669 99.3125,77.0625 C99.5186198,77.1903823 99.757495,77.2555301 100,77.25 L100.0625,77.25 C100.315757,77.2638119 100.567014,77.1982667 100.78125,77.0625 C100.940159,77.2807276 101.226282,77.3642887 101.477662,77.2658852 C101.729043,77.1674817 101.882401,76.9118848 101.850931,76.6437708 C101.819461,76.3756568 101.611085,76.1625189 101.34375,76.125 C101.5,76.21875 101.59375,76.34375 101.59375,76.53125 C101.59375,76.71875 101.4375,76.90625 101.21875,76.90625 C101.011643,76.90625 100.84375,76.7383568 100.84375,76.53125 C100.692824,76.8456849 100.379819,77.0503418 100.03125,77.0625 C99.6941178,77.0391674 99.3956336,76.8361981 99.25,76.53125 C99.2503657,76.6363651 99.2065967,76.7368079 99.1293573,76.8081058 C99.0521179,76.8794038 98.9485001,76.9150103 98.84375,76.90625 C98.65625,76.90625 98.46875,76.71875 98.46875,76.53125 C98.46875,76.34375 98.5625,76.21875 98.71875,76.15625 L98.75,76.15625 Z M99.375,77.875 C98.71875,77.875 98.4375,78.4375 97.875,78.8125 C98.1875,78.6875 98.46875,78.4375 98.90625,78.1875 C99.34375,77.9375 99.75,78.25 100,78.25 C100.25,78.25 100.625,77.9375 101.09375,78.1875 C101.53125,78.4375 101.8125,78.6875 102.125,78.8125 C101.53125,78.4375 101.28125,77.875 100.625,77.875 C100.406605,77.8970172 100.194449,77.960664 100,78.0625 C99.807815,77.9497614 99.5955429,77.8754662 99.375,77.84375 L99.375,77.875 Z" id="Shape" fill="#85340A" fill-rule="nonzero"></path>
                <path d="M99.125,78.625 C98.875,78.625 98.5625,78.6875 98.0625,78.8125 C99.21875,78.5625 99.46875,78.96875 100,78.96875 C100.5,78.96875 100.75,78.5625 101.90625,78.8125 C100.65625,78.4375 100.375,78.6875 100,78.6875 C99.75,78.6875 99.5625,78.59375 99.125,78.625 Z" id="Path" fill="#85340A"></path>
                <path d="M98.125,78.8125 L97.875,78.8125 C99.21875,78.96875 98.59375,79.75 100,79.75 C101.40625,79.75 100.78125,78.96875 102.125,78.8125 C100.71875,78.6875 101.15625,79.53125 100,79.53125 C98.90625,79.53125 99.25,78.8125 98.125,78.8125 Z M101.15625,80.90625 C101.15625,80.2676708 100.638579,79.75 100,79.75 C99.3614208,79.75 98.84375,80.2676708 98.84375,80.90625 C98.9694558,80.3691854 99.4484201,79.9893829 100,79.9893829 C100.55158,79.9893829 101.030544,80.3691854 101.15625,80.90625 Z" id="Shape" fill="#85340A" fill-rule="nonzero"></path>
                <path d="M94.8125,73.21875 C96.28125,71.9375 98.15625,71.71875 99.1875,72.6875 C99.4295055,73.0090408 99.5903105,73.3842524 99.65625,73.78125 C99.78125,74.5 99.5625,75.28125 99,76.09375 L99.25,76.21875 C99.7407255,75.3231368 99.9167862,74.2887801 99.75,73.28125 C99.7090773,73.0365507 99.6463268,72.7960069 99.5625,72.5625 C98.15625,71.40625 96.21875,71.3125 94.8125,73.1875 L94.8125,73.21875 Z" id="e" fill="#85340A"></path>
                <path d="M97.125,72.8125 C97.96875,72.8125 98.15625,73.03125 98.53125,73.34375 C98.90625,73.65625 99.125,73.59375 99.15625,73.65625 C99.25,73.71875 99.15625,73.90625 99.0625,73.84375 C98.90625,73.78125 98.65625,73.65625 98.28125,73.34375 C97.90625,73.03125 97.5,73.03125 97.125,73.03125 C95.96875,73.03125 95.34375,73.96875 95.1875,73.90625 C95.09375,73.84375 95.84375,72.8125 97.125,72.8125 Z" id="d" fill="#85340A"></path>
                <g id="h-link" transform="translate(95.500000, 73.125000)" fill="#843511" fill-rule="nonzero">
                    <path d="M1.59375,0.0937500227 C1.03125,0.0937500227 0.46875,0.354320691 0.15625,0.875462028 C0.78125,1.49431737 2.21875,1.5268887 3.1875,0.810319361 C2.77379018,0.352606889 2.19707689,0.0933095939 1.59375,0.0937500227 Z M1.59375,0.224035357 C2.125,0.224035357 2.65625,0.484606026 2.71875,0.745176694 C2.09375,1.49431737 1.0625,1.39660337 0.40625,0.875462028 C0.66228135,0.453110844 1.11477639,0.204885718 1.59375,0.224035357 Z" id="h"></path>
                </g>
                <circle id="f" fill="#85340A" cx="97.15625" cy="73.84375" r="1"></circle>
                <path d="M95.59375,74.21875 C96.6875,75.0625 97.78125,75 98.40625,74.625 C99.03125,74.21875 99.03125,74.09375 98.90625,74.09375 C98.78125,74.09375 98.65625,74.21875 98.15625,74.5 C97.625,74.75 96.875,74.75 95.59375,74.21875 Z" id="g" fill="#85340A"></path>
            </g>
        </g>
    </g>
</svg>