<?xml version="1.0" encoding="UTF-8"?>
<svg width="200px" height="150px" viewBox="0 0 200 150" version="1.1" xmlns="http://www.w3.org/2000/svg" xmlns:xlink="http://www.w3.org/1999/xlink">
    <!-- Generator: Sketch 52.5 (67469) - http://www.bohemiancoding.com/sketch -->
    <title>bb</title>
    <desc>Created with Sketch.</desc>
    <g id="Flags" stroke="none" stroke-width="1" fill="none" fill-rule="evenodd">
        <g id="North-America" transform="translate(-510.000000, -50.000000)">
            <g id="bb" transform="translate(510.000000, 50.000000)">
                <polygon id="Path" fill="#00267F" points="0 0 200 0 200 150 0 150"></polygon>
                <polygon id="Path" fill="#FFC726" points="66.65625 0 133.34375 0 133.34375 150 66.65625 150"></polygon>
                <path d="M99.9375,42.34375 C97.75,48.28125 95.5625,54.40625 90.8125,59.125 C92.28125,58.625 94.875,58.1875 96.5,58.25 L96.5,83.09375 L89.5,84.125 C89.25,84.125 89.1875,83.71875 89.1875,83.1875 C88.5,75.46875 86.6875,68.96875 84.5625,62.25 C84.40625,61.34375 81.75,57.875 83.8125,58.5 C84.0625,58.5 86.78125,59.625 86.375,59.09375 C82.4487675,55.1336687 77.3757786,52.5097089 71.875,51.59375 C71.40625,51.5 71.125,51.75 71.5625,52.28125 C78.5625,63.09375 84.46875,75.875 84.40625,91.03125 C87.15625,91.03125 93.78125,89.40625 96.5,89.40625 L96.5,106.9375 L100,106.9375 L100.78125,57.96875 L99.9375,42.34375 Z" id="a" fill="#000000"></path>
                <g id="a-link" transform="translate(113.750000, 74.687500) scale(-1, 1) translate(-113.750000, -74.687500) translate(98.906250, 42.187500)" fill="#000000">
                    <path d="M28.6875,0.15625 C26.5,6.09375 24.3125,12.21875 19.5625,16.9375 C21.03125,16.4375 23.625,16 25.25,16.0625 L25.25,40.90625 L18.25,41.9375 C18,41.9375 17.9375,41.53125 17.9375,41 C17.25,33.28125 15.4375,26.78125 13.3125,20.0625 C13.15625,19.15625 10.5,15.6875 12.5625,16.3125 C12.8125,16.3125 15.53125,17.4375 15.125,16.90625 C11.1987675,12.9461687 6.1257786,10.3222089 0.625,9.40625 C0.15625,9.3125 -0.125,9.5625 0.3125,10.09375 C7.3125,20.90625 13.21875,33.6875 13.15625,48.84375 C15.90625,48.84375 22.53125,47.21875 25.25,47.21875 L25.25,64.75 L28.75,64.75 L29.53125,15.78125 L28.6875,0.15625 Z" id="a"></path>
                </g>
            </g>
        </g>
    </g>
</svg>