<?xml version="1.0" encoding="UTF-8"?>
<svg width="200px" height="141px" viewBox="0 0 200 141" version="1.1" xmlns="http://www.w3.org/2000/svg" xmlns:xlink="http://www.w3.org/1999/xlink">
    <!-- Generator: Sketch 52.5 (67469) - http://www.bohemiancoding.com/sketch -->
    <title>by</title>
    <desc>Created with Sketch.</desc>
    <defs>
        <polygon id="path-1" points="0 0 199.88287 0 199.88287 150 0 150"></polygon>
    </defs>
    <g id="Flags" stroke="none" stroke-width="1" fill="none" fill-rule="evenodd">
        <g id="Europe" transform="translate(-290.000000, -250.000000)">
            <g id="by" transform="translate(290.000000, 250.000000)">
                <mask id="mask-2" fill="white">
                    <use xlink:href="#path-1"></use>
                </mask>
                <g id="Path"></g>
                <g id="Group" mask="url(#mask-2)">
                    <polygon id="Path" fill="#B20000" points="0 0 281.142723 0 281.142723 93.4112549 0 93.4112549"></polygon>
                    <polygon id="Path" fill="#429F00" points="0 93.4112549 281.142723 93.4112549 281.142723 140.625 0 140.625"></polygon>
                    <polygon id="Path" fill="#FFFFFF" points="0 0 31.1343602 0 31.1343602 140.625 0 140.625"></polygon>
                    <g fill="#B20000" fill-rule="nonzero" id="Shape">
                        <path d="M1.48258858,2.38952637 L2.96517716,2.38952637 L2.96517716,4.77905273 L1.48258858,4.77905273 L1.48258858,2.38952637 Z M5.93035432,2.38952637 L10.3781201,2.38952637 L10.3781201,4.77905273 L5.93035432,4.77905273 L5.93035432,2.38952637 Z M7.4129429,0 L8.89553148,0 L8.89553148,2.38952637 L7.4129429,2.38952637 L7.4129429,0 Z M14.8258858,0 L16.3084744,0 L16.3084744,2.38952637 L14.8258858,2.38952637 L14.8258858,0 Z M20.7562401,2.38952637 L25.2040059,2.38952637 L25.2040059,4.77905273 L20.7562401,4.77905273 L20.7562401,2.38952637 Z M22.2388287,0 L23.7214173,0 L23.7214173,2.38952637 L22.2388287,2.38952637 L22.2388287,0 Z M4.44776574,4.77905273 L7.4129429,4.77905273 L7.4129429,7.14111328 L4.44776574,7.14111328 L4.44776574,4.77905273 Z M8.89553148,4.77905273 L11.8607086,4.77905273 L11.8607086,7.14111328 L8.89553148,7.14111328 L8.89553148,4.77905273 Z M19.2736515,4.77905273 L22.2388287,4.77905273 L22.2388287,7.14111328 L19.2736515,7.14111328 L19.2736515,4.77905273 Z M23.7214173,4.77905273 L26.6865944,4.77905273 L26.6865944,7.14111328 L23.7214173,7.14111328 L23.7214173,4.77905273 Z M2.96517716,7.14111328 L5.93035432,7.14111328 L5.93035432,9.53063965 L2.96517716,9.53063965 L2.96517716,7.14111328 Z M10.3781201,7.14111328 L13.3432972,7.14111328 L13.3432972,9.53063965 L10.3781201,9.53063965 L10.3781201,7.14111328 Z M17.791063,7.14111328 L20.7562401,7.14111328 L20.7562401,9.53063965 L17.791063,9.53063965 L17.791063,7.14111328 Z M25.2040059,7.14111328 L28.169183,7.14111328 L28.169183,9.53063965 L25.2040059,9.53063965 L25.2040059,7.14111328 Z M28.169183,2.38952637 L29.6517716,2.38952637 L29.6517716,4.77905273 L28.169183,4.77905273 L28.169183,2.38952637 Z M1.48258858,9.53063965 L4.44776574,9.53063965 L4.44776574,11.920166 L1.48258858,11.920166 L1.48258858,9.53063965 Z M11.8607086,9.53063965 L14.8258858,9.53063965 L14.8258858,11.920166 L11.8607086,11.920166 L11.8607086,9.53063965 Z M26.6865944,9.53063965 L29.6517716,9.53063965 L29.6517716,11.920166 L26.6865944,11.920166 L26.6865944,9.53063965 Z M2.96517716,16.6717529 L5.93035432,16.6717529 L5.93035432,19.0612793 L2.96517716,19.0612793 L2.96517716,16.6717529 Z M4.44776574,19.0612793 L7.4129429,19.0612793 L7.4129429,21.4508057 L4.44776574,21.4508057 L4.44776574,19.0612793 Z M10.3781201,16.6992188 L13.3432972,16.6992188 L13.3432972,19.0612793 L10.3781201,19.0612793 L10.3781201,16.6992188 Z M8.89553148,19.0612793 L11.8607086,19.0612793 L11.8607086,21.4508057 L8.89553148,21.4508057 L8.89553148,19.0612793 Z M5.93035432,21.4508057 L10.3781201,21.4508057 L10.3781201,23.840332 L5.93035432,23.840332 L5.93035432,21.4508057 Z"></path>
                        <path d="M7.4129429,23.840332 L8.89553148,23.840332 L8.89553148,26.2298584 L7.4129429,26.2298584 L7.4129429,23.840332 Z M17.791063,16.6992188 L20.7562401,16.6992188 L20.7562401,19.0612793 L17.791063,19.0612793 L17.791063,16.6992188 Z M19.2736515,19.0612793 L22.2388287,19.0612793 L22.2388287,21.4508057 L19.2736515,21.4508057 L19.2736515,19.0612793 Z M25.2040059,16.6992188 L28.169183,16.6992188 L28.169183,19.0612793 L25.2040059,19.0612793 L25.2040059,16.6992188 Z M23.7214173,19.0612793 L26.6865944,19.0612793 L26.6865944,21.4508057 L23.7214173,21.4508057 L23.7214173,19.0612793 Z M20.7562401,21.4508057 L25.2040059,21.4508057 L25.2040059,23.840332 L20.7562401,23.840332 L20.7562401,21.4508057 Z M22.2388287,23.840332 L23.7214173,23.840332 L23.7214173,26.2298584 L22.2388287,26.2298584 L22.2388287,23.840332 Z M14.8258858,21.4233398 L16.3084744,21.4233398 L16.3084744,23.8128662 L14.8258858,23.8128662 L14.8258858,21.4233398 Z M0,21.4233398 L1.48258858,21.4233398 L1.48258858,23.8128662 L0,23.8128662 L0,21.4233398 Z M29.6517716,21.4233398 L31.1343602,21.4233398 L31.1343602,23.8128662 L29.6517716,23.8128662 L29.6517716,21.4233398 Z M7.4129429,33.3435059 L8.89553148,33.3435059 L8.89553148,35.7330322 L7.4129429,35.7330322 L7.4129429,33.3435059 Z M5.93035432,35.760498 L10.3781201,35.760498 L10.3781201,38.1225586 L5.93035432,38.1225586 L5.93035432,35.760498 Z M4.44776574,38.1225586 L11.8607086,38.1225586 L11.8607086,40.512085 L4.44776574,40.512085 L4.44776574,38.1225586 Z M22.2388287,33.3709717 L23.7214173,33.3709717 L23.7214173,35.760498 L22.2388287,35.760498 L22.2388287,33.3709717 Z M20.7562401,35.760498 L25.2040059,35.760498 L25.2040059,38.1225586 L20.7562401,38.1225586 L20.7562401,35.760498 Z M19.2736515,38.1225586 L26.6865944,38.1225586 L26.6865944,40.512085 L19.2736515,40.512085 L19.2736515,38.1225586 Z M20.7562401,50.0427246 L28.169183,50.0427246 L28.169183,52.432251 L20.7562401,52.432251 L20.7562401,50.0427246 Z M17.791063,40.512085 L28.169183,40.512085 L28.169183,42.9016113 L17.791063,42.9016113 L17.791063,40.512085 Z M2.96517716,40.512085 L13.3432972,40.512085 L13.3432972,42.9016113 L2.96517716,42.9016113 L2.96517716,40.512085 Z M4.44776574,52.432251 L8.89553148,52.432251 L8.89553148,54.8217773 L4.44776574,54.8217773 L4.44776574,52.432251 Z M2.96517716,50.0427246 L10.3781201,50.0427246 L10.3781201,52.432251 L2.96517716,52.432251 L2.96517716,50.0427246 Z M23.7214173,45.3186035 L31.1343602,45.3186035 L31.1343602,47.7081299 L23.7214173,47.7081299 L23.7214173,45.3186035 Z M22.2388287,52.4597168 L26.6865944,52.4597168 L26.6865944,54.8492432 L22.2388287,54.8492432 L22.2388287,52.4597168 Z"></path>
                        <path d="M5.93035432,54.8217773 L7.4129429,54.8217773 L7.4129429,57.2113037 L5.93035432,57.2113037 L5.93035432,54.8217773 Z M23.7214173,54.8217773 L25.2040059,54.8217773 L25.2040059,57.2113037 L23.7214173,57.2113037 L23.7214173,54.8217773 Z M0,45.2911377 L7.4129429,45.2911377 L7.4129429,47.6806641 L0,47.6806641 L0,45.2911377 Z M13.3432972,50.0427246 L17.791063,50.0427246 L17.791063,52.432251 L13.3432972,52.432251 L13.3432972,50.0427246 Z M14.8258858,52.4597168 L16.3084744,52.4597168 L16.3084744,54.8492432 L14.8258858,54.8492432 L14.8258858,52.4597168 Z M10.3781201,45.3186035 L20.7562401,45.3186035 L20.7562401,47.7081299 L10.3781201,47.7081299 L10.3781201,45.3186035 Z M16.3084744,9.53063965 L19.2736515,9.53063965 L19.2736515,11.920166 L16.3084744,11.920166 L16.3084744,9.53063965 Z M13.3432972,11.920166 L17.791063,11.920166 L17.791063,14.3096924 L13.3432972,14.3096924 L13.3432972,11.920166 Z M11.8607086,14.3096924 L14.8258858,14.3096924 L14.8258858,16.6717529 L11.8607086,16.6717529 L11.8607086,14.3096924 Z M16.3084744,14.3096924 L19.2736515,14.3096924 L19.2736515,16.6717529 L16.3084744,16.6717529 L16.3084744,14.3096924 Z M0,11.920166 L2.96517716,11.920166 L2.96517716,14.3096924 L0,14.3096924 L0,11.920166 Z M1.48258858,14.3096924 L4.44776574,14.3096924 L4.44776574,16.6717529 L1.48258858,16.6717529 L1.48258858,14.3096924 Z M28.169183,11.920166 L31.1343602,11.920166 L31.1343602,14.2822266 L28.169183,14.2822266 L28.169183,11.920166 Z M26.6865944,14.2822266 L29.6517716,14.2822266 L29.6517716,16.6442871 L26.6865944,16.6442871 L26.6865944,14.2822266 Z M0,35.7055664 L1.48258858,35.7055664 L1.48258858,38.0950928 L0,38.0950928 L0,35.7055664 Z M29.6517716,35.7055664 L31.1343602,35.7055664 L31.1343602,38.0950928 L29.6517716,38.0950928 L29.6517716,35.7055664 Z M13.3432972,54.7943115 L17.791063,54.7943115 L17.791063,57.1838379 L13.3432972,57.1838379 L13.3432972,54.7943115 Z M11.8607086,57.1838379 L14.8258858,57.1838379 L14.8258858,59.5458984 L11.8607086,59.5458984 L11.8607086,57.1838379 Z M16.3084744,57.1838379 L19.2736515,57.1838379 L19.2736515,59.5458984 L16.3084744,59.5458984 L16.3084744,57.1838379 Z M10.3781201,59.5458984 L13.3432972,59.5458984 L13.3432972,61.9354248 L10.3781201,61.9354248 L10.3781201,59.5458984 Z M17.791063,59.5458984 L20.7562401,59.5458984 L20.7562401,61.9354248 L17.791063,61.9354248 L17.791063,59.5458984 Z M8.89553148,61.9354248 L11.8607086,61.9354248 L11.8607086,64.3249512 L8.89553148,64.3249512 L8.89553148,61.9354248 Z M19.2736515,61.9354248 L22.2388287,61.9354248 L22.2388287,64.3249512 L19.2736515,64.3249512 L19.2736515,61.9354248 Z M7.4129429,64.352417 L10.3781201,64.352417 L10.3781201,66.7419434 L7.4129429,66.7419434 L7.4129429,64.352417 Z M20.7562401,64.352417 L23.7214173,64.352417 L23.7214173,66.7419434 L20.7562401,66.7419434 L20.7562401,64.352417 Z M4.44776574,66.7419434 L8.89553148,66.7419434 L8.89553148,69.1314697 L4.44776574,69.1314697 L4.44776574,66.7419434 Z M22.2388287,66.7419434 L26.6865944,66.7419434 L26.6865944,69.1314697 L22.2388287,69.1314697 L22.2388287,66.7419434 Z M25.2040059,64.352417 L28.169183,64.352417 L28.169183,66.7419434 L25.2040059,66.7419434 L25.2040059,64.352417 Z M26.6865944,61.9628906 L29.6517716,61.9628906 L29.6517716,64.352417 L26.6865944,64.352417 L26.6865944,61.9628906 Z M28.169183,59.5733643 L31.1343602,59.5733643 L31.1343602,61.9628906 L28.169183,61.9628906 L28.169183,59.5733643 Z M2.96517716,64.352417 L5.93035432,64.352417 L5.93035432,66.7419434 L2.96517716,66.7419434 L2.96517716,64.352417 Z M1.48258858,61.9628906 L4.44776574,61.9628906 L4.44776574,64.352417 L1.48258858,64.352417 L1.48258858,61.9628906 Z M0,59.6008301 L2.96517716,59.6008301 L2.96517716,61.9903564 L0,61.9903564 L0,59.6008301 Z M5.93035432,69.1589355 L7.4129429,69.1589355 L7.4129429,71.5209961 L5.93035432,71.5209961 L5.93035432,69.1589355 Z M23.7214173,69.1589355 L25.2040059,69.1589355 L25.2040059,71.5209961 L23.7214173,71.5209961 L23.7214173,69.1589355 Z M14.8258858,62.0178223 L16.3084744,62.0178223 L16.3084744,64.3798828 L14.8258858,64.3798828 L14.8258858,62.0178223 Z M10.3781201,69.1589355 L11.8607086,69.1589355 L11.8607086,71.5209961 L10.3781201,71.5209961 L10.3781201,69.1589355 Z M19.2736515,69.1589355 L20.7562401,69.1589355 L20.7562401,71.5209961 L19.2736515,71.5209961 L19.2736515,69.1589355 Z M14.8258858,69.1589355 L16.3084744,69.1589355 L16.3084744,71.5209961 L14.8258858,71.5209961 L14.8258858,69.1589355 Z M0,69.1589355 L1.48258858,69.1589355 L1.48258858,71.5209961 L0,71.5209961 L0,69.1589355 Z M29.6517716,69.1589355 L31.1343602,69.1589355 L31.1343602,71.5209961 L29.6517716,71.5209961 L29.6517716,69.1589355 Z M14.8258858,35.760498 L16.3084744,35.760498 L16.3084744,38.1225586 L14.8258858,38.1225586 L14.8258858,35.760498 Z M7.4129429,11.920166 L8.89553148,11.920166 L8.89553148,14.3096924 L7.4129429,14.3096924 L7.4129429,11.920166 Z M22.2388287,11.920166 L23.7214173,11.920166 L23.7214173,14.3096924 L22.2388287,14.3096924 L22.2388287,11.920166 Z M13.3432972,28.5919189 L17.791063,28.5919189 L17.791063,30.9814453 L13.3432972,30.9814453 L13.3432972,28.5919189 Z M10.3781201,30.9814453 L14.8258858,30.9814453 L14.8258858,33.3709717 L10.3781201,33.3709717 L10.3781201,30.9814453 Z M11.8607086,33.3709717 L13.3432972,33.3709717 L13.3432972,35.760498 L11.8607086,35.760498 L11.8607086,33.3709717 Z M8.89553148,28.5919189 L11.8607086,28.5919189 L11.8607086,30.9814453 L8.89553148,30.9814453 L8.89553148,28.5919189 Z M10.3781201,26.2298584 L14.8258858,26.2298584 L14.8258858,28.5919189 L10.3781201,28.5919189 L10.3781201,26.2298584 Z M11.8607086,23.840332 L13.3432972,23.840332 L13.3432972,26.2298584 L11.8607086,26.2298584 L11.8607086,23.840332 Z M16.3084744,26.2298584 L20.7562401,26.2298584 L20.7562401,28.5919189 L16.3084744,28.5919189 L16.3084744,26.2298584 Z M17.791063,23.840332 L19.2736515,23.840332 L19.2736515,26.2298584 L17.791063,26.2298584 L17.791063,23.840332 Z M19.2736515,28.5919189 L22.2388287,28.5919189 L22.2388287,30.9814453 L19.2736515,30.9814453 L19.2736515,28.5919189 Z M16.3084744,30.9814453 L20.7562401,30.9814453 L20.7562401,33.3709717 L16.3084744,33.3709717 L16.3084744,30.9814453 Z M17.791063,33.3709717 L19.2736515,33.3709717 L19.2736515,35.760498 L17.791063,35.760498 L17.791063,33.3709717 Z M23.7214173,28.5919189 L26.6865944,28.5919189 L26.6865944,30.9814453 L23.7214173,30.9814453 L23.7214173,28.5919189 Z M25.2040059,26.2298584 L29.6517716,26.2298584 L29.6517716,28.5919189 L25.2040059,28.5919189 L25.2040059,26.2298584 Z M28.169183,28.5919189 L31.1343602,28.5919189 L31.1343602,30.9814453 L28.169183,30.9814453 L28.169183,28.5919189 Z M25.2040059,30.9814453 L29.6517716,30.9814453 L29.6517716,33.3709717 L25.2040059,33.3709717 L25.2040059,30.9814453 Z M26.6865944,33.3709717 L28.169183,33.3709717 L28.169183,35.760498 L26.6865944,35.760498 L26.6865944,33.3709717 Z M26.6865944,23.840332 L28.169183,23.840332 L28.169183,26.2298584 L26.6865944,26.2298584 L26.6865944,23.840332 Z M0,28.5644531 L2.96517716,28.5644531 L2.96517716,30.9539795 L0,30.9539795 L0,28.5644531 Z M1.48258858,26.2023926 L5.93035432,26.2023926 L5.93035432,28.5644531 L1.48258858,28.5644531 L1.48258858,26.2023926 Z M4.44776574,28.5644531 L7.4129429,28.5644531 L7.4129429,30.9539795 L4.44776574,30.9539795 L4.44776574,28.5644531 Z M1.48258858,30.9539795 L5.93035432,30.9539795 L5.93035432,33.3435059 L1.48258858,33.3435059 L1.48258858,30.9539795 Z"></path>
                        <path d="M2.96517716,33.3709717 L4.44776574,33.3709717 L4.44776574,35.760498 L2.96517716,35.760498 L2.96517716,33.3709717 Z M2.96517716,23.840332 L4.44776574,23.840332 L4.44776574,26.2298584 L2.96517716,26.2298584 L2.96517716,23.840332 Z M1.48258858,42.9016113 L7.4129429,42.9016113 L7.4129429,45.2911377 L1.48258858,45.2911377 L1.48258858,42.9016113 Z M8.89553148,42.9016113 L14.8258858,42.9016113 L14.8258858,45.2911377 L8.89553148,45.2911377 L8.89553148,42.9016113 Z M16.3084744,42.9016113 L22.2388287,42.9016113 L22.2388287,45.2911377 L16.3084744,45.2911377 L16.3084744,42.9016113 Z M23.7214173,42.9016113 L29.6517716,42.9016113 L29.6517716,45.2911377 L23.7214173,45.2911377 L23.7214173,42.9016113 Z M11.8607086,47.6806641 L19.2736515,47.6806641 L19.2736515,50.0427246 L11.8607086,50.0427246 L11.8607086,47.6806641 Z M1.48258858,47.6806641 L8.89553148,47.6806641 L8.89553148,50.0427246 L1.48258858,50.0427246 L1.48258858,47.6806641 Z M22.2388287,47.6806641 L29.6517716,47.6806641 L29.6517716,50.0427246 L22.2388287,50.0427246 L22.2388287,47.6806641 Z M29.6517716,57.2113037 L31.1343602,57.2113037 L31.1343602,59.5733643 L29.6517716,59.5733643 L29.6517716,57.2113037 Z M0,57.2113037 L1.48258858,57.2113037 L1.48258858,59.5733643 L0,59.5733643 L0,57.2113037 Z M1.48258858,138.235474 L2.96517716,138.235474 L2.96517716,135.873413 L1.48258858,135.873413 L1.48258858,138.235474 Z M5.93035432,138.235474 L10.3781201,138.235474 L10.3781201,135.873413 L5.93035432,135.873413 L5.93035432,138.235474 Z M7.4129429,140.625 L8.89553148,140.625 L8.89553148,138.235474 L7.4129429,138.235474 L7.4129429,140.625 Z M14.8258858,140.625 L16.3084744,140.625 L16.3084744,138.235474 L14.8258858,138.235474 L14.8258858,140.625 Z M20.7562401,138.235474 L25.2040059,138.235474 L25.2040059,135.845947 L20.7562401,135.845947 L20.7562401,138.235474 Z M22.2388287,140.625 L23.7214173,140.625 L23.7214173,138.235474 L22.2388287,138.235474 L22.2388287,140.625 Z M4.44776574,135.845947 L7.4129429,135.845947 L7.4129429,133.483887 L4.44776574,133.483887 L4.44776574,135.845947 Z M8.89553148,135.845947 L11.8607086,135.845947 L11.8607086,133.483887 L8.89553148,133.483887 L8.89553148,135.845947 Z M19.2736515,135.845947 L22.2388287,135.845947 L22.2388287,133.483887 L19.2736515,133.483887 L19.2736515,135.845947 Z M23.7214173,135.845947 L26.6865944,135.845947 L26.6865944,133.483887 L23.7214173,133.483887 L23.7214173,135.845947 Z M10.3781201,133.483887 L13.3432972,133.483887 L13.3432972,131.09436 L10.3781201,131.09436 L10.3781201,133.483887 Z M17.791063,133.483887 L20.7562401,133.483887 L20.7562401,131.09436 L17.791063,131.09436 L17.791063,133.483887 Z M25.2040059,133.483887 L28.169183,133.483887 L28.169183,131.09436 L25.2040059,131.09436 L25.2040059,133.483887 Z M28.169183,138.235474 L29.6517716,138.235474 L29.6517716,135.845947 L28.169183,135.845947 L28.169183,138.235474 Z M1.48258858,131.09436 L4.44776574,131.09436 L4.44776574,128.704834 L1.48258858,128.704834 L1.48258858,131.09436 Z M11.8607086,131.09436 L14.8258858,131.09436 L14.8258858,128.704834 L11.8607086,128.704834 L11.8607086,131.09436 Z M26.6865944,131.09436 L29.6517716,131.09436 L29.6517716,128.704834 L26.6865944,128.704834 L26.6865944,131.09436 Z M2.96517716,123.953247 L5.93035432,123.953247 L5.93035432,121.563721 L2.96517716,121.563721 L2.96517716,123.953247 Z M4.44776574,121.563721 L7.4129429,121.563721 L7.4129429,119.174194 L4.44776574,119.174194 L4.44776574,121.563721 Z M10.3781201,123.953247 L13.3432972,123.953247 L13.3432972,121.563721 L10.3781201,121.563721 L10.3781201,123.953247 Z M8.89553148,121.563721 L11.8607086,121.563721 L11.8607086,119.174194 L8.89553148,119.174194 L8.89553148,121.563721 Z M5.93035432,119.174194 L10.3781201,119.174194 L10.3781201,116.784668 L5.93035432,116.784668 L5.93035432,119.174194 Z M7.4129429,116.784668 L8.89553148,116.784668 L8.89553148,114.422607 L7.4129429,114.422607 L7.4129429,116.784668 Z M17.791063,123.925781 L20.7562401,123.925781 L20.7562401,121.563721 L17.791063,121.563721 L17.791063,123.925781 Z M19.2736515,121.563721 L22.2388287,121.563721 L22.2388287,119.174194 L19.2736515,119.174194 L19.2736515,121.563721 Z M25.2040059,123.953247 L28.169183,123.953247 L28.169183,121.563721 L25.2040059,121.563721 L25.2040059,123.953247 Z M23.7214173,121.563721 L26.6865944,121.563721 L26.6865944,119.174194 L23.7214173,119.174194 L23.7214173,121.563721 Z M20.7562401,119.174194 L25.2040059,119.174194 L25.2040059,116.784668 L20.7562401,116.784668 L20.7562401,119.174194 Z M22.2388287,116.784668 L23.7214173,116.784668 L23.7214173,114.422607 L22.2388287,114.422607 L22.2388287,116.784668 Z M14.8258858,119.20166 L16.3084744,119.20166 L16.3084744,116.812134 L14.8258858,116.812134 L14.8258858,119.20166 Z M0,119.20166 L1.48258858,119.20166 L1.48258858,116.812134 L0,116.812134 L0,119.20166 Z M29.6517716,119.20166 L31.1343602,119.20166 L31.1343602,116.812134 L29.6517716,116.812134 L29.6517716,119.20166 Z M7.4129429,107.281494 L8.89553148,107.281494 L8.89553148,104.891968 L7.4129429,104.891968 L7.4129429,107.281494 Z M5.93035432,104.864502 L10.3781201,104.864502 L10.3781201,102.502441 L5.93035432,102.502441 L5.93035432,104.864502 Z M4.44776574,102.502441 L11.8607086,102.502441 L11.8607086,100.112915 L4.44776574,100.112915 L4.44776574,102.502441 Z M22.2388287,107.254028 L23.7214173,107.254028 L23.7214173,104.864502 L22.2388287,104.864502 L22.2388287,107.254028 Z"></path>
                        <path d="M20.7562401,104.864502 L25.2040059,104.864502 L25.2040059,102.502441 L20.7562401,102.502441 L20.7562401,104.864502 Z M19.2736515,102.502441 L26.6865944,102.502441 L26.6865944,100.112915 L19.2736515,100.112915 L19.2736515,102.502441 Z M20.7562401,90.5822754 L28.169183,90.5822754 L28.169183,88.1652832 L20.7562401,88.1652832 L20.7562401,90.5822754 Z M17.791063,100.112915 L28.169183,100.112915 L28.169183,97.7233887 L17.791063,97.7233887 L17.791063,100.112915 Z M2.96517716,100.112915 L13.3432972,100.112915 L13.3432972,97.7233887 L2.96517716,97.7233887 L2.96517716,100.112915 Z M4.44776574,88.192749 L8.89553148,88.192749 L8.89553148,85.8032227 L4.44776574,85.8032227 L4.44776574,88.192749 Z M2.96517716,90.5822754 L10.3781201,90.5822754 L10.3781201,88.1652832 L2.96517716,88.1652832 L2.96517716,90.5822754 Z M23.7214173,95.3063965 L31.1343602,95.3063965 L31.1343602,92.9168701 L23.7214173,92.9168701 L23.7214173,95.3063965 Z M22.2388287,88.1652832 L26.6865944,88.1652832 L26.6865944,85.7757568 L22.2388287,85.7757568 L22.2388287,88.1652832 Z M0,95.3063965 L7.4129429,95.3063965 L7.4129429,92.9168701 L0,92.9168701 L0,95.3063965 Z M13.3432972,90.5548096 L17.791063,90.5548096 L17.791063,88.1652832 L13.3432972,88.1652832 L13.3432972,90.5548096 Z M14.8258858,88.1652832 L16.3084744,88.1652832 L16.3084744,85.7757568 L14.8258858,85.7757568 L14.8258858,88.1652832 Z M10.3781201,95.3063965 L20.7562401,95.3063965 L20.7562401,92.9168701 L10.3781201,92.9168701 L10.3781201,95.3063965 Z M16.3084744,131.066895 L19.2736515,131.066895 L19.2736515,128.677368 L16.3084744,128.677368 L16.3084744,131.066895 Z M13.3432972,128.677368 L17.791063,128.677368 L17.791063,126.342773 L13.3432972,126.342773 L13.3432972,128.677368 Z M11.8607086,126.287842 L14.8258858,126.287842 L14.8258858,123.898315 L11.8607086,123.898315 L11.8607086,126.287842 Z M16.3084744,126.287842 L19.2736515,126.287842 L19.2736515,123.898315 L16.3084744,123.898315 L16.3084744,126.287842 Z M0,128.704834 L2.96517716,128.704834 L2.96517716,126.342773 L0,126.342773 L0,128.704834 Z M1.48258858,126.315308 L4.44776574,126.315308 L4.44776574,123.953247 L1.48258858,123.953247 L1.48258858,126.315308 Z M28.169183,128.704834 L31.1343602,128.704834 L31.1343602,126.342773 L28.169183,126.342773 L28.169183,128.704834 Z M26.6865944,126.315308 L29.6517716,126.315308 L29.6517716,123.953247 L26.6865944,123.953247 L26.6865944,126.315308 Z M0,104.919434 L1.48258858,104.919434 L1.48258858,102.529907 L0,102.529907 L0,104.919434 Z M29.6517716,104.919434 L31.1343602,104.919434 L31.1343602,102.529907 L29.6517716,102.529907 L29.6517716,104.919434 Z M11.8607086,83.4411621 L14.8258858,83.4411621 L14.8258858,81.0791016 L11.8607086,81.0791016 L11.8607086,83.4411621 Z M16.3084744,83.4411621 L19.2736515,83.4411621 L19.2736515,81.0791016 L16.3084744,81.0791016 L16.3084744,83.4411621 Z M10.3781201,81.0791016 L13.3432972,81.0791016 L13.3432972,78.6895752 L10.3781201,78.6895752 L10.3781201,81.0791016 Z M17.791063,81.0791016 L20.7562401,81.0791016 L20.7562401,78.6895752 L17.791063,78.6895752 L17.791063,81.0791016 Z M8.89553148,78.6895752 L11.8607086,78.6895752 L11.8607086,76.3000488 L8.89553148,76.3000488 L8.89553148,78.6895752 Z M19.2736515,78.6895752 L22.2388287,78.6895752 L22.2388287,76.3000488 L19.2736515,76.3000488 L19.2736515,78.6895752 Z M7.4129429,76.272583 L10.3781201,76.272583 L10.3781201,73.8830566 L7.4129429,73.8830566 L7.4129429,76.272583 Z M20.7562401,76.272583 L23.7214173,76.272583 L23.7214173,73.8830566 L20.7562401,73.8830566 L20.7562401,76.272583 Z M4.44776574,73.8830566 L8.89553148,73.8830566 L8.89553148,71.4935303 L4.44776574,71.4935303 L4.44776574,73.8830566 Z M22.2388287,73.8830566 L26.6865944,73.8830566 L26.6865944,71.4935303 L22.2388287,71.4935303 L22.2388287,73.8830566 Z M25.2040059,76.272583 L28.169183,76.272583 L28.169183,73.8830566 L25.2040059,73.8830566 L25.2040059,76.272583 Z M26.6865944,78.6621094 L29.6517716,78.6621094 L29.6517716,76.272583 L26.6865944,76.272583 L26.6865944,78.6621094 Z M28.169183,81.0516357 L31.1343602,81.0516357 L31.1343602,78.6621094 L28.169183,78.6621094 L28.169183,81.0516357 Z M2.96517716,76.272583 L5.93035432,76.272583 L5.93035432,73.8830566 L2.96517716,73.8830566 L2.96517716,76.272583 Z M1.48258858,78.6621094 L4.44776574,78.6621094 L4.44776574,76.272583 L1.48258858,76.272583 L1.48258858,78.6621094 Z M0,81.0241699 L2.96517716,81.0241699 L2.96517716,78.6346436 L0,78.6346436 L0,81.0241699 Z M5.93035432,71.4660645 L7.4129429,71.4660645 L7.4129429,69.1040039 L5.93035432,69.1040039 L5.93035432,71.4660645 Z M14.8258858,78.6071777 L16.3084744,78.6071777 L16.3084744,76.2451172 L14.8258858,76.2451172 L14.8258858,78.6071777 Z M14.8258858,104.837036 L16.3084744,104.837036 L16.3084744,102.474976 L14.8258858,102.474976 L14.8258858,104.837036 Z M7.4129429,128.677368 L8.89553148,128.677368 L8.89553148,126.342773 L7.4129429,126.342773 L7.4129429,128.677368 Z M22.2388287,128.677368 L23.7214173,128.677368 L23.7214173,126.342773 L22.2388287,126.342773 L22.2388287,128.677368 Z M13.3432972,112.060547 L17.791063,112.060547 L17.791063,109.671021 L13.3432972,109.671021 L13.3432972,112.060547 Z M10.3781201,109.671021 L14.8258858,109.671021 L14.8258858,107.281494 L10.3781201,107.281494 L10.3781201,109.671021 Z M11.8607086,107.281494 L13.3432972,107.281494 L13.3432972,104.891968 L11.8607086,104.891968 L11.8607086,107.281494 Z M8.89553148,112.060547 L11.8607086,112.060547 L11.8607086,109.671021 L8.89553148,109.671021 L8.89553148,112.060547 Z M10.3781201,114.395142 L14.8258858,114.395142 L14.8258858,112.060547 L10.3781201,112.060547 L10.3781201,114.395142 Z M11.8607086,116.784668 L13.3432972,116.784668 L13.3432972,114.422607 L11.8607086,114.422607 L11.8607086,116.784668 Z M16.3084744,114.395142 L20.7562401,114.395142 L20.7562401,112.060547 L16.3084744,112.060547 L16.3084744,114.395142 Z M17.791063,116.784668 L19.2736515,116.784668 L19.2736515,114.422607 L17.791063,114.422607 L17.791063,116.784668 Z M19.2736515,112.033081 L22.2388287,112.033081 L22.2388287,109.643555 L19.2736515,109.643555 L19.2736515,112.033081 Z M16.3084744,109.643555 L20.7562401,109.643555 L20.7562401,107.254028 L16.3084744,107.254028 L16.3084744,109.643555 Z M17.791063,107.254028 L19.2736515,107.254028 L19.2736515,104.864502 L17.791063,104.864502 L17.791063,107.254028 Z M23.7214173,112.060547 L26.6865944,112.060547 L26.6865944,109.671021 L23.7214173,109.671021 L23.7214173,112.060547 Z M25.2040059,114.395142 L29.6517716,114.395142 L29.6517716,112.060547 L25.2040059,112.060547 L25.2040059,114.395142 Z M28.169183,112.033081 L31.1343602,112.033081 L31.1343602,109.643555 L28.169183,109.643555 L28.169183,112.033081 Z M25.2040059,109.643555 L29.6517716,109.643555 L29.6517716,107.254028 L25.2040059,107.254028 L25.2040059,109.643555 Z M26.6865944,107.254028 L28.169183,107.254028 L28.169183,104.864502 L26.6865944,104.864502 L26.6865944,107.254028 Z M26.6865944,116.784668 L28.169183,116.784668 L28.169183,114.422607 L26.6865944,114.422607 L26.6865944,116.784668 Z M0,112.060547 L2.96517716,112.060547 L2.96517716,109.671021 L0,109.671021 L0,112.060547 Z M1.48258858,114.395142 L5.93035432,114.395142 L5.93035432,112.060547 L1.48258858,112.060547 L1.48258858,114.395142 Z"></path>
                        <path d="M4.44776574,112.033081 L7.4129429,112.033081 L7.4129429,109.643555 L4.44776574,109.643555 L4.44776574,112.033081 Z M1.48258858,109.643555 L5.93035432,109.643555 L5.93035432,107.254028 L1.48258858,107.254028 L1.48258858,109.643555 Z M2.96517716,107.254028 L4.44776574,107.254028 L4.44776574,104.864502 L2.96517716,104.864502 L2.96517716,107.254028 Z M2.96517716,116.784668 L4.44776574,116.784668 L4.44776574,114.422607 L2.96517716,114.422607 L2.96517716,116.784668 Z M1.48258858,97.7233887 L7.4129429,97.7233887 L7.4129429,95.3338623 L1.48258858,95.3338623 L1.48258858,97.7233887 Z M8.89553148,97.7233887 L14.8258858,97.7233887 L14.8258858,95.3338623 L8.89553148,95.3338623 L8.89553148,97.7233887 Z M16.3084744,97.7233887 L22.2388287,97.7233887 L22.2388287,95.3338623 L16.3084744,95.3338623 L16.3084744,97.7233887 Z M23.7214173,97.7233887 L29.6517716,97.7233887 L29.6517716,95.3338623 L23.7214173,95.3338623 L23.7214173,97.7233887 Z M11.8607086,92.9443359 L19.2736515,92.9443359 L19.2736515,90.5822754 L11.8607086,90.5822754 L11.8607086,92.9443359 Z M1.48258858,92.9443359 L8.89553148,92.9443359 L8.89553148,90.5822754 L1.48258858,90.5822754 L1.48258858,92.9443359 Z M22.2388287,92.9443359 L29.6517716,92.9443359 L29.6517716,90.5822754 L22.2388287,90.5822754 L22.2388287,92.9443359 Z M29.6517716,83.4411621 L31.1343602,83.4411621 L31.1343602,81.0241699 L29.6517716,81.0241699 L29.6517716,83.4411621 Z M0,83.4411621 L1.48258858,83.4411621 L1.48258858,81.0241699 L0,81.0241699 L0,83.4411621 Z M13.3432972,71.4935303 L14.8258858,71.4935303 L14.8258858,73.8830566 L13.3432972,73.8830566 L13.3432972,71.4935303 Z M16.3084744,71.4935303 L17.791063,71.4935303 L17.791063,73.8830566 L16.3084744,73.8830566 L16.3084744,71.4935303 Z M16.3084744,66.7419434 L17.791063,66.7419434 L17.791063,69.1314697 L16.3084744,69.1314697 L16.3084744,66.7419434 Z M13.3432972,66.7419434 L14.8258858,66.7419434 L14.8258858,69.1314697 L13.3432972,69.1314697 L13.3432972,66.7419434 Z M2.96517716,131.09436 L5.93035432,131.09436 L5.93035432,133.483887 L2.96517716,133.483887 L2.96517716,131.09436 Z M23.7214173,85.8032227 L25.2040059,85.8032227 L25.2040059,83.4136963 L23.7214173,83.4136963 L23.7214173,85.8032227 Z M5.93035432,85.8032227 L7.4129429,85.8032227 L7.4129429,83.4136963 L5.93035432,83.4136963 L5.93035432,85.8032227 Z M13.3432972,83.4136963 L17.791063,83.4136963 L17.791063,85.8032227 L13.3432972,85.8032227 L13.3432972,83.4136963 Z"></path>
                    </g>
                </g>
            </g>
        </g>
    </g>
</svg>