<?xml version="1.0" encoding="UTF-8"?>
<svg width="200px" height="150px" viewBox="0 0 200 150" version="1.1" xmlns="http://www.w3.org/2000/svg" xmlns:xlink="http://www.w3.org/1999/xlink">
    <!-- Generator: Sketch 52.5 (67469) - http://www.bohemiancoding.com/sketch -->
    <title>bm</title>
    <desc>Created with Sketch.</desc>
    <g id="Flags" stroke="none" stroke-width="1" fill="none" fill-rule="evenodd">
        <g id="North-America" transform="translate(-950.000000, -50.000000)">
            <g id="bm" transform="translate(950.000000, 50.000000)">
                <polygon id="Path" fill="#CF142B" points="0 0 200 0 200 150 0 150"></polygon>
                <polygon id="Path" fill="#00247D" points="0 0 100 0 100 50 0 50"></polygon>
                <path d="M0,0 L0,5.59375 L88.8125,50 L100,50 L100,44.40625 L11.1875,0 L0,0 Z M100,0 L100,5.59375 L11.1875,50 L0,50 L0,44.40625 L88.8125,0 L100,0 Z" id="Shape" fill="#FFFFFF" fill-rule="nonzero"></path>
                <path d="M41.65625,0 L41.65625,50 L58.34375,50 L58.34375,0 L41.65625,0 Z M0,16.65625 L0,33.34375 L100,33.34375 L100,16.65625 L0,16.65625 Z" id="Shape" fill="#FFFFFF" fill-rule="nonzero"></path>
                <path d="M0,20 L0,30 L100,30 L100,20 L0,20 Z M45,0 L45,50 L55,50 L55,0 L45,0 Z M0,50 L33.34375,33.34375 L40.78125,33.34375 L7.4375,50 L0,50 Z M0,0 L33.34375,16.65625 L25.875,16.65625 L0,3.75 L0,0 Z M59.21875,16.65625 L92.5,0 L100,0 L66.65625,16.65625 L59.21875,16.65625 Z M100,50 L66.65625,33.34375 L74.125,33.34375 L100,46.25 L100,50 Z" id="Shape" fill="#CF142B" fill-rule="nonzero"></path>
                <path d="M173.0625,46.34375 L173.0625,88.6875 C173.0625,100 150.46875,103.6875 150.46875,103.6875 C150.46875,103.6875 127.8125,100 127.8125,88.65625 L127.8125,46.34375 L173.03125,46.34375 L173.0625,46.34375 Z" id="Path" fill="#FFFFFF"></path>
                <path d="M173.0625,88.6875 C173.0625,100 150.46875,103.6875 150.46875,103.6875 C150.46875,103.6875 127.8125,100 127.8125,88.65625 C127.8125,88.65625 127.8125,87.71875 128.28125,87.21875 C128.28125,87.21875 128.03125,89.09375 129.46875,90.53125 C129.46875,90.53125 128.34375,88.5 129.46875,86.53125 C129.46875,86.53125 129.03125,89.09375 130.625,90.53125 C130.625,90.53125 129.75,88.46875 130.71875,86.15625 C130.71875,86.15625 130.25,89.90625 131.96875,90.6875 C131.96875,90.6875 132.4375,88.5 131.75,87.125 C131.75,87.125 132.9375,87.59375 132.875,90.75 C132.875,90.75 133.25,90.28125 133.34375,88 C133.34375,88 133.40625,90.625 134.28125,91.21875 C134.28125,91.21875 134.59375,90.9375 134.1875,89.78125 C133.78125,88.625 134.34375,88.1875 134.4375,88.21875 C134.4375,88.21875 134.25,89.5 135.34375,90.5 C135.34375,90.5 134.875,88.4375 135.53125,88.15625 C135.53125,88.15625 135.375,89.90625 136.78125,90.28125 C136.78125,90.28125 136.875,89.78125 136.5625,89.21875 C136.5625,89.21875 136.3125,88.5625 136.5,88.03125 C136.5,88.03125 136.9375,89.59375 137.53125,89.875 C137.53125,89.875 137.1875,88.9375 137.53125,88.03125 C137.53125,88.03125 137.59375,89.34375 138.78125,89.90625 C138.78125,89.90625 138,88.875 138.28125,87.75 L145.8125,88.125 L149.71875,88.3125 L161.4375,87.5 L163.4375,85.75 C163.4375,85.75 164.25,86.84375 162.96875,88.59375 C162.96875,88.59375 164.21875,88.375 164.625,86.40625 C164.625,86.40625 165.125,87.5 164.4375,88.71875 C164.4375,88.71875 165.8125,87.3125 166,85.75 C166,85.75 166.5625,87.28125 165.25,88.90625 C165.25,88.90625 166.40625,88.5 166.90625,86.78125 C166.90625,86.78125 167.3125,87.8125 166.1875,89.28125 C166.1875,89.28125 168.3125,88.1875 168.25,85.84375 C168.25,85.84375 169.125,87.125 168.125,88.90625 C168.125,88.90625 169.1875,87.9375 169.3125,86.46875 C169.3125,86.46875 169.90625,87.125 169.25,88.9375 C169.25,88.9375 170.5625,87.6875 170.78125,86.34375 C170.78125,86.34375 171.0625,87.59375 169.9375,89.15625 C169.9375,89.15625 170.6875,88.96875 171.4375,87.4375 C171.4375,87.4375 171.625,88.0625 170.96875,89.15625 C170.96875,89.15625 171.6875,89.03125 172.15625,87.625 C172.15625,87.625 172.25,88.46875 172.03125,89.1875 C172.03125,89.1875 172.59375,88.84375 172.71875,87.28125 C172.71875,87.28125 173.03125,87.78125 173.03125,88.4375 L173.03125,88.65625 L173.0625,88.6875 Z" id="Path" fill="#2F8F22"></path>
                <path d="M161.4375,64.1875 C161.4375,64.1875 160.65625,64.34375 159.625,64.03125 C158.625,63.71875 158.21875,63.84375 157.90625,64.03125 C157.90625,64.03125 158.3125,63.21875 157.3125,62.5625 C157.3125,62.5625 157.625,63.40625 157.1875,63.78125 C157.1875,63.78125 157,63.96875 156.75,63.6875 C156.75,63.6875 156.40625,63.3125 156.03125,63.0625 C156.03125,63.0625 156.875,62.75 156.71875,61.875 C156.5625,61.03125 156.09375,60.9375 155.875,60.8125 C155.832908,61.0187073 155.832908,61.2312927 155.875,61.4375 C155.875,61.4375 154.9375,60.9375 156.1875,60.21875 C157.4375,59.5 157.21875,59.0625 157,58.6875 C156.751297,58.317125 156.432875,57.9987034 156.0625,57.75 C156.0625,57.75 156.3125,58.15625 156.25,58.5 C156.21875,58.8125 155.625,59.03125 155.75,58.46875 C155.875,57.84375 155.75,57.96875 155.75,57.34375 C155.75,57.34375 156.84375,57.71875 157.3125,56.625 C157.3125,56.625 157.71875,55.5 156.3125,54.9375 C156.3125,54.9375 156.65625,55.40625 156.5,55.75 C156.5,55.75 156.1875,56.3125 155.84375,55.875 C155.5,55.4375 155.25,55.3125 155.28125,54.78125 C155.28125,54.78125 156.5625,54.96875 156.21875,53.5625 C156.21875,53.5625 156,54.5 154.34375,53.25 C154.34375,53.25 155.4375,52.125 155,51.25 C155,51.25 154.875,50.84375 153.71875,51.0625 C153.71875,51.0625 154.71875,50.4375 154.3125,49.875 C154.3125,49.875 154.09375,49.53125 153.125,50 C153.125,50 153.5,49.375 152.5625,48.6875 C152.5625,48.6875 151.9375,49 151.625,49.3125 C151.625,49.3125 151,48.5 150.59375,48.1875 C150.59375,48.1875 149.84375,48.46875 149.65625,49.3125 C149.65625,49.3125 149.3125,48.90625 148.53125,48.6875 C148.53125,48.6875 148.15625,49.40625 148.65625,50 C148.65625,50 148.28125,50 147.625,49.6875 C147.625,49.6875 146.875,49.375 147,50 C147.09375,50.625 147.15625,50.78125 147.3125,51.09375 C147.3125,51.09375 145.625,50.6875 145.6875,51.625 C145.725303,52.2548285 146.018819,52.8418608 146.5,53.25 C146.5,53.25 145.5625,54.5 144.75,53.5625 C144.75,53.5625 144.4375,53.875 145.0625,54.65625 C145.0625,54.65625 145.6875,55.3125 145.15625,55.75 C145.15625,55.75 144.5,56.28125 144.1875,55.25 C144.1875,55.25 143.09375,56.3125 144.375,57.125 C144.375,57.125 145.1875,57.59375 146.03125,56.875 C146.03125,56.875 145.75,58.9375 144.96875,58.53125 C144.96875,58.53125 144.5,58.21875 145.34375,57.78125 C145.34375,57.78125 144.09375,57.625 143.90625,58.8125 C143.90625,58.8125 143.75,59.75 144.84375,60.125 C144.84375,60.125 145.65625,60.4375 144.8125,61.0625 C144.8125,61.0625 144.1875,61.53125 144.59375,62.21875 C144.59375,62.21875 145.0625,62.96875 143.84375,63.0625 C143.84375,63.0625 143.21875,63.0625 142.96875,62.96875 C142.96875,62.96875 142.6875,63.46875 142.875,64.03125 C142.875,64.03125 142.25,63.5625 140.90625,64.0625 C139.53125,64.5625 139.625,64.21875 139.53125,64.375 L139.125,65 C139.125,65 139.84375,65.9375 139.875,65.875 L139.71875,66.90625 L140.09375,67.0625 L142.90625,65.8125 L145.8125,64.3125 L148.125,64.4375 L149.59375,64.78125 L151.5,64.9375 L152.90625,64.1875 L154.90625,64.1875 L157.09375,65.28125 L159.59375,66.78125 L160.90625,67.03125 L161.90625,66.96875 L161.90625,64.9375 L161.4375,64.1875 Z" id="Path" stroke="#000000" stroke-width="0.5" fill="#D40000" stroke-linejoin="round"></path>
                <path d="M138.59375,66.5625 C138.59375,66.5625 139.6875,67.125 140.15625,66.46875 C140.15625,66.46875 140.75,65.3125 139.4375,64.90625 C139.4375,64.90625 140.15625,64.0625 139.375,63.28125 C139.375,63.28125 138.96875,62.84375 138.28125,63.15625 C138.28125,63.15625 137.96875,62.53125 137.3125,62.5625 C137.3125,62.5625 136.6875,62.5625 136.5,63.21875 C136.5,63.21875 135.6875,62.90625 135.25,63.375 C135.25,63.375 134.46875,64.21875 135.53125,64.90625 L136.28125,64.96875 L137.03125,64.625 L137.875,64.84375 C137.875,64.84375 137.65625,65.6875 138.59375,66.5625 Z" id="Path" stroke="#000000" stroke-width="0.5" fill="#D40000" stroke-linejoin="round"></path>
                <path d="M163.0625,64.5625 C163.82018,64.464456 164.55389,64.8692617 164.875,65.5625 C165.5625,67.1875 164.09375,68.0625 164.09375,68.0625 C164.1875,68.40625 164.21875,68.90625 164.21875,68.90625 C166.28125,69.15625 165.90625,71.46875 165.90625,71.46875 L165.21875,70.90625 C164.03125,70.4375 162.78125,71.46875 161.90625,73.15625 C161.03125,74.875 161.4375,75.65625 161.59375,77.6875 C161.75,79.71875 165.03125,80.9375 165.03125,80.9375 L162.46875,87.5 C161.46875,90.09375 159.34375,89.03125 158.71875,88.46875 C158.125,87.9375 157.96875,88.25 157.6875,88.46875 C157.375,88.71875 159.0625,90.03125 155.96875,91.28125 C152.90625,92.53125 152.375,93.46875 151.84375,93.78125 C151.34375,94.09375 149.21875,93.90625 149.03125,93.625 C148.78125,93.375 148.90625,93.375 148.09375,92.875 C147.3125,92.40625 145.96875,91.9375 144.5,91.25 C143.03125,90.53125 143.0625,89.625 143.09375,89.4375 C143.09375,89.25 143.59375,87.71875 141.875,88.9375 C140.15625,90.15625 138.6875,88.34375 138.6875,88.34375 C138.375,87.90625 136.90625,84.0625 136.90625,84.0625 C136.603202,82.9963168 136.227319,81.9521955 135.78125,80.9375 C135.78125,80.9375 135.6875,81.125 136.96875,80.40625 C138.21875,79.6875 138.8125,78.46875 139.25,77.28125 C139.6875,76.0625 139.25,74 139.09375,73.59375 C138.9375,73.1875 138,71.28125 136.8125,70.875 C135.65625,70.46875 134.84375,71.5 134.84375,71.5 C134.84375,71.5 134.5,69.15625 136.5625,68.90625 C136.5625,68.90625 136.5625,68.40625 136.6875,68.0625 C136.6875,68.0625 135.21875,67.1875 135.90625,65.5625 C135.90625,65.5625 136.375,64.4375 137.6875,64.5625 L137.375,65.1875 C137.375,65.1875 137.0625,68.5 141.90625,66.28125 C146.75,64.03125 146.59375,63.625 149.40625,65.03125 L151.40625,65 C151.40625,65 154.3125,63.625 155.25,64.21875 C156.1875,64.8125 159.53125,66.6875 159.53125,66.6875 C159.53125,66.6875 162.78125,67.90625 163.4375,65.65625 L163.0625,64.5625 Z" id="Path" stroke="#000000" stroke-width="0.4" fill="#64B4D1"></path>
                <path d="M148.4375,78.96875 C148.4375,78.96875 148.28125,77.9375 148.125,77.28125 C148.125,77.28125 147.75,76.25 148.375,75.5 L149.125,74.625 C149.125,74.625 149.59375,74 150.1875,73.90625 C150.1875,73.90625 150.78125,73.90625 150.8125,73.78125 C150.875,73.65625 151.53125,72.59375 153.0625,73.78125 C153.0625,73.78125 153.53125,73 154.3125,72.84375 C154.3125,72.84375 155.09375,72.625 155.5,73.21875 C155.5,73.21875 156.40625,72.53125 157.1875,73.65625 C157.1875,73.65625 158.25,73.03125 159.0625,74.25 C159.0625,74.25 160.09375,73.71875 160.75,74.8125 C161.40625,75.9375 161.28125,76.375 161.28125,76.375 L161.78125,78.15625 L163.5,80.28125 L159.5,81.78125 L157.6875,81.78125 L154.09375,82.71875 L147.71875,83.21875 L145.96875,81.125 L148.46875,78.9375 L148.4375,78.96875 Z" id="Path" stroke="#00247D" stroke-width="0.5" fill="#FFFFFF"></path>
                <path d="M143.0625,89.5625 C143.0625,89.5625 142.125,89.59375 141.625,89.875 C141.15625,90.09375 140.78125,90.34375 140.21875,90.71875 C140.21875,90.71875 139.9375,91.0625 138.84375,90.84375 C138.84375,90.84375 136.96875,90.40625 136.96875,91.875 C136.96875,91.875 134.65625,92.0625 135.59375,94.0625 C135.59375,94.0625 136.21875,95.625 137.53125,94.53125 C137.53125,94.53125 136.6875,95.71875 138.3125,96.1875 C138.3125,96.1875 139.46875,96.5 139.8125,95.28125 C139.8125,95.28125 140,94.8125 139.5625,94.25 C139.5625,94.25 140.125,94.125 140.5,93.53125 C140.5,93.53125 139.3125,95.03125 140.625,95.59375 C140.625,95.59375 142.28125,96 142.375,94.28125 C142.375,94.28125 142.21875,93.46875 142.875,93.1875 C142.875,93.1875 144.1875,92.875 144.75,91.4375 C144.75,91.4375 142.875,90.4375 143.0625,89.5625 Z M139.21875,74.5 C139.21875,74.5 137.75,73.84375 137.03125,74.5 C137.03125,74.5 136.09375,73.90625 135.0625,74.5 C135.0625,74.5 134.09375,75.125 133.40625,75.84375 C133.40625,75.84375 132.9375,76.25 133.09375,77.53125 C133.09375,77.53125 133.375,78.4375 133.21875,78.875 C133.21875,78.875 132.90625,78.8125 132.25,79.59375 C132.25,79.59375 131.4375,80.53125 130.6875,79.6875 C130.6875,79.6875 130.9375,80.875 132.28125,80.6875 C132.28125,80.6875 131.625,81.1875 132.1875,82.53125 C132.1875,82.53125 132.625,83.46875 131.9375,84.65625 C131.9375,84.65625 133.125,84.1875 133.09375,82.78125 C133.09375,82.78125 132.96875,81.84375 133.34375,81.1875 C133.34375,81.1875 132.96875,81.78125 133.78125,83.0625 C133.78125,83.0625 134.40625,84 133.90625,84.9375 C133.90625,84.9375 135.0625,84.53125 134.96875,83.125 C134.84375,81.6875 134.15625,82.28125 134.59375,80.96875 C134.59375,80.96875 134.71875,81.65625 135.0625,82 C135.598568,82.4498008 135.839547,83.1606898 135.6875,83.84375 C135.6875,83.84375 136.375,82.96875 136.21875,82.0625 C136.173215,81.6598346 136.05684,81.2683922 135.875,80.90625 L138.0625,79.65625 L139.1875,77.6875 L139.21875,74.5 Z" id="Shape" stroke="#000000" stroke-width="0.5" fill="#D40000" fill-rule="nonzero" stroke-linejoin="round"></path>
                <path d="M135.875,80.125 C135.875,80.125 134.9375,80.0625 134.8125,79.34375 M133.21875,78.875 C133.21875,78.875 133.53125,78.875 133.84375,79.1875 C133.84375,79.1875 134.03125,79.5 134.34375,79.4375" id="Shape" stroke="#000000" stroke-width="0.5"></path>
                <path d="M137.21875,77.4375 C137.21875,77.4375 136.75,77.4375 136.46875,77.21875 C136.46875,77.21875 136.21875,77.03125 136.0625,77.3125 C136.0625,77.3125 135.8125,77.75 136.25,77.9375 C136.25,77.9375 136.84375,78.25 135.9375,78.8125 C135.9375,78.8125 137,78.40625 136.5625,77.875 C136.5625,77.875 136.09375,77.5625 136.25,77.4375 C136.25,77.4375 136.3125,77.3125 136.5,77.4375 C136.6875,77.59375 137.0625,77.53125 137.21875,77.4375 Z" id="Path" fill="#000000"></path>
                <polygon id="Path" stroke="#000000" stroke-width="0.4" fill="#784421" points="151.53125 80 152.09375 79.84375 148.4375 67.25 148.3125 67.28125"></polygon>
                <path d="M139.375,93.96875 C139.375,93.96875 138.53125,93.46875 137.8125,94.03125 C137.8125,94.03125 137.90625,93.71875 138.4375,93.59375 C138.4375,93.59375 138.75,92.75 139.5625,92.84375 C139.5625,92.84375 139.21875,93.25 138.78125,93.5625 C138.78125,93.5625 139.25,93.625 139.40625,93.96875 L139.375,93.96875 Z" id="Path" fill="#000000"></path>
                <path d="M136.375,95.9375 C136.375,95.9375 135,95.09375 135.75,93.65625 C135.75,93.65625 135.96875,93.25 136.375,93.34375 C136.375,93.34375 137.21875,93.59375 136.5625,94.78125 C136.5625,94.78125 136.21875,95.53125 136.375,95.96875 L136.375,95.9375 Z M139.125,97.3125 C139.125,97.3125 137.1875,96.4375 137.78125,94.90625 C137.78125,94.90625 137.96875,94.40625 138.40625,94.4375 C138.40625,94.4375 139.15625,94.5 139,95.5 C139,95.5 138.78125,96.4375 139.125,97.3125 Z" id="Shape" stroke="#00247D" stroke-width="0.4" fill="#64B4D1" fill-rule="nonzero"></path>
                <path d="M138.71875,91.6875 C138.71875,91.6875 138.125,92.125 137.90625,92.40625 C137.90625,92.40625 137.65625,92.09375 137.34375,91.9375 C137.34375,91.9375 137.71875,91.875 137.90625,92.03125 C137.90625,92.03125 138.21875,91.75 138.71875,91.6875 Z" id="Path" fill="#000000"></path>
                <path d="M140.4375,96.9375 C140.4375,96.9375 142,96.5625 141.6875,94.96875 C141.6875,94.96875 141.53125,94.28125 140.90625,94.375 C140.90625,94.375 140.125,94.59375 140.625,95.59375 C140.625,95.59375 140.9375,96.28125 140.4375,96.9375 Z" id="Path" stroke="#00247D" stroke-width="0.4" fill="#64B4D1"></path>
                <path d="M147.34375,63.65625 L148.84375,64.15625 C148.84375,64.15625 150.25,64.78125 152.0625,64.15625 L153.4375,63.625 L152.5,65.0625 L152.5,65.8125 L153.0625,66.65625 C153.0625,66.65625 152.71875,66.8125 151.65625,66.15625 C151.65625,66.15625 150.5,65.25 149.125,66.15625 C149.125,66.15625 148.34375,66.65625 147.71875,66.65625 L148.625,65.65625 L148.28125,64.75 L147.34375,63.625 L147.34375,63.65625 Z" id="Path" stroke="#000000" stroke-width="0.5" fill="#F5CE00"></path>
                <path d="M141.03125,95.0625 C141.03125,95.0625 141.09375,94.96875 141.03125,94.9375 L140.90625,95 C140.90625,95 140.75,95.25 140.90625,95.625 C140.90625,95.625 141.03125,95.84375 140.96875,96.09375 L141,96.1875 C141,96.1875 141.0625,96.15625 141.0625,96.09375 C141.0625,96.09375 141.15625,95.875 141,95.625 C141,95.625 140.84375,95.25 141.03125,95.0625 Z" id="Path" fill="#FFFFFF"></path>
                <path d="M162.125,66.5625 C162.125,66.5625 161.03125,67.125 160.5625,66.46875 C160.5625,66.46875 160,65.3125 161.3125,64.90625 C161.3125,64.90625 160.59375,64.0625 161.34375,63.28125 C161.34375,63.28125 161.75,62.84375 162.4375,63.15625 C162.4375,63.15625 162.75,62.53125 163.40625,62.5625 C163.40625,62.5625 164.03125,62.5625 164.21875,63.21875 C164.21875,63.21875 165.0625,62.90625 165.5,63.375 C165.5,63.375 166.25,64.21875 165.1875,64.90625 L164.4375,64.96875 L163.6875,64.625 L162.875,64.84375 C162.875,64.84375 163.09375,65.6875 162.125,66.5625 Z" id="Path" stroke="#000000" stroke-width="0.5" fill="#D40000" stroke-linejoin="round"></path>
                <path d="M153.4375,65.6875 C153.4375,65.6875 153.4375,65.90625 153.21875,65.9375 C153.21875,65.9375 152.96875,66.03125 152.8125,65.71875 L152.8125,65.625 C152.8125,65.5 152.75,65.09375 153.1875,64.78125 C153.1875,64.78125 153.875,64.21875 155.1875,64.90625 C156.450204,65.6180126 157.743077,66.2748753 159.0625,66.875 C159.0625,66.875 159.875,67.28125 161.125,67.34375 C161.125,67.34375 162.84375,67.46875 163.5625,66.25 C163.5625,66.25 164.125,65.34375 163.5625,64.75 C163.5625,64.75 163.34375,64.5 162.96875,64.53125 C162.84375,64.5625 162.65625,64.625 162.5,64.84375 C162.5,64.84375 162.21875,65.21875 162.53125,65.5 C162.53125,65.5 162.9375,65.75 163.09375,65.21875 C163.09375,65.28125 163.21875,65.6875 163,66 C163,66 161.9375,67.5625 159.09375,65.96875 L155.34375,63.84375 C155.34375,63.84375 153.46875,62.875 152.3125,64.40625 C152.3125,64.40625 151.40625,65.65625 152.59375,66.46875 C152.59375,66.46875 153.46875,67 154,66.15625 C154,66.15625 154.46875,65.34375 153.75,65 C153.75,65 153.125,64.6875 152.875,65.3125 C152.625,65.9375 153.34375,66.125 153.40625,65.65625 C153.40625,65.65625 153.40625,65.5625 153.46875,65.65625 L153.4375,65.6875 Z" id="Path" stroke="#000000" stroke-width="0.5" fill="#F5CE00"></path>
                <path d="M138.53125,72.1875 L138.53125,69.8125 C138.53125,69.625 138.53125,69.5 138.84375,69.25 C139.09375,69.03125 139.40625,68.65625 139.8125,69.6875 C139.8125,69.6875 140.65625,68.78125 140.9375,68.65625 C140.9375,68.65625 141.4375,68.25 141.78125,68.84375 C141.78125,68.84375 142.21875,68.15625 142.5625,68 C142.5625,68 143.40625,67.46875 143.4375,69.09375 L144.09375,68.46875 C144.09375,68.46875 144.625,68.0625 145.1875,68.65625 C145.1875,68.65625 146.125,69.59375 146.25,69.84375 C146.25,69.84375 146.46875,70.125 146.5,70.5625 C146.5,70.5625 146.5,71.0625 146.75,71.34375 C146.75,71.34375 147.0625,71.625 147.34375,71.65625 C147.34375,71.65625 148,71.6875 148.28125,72.34375 C148.28125,72.34375 148.375,72.21875 148.71875,75.28125 L148.71875,80.90625 L144.9375,85.40625 L138.875,83.65625 L136.46875,82.65625 L135.90625,80.90625 L138.25,79.375 L139.5,75.9375 L139.125,73.53125 L138.53125,72.15625 L138.53125,72.1875 Z" id="Path" stroke="#000000" stroke-width="0.4" fill="#E4CB5E"></path>
                <path d="M155.21875,75.125 L155.53125,74.71875 L156.1875,74.1875 C156.1875,74.1875 157.25,76.9375 157.28125,77.53125 L157.28125,78.375 C157.28125,78.375 158.84375,78.78125 159.15625,81.1875 L157.84375,83.59375 L155.8125,82.4375 L155.21875,82.03125 L155.21875,75.15625 L155.21875,75.125 Z" id="Path" stroke="#000000" stroke-width="0.4" fill="#784421"></path>
                <path d="M136,94 C136,94 136.0625,93.90625 136,93.84375 L135.875,93.9375 C135.875,93.9375 135.46875,94.375 135.8125,95.09375 C135.8125,95.09375 135.8125,95.1875 135.90625,95.15625 C135.90625,95.15625 135.96875,95.15625 135.90625,95.0625 C135.90625,95.0625 135.59375,94.4375 136,94 Z" id="Path" fill="#FFFFFF"></path>
                <path d="M142.125,93.53125 C142.125,93.53125 142.15625,93.3125 142.03125,93.09375 C142.03125,93.09375 141.9375,92.9375 141.96875,92.71875" id="Path" stroke="#000000" stroke-width="0.5"></path>
                <path d="M143.4375,69.09375 C143.4375,69.09375 143.4375,69.6875 143.625,70.125 C143.78125,70.5625 144.375,71.3125 144.40625,71.6875" id="Path" stroke="#000000" stroke-width="0.4"></path>
                <path d="M157.6875,89.5625 C157.6875,89.5625 158.625,89.59375 159.125,89.875 C159.625,90.09375 160,90.34375 160.5625,90.71875 C160.5625,90.71875 160.8125,91.0625 161.90625,90.84375 C161.90625,90.84375 163.8125,90.40625 163.8125,91.875 C163.8125,91.875 166.09375,92.0625 165.15625,94.0625 C165.15625,94.0625 164.53125,95.625 163.21875,94.53125 C163.21875,94.53125 164.0625,95.71875 162.4375,96.1875 C162.4375,96.1875 161.28125,96.5 160.9375,95.28125 C160.9375,95.28125 160.75,94.8125 161.21875,94.25 C161.21875,94.25 160.65625,94.125 160.28125,93.53125 C160.28125,93.53125 161.46875,95.03125 160.15625,95.59375 C160.15625,95.59375 158.5,96 158.40625,94.28125 C158.40625,94.28125 158.53125,93.46875 157.90625,93.1875 C157.90625,93.1875 156.59375,92.875 156,91.4375 C156,91.4375 157.875,90.4375 157.6875,89.5625 Z" id="Path" stroke="#000000" stroke-width="0.5" fill="#D40000" stroke-linejoin="round"></path>
                <path d="M142.6875,71.71875 L144.25,84.25 M143.0625,71.6875 L144.8125,83.375 M143.375,71.625 L145.40625,83.21875" id="Shape" stroke="#000000" stroke-width="0.4"></path>
                <polygon id="Path" stroke="#000000" stroke-width="0.4" fill="#784421" points="146.5625 82.21875 147.125 82.03125 143.46875 69.46875 143.34375 69.46875"></polygon>
                <path d="M144.5,71.15625 L148.1875,80.46875 M144.25,71.3125 L147.8125,81" id="Shape" stroke="#000000" stroke-width="0.4"></path>
                <path d="M138.4375,96.40625 C138.4375,96.40625 138,96 138.0625,95.28125 C138.0625,95.28125 138.0625,95.125 138,95.09375 C138,95.09375 137.90625,95.0625 137.90625,95.25 C137.90625,95.25 137.78125,96 138.3125,96.4375 C138.3125,96.4375 138.34375,96.5 138.40625,96.46875 C138.40625,96.46875 138.46875,96.46875 138.40625,96.40625 L138.4375,96.40625 Z" id="Path" fill="#FFFFFF"></path>
                <path d="M144.6875,71.03125 L148.4375,79.53125 M143.65625,71.5625 L146,83" id="Shape" stroke="#000000" stroke-width="0.4"></path>
                <path d="M162.65625,80 C161,79.0625 160.625,77 160.625,77 C160.392771,75.7343678 160.545159,74.4281824 161.0625,73.25 C162.125,71 163.96875,70.5625 163.96875,70.5625 C163.96875,70.5625 162.15625,71.8125 161.65625,73.5 C161.65625,73.5 161.28125,74.9375 161.5,76.3125 C161.71875,77.75 161.625,77.375 161.96875,78.46875 L162.65625,80.03125 L162.65625,80 Z" id="Path" stroke="#000000" stroke-width="0.5" fill="#F5CE00"></path>
                <path d="M155.5,74.6875 L148.53125,76.90625 L148.15625,80.03125 C146.5,82.4375 143.125,82.84375 143.125,82.84375 L145.75,85.65625 L150.75,86.6875 L153.40625,84.65625 L155.8125,82.46875 C155.5625,81.28125 155.6875,79.53125 155.6875,79.53125 C155.6875,79.21875 155.8125,78.53125 155.8125,78.53125 C155.8125,78.53125 155.40625,75.71875 155.5,74.71875 L155.5,74.6875 Z" id="Path" stroke="#000000" stroke-width="0.2" fill="#784421"></path>
                <path d="M148.25,79.25 C148.25,79.25 152.84375,77.8125 155.59375,76.65625 M146.03125,81.875 C146.03125,81.875 151.78125,80.84375 155.8125,78.53125 L157.28125,77.53125" id="Shape" stroke="#000000" stroke-width="0.4"></path>
                <path d="M157.28125,78.375 L155.71875,79.53125 C155.71875,79.53125 149.28125,82.46875 144.375,82.5625 M155.6875,81.625 C155.6875,81.625 150.75,84.15625 147.9375,84.1875" id="Shape" stroke="#000000" stroke-width="0.4"></path>
                <path d="M161.5625,74.5 C161.5625,74.5 163.03125,73.84375 163.75,74.5 C163.75,74.5 164.6875,73.90625 165.75,74.5 C165.75,74.5 166.6875,75.125 167.375,75.84375 C167.375,75.84375 167.84375,76.25 167.6875,77.53125 C167.6875,77.53125 167.4375,78.4375 167.59375,78.875 C167.59375,78.875 167.90625,78.8125 168.53125,79.59375 C168.53125,79.59375 169.375,80.53125 170.09375,79.6875 C170.09375,79.6875 169.875,80.875 168.53125,80.6875 C168.53125,80.6875 169.15625,81.1875 168.59375,82.53125 C168.59375,82.53125 168.1875,83.46875 168.84375,84.65625 C168.84375,84.65625 167.65625,84.1875 167.71875,82.78125 C167.71875,82.78125 167.8125,81.84375 167.46875,81.1875 C167.46875,81.1875 167.8125,81.78125 167,83.0625 C167,83.0625 166.375,84 166.90625,84.9375 C166.90625,84.9375 165.71875,84.53125 165.84375,83.125 C165.9375,81.6875 166.65625,82.28125 166.1875,80.96875 C166.1875,80.96875 166.09375,81.65625 165.75,82 C165.213932,82.4498008 164.972953,83.1606898 165.125,83.84375 C165.125,83.84375 164.4375,82.96875 164.59375,82.0625 C164.75,81.15625 164.90625,80.90625 164.90625,80.90625 L162.71875,79.65625 L161.625,77.6875 L161.5625,74.5 Z" id="Path" stroke="#000000" stroke-width="0.5" fill="#D40000" stroke-linejoin="round"></path>
                <path d="M136.59375,82.46875 C136.59375,82.46875 136.8125,81.5 137.71875,81.84375 C137.71875,81.84375 138.03125,80.28125 139.75,80.21875 C141.4375,80.15625 141.53125,81.875 141.53125,82 C141.53125,82 142.0625,81.25 142.875,81.34375 C142.875,81.34375 144.3125,81.25 143.8125,83.5625 L144.0625,83.875 C144.0625,83.875 145.15625,81.28125 147.40625,81.9375 C147.40625,81.9375 149.59375,82.625 148.1875,84.75 C148.1875,84.75 149.28125,86.1875 150.1875,86.03125 C151.125,85.90625 151.9375,85.625 152.84375,84 C153.78125,82.375 155.90625,82.125 156.4375,82.21875 C156.96875,82.3125 157.40625,82.6875 157.5,83.0625 C157.5,83.0625 158.625,79.3125 162.6875,79.875 L164.3125,80.71875 L164.9375,81 L164,83.59375 L161.78125,88.65625 L160.0625,89.15625 L158.28125,88.15625 L157.65625,88.46875 L157.625,90 L155.28125,91.6875 L153.65625,92.34375 L151.875,93.59375 L151.4375,94.6875 C151.4375,94.6875 150.46875,94.25 149.34375,94.6875 L148.96875,93.75 L147.90625,92.78125 L143.84375,90.84375 L143.125,88.46875 L142.375,88.15625 L141.53125,89.09375 L140.34375,89.25 L138.53125,88 L136.5625,82.5 L136.59375,82.46875 Z" id="Path" stroke="#00247D" stroke-width="0.5" fill="#FFFFFF"></path>
                <path d="M154.3125,64.03125 C154.3125,64.03125 152.75,63.96875 152.8125,65.59375" id="Path" stroke="#000000" stroke-width="0.5"></path>
                <path d="M164.5,81.125 C161.8125,80.28125 161.0625,77.375 161.0625,77.375 C160.751446,76.0180629 160.871616,74.5978789 161.40625,73.3125 C162.65625,70.40625 164.71875,70.40625 164.71875,70.40625 C165.285541,70.3308799 165.810337,70.7175719 165.90625,71.28125 C166,71.90625 165.5625,72.125 165.5625,72.125 C164.84375,72.53125 164.375,72 164.375,72 C164.0625,71.59375 164.3125,71.25 164.3125,71.25 C164.5,71 164.84375,71.125 164.84375,71.125 C165.15625,71.1875 165.09375,71.5625 165.09375,71.5625 C165.09375,71.5625 165.1875,71.125 164.78125,71.09375 C164.78125,71.09375 163.9375,70.90625 163,72.09375 C163,72.09375 161.75,73.6875 161.75,75.78125 C161.75,75.78125 161.59375,79.65625 165.625,80.65625 C165.625,80.65625 165.1875,81.28125 164.40625,83.5625 C164.40625,83.5625 163.53125,86.5 162.71875,88.09375 C162.71875,88.09375 161.59375,90.34375 159.09375,89.4375 C159.09375,89.4375 157.625,88.78125 157.625,87.71875 C157.625,87.71875 157.53125,86.71875 158.40625,86.65625 C158.40625,86.65625 159.28125,86.59375 159.28125,87.34375 C159.28125,87.34375 159.28125,88.125 158.34375,87.96875 C158.34375,87.96875 158.03125,87.875 158.0625,87.5625 C158.0625,87.5625 158.125,87.25 158.53125,87.40625 C158.9375,87.5625 158.53125,87.40625 158.53125,87.375 C158.53125,87.375 158.375,87.3125 158.21875,87.375 C158.21875,87.375 158.0625,87.40625 158.0625,87.65625 C158.0625,87.65625 158.0625,87.8125 158.25,87.9375 L158.6875,88 C158.6875,88 158.9375,88.5 159.5,88.6875 C160.28125,88.90625 160.9375,88.6875 161.34375,88.375 C161.692894,88.0701088 161.961268,87.6836496 162.125,87.25 C162.658068,86.1034 163.117336,84.9239144 163.5,83.71875 C163.5,83.71875 163.96875,82.21875 164.375,81.4375 L164.5,81.125 Z" id="Path" stroke="#000000" stroke-width="0.5" fill="#F5CE00"></path>
                <path d="M156.875,88.5 C156.875,88.5 157.40625,88.4375 157.40625,88.875 C157.40625,88.875 157.375,89.5 156.5625,89.375 C156.5625,89.375 155.78125,89.21875 156.0625,88.34375 C156.0625,88.34375 156.25,87.71875 157,87.8125 C157,87.8125 157.71875,87.8125 158.03125,88.8125 C158.03125,88.8125 158.28125,89.65625 157.84375,90.375 C157.375,91.15625 156.21875,91.6875 155.65625,91.9375 C155.65625,91.9375 153.375,92.8125 152.6875,93.34375 C152.6875,93.34375 151.65625,94.09375 152.125,94.8125 C152.125,94.8125 152.3125,95.09375 152.5625,95.09375 C152.5625,95.09375 152.875,95.09375 152.90625,94.78125 C152.90625,94.78125 152.90625,94.96875 152.71875,95.0625 C152.71875,95.0625 152.5,95.15625 152.28125,94.96875 C152.28125,94.96875 152.03125,94.71875 152.21875,94.34375 C152.21875,94.34375 152.5,93.90625 153.15625,94.1875 C153.15625,94.1875 153.6875,94.46875 153.46875,95.03125 C153.46875,95.03125 153.25,95.59375 152.59375,95.5625 C152.59375,95.5625 152.09375,95.5625 151.75,95.25 C151.25,94.6875 151.21875,93.6875 151.6875,93.15625 C151.6875,93.15625 152.09375,92.59375 152.9375,92.21875 L155.28125,91.28125 C155.96875,91 156.5625,90.6875 156.96875,90.21875 C156.96875,90.21875 157.3125,89.84375 157.4375,89.15625 C157.4375,89.15625 157.53125,88.65625 157.21875,88.53125 L156.90625,88.46875 L156.875,88.5 Z" id="Path" stroke="#000000" stroke-width="0.5" fill="#F5CE00"></path>
                <path d="M156.9375,88.5 C156.9375,88.5 157.5,88.375 157.84375,89.0625 C157.84375,89.0625 158.03125,89.46875 158.0625,89.71875 M158.25,87.34375 C158.25,87.34375 157.6875,87.4375 157.96875,88.25 C158.28125,89 158.75,89.21875 158.90625,89.34375" id="Shape" stroke="#000000" stroke-width="0.5"></path>
                <path d="M147.34375,65.6875 C147.34375,65.6875 147.34375,65.90625 147.59375,65.9375 C147.59375,65.9375 147.8125,66 147.9375,65.71875 L147.96875,65.625 C147.96875,65.5 148.03125,65.09375 147.625,64.78125 C147.625,64.78125 146.90625,64.21875 145.59375,64.90625 C145.59375,64.90625 144.5625,65.40625 143.84375,65.84375 C143.84375,65.84375 141.96875,66.84375 141.71875,66.90625 C141.71875,66.90625 140.90625,67.3125 139.65625,67.375 C139.65625,67.375 137.9375,67.5 137.21875,66.28125 C137.21875,66.28125 136.65625,65.375 137.21875,64.78125 C137.21875,64.78125 137.4375,64.53125 137.8125,64.5625 C137.96875,64.59375 138.125,64.65625 138.28125,64.875 C138.28125,64.875 138.5625,65.25 138.25,65.53125 C138.25,65.53125 137.84375,65.78125 137.6875,65.25 C137.6875,65.3125 137.59375,65.6875 137.8125,66.03125 C137.8125,66.03125 138.84375,67.59375 141.6875,65.96875 L145.4375,63.875 C145.4375,63.875 147.3125,62.90625 148.46875,64.40625 C148.46875,64.40625 149.375,65.65625 148.21875,66.5 C148.21875,66.5 147.34375,67.03125 146.78125,66.1875 C146.78125,66.1875 146.34375,65.375 147.03125,65.03125 C147.03125,65.03125 147.65625,64.71875 147.9375,65.34375 C148.1875,65.96875 147.4375,66.15625 147.375,65.6875 C147.375,65.6875 147.375,65.59375 147.34375,65.6875 Z M138.125,80.03125 C139.78125,79.09375 140.15625,77 140.15625,77 C140.53125,74.90625 139.71875,73.25 139.71875,73.25 C138.65625,71 136.8125,70.5625 136.8125,70.5625 C136.8125,70.5625 138.625,71.8125 139.125,73.5 C139.125,73.5 139.53125,74.9375 139.28125,76.3125 C139.0625,77.75 139.15625,77.375 138.8125,78.46875 L138.125,80.03125 Z" id="Shape" stroke="#000000" stroke-width="0.5" fill="#F5CE00" fill-rule="nonzero"></path>
                <path d="M146.5,64.03125 C146.5,64.03125 148.0625,63.96875 147.96875,65.59375" id="Path" stroke="#000000" stroke-width="0.5"></path>
                <path d="M136.25,81.125 C138.96875,80.28125 139.6875,77.375 139.6875,77.375 C140.008439,76.0212939 139.899201,74.6011954 139.375,73.3125 C138.125,70.40625 136.0625,70.40625 136.0625,70.40625 C135.495709,70.3308799 134.970913,70.7175719 134.875,71.28125 C134.78125,71.90625 135.21875,72.125 135.21875,72.125 C135.9375,72.53125 136.40625,72 136.40625,72 C136.71875,71.59375 136.46875,71.25 136.46875,71.25 C136.28125,71 135.9375,71.125 135.9375,71.125 C135.625,71.1875 135.6875,71.5625 135.6875,71.5625 C135.6875,71.5625 135.59375,71.125 136,71.09375 C136,71.09375 136.84375,70.90625 137.78125,72.09375 C137.78125,72.09375 139.03125,73.6875 139.03125,75.78125 C139.03125,75.78125 139.1875,79.65625 135.15625,80.65625 C135.15625,80.65625 135.59375,81.28125 136.375,83.5625 C136.375,83.5625 137.25,86.5 138.09375,88.09375 C138.09375,88.09375 139.1875,90.34375 141.6875,89.4375 C141.6875,89.4375 143.15625,88.78125 143.15625,87.71875 C143.15625,87.71875 143.25,86.71875 142.375,86.65625 C142.375,86.65625 141.5,86.59375 141.5,87.34375 C141.5,87.34375 141.5,88.125 142.4375,87.96875 C142.4375,87.96875 142.75,87.875 142.71875,87.5625 C142.71875,87.5625 142.65625,87.25 142.25,87.40625 C141.84375,87.5625 142.25,87.40625 142.25,87.375 C142.25,87.375 142.40625,87.3125 142.5625,87.375 C142.5625,87.375 142.71875,87.40625 142.71875,87.65625 C142.71875,87.65625 142.71875,87.8125 142.53125,87.9375 L142.125,88 C142.125,88 141.875,88.5 141.28125,88.6875 C140.653258,88.9004937 139.960233,88.7830318 139.4375,88.375 C139.088356,88.0701088 138.819982,87.6836496 138.65625,87.25 C138.123339,86.1033333 137.664074,84.9238578 137.28125,83.71875 C137.28125,83.71875 136.8125,82.21875 136.4375,81.4375 L136.28125,81.125 L136.25,81.125 Z" id="Path" stroke="#000000" stroke-width="0.5" fill="#F5CE00"></path>
                <path d="M143.90625,88.5 C143.90625,88.5 143.40625,88.4375 143.40625,88.875 C143.40625,88.875 143.40625,89.5 144.21875,89.375 C144.21875,89.375 145,89.21875 144.71875,88.34375 C144.71875,88.34375 144.53125,87.71875 143.78125,87.8125 C143.78125,87.8125 143.0625,87.8125 142.75,88.8125 C142.75,88.8125 142.5,89.65625 142.9375,90.375 C143.40625,91.15625 144.5625,91.6875 145.125,91.9375 C145.125,91.9375 147.40625,92.8125 148.09375,93.34375 C148.09375,93.34375 149.125,94.09375 148.65625,94.8125 C148.65625,94.8125 148.5,95.09375 148.21875,95.09375 C148.21875,95.09375 147.90625,95.09375 147.875,94.78125 C147.875,94.78125 147.875,94.96875 148.0625,95.0625 C148.0625,95.0625 148.28125,95.15625 148.5,94.96875 C148.5,94.96875 148.75,94.71875 148.5625,94.34375 C148.5625,94.34375 148.28125,93.90625 147.65625,94.1875 C147.65625,94.1875 147.09375,94.46875 147.34375,95.03125 C147.34375,95.03125 147.53125,95.59375 148.1875,95.5625 C148.1875,95.5625 148.6875,95.5625 149.03125,95.25 C149.53125,94.6875 149.5625,93.6875 149.125,93.15625 C149.125,93.15625 148.6875,92.59375 147.875,92.21875 C147.375,92.0625 146.4375,91.65625 145.5,91.28125 C144.8125,91 144.21875,90.6875 143.8125,90.21875 C143.8125,90.21875 143.46875,89.84375 143.34375,89.15625 C143.34375,89.15625 143.25,88.65625 143.5625,88.53125 L143.875,88.46875 L143.90625,88.46875 L143.90625,88.5 Z" id="Path" stroke="#000000" stroke-width="0.5" fill="#F5CE00"></path>
                <path d="M143.84375,88.5 C143.84375,88.5 143.28125,88.375 142.9375,89.0625 C142.9375,89.0625 142.75,89.46875 142.71875,89.71875 M142.53125,87.34375 C142.53125,87.34375 143.09375,87.4375 142.8125,88.25 C142.5,89 142.03125,89.21875 141.875,89.34375 M149.0625,65.46875 C149.0625,65.46875 150.40625,64.625 151.78125,65.5625" id="Shape" stroke="#000000" stroke-width="0.5"></path>
                <path d="M141.375,73.75 C141.375,73.75 141.5625,72.96875 140.6875,71.65625 C140.6875,71.65625 140.125,70.4375 139.84375,69.6875 M141.78125,68.84375 L142.40625,70.5625 L143.15625,72.34375" id="Shape" stroke="#000000" stroke-width="0.4"></path>
                <path d="M142,74.5625 C142,74.5625 142.53125,75.125 142.46875,76.03125 M140.34375,73.96875 C140.34375,73.96875 140.90625,74.25 140.84375,75.75 C140.84375,75.75 140.8125,76.8125 141.625,77.375 M140.25,77.75 C140.25,77.75 142,77.5625 142.125,78.65625 C142.125,78.65625 142.125,79.6875 142.75,79.78125 C142.75,79.78125 143.625,79.875 143.8125,80.71875 M140.8125,78.9375 C140.8125,78.9375 141.125,79.40625 141.4375,79.625 M143.0625,77.8125 C143.0625,77.8125 143.5,78.5 143.59375,78.875 M145,69.6875 C145,69.6875 145.40625,70.25 145.8125,70.5 M146.625,73 C146.625,73 147.5,73.40625 147.375,75.625 C147.375,75.625 147.25,76.90625 147.625,77.625" id="Shape" stroke="#000000" stroke-width="0.4"></path>
                <path d="M142.5,71.5 L142.59375,71.71875 C142.59375,71.71875 144.15625,71.78125 145,70.71875 L144.90625,70.5 C144.90625,70.5 143.53125,70.4375 142.53125,71.5 L142.5,71.5 Z" id="Path" stroke="#000000" stroke-width="0.4" fill="#784421"></path>
                <path d="M148.15625,79.875 C148.15625,79.875 153.5625,78.28125 155.65625,77.34375" id="Path" stroke="#000000" stroke-width="0.4"></path>
                <polygon id="Path" stroke="#000000" stroke-width="0.2" fill="#784421" points="147.59375 69.90625 147.53125 69.75 150.1875 68.71875 150.25 68.90625"></polygon>
                <path d="M147.8125,69.8125 L149.59375,78.53125 M148.125,69.71875 L150.15625,78.375 M148.46875,69.5625 L150.6875,78.1875 M149.34375,69.25 L152.375,75.6875 M149.75,69.125 L152.96875,75.5 M150.03125,68.96875 L153.53125,75.34375 M149.46875,78.59375 L150.84375,78.15625 M148.4375,77.75 C148.4375,77.75 152.4375,76.5625 155.5,75.34375 M148.375,78.15625 C148.375,78.15625 153.46875,76.84375 155.5,75.84375 M149.9375,82.3125 L150.1875,83.15625 L150.9375,82.90625 L150.6875,82.09375 M152,81.75 L152.25,82.5625 L152.96875,82.3125 L152.71875,81.5 M148.53125,76.90625 L148.46875,75.8125 L155.15625,73.78125 L155.5,74.71875 M151.3125,74.9375 L151.65625,75.9375 M153.625,74.25 L154.0625,75.1875 M154.1875,74.0625 L154.59375,74.9375 M154.71875,73.90625 L155.125,74.84375 M155.125,73.78125 L155.875,73.375 L156.1875,74.1875 M155.5,73.5625 L155.875,74.4375" id="Shape" stroke="#000000" stroke-width="0.4"></path>
                <path d="M138.9375,86.3125 C138.9375,86.3125 137.625,84.96875 138.9375,83.6875 C138.9375,83.6875 137.5,83 137.71875,81.875 M141.28125,87.34375 C141.28125,87.34375 139.90625,87.53125 140.3125,84.90625 C140.3125,84.90625 139.75,85.9375 139.5625,86.46875 C139.394985,87.0038969 139.614243,87.5842837 140.09375,87.875 C140.3125,88.03125 141.53125,88.34375 141.90625,87.5625 M139.75,83.3125 C139.75,83.3125 139.1875,83.8125 139.59375,84.75 M140.3125,83.4375 C140.3125,83.4375 140.375,84.34375 140.84375,84.84375 M140.71875,83.09375 C140.71875,83.09375 140.71875,84.15625 141.46875,84.8125 M141.09375,82.71875 C141.09375,82.71875 141.09375,83.90625 141.96875,84.65625 M145.5,84.46875 C145.5,84.46875 145.9375,83.46875 146.875,83.53125 C146.875,83.53125 146.4375,83.75 146.4375,84.1875 C146.4375,84.1875 146.375,84.96875 147.1875,85.03125 C147.1875,85.03125 147.84375,85.125 148.1875,84.75" id="Shape" stroke="#00247D" stroke-width="0.5"></path>
                <path d="M147.75,88.9375 C147.75,88.9375 145.40625,87.84375 145.65625,86.28125 C145.65625,86.28125 145.75,85.34375 146.6875,84.875 M146.1875,85.875 C146.1875,85.875 145.96875,86.53125 146.4375,87 M146.71875,85.40625 C146.71875,85.40625 146.40625,86.15625 146.90625,86.6875 M147.28125,85.03125 C147.28125,85.03125 146.9375,85.65625 147.34375,86.21875 M145.15625,89.09375 C145.15625,89.09375 146.40625,90.21875 147.40625,90.21875 M144.75,89.46875 C144.75,89.46875 145.9375,90.40625 146.6875,90.5625 M144.3125,89.71875 C144.3125,89.71875 145.78125,91 146.6875,91.09375 M150.28125,92.28125 C150.28125,92.28125 148.84375,93.0625 149.96875,93.90625 M149.34375,91.4375 L151.71875,90.25 M149.9375,91.875 C149.9375,91.875 152.3125,90.4375 153,90.125 M151.15625,92 C151.15625,92 153.1875,90.625 154.28125,90.03125 M152.5,91.90625 C152.5,91.90625 153.90625,90.84375 155.25,90.03125 M155.71875,88.6875 C155.71875,88.6875 155.03125,87.6875 152.78125,88.6875 C152.78125,88.6875 153.625,87.9375 155.25,87.34375 M157.5,83.0625 C157.5,83.0625 157.6875,83.875 157.5,84.375" id="Shape" stroke="#00247D" stroke-width="0.5"></path>
                <path d="M153.875,87 C153.875,87 154.34375,86.3125 155.53125,85.96875 C155.53125,85.96875 155.84375,86.75 156.78125,86.59375 C156.78125,86.59375 158.15625,86.3125 157.71875,84.78125 C157.71875,84.78125 157.4375,83.65625 155.84375,83.53125 M160.59375,81.625 C160.59375,81.625 162.1875,81.9375 162.15625,83.21875 C162.15625,83.21875 162.3125,85.21875 160.21875,85.59375 M161.9375,82.4375 C161.9375,82.4375 162.375,81.46875 163.375,81.0625 M162.1875,80.5 C162.1875,80.5 162.625,81.21875 162.90625,81.3125 M161.96875,81.0625 C161.96875,81.0625 162.375,81.59375 162.5,81.6875 M161.8125,81.5625 C161.8125,81.5625 162.03125,81.875 162.21875,82 M153.46875,73.90625 C153.46875,73.90625 153.78125,73.40625 154.59375,73.59375 M157.78125,77.75 C157.78125,77.75 158.28125,75.6875 160,76.4375 M159.3125,76.28125 C159.3125,76.28125 159.46875,75.34375 159.0625,74.84375 M158.125,76.1875 C158.125,76.1875 158.34375,76.59375 158.15625,76.90625" id="Shape" stroke="#00247D" stroke-width="0.5"></path>
                <path d="M161.65625,97.3125 C161.65625,97.3125 163.59375,96.4375 163,94.90625 C163,94.90625 162.8125,94.40625 162.375,94.4375 C162.375,94.4375 161.625,94.46875 161.75,95.46875 C161.75,95.46875 162,96.46875 161.625,97.3125 L161.65625,97.3125 Z" id="Path" stroke="#00247D" stroke-width="0.4" fill="#64B4D1"></path>
                <path d="M162.34375,96.40625 C162.34375,96.40625 162.78125,96 162.71875,95.28125 C162.71875,95.28125 162.6875,95.125 162.75,95.09375 C162.75,95.09375 162.84375,95.0625 162.84375,95.25 C162.84375,95.25 162.96875,96 162.46875,96.4375 C162.46875,96.4375 162.4375,96.5 162.375,96.46875 C162.375,96.46875 162.3125,96.46875 162.34375,96.40625 Z" id="Path" fill="#FFFFFF"></path>
                <path d="M164.40625,95.9375 C164.40625,95.9375 165.78125,95.09375 165.03125,93.65625 C165.03125,93.65625 164.8125,93.25 164.40625,93.34375 C164.40625,93.34375 163.5625,93.59375 164.21875,94.78125 C164.21875,94.78125 164.53125,95.53125 164.40625,95.96875 L164.40625,95.9375 Z" id="Path" stroke="#00247D" stroke-width="0.4" fill="#64B4D1"></path>
                <path d="M164.75,94 C164.75,94 164.6875,93.90625 164.75,93.84375 L164.84375,93.9375 C164.84375,93.9375 165.25,94.375 164.9375,95.09375 C164.9375,95.09375 164.90625,95.1875 164.8125,95.15625 L164.8125,95.0625 C164.8125,95.0625 165.125,94.4375 164.75,94 Z" id="Path" fill="#FFFFFF"></path>
                <path d="M160.3125,96.9375 C160.3125,96.9375 158.78125,96.5625 159.0625,94.96875 C159.0625,94.96875 159.21875,94.28125 159.875,94.375 C159.875,94.375 160.65625,94.59375 160.15625,95.59375 C160.15625,95.59375 159.84375,96.28125 160.3125,96.9375 Z" id="Path" stroke="#00247D" stroke-width="0.4" fill="#64B4D1"></path>
                <path d="M159.71875,95.0625 C159.71875,95.0625 159.6875,94.96875 159.71875,94.9375 C159.71875,94.9375 159.8125,94.9375 159.84375,95 C159.84375,95 160,95.25 159.875,95.625 C159.875,95.625 159.75,95.84375 159.8125,96.09375 C159.8125,96.09375 159.8125,96.15625 159.75,96.1875 L159.6875,96.09375 C159.6875,96.09375 159.625,95.875 159.75,95.625 C159.75,95.625 159.90625,95.25 159.75,95.0625 L159.71875,95.0625 Z" id="Path" fill="#FFFFFF"></path>
                <path d="M161.40625,93.96875 C161.40625,93.96875 162.28125,93.46875 162.96875,94.03125 C162.96875,94.03125 162.90625,93.71875 162.34375,93.59375 C162.34375,93.59375 162.0625,92.75 161.25,92.84375 C161.25,92.84375 161.5625,93.25 162.03125,93.5625 C162.03125,93.5625 161.5625,93.625 161.40625,93.96875 Z M162.03125,91.6875 C162.03125,91.6875 162.65625,92.125 162.875,92.40625 C162.875,92.40625 163.09375,92.09375 163.40625,91.9375 C163.40625,91.9375 163.0625,91.875 162.875,92.03125 C162.875,92.03125 162.5625,91.75 162.0625,91.6875 L162.03125,91.6875 Z" id="Shape" fill="#000000" fill-rule="nonzero"></path>
                <path d="M158.65625,93.53125 C158.65625,93.53125 158.59375,93.3125 158.75,93.09375 C158.75,93.09375 158.84375,92.9375 158.8125,92.71875 M164.9375,80.125 C164.9375,80.125 165.84375,80.0625 166,79.34375 M167.5625,78.875 C167.5625,78.875 167.25,78.875 166.96875,79.1875 C166.96875,79.1875 166.75,79.5 166.4375,79.4375" id="Shape" stroke="#000000" stroke-width="0.5"></path>
                <path d="M163.59375,77.4375 C163.59375,77.4375 164.0625,77.4375 164.3125,77.21875 C164.3125,77.21875 164.59375,77.03125 164.75,77.3125 C164.75,77.3125 165,77.75 164.53125,77.9375 C164.53125,77.9375 163.96875,78.25 164.875,78.8125 C164.875,78.8125 163.78125,78.40625 164.25,77.875 C164.25,77.875 164.71875,77.5625 164.53125,77.4375 C164.53125,77.4375 164.46875,77.3125 164.28125,77.4375 C164.09375,77.59375 163.71875,77.53125 163.59375,77.4375 Z" id="Path" fill="#000000"></path>
                <path d="M164.21875,66 C164.21875,66 164.4375,65.6875 164.34375,64.84375 C164.25,64 165.03125,63.875 165.3125,64.125 C165.3125,64.125 165.625,64.375 165.3125,64.9375 C165.087154,65.4113877 164.698969,65.7884815 164.21875,66 Z" id="Path" stroke="#00247D" stroke-width="0.4" fill="#64B4D1"></path>
                <path d="M164.5,65.34375 C164.5,65.34375 164.8125,65.03125 164.65625,64.375 L164.6875,64.3125 L164.78125,64.34375 C164.78125,64.34375 164.9375,65.0625 164.625,65.4375 C164.625,65.4375 164.5625,65.5 164.5,65.4375 L164.5,65.34375 Z" id="Path" fill="#FFFFFF"></path>
                <path d="M164,65.6875 C164,65.6875 163.96875,65.3125 163.375,64.75 C162.75,64.125 163.25,63.59375 163.625,63.59375 C163.625,63.59375 164,63.59375 164.15625,64.1875 C164.283618,64.690214 164.228242,65.2218287 164,65.6875 Z" id="Path" stroke="#00247D" stroke-width="0.4" fill="#64B4D1"></path>
                <path d="M163.90625,64.90625 C163.90625,64.90625 163.90625,64.46875 163.34375,64.03125 L163.34375,63.9375 L163.4375,63.9375 C163.4375,63.9375 164.03125,64.40625 164.03125,64.9375 C164.03125,64.9375 164.03125,65 163.96875,65 C163.96875,65 163.90625,65 163.90625,64.90625 Z" id="Path" fill="#FFFFFF"></path>
                <path d="M163.15625,65.40625 C163.15625,65.40625 163,65.125 162.25,64.84375 C161.5,64.59375 161.6875,63.9375 162,63.78125 C162,63.78125 162.34375,63.65625 162.6875,64.09375 C162.996062,64.4608971 163.16242,64.9266988 163.15625,65.40625 Z" id="Path" stroke="#00247D" stroke-width="0.4" fill="#64B4D1"></path>
                <path d="M162.8125,64.875 C162.8125,64.875 162.65625,64.5 161.96875,64.3125 C161.96875,64.3125 161.90625,64.3125 161.90625,64.25 C161.90625,64.25 161.90625,64.1875 162,64.21875 C162,64.21875 162.75,64.375 162.96875,64.84375 L162.9375,64.9375 C162.9375,64.9375 162.875,64.9375 162.84375,64.875 L162.8125,64.875 Z" id="Path" fill="#FFFFFF"></path>
                <path d="M163.625,65.6875 C163.625,65.6875 163.28125,65.8125 162.46875,65.40625 C161.65625,65.03125 161.3125,65.71875 161.46875,66.03125 C161.46875,66.03125 161.59375,66.4375 162.21875,66.34375 C162.747727,66.3126156 163.247421,66.0905295 163.625,65.71875 L163.625,65.6875 Z" id="Path" stroke="#00247D" stroke-width="0.4" fill="#64B4D1"></path>
                <path d="M161.75,65.9375 C161.75,65.9375 162.125,66.1875 162.78125,65.9375 L162.875,65.9375 C162.875,65.9375 162.875,66 162.8125,66.03125 C162.8125,66.03125 162.125,66.34375 161.65625,66.0625 C161.65625,66.0625 161.59375,66.03125 161.65625,65.96875 L161.75,65.96875 L161.75,65.9375 Z" id="Path" fill="#FFFFFF"></path>
                <path d="M162.46875,63.15625 C162.46875,63.15625 162.84375,63.34375 162.78125,63.8125" id="Path" stroke="#000000" stroke-width="0.5"></path>
                <path d="M164.21875,63.21875 C164.21875,63.21875 164.375,63.71875 164.21875,64" id="Path" stroke="#000000" stroke-width="0.5"></path>
                <path d="M136.5,66 C136.5,66 136.28125,65.6875 136.375,64.84375 C136.46875,63.96875 135.71875,63.875 135.4375,64.125 C135.4375,64.125 135.125,64.375 135.40625,64.9375 C135.631596,65.4113877 136.019781,65.7884815 136.5,66 Z" id="Path" stroke="#00247D" stroke-width="0.4" fill="#64B4D1"></path>
                <path d="M136.21875,65.34375 C136.21875,65.34375 135.9375,65.03125 136.0625,64.375 L136.0625,64.3125 L135.9375,64.34375 C135.9375,64.34375 135.8125,65.0625 136.125,65.4375 C136.125,65.4375 136.1875,65.5 136.21875,65.4375 L136.21875,65.34375 Z" id="Path" fill="#FFFFFF"></path>
                <path d="M136.75,65.6875 C136.75,65.6875 136.75,65.3125 137.375,64.75 C138,64.125 137.5,63.59375 137.125,63.59375 C137.125,63.59375 136.71875,63.59375 136.59375,64.1875 C136.466382,64.690214 136.521758,65.2218287 136.75,65.6875 Z" id="Path" stroke="#00247D" stroke-width="0.4" fill="#64B4D1"></path>
                <path d="M136.84375,64.90625 C136.84375,64.90625 136.84375,64.46875 137.375,64.03125 C137.375,64.03125 137.4375,63.96875 137.375,63.9375 C137.375,63.9375 137.375,63.90625 137.3125,63.9375 C137.3125,63.9375 136.6875,64.40625 136.6875,64.9375 C136.6875,64.9375 136.6875,65 136.78125,65 C136.78125,65 136.84375,65 136.84375,64.90625 Z" id="Path" fill="#FFFFFF"></path>
                <path d="M137.5625,65.40625 C137.5625,65.40625 137.71875,65.125 138.5,64.84375 C139.21875,64.59375 139.03125,63.9375 138.71875,63.78125 C138.71875,63.78125 138.40625,63.65625 138.03125,64.09375 C137.722688,64.4608971 137.55633,64.9266988 137.5625,65.40625 Z" id="Path" stroke="#00247D" stroke-width="0.4" fill="#64B4D1"></path>
                <path d="M137.90625,64.875 C137.90625,64.875 138.0625,64.5 138.75,64.3125 C138.75,64.3125 138.8125,64.3125 138.8125,64.25 C138.8125,64.25 138.8125,64.1875 138.75,64.21875 C138.75,64.21875 138,64.375 137.78125,64.84375 L137.78125,64.9375 C137.78125,64.9375 137.875,64.9375 137.90625,64.875 Z" id="Path" fill="#FFFFFF"></path>
                <path d="M137.09375,65.6875 C137.09375,65.6875 137.46875,65.8125 138.25,65.40625 C139.0625,65.03125 139.40625,65.71875 139.28125,66.03125 C139.28125,66.03125 139.125,66.4375 138.5,66.34375 C137.971023,66.3126156 137.471329,66.0905295 137.09375,65.71875 L137.09375,65.6875 Z" id="Path" stroke="#00247D" stroke-width="0.4" fill="#64B4D1"></path>
                <path d="M138.96875,65.9375 C138.96875,65.9375 138.625,66.1875 137.9375,65.9375 L137.875,65.9375 L137.875,66.03125 C137.875,66.03125 138.625,66.34375 139.0625,66.0625 C139.0625,66.0625 139.125,66.03125 139.0625,65.96875 L138.96875,65.96875 L138.96875,65.9375 Z" id="Path" fill="#FFFFFF"></path>
                <path d="M138.28125,63.15625 C138.28125,63.15625 137.875,63.34375 137.96875,63.8125" id="Path" stroke="#000000" stroke-width="0.5"></path>
                <path d="M136.5,63.21875 C136.5,63.21875 136.34375,63.71875 136.5,64" id="Path" stroke="#000000" stroke-width="0.5"></path>
                <path d="M153.9375,58.65625 C153.9375,58.65625 154.1875,59.375 154.09375,60.03125 C154,60.65625 154.125,60.78125 154.34375,60.90625 C154.53125,61 154.96875,60.8125 155,60.34375 C155,60.34375 155.5,61.34375 154.53125,62 C154.53125,62 153.8125,62.4375 153.21875,61.875 C153,61.65625 152.90625,61.09375 153.03125,60.5625 C153.03125,60.5625 153.1875,59.875 152.90625,59.125 C152.90625,59.125 153.3125,59.5625 153.21875,60.40625 C153.21875,60.40625 153,61.96875 154.15625,61.875 C154.15625,61.875 154.9375,61.875 154.96875,60.9375 C154.96875,60.9375 154.65625,61.25 154.3125,61.15625 C154.150829,61.1190478 154.010582,61.0190964 153.922658,60.8784171 C153.834733,60.7377379 153.806346,60.5678739 153.84375,60.40625 C153.875,60 154,59.28125 153.9375,58.65625 Z M152.6875,61.15625 C152.6875,61.15625 152.59375,62.40625 151.5,62.6875 C151.5,62.6875 151.65625,62.46875 151.40625,61.84375 C151.40625,61.84375 151.15625,61.53125 151.15625,60.96875 C151.15625,60.96875 150.84375,61.25 151.21875,61.96875 C151.46875,62.40625 151.25,62.90625 151.1875,62.9375 C151.09375,62.96875 153,62.6875 152.65625,61.1875 L152.6875,61.15625 Z M151.21875,59.96875 C151.21875,59.96875 150.9375,59.65625 150.90625,58.96875 C150.90625,58.28125 150.78125,58.09375 150.6875,58.03125 C150.6875,58.03125 150.8125,58.625 150.78125,58.96875 C150.78125,59.375 150.8125,59.59375 150.875,59.75 C150.875,59.75 150.25,59.84375 149.875,58.96875 C149.53125,58.125 149.15625,58.1875 148.96875,58.1875 C148.96875,58.1875 149.1875,58.21875 149.59375,59 C150.03125,59.75 150.15625,59.9375 151.21875,59.9375 L151.21875,59.96875 Z M148.40625,58.15625 C148.40625,58.15625 148.71875,58.96875 148.75,59.40625 C148.75,59.40625 147.9375,59.15625 147.71875,58.46875 C147.71875,58.46875 146.875,58.75 147.1875,59.71875 C147.1875,59.71875 146.4375,59.46875 146.09375,58.875 C146.09375,58.875 146.5,59.1875 146.90625,59.3125 C146.90625,59.3125 146.84375,58.5 147.84375,58.21875 C147.84375,58.21875 148,58.9375 148.53125,59.09375 L148.40625,58.15625 Z M149.71875,56.71875 C149.71875,56.71875 150.03125,57.125 150.59375,57.125 C150.927335,57.1498089 151.248867,56.9949971 151.4375,56.71875 C151.4375,56.71875 151.40625,57.40625 150.59375,57.4375 C150.59375,57.4375 149.71875,57.4375 149.71875,56.71875 Z M146.1875,61.5625 L146.71875,62.0625 C146.71875,62.0625 147.03125,62.375 147.25,62 C147.25,62 147.59375,61.375 148,61.40625 C148,61.40625 147.6875,61.59375 147.375,62.1875 C147.375,62.1875 147.3125,62.375 147.0625,62.40625 C146.9375,62.40625 146.8125,62.46875 146.59375,62.21875 C146.59375,62.21875 146.40625,62 146.1875,61.59375 L146.1875,61.5625 Z M150.5625,53.875 C149.71875,53.875 150.4375,54.5 150.4375,54.5 C150.4375,55.5625 149.625,55.90625 149.0625,55.59375 C148.46875,55.28125 148.9375,54.53125 148.9375,54.53125 C148.9375,54.53125 148.3125,54.9375 148.6875,55.5625 C149.09375,56.1875 150.1875,55.875 150.5625,55.34375 C150.96875,55.90625 152.0625,56.1875 152.4375,55.5625 C152.875,54.9375 152.21875,54.53125 152.21875,54.53125 C152.21875,54.53125 152.6875,55.28125 152.09375,55.59375 C151.53125,55.90625 150.6875,55.59375 150.71875,54.53125 C150.71875,54.53125 151.4375,53.875 150.59375,53.875 L150.5625,53.875 Z M151.09375,52.71875 C151.09375,52.71875 151.40625,53.25 151.34375,54 C151.34375,54 151.59375,53.25 151.09375,52.75 L151.09375,52.71875 Z M148.46875,53.9375 C148.46875,53.9375 148.40625,53.375 147.84375,53.3125 C147.84375,53.3125 148.34375,53.65625 148.46875,53.9375 Z M152.6875,53.9375 C152.6875,53.9375 152.75,53.375 153.3125,53.3125 C153.3125,53.3125 152.84375,53.65625 152.6875,53.9375 Z M147.625,54.78125 C147.625,54.78125 148.0625,54.90625 148.3125,54.59375 L147.625,54.78125 Z M146.21875,51.34375 C146.21875,51.34375 146.71875,51.3125 147.21875,52.0625 C147.21875,52.0625 146.71875,52.3125 146.59375,52.46875 C146.59375,52.46875 146.59375,52.21875 146.84375,52.03125 C146.84375,52.03125 146.75,51.65625 146.21875,51.375 L146.21875,51.34375 Z M154.59375,51.34375 C154.59375,51.34375 154.09375,51.3125 153.59375,52.0625 C153.59375,52.0625 154.09375,52.3125 154.21875,52.46875 C154.21875,52.46875 154.21875,52.21875 153.96875,52.03125 C153.96875,52.03125 154.0625,51.65625 154.59375,51.375 L154.59375,51.34375 Z M150.75,51.9375 C150.75,51.9375 151.1875,52.0625 151.75,51.75 C151.75,51.75 152.4375,51.375 152.875,51.75 C152.875,51.75 152.5,51.5625 151.75,51.9375 C151.75,51.9375 151.03125,52.34375 150.75,51.9375 Z" id="Shape" fill="#000000" fill-rule="nonzero"></path>
                <path d="M151.21875,52.375 C151.21875,52.375 151.59375,51.71875 152.78125,51.84375 C152.78125,51.84375 152.46875,52.78125 151.21875,52.375 Z" id="Path" fill="#FFFFFF"></path>
                <ellipse id="Oval" fill="#784421" cx="152" cy="52.15625" rx="1" ry="1"></ellipse>
                <ellipse id="Oval" fill="#000000" cx="152" cy="52.15625" rx="1" ry="1"></ellipse>
                <path d="M148.71875,50.9375 C148.71875,50.9375 149.4375,51 149.90625,51.25 C149.90625,51.25 150.375,51.5625 150.90625,51.15625 C150.90625,51.15625 151.5,50.8125 151.875,50.34375 C151.875,50.34375 150.96875,50.96875 150.625,51.0625 C150.625,51.0625 150.3125,50.8125 150.21875,50.46875 C150.21875,50.46875 150.25,50.21875 150.75,49.75 C150.75,49.75 150.09375,49.96875 149.96875,50.5 C150.051664,50.7308572 150.179071,50.9432019 150.34375,51.125 C150.34375,51.125 150.21875,51.1875 149.90625,50.96875 C149.90625,50.96875 149.1875,50.75 148.71875,50.96875 L148.71875,50.9375 Z M150.59375,55.375 C149.96875,55.9375 150.59375,55.875 150.59375,55.875 C150.59375,55.875 151.21875,55.9375 150.59375,55.375 Z M150.21875,51.9375 C150.21875,51.9375 149.75,52.0625 149.1875,51.75 C149.1875,51.75 148.5,51.375 148.0625,51.75 C148.0625,51.75 148.4375,51.5625 149.1875,51.9375 C149.1875,51.9375 149.9375,52.34375 150.21875,51.9375 Z" id="Shape" fill="#000000" fill-rule="nonzero"></path>
                <path d="M149.75,52.375 C149.75,52.375 149.375,51.71875 148.1875,51.84375 C148.1875,51.84375 148.5,52.78125 149.75,52.375 Z" id="Path" fill="#FFFFFF"></path>
                <ellipse id="Oval" fill="#784421" cx="148.9375" cy="52.15625" rx="1" ry="1"></ellipse>
                <ellipse id="Oval" fill="#000000" cx="148.9375" cy="52.15625" rx="1" ry="1"></ellipse>
                <path d="M173.125,46.34375 L173.125,88.6875 C173.125,100 150.53125,103.6875 150.53125,103.6875 C150.53125,103.6875 127.90625,100 127.90625,88.6875 L127.90625,46.34375 L173.15625,46.34375 L173.125,46.34375 Z" id="Path" stroke="#000000" stroke-width="1.3"></path>
            </g>
        </g>
    </g>
</svg>