<?xml version="1.0" encoding="UTF-8"?>
<svg width="200px" height="150px" viewBox="0 0 200 150" version="1.1" xmlns="http://www.w3.org/2000/svg" xmlns:xlink="http://www.w3.org/1999/xlink">
    <!-- Generator: Sketch 52.5 (67469) - http://www.bohemiancoding.com/sketch -->
    <title>bt</title>
    <desc>Created with Sketch.</desc>
    <g id="Flags" stroke="none" stroke-width="1" fill="none" fill-rule="evenodd">
        <g id="Asia" transform="translate(-290.000000, -250.000000)">
            <g id="bt" transform="translate(290.000000, 250.000000)">
                <polygon id="Path" fill="#FFD520" points="0.031201248 0 199.75039 0 199.75039 150 0.031201248 150"></polygon>
                <polygon id="Path" fill="#FF4E12" points="0.031201248 150 199.75039 150 199.75039 0"></polygon>
                <g id="Group" transform="translate(19.344774, 18.437500)">
                    <g transform="translate(0.000000, 21.875000)" fill="#FFFFFF" stroke="#000000" stroke-width="0.2">
                        <path d="M88.424337,6.5625 C87.1762871,6.15625 86.3650546,6.78125 86.4274571,8.40625 C86.4274571,10 87.301092,10.90625 88.549142,10.3125 L88.424337,6.5625 Z" id="Path"></path>
                        <path d="M89.5163807,3.5625 C88.4867395,2.75 87.5195008,3.09375 87.0202808,4.625 C86.5522621,6.1875 87.0514821,7.3125 88.424337,7.125 L89.5163807,3.5625 Z" id="Path"></path>
                        <path d="M91.2324493,0.625 C90.3588144,-0.3125 89.3603744,-0.125 88.6115445,1.3125 C87.8939158,2.75 88.2059282,3.96875 89.6099844,4.03125 L91.2324493,0.65625 L91.2324493,0.625 Z M90.1092044,14.84375 C88.5803432,15.40625 88.424337,17.5 89.3915757,18.78125 C90.3276131,20.0625 92.1060842,20.3125 93.0733229,18.78125 L90.1092044,14.84375 Z" id="Shape" fill-rule="nonzero"></path>
                        <path d="M88.3307332,10.40625 C86.8954758,9.9375 85.5850234,11.875 85.3666147,13.625 C85.0858034,15.8125 81.9344774,16.5625 83.6817473,19.90625 C84.0561622,17.78125 85.4602184,16.59375 86.5834633,16.53125 C87.7067083,16.4375 89.3915757,16.21875 90.1092044,14.84375 L88.3307332,10.40625 Z M92.9173167,19.03125 C91.2324493,19.4375 90.9828393,21.6875 92.199688,23.28125 C93.2293292,24.65625 96.474259,24.34375 96.3806552,22.96875 L92.9485179,19.03125 L92.9173167,19.03125 Z M97.6911076,32.59375 C97.7847114,31.125 95.4446178,30.5625 94.3213729,30.84375 C93.1981279,31.15625 91.0452418,30.8125 90.5772231,29.59375 C90.1404056,30.5625 90.7332293,31.625 92.3556942,32.15625 C93.6037441,32.53125 93.5725429,33.40625 93.1981279,33.84375 C94.1341654,34 96.8486739,34 97.6911076,32.59375 Z" id="Shape" fill-rule="nonzero"></path>
                        <path d="M96.3806552,23.34375 C94.7269891,22.59375 93.7597504,23.71875 93.1357254,24.78125 C92.199688,26.34375 89.3603744,24.34375 88.3931357,26.4375 C89.7035881,25.875 91.0140406,27.0625 91.6380655,27.46875 C93.4165367,28.625 96.8174727,28.28125 97.3166927,25.53125 L96.3806552,23.34375 Z" id="Path"></path>
                        <path d="M97.3478939,25.25 C95.6942278,26.5 95.0390016,28 95.1014041,29 C95.1326053,30 96.5366615,32.21875 98.0655226,32.34375 C98.9391576,30.53125 99.4071763,26.71875 97.3478939,25.25 Z M90.4836193,33.03125 C90.4836193,32.40625 91.3572543,32.1875 91.9812793,32.40625 C92.574103,32.59375 93.5101404,33.1875 93.1669267,33.84375 L90.4836193,33.03125 Z M81.4352574,29.6875 C81.2792512,28.96875 82.4336973,27.71875 83.9937598,28.40625 C85.5538222,29.09375 85.7722309,30.40625 85.1170047,30.9375 L81.4352574,29.6875 Z" id="Shape" fill-rule="nonzero"></path>
                        <path d="M85.2418097,31.0625 C85.1170047,30.65625 86.2714509,29.84375 88.174727,30.3125 C90.1092044,30.8125 90.5772231,32.0625 90.5148206,33.03125 L85.2418097,31.0625 Z M81.2168487,29.71875 C82.2464899,28.96875 81.8408736,27.53125 80.9360374,27.0625 C79.3135725,26.25 79.9063963,24.1875 78.8455538,23.78125 C77.8159126,23.375 76.8174727,22.65625 76.7550702,21.90625 C76.2558502,22.9375 76.5678627,23.84375 77.2854914,24.5 C78.0031201,25.125 76.723869,27.75 77.6599064,28.4375 L81.2168487,29.71875 Z M59.6879875,29.15625 C58.8455538,27.84375 56.8486739,28.0625 56.0062402,29 C55.1638066,29.9375 55.2886115,31.28125 56.0686427,31.90625 L59.6879875,29.15625 Z M64.524181,27.1875 C64.2121685,25.40625 62.0592824,25.21875 60.9048362,25.65625 C59.7191888,26.09375 58.9391576,27.875 59.6879875,29.15625 L64.524181,27.1875 Z" id="Shape" fill-rule="nonzero"></path>
                        <path d="M67.7067083,26.9375 C68.4867395,25.46875 66.9890796,23.25 65.3042122,22.9375 C63.900156,22.625 62.2464899,22.65625 61.6848674,21.28125 C61.3728549,22.46875 62.2464899,23.25 63.3073323,23.9375 C64.3369735,24.625 63.1201248,26.375 64.8049922,27.375 L67.7379095,26.9375 L67.7067083,26.9375 Z" id="Path"></path>
                        <path d="M67.5819033,27 C67.2074883,25.9375 67.925117,24.5 69.3603744,24.625 C70.8268331,24.71875 71.6380655,25.75 71.0140406,27.09375 L67.5819033,27 Z" id="Path"></path>
                        <path d="M70.7956318,27.09375 C70.5772231,25.96875 71.4820593,24.65625 72.9173167,24.96875 C74.3213729,25.28125 74.9765991,26.4375 74.1653666,27.625 L70.7956318,27.0625 L70.7956318,27.09375 Z" id="Path"></path>
                        <path d="M73.9469579,27.59375 C73.8221529,26.46875 74.7893916,25.21875 76.1934477,25.59375 C77.5975039,25.96875 78.1903276,27.15625 77.3166927,28.3125 L73.9781591,27.59375 L73.9469579,27.59375 Z M49.7347894,46.03125 C47.0202808,46.03125 46.3650546,46.65625 45.9906396,49.46875 C45.4914197,52.90625 50.2028081,53.3125 49.7347894,46.03125 Z" id="Shape" fill-rule="nonzero"></path>
                        <path d="M50.9204368,42.40625 C46.8018721,40.84375 44.5553822,47.40625 40.4368175,46.21875 C41.9032761,48.5625 45.4602184,46.21875 46.8018721,46.46875 C49.0483619,46.875 53.9157566,46.03125 50.9204368,42.40625 Z M48.2371295,51.375 C46.1778471,50.4375 43.9937598,53.5625 44.3681747,54.96875 C44.8985959,56.6875 49.5787832,55.28125 48.2371295,51.375 Z M38.6895476,64.90625 C39.8127925,65.21875 41.1856474,65.84375 40.9360374,68.03125 C40.6864275,70.21875 36.5678627,74.625 32.8861154,74.90625 C29.2043682,75.125 27.8939158,79.59375 24.6801872,78.34375 C27.675507,77.78125 27.675507,74.40625 29.9843994,73.34375 C28.299532,72.71875 27.425897,76.5625 25.2418097,76.5625 C23.0577223,76.5625 22.0280811,80.03125 19.375975,79.78125 C16.723869,79.5625 16.474259,84 11.1388456,84.0625 C7.08268331,84.09375 2.09048362,88.84375 0.249609984,86.78125 C4.21216849,86.21875 5.80343214,84.03125 8.14352574,81.625 C11.8876755,77.78125 16.1622465,79.5 17.6287051,76.09375 C15.9444978,77.2320578 13.9502925,77.8214313 11.9188768,77.78125 C9.42277691,77.71875 6.73946958,81.71875 3.9625585,79.96875 C5.55382215,79.75 6.61466459,79.0625 8.29953198,77.28125 C10.0156006,75.46875 12.574103,76.65625 14.5709828,74.78125 C17.6911076,71.90625 20.4056162,74.3125 23.400936,70.71875 C22.5585023,70.28125 20.74883,70.5625 19.0639626,71.46875 C17.3790952,72.34375 15.226209,70.84375 13.2917317,71.90625 C13.5101404,69.53125 18.0343214,70.875 20.8424337,69.25 C24.024961,67.375 26.6458658,67.9375 29.1419657,68.15625 C25.6474259,68.15625 24.3057722,64.8125 19.4695788,65.78125 C17.3790952,66.21875 15.6942278,62.875 13.6037441,64.5625 C13.6661466,63.3125 15.850234,62.3125 18.0967239,63.53125 C20.3432137,64.75 21.2480499,62.46875 25.7410296,65.3125 C27.6131045,66.46875 30.7644306,64.5625 32.7613105,65.8125 C32.5117005,65.0625 31.3572543,64.5625 30.0156006,64.6875 C30.8580343,62.9375 36.3182527,63.15625 38.6895476,64.90625 Z" id="Shape" fill-rule="nonzero"></path>
                        <path d="M42.2464899,62.28125 C40.49922,60.90625 38.0343214,62.5625 36.3182527,61.90625 C36.3182527,63.03125 36.9110764,64.71875 38.7519501,65.375 C39.3135725,64.96875 41.8720749,62.75 42.2464899,62.28125 Z" id="Path"></path>
                        <path d="M45.0234009,58.375 C42.2464899,56.96875 41.7784711,60.46875 39.5943838,59.75 C39.6879875,60.75 40.49922,62 42.2464899,62.28125 L45.0546022,58.375 L45.0234009,58.375 Z" id="Path"></path>
                        <path d="M46.6770671,55.1875 C42.5897036,53.59375 42.0592824,57.53125 39.6567863,56.75 C40.2184087,58.125 43.650546,58.875 45.4290172,58.375 L46.6770671,55.1875 Z M52.2932917,37.9375 C51.201248,36.375 48.9235569,37.625 48.549142,39.46875 C48.2059282,41.28125 49.0795632,43.8125 50.6084243,43.21875 L52.2932917,37.90625 L52.2932917,37.9375 Z" id="Shape" fill-rule="nonzero"></path>
                        <path d="M55.0702028,33.125 C53.1981279,32.65625 51.0140406,32.875 51.2636505,34.6875 C50.5148206,35.03125 50.3276131,37.40625 52.2932917,37.9375 L55.0702028,33.09375 L55.0702028,33.125 Z" id="Path"></path>
                        <path d="M56.3182527,31.875 C54.4461778,29.6875 52.4180967,29.71875 51.2636505,30.625 C49.1107644,32.34375 47.0514821,31.375 46.9890796,33.0625 C48.2683307,32.0625 49.4227769,33.25 50.4212168,32.90625 C51.4820593,32.53125 52.2620905,34.5625 55.1638066,33.71875 L56.3182527,31.84375 L56.3182527,31.875 Z M51.8564743,64.34375 C52.1372855,64.875 53.8533541,65.09375 54.6957878,64.21875 C55.8190328,63.03125 54.6021841,59.78125 52.8237129,59.53125 C51.0452418,59.3125 50.8892356,63.21875 51.8564743,64.34375 Z" id="Shape" fill-rule="nonzero"></path>
                        <path d="M49.8595944,64.40625 C52.3556942,65.34375 53.4477379,63.25 52.1060842,61.90625 C51.4141361,62.7891468 50.6636081,63.6243698 49.8595944,64.40625 Z" id="Path"></path>
                        <path d="M40.374415,67.875 C39.875195,69.34375 37.3790952,69.5625 34.5709828,74.0625 C31.7628705,78.59375 29.0795632,76.6875 28.3931357,79.78125 C31.7628705,77.0625 34.4149766,78.84375 36.4430577,76.15625 C39.4695788,72.0625 41.9968799,72.65625 43.1825273,69.90625 C44.8673947,65.9375 52.2308892,66.03125 52.6677067,59.8125 C50.1716069,59.34375 42.2776911,66.03125 40.374415,67.875 Z M103.775351,7.03125 C106.98908,8.09375 107.051482,12.25 110.764431,13.625 C114.446178,15 114.820593,18.3125 117.847114,17.5 C115.039002,16.71875 115.226209,13.46875 112.293292,12.65625 C108.861154,11.71875 107.550702,6.46875 104.804992,5.65625 L103.775351,7.03125 Z M118.533541,28.875 C119.095164,30.1875 119.00156,32.46875 116.973479,33.0625 C118.065523,33.75 119.687988,33.125 120.561622,31.625 C119.25117,34.5625 120.124805,37.21875 122.215289,37.75 C121.216849,35.6875 123.463339,34.71875 122.74571,33.375 C124.056162,33.96875 125.24181,35.78125 125.179407,36.90625 C126.926677,34.96875 123.931357,32.375 124.461778,30.5625 L118.533541,28.875 Z M97.6599064,49.5625 C95.6942278,47.84375 94.8517941,50.03125 93.9157566,49.25 C92.9797192,48.5625 91.7940718,48.46875 91.326053,49.15625 C93.0109204,49.21875 92.199688,50.53125 95.475819,50.84375 C92.199688,51.0625 92.7925117,54.75 90.6084243,54.5625 C92.9173167,56.75 94.1341654,52.59375 96.0374415,53.28125 C95.475819,53.4375 96.9110764,54.75 95.9126365,56.53125 C97.5351014,56.5 98.1903276,54.25 98.4087363,53.09375 L97.6599064,49.5625 Z M54.2901716,68.375 C53.6037441,67.75 51.4820593,67.46875 50.7020281,67.96875 C49.8907956,68.4375 50.1716069,68.59375 51.1388456,68.65625 C52.1060842,68.71875 53.3229329,70.28125 51.2636505,70.375 C50.2964119,70.40625 50.6396256,72.75 48.6115445,72.90625 C49.4227769,73.90625 51.7940718,73.25 52.6365055,72.15625 C52.4804992,73.0625 53.6661466,73.875 53.1981279,74.96875 C54.6645866,75.125 53.8221529,71.9375 56.1622465,72.09375 C55.226209,72.21875 55.600624,74.40625 57.2854914,73.84375 C56.2870515,74.3125 56.8174727,75.5 57.9095164,75.21875 C57.2230889,75.4375 56.9734789,76.375 57.9719189,76.90625 C58.9391576,75.5625 57.8471139,70.8125 54.3213729,68.375 L54.2901716,68.375 Z M141.840874,23.96875 C143.930145,24.125482 145.931265,23.0978989 147.023714,21.3073413 C148.116162,19.5167837 148.116162,17.2644663 147.023714,15.4739087 C145.931265,13.6833511 143.930145,12.655768 141.840874,12.8125 C138.92634,13.0311411 136.673003,15.4633612 136.673003,18.390625 C136.673003,21.3178888 138.92634,23.7501089 141.840874,23.96875 Z" id="Shape" fill-rule="nonzero"></path>
                        <path d="M112.76131,30.6875 C114.477379,29.09375 117.035881,28.28125 118.814353,29.5 C120.561622,30.6875 126.427457,32.125 129.329173,30.125 C132.230889,28.125 133.603744,27.0625 134.882995,27.3125 C135.819033,28.75 137.00468,29.4375 138.439938,29.5625 C138.876755,30.0625 140.468019,30.4375 141.341654,30.34375 C142.620905,30.65625 144.180967,30.25 145.429017,28.875 C147.363495,29.1875 149.173167,27.71875 149.859594,25.53125 C151.918877,25.3125 152.043682,23.03125 150.733229,21.46875 C149.547582,21.25 150.452418,17.15625 146.084243,17.96875 C147.956318,19.09375 146.521061,21.34375 148.049922,22.40625 C147.020281,22.40625 145.647426,22.84375 145.335413,24.40625 C145.74103,23.34375 145.273011,22.59375 145.023401,22.375 C145.023401,21.4375 142.99532,19.15625 141.060842,20 C142.433697,20.3125 141.684867,22.5 142.683307,23.375 C141.915477,23.4063089 141.203581,23.7858134 140.74883,24.40625 C140.218409,23.46875 138.377535,22.53125 137.25429,22.4375 C137.25429,22.125 137.191888,21.5 137.035881,21.15625 C136.536661,20.1875 136.099844,19.03125 136.318253,17.5625 C135.405797,18.6382221 134.649508,19.8375517 134.071763,21.125 C132.542902,20.0625 128.767551,21.59375 126.98908,22 C125.24181,22.40625 119.282371,21.4375 117.940718,20 C116.03125,18.4712029 113.784853,17.421246 111.388456,16.9375 C107.956318,15.9375 107.956318,12.1875 104.180967,9.59375 C104.087363,14.28125 111.170047,29.09375 112.76131,30.6875 Z M73.3853354,66.28125 C76.3664668,66.28125 78.7831513,63.8607894 78.7831513,60.875 C78.7831513,57.8892106 76.3664668,55.46875 73.3853354,55.46875 C70.404204,55.46875 67.9875195,57.8892106 67.9875195,60.875 C67.9875195,63.8607894 70.404204,66.28125 73.3853354,66.28125 Z" id="Shape" fill-rule="nonzero"></path>
                        <path d="M60.5304212,62.125 C61.6224649,63.53125 63.4633385,63.4375 64.2433697,63.34375 C64.8673947,65.03125 66.9266771,64.96875 67.800312,65.90625 C68.7051482,66.84375 71.700468,66.75 72.574103,66.21875 C71.7940718,66.15625 70.7332293,65.65625 69.7659906,64.8125 C68.5179407,63.8125 69.0795632,61.75 68.1435257,61.0625 C68.7391017,60.3030122 68.9882276,59.3276346 68.8299532,58.375 C69.5787832,57.9375 70.1404056,57.21875 70.2028081,56.84375 C71.3222076,56.7896269 72.3850539,56.3349937 73.1981279,55.5625 C73.8845554,56.1875 75.600624,55.375 76.5366615,56.4375 C76.723869,53.78125 74.1965679,52.375 72.4804992,53.28125 C71.825273,52.90625 70.0156006,53.15625 69.6723869,53.625 C69.1419657,53.375 67.550702,54.1875 66.8642746,54.71875 C67.6443058,54.28125 67.7691108,52.9375 67.4570983,52.46875 C68.1435257,52.15625 68.8923557,51.25 68.9859594,50.59375 C69.9219969,50.75 71.3884555,50.09375 72.0124805,50.25 C70.9828393,48.875 69.2667707,48.375 67.4882995,48.53125 C65.6474259,48.625 64.8673947,49.90625 64.6177847,51.28125 C63.5569423,51.9375 63.1825273,54.09375 63.5881435,54.875 C62.9641186,54.875 62.3712949,55.46875 62.1528861,55.8125 C61.2210376,55.4282101 60.2273042,55.2164471 59.2199688,55.1875 L60.5304212,62.125 Z M59.625585,53 C59.25117,51.9375 59.7191888,51 59.9687988,50.1875 C60.5928237,48.0625 60.2184087,47.5 58.3151326,47.78125 C58.4273266,49.5868188 58.8715994,51.3560921 59.625585,53 Z" id="Shape" fill-rule="nonzero"></path>
                        <path d="M58.2215289,47.90625 C58.7207488,48.40625 60.4056162,48.625 60.5928237,47.09375 C60.8112324,45.34375 60.0936037,44.65625 58.5647426,45.34375 C58.4399376,45.75 58.3151326,47.375 58.2527301,47.90625 L58.2215289,47.90625 Z" id="Path"></path>
                        <path d="M58.5959438,45.28125 C59.2199688,45.53125 60.624025,46.0625 61.4040562,44.5625 C62.0280811,43.3125 61.1856474,42.375 59.8439938,42.4375 C59.5319813,42.8125 58.9079563,44.09375 58.5959438,45.28125 Z" id="Path"></path>
                        <path d="M59.7815913,42.3125 C59.9375975,42.8125 61.5912637,44.40625 62.7769111,43.25 C63.9937598,42.09375 63.9937598,40.34375 62.1840874,39.71875 C61.7160686,39.78125 60.24961,41.46875 59.7815913,42.3125 Z" id="Path"></path>
                        <path d="M62.1840874,39.6875 C62.5273011,40.71875 63.6817473,42.4375 65.7722309,41.65625 C67.8627145,40.84375 66.9578783,38.21875 65.9906396,37.6875 C64.5928383,38.0878325 63.2955287,38.780102 62.1840874,39.71875 L62.1840874,39.6875 Z" id="Path"></path>
                        <path d="M65.9906396,37.6875 C65.8346334,38.59375 65.9906396,41 68.8611544,40.96875 C71.700468,40.90625 70.9204368,37.5625 70.1716069,37.09375 C69.0171607,37.09375 67.0514821,37.125 65.9906396,37.71875 L65.9906396,37.6875 Z" id="Path"></path>
                        <path d="M70.2964119,37.1875 C69.9843994,37.90625 69.2667707,42.40625 74.8517941,41.15625 C75.5694228,41 77.4414977,36.84375 70.2964119,37.21875 L70.2964119,37.1875 Z" id="Path"></path>
                        <path d="M73.3541342,37.625 C72.7925117,38.1875 74.2277691,42.71875 78.0343214,41.96875 C81.7784711,41.1875 78.6271451,36.875 73.3541342,37.59375 L73.3541342,37.625 Z" id="Path"></path>
                        <path d="M76.5678627,38.3125 C75.9438378,39.5625 76.8798752,43.25 81.5288612,43.25 C85.7410296,43.25 81.3104524,38.375 76.5678627,38.3125 Z" id="Path"></path>
                        <path d="M80.2184087,39.375 C79.9063963,40.09375 79.5631825,44 85.0546022,44.34375 C89.0171607,44.59375 88.049922,38.9375 80.2184087,39.375 Z" id="Path"></path>
                        <path d="M86.1154446,41.03125 C85.4602184,42.25 84.7425897,45.25 90.7644306,45.5 C94.6021841,45.65625 92.2308892,41.125 86.1466459,41.03125 L86.1154446,41.03125 Z" id="Path"></path>
                        <path d="M91.1388456,41.96875 C90.2652106,43.15625 90.9204368,45.53125 93.1669267,45.96875 C95.975039,46.53125 96.3806552,43.875 94.4461778,42.59375 C92.5117005,41.34375 91.1388456,41.96875 91.1388456,41.96875 Z" id="Path"></path>
                        <path d="M93.9157566,42.5 C93.2605304,43.65625 93.6349454,46.375 97.9095164,46.375 C98.7831513,46.375 102.152886,42.9375 93.8845554,42.53125 L93.9157566,42.5 Z M60.8736349,95 C64.3200296,95 67.1138846,92.2017797 67.1138846,88.75 C67.1138846,85.2982203 64.3200296,82.5 60.8736349,82.5 C57.4272403,82.5 54.6333853,85.2982203 54.6333853,88.75 C54.6333853,92.2017797 57.4272403,95 60.8736349,95 Z" id="Shape" fill-rule="nonzero"></path>
                        <path d="M106.73947,3.96875 C106.065897,4.72064467 105.498946,5.56188449 105.054602,6.46875 C102.964119,12.71875 108.549142,17.40625 111.794072,24.1875 C114.507915,30.3905441 113.847956,37.5551992 110.046802,43.15625 C108.673947,44.96875 109.079563,45.5 107.301092,47.34375 C106.614665,48.0625 105.865835,48.96875 106.115445,51.53125 C107.23869,51.125 108.829953,52.15625 109.141966,53.09375 C109.953198,52.65625 111.076443,52.8125 111.482059,53.3125 C112.854914,52.6875 113.978159,53 115.195008,54.25 C116.224649,54.125 117.379095,54.25 118.408736,55.40625 C118.970359,54.28125 120.093604,53.84375 120.904836,54.125 C120.811232,52.65625 122.24649,51.625 123.525741,52.1875 C123.321977,51.3472775 123.590233,50.462529 124.226082,49.8776739 C124.861931,49.2928188 125.764895,49.1002762 126.583463,49.375 C128.049922,48.25 130.951638,48.15625 132.386895,49.84375 C129.797192,49.125 129.890796,51.875 127.706708,51.625 C128.268331,53.21875 126.833073,54.15625 125.397816,54.6875 C126.333853,54.25 127.332293,53.71875 127.644306,54.28125 C128.455538,53.5625 130.046802,53.84375 130.452418,54.1875 C131.513261,53.875 132.542902,54.125 133.01092,55.40625 C134.477379,56.28125 135.444618,58.53125 134.383775,60.21875 C134.071763,58.46875 132.854914,58.53125 132.386895,57.8125 C131.263651,58.21875 130.140406,58.21875 129.797192,57.5 C129.173167,58.125 126.98908,58.71875 126.053042,57.75 C125.678627,59.1875 124.430577,60.40625 122.964119,60.40625 C123.369735,61.53125 122.24649,63.4375 121.372855,64.40625 C122.74571,65.125 122.308892,66.75 121.99688,67.71875 C124.118565,68.03125 122.308892,69.90625 125.959438,71.09375 C124.180967,71.65625 120.717629,71.09375 120.24961,68.90625 C118.471139,68.84375 117.285491,67.0625 117.347894,65.21875 C115.975039,63.9375 115.787832,62.09375 117.659906,60.78125 C116.068643,61.28125 115.163807,58.6875 112.854914,59.75 C111.700468,60.28125 108.642746,59.375 108.673947,58.3125 C108.205928,59.09375 105.24181,58.78125 104.867395,57.40625 C103.900156,57.9375 101.653666,57.0625 101.684867,55.71875 C100.436817,56.28125 98.7519501,55.28125 98.8455538,54 C97.6599064,53.84375 97.5351014,52.78125 97.5975039,51.90625 C96.5678627,51.40625 96.8486739,50.40625 97.2854914,49.21875 C96.5366615,48.40625 96.8486739,47.28125 97.4102964,46.21875 C96.6302652,45.40625 96.7862715,44.46875 97.0046802,43.3125 C93.1669267,43 88.3307332,42.0625 77.2542902,38.65625 C60.5304212,33.5 56.0374415,45.59375 59.7191888,53.15625 C63.9937598,61.90625 59.25117,63.78125 60.6864275,70.28125 C62.2464899,70.59375 63.0265211,71.90625 62.9329173,73.28125 C63.8689548,73.3125 64.4929797,74.15625 64.1809672,75.78125 C65.0399023,75.6397767 65.915781,75.9052594 66.5522621,76.5 C67.1138846,75.4375 68.9859594,75.1875 69.9219969,76.40625 C72.0124805,76.25 73.0733229,77.96875 72.9797192,80.03125 C74.0082356,81.9617167 73.8256716,84.3143764 72.5117005,86.0625 C72.6365055,85.21875 72.5117005,84.03125 72.4804992,83.28125 C72.3868955,81.96875 70.5460218,81.6875 70.7332293,80.59375 C69.7971919,80.6875 68.8611544,80.15625 68.549142,79.4375 C67.9823418,79.927297 67.1997762,80.0816795 66.4898596,79.84375 C67.550702,80.3125 68.424337,82.25 68.0811232,83.53125 C68.6427457,84.5 68.5179407,86.28125 67.8627145,87.03125 C67.550702,88.59375 66.3026521,89.15625 64.7425897,88.46875 C65.6474259,87.90625 65.9594384,86.90625 65.9282371,86.0625 C65.4017939,85.5353698 65.0808675,84.8370956 65.0234009,84.09375 C63.4633385,84.34375 61.2792512,83 60.9048362,82.46875 C59.2443989,82.4687292 57.6524202,83.1314975 56.4812453,84.3103673 C55.3100705,85.4892372 54.6562844,87.0869891 54.6645866,88.75 C54.4773791,87.46875 52.8549142,86.1875 53.0733229,85.09375 C52.1060842,82.125 53.4789392,79.34375 57.4102964,78.78125 C56.9110764,77.65625 58.5959438,76.5 57.9719189,75.21875 C56.7188562,72.9363287 55.1772953,70.8251866 53.3853354,68.9375 C54.7581903,66.59375 54.3213729,63.46875 53.5413417,61.53125 C52.3868955,58.75 51.2948518,59.4375 47.2074883,63.9375 C40.5304212,71.28125 31.6068643,69.25 23.7441498,74.09375 C21.6536661,75.34375 19.5631825,75.84375 21.8096724,73.59375 C24.0561622,71.34375 29.9843994,69.09375 33.8533541,67.15625 C41.0920437,63.53125 47.2074883,57.5 49.6099844,45.75 C55.2574103,18.125 76.1310452,27.25 89.2979719,32.375 C101.684867,37.21875 99.4383775,26.28125 93.1669267,19.65625 C85.6162246,11.75 87.1450858,5.5 90.6708268,0.5 C97.0046802,-0.375 109.204368,1.84375 106.73947,3.96875 Z" id="Path"></path>
                        <path d="M129.141966,71.8125 C131.599908,71.8125001 133.871141,70.4991544 135.100113,68.3671876 C136.329084,66.2352207 136.329084,63.6085293 135.100113,61.4765624 C133.871141,59.3445956 131.599908,58.0312499 129.141966,58.03125 C125.350932,58.03125 122.277691,61.1092923 122.277691,64.90625 C122.277691,68.7032077 125.350932,71.78125 129.141966,71.78125 L129.141966,71.8125 Z" id="Path"></path>
                    </g>
                    <g transform="translate(21.528861, 21.250000)" stroke="#000000" stroke-width="0.2">
                        <path d="M81.3728549,4.90625 C79.8127925,11.6875 81.1232449,14.75 83.3697348,17.71875 C88.0187207,23.875 91.7316693,37.90625 86.4274571,47.09375" id="Path"></path>
                        <g stroke-linecap="round" transform="translate(31.513261, 11.875000)" id="Shape">
                            <path d="M57.8783151,27.28125 C58.5023401,27.0625 59.75039,26.28125 60,24.96875 M58.3775351,24.34375 C58.5647426,23.1875 60.374415,22.6875 60.4056162,21.4375 M58.4087363,19.8125 C58.2839314,18.59375 60.2184087,17.5 59.9375975,16.3125 M57.3478939,15.46875 C57.1918877,14.78125 58.9703588,13.5 58.4711388,12.40625 M56.0374415,11.21875 C55.6630265,10.46875 56.8798752,9.59375 56.349454,8.78125 M54.1029641,7.84375 C53.9781591,7.34375 54.7269891,6.1875 54.3213729,5.5 M52.1684867,3.875 C52.324493,3.65625 52.9797192,3.1875 52.7301092,2.59375 M50.8580343,0.9375 C51.1076443,0.8125 51.8876755,0.5625 51.7940718,0"></path>
                            <path d="M10.6084243,76.84375 C9.04836193,76.28125 7.02028081,77.0625 6.61466459,78.4375 M7.83151326,79.6875 C8.01872075,78.3125 10.1092044,77.71875 10.7332293,78.34375 C9.42277691,77.625 8.7675507,80.21875 9.95319813,80.28125 M20.74883,47.84375 C19.8127925,48.34375 19.50078,50.09375 20.74883,51.4375 M22.1840874,48.25 C21.5288612,48.8125 21.5600624,50.5 22.5585023,50.90625 C21.7160686,50.28125 22.5585023,49.25 23.1825273,49.21875 C23.775351,49.1875 24.1809672,49.90625 23.4321373,50.625 M78.6583463,52.25 C76.4118565,51.625 74.6021841,54.25 76.6614665,56.59375 C76.599064,54.34375 78.2215289,52.84375 80.1872075,53.25 M79.25117,54.8125 C78.7859068,54.8125 78.4087363,55.1902597 78.4087363,55.65625 C78.4087363,56.09375 78.7831513,56.53125 79.4071763,56.53125 C79.8127925,56.53125 80.1560062,56.0625 80.1560062,55.6875 M87.2074883,5.375 C87.5819033,6.75 89.4539782,7.34375 90.9516381,7 M90.9516381,6.125 C89.7971919,6.15625 88.8299532,5.0625 88.8923557,4.15625 C88.8923557,4.84375 90.4524181,5.15625 90.9516381,4.71875" stroke-linejoin="round"></path>
                            <path d="M11.201248,52.09375 C10.8892356,51.28125 12.1372855,50.46875 12.199688,49.71875 C12.2308892,48.9375 13.6349454,48.34375 15.1014041,49.78125 M14.4149766,41.21875 L13.6349454,41.59375 M17.1918877,45.59375 C16.8486739,45.59375 16.1310452,45.59375 15.7566303,45.3125 M15.7566303,47.125 C15.5070203,47.28125 14.8829953,47.5 14.5085803,47.59375 M1.99687988,71.4375 C1.93447738,72.15625 2.68330733,73.21875 3.05772231,73.53125 M5.11700468,69.71875 C4.67025734,70.4242839 4.52418035,71.2796069 4.71138846,72.09375 M11.1076443,72.09375 C10.3900156,71.625 10.8580343,70.40625 10.7956318,69.59375 C10.7020281,68.78125 11.6380655,67.5 13.4477379,68.59375 M4.36817473,67.5 C5.08580343,67.375 5.83463339,67.40625 6.33385335,67.625 M13.5101404,65.21875 C13.2589907,65.5905388 13.1084786,66.0212452 13.0733229,66.46875 M16.9110764,65.125 C16.349454,65.125 15.850234,65.53125 15.600624,65.9375 M9.11076443,44.53125 C9.73478939,44.75 11.4196568,45.78125 11.4820593,46.84375 M15.9438378,39.28125 C13.9781591,39.25 13.1981279,37.25 14.6957878,37.25 M19.4695788,42 C18.7207488,42.3125 19.0639626,43.625 20.1560062,44.28125 M14.7581903,54.625 C14.3837754,54.125 14.8829953,52.75 16.1310452,53.15625 M17.6911076,69.3125 C17.7847114,68.0625 19.3135725,67.375 19.9375975,68.75 M11.9812793,72.8125 C11.8876755,71.46875 12.6053042,71.03125 13.1669267,70.9375 C13.7909516,70.875 14.6333853,71.375 15.0390016,72.25 M0.031201248,73.8125 C0.0936037441,73 0.780031201,72.15625 1.49765991,72.28125 M73.5725429,38.09375 C73.0421217,38.46875 72.698908,40.1875 74.6645866,40.34375 M70.5148206,40.9375 C70.5148206,41.125 70.7644306,41.40625 70.9204368,41.5625 M79.9687988,44.15625 C79.4695788,43.75 78.0967239,45.40625 79.3447738,46.5625 M67.1762871,57.6875 C66.8954758,56.53125 67.9563183,56.21875 68.9859594,56.46875 M64.6177847,49.53125 C65.2418097,49.15625 65.8658346,48.6875 66.6146646,48.5 M64.3057722,53.96875 C64.3057722,53.03125 64.8049922,52.1875 65.2418097,51.96875 M67.8627145,42.875 C67.8156929,43.8871905 68.0768358,44.8898023 68.6115445,45.75 M77.4102964,42.9375 C76.8174727,43.125 76.3182527,43.34375 76.099844,43.84375 M76.7550702,46.25 C77.0670827,46 77.3790952,45.71875 77.5039002,45.53125 M91.950078,11.09375 C91.950078,12.21875 90.5460218,12.84375 89.6099844,12.125 M95.0078003,11.15625 C95.6318253,11.625 97.7847114,11.15625 97.2854914,9.90625 M92.3556942,17.625 C91.77215,17.4536703 91.2445317,17.130134 90.8268331,16.6875 M96.7862715,14.28125 C96.0686427,14.4375 95.5694228,14.28125 95.226209,14.125 M85.3666147,18.3125 C86.0690468,18.2821043 86.7584366,18.1121433 87.3946958,17.8125 M84.2433697,11.1875 C83.7129485,11.125 83.3073323,11.21875 83.0265211,11.4375 M92.324493,13.15625 C92.168949,13.7743634 91.8448661,14.3369848 91.3884555,14.78125"></path>
                            <path d="M82.8393136,14.9375 C83.8377535,14.5 85.0858034,17.90625 87.5195008,16.71875 M87.7067083,13.15625 C87.3685361,13.6796978 87.1747634,14.2834883 87.1450858,14.90625" stroke-linejoin="round"></path>
                        </g>
                        <path d="M71.1388456,19.8125 C71.450858,19.75 72.0436817,19.65625 72.1684867,19.25 M29.7971919,57.28125 C31.0140406,57.96875 31.8564743,59.125 31.3572543,60.84375 M85.0546022,16.09375 C85.4290172,16.34375 86.7706708,16.34375 87.550702,16.09375 M88.4867395,16.90625 C88.4867395,17.46875 88.6427457,19.59375 87.550702,20.03125 M87.9563183,19.78125 C88.9547582,20.09375 90.9516381,19.96875 91.6068643,18.125 M90.2028081,19.6875 C90.7332293,20.5 90.8892356,22.0625 89.3291732,22.90625 M90.5772231,21.03125 C91.7628705,21.40625 94.4461778,21.46875 94.1653666,19.15625 M93.2293292,21.03125 C94.0717629,22.125 97.5975039,23.46875 97.0358814,21.125 M90.0156006,24.25 C91.3572543,24.59375 93.2917317,23.65625 92.5117005,21.25 M96.349454,22.46875 C96.5366615,23.40625 101.029641,24.34375 100.436817,22.25 M99.5943838,23.46875 C100.436817,25.40625 104.898596,25.25 103.49454,22.65625 M102.776911,24.6875 C103.650546,25.75 107.613105,25.125 106.021841,22.5 M105.99064,24.625 C108.455538,26.5 111.294852,23.84375 108.174727,21.90625 M109.609984,24.03125 C111.794072,25.75 114.446178,22.625 112.542902,21.75 M92.449298,23.3125 C93.1357254,23.5 94.5709828,23.4375 94.9141966,22.1875 M94.3525741,23.03125 C94.2901716,24.84375 97.3478939,25.53125 98.1279251,23.4375 M97.0982839,24.59375 C97.6599064,25.8125 100.374415,26.28125 100.811232,24.5625 M100.374415,25.375 C100.811232,26.5625 103.151326,26.4375 103.806552,25.1875 M102.932917,26 C103.650546,27.5625 106.645866,27.5625 107.301092,25.28125 M106.801872,26.28125 C107.956318,27 110.452418,26.71875 110.234009,24.46875 M109.765991,26.09375 C111.513261,27.5 113.946958,26.125 112.730109,23.75 M112.636505,27.9375 C113.572543,27.78125 114.040562,25.9375 113.073323,25.4375 M91.2324493,28.25 C93.1045242,27.21875 93.5101404,25.4375 92.1684867,23.71875 M92.8549142,26.5 C94.0717629,27.21875 96.349454,26.4375 96.7550702,24.6875 M94.5085803,26.6875 C95.1950078,27.5625 95.3198128,28.65625 94.4149766,29.65625 M95.0390016,27.8125 C97.1918877,26.5 99.8439938,28.9375 97.8471139,30.4375 M97.5351014,27.6875 C98.0031201,27.5625 98.8455538,26.6875 98.9079563,25.6875 M98.4711388,28.625 C99.375975,27.6875 105.397816,29.5625 101.591264,31.53125 M101.279251,26.09375 C102.464899,26.53125 103.057722,28.1875 101.279251,28.75 M102.839314,30.125 C104.087363,28.78125 108.143526,29.625 106.677067,31.3125 M105.709828,29.59375 C106.427457,27.125 110.733229,28.65625 109.329173,29.65625 M104.836193,27.15625 C104.960998,27.625 104.9922,28.8125 104.212168,29.46875 M108.455538,26.65625 C108.631942,27.2173346 108.539825,27.8285622 108.205928,28.3125 M111.170047,26.6875 C111.419657,27.125 111.794072,27.96875 110.920437,28.65625 M76.7862715,8.1875 C76.8174727,10.46875 77.6287051,12 80.7176287,10.5625 M77.7535101,10.90625 C76.1934477,12.96875 77.9407176,15.1875 80.9672387,12.96875 M73.0109204,11.875 C75.1014041,14.125 78.8455538,12.5 76.4430577,9.0625 M78.9391576,13.8125 C78.5647426,16.03125 80.374415,16.46875 81.8408736,15.46875 M71.1700468,12.25 C71.5444618,14.46875 73.8221529,16.21875 76.0374415,14.875 M73.8845554,15.3125 C73.8845554,18.5 78.2527301,18.84375 79.2823713,15.5625 M77.7223089,17.5625 C79.1263651,20.46875 82.1840874,19.28125 83.1825273,17.53125 M74.6333853,12.9375 C75.1950078,14.34375 76.3182527,15.90625 78.9079563,14.75 M66.5834633,12.25 C66.9578783,13.40625 69.0483619,14.8125 71.450858,13.1875 M68.0811232,13.75 C66.7706708,15.625 69.3291732,17.40625 72.449298,14.59375 M69.6099844,16.0625 C70.1092044,18.71875 71.1700468,20.875 74.9141966,17.4375 M73.0421217,18.8125 C74.4149766,20.5 76.5054602,21.53125 78.4711388,18.6875" id="Shape"></path>
                        <path d="M79.9687988,19.3125 C79.8439938,21.34375 80.2184087,22.34375 81.8096724,22.25 C83.0577223,22.1875 84.2121685,21.21875 84.8985959,20.15625 M81.5288612,22.25 C81.4664587,24.5625 83.276131,26.375 86.6770671,24.03125 M82.9329173,24.96875 C82.3088924,26.6875 84.2121685,29.5 87.9875195,28.0625 M74.9141966,20.375 C74.6957878,22.5625 76.723869,24.0625 80.0312012,21.21875 M76.5366615,22.8125 C76.6614665,24.625 78.7207488,26.8125 81.7160686,23.65625 M77.9719189,25.125 C77.7535101,28.21875 80.5928237,29.09375 82.9953198,26.71875 M73.6973479,22.8125 C74.3213729,22.875 74.8517941,22.3125 75.1638066,21.875 M75.0390016,25.0625 C75.600624,25.1875 76.599064,24.6875 76.9110764,24.03125 M76.474259,28.71875 C77.0982839,29.4375 79.2823713,28.9375 79.5631825,28 M78.8767551,28.6875 C80.0624025,31.5 83.276131,31.40625 84.6177847,28.21875 M83.9937598,29.34375 C84.6177847,31 86.1466459,32.03125 88.6427457,31.46875 M85.2106084,31.03125 C83.8065523,33.3125 85.6474259,36.03125 88.798752,33.375 M85.9906396,34.46875 C85.8346334,35.90625 87.1450858,37.5625 88.9547582,37.75 M80.0312012,30.25 C79.5631825,33.5 81.9032761,35.0625 84.8049922,33.3125 M76.6302652,31.8125 C77.3790952,32.40625 78.7519501,32.46875 80.0624025,32 M81.6224649,33.875 C80.8736349,36.625 83.6817473,38.59375 86.0842434,35.53125 M77.6911076,32.25 C77.7535101,33.65625 79.0951638,35.1875 81.4664587,34.75 M88.1123245,37.5625 C86.4898596,38.625 86.1778471,40.5625 88.424337,41.8125 M84.1809672,37 C84.2433697,38.625 85.0234009,39.5625 86.8330733,39.71875 M81.8096724,36.15625 C79.375975,38.34375 81.7472699,40.9375 84.6177847,38.75 M83.4945398,39.4375 C82.6833073,41.96875 85.6786271,43.5 87.301092,40.9375 M78.5023401,34.0625 C77.6287051,36.5625 78.7519501,38.1875 80.8112324,38.03125 M75.3198128,33.5625 C75.4446178,35.0625 76.723869,35.59375 78.1903276,35.25 M76.2558502,35.125 C75.1638066,37.21875 76.8174727,38.34375 79.0015601,37.5625 M85.5538222,42.25 C85.2418097,43.5625 85.4290172,44.5 87.3946958,44.96875 M85.7098284,44.125 C83.3385335,45.1875 83.1201248,47.5 84.9609984,48.96875 M83.775351,41.5625 C83.1996768,42.0668425 82.9022251,42.818319 82.9764904,43.5807271 C83.0507556,44.3431351 83.4876188,45.0228592 84.149766,45.40625 M73.2293292,34.21875 C71.8876755,35.5625 73.1669267,39.28125 76.1934477,37.25 M81.0920437,38.90625 C79.2199688,40.46875 80.0624025,43.21875 83.1201248,42.46875 M78.0343214,37.78125 C77.0670827,40.5 77.9719189,41.46875 80.1560062,41.5" id="Shape"></path>
                        <path d="M71.2324493,34.09375 C70.6274396,34.5093271 70.229654,35.1650273 70.1401286,35.894305 C70.0506031,36.6235827 70.2779525,37.3562639 70.7644306,37.90625 C71.4820593,38.71875 72.8549142,38.34375 73.2605304,37.3125 M67.7691108,33 C65.9282371,35.375 67.7691108,38.1875 70.3900156,37.375 M77.6599064,40.0625 C75.7878315,40.71875 74.3213729,42.4375 75.475819,43.96875 C76.1934477,44.84375 79.1575663,44.96875 80,41.53125 M74.2589704,37.84375 C73.1669267,39.40625 73.5101404,40.90625 75.5070203,41.65625 M74.1341654,40.78125 C72.9485179,41.40625 72.199688,42.1875 72.4804992,43.59375 M71.5132605,38.3125 C71.0764431,40.1875 71.6068643,41.375 72.7613105,41.9375 M71.4820593,40.5625 C69.6723869,40.4375 68.7363495,41.1875 69.3603744,43 M69.5163807,41 C67.7379095,40.375 67.4570983,38.8125 68.2371295,37.25 M67.9875195,39.625 C66.0530421,39.6875 65.1794072,40.65625 65.1794072,41.96875" id="Shape"></path>
                        <path d="M65.3666147,32.09375 C63.9625585,32.6875 63.4945398,34.59375 64.024961,35.625 C64.5553822,36.65625 66.2090484,36.75 67.2074883,36.0625 M61.4664587,30.59375 C60.1872075,32.03125 61.6536661,34.875 63.9625585,34.1875 M58.1591264,29.46875 C56.9734789,31.15625 58.2839314,33.96875 61.3728549,33.15625 M61.5288612,41 C61.2168487,39 63.3073323,37.6875 65.8970359,40.28125 M64.648986,36.21875 C63.903549,36.8897912 63.5212773,37.875969 63.6193448,38.875 M54.8829953,28.5 C53.5413417,30.75 55.1638066,32.8125 58.0031201,32 M62.3088924,34.09375 C60.4368175,35.96875 61.0608424,37.875 62.4648986,38.96875 M61.0920437,36.3125 C58.2527301,36.34375 58.0967239,39.65625 60.4056162,40.6875 M58.9391576,33 C57.7535101,33.8125 57.3790952,36.03125 59.4071763,36.90625 M58.8455538,37.96875 C57.6287051,37.40625 56.1934477,38.09375 56.3182527,39.5 M57.0358814,38 C55.9438378,35.4375 52.7925117,35.875 53.0733229,38.53125 M57.9095164,34.8125 C57.2542902,34.9375 55.8814353,35.34375 55.351014,36.375 M55.5382215,31.90625 C55.0284376,32.4330359 54.8162469,33.1806869 54.9731486,33.8972765 C55.1300503,34.6138661 55.6351507,35.2039706 56.3182527,35.46875 M51.700468,27.8125 C51.450858,29.5625 52.1372855,30.40625 54.3213729,30.25 M52.449298,30.03125 C51.6380655,32.125 52.7613105,33.0625 54.9453978,32.9375 M52.9485179,32.625 C51.6692668,34.15625 52.5429017,35.78125 53.7909516,36.46875 M52.3556942,34.5625 C50.0468019,34.25 49.7035881,36.9375 50.4836193,38.15625" id="Shape"></path>
                        <path d="M50.5148206,27.65625 C49.1107644,28.28125 48.299532,30.03125 49.0483619,31.09375 C49.8283931,32.1875 51.3572543,31.84375 52.1684867,31.28125 M49.5475819,31.59375 C48.3619345,33.375 49.4227769,34.71875 50.6708268,35.21875" id="Shape"></path>
                        <path d="M45.0234009,27.4375 C44.0873635,28.40625 44.6801872,30.375 46.8954758,30.4375 C48.7363495,30.4375 49.6411856,28.75 49.0795632,27.53125 M46.5834633,30.4375 C45.8658346,32.03125 46.3338534,33.78125 49.0795632,33.5 M50.2028081,36 C48.549142,35.25 46.2714509,36 47.2386895,38.03125 M47.0202808,33.15625 C46.3338534,34.125 46.5522621,35.5 47.3322933,36.34375 M46.8954758,35.71875 C45.7722309,35.9375 44.6801872,36.53125 45.3354134,38.3125 M45.1794072,36.875 C43.7441498,36.4375 41.9032761,37.5 42.9953198,38.96875 M42.7769111,37.5625 C41.5288612,37.34375 40.0624025,38.6875 41.2480499,40 M40.7800312,38.90625 C39.6567863,39.21875 38.3151326,40.46875 39.50078,41.5 M46.4586583,32.59375 C44.8361934,33.3125 44.6801872,35.125 45.4290172,36.46875 M44.7425897,29.28125 C42.3400936,30.21875 42.3712949,33.40625 45.0546022,34.40625 M43.900156,33.6875 C42.4648986,34.53125 42.1840874,36.15625 43.1513261,37.1875 M41.3728549,28.0625 C40.4368175,28.375 40.49922,31.34375 43.0577223,31.28125 M38.7207488,29.0625 C36.7862715,30.34375 39.1263651,33.59375 42.2464899,31.25 M40.5304212,32.09375 C40.24961,33.40625 40.624025,34.84375 42.7457098,35.03125 M40.6552262,33.84375 C39.1263651,34.40625 38.8455538,37.5625 41.5912637,37.8125 M35.7878315,31 C33.8221529,32.8125 37.4102964,34.375 38.7207488,31.75 M33.0733229,34 C32.1060842,35.1875 35.475819,38.25 36.9734789,33.125 M37.3166927,33.03125 C37.4102964,34.28125 38.1279251,34.96875 39.5943838,35.0625 M39.5943838,36.21875 C37.1918877,36.59375 36.4430577,39.5625 39.0951638,40.21875 M35.1950078,35.84375 C35.1014041,36.9375 36.2870515,37.875 37.5975039,37.6875 M38.8143526,40.125 C36.6302652,40.625 36.349454,43.4375 38.2839314,43.25 M37.2854914,45.875 C35.475819,45.34375 35.4134165,43.1875 37.0358814,42.375" id="Shape"></path>
                        <path d="M35.7878315,44 C34.2589704,44.9375 34.8517941,47.125 35.6630265,47.4375 C36.474259,47.75 37.1294852,47.375 37.2230889,46.6875 M37.0670827,49.8125 C37.2542902,50.84375 33.3541342,50.4375 35.351014,47.1875 M35.351014,49.96875 C34.0405616,52.03125 36.1622465,53.71875 37.5039002,51.9375 M35.5070203,52.4375 C34.9765991,54.09375 36.9734789,55.28125 38.2527301,54 M31.201248,37 C30.4836193,38.46875 34.1029641,39.03125 34.3213729,35.96875 M30.2028081,39.1875 C29.4851794,42.09375 34.9453978,41.5 33.5413417,37.75 M33.6661466,39.6875 C34.402143,40.0327132 35.2581187,40.0071761 35.9722945,39.6186987 C36.6864703,39.2302213 37.1738912,38.5250151 37.2854914,37.71875 M35.6318253,39.78125 C35.8318561,40.6104638 36.3616558,41.3217304 37.0982839,41.75 M33.0109204,40.53125 C32.7613105,42.09375 34.3525741,43.40625 36.1310452,43.28125 M33.2917317,42.0625 C32.4180967,43.28125 32.1372855,45.59375 34.9141966,45.75 M29.0171607,42.5 C28.5803432,43.75 31.201248,45.03125 32.698908,42.96875 M28.2059282,45.6875 C27.9875195,46.625 30.3276131,47.875 31.6380655,43.875 M30.6084243,45.90625 C31.1700468,46.90625 33.0733229,47.71875 34.2277691,45.75 M32.3556942,46.96875 C31.8564743,48.375 33.1981279,49.6875 34.7893916,49.3125 M29.3291732,46.65625 C29.0171607,48.65625 31.3572543,49.8125 32.7613105,48.78125 M27.800312,47.53125 C27.1138846,50.09375 30.4212168,51.0625 31.6692668,49.125 M30.8268331,49.90625 C30.9516381,51.34375 33.1981279,52.59375 34.9453978,51.40625 M26.8018721,51.09375 C26.6458658,51.75 29.3291732,52.40625 29.7347894,50.15625 M28.3619345,51.6875 C28.9859594,53.3125 31.1700468,53.71875 32.4180967,51.6875 M31.700468,52.5 C32.0124805,54.0625 33.9469579,54.90625 35.6942278,53.84375 M36.4118565,54.46875 C35.975039,56.5 38.0967239,58.15625 39.4071763,57.03125 M32.9797192,54.09375 C32.3556942,56.34375 35.1638066,57.625 36.723869,56.375 M29.6099844,52.9375 C29.4539782,55.0625 31.1076443,56.3125 32.9797192,55.375 M26.0218409,53.1875 C25.4602184,54.53125 28.4555382,55.65625 29.8595944,54.5 M24.1809672,56.90625 C24.9609984,57.78125 27.6131045,56.90625 27.8315133,54.9375 M27.1138846,56.375 C28.0811232,57.5 30.3900156,58.125 31.2948518,55.6875 M30.4836193,56.9375 C30.4836193,58.6875 33.5413417,59.9375 34.5397816,56.75 M38.1903276,57.375 C37.8783151,58.21875 38.5647426,59.5625 39.9687988,59.71875 M35.6318253,56.84375 C35.4446178,57.78125 36.8486739,59.15625 38.3463339,58.625 M38.6271451,59.03125 C38.2215289,60.0625 38.5647426,61.5625 39.9687988,61.53125 M38.7519501,60.96875 C37.6911076,61.84375 38.1279251,63.4375 39.6567863,63.46875 M38.2215289,62.46875 C36.723869,63.46875 37.2542902,65.6875 39.2199688,65.5625 M33.6973479,58.125 C33.6973479,60.3125 36.4118565,60.625 36.9110764,58.625 M35.8814353,59.875 C35.475819,61.1875 36.5054602,62.4375 38.1591264,62.0625 M36.1934477,75.4375 C36.5678627,75.96875 38.0655226,75.0625 37.6599064,74.1875 C37.2542902,73.3125 35.6630265,73.78125 35.850234,74.71875 M37.2854914,73.8125 C37.4726989,72.0625 35.4134165,71.78125 34.8829953,73.3125 M35.6318253,72.40625 C36.1622465,71.53125 34.3837754,70.3125 33.6661466,71.625 M34.2901716,71.09375 C34.7893916,69.8125 32.7925117,69.21875 32.6365055,70.40625 M32.1684867,68.71875 C32.4180967,68.09375 34.6645866,68.46875 33.7285491,69.8125 M35.4446178,71.40625 C36.3182527,70.59375 34.8205928,68.96875 33.8845554,69.53125 M41.3728549,73.875 C40.6864275,73.9375 39.9687988,74.40625 40.4680187,75.90625 C40.8424337,76.9375 42.3712949,76.96875 42.6209048,76.375" id="Shape"></path>
                        <path d="M40.4056162,74.65625 C39.7191888,74.1875 38.2215289,74.96875 38.9079563,76.40625 C39.4071763,77.5 40.7176287,77.03125 40.9048362,76.46875 M36.5366615,76.71875 C36.9110764,77.34375 38.5959438,77.03125 38.9079563,76.40625 M37.7223089,74.71875 C38.0967239,74.46875 38.7519501,74.78125 38.8767551,75.09375 M37.6287051,64.78125 C36.4430577,65.5625 37.1606864,67.90625 38.9703588,67.28125 M37.2230889,66.6875 C36.2870515,67.40625 37.1606864,69.6875 38.8767551,68.8125 M37.5351014,68.8125 C36.8798752,69.46875 37.5039002,71.25 39.1575663,70.90625 M37.2854914,69.71875 C36.9110764,69.5625 35.975039,69.65625 35.5694228,70.28125 M36.224649,61.53125 C35.351014,62.40625 35.7878315,64.125 37.4102964,64.28125 M35.9126365,63.34375 C34.6645866,63.96875 34.6645866,66.46875 37.1606864,66.5625 M35.8190328,66.15625 C35.1014041,66.71875 35.4446178,68.90625 37.2542902,68.625 M36.3806552,68.53125 C36.1310452,68.8125 36.0686427,69.46875 36.3182527,69.75 M35.600624,67.71875 C34.9765991,67.71875 34.1029641,68.1875 33.8845554,68.875 M32.7301092,66.53125 C32.9485179,65.90625 34.9453978,65.90625 35.1014041,67.8125 M35.2886115,65.5625 C35.0078003,65.625 34.4773791,65.875 34.3525741,66.4375 M34.4149766,59.65625 C33.5725429,60.46875 33.1669267,62.9375 35.7566303,63.40625 M32.6677067,64.78125 C32.6677067,64.125 34.4773791,63.53125 35.1014041,64.53125 M31.5132605,61.1875 C31.7628705,61.6875 33.0109204,62.375 33.7597504,61.8125 M25.0234009,57.25 C24.9987492,57.8355108 25.2358133,58.4015849 25.6701269,58.7942862 C26.1044404,59.1869874 26.6908505,59.3654891 27.2698908,59.28125 C28.6115445,59.125 28.8923557,57.96875 28.4867395,57.1875 M27.4882995,59.34375 C26.5834633,60.40625 27.675507,61.9375 28.673947,61.5 M28.4867395,58.5625 C29.0171607,58.375 30.7332293,58.125 31.2636505,58.9375 M22.9017161,58.875 C22.4960998,59.5 24.9921997,60.09375 25.8346334,58.9375 M24.9921997,59.53125 C24.8985959,60.34375 25.3042122,61.71875 27.3634945,61.125" id="Shape"></path>
                        <path d="M27.7067083,62.375 C28.0187207,61.6875 26.5210608,60.5625 25.3354134,61.8125 C24.1809672,63.0625 25.5226209,64.46875 26.2402496,64 M22.3712949,59.6875 C21.7472699,60.75 24.0873635,62.65625 25.4290172,60.875" id="Shape"></path>
                        <path d="M20.8112324,61.5 C19.9687988,62.375 21.0296412,63.96875 22.2776911,63.46875 C23.5569423,63 23.4321373,61.65625 23.1201248,61.3125" id="Path"></path>
                        <path d="M19.1887676,63.125 C18.5023401,63.75 19.1887676,65.1875 20.124805,65.1875 C21.0608424,65.1875 21.6536661,64.46875 21.4664587,63.5 M23.0265211,63 C22.9017161,63.9375 24.274571,64.5625 25.1794072,63.6875 M25.1794072,62 C25.3354134,61.8125 25.2418097,61.46875 25.0234009,61.28125 M17.7223089,64.34375 C16.9422777,64.96875 18.6583463,66.71875 19.6879875,65.125 M23.775351,64.03125 C23.276131,64.5 24.0873635,65.75 24.8985959,65.375 M21.0296412,64.90625 C21.1544462,65.75 22.8393136,66.40625 23.900156,65.09375 M21.9344774,65.75 C21.6848674,66.3125 22.2152886,67.15625 22.8705148,67.0625 M37.9407176,70.75 C37.3166927,71.96875 39.3135725,73.40625 40.74883,71.90625 M39.375975,72.5625 C39.0639626,73.21875 39.4383775,74.15625 40,74.5 M37.5039002,73.96875 C37.6287051,73.34375 38.5023401,72.78125 39.2823713,73.0625 M36.474259,72.375 C36.5678627,71.8125 37.2854914,71.28125 37.8471139,71.4375 M83.775351,47.25 C80.9048362,47.28125 82.1216849,51.875 84.5865835,50.96875 M82.8393136,50.65625 C82.2776911,51.5625 83.3697348,53.03125 84.5865835,52.15625 M84.274571,52.34375 C83.400936,53.75 86.4274571,55.90625 87.6443058,53.6875 M86.6770671,54.53125 C86.6770671,55.875 90.5772231,56.71875 90.0156006,54.0625 M89.6411856,55.5 C90.5772231,57.0625 94.0093604,57.21875 93.6661466,54.875 M92.8861154,56.5 C93.6037441,57.5625 97.0046802,58.1875 96.8798752,56.03125 M79.1887676,43.28125 C79.6567863,44.53125 81.3104524,44.96875 83.1201248,44.21875 M78.1279251,44.15625 C79.2823713,44.875 77.6287051,48.1875 75.9126365,46.84375 M78.1591264,46.21875 C79.4071763,46.8125 80.9360374,46.375 81.3728549,44.59375 M80.5928237,45.96875 C80.7176287,46.90625 82.0592824,47.625 83.775351,47.25 M77.5039002,46.9375 C79.1263651,48.3125 76.7862715,51.125 75.725429,49.84375 M78.0967239,47.96875 C78.8767551,48.53125 80.8424337,48.21875 81.0296412,46.71875 M80.1560062,47.96875 C80.3120125,48.9375 81.0920437,49.3125 82.1528861,49.34375 M77.6599064,49.3125 C78.4711388,50.4375 80.4680187,50.75 81.3728549,49.28125 M80.4680187,50.125 C80.4056162,51.1875 81.5912637,52.09375 82.8393136,51.84375 M76.1310452,52.5 C77.1606864,53.03125 78.3151326,51.03125 77.4102964,49.6875 M77.3478939,54.59375 C78.5959438,54.65625 78.7519501,52.78125 77.5663027,51.71875 M80.1872075,56.3125 C81.2480499,56.0625 80.9048362,53.78125 78.3775351,53.59375 M83.3697348,58 C84.3681747,57.71875 83.5569423,55.1875 80.7800312,55.34375 M87.1762871,58.90625 C87.8627145,57.84375 85.6162246,56.09375 83.7441498,57.03125 M89.0483619,60.34375 C90.2964119,60.71875 91.1700468,57.40625 87.2074883,57.9375 M91.3572543,60.34375 C92.449298,60.03125 93.2293292,58.09375 90.0468019,58.71875 M93.7909516,60.5 C94.7269891,61 95.1638066,58.15625 92.2308892,58.9375 M77.5663027,51.75 C78.7831513,52.40625 80.6864275,51.625 80.49922,50.09375 M80.0312012,51.40625 C80.4368175,52.125 80.2808112,53.53125 79.50078,53.90625 M80.124805,53.09375 C80.9360374,53.40625 82.0280811,53.125 82.6833073,51.84375 M81.5600624,53.09375 C81.7784711,53.65625 81.8720749,54.78125 81.3416537,55.34375 M81.7472699,54.0625 C82.6521061,54.5625 83.6817473,53.90625 84.1185647,52.96875 M83.5569423,53.78125 C84.1809672,54.1875 84.773791,56.0625 83.6817473,56.84375 M84.3057722,55.96875 C85.0546022,55.96875 86.1778471,55.96875 86.8954758,55.03125 M86.3650546,55.5625 C87.0514821,55.75 87.8627145,56.875 87.5819033,57.875 M87.6131045,57.53125 C88.3931357,57.4375 89.7035881,56.90625 90.0780031,55.96875 M89.7035881,56.59375 C90.4108652,57.0110114 90.8031701,57.8091258 90.7020281,58.625 M90.7020281,57.96875 C91.4820593,57.9375 92.1684867,57.53125 92.3556942,56.6875 M92.1684867,57.25 C92.7301092,57.4375 93.4165367,58.09375 93.4477379,58.84375 M93.3541342,58.375 C93.9157566,58.28125 94.3213729,57.9375 94.6957878,57.375 M96.224649,57.28125 C96.9422777,58 95.975039,60.40625 94.4773791,59.96875 M80.7800312,8.5 C79.3135725,9.40625 75.0702028,9.125 77.1606864,5.625 M81.2168487,6.125 C78.2527301,7.3125 74.6645866,5.03125 78.4087363,2.59375 M77.4102964,1.78125 C74.9765991,1.78125 73.3229329,5.71875 76.599064,7.09375 M67.8939158,3.4375 C67.2698908,4.6875 69.5475819,6.0625 71.1076443,4.8125 C72.324493,3.84375 72.2308892,1.21875 71.5132605,0.21875 M66.6458658,6.40625 C65.8346334,9.0625 71.7628705,9.21875 70.8268331,5 M66.3338534,10.375 C66.5210608,12.375 71.9812793,11.71875 70.2340094,7.65625 M70.8580343,6.53125 C71.2948518,7.15625 72.5117005,8.1875 74.5709828,7.96875 M71.7628705,3.75 C71.950078,4.46875 73.1669267,5 74.7269891,4.46875 M16.9734789,64.9375 C15.5694228,65.90625 17.7223089,67.46875 18.5023401,65.75 M15.8814353,65.6875 C14.5085803,66.6875 16.6302652,68.25 17.4102964,66.53125 M14.7269891,66.4375 C13.3541342,67.4375 15.475819,68.96875 16.2870515,67.28125 M13.5413417,67.125 C12.199688,67.84375 13.7597504,69.5625 15.1014041,68.0625 M12.2308892,67.78125 C10.8892356,68.5 12.449298,70.21875 13.7909516,68.71875 M18.9703588,65.71875 C18.9391576,66.75 20.8736349,67.15625 21.5912637,65.625 M20.1872075,66.65625 C19.5631825,67.4375 20.6864275,68.375 21.2792512,68.03125 M17.5975039,66.53125 C17.5351014,67.40625 19.2199688,67.90625 20.0312012,66.9375 M18.5023401,67.4375 C17.9719189,68.125 19.0327613,69.09375 19.75039,68.8125 M16.474259,67.3125 C16.5366615,68 17.5039002,68.78125 18.5335413,68.34375 M17.0982839,68.25 C16.6926677,68.59375 16.8798752,69.4375 17.4414977,69.71875 M15.0078003,68.15625 C14.8517941,68.78125 15.9126365,69.90625 17.0046802,69.1875 M15.226209,68.875 C14.6021841,69.40625 14.6645866,70.15625 15.475819,70.28125 M13.6661466,68.8125 C13.6037441,69.25 14.1341654,69.9375 14.8205928,69.84375 M10.2340094,68.78125 C9.6099844,69.125 11.2324493,70.875 12.2620905,69.25 M8.64274571,69.5 C7.83151326,69.875 9.82839314,71.8125 10.7332293,69.84375 M13.8533541,69.4375 C13.2293292,69.5625 12.8237129,70.46875 13.3541342,70.84375 M11.7940718,69.75 C11.7316693,70.125 12.5117005,70.6875 13.1357254,70.5 M11.2948518,69.90625 C10.6708268,70.28125 11.0140406,71.34375 11.7316693,71.1875 M9.14196568,70.625 C8.58034321,71.03125 8.98595944,71.875 9.76599064,71.6875 M10.1716069,70.5625 C10.1716069,70.78125 10.7020281,71.125 11.1076443,70.96875 M7.2074883,70.1875 C6.48985959,70.5 6.55226209,72.25 8.92355694,71.3125 M5.61622465,70.90625 C4.61778471,71.375 4.96099844,72.71875 7.11388456,71.4375 M7.2698908,71.53125 C7.02028081,71.75 6.73946958,72.625 7.73790952,72.28125 M5.49141966,71.96875 C5.08580343,72.3125 5.33541342,73.0625 6.20904836,72.78125 M3.40093604,72.09375 C2.68330733,72.5 4.27457098,73.0625 5.33541342,71.9375 M3.90015601,72.59375 C3.58814353,72.90625 3.58814353,73.875 4.39937598,73.53125 M1.84087363,73 C1.37285491,73.34375 2.15288612,73.84375 3.71294852,73.15625 M2.4648986,73.5 C1.87207488,73.96875 1.93447738,74.5625 2.77691108,74.375 M0.780031201,73.75 C0.15600624,74.34375 1.06084243,74.71875 2.15288612,74.25 M0.780031201,74.40625 C-0.280811232,74.875 0.187207488,75.78125 0.842433697,75.4375 M36.349454,77.46875 C36.099844,78 36.9110764,78.4375 37.6911076,78.3125 C38.4087363,78.21875 39.1263651,77.59375 38.5647426,76.75 M38.5959438,77.8125 C39.3447738,78.375 40.624025,77.71875 40.624025,76.875" id="Shape"></path>
                    </g>
                    <g transform="translate(76.131045, 0.000000)" stroke="#000000" stroke-width="0.2">
                        <path d="M28.3307332,13.75 C25.1170047,12.1875 18.4399376,9.1875 16.5366615,11.59375 C18.2839314,10.875 23.3385335,11.625 27.5195008,15.5 L28.3307332,13.78125 L28.3307332,13.75 Z" id="Path" fill="#FFFFFF"></path>
                        <path d="M30.2652106,13.59375 C26.5522621,9.25 24.3369735,10.21875 21.6848674,8.75 C19.1887676,7.34375 15.1950078,7.0625 14.4149766,9.28125 C18.0655226,7.5 21.4352574,10.21875 23.525741,10.59375 C26.3338534,11.03125 27.9563183,13.25 28.798752,14.25 L30.2652106,13.625 L30.2652106,13.59375 Z M44.274571,13.03125 C42.3400936,8.625 38.2215289,9.78125 36.4118565,7.90625 C33.7597504,5.15625 27.0514821,2.59375 24.2433697,4.5 C30.3588144,4.1875 32.9797192,8.71875 36.224649,10.3125 C38.5647426,11.4375 41.0608424,13.84375 44.274571,13.03125 Z" id="Shape" fill="#FFFFFF" fill-rule="nonzero"></path>
                        <path d="M37.0358814,12.5625 C33.7597504,8.46875 28.673947,4.84375 26.3650546,6.1875 C29.4227769,6.375 30.3900156,8.5 32.5429017,9.875 C34.7269891,11.21875 33.7597504,13.21875 37.0358814,12.5625 Z M21.3728549,19.8125 C17.9407176,18.53125 11.1700468,17.875 8.01872075,21.8125 C13.2605304,22.71875 21.1232449,22.21875 21.3728549,19.8125 Z" id="Shape" fill="#FFFFFF" fill-rule="nonzero"></path>
                        <path d="M20.7176287,21.34375 C17.2854914,19.71875 14.5709828,21.96875 11.326053,21.65625 C5.14820593,21.03125 0.717628705,21.40625 0.15600624,24.40625 C3.68174727,21.21875 9.64118565,23.84375 12.0436817,23.1875 C14.4461778,22.5625 23.3697348,23.09375 26.1778471,24.3125 C24.7425897,22.53125 22.4960998,22.0625 20.7176287,21.34375 Z M31.575663,12.125 C30.7644306,9.46875 30.8268331,6.65625 34.7893916,6.84375 C33.7909516,5.59375 30.1092044,4.96875 29.4851794,9.625 C25.1170047,6.40625 20.3120125,5.84375 19.4383775,8.625 C21.6848674,6.6875 25.1794072,8.09375 29.3603744,12.84375 C30.0564698,12.488976 30.8040892,12.2464111 31.575663,12.125 Z" id="Shape" fill="#FFFFFF" fill-rule="nonzero"></path>
                        <path d="M25.5538222,15.78125 C23.0577223,14.15625 19.6879875,11.5625 25.5850234,10.5 C23.0889236,9.15625 19.3447738,9.75 19.75039,14.40625 C13.0109204,11.6875 8.17472699,12.59375 7.1450858,15.3125 C6.02184087,18.28125 10.2028081,19.9375 10.9204368,18.03125 C10.1716069,18.34375 7.55070203,17.46875 8.92355694,15.78125 C10.2964119,14.09375 17.2854914,15.375 23.9313573,18.84375 C25.8034321,19.78125 32.1372855,19.65625 25.5538222,15.78125 Z" id="Path" fill="#FFFFFF"></path>
                        <path d="M23.775351,20.21875 C21.8720749,16.28125 15.6318253,19.84375 14.3837754,16.03125 C12.6365055,21.625 23.2449298,18.53125 23.775351,20.21875 Z M63.4321373,24.46875 C64.7425897,25.125 65.8658346,24.09375 63.8689548,23.3125 C65.1794072,23.9375 66.3338534,22.96875 64.3369735,22.15625 C65.6474259,22.78125 66.7706708,21.8125 64.773791,21 C64.2433697,21.53125 63.4945398,23.5 63.4321373,24.46875 Z M64.1185647,16.90625 C67.0202808,13.84375 63.900156,12.8125 67.425897,9.65625 C70.3276131,7.09375 67.9875195,5.375 70.7020281,3.40625 C71.6068643,2.75 73.5101404,1.46875 73.6973479,0.15625 C74.8517941,3.0625 70.0780031,3.46875 70.3900156,8.125 C70.6084243,11.09375 68.5803432,10.84375 67.8315133,15.875 C67.675507,16.90625 66.9266771,19.25 64.1185647,16.90625 Z" id="Shape" fill="#FFFFFF" fill-rule="nonzero"></path>
                        <path d="M65.3978159,18.28125 C67.0202808,14.84375 68.8611544,14.875 69.7659906,13.53125 C71.450858,10.9375 75.0078003,13.96875 78.0343214,11.65625 C77.5039002,14.9375 73.4477379,13.78125 71.6692668,15.875 C69.9219969,17.96875 68.4555382,18.90625 65.4290172,18.28125 L65.3978159,18.28125 Z" id="Path" fill="#FFFFFF"></path>
                        <path d="M65.8346334,19.40625 C68.6427457,17.15625 70.7020281,18.65625 72.6365055,17.46875 C77.5351014,14.5 79.50078,18.09375 83.8689548,16.65625 C82.7457098,19.46875 76.2558502,17.0625 73.4477379,19.15625 C70.6396256,21.25 60.74883,23.28125 65.8034321,19.40625 L65.8346334,19.40625 Z M57.6287051,35.46875 C57.5663027,34.1875 56.3806552,32.53125 54.6957878,32.34375 C53.0109204,32.125 52.2620905,30.34375 50.9828393,30.28125 C49.7035881,30.1875 48.8611544,27.625 47.0826833,27.65625 C45.3354134,27.6875 44.5865835,30 48.7363495,32.09375 C52.8861154,34.1875 57.4726989,36.59375 57.6287051,35.46875 Z M52.3868955,36.5625 C50.6396256,36.625 50.3900156,39.21875 48.7051482,39.28125 C51.0140406,40.53125 52.7301092,38.71875 53.9157566,37.09375 L52.4180967,36.5625 L52.3868955,36.5625 Z" id="Shape" fill="#FFFFFF" fill-rule="nonzero"></path>
                        <path d="M53.8533541,36.875 C52.2932917,38.15625 51.8564743,40.84375 54.0717629,41.625 C52.7613105,39.78125 56.4118565,38.96875 55.2886115,37.25 L53.8533541,36.875 Z" id="Path" fill="#FFFFFF"></path>
                        <path d="M55.351014,36.96875 C54.1653666,39.28125 57.2542902,39.5625 56.4430577,41.34375 C58.2215289,40.9375 58.5023401,37.59375 56.8798752,36.71875 L55.351014,36.9375 L55.351014,36.96875 Z" id="Path" fill="#FFFFFF"></path>
                        <path d="M43.5569423,31.96875 C46.4586583,31.8125 49.0795632,33.375 50.8580343,35.90625 C51.9812793,37.5 55.7566303,38.15625 57.0670827,36.84375 C58.3151326,35.59375 57.6287051,32.84375 54.4149766,33.71875 C53.6037441,32.375 51.2948518,32.84375 50.1404056,31.71875 C49.0171607,30.59375 44.6801872,27.375 43.5569423,31.96875 Z" id="Path" fill="#FFFFFF"></path>
                        <path d="M54.4149766,33.75 C53.6349454,33.90625 53.3853354,35.21875 53.8845554,35.90625 M56.0686427,34.53125 C56.2870515,34.9375 56.1310452,35.5 56.0062402,35.78125 M48.1435257,32.09375 C49.6099844,32.15625 49.8907956,33.25 51.5132605,33.65625" id="Shape" fill="#FFFFFF" fill-rule="nonzero" stroke-linecap="round"></path>
                        <path d="M47.1450858,28.4375 C51.1985385,29.2308494 55.1388336,30.5218429 58.8767551,32.28125 C61.4040562,33.71875 65.3354134,34.15625 68.7363495,33.15625 C72.1684867,32.21875 78.7831513,31.3125 78.4399376,35.59375 C80.24961,33.4375 77.9719189,31.15625 73.3853354,30.75 C73.4789392,28.65625 71.2324493,26.78125 69.6411856,28.03125 C71.1076443,27.8125 72.3868955,30.59375 69.4539782,31.71875 C69.7230373,30.7297992 69.3927501,29.6744545 68.6081964,29.0162802 C67.8236427,28.3581059 66.7283509,28.21751 65.8034321,28.65625 C67.1762871,29.0625 68.6115445,31.40625 65.4914197,32.28125 C63.525741,32.84375 60.6864275,32.125 58.5647426,30.84375 C56.4430577,29.5625 44.524181,24.90625 47.1450858,28.40625 L47.1450858,28.4375 Z" id="Path" fill="#FFFFFF"></path>
                        <path d="M60.0936037,26.34375 C58.5023401,27.0625 59.5319813,28.75 57.0670827,29.71875 C54.5709828,30.65625 52.8237129,32.875 53.3853354,34.78125 C55.0702028,31.0625 58.0655226,31.25 59.0951638,29.78125 C60.1560062,28.34375 61.6848674,26.21875 60.0936037,26.34375 Z" id="Path" fill="#FFFFFF"></path>
                        <path d="M60.5304212,26.5625 C60.4680187,29.5 58.1591264,28.4375 59.0639626,32.5625 C59.3447738,33.84375 59.875195,35.9375 58.9703588,38.03125 C61.5600624,36.15625 59.9063963,32.1875 61.0608424,30.6875 C61.6224649,29.9375 62.3712949,28.8125 62.6209048,27.875 C62.0280811,29.53125 62.0904836,32.6875 63.7129485,33.5 C62.4024961,30.375 67.301092,27.78125 63.9313573,24.125 C63.4321373,25.0625 61.9032761,26.625 60.5616225,26.5625 L60.5304212,26.5625 Z M52.3556942,23.625 C52.7613105,24.25 53.1669267,25.75 52.7925117,26.625 C53.6037441,26.125 54.7581903,24.875 55.1326053,24.03125 C56.7862715,24.28125 57.4102964,26.3125 55.850234,27.21875 C56.7862715,27.21875 58.4711388,27.21875 59.375975,26.125 C58.2527301,24.875 54.7581903,22.9375 52.3556942,23.625 Z" id="Shape" fill="#FFFFFF" fill-rule="nonzero"></path>
                        <path d="M27.3634945,17.84375 C26.9280376,17.5067872 26.4113484,17.2911637 25.8658346,17.21875 C23.4321373,16.71875 24.7113885,14.53125 26.7706708,14.5625 C31.201248,9.71875 33.6661466,13.4375 39.0639626,11.9375 C40.9360374,11.375 42.2464899,11.53125 43.2449298,12 C45.6786271,10.375 48.4867395,10.8125 50.5460218,12.71875 C50.7534009,12.3602994 51.0873747,12.0927028 51.4820593,11.96875 C53.3853354,11.4375 54.9141966,13.03125 55.4446178,15.125 C56.9110764,14.875 58.5959438,15.59375 59.7191888,16.59375 C61.2480499,15.8125 62.2776911,15.78125 62.6833073,16.59375 C64.0561622,15.96875 65.8034321,15.53125 66.7082683,17.71875 C67.6131045,19.90625 64.6177847,19.25 64.1185647,23.84375 C63.8065523,26.65625 60.6864275,27.78125 58.1903276,26.09375 C54.1965679,23.375 50.2964119,22.96875 48.3619345,27.03125 C46.4586583,31.15625 44.9297972,33.53125 40.24961,32.1875 C38.2615672,31.7355036 36.1988543,32.5396104 35.0390016,34.21875 C33.6661466,36.09375 31.6068643,34.34375 29.1107644,34.53125 C32.2308892,34.0625 31.0140406,33.28125 33.7597504,33.09375 C36.2558502,32.9375 35.600624,30.59375 37.1918877,30.28125 C30.9516381,31.875 31.1700468,29.53125 26.0218409,31.15625 C28.2683307,28.25 31.825273,29.875 33.5725429,28.1875 C28.9235569,28.09375 26.8330733,25.0625 24.7425897,26.3125 C21.4664587,28.34375 22.8705148,34.0625 14.2901716,33.5625 C10.1092044,33.34375 7.45709828,33.875 4.99219969,36.375 C9.32917317,27.375 15.226209,32.3125 18.0967239,29.46875 C19.5861096,28.1266588 20.8781932,26.5800485 21.9344774,24.875 C22.1838279,24.3743914 22.6401551,24.0087592 23.1825273,23.875 C16.0374415,21.625 20.374415,18.09375 27.3634945,17.84375 Z" id="Path" fill="#FFFFFF"></path>
                        <path d="M62.6833073,16.5625 C62.7769111,16.8125 62.8393136,17.125 62.8393136,17.5 C62.8393136,19.25 60.1872075,19.3125 60.0312012,21.9375 C59.9375975,23.3125 59.7815913,24.0625 58.8767551,23.90625 C57.9407176,23.75 57.1294852,22.3125 58.0031201,20.625" id="Path" fill="#FFFFFF" stroke-linecap="round"></path>
                        <path d="M28.7051482,15.21875 C28.1426839,14.8066588 27.4673984,14.5775756 26.7706708,14.5625 L28.7051482,15.21875 Z M43.2449298,11.96875 C45.3666147,12.90625 46.3962559,15.09375 49.4851794,15.21875 C52.4804992,15.3125 54.3213729,19.65625 59.3135725,16.8125 C59.4372661,16.7477981 59.5620906,16.6852883 59.6879875,16.625 L43.2449298,11.96875 Z M50.5460218,12.71875 C50.1173162,13.499579 49.9634524,14.4021896 50.1092044,15.28125 L50.5460218,12.71875 Z M40.8112324,21.84375 C37.0670827,21.84375 36.0686427,23.75 36.0686427,25.59375 C36.0686427,27.46875 37.8471139,29.875 40.9672387,29.875 C44.0873635,29.875 45.8034321,27.9375 45.8034321,25.84375 C45.8034321,23.75 43.8689548,21.8125 40.8112324,21.8125 L40.8112324,21.84375 Z" id="Shape" fill="#FFFFFF" fill-rule="nonzero"></path>
                        <path d="M41.4976599,29.78125 C41.4352574,28.75 39.5319813,28.90625 39.625585,28.09375 C39.6879875,27.28125 40.6552262,26.96875 40.6552262,25.84375 C40.6552262,24.71875 42.3400936,24.625 42.9017161,25.53125 C43.4633385,26.40625 45.1482059,28.125 45.5226209,27.25 M42.9017161,25.53125 C41.8351395,26.6689821 41.7816283,28.424212 42.7769111,29.625 M44.1185647,26.875 C43.8065523,27.5 43.7441498,28.4375 44.0873635,29" id="Shape" fill="#FFFFFF" fill-rule="nonzero"></path>
                        <path d="M59.1263651,23.9375 C62.0904836,24.1875 62.5585023,20.90625 60.374415,20.71875 M55.475819,15.15625 C54.4773791,13.84375 52.1060842,13.40625 52.0436817,16.15625" id="Shape"></path>
                        <path d="M51.7940718,19.3125 C50.7956318,16.8125 48.2059282,16.46875 46.8642746,17.71875 C45.7098284,18.75 45.6786271,21.46875 48.1123245,22.03125 C48.9859594,21 50.6084243,19.6875 51.7940718,19.3125 Z M50.7020281,17.75 C49.2355694,16.46875 47.1138846,18.90625 49.0483619,21.125 L50.7020281,17.75 Z M23.1513261,23.84375 C24.149766,23.625 25.5538222,24.09375 27.7379095,25.09375 C29.0795632,25.75 33.1981279,27.125 35.7566303,25.75 C33.1045242,26.71875 31.0764431,22.71875 29.0795632,23.1875 C27.0826833,23.6875 23.400936,24.4375 21.8720749,22.9375 C25.6162246,23.1875 27.6443058,20.1875 31.9812793,22.78125 C33.2071126,23.5427084 34.626441,23.9333623 36.0686427,23.90625 C32.5429017,19.65625 27.8939158,22.375 27.3946958,18.90625 C29.5163807,21.21875 34.7269891,18.40625 37.3790952,22.6875 L23.1513261,23.84375 Z M28.174727,19.5625 C27.675507,18.9375 27.8627145,18.3125 27.3634945,17.84375 L28.174727,19.5625 Z" id="Shape" fill="#FFFFFF" fill-rule="nonzero"></path>
                    </g>
                    <path d="M131.606864,15.15625 C130.733229,14.21875 128.798752,14.9375 129.360374,16.84375 C129.775197,15.9306868 130.61822,15.2857044 131.606864,15.125 L131.606864,15.15625 Z M126.146646,20.3125 C126.684004,19.8886597 127.284027,19.5512786 127.925117,19.3125 C127.679701,18.6756966 127.270689,18.115121 126.73947,17.6875 C126.271451,17.375 124.960998,19.15625 126.146646,20.28125 L126.146646,20.3125 Z" id="Shape" fill="#000000" fill-rule="nonzero"></path>
                    <path d="M123.775351,17.03125 C122.340094,16.0625 120.99844,16.15625 120.561622,16.9375 C119.531981,16.9375 118.658346,17.6875 118.627145,19.1875 M120.842434,19.84375 C119.126365,18.65625 116.75507,19.09375 116.911076,21.75 M115.850234,23.28125 C116.692668,22.59375 117.909516,22.09375 118.845554,23.28125 M128.767551,20.65625 C128.455538,21.09375 128.205928,21.78125 128.736349,22.84375 C128.112324,21.96875 126.48986,21.96875 124.74259,24.21875 M132.574103,20.53125 C130.483619,20.78125 130.546022,22.15625 132.230889,22.71875 M117.722309,15.40625 C115.943838,15.0625 114.664587,16.09375 117.098284,16.96875 M121.092044,14.21875 C118.595944,13.59375 117.597504,14.25 118.720749,14.84375 M113.884555,24.21875 C113.822153,25.125 114.290172,26.28125 115.75663,24.96875 M114.383775,26.875 C114.383775,27.125 114.352574,27.40625 114.165367,27.625 M108.580343,15.125 C107.051482,14.65625 106.770671,13.25 108.580343,13.375 M108.081123,18.375 C106.396256,17.78125 106.396256,16.15625 107.769111,16.3125 M111.201248,17.5 C109.235569,17.03125 109.173167,15.65625 110.639626,15.875 M111.450858,13.3125 C110.390016,13.25 108.798752,14.40625 111.482059,15.09375 M114.383775,15.65625 C111.918877,15.3125 111.981279,16.28125 113.416537,16.9375 M116.224649,13.3125 C114.352574,12.96875 113.697348,14.09375 114.976599,14.5625 M110.296412,20.28125 C109.828393,19.90625 109.453978,18.09375 111.638066,18.625 M114.851794,19.71875 C113.385335,19.3125 111.981279,20.78125 113.322933,21.59375 M116.817473,18 C115.25741,17.6875 113.946958,18.15625 114.789392,18.71875" id="Shape" stroke="#000000" stroke-width="0.2" stroke-linecap="round"></path>
                    <path d="M131.544462,15.15625 C130.58576,15.3295516 129.771094,15.9589904 129.360374,16.84375" id="Path" stroke="#000000" stroke-width="0.2" fill="#FFFFFF"></path>
                </g>
            </g>
        </g>
    </g>
</svg>