<?xml version="1.0" encoding="UTF-8"?>
<svg width="200px" height="150px" viewBox="0 0 200 150" version="1.1" xmlns="http://www.w3.org/2000/svg" xmlns:xlink="http://www.w3.org/1999/xlink">
    <!-- Generator: Sketch 52.5 (67469) - http://www.bohemiancoding.com/sketch -->
    <title>br</title>
    <desc>Created with Sketch.</desc>
    <g id="Flags" stroke="none" stroke-width="1" fill="none" fill-rule="evenodd">
        <g id="South-America" transform="translate(-950.000000, -50.000000)">
            <g id="br" transform="translate(950.000000, 50.000000)">
                <polygon id="Path" fill="#229E45" points="0 0 200 0 200 150 0 150"></polygon>
                <polygon id="Path" fill="#F8E509" points="100.4375 136.25 194.65625 75.09375 99.875 13.75 5.34375 75.21875"></polygon>
                <path d="M141.5,75 C141.5,96.96875 123.65625,114.78125 101.625,114.78125 C79.6412663,114.746732 61.8462913,96.9004659 61.8750463,74.9167239 C61.9038013,52.932982 79.7454015,35.1333291 101.72915,35.1563209 C123.712899,35.1793126 141.517229,53.016246 141.5,75 Z" id="Path" fill="#2B49A3"></path>
                <path d="M88.53125,98.84375 L87.28125,98.125 L86.03125,98.75 L86.3125,97.34375 L85.3125,96.28125 L86.71875,96.125 L87.40625,94.875 L88,96.1875 L89.375,96.4375 L88.34375,97.375 M115.21875,105.59375 L114,104.875 L112.75,105.5 L113,104.09375 L112.03125,103.0625 L113.4375,102.90625 L114.09375,101.625 L114.71875,102.9375 L116.09375,103.1875 L115.03125,104.15625 M103.71875,94.78125 L102.65625,94.15625 L101.5625,94.71875 L101.8125,93.5 L100.9375,92.59375 L102.1875,92.46875 L102.75,91.34375 L103.25,92.5 L104.46875,92.71875 L103.53125,93.5625 M130.71875,90.90625 L129.65625,90.28125 L128.5625,90.84375 L128.8125,89.625 L127.96875,88.75 L129.1875,88.625 L129.75,87.53125 L130.25,88.65625 L131.4375,88.875 L130.53125,89.6875 M103.25,82.8125 L102,82.125 L100.75,82.75 L101,81.3125 L100.03125,80.28125 L101.4375,80.125 L102.09375,78.84375 L102.71875,80.15625 L104.09375,80.40625 L103.03125,81.40625 M70.34375,70.46875 L69.09375,69.78125 L67.84375,70.40625 L68.15625,68.96875 L67.125,67.9375 L68.5625,67.78125 L69.1875,66.5 L69.8125,67.8125 L71.1875,68.0625 L70.15625,69.03125 M74.3125,86.90625 L73.0625,86.1875 L71.8125,86.8125 L72.09375,85.40625 L71.09375,84.375 L72.5,84.1875 L73.15625,82.9375 L73.78125,84.25 L75.15625,84.5 L74.125,85.46875 M115.375,64.4375 L114.25,63.8125 L113.125,64.375 L113.375,63.125 L112.5,62.1875 L113.75,62.03125 L114.34375,60.90625 L114.875,62.09375 L116.125,62.3125 L115.1875,63.15625 M113.09375,75.125 L112.25,74.625 L111.34375,75.0625 L111.53125,74.0625 L110.84375,73.34375 L111.84375,73.21875 L112.3125,72.34375 L112.71875,73.28125 L113.65625,73.4375 L112.96875,74.125 M68.53125,89.875 L67.6875,89.40625 L66.84375,89.8125 L67.03125,88.875 L66.375,88.1875 L67.3125,88.0625 L67.75,87.21875 L68.15625,88.09375 L69.09375,88.28125 L68.375,88.90625 M130.9375,93.6875 L130.25,93.34375 L129.5625,93.65625 L129.71875,92.9375 L129.1875,92.4375 L129.9375,92.34375 L130.3125,91.71875 L130.625,92.34375 L131.40625,92.5 L130.8125,92.96875" id="Shape" fill="#FFFFEF"></path>
                <polyline id="Path" fill="#FFFFEF" points="68.53125 89.875 67.6875 89.40625 66.84375 89.8125 67.03125 88.875 66.375 88.1875 67.3125 88.0625 67.75 87.21875 68.15625 88.09375 69.09375 88.28125 68.375 88.90625"></polyline>
                <path d="M68.53125,89.875 L67.6875,89.40625 L66.84375,89.8125 L67.03125,88.875 L66.375,88.1875 L67.3125,88.0625 L67.75,87.21875 L68.15625,88.09375 L69.09375,88.28125 L68.375,88.90625 M81.59375,89.84375 L80.78125,89.40625 L79.9375,89.8125 L80.125,88.875 L79.46875,88.1875 L80.40625,88.0625 L80.84375,87.21875 L81.25,88.09375 L82.1875,88.25 L81.46875,88.90625 M79.96875,94.21875 L79.15625,93.75 L78.3125,94.1875 L78.5,93.25 L77.84375,92.53125 L78.78125,92.40625 L79.21875,91.5625 L79.625,92.4375 L80.5625,92.625 L79.84375,93.25 M107.15625,86.3125 L106.34375,85.8125 L105.46875,86.25 L105.65625,85.3125 L105.03125,84.59375 L105.96875,84.5 L106.40625,83.65625 L106.78125,84.53125 L107.71875,84.6875 L107.03125,85.34375 M99.1875,86.28125 L98.34375,85.8125 L97.5,86.25 L97.6875,85.3125 L97.0625,84.59375 L98,84.5 L98.4375,83.625 L98.8125,84.53125 L99.75,84.6875 L99.0625,85.34375 M77.5625,83.53125 L77.03125,83.21875 L76.5,83.46875 L76.625,82.875 L76.21875,82.4375 L76.8125,82.375 L77.0625,81.84375 L77.3125,82.40625 L77.90625,82.5 L77.46875,82.90625 M129.90625,97.09375 L129.09375,96.625 L128.25,97.0625 L128.4375,96.125 L127.78125,95.40625 L128.71875,95.28125 L129.15625,94.4375 L129.5625,95.3125 L130.5,95.5 L129.78125,96.125 M123.28125,98 L122.59375,97.5625 L121.875,97.9375 L122.03125,97.125 L121.5,96.5625 L122.28125,96.46875 L122.65625,95.75 L122.96875,96.5 L123.75,96.625 L123.15625,97.1875 M126.40625,97.90625 L125.78125,97.53125 L125.125,97.84375 L125.25,97.125 L124.75,96.59375 L125.46875,96.5 L125.8125,95.875 L126.125,96.5 L126.84375,96.65625 L126.3125,97.15625 M135.40625,90.03125 L134.78125,89.71875 L134.15625,90.03125 L134.3125,89.3125 L133.8125,88.78125 L134.53125,88.6875 L134.84375,88.0625 L135.15625,88.71875 L135.8125,88.84375 L135.3125,89.34375 M123.1875,102.40625 L122.40625,101.96875 L121.5625,102.34375 L121.75,101.46875 L121.125,100.84375 L122.0625,100.75 L122.46875,99.96875 L122.84375,100.78125 L123.78125,100.9375 L123.0625,101.53125 M123.25,105.96875 L122.5,105.53125 L121.75,105.9375 L121.9375,105.0625 L121.34375,104.4375 L122.1875,104.3125 L122.5625,103.53125 L122.90625,104.34375 L123.75,104.5 L123.125,105.125 M117.1875,97.90625 L116.59375,97.53125 L115.96875,97.84375 L116.09375,97.15625 L115.625,96.625 L116.3125,96.5625 L116.625,95.9375 L116.9375,96.5625 L117.625,96.6875 L117.125,97.1875 M111.5625,97.90625 L110.9375,97.53125 L110.3125,97.84375 L110.46875,97.15625 L109.96875,96.625 L110.6875,96.5625 L111,95.9375 L111.3125,96.5625 L111.96875,96.6875 L111.46875,97.1875 M101.96875,89.5 L101.34375,89.15625 L100.71875,89.46875 L100.875,88.75 L100.375,88.25 L101.0625,88.15625 L101.375,87.53125 L101.6875,88.15625 L102.375,88.3125 L101.875,88.78125 M103.03125,106.59375 L102.53125,106.3125 L101.96875,106.59375 L102.09375,105.96875 L101.6875,105.53125 L102.28125,105.46875 L102.5625,104.9375 L102.8125,105.5 L103.40625,105.59375 L102.96875,106 M88.53125,78.9375 L87.28125,78.21875 L86.03125,78.84375 L86.3125,77.4375 L85.3125,76.40625 L86.71875,76.21875 L87.40625,74.96875 L88,76.28125 L89.375,76.53125 L88.34375,77.5" id="Shape" fill="#FFFFEF"></path>
                <path d="M138.875,89.3125 C139.649182,87.3036534 140.255426,85.2340602 140.6875,83.125 C119.5,64.53125 95.90625,55 66.09375,56.96875 C65.0124821,59.0609515 64.1234155,61.2470092 63.4375,63.5 C98.75,60.125 124.6875,75.75 138.875,89.3125 Z" id="Path" fill="#FFFFFF"></path>
                <path d="M129.375,78.875 L130.09375,79.28125 C129.986444,79.4934679 129.953433,79.7355493 130,79.96875 C130.073212,80.1948929 130.229592,80.3847831 130.4375,80.5 C130.65625,80.65625 130.875,80.75 131.0625,80.71875 C131.25,80.71875 131.375,80.625 131.46875,80.5 C131.523244,80.4170338 131.545476,80.3169873 131.53125,80.21875 C131.505663,80.1033173 131.451994,79.9959795 131.375,79.90625 C131.3125,79.8125 131.15625,79.59375 130.90625,79.34375 C130.6493,79.0785501 130.456832,78.7577709 130.34375,78.40625 C130.182592,77.8563666 130.448487,77.2713967 130.96875,77.03125 C131.196054,76.9363805 131.447233,76.9145389 131.6875,76.96875 C131.98128,77.0364263 132.257901,77.1640973 132.5,77.34375 C132.9375,77.65625 133.21875,77.96875 133.3125,78.34375 C133.399897,78.6985104 133.331679,79.0737079 133.125,79.375 L132.375,78.90625 C132.46875,78.71875 132.5,78.53125 132.4375,78.375 C132.40625,78.21875 132.28125,78.0625 132.0625,77.9375 C131.902004,77.8083915 131.705554,77.7319944 131.5,77.71875 C131.384581,77.7148642 131.276427,77.7749495 131.21875,77.875 C131.15625,77.96875 131.15625,78.0625 131.1875,78.1875 C131.21875,78.3125 131.375,78.5625 131.6875,78.875 C132,79.1875 132.1875,79.46875 132.3125,79.65625 C132.540402,80.0744831 132.503783,80.5871551 132.21875,80.96875 C132.072523,81.1811979 131.865584,81.3445705 131.625,81.4375 C131.390664,81.5453959 131.128684,81.5781434 130.875,81.53125 C130.59375,81.46875 130.3125,81.34375 130,81.125 C129.53125,80.8125 129.25,80.46875 129.15625,80.09375 C129.054449,79.6685271 129.12167,79.2203908 129.34375,78.84375 L129.375,78.875 Z M125.75,76.5 L126.53125,76.90625 C126.434474,77.1220719 126.412479,77.3640148 126.46875,77.59375 C126.548657,77.8082354 126.70427,77.9860784 126.90625,78.09375 C127.15625,78.25 127.34375,78.3125 127.53125,78.28125 C127.71875,78.28125 127.84375,78.1875 127.9375,78.03125 C127.984912,77.9569075 128.006849,77.8691578 128,77.78125 C128,77.6875 127.9375,77.5625 127.84375,77.46875 C127.683661,77.2755047 127.516894,77.0878911 127.34375,76.90625 C127,76.5625 126.78125,76.28125 126.71875,76.03125 C126.615278,75.7057218 126.661036,75.3511009 126.84375,75.0625 C126.962572,74.8696563 127.13684,74.717172 127.34375,74.625 C127.558473,74.5260022 127.797861,74.4933584 128.03125,74.53125 C128.320284,74.5799309 128.596588,74.6862015 128.84375,74.84375 C129.3125,75.15625 129.59375,75.46875 129.6875,75.8125 C129.802764,76.1679495 129.75711,76.5560062 129.5625,76.875 L128.78125,76.4375 C128.875,76.21875 128.90625,76.0625 128.84375,75.90625 C128.78125,75.75 128.65625,75.59375 128.4375,75.46875 C128.26458,75.3446559 128.056577,75.2789707 127.84375,75.28125 C127.739542,75.2882825 127.645736,75.3469111 127.59375,75.4375 C127.53125,75.53125 127.53125,75.625 127.5625,75.75 C127.59375,75.875 127.78125,76.125 128.09375,76.4375 C128.40625,76.75 128.625,77 128.71875,77.1875 C128.974444,77.5876404 128.974444,78.0998596 128.71875,78.5 C128.584079,78.7180029 128.388539,78.8918165 128.15625,79 C127.921914,79.1078959 127.659934,79.1406434 127.40625,79.09375 C127.084634,79.0393836 126.776766,78.922606 126.5,78.75 C126.09604,78.5346568 125.784814,78.1789708 125.625,77.75 C125.504244,77.3327739 125.549016,76.8850521 125.75,76.5 Z M121.3125,75.3125 L123.59375,71.5625 L126.34375,73.28125 L125.96875,73.90625 L123.96875,72.65625 L123.46875,73.5 L125.34375,74.65625 L124.9375,75.28125 L123.0625,74.125 L122.4375,75.15625 L124.53125,76.40625 L124.15625,77.03125 L121.34375,75.3125 L121.3125,75.3125 Z M114.84375,70 L115.1875,69.375 L116.875,70.21875 L116.09375,71.78125 C115.84375,71.84375 115.53125,71.875 115.15625,71.84375 C114.796172,71.8040625 114.44654,71.6981136 114.125,71.53125 C113.746855,71.3470146 113.423612,71.0668704 113.1875,70.71875 C112.972586,70.395323 112.863393,70.0131471 112.875,69.625 C112.890863,69.220983 112.997682,68.8257521 113.1875,68.46875 C113.375263,68.0929476 113.6547,67.7705205 114,67.53125 C114.330313,67.3028447 114.723437,67.1827233 115.125,67.1875 C115.4375,67.1875 115.75,67.28125 116.125,67.5 C116.625,67.71875 116.9375,68.03125 117.09375,68.375 C117.256259,68.7162444 117.289566,69.1048277 117.1875,69.46875 L116.34375,69.21875 C116.395404,69.0094278 116.373331,68.7886988 116.28125,68.59375 C116.1875,68.40625 116.03125,68.28125 115.78125,68.15625 C115.486559,67.9880261 115.13398,67.9539055 114.8125,68.0625 C114.5,68.15625 114.21875,68.4375 114,68.875 C113.78125,69.3125 113.6875,69.71875 113.78125,70.0625 C113.868648,70.3925073 114.097413,70.6670248 114.40625,70.8125 C114.5625,70.90625 114.75,70.96875 114.9375,70.96875 C115.123933,70.997035 115.313567,70.997035 115.5,70.96875 L115.75,70.46875 L114.84375,70 Z M86.65625,63.03125 L87.28125,58.65625 L88.59375,58.875 L88.9375,61.9375 L90.15625,59.125 L91.46875,59.3125 L90.84375,63.625 L90,63.5 L90.53125,60.09375 L89.15625,63.375 L88.3125,63.25 L87.96875,59.71875 L87.46875,63.15625 L86.65625,63.03125 Z M82.25,62.5 L82.65625,58.125 L85.875,58.4375 L85.8125,59.1875 L83.46875,58.96875 L83.375,59.90625 L85.5625,60.125 L85.46875,60.875 L83.28125,60.65625 L83.1875,61.84375 L85.625,62.0625 L85.5625,62.8125 L82.25,62.5 Z" id="Shape" fill="#309E3A" fill-rule="nonzero"></path>
                <g id="Group" transform="translate(67.500000, 57.500000)">
                    <path d="M0.15625,2.28125 C0.15625,1.8125 0.25,1.46875 0.375,1.15625 C0.484551677,0.934005127 0.632682682,0.73297019 0.8125,0.5625 C0.97278563,0.400837345 1.16412461,0.273278022 1.375,0.1875 C1.6875,0.09375 2,0.03125 2.3125,0.03125 C2.96875,0.03125 3.46875,0.28125 3.875,0.65625 C4.26563371,1.13881744 4.44581562,1.75819276 4.375,2.375 C4.375,3.0625 4.15625,3.625 3.75,4.03125 C3.32781452,4.4214703 2.7600445,4.61451211 2.1875,4.5625 C1.62303891,4.56821397 1.08090351,4.34232422 0.6875,3.9375 C0.298635362,3.47724021 0.107653891,2.88182739 0.15625,2.28125 Z" id="Path" fill="#309E3A"></path>
                    <path d="M1.0625,2.28125 C1.0625,2.75 1.15625,3.125 1.375,3.40625 C1.59375,3.65625 1.875,3.8125 2.25,3.8125 C2.57854557,3.83550071 2.89996434,3.70922905 3.125,3.46875 C3.34375,3.21875 3.4375,2.84375 3.46875,2.3125 C3.46875,1.8125 3.40625,1.4375 3.15625,1.1875 C2.95012462,0.932440884 2.64043064,0.783328968 2.3125,0.78125 C1.97971113,0.770606953 1.65930253,0.90792492 1.4375,1.15625 C1.1875,1.40625 1.09375,1.78125 1.0625,2.28125 Z" id="Path" fill="#F7FFFF"></path>
                </g>
                <g id="Group" transform="translate(72.812500, 57.500000)">
                    <path d="M0,4.53125 L0.0625,0.15625 L1.9375,0.15625 C2.40625,0.15625 2.71875,0.21875 2.9375,0.3125 C3.15625,0.375 3.3125,0.53125 3.4375,0.71875 C3.5625,0.90625 3.625,1.15625 3.625,1.4375 C3.6274381,1.73812646 3.51576045,2.02848836 3.3125,2.25 C3.08147282,2.46640196 2.78419028,2.59852753 2.46875,2.625 L2.9375,3 C3.0625,3.125 3.21875,3.375 3.40625,3.71875 L3.9375,4.59375 L2.875,4.59375 L2.25,3.59375 L1.8125,2.96875 C1.73673067,2.88276369 1.63976403,2.81811926 1.53125,2.78125 C1.38911438,2.73979378 1.24180794,2.71875 1.09375,2.71875 L0.90625,2.71875 L0.90625,4.53125 L0,4.53125 Z" id="Path" fill="#309E3A"></path>
                    <path d="M0.9375,2.03125 L1.5625,2.03125 C2,2.03125 2.28125,2.03125 2.375,1.96875 C2.46875,1.96875 2.5625,1.875 2.625,1.8125 C2.6875,1.75 2.71875,1.59375 2.71875,1.5 C2.71875,1.3125 2.6875,1.1875 2.59375,1.125 C2.53125,1.03125 2.40625,0.96875 2.28125,0.9375 L1.65625,0.9375 L0.9375,0.90625 L0.9375,2 L0.9375,2.03125 Z" id="Path" fill="#FFFFFF"></path>
                </g>
                <g id="Group" transform="translate(77.500000, 57.812500)">
                    <path d="M0.3125,0.0625 L1.9375,0.15625 C2.28125,0.15625 2.5625,0.1875 2.75,0.25 C2.99323264,0.338235959 3.2088396,0.489160833 3.375,0.6875 C3.55501568,0.905985092 3.68322133,1.1623964 3.75,1.4375 C3.84375,1.71875 3.875,2.0625 3.84375,2.46875 C3.84346422,2.78770687 3.79067514,3.10444136 3.6875,3.40625 C3.5625,3.71875 3.375,3.96875 3.15625,4.15625 C2.97417909,4.30626307 2.760503,4.41310111 2.53125,4.46875 C2.34375,4.53125 2.0625,4.53125 1.75,4.53125 L0.09375,4.4375 L0.3125,0.0625 Z" id="Path" fill="#309E3A"></path>
                    <path d="M1.15625,0.84375 L1,3.75 L2.1875,3.75 C2.34375,3.75 2.46875,3.6875 2.5625,3.59375 C2.65625,3.5 2.75,3.375 2.8125,3.1875 C2.875,3 2.9375,2.71875 2.9375,2.375 L2.90625,1.59375 C2.86162721,1.42896776 2.77556159,1.27835293 2.65625,1.15625 C2.55246995,1.0518726 2.42319046,0.976459558 2.28125,0.9375 C2.04493867,0.884896291 1.80439815,0.853521441 1.5625,0.84375 L1.15625,0.84375 Z" id="Path" fill="#FFFFFF"></path>
                </g>
                <g id="Group" transform="translate(99.062500, 61.250000)">
                    <path d="M0.1875,4.4375 L1.21875,0.1875 L2.59375,0.5 L3.59375,0.8125 C3.8125,0.9375 4,1.125 4.09375,1.40625 C4.21875,1.65625 4.21875,1.9375 4.15625,2.28125 C4.09375,2.53125 4,2.75 3.84375,2.90625 C3.61172279,3.1840643 3.26821275,3.34436899 2.90625,3.34375 C2.6875,3.34375 2.375,3.28125 1.96875,3.1875 L1.4375,3.03125 L1.0625,4.65625 L0.1875,4.4375 Z" id="Path" fill="#309E3A"></path>
                    <path d="M1.875,1.125 L1.625,2.3125 L2.09375,2.4375 C2.40625,2.5 2.65625,2.5625 2.78125,2.53125 C3.03037621,2.49667189 3.23068782,2.30887975 3.28125,2.0625 C3.28125,1.90625 3.28125,1.78125 3.21875,1.65625 C3.15018674,1.52922618 3.03976928,1.42985047 2.90625,1.375 L2.3125,1.21875 L1.90625,1.125 L1.875,1.125 Z" id="Path" fill="#FFFFFF"></path>
                </g>
                <g id="Group" transform="translate(103.125000, 62.500000)">
                    <path d="M0.1875,4.40625 L1.65625,0.28125 L3.375,0.90625 C3.84375,1.0625 4.125,1.21875 4.3125,1.34375 C4.46875,1.5 4.59375,1.65625 4.625,1.90625 C4.65625,2.15625 4.6875,2.375 4.625,2.625 C4.5,2.9375 4.3125,3.15625 4.0625,3.3125 C3.8125,3.4375 3.5,3.46875 3.125,3.40625 C3.25,3.5625 3.375,3.71875 3.4375,3.90625 L3.6875,4.75 L3.875,5.71875 L2.90625,5.375 L2.59375,4.25 C2.53695053,3.99557839 2.46388374,3.74506369 2.375,3.5 C2.33354254,3.40278436 2.26921893,3.31701955 2.1875,3.25 C2.125,3.15625 2,3.09375 1.78125,3.03125 L1.625,2.96875 L1,4.71875 L0.1875,4.40625 Z" id="Path" fill="#309E3A"></path>
                    <path d="M1.875,2.3125 L2.46875,2.53125 C2.875,2.6875 3.125,2.75 3.25,2.75 C3.34375,2.75 3.4375,2.75 3.53125,2.65625 C3.625,2.59375 3.6875,2.5 3.71875,2.375 C3.78125,2.25 3.78125,2.125 3.71875,2 C3.67252285,1.87888781 3.5836072,1.7788577 3.46875,1.71875 L2.84375,1.5 L2.21875,1.28125 L1.84375,2.3125 L1.875,2.3125 Z" id="Path" fill="#FFFFFF"></path>
                </g>
                <g id="Group" transform="translate(108.125000, 65.000000)">
                    <path d="M0.3125,1.75 C0.419955526,1.38409707 0.600701582,1.0438692 0.84375,0.75 C1.00179207,0.561451878 1.19229344,0.402700734 1.40625,0.28125 C1.59995592,0.171831908 1.81158888,0.0977603745 2.03125,0.0625 C2.34375,0.0625 2.65625,0.0625 3,0.1875 C3.56505223,0.327310582 4.04297137,0.702818473 4.3125,1.21875 C4.5625,1.71875 4.5625,2.3125 4.375,3 C4.22035677,3.59062976 3.83841704,4.09613822 3.3125,4.40625 C2.84375,4.6875 2.28125,4.71875 1.6875,4.53125 C1.12423324,4.38779883 0.647643428,4.01333541 0.375,3.5 C0.122194554,2.94820813 0.0997021409,2.31842056 0.3125,1.75 Z" id="Path" fill="#309E3A"></path>
                    <path d="M1.1875,2 C1.0625,2.46875 1.03125,2.875 1.1875,3.1875 C1.34375,3.5 1.5625,3.6875 1.90625,3.8125 C2.21875,3.90625 2.53125,3.875 2.84375,3.6875 C3.15625,3.53125 3.34375,3.1875 3.5,2.6875 C3.65625,2.21875 3.65625,1.84375 3.5,1.53125 C3.3751081,1.23109539 3.123164,1.0020553 2.8125,0.90625 C2.50133429,0.798834985 2.15873371,0.833095043 1.875,1 C1.5625,1.1875 1.34375,1.5 1.1875,2 Z" id="Path" fill="#FFFFFF"></path>
                </g>
                <g id="Group" transform="translate(116.875000, 68.750000)">
                    <path d="M0.09375,4.09375 L2.09375,0.21875 L3.75,1.0625 C4.06220432,1.21230145 4.34733947,1.41295211 4.59375,1.65625 C4.75,1.8125 4.84375,2 4.84375,2.25 C4.84375,2.5 4.84375,2.71875 4.71875,2.9375 C4.5986,3.21849416 4.37474416,3.44235 4.09375,3.5625 C3.78125,3.625 3.46875,3.625 3.125,3.5 C3.25,3.6875 3.3125,3.875 3.375,4.03125 C3.4375,4.21875 3.46875,4.5 3.5,4.90625 L3.5625,5.90625 L2.625,5.4375 L2.5,4.28125 C2.4851901,4.01912273 2.45387806,3.75818909 2.40625,3.5 C2.3849332,3.38309767 2.33073178,3.27469484 2.25,3.1875 L1.875,2.96875 L1.71875,2.875 L0.875,4.5 L0.09375,4.09375 Z" id="Path" fill="#309E3A"></path>
                    <path d="M2.03125,2.25 L2.625,2.5625 C3,2.75 3.25,2.875 3.34375,2.875 C3.4375,2.875 3.5625,2.875 3.65625,2.8125 C3.75,2.78125 3.8125,2.6875 3.875,2.5625 C3.9375,2.4375 3.96875,2.3125 3.9375,2.1875 C3.89892946,2.06308322 3.82244968,1.95382638 3.71875,1.875 C3.53586584,1.7627334 3.34818875,1.65846835 3.15625,1.5625 L2.53125,1.25 L2.03125,2.25 Z" id="Path" fill="#FFFFFF"></path>
                </g>
                <g id="Group" transform="translate(132.500000, 79.687500)">
                    <path d="M0.65625,1.15625 C0.858480952,0.834932314 1.12435687,0.55842136 1.4375,0.34375 C1.64775712,0.209165613 1.88070082,0.113870463 2.125,0.0625 C2.35182799,0.0161989309 2.58567201,0.0161989309 2.8125,0.0625 C3.125,0.125 3.40625,0.25 3.6875,0.4375 C4.17924726,0.743820384 4.51948672,1.24283827 4.625,1.8125 C4.71875,2.34375 4.5625,2.9375 4.1875,3.53125 C3.87381806,4.04766796 3.36807326,4.41854748 2.78125,4.5625 C2.21534724,4.68473411 1.62417602,4.55967866 1.15625,4.21875 C0.664502745,3.91242962 0.324263279,3.41341173 0.21875,2.84375 C0.125,2.28125 0.28125,1.71875 0.65625,1.15625 Z" id="Path" fill="#309E3A"></path>
                    <path d="M1.4375,1.65625 C1.125,2.0625 1.03125,2.4375 1.09375,2.78125 C1.14031025,3.10145347 1.32248775,3.38610581 1.59375,3.5625 C1.90625,3.78125 2.21875,3.84375 2.53125,3.75 C2.84375,3.65625 3.15625,3.4375 3.4375,3 C3.71875,2.5625 3.84375,2.1875 3.78125,1.875 C3.75,1.5625 3.5625,1.28125 3.28125,1.0625 C3,0.84375 2.65625,0.8125 2.34375,0.90625 C2.03125,0.96875 1.71875,1.21875 1.40625,1.65625 L1.4375,1.65625 Z" id="Path" fill="#FFFFFF"></path>
                </g>
                <polygon id="Path" fill="#309E3A" points="94.3125 63.90625 95.03125 60.84375 97.28125 61.375 97.1875 61.875 95.53125 61.5 95.375 62.1875 96.90625 62.53125 96.78125 63.0625 95.25 62.6875 95.0625 63.53125 96.78125 63.9375 96.65625 64.4375 94.3125 63.90625"></polygon>
            </g>
        </g>
    </g>
</svg>