<?xml version="1.0" encoding="UTF-8"?>
<svg width="200px" height="150px" viewBox="0 0 200 150" version="1.1" xmlns="http://www.w3.org/2000/svg" xmlns:xlink="http://www.w3.org/1999/xlink">
    <!-- Generator: Sketch 52.5 (67469) - http://www.bohemiancoding.com/sketch -->
    <title>vg</title>
    <desc>Created with Sketch.</desc>
    <defs>
        <polygon id="path-1" points="0 0 200 0 200 150 0 150"></polygon>
        <linearGradient x1="-1488.29907%" y1="243.100839%" x2="-1599.9302%" y2="207.528112%" id="linearGradient-3">
            <stop stop-color="#FF0000" offset="0%"></stop>
            <stop stop-color="#FFFF00" offset="100%"></stop>
        </linearGradient>
        <linearGradient x1="-1488.29907%" y1="250.093846%" x2="-1599.9302%" y2="214.521119%" id="linearGradient-4">
            <stop stop-color="#FF0000" offset="0%"></stop>
            <stop stop-color="#FFFF00" offset="100%"></stop>
        </linearGradient>
        <linearGradient x1="-1542.36928%" y1="255.688252%" x2="-1654.00041%" y2="220.115524%" id="linearGradient-5">
            <stop stop-color="#FF0000" offset="0%"></stop>
            <stop stop-color="#FFFF00" offset="100%"></stop>
        </linearGradient>
        <linearGradient x1="-1488.29907%" y1="262.681259%" x2="-1599.9302%" y2="227.108531%" id="linearGradient-6">
            <stop stop-color="#FF0000" offset="0%"></stop>
            <stop stop-color="#FFFF00" offset="100%"></stop>
        </linearGradient>
        <linearGradient x1="-1489.93756%" y1="268.275664%" x2="-1601.56869%" y2="232.702937%" id="linearGradient-7">
            <stop stop-color="#FF0000" offset="0%"></stop>
            <stop stop-color="#FFFF00" offset="100%"></stop>
        </linearGradient>
        <linearGradient x1="-1489.93756%" y1="275.268671%" x2="-1601.56869%" y2="239.695944%" id="linearGradient-8">
            <stop stop-color="#FF0000" offset="0%"></stop>
            <stop stop-color="#FFFF00" offset="100%"></stop>
        </linearGradient>
        <linearGradient x1="-1542.36928%" y1="274.569371%" x2="-1654.00041%" y2="238.996643%" id="linearGradient-9">
            <stop stop-color="#FF0000" offset="0%"></stop>
            <stop stop-color="#FFFF00" offset="100%"></stop>
        </linearGradient>
        <linearGradient x1="-1542.36928%" y1="268.275664%" x2="-1654.00041%" y2="232.702937%" id="linearGradient-10">
            <stop stop-color="#FF0000" offset="0%"></stop>
            <stop stop-color="#FFFF00" offset="100%"></stop>
        </linearGradient>
        <linearGradient x1="-1542.36928%" y1="262.681259%" x2="-1654.00041%" y2="227.108531%" id="linearGradient-11">
            <stop stop-color="#FF0000" offset="0%"></stop>
            <stop stop-color="#FFFF00" offset="100%"></stop>
        </linearGradient>
        <linearGradient x1="-1553.50958%" y1="241.507419%" x2="-1665.9079%" y2="206.270323%" id="linearGradient-12">
            <stop stop-color="#FF0000" offset="0%"></stop>
            <stop stop-color="#FFFF00" offset="100%"></stop>
        </linearGradient>
        <linearGradient x1="-1542.36928%" y1="249.394545%" x2="-1654.00041%" y2="213.821818%" id="linearGradient-13">
            <stop stop-color="#FF0000" offset="0%"></stop>
            <stop stop-color="#FFFF00" offset="100%"></stop>
        </linearGradient>
        <linearGradient x1="-1498.13002%" y1="255.688252%" x2="-1609.76115%" y2="220.115524%" id="linearGradient-14">
            <stop stop-color="#FF0000" offset="0%"></stop>
            <stop stop-color="#FFFF00" offset="100%"></stop>
        </linearGradient>
    </defs>
    <g id="Flags" stroke="none" stroke-width="1" fill="none" fill-rule="evenodd">
        <g id="North-America" transform="translate(-1170.000000, -1050.000000)">
            <g id="vg" transform="translate(1170.000000, 1050.000000)">
                <mask id="mask-2" fill="white">
                    <use xlink:href="#path-1"></use>
                </mask>
                <g id="Path"></g>
                <g id="Group" mask="url(#mask-2)">
                    <polygon id="Path" fill="#000066" points="0 0 300 0 300 150 0 150"></polygon>
                    <polygon id="Path" fill="#000066" points="0 0 109.375 0 109.375 54.6875 0 54.6875"></polygon>
                    <g fill-rule="nonzero" id="Shape">
                        <path d="M0,0 L0,6.125 L97.15625,54.6875 L109.375,54.6875 L109.375,48.5625 L12.21875,0 L0,0 Z M109.375,0 L109.375,6.125 L12.21875,54.6875 L0,54.6875 L0,48.5625 L97.15625,0 L109.375,0 Z" fill="#FFFFFF"></path>
                        <path d="M45.5625,0 L45.5625,54.6875 L63.8125,54.6875 L63.8125,0 L45.5625,0 Z M0,18.21875 L0,36.46875 L109.375,36.46875 L109.375,18.21875 L0,18.21875 Z" fill="#FFFFFF"></path>
                        <path d="M0,21.875 L0,32.8125 L109.375,32.8125 L109.375,21.875 L0,21.875 Z M49.21875,0 L49.21875,54.6875 L60.15625,54.6875 L60.15625,0 L49.21875,0 Z M0,54.6875 L36.46875,36.46875 L44.59375,36.46875 L8.1875,54.6875 L0,54.6875 Z M0,0 L36.46875,18.21875 L28.3125,18.21875 L0,4.0625 L0,0 Z M64.78125,18.21875 L101.21875,0 L109.375,0 L72.90625,18.21875 L64.78125,18.21875 Z M109.375,54.6875 L72.90625,36.46875 L81.0625,36.46875 L109.375,50.625 L109.375,54.6875 Z" fill="#CC0000"></path>
                    </g>
                    <path d="M118.28125,48.28125 L186.8125,48 L186.6875,109.0625 C186.6875,109.0625 189.09375,118.34375 157.9375,132.46875 C169.15625,131.3125 181.375,119.34375 181.375,119.34375 C181.375,119.34375 186.3125,113 188.71875,116.53125 C190.475558,119.151676 192.675046,121.446334 195.21875,123.3125 C197,124.6875 198.40625,128.5 195.71875,131.3125 C193.0625,134.125 188.84375,134.5 187.71875,131.0625 C185.9375,131.9375 175,145.1875 152.625,145.8125 C139.360518,145.758114 126.668446,140.402239 117.375,130.9375 C117.375,130.9375 114.34375,135.75 110,131.9375 C105.8125,127 109,123.8125 109,123.8125 C109,123.8125 112.5625,121.78125 113.5625,120.375 C115.21875,118.46875 115.75,115.9375 118.53125,115.9375 C121.84375,116.1875 123.125,118.84375 123.125,118.84375 C123.125,118.84375 134.5625,130.9375 146.875,132.4375 C119.0625,119.09375 118.03125,110.84375 118.125,108.8125 L118.28125,48.28125 Z" id="Path" fill="#FFFFFF"></path>
                    <path d="M119.9375,49.90625 L185.28125,49.53125 L185.28125,108.28125 C185.40625,115.90625 172.5625,123.6875 152.46875,133.59375 C131.75,122.90625 119.8125,116.40625 119.65625,108.15625 L119.9375,49.90625 Z" id="Path" stroke="#000000" stroke-width="0.85" fill="#006129"></path>
                    <polyline id="Path" stroke="#F7C600" stroke-width="0.85" points="127.8125 114.65625 131.65625 109 135.53125 114.65625"></polyline>
                    <path d="M132.40625,112.53125 C132.469281,112.841657 132.338654,113.159403 132.075527,113.335725 C131.8124,113.512047 131.46885,113.512047 131.205723,113.335725 C130.942596,113.159403 130.811969,112.841657 130.875,112.53125 C130.875,112.099778 131.224778,111.75 131.65625,111.75 C132.087722,111.75 132.4375,112.099778 132.4375,112.53125 L132.40625,112.53125 Z" id="Path" stroke="#000000" stroke-width="0.4" fill="#F7C600"></path>
                    <path d="M128.5,118.84375 L134.5,118.84375 C134.5,118.84375 134.59375,118.09375 133.875,117.59375 C137,117.1875 136.1875,114.40625 138.8125,114.25 C139.3125,114.34375 137.4375,115.4375 137.4375,115.4375 C137.4375,115.4375 135.875,116.5625 136.5625,117.125 C137.15625,117.5625 137.40625,116.84375 137.5,116.28125 C137.5625,115.75 140,115.40625 139.6875,113.8125 C139.0625,112.5625 135.625,114.6875 135.625,114.6875 L133.1875,114.6875 C133.03125,114.375 132.34375,113.28125 131.625,113.28125 C130.8125,113.3125 130.25,114.6875 130.25,114.6875 L124.6875,114.6875 C124.6875,114.6875 124.5,116.125 127.3125,116.40625 C127.9375,117.21875 128.4375,117.46875 128.96875,117.65625 C128.625,117.96875 128.5,118.34375 128.5,118.84375 Z" id="Path" stroke="#000000" stroke-width="0.4" fill="#F7C600"></path>
                    <path d="M128.9375,117.625 L133.9375,117.625 M126.65625,114.6875 C126.65625,114.6875 127.0625,117.03125 128.90625,117.5625" id="Shape" stroke="#000000" stroke-width="0.4"></path>
                    <path d="M126.338047,114.651953 C126.544688,113.784063 126.875313,113.61875 127.247266,112.502891 C127.288594,111.387031 126.338047,111.511016 126.627344,110.808438 C127.123281,110.023203 126.875313,109.320625 125.966094,108.742031 C126.131406,109.733906 124.72625,110.684453 124.72625,111.511016 C124.72625,112.337578 125.470156,112.172266 125.3875,113.412109 C125.3875,114.156016 125.180859,113.949375 125.139531,114.651953 L126.379375,114.651953 L126.338047,114.651953 Z" id="Path" stroke="#000000" stroke-width="0.4" fill="url(#linearGradient-3)"></path>
                    <path d="M132.34375,109.125 C132.40449,109.411529 132.285289,109.706255 132.042437,109.869997 C131.799584,110.033738 131.481666,110.033738 131.238813,109.869997 C130.995961,109.706255 130.87676,109.411529 130.9375,109.125 C131.007907,108.79287 131.301114,108.555303 131.640625,108.555303 C131.980136,108.555303 132.273343,108.79287 132.34375,109.125 Z" id="Path" stroke="#000000" stroke-width="0.4" fill="#F7C600"></path>
                    <polyline id="Path" stroke="#F7C600" stroke-width="0.85" points="127.5625 103 131.4375 97.3125 135.3125 103"></polyline>
                    <path d="M132.1875,100.875 C132.250531,101.185407 132.119904,101.503153 131.856777,101.679475 C131.59365,101.855797 131.2501,101.855797 130.986973,101.679475 C130.723846,101.503153 130.593219,101.185407 130.65625,100.875 C130.65625,100.443528 131.006028,100.09375 131.4375,100.09375 C131.868972,100.09375 132.21875,100.443528 132.21875,100.875 L132.1875,100.875 Z" id="Path" stroke="#000000" stroke-width="0.4" fill="#F7C600"></path>
                    <path d="M128.28125,107.1875 L134.28125,107.1875 C134.28125,107.1875 134.375,106.4375 133.65625,105.9375 C136.78125,105.53125 135.96875,102.75 138.59375,102.59375 C139.09375,102.6875 137.21875,103.78125 137.21875,103.78125 C137.21875,103.78125 135.65625,104.875 136.34375,105.46875 C136.9375,105.90625 137.1875,105.15625 137.28125,104.625 C137.34375,104.09375 139.78125,103.71875 139.46875,102.15625 C138.84375,100.875 135.40625,103.03125 135.40625,103.03125 L132.96875,103.03125 C132.8125,102.71875 132.125,101.625 131.40625,101.625 C130.59375,101.65625 130.03125,103.03125 130.03125,103.03125 L124.46875,103.03125 C124.46875,103.03125 124.28125,104.46875 127.09375,104.71875 C127.71875,105.5625 128.21875,105.78125 128.75,106 C128.40625,106.3125 128.28125,106.6875 128.28125,107.1875 Z" id="Path" stroke="#000000" stroke-width="0.4" fill="#F7C600"></path>
                    <path d="M128.75,105.9375 L133.71875,105.9375 M126.4375,103.03125 C126.4375,103.03125 126.84375,105.34375 128.6875,105.90625" id="Shape" stroke="#000000" stroke-width="0.4"></path>
                    <path d="M126.150547,102.964453 C126.357187,102.096563 126.687813,101.93125 127.059766,100.815391 C127.101094,99.6995313 126.150547,99.8235156 126.439844,99.1209375 C126.935781,98.3357031 126.687813,97.633125 125.778594,97.0545313 C125.943906,98.0464063 124.53875,98.9969531 124.53875,99.8235156 C124.53875,100.650078 125.282656,100.484766 125.2,101.724609 C125.2,102.468516 124.993359,102.261875 124.952031,102.964453 L126.191875,102.964453 L126.150547,102.964453 Z" id="Path" stroke="#000000" stroke-width="0.4" fill="url(#linearGradient-4)"></path>
                    <path d="M132.125,97.46875 C132.18574,97.7552793 132.066539,98.0500053 131.823687,98.2137468 C131.580834,98.3774884 131.262916,98.3774884 131.020063,98.2137468 C130.777211,98.0500053 130.65801,97.7552793 130.71875,97.46875 C130.789157,97.1366199 131.082364,96.899053 131.421875,96.899053 C131.761386,96.899053 132.054593,97.1366199 132.125,97.46875 Z" id="Path" stroke="#000000" stroke-width="0.4" fill="#F7C600"></path>
                    <polyline id="Path" stroke="#F7C600" stroke-width="0.85" points="168.5625 92.375 172.40625 86.75 176.28125 92.375"></polyline>
                    <path d="M173.1875,90.28125 C173.250531,90.591657 173.119904,90.9094032 172.856777,91.0857253 C172.59365,91.2620473 172.2501,91.2620473 171.986973,91.0857253 C171.723846,90.9094032 171.593219,90.591657 171.65625,90.28125 C171.730186,89.9171369 172.050331,89.6554668 172.421875,89.6554668 C172.793419,89.6554668 173.113564,89.9171369 173.1875,90.28125 Z" id="Path" stroke="#000000" stroke-width="0.4" fill="#F7C600"></path>
                    <path d="M169.28125,96.5625 L175.25,96.59375 C175.25,96.59375 175.34375,95.8125 174.625,95.34375 C177.75,94.90625 176.96875,92.15625 179.59375,92 C180.09375,92.0625 178.21875,93.1875 178.21875,93.1875 C178.21875,93.1875 176.65625,94.28125 177.34375,94.84375 C177.9375,95.3125 178.1875,94.59375 178.25,94.03125 C178.34375,93.46875 180.8125,93.125 180.4375,91.5625 C179.84375,90.28125 176.40625,92.4375 176.40625,92.4375 L173.9375,92.4375 C173.8125,92.125 173.125,91.03125 172.40625,91.03125 C171.59375,91.03125 171,92.4375 171,92.4375 L165.4375,92.4375 C165.4375,92.4375 165.25,93.84375 168.0625,94.125 C168.6875,94.96875 169.1875,95.1875 169.75,95.375 C169.375,95.6875 169.28125,96.09375 169.28125,96.5625 Z" id="Path" stroke="#000000" stroke-width="0.4" fill="#F7C600"></path>
                    <path d="M169.6875,95.375 L174.6875,95.375 M167.4375,92.4375 C167.4375,92.4375 167.84375,94.75 169.65625,95.3125" id="Shape" stroke="#000000" stroke-width="0.4"></path>
                    <path d="M167.088047,92.3707031 C167.294688,91.5028125 167.625313,91.3375 167.997266,90.2216406 C168.038594,89.1057813 167.088047,89.2297656 167.377344,88.5271875 C167.873281,87.7419531 167.625313,87.039375 166.716094,86.4607813 C166.881406,87.4526563 165.47625,88.4032031 165.47625,89.2297656 C165.47625,90.0563281 166.220156,89.8910156 166.1375,91.1308594 C166.1375,91.8747656 165.930859,91.668125 165.889531,92.3707031 L167.129375,92.3707031 L167.088047,92.3707031 Z" id="Path" stroke="#000000" stroke-width="0.4" fill="url(#linearGradient-5)"></path>
                    <path d="M173.125,86.875 C173.18574,87.1615293 173.066539,87.4562553 172.823687,87.6199968 C172.580834,87.7837384 172.262916,87.7837384 172.020063,87.6199968 C171.777211,87.4562553 171.65801,87.1615293 171.71875,86.875 C171.789157,86.5428699 172.082364,86.305303 172.421875,86.305303 C172.761386,86.305303 173.054593,86.5428699 173.125,86.875 Z" id="Path" stroke="#000000" stroke-width="0.4" fill="#F7C600"></path>
                    <polyline id="Path" stroke="#F7C600" stroke-width="0.85" points="128.53125 81.0625 132.375 75.375 136.25 81.0625"></polyline>
                    <path d="M133.15625,78.9375 C133.219281,79.247907 133.088654,79.5656532 132.825527,79.7419753 C132.5624,79.9182973 132.21885,79.9182973 131.955723,79.7419753 C131.692596,79.5656532 131.561969,79.247907 131.625,78.9375 C131.698936,78.5733869 132.019081,78.3117168 132.390625,78.3117168 C132.762169,78.3117168 133.082314,78.5733869 133.15625,78.9375 Z" id="Path" stroke="#000000" stroke-width="0.4" fill="#F7C600"></path>
                    <path d="M129.25,85.25 L135.21875,85.25 C135.21875,85.25 135.3125,84.46875 134.59375,84 C137.71875,83.5625 136.9375,80.8125 139.5625,80.65625 C140.0625,80.75 138.1875,81.84375 138.1875,81.84375 C138.1875,81.84375 136.59375,82.9375 137.3125,83.53125 C137.875,83.96875 138.125,83.21875 138.21875,82.6875 C138.28125,82.15625 140.75,81.78125 140.40625,80.21875 C139.8125,78.9375 136.375,81.09375 136.375,81.09375 L133.90625,81.09375 C133.75,80.78125 133.09375,79.6875 132.375,79.6875 C131.5625,79.71875 130.96875,81.09375 130.96875,81.09375 L125.40625,81.09375 C125.40625,81.09375 125.21875,82.53125 128.03125,82.78125 C128.65625,83.625 129.15625,83.84375 129.71875,84.0625 C129.34375,84.375 129.25,84.75 129.25,85.25 Z" id="Path" stroke="#000000" stroke-width="0.4" fill="#F7C600"></path>
                    <path d="M129.6875,84.03125 L134.6875,84.03125 M127.40625,81.09375 C127.40625,81.09375 127.8125,83.40625 129.625,83.96875" id="Shape" stroke="#000000" stroke-width="0.4"></path>
                    <path d="M127.088047,81.0269531 C127.294687,80.1590625 127.625313,79.99375 127.997266,78.8778906 C128.038594,77.7620313 127.088047,77.8860156 127.377344,77.1834375 C127.873281,76.3982031 127.625313,75.695625 126.716094,75.1170312 C126.881406,76.1089063 125.47625,77.0594531 125.47625,77.8860156 C125.47625,78.7125781 126.220156,78.5472656 126.1375,79.7871094 C126.1375,80.5310156 125.930859,80.324375 125.889531,81.0269531 L127.129375,81.0269531 L127.088047,81.0269531 Z" id="Path" stroke="#000000" stroke-width="0.4" fill="url(#linearGradient-6)"></path>
                    <path d="M133.09375,75.53125 C133.15449,75.8177793 133.035289,76.1125053 132.792437,76.2762468 C132.549584,76.4399884 132.231666,76.4399884 131.988813,76.2762468 C131.745961,76.1125053 131.62676,75.8177793 131.6875,75.53125 C131.757907,75.1991199 132.051114,74.961553 132.390625,74.961553 C132.730136,74.961553 133.023343,75.1991199 133.09375,75.53125 Z" id="Path" stroke="#000000" stroke-width="0.4" fill="#F7C600"></path>
                    <polyline id="Path" stroke="#F7C600" stroke-width="0.85" points="128.625 69.90625 132.46875 64.25 136.34375 69.9375"></polyline>
                    <path d="M133.25,67.8125 C133.25,68.2439725 132.900222,68.59375 132.46875,68.59375 C132.037278,68.59375 131.6875,68.2439725 131.6875,67.8125 C131.6875,67.3810275 132.037278,67.03125 132.46875,67.03125 C132.900222,67.03125 133.25,67.3810275 133.25,67.8125 Z" id="Path" stroke="#000000" stroke-width="0.4" fill="#F7C600"></path>
                    <path d="M129.34375,74.09375 L135.3125,74.09375 C135.3125,74.09375 135.40625,73.34375 134.6875,72.84375 C137.8125,72.4375 137,69.6875 139.625,69.53125 C140.15625,69.59375 138.25,70.6875 138.25,70.6875 C138.25,70.6875 136.6875,71.8125 137.40625,72.375 C137.96875,72.8125 138.21875,72.09375 138.3125,71.5625 C138.375,71 140.84375,70.625 140.5,69.0625 C139.90625,67.8125 136.4375,69.9375 136.4375,69.9375 L134,69.9375 C133.84375,69.65625 133.15625,68.5625 132.46875,68.53125 C131.65625,68.5625 131.0625,69.9375 131.0625,69.9375 L125.5,69.9375 C125.5,69.9375 125.3125,71.375 128.125,71.65625 C128.75,72.46875 129.25,72.71875 129.8125,72.90625 C129.4375,73.21875 129.34375,73.59375 129.34375,74.09375 Z" id="Path" stroke="#000000" stroke-width="0.4" fill="#F7C600"></path>
                    <path d="M129.78125,72.875 L134.75,72.875 M127.5,69.9375 C127.5,69.9375 127.875,72.28125 129.71875,72.8125" id="Shape" stroke="#000000" stroke-width="0.4"></path>
                    <path d="M127.181797,69.9019531 C127.388437,69.0340625 127.719062,68.86875 128.091016,67.7528906 C128.132344,66.6370313 127.181797,66.7610156 127.471094,66.0584375 C127.967031,65.2732031 127.719062,64.570625 126.809844,63.9920313 C126.975156,64.9839063 125.57,65.9344531 125.57,66.7610156 C125.57,67.5875781 126.313906,67.4222656 126.23125,68.6621094 C126.23125,69.4060156 126.024609,69.199375 125.983281,69.9019531 L127.223125,69.9019531 L127.181797,69.9019531 Z" id="Path" stroke="#000000" stroke-width="0.4" fill="url(#linearGradient-7)"></path>
                    <path d="M133.1875,64.375 C133.24824,64.6615293 133.129039,64.9562553 132.886187,65.1199968 C132.643334,65.2837384 132.325416,65.2837384 132.082563,65.1199968 C131.839711,64.9562553 131.72051,64.6615293 131.78125,64.375 C131.851657,64.0428699 132.144864,63.805303 132.484375,63.805303 C132.823886,63.805303 133.117093,64.0428699 133.1875,64.375 Z" id="Path" stroke="#000000" stroke-width="0.4" fill="#F7C600"></path>
                    <polyline id="Path" stroke="#F7C600" stroke-width="0.85" points="128.8125 58.59375 132.6875 52.9375 136.5625 58.625"></polyline>
                    <path d="M133.4375,56.5 C133.530639,56.8193337 133.411362,57.1626234 133.140286,57.35541 C132.86921,57.5481967 132.50579,57.5481967 132.234714,57.35541 C131.963638,57.1626234 131.844361,56.8193337 131.9375,56.5 C132.011436,56.1358869 132.331581,55.8742168 132.703125,55.8742168 C133.074669,55.8742168 133.394814,56.1358869 133.46875,56.5 L133.4375,56.5 Z" id="Path" stroke="#000000" stroke-width="0.4" fill="#F7C600"></path>
                    <path d="M129.5625,62.8125 L135.5,62.8125 C135.5,62.8125 135.625,62.03125 134.875,61.5625 C138.03125,61.125 137.21875,58.375 139.875,58.21875 C140.34375,58.28125 138.46875,59.375 138.46875,59.375 C138.46875,59.375 136.90625,60.5 137.625,61.0625 C138.1875,61.53125 138.4375,60.78125 138.53125,60.25 C138.59375,59.6875 141.03125,59.34375 140.71875,57.75 C140.09375,56.5 136.65625,58.625 136.65625,58.625 L134.21875,58.625 C134.0625,58.34375 133.375,57.25 132.65625,57.25 C131.84375,57.25 131.28125,58.65625 131.28125,58.65625 L125.71875,58.65625 C125.71875,58.65625 125.53125,60.0625 128.34375,60.34375 C128.759006,60.9292705 129.350133,61.3671418 130.03125,61.59375 C129.65625,61.90625 129.5625,62.28125 129.5625,62.78125 L129.5625,62.8125 Z" id="Path" stroke="#000000" stroke-width="0.4" fill="#F7C600"></path>
                    <path d="M130,61.5625 L134.96875,61.5625 M127.6875,58.625 C127.6875,58.625 128.09375,60.96875 129.9375,61.53125" id="Shape" stroke="#000000" stroke-width="0.4"></path>
                    <path d="M127.400547,58.5894531 C127.607187,57.7215625 127.937812,57.55625 128.309766,56.4403906 C128.351094,55.3245313 127.400547,55.4485156 127.689844,54.7459375 C128.185781,53.9607031 127.937812,53.258125 127.028594,52.6795313 C127.193906,53.6714063 125.78875,54.6219531 125.78875,55.4485156 C125.78875,56.2750781 126.532656,56.1097656 126.45,57.3496094 C126.45,58.0935156 126.243359,57.886875 126.202031,58.5894531 L127.441875,58.5894531 L127.400547,58.5894531 Z" id="Path" stroke="#000000" stroke-width="0.4" fill="url(#linearGradient-8)"></path>
                    <path d="M133.40625,53.09375 C133.46699,53.3802793 133.347789,53.6750053 133.104937,53.8387468 C132.862084,54.0024884 132.544166,54.0024884 132.301313,53.8387468 C132.058461,53.6750053 131.93926,53.3802793 132,53.09375 C132.070407,52.7616199 132.363614,52.524053 132.703125,52.524053 C133.042636,52.524053 133.335843,52.7616199 133.40625,53.09375 Z" id="Path" stroke="#000000" stroke-width="0.4" fill="#F7C600"></path>
                    <polyline id="Path" stroke="#F7C600" stroke-width="0.85" points="168.875 58.78125 172.71875 53.125 176.59375 58.8125"></polyline>
                    <path d="M173.5,56.65625 C173.5,57.0877225 173.150222,57.4375 172.71875,57.4375 C172.287278,57.4375 171.9375,57.0877225 171.9375,56.65625 C171.9375,56.2247775 172.287278,55.875 172.71875,55.875 C173.150222,55.875 173.5,56.2247775 173.5,56.65625 Z" id="Path" stroke="#000000" stroke-width="0.4" fill="#F7C600"></path>
                    <path d="M169.59375,62.96875 L175.5625,62.96875 C175.5625,62.96875 175.65625,62.21875 174.9375,61.71875 C178.0625,61.3125 177.25,58.5625 179.875,58.40625 C180.40625,58.46875 178.5,59.5625 178.5,59.5625 C178.5,59.5625 176.9375,60.6875 177.65625,61.25 C178.21875,61.6875 178.46875,60.96875 178.5625,60.4375 C178.625,59.875 181.09375,59.5 180.75,57.9375 C180.15625,56.6875 176.6875,58.8125 176.6875,58.8125 L174.25,58.8125 C174.09375,58.53125 173.4375,57.4375 172.71875,57.4375 C171.90625,57.4375 171.3125,58.8125 171.3125,58.8125 L165.75,58.8125 C165.75,58.8125 165.5625,60.25 168.375,60.53125 C168.790256,61.1167705 169.381383,61.5546418 170.0625,61.78125 C169.6875,62.09375 169.59375,62.46875 169.59375,62.96875 Z" id="Path" stroke="#000000" stroke-width="0.4" fill="#F7C600"></path>
                    <path d="M170,61.75 L175,61.75 M167.71875,58.8125 C167.71875,58.8125 168.125,61.15625 169.96875,61.71875" id="Shape" stroke="#000000" stroke-width="0.4"></path>
                    <path d="M167.400547,58.7769531 C167.607188,57.9090625 167.937813,57.74375 168.309766,56.6278906 C168.351094,55.5120313 167.400547,55.6360156 167.689844,54.9334375 C168.185781,54.1482031 167.937813,53.445625 167.028594,52.8670313 C167.193906,53.8589063 165.78875,54.8094531 165.78875,55.6360156 C165.78875,56.4625781 166.532656,56.2972656 166.45,57.5371094 C166.45,58.2810156 166.243359,58.074375 166.202031,58.7769531 L167.441875,58.7769531 L167.400547,58.7769531 Z" id="Path" stroke="#000000" stroke-width="0.4" fill="url(#linearGradient-9)"></path>
                    <path d="M173.4375,53.25 C173.49824,53.5365293 173.379039,53.8312553 173.136187,53.9949968 C172.893334,54.1587384 172.575416,54.1587384 172.332563,53.9949968 C172.089711,53.8312553 171.97051,53.5365293 172.03125,53.25 C172.101657,52.9178699 172.394864,52.680303 172.734375,52.680303 C173.073886,52.680303 173.367093,52.9178699 173.4375,53.25 Z" id="Path" stroke="#000000" stroke-width="0.4" fill="#F7C600"></path>
                    <polyline id="Path" stroke="#F7C600" stroke-width="0.85" points="168.5 69.875 172.34375 64.21875 176.21875 69.90625"></polyline>
                    <path d="M173.125,67.75 C173.188031,68.060407 173.057404,68.3781532 172.794277,68.5544753 C172.53115,68.7307973 172.1876,68.7307973 171.924473,68.5544753 C171.661346,68.3781532 171.530719,68.060407 171.59375,67.75 C171.59375,67.3185275 171.943528,66.96875 172.375,66.96875 C172.806472,66.96875 173.15625,67.3185275 173.15625,67.75 L173.125,67.75 Z" id="Path" stroke="#000000" stroke-width="0.4" fill="#F7C600"></path>
                    <path d="M169.21875,74.0625 L175.1875,74.0625 C175.1875,74.0625 175.28125,73.3125 174.5625,72.8125 C177.6875,72.40625 176.90625,69.65625 179.53125,69.5 C180.03125,69.5625 178.15625,70.65625 178.15625,70.65625 C178.15625,70.65625 176.59375,71.78125 177.28125,72.34375 C177.875,72.8125 178.125,72.0625 178.1875,71.53125 C178.28125,70.96875 180.75,70.625 180.375,69.03125 C179.78125,67.78125 176.34375,69.9375 176.34375,69.9375 L173.90625,69.9375 C173.75,69.625 173.0625,68.53125 172.34375,68.53125 C171.53125,68.53125 170.9375,69.90625 170.9375,69.90625 L165.375,69.90625 C165.375,69.90625 165.1875,71.34375 168,71.625 C168.625,72.46875 169.125,72.6875 169.6875,72.875 C169.3125,73.1875 169.21875,73.5625 169.21875,74.0625 Z" id="Path" stroke="#000000" stroke-width="0.4" fill="#F7C600"></path>
                    <path d="M169.65625,72.875 L174.65625,72.84375 M167.375,69.90625 C167.375,69.90625 167.78125,72.25 169.59375,72.8125" id="Shape" stroke="#000000" stroke-width="0.4"></path>
                    <path d="M167.056797,69.8707031 C167.263437,69.0028125 167.594062,68.8375 167.966016,67.7216406 C168.007344,66.6057813 167.056797,66.7297656 167.346094,66.0271875 C167.842031,65.2419531 167.594062,64.539375 166.684844,63.9607813 C166.850156,64.9526563 165.445,65.9032031 165.445,66.7297656 C165.445,67.5563281 166.188906,67.3910156 166.10625,68.6308594 C166.10625,69.3747656 165.899609,69.168125 165.858281,69.8707031 L167.098125,69.8707031 L167.056797,69.8707031 Z" id="Path" stroke="#000000" stroke-width="0.4" fill="url(#linearGradient-10)"></path>
                    <path d="M173.0625,64.375 C173.12324,64.6615293 173.004039,64.9562553 172.761187,65.1199968 C172.518334,65.2837384 172.200416,65.2837384 171.957563,65.1199968 C171.714711,64.9562553 171.59551,64.6615293 171.65625,64.375 C171.726657,64.0428699 172.019864,63.805303 172.359375,63.805303 C172.698886,63.805303 172.992093,64.0428699 173.0625,64.375 Z" id="Path" stroke="#000000" stroke-width="0.4" fill="#F7C600"></path>
                    <polyline id="Path" stroke="#F7C600" stroke-width="0.85" points="168 81.25 171.875 75.5625 175.75 81.25"></polyline>
                    <path d="M172.625,79.125 C172.688031,79.435407 172.557404,79.7531532 172.294277,79.9294753 C172.03115,80.1057973 171.6876,80.1057973 171.424473,79.9294753 C171.161346,79.7531532 171.030719,79.435407 171.09375,79.125 C171.09375,78.6935275 171.443528,78.34375 171.875,78.34375 C172.306472,78.34375 172.65625,78.6935275 172.65625,79.125 L172.625,79.125 Z" id="Path" stroke="#000000" stroke-width="0.4" fill="#F7C600"></path>
                    <path d="M168.75,85.40625 L174.6875,85.40625 C174.6875,85.40625 174.8125,84.65625 174.0625,84.15625 C177.21875,83.75 176.40625,81 179.03125,80.84375 C179.53125,80.90625 177.65625,82 177.65625,82 C177.65625,82 176.09375,83.125 176.78125,83.6875 C177.375,84.15625 177.625,83.40625 177.71875,82.875 C177.8125,82.34375 180.21875,81.96875 179.90625,80.375 C179.28125,79.125 175.84375,81.25 175.84375,81.25 L173.4375,81.25 C173.28125,80.96875 172.59375,79.875 171.875,79.875 C171.0625,79.875 170.5,81.25 170.5,81.25 L164.9375,81.25 C164.9375,81.25 164.75,82.6875 167.5625,82.96875 C167.96962,83.5490046 168.5491,83.9863479 169.21875,84.21875 C168.875,84.53125 168.75,84.90625 168.75,85.40625 Z" id="Path" stroke="#000000" stroke-width="0.4" fill="#F7C600"></path>
                    <path d="M169.15625,84.1875 L174.15625,84.1875 M166.875,81.25 C166.875,81.25 167.28125,83.5625 169.125,84.125" id="Shape" stroke="#000000" stroke-width="0.4"></path>
                    <path d="M166.556797,81.2144531 C166.763438,80.3465625 167.094062,80.18125 167.466016,79.0653906 C167.507344,77.9495313 166.556797,78.0735156 166.846094,77.3709375 C167.342031,76.5857031 167.094062,75.883125 166.184844,75.3045313 C166.350156,76.2964063 164.945,77.2469531 164.945,78.0735156 C164.945,78.9000781 165.688906,78.7347656 165.60625,79.9746094 C165.60625,80.7185156 165.399609,80.511875 165.358281,81.2144531 L166.598125,81.2144531 L166.556797,81.2144531 Z" id="Path" stroke="#000000" stroke-width="0.4" fill="url(#linearGradient-11)"></path>
                    <path d="M172.5625,75.71875 C172.62324,76.0052793 172.504039,76.3000053 172.261187,76.4637468 C172.018334,76.6274884 171.700416,76.6274884 171.457563,76.4637468 C171.214711,76.3000053 171.09551,76.0052793 171.15625,75.71875 C171.226657,75.3866199 171.519864,75.149053 171.859375,75.149053 C172.198886,75.149053 172.492093,75.3866199 172.5625,75.71875 Z" id="Path" stroke="#000000" stroke-width="0.4" fill="#F7C600"></path>
                    <polyline id="Path" stroke="#F7C600" stroke-width="0.85" points="168.5 114.78125 172.34375 109.09375 176.21875 114.78125"></polyline>
                    <path d="M173.125,112.65625 C173.188031,112.966657 173.057404,113.284403 172.794277,113.460725 C172.53115,113.637047 172.1876,113.637047 171.924473,113.460725 C171.661346,113.284403 171.530719,112.966657 171.59375,112.65625 C171.667686,112.292137 171.987831,112.030467 172.359375,112.030467 C172.730919,112.030467 173.051064,112.292137 173.125,112.65625 Z" id="Path" stroke="#000000" stroke-width="0.4" fill="#F7C600"></path>
                    <path d="M169.21875,118.96875 L175.1875,118.96875 C175.1875,118.96875 175.28125,118.1875 174.5625,117.71875 C177.6875,117.3125 176.90625,114.53125 179.53125,114.375 C180.03125,114.46875 178.15625,115.5625 178.15625,115.5625 C178.15625,115.5625 176.59375,116.65625 177.28125,117.25 C177.875,117.6875 178.125,116.9375 178.1875,116.40625 C178.28125,115.875 180.75,115.5 180.375,113.9375 C179.78125,112.65625 176.34375,114.8125 176.34375,114.8125 L173.875,114.8125 C173.75,114.5 173.0625,113.40625 172.34375,113.40625 C171.53125,113.4375 170.9375,114.8125 170.9375,114.8125 L165.375,114.8125 C165.375,114.8125 165.1875,116.25 168,116.5 C168.625,117.34375 169.125,117.5625 169.6875,117.78125 C169.3125,118.09375 169.21875,118.46875 169.21875,118.96875 Z" id="Path" stroke="#000000" stroke-width="0.4" fill="#F7C600"></path>
                    <path d="M169.65625,117.75 L174.65625,117.75 M167.375,114.8125 C167.375,114.8125 167.78125,117.125 169.59375,117.6875" id="Shape" stroke="#000000" stroke-width="0.4"></path>
                    <path d="M167.057578,114.797797 C167.250047,113.899609 167.570828,113.739219 167.955766,112.616484 C168.019922,111.49375 167.057578,111.654141 167.314203,110.916344 C167.827453,110.146469 167.570828,109.408672 166.672641,108.831266 C166.833031,109.857766 165.453672,110.788031 165.453672,111.622062 C165.453672,112.456094 166.159391,112.263625 166.095234,113.54675 C166.127313,114.252469 165.902766,114.092078 165.838609,114.797797 L167.057578,114.797797 Z" id="Path" stroke="#000000" stroke-width="0.4" fill="url(#linearGradient-12)"></path>
                    <path d="M173.0625,109.25 C173.12324,109.536529 173.004039,109.831255 172.761187,109.994997 C172.518334,110.158738 172.200416,110.158738 171.957563,109.994997 C171.714711,109.831255 171.59551,109.536529 171.65625,109.25 C171.726657,108.91787 172.019864,108.680303 172.359375,108.680303 C172.698886,108.680303 172.992093,108.91787 173.0625,109.25 Z" id="Path" stroke="#000000" stroke-width="0.4" fill="#F7C600"></path>
                    <polyline id="Path" stroke="#F7C600" stroke-width="0.85" points="168.4375 103.5625 172.28125 97.875 176.15625 103.5625"></polyline>
                    <path d="M173.0625,101.4375 C173.125531,101.747907 172.994904,102.065653 172.731777,102.241975 C172.46865,102.418297 172.1251,102.418297 171.861973,102.241975 C171.598846,102.065653 171.468219,101.747907 171.53125,101.4375 C171.53125,101.006028 171.881028,100.65625 172.3125,100.65625 C172.743972,100.65625 173.09375,101.006028 173.09375,101.4375 L173.0625,101.4375 Z" id="Path" stroke="#000000" stroke-width="0.4" fill="#F7C600"></path>
                    <path d="M169.15625,107.75 L175.125,107.75 C175.125,107.75 175.21875,106.96875 174.5,106.5 C177.625,106.0625 176.84375,103.3125 179.46875,103.15625 C179.96875,103.21875 178.09375,104.34375 178.09375,104.34375 C178.09375,104.34375 176.53125,105.4375 177.21875,106 C177.8125,106.46875 178.0625,105.75 178.15625,105.1875 C178.21875,104.65625 180.65625,104.28125 180.34375,102.71875 C179.71875,101.4375 176.28125,103.59375 176.28125,103.59375 L173.8125,103.59375 C173.6875,103.28125 173,102.1875 172.28125,102.1875 C171.46875,102.1875 170.875,103.59375 170.875,103.59375 L165.3125,103.59375 C165.3125,103.59375 165.125,105 167.9375,105.28125 C168.5625,106.125 169.09375,106.34375 169.625,106.5625 C169.25,106.875 169.15625,107.25 169.15625,107.75 Z" id="Path" stroke="#000000" stroke-width="0.4" fill="#F7C600"></path>
                    <path d="M169.59375,106.53125 L174.59375,106.53125 M167.3125,103.59375 C167.3125,103.59375 167.71875,105.90625 169.5625,106.46875" id="Shape" stroke="#000000" stroke-width="0.4"></path>
                    <path d="M166.994297,103.526953 C167.200938,102.659063 167.531562,102.49375 167.903516,101.377891 C167.944844,100.262031 166.994297,100.386016 167.283594,99.6834375 C167.779531,98.8982031 167.531562,98.195625 166.622344,97.6170312 C166.787656,98.6089063 165.3825,99.5594531 165.3825,100.386016 C165.3825,101.212578 166.126406,101.047266 166.04375,102.287109 C166.04375,103.031016 165.837109,102.824375 165.795781,103.526953 L167.035625,103.526953 L166.994297,103.526953 Z" id="Path" stroke="#000000" stroke-width="0.4" fill="url(#linearGradient-13)"></path>
                    <path d="M173,98.03125 C173.06074,98.3177793 172.941539,98.6125053 172.698687,98.7762468 C172.455834,98.9399884 172.137916,98.9399884 171.895063,98.7762468 C171.652211,98.6125053 171.53301,98.3177793 171.59375,98.03125 C171.664157,97.6991199 171.957364,97.461553 172.296875,97.461553 C172.636386,97.461553 172.929593,97.6991199 173,98.03125 Z" id="Path" stroke="#000000" stroke-width="0.4" fill="#F7C600"></path>
                    <polyline id="Path" stroke="#F7C600" stroke-width="0.85" points="135.84375 93.125 139.6875 87.46875 143.5625 93.125"></polyline>
                    <path d="M140.46875,91 C140.531781,91.310407 140.401154,91.6281532 140.138027,91.8044753 C139.8749,91.9807973 139.53135,91.9807973 139.268223,91.8044753 C139.005096,91.6281532 138.874469,91.310407 138.9375,91 C139.011436,90.6358869 139.331581,90.3742168 139.703125,90.3742168 C140.074669,90.3742168 140.394814,90.6358869 140.46875,91 Z" id="Path" stroke="#000000" stroke-width="0.4" fill="#F7C600"></path>
                    <path d="M136.5625,97.3125 L142.53125,97.3125 C142.53125,97.3125 142.625,96.5625 141.90625,96.0625 C145.03125,95.65625 144.25,92.875 146.875,92.71875 C147.375,92.8125 145.5,93.90625 145.5,93.90625 C145.5,93.90625 143.9375,95.03125 144.625,95.59375 C145.1875,96.03125 145.4375,95.28125 145.53125,94.75 C145.625,94.21875 148.0625,93.875 147.71875,92.28125 C147.125,91.03125 143.6875,93.15625 143.6875,93.15625 L141.25,93.15625 C141.09375,92.84375 140.4375,91.75 139.71875,91.75 C138.90625,91.78125 138.3125,93.15625 138.3125,93.15625 L132.75,93.15625 C132.75,93.15625 132.5625,94.59375 135.375,94.84375 C135.785382,95.4409039 136.377049,95.8901326 137.0625,96.125 C136.6875,96.4375 136.59375,96.8125 136.59375,97.3125 L136.5625,97.3125 Z" id="Path" stroke="#000000" stroke-width="0.4" fill="#F7C600"></path>
                    <path d="M137,96.09375 L142,96.09375 M134.6875,93.125 C134.6875,93.125 135.0625,95.46875 136.90625,96" id="Shape" stroke="#000000" stroke-width="0.4"></path>
                    <path d="M134.400547,93.1207031 C134.607187,92.2528125 134.937812,92.0875 135.309766,90.9716406 C135.351094,89.8557813 134.400547,89.9797656 134.689844,89.2771875 C135.185781,88.4919531 134.937812,87.789375 134.028594,87.2107813 C134.193906,88.2026563 132.78875,89.1532031 132.78875,89.9797656 C132.78875,90.8063281 133.532656,90.6410156 133.45,91.8808594 C133.45,92.6247656 133.243359,92.418125 133.202031,93.1207031 L134.441875,93.1207031 L134.400547,93.1207031 Z" id="Path" stroke="#000000" stroke-width="0.4" fill="url(#linearGradient-14)"></path>
                    <path d="M140.40625,87.59375 C140.46699,87.8802793 140.347789,88.1750053 140.104937,88.3387468 C139.862084,88.5024884 139.544166,88.5024884 139.301313,88.3387468 C139.058461,88.1750053 138.93926,87.8802793 139,87.59375 C139.070407,87.2616199 139.363614,87.024053 139.703125,87.024053 C140.042636,87.024053 140.335843,87.2616199 140.40625,87.59375 Z" id="Path" stroke="#000000" stroke-width="0.4" fill="#F7C600"></path>
                    <g transform="translate(138.750000, 52.187500)" stroke="#000000">
                        <path d="M17.71875,67.875 C17.71875,67.875 19.28125,71.46875 21.0625,69.25 C22.84375,67.03125 22.1875,66.09375 22.1875,66.09375 L18.21875,63.90625 L17.03125,66.40625 L17.71875,67.875 Z" id="Path" stroke-width="0.4" fill="#F7C600"></path>
                        <path d="M21.15625,67.375 C21.15625,67.375 21.40625,67.4375 21.625,67.0625 C21.84375,66.6875 21.15625,66.46875 20.84375,66.03125 L20.53125,66.75 L21.15625,67.375 Z M12.125,66.4375 L8.625,68.34375 C8.625,68.34375 6.875,68.6875 6.75,68.34375 C6.625,68 6.8125,67.71875 7.6875,67.65625 C8.625,67.59375 11.09375,65.34375 11.09375,65.34375 L12.125,66.4375 Z M12.1875,4.03125 L12.3125,5.28125 C12.34375,5.71875 11.625,6.65625 11.5625,6.59375 C11.5,6.53125 11.1875,6.65625 11.25,6.90625 C11.3125,7.15625 11.78125,7.25 11.78125,7.25 C11.78125,7.25 11.5625,8.1875 11.78125,8.1875 C12,8.25 11.21875,9.375 11.78125,9.6875 C12.34375,10 13.3125,10.375 13.75,10.3125 C14.1875,10.1875 13.75,11.96875 13.75,11.96875 L12.5,14.5625 L19.21875,13.875 L17.8125,11.6875 C17.8125,11.6875 17.1875,11.25 17.34375,9.96875 C17.53125,8.71875 17.25,3.03125 17.25,3.03125 L12.5,2.40625 L12.1875,4.03125 Z M10.9375,13.9375 C10.9375,13.9375 8.78125,14.9375 8.875,17.625 C8.3125,20.21875 8.03125,22.8125 8.03125,22.8125 C8.03125,22.8125 5.46875,25.71875 4.6875,26.75 C3.90625,27.78125 2.71875,29.9375 2.28125,30.5 C1.84375,31.0625 0.15625,32.90625 0.21875,33.625 C0.25,34.3125 -0.1875,37.375 1.5,37.71875 C1.9375,37.90625 3.34375,34.1875 3.34375,34.1875 C3.34375,34.1875 3.40625,32.5625 2.9375,32.28125 C2.46875,32 3.96875,30.9375 3.96875,30.9375 L7.53125,28.28125 C8.1875,27.75 9.96875,25.78125 9.96875,25.78125 L10.96875,13.90625 L10.9375,13.9375 Z" id="Shape" stroke-width="0.4" fill="#FFC6B5"></path>
                        <path d="M13.4375,11.875 C13.4375,11.875 14,13.40625 15.25,13.125 C16.5,12.875 18,11.71875 18,11.71875 C18,11.71875 19.15625,11.6875 19.34375,11.84375 C19.5,12.03125 22.5,14.9375 22.40625,15.84375 C22.3125,16.75 21.03125,16.46875 20.53125,17.09375 C20.03125,17.71875 19.28125,19.21875 19.5,20.34375 C19.71875,21.46875 20.375,22.9375 20.28125,23.5 C20.1875,24.0625 19.71875,24.25 19.71875,24.5625 C19.71875,24.875 20.125,25.375 20.125,25.9375 C20.125,26.5 19.59375,27.3125 19.6875,27.90625 C19.78125,28.4375 19.8125,30.09375 19.8125,30.09375 L19.6875,37.71875 C19.6875,37.71875 20.125,38 20.15625,38.4375 C20.1875,38.875 23.09375,51.46875 23.09375,51.46875 C23.09375,51.46875 22.96875,51.875 22.65625,51.8125 C22.34375,51.75 23.84375,53.78125 23.90625,54.3125 C23.96875,54.84375 25.40625,59.3125 25.375,59.9375 C25.3125,60.5625 25.09375,61.875 24.96875,61.9375 C24.84375,61.96875 25.90625,64.71875 25.75,65.125 C25.5625,65.5625 23.8125,65.53125 23.8125,65.53125 L23.3125,65.4375 C23.3125,65.4375 23.375,66 23,66.0625 C22.625,66.125 20.125,65.90625 20.125,65.90625 C20.125,65.90625 19.375,67.03125 18.9375,67 C18.5,66.96875 17.9375,66.1875 17.8125,66.3125 C17.6875,66.4375 18.21875,67.1875 18.0625,67.40625 C17.9375,67.625 15.71875,68.09375 15.3125,67.03125 C14.875,66 15.5625,66.25 15.4375,66.03125 C15.3125,65.84375 14.3125,65.28125 14,65.4375 C13.6875,65.59375 14.78125,65.875 14.75,66.3125 C14.6875,66.75 13.8125,67.40625 13.4375,67.40625 C13.0625,67.40625 12.25,65.78125 11.0625,65.96875 C9.8125,66.125 9.0625,66.4375 9.0625,66.4375 C9.0625,66.4375 7.625,67.0625 7.03125,66.90625 C6.40625,66.78125 6.15625,66.28125 6.15625,66.03125 C6.15625,65.78125 6.59375,64.65625 6.53125,64.3125 C6.46875,63.96875 6.15625,63.625 6.15625,63.09375 C6.15625,62.59375 7.15625,60.8125 7.15625,60.8125 L7.09375,52.8125 C7.09375,52.8125 6.1875,52.8125 6.15625,52.25 C6.125,51.6875 7.53125,39.625 7.75,38.84375 C7.96875,38.0625 8.53125,35.3125 8.53125,35.3125 C8.53125,35.3125 7.90625,35.625 7.84375,35.3125 C7.78125,35 9.78125,28.125 9.78125,28.125 C9.78125,28.125 10.125,24.6875 10.125,23.75 C10.125,22.84375 9.96875,21.59375 9.96875,21.59375 C9.96875,21.59375 8.1875,20.84375 8.15625,19.71875 C7.96875,17.84375 9.84375,16.84375 10.03125,16.21875 L10.90625,13.78125 C10.90625,13.78125 11.875,12.15625 13.4375,11.90625 L13.4375,11.875 Z" id="Path" stroke-width="0.4" fill="#FFFFFF"></path>
                        <path d="M12.8125,66.96875 C12.8125,66.96875 8.59375,69.15625 7.96875,69.34375 C7.34375,69.53125 6.96875,68.59375 7.59375,68.40625 C8.21875,68.25 9.15625,68.15625 9.15625,68.15625 C9.15625,68.15625 7.71875,67.03125 7.75,67 L9.75,66.25 C9.78125,66.25 10.375,67.375 10.75,67.3125 C11.125,67.25 12.28125,66.375 12.28125,66.375 L12.78125,66.96875 L12.8125,66.96875 Z" id="Path" stroke-width="0.4" fill="#F7C600"></path>
                        <path d="M18.71875,68.15625 C19.125,68.6875 19.28125,69.5625 20.1875,69.0625 C21.09375,68.5625 19.71875,67.5625 19.71875,67.5625 L18.71875,68.1875 L18.71875,68.15625 Z M20.375,68.09375 C20.375,68.09375 20.8125,68.40625 21.1875,68.03125 C21.5625,67.65625 20.40625,66.8125 20.40625,66.8125 L19.84375,67.46875 L20.375,68.09375 Z" id="Shape" stroke-width="0.4" fill="#FFC6B5"></path>
                        <path d="M19.0625,13.59375 C19.0625,13.59375 15.21875,16.0625 15.3125,16.90625 M19.9375,14 L19.0625,15 M21.15625,15.09375 C21.15625,15.09375 19.25,16.65625 19.53125,17.65625 M12.125,13.40625 C12.125,13.40625 11.5625,14.5625 11.6875,14.96875 C11.8125,15.34375 12.78125,16.84375 12.90625,17.71875 C13.03125,18.65625 12.90625,19.28125 12.90625,19.28125 M11.125,15.5625 C11.125,15.5625 11.3125,16.9375 11.5625,17.21875 C11.8125,17.46875 12.5,18.65625 12.59375,19.09375 M10.78125,21.34375 C10.78125,21.34375 11.90625,21.90625 12.96875,19.71875 M14.625,18.21875 C14.59375,18.21875 13.8125,20.34375 15.1875,21.125 C16.5625,21.90625 17.625,21.8125 18.25,21.59375 C18.84375,21.375 19.5,20.96875 19.5,20.96875 M14.03125,20.8125 C14.03125,20.8125 14.125,23.6875 18.34375,26.5 M14.21875,23.5 C14.21875,23.5 14.15625,26 15.8125,27.15625 M13.3125,20.5625 C13.3125,20.5625 12.0625,24.28125 11.09375,24.65625 M12.96875,23.28125 C12.96875,23.28125 12.90625,25.96875 12.5625,26.9375 M12.21875,27.5625 C12.21875,27.5625 13.09375,28.65625 14.03125,28.5625 C14.96875,28.5 15.375,27.34375 16.03125,27.53125 C16.65625,27.71875 17.28125,28.21875 18.8125,28.09375 M16.625,29.21875 C16.625,29.21875 16.625,31.40625 17.03125,31.65625 C17.4375,31.90625 17.25,33.90625 17.25,33.90625 M11.3125,28.125 C11.3125,28.125 11.28125,30.1875 11,30.9375 C10.75,31.6875 10.21875,32.9375 10.3125,34 M8.65625,35.25 C8.875,35.15625 9.59375,34.5 9.59375,34.5 M10,34.96875 C10,34.96875 8.125,42.9375 8.65625,47.71875 M10.4375,35.375 C10.4375,35.375 9.5,41.34375 9.9375,42.46875 M9.96875,35.1875 L13.625,35.4375 M14.125,34.96875 C14.125,34.96875 15.125,35.5 16.5,35.40625 M13.6875,37.875 C13.6875,37.875 13.53125,48.09375 13.25,50.375 M19.03125,40.21875 C19.03125,40.21875 20.15625,49.1875 20.8125,50 M16.875,41.375 C16.875,41.375 17.5625,49.3125 17.9375,50 M7,52.78125 C7,52.78125 8.375,52.34375 9.59375,51.03125 C10.96875,52.90625 13.09375,51.125 13.09375,51.125 C13.09375,51.125 16.375,53.375 17.875,50.875 C20.125,52.34375 21.25,50.65625 21.25,50.65625 C21.25,50.65625 22.0625,51.90625 22.6875,51.78125 M19.0625,52.65625 C19.0625,52.65625 20.78125,60.59375 23.28125,62.84375 M10.375,51.8125 C10.375,51.8125 10.59375,58.46875 10.96875,63.125 M10.03125,59.3125 C10.03125,59.3125 9.84375,63.6875 9.59375,63.96875 M7.5,64.375 C7.5,64.375 7.96875,66.25 10.375,64.5 C12.78125,62.75 12.78125,65.125 12.875,65.4375 C12.96875,65.65625 13.34375,67.53125 14.25,65.96875 M16.15625,63.40625 C16.15625,63.40625 15.78125,67.28125 19.21875,64.4375 C22.65625,61.625 23.1875,64.4375 23.28125,65.28125" id="Shape" stroke-width="0.4"></path>
                        <path d="M12.0625,3.78125 C12.0625,3.78125 13,3.90625 13.53125,3.59375 C14.03125,3.28125 14.65625,3.15625 15.09375,3.78125 C15.53125,4.40625 15.8125,4.34375 15.8125,4.34375 C15.8125,4.34375 15.1875,5.9375 15.8125,6.125 C16.46875,6.3125 16.75,6.3125 16.8125,6.5 C16.875,6.71875 16.25,7.21875 16.4375,7.4375 C16.59375,7.625 16.90625,7.90625 16.9375,8.0625 C17,8.25 16.5625,9 16.6875,9.15625 C16.8125,9.34375 17.21875,10.03125 17.46875,10.03125 C17.71875,10.03125 17.5625,11.125 18.34375,10.84375 C19.125,10.5625 19.0625,9.90625 19.0625,9.90625 C19.0625,9.90625 19.90625,9.78125 20.125,9.03125 C20.34375,8.28125 20.84375,8.09375 20.84375,8.09375 C20.84375,8.09375 21.90625,7.5625 20.53125,6.6875 C20.53125,0.625 16.53125,1.25 16.53125,1.25 C16.53125,1.25 16.03125,0.1875 15.28125,0.3125 C14.46875,0.4375 14.4375,1.34375 13.875,1.25 C13.3125,1.1875 13.1875,0.78125 13.125,0.84375 C13.09375,0.875 12.625,1.75 12.625,1.96875 C12.625,2.1875 11.09375,1.65625 11.21875,2.78125 C11.34375,3.90625 12.09375,3.875 12.0625,3.78125 Z" id="Path" stroke-width="0.4" fill="#9C5100"></path>
                        <path d="M16.21875,2.3125 C16.21875,2.3125 15.90625,4.1875 17.9375,4.03125 C17.6875,5.09375 18.46875,5.4375 18.46875,5.4375 M19.96875,6.59375 C20.03125,6.59375 20.90625,7.15625 19.96875,7.84375 M17.03125,8.125 C17.03125,8.125 17.46875,8.625 17.96875,8.5 C18.4375,8.375 19.21875,9 19.21875,9 C19.21875,9 19.84375,9.21875 19.9375,9.0625 M14.40625,9.78125 C14.40625,9.78125 15.875,10.34375 16.8125,8 M11.65625,7.28125 L12.53125,7.34375" id="Shape" stroke-width="0.4"></path>
                        <polyline id="Path" stroke-width="0.4" stroke-linejoin="round" points="11.78125 8.15625 12.5625 8.15625 11.875 8.46875"></polyline>
                        <path d="M12.875,5.71875 C13,5.71875 13.5,5.5625 13.5625,5.71875 C13.65625,5.8125 13.0625,5.90625 12.875,5.71875 Z" id="Path" stroke-width="0.7" stroke-linejoin="round"></path>
                        <path d="M22.25,16.03125 C22.28125,16.03125 23.65625,20.3125 23.84375,21.40625 C24.1947169,23.397547 24.3724652,25.4155121 24.375,27.4375 C24.15625,28.0625 21.9375,30.9375 21.6875,31.6875 C21.40625,32.4375 19.84375,35.25 19.84375,35.25 C19.84375,35.25 19.46875,38.03125 19.28125,38.15625 C19.125,38.28125 19.75,38.96875 19.6875,39.1875 C19.59375,39.4375 18.4375,40.65625 17.90625,40.53125 C17.375,40.40625 16.5625,39.78125 16.53125,39.21875 C16.5,38.65625 16.53125,36.8125 16.9375,36.3125 C17.34375,35.8125 19.375,31.03125 19.5,30.71875 C19.625,30.40625 21.375,26.65625 21.40625,26.03125 C21.46875,25.34375 20.875,23.84375 20.25,23.3125 C18.90625,19.28125 19.4375,16.875 22.25,16.03125 Z" id="Path" stroke-width="0.4" fill="#FFC6B5"></path>
                        <path d="M2.03125,34.625 L2.09375,36.53125 M0.25,34.5 C0.25,34.5 1.5,36.53125 1.375,37.625" id="Shape" stroke-width="0.4"></path>
                        <path d="M16.5625,38.75 C16.5625,38.75 17.5,38.65625 17.46875,40.1875 C18.0625,38.3125 19.25,38.25 19.25,38.25" id="Path" stroke-width="0.4" stroke-linejoin="round"></path>
                    </g>
                    <path d="M152.21875,134.375 C170.53125,133.84375 182.375,120.625 182.21875,120.5 C182.09375,120.375 184.65625,116.8125 186.6875,117.3125 C188.71875,117.8125 191.65625,123.8125 195.21875,125.0625 C197,127.875 194.6875,130.40625 193.9375,130.9375 C193.15625,131.4375 189.75,132.8125 189.25,130.8125 C188.71875,128.75 187.6875,129.15625 187.6875,129.15625 C187.6875,129.15625 171.4375,145.03125 152.59375,144.40625 C133.15625,144.53125 117.125,129.15625 117.125,129.15625 L115.71875,130.65625 C115.71875,130.65625 114.1875,132.3125 113.4375,132.21875 C112.6875,132.0625 109.375,129.90625 109.125,127.75 C108.875,125.5625 111.15625,124.1875 111.15625,124.1875 C111.15625,124.1875 116.75,119.875 117.40625,117.5625 C118.65625,116.3125 121.0625,118.46875 121.0625,118.46875 C121.0625,118.46875 135.8125,135.375 152.21875,134.34375 L152.21875,134.375 Z" id="Path" stroke="#000000" stroke-width="0.85" fill="#F7C600"></path>
                    <path d="M110.78125,124.53125 C110.78125,124.53125 112.28125,124.125 112.84375,124.75 C113.40625,125.375 117.21875,129.125 117.21875,129.125" id="Path" stroke="#000000" stroke-width="0.85"></path>
                    <path d="M114.21875,126.28125 L112.71875,127.40625 C112.71875,127.40625 116.53125,128.1875 115.65625,130.6875 M193.84375,124.375 C193.84375,124.375 193.09375,123.96875 191.90625,124.84375 C190.426284,126.174984 189.027914,127.594225 187.71875,129.09375" id="Shape" stroke="#000000" stroke-width="0.85"></path>
                    <path d="M190.4375,126.1875 L192.09375,127.4375 C192.09375,127.4375 188.65625,127.6875 189.40625,130.9375" id="Path" stroke="#000000" stroke-width="0.85"></path>
                    <path d="M130.15625,128.5625 L130.03125,128.71875 C129.786743,128.604946 129.50949,128.582766 129.25,128.65625 C129.03125,128.71875 128.625,128.90625 128.03125,129.28125 L123,132.1875 L122.875,132.09375 L124.125,126.21875 C124.28125,125.5 124.34375,125.0625 124.34375,124.90625 C124.34375,124.75 124.21875,124.59375 124.03125,124.40625 L124.125,124.25 L126.84375,126.1875 L126.75,126.34375 L126.65625,126.28125 C126.40625,126.125 126.21875,126.03125 126.09375,126.03125 C125.999309,126.011658 125.902021,126.048141 125.84375,126.125 C125.801056,126.192462 125.769408,126.266308 125.75,126.34375 L125.59375,127.0625 L124.78125,130.71875 L127.6875,129.03125 C127.92384,128.897008 128.153295,128.750991 128.375,128.59375 L128.625,128.34375 C128.6875,128.28125 128.71875,128.1875 128.71875,128.09375 L128.625,127.78125 C128.505508,127.619976 128.357172,127.482235 128.1875,127.375 L128.3125,127.21875 L130.15625,128.5625 M131.96875,137.3125 L131.875,137.46875 L128.6875,135.71875 L128.78125,135.5625 L128.96875,135.6875 C129.15625,135.78125 129.3125,135.8125 129.46875,135.8125 C129.5625,135.8125 129.65625,135.78125 129.78125,135.6875 L130.09375,135.15625 L132.28125,131.15625 C132.46875,130.84375 132.59375,130.625 132.59375,130.53125 C132.59832,130.419531 132.565312,130.309504 132.5,130.21875 C132.404788,130.083297 132.275402,129.975476 132.125,129.90625 L131.9375,129.78125 L132.03125,129.625 L135.21875,131.375 L135.125,131.53125 L134.90625,131.4375 C134.766783,131.344437 134.604911,131.29048 134.4375,131.28125 C134.34375,131.28125 134.25,131.3125 134.125,131.40625 C133.984546,131.565186 133.868678,131.744254 133.78125,131.9375 L131.59375,135.96875 C131.458105,136.159799 131.352702,136.370605 131.28125,136.59375 C131.28125,136.6875 131.34375,136.78125 131.40625,136.90625 C131.46875,137 131.59375,137.125 131.75,137.21875 L131.96875,137.3125 M143.625,134.5625 L142.8125,136.875 L142.625,136.8125 C142.651252,136.185141 142.487905,135.564423 142.15625,135.03125 C141.864041,134.566701 141.423612,134.214358 140.90625,134.03125 C140.472675,133.870951 139.996075,133.870951 139.5625,134.03125 C139.112952,134.212925 138.730815,134.529553 138.46875,134.9375 C138.155513,135.380924 137.903258,135.864413 137.71875,136.375 C137.5,137 137.375,137.5625 137.34375,138.09375 C137.3125,138.625 137.4375,139.0625 137.6875,139.40625 C137.957441,139.758185 138.327988,140.019748 138.75,140.15625 C138.912277,140.213838 139.079714,140.255697 139.25,140.28125 L139.8125,140.3125 L140.3125,138.9375 L140.4375,138.4375 C140.4375,138.34375 140.375,138.25 140.28125,138.125 C140.176611,138.021739 140.047642,137.946507 139.90625,137.90625 L139.75,137.84375 L139.8125,137.65625 L143,138.8125 L142.9375,139 C142.6875,138.90625 142.5,138.875 142.375,138.90625 C142.28125,138.90625 142.15625,138.96875 142.0625,139.0625 L141.875,139.5 L141.375,140.875 C140.90625,140.90625 140.4375,140.875 139.9375,140.8125 C139.438276,140.760359 138.945959,140.655611 138.46875,140.5 C137.929206,140.316385 137.430408,140.029842 137,139.65625 C136.666279,139.359 136.38153,139.010974 136.15625,138.625 C135.944757,138.248195 135.806888,137.83459 135.75,137.40625 C135.685885,136.867647 135.750136,136.321517 135.9375,135.8125 C136.256058,134.863392 136.95927,134.092127 137.875,133.6875 C138.8095,133.248972 139.883443,133.215058 140.84375,133.59375 C141.15625,133.6875 141.46875,133.84375 141.71875,133.96875 L142.34375,134.4375 C142.487604,134.577252 142.644578,134.702832 142.8125,134.8125 L143.125,134.8125 C143.252581,134.734725 143.359725,134.627581 143.4375,134.5 L143.625,134.5625 M148.53125,142.46875 L148.53125,142.65625 L144.90625,142.09375 L144.9375,141.90625 L145.1875,141.9375 C145.351093,141.982764 145.523907,141.982764 145.6875,141.9375 L145.90625,141.71875 C145.96875,141.625 146,141.40625 146.0625,141.09375 L146.75,136.5625 C146.8125,136.1875 146.8125,135.96875 146.78125,135.875 C146.747066,135.773774 146.681355,135.68616 146.59375,135.625 C146.5,135.53125 146.34375,135.46875 146.15625,135.4375 L145.9375,135.4375 L145.9375,135.21875 L149.5625,135.78125 L149.53125,135.96875 L149.3125,135.9375 C149.148907,135.892236 148.976093,135.892236 148.8125,135.9375 L148.5625,136.15625 C148.479856,136.35573 148.427202,136.566347 148.40625,136.78125 L147.71875,141.3125 C147.673627,141.538768 147.66309,141.770572 147.6875,142 C147.6875,142.09375 147.78125,142.1875 147.875,142.25 C147.96875,142.34375 148.125,142.40625 148.3125,142.4375 L148.53125,142.4375 M157.90625,140.1875 L157.75,142.65625 L151.5625,142.96875 L151.5625,142.78125 L151.78125,142.78125 C151.959378,142.777735 152.132816,142.723535 152.28125,142.625 C152.375,142.5625 152.4375,142.5 152.46875,142.375 L152.46875,141.75 L152.25,137.15625 C152.25087,136.934102 152.219286,136.713018 152.15625,136.5 C152.125,136.40625 152.03125,136.34375 151.9375,136.28125 C151.8125,136.21875 151.625,136.1875 151.46875,136.1875 L151.21875,136.1875 L151.21875,136 L154.9375,135.8125 L154.9375,136 L154.625,136.03125 C154.460489,136.031067 154.298826,136.074177 154.15625,136.15625 C154.0625,136.21875 154,136.3125 153.96875,136.40625 C153.90625,136.5 153.90625,136.71875 153.9375,137.0625 L154.15625,141.5 C154.15625,141.84375 154.21875,142.0625 154.25,142.1875 C154.3125,142.28125 154.375,142.34375 154.5,142.375 L155.71875,142.375 C156.036589,142.366072 156.347537,142.280293 156.625,142.125 C156.884256,141.974714 157.099714,141.759256 157.25,141.5 C157.375,141.1875 157.5625,140.75 157.6875,140.21875 L157.875,140.21875 M164.625,139.03125 L162.28125,139.71875 L162.1875,140.46875 L162.1875,141.03125 C162.28125,141.21875 162.375,141.34375 162.5625,141.375 C162.65625,141.40625 162.875,141.375 163.25,141.3125 L163.3125,141.5 L161.09375,142.125 L161.03125,141.96875 C161.246483,141.874072 161.422897,141.708683 161.53125,141.5 C161.65625,141.28125 161.71875,140.875 161.8125,140.3125 L162.59375,134.28125 L162.6875,134.28125 L166.75,139 C167.125,139.46875 167.375,139.71875 167.59375,139.8125 C167.71875,139.875 167.90625,139.90625 168.125,139.84375 L168.15625,140.03125 L164.9375,141 L164.875,140.8125 L165.03125,140.78125 C165.28125,140.6875 165.46875,140.625 165.53125,140.5 C165.580497,140.426253 165.592078,140.3336 165.5625,140.25 C165.551743,140.184581 165.530646,140.12129 165.5,140.0625 L165.25,139.75 L164.625,139.03125 M164.34375,138.71875 L162.6875,136.71875 L162.34375,139.3125 L164.34375,138.6875 M173.25,129.625 L174.15625,131.3125 L173.96875,131.40625 C173.7584,131.145948 173.504671,130.923935 173.21875,130.75 C173.006569,130.640383 172.769967,130.586609 172.53125,130.59375 C172.296364,130.626209 172.071947,130.711701 171.875,130.84375 L171.40625,131.09375 L173.96875,135.8125 L174.3125,136.375 C174.40625,136.4375 174.5,136.46875 174.625,136.46875 C174.78125,136.46875 174.9375,136.4375 175.09375,136.34375 L175.3125,136.21875 L175.40625,136.40625 L172.1875,138.125 L172.09375,137.96875 L172.3125,137.84375 C172.462902,137.774524 172.592288,137.666703 172.6875,137.53125 L172.75,137.21875 C172.75,137.125 172.65625,136.90625 172.5,136.59375 L169.9375,131.90625 L169.5,132.125 C169.09375,132.34375 168.84375,132.59375 168.75,132.875 C168.619912,133.306748 168.641975,133.770067 168.8125,134.1875 L168.625,134.28125 L167.75,132.59375 L173.25,129.65625 M177.4375,127.15625 L179.125,129.4375 L179.25,129.34375 C179.59375,129.09375 179.78125,128.78125 179.75,128.4375 C179.71875,128.09375 179.59375,127.6875 179.3125,127.21875 L179.46875,127.125 L181.65625,130.03125 L181.53125,130.15625 C181.303025,129.897717 181.027175,129.685524 180.71875,129.53125 C180.518389,129.422163 180.288933,129.378457 180.0625,129.40625 C179.84375,129.40625 179.625,129.53125 179.375,129.71875 L180.53125,131.28125 C180.663946,131.487186 180.821369,131.676093 181,131.84375 L181.28125,131.90625 C181.375,131.90625 181.5,131.8125 181.6875,131.71875 L182,131.46875 C182.460587,131.151875 182.801671,130.689762 182.96875,130.15625 C183.09997,129.61236 183.044952,129.040172 182.8125,128.53125 L182.96875,128.4375 L184.0625,130.375 L179.25,134 L179.15625,133.84375 L179.34375,133.71875 C179.5,133.59375 179.59375,133.46875 179.65625,133.34375 L179.65625,133.03125 C179.581241,132.828974 179.475866,132.6393 179.34375,132.46875 L176.5625,128.8125 L176.1875,128.375 C176.100909,128.298472 175.990482,128.254302 175.875,128.25 C175.71875,128.25 175.5625,128.34375 175.375,128.46875 L175.1875,128.59375 L175.0625,128.46875 L179.71875,124.9375 L180.96875,126.59375 L180.78125,126.71875 C180.512956,126.43595 180.180748,126.221622 179.8125,126.09375 C179.510893,126.024374 179.195477,126.046126 178.90625,126.15625 C178.71875,126.21875 178.40625,126.4375 177.96875,126.75 L177.4375,127.1875" id="Shape" fill="#000000" fill-rule="nonzero"></path>
                    <path d="M118.90625,129.0625 C141.65625,147.53125 163.96875,147.875 185.78125,129.0625" id="Path"></path>
                </g>
            </g>
        </g>
    </g>
</svg>