<?xml version="1.0" encoding="UTF-8"?>
<svg width="199px" height="133px" viewBox="0 0 199 133" version="1.1" xmlns="http://www.w3.org/2000/svg" xmlns:xlink="http://www.w3.org/1999/xlink">
    <!-- Generator: Sketch 52.5 (67469) - http://www.bohemiancoding.com/sketch -->
    <title>cf</title>
    <desc>Created with Sketch.</desc>
    <defs>
        <polygon id="path-1" points="0.187207488 0 199.875195 0 199.875195 133 0.187207488 133"></polygon>
    </defs>
    <g id="Flags" stroke="none" stroke-width="1" fill="none" fill-rule="evenodd">
        <g id="Africa" transform="translate(-70.000000, -250.000000)">
            <g id="cf" transform="translate(70.000000, 250.000000)">
                <mask id="mask-2" fill="white">
                    <use xlink:href="#path-1"></use>
                </mask>
                <g id="Path"></g>
                <g id="Group" mask="url(#mask-2)">
                    <polygon id="Path" fill="#0000FF" points="0 0 199 0 199 33 0 33"></polygon>
                    <polygon id="Path" fill="#FFFF00" points="0 100 199 100 199 133 0 133"></polygon>
                    <polygon id="Path" fill="#009A00" points="0 66 199 66 199 99 0 99"></polygon>
                    <polygon id="Path" fill="#FFFFFF" points="0 33 199 33 199 66 0 66"></polygon>
                    <polygon id="Path" fill="#FF0000" points="83 0 116 0 116 133 83 133"></polygon>
                    <polyline id="Path" fill="#FFFF00" points="41.7310345 28.9444444 33.0413793 22.8888889 24.4068966 29 27.4137931 18.75 19 12.3611111 29.537931 12.0833333 32.9862069 2 36.4896552 12.0833333 47 12.2777778 38.6689655 18.75"></polyline>
                </g>
            </g>
        </g>
    </g>
</svg>