<?xml version="1.0" encoding="UTF-8"?>
<svg width="200px" height="150px" viewBox="0 0 200 150" version="1.1" xmlns="http://www.w3.org/2000/svg" xmlns:xlink="http://www.w3.org/1999/xlink">
    <!-- Generator: Sketch 52.5 (67469) - http://www.bohemiancoding.com/sketch -->
    <title>cx</title>
    <desc>Created with Sketch.</desc>
    <g id="Flags" stroke="none" stroke-width="1" fill="none" fill-rule="evenodd">
        <g id="Asia" transform="translate(-950.000000, -250.000000)">
            <g id="cx" transform="translate(950.000000, 250.000000)">
                <polygon id="Path" fill="#0021AD" points="0 0 200 0 200 150 0 150"></polygon>
                <polygon id="Path" fill="#1C8A42" points="0 0 200 0 200 150"></polygon>
                <circle id="Oval" fill="#FFC639" cx="100" cy="75" r="18.0625"></circle>
                <path d="M88.96875,66.875 C90.21875,68.59375 92.09375,71.4375 93.59375,70.6875 C94.75,70.6875 95.375,70.78125 95.53125,71.5625 C99.5101862,71.9561659 103.410127,70.2661916 105.84375,67.09375 C105.84375,67.09375 106.09375,67.09375 106,65.6875 C106,65.0625 106.875,65.1875 106.875,65.375 C107,65.6875 107,65.90625 107.15625,65.9375 C107.46875,65.8125 108,65 108.40625,64.5 C108.5,64.28125 108.4375,64.03125 108.46875,63.75 C108.6875,63.21875 109.21875,63.34375 109.34375,63.625 L109.53125,64.125 C110.09375,64.5 111.09375,64.125 111.15625,64.125 C111.25,63.6875 111.53125,63.75 111.53125,63.75 C111.90625,63.65625 111.75,63.6875 112,63.8125 C111.78125,66.21875 112.46875,66.3125 112.40625,67.5625 C112.4375,68.9375 112,69.3125 112,69.84375 C112.125,70.46875 114.1875,70.5 113.4375,71.0625 C112.8125,71.375 113.4375,72 112.5,72.25 C109.75,73.65625 109.25,74.84375 109.25,74.84375 C109.25,74.84375 108.5625,76.15625 108.46875,76.15625 C108,77.03125 107.4375,76.53125 107.09375,76.96875 C106.9375,77.5 106.78125,78.6875 107.09375,79.28125 C107.25,80.125 107.09375,80.59375 106.875,81.4375 C106.6875,83.1875 106,83.46875 105.90625,84.0625 C105.59375,84.75 105.96875,87.8125 105.65625,87.8125 C103.625,87.875 102.0625,87.4375 101.25,87.28125 C102.03125,83.875 101.71875,80.90625 101.71875,80.59375 C101.53125,78.15625 98.09375,78.75 97.5625,78.40625 C97.125,78.34375 96.84375,78 96.71875,77.84375 C96.21875,77.78125 96.03125,77.65625 95.5625,77.625 C95.3125,77.75 95.46875,77.875 94.9375,78.03125 C93.53125,78.1875 92.9375,76.84375 92.9375,76.84375 C93,76.375 89.84375,76.9375 88.15625,76.53125 C87.4375,76.9375 87.125,78.09375 86.5625,78.21875 C86.5625,78.5625 85.625,77.90625 85.4375,77.59375 C85.375,76.53125 86.3125,76.09375 86.3125,76.09375 C87.0625,75.5625 87.5,75.46875 87.875,75.125 C88.03125,74.21875 87.9375,73.5625 88.34375,72.90625 C88.65625,72.375 89.125,72.59375 89.4375,72.40625 C89.78125,72.15625 89.9375,70.65625 89.625,70.21875 L88.15625,68.90625 C87.71875,67.625 88.6875,66.78125 88.96875,66.875 Z" id="Path" fill="#1C8A42"></path>
                <path d="M175.59375,44.5 C174.78125,41.28125 167.46875,34.28125 161.9375,29.84375 C160.625,28.96875 159.75,29.5 159.9375,30.78125 C160.625,31.90625 161.125,33.15625 161.8125,34.3125 C162,35.09375 162.375,35.625 162.5625,36.375 C162.5625,36.375 162.625,37.6875 162.75,37.8125 C164.4375,39.6875 164.6875,41.28125 164.6875,41.28125 C165.548901,43.1293081 166.770713,44.7867218 168.28125,46.15625 C170.21875,47.375 168.78125,51.15625 168.84375,53.1875 C168.84375,54.4375 167.9375,54.3125 167.125,54.125 C160.84375,48.34375 154.59375,48.34375 149.0625,46.65625 C146.9375,46.4375 146.875,47.46875 147.59375,48.03125 C151.037728,51.8675179 155.185582,55.0075815 159.8125,57.28125 L162.21875,58.78125 L164.96875,61.0625 C167.09375,62.4375 167.25,63.6875 167.25,63.8125 C167.3125,66.375 165.9375,68.375 165.53125,69.1875 C164.8125,71.90625 163.34375,72.375 163.34375,72.375 C151.59375,80.3125 145.40625,82.375 126.34375,79.90625 C126.03125,79.78125 124.21875,80.0625 126.34375,80.84375 C131.1875,82.46875 143.125,85.0625 154.65625,79.59375 C157.46875,77.65625 159.28125,78.28125 161.3125,77.09375 C164.168077,75.3254215 167.120635,73.718729 170.15625,72.28125 C172.75,70.875 179.9375,69.34375 181.59375,67.96875 C183.5,67.8125 185.46875,67.5625 185.59375,65.9375 C186.21875,65.53125 187.15625,65.84375 187.84375,64.5 C189.34375,64.21875 189.09375,63.6875 189.09375,63.6875 C188.71875,62.625 187.28125,62.1875 186.28125,61.40625 C184.78125,60.90625 183.78125,60.78125 182.6875,61.28125 L181.65625,61.75 C181.65625,61.75 180.0625,61.53125 180.0625,61.40625 C176.5,61.21875 176.84375,49.4375 175.59375,44.53125 L175.59375,44.5 Z" id="Path" fill="#FFC639"></path>
                <path d="M183.9375,63.8125 C183.869358,64.0042385 183.645574,64.1307843 183.350446,64.1444689 C183.055317,64.1581535 182.733682,64.0568978 182.506696,63.8788439 C182.27971,63.70079 182.181858,63.4729885 182.25,63.28125 C182.355339,62.984848 182.818492,62.863491 183.284483,63.0101916 C183.750473,63.1568923 184.042839,63.516098 183.9375,63.8125 Z" id="Path" fill="#1C8A42"></path>
                <g id="Group" transform="translate(6.600000, 51.800000)" fill="#FFFFFF">
                    <polygon id="a" points="31.04 11.4 28.48 9 25.9 11.36 26.18 7.88 22.72 7.32 25.62 5.36 23.9 2.32 27.24 3.38 28.54 0.14 29.8 3.4 33.14 2.4 31.38 5.4 34.26 7.4 30.8 7.9 31.04 11.38"></polygon>
                    <polygon id="Path" points="40.08 40.3 37.32 38.48 34.64 40.4 35.6 37.3 32.88 35.4 36.2 35.32 37.2 32.22 38.32 35.28 41.66 35.26 39 37.2 40.06 40.28"></polygon>
                    <g id="a-link" transform="translate(23.100000, 53.820000)">
                        <polygon id="a" points="8.44 11.4 5.88 9 3.3 11.36 3.58 7.88 0.12 7.32 3.02 5.36 1.3 2.32 4.64 3.38 5.94 0.14 7.2 3.4 10.54 2.4 8.78 5.4 11.66 7.4 8.2 7.9 8.44 11.38"></polygon>
                    </g>
                    <g id="a-link" transform="translate(0.180000, 24.640000)">
                        <polygon id="a" points="8.44 11.4 5.88 9 3.3 11.36 3.58 7.88 0.12 7.32 3.02 5.36 1.3 2.32 4.64 3.38 5.94 0.14 7.2 3.4 10.54 2.4 8.78 5.4 11.66 7.4 8.2 7.9 8.44 11.38"></polygon>
                    </g>
                    <g id="a-link" transform="translate(44.280000, 17.000000)">
                        <polygon id="a" points="8.44 11.4 5.88 9 3.3 11.36 3.58 7.88 0.12 7.32 3.02 5.36 1.3 2.32 4.64 3.38 5.94 0.14 7.2 3.4 10.54 2.4 8.78 5.4 11.66 7.4 8.2 7.9 8.44 11.38"></polygon>
                    </g>
                </g>
            </g>
        </g>
    </g>
</svg>