<?xml version="1.0" encoding="UTF-8"?>
<svg width="200px" height="141px" viewBox="0 0 200 141" version="1.1" xmlns="http://www.w3.org/2000/svg" xmlns:xlink="http://www.w3.org/1999/xlink">
    <!-- Generator: Sketch 52.5 (67469) - http://www.bohemiancoding.com/sketch -->
    <title>et</title>
    <desc>Created with Sketch.</desc>
    <defs>
        <polygon id="path-1" points="0.204678363 0 199.824561 0 199.824561 140.707602 0.204678363 140.707602"></polygon>
    </defs>
    <g id="Flags" stroke="none" stroke-width="1" fill="none" fill-rule="evenodd">
        <g id="Africa" transform="translate(-950.000000, -450.000000)">
            <g id="et" transform="translate(950.000000, 450.000000)">
                <mask id="mask-2" fill="white">
                    <use xlink:href="#path-1"></use>
                </mask>
                <g id="Path"></g>
                <g id="Group" mask="url(#mask-2)">
                    <g transform="translate(-43.000000, 0.000000)">
                        <polygon id="Path" fill="#FFC621" fill-rule="evenodd" points="0.549707602 0.961988304 285.847953 0.961988304 285.847953 137.839181 0.549707602 137.839181"></polygon>
                        <polygon id="Path" fill="#EF2118" fill-rule="evenodd" points="0 94.1374269 285.655556 94.1374269 285.655556 140.725146 0 140.725146"></polygon>
                        <polygon id="Path" fill="#298C08" fill-rule="evenodd" points="0.549707602 0 285.847953 0 285.847953 49.4736842 0.549707602 49.4736842"></polygon>
                        <circle id="Oval" fill="#006BC6" fill-rule="evenodd" cx="138.160211" cy="72.7318129" r="29.6396842"></circle>
                        <path d="M124.866082,51.7274854 L123.079532,52.9643275 L129.538596,62.0345029 L131.270175,60.9350877 L124.838596,51.7274854 L124.866082,51.7274854 Z M132.946784,73.1660819 L130.280702,71.297076 L131.380117,67.8064327 L118.159649,67.9988304 L114.311696,65.0578947 L132.369591,64.8654971 L135.722807,54.7233918 L137.536842,58.8461988 L132.946784,73.1385965 L132.946784,73.1660819 Z M153.973099,53.7339181 L152.24152,52.4146199 L145.562573,61.319883 L147.101754,62.6116959 L153.973099,53.7339181 Z M135.997661,67.8888889 L136.959649,64.8105263 L140.615205,64.8105263 L136.437427,52.2222222 L138.08655,47.6871345 L143.721053,64.8380117 L154.38538,64.9754386 L151.032164,67.9163743 L135.997661,67.8614035 L135.997661,67.8888889 Z M160.899415,81.9614035 L161.64152,79.9274854 L151.11462,76.2719298 L150.345029,78.1959064 L160.899415,81.9614035 Z M141.907018,69.2081871 L145.122807,69.1807018 L146.249708,72.6438596 L156.914035,64.8105263 L161.751462,64.9754386 L147.156725,75.6122807 L150.317544,85.8368421 L146.469591,83.5280702 L141.907018,69.2081871 Z M136.464912,97.2432749 L138.636257,97.2982456 L138.718713,86.1666667 L136.684795,86.0292398 L136.464912,97.2707602 L136.464912,97.2432749 Z M142.511696,75.1725146 L143.55614,78.2233918 L140.615205,80.4222222 L151.444444,88.0356725 L152.818713,92.6532164 L138.08655,82.2087719 L129.428655,88.4479532 L130.390643,84.0502924 L142.484211,75.1725146 L142.511696,75.1725146 Z M114.119298,78.745614 L114.751462,80.8070175 L125.388304,77.4538012 L124.838596,75.4748538 L114.119298,78.745614 Z M136.987135,77.6461988 L134.403509,79.5976608 L131.435088,77.4812865 L127.532164,90.1245614 L123.574269,92.8730994 L128.933918,75.6397661 L120.303509,69.3181287 L124.783626,68.8783626 L136.987135,77.6461988 Z" id="Shape" fill="#FFC621" fill-rule="nonzero"></path>
                    </g>
                </g>
            </g>
        </g>
    </g>
</svg>