<?xml version="1.0" encoding="UTF-8"?>
<svg width="200px" height="150px" viewBox="0 0 200 150" version="1.1" xmlns="http://www.w3.org/2000/svg" xmlns:xlink="http://www.w3.org/1999/xlink">
    <!-- Generator: Sketch 52.5 (67469) - http://www.bohemiancoding.com/sketch -->
    <title>hm</title>
    <desc>Created with Sketch.</desc>
    <g id="Flags" stroke="none" stroke-width="1" fill="none" fill-rule="evenodd">
        <g id="Antarctica" transform="translate(-840.000000, -50.000000)">
            <g id="hm" transform="translate(840.000000, 50.000000)">
                <polygon id="Path" fill="#000066" points="0 0 200 0 200 150 0 150"></polygon>
                <path d="M0,0 L0,9.5625 L116.4375,85.5 L131.09375,85.5 L131.09375,75.9375 L14.65625,0 L0,0 Z M131.09375,0 L131.09375,9.5625 L14.65625,85.5 L0,85.5 L0,75.9375 L116.4375,0 L131.09375,0 Z" id="Shape" fill="#FFFFFF" fill-rule="nonzero"></path>
                <path d="M54.625,0 L54.625,85.5 L76.46875,85.5 L76.46875,0 L54.59375,0 L54.625,0 Z M0,28.5 L0,57 L131.09375,57 L131.09375,28.5 L0,28.5 Z" id="Shape" fill="#FFFFFF" fill-rule="nonzero"></path>
                <path d="M0,34.1875 L0,51.3125 L131.09375,51.3125 L131.09375,34.1875 L0,34.1875 Z M59,0 L59,85.5 L72.125,85.5 L72.125,0 L59,0 Z M0,85.5 L43.6875,57 L53.46875,57 L9.78125,85.5 L0,85.5 Z M0,0 L43.6875,28.5 L33.9375,28.5 L0,6.375 L0,0 Z M77.625,28.5 L121.3125,0 L131.09375,0 L87.375,28.5 L77.625,28.5 Z M131.0625,85.5 L87.40625,57 L97.15625,57 L131.09375,79.125 L131.09375,85.5 L131.0625,85.5 Z" id="Shape" fill="#CC0000" fill-rule="nonzero"></path>
                <path d="M39.21875,130.15625 L30.625,129.375 L38.0625,125 L33.28125,117.8125 L41.34375,120.84375 L43.96875,112.625 L46.625,120.84375 L54.6875,117.8125 L49.90625,125 L57.3125,129.375 L48.71875,130.15625 L49.90625,138.6875 L43.96875,132.4375 L38.03125,138.6875 M153.8125,139.28125 L147.75,138.75 L152.96875,135.625 L149.625,130.625 L155.28125,132.75 L157.15625,126.96875 L159.03125,132.75 L164.65625,130.59375 L161.3125,135.65625 L166.5625,138.75 L160.53125,139.28125 L161.375,145.28125 L157.1875,140.90625 L153,145.28125 M153.84375,49.34375 L147.78125,48.8125 L153,45.71875 L149.65625,40.65625 L155.3125,42.84375 L157.1875,37.03125 L159.0625,42.8125 L164.6875,40.65625 L161.34375,45.71875 L166.5625,48.84375 L160.53125,49.34375 L161.375,55.34375 L157.1875,50.96875 L153,55.34375 M120.125,85.875 L114.0625,85.34375 L119.28125,82.25 L115.90625,77.21875 L121.59375,79.34375 L123.46875,73.5625 L125.3125,79.34375 L131,77.21875 L127.625,82.25 L132.84375,85.375 L126.8125,85.875 L127.625,91.90625 L123.4375,87.5 L119.25,91.875 M183.75,76.875 L177.6875,76.375 L182.9375,73.25 L179.5625,68.21875 L185.25,70.375 L187.09375,64.59375 L188.96875,70.375 L194.59375,68.1875 L191.28125,73.25 L196.5,76.375 L190.4375,76.875 L191.28125,82.90625 L187.09375,78.5 L182.90625,82.875 M175.9375,95.53125 L172.96875,98.03125 L173.90625,101.78125 L170.59375,99.75 L167.3125,101.8125 L168.25,98.0625 L165.25,95.53125 L169.125,95.21875 L170.59375,91.65625 L172.0625,95.25" id="Shape" fill="#FFFFFF"></path>
            </g>
        </g>
    </g>
</svg>