<?xml version="1.0" encoding="UTF-8"?>
<svg width="200px" height="150px" viewBox="0 0 200 150" version="1.1" xmlns="http://www.w3.org/2000/svg" xmlns:xlink="http://www.w3.org/1999/xlink">
    <!-- Generator: Sketch 52.5 (67469) - http://www.bohemiancoding.com/sketch -->
    <title>is</title>
    <desc>Created with Sketch.</desc>
    <defs>
        <polygon id="path-1" points="0 0 200 0 200 150 0 150"></polygon>
    </defs>
    <g id="Flags" stroke="none" stroke-width="1" fill="none" fill-rule="evenodd">
        <g id="Europe" transform="translate(-510.000000, -1050.000000)">
            <g id="is" transform="translate(510.000000, 1050.000000)">
                <mask id="mask-2" fill="white">
                    <use xlink:href="#path-1"></use>
                </mask>
                <g id="Path"></g>
                <g id="Group" mask="url(#mask-2)">
                    <polygon id="Path" fill="#003897" points="0 0 208.34375 0 208.34375 150 0 150"></polygon>
                    <polygon id="Path" fill="#FFFFFF" points="0 58.34375 58.34375 58.34375 58.34375 0 91.65625 0 91.65625 58.34375 208.34375 58.34375 208.34375 91.65625 91.65625 91.65625 91.65625 150 58.34375 150 58.34375 91.65625 0 91.65625"></polygon>
                    <polygon id="Path" fill="#D72828" points="0 66.65625 66.65625 66.65625 66.65625 0 83.34375 0 83.34375 66.65625 208.34375 66.65625 208.34375 83.34375 83.34375 83.34375 83.34375 150 66.65625 150 66.65625 83.34375 0 83.34375"></polygon>
                </g>
            </g>
        </g>
    </g>
</svg>