<?xml version="1.0" encoding="UTF-8"?>
<svg width="200px" height="150px" viewBox="0 0 200 150" version="1.1" xmlns="http://www.w3.org/2000/svg" xmlns:xlink="http://www.w3.org/1999/xlink">
    <!-- Generator: Sketch 52.5 (67469) - http://www.bohemiancoding.com/sketch -->
    <title>iq</title>
    <desc>Created with Sketch.</desc>
    <g id="Flags" stroke="none" stroke-width="1" fill="none" fill-rule="evenodd">
        <g id="Asia" transform="translate(-1170.000000, -450.000000)">
            <g id="iq" transform="translate(1170.000000, 450.000000)">
                <polygon id="Path" fill="#FFFFFF" points="0 50 200 50 200 100 0 100"></polygon>
                <polygon id="Path" fill="#CE1126" points="0 0 200 0 200 50 0 50"></polygon>
                <polygon id="Path" fill="#000000" points="0 100 200 100 200 150 0 150"></polygon>
                <g id="Group" transform="translate(55.099831, 60.233331)" fill="#007A3D">
                    <path d="M67.0618594,5.58392625 C66.7766735,5.44709925 66.5173618,5.26187655 66.2954381,5.0364825 C66.131205,4.76276062 66.2406938,4.76276062 66.9523706,4.92699375 C68.2114913,5.31020437 69.0326569,5.14597125 69.8538225,4.48903875 L70.5654994,3.88685062 L71.386665,4.27006125 C71.8793644,4.54378312 72.3720638,4.70801625 72.4815525,4.65327187 C72.8647631,4.54378312 73.6311844,3.55838437 73.57644,3.22991812 C73.57644,2.8467075 73.9049063,2.95619625 74.1238838,3.39415125 C74.45235,4.27006125 73.9596506,5.31020437 73.0289963,5.52918187 C72.6457856,5.63867062 72.262575,5.58392625 71.6056425,5.36494875 C70.8392213,5.09122687 70.6749881,5.09122687 70.2917775,5.36494875 C69.3543339,6.07335691 68.0863405,6.15932256 67.0618594,5.58392625 Z M70.2370331,2.68247437 C69.866358,2.01291921 69.6776079,1.25791868 69.6895894,0.492699375 C69.7443338,0.164233125 69.8538225,0.054744375 70.1275444,0.164233125 C70.6749881,0.32846625 70.7844769,0.711676875 70.6749881,1.80656438 C70.6749881,2.79196313 70.510755,3.065685 70.2370331,2.68247437 Z M33.2298356,1.64233125 C33.1750913,2.35400812 34.5437006,4.1605725 35.1458888,4.48903875 C34.7079338,4.65327187 34.2152344,4.5985275 33.8320238,4.76276062 C31.6422488,6.95253562 23.7590588,14.6167481 22.335705,16.4780569 C26.6057663,16.5875456 31.3137825,16.4233125 35.3101219,16.2590794 C35.3101219,13.3576275 38.0473406,13.1933944 39.9086494,12.1532512 C40.8393038,13.6313494 43.1933119,13.5218606 43.5217781,15.76638 L43.5217781,25.40139 L7.11676875,25.40139 C6.83829111,26.8787994 5.94660596,28.1689252 4.662987,28.9516197 C3.37936804,29.7343141 1.82413068,29.9362143 0.383210625,29.5072181 C1.47809812,28.4123306 3.33940687,27.9743756 3.99633937,26.3867887 C4.54378312,22.8831487 2.90145187,20.7481181 1.80656437,18.7225762 C3.18369163,18.2810226 4.47847102,17.6151361 5.63867062,16.7517787 C4.37955,20.583885 9.03282187,20.2006744 12.4269731,20.0911856 C12.5364619,18.7773206 12.4817175,17.2444781 11.4963187,17.0255006 C12.7554394,16.5328012 12.9744169,16.3685681 15.1094475,14.6167481 L15.1094475,19.8722081 L40.3466044,19.8174637 C40.3466044,18.1751325 40.7845594,15.4926581 39.4706944,15.4926581 C38.2663181,15.4926581 39.4706944,18.8868094 38.4852956,18.8868094 L18.9415537,18.8868094 L18.9415537,15.6021469 C19.7627194,14.7262369 19.6532306,14.7809812 25.2919012,9.14231062 C25.839345,8.59486687 29.8356844,4.98173812 33.28458,1.64233125 L33.2298356,1.64233125 Z M82.0070738,1.47809812 C83.3756831,2.24451937 84.4705706,3.22991812 86.1129019,3.66787312 C85.9486688,4.37955 85.2917363,4.65327187 85.1275031,5.36494875 L85.1275031,20.14593 C86.9888119,20.5291406 87.4267669,19.4342531 88.3026769,18.8868094 C88.5216544,21.2408175 90.0544969,23.5400812 89.9450081,25.4561344 L82.0070738,25.4561344 L82.0070738,1.5328425 L82.0070738,1.47809812 Z M71.386665,9.4160325 C71.386665,9.4160325 74.2881169,6.95253562 74.2881169,6.84304687 L74.2881169,19.707975 L76.3684031,19.707975 L76.3136588,5.31020437 C77.1348244,4.43429437 78.8319,3.22991812 79.2151106,2.35400812 L79.2151106,25.3466456 L60.9304894,25.3466456 C60.6567675,20.583885 60.6020231,15.6568912 66.1859494,16.6970344 L66.1859494,14.7809812 C66.0217163,14.452515 65.69325,14.8357256 65.6385056,14.3977706 C66.5144156,13.5218606 66.7881375,13.3028831 69.19689,11.2225969 L69.2516344,19.707975 L71.386665,19.707975 L71.386665,9.4160325 Z M64.4888738,19.5984862 C64.8720844,20.14593 66.2406938,20.14593 66.131205,19.1605312 C65.9669719,18.3393656 64.2151519,18.6130875 64.4888738,19.5984862 Z" id="Shape" fill-rule="nonzero"></path>
                    <circle id="Oval" cx="11.4963188" cy="28.1386087" r="1.0948875"></circle>
                    <path d="M45.985275,1.5328425 C47.3538844,2.24451938 48.4487719,3.2846625 50.1458475,3.7226175 C49.92687,4.37955 49.3246819,4.65327187 49.1604488,5.36494875 L49.1604488,20.14593 C51.0217575,20.5291406 51.4049681,19.4889975 52.2808781,18.8868094 C52.5546,21.2408175 54.0326981,23.5948256 53.9779538,25.4561344 L45.985275,25.4561344 L45.985275,1.5328425 Z" id="Path"></path>
                </g>
            </g>
        </g>
    </g>
</svg>