<?xml version="1.0" encoding="UTF-8"?>
<svg width="200px" height="150px" viewBox="0 0 200 150" version="1.1" xmlns="http://www.w3.org/2000/svg" xmlns:xlink="http://www.w3.org/1999/xlink">
    <!-- Generator: Sketch 52.5 (67469) - http://www.bohemiancoding.com/sketch -->
    <title>kz</title>
    <desc>Created with Sketch.</desc>
    <g id="Flags" stroke="none" stroke-width="1" fill="none" fill-rule="evenodd">
        <g id="Asia" transform="translate(-510.000000, -850.000000)">
            <g id="kz" transform="translate(510.000000, 850.000000)">
                <polygon id="Path" fill="#6FDCFF" points="0 0 200 0 200 150 0 150"></polygon>
                <g id="Group" transform="translate(7.500000, 1.562500)" fill="#FFE400">
                    <path d="M11.3125,144.375 C12.34375,145.375 12,147.03125 14.84375,146.8125 C19.15625,146.8125 19.28125,144.1875 19.28125,142.34375 C19.28125,140.5 12.8125,137.9375 12.5,135.21875 C12.1875,132.5 14,131.78125 15.5,131.78125 C16.96875,131.78125 18,132.625 18,133.375 C18,134.125 17.3125,134.375 16.25,134.375 C15.1875,134.375 16.71875,133.84375 15.8125,133.4375 C14.90625,133.03125 14.3125,134.0625 14.3125,134.6875 C14.3125,135.375 16.5625,135.5625 18.0625,135.09375 C18.375,136.5625 18.5,136.65625 16.40625,139.15625 C17.90625,138.1875 18.03125,137.96875 19.6875,138.53125 C18.03125,137.09375 19.28125,134.21875 19.3125,133.5 C19.34375,132.78125 19,131.90625 18.375,131.46875 C17.15625,130.375 14.5625,130.3125 13,131.03125 C10.71875,132.03125 10.59375,135.03125 11.1875,136.03125 L17.5,142.40625 C17.9375,143.15625 18.125,145.28125 15.4375,145.375 C12.625,145.59375 11.625,141.75 11.125,140.46875 C10.46875,141.875 9.71875,145.71875 6.875,145.5 C4.1875,145.40625 3.6875,143.3125 4.125,142.53125 L10.59375,135.96875 C11.21875,134.96875 11.09375,131.96875 8.8125,130.96875 C7.25,130.25 4.65625,130.34375 3.46875,131.40625 C2.78125,131.84375 2.40625,132.6875 2.46875,133.4375 C2.53125,134.1875 3.75,137.03125 2.125,138.4375 C3.75,137.90625 3.90625,138.125 5.40625,139.0625 C3.3125,136.59375 3.46875,136.5 3.75,135 C5.25,135.5 7.5,135.3125 7.5,134.65625 C7.5,134 6.875,132.90625 5.96875,133.34375 C5.09375,133.78125 6.59375,134.3125 5.53125,134.3125 C4.5,134.3125 3.75,134.09375 3.75,133.375 C3.75,132.65625 4.78125,131.71875 6.28125,131.71875 C7.78125,131.71875 9.5625,132.46875 9.25,135.1875 C8.9375,137.90625 2.375,140.84375 2.375,142.6875 C2.375,144.5625 2.8125,146.78125 7.125,146.78125 C9.9375,147 10.28125,145.34375 11.3125,144.34375 L11.3125,144.375 Z" id="Path"></path>
                    <path d="M10.96875,105.71875 C12,104.71875 12.84375,101.78125 15.65625,101.96875 C19.96875,101.96875 21.59375,104.375 21.59375,106.21875 C21.59375,108.0625 12.84375,123.09375 12.53125,125.8125 C12.21875,128.53125 14.03125,129.28125 15.5,129.28125 C17,129.28125 18.03125,128.4375 18.03125,127.65625 C18.03125,126.875 17.28125,126.71875 16.25,126.71875 C15.21875,126.71875 16.6875,127.25 15.8125,127.65625 C14.9375,128.0625 14.3125,127.03125 14.3125,126.375 C14.3125,125.71875 16.5625,125.5 18.0625,126 C18.34375,124.53125 18.46875,124.4375 16.40625,121.9375 C17.90625,122.875 18.03125,123.125 19.6875,122.5625 C18.03125,124 19.25,126.84375 19.3125,127.5625 C19.375,128.28125 19,129.1875 18.34375,129.625 C17.15625,130.71875 14.53125,130.75 12.96875,130.0625 C10.71875,129.03125 10.59375,126.0625 11.1875,125.0625 L19.6875,106.75 C20.15625,106 18.96875,103.5 16.28125,103.40625 C13.46875,103.1875 12.5,106.15625 12,107.4375 L15.84375,107.125 C15.84375,107.125 16,107.75 15.84375,108.125 C14.5541156,108.219239 13.270826,108.386171 12,108.625 L11.84375,110.5625 L13.71875,110.5625 L13.59375,111.4375 C13.59375,111.4375 12,111.3125 11.84375,111.4375 C11.6875,111.53125 11.53125,113.375 11.53125,113.375 C11.53125,113.375 11.21875,113.5 10.90625,113.5 C10.59375,113.5 10.28125,113.375 10.28125,113.375 C10.28125,113.375 10.15625,111.53125 10,111.4375 C9.84375,111.3125 8.25,111.4375 8.25,111.4375 L8.09375,110.5625 L10,110.5625 L9.84375,108.625 C9.84375,108.625 7.96875,108.25 6,108.125 C5.875,107.75 6,107.15625 6,107.15625 L9.84375,107.4375 C9.34375,106.15625 8.375,103.1875 5.5625,103.375 C2.875,103.5 1.6875,106 2.125,106.75 L10.625,125.0625 C11.21875,126.03125 11.09375,129.03125 8.84375,130.0625 C7.28125,130.75 4.65625,130.6875 3.46875,129.625 C2.8125,129.1875 2.4375,128.3125 2.5,127.59375 C2.5625,126.875 3.75,123.96875 2.125,122.59375 C3.78125,123.125 3.9375,122.90625 5.40625,121.9375 C3.34375,124.4375 3.46875,124.53125 3.78125,126 C5.25,125.5 7.5,125.6875 7.5,126.375 C7.5,127 6.875,128.09375 6,127.65625 C5.125,127.21875 6.625,126.71875 5.5625,126.71875 C4.53125,126.71875 3.78125,126.90625 3.78125,127.65625 C3.78125,128.40625 4.8125,129.28125 6.28125,129.28125 C7.75,129.28125 9.5625,128.53125 9.28125,125.84375 C8.96875,123.125 0.21875,108.03125 0.21875,106.21875 C0.21875,104.34375 1.84375,102 6.15625,102 C8.96875,101.78125 10,104.71875 11,105.71875 L10.96875,105.71875 Z" id="Path"></path>
                    <path d="M10.96875,98.25 C12,99.25 12.84375,102.1875 15.65625,102 C19.96875,102 21.59375,99.59375 21.59375,97.75 C21.59375,95.90625 12.84375,80.875 12.53125,78.15625 C12.21875,75.4375 14.03125,74.6875 15.5,74.6875 C17,74.6875 18.03125,75.53125 18.03125,76.3125 C18.03125,77.09375 17.28125,77.25 16.25,77.25 C15.21875,77.25 16.6875,76.75 15.8125,76.3125 C14.9375,75.875 14.3125,76.9375 14.3125,77.59375 C14.3125,78.25 16.5625,78.46875 18.0625,77.96875 C18.34375,79.4375 18.46875,79.53125 16.40625,82.03125 C17.90625,81.09375 18.03125,80.84375 19.6875,81.40625 C18.03125,79.96875 19.25,77.125 19.3125,76.40625 C19.375,75.6875 19,74.78125 18.34375,74.34375 C17.15625,73.28125 14.53125,73.21875 12.96875,73.90625 C10.71875,74.9375 10.59375,77.90625 11.1875,78.90625 L19.6875,97.1875 C20.15625,97.9375 18.96875,100.4375 16.28125,100.53125 C13.46875,100.75 12.5,97.78125 12,96.5 L15.84375,96.8125 C15.84375,96.8125 16,96.1875 15.84375,95.8125 C14.5541156,95.7182605 13.270826,95.5513285 12,95.3125 L11.84375,93.375 L13.71875,93.375 L13.59375,92.5 C13.59375,92.5 12,92.625 11.84375,92.5 C11.6875,92.40625 11.53125,90.5625 11.53125,90.5625 C11.53125,90.5625 11.21875,90.4375 10.90625,90.4375 C10.59375,90.4375 10.28125,90.5625 10.28125,90.5625 C10.28125,90.5625 10.15625,92.40625 10,92.5 C9.84375,92.625 8.25,92.5 8.25,92.5 L8.09375,93.375 L10,93.375 L9.84375,95.3125 C9.84375,95.3125 7.96875,95.6875 6,95.8125 C5.875,96.1875 6,96.78125 6,96.78125 L9.84375,96.5 C9.34375,97.78125 8.375,100.75 5.5625,100.5625 C2.875,100.4375 1.6875,97.9375 2.125,97.1875 L10.625,78.90625 C11.21875,77.90625 11.09375,74.9375 8.84375,73.90625 C7.28125,73.21875 4.65625,73.28125 3.46875,74.34375 C2.8125,74.78125 2.4375,75.65625 2.5,76.375 C2.5625,77.09375 3.75,79.96875 2.125,81.375 C3.78125,80.84375 3.9375,81.0625 5.40625,82.03125 C3.34375,79.53125 3.46875,79.4375 3.78125,77.96875 C5.25,78.46875 7.5,78.28125 7.5,77.59375 C7.5,76.96875 6.875,75.875 6,76.3125 C5.125,76.75 6.625,77.25 5.5625,77.25 C4.53125,77.25 3.78125,77.0625 3.78125,76.3125 C3.78125,75.5625 4.8125,74.6875 6.28125,74.6875 C7.75,74.6875 9.5625,75.4375 9.28125,78.125 C8.96875,80.84375 0.21875,95.9375 0.21875,97.75 C0.21875,99.625 1.84375,101.96875 6.15625,101.96875 C8.96875,102.1875 10,99.25 11,98.25 L10.96875,98.25 Z" id="Path"></path>
                    <path d="M10.96875,48.625 C12,47.625 12.84375,44.6875 15.65625,44.875 C19.96875,44.875 21.59375,47.28125 21.59375,49.125 C21.59375,50.96875 12.84375,66 12.53125,68.75 C12.21875,71.4375 14.03125,72.1875 15.5,72.1875 C17,72.1875 18.03125,71.34375 18.03125,70.59375 C18.03125,69.84375 17.28125,69.59375 16.25,69.59375 C15.21875,69.59375 16.6875,70.15625 15.8125,70.59375 C14.9375,71.03125 14.3125,69.9375 14.3125,69.28125 C14.3125,68.65625 16.5625,68.40625 18.0625,68.90625 C18.34375,67.4375 18.46875,67.34375 16.40625,64.84375 C17.90625,65.8125 18.03125,66.03125 19.6875,65.46875 C18.03125,66.90625 19.25,69.78125 19.3125,70.46875 C19.375,71.15625 19,72.09375 18.34375,72.53125 C17.15625,73.625 14.53125,73.65625 12.96875,72.96875 C10.71875,71.9375 10.59375,68.96875 11.1875,67.96875 L19.6875,49.6875 C20.15625,48.9375 18.96875,46.4375 16.28125,46.34375 C13.46875,46.125 12.5,49.09375 12,50.375 L15.84375,50.0625 C15.84375,50.0625 16,50.6875 15.84375,51.0625 C13.84375,51.1875 12,51.5625 12,51.5625 L11.84375,53.5 L13.71875,53.5 L13.59375,54.375 C13.59375,54.375 12,54.28125 11.84375,54.375 C11.6875,54.46875 11.53125,56.34375 11.53125,56.34375 C11.53125,56.34375 11.21875,56.4375 10.90625,56.4375 C10.59375,56.4375 10.28125,56.34375 10.28125,56.34375 C10.28125,56.34375 10.15625,54.46875 10,54.375 C9.84375,54.28125 8.25,54.375 8.25,54.375 L8.09375,53.5 L10,53.5 L9.84375,51.5625 C9.84375,51.5625 7.96875,51.1875 6,51.0625 C5.875,50.6875 6,50.09375 6,50.09375 L9.84375,50.375 C9.34375,49.09375 8.375,46.125 5.5625,46.3125 C2.875,46.4375 1.6875,48.9375 2.125,49.6875 L10.625,67.96875 C11.21875,68.96875 11.09375,71.9375 8.84375,72.96875 C7.28125,73.65625 4.65625,73.59375 3.46875,72.53125 C2.8125,72.09375 2.4375,71.21875 2.5,70.5 C2.5625,69.78125 3.75,66.90625 2.125,65.5 C3.78125,66.03125 3.9375,65.8125 5.40625,64.84375 C3.34375,67.34375 3.46875,67.4375 3.78125,68.90625 C5.25,68.40625 7.5,68.625 7.5,69.28125 C7.5,69.90625 6.875,71 6,70.5625 C5.125,70.15625 6.625,69.625 5.5625,69.625 C4.53125,69.625 3.78125,69.8125 3.78125,70.5625 C3.78125,71.3125 4.8125,72.1875 6.28125,72.1875 C7.75,72.1875 9.5625,71.4375 9.28125,68.75 C8.96875,66.03125 0.21875,50.96875 0.21875,49.125 C0.21875,47.28125 1.84375,44.90625 6.15625,44.90625 C8.96875,44.6875 10,47.625 11,48.65625 L10.96875,48.625 Z" id="Path"></path>
                    <path d="M10.96875,41.15625 C12,42.15625 12.84375,45.125 15.65625,44.90625 C19.96875,44.90625 21.59375,42.5 21.59375,40.65625 C21.59375,38.8125 12.84375,23.78125 12.53125,21.0625 C12.21875,18.34375 14.03125,17.59375 15.5,17.59375 C17,17.59375 18.03125,18.46875 18.03125,19.21875 C18.03125,19.96875 17.28125,20.1875 16.25,20.1875 C15.21875,20.1875 16.6875,19.65625 15.8125,19.21875 C14.9375,18.78125 14.3125,19.84375 14.3125,20.5 C14.3125,21.15625 16.5625,21.375 18.0625,20.875 C18.34375,22.34375 18.46875,22.4375 16.40625,24.9375 C17.90625,24 18.03125,23.75 19.6875,24.3125 C18.03125,22.90625 19.25,20.03125 19.3125,19.3125 C19.375,18.59375 19,17.6875 18.34375,17.25 C17.15625,16.1875 14.53125,16.125 12.96875,16.84375 C10.71875,17.84375 10.59375,20.84375 11.1875,21.8125 L19.6875,40.125 C20.15625,40.875 18.96875,43.375 16.28125,43.5 C13.46875,43.6875 12.5,40.75 12,39.4375 L15.84375,39.75 C15.84375,39.75 16,39.125 15.84375,38.75 C14.5548017,38.6651192 13.2715707,38.5086277 12,38.28125 L11.84375,36.3125 L13.71875,36.3125 L13.59375,35.4375 C13.59375,35.4375 12,35.5625 11.84375,35.4375 C11.6875,35.34375 11.53125,33.5 11.53125,33.5 C11.53125,33.5 11.21875,33.375 10.90625,33.375 C10.59375,33.375 10.28125,33.5 10.28125,33.5 C10.28125,33.5 10.15625,35.34375 10,35.4375 C9.84375,35.5625 8.25,35.4375 8.25,35.4375 L8.09375,36.3125 L10,36.3125 L9.84375,38.28125 C9.84375,38.28125 7.96875,38.625 6,38.75 C5.875,39.15625 6,39.75 6,39.75 L9.84375,39.4375 C9.34375,40.75 8.375,43.6875 5.5625,43.5 C2.875,43.375 1.6875,40.875 2.125,40.125 L10.625,21.8125 C11.21875,20.84375 11.09375,17.84375 8.84375,16.8125 C7.28125,16.125 4.65625,16.1875 3.46875,17.25 C2.8125,17.6875 2.4375,18.5625 2.5,19.28125 C2.5625,20 3.75,22.90625 2.125,24.28125 C3.78125,23.75 3.9375,23.96875 5.40625,24.9375 C3.34375,22.4375 3.46875,22.34375 3.78125,20.875 C5.28125,21.375 7.5,21.1875 7.5,20.5 C7.5,19.875 6.875,18.78125 6,19.21875 C5.125,19.65625 6.625,20.1875 5.5625,20.1875 C4.53125,20.1875 3.78125,19.96875 3.78125,19.21875 C3.78125,18.46875 4.8125,17.59375 6.28125,17.59375 C7.75,17.59375 9.59375,18.34375 9.28125,21.03125 C8.96875,23.75 0.21875,38.84375 0.21875,40.65625 C0.21875,42.53125 1.84375,44.90625 6.15625,44.90625 C8.96875,45.125 10,42.15625 11,41.15625 L10.96875,41.15625 Z" id="Path"></path>
                    <path d="M11.3125,2.5 C12.34375,1.5 12,-0.15625 14.84375,0.0625 C19.15625,0.0625 19.28125,2.6875 19.28125,4.53125 C19.28125,6.375 12.8125,8.9375 12.5,11.65625 C12.1875,14.375 14,15.09375 15.5,15.09375 C16.96875,15.09375 18,14.25 18,13.5 C18,12.75 17.3125,12.5 16.25,12.5 C15.1875,12.5 16.71875,13.03125 15.8125,13.4375 C14.90625,13.84375 14.3125,12.8125 14.3125,12.1875 C14.3125,11.5 16.5625,11.28125 18.0625,11.78125 C18.375,10.3125 18.5,10.21875 16.40625,7.71875 C17.90625,8.6875 18.03125,8.90625 19.6875,8.34375 C18.03125,9.78125 19.28125,12.65625 19.3125,13.375 C19.34375,14.09375 19,14.96875 18.375,15.40625 C17.125,16.5625 14.53125,16.5625 12.96875,15.875 C10.6875,14.875 10.5625,11.875 11.15625,10.875 L17.5,4.46875 C17.9375,3.71875 18.125,1.59375 15.4375,1.5 C12.625,1.28125 11.625,5.125 11.125,6.40625 C10.46875,5 9.71875,1.125 6.875,1.34375 C4.1875,1.4375 3.6875,3.53125 4.125,4.3125 L10.59375,10.875 C11.21875,11.875 11.09375,14.875 8.8125,15.875 C7.25,16.59375 4.65625,16.53125 3.46875,15.4375 C2.78125,15 2.40625,14.15625 2.46875,13.40625 C2.53125,12.65625 3.75,9.8125 2.125,8.40625 C3.75,8.9375 3.90625,8.71875 5.375,7.78125 C3.3125,10.25 3.46875,10.34375 3.75,11.84375 C5.25,11.34375 7.5,11.53125 7.5,12.1875 C7.5,12.84375 6.875,13.9375 5.96875,13.5 C5.09375,13.0625 6.59375,12.53125 5.53125,12.53125 C4.5,12.53125 3.75,12.75 3.75,13.46875 C3.75,14.1875 4.78125,15.125 6.28125,15.125 C7.78125,15.125 9.5625,14.375 9.25,11.65625 C8.9375,8.9375 2.375,6 2.375,4.15625 C2.375,2.28125 2.8125,0.0625 7.125,0.0625 C9.9375,-0.15625 10.28125,1.5 11.3125,2.5 Z" id="Path"></path>
                </g>
                <g id="Group" transform="translate(51.556281, 21.271500)" fill="#FFE400">
                    <rect id="Rectangle" x="29.6509281" y="16.1762656" width="56.7670187" height="53.7985906" rx="26.8992953"></rect>
                    <path d="M56.7003125,0.1334125 C56.4334875,0.1334125 55.1660687,9.07205 54.699125,11.0732375 C54.2321812,15.5759094 60.7026875,15.4091437 59.6353875,10.9064719 L56.7003125,0.100059375 L56.7003125,0.1334125 Z M58.968325,86.7848312 C59.2017969,86.7848312 61.1362781,77.9462531 61.7699875,75.9784187 C62.5371094,71.5424531 56.0666031,71.3089812 56.7670187,75.8450062 L58.968325,86.7848313 Z M13.7414875,42.8921188 C13.7414875,43.1255906 23.0470094,44.9933656 25.1149031,45.5937219 C29.7843406,46.3608438 30.1178719,40.2572219 25.3150219,40.9242844 L13.7414875,42.9254719 L13.7414875,42.8921188 Z M104.361928,43.9594187 C104.361928,43.7259469 94.9563469,42.1917031 92.8551,41.6580531 C88.1523094,41.09105 88.1189562,47.1946719 92.8551,46.3608437 L104.361928,43.9594187 Z M23.2804812,14.5419625 C23.1137156,14.7087281 29.2506906,21.6461781 30.4847563,23.3471875 C33.6866563,26.6825 37.9225031,22.0130625 33.6866563,19.74505 L23.2804813,14.5753156 L23.2804812,14.5419625 Z M93.6889281,71.5758062 C93.8556937,71.4090406 87.1183625,65.0052406 85.7175312,63.4376438 C82.2154531,60.3691563 78.44655,65.3387719 82.8491625,67.2732531 L93.6889281,71.6091594 L93.6889281,71.5758062 Z M37.3221469,4.86955625 C37.1220281,4.96961563 39.9903969,13.5747219 40.4573406,15.6092625 C42.0582906,19.8451094 47.8617344,17.0768 44.8599531,13.4413094 L37.3555,4.86955625 L37.3221469,4.86955625 Z M78.3798437,82.3822187 C78.6133156,82.2821594 76.3786562,73.5102875 76.0784781,71.4757469 C74.7777062,67.1398406 68.8074969,69.4745594 71.5091,73.3435219 L78.4131969,82.3488656 L78.3798437,82.3822187 Z M88.4858406,10.8731187 C88.2857219,10.7063531 80.8813281,16.4097375 79.0802594,17.5437437 C75.511475,20.545525 80.3476781,24.6146062 82.8158094,20.6455844 L88.4858406,10.8731187 Z M27.4496219,75.4781219 C27.6163875,75.6448875 35.4543719,70.4751531 37.3221469,69.4412062 C41.09105,66.70625 36.5883781,62.3036375 33.8200687,66.1058937 L27.482975,75.4781219 L27.4496219,75.4781219 Z M15.7760281,27.4162687 C15.6759687,27.6163875 23.7807781,32.3191781 25.5484937,33.5532437 C29.7176344,35.7211969 32.1524125,30.0511656 27.3829156,29.1506312 L15.7760281,27.4162688 Z M100.392906,60.2357438 C100.492966,60.035625 92.7216875,54.7991844 91.0540312,53.4650594 C87.0516562,50.9969281 84.2166406,56.5001937 88.9194312,57.7009063 L100.392906,60.2357437 Z M73.5102875,2.56819063 C73.2768156,2.50148437 68.6407312,10.3728219 67.4066656,12.0738312 C67.4113452,13.1875342 68.1244189,14.1747255 69.1802231,14.529174 C70.2360272,14.8836226 71.4003402,14.5266968 72.0761031,13.6414281 L73.5102875,2.56819062 Z M42.1917031,84.049875 C42.425175,84.1499344 47.6282625,76.578775 48.9623875,74.9444719 C51.3971656,71.0755094 45.4936625,68.6073781 44.3930094,73.0766969 L42.1917031,84.049875 Z M16.3430312,60.9361594 C16.4430906,61.1362781 25.6819062,58.9349719 27.8498594,58.6014406 C32.3858844,57.3340219 29.8510469,51.7306969 25.8486719,54.3322406 L16.3430312,60.9361594 Z M100.426259,26.6825 C100.359553,26.4823812 90.987325,28.0499781 88.8193719,28.2500969 C84.1499344,29.2173375 86.3178875,34.9874281 90.4870281,32.6527094 L100.426259,26.6825 Z" id="Shape" fill-rule="nonzero"></path>
                    <path d="M65.905775,0.700415625 C65.6723031,0.6670625 62.5371094,9.17210937 61.6032219,11.0398844 C60.2357438,15.3757906 66.6061906,16.4430906 66.5061313,11.8403594 L65.9391281,0.6670625 L65.905775,0.700415625 Z M49.7295094,86.0510625 C49.9629812,86.1177687 53.7318844,77.8128406 54.7991844,75.9784187 C56.4668406,71.775925 50.1964531,70.3083875 49.9629812,74.8777656 L49.6961562,86.0510625 L49.7295094,86.0510625 Z M46.4942563,1.53424375 C46.2607844,1.60095 47.1279656,10.6062937 47.1279656,12.6741875 C47.761675,17.1101531 53.9987094,15.5759094 51.9308156,11.4401219 L46.4942562,1.53424375 Z M69.1743813,85.5507656 C69.4078531,85.5174125 69.1743813,76.4787156 69.3411469,74.4108219 C69.0409688,69.90815 62.6705219,71.0421562 64.4715906,75.3113562 L69.1410281,85.5507656 L69.1743813,85.5507656 Z M30.41805,9.00534375 C30.2179312,9.13875625 34.6538969,17.1101531 35.487725,19.0112812 C37.88915,22.9135969 43.0588844,19.2447531 39.4233937,16.1429125 L30.41805,9.00534375 Z M85.384,78.3464906 C85.5841187,78.2130781 81.7151562,69.9415031 81.0480937,68.0070219 C78.9468469,63.9712937 73.5436406,67.3066062 76.9123062,70.6085656 L85.384,78.3464906 Z M18.67775,20.2119937 C18.5443375,20.4121125 25.7152594,26.3489687 27.21615,27.8832125 C30.9183469,30.684875 34.3537187,25.4817875 29.8176938,23.8474844 L18.67775,20.2119937 Z M96.7907687,66.8063094 C96.9241812,66.6061906 90.2202031,60.2023906 88.8193719,58.6014406 C85.3506469,55.5663062 81.5483906,60.5359219 85.9510031,62.4704031 L96.7907687,66.8063094 Z M13.5413688,34.1869531 C13.4746625,34.420425 22.3132406,37.7890906 24.2477219,38.7563312 C28.7170406,40.2572219 30.151225,34.2870125 25.2816688,34.1536 L13.5413688,34.1869531 Z M102.727625,53.4650594 C102.827684,53.2649406 94.2559312,49.3292719 92.3881562,48.2286188 C88.05225,46.42755 86.1511219,52.2977 90.987325,52.7646438 L102.727625,53.4650594 Z M13.2411906,51.3638125 C13.2745437,51.5639312 22.8135375,51.4305187 24.9814906,51.5972844 C29.7176344,51.3638125 28.5836281,45.3268969 24.0476031,46.9612 L13.2411906,51.3638125 Z M103.361334,36.3549062 C103.361334,36.1214344 93.8223406,35.6211375 91.6877406,35.3209594 C86.9182438,35.2542531 87.6186594,41.357875 92.2547438,39.9903969 L103.361334,36.3215531 L103.361334,36.3549062 Z M21.4127062,69.1743812 C21.5461187,69.3745 30.0845187,65.3054187 32.0857062,64.5382969 C36.2214937,62.3703437 32.4192375,57.4007281 29.1172781,60.7693937 L21.4127062,69.1743812 Z M95.5567031,18.3775719 C95.4232906,18.1774531 86.6514187,21.6795312 84.5501719,22.3132406 C80.2476188,24.2143687 83.6829906,29.4174562 87.2184219,26.2822625 L95.5567031,18.3775719 Z M35.2876063,80.9813875 C35.487725,81.0814469 41.5913469,74.1439969 43.1255906,72.6764594 C46.0273125,69.107675 40.4573406,66.0058344 38.8230375,70.3417406 L35.2876063,80.9813875 Z M81.8819219,6.33709375 C81.7151562,6.20368125 75.1112375,12.7075406 73.4769344,14.0750187 C70.3417406,17.4436844 75.6782406,20.9124094 77.6127219,16.7099156 L81.8485687,6.33709375 L81.8819219,6.33709375 Z" id="Shape" fill-rule="nonzero"></path>
                    <g transform="translate(0.005336, 44.522953)">
                        <path d="M14.6307619,16.4441946 C15.1402909,18.1642987 15.2130807,27.7968813 25.476451,37.0854431 C35.6670314,46.3052007 53.1365978,48.3693256 53.1365978,48.3693256 C53.1365978,48.3693256 53.2093877,49.6766046 51.97196,49.7454088 C50.7345324,49.8830171 44.7657639,48.7133464 41.7813796,47.8188923 C38.8697852,46.9932423 36.2493503,45.4795508 35.9581908,45.548355 C35.5942415,45.6859633 35.0119227,46.6492215 34.1384443,46.5116132 C33.264966,46.3740049 29.0431541,42.2457552 27.1506178,41.1448886 C23.3652576,38.0521757 20.013989,34.5144519 17.178407,30.6178519 C15.1402909,27.5216646 14.6307619,25.4575398 13.9756531,25.4575398 C13.3205444,25.4575398 10.918479,26.9712313 10.918479,26.9712313 C10.918479,26.9712313 8.7347832,23.8750441 6.84224684,18.9211444 C4.87692062,13.9672448 5.0952902,11.07747 5.53202936,10.8710575 C6.04155838,10.664645 6.04155838,14.5176781 7.49735558,18.0266903 C8.95315278,21.6045067 10.9912689,22.7053733 10.9912689,22.7053733 C10.9912689,22.7053733 9.68105138,20.847661 8.66199334,16.2377821 C7.6429353,11.6279033 7.20619614,7.1556328 7.93409474,5.77954957 C8.66199334,4.40346634 9.31710208,3.99064137 9.38989194,4.05944553 C9.53547166,4.19705386 8.15246432,6.19237454 9.0987325,11.490295 C10.0450007,16.7882154 12.5926458,21.2604859 13.1749647,21.0540734 C13.7572835,20.847661 12.8110154,19.7467944 12.4470661,16.6506071 C12.0831168,13.5544198 12.8110154,11.6279033 13.6117038,11.3526867 C13.9756531,11.07747 14.557972,14.7928947 14.6307619,16.4441946 Z M7.49735558,25.2511273 C5.53202936,23.5310233 2.47485524,17.5450612 1.8197465,17.8202778 C1.0918479,18.1642987 6.76945698,26.7648188 6.9150367,27.4528605 C7.06061642,28.2785104 8.29804404,30.6178519 7.35177586,30.2738311 C6.40550768,29.9298103 -0.3639493,23.1870024 0.43673916,24.4942815 C1.23742762,25.8015606 6.33271782,31.7187185 6.04155838,32.0627393 C5.75039894,32.4067601 1.8197465,28.7601395 1.67416678,29.2417687 C1.60137692,29.6545936 5.53202936,33.23241 5.4592395,33.645235 C5.38644964,34.05806 2.9115944,31.3746977 2.9115944,31.925131 C2.9115944,32.4755643 5.4592395,35.1589266 5.4592395,35.5717515 C5.4592395,35.9845765 3.2755437,33.645235 4.0034423,34.8837099 C4.65855104,36.2597931 6.5510874,37.4294639 6.47829754,37.8422889 C6.40550768,38.2551138 4.87692062,37.2918556 4.87692062,37.4982681 C4.87692062,37.7046805 7.71572516,38.6679388 8.3708339,39.4247846 C9.0987325,40.1816304 13.7572835,45.2731383 17.2511968,47.8188923 C20.7451101,50.3646463 30.7901108,54.8369168 31.5180094,54.8369168 C32.1731181,54.8369168 33.1921762,53.4608335 32.9738066,52.9104002 C32.755437,52.3599669 22.9288059,49.1949755 20.2355811,46.855634 C17.4695664,44.5162925 10.7728993,38.8743513 10.1905804,38.5991346 C9.68105138,38.2551138 8.15246432,38.3927222 8.15246432,38.0487013 C8.15246432,37.7046805 10.1177905,38.2551138 9.97221082,38.0487013 C9.89942096,37.8422889 7.278986,36.7414223 7.35177586,36.5350098 C7.49735558,36.3285973 9.17152236,36.9478348 9.17152236,36.7414223 C9.17152236,36.5350098 6.11434824,34.9525141 6.25992796,34.6084933 C6.33271782,34.2644725 8.51641362,35.5717515 8.51641362,35.2965349 C8.51641362,35.1589266 5.60481922,33.23241 5.67760908,32.8883892 C5.75039894,32.5443684 7.93409474,34.4020808 7.86130488,33.9892558 C7.78851502,33.5764308 6.11434824,31.2370893 6.11434824,30.9618727 C6.11434824,30.6178519 8.7347832,33.3012142 9.02594264,32.7507809 C9.17152236,32.2691518 8.07967446,27.7968813 8.15246432,27.7280771 C8.22525418,27.6592729 10.1177905,28.6913354 10.40895,28.0720979 C10.7728993,27.3840563 9.0987325,26.4896022 7.49735558,25.2511273 Z M41.053481,59.1027748 C39.6704737,59.3091873 39.015365,58.8275581 39.8160534,57.7266916 C40.9079013,57.7266916 43.8194957,56.8322375 44.8385538,56.4194125 C45.8576118,56.0065875 46.9494597,55.4561542 47.822938,54.6993084 C48.6964163,53.8048543 49.2787352,55.1809376 48.7692062,55.9377834 C48.4052569,56.4194125 46.7310901,57.3138666 45.4936625,57.7954957 C43.673916,58.345929 42.0725391,59.1715789 41.053481,59.1027748 Z M50.1522135,55.5937625 C49.2059454,54.6305043 50.0066338,53.9424627 51.3896412,53.1856169 C53.4277572,52.1535545 52.8454384,50.7086671 55.4658733,49.5389963 C56.6305111,48.8509547 72.9354397,42.6585802 78.2490995,39.3559804 C83.5627593,36.0533807 98.4846806,25.3887356 102.488123,18.0266903 C106.418775,10.7334492 104.526239,10.1830159 105.108558,9.90779926 C105.618087,9.56377846 106.200406,10.9398617 106.127616,12.5911616 C105.982036,14.1736573 104.671819,18.9899486 105.108558,19.4715777 C105.545297,19.9532069 111.077326,15.6873488 113.406602,10.5270367 C115.735877,5.3667246 117.482834,-1.87731061e-13 118.574682,-1.87731061e-13 C119.73932,-1.87731061e-13 116.682146,8.80693268 114.716819,12.2471408 C112.824283,15.6873488 110.567797,17.4074529 111.077326,18.1642987 C111.659645,18.8523403 117.337254,14.3800698 119.302581,11.07747 C121.195117,7.70606609 123.014863,4.74748715 123.378813,5.3667246 C122.799638,9.39718851 121.118709,13.2152625 118.501892,16.4441946 C115.444718,19.7467944 111.805225,22.15494 112.387544,22.6365692 C112.897073,23.1870024 117.046095,23.7374357 121.340697,20.9852693 C125.708088,18.1642987 126.144827,14.1048531 126.654356,14.3112656 C127.236675,14.5176781 126.144827,20.0908152 121.995805,23.5310233 C117.846783,26.9712313 112.387544,27.3152521 112.533124,28.0720979 C112.824283,28.7601395 124.397871,24.9071065 124.179501,25.8015606 C123.961132,26.6272105 109.18479,32.1315434 109.03921,32.6819767 C109.03921,33.0948017 111.586855,33.23241 115.590298,32.3379559 C119.52095,31.512306 123.306023,28.553727 123.815552,29.2417687 C123.961132,30.2050269 120.976747,32.5443684 116.463776,33.645235 C111.878015,34.7461016 109.621529,36.190989 109.475949,36.5350098 C109.40316,36.8790306 117.628414,35.5717515 117.628414,35.9845765 C117.628414,36.3974015 106.855514,38.3927222 106.782725,38.9431554 C106.637145,39.4247846 116.973305,36.9478348 116.827725,37.5670722 C116.536566,38.0487013 102.779282,41.9017344 102.924862,42.1081469 C102.997652,42.3833635 114.42566,39.7688054 114.20729,40.1816304 C113.916131,40.6632595 94.9907673,45.6859633 94.8451876,46.0299841 C94.6996079,46.3052007 111.586855,42.4521677 111.441276,42.7961885 C111.295696,43.1402093 102.706492,45.13553 102.706492,45.3419425 C102.706492,45.548355 109.621529,44.30988 109.475949,44.6539009 C109.40316,44.9291175 92.006383,49.1261714 91.6424337,49.7454088 C91.2784844,50.4334504 100.668376,48.0253048 100.522797,49.2637797 C100.377217,50.5022546 80.3600054,56.8322375 80.2872156,55.6625667 C80.1416359,54.492896 92.4431222,51.534317 92.3703323,51.1902962 C92.2247526,50.8462754 85.3097159,51.8783378 85.1641362,51.2591004 C85.0913463,50.5710587 89.7498974,49.1949755 89.3859481,48.9197589 C89.0219988,48.5757381 85.5280855,49.8830171 85.8192449,49.1261714 C86.1831942,48.3693256 92.8070715,45.4795508 92.6614918,45.2731383 C92.5887019,45.0667258 90.2594264,45.9611799 90.477796,45.2731383 C90.7689554,44.5162925 104.817398,40.6632595 104.599029,40.1816304 C104.380659,39.7688054 98.1207313,41.1448886 97.5384124,41.2824969 C97.3200428,40.869672 106.273196,37.7046805 106.127616,37.1542472 C105.836456,36.6726181 101.323485,39.0119596 101.032326,38.3927222 C100.886746,37.7046805 108.96642,34.7461016 108.456891,34.2644725 C107.947362,33.7828433 104.307869,35.5029474 103.79834,35.0213182 C103.288811,34.5396891 111.441276,29.2417687 110.203848,29.1041603 C108.96642,29.0353562 107.437833,30.7554602 107.292254,29.6545936 C107.437833,28.2785104 113.624971,26.0079731 112.241964,24.9071065 C110.058268,24.287869 102.706492,25.3887356 99.6493183,27.1088397 C96.5921442,28.8289437 86.4015638,38.3927222 83.9267086,39.9064137 C81.4518533,41.3513011 73.0082296,44.722705 71.4068527,45.4107466 C68.9319974,46.2363966 68.4952583,47.4748715 65.9476132,48.7133464 C61.361852,49.8830171 61.4346418,51.1902962 59.250946,51.947142 C58.4502576,52.1535545 50.2250034,55.8689792 50.1522135,55.5937625 Z M38.6514157,60.4100539 C37.2684083,61.0980955 36.0309807,62.7493953 36.8316692,63.437437 C37.2684083,64.2630869 38.6514157,61.5797246 39.7432636,61.7173329 L45.5664524,61.9925496 C48.6964163,62.1989621 50.2250034,61.3733121 51.97196,61.5109204 C53.7189167,61.6485288 57.5767793,60.6164663 59.3965258,60.6164663 C61.2162723,60.6164663 61.5802216,60.8228788 61.7258013,60.066033 C61.9441709,59.3779914 56.0481922,59.8596206 53.4277572,59.7908164 C50.8073223,59.6532081 47.5317786,60.2724455 45.5664524,60.2724455 C43.7467059,60.2036414 40.6167419,59.6532081 38.6514157,60.4100539 Z" id="Shape" fill-rule="nonzero"></path>
                        <rect id="Rectangle" x="44.9113436" y="58.5523415" width="2.47485524" height="2.06412485" rx="1.03206242"></rect>
                        <path d="M76.429353,57.5890832 C77.6667806,57.3826707 81.0151142,58.4835373 83.3443897,58.9651665 C87.5662016,60.5476622 95.4275065,59.7908164 95.4275065,60.5476622 C95.4275065,61.304508 94.9179774,62.1989621 93.0982309,62.3365704 C91.2784844,62.4741787 86.6927233,61.6485288 86.838303,61.6485288 C86.9838827,61.6485288 90.477796,63.2310245 89.4587379,63.6438494 C88.4396799,64.0566744 85.4552956,62.7493953 84.9457666,63.0934162 C84.4362376,63.437437 87.7117813,64.0566744 87.1294624,64.2630869 C86.6927233,64.4694994 84.4362376,63.9878703 83.708339,64.0566744 C82.9804404,64.1942827 84.2906579,64.9511285 83.4171796,65.2263452 C82.5437012,65.570366 81.087904,64.8135202 80.5055852,65.0199327 C79.8504764,65.2263452 81.8158026,66.3960159 80.9423243,66.5336242 C80.068846,66.6712326 78.0307299,65.9831909 76.8660922,65.8455826 C75.7014544,65.8455826 77.9579401,66.9464492 77.2300415,67.0840575 C76.5021429,67.1528617 74.4640268,66.1896034 73.9544978,66.1896034 C73.4449687,66.1896034 73.9544978,67.5656867 73.2265992,67.5656867 C72.4987006,67.5656867 71.6252222,66.3960159 71.1884831,66.3960159 C70.7517439,66.3960159 71.1884831,67.7720991 70.4605845,67.7720991 C69.7326859,67.7720991 69.4415264,66.3272117 68.8592076,66.3960159 C68.131309,66.5336242 68.8592076,68.2537283 67.8401495,68.1161199 C66.8938813,68.0473158 66.7483016,66.3272117 65.9476132,66.3960159 C65.2197146,66.5336242 66.0931929,68.1161199 65.3652943,68.1161199 C64.6373957,68.1161199 64.491816,66.5336242 63.7639174,66.3960159 C63.0360188,66.3272117 63.3271782,67.9097075 62.890439,67.9097075 C62.4536999,67.9097075 62.0169607,66.3960159 61.7258013,66.3960159 C61.5074317,66.3960159 61.7258013,67.9097075 60.852323,67.7720991 C59.9788446,67.6344908 59.9788446,66.1207993 59.7604751,66.1896034 C59.4693156,66.3272117 59.4693156,67.4280783 58.8869967,67.4280783 C58.3046779,67.4280783 58.231888,66.3272117 58.0135184,66.4648201 C57.722359,66.5336242 56.8488807,67.9097075 56.2665618,67.703295 C55.611453,67.4968825 56.4121415,66.3960159 56.1209821,66.3960159 C55.8298226,66.3960159 55.101924,67.1528617 54.6651849,67.0840575 C54.2284457,67.0152534 54.6651849,66.1207993 54.5196051,66.1207993 C54.3740254,66.1207993 53.2821775,66.6712326 52.7726485,66.6712326 C52.2631195,66.6712326 50.8801121,67.3592742 50.5161628,66.7400367 C50.1522135,66.0519951 51.462431,66.0519951 51.7535905,65.4327576 C51.97196,64.8135202 51.0256919,62.9558078 52.0447499,62.3365704 C52.9910181,61.6485288 56.1209821,63.2310245 60.7795331,62.1301579 C69.2231569,59.9972289 75.7742443,57.5202791 76.429353,57.5890832 Z" id="Path"></path>
                    </g>
                </g>
            </g>
        </g>
    </g>
</svg>