<?xml version="1.0" encoding="UTF-8"?>
<svg width="200px" height="150px" viewBox="0 0 200 150" version="1.1" xmlns="http://www.w3.org/2000/svg" xmlns:xlink="http://www.w3.org/1999/xlink">
    <!-- Generator: Sketch 52.5 (67469) - http://www.bohemiancoding.com/sketch -->
    <title>ls</title>
    <desc>Created with Sketch.</desc>
    <g id="Flags" stroke="none" stroke-width="1" fill="none" fill-rule="evenodd">
        <g id="Africa" transform="translate(-510.000000, -850.000000)">
            <g id="ls" transform="translate(510.000000, 850.000000)">
                <polygon id="Path" fill="#FFFFFF" points="0 0 200 0 200 150 0 150"></polygon>
                <polygon id="Path" fill="#009543" points="0 105 200 105 200 150 0 150"></polygon>
                <polygon id="Path" fill="#00209F" points="0 0 200 0 200 45 0 45"></polygon>
                <path d="M99.875,47.8125 C99.03125,47.8125 98.1875,48.75 98.1875,48.75 L98.28125,58.875 L95.0625,62.21875 L97.65625,62.21875 L97.65625,68 L82.34375,88.625 L80.09375,87.8125 L76.125,96.25 C76.125,96.25 85.90625,102.375 100.09375,102.1875 C115.65625,102.03125 124.125,95.96875 124.125,95.96875 L120.0625,87.65625 L118.03125,88.53125 L102.53125,68.03125 L102.53125,62.0625 L105.09375,62.0625 L101.59375,58.75 L101.59375,48.6875 C101.59375,48.6875 100.75,47.75 99.875,47.78125 L99.875,47.8125 Z" id="Path" stroke="#000000" stroke-width="0.8" fill="#000000"></path>
                <path d="M105.21875,72 L94.625,72 C94.625,72 90.8125,63.90625 91.40625,58.25 C92.03125,52.5 95.34375,49.78125 99.71875,49.71875 C104.90625,49.6875 107.59375,52.25 108.40625,58.03125 C109.21875,63.75 105.21875,72 105.21875,72 Z" id="Path" stroke="#000000" stroke-width="4"></path>
                <path d="M81.40625,91.28125 C81.21875,91.5 79.9375,94.0625 79.9375,94.0625 L82.125,93.59375 L81.40625,91.28125 Z M82.65625,94.5625 L80.34375,95.3125 L83.125,96.40625 L82.65625,94.5625 Z M83.6875,91.34375 L84.84375,94.75 L87.65625,93.9375 L86.9375,92.3125 L83.6875,91.34375 Z M85.5,95.96875 L85.875,97.34375 L89.625,98.28125 L88.125,95.09375 L85.5,95.96875 Z M89.625,93.0625 L90.96875,96.25 L93.78125,95.15625 L92.84375,93.75 L89.625,93.0625 Z M91.5,97.40625 L91.9375,98.59375 L96.3125,99.21875 L94.46875,96.34375 L91.46875,97.40625 L91.5,97.40625 Z M95.6875,93.96875 L97.3125,96.8125 L101.375,95.3125 L100.9375,94.21875 L95.6875,94 L95.6875,93.96875 Z M98.0625,97.84375 L98.90625,99.34375 L103.96875,99.1875 L102.09375,96.375 L98.03125,97.84375 L98.0625,97.84375 Z M103.40625,94.09375 L104.78125,96.46875 L108.03125,94.90625 L107.15625,93.65625 L103.40625,94.09375 Z M108.71875,95.90625 L105.5,97.5 L106.34375,98.90625 L110.65625,98.21875 L108.71875,95.90625 Z M109.75,93.40625 L111.40625,95.5 L114.125,93.34375 L113.1875,92.40625 L109.75,93.40625 Z M114.71875,94.5 L112.125,96.46875 L112.8125,97.6875 L116.375,96.75 L114.71875,94.5 Z M118.28125,90.4375 L118.90625,91.34375 L117.125,94 L115.28125,91.625 L118.28125,90.4375 Z M119.5,92.71875 L120.59375,94.90625 L118.40625,95.65625 L118.21875,94.625 L119.46875,92.75 L119.5,92.71875 Z" id="Shape" fill="#FFFFFF" fill-rule="nonzero"></path>
            </g>
        </g>
    </g>
</svg>