<?xml version="1.0" encoding="UTF-8"?>
<svg width="200px" height="150px" viewBox="0 0 200 150" version="1.1" xmlns="http://www.w3.org/2000/svg" xmlns:xlink="http://www.w3.org/1999/xlink">
    <!-- Generator: Sketch 52.5 (67469) - http://www.bohemiancoding.com/sketch -->
    <title>li</title>
    <desc>Created with Sketch.</desc>
    <g id="Flags" stroke="none" stroke-width="1" fill="none" fill-rule="evenodd">
        <g id="Europe" transform="translate(-1170.000000, -1050.000000)">
            <g id="li" transform="translate(1170.000000, 1050.000000)">
                <polygon id="Path" fill="#002B7F" points="0 0 200 0 200 75 0 75"></polygon>
                <polygon id="Path" fill="#CE1126" points="0 75 200 75 200 150 0 150"></polygon>
                <g id="Group" stroke-linecap="round" stroke-linejoin="round" transform="translate(29.750000, 13.250000)">
                    <g id="a" transform="translate(1.000000, 11.500000)">
                        <path d="M23.35,5.825 L22.875,21.45 L7.025,21.45 C5.075,17.65 3.475,14.45 3.475,10.075 C3.475,6.425 6.35,3.525 10.475,3.525 C14.85,3.525 19.675,5 23.35,5.825 Z" id="Path" fill="#FFD83D"></path>
                        <g id="Group" transform="translate(4.250000, 4.000000)" stroke="#000000" stroke-width="0.6">
                            <path d="M1.125,2.55 L1.125,11.55 M2.375,1.625 L2.375,13.625 M3.675,1 L3.675,15.3 M4.925,0.7 L4.925,11.925 M6.2,0.65 L6.2,11.975 M7.475,0.225 L7.475,11.975 M8.75,0.225 L8.75,11.975 M10.025,0.35 L10.025,12.1 M11.3,0.475 L11.3,12.2 M12.575,1.2 L12.575,12.95 M13.825,1.325 L13.825,14.55 M15.125,1.325 L15.125,13.075 M16.375,1.325 L16.375,13.075" id="Shape" fill="#FFD83D" fill-rule="nonzero"></path>
                            <path d="M9.1,0.75 C11.8,1.175 17.7,3.95 17.025,7.675 C16.075,12.975 12.975,10.85 8.875,10.1 L5.775,11.125 C4.65,12.25 3.025,13.3 1.925,11.925 L0.075,11.925 L0.075,19.125 L20.425,19.125 L20.425,1.75 L9.1,0.75 Z" id="Path" fill="#000000"></path>
                        </g>
                        <circle id="Oval" stroke="#000000" stroke-width="0.8" fill="#FFD83D" cx="22.45" cy="3.5" r="1.225"></circle>
                        <circle id="Oval" stroke="#000000" stroke-width="0.8" fill="#FFD83D" cx="19.675" cy="2.825" r="1.225"></circle>
                        <circle id="Oval" stroke="#000000" stroke-width="0.8" fill="#FFD83D" cx="16.85" cy="2.125" r="1.225"></circle>
                        <circle id="Oval" stroke="#000000" stroke-width="0.8" fill="#FFD83D" cx="14.025" cy="1.65" r="1.225"></circle>
                        <circle id="Oval" stroke="#000000" stroke-width="0.8" fill="#FFD83D" cx="11.2" cy="1.375" r="1.225"></circle>
                        <circle id="Oval" stroke="#000000" stroke-width="0.8" fill="#FFD83D" cx="8.45" cy="1.525" r="1.225"></circle>
                        <circle id="Oval" stroke="#000000" stroke-width="0.8" fill="#FFD83D" cx="5.8" cy="2.425" r="1.225"></circle>
                        <circle id="Oval" stroke="#000000" stroke-width="0.8" fill="#FFD83D" cx="3.575" cy="4.075" r="1.225"></circle>
                        <circle id="Oval" stroke="#000000" stroke-width="0.8" fill="#FFD83D" cx="2" cy="6.35" r="1.225"></circle>
                        <circle id="Oval" stroke="#000000" stroke-width="0.8" fill="#FFD83D" cx="1.225" cy="9.05" r="1.225"></circle>
                        <circle id="Oval" stroke="#000000" stroke-width="0.8" fill="#FFD83D" cx="1.25" cy="11.825" r="1.225"></circle>
                        <circle id="Oval" stroke="#000000" stroke-width="0.8" fill="#FFD83D" cx="1.8" cy="14.55" r="1.225"></circle>
                        <path d="M23,5.125 L22.875,6.75 C19.8,6.25 15.45,4.55 11.375,4.55 C7.625,4.55 4.725,6.05 4.725,9.85 C4.725,13.575 6.3,16.975 8.4,20.425 L6.225,21.425 C4.275,17.675 2.65,14.425 2.65,10.075 C2.65,6.425 5.525,2.825 10.475,2.825 C14.85,2.825 19.325,4.325 23,5.125 Z" id="Path" stroke="#000000" stroke-width="0.8" fill="#FFD83D"></path>
                    </g>
                    <g id="a-link" transform="translate(38.125000, 23.125000) scale(-1, 1) translate(-38.125000, -23.125000) translate(25.750000, 11.500000)">
                        <g id="a">
                            <path d="M23.35,5.825 L22.875,21.45 L7.025,21.45 C5.075,17.65 3.475,14.45 3.475,10.075 C3.475,6.425 6.35,3.525 10.475,3.525 C14.85,3.525 19.675,5 23.35,5.825 Z" id="Path" fill="#FFD83D"></path>
                            <g id="Group" transform="translate(4.250000, 4.000000)" stroke="#000000" stroke-width="0.6">
                                <path d="M1.125,2.55 L1.125,11.55 M2.375,1.625 L2.375,13.625 M3.675,1 L3.675,15.3 M4.925,0.7 L4.925,11.925 M6.2,0.65 L6.2,11.975 M7.475,0.225 L7.475,11.975 M8.75,0.225 L8.75,11.975 M10.025,0.35 L10.025,12.1 M11.3,0.475 L11.3,12.2 M12.575,1.2 L12.575,12.95 M13.825,1.325 L13.825,14.55 M15.125,1.325 L15.125,13.075 M16.375,1.325 L16.375,13.075" id="Shape" fill="#FFD83D" fill-rule="nonzero"></path>
                                <path d="M9.1,0.75 C11.8,1.175 17.7,3.95 17.025,7.675 C16.075,12.975 12.975,10.85 8.875,10.1 L5.775,11.125 C4.65,12.25 3.025,13.3 1.925,11.925 L0.075,11.925 L0.075,19.125 L20.425,19.125 L20.425,1.75 L9.1,0.75 Z" id="Path" fill="#000000"></path>
                            </g>
                            <circle id="Oval" stroke="#000000" stroke-width="0.8" fill="#FFD83D" cx="22.45" cy="3.5" r="1.225"></circle>
                            <circle id="Oval" stroke="#000000" stroke-width="0.8" fill="#FFD83D" cx="19.675" cy="2.825" r="1.225"></circle>
                            <circle id="Oval" stroke="#000000" stroke-width="0.8" fill="#FFD83D" cx="16.85" cy="2.125" r="1.225"></circle>
                            <circle id="Oval" stroke="#000000" stroke-width="0.8" fill="#FFD83D" cx="14.025" cy="1.65" r="1.225"></circle>
                            <circle id="Oval" stroke="#000000" stroke-width="0.8" fill="#FFD83D" cx="11.2" cy="1.375" r="1.225"></circle>
                            <circle id="Oval" stroke="#000000" stroke-width="0.8" fill="#FFD83D" cx="8.45" cy="1.525" r="1.225"></circle>
                            <circle id="Oval" stroke="#000000" stroke-width="0.8" fill="#FFD83D" cx="5.8" cy="2.425" r="1.225"></circle>
                            <circle id="Oval" stroke="#000000" stroke-width="0.8" fill="#FFD83D" cx="3.575" cy="4.075" r="1.225"></circle>
                            <circle id="Oval" stroke="#000000" stroke-width="0.8" fill="#FFD83D" cx="2" cy="6.35" r="1.225"></circle>
                            <circle id="Oval" stroke="#000000" stroke-width="0.8" fill="#FFD83D" cx="1.225" cy="9.05" r="1.225"></circle>
                            <circle id="Oval" stroke="#000000" stroke-width="0.8" fill="#FFD83D" cx="1.25" cy="11.825" r="1.225"></circle>
                            <circle id="Oval" stroke="#000000" stroke-width="0.8" fill="#FFD83D" cx="1.8" cy="14.55" r="1.225"></circle>
                            <path d="M23,5.125 L22.875,6.75 C19.8,6.25 15.45,4.55 11.375,4.55 C7.625,4.55 4.725,6.05 4.725,9.85 C4.725,13.575 6.3,16.975 8.4,20.425 L6.225,21.425 C4.275,17.675 2.65,14.425 2.65,10.075 C2.65,6.425 5.525,2.825 10.475,2.825 C14.85,2.825 19.325,4.325 23,5.125 Z" id="Path" stroke="#000000" stroke-width="0.8" fill="#FFD83D"></path>
                        </g>
                    </g>
                    <path d="M25.75,0.025 L24.45,2.45 L25.75,4.85 L27.025,2.45 L25.75,0 L25.75,0.025 Z M25.75,6.125 L24.45,8.525 L25.75,10.95 L27,8.5 L25.725,6.1 L25.75,6.125 Z M21.15,5.5 L23.175,6.775 L25.2,5.5 L23.2,4.2 L21.15,5.5 Z M26.275,5.5 L28.3,6.775 L30.35,5.5 L28.3,4.2 L26.3,5.5 L26.275,5.5 Z" id="Shape" stroke="#000000" stroke-width="0.8" fill="#FFD83D" fill-rule="nonzero"></path>
                    <circle id="Oval" stroke="#000000" stroke-width="0.8" fill="#FFD83D" cx="25.75" cy="5.525" r="1"></circle>
                    <circle id="Oval" stroke="#000000" stroke-width="0.8" fill="#FFD83D" cx="25.75" cy="11.75" r="2.625"></circle>
                    <path d="M25.075,9.225 L25.075,10.875 C24.4549077,10.9048555 23.8371459,10.9716405 23.225,11.075 M28.275,11.075 C27.6546297,10.9704042 27.028475,10.9036144 26.4,10.875 L26.4,9.225 M23.2,12.4 C24.0422526,12.2541303 24.8952179,12.1788686 25.75,12.175 C26.6,12.175 27.45,12.25 28.25,12.4" id="Shape" stroke="#000000" stroke-width="0.6"></path>
                    <path d="M23.2,16.175 C22.95,20.425 22.45,24.8 20.775,27.95 L23.475,26.85 C24.425,23.275 24.625,18.65 24.9,16.45 L23.2,16.175 Z M28.3,16.175 L26.575,16.45 C26.875,18.65 27.075,23.275 28,26.85 L30.7,27.95 C29.05,24.8 28.55,20.45 28.3,16.175 Z" id="Shape" stroke="#000000" stroke-width="0.8" fill="#FFD83D" fill-rule="nonzero"></path>
                    <path d="M25.75,25.425 C22.5,25.425 20.125,26.925 20,30.825 C19.2,29.425 15.875,25.075 12.75,25.65 C10.9,26 9.25,28.575 9.55,31.5 C8,27.1 3.525,26.375 0.225,29 C3.15,31.375 4.45,38.45 6.9,41.5 L44.575,41.5 C47.025,38.45 48.325,31.375 51.25,29 C47.975,26.375 43.475,27.1 41.95,31.5 C42.2,28.575 40.575,26 38.7,25.65 C35.6,25.075 32.275,29.425 31.475,30.825 C31.35,26.95 28.975,25.425 25.725,25.425 L25.75,25.425 Z" id="Path" stroke="#000000" stroke-width="0.8" fill="#FFD83D"></path>
                    <g transform="translate(2.250000, 14.250000)">
                        <path d="M42.275,27.25 C42.275,28.65 33.875,30.175 23.5,30.175 C13.125,30.175 4.7,28.675 4.7,27.25 C4.7,25.875 13.125,25.125 23.5,25.125 C33.85,25.125 42.275,25.875 42.275,27.25 Z" id="Path" stroke="#000000" stroke-width="0.6" fill="#000000"></path>
                        <circle id="Oval" stroke="#000000" stroke-width="0.6" fill="#FFD83D" cx="23.5" cy="1.1" r="1"></circle>
                        <circle id="Oval" stroke="#000000" stroke-width="0.6" fill="#FFD83D" cx="23.5" cy="3" r="1"></circle>
                        <circle id="Oval" stroke="#000000" stroke-width="0.6" fill="#FFD83D" cx="23.5" cy="5.05" r="1.025"></circle>
                        <circle id="Oval" stroke="#000000" stroke-width="0.6" fill="#FFD83D" cx="23.5" cy="7.325" r="1.175"></circle>
                        <circle id="Oval" stroke="#000000" stroke-width="0.6" fill="#FFD83D" cx="23.5" cy="9.85" r="1.275"></circle>
                        <path d="M23,12.3 C22.85,12.3 22.725,12.425 22.75,12.65 L22.9,13.725 C22.95,14.1 23.15,13.975 23.225,13.725 C23.275,13.425 23.25,13.225 23.275,12.7 C23.275,12.425 23.125,12.3 22.975,12.3 L23,12.3 Z M24,12.3 C23.85,12.3 23.725,12.425 23.725,12.7 C23.725,13.225 23.725,13.425 23.775,13.7 C23.825,14 24.025,14.1 24.1,13.7 L24.225,12.65 C24.275,12.4 24.125,12.3 24,12.3 Z M22.075,12.45 C21.9369288,12.45 21.825,12.5619288 21.825,12.7 C21.825,12.95 21.9,13.275 21.925,13.65 C21.975,14.025 22.25,13.9 22.275,13.65 C22.275,13.45 22.325,13.1 22.275,12.675 C22.275,12.525 22.225,12.45 22.125,12.425 C22.108399,12.4229085 22.091601,12.4229085 22.075,12.425 L22.075,12.45 Z M24.85,12.45 C24.775,12.45 24.7,12.525 24.675,12.7 C24.6615866,13.0175353 24.6783283,13.3356271 24.725,13.65 C24.725,13.9 25.025,14.025 25.05,13.65 C25.05,13.275 25.15,12.975 25.15,12.725 C25.15,12.575 25.025,12.475 24.9,12.45 C24.883399,12.4479085 24.866601,12.4479085 24.85,12.45 Z M21,12.875 C20.875,12.9 20.75,13.05 20.8,13.2 C20.875,13.525 20.95,13.875 20.95,14.2 C20.95,14.475 21.175,14.375 21.2,14.2 C21.2194859,13.8670389 21.2278239,13.5335189 21.225,13.2 C21.225,12.95 21.1,12.85 20.975,12.875 L21,12.875 Z M25.9,12.875 C25.825,12.9 25.75,13 25.75,13.2 L25.8,14.2 C25.8,14.375 26.05,14.475 26.05,14.2 C26.05,13.875 26.1,13.525 26.175,13.2 C26.225,13.05 26.1,12.9 26,12.875 C25.9754033,12.8686492 25.9495967,12.8686492 25.925,12.875 L25.9,12.875 Z M11.15,12.925 C11,12.925 10.9,13.1 11,13.3 C11.15,13.65 11.325,13.85 11.475,14.2 C11.6,14.525 11.825,14.325 11.75,14.1 L11.4,13.175 C11.325,13 11.225,12.925 11.15,12.925 Z M35.85,12.925 C35.75,12.925 35.675,13 35.6,13.175 C35.375,13.65 35.3,13.875 35.225,14.1 C35.175,14.35 35.375,14.525 35.525,14.2 L35.975,13.3 C36.075,13.1 35.975,12.925 35.85,12.925 Z M12.15,12.925 C12.025,12.975 11.975,13.1 12.025,13.25 C12.175,13.55 12.35,13.875 12.475,14.2 C12.575,14.475 12.825,14.4 12.725,14.15 L12.475,13.225 C12.375,12.975 12.225,12.9 12.15,12.925 Z M34.775,12.925 C34.675,12.95 34.575,13.05 34.525,13.225 C34.35,13.725 34.325,13.875 34.25,14.15 C34.15,14.4 34.4,14.475 34.5,14.2 L34.95,13.25 C35,13.1 34.95,12.975 34.85,12.925 C34.8254033,12.9186492 34.7995967,12.9186492 34.775,12.925 Z M13.4,13.175 C13.25,13.2 13.15,13.4 13.25,13.65 C13.35,13.95 13.5,14.225 13.65,14.575 C13.8,14.925 14.025,14.85 13.975,14.625 C13.9,14.4 13.85,14.05 13.675,13.5 C13.6,13.25 13.5,13.15 13.4,13.175 Z M33.6,13.175 C33.5,13.175 33.375,13.25 33.3,13.5 C33.15,14.05 33.05,14.4 33.025,14.625 C32.95,14.875 33.2,14.925 33.325,14.575 C33.475,14.225 33.625,13.95 33.725,13.65 C33.825,13.4 33.725,13.2 33.6,13.175 Z M10.3,13.35 C10.15,13.35 10.05,13.6 10.125,13.775 C10.25,14.025 10.35,14.125 10.475,14.425 C10.625,14.725 10.775,14.5 10.725,14.3 C10.65,14.1 10.575,13.875 10.525,13.6 C10.475,13.4 10.375,13.35 10.275,13.35 L10.3,13.35 Z M36.7,13.35 C36.6,13.35 36.525,13.4 36.45,13.6 L36.275,14.3 C36.225,14.5 36.375,14.725 36.525,14.425 C36.65,14.125 36.725,14.05 36.875,13.775 C36.95,13.6 36.825,13.375 36.7,13.35 Z M19.95,14.05 C19.775,14.05 19.625,14.25 19.7,14.425 C19.75,14.725 19.9,14.975 19.975,15.35 C20.075,15.675 20.3,15.525 20.275,15.3 C20.2568233,14.9641489 20.2150537,14.6299915 20.15,14.3 C20.1,14.125 20.025,14.05 19.925,14.05 L19.95,14.05 Z M27.05,14.05 C26.975,14.05 26.875,14.125 26.85,14.3 C26.7765443,14.6293908 26.7264199,14.9635538 26.7,15.3 C26.7,15.525 26.925,15.675 27,15.35 L27.3,14.425 C27.35,14.25 27.2,14.05 27.05,14.05 Z M23.5,14.35 C23.3,14.35 23.275,14.6 23.275,14.775 C23.2597255,15.3443464 23.0866264,15.8982636 22.775,16.375 C22.525,16.675 22.2,16.6 21.9,16.425 C21.6092103,16.2665338 21.3331187,16.0824727 21.075,15.875 C20.725,15.625 20.475,15.775 20.875,16.35 C22.025,18 23.275,19.4 23.275,22.1 C23.275,22.425 23.35,22.525 23.5,22.525 C23.65,22.525 23.7,22.425 23.7,22.075 C23.7,19.4 24.95,18 26.1,16.325 C26.5,15.775 26.25,15.625 25.925,15.875 C25.6679669,16.0839495 25.3917353,16.2681039 25.1,16.425 C24.775,16.6 24.45,16.675 24.225,16.375 C23.9133736,15.8982636 23.7402745,15.3443464 23.725,14.775 C23.7,14.6 23.675,14.35 23.475,14.35 L23.5,14.35 Z M14.675,13.95 C14.6584507,13.9472027 14.6415493,13.9472027 14.625,13.95 C14.55,13.975 14.525,14.05 14.55,14.2 L14.825,15.175 C14.9,15.425 15.175,15.35 15.125,15.05 L14.975,14.275 C14.925,14.075 14.775,13.95 14.675,13.95 Z M32.325,13.95 C32.2,13.95 32.075,14.075 32.025,14.275 C31.925,14.625 31.925,14.725 31.875,15.025 C31.8,15.35 32.1,15.4 32.15,15.175 L32.45,14.175 C32.45,14.05 32.425,13.975 32.35,13.95 C32.3334507,13.9472027 32.3165493,13.9472027 32.3,13.95 L32.325,13.95 Z M9.425,14.05 C9.275,14.05 9.175,14.25 9.325,14.5 C9.475,14.8 9.75,15.15 9.875,15.375 C10,15.575 10.225,15.425 10.075,15.175 C9.925,14.925 9.875,14.6 9.675,14.225 C9.64106313,14.1166727 9.53840002,14.0448085 9.425,14.05 Z M37.55,14.05 C37.475,14.05 37.375,14.1 37.3,14.225 C37.125,14.6 37.05,14.9 36.925,15.175 C36.775,15.425 36.975,15.575 37.1,15.375 C37.225,15.15 37.5,14.8 37.65,14.5 C37.8,14.25 37.7,14.05 37.55,14.05 Z M1.5,14.875 C1.35,14.875 1.3,15.175 1.45,15.375 C1.64413262,15.6206615 1.86183647,15.8467386 2.1,16.05 C2.3,16.25 2.35,16 2.25,15.8 L1.8,15.125 C1.675,14.95 1.575,14.875 1.5,14.875 Z M45.475,14.875 C45.4,14.875 45.3,14.95 45.2,15.125 L44.725,15.8 C44.625,16 44.675,16.25 44.9,16.05 C45.1383854,15.8469743 45.3561113,15.6208743 45.55,15.375 C45.7,15.175 45.65,14.875 45.475,14.875 Z M2.775,15.125 C2.625,15.125 2.525,15.225 2.65,15.45 L3.125,16.4 C3.25,16.65 3.625,16.725 3.475,16.35 L3.15,15.4 C3.075,15.225 2.9,15.15 2.775,15.15 L2.775,15.125 Z M44.225,15.125 C44.075,15.125 43.9,15.225 43.825,15.4 L43.525,16.35 C43.375,16.725 43.75,16.65 43.875,16.4 C44,16.15 44.2,15.775 44.325,15.45 C44.45,15.225 44.35,15.125 44.225,15.125 Z M0.325,15.225 C0.125,15.225 0.125,15.4 0.3,15.525 C0.525,15.7 0.8,15.875 1.05,16.1 C1.375,16.35 1.475,16.1 1.3,15.9 C1.15,15.7 1,15.5 0.575,15.275 C0.475,15.225 0.4,15.225 0.325,15.225 Z M46.65,15.225 C46.6,15.225 46.5,15.225 46.4,15.275 C46,15.5 45.825,15.7 45.65,15.9 C45.5,16.125 45.625,16.35 45.925,16.1 C46.175,15.875 46.475,15.7 46.675,15.525 C46.875,15.4 46.85,15.225 46.675,15.225 L46.65,15.225 Z M19.25,15.4 C19.125,15.4 19.05,15.525 19.075,15.7 L19.325,16.6 C19.375,16.875 19.7,16.875 19.65,16.6 C19.6,16.35 19.575,16.025 19.475,15.625 C19.45,15.475 19.375,15.4 19.275,15.375 C19.2666812,15.3743043 19.2583188,15.3743043 19.25,15.375 L19.25,15.4 Z M27.7,15.4 C27.625,15.4 27.55,15.475 27.5,15.65 C27.4,16.025 27.375,16.35 27.325,16.625 C27.275,16.875 27.6,16.875 27.65,16.6 L27.9,15.7 C27.95,15.525 27.85,15.4 27.75,15.4 C27.7334507,15.3972027 27.7165493,15.3972027 27.7,15.4 Z M11.7,14.9 C11.625,14.9 11.575,15.075 11.65,15.325 C11.9151647,16.0454918 12.0505906,16.8072628 12.05,17.575 C11.975,17.875 11.8,17.9 11.575,17.825 C11.3297457,17.7039696 11.0955236,17.5617633 10.875,17.4 C10.675,17.275 10.45,17.425 10.75,17.675 C12.25,18.925 13.325,20.35 13.75,22.075 C13.8,22.425 14.025,22.475 13.975,22.075 C13.625,19.9 13.55,18.1 14.075,17 C14.275,16.575 14.075,16.175 13.775,16.85 C13.55,17.3 13.225,17.475 12.95,17.1 C12.5591152,16.4899082 12.2244089,15.8455987 11.95,15.175 C11.9,15 11.825,14.925 11.75,14.9 C11.7417254,14.8986013 11.7332746,14.8986013 11.725,14.9 L11.7,14.9 Z M35.225,14.9 C35.15,14.9 35.075,15 35.025,15.15 C34.85,15.65 34.3,16.7 34.025,17.1 C33.75,17.5 33.425,17.3 33.225,16.85 C32.9,16.175 32.725,16.575 32.9,17 C33.425,18.1 33.35,19.9 33.025,22.075 C32.95,22.475 33.175,22.425 33.275,22.075 C33.7373833,20.3191495 34.7763041,18.7695727 36.225,17.675 C36.525,17.425 36.3,17.275 36.1,17.425 C35.8781736,17.5703843 35.6439284,17.6958727 35.4,17.8 C35.15,17.9 35,17.875 34.925,17.55 C34.875,17.25 34.975,16.575 35.35,15.3 C35.4,15.1 35.35,14.925 35.275,14.9 C35.258824,14.8942809 35.241176,14.8942809 35.225,14.9 Z M4.1,15.5 C3.975,15.5 3.85,15.6 3.925,15.8 C4.025,16.15 4.225,16.5 4.3,16.7 C4.375,16.925 4.6,16.825 4.55,16.525 L4.425,15.75 C4.425,15.6 4.25,15.5 4.1,15.5 Z M42.875,15.5 C42.725,15.5 42.575,15.6 42.55,15.75 L42.45,16.525 C42.4,16.825 42.625,16.925 42.7,16.7 C42.75,16.5 42.95,16.15 43.05,15.8 C43.125,15.6 43.025,15.5 42.875,15.5 Z M8.8,15.075 C8.65,15.05 8.625,15.45 8.75,15.625 L9.45,16.4 C9.65,16.65 9.775,16.425 9.65,16.225 L9,15.275 C8.925,15.15 8.85,15.075 8.8,15.075 Z M38.175,15.075 C38.125,15.075 38.05,15.15 37.975,15.275 L37.325,16.225 C37.2,16.425 37.325,16.65 37.55,16.4 L38.225,15.625 C38.35,15.45 38.35,15.05 38.175,15.075 Z M5.175,16.075 C5.075,16.075 5,16.125 5.05,16.325 C5.1,16.625 5.175,16.825 5.25,17.1 C5.325,17.35 5.5,17.325 5.5,17.075 L5.425,16.275 C5.40259007,16.1518412 5.29983076,16.0593578 5.175,16.05 L5.175,16.075 Z M41.8,16.075 C41.6793098,16.0725661 41.5741184,16.1567192 41.55,16.275 L41.475,17.075 C41.475,17.325 41.675,17.375 41.725,17.1 L41.95,16.35 C42,16.125 41.9,16.05 41.8,16.05 L41.8,16.075 Z M8.45,16.425 C8.3,16.425 8.175,16.6 8.35,16.825 C8.625,17.2 8.95,17.45 9.075,17.575 C9.175,17.725 9.45,17.675 9.275,17.4 L8.7,16.525 C8.65,16.425 8.55,16.4 8.45,16.425 Z M38.45,16.425 C38.4,16.425 38.325,16.45 38.3,16.525 L37.7,17.4 C37.525,17.675 37.8,17.725 37.925,17.6 C38.025,17.45 38.35,17.2 38.65,16.825 C38.825,16.575 38.675,16.425 38.525,16.425 C38.5083851,16.4231424 38.4916149,16.4231424 38.475,16.425 L38.45,16.425 Z M3.275,17.45 C3.175,17.45 3.125,17.55 3.275,17.775 C3.66109306,18.2433059 3.94240265,18.788876 4.1,19.375 C4.125,19.725 3.975,19.725 3.825,19.725 C3.35,19.725 3.125,19.375 2.725,19.275 C2.3,19.2 2.225,19.4 2.525,19.625 C3.95796225,20.5312026 5.20519028,21.7020697 6.2,23.075 C6.45,23.55 6.775,23.7 6.6,23.275 C6.11426863,22.3001086 5.90666506,21.2101898 6,20.125 C6.125,19.425 6.3,18.975 6.275,18.575 C6.275,18.2 6.025,18.225 5.95,18.575 L5.7,19.275 C5.6,19.4 5.25,19.475 4.95,19.05 C4.52482215,18.528261 4.05650396,18.0432172 3.55,17.6 C3.475,17.525 3.375,17.475 3.3,17.45 L3.275,17.45 Z M43.7,17.45 C43.625,17.45 43.525,17.5 43.425,17.6 C42.9273119,18.0444309 42.4673976,18.5294315 42.05,19.05 C41.725,19.475 41.375,19.4 41.3,19.3 C41.1859939,19.0700236 41.1019742,18.8263667 41.05,18.575 C40.95,18.225 40.725,18.2 40.7,18.575 C40.7,18.975 40.85,19.425 40.975,20.125 C41.1,20.825 40.975,21.925 40.4,23.275 C40.2,23.7 40.55,23.525 40.8,23.075 C41.7855916,21.7028176 43.0245112,20.531784 44.45,19.625 C44.75,19.4 44.7,19.2 44.275,19.275 C43.85,19.375 43.625,19.725 43.175,19.725 C43.025,19.725 42.85,19.725 42.875,19.375 C42.9,19.05 43.325,18.275 43.7,17.775 C43.85,17.525 43.825,17.45 43.7,17.45 Z" id="Shape" fill="#000000" fill-rule="nonzero"></path>
                        <path d="M5.525,25.675 L6.025,27.2 M6.525,25.375 L6.975,26.925 M7.625,25.175 L7.925,26.775 M8.625,25 L8.95,26.575 M9.9,24.875 L10.15,26.475 M11.275,24.875 L11.55,26.45 M12.625,24.425 L12.825,26.025 M13.875,24.5 L14.075,26.1 M15.1,24.35 L15.3,25.95 M16.3,24.2 L16.425,25.825 M17.625,24.2 L17.725,25.825 M18.825,24.125 L18.9,25.75 M20.125,24.05 L20.2,25.65 M21.625,24 L21.7,25.625 M41.45,25.675 L40.95,27.2 M40.45,25.375 L40.025,26.925 M39.375,25.175 L39.075,26.775 M38.375,25 L38.05,26.575 M37.05,24.875 L36.8,26.475 M35.7,24.875 L35.425,26.475 M34.375,24.425 L34.175,26.025 M33.1,24.5 L32.9,26.1 M31.9,24.35 L31.675,25.95 M30.675,24.2 L30.55,25.825 M29.35,24.2 L29.25,25.825 M28.175,24.125 L28.1,25.75 M26.85,24.05 L26.8,25.65 M25.35,24 L25.3,25.625 M23.5,23.875 L23.5,25.675" id="Shape" stroke="#000000" stroke-width="0.6" fill="#FFD83D" fill-rule="nonzero"></path>
                    </g>
                </g>
            </g>
        </g>
    </g>
</svg>