<?xml version="1.0" encoding="UTF-8"?>
<svg width="200px" height="150px" viewBox="0 0 200 150" version="1.1" xmlns="http://www.w3.org/2000/svg" xmlns:xlink="http://www.w3.org/1999/xlink">
    <!-- Generator: Sketch 52.5 (67469) - http://www.bohemiancoding.com/sketch -->
    <title>mh</title>
    <desc>Created with Sketch.</desc>
    <g id="Flags" stroke="none" stroke-width="1" fill="none" fill-rule="evenodd">
        <g id="Oceania" transform="translate(-290.000000, -250.000000)">
            <g id="mh" transform="translate(290.000000, 250.000000)">
                <polygon id="Path" fill="#3B5AA3" points="0 0 199.96875 0 199.96875 150 0 150"></polygon>
                <polygon id="Path" fill="#E2AE57" points="0 145.9375 199.96875 0 199.96875 27.1875 0 150"></polygon>
                <path d="M7,150 L200,56 L199.96875,26.15625 L0,150 L7,150 Z M54.8125,4.75 L52.8125,36.875 L44.375,16.375 L47.625,38.1875 L34.53125,20.5625 L43.125,40.65625 L25.9375,27.34375 L39.3125,44.09375 L19.90625,35.46875 L36.90625,48.34375 L15.75,45.53125 L35.75,53.46875 L4.375,56.34375 L35.8125,58.4375 L15.90625,66.625 L36.84375,63.8125 L19.875,76.3125 L39.5625,67.6875 L26.125,84.5625 L43.1875,71.65625 L34.75,91.3125 L48.375,74.21875 L44.6875,95.5 L53.28125,75.59375 L55.21875,107.0625 L58.25,75.6875 L65.65625,95.6875 L62.84375,74.125 L76.40625,91.25 L67.46875,71.25 L84.53125,85 L70.96875,67.84375 L91.25,76.28125 L73.3125,63.1875 L95.15625,66.875 L74.21875,58.84375 L106.75,56.8125 L74.25,53.78125 L95.65625,46.65625 L73.46875,49.46875 L91.78125,36.65625 L71.15625,44.9375 L85.40625,27.65625 L68.03125,41.21875 L76.375,20.46875 L62.90625,38.09375 L65.8125,16.09375 L57.78125,36.875 L54.78125,4.75 L54.8125,4.75 Z" id="Shape" fill="#FFFFFF" fill-rule="nonzero"></path>
            </g>
        </g>
    </g>
</svg>