<?xml version="1.0" encoding="UTF-8"?>
<svg width="200px" height="150px" viewBox="0 0 200 150" version="1.1" xmlns="http://www.w3.org/2000/svg" xmlns:xlink="http://www.w3.org/1999/xlink">
    <!-- Generator: Sketch 52.5 (67469) - http://www.bohemiancoding.com/sketch -->
    <title>mr</title>
    <desc>Created with Sketch.</desc>
    <g id="Flags" stroke="none" stroke-width="1" fill="none" fill-rule="evenodd">
        <g id="Africa" transform="translate(-290.000000, -1050.000000)">
            <g id="mr" transform="translate(290.000000, 1050.000000)">
                <polygon id="Path" fill="#CD2A3E" points="0 0 200 0 200 150 0 150"></polygon>
                <polygon id="Path" fill="#006233" points="0 22.5 200 22.5 200 127.5 0 127.5"></polygon>
                <path d="M146.875,48.3125 C146.875,74.2008476 125.888348,95.1875 100,95.1875 C74.1116524,95.1875 53.125,74.2008476 53.125,48.3125 C52.0833031,52.3123775 51.5581977,56.4292042 51.5625,60.5625 C51.5625,87.3137926 73.2487074,109 100,109 C126.751293,109 148.4375,87.3137926 148.4375,60.5625 C148.443524,56.4290959 147.918391,52.3120502 146.875,48.3125 Z" id="Path" fill="#FFC400"></path>
                <polygon id="Path" fill="#FFC400" points="100 29.3125 95.78125 42.28125 82.1875 42.28125 93.21875 50.28125 89 63.21875 100.03125 55.21875 111.0625 63.21875 106.84375 50.28125 117.875 42.28125 104.25 42.28125"></polygon>
            </g>
        </g>
    </g>
</svg>