<?xml version="1.0" encoding="UTF-8"?>
<svg width="200px" height="150px" viewBox="0 0 200 150" version="1.1" xmlns="http://www.w3.org/2000/svg" xmlns:xlink="http://www.w3.org/1999/xlink">
    <!-- Generator: Sketch 52.5 (67469) - http://www.bohemiancoding.com/sketch -->
    <title>md</title>
    <desc>Created with Sketch.</desc>
    <g id="Flags" stroke="none" stroke-width="1" fill="none" fill-rule="evenodd">
        <g id="Europe" transform="translate(-950.000000, -1246.000000)">
            <g id="md" transform="translate(950.000000, 1246.000000)">
                <g id="Group">
                    <polygon id="Path" fill="#00319C" points="0 0 66.65625 0 66.65625 150 0 150"></polygon>
                    <polygon id="Path" fill="#FFDE00" points="66.65625 0 133.34375 0 133.34375 150 66.65625 150"></polygon>
                    <polygon id="Path" fill="#DE2110" points="133.34375 0 200 0 200 150 133.34375 150"></polygon>
                </g>
                <path d="M112.625,100.125 L120.1875,111.0625 C120.625,111.6875 121.03125,112.28125 120.40625,112.6875 C119.78125,113.09375 119.96875,114.6875 120.40625,115.3125 C121.25,116.53125 122.28125,116.71875 122.90625,116.3125 L128.65625,112.6875 C129.28125,112.3125 129.5,111.28125 128.65625,110.0625 C128.1875,109.4375 126.78125,108.65625 126.15625,109.0625 C125.5,109.46875 125.0625,108.84375 124.65625,108.25 L117.0625,97.3125" id="Path" stroke="#000000" stroke-width="0.35" fill="#FF1900"></path>
                <path d="M116.584423,95.2302347 C116.584423,100.348866 114.554858,104.523487 112.081326,104.523487 C109.607794,104.523487 107.578229,100.348866 107.578229,95.2302347 C107.578229,90.1116038 109.628935,85.9369828 112.102468,85.9369828 C114.576,85.9369828 116.605565,90.0906258 116.605565,95.2302347 L116.584423,95.2302347 Z" id="Path" stroke="#000000" stroke-width="0.85" fill="#A77B3B" transform="translate(112.091897, 95.230235) rotate(-40.291601) translate(-112.091897, -95.230235) "></path>
                <path d="M81.875,95.65625 L75.15625,107.125 C74.78125,107.75 74.40625,108.375 73.75,108.0625 C73.09375,107.6875 71.6875,108.59375 71.3125,109.25 C70.5625,110.5 70.84375,111.5 71.53125,111.875 L77.53125,115.0625 C78.15625,115.40625 79.21875,115.125 79.96875,113.875 C80.3125,113.1875 80.40625,111.59375 79.75,111.25 C79.09375,110.90625 79.4375,110.25 79.84375,109.625 L86.53125,98.15625" id="Path" stroke="#000000" stroke-width="0.35" fill="#FF1900"></path>
                <path d="M103.5,87.6875 L97.375,87.6875 C97.1875,87.875 95.4375,98.8125 93.5625,103 C91.28125,108.09375 84.4375,112.59375 84.4375,112.59375 C84.4375,112.59375 88.53125,113.84375 89.75,114.65625 C90.0625,114.5625 96.625,113.1875 97.375,105.1875 C98.125,113.1875 92.8125,116.84375 92.8125,116.84375 C92.8125,116.84375 100.4375,119.03125 100.4375,124.125 C100.4375,119.03125 108.0625,116.84375 108.0625,116.84375 C108.0625,116.84375 104.25,113.1875 103.46875,105.1875 C105.03125,113.1875 110.8125,114.5625 111.125,114.65625 C112.34375,113.84375 116.4375,112.59375 116.4375,112.59375 C116.4375,112.59375 109.59375,108.09375 107.3125,103 C105.4375,98.8125 103.6875,87.875 103.5,87.6875 Z M77.5625,51.21875 L89,54.875 C92.78125,54.875 96.625,51.21875 96.625,47.5625 C96.75,39.4375 93.5625,36.625 92.8125,36.625 L94.3125,35.1875 L92.03125,33 C92.03125,33 92.8125,29.21875 100.4375,29.34375 C108.0625,29.5 108.0625,33 108.0625,36.625 C108.0625,40.25 104.25,40.28125 104.25,47.5625 C104.25,51.21875 108.0625,54.875 111.875,54.875 L123.3125,51.21875 L123.3125,87.6875 L77.53125,87.6875 L77.53125,51.21875 L77.5625,51.21875 Z" id="Shape" stroke="#000000" stroke-width="0.85" fill="#A77B3B"></path>
                <g id="Group" transform="translate(95.000000, 44.375000)" stroke="#000000" stroke-width="0.25">
                    <polyline id="Path" points="0.08837 8.30334563 0.84903 10.49583 1.6149 8.30334563 2.37556 10.49583 3.90209 8.30334563 4.64712 10.6127625 5.42862 8.30334563 6.55398 10.6127625 7.71581 8.30334563 8.47647 10.49583 9.24234 8.30334563"></polyline>
                    <path d="M3.14884844,0.294935625 L1.62001875,8.31955125 M3.90249688,0.294935625 L3.90249688,8.31955125 M5.43132656,0.294935625 L5.43132656,8.31955125 M6.96015625,0.294935625 L7.71380469,8.31955125 M8.48898594,0.294935625 L9.24263438,8.31955125" id="Shape"></path>
                </g>
                <g id="Group" transform="translate(62.187500, 29.062500)" stroke="#000000">
                    <path d="M7.68532812,0.298938125 C15.3079437,3.94087906 15.3079437,11.2453369 15.3079437,14.8872778 C15.04955,18.2000037 15.3079437,87.7878244 15.3079437,87.7878244 C15.3079437,87.7878244 14.8126891,83.6726369 11.4966359,80.5039425 L7.70686094,76.8620016 L3.89555312,73.2200606 C1.0962875,70.7921 0.0842453125,65.9156028 0.0842453125,62.2736619 L0.0842453125,11.2453369 C0.0842453125,11.2453369 0.0842453125,7.58282 7.70686094,0.298938125 L7.68532812,0.298938125 Z" id="Path" stroke-width="0.75" fill="#A77B3B" transform="translate(7.696095, 44.043381) scale(-1, 1) translate(-7.696095, -44.043381) "></path>
                    <path d="M0.0842453125,14.8871312 C0.170376562,14.8871312 3.89555312,11.2451903 3.89555312,11.2451903 L7.70686094,14.8871312 L11.5181687,11.2451903 L15.3294766,14.8871312" id="Path" stroke-width="0.85" transform="translate(7.706861, 13.066161) scale(-1, 1) translate(-7.706861, -13.066161) "></path>
                    <path d="M0.0842453125,22.1610597 C0.170376562,22.1610597 3.89555312,18.5191188 3.89555312,18.5191188 L7.70686094,22.1610597 L11.5181687,18.5191188 L15.3294766,22.1610597" id="Path" stroke-width="0.85" transform="translate(7.706861, 20.340089) rotate(-180.000000) translate(-7.706861, -20.340089) "></path>
                    <path d="M0.0842453125,29.4496312 C0.170376562,29.4496312 3.89555312,25.8076903 3.89555312,25.8076903 L7.70686094,29.4496312 L11.5181687,25.8076903 L15.3294766,29.4496312" id="Path" stroke-width="0.85" transform="translate(7.706861, 27.628661) scale(-1, 1) translate(-7.706861, -27.628661) "></path>
                    <path d="M11.5181688,11.2357094 L11.4751031,73.2227931" id="Path" stroke-width="1.25" transform="translate(11.496636, 42.229251) scale(-1, 1) translate(-11.496636, -42.229251) "></path>
                    <path d="M7.76816875,14.8795697 L7.72510313,76.7157931" id="Path" stroke-width="1.15" transform="translate(7.746636, 45.797681) scale(-1, 1) translate(-7.746636, -45.797681) "></path>
                    <path d="M3.95566875,11.2521469 L3.91260313,80.5228813" id="Path" stroke-width="1.25" transform="translate(3.934136, 45.887514) scale(-1, 1) translate(-3.934136, -45.887514) "></path>
                </g>
                <g id="Group" transform="translate(123.125000, 29.062500)" stroke="#000000">
                    <path d="M7.82438906,0.298938125 C15.4470047,3.94087906 15.4470047,11.2453369 15.4470047,14.8872778 C15.1886109,18.2000037 15.4470047,87.7878244 15.4470047,87.7878244 C15.4470047,87.7878244 14.95175,83.6726369 11.6356969,80.5039425 L7.84592188,76.8620016 L4.03461406,73.2200606 C1.23534844,70.7921 0.22330625,65.9156028 0.22330625,62.2736619 L0.22330625,11.2453369 C0.22330625,11.2453369 0.22330625,7.58282 7.84592188,0.298938125 L7.82438906,0.298938125 Z" id="Path" stroke-width="0.85" fill="#A77B3B"></path>
                    <path d="M0.201773438,14.8871312 C0.287904688,14.8871312 4.01308125,11.2451903 4.01308125,11.2451903 L7.82438906,14.8871312 L11.6356969,11.2451903 L15.4470047,14.8871312" id="Path" stroke-width="0.85"></path>
                    <path d="M0.201773438,22.1610597 C0.287904688,22.1610597 4.01308125,18.5191188 4.01308125,18.5191188 L7.82438906,22.1610597 L11.6356969,18.5191188 L15.4470047,22.1610597" id="Path" stroke-width="0.85" transform="translate(7.824389, 20.340089) scale(-1, 1) rotate(-180.000000) translate(-7.824389, -20.340089) "></path>
                    <path d="M0.201773438,29.4496312 C0.287904688,29.4496312 4.01308125,25.8076903 4.01308125,25.8076903 L7.82438906,29.4496312 L11.6356969,25.8076903 L15.4470047,29.4496312" id="Path" stroke-width="0.85"></path>
                    <path d="M4.05614688,11.2357094 L4.01308125,73.2227931" id="Path" stroke-width="1.25"></path>
                    <path d="M7.83739688,14.8795697 L7.79433125,76.7157931" id="Path" stroke-width="1.15"></path>
                    <path d="M11.6498969,11.2521469 L11.6068312,80.5228813" id="Path" stroke-width="1.25"></path>
                </g>
                <path d="M90.7207637,92.9651352 C90.7207637,98.0208732 88.6669464,102.1442 86.1638566,102.1442 C83.6607668,102.1442 81.6069496,98.0208732 81.6069496,92.9651352 C81.6069496,87.9093972 83.6821608,83.7860699 86.1852506,83.7860699 C88.6883403,83.7860699 90.7421576,87.8886769 90.7421576,92.9651352 L90.7207637,92.9651352 Z" id="Path" stroke="#000000" stroke-width="0.84" fill="#A77B3B" transform="translate(86.174554, 92.965135) rotate(23.277989) translate(-86.174554, -92.965135) "></path>
                <polygon id="Path" fill="#FF0000" points="77.53125 54.875 123.3125 54.875 123.3125 76.75 77.53125 76.75"></polygon>
                <path d="M77.53125,76.75 L123.3125,76.75 L123.3125,87.6875 C123.3125,94.96875 111.875,94.96875 100.4375,102.25 C88.96875,95 77.5,95 77.5,87.6875 L77.5,76.75 L77.53125,76.75 Z" id="Path" fill="#564DFF"></path>
                <path d="M77.5419469,54.8756006 L123.320706,54.8756006 L123.320706,87.7147969 C123.320706,94.9986787 111.886783,94.9986787 100.431327,102.303137 C88.9974031,94.9986787 77.5419469,94.9986787 77.5419469,87.6942209 L77.5419469,54.8961766 L77.5419469,54.8756006 Z" id="Path" stroke="#FFFF00" stroke-width="0.65"></path>
                <path d="M92.02822,56.3316197 C92.02822,56.3316197 84.4012187,61.6937869 84.4012187,66.8240766 C84.4012187,71.9543662 92.4050481,73.6741244 92.4050481,73.6741244 C92.4050481,73.6741244 89.737105,73.6741244 89.737105,80.5145106 C89.737105,83.9443653 97.7409344,82.2342688 97.7409344,83.9443653 C97.7409344,85.6544619 97.6354225,89.7896106 97.7409344,92.5045097 C97.7409344,94.2146063 92.4050481,92.5045097 92.4050481,94.2146063 C92.4050481,95.0648238 96.4144994,99.3448959 100.423951,99.3448959 C104.433402,99.3448959 108.42778,95.0648238 108.42778,94.2146063 C108.42778,92.5045097 103.091894,94.2146063 103.091894,92.5045097 L103.091894,83.9443653 C103.091894,82.2342688 111.095723,83.9443653 111.095723,80.5145106 C111.095723,73.6741244 108.42778,73.6741244 108.42778,73.6741244 C108.42778,73.6741244 116.446683,71.9640278 116.446683,66.8240766 C116.446683,61.6841253 108.804608,56.3316197 108.804608,56.3316197 C108.804608,56.3316197 113.100449,63.4038834 113.100449,66.8240766 C113.100449,68.5341731 111.095723,71.9640278 105.759837,71.9640278 C105.759837,71.9640278 104.403256,70.2442697 103.091894,71.9640278 C103.091894,71.9640278 101.554435,70.2442697 100.423951,71.9640278 C100.032049,72.5437216 99.3386856,70.2442697 97.7409344,71.9640278 C97.0777169,72.4181212 96.5350844,70.2442697 95.0729913,71.9640278 C92.4050481,71.9640278 87.0691619,70.2442697 87.0691619,66.8240766 C87.0691619,63.4038834 92.02822,56.3316197 92.02822,56.3316197 Z" id="Path" stroke="#000000" stroke-width="0.5" fill="#FFFF00"></path>
                <path d="M92.1848494,86.960675 C91.6422169,87.3084913 92.8782131,92.8832128 93.2399681,93.1247519 C93.7826006,93.4629066 96.9931763,93.4629066 97.5207356,93.1247519 C97.8975638,92.8832128 97.5207356,87.6466459 96.9931763,87.3084913 C96.4505437,86.960675 92.5616775,86.7287975 92.1697762,86.960675 L92.1848494,86.960675 Z" id="Path" stroke="#000000" stroke-width="0.5" fill="#FFFF00"></path>
                <path d="M103.337437,86.960675 C102.794805,87.3084913 104.030801,92.8832128 104.392556,93.1247519 C104.935188,93.4629066 108.145764,93.4629066 108.673323,93.1247519 C109.050152,92.8832128 108.673323,87.6466459 108.145764,87.3084913 C107.603132,86.960675 103.714265,86.7287975 103.322364,86.960675 L103.337437,86.960675 Z" id="Path" stroke="#000000" stroke-width="0.5" fill="#FFFF00" transform="translate(106.013794, 90.122853) scale(-1, 1) translate(-106.013794, -90.122853) "></path>
                <path d="M97.6732,84.9276469 C97.6732,85.9919548 96.4321333,86.8547469 94.9012,86.8547469 C93.3702667,86.8547469 92.1292,85.9919548 92.1292,84.9276469 C92.1292,83.8633389 93.3702667,83.0005469 94.9012,83.0005469 C96.4321333,83.0005469 97.6732,83.8633389 97.6732,84.9276469 Z" id="Path" stroke="#000000" stroke-width="0.6" fill="#FFFF00"></path>
                <path d="M108.705746,84.9283609 C108.705746,85.9926965 107.464657,86.8555109 105.933696,86.8555109 C104.402735,86.8555109 103.161646,85.9926965 103.161646,84.9283609 C103.161646,83.8640254 104.402735,83.0012109 105.933696,83.0012109 C107.464657,83.0012109 108.705746,83.8640254 108.705746,84.9283609 Z" id="Path" stroke="#000000" stroke-width="0.6" fill="#FFFF00"></path>
                <path d="M105.25,96.09375 C105.25,96.5625 104.625,96.9375 103.90625,96.9375 C103.15625,96.9375 102.5625,96.5625 102.5625,96.09375 C102.5625,95.625 103.1875,95.25 103.90625,95.25 C104.625,95.25 105.25,95.625 105.25,96.09375 Z M98.28125,96.09375 C98.28125,96.5625 97.6875,96.9375 96.96875,96.9375 C96.21875,96.9375 95.625,96.5625 95.625,96.09375 C95.625,95.625 96.21875,95.25 96.96875,95.25 C97.6875,95.25 98.28125,95.625 98.28125,96.09375 Z" id="Shape" fill="#000000" fill-rule="nonzero"></path>
                <polygon id="Path" stroke="#000000" stroke-width="0.36" fill="#FFFF00" points="100.433328 68.7510937 98.7947187 66.6834653 96.1057187 67.0247244 96.4838594 64.4552444 94.3200547 62.9095416 96.4838594 61.3437647 96.1057187 58.7742847 98.7947187 59.1356178 100.433328 57.0679894 102.071937 59.1356178 104.73993 58.7742847 104.382797 61.3437647 106.525594 62.9095416 104.382797 64.4753184 104.73993 67.0247244 102.05093 66.6834653"></polygon>
                <polygon id="Path" stroke="#000000" stroke-width="0.37" fill="#FFFF00" points="111.86525 76.7478222 116.451739 78.9494475 121.038228 76.7478222 116.451739 74.5667728 111.886783 76.7478222"></polygon>
                <polygon id="Path" stroke="#000000" stroke-width="0.37" fill="#FFFF00" points="79.05275 76.7478222 83.6392391 78.9494475 88.2257281 76.7478222 83.6392391 74.5667728 79.0742828 76.7478222"></polygon>
                <path d="M118.370893,92.2858846 C117.625408,90.8286656 115.367652,90.0792386 113.855381,90.0792386 C112.34311,90.0792386 110.83084,90.0792386 109.318569,92.3067021 C109.318569,89.3506291 111.555026,87.8725926 113.855381,87.8725926 C116.28942,88.0258788 118.225513,89.9270689 118.370893,92.3067021 L118.370893,92.2858846 Z" id="Path" stroke="#000000" stroke-width="0.37" fill="#FFFF00" transform="translate(113.844731, 90.089647) rotate(-30.438467) translate(-113.844731, -90.089647) "></path>
                <path d="M87.4409719,85.4988625 C87.4409719,86.3000087 86.7613118,86.9494661 85.9229086,86.9494661 C85.0845054,86.9494661 84.4048453,86.3000087 84.4048453,85.4988625 C84.4048453,84.6977163 85.0845054,84.0482589 85.9229086,84.0482589 C86.7613118,84.0482589 87.4409719,84.6977163 87.4409719,85.4988625 Z" id="Path" stroke="#000000" stroke-width="0.37" fill="#FFFF00"></path>
                <path d="M85.9097219,90.5926125 C85.9097219,91.3937587 85.2300618,92.0432161 84.3916586,92.0432161 C83.5532554,92.0432161 82.8735953,91.3937587 82.8735953,90.5926125 C82.8735953,89.7914663 83.5532554,89.1420089 84.3916586,89.1420089 C85.2300618,89.1420089 85.9097219,89.7914663 85.9097219,90.5926125 Z" id="Path" stroke="#000000" stroke-width="0.37" fill="#FFFF00"></path>
                <path d="M85.1597219,87.6863625 C85.1597219,88.4875087 84.4800618,89.1369661 83.6416586,89.1369661 C82.8032554,89.1369661 82.1235953,88.4875087 82.1235953,87.6863625 C82.1235953,86.8852163 82.8032554,86.2357589 83.6416586,86.2357589 C84.4800618,86.2357589 85.1597219,86.8852163 85.1597219,87.6863625 Z" id="Path" stroke="#000000" stroke-width="0.37" fill="#FFFF00"></path>
                <path d="M88.9722219,90.5926125 C88.9722219,91.3937587 88.2925618,92.0432161 87.4541586,92.0432161 C86.6157554,92.0432161 85.9360953,91.3937587 85.9360953,90.5926125 C85.9360953,89.7914663 86.6157554,89.1420089 87.4541586,89.1420089 C88.2925618,89.1420089 88.9722219,89.7914663 88.9722219,90.5926125 Z" id="Path" stroke="#000000" stroke-width="0.37" fill="#FFFF00"></path>
                <path d="M89.7222219,87.6863625 C89.7222219,88.4875087 89.0425618,89.1369661 88.2041586,89.1369661 C87.3657554,89.1369661 86.6860953,88.4875087 86.6860953,87.6863625 C86.6860953,86.8852163 87.3657554,86.2357589 88.2041586,86.2357589 C89.0425618,86.2357589 89.7222219,86.8852163 89.7222219,87.6863625 Z" id="Path" stroke="#000000" stroke-width="0.37" fill="#FFFF00"></path>
                <path d="M87.4409719,88.4051125 C87.4409719,89.2062587 86.7613118,89.8557161 85.9229086,89.8557161 C85.0845054,89.8557161 84.4048453,89.2062587 84.4048453,88.4051125 C84.4048453,87.6039663 85.0845054,86.9545089 85.9229086,86.9545089 C86.7613118,86.9545089 87.4409719,87.6039663 87.4409719,88.4051125 Z" id="Path" stroke="#000000" stroke-width="0.37" fill="#FFFF00"></path>
                <g id="Group" transform="translate(82.812500, 25.625000)">
                    <path d="M10.25,12 C6.375,12 5.875,12.625 4.125,13.21875 C4.125,11.53125 8.4375,9.5625 12.25,9.5625 C12.25,10.78125 11.25,12 10.25,12 Z" id="Path" fill="#DA4500"></path>
                    <path d="M16.09375,8.125 C16.09375,8.90625 15.40625,9.5625 14.5625,9.5625 C13.71875,9.5625 13.03125,8.90625 13.03125,8.09375 C13.03125,7.28125 13.71875,6.65625 14.5625,6.65625 C15.40625,6.65625 16.09375,7.28125 16.09375,8.09375 L16.09375,8.125 Z" id="Path" fill="#CAC9C7"></path>
                    <polygon id="Path" stroke="#000000" stroke-width="0.37" fill="#FFFF00" points="0.069584375 3.01628031 0.069584375 5.19732969 3.88089219 5.19732969 3.88089219 16.1231525 6.18490312 16.1231525 6.18490312 5.19732969 9.99621094 5.19732969 9.99621094 3.01628031 6.18490312 3.01628031 6.18490312 0.0944971875 3.85935938 0.0944971875 3.85935938 3.01628031 0.0480515625 3.01628031"></polygon>
                    <path d="M12.28125,9.5625 C9.17952785,9.38528434 6.07237254,9.79886475 3.125,10.78125 C3.125,8.53125 5.75,5.90625 10.25,5.90625 C11.25,5.90625 12.28125,8.34375 12.28125,9.5625 Z" id="Path" fill="#DA4500"></path>
                </g>
                <g id="Group" transform="translate(41.875000, 65.000000)">
                    <path d="M4.16043332,20.3183955 C1.9926928,19.0955762 1.62631411,18.4755552 4.71000135,19.4486438 L48.0190146,40.7618672 L47.4999781,41.3646655 L4.1756991,20.3183955 L4.16043332,20.3183955 Z" id="Path" stroke="#000000" stroke-width="0.25" fill="#008500" transform="translate(25.242173, 30.167158) rotate(32.726256) translate(-25.242173, -30.167158) "></path>
                    <path d="M29.5,38.25 C29.75,34.9375 23.6875,31.375 23.4375,31.59375 C23.21875,31.84375 23.8125,33.78125 24.96875,34.75 C22.78125,33.625 20.46875,32.9375 20.40625,33.40625 C20.21875,34.09375 23.84375,35.65625 24.15625,36.28125 C24.15625,36.71875 21.46875,36.65625 21.53125,37.09375 C21.59375,37.53125 29.125,41.34375 29.5,38.25 Z M23.4375,28.625 C23.6875,25.3125 17.625,21.75 17.40625,21.96875 C17.15625,22.1875 17.75,24.125 18.90625,25.125 C16.71875,24 14.40625,23.28125 14.34375,23.78125 C14.1875,24.4375 17.78125,26.03125 18.09375,26.65625 C18.125,27.09375 15.4375,27.03125 15.46875,27.46875 C15.53125,27.90625 23.0625,31.6875 23.4375,28.625 Z M18.8125,19.875 C19.0625,16.5625 13,13 12.75,13.21875 C12.53125,13.4375 13.125,15.375 14.28125,16.375 C12.09375,15.25 9.78125,14.53125 9.71875,15.03125 C9.5625,15.6875 13.15625,17.28125 13.46875,17.90625 C13.46875,18.34375 10.8125,18.28125 10.84375,18.71875 C10.90625,19.15625 18.4375,22.96875 18.8125,19.875 Z M14.25,10.375 C14.46875,7.09375 8.4375,3.5 8.1875,3.71875 C7.9375,3.96875 8.5625,5.90625 9.6875,6.90625 C7.5,5.75 5.1875,5.0625 5.15625,5.5625 C4.96875,6.21875 8.59375,7.8125 8.875,8.40625 C8.90625,8.84375 6.21875,8.8125 6.28125,9.25 C6.3125,9.6875 13.84375,13.46875 14.25,10.375 Z" id="Shape" fill="#008F00" fill-rule="nonzero"></path>
                    <path d="M15.8125,9.96875 C18.75,8.1875 18.15625,1.40625 17.84375,1.34375 C17.5,1.3125 16.21875,2.90625 16.0625,4.40625 C15.71875,2.03125 14.9375,-0.15625 14.5,0.09375 C13.84375,0.34375 14.625,4.0625 14.28125,4.65625 C13.96875,4.96875 12.40625,2.84375 12.09375,3.15625 C11.71875,3.46875 12.96875,11.5 15.84375,9.96875 L15.8125,9.96875 Z M20.0625,18.28125 C23.4375,17.53125 25.28125,10.96875 24.96875,10.8125 C24.65625,10.65625 22.90625,11.75 22.25,13.125 C22.75,10.78125 22.78125,8.46875 22.25,8.5625 C21.53125,8.59375 21,12.34375 20.46875,12.78125 C20.0625,12.96875 19.3125,10.5 18.90625,10.65625 C18.46875,10.84375 16.84375,18.8125 20.0625,18.28125 Z M25.125,26.78125 C28.21875,25.28125 28.25,18.46875 27.9375,18.40625 C27.625,18.3125 26.21875,19.8125 25.90625,21.28125 C25.78125,18.875 25.21875,16.65625 24.75,16.875 C24.0625,17.0625 24.5,20.8125 24.125,21.375 C23.75,21.65625 22.40625,19.40625 22.03125,19.6875 C21.65625,19.9375 22.15625,28.0625 25.15625,26.78125 L25.125,26.78125 Z M30.625,37.90625 C33.84375,36.6875 34.625,29.9375 34.3125,29.8125 C34,29.71875 32.4375,31.0625 31.96875,32.5 C32.09375,30.09375 31.78125,27.8125 31.28125,28 C30.5625,28.125 30.625,31.90625 30.1875,32.4375 C29.78125,32.65625 28.6875,30.3125 28.3125,30.5625 C27.90625,30.75 27.53125,38.90625 30.625,37.90625 Z" id="Shape" fill="#008F00" fill-rule="nonzero"></path>
                </g>
                <path d="M80.1657567,112.194631 C80.1657567,113.817609 77.9921891,115.149283 75.264575,115.149283 C72.5369609,115.149283 70.3633933,113.817609 70.3633933,112.194631 C70.3633933,110.571654 72.5582703,109.23998 75.264575,109.23998 C77.9708797,109.23998 80.1657567,110.571654 80.1657567,112.194631 Z" id="Path" stroke="#000000" stroke-width="0.37" fill="#FF1900" transform="translate(75.264575, 112.194631) rotate(29.760024) translate(-75.264575, -112.194631) "></path>
                <g id="Group" transform="translate(122.812500, 65.312500)" fill="#FFFF00" stroke="#000000" stroke-width="0.25">
                    <path d="M11.6561882,1.43160189 L11.6561882,0.310163792 L12.8002981,0.310163792 L12.8002981,-0.811274308 L13.944408,-0.811274308 L13.944408,0.294368889 L15.1212068,0.294368889 L15.1212068,1.43160189 L13.944408,1.43160189 L13.944408,4.22729969 L12.8002981,4.22729969 L12.8002981,1.43160189 L11.6561882,1.43160189 Z M12.8002981,10.9401334 L13.944408,10.9401334 L13.944408,43.3986587 L12.8002981,43.3986587 L12.8002981,10.9401334 Z" id="Shape" transform="translate(13.388697, 21.293692) rotate(20.744772) translate(-13.388697, -21.293692) "></path>
                    <path d="M9.8863894,42.4125069 L12.2072981,42.4125069 L12.2072981,51.3682168 L9.8863894,51.3682168 L9.8863894,42.4125069 Z M9.33067886,4.91540758 L12.812042,4.91540758 C15.1166063,4.91540758 12.2236426,11.0754197 12.2236426,11.0754197 L9.91907826,11.0754197 C9.91907826,11.0754197 7.00977011,4.91540758 9.33067886,4.91540758 Z M12.2072981,4.06248283 C12.2072981,4.53632992 11.7006209,4.91540758 11.0631882,4.91540758 C10.4257555,4.91540758 9.90273383,4.53632992 9.90273383,4.07827773 C9.90273383,3.62022555 10.4094111,3.22535298 11.0468438,3.22535298 C11.6842765,3.22535298 12.2072981,3.60443065 12.2072981,4.07827773 L12.2072981,4.06248283 Z" id="Shape" transform="translate(11.067788, 27.296785) rotate(20.744772) translate(-11.067788, -27.296785) "></path>
                </g>
                <path d="M129.82644,113.300369 C129.82644,114.928413 127.659357,116.264244 124.939881,116.264244 C122.220405,116.264244 120.053323,114.928413 120.053323,113.300369 C120.053323,111.672325 122.241651,110.336494 124.939881,110.336494 C127.638111,110.336494 129.82644,111.672325 129.82644,113.300369 Z" id="Path" stroke="#000000" stroke-width="0.37" fill="#FF1900" transform="translate(124.939881, 113.300369) rotate(-33.985669) translate(-124.939881, -113.300369) "></path>
            </g>
        </g>
    </g>
</svg>