<?xml version="1.0" encoding="UTF-8"?>
<svg width="200px" height="152px" viewBox="0 0 200 152" version="1.1" xmlns="http://www.w3.org/2000/svg" xmlns:xlink="http://www.w3.org/1999/xlink">
    <!-- Generator: Sketch 52.5 (67469) - http://www.bohemiancoding.com/sketch -->
    <title>np</title>
    <desc>Created with Sketch.</desc>
    <defs>
        <polygon id="path-1" points="0 0 156 0 156 156 0 156"></polygon>
    </defs>
    <g id="Flags" stroke="none" stroke-width="1" fill="none" fill-rule="evenodd">
        <g id="Asia" transform="translate(-1170.000000, -1049.000000)">
            <g id="np" transform="translate(1170.000000, 1048.000000)">
                <polygon id="Path" fill="#FFFFFF" points="0 2 200 2 200 152 0 152"></polygon>
                <g id="Clipped">
                    <mask id="mask-2" fill="white">
                        <use xlink:href="#path-1"></use>
                    </mask>
                    <g id="Path"></g>
                    <g id="Group" mask="url(#mask-2)">
                        <g transform="translate(1.713867, 6.588867)">
                            <g>
                                <polygon id="Path" stroke="#000063" stroke-width="6.5" fill="#CE0000" points="0.142822266 142.679443 108.344971 142.679443 37.5336914 70.8684082 111.030029 70.9541016 0.171386719 0.142822266 0.171386719 142.679443"></polygon>
                                <path d="M49.9020996,104.48877 L42.1896973,107.05957 L48.2453613,112.715332 L40.1044922,112.201172 L43.4465332,119.685059 L36.1625977,116.171631 L36.3054199,124.341064 L30.9353027,118.371094 L27.8789062,125.969238 L25.2509766,118.456787 L19.4523926,124.341064 L19.9665527,116.428711 L12.2827148,119.685059 L15.8818359,112.543945 L7.51245117,112.715332 L13.6538086,107.488037 L5.85571289,104.48877 L13.5681152,101.917969 L7.48388672,96.262207 L15.5961914,96.7763672 L12.2827148,89.2924805 L19.5952148,92.8059082 L19.4523926,84.6364746 L24.8225098,90.6064453 L27.8789062,83.0083008 L30.4782715,90.520752 L36.3054199,84.6364746 L35.7626953,92.5488281 L43.4750977,89.2924805 L39.8474121,96.4335937 L48.2453613,96.262207 L42.1040039,101.489502 L49.9020996,104.48877 Z M40.6472168,51.7302246 L37.4194336,54.1296387 L39.019043,55.4436035 C42.7727937,52.8214946 45.7919302,49.2811391 47.7883301,45.1604004 C48.3024902,51.2446289 42.7324219,64.869873 28.1645508,65.0126953 C22.7864822,65.0813066 17.6038319,62.9987234 13.7686061,59.227865 C9.93338028,55.4570066 7.763384,50.3103443 7.7409668,44.9318848 C10.5974121,50.1306152 12.3684082,52.6442871 16.8815918,55.3579102 L18.2241211,54.1010742 L15.1962891,51.5588379 L19.1096191,50.5305176 L16.9958496,46.9885254 L21.1091309,47.2741699 L20.5949707,43.1608887 L24.1940918,45.2746582 L25.3366699,41.418457 L27.9074707,44.503418 L30.3354492,41.5612793 L31.6494141,45.5603027 L35.0200195,43.2180176 L34.5915527,47.3027344 L38.6477051,46.8171387 L36.7338867,50.5876465 L40.6472168,51.7302246 Z" id="Shape" fill="#FFFFFF" fill-rule="nonzero"></path>
                            </g>
                        </g>
                    </g>
                </g>
            </g>
        </g>
    </g>
</svg>