<?xml version="1.0" encoding="UTF-8"?>
<svg width="200px" height="150px" viewBox="0 0 200 150" version="1.1" xmlns="http://www.w3.org/2000/svg" xmlns:xlink="http://www.w3.org/1999/xlink">
    <!-- Generator: Sketch 52.5 (67469) - http://www.bohemiancoding.com/sketch -->
    <title>nf</title>
    <desc>Created with Sketch.</desc>
    <g id="Flags" stroke="none" stroke-width="1" fill="none" fill-rule="evenodd">
        <g id="Oceania" transform="translate(-950.000000, -250.000000)">
            <g id="nf" transform="translate(950.000000, 250.000000)">
                <polygon id="Path" fill="#FFFFFF" points="60.875 0 139.125 0 139.125 150 60.875 150"></polygon>
                <path d="M0,0 L60.875,0 L60.875,150 L0,150 L0,0 Z M139.125,0 L200,0 L200,150 L139.125,150 L139.125,0 Z" id="Shape" fill="#198200" fill-rule="nonzero"></path>
                <path d="M97.96875,109.78125 L97.96875,126.21875 L104.625,126.28125 C104.625,126.28125 102.5,111.96875 103.65625,110.03125 C104.8125,108.15625 105.90625,108.40625 105.90625,108.40625 C105.90625,108.40625 110.25,109.71875 110.71875,109.5 C111.1875,109.3125 110.65625,107.875 112.96875,108.0625 C113.71875,107.78125 113.3125,106.5 114,106.4375 C114.6875,106.34375 127.90625,110.125 130.78125,106.5625 C130.03125,104.5625 127.4375,106.40625 126.75,106.5 C126.125,106.5 123.53125,105.25 122.03125,106.5 C120.65625,105.46875 114.40625,104.78125 114.40625,104.78125 C113.59375,103.96875 129.28125,105.1875 130.1875,104.5625 C132.03125,102.71875 126.75,102.9375 125.9375,103.53125 C124.587084,102.716138 122.914363,102.645459 121.5,103.34375 C120.96875,102.0625 115.875,102.59375 113.0625,102.25 C112.125,101.71875 112.28125,101.40625 112.90625,101.0625 C118.84375,101.3125 124.71875,102.09375 130.65625,101.84375 C132.25,99.75 128.625,98.9375 126.40625,100.75 C125.09375,98.5625 122.4375,100.65625 120.65625,100.4375 C118.875,100.25 119.71875,98.0625 121.96875,98.40625 C124.21875,98.71875 128.25,98.28125 129,97.25 C129.75,96.21875 128.5625,95.15625 124.84375,96.15625 C123.59375,94.90625 120.78125,96.15625 119.5,96.5625 C117.75,95.59375 113.71875,96.40625 112.375,96.75 C111.03125,95.9375 119.40625,94.5625 119.40625,94.5625 C122.65625,94.5 124.5,93.9375 125.5,93.6875 C130.40625,91.0625 125.4375,90.78125 122.875,92.6875 C121.28125,91.4375 119.75,92.78125 118.3125,93.25 C116.965057,93.7061772 115.546923,93.9178389 114.125,93.875 C114.125,93.6875 118.0625,91.28125 118.0625,91.28125 C118.0625,91.28125 122.84375,90.9375 123.8125,90.8125 C124.75,90.65625 129.6875,88.15625 122.96875,89.84375 C120.65625,90.03125 119.28125,89.90625 118.375,89.96875 C113.21875,89.4375 118.875,88.9375 118.875,88.9375 C118.875,88.9375 126.1875,88.28125 126.28125,87.90625 C126.40625,85.09375 120.3125,86.40625 120.25,86.40625 C120.25,84.375 114.5625,86.46875 114.5625,86.40625 C113.46875,85.78125 115.1875,85.125 115.1875,85.125 C116.6875,84.75 118.9375,84.625 119.53125,84.15625 C119.53125,84.15625 123.78125,84.125 124.28125,83 C123.25,80.09375 115.28125,83.5 114.21875,84 C112.78125,84 115.15625,81.6875 115.25,81.625 C115.3125,81.53125 121.8125,81.28125 124.90625,77.09375 C125.125,74.5625 121.28125,78.53125 121.28125,78.53125 C120.96875,75.21875 117.09375,78.75 114.84375,79 C112.5625,79.3125 112.5,77.96875 114.0625,77.75 C115.625,77.5625 117.4375,77.71875 118.3125,75.3125 C119.21875,72.90625 121.875,75.4375 122.375,74.5625 C122.84375,73.65625 121.40625,72.90625 121.40625,72.90625 C121.40625,72.90625 123.40625,70.84375 120.15625,70.9375 C116.96875,71 112.78125,70.5 112.78125,70.5 C112.78125,70.5 116.125,69.21875 119.28125,69.25 C122.40625,69.34375 120.71875,67.03125 117.71875,67.03125 C114.6875,67.03125 113.125,66 113.125,66 L118.25,64.0625 L117.9375,62.625 C117.9375,62.625 120.9375,60.21875 116.6875,60.78125 L111.9375,61.40625 L103.375,62.6875 C103.3125,62.6875 101.0625,62 103.25,61.4375 C105.4375,60.875 113.1875,59.34375 114.34375,59.75 C115.5,60.15625 114.21875,56.875 110.09375,56.46875 C106,56.0625 103.4375,57.5 103.4375,57.5 C103.4375,57.5 100.78125,56.53125 103.25,55.71875 C105.71875,54.875 109.625,56 109.625,56 C109.625,56 114,54.6875 110.375,54.125 C106.75,53.59375 105.59375,54.625 103.9375,54.6875 C103.28125,53.84375 109.625,53.65625 110.03125,52.96875 C109.34375,51.71875 105.40625,52.96875 103.09375,52.96875 C102.15625,52.5625 102.0625,51.875 103.1875,51.46875 C105.53125,51.375 107.75,51.5 110.09375,51.40625 C110.03125,50.15625 110.09375,48.6875 110.03125,47.40625 C107.03125,46.875 103.53125,47.8125 101.875,47.71875 C102.3125,46.375 108.75,46 109.46875,45.625 C110.96875,43.75 103.1875,45.625 103.09375,45.625 C101.75,45.4375 101.84375,44.5625 102.6875,44.0625 C104.6875,43.84375 109.125,44.375 108.8125,43 C108.5625,41.75 105.6875,42.40625 104.5625,42.6875 C103.375,42.96875 101.65625,42.75 101.65625,42.75 C100.9375,41.75 108.375,42.15625 108.3125,41.375 C108.21875,40.5 103.59375,41.125 102,41.1875 C100.78125,40.34375 107.9375,39.78125 108.03125,39.6875 C108.3125,37.40625 103.25,39.6875 102.28125,39.6875 C101.34375,39.6875 101.8125,38.25 101.8125,38.25 C101.8125,38.25 103.78125,37.34375 103.71875,37.21875 C103.205758,36.9423946 102.659714,36.7323776 102.09375,36.59375 C101.9375,36.59375 102.09375,35.03125 102.09375,35.03125 C102.09375,35.03125 103.71875,33.78125 103.59375,33.4375 C103.4375,33.09375 101.65625,33.71875 101.65625,33.71875 L101.65625,32.34375 C101.65625,32.34375 102.96875,32.21875 103.09375,31.59375 C103.25,30.96875 101.53125,30.90625 101.53125,30.90625 L100.84375,23.71875 L100.21875,30.4375 L97.96875,30.75 C97.96875,30.75 99.53125,31.65625 99.84375,32.5625 C100.09375,33.4375 97.90625,33.1875 97.90625,33.1875 C97.90625,33.1875 99.6875,34.6875 99.8125,35.21875 C99.96875,35.78125 97.34375,35.90625 97.34375,35.90625 C97.34375,35.90625 99.53125,37.46875 99.6875,38.375 C99.8125,39.25 99.6875,39.75 99.6875,39.75 C99.6875,39.75 96.0625,36.59375 93.75,37.46875 C92.5,38.09375 96.5,38.40625 99.125,40.6875 C99.125,41.21875 92.71875,39.125 92.5,40.4375 C92.625,40.78125 99.34375,41.75 99.8125,42.625 C97.375,42.71875 92.3125,42.09375 92.5,42.90625 C91.96875,43.84375 97.25,43.3125 99.46875,44.0625 C100.125,44.8125 100.0625,45.4375 98.9375,45.5 C96.78125,44.46875 92.03125,43.71875 92,45.03125 C92.03125,45.34375 96.9375,45.15625 98.71875,46.3125 C96.34375,46.875 88.28125,45.21875 88.25,46 C88.46875,46.40625 89.75,48.03125 91.9375,47.96875 C94.125,47.90625 99.21875,48.84375 99.5625,49.53125 C99.875,50.21875 92.96875,48.09375 90.375,49.34375 C87.75,50.59375 97.84375,49.8125 99.46875,51.3125 C101.125,52.84375 96.1875,51.1875 96.1875,51.1875 C96.1875,51.1875 89.3125,50.25 88.3125,50.71875 C87.28125,51.1875 86.125,52.28125 86.125,52.28125 C86.125,52.28125 86.8125,53.65625 87.5,53.375 C88.1875,53.09375 87.28125,54.21875 87.28125,54.21875 C87.28125,54.21875 96.875,56.53125 99,58.59375 C101.125,60.65625 86.8125,55.375 86.8125,55.375 C86.8125,55.375 81.03125,57.5 87.125,57.625 C86.4375,58.65625 87.5,59.28125 87.5,59.28125 C87.5,59.28125 97.625,61.40625 98.65625,63.03125 C99.6875,64.6875 91.75,61.46875 89.9375,60.5625 C88.15625,59.6875 83.09375,61.125 83.15625,61.46875 C83.25,61.78125 85.65625,62.28125 85.6875,62.90625 C85.78125,63.53125 82.75,63.71875 82.75,64.28125 C82.75,64.8125 95.5625,67.5 99,70.375 C102.4375,73.25 88.9375,66.9375 88.9375,66.9375 C88.9375,66.9375 89.6875,67.96875 88.9375,68.25 C88.15625,68.53125 85.5,64.40625 81.125,66.9375 C80.3125,68 84.9375,68.8125 86.125,68.9375 C85.71875,69.96875 85.375,70.3125 87,71.34375 C88.625,72.375 83.78125,69.84375 83.78125,69.96875 L84.125,71.75 C82.625,70.5 80.78125,70.15625 79.0625,71.40625 C79.0625,71.40625 79,72.65625 80.78125,73.40625 C79.8125,75.375 81.875,74.75 85.15625,76.625 C80.28125,75.34375 79.875,77.71875 83.375,78.25 C86.875,78.78125 96.46875,79.15625 98.71875,82.09375 C101,85.03125 95.5,80.96875 94.875,80.84375 C94.75,80.9375 94.625,82.375 94.625,82.375 C93.15625,81.53125 91.8125,80.75 90.0625,80.40625 C89.90625,80.6875 89.96875,81.0625 89.8125,81.34375 C88.25,80.1875 86.84375,79.40625 84.53125,79.28125 L84.25,80.375 C84.25,80.375 82.34375,77.96875 78.5625,80.375 C76.46875,81.90625 86.53125,80.9375 88.15625,82.71875 C89.8125,84.5 88.5,84.78125 88.5,84.78125 L84.40625,83.25 C84.40625,83.25 79.53125,82.375 78.15625,83.46875 C76.78125,84.5625 98.15625,87.21875 98.78125,90.1875 C99.21875,91.75 93.78125,88.5 89.0625,87.09375 L88.5,88.65625 C88.5,88.65625 86.625,86.78125 84.53125,86.46875 C84.46875,86.46875 84.9375,88.34375 84.9375,88.34375 C84.9375,88.34375 79.6875,85.84375 77,87.15625 C74.34375,88.46875 86.3125,89.15625 87.40625,90.375 C88.5,91.625 83.78125,89.5625 83.34375,90.375 C82.96875,91.21875 77.125,88.875 77.21875,89.96875 C77.28125,91.0625 78.03125,91.6875 78.03125,91.6875 C78.03125,91.6875 90.15625,92.84375 90.5625,94.28125 C90.96875,95.71875 83.84375,93.46875 83.84375,93.46875 C83.84375,93.46875 83.15625,94.5 83.71875,94.96875 C84.25,95.46875 79.59375,92.25 80.03125,94.34375 C78.5,93.75 74.59375,91.90625 75.15625,93.34375 C75.6875,94.78125 86.1875,96.84375 86.1875,96.84375 C86.1875,96.84375 81.59375,97.15625 81.8125,98.34375 C75.875,94.75 76.03125,97.03125 76.1875,97.09375 C76.3125,97.15625 68.5625,95.1875 74.40625,98.34375 C80.25,101.5 77.53125,100.9375 77.625,101 C77.6875,101.0625 78.25,102.5625 78.09375,102.5625 C77.96875,102.5625 74.125,100.53125 72.8125,100.375 C71.53125,100.25 65.34375,102.09375 71.9375,105 C78.53125,107.90625 82.5625,104.3125 86.1875,104.6875 C89.8125,105.125 91.5,105.75 91.1875,106.875 C90.84375,108.0625 87.46875,103.09375 83.9375,107.40625 C79.875,106.59375 77.15625,106.15625 79.25,109.09375 C72.6875,106.625 68.625,109.84375 76.9375,111.15625 C85.0625,111.40625 90.0625,109.15625 90.0625,109.15625 C90.0625,109.15625 91.46875,111.6875 93.4375,109.90625 C95.4375,108.125 95.5,110.59375 95.5625,110.59375 L97.5,109.78125 L97.96875,109.78125 Z" id="Path" stroke="#000000" stroke-width="0.7" fill="#198200" stroke-linecap="round" stroke-linejoin="round"></path>
                <path d="M98.75,100.0625 L98.75,98.90625 C98.75,98.90625 96.1875,98.4375 94.90625,98.6875 C94.1875,98.28125 93.46875,97.71875 92.5625,98.1875 C92.40625,98.5625 94.21875,99.53125 94.8125,99.53125 C96.099508,99.9147277 97.4386953,100.093989 98.78125,100.0625 L98.75,100.0625 Z M98.75,101.9375 C98.75,101.9375 96.15625,100.96875 95.125,102.0625 C95.28125,103.21875 98.15625,103.78125 98.78125,103.46875 C99.375,103.15625 98.78125,101.96875 98.75,101.90625 L98.75,101.9375 Z M103.125,102.375 L103.125,103.1875 C103.125,103.1875 106.1875,103.78125 106.75,103.125 C107.28125,102.46875 104.25,102.03125 103.09375,102.375 L103.125,102.375 Z M102.96875,99.1875 L103.0625,100.09375 C103.0625,100.09375 105.75,100.6875 106.78125,99.21875 C107.8125,97.75 104.4375,99.21875 102.96875,99.1875 Z M103.09375,96.0625 L103.09375,96.6875 C103.09375,96.6875 105.125,97 105.59375,96.125 C106.03125,95.25 103.15625,96.125 103.09375,96.0625 Z M98.90625,94.1875 C98.59375,93.78125 97.5,92.6875 94.59375,92.375 C92.5625,92.375 98.25,95.34375 98.90625,94.21875 L98.90625,94.1875 Z M103.03125,91.15625 L102.96875,92 C102.96875,92 109.84375,89.9375 111.4375,90.09375 C112.875,89.6875 113.1875,88.6875 113.125,88.6875 C111.875,87.78125 105.96875,89.40625 103.03125,91.15625 Z M103.1875,88.71875 L103.09375,89.53125 C103.09375,89.53125 107.9375,88.59375 109.25,87.65625 C110.53125,86.71875 103.25,88.75 103.1875,88.71875 Z M103,86.34375 L103,87.15625 C103,87.15625 106.21875,87.03125 106.90625,86.40625 C107.3125,85.75 104.03125,86.3125 103,86.34375 Z M109.75,93.125 C109.75,93.125 111.4375,93.375 111.75,92.875 C111.6875,92 109.75,93.1875 109.75,93.125 Z M103.125,83.3125 L103.15625,85.09375 C103.15625,85.09375 110.9375,82.625 111.4375,82.1875 C111.90625,81.71875 113,80.3125 103.125,83.3125 Z M102.90625,80.84375 L102.90625,82.15625 C102.90625,82.15625 106.03125,81.90625 107.46875,80.75 C108.90625,79.5625 102.90625,80.875 102.90625,80.84375 Z M99.15625,77.9375 L99.34375,79.09375 L89.0625,75.78125 C89.09375,75.78125 88.5625,74.09375 99.15625,77.9375 Z M99.3125,73.78125 C99.3125,73.90625 99.3125,74.90625 99.25,74.875 C99.25,74.875 92.125,71.90625 91.84375,72.15625 C90.90625,69.96875 99.34375,73.84375 99.34375,73.78125 L99.3125,73.78125 Z M102.78125,75.65625 L102.90625,76.625 C102.90625,76.625 107.28125,75.71875 107.53125,75.28125 C107.78125,74.84375 102.78125,75.65625 102.78125,75.625 L102.78125,75.65625 Z M102.875,77.96875 C102.9375,78.1875 103,79 103,79 C103,79 104.75,78.84375 105.03125,78.4375 C105.28125,78.03125 102.875,77.96875 102.875,77.96875 Z M102.625,72.65625 L102.625,73.59375 C102.625,73.59375 107.4375,72.65625 107.9375,72.21875 C108.46875,71.75 102.53125,72.65625 102.625,72.65625 Z M102.625,70 C102.625,70.0625 102.46875,70.96875 102.59375,70.96875 C102.71875,70.96875 108.40625,70.03125 109.3125,69.1875 C110.1875,68.40625 102.75,70.09375 102.65625,70 L102.625,70 Z M102.5625,65.34375 L102.5625,66.375 C102.5625,66.375 106.25,65.59375 106.9375,64.8125 C107.625,64.03125 102.5625,65.4375 102.5625,65.34375 Z M101.9375,58.59375 L102,60.09375 C102,60.09375 107,59.40625 107.6875,58.59375 C108.40625,57.75 101.90625,58.59375 101.9375,58.59375 Z M99.625,47.1875 L99.625,48.125 C99.625,48.125 97.28125,48.03125 97.84375,47.625 C98.40625,47.21875 99.625,47.28125 99.625,47.1875 Z M101.8125,48.4375 L101.875,49.75 C101.875,49.75 104.90625,49.4375 105.125,48.96875 C105.375,48.5 101.875,48.46875 101.8125,48.46875 L101.8125,48.4375 Z M101.625,50.3125 C101.625,50.3125 101.6875,51.125 101.75,51.125 C101.8125,51.125 102.96875,51.03125 103.21875,50.71875 C103.46875,50.40625 101.75,50.40625 101.65625,50.3125 L101.625,50.3125 Z M99.0625,54 C99.0625,54.09375 99.15625,55.25 99.0625,55.1875 C98.96875,55.125 92.4375,53.28125 91.8125,53.3125 C91.21875,53.3125 91.0625,51.78125 99.0625,54 Z M99.59375,56.15625 C99.59375,56.375 99.75,57.59375 99.5,57.53125 C99.28125,57.46875 95.03125,56.125 95.46875,55.71875 C95.90625,55.3125 99.59375,56.25 99.59375,56.15625 Z M99.21875,65.21875 L99.25,66.3125 C99.25,66.3125 91.84375,64.0625 91.59375,63.6875 C91.34375,63.3125 90.625,61.5625 99.21875,65.21875 Z M99.53125,67.875 L99.53125,68.90625 L89.46875,65.375 C89.46875,65.375 88.65625,62.75 99.5,67.875 L99.53125,67.875 Z" id="Shape" stroke="#000000" stroke-width="0.8" fill="#FFFFFF" fill-rule="nonzero" stroke-linecap="round" stroke-linejoin="round"></path>
                <path d="M87.59375,102.71875 L87.53125,103.8125 C87.53125,103.8125 85.59375,103.25 84.96875,102.15625 C86.09375,101.84375 87.625,102.75 87.59375,102.71875 Z" id="Path" stroke="#000000" stroke-width="0.8" fill="#FFFFFF" stroke-linejoin="round"></path>
            </g>
        </g>
    </g>
</svg>