<?xml version="1.0" encoding="UTF-8"?>
<svg width="200px" height="150px" viewBox="0 0 200 150" version="1.1" xmlns="http://www.w3.org/2000/svg" xmlns:xlink="http://www.w3.org/1999/xlink">
    <!-- Generator: Sketch 52.5 (67469) - http://www.bohemiancoding.com/sketch -->
    <title>om</title>
    <desc>Created with Sketch.</desc>
    <defs>
        <polygon id="path-1" points="0 0 200 0 200 150 0 150"></polygon>
    </defs>
    <g id="Flags" stroke="none" stroke-width="1" fill="none" fill-rule="evenodd">
        <g id="Asia" transform="translate(-70.000000, -1250.000000)">
            <g id="om" transform="translate(70.000000, 1250.000000)">
                <mask id="mask-2" fill="white">
                    <use xlink:href="#path-1"></use>
                </mask>
                <g id="Path"></g>
                <g id="Group" mask="url(#mask-2)">
                    <g transform="translate(-1.250000, -11.250000)">
                        <polygon id="Path" fill="#EF2D29" points="0.21875 4.5 219.6875 4.5 219.6875 177.3125 0.21875 177.3125"></polygon>
                        <polygon id="Path" fill="#009025" points="55.8125 110.40625 223.21875 110.40625 223.21875 175.3125 55.8125 175.3125"></polygon>
                        <polygon id="Path" fill="#FFFFFF" points="55.8125 0.1875 232.34375 0.1875 232.34375 59.5625 55.78125 59.5625"></polygon>
                        <g id="Group" stroke-width="1" fill="none" transform="translate(7.500000, 16.562500)">
                            <g transform="translate(29.585675, 16.395150)" fill="#FFFFFF" stroke="#EF2D28" stroke-width="0.25">
                                <rect id="Rectangle" x="0.0434175" y="0.038815" width="8.571855" height="4.71325" rx="2.356625"></rect>
                                <rect id="Rectangle" x="0.2667075" y="0.238435" width="8.1314775" height="4.3251" rx="2.16255"></rect>
                                <polygon id="Path" points="4.04838415 1.41060364 4.45815083 1.42682831 4.47504842 1.61503448 4.81300032 1.78701598 5.07491304 1.56960541 5.39174294 1.74158691 5.09603503 1.92979308 5.16784981 2.1893878 5.5395969 2.17316313 5.5395969 2.5138812 5.24388899 2.50090146 5.09181063 2.71506711 5.42976253 2.95843716 5.16784981 3.15962307 4.8848151 2.94545742 4.47504842 3.02982571 4.49617042 3.3445843 4.04838415 3.37703364 3.98924257 3.07200985 3.61749549 2.91625302 3.41049995 3.13041866 3.09367005 2.97141689 3.27954359 2.72804684 3.05565046 2.57229001 2.73882056 2.57229001 2.72192296 2.12773405 3.03875287 2.15693846 3.262646 1.89734374 3.00073328 1.69615783 3.33868517 1.46901245 3.5794759 1.65397369 3.98924257 1.59556488"></polygon>
                                <ellipse id="Oval" cx="4.16493477" cy="2.34642397" rx="1" ry="1"></ellipse>
                                <path d="M1.36455,0.43251 L0.7008825,1.02028 M1.8049275,0.43251 L1.14126,1.02028 M2.2391025,0.43251 L1.5816375,1.02028 M2.67948,0.43251 L2.022015,1.02028 M3.1198575,0.43251 L2.4623925,1.02028 M3.560235,0.43251 L2.90277,1.02028 M4.0006125,0.43251 L3.3431475,1.02028 M4.44099,0.43251 L3.783525,1.02028 M4.8813675,0.43251 L4.2177,1.02028 M5.321745,0.43251 L4.651875,1.02028 M5.7497175,0.43251 L5.0922525,1.02028 M6.190095,0.43251 L5.53263,1.02028 M4.4347875,0.43251 L3.783525,1.02028 M6.636675,0.43251 L5.97921,1.02028 M7.0770525,0.43251 L6.4195875,1.02028 M7.51743,0.43251 L6.859965,1.02028 M7.9578075,0.43251 L7.3003425,1.02028 M7.3003425,0.43251 L7.9578075,1.02028 M6.859965,0.43251 L7.51743,1.02028 M6.4195875,0.43251 L7.0770525,1.02028 M5.97921,0.43251 L6.636675,1.02028 M5.5388325,0.43251 L6.1962975,1.02028 M5.098455,0.43251 L5.75592,1.02028 M4.6580775,0.43251 L5.321745,1.02028 M4.2177,0.43251 L4.875165,1.02028 M3.77112,0.43251 L4.4347875,1.02028 M3.336945,0.43251 L3.99441,1.02028 M2.8965675,0.43251 L3.5540325,1.02028 M2.45619,0.43251 L3.113655,1.02028 M4.2177,0.43251 L4.875165,1.02028 M2.022015,0.43251 L2.6732775,1.02028 M1.575435,0.43251 L2.2391025,1.02028 M1.1350575,0.43251 L1.798725,1.02028 M0.69468,0.43251 L1.36455,1.02028 M1.36455,3.7706 L0.707085,4.363915 M1.798725,3.7706 L1.1350575,4.363915 M2.245305,3.7706 L1.5816375,4.363915 M2.67948,3.7706 L2.022015,4.363915 M3.1198575,3.7706 L2.4623925,4.363915 M3.560235,3.7706 L2.90277,4.363915 M4.0006125,3.7706 L3.34935,4.363915 M4.44099,3.7706 L3.783525,4.363915 M4.8813675,3.7706 L4.2177,4.363915 M5.3155425,3.7706 L4.651875,4.363915 M5.768325,3.7706 L5.1046575,4.363915 M6.2025,3.7706 L5.545035,4.363915 M4.44099,3.7706 L3.783525,4.363915 M6.636675,3.7706 L5.97921,4.363915 M7.0770525,3.7706 L6.4195875,4.363915 M7.51743,3.7706 L6.859965,4.363915 M7.9578075,3.7706 L7.3003425,4.363915 M7.3003425,3.7706 L7.9578075,4.363915 M6.859965,3.7706 L7.51743,4.363915 M6.4195875,3.7706 L7.0770525,4.363915 M5.97921,3.7706 L6.636675,4.363915 M5.5388325,3.7706 L6.1962975,4.363915 M5.098455,3.7706 L5.7621225,4.363915 M4.651875,3.7706 L5.3155425,4.363915 M4.2177,3.7706 L4.875165,4.363915 M3.783525,3.7706 L4.44099,4.363915 M3.3431475,3.7706 L4.0006125,4.363915 M2.90277,3.7706 L3.560235,4.363915 M2.4623925,3.7706 L3.1198575,4.363915 M4.2239025,3.7706 L4.8813675,4.363915 M2.0282175,3.7706 L2.67948,4.363915 M1.5816375,3.7706 L2.245305,4.363915 M1.14126,3.7706 L1.8049275,4.363915 M0.707085,3.7706 L1.36455,4.363915" id="Shape"></path>
                            </g>
                            <g transform="translate(0.773175, 16.207650)" fill="#FFFFFF" stroke="#EF2D28" stroke-width="0.25">
                                <rect id="Rectangle" x="0.0434175" y="0.038815" width="8.571855" height="4.71325" rx="2.356625"></rect>
                                <rect id="Rectangle" x="0.2667075" y="0.238435" width="8.1314775" height="4.3251" rx="2.16255"></rect>
                                <polygon id="Path" points="4.04838415 1.41060364 4.45815083 1.42682831 4.47504842 1.61503448 4.81300032 1.78701598 5.07491304 1.56960541 5.39174294 1.74158691 5.09603503 1.92979308 5.16784981 2.1893878 5.5395969 2.17316313 5.5395969 2.5138812 5.24388899 2.50090146 5.09181063 2.71506711 5.42976253 2.95843716 5.16784981 3.15962307 4.8848151 2.94545742 4.47504842 3.02982571 4.49617042 3.3445843 4.04838416 3.37703364 3.98924257 3.07200985 3.61749549 2.91625302 3.41049995 3.13041866 3.09367005 2.97141689 3.27954359 2.72804684 3.05565046 2.57229001 2.73882056 2.57229001 2.72192296 2.12773405 3.03875287 2.15693846 3.262646 1.89734374 3.00073328 1.69615783 3.33868517 1.46901245 3.5794759 1.65397369 3.98924257 1.59556488"></polygon>
                                <ellipse id="Oval" cx="4.16493477" cy="2.34642397" rx="1" ry="1"></ellipse>
                                <path d="M1.36455,0.43251 L0.7008825,1.02028 M1.8049275,0.43251 L1.14126,1.02028 M2.2391025,0.43251 L1.5816375,1.02028 M2.67948,0.43251 L2.022015,1.02028 M3.1198575,0.43251 L2.4623925,1.02028 M3.560235,0.43251 L2.90277,1.02028 M4.0006125,0.43251 L3.3431475,1.02028 M4.44099,0.43251 L3.783525,1.02028 M4.8813675,0.43251 L4.2177,1.02028 M5.321745,0.43251 L4.651875,1.02028 M5.7497175,0.43251 L5.0922525,1.02028 M6.190095,0.43251 L5.53263,1.02028 M4.4347875,0.43251 L3.783525,1.02028 M6.636675,0.43251 L5.97921,1.02028 M7.0770525,0.43251 L6.4195875,1.02028 M7.51743,0.43251 L6.859965,1.02028 M7.9578075,0.43251 L7.3003425,1.02028 M7.3003425,0.43251 L7.9578075,1.02028 M6.859965,0.43251 L7.51743,1.02028 M6.4195875,0.43251 L7.0770525,1.02028 M5.97921,0.43251 L6.636675,1.02028 M5.5388325,0.43251 L6.1962975,1.02028 M5.098455,0.43251 L5.75592,1.02028 M4.6580775,0.43251 L5.321745,1.02028 M4.2177,0.43251 L4.875165,1.02028 M3.77112,0.43251 L4.4347875,1.02028 M3.336945,0.43251 L3.99441,1.02028 M2.8965675,0.43251 L3.5540325,1.02028 M2.45619,0.43251 L3.113655,1.02028 M4.2177,0.43251 L4.875165,1.02028 M2.022015,0.43251 L2.6732775,1.02028 M1.575435,0.43251 L2.2391025,1.02028 M1.1350575,0.43251 L1.798725,1.02028 M0.69468,0.43251 L1.36455,1.02028 M1.36455,3.7706 L0.707085,4.363915 M1.798725,3.7706 L1.1350575,4.363915 M2.245305,3.7706 L1.5816375,4.363915 M2.67948,3.7706 L2.022015,4.363915 M3.1198575,3.7706 L2.4623925,4.363915 M3.560235,3.7706 L2.90277,4.363915 M4.0006125,3.7706 L3.34935,4.363915 M4.44099,3.7706 L3.783525,4.363915 M4.8813675,3.7706 L4.2177,4.363915 M5.3155425,3.7706 L4.651875,4.363915 M5.768325,3.7706 L5.1046575,4.363915 M6.2025,3.7706 L5.545035,4.363915 M4.44099,3.7706 L3.783525,4.363915 M6.636675,3.7706 L5.97921,4.363915 M7.0770525,3.7706 L6.4195875,4.363915 M7.51743,3.7706 L6.859965,4.363915 M7.9578075,3.7706 L7.3003425,4.363915 M7.3003425,3.7706 L7.9578075,4.363915 M6.859965,3.7706 L7.51743,4.363915 M6.4195875,3.7706 L7.0770525,4.363915 M5.97921,3.7706 L6.636675,4.363915 M5.5388325,3.7706 L6.1962975,4.363915 M5.098455,3.7706 L5.7621225,4.363915 M4.651875,3.7706 L5.3155425,4.363915 M4.2177,3.7706 L4.875165,4.363915 M3.783525,3.7706 L4.44099,4.363915 M3.3431475,3.7706 L4.0006125,4.363915 M2.90277,3.7706 L3.560235,4.363915 M2.4623925,3.7706 L3.1198575,4.363915 M4.2239025,3.7706 L4.8813675,4.363915 M2.0282175,3.7706 L2.67948,4.363915 M1.5816375,3.7706 L2.245305,4.363915 M1.14126,3.7706 L1.8049275,4.363915 M0.707085,3.7706 L1.36455,4.363915" id="Shape"></path>
                            </g>
                            <path d="M15.9192332,26.4742476 C16.1027727,41.3392885 18.5967504,44.4978867 16.2971086,44.4978867 C13.9974669,44.4978867 12.8530442,36.280178 12.8530442,26.1619568 C12.8530442,16.0437357 14.3861387,7.82602702 16.6857805,7.82602702 C18.9854222,7.82602702 15.7141009,10.6723344 15.9192332,26.4742476 Z" id="Path" stroke="#EF2D28" stroke-width="0.25" fill="#FFFFFF" transform="translate(15.180910, 26.161957) scale(-1, 1) rotate(-37.198709) translate(-15.180910, -26.161957) "></path>
                            <path d="M3.98982337,33.723275 L0.249715866,34.70474 C3.76653337,38.048375 7.72372837,39.41799 8.82157087,38.83022 C9.91941337,38.24245 6.84297337,36.86729 3.98362087,33.72882 L3.98982337,33.723275 Z" id="Path" stroke="#EF2D28" stroke-width="0.25" fill="#FFFFFF" transform="translate(4.649515, 36.342906) scale(-1, 1) translate(-4.649515, -36.342906) "></path>
                            <path d="M3.60969765,34.1127744 L0.528341397,34.89656 C3.95408452,38.1116806 7.3435764,39.0234313 8.21964827,38.6288725 C9.10176202,38.2396456 6.38896015,37.1359475 3.60969765,34.1127744 Z" id="Path" stroke="#EF2D28" stroke-width="0.25" fill="#FFFFFF" transform="translate(4.458758, 36.413929) scale(-1, 1) translate(-4.458758, -36.413929) "></path>
                            <path d="M15.3702187,25.6654963 C15.378955,25.7159281 15.4051637,25.9409319 15.4270044,26.0301575 C15.4270044,26.1542975 15.4401087,26.2474025 15.4532131,26.3443869 C15.4881581,26.4297331 15.48379,26.5073206 15.588625,26.5383556 C15.637045,26.6159474 15.7142168,26.67626 15.8070313,26.7090481 C15.8909732,26.7688355 15.9835199,26.8184114 16.0822231,26.8564644 C16.1854812,26.8963341 16.3007506,26.9045239 16.4098325,26.8797406 C16.5059312,26.82155 16.5758213,26.75948 16.6544475,26.7090481 C16.67192,26.6314606 16.6893925,26.5189588 16.7112331,26.4413713 C16.6771163,26.5448248 16.658033,26.6517277 16.6544475,26.75948 C16.6631837,26.8758613 16.7112331,26.9301725 16.7636506,27.0232775" id="Path" stroke="#EF2D28" stroke-width="0.25" transform="translate(16.066935, 26.344387) scale(-1, 1) translate(-16.066935, -26.344387) "></path>
                            <path d="M13.1847157,27.2894494 L13.2109245,27.2661731 C13.1454026,27.3243637 13.1716113,27.2972081 13.3201276,27.2157413 C13.4249626,27.1691887 13.5385338,27.1459125 13.6739457,27.1226363 L14.0583407,27.1226363 C14.206857,27.1226363 14.3073238,27.1420331 14.4121588,27.1691888 C14.4907851,27.2390175 14.6043563,27.2778113 14.6873507,27.3398813 C14.7611145,27.3893817 14.817232,27.456731 14.8489713,27.53385 C14.9232295,27.5997994 14.9712788,27.7006631 15.0411688,27.751095 C15.0717457,27.8635969 15.1328995,27.8597175 15.1765807,27.9450638 C15.045537,27.9528225 14.9450701,27.96834 14.8751801,28.0420481 C14.7616088,28.09248 14.9712788,27.9916163 15.0149601,27.9450638 C15.1023226,27.9217875 15.1241632,27.8985113 15.2595751,27.8985113 C15.3818826,27.8597175 15.4605088,27.9256669 15.5871845,27.9450638 C15.6614426,27.9838575 15.6832832,27.9954956 15.779382,27.9954956" id="Path" stroke="#EF2D28" stroke-width="0.25" transform="translate(14.478243, 27.589228) scale(-1, 1) translate(-14.478243, -27.589228) "></path>
                            <path d="M12.6321206,28.4965894 C12.6889063,28.4965894 12.9422575,28.5392625 13.0427244,28.4965894 C13.1562956,28.4694338 13.2174494,28.4190019 13.2873394,28.3258969 C13.3222844,28.2599475 13.2873394,28.4422781 13.2873394,28.5198656 C13.3004438,28.6634025 13.3484931,28.6634025 13.4271194,28.7603869 C13.5057456,28.8069394 13.58874,28.8690094 13.6717344,28.9078031 C13.7445281,28.9605468 13.827376,29.0012775 13.9163494,29.0280638 C14.0037119,29.0668575 14.0954425,29.0978925 14.1609644,29.1483244 C14.252695,29.206515 14.2483269,29.2763438 14.3007444,29.3694488 C14.28764,29.48583 14.2657994,29.5556588 14.1915413,29.60997 C14.1565962,29.6914369 14.0867063,29.7729038 14.0255525,29.827215 C13.9600306,29.9435963 13.8814044,29.9940281 14.0517613,30.0211838 C14.14786,30.0599775 14.2002775,30.0289425 14.3007444,30.0211838" id="Path" stroke="#EF2D28" stroke-width="0.25" transform="translate(13.466432, 29.176034) scale(-1, 1) translate(-13.466432, -29.176034) "></path>
                            <path d="M10.9573929,30.1871369 C11.0272829,30.1716194 11.2631616,30.1017906 11.3679966,30.0668762 L11.7523916,30.0668762 C11.8965398,30.0785144 11.9271166,30.1173081 12.0494241,30.1638606 C12.1324185,30.2375687 12.184836,30.2880006 12.2984073,30.3345531 C12.3551929,30.4005025 12.4731323,30.5168838 12.5168135,30.60223 C12.5527687,30.702544 12.5704638,30.807312 12.569231,30.91258 C12.569231,31.0561169 12.5255498,31.0832725 12.5168135,31.2074125 C12.4862316,31.3140517 12.4295573,31.413393 12.3508248,31.4983656 C12.3377204,31.5294006 12.3289841,31.5371594 12.2984073,31.5449181" id="Path" stroke="#EF2D28" stroke-width="0.25" transform="translate(11.763342, 30.805897) scale(-1, 1) translate(-11.763342, -30.805897) "></path>
                            <path d="M8.91467,31.8611937 C8.927075,31.8611937 8.951885,31.9224375 8.99220125,31.9744947 C9.0821375,32.0663603 9.09144125,32.0724847 9.224795,32.0724847 C9.348845,32.0663603 9.33333875,32.0234897 9.42017375,31.99593 C9.46049,31.9346862 9.51011,31.8856913 9.55662875,31.8030122 C9.58764125,31.7540172 9.6155525,31.6774625 9.64966625,31.6315297 C9.68688125,31.5733481 9.73029875,31.5304775 9.76751375,31.4784203 C9.80472875,31.4631094 9.81713375,31.4477984 9.86675375,31.4386119 C9.75510875,31.456985 9.74270375,31.4967934 9.671375,31.554975 C9.6362046,31.610373 9.60411098,31.6676183 9.57523625,31.7264575 C9.56283125,31.8091366 9.53802125,31.8734425 9.53492,31.9744947 C9.53492,32.0816712 9.53492,32.1551637 9.57523625,32.2439672 C9.621755,32.2899 9.6527675,32.338895 9.71169125,32.3787034 C9.76070575,32.425685 9.80533714,32.4769283 9.845045,32.5318128 L10.0218163,32.6451138 C10.0776388,32.6787978 10.142765,32.7124819 10.2327013,32.7216684 C10.3474475,32.7124819 10.3815613,32.68186 10.465295,32.6451138 C10.539725,32.5930566 10.5955475,32.5593725 10.6606738,32.5103775 C10.7141179,32.4668335 10.7601821,32.4151471 10.7971288,32.3572681 C10.89947,32.3327706 10.9676975,32.3419572 11.0297225,32.3970766 C11.0823355,32.4333364 11.1275729,32.4790428 11.1630763,32.5318128 C11.1940888,32.5471238 11.2499113,32.5930566 11.2809237,32.6083675" id="Path" stroke="#EF2D28" stroke-width="0.25" transform="translate(10.097797, 32.080140) scale(-1, 1) translate(-10.097797, -32.080140) "></path>
                            <path d="M7.98502938,32.6708341 C7.95418438,32.6822987 7.83851563,32.7625516 7.79224813,32.7893025 C7.76140313,32.8924847 7.71128,32.9459866 7.6958575,33.0568119 C7.66886813,33.1561725 7.66886813,33.2708194 7.66886813,33.3892878 C7.6958575,33.5115778 7.74598063,33.5994738 7.79224813,33.6950128 C7.86936063,33.7485147 7.90791688,33.7867303 8.00816313,33.8402322 C8.10455375,33.8555184 8.20094438,33.8669831 8.32046875,33.8669831 C8.39758125,33.8899125 8.53638375,33.9013772 8.60964063,33.8669831 C8.71759812,33.8516969 8.79856625,33.8096597 8.87567875,33.7714441 C8.96435812,33.7217638 9.01833688,33.6720834 9.1147275,33.6262247 C9.16485062,33.5574366 9.2381075,33.49247 9.30750875,33.4122172 C9.36919875,33.3319644 9.41161063,33.2861056 9.4540225,33.1982097 C9.41546625,33.2975703 9.36534313,33.3892878 9.33449812,33.4848269 C9.27666375,33.5841875 9.24581875,33.6224031 9.2381075,33.7446931 C9.19955125,33.8440538 9.21111812,33.9663438 9.21111812,34.0809906 C9.222685,34.1574219 9.22654062,34.3026412 9.26124125,34.3676078 L9.26124125,34.4402175" id="Path" stroke="#EF2D28" stroke-width="0.25" transform="translate(8.561445, 33.555526) scale(-1, 1) translate(-8.561445, -33.555526) "></path>
                            <path d="M3.41360238,34.81564 L3.41360238,34.854455 C3.41360238,34.76019 3.41360238,34.80455 3.37018488,34.99308 C3.30195738,35.07071 3.12208488,35.09289 2.98562988,35.05962 C2.86157988,34.965355 2.86157988,34.89327 2.63828988,34.854455 C2.41499988,34.865545 2.32816488,34.920995 2.20411488,34.99308 C2.07220924,35.0369027 1.96220146,35.1214805 1.89398988,35.231515 C1.85057238,35.34796 1.82576238,35.431135 1.97462238,35.475495 C2.10428439,35.553114 2.25346987,35.6007465 2.40879738,35.61412 C2.58246738,35.61412 2.71271988,35.597485 2.79335238,35.686205 C2.91740238,35.797105 2.90499738,35.863645 2.90499738,36.063265 C2.94841488,36.12426 2.95461738,36.307245 2.98562988,36.37933 C3.09238737,36.4295816 3.21255374,36.4526019 3.33296988,36.44587 C3.37638738,36.33497 3.41980488,36.14644 3.45081738,36.029995 C3.48182988,35.908005 3.48803238,35.730565 3.56866488,35.64739 C3.63978602,35.5519171 3.73024172,35.4691696 3.83537238,35.40341 C3.89809847,35.3398264 3.97989178,35.2936436 4.07106738,35.27033 C3.91600488,35.33687 3.89739738,35.4145 3.87878988,35.58085 C4.00904238,35.6363 4.04625738,35.68066 4.26334488,35.686205 C4.48043238,35.66957 4.53005238,35.619665 4.61068488,35.508765 C4.62929238,35.686205 4.69131738,35.741655 4.73473488,35.896915 C4.80916488,35.996725 4.84017738,36.10208 4.92080988,36.240705 C4.88979738,36.407055 4.81536738,36.4126 4.80916488,36.617765 C4.75954488,36.75639 4.75954488,36.883925 4.65410238,36.9671 C4.60448238,37.02255 4.56726738,37.028095 4.45562238,37.03364 C4.67891238,37.03364 4.81536738,37.01146 4.96422738,36.93383 C5.07587238,36.86729 5.16270738,36.78966 5.27435238,36.72312 C5.41426891,36.6288603 5.57176797,36.55752 5.73953988,36.51241 C5.91941238,36.51241 6.04966488,36.495775 6.12409488,36.584495 C6.23573988,36.65658 6.31016988,36.77857 6.35978988,36.93383 C6.39080238,37.11127 6.40940988,37.23326 6.31637238,37.349705 C6.25434738,37.482785 6.23573988,37.53269 6.31637238,37.693495 C6.40940988,37.804395 6.53966238,37.82103 6.75054738,37.86539 C6.89320488,37.859845 7.03586238,37.83212 7.13510238,37.79885" id="Path" stroke="#EF2D28" stroke-width="0.25" transform="translate(4.497860, 36.335993) scale(-1, 1) translate(-4.497860, -36.335993) "></path>
                            <g transform="translate(29.170225, 8.548975) scale(-1, 1) translate(-29.170225, -8.548975) translate(23.277850, 0.370100)" stroke="#EF2D28" stroke-width="0.25">
                                <path d="M4.12555791,16.5210541 C4.12555791,7.30649489 4.91948416,-0.178940028 5.88211972,-0.178940028 C6.85467937,-0.178940028 7.63868153,7.30649489 7.63868153,16.5210541 L4.12555791,16.5210541 Z" id="Path" fill="#FFFFFF" transform="translate(5.882120, 8.171057) rotate(-27.315702) translate(-5.882120, -8.171057) "></path>
                                <path d="M4.6283853,16.4938932 C4.6283853,7.60451131 5.26353648,0.383233753 6.03365728,0.383233753 C6.81171747,0.383233753 7.43892926,7.60451131 7.43892926,16.4938932" id="Path" fill="#FFFFFF" transform="translate(6.033657, 8.438563) rotate(-27.315666) translate(-6.033657, -8.438563) "></path>
                                <path d="M10.7174955,12.4439617 C10.7373436,13.4919638 10.7174955,14.6730455 10.7174955,15.7820425 L7.89905732,15.7820425 C7.89905732,14.6730455 7.87920916,13.4919638 7.89905732,12.4439617 L10.7174955,12.4439617 Z" id="Path" fill="#FFFFFF" transform="translate(9.308276, 14.113002) rotate(-27.315570) translate(-9.308276, -14.113002) "></path>
                                <path d="M10.3602287,12.6380361 C10.3800768,13.6915832 10.3602287,14.4734261 10.3602287,15.587968 L8.25632413,15.587968 C8.25632413,14.4789711 8.23647597,13.6860383 8.25632413,12.6380361 L10.3602287,12.6380361 Z" id="Path" fill="#FFFFFF" transform="translate(9.308276, 14.113002) rotate(-27.315570) translate(-9.308276, -14.113002) "></path>
                                <path d="M5.78017176,13.6450913 L7.18939083,13.6450913 L7.18939083,15.8076354 L5.78017176,15.8076354 L5.78017176,13.6450913 Z M5.78017176,13.6450913 L7.18939083,15.8076354 L5.78017176,13.6450913 Z M5.78017176,15.8076354 L7.18939083,13.6450913 L5.78017176,15.8076354 Z M5.78017176,2.66611659 L7.18939083,2.66611659 L5.78017176,2.66611659 Z" id="Shape" fill="#FFFFFF" fill-rule="nonzero" transform="translate(6.484781, 9.225738) rotate(-27.315570) translate(-6.484781, -9.225738) "></path>
                                <circle id="Oval" fill="#EF0000" transform="translate(2.566359, 2.451425) rotate(13.081002) translate(-2.566359, -2.451425) " cx="2.56635912" cy="2.45142482" r="1"></circle>
                            </g>
                            <path d="M24.4324138,26.2867476 C24.6159533,41.1517885 27.109931,44.3103867 24.8102892,44.3103867 C22.5106475,44.3103867 21.3662248,36.092678 21.3662248,25.9744568 C21.3662248,15.8562357 22.8993193,7.63852702 25.1989611,7.63852702 C27.4986028,7.63852702 24.2272815,10.4848344 24.4324138,26.2867476 Z" id="Path" stroke="#EF2D28" stroke-width="0.25" fill="#FFFFFF" transform="translate(23.694090, 25.974457) rotate(-37.198709) translate(-23.694090, -25.974457) "></path>
                            <path d="M33.5657925,33.535775 L29.825685,34.51724 C33.3425025,37.860875 37.2996975,39.23049 38.39754,38.64272 C39.4953825,38.05495 36.4189425,36.67979 33.55959,33.54132 L33.5657925,33.535775 Z" id="Path" stroke="#EF2D28" stroke-width="0.25" fill="#FFFFFF"></path>
                            <path d="M33.5671819,33.8940244 L30.4858256,34.67781 C33.9115688,37.8929306 37.3010606,38.8046812 38.1771325,38.4101225 C39.0592463,38.0208956 36.3464444,36.9171975 33.5671819,33.8940244 Z" id="Path" stroke="#EF2D28" stroke-width="0.25" fill="#FFFFFF"></path>
                            <path d="M22.1113494,25.4467463 C22.1200856,25.4971781 22.1462944,25.7221819 22.168135,25.8114075 C22.168135,25.9355475 22.1812394,26.0286525 22.1943437,26.1256369 C22.2292887,26.2109831 22.2249206,26.2885706 22.3297556,26.3196056 C22.3781756,26.3971974 22.4553474,26.45751 22.5481619,26.4902981 C22.6321038,26.5500855 22.7246505,26.5996614 22.8233537,26.6377144 C22.9266118,26.6775841 23.0418812,26.6857739 23.1509631,26.6609906 C23.2470619,26.6028 23.3169519,26.54073 23.3955781,26.4902981 C23.4130506,26.4127106 23.4305231,26.3002088 23.4523637,26.2226213 C23.4182469,26.3260748 23.3991637,26.4329777 23.3955781,26.54073 C23.4043144,26.6571113 23.4523637,26.7114225 23.5047813,26.8045275" id="Path" stroke="#EF2D28" stroke-width="0.25"></path>
                            <path d="M23.1032287,27.0706994 L23.1294375,27.0474231 C23.0639156,27.1056137 23.0901244,27.0784581 23.2386406,26.9969913 C23.3434756,26.9504387 23.4570469,26.9271625 23.5924588,26.9038863 L23.9768538,26.9038863 C24.12537,26.9038863 24.2258369,26.9232831 24.3306719,26.9504388 C24.4092981,27.0202675 24.5228694,27.0590613 24.6058638,27.1211313 C24.6796276,27.1706317 24.735745,27.237981 24.7674844,27.3151 C24.8417425,27.3810494 24.8897919,27.4819131 24.9596819,27.532345 C24.9902588,27.6448469 25.0514125,27.6409675 25.0950938,27.7263138 C24.96405,27.7340725 24.8635831,27.74959 24.7936931,27.8232981 C24.6801219,27.87373 24.8897919,27.7728663 24.9334731,27.7263138 C25.0208356,27.7030375 25.0426763,27.6797613 25.1780881,27.6797613 C25.3003956,27.6409675 25.3790219,27.7069169 25.5056975,27.7263138 C25.5799556,27.7651075 25.6017963,27.7767456 25.697895,27.7767456" id="Path" stroke="#EF2D28" stroke-width="0.25"></path>
                            <path d="M24.5742556,28.3090894 C24.6310412,28.3090894 24.8843925,28.3517625 24.9848594,28.3090894 C25.0984306,28.2819338 25.1595844,28.2315019 25.2294744,28.1383969 C25.2644194,28.0724475 25.2294744,28.2547781 25.2294744,28.3323656 C25.2425787,28.4759025 25.2906281,28.4759025 25.3692544,28.5728869 C25.4478806,28.6194394 25.530875,28.6815094 25.6138694,28.7203031 C25.6866631,28.7730468 25.769511,28.8137775 25.8584844,28.8405638 C25.9458469,28.8793575 26.0375775,28.9103925 26.1030994,28.9608244 C26.19483,29.019015 26.1904619,29.0888438 26.2428794,29.1819488 C26.229775,29.29833 26.2079344,29.3681588 26.1336763,29.42247 C26.0987313,29.5039369 26.0288413,29.5854038 25.9676875,29.639715 C25.9021656,29.7560963 25.8235394,29.8065281 25.9938963,29.8336838 C26.089995,29.8724775 26.1424125,29.8414425 26.2428794,29.8336838" id="Path" stroke="#EF2D28" stroke-width="0.25"></path>
                            <path d="M26.3057088,29.9996369 C26.3755988,29.9841194 26.6114775,29.9142906 26.7163125,29.8793763 L27.1007075,29.8793763 C27.2448556,29.8910144 27.2754325,29.9298081 27.39774,29.9763606 C27.4807344,30.0500688 27.5331519,30.1005006 27.6467231,30.1470531 C27.7035087,30.2130025 27.8214481,30.3293838 27.8651294,30.41473 C27.9010846,30.515044 27.9187797,30.619812 27.9175469,30.72508 C27.9175469,30.8686169 27.8738656,30.8957725 27.8651294,31.0199125 C27.8345474,31.1265517 27.7778732,31.225893 27.6991406,31.3108656 C27.6860363,31.3419006 27.6773,31.3496594 27.6467231,31.3574181" id="Path" stroke="#EF2D28" stroke-width="0.25"></path>
                            <path d="M27.6253263,31.6736937 C27.6377312,31.6736937 27.6625413,31.7349375 27.7028575,31.7869947 C27.7927938,31.8788603 27.8020975,31.8849847 27.9354512,31.8849847 C28.0595013,31.8788603 28.043995,31.8359897 28.13083,31.80843 C28.1711462,31.7471862 28.2207662,31.6981913 28.267285,31.6155122 C28.2982975,31.5665172 28.3262087,31.4899625 28.3603225,31.4440297 C28.3975375,31.3858481 28.440955,31.3429775 28.47817,31.2909203 C28.515385,31.2756094 28.52779,31.2602984 28.57741,31.2511119 C28.465765,31.269485 28.45336,31.3092934 28.3820312,31.367475 C28.3468609,31.422873 28.3147672,31.4801183 28.2858925,31.5389575 C28.2734875,31.6216366 28.2486775,31.6859425 28.2455762,31.7869947 C28.2455762,31.8941713 28.2455762,31.9676637 28.2858925,32.0564672 C28.3324112,32.1024 28.3634237,32.151395 28.4223475,32.1912034 C28.471362,32.238185 28.5159934,32.2894283 28.5557012,32.3443128 L28.7324725,32.4576138 C28.788295,32.4912978 28.8534212,32.5249819 28.9433575,32.5341684 C29.0581037,32.5249819 29.0922175,32.49436 29.1759512,32.4576138 C29.2503812,32.4055566 29.3062037,32.3718725 29.37133,32.3228775 C29.4247741,32.2793335 29.4708384,32.2276471 29.507785,32.1697681 C29.6101262,32.1452706 29.6783537,32.1544572 29.7403787,32.2095766 C29.7929917,32.2458364 29.8382292,32.2915428 29.8737325,32.3443128 C29.904745,32.3596238 29.9605675,32.4055566 29.99158,32.4208675" id="Path" stroke="#EF2D28" stroke-width="0.25"></path>
                            <path d="M29.7371388,32.4520841 C29.7062938,32.4635487 29.590625,32.5438016 29.5443575,32.5705525 C29.5135125,32.6737347 29.4633894,32.7272366 29.4479669,32.8380619 C29.4209775,32.9374225 29.4209775,33.0520694 29.4209775,33.1705378 C29.4479669,33.2928278 29.49809,33.3807238 29.5443575,33.4762628 C29.62147,33.5297647 29.6600263,33.5679803 29.7602725,33.6214822 C29.8566631,33.6367684 29.9530538,33.6482331 30.0725781,33.6482331 C30.1496906,33.6711625 30.2884931,33.6826272 30.36175,33.6482331 C30.4697075,33.6329469 30.5506756,33.5909097 30.6277881,33.5526941 C30.7164675,33.5030138 30.7704463,33.4533334 30.8668369,33.4074747 C30.91696,33.3386866 30.9902169,33.27372 31.0596181,33.1934672 C31.1213081,33.1132144 31.16372,33.0673556 31.2061319,32.9794597 C31.1675756,33.0788203 31.1174525,33.1705378 31.0866075,33.2660769 C31.0287731,33.3654375 30.9979281,33.4036531 30.9902169,33.5259431 C30.9516606,33.6253038 30.9632275,33.7475938 30.9632275,33.8622406 C30.9747944,33.9386719 30.97865,34.0838912 31.0133506,34.1488578 L31.0133506,34.2214675" id="Path" stroke="#EF2D28" stroke-width="0.25"></path>
                            <path d="M33.2928825,34.62814 L33.2928825,34.666955 C33.2928825,34.57269 33.2928825,34.61705 33.249465,34.80558 C33.1812375,34.88321 33.001365,34.90539 32.86491,34.87212 C32.74086,34.777855 32.74086,34.70577 32.51757,34.666955 C32.29428,34.678045 32.207445,34.733495 32.083395,34.80558 C31.9514894,34.8494027 31.8414816,34.9339805 31.77327,35.044015 C31.7298525,35.16046 31.7050425,35.243635 31.8539025,35.287995 C31.9835645,35.365614 32.13275,35.4132465 32.2880775,35.42662 C32.4617475,35.42662 32.592,35.409985 32.6726325,35.498705 C32.7966825,35.609605 32.7842775,35.676145 32.7842775,35.875765 C32.827695,35.93676 32.8338975,36.119745 32.86491,36.19183 C32.9716675,36.2420816 33.0918339,36.2651019 33.21225,36.25837 C33.2556675,36.14747 33.299085,35.95894 33.3300975,35.842495 C33.36111,35.720505 33.3673125,35.543065 33.447945,35.45989 C33.5190661,35.3644171 33.6095218,35.2816696 33.7146525,35.21591 C33.7773786,35.1523264 33.8591719,35.1061436 33.9503475,35.08283 C33.795285,35.14937 33.7766775,35.227 33.75807,35.39335 C33.8883225,35.4488 33.9255375,35.49316 34.142625,35.498705 C34.3597125,35.48207 34.4093325,35.432165 34.489965,35.321265 C34.5085725,35.498705 34.5705975,35.554155 34.614015,35.709415 C34.688445,35.809225 34.7194575,35.91458 34.80009,36.053205 C34.7690775,36.219555 34.6946475,36.2251 34.688445,36.430265 C34.638825,36.56889 34.638825,36.696425 34.5333825,36.7796 C34.4837625,36.83505 34.4465475,36.840595 34.3349025,36.84614 C34.5581925,36.84614 34.6946475,36.82396 34.8435075,36.74633 C34.9551525,36.67979 35.0419875,36.60216 35.1536325,36.53562 C35.293549,36.4413603 35.4510481,36.37002 35.61882,36.32491 C35.7986925,36.32491 35.928945,36.308275 36.003375,36.396995 C36.11502,36.46908 36.18945,36.59107 36.23907,36.74633 C36.2700825,36.92377 36.28869,37.04576 36.1956525,37.162205 C36.1336275,37.295285 36.11502,37.34519 36.1956525,37.505995 C36.28869,37.616895 36.4189425,37.63353 36.6298275,37.67789 C36.772485,37.672345 36.9151425,37.64462 37.0143825,37.61135" id="Path" stroke="#EF2D28" stroke-width="0.25"></path>
                            <g transform="translate(3.812400, 0.182600)" stroke="#EF2D28" stroke-width="0.25">
                                <path d="M4.12555791,16.5210541 C4.12555791,7.30649489 4.91948416,-0.178940028 5.88211972,-0.178940028 C6.85467937,-0.178940028 7.63868153,7.30649489 7.63868153,16.5210541 L4.12555791,16.5210541 Z" id="Path" fill="#FFFFFF" transform="translate(5.882120, 8.171057) rotate(-27.315702) translate(-5.882120, -8.171057) "></path>
                                <path d="M4.6283853,16.4938932 C4.6283853,7.60451131 5.26353648,0.383233753 6.03365728,0.383233753 C6.81171747,0.383233753 7.43892926,7.60451131 7.43892926,16.4938932" id="Path" fill="#FFFFFF" transform="translate(6.033657, 8.438563) rotate(-27.315666) translate(-6.033657, -8.438563) "></path>
                                <path d="M10.7174955,12.4439617 C10.7373436,13.4919638 10.7174955,14.6730455 10.7174955,15.7820425 L7.89905732,15.7820425 C7.89905732,14.6730455 7.87920916,13.4919638 7.89905732,12.4439617 L10.7174955,12.4439617 Z" id="Path" fill="#FFFFFF" transform="translate(9.308276, 14.113002) rotate(-27.315570) translate(-9.308276, -14.113002) "></path>
                                <path d="M10.3602287,12.6380361 C10.3800768,13.6915832 10.3602287,14.4734261 10.3602287,15.587968 L8.25632413,15.587968 C8.25632413,14.4789711 8.23647597,13.6860383 8.25632413,12.6380361 L10.3602287,12.6380361 Z" id="Path" fill="#FFFFFF" transform="translate(9.308276, 14.113002) rotate(-27.315570) translate(-9.308276, -14.113002) "></path>
                                <path d="M5.78017176,13.6450913 L7.18939083,13.6450913 L7.18939083,15.8076354 L5.78017176,15.8076354 L5.78017176,13.6450913 Z M5.78017176,13.6450913 L7.18939083,15.8076354 L5.78017176,13.6450913 Z M5.78017176,15.8076354 L7.18939083,13.6450913 L5.78017176,15.8076354 Z M5.78017176,2.66611659 L7.18939083,2.66611659 L5.78017176,2.66611659 Z" id="Shape" fill="#FFFFFF" fill-rule="nonzero" transform="translate(6.484781, 9.225738) rotate(-27.315570) translate(-6.484781, -9.225738) "></path>
                                <circle id="Oval" fill="#EF0000" transform="translate(2.566359, 2.451425) rotate(13.081002) translate(-2.566359, -2.451425) " cx="2.56635912" cy="2.45142482" r="1"></circle>
                            </g>
                            <g transform="translate(1.889625, 0.293500)" fill="#FFFFFF" stroke="#EF2D28" stroke-width="0.25">
                                <path d="M14.3126707,12.027105 C14.3126707,18.902905 14.3540196,21.49242 13.8495623,21.8473 C13.3699142,22.229905 0.0307377293,21.8473 0.0307377293,23.81023 C0.0307377293,25.77316 11.0130232,27.74718 14.3126707,27.74718 C18.7122007,27.74718 20.9036959,25.778705 20.9036959,21.8473 L20.9036959,12.03265 L14.3126707,12.03265 L14.3126707,12.027105 Z" id="Path"></path>
                                <path d="M14.31537,13.9898149 L14.31537,14.9712701 C16.4958349,15.2981248 18.7219601,15.2981248 20.902425,14.9712701 L20.902425,13.9898149 C18.7219601,14.3166696 16.4958349,14.3166696 14.31537,13.9898149 Z" id="Path"></path>
                                <path d="M14.31537,12.0268849 L14.31537,13.0083401 C16.4958349,13.3351948 18.7219601,13.3351948 20.902425,13.0083401 L20.902425,12.0268849 C18.7219601,12.3537396 16.4958349,12.3537396 14.31537,12.0268849 Z" id="Path"></path>
                                <path d="M14.31537,13.0083499 L14.31537,13.9898051 C16.4958349,14.3166598 18.7219601,14.3166598 20.902425,13.9898051 L20.902425,13.0083499 C18.7219601,13.3352046 16.4958349,13.3352046 14.31537,13.0083499 Z" id="Path"></path>
                                <path d="M14.31537,14.9712799 L14.31537,15.9527351 C16.4958349,16.2795898 18.7219601,16.2795898 20.902425,15.9527351 L20.902425,14.9712799 C18.7219601,15.2981346 16.4958349,15.2981346 14.31537,14.9712799 Z" id="Path"></path>
                                <ellipse id="Oval" cx="14.6147092" cy="13.5641437" rx="1" ry="1"></ellipse>
                                <ellipse id="Oval" cx="15.8123455" cy="13.6698295" rx="1" ry="1"></ellipse>
                                <ellipse id="Oval" cx="17.0133651" cy="13.7777236" rx="1" ry="1"></ellipse>
                                <ellipse id="Oval" cx="18.2110015" cy="13.7777236" rx="1" ry="1"></ellipse>
                                <ellipse id="Oval" cx="19.4086378" cy="13.6698295" rx="1" ry="1"></ellipse>
                                <ellipse id="Oval" cx="20.6096574" cy="13.5641437" rx="1" ry="1"></ellipse>
                                <path d="M14.31537,16.93443 L20.902425,22.240995 M14.972835,16.93443 L20.9086275,21.64768 M15.8473875,17.13405 L20.9086275,21.065455 M16.5048525,17.128505 L20.9086275,20.47214 M17.16852,17.13405 L20.902425,19.88437 M17.825985,17.13405 L20.902425,19.2966 M18.48345,17.13405 L20.902425,18.703285 M19.15332,17.13405 L20.91483,18.30959 M19.8045825,17.13405 L20.9086275,17.92144 M20.46825,17.13405 L20.902425,17.5222 M14.31537,17.5222 L20.902425,22.83431 M20.902425,16.939975 L13.6455,22.828765 M20.2387575,16.93443 L13.86879,22.04692 M19.364205,17.13405 L14.3091675,21.05991 M18.7005375,17.13405 L14.3091675,20.47214 M18.049275,17.13405 L14.31537,19.88437 M17.39181,17.13405 L14.31537,19.2966 M16.734345,17.13405 L14.31537,18.703285 M16.064475,17.13405 L14.3091675,18.30959 M15.40701,17.13405 L14.3091675,17.92144 M14.7433425,17.13405 L14.3091675,17.5222 M20.902425,17.5222 L13.6455,23.427625 M20.902425,18.12106 L13.6455,24.00985 M20.902425,18.703285 L13.6455,24.59762 M20.902425,19.291055 L13.6455,25.19648 M20.902425,19.889915 L13.6455,25.778705 M20.902425,20.47214 L13.6455,26.366475 M20.902425,21.05991 L13.6455,26.954245 M20.902425,21.653225 L13.6455,27.54756 M20.902425,22.240995 L14.0858775,27.741635 M20.902425,22.828765 L14.749545,27.741635 M20.679135,23.616155 L15.841185,27.54756 M20.46825,24.398 L16.511055,27.542015 M20.0278725,25.379465 L18.0430725,26.9487 M14.31537,18.10997 L20.6853375,23.216915 M14.31537,18.69774 L20.6853375,23.81023 M14.31537,19.2966 L20.46825,24.203925 M14.31537,19.878825 L20.46825,24.79724 M14.31537,20.47214 L20.24496,25.18539 M14.09208,20.865835 L20.0278725,25.579085 M14.09208,21.45915 L19.587495,25.78425 M13.8749925,21.8473 L19.3704075,26.1724 M13.6455,22.23545 L18.917625,26.36093 M13.6455,22.82322 L18.7005375,26.754625 M13.6455,23.416535 L18.049275,26.9487" id="Shape"></path>
                                <path d="M14.31537,15.9582899 L14.31537,16.9397451 C16.4958349,17.2665998 18.7219601,17.2665998 20.902425,16.9397451 L20.902425,15.9582899 C18.7219601,16.2851446 16.4958349,16.2851446 14.31537,15.9582899 Z" id="Path"></path>
                                <path d="M13.6517025,24.00985 L17.6088975,27.153865 M13.6517025,24.603165 L17.16852,27.34794 M13.6517025,25.18539 L16.7281425,27.54756 M13.6517025,25.77316 L15.85359,27.54756 M13.6455,26.366475 L15.40701,27.741635 M13.6455,26.954245 L14.7433425,27.741635" id="Shape"></path>
                                <ellipse id="Oval" cx="14.6147092" cy="16.5140837" rx="1" ry="1"></ellipse>
                                <ellipse id="Oval" cx="15.8123455" cy="16.6197695" rx="1" ry="1"></ellipse>
                                <ellipse id="Oval" cx="17.0133651" cy="16.7221186" rx="1" ry="1"></ellipse>
                                <ellipse id="Oval" cx="18.2110015" cy="16.7221186" rx="1" ry="1"></ellipse>
                                <ellipse id="Oval" cx="19.4086378" cy="16.6197695" rx="1" ry="1"></ellipse>
                                <ellipse id="Oval" cx="20.6096574" cy="16.5140837" rx="1" ry="1"></ellipse>
                                <path d="M4.86276,26.1724 L12.7709475,22.04692 M4.4223825,25.97278 L11.896395,22.04692 M4.205295,25.579085 L11.01564,22.04692 M3.982005,25.190935 L9.9177975,22.04692 M3.535425,24.79724 L9.03084,22.04692 M3.758715,24.20947 L7.49262,22.240995 M3.535425,23.81023 L6.388575,22.240995 M3.535425,23.22246 L5.520225,22.240995 M5.520225,26.366475 L12.988035,22.43507 M6.1838925,26.56055 L13.211325,22.828765 M6.8413575,26.76017 L13.434615,23.22246 M7.4988225,26.954245 L12.9942375,24.00985 M8.373375,26.954245 L13.211325,24.403545 M9.03084,27.153865 L13.2051225,24.991315 M9.688305,27.34794 L12.988035,25.579085 M10.56906,27.353485 L13.2051225,25.97278 M11.449815,27.54756 L13.211325,26.56055 M12.342975,27.54756 L13.4408175,26.95979" id="Shape"></path>
                                <path d="M9.88948856,24.1839419 L9.88948856,25.1653971 C12.0699534,25.4922518 14.2960787,25.4922518 16.4765436,25.1653971 L16.4765436,24.1839419 C14.2960787,24.5107966 12.0699534,24.5107966 9.88948856,24.1839419 Z" id="Path" transform="translate(13.183016, 24.797240) rotate(90.000000) translate(-13.183016, -24.797240) "></path>
                                <path d="M0.905565,24.59762 L3.5416275,22.63469 M0.905565,23.22246 L3.5416275,25.579085" id="Shape"></path>
                                <path d="M1.78519502,23.6121221 L2.00517586,24.7920981 C3.39969727,25.0538221 4.57030961,25.0538221 5.96483102,24.7920981 L6.40086448,23.6121221 C5.0102713,23.8738461 3.17971643,23.8738461 1.78519502,23.6121221 Z" id="Path" transform="translate(4.093030, 24.300257) rotate(90.000000) translate(-4.093030, -24.300257) "></path>
                                <path d="M20.9030583,12.415255 L20.9030583,11.4227 C19.9086853,11.43379 19.2488677,10.840475 19.2488677,10.24716 L15.9590728,10.252705 C15.9590728,10.840475 15.3085484,11.43379 14.3141754,11.43379 L14.3141754,12.415255 L20.9030583,12.415255 Z" id="Path"></path>
                                <path d="M16.188525,9.077165 L19.016865,9.077165 L19.016865,10.25825 L16.188525,10.25825 L16.188525,9.077165 Z M16.4304225,7.89608 L18.78117,7.89608 L18.78117,9.077165 L16.42422,9.077165 L16.4304225,7.89608 Z M16.4304225,6.72054 L18.78117,6.72054 L18.78117,7.89608 L16.42422,7.89608 L16.4304225,6.72054 Z M16.6661175,5.14576 L18.545475,5.14576 L18.545475,6.72054 L16.6661175,6.72054 L16.6661175,5.14576 Z M16.585485,3.7706 L18.63231,3.7706 L18.63231,5.14576 L16.585485,5.14576 L16.585485,3.7706 Z" id="Shape"></path>
                                <ellipse id="Oval" cx="17.7146762" cy="2.49525" rx="2.72384338" ry="1.868665"></ellipse>
                                <path d="M19.0798024,2.39544 C19.0798024,2.911125 19.759161,3.7706 19.759161,3.7706 C19.2656646,4.11439 18.4645342,4.363915 17.7146762,4.363915 C16.9648181,4.363915 16.0290978,4.219745 15.6701914,3.7706 C15.6701914,3.7706 16.34955,2.91667 16.34955,2.400985 C16.34955,1.8853 15.6701914,1.2199 15.6701914,1.2199 C16.2650548,0.841725324 16.9829106,0.635993524 17.7210852,0.63213 C18.4645342,0.63213 19.2592556,0.881655 19.759161,1.2199 C19.759161,1.2199 19.0798024,1.8853 19.0798024,2.400985 L19.0798024,2.39544 Z" id="Path"></path>
                                <path d="M18.6247603,2.39544 C18.6247603,2.911125 19.3041189,3.97022 19.3041189,3.97022 C18.8106226,4.30292 18.4709433,4.35837 17.7146762,4.35837 C16.9584091,4.35837 16.4841399,4.419365 16.1252334,3.97022 C16.1252334,3.97022 16.804592,2.91667 16.804592,2.39544 C16.804592,1.87421 16.1252334,1.02028 16.1252334,1.02028 C16.6187298,0.68758 16.9584091,0.63213 17.7146762,0.63213 C18.4645342,0.63213 18.8106226,0.68758 19.3041189,1.02028 C19.3041189,1.02028 18.6247603,1.879755 18.6247603,2.39544 Z" id="Path"></path>
                                <ellipse id="Oval" cx="14.9908328" cy="2.589515" rx="1" ry="1"></ellipse>
                                <ellipse id="Oval" cx="20.4428303" cy="2.589515" rx="1" ry="1"></ellipse>
                                <ellipse id="Oval" cx="17.7199328" cy="2.589515" rx="1" ry="1"></ellipse>
                                <ellipse id="Oval" cx="17.7199328" cy="0.626585" rx="1" ry="1"></ellipse>
                                <ellipse id="Oval" cx="15.7284223" cy="11.827485" rx="1" ry="1"></ellipse>
                                <ellipse id="Oval" cx="19.4871373" cy="11.827485" rx="1" ry="1"></ellipse>
                                <polygon id="Path" points="15.9605534 10.252705 19.2529594 10.252705 17.6067564 12.02156 15.9605534 10.252705"></polygon>
                                <ellipse id="Oval" cx="17.6040782" cy="11.6275573" rx="1" ry="1"></ellipse>
                            </g>
                            <g transform="translate(8.370525, 16.388300)" fill="#FFFFFF" stroke="#EF2D28" stroke-width="0.25">
                                <rect id="Rectangle" x="7.51743" y="1.40843" width="5.0550375" height="1.181085" rx="0.5905425"></rect>
                                <path d="M14.1106875,0.426965 C13.5028425,0.426965 13.012845,0.8872 13.012845,1.45279 L13.012845,2.345535 C13.0045179,2.6121565 13.1159068,2.87066574 13.3221613,3.06339006 C13.5284157,3.25611438 13.8123746,3.36701848 14.1106875,3.37136 C14.4090004,3.36701848 14.6929593,3.25611438 14.8992137,3.06339006 C15.1054682,2.87066574 15.2168571,2.6121565 15.20853,2.345535 L15.20853,1.458335 C15.2185509,1.19076861 15.1079166,0.93081987 14.9014792,0.736881956 C14.6950419,0.542944042 14.4101095,0.431277006 14.1106875,0.426965 Z M14.1106875,0.815115 C13.74474,0.815115 13.4532225,1.18663 13.4532225,1.64132 L13.4532225,2.157005 C13.4532225,2.611695 13.74474,2.977665 14.1106875,2.977665 C14.476635,2.977665 14.7681525,2.611695 14.7681525,2.157005 L14.7681525,1.64132 C14.7681525,1.18663 14.476635,0.82066 14.1106875,0.82066 L14.1106875,0.815115 Z M8.398185,0.62104 C8.026035,0.62104 7.74072,0.98701 7.74072,1.447245 L7.74072,2.356625 C7.74072,2.811315 8.0322375,3.177285 8.398185,3.177285 C8.7641325,3.177285 9.05565,2.811315 9.05565,2.356625 L9.05565,1.4417 C9.05565,0.981465 8.7641325,0.615495 8.398185,0.615495 L8.398185,0.62104 Z M8.398185,0.23289 C8.09987207,0.237231516 7.8159132,0.348135625 7.60965877,0.540859943 C7.40340435,0.733584262 7.29201541,0.992093499 7.3003425,1.258715 L7.3003425,2.545155 C7.29201541,2.8117765 7.40340435,3.07028574 7.60965877,3.26301006 C7.8159132,3.45573438 8.09987207,3.56663848 8.398185,3.57098 C9.00603,3.57098 9.4960275,3.110745 9.4960275,2.545155 L9.4960275,1.258715 C9.50604837,0.991148614 9.39541405,0.73119987 9.18897671,0.537261956 C8.98253936,0.343324042 8.69760701,0.231657006 8.398185,0.227345 L8.398185,0.23289 Z" id="Shape"></path>
                                <path d="M6.636675,1.014735 C6.2707275,1.014735 5.97921,1.380705 5.97921,1.835395 L5.97921,2.05165 C5.97921,2.50634 6.2707275,2.87231 6.636675,2.87231 C7.008825,2.87231 7.3003425,2.50634 7.3003425,2.05165 L7.3003425,1.835395 C7.3003425,1.380705 7.0026225,1.014735 6.636675,1.014735 Z M6.636675,0.626585 C6.33836207,0.630926516 6.0544032,0.741830625 5.84814877,0.934554943 C5.64189435,1.12727926 5.53050541,1.3857885 5.5388325,1.65241 L5.5388325,2.24018 C5.53050541,2.5068015 5.64189435,2.76531074 5.84814877,2.95803506 C6.0544032,3.15075938 6.33836207,3.26166348 6.636675,3.266005 C7.24452,3.266005 7.74072,2.80577 7.74072,2.24018 L7.74072,1.65241 C7.75075413,1.38389494 7.63927814,1.1231022 7.43149761,0.928999065 C7.22371709,0.734895929 6.93718013,0.623875366 6.636675,0.62104 L6.636675,0.626585 Z" id="Shape"></path>
                                <path d="M4.0080555,0.472336408 C3.3381855,0.472336408 2.813454,0.88134448 2.813454,1.38950602 L2.813454,2.4120262 C2.813454,2.91399066 3.34935,3.32919582 4.0080555,3.32919582 C4.6555965,3.32919582 5.1914925,2.92018775 5.1914925,2.40582911 L5.1914925,1.38950602 C5.1914925,0.88134448 4.6555965,0.472336408 4.0080555,0.472336408 Z M4.0080555,0.038539968 C3.47112804,0.0417776474 2.9588655,0.164152301 2.58552249,0.378369585 C2.21217948,0.592586869 2.00881039,0.880828355 2.0207745,1.1788049 L2.0207745,2.61653024 C2.00273693,2.91556243 2.2018787,3.20608115 2.57346592,3.42282616 C2.94505314,3.63957117 3.45793137,3.76437025 3.996891,3.76918935 C5.1021765,3.76918935 5.984172,3.25483072 5.984172,2.61653024 L5.984172,1.1788049 C5.99916077,0.880828707 5.79866068,0.591918783 5.42740271,0.376530084 C5.05614474,0.161141386 4.54501877,0.0371949543 4.0080555,0.032342876 L4.0080555,0.038539968 Z" id="Shape"></path>
                                <path d="M18.292413,0.666411408 C17.622543,0.666411408 17.0978115,1.07541948 17.0978115,1.58358102 L17.0978115,2.6061012 C17.0978115,3.10806566 17.6337075,3.52327082 18.292413,3.52327082 C18.939954,3.52327082 19.47585,3.11426275 19.47585,2.59990411 L19.47585,1.58358102 C19.47585,1.07541948 18.939954,0.666411408 18.292413,0.666411408 Z M18.292413,0.232614968 C17.7554855,0.235852647 17.243223,0.358227301 16.86988,0.572444585 C16.496537,0.786661869 16.2931679,1.07490336 16.305132,1.3728799 L16.305132,2.81060524 C16.2870944,3.10963743 16.4862362,3.40015615 16.8578234,3.61690116 C17.2294106,3.83364617 17.7422889,3.95844525 18.2812485,3.96326435 C19.386534,3.96326435 20.2685295,3.44890572 20.2685295,2.81060524 L20.2685295,1.3728799 C20.2835183,1.07490371 20.0830182,0.785993783 19.7117602,0.570605084 C19.3405022,0.355216386 18.8293763,0.231269954 18.292413,0.226417876 L18.292413,0.232614968 Z" id="Shape"></path>
                                <rect id="Rectangle" x="14.551065" y="1.40843" width="2.6360625" height="1.181085" rx="0.5905425"></rect>
                                <rect id="Rectangle" x="12.13209" y="1.214355" width="1.53822" height="1.57478" rx="0.76911"></rect>
                                <rect id="Rectangle" x="4.8813675" y="1.214355" width="1.53822" height="1.57478" rx="0.76911"></rect>
                                <rect id="Rectangle" x="0.0434175" y="1.014735" width="3.07644" height="1.96293" rx="0.981465"></rect>
                                <rect id="Rectangle" x="19.165725" y="1.214355" width="2.8593525" height="1.96293" rx="0.981465"></rect>
                            </g>
                        </g>
                    </g>
                </g>
            </g>
        </g>
    </g>
</svg>