<?xml version="1.0" encoding="UTF-8"?>
<svg width="200px" height="141px" viewBox="0 0 200 141" version="1.1" xmlns="http://www.w3.org/2000/svg" xmlns:xlink="http://www.w3.org/1999/xlink">
    <!-- Generator: Sketch 52.5 (67469) - http://www.bohemiancoding.com/sketch -->
    <title>pk</title>
    <desc>Created with Sketch.</desc>
    <defs>
        <polygon id="path-1" points="0.204678363 0 199.795322 0 199.795322 140.707602 0.204678363 140.707602"></polygon>
    </defs>
    <g id="Flags" stroke="none" stroke-width="1" fill="none" fill-rule="evenodd">
        <g id="Asia" transform="translate(-510.000000, -1250.000000)">
            <g id="pk" transform="translate(510.000000, 1250.000000)">
                <mask id="mask-2" fill="white">
                    <use xlink:href="#path-1"></use>
                </mask>
                <g id="Path"></g>
                <g id="Group" mask="url(#mask-2)">
                    <polygon id="Path" fill="#0C590B" points="0 0 210.526316 0 210.526316 140.350877 0 140.350877"></polygon>
                    <polygon id="Path" fill="#FFFFFF" points="0 0 52.7686404 0 52.7686404 140.350877 0 140.350877"></polygon>
                    <g transform="translate(76.206140, 38.103070)" fill="#FFFFFF" id="Path">
                        <polygon points="60.4989035 23.6842105 51.9462719 21.875 47.4506579 29.3585526 46.5186404 20.6962719 38.0208333 18.7225877 45.9703947 15.1589912 45.2302632 6.46929825 51.0964912 12.9385965 59.1282895 9.53947368 54.7697368 17.1052632 60.5263158 23.6842105"></polygon>
                        <path d="M63.7061404,45.7785088 C60.0216007,53.8186917 53.2833704,60.0579538 44.9840105,63.1142586 C36.6846507,66.1705635 27.5092188,65.7916333 19.4901316,62.0614035 C2.71573293,54.2948628 -4.5866261,34.4005368 3.17982456,17.6260965 C6.92521766,9.25267246 14.0336309,2.85111822 22.752193,-2.66453526e-14 C21.6234421,0.939840575 20.5437983,1.9371386 19.5175439,2.9879386 C8.40104302,15.2991383 9.0377582,34.2045158 20.9573887,45.7398805 C32.8770192,57.2752452 51.793108,57.292327 63.7335526,45.7785088 L63.7061404,45.7785088 Z"></path>
                    </g>
                </g>
            </g>
        </g>
    </g>
</svg>