<?xml version="1.0" encoding="UTF-8"?>
<svg width="200px" height="150px" viewBox="0 0 200 150" version="1.1" xmlns="http://www.w3.org/2000/svg" xmlns:xlink="http://www.w3.org/1999/xlink">
    <!-- Generator: Sketch 52.5 (67469) - http://www.bohemiancoding.com/sketch -->
    <title>pw</title>
    <desc>Created with Sketch.</desc>
    <defs>
        <polygon id="path-1" points="0.218408736 0 199.906396 0 199.906396 149.765991 0.218408736 149.765991"></polygon>
    </defs>
    <g id="Flags" stroke="none" stroke-width="1" fill="none" fill-rule="evenodd">
        <g id="Oceania" transform="translate(-1170.000000, -450.000000)">
            <g id="pw" transform="translate(1170.000000, 450.000000)">
                <mask id="mask-2" fill="white">
                    <use xlink:href="#path-1"></use>
                </mask>
                <g id="Path"></g>
                <g id="Group" mask="url(#mask-2)">
                    <g transform="translate(-32.702808, 0.000000)" id="Path">
                        <polygon fill="#4AADD6" points="0.187207488 0 264.24337 0 264.24337 149.765991 0.187207488 149.765991"></polygon>
                        <path d="M159.00156,72.4180967 C159.419897,87.1776759 151.433743,100.990756 138.147092,108.488582 C124.860441,115.986408 108.368889,115.986408 95.0822371,108.488582 C81.7955857,100.990756 73.8094321,87.1776759 74.2277691,72.4180967 C73.8094321,57.6585175 81.7955857,43.8454375 95.0822371,36.3476115 C108.368889,28.8497854 124.860441,28.8497854 138.147092,36.3476115 C151.433743,43.8454375 159.419897,57.6585175 159.00156,72.4180967 Z" fill="#FFDE00"></path>
                    </g>
                </g>
            </g>
        </g>
    </g>
</svg>