<?xml version="1.0" encoding="UTF-8"?>
<svg width="200px" height="149px" viewBox="0 0 200 149" version="1.1" xmlns="http://www.w3.org/2000/svg" xmlns:xlink="http://www.w3.org/1999/xlink">
    <!-- Generator: Sketch 52.5 (67469) - http://www.bohemiancoding.com/sketch -->
    <title>pa</title>
    <desc>Created with Sketch.</desc>
    <defs>
        <polygon id="path-1" points="0 0 200 0 200 150 0 150"></polygon>
    </defs>
    <g id="Flags" stroke="none" stroke-width="1" fill="none" fill-rule="evenodd">
        <g id="North-America" transform="translate(-730.000000, -850.000000)">
            <g id="pa" transform="translate(730.000000, 850.000000)">
                <mask id="mask-2" fill="white">
                    <use xlink:href="#path-1"></use>
                </mask>
                <g id="Path"></g>
                <g id="Group" mask="url(#mask-2)">
                    <g transform="translate(-1.000000, -1.000000)">
                        <polygon id="Path" fill="#FFFFFF" points="0 0 200 0 200 150 0 150"></polygon>
                        <polygon id="Path" fill="#FFFFFF" points="28.90625 0 178.03125 0 178.03125 150 28.875 150"></polygon>
                        <polygon id="Path" fill="#DB0000" points="100.9375 1.125 212.8125 1.125 212.8125 70.40625 100.9375 70.40625"></polygon>
                        <path d="M1,70.40625 L100.96875,70.40625 L100.96875,150 L1,150 L1,70.40625 Z M67.125,55.53125 L54,46.34375 L40.96875,55.59375 L45.8125,40.59375 L32.8125,31.25 L48.9375,31.125 L53.9375,16.125 L59.03125,31.09375 L75.15625,31.09375 L62.1875,40.46875 L67.15625,55.46875 L67.125,55.53125 Z" id="Shape" fill="#0000AB"></path>
                        <polygon id="Path" fill="#D80000" points="161.53125 129.34375 148.28125 120.6875 135.125 129.4375 140 115.1875 126.875 106.4375 143.125 106.28125 148.1875 92.09375 153.3125 106.25 169.5625 106.25 156.5 115.15625 161.5 129.34375"></polygon>
                    </g>
                </g>
            </g>
        </g>
    </g>
</svg>