<?xml version="1.0" encoding="UTF-8"?>
<svg width="200px" height="141px" viewBox="0 0 200 141" version="1.1" xmlns="http://www.w3.org/2000/svg" xmlns:xlink="http://www.w3.org/1999/xlink">
    <!-- Generator: Sketch 52.5 (67469) - http://www.bohemiancoding.com/sketch -->
    <title>kn</title>
    <desc>Created with Sketch.</desc>
    <defs>
        <polygon id="path-1" points="0.263157895 0 199.883041 0 199.883041 149.707602 0.263157895 149.707602"></polygon>
    </defs>
    <g id="Flags" stroke="none" stroke-width="1" fill="none" fill-rule="evenodd">
        <g id="North-America" transform="translate(-290.000000, -655.000000)">
            <g id="kn" transform="translate(290.000000, 650.000000)">
                <mask id="mask-2" fill="white">
                    <use xlink:href="#path-1"></use>
                </mask>
                <g id="Path"></g>
                <g id="Group" mask="url(#mask-2)">
                    <g transform="translate(-1.000000, 5.000000)">
                        <polygon id="Path" fill="#FFE900" fill-rule="evenodd" points="0.328947368 0.0548245614 202.52193 0.0548245614 202.52193 140.213816 0.328947368 140.213816"></polygon>
                        <polygon id="Path" fill="#35A100" fill-rule="evenodd" points="0.219298246 0.0548245614 0.438596491 101.096491 157.785088 0"></polygon>
                        <polygon id="Path" fill="#C70000" fill-rule="evenodd" points="202.76864 140.213816 202.384868 35.1699561 43.6677632 140.296053"></polygon>
                        <polygon id="Path" fill="#000000" fill-rule="evenodd" points="0.301535088 108.717105 0.438596491 140.350877 34.7861842 140.296053 202.467105 27.8782895 202.302632 0.38377193 168.366228 0.0548245614 0.328947368 108.717105"></polygon>
                        <path d="M134.155702,42.9276316 L131.469298,31.3596491 L140.597588,38.7609649 L151.014254,32.0175439 L146.244518,43.3388158 L155.400219,50.7401316 L143.283991,50.3289474 L138.541667,61.6502193 L135.827851,50.0822368 L123.739035,49.6710526 L134.155702,42.9276316 Z M58.7171053,91.995614 L56.0032895,80.4002193 L65.1315789,87.8015351 L75.5482456,81.058114 L70.7785088,92.379386 L79.9342105,99.7807018 L67.8453947,99.3695175 L63.0756579,110.690789 L60.3892544,99.122807 L48.3004386,98.7116228 L58.7171053,91.995614 Z" id="Shape" fill="#FFFFFF" fill-rule="nonzero"></path>
                    </g>
                </g>
            </g>
        </g>
    </g>
</svg>