<?xml version="1.0" encoding="UTF-8"?>
<svg width="200px" height="136px" viewBox="0 0 200 136" version="1.1" xmlns="http://www.w3.org/2000/svg" xmlns:xlink="http://www.w3.org/1999/xlink">
    <!-- Generator: Sketch 52.5 (67469) - http://www.bohemiancoding.com/sketch -->
    <title>sa</title>
    <desc>Created with Sketch.</desc>
    <defs>
        <polygon id="path-1" points="0.204678363 0 199.795322 0 199.795322 135.707602 0.204678363 135.707602"></polygon>
    </defs>
    <g id="Flags" stroke="none" stroke-width="1" fill="none" fill-rule="evenodd">
        <g id="Asia" transform="translate(-1170.000000, -1250.000000)">
            <g id="sa" transform="translate(1170.000000, 1250.000000)">
                <mask id="mask-2" fill="white">
                    <use xlink:href="#path-1"></use>
                </mask>
                <g id="Path"></g>
                <g id="Group" mask="url(#mask-2)">
                    <polygon id="Path" fill="#199D00" points="0 0 200 0 200 136 0 136"></polygon>
                    <path d="M50.1297841,38.0490114 C49.9249678,41.2856272 49.6177435,46.9497048 52.2547524,47.5430844 C55.4038019,47.8667459 53.662864,41.9329503 54.8149553,40.8540784 C55.0197715,40.3146424 55.4038019,40.3146424 55.429404,40.9889374 L55.429404,46.0326637 C55.429404,47.6509716 56.4534851,48.1364639 57.221546,48.4601255 C58.0408109,48.4061819 58.6040555,48.4601255 58.9112799,49.2692794 L59.3209123,57.9811703 C59.3209123,57.9811703 61.2154624,58.5745498 61.3178705,53.0992748 C61.3946766,49.862659 60.7034219,47.192451 61.1130543,46.5720996 C61.1130543,45.9517483 61.8811152,45.9247765 62.3931557,46.2214662 C63.2124207,46.8148458 63.5708491,47.5700562 64.8509505,47.3003382 C66.7967047,46.7069586 67.974398,45.7090021 68,44.1446378 C67.9615728,42.607292 67.6579371,41.0901422 67.103929,39.6673193 C67.2063371,39.3976013 66.7455006,38.6693627 66.8479087,38.3996448 C67.1807351,38.9930243 67.7183777,38.9390807 67.8207858,38.3996448 C67.4879594,37.2668292 66.9759189,36.1609855 66.1566539,35.7024649 C65.4653992,35.0551418 64.441318,35.163029 64.1084917,36.5116189 C63.9036754,38.0490114 64.6205322,39.8561219 65.6702154,41.3665426 C65.9006337,41.9329503 66.207858,42.9039351 66.0798479,43.7670326 C65.5166032,44.117666 64.9533586,43.9558352 64.4669201,43.443371 C64.4669201,43.443371 62.9307983,42.2296401 62.9307983,41.9329503 C63.3404308,39.1818269 63.0076044,38.8581653 62.7771862,38.0759832 C62.623574,37.0240831 62.1371355,36.6734497 61.753105,35.9721829 C61.3690746,35.5406341 60.857034,35.5406341 60.6010137,35.9721829 C59.909759,37.2128856 60.2425853,39.8830937 60.7290239,41.0968246 C61.0874523,42.2026683 61.6250949,42.9039351 61.3690746,42.9039351 C61.1642584,43.5242864 60.7290239,43.3624556 60.3961975,42.6342171 C60.0215294,41.1016338 59.8407502,39.5236091 59.8585549,37.9411242 C59.7305448,36.7004215 59.5769326,34.0571852 58.7832697,33.3559185 C58.3224332,32.7085953 57.6311784,33.0322569 57.3751581,33.6256365 C57.3075567,34.8305752 57.3332436,36.0393133 57.4519642,37.2398574 C57.9640048,39.2357705 58.143219,41.0159092 58.3992393,43.0387941 C58.4760454,45.7629457 56.9143216,44.2255532 56.9911277,42.8499915 C57.3269925,41.1206817 57.3007813,39.3350048 56.9143216,37.6174626 C56.6583013,36.9161959 56.376679,36.7543651 55.7366283,36.8622523 C55.2501898,36.8622523 53.9956904,38.2917576 53.637262,40.7192194 C53.637262,40.7192194 53.3300376,41.9599221 53.2020275,43.0657659 C53.0228133,44.3064686 52.2547524,45.2235097 51.6915078,42.9039351 C51.2306713,41.2047118 50.9234469,37.0780266 50.1553861,38.0490114 L50.1297841,38.0490114 Z" id="Path" fill="#FFFFFF"></path>
                    <path d="M59,52.2439024 L51,56 C51.075,54.2195122 54.775,51.0243902 57.325,51 C58.95,51.0243902 58.55,51.6097561 58.975,52.2439024 L59,52.2439024 Z" id="Path" fill="#FFFFFF"></path>
                    <path d="M57.7945749,54.8697546 C53.4580773,66.5452934 67.990507,68.1825528 69.6166936,55.3528804 C69.7715685,54.816074 70.3910682,54.3061079 70.4943181,55.1649981 C70.1587558,66.7868562 59.2400742,67.5652255 57.3815752,63.9149421 C56.9443687,62.6589284 56.7258507,61.3319684 56.736263,59.9962556 C56.4781382,57.7148284 55.3165763,58.600559 55.1358889,60.8551458 C54.9552015,62.1166407 55.0068264,62.4655649 55.0068264,63.6733792 C55.5747011,72.8527683 69.6425061,68.9072414 71.9398174,61.3382715 C73.1530042,57.1511817 71.7333175,54.0645451 72.3786296,54.0645451 C73.7725039,55.6212836 75.7342528,54.2792676 76.1730651,53.7424612 C76.3537525,53.474058 76.8183772,53.2861758 77.1281271,53.6351 C78.2122515,54.4403095 80.1223755,54.0645451 80.5353752,52.6420082 C80.7676876,51.2194713 80.948375,49.770094 81,48.2938765 C80.096563,48.5622797 79.4512508,48.7501619 79.3738134,49.1527667 L79.193126,50.3874214 C79.1156885,50.7900262 78.3671264,50.7900262 78.3155014,50.2800601 C77.9799391,48.669641 76.5860649,48.4817587 75.7342528,50.9510681 C75.1921906,51.4341938 74.1596912,51.5415551 74.0564412,50.8168665 C74.1855037,49.1527667 73.5401915,48.9380441 72.2495672,49.7164134 L71.0105679,40.0002179 C71.5268176,40.0002179 72.0430673,40.4028227 72.5335045,39.7586551 C72.0172548,38.0140343 70.8556929,34.4711122 70.2103808,34.202709 C69.9264434,33.8269446 69.6683186,34.0685074 69.2553188,34.1758687 C68.5841942,34.3905913 67.9646945,34.9810783 68.1711944,36.1620523 C68.945569,41.2080323 69.4618187,45.0461979 70.2620058,50.1190182 C70.3910682,50.6826649 69.9264434,51.4610341 69.3069438,51.3805132 C68.2744443,50.6558246 68.0163195,49.179607 66.2094454,49.2332877 C64.9188211,49.2332877 63.4733219,50.7095052 63.2926345,52.1052018 C63.0603221,53.2324952 62.9828847,54.4403095 63.2926345,55.406561 C64.1960715,56.5338544 65.2801959,56.4264931 66.2352579,56.1849303 C67.0096325,55.8360061 67.6549447,55.0307965 67.938882,55.2186788 C68.1195694,55.4602416 67.9646945,58.1442735 64.2476965,60.1841378 C62.0020102,61.2577505 60.1951362,61.4724731 59.2400742,59.5668104 C58.646387,58.3589961 59.2916991,53.8229822 57.7945749,54.8697546 Z" id="Path" fill="#FFFFFF"></path>
                    <path d="M76.3697153,42.8183638 C77.2209568,42.5023927 81.3481886,37.6575023 81.3481886,37.6575023 L80.7291038,37.1308838 C80.496947,36.9465673 80.5227422,36.7359199 80.7291038,36.5516034 C81.7609118,35.9196612 81.4255742,34.6031149 80.9096702,33.9711727 C80.1994902,33.617791 79.367523,33.6275524 78.665488,33.9975036 C77.9432224,34.7084386 77.7884512,35.8406684 78.3559456,36.5252725 C78.8976447,36.7885818 79.4393439,37.3678621 79.0782111,37.6838332 C77.375728,39.5269981 72.7583875,42.7130401 73.3000867,42.8183638 C73.4032675,42.9763494 76.2665345,42.9763494 76.3439201,42.8183638 L76.3697153,42.8183638 Z M51.3483728,59.9334657 C49.8006609,62.4612346 49.6716849,66.226557 50.5229265,67.3587868 C50.9872401,67.8854053 51.7353008,68.1223836 52.277,67.9380671 C53.2572175,67.5167723 53.6957359,65.489291 53.4635791,64.778356 C53.1282415,64.2517375 52.8702895,64.1727447 52.534952,64.5940396 C51.8642768,66.0159096 51.5805296,65.0416653 51.503144,64.2517375 C51.4292098,62.9139465 51.4984059,61.5719145 51.7095056,60.2494368 C51.890072,59.1435379 51.7095056,59.459509 51.3483728,59.9334657 Z M117.667828,55.904834 C116.171706,52.5871373 114.082295,49.3221025 113.437415,48.084549 C111.427218,44.8406943 109.293176,41.6785537 107.040206,38.6054156 C105.440904,36.6569271 109.671316,39.4216744 106.524302,35.5246973 L104.22853,33.5498779 C103.712626,33.1812449 102.474456,32.4966408 102.268095,33.6025397 C102.164914,34.6031149 102.216504,35.1297334 102.371275,35.9459921 C102.500251,36.4726106 103.274107,37.3941931 103.661035,37.9208116 C108.949384,45.0708647 113.594196,52.6939227 117.538852,60.6970625 C118.209527,60.3547605 118.054756,56.4577834 117.667828,55.904834 Z" id="Shape" fill="#FFFFFF" fill-rule="nonzero"></path>
                    <path d="M111.055799,66.9262669 C110.743328,67.2763777 111.784897,68.7576156 113.138936,68.7576156 C115.37831,68.4882996 117.35729,67.1955829 119.180036,63.7483384 C119.920713,62.6015868 120.393201,61.2922931 120.560115,59.9240514 C120.78065,53.386179 120.273899,46.8437537 119.04984,40.4255744 C118.971722,39.8869424 119.04984,39.2405841 119.101918,39.0789945 C119.258154,38.8904733 119.752899,39.0789945 120.013291,38.6211573 C120.40388,38.2171833 118.971722,34.8507336 118.190546,33.5849484 C117.930153,32.9924533 117.799957,32.6154109 117.331251,33.6388116 C116.765657,34.7680504 116.496304,36.0309633 116.550075,37.301509 C117.617683,44.9770145 117.956193,51.6829824 118.633212,59.3584879 C118.71133,60.1125726 118.607173,61.1898365 118.112428,61.6207421 C116.147592,63.8833533 113.742919,65.6913062 111.055799,66.9262669 Z M141.391493,66.8993353 C139.777061,67.8688729 139.777061,68.9730684 141.079022,69 C143.318395,68.730684 145.974396,68.5421628 147.797142,65.6874134 C148.440972,64.3428318 148.813094,62.8766428 148.890789,61.3783577 C149.218603,54.9411409 148.807791,48.4864238 147.666946,42.1491967 C147.614867,41.6105647 147.380514,40.3447796 147.458632,40.18319 C147.614867,39.8061476 148.343965,40.2101216 148.604358,39.779216 C148.968907,39.375242 146.703494,36.3589031 145.896279,35.0661863 C145.635886,34.4736912 145.531729,34.0966488 145.036984,35.1200495 C144.512514,36.2596794 144.348516,37.5412402 144.568278,38.7827469 C145.766082,47.1315423 146.651416,53.3796731 146.833691,60.758931 C146.729534,61.4591525 146.703494,61.8361949 146.391024,62.7249376 C145.687965,63.640612 144.906788,64.8256023 144.17769,65.3911658 C143.448592,65.9297978 141.886238,66.4684298 141.391493,66.8993353 Z" id="Shape" fill="#FFFFFF" fill-rule="nonzero"></path>
                    <path d="M141.993582,59.752955 C141.993582,57.8185882 142.019254,56.1757013 141.96791,54.7183016 C141.951325,53.4840162 141.689182,52.2664154 141.197744,51.141048 C140.735645,50.0546228 141.018039,49.180183 140.786989,48.0142633 C140.581612,46.8483435 140.632956,45.099464 140.32489,43.748057 C140.222201,43.2180935 139.965479,41.4957121 140.042496,41.3102249 C140.170857,40.9392504 140.658628,41.3102249 140.91535,40.8862541 C141.274761,40.4887815 139.631741,36.1165825 138.810231,34.8711683 C138.527837,34.3147066 137.963049,34.5001938 137.321244,35.4011318 C136.679439,36.0105898 136.910489,37.3619968 137.167211,38.6604074 C138.733214,47.219318 139.939807,54.9832834 139.683085,63.1182232 C139.580396,63.8071758 141.993582,61.0513655 141.993582,59.752955 Z M130.261393,49.1536848 C129.260178,49.1006885 127.180731,47.1133253 126.564598,45.9739038 C126.360639,45.4107242 126.397966,44.7846399 126.667287,44.2515224 C127.05237,43.9865406 127.617158,43.7215589 128.053585,43.9865406 C128.053585,43.9865406 128.490012,44.6224968 128.412996,44.7019913 C128.926439,44.9669731 129.183161,44.8344822 129.234506,44.5959986 C129.260178,44.198526 129.080473,43.9600424 129.080473,43.5360716 C129.311522,42.3171556 130.620804,42.1316683 131.134247,42.9001154 C131.493658,43.3770826 131.647691,44.3575151 131.673363,45.0199694 C131.673363,45.3644457 131.15992,44.9669731 130.826181,45.0199694 C130.543787,45.1259621 130.466771,45.4969366 130.441098,45.8149147 C130.389754,46.6893545 130.287065,48.0937578 130.261393,49.1271866 L130.261393,49.1536848 Z M111.828764,61.872809 C112.085486,59.2759878 111.726075,54.6388071 111.700403,53.1019129 C111.563093,49.1493477 111.246121,45.2056129 110.750532,41.2837267 C110.442466,39.05788 111.623386,41.5222103 111.469353,40.2237997 C111.08427,38.0244511 109.90335,36.5140552 108.49138,34.526692 C108.054952,33.8642376 108.054952,33.7317467 107.361803,34.6856811 C106.591638,36.4610588 107.259115,37.706473 107.464492,39.1108763 C108.465707,43.6685625 109.056168,47.8552742 109.338562,52.0154877 C109.634158,56.3371155 109.668454,60.6735608 109.44125,64.9995937 C110.211416,65.0260919 111.392337,63.7541794 111.828764,61.872809 Z" id="Shape" fill="#FFFFFF" fill-rule="nonzero"></path>
                    <path d="M145.610286,57.1913969 C143.852514,54.0925194 141.228592,50.7799261 140.515293,49.5243464 C138.153089,46.0650267 135.671891,42.6967859 133.076604,39.4262799 C130.911232,37.0219784 134.095602,39.025563 132.669004,37.1555507 C131.471681,35.7931132 131.140506,35.3389673 130.096033,34.510819 C129.586533,34.163531 129.280834,33.4956695 129.077034,34.6443913 C128.995819,35.6393901 128.978796,36.6390059 129.026084,37.636411 C129.026084,38.0905569 129.484634,38.9721341 129.892233,39.5064233 C135.165551,46.318611 140.948368,53.2643711 145.584811,62 C146.24716,61.652712 146.017886,57.7256861 145.584811,57.1913969 L145.610286,57.1913969 Z" id="Path" fill="#FFFFFF"></path>
                    <path d="M65.3989053,52.1978395 C65.2437909,52.3591679 64.9025392,52.556347 65.0266307,52.7535261 C65.2437909,52.9327798 65.4609511,52.986556 65.8332256,52.986556 C66.1744773,52.986556 66.6708434,53.0403321 66.7639121,52.9327798 C66.9500493,52.8073022 67.0741409,52.5742724 66.9500493,52.3412425 C66.5777748,51.8034812 65.5850426,52.0185857 65.3989053,52.1978395 Z" id="Path" fill="#1BA400"></path>
                    <path d="M124.663955,95.9648216 C127.039618,96.070807 128.588964,96.0973034 130.68058,96.3357707 L133.159533,96.070807 C135.89671,95.8058434 136,100.071758 136,100.071758 C136,102.588913 135.04457,102.721395 133.830916,102.986359 C133.133711,103.092344 132.798019,102.562417 132.410683,102.032489 C131.826674,102.224566 131.204644,102.261039 130.603113,102.138475 C129.596038,102.085482 128.614786,102.085482 127.633534,102.005993 C126.600637,101.926504 126.032543,102.138475 124.973824,102.032489 C124.767244,102.376942 124.457375,102.853877 123.837637,102.721395 C123.321189,102.641906 122.675628,101.131613 122.856385,99.9392765 C123.243721,99.0913928 123.114609,99.3828528 123.114609,99.0119037 C113.405377,98.74694 103.618677,98.2965018 94.1160241,98.4289836 C86.6791652,98.45548 79.345596,98.7734364 71.9862045,99.0913928 C68.0611956,99.0384001 65.0657941,98.4024873 63,95.3024124 C63.2065794,95.3024124 73.0191015,95.8588361 75.8853909,95.6733615 C81.1789883,95.6203688 86.0336045,95.1699306 91.4304917,95.0109524 C102.069331,95.1964269 112.630704,95.1964269 123.269544,95.9648216 C122.236647,95.2494197 122.236647,93.5801486 123.785992,93.1562067 C123.915104,93.0502212 123.992572,93.9775941 124.224973,93.9510977 C125.490272,93.8716086 124.922179,95.6203688 124.663955,95.9648216 Z M81.9020163,35.7650768 C80.3010258,40.48143 82.8316236,45.6747178 84.5875486,45.1712869 C85.87867,45.7012142 86.6533428,43.2105558 87.1697913,40.5079264 C87.5571277,39.7395317 87.815352,39.6600426 87.9961089,40.0574881 C87.9444641,43.660994 88.2543332,44.4823814 89.1581181,45.5687324 C91.1722674,47.1585144 92.8507252,45.7807033 92.9798373,45.6482215 L94.5291829,44.0319431 C94.8906969,43.6344976 95.3555005,43.6344976 95.8461266,43.952454 C96.3367527,44.4028923 96.2592855,45.1712869 97.2921825,45.7012142 C98.170145,46.0721633 100.003537,45.8071997 100.442519,45.0388051 C101.010612,44.0054468 101.165547,43.660994 101.423771,43.2900449 C101.83693,42.7336212 102.534135,42.9720885 102.534135,43.157563 C102.456668,43.4755194 102.043509,43.7669795 102.327556,44.3498995 C102.844004,44.7208487 102.947294,44.4823814 103.231341,44.4028923 C104.264238,43.8729649 105.038911,41.5942774 105.038911,41.5942774 C105.064733,40.7463937 104.599929,40.7993864 104.29006,41.0113573 L103.489565,41.567781 C102.973116,41.6472701 102.017687,41.9917229 101.52706,41.2233283 C101.036434,40.3224518 101.036434,39.0241298 100.67492,38.096757 C100.67492,38.0437643 100.003537,36.6394569 100.623276,36.5599678 C100.933145,36.6129605 101.578705,36.7984351 101.681995,36.2420114 C101.991864,35.6855877 101.010612,34.122302 100.313406,33.327411 C99.7194906,32.6650019 98.893173,32.5855128 98.0926778,33.2744183 C97.5245844,33.8043456 97.6020516,34.3872657 97.4987619,34.9436894 C97.300048,35.7525974 97.4921862,36.6102123 98.0152105,37.2488733 C98.5833039,38.3617207 99.5903785,39.8190208 99.2546869,41.8857374 C99.2546869,41.8857374 98.6607711,42.8396066 97.6278741,42.7071248 C97.1888928,42.6276357 96.4916873,42.4421611 96.1301733,39.5805535 C95.8461266,37.4608442 96.1818182,34.4402584 95.3038557,33.035951 C94.9681641,32.1615709 94.7357623,31.3401835 93.9610895,32.7974837 C93.7545101,33.3804038 92.8507252,34.2547839 93.4962858,36.0300404 C94.107167,37.6297903 94.2856002,39.3691463 94.0127343,41.0643501 C93.6253979,41.6472701 93.5479307,41.8327447 93.0573046,42.3891684 C92.3859215,43.1840594 91.6370711,42.9720885 91.0689777,42.6806284 C90.5525292,42.3361757 90.1393704,42.1507011 89.8811461,40.9583646 C89.9327909,39.1036189 90.0360807,36.0565368 89.7003891,35.420624 C89.209763,34.4137621 88.4092678,34.7847112 88.0735762,35.1026676 C86.5374906,36.8536574 85.5089378,39.0103381 85.1039972,41.3293137 C84.6391935,42.866103 84.1485674,42.4156648 83.8128758,41.8062483 C82.9865582,41.0113573 82.9090909,34.7317185 81.9020163,35.7650768 Z" id="Shape" fill="#FFFFFF" fill-rule="nonzero"></path>
                    <path d="M86.825905,45.9633718 C87.58484,45.430702 87.2446278,45.0578332 88.343775,46.1764398 C89.7624973,48.7311189 90.586192,51.5830844 90.7514309,54.5127223 C90.6990905,55.2051931 91.1701536,55.6313289 91.4056852,55.471528 C91.5103659,53.8735186 95.3573812,51.6363053 98.8903545,51.3167035 C99.4137579,51.183536 99.1520562,50.1448299 99.2305667,49.6121601 C99.0212053,47.6146483 100.329714,45.8035709 102.161626,45.6704035 C104.673963,46.0432723 105.511408,47.4015803 105.563748,49.4523591 C105.275877,53.4473827 101.19333,54.11322 98.9165247,54.4328219 C98.5763124,54.5659893 98.4192914,54.7257902 98.9165247,54.9122247 L108.494808,54.9654917 L108.992041,55.2318266 C109.044381,55.4981615 108.83502,55.2850936 108.468638,55.9242973 C107.94172,56.8663386 107.612043,57.9091513 107.500341,58.9871487 C104.647792,59.9459544 101.690563,60.3188233 98.7071633,60.7183256 C97.6603564,61.2509954 97.1369529,61.9700997 97.3463143,62.7691044 C97.7126967,63.6480096 100.015672,64.5535483 100.015672,64.5801818 C100.460565,64.8465167 100.957798,65.5123539 99.884821,66.870662 C95.2265304,66.657594 91.5888764,64.6334487 90.3327081,61.7836653 C89.9663257,61.4906969 89.547603,61.7836653 89.2859012,62.1565341 C87.4539892,64.5535483 85.6744175,66.6842275 82.560167,67.8561011 C80.7282549,68.3355039 78.8178323,67.5631327 77.9280464,66.3379921 C77.3261325,65.6188879 77.3523027,64.8465167 77.1429413,64.6867157 C76.1223046,65.1394851 67.4861477,68.8681737 68.5852949,67.1103634 C70.6789087,64.8465167 74.3427328,63.1419733 77.5354939,60.9047601 C77.7710254,60.1323888 78.1897482,57.5755737 79.4459164,56.7499355 C79.524427,56.7499355 79.2627252,58.241411 79.2888954,58.8806148 C79.2888954,59.4132846 79.2365551,59.599719 79.3412358,59.4665516 C79.5767673,59.3333841 83.4499528,56.2172657 83.790165,55.2584601 C84.1565475,54.7257902 83.8686756,53.3408487 83.8686756,53.2875818 C83.1359107,51.3699704 82.115274,51.2101695 81.7488916,50.2513638 C81.4086794,48.9995898 81.5657004,47.5613813 82.2722951,47.1352454 C82.9003792,46.5759421 83.633144,46.6292091 84.3397387,47.2684129 C85.1248438,47.9875171 85.8052683,49.3990921 86.0146297,50.4377983 C85.8837788,50.8373006 84.9678228,50.1714634 84.7061211,50.3578978 C85.2098245,50.9469955 85.5447839,51.6656275 85.6744175,52.4353101 C86.1978209,54.6192563 86.0407999,55.471528 85.5173964,56.883103 C83.790165,60.5851582 81.5918706,61.6771313 79.6552778,63.0620728 C79.6029375,63.0620728 79.5767673,63.994245 80.283362,64.5002813 C80.5450637,64.7666162 81.5657004,64.8997837 82.7433582,64.5002813 C85.2593046,63.0783213 87.2937219,60.915042 88.5793066,58.294678 C88.80167,56.3007796 88.587168,54.2815085 87.9512224,52.3820431 C87.1922875,50.5975992 86.3025016,48.0674176 86.3025016,48.0141506 C86.2763314,46.895544 86.3548419,46.5226751 86.825905,45.9633718 Z M61.75488,35.6828445 C62.8540272,36.2155143 64.947641,35.9758129 64.8429603,34.1647355 L64.7906199,33.3390973 C64.5812586,32.8064275 63.9531744,32.939595 63.8223236,33.4722648 C63.7699832,33.6586992 63.9008341,33.9516676 63.7438131,34.0315681 C63.6391324,34.138102 63.2989201,34.084835 63.2989201,33.5787987 C63.2989201,33.4189978 63.1942394,33.2591968 63.1157289,33.1526629 C63.0633886,33.0993959 63.0110482,33.0993959 62.8801974,33.0993959 C62.7231763,33.0993959 62.7231763,33.1260294 62.6446658,33.2591968 C62.6184956,33.3923643 62.5661553,33.5255317 62.5661553,33.6853327 C62.5661553,33.8717671 62.4614746,33.9250341 62.3567939,33.9516676 C62.1997729,33.9516676 62.2259431,33.9516676 62.0950922,33.8984006 C62.0427519,33.8185001 61.9642413,33.7918667 61.9642413,33.6320657 L61.8857308,33.2059299 C61.8333905,33.1260294 61.7287098,33.0727624 61.6240291,33.0461289 C61.0221151,33.0461289 60.9697748,33.7652332 61.0221151,34.0315681 C60.9697748,34.084835 60.9436046,35.3366091 61.75488,35.6828445 Z" id="Shape" fill="#FFFFFF" fill-rule="nonzero"></path>
                    <path d="M94.7612504,50.3727699 C95.850672,50.9078352 98.4704716,50.6135493 97.8220064,48.874587 L97.7701291,48.0184825 C97.5366817,47.4834172 96.9400936,47.6171835 96.8104006,48.1790021 C96.7585233,48.3395217 96.8882164,48.6338076 96.7066461,48.7140674 C96.6288303,48.8210805 96.2656898,48.767574 96.2916284,48.2860152 C96.2916284,48.1254956 96.1878739,47.9382227 96.1100581,47.8312096 C96.0322423,47.8044564 96.0063037,47.7777031 95.850672,47.7777031 C95.7209789,47.7777031 95.7209789,47.8312096 95.6431631,47.964976 C95.5912859,48.0987423 95.5653473,48.2325086 95.5653473,48.3930282 C95.5394087,48.5535478 95.4615928,48.6070544 95.3318998,48.6605609 C95.2022067,48.6605609 95.2281453,48.6605609 95.1243909,48.5803011 C95.0465751,48.5000413 94.9687592,48.473288 94.9687592,48.3395217 L94.8909434,47.9114694 C94.8390662,47.8312096 94.7353118,47.7777031 94.6315573,47.7509498 C94.0349693,47.7509498 93.9830921,48.4465348 94.0090307,48.7140674 C93.9830921,48.767574 93.9571534,50.0517307 94.787189,50.3727699 L94.7612504,50.3727699 Z M113.43705,44.5940645 C114.526471,45.1291298 116.575622,44.8883504 116.497806,43.0958816 L116.445928,42.2397771 C116.212481,41.7047117 115.615893,41.8384781 115.4862,42.3735434 C115.434323,42.5608163 115.564016,42.8551022 115.382445,42.9621152 C115.30463,43.042375 114.941489,42.9888685 114.967428,42.4805565 C114.967428,42.3200369 114.863673,42.1595173 114.785857,42.0525042 C114.708042,41.9989977 114.682103,41.9989977 114.526471,41.9989977 C114.396778,41.9989977 114.396778,42.0525042 114.318962,42.1862705 L114.241147,42.5875695 C114.215208,42.7748424 114.137392,42.8551022 114.007699,42.8551022 C113.878006,42.8551022 113.903945,42.8551022 113.80019,42.8015956 C113.722374,42.7213359 113.644559,42.6945826 113.644559,42.5608163 C113.644559,42.4270499 113.61862,42.2130238 113.566743,42.1060107 C113.514866,42.0257509 113.411111,41.9989977 113.307357,41.9722444 C112.710769,41.9722444 112.658891,42.6678293 112.68483,42.935362 C112.658891,42.9888685 112.632953,44.246272 113.462988,44.5940645 L113.43705,44.5940645 Z M123.112151,59.1210879 C121.218633,61.3416089 122.048668,65.0068064 122.489625,65.8094044 C123.112151,67.0935611 123.604985,67.9229124 124.8241,68.5649907 C125.93946,69.394342 126.821373,68.8860299 127.288268,68.2974581 C128.403628,67.0935611 128.429566,64.0169355 128.948339,63.4283637 C129.311479,62.3047265 130.245269,62.4919994 130.686226,63.0003114 C131.098793,63.6043182 131.651752,64.0918553 132.294419,64.4182345 C133.331964,65.3545988 134.577017,65.5418717 135.82207,64.6857672 C136.652106,64.1774551 137.196817,63.56213 137.68965,62.3047265 C138.208422,60.8065436 137.949036,53.8506945 137.819343,49.7306915 L136.729922,43.9787394 C136.729922,43.9252328 136.600229,41.2499062 136.470536,40.6345811 C136.470536,40.3670484 136.39272,40.2867887 136.652106,40.3135419 C136.937431,40.5810746 136.963369,40.5810746 137.170878,40.6613344 C137.430264,40.7148409 137.68965,40.2065289 137.50808,39.7784766 L134.914219,34.8023691 C134.70671,34.588343 134.421385,34.3743169 134.084183,34.8558757 C133.681777,35.2316434 133.455082,35.767468 133.461657,36.3273053 C133.539473,37.504449 133.721043,38.708346 133.798859,39.8854897 L134.836403,45.9317278 C135.173605,50.2122503 135.251421,53.7436814 135.588623,58.0509572 C135.536746,59.8701793 134.992035,61.448622 134.473263,61.6894014 C134.473263,61.6894014 133.695104,62.1442069 133.176332,61.6358949 C132.787253,61.4753753 131.256875,58.9873215 131.256875,58.9873215 C130.478717,58.2649834 129.959944,58.4522562 129.415234,58.9873215 C127.858917,60.539011 127.184513,63.3748572 126.12103,65.3545988 C125.861644,65.8094044 125.083486,66.1571968 124.25345,65.3278456 C122.126484,62.3047265 123.371537,58.024204 123.112151,59.1210879 Z M113.929883,34.0532777 C114.91555,34.4545767 115.589954,36.5145782 115.382445,37.5312023 C115.174937,38.7350992 114.656164,40.0727625 114.293024,39.9122429 C113.878006,39.7517233 114.55241,38.6815927 114.163331,37.5579555 C113.955822,36.8088641 112.607014,35.4712008 112.762646,35.0966551 C112.50326,34.2673038 113.333295,33.8927581 113.929883,34.0265244 L113.929883,34.0532777 Z" id="Shape" fill="#FFFFFF" fill-rule="nonzero"></path>
                    <path d="M125.883138,60.4025563 C126.065477,57.914099 125.726847,56.3993859 125.67475,54.9387697 C125.622653,53.4781534 124.085792,42.3341926 123.77321,41.2522546 C123.382483,39.1424756 125.257974,40.9817701 125.049586,39.7375415 C124.398374,38.2228284 122.809416,35.9778071 122.314495,34.6524331 C122.001913,34.1114642 122.132156,33.5704952 121.454895,34.5171909 C120.871702,36.177035 120.66664,37.9545783 120.85578,39.710493 C122.470786,48.447142 124.111841,55.6961262 123.851356,64 C124.63281,64 125.49241,62.1877539 125.883138,60.4025563 Z M142.658364,37.3302296 C143.570061,37.7900532 144.091031,40.3867043 143.986837,41.1170124 C143.804497,42.4694348 143.335625,43.930051 142.996994,43.7407119 C142.606267,43.5784212 143.07514,41.7391267 142.8928,41.1711093 C142.684412,40.3596558 141.460133,38.8990396 141.590376,38.4662644 C141.329891,37.5466171 142.111346,37.1679389 142.658364,37.3302296 Z M76.0523806,55.6961262 C76.9119807,56.0477561 77.4329505,57.9411475 77.354805,58.4821165 C77.1464171,59.4829091 76.7035928,60.564847 76.3649625,60.4025563 C76.0263321,60.2943625 76.4431079,58.9419401 76.286817,58.5091649 C76.2086715,57.5083723 75.0104411,56.9674033 75.0364896,56.5346282 C74.8281017,55.7231747 75.5574593,55.5879324 76.0784291,55.6961262 L76.0523806,55.6961262 Z" id="Shape" fill="#FFFFFF" fill-rule="nonzero"></path>
                    <path d="M96.8874961,58.4434322 C97.9345931,58.4927024 98.4581417,59.3302966 97.4858372,59.6751883 C96.4886019,59.9954449 95.5661593,60.2664312 95.5412284,61.6459981 C95.9151917,63.6168078 95.0426108,62.9270244 94.5439931,62.6806732 C93.9456519,62.237241 92.2503519,61.2025659 92.0010431,58.9854049 C91.9761122,58.4680673 92.3999372,58 93.073071,58 C94.0703063,58.2709863 95.5661593,58.2956215 96.8874961,58.4434322 Z" id="Path" fill="#1B9D00"></path>
                    <path d="M53.0623476,32.9136148 C54.3155789,33.2842788 54.3939058,35.1905508 54.3155789,35.7465468 C54.132816,36.7526349 53.6889632,37.8381509 53.3756554,37.7057709 C53.0101297,37.5733909 53.3756554,36.1966388 53.1928925,35.7730228 C53.0101297,35.1905508 51.9396613,34.0785588 52.0440972,33.7608468 C51.8091164,33.0989468 52.5662769,32.7812348 53.0623476,32.9136148 Z M78.1008636,41.809551 C77.1087222,42.339071 76.7431964,43.927631 77.3437031,44.8807671 C77.9181007,45.6750471 78.8058062,45.3838111 78.9102422,45.3838111 C79.8762746,45.4897151 80.4506722,43.556967 80.4506722,43.556967 C80.4506722,43.556967 80.4767812,43.027447 79.3540949,44.060011 C78.8580242,44.139439 78.8319152,43.954107 78.7013703,43.689347 C78.5818357,43.1852962 78.6276679,42.6554646 78.8319152,42.180215 C79.0146781,41.703647 78.6491523,41.491839 78.1008636,41.809551 Z M85.4113793,32.1722868 C84.8891996,32.5164748 83.9231672,33.5490388 83.8970582,34.7139828 C83.8709492,35.3758828 83.7404043,35.3758828 84.158148,35.7730228 C84.4975648,36.2495909 84.7847636,36.2231149 85.4113793,35.8789268 C85.7270511,35.6774051 85.944892,35.3508527 86.0118859,34.9787428 C86.1685398,34.2374148 85.2286164,35.3494068 85.1241804,34.5021748 C84.9153086,33.7078948 85.5158152,33.3901828 86.0902129,32.6488548 C86.0902129,32.1193348 86.0902129,31.7751467 85.3852703,32.1722868 L85.4113793,32.1722868 Z M91.2597918,33.2313268 C91.0296111,34.1954169 90.8897421,35.1793986 90.842048,36.1701628 C90.6853941,36.9114909 91.6253175,37.2292029 92.0169523,36.2760669 C92.6435679,34.5551268 92.6435679,33.8137988 92.6957859,33.0989468 C92.513023,31.9604787 91.7558625,31.9869547 91.2597918,33.2313268 Z M128.33455,52.3734752 C128.438986,52.2410952 133.556346,48.5609311 133.556346,48.5609311 C134.078526,48.3755991 133.947981,50.4672032 133.713,50.4407272 C132.125973,51.9917319 130.300591,53.270471 128.308441,54.2267953 C128.047351,54.4121273 127.81237,52.8235672 128.308441,52.3734752 L128.33455,52.3734752 Z M132.95584,52.3205232 C133.869654,52.7706152 134.23518,55.4446913 134.130744,56.1595433 C134.130744,57.5892474 133.269148,58.7012394 132.903622,58.5423834 C132.538096,58.3570514 132.95584,56.7684913 132.773077,56.2124953 C132.564205,55.4182153 131.807044,53.9620353 131.937589,53.5384193 C131.6765,52.6382352 132.407551,52.1616672 132.981949,52.3205232 L132.95584,52.3205232 Z M102.669418,63.8111075 C103.092925,63.3098153 103.585335,62.8729005 104.131521,62.5137835 C104.653701,62.2490235 105.123662,62.7255915 105.097553,62.6991155 C105.17588,63.2286355 104.784246,63.6787275 104.914791,64.3671035 C105.019227,64.6318635 105.097553,64.9495755 105.593624,64.8436715 C106.403003,64.1817715 107.160163,64.1288195 107.943433,64.1023435 C108.596157,64.1288195 108.622266,65.2143355 108.204523,65.2143355 C106.716311,65.5320476 106.063586,65.9556636 104.993118,66.3528036 C104.470938,66.6705156 104.053194,66.2733756 104.053194,66.2468996 C104.053194,66.2204236 103.765995,65.9556636 103.948758,65.2672875 C104.000976,64.7377675 103.792104,64.4200555 103.322143,64.4730075 C103.008835,64.6848155 102.695527,64.7907195 102.538873,64.3935795 C102.460546,64.1288195 102.434437,63.9699635 102.669418,63.8111075 Z M138.334291,65.2408115 C138.543162,65.5055716 138.699816,65.7703316 138.308182,66.2468996 L137.342149,67.0941316 C137.185495,67.3588916 137.081059,67.8354596 137.603239,67.9678396 C138.543162,68.2325996 140.736317,66.7764196 140.736317,66.7499436 C141.101843,66.4851836 140.997407,65.9556636 140.945189,65.9556636 C140.736317,65.7173796 140.266355,65.8762356 139.953048,65.8232836 C139.796394,65.8232836 139.300323,65.7703316 139.535304,65.2937635 C139.710668,65.0598155 139.851401,64.8011515 139.953048,64.5259595 C140.083593,64.2082475 139.953048,63.9964395 139.430868,63.8111075 C138.882579,63.7052035 138.647598,63.7581555 138.047092,63.8111075 C137.733784,63.8640595 137.629348,64.0229155 137.551021,64.4200555 C137.57713,65.0290035 137.942656,65.0025275 138.334291,65.2143355 L138.334291,65.2408115 Z" id="Shape" fill="#FFFFFF" fill-rule="nonzero"></path>
                    <path d="M102.964288,50.7976513 C102.834482,51.0674496 102.367179,51.0674496 101.925838,50.7976513 C101.484496,50.5278531 101.224883,50.0961759 101.380651,49.8533574 C101.536419,49.610539 101.97776,49.610539 102.419102,49.8533574 C102.860443,50.0961759 103.094095,50.5548329 102.964288,50.7976513 Z M79.8587604,36.336465 C79.5991477,36.4174045 79.23569,36.174586 79.0799224,35.7968685 C78.9241548,35.4191509 79.0020386,35.095393 79.2616512,35.0144535 C79.5212639,34.9335141 79.8587604,35.2033123 80.0404893,35.55405 C80.2222181,35.9047878 80.1183731,36.2825053 79.8327991,36.3634448 L79.8587604,36.336465 Z" id="Shape" fill="#259F00" fill-rule="nonzero"></path>
                    <path d="M125.321757,100 C127.867769,100.075355 130.251269,100 132.770196,100.094193 C133.230645,100.376774 132.905622,101.036128 132.607684,100.998451 L130.495036,100.941935 C130.467951,100.376774 128.409473,100.470967 128.463644,100.960773 C127.353149,101.054967 126.350996,100.941935 125.213416,100.904257 C124.888393,100.621677 124.942564,100.113032 125.321757,100 Z" id="Path" fill="#209000"></path>
                </g>
            </g>
        </g>
    </g>
</svg>