<?xml version="1.0" encoding="UTF-8"?>
<svg width="218px" height="174px" viewBox="0 0 218 174" version="1.1" xmlns="http://www.w3.org/2000/svg" xmlns:xlink="http://www.w3.org/1999/xlink">
    <!-- Generator: Sketch 52.5 (67469) - http://www.bohemiancoding.com/sketch -->
    <title>gb-sct</title>
    <desc>Created with Sketch.</desc>
    <g id="Flags" stroke="none" stroke-width="1" fill="none" fill-rule="evenodd">
        <g id="Europe" transform="translate(-941.000000, -638.000000)">
            <g id="gb-sct" transform="translate(941.000000, 638.000000)">
                <polygon id="Path" fill="#0065BD" points="9 12 209 12 209 162 9 162"></polygon>
                <path d="M109,87 L9,12 L109,87 L9,162 L109,87 Z M109,87 L209,12 L109,87 L209,162 L109,87 Z" id="Shape" stroke="#FFFFFF" stroke-width="30" fill="#000000" fill-rule="nonzero"></path>
                <g id="Group-2" fill="#4A4A4A" fill-rule="nonzero">
                    <rect id="Rectangle" x="184" y="0" width="25" height="12"></rect>
                    <rect id="Rectangle" x="209" y="12" width="9" height="19"></rect>
                    <rect id="Rectangle" x="9" y="0" width="25" height="12"></rect>
                    <rect id="Rectangle" x="0" y="12" width="9" height="19"></rect>
                    <rect id="Rectangle" x="0" y="143" width="9" height="19"></rect>
                    <rect id="Rectangle" x="9" y="162" width="25" height="12"></rect>
                    <rect id="Rectangle" x="184" y="162" width="25" height="12"></rect>
                    <rect id="Rectangle" x="209" y="143" width="9" height="19"></rect>
                </g>
            </g>
        </g>
    </g>
</svg>