<?xml version="1.0" encoding="UTF-8"?>
<svg width="200px" height="141px" viewBox="0 0 200 141" version="1.1" xmlns="http://www.w3.org/2000/svg" xmlns:xlink="http://www.w3.org/1999/xlink">
    <!-- Generator: Sketch 52.5 (67469) - http://www.bohemiancoding.com/sketch -->
    <title>sx</title>
    <desc>Created with Sketch.</desc>
    <defs>
        <polygon id="path-1" points="0 0 199.912152 0 199.912152 150 0 150"></polygon>
    </defs>
    <g id="Flags" stroke="none" stroke-width="1" fill="none" fill-rule="evenodd">
        <g id="North-America" transform="translate(-290.000000, -1050.000000)">
            <g id="sx" transform="translate(290.000000, 1050.000000)">
                <mask id="mask-2" fill="white">
                    <use xlink:href="#path-1"></use>
                </mask>
                <g id="Path"></g>
                <g id="Group" mask="url(#mask-2)">
                    <polygon id="Path" fill="#ED2939" points="0 0 210.834553 0 210.834553 70.3125 93.6950952 70.3125"></polygon>
                    <polygon id="Path" fill="#002395" points="0 140.625 210.834553 140.625 210.834553 70.3125 93.6950952 70.3125"></polygon>
                    <polygon id="Path" fill="#FFFFFF" points="0 0 93.6950952 70.3125 0 140.625"></polygon>
                    <path d="M47.3005124,53.0639648 L47.3279649,51.965332 C47.3279649,51.965332 46.7514641,51.0314941 47.4377745,50.0427246 C47.4377745,50.0427246 45.9827965,49.2736816 46.3396779,48.0651855 C46.3396779,48.0651855 45.0219619,47.7355957 45.1043192,46.307373 C45.1043192,46.307373 43.7316984,46.2249756 43.5669839,45.0164795 C43.5669839,45.0164795 42.1669107,45.2362061 41.5355051,44.0826416 C41.5355051,44.0826416 40.1628843,44.3572998 39.7785505,43.3959961 C39.7785505,43.3959961 38.4333821,43.8354492 37.6647145,42.7093506 C37.6647145,42.7093506 36.2371889,43.2861328 35.6606881,42.2149658 C35.0841874,43.2861328 33.6566618,42.7093506 33.6566618,42.7093506 C32.8879941,43.8354492 31.5428258,43.3685303 31.5428258,43.3685303 C31.1584919,44.329834 29.8133236,44.0551758 29.8133236,44.0551758 C29.181918,45.2362061 27.7818448,44.9890137 27.7818448,44.9890137 C27.6445827,46.1975098 26.2445095,46.307373 26.2445095,46.307373 C26.3263473,47.1101657 25.8150998,47.8541615 25.0366032,48.0651855 C25.3934846,49.2462158 23.9385066,50.0152588 23.9385066,50.0152588 C24.6522694,51.0314941 24.0757687,51.9378662 24.0757687,51.9378662 L24.0483163,52.9541016 L47.3005124,53.0639648" id="Path" fill="#FFFF00"></path>
                    <path d="M47.3340264,53.057623 L47.3340264,51.9558728 C47.3340264,51.9558728 46.7675403,51.0115155 47.4599122,50.0671582 C47.4599122,50.0671582 46.0122255,49.2801938 46.3584114,48.0840079 C46.3584114,48.0840079 45.0366105,47.7692221 45.1310249,46.3212076 C45.1310249,46.3212076 43.7148097,46.2267719 43.5574524,45.0305859 C43.5574524,45.0305859 42.1727086,45.250936 41.5747511,44.0862286 C41.5747511,44.0862286 40.1900073,44.3380573 39.8123499,43.3937 C39.8123499,43.3937 38.4590776,43.8658786 37.6722914,42.7326498 C37.6722914,42.7326498 36.2560761,43.2992642 35.68959,42.2289926 C35.0916325,43.2992642 33.6754173,42.7326498 33.6754173,42.7326498 C32.9201025,43.8344 31.5668302,43.3622214 31.5668302,43.3622214 C31.1891728,44.3380573 29.8359004,44.0862286 29.8359004,44.0862286 C29.2064714,45.250936 27.7902562,45.0305859 27.7902562,45.0305859 C27.6643704,46.1952933 26.2481552,46.289729 26.2481552,46.289729 C26.3557439,47.0860012 25.8582097,47.8391965 25.0837116,48.0525293 C25.3984261,49.2487152 23.9822108,50.004201 23.9822108,50.004201 C24.6745827,51.0115155 24.0766252,51.9558728 24.0766252,51.9558728 L24.0766252,52.9631873 L47.3340264,53.057623 Z" id="Path" stroke="#000000" stroke-width="0.25"></path>
                    <path d="M46.7514641,51.6906738 C43.1002928,51.3336182 38.9000732,50.4547119 35.6606881,52.2949219 C33.4644949,51.0040283 30.4447291,51.0864258 27.864202,51.3336182 C26.4641288,51.6082764 24.8169839,51.6082764 23.3345534,51.8280029 L23.1149341,51.8554687 C20.4520498,52.0477295 18.0362372,51.2512207 15.7027818,50.2075195 C16.4714495,54.3823242 17.2675695,58.6395264 17.6793558,63.0065918 C18.5578331,69.4885254 14.6321376,74.899292 16.1969253,81.2988281 C17.1577599,84.375 20.534407,86.1602783 23.6090776,86.517334 C26.5826256,86.7051944 29.5376556,87.1183661 32.4487555,87.7532959 C32.9668461,87.8810078 33.4722293,88.05568 33.9586384,88.2751465 C34.6454689,88.5751924 35.2624702,89.0147866 35.7704978,89.56604 C37.4176428,87.8356934 39.8883602,87.3413086 42.2767204,87.0941162 C46.614202,86.5722656 51.9674231,86.8469238 54.6303075,82.9193115 L54.6303075,82.699585 C56.0852855,80.5023193 55.8931186,77.2064209 55.261713,74.7344971 C55.2068082,73.8830566 54.9871889,73.1140137 54.8499268,72.2900391 C52.2144949,65.2862549 54.4930454,57.4035645 55.6185944,50.3173828 C54.1972029,51.0323314 52.6812328,51.5409843 51.1163982,51.8280029 C49.8810395,51.9927979 48.5084187,51.9378662 47.27306,51.8554687 L46.7240117,51.7181396" id="Path" fill="#FF0000"></path>
                    <path d="M52.2144949,71.8231201 C52.2144949,72.2625732 52.4615666,72.6470947 52.5439239,73.059082 C53.0655198,76.1352539 53.5322108,80.2001953 50.4026354,82.0953369 C46.8887262,84.2926025 42.3316252,83.3587646 38.2961201,84.5397949 C37.4725476,84.7595215 36.374451,85.5010986 35.8254026,86.0229492 C35.4410688,85.7757568 35.0841874,85.4187012 34.6174963,85.1989746 C31.295754,83.4411621 26.9582723,84.0179443 23.2247438,83.0566406 C21.3305271,82.4798584 19.3814056,80.9967041 18.8872621,79.0740967 C17.6793558,74.0203857 20.5893119,69.708252 20.2598829,64.6820068 C20.0402635,60.836792 19.3814056,57.1838379 18.5029283,53.5858154 C21.4403367,54.9591064 24.8169839,55.178833 28.1112738,54.5196533 C30.652227,54.0530045 33.2723524,54.2904506 35.6881406,55.2062988 C36.9509517,54.6569824 38.4333821,54.40979 39.8060029,54.2724609 C42.3590776,54.5471191 45.1317716,54.9865723 47.7946559,54.9865723 C49.579063,54.876709 51.1987555,54.3823242 52.7360908,53.6956787 C51.8301611,59.6282959 50.045754,65.8355713 52.2144949,71.8231201" id="Path" fill="#80CFE1"></path>
                    <polyline id="Path" fill="#FFFFFF" points="46.943631 73.0041504 46.943631 67.401123 47.602489 67.401123 39.0922401 61.907959 39.0647877 59.0240479 39.8883602 59.0240479 35.6057833 56.0028076 31.3781113 59.0240479 32.2016837 59.0240479 32.2016837 61.907959 23.7188873 67.401123 24.4051977 67.401123 24.4051977 72.9766846 46.943631 72.9766846"></polyline>
                    <polygon id="Path" stroke="#000000" stroke-width="0.65" points="46.956369 73.0150406 46.956369 67.4118539 47.6172694 67.4118539 39.119978 61.903103 39.0885066 59.0700311 39.9067643 59.0700311 35.6266471 55.9851306 31.3780015 59.0385526 32.1962592 59.0385526 32.2277306 61.903103 23.7304392 67.4118539 24.4228111 67.4118539 24.4228111 72.983562 46.956369 72.983562"></polygon>
                    <polyline id="Path" fill="#FFFFFF" points="49.579063 80.3375244 49.579063 82.0678711 22.0991947 82.0678711 22.0991947 80.3100586 49.5516105 80.3100586"></polyline>
                    <polygon id="Path" stroke="#000000" stroke-width="0.65" points="49.5999707 80.349549 49.5999707 82.0808707 22.0939239 82.0808707 22.0939239 80.3180704 49.5999707 80.3180704"></polygon>
                    <polyline id="Path" fill="#FFFFFF" points="23.9110542 80.2276611 23.9110542 74.3225098 25.0091508 74.3225098 24.954246 80.2825928 25.0091508 74.3499756 23.4169107 74.3225098 23.4169107 73.0316162 47.9593704 73.0865479 47.9593704 74.3225098 46.47694 74.3225098 46.47694 80.3100586 46.4494876 74.3225098 47.5475842 74.3225098 47.602489 80.255127"></polyline>
                    <polyline id="Path" stroke="#000000" stroke-width="0.65" points="23.9192679 80.2236346 23.9192679 74.3056622 25.0207687 74.3056622 24.9578258 80.2865918 25.0207687 74.3686194 23.4471962 74.3056622 23.4471962 73.0465192 47.9949268 73.0779977 47.9949268 74.3371408 46.4842972 74.3371408 46.5157687 80.3180704 46.4528258 74.3371408 47.585798 74.3371408 47.6172694 80.2551132"></polyline>
                    <polyline id="Path" stroke="#000000" stroke-width="0.65" points="29.2064714 78.7756201 29.2064714 74.6519266 25.8704978 74.6519266 25.8704978 78.7441415 29.175 78.7756201"></polyline>
                    <path d="M26.8146413,75.5018481 L26.8146413,77.89422 L28.3252709,77.89422 L28.3252709,75.5018481 L26.7831698,75.5018481 M45.351325,78.7756201 L45.3198536,74.6834052 L42.0468228,74.6834052 L42.0468228,78.7756201 L45.351325,78.7756201" id="Shape" stroke="#000000" stroke-width="0.65"></path>
                    <path d="M42.9280234,75.5333267 L42.9280234,77.9256985 L44.438653,77.9256985 L44.438653,75.5333267 L42.9280234,75.5333267 Z M45.3198536,72.0706833 L45.3198536,67.9784683 L42.0153514,67.9784683 L42.0153514,72.0706833 L45.3198536,72.0706833 Z" id="Shape" stroke="#000000" stroke-width="0.65"></path>
                    <path d="M42.896552,68.8283899 L42.896552,71.2207617 L44.4071816,71.2207617 L44.4071816,68.8283899 L42.896552,68.8283899 Z M29.175,72.0706833 L29.175,67.9469897 L25.8704978,67.9469897 L25.8704978,72.0392047 L29.175,72.0392047 L29.175,72.0706833 Z" id="Shape" stroke="#000000" stroke-width="0.65"></path>
                    <path d="M26.7831698,68.7969113 L26.7831698,71.1892831 L28.2937994,71.1892831 L28.2937994,68.7969113 L26.7831698,68.7969113 M35.1545754,72.0706833 L35.1545754,67.9469897 L31.8500732,67.9469897 L31.8500732,72.0392047 L35.1545754,72.0392047" id="Shape" stroke="#000000" stroke-width="0.65"></path>
                    <path d="M32.7312738,68.7969113 L32.7312738,71.1892831 L34.2419034,71.1892831 L34.2419034,68.7969113 L32.7312738,68.7969113 M39.749407,72.0706833 L39.749407,67.9784683 L36.4449048,67.9469897 L36.4449048,72.0392047 L39.749407,72.0706833" id="Shape" stroke="#000000" stroke-width="0.65"></path>
                    <polyline id="Path" stroke="#000000" stroke-width="0.65" points="37.3261054 68.7969113 37.3261054 71.1892831 38.8682064 71.1892831 38.8682064 68.7969113 37.3261054 68.7969113"></polyline>
                    <polyline id="Path" fill="#FFFFFF" points="40.5472182 70.8068848 40.602123 80.3100586 31.0212299 80.3100586 30.9937775 70.8068848 40.5197657 70.8068848"></polyline>
                    <path d="M40.5676647,70.8115402 L40.5991362,80.3180704 L31.063287,80.3180704 L31.0318155,70.8115402 L40.5676647,70.8115402 Z M30.9688726,73.5186978 L40.5991362,73.5186978 L30.9688726,73.5186978 Z M32.1647877,80.3180704 L32.1647877,73.581655 L32.1647877,80.3180704 Z M39.4346925,80.3180704 L39.4346925,73.6131335 L39.4346925,80.3180704 Z M44.0609956,66.7508038 L38.7108492,62.8474603 L32.6368594,62.8474603 L27.286713,66.7508038 L44.0609956,66.7508038 Z M33.1089312,59.5736884 L33.1089312,61.9660602 L38.207306,61.9660602 L38.207306,59.5736884 L33.1089312,59.5736884 Z" id="Shape" stroke="#000000" stroke-width="0.65"></path>
                    <path d="M34.493675,60.1717813 L34.493675,61.3679672 L36.8225622,61.3679672 L36.8225622,60.1717813 L34.493675,60.1717813 M35.6266471,56.8035736 L38.4590776,58.8182025 L32.8256881,58.8182025 L35.6581186,56.8035736" id="Shape" stroke="#000000" stroke-width="0.65"></path>
                    <path d="M47.0534407,55.480957 C47.8495608,55.480957 48.0417277,58.7768555 48.0417277,60.4248047 C48.7554905,60.6445313 50.2653734,61.605835 50.9516837,62.4572754 L43.2101025,62.4572754 C43.8689605,61.605835 45.3788433,60.6445313 46.0651537,60.4522705 C46.0651537,58.8043213 46.2298682,55.4534912 47.0534407,55.5084229" id="Path" fill="#FFFFFF"></path>
                    <path d="M47.0507833,55.4814734 C47.869041,55.4814734 48.0578697,58.7867239 48.0578697,60.4550885 C48.7502416,60.64396 50.2923426,61.6197958 50.953243,62.4697174 L43.2112665,62.4697174 C43.8721669,61.6197958 45.4142679,60.64396 46.0751684,60.4550885 C46.0751684,58.7867239 46.2639971,55.4814734 47.0507833,55.4814734 Z M31.4724158,71.0633688 L32.1647877,71.0633688 L31.975959,71.4411118 C31.975959,71.4411118 32.2906735,71.8818118 31.975959,72.3854691 L32.1647877,72.7002548 L31.4724158,72.7002548 L31.6612445,72.3854691 C31.6612445,72.3854691 31.34653,71.8188547 31.6612445,71.4411118 L31.4724158,71.0633688 Z M32.888631,71.0633688 L33.5810029,71.0633688 L33.3921742,71.4411118 C33.3921742,71.4411118 33.7068887,71.8818118 33.3921742,72.3854691 L33.5810029,72.7002548 L32.888631,72.7002548 L33.0774597,72.3854691 C33.0774597,72.3854691 32.7627452,71.8188547 33.0774597,71.4411118 L32.888631,71.0633688 Z M34.4622035,71.0633688 L35.123104,71.0633688 L34.9342753,71.4411118 C34.9342753,71.4411118 35.2489898,71.8818118 34.9342753,72.3854691 L35.123104,72.7002548 L34.4622035,72.7002548 L34.6195608,72.3854691 C34.6195608,72.3854691 34.3048463,71.8188547 34.6195608,71.4411118 L34.4307321,71.0633688 L34.4622035,71.0633688 Z M36.1931332,71.0633688 L36.8855051,71.0633688 L36.665205,71.4725903 C36.665205,71.4725903 37.0113909,71.8818118 36.665205,72.3854691 L36.8540337,72.7002548 L36.1931332,72.7002548 L36.3819619,72.3854691 C36.3819619,72.3854691 36.0672474,71.8188547 36.3819619,71.4411118 L36.1931332,71.0948474 L36.1931332,71.0633688 Z M37.7352343,71.0633688 L38.4276061,71.0633688 L38.207306,71.4725903 C38.207306,71.4725903 38.5534919,71.8818118 38.207306,72.3854691 L38.3961347,72.7002548 L37.7667057,72.7002548 L37.924063,72.3854691 C37.924063,72.3854691 37.6093485,71.8188547 37.924063,71.4411118 L37.7352343,71.0948474 L37.7352343,71.0633688 Z M39.2773353,71.0948474 L39.9697072,71.0948474 L39.749407,71.4725903 C39.749407,71.4725903 40.095593,71.8818118 39.749407,72.3854691 L39.9382357,72.7002548 L39.3088067,72.7002548 L39.466164,72.3854691 C39.466164,72.3854691 39.1514495,71.8188547 39.466164,71.4411118 L39.2773353,71.0948474 Z" id="Shape" stroke="#000000" stroke-width="0.65"></path>
                    <path d="M35.8254026,92.5048828 C39.3942167,92.5048828 43.7866032,91.7633057 45.8455344,90.7196045 L50.375183,90.3076172 L50.4849927,95.8282471 C46.6416545,97.9431152 37.8019766,98.4100342 35.8528551,98.3825684 C33.9037335,98.3825684 24.954246,97.9431152 21.0834553,95.8282471 L21.1383602,90.2801514 L25.6680088,90.6921387 C28.9052011,91.9463728 32.3544186,92.5619391 35.8254026,92.5048828" id="Path" fill="#FFFF00"></path>
                    <path d="M35.8469473,92.5002795 C39.4346925,92.5002795 43.809224,91.7762723 45.8863397,90.7060007 L50.386757,90.3282578 L50.4811713,95.8370087 C46.6731259,97.9460733 37.7981772,98.418252 35.8784187,98.3867734 C33.9271889,98.3867734 24.9578258,97.9460733 21.0868375,95.8055301 L21.1497804,90.2967792 L25.6816691,90.7060007 C27.7587848,91.7762723 32.2906735,92.5002795 35.8469473,92.5002795" id="Path" stroke="#000000" stroke-width="0.25"></path>
                    <path d="M9.44363104,68.939209 L13.4242313,70.2026367 L12.216325,76.6571045 L8.45534407,77.2613525 C8.45534407,77.2613525 7.82393851,73.8555908 9.44363104,68.939209" id="Path" fill="#FFFF00"></path>
                    <path d="M9.47387262,68.9543042 L13.4392753,70.2134473 L12.2433602,76.6665555 L8.46678624,77.2646484 C8.46678624,77.2646484 7.83735725,73.8649622 9.47387262,68.9543042 Z" id="Path" stroke="#000000" stroke-width="0.25"></path>
                    <polyline id="Path" fill="#7E7E7E" points="12.216325 76.6021729 8.45534407 77.2613525 10.8437042 73.8555908 12.216325 76.6021729"></polyline>
                    <polyline id="Path" stroke="#000000" stroke-width="0.25" points="12.2433602 76.6035983 8.46678624 77.2331699 10.8586164 73.8649622 12.2433602 76.6035983"></polyline>
                    <path d="M7.05527086,73.6083984 L10.8986091,73.8830566 C10.9809663,77.1240234 11.3927526,89.5385742 26.2170571,90.2252197 L25.750366,94.7570801 C7.71412884,94.921875 6.34150805,79.5135498 7.08272328,73.6083984" id="Path" fill="#FFFF00"></path>
                    <path d="M7.08204246,73.6131335 L10.9215593,73.8649622 C11.0159736,77.1387341 11.393631,89.5412933 26.2481552,90.233822 L25.7760835,94.7667371 C7.71147145,94.9556085 6.35819912,79.531106 7.08204246,73.6131335 Z M21.1812518,95.6796158 L25.7131406,94.7037799 L21.1812518,95.6796158 Z" id="Shape" stroke="#000000" stroke-width="0.25"></path>
                    <path d="M61.8777452,68.9941406 L57.9245974,70.2575684 L59.1874085,76.6845703 L62.9758419,77.2888184 C62.9758419,77.2888184 63.579795,73.9105225 61.8777452,68.9941406" id="Path" fill="#FFFF00"></path>
                    <path d="M61.9053075,68.9857828 L57.9399048,70.2449258 L59.1987628,76.6980341 L62.9753367,77.3276056 C62.9753367,77.3276056 63.6047657,73.9279193 61.9053075,68.9857828 Z" id="Path" stroke="#000000" stroke-width="0.25"></path>
                    <polyline id="Path" fill="#7E7E7E" points="59.1874085 76.6296387 62.9483895 77.3162842 60.5325769 73.9105225 59.1599561 76.6296387"></polyline>
                    <polyline id="Path" stroke="#000000" stroke-width="0.25" points="59.1987628 76.6350769 62.9753367 77.296127 60.5520351 73.9279193 59.1987628 76.6350769"></polyline>
                    <path d="M64.3210102,73.6358643 L60.477672,73.9105225 C60.4227672,77.1514893 60.1207906,89.56604 45.2964861,90.2526855 L45.8455344,94.7570801 C63.8817716,94.9768066 65.1171303,79.5410156 64.3484627,73.6358643" id="Path" fill="#FFFF00"></path>
                    <path d="M64.3286091,73.6446121 L60.4890922,73.8964407 C60.4261493,77.1702127 60.1743777,89.6042505 45.3198536,90.2653006 L45.8233968,94.7667371 C63.8880088,94.9870871 65.1153953,79.5625845 64.3286091,73.6760907 L64.3286091,73.6446121 Z M50.4182284,95.6796158 L45.8863397,94.7352585 L50.4182284,95.6796158 Z" id="Shape" stroke="#000000" stroke-width="0.25"></path>
                    <path d="M33.4370425,95.223999 C33.3272328,95.2789307 33.1625183,95.3063965 33.0252562,95.2789307 L32.3114934,95.2514648 L32.3663982,94.3450928 L33.0801611,94.4000244 C33.2174231,94.4000244 33.3546852,94.4274902 33.40959,94.4824219 C33.5468521,94.5373535 33.601757,94.6746826 33.601757,94.8669434 C33.601757,95.0317383 33.5193997,95.1416016 33.40959,95.223999 M32.2291362,96.59729 L32.284041,95.526123 L33.1076135,95.5810547 C33.3821376,95.6085205 33.601757,95.526123 33.739019,95.3887939 C33.8762811,95.2789307 33.9586384,95.1141357 33.9586384,94.8944092 C33.9864509,94.6960314 33.926289,94.4953938 33.7939239,94.3450928 C33.645725,94.2005617 33.4512815,94.1130194 33.2448755,94.0979004 L32.0369693,94.0155029 L31.8722548,96.59729 L32.2291362,96.59729 M34.8096633,94.4824219 L35.6881406,94.4824219 L35.9901171,94.5373535 C36.1273792,94.619751 36.182284,94.7296143 36.182284,94.921875 C36.182284,95.0866699 36.1548316,95.1965332 36.045022,95.2789307 C35.9271433,95.3418424 35.7939824,95.3703908 35.6606881,95.3613281 L34.8096633,95.3613281 L34.8096633,94.4824219 M34.8096633,96.7346191 L34.8096633,95.6359863 L35.6332357,95.6634521 C35.7704978,95.6634521 35.9077599,95.6634521 35.9626647,95.7183838 C36.0724744,95.7733154 36.1548316,95.8831787 36.1548316,96.0479736 L36.1548316,96.6796875 L36.2097365,96.762085 L36.6489751,96.762085 L36.6489751,96.7071533 C36.594859,96.6786678 36.5550635,96.6288991 36.5391654,96.5698242 C36.5213368,96.4979306 36.5121212,96.4241699 36.511713,96.3500977 L36.511713,95.993042 C36.511713,95.8282471 36.4568082,95.7183838 36.4019034,95.6634521 C36.3468662,95.5877338 36.2703486,95.5303176 36.182284,95.4986572 C36.2920937,95.4437256 36.4019034,95.3613281 36.4568082,95.2789307 C36.511713,95.1690674 36.5666179,95.0592041 36.5666179,94.8944092 C36.5666179,94.619751 36.4293558,94.4000244 36.182284,94.2901611 C36.0264358,94.2212559 35.8584898,94.1839164 35.6881406,94.1802979 L34.4527818,94.1802979 L34.4527818,96.762085 L34.8096633,96.762085 M37.5549048,96.2127686 C37.3902053,96.0097739 37.2940904,95.7597532 37.2803807,95.4986572 C37.2803807,95.1416016 37.3352855,94.8669434 37.5,94.6746826 C37.6687799,94.4909579 37.9096213,94.3905584 38.158858,94.4000244 C38.4001144,94.3725103 38.6412112,94.4529152 38.817716,94.619751 C39.0098829,94.7845459 39.0922401,95.0317383 39.1196925,95.3338623 C39.140902,95.6007941 39.0836488,95.8681064 38.954978,96.1029053 C38.817716,96.3226318 38.5980966,96.4599609 38.2686676,96.4599609 C37.9392387,96.4599609 37.7196193,96.4050293 37.5274524,96.2127686 M37.1156662,94.5922852 C36.9567554,94.8669491 36.8804946,95.1816785 36.8960469,95.4986572 C36.9234993,95.8831787 37.0333089,96.2127686 37.2803807,96.4324951 C37.5423274,96.6894944 37.9030376,96.8198145 38.2686676,96.7895508 C38.648868,96.7852405 39.0048483,96.6020755 39.2295022,96.295166 C39.4238629,96.0032088 39.5200355,95.6568183 39.5040264,95.3063965 C39.4944879,94.9932999 39.378251,94.6928745 39.1745974,94.4549561 C38.9275256,94.1802979 38.5706442,94.0429688 38.1039531,94.0704346 C37.6647145,94.0704346 37.3352855,94.2626953 37.1156662,94.5922852 M49.1947291,90.8843994 C49.4692533,90.8569336 49.6888726,90.8569336 49.8810395,90.9118652 C50.1555637,91.0217285 50.3477306,91.2139893 50.4849927,91.5435791 L50.1281113,91.5985107 C50.0677543,91.4418639 49.9499316,91.3141603 49.7986823,91.2414551 C49.6249707,91.1698307 49.4340818,91.1507325 49.249634,91.1865234 C49.0251575,91.2245013 48.826408,91.3537516 48.7005857,91.5435791 C48.5633236,91.7358398 48.5084187,92.010498 48.5633236,92.3675537 C48.5924842,92.6351288 48.7081526,92.8858662 48.8927526,93.081665 C49.0574671,93.24646 49.3045388,93.3013916 49.6065154,93.2739258 C49.8204295,93.244166 50.0158901,93.1366102 50.1555637,92.9718018 C50.3202782,92.8070068 50.3477306,92.5872803 50.2928258,92.2851563 L49.4692533,92.4224854 L49.4418009,92.1478271 L50.5948023,91.9555664 L50.8144217,93.3288574 L50.5673499,93.3288574 L50.4300878,93.0541992 L50.1555637,93.3288574 C50.0183016,93.4661865 49.8261347,93.5211182 49.6065154,93.5760498 C49.2998047,93.6304328 48.9840411,93.5613258 48.7280381,93.3837891 C48.4351585,93.1558419 48.246999,92.8189711 48.2064422,92.4499512 C48.1157298,92.0729152 48.1853089,91.6751262 48.3986091,91.3513184 C48.5911927,91.0821333 48.8924058,90.9113625 49.2221816,90.8843994 M51.8027086,90.6921387 L52.6262811,90.3900146 C52.7360908,90.335083 52.8459004,90.335083 52.9282577,90.335083 C53.0929722,90.335083 53.2027818,90.4449463 53.2576867,90.6097412 C53.3125915,90.7745361 53.3125915,90.9118652 53.2576867,91.0217285 C53.1753294,91.104126 53.0655198,91.1865234 52.9008053,91.2414551 L52.1321376,91.5161133 L51.8027086,90.6921387 M52.6262811,92.8070068 L52.2419473,91.7907715 L53.0106149,91.5161133 C53.1050836,91.4695866 53.2075934,91.4416157 53.3125915,91.4337158 C53.4498536,91.4611816 53.5596633,91.5435791 53.6420205,91.708374 L53.806735,92.0928955 L53.8890922,92.2851563 L53.9439971,92.3675537 L54.3557833,92.2027588 L54.3557833,92.1478271 C54.2734261,92.1478271 54.2185212,92.1203613 54.1910688,92.0379639 C54.136164,92.010498 54.1087116,91.9281006 54.0812592,91.8457031 L53.9439971,91.5161133 C53.8890922,91.3787842 53.806735,91.2963867 53.7518302,91.2414551 C53.665312,91.2036801 53.5716907,91.1849467 53.477306,91.1865234 L53.6420205,90.8569336 C53.6420205,90.7470703 53.6420205,90.6097412 53.5871157,90.4724121 C53.477306,90.1977539 53.3125915,90.032959 53.0380673,90.032959 C52.8602983,90.0224915 52.6823687,90.0505993 52.5164714,90.1153564 L51.36347,90.5273438 L52.2968521,92.9443359 L52.6262811,92.8344727 M55.6460469,91.5435791 L54.1910688,89.4012451 L55.7833089,88.3575439 L55.9754758,88.6322021 L54.6577599,89.4561768 L55.0969985,90.1153564 L56.3323572,89.3463135 L56.4970717,89.5935059 L55.261713,90.3625488 L55.7558565,91.104126 L57.1284773,90.2252197 L57.2931918,90.4998779 L55.6460469,91.5435791 M56.9363104,87.7532959 L57.3480966,87.286377 C57.567716,87.0666504 57.7598829,86.9842529 57.9795022,87.0117188 C58.2265739,87.0117188 58.4461933,87.1490479 58.693265,87.3687744 C58.8675015,87.5148138 59.0000855,87.7043121 59.0775988,87.9180908 C59.1325037,88.0828857 59.1050512,88.2202148 59.0775988,88.3575439 C59.0279651,88.4583936 58.963155,88.5510247 58.8854319,88.6322021 L58.4736457,89.0716553 L56.9363104,87.7532959 M59.1599561,88.7420654 C59.4619327,88.4124756 59.5168375,88.0828857 59.352123,87.6434326 C59.2373222,87.4214594 59.0785303,87.2252089 58.8854319,87.0666504 C58.6528638,86.8466508 58.3531461,86.7112283 58.034407,86.6821289 C57.704978,86.6546631 57.4304539,86.7645264 57.1833821,87.0391846 L56.4696193,87.8082275 L58.4461933,89.5385742 L59.1599561,88.7695313 M60.6972914,86.7645264 L58.4187408,85.3912354 L58.6109078,85.1165771 L60.8894583,86.4624023 L60.6972914,86.7370605 M61.6032211,85.1989746 L59.1325037,84.2102051 L59.8462665,82.4798584 L60.148243,82.5897217 L59.5717423,84.0179443 L60.3129575,84.2926025 L60.8620059,83.001709 L61.13653,83.1115723 L60.5874817,84.4299316 L61.4110542,84.7595215 L62.0424597,83.3312988 L62.3169839,83.4411621 L61.6032211,85.1989746 M62.7013177,82.1777344 L60.1207906,81.628418 L60.2306003,81.2164307 L62.6189605,80.3924561 L60.5051245,79.9255371 L60.5874817,79.6234131 L63.1680088,80.1727295 L63.0856515,80.557251 L60.6972914,81.3812256 L62.8111274,81.8481445 L62.7287701,82.1777344 M62.5091508,78.8818359 L62.5366032,78.5522461 C62.7013177,78.5522461 62.8111274,78.5522461 62.920937,78.4973145 C63.113104,78.3874512 63.1954612,78.1951904 63.250366,77.9205322 C63.2658206,77.79178 63.2565022,77.6612582 63.2229136,77.5360107 C63.1680088,77.34375 63.0581991,77.2064209 62.8660322,77.2064209 C62.7013177,77.1789551 62.5915081,77.2064209 62.5366032,77.2888184 C62.454246,77.3712158 62.3993411,77.5085449 62.3444363,77.7008057 L62.2071742,78.0303955 C62.1522694,78.2501221 62.0699122,78.414917 61.9875549,78.4973145 C61.8777452,78.6621094 61.7130307,78.717041 61.4934114,78.6895752 C61.2802126,78.6782816 61.0813128,78.5787832 60.9443631,78.414917 C60.7796486,78.2501221 60.7247438,78.0029297 60.7521962,77.7008057 C60.7796486,77.4261475 60.8620059,77.2064209 61.0267204,77.041626 C61.1639824,76.8768311 61.3836018,76.7669678 61.6855783,76.8218994 L61.6581259,77.1514893 C61.5208638,77.1514893 61.3836018,77.1514893 61.3286969,77.2338867 C61.1639824,77.3162842 61.0816252,77.5085449 61.0541728,77.7557373 C61.0541728,77.947998 61.0541728,78.0853271 61.1639824,78.1951904 C61.2463397,78.3050537 61.3286969,78.3599854 61.4385066,78.3599854 C61.5757687,78.3599854 61.6855783,78.3599854 61.7404832,78.2501221 L61.9326501,77.7832031 L62.0424597,77.4261475 C62.0973646,77.2613525 62.1797218,77.1514893 62.2620791,77.041626 C62.3993411,76.9042969 62.5915081,76.8493652 62.8111274,76.8493652 C63.113104,76.8768311 63.3327233,77.0141602 63.4150805,77.2338867 C63.5248902,77.4536133 63.579795,77.6733398 63.5523426,77.9754639 C63.5370119,78.2466821 63.419257,78.5019421 63.2229136,78.6895752 C63.0307467,78.8543701 62.8111274,78.9093018 62.5091508,78.8818359 M8.81222548,78.717041 L8.89458272,79.0466309 C8.72986823,79.0740967 8.62005857,79.1290283 8.53770132,79.2114258 C8.40043924,79.3487549 8.34553441,79.5684814 8.40043924,79.8706055 C8.41933846,79.9856003 8.45640503,80.0968543 8.5102489,80.2001953 C8.62005857,80.3924561 8.78477306,80.4748535 8.97693997,80.4473877 C9.11420205,80.4199219 9.1965593,80.3649902 9.25146413,80.255127 L9.33382138,79.8156738 L9.33382138,79.4586182 C9.33382138,79.2388916 9.38872621,79.0466309 9.41617862,78.9642334 C9.49853587,78.7994385 9.66325037,78.6895752 9.88286969,78.6346436 C10.102489,78.6071777 10.3221083,78.6346436 10.4868228,78.7994385 C10.6789898,78.9093018 10.7887994,79.1290283 10.8437042,79.4036865 C10.8970682,79.6442286 10.8680623,79.8957355 10.761347,80.1177979 C10.6515373,80.3375244 10.4868228,80.4473877 10.1848463,80.5023193 L10.1299414,80.2001953 C10.2313428,80.1637585 10.3246128,80.1077692 10.4044656,80.0354004 C10.5417277,79.8980713 10.5691801,79.7058105 10.5417277,79.4586182 C10.4868228,79.2388916 10.431918,79.1015625 10.3221083,79.0466309 C10.229256,78.9730372 10.1092233,78.9430144 9.99267936,78.9642334 C9.86815517,78.9585299 9.75542116,79.0374822 9.7181552,79.1564941 L9.69070278,79.6508789 L9.66325037,80.0079346 C9.66215796,80.161079 9.6245096,80.311746 9.5534407,80.4473877 C9.46292355,80.628565 9.28769479,80.7523163 9.08674963,80.7769775 C8.81222548,80.8319092 8.53770132,80.7495117 8.40043924,80.557251 C8.23264989,80.3716587 8.11873802,80.1437237 8.07101025,79.8980713 C8.0079818,79.6248999 8.05744987,79.337845 8.20827233,79.1015625 C8.34632722,78.8984229 8.56777462,78.7675038 8.81222548,78.7445068 M8.64751098,82.1228027 L11.2005857,81.3537598 L11.7770864,83.1390381 L11.4751098,83.2489014 L10.9809663,81.7932129 L10.2122987,82.0129395 L10.6789898,83.3862305 L10.3770132,83.4686279 L9.93777452,82.0953369 L9.05929722,82.3699951 L9.5534407,83.8531494 L9.27891654,83.9355469 L8.64751098,82.1228027 M9.77306003,85.2264404 L12.1065154,83.9904785 L12.3810395,84.4299316 L10.761347,86.1053467 L13.0948023,85.7208252 L13.3418741,86.1328125 L11.0084187,87.3687744 L10.8437042,87.0941162 L12.216325,86.3525391 L12.4633968,86.2426758 L12.8202782,86.050415 L10.4868228,86.4624023 L10.3221083,86.1602783 L11.9143485,84.4573975 L11.8319912,84.5123291 L11.5574671,84.6496582 C11.4785908,84.7014403 11.3960102,84.7473407 11.3103953,84.7869873 L9.93777452,85.5010986 L9.77306003,85.2264404 M14.1105417,88.659668 C14.0007321,88.6322021 13.8909224,88.5498047 13.7811127,88.4399414 L13.2869693,87.9455566 L13.9458272,87.3413086 L14.4399707,87.8356934 C14.5221628,87.9131029 14.5875722,88.0065905 14.6321376,88.1103516 C14.6870425,88.2476807 14.6321376,88.3850098 14.4948755,88.5223389 C14.3576135,88.6322021 14.2203514,88.6871338 14.1105417,88.659668 M12.2437775,88.8793945 L13.0673499,88.1378174 L13.6163982,88.7145996 C13.8360176,88.9068604 14.0281845,88.9892578 14.2203514,88.9892578 C14.4242448,88.9865449 14.6198827,88.9082515 14.7693997,88.7695312 C14.9080523,88.6199412 14.9863074,88.4242078 14.989019,88.2202148 C14.989019,88.0554199 14.9066618,87.8631592 14.7419473,87.6983643 L13.9183748,86.8743896 L11.9967057,88.6322021 L12.2712299,88.9068604 M14.5772328,90.9667969 L15.977306,88.7695312 L17.624451,89.7583008 L17.4597365,90.032959 L16.0871157,89.2089844 L15.6753294,89.8956299 L16.9106881,90.637207 L16.7734261,90.9118652 L15.5106149,90.1428223 L15.0439239,90.8843994 L16.4165447,91.708374 L16.2518302,91.9830322 L14.5772328,90.9667969 M18.6950952,90.5273437 L19.5461201,90.802002 L19.8206442,90.9393311 C19.9304539,91.0491943 19.9579063,91.1865234 19.875549,91.3513184 C19.8206442,91.5161133 19.7657394,91.6259766 19.6284773,91.6534424 L19.2166911,91.6259766 L18.420571,91.3513184 L18.6950952,90.5273437 M17.9813324,92.6971436 L18.3382138,91.6534424 L19.1068814,91.9006348 C19.2441435,91.9281006 19.3814056,91.9830322 19.408858,92.0379639 C19.4912152,92.1203613 19.5186676,92.2576904 19.4912152,92.4224854 L19.3539531,92.8344727 L19.3265007,93.0267334 L19.3265007,93.1091309 L19.738287,93.24646 L19.738287,93.1915283 L19.6833821,92.9992676 L19.738287,92.8070068 L19.8480966,92.477417 C19.875549,92.3126221 19.9030015,92.2027588 19.8480966,92.1478271 C19.8480966,92.0654297 19.7657394,91.9830322 19.6833821,91.9006348 C19.8206442,91.9006348 19.9579063,91.8457031 20.0402635,91.7633057 C20.1226208,91.6809082 20.204978,91.5710449 20.2324305,91.4337158 C20.3422401,91.1590576 20.2873353,90.9118652 20.067716,90.7470703 C19.937114,90.6392636 19.7883839,90.5555621 19.6284773,90.4998779 L18.4480234,90.1428223 L17.624451,92.5872803 L17.9813324,92.6971436" id="Shape" fill="#009FC5" fill-rule="nonzero"></path>
                    <path d="M21.5501464,48.2299805 C21.8246706,47.4884033 24.6522694,45.4833984 33.8488287,46.3623047 C33.8488287,46.3623047 35.4136164,47.3236084 36.3195461,47.1862793 C36.8685944,47.1313477 36.045022,47.2412109 35.3312592,46.6644287 C34.6449488,46.1151123 34.5076867,44.934082 36.0724744,44.9890137 C37.6647145,45.0164795 43.5669839,45.3460693 43.6767936,45.8953857 C43.7866032,46.4172363 40.5472182,46.6369629 39.3667643,46.6094971 C38.158858,46.5820312 38.2686676,47.1862793 39.4765739,47.1588135 C43.2375549,46.9940186 47.3279649,45.6756592 51.6379941,48.7518311 C52.15959,49.1088867 50.3477306,49.1638184 48.9476574,48.5870361 C48.9476574,48.5870361 45.1043192,48.7792969 43.4571742,48.5046387 C43.4571742,48.5046387 42.2218155,49.5483398 40.5472182,49.4384766 C40.7668375,49.987793 39.943265,51.965332 34.7822108,50.4547119 C33.9037335,50.7293701 30.8016105,51.2512207 31.1310395,50.3173828 C30.3074671,50.3173828 28.8799414,50.592041 28.6603221,50.1251221 C28.4407028,49.6582031 31.1859444,48.9715576 31.6800878,48.4771729 C31.6800878,48.4771729 25.8601757,48.5321045 24.7620791,48.1201172 C24.7620791,48.1201172 21.3305271,48.8891602 21.5501464,48.2299805" id="Path" fill="#BC715F"></path>
                    <path d="M23.4169107,56.3598633 C23.5267204,56.1950684 23.5816252,55.8654785 23.8561493,55.8929443 C24.4051977,56.0302734 24.8169839,57.1014404 25.5032943,56.4147949 C25.7778184,56.3598633 25.8601757,56.6894531 26.0523426,56.7443848 C26.1896047,57.321167 26.6837482,56.6070557 27.0131772,56.6619873 C27.7818448,56.3323975 28.6877745,56.25 29.5937042,56.3873291 C29.5937042,56.9915771 29.1544656,57.623291 28.6054173,57.9528809 C28.6054173,58.5021973 29.1544656,58.8867188 29.1270132,59.463501 C29.0446559,59.6832275 29.1270132,60.0128174 28.7975842,60.0952148 C28.3583455,60.0128174 27.9740117,59.9853516 27.6171303,59.7381592 C27.5622255,59.7106934 27.5347731,59.6282959 27.4524158,59.6557617 C27.397511,59.8480225 27.72694,60.0402832 27.8367496,60.2325439 C27.6171303,60.5895996 27.2877013,60.2600098 26.9857247,60.2600098 C26.9033675,60.4797363 26.9857247,60.7269287 26.7661054,60.8642578 C26.409224,60.8642578 26.3268668,60.4522705 26.1072474,60.2600098 C25.8601757,60.5072021 26.2719619,60.6445312 26.3268668,60.836792 C26.1621523,61.605835 26.1896047,62.3474121 25.4483895,62.8417969 L24.9267936,63.0889893 C24.7895315,62.7044678 24.8718887,62.1276855 24.7895315,61.7156982 C24.5150073,62.210083 24.2404832,62.6495361 23.8286969,63.0615234 C23.2796486,62.8967285 23.0051245,62.2924805 22.8953148,61.7706299 C22.6665768,61.1823921 22.8065474,60.514514 23.2521962,60.067749 C23.1149341,59.7930908 22.5658858,59.8480225 22.4835286,59.4085693 C21.6599561,58.8592529 21.2481698,60.3149414 20.7265739,59.5733643 C20.5625494,58.8296949 20.7669683,58.0525242 21.2756223,57.4859619 C21.1383602,57.2113037 20.7540264,57.2662354 20.534407,57.1014404 C20.0402635,56.6619873 19.2990483,56.2225342 19.3539531,55.4534912 C20.7607874,54.9439884 22.3352925,55.2976213 23.3894583,56.3598633" id="Path" fill="#008737"></path>
                    <path d="M24.1306735,56.2774658 C24.1032211,56.9091797 24.5424597,56.4422607 24.8993411,56.8267822 C24.624817,56.7169189 24.4326501,57.2937012 24.1581259,56.9641113 L23.9934114,57.1289062 C24.1032211,57.3486328 24.2679356,57.3760986 24.1032211,57.623291 C23.8286969,57.7331543 23.7463397,57.3486328 23.6090776,57.2113037 C23.6090776,57.1563721 23.6639824,57.0465088 23.5541728,56.9915771 C23.3894583,57.1289062 23.2247438,57.1838379 23.0051245,57.1563721 C22.9502196,57.0465088 22.8129575,56.8817139 22.9502196,56.7718506 C23.1698389,56.4971924 23.4992679,56.8817139 23.6639824,56.6894531 C23.6914348,56.4971924 23.5267204,56.2774658 23.7463397,56.1401367 C23.8836018,56.1676025 24.0757687,56.0852051 24.1306735,56.2774658 M25.8327233,56.7993164 C25.8601757,56.9091797 25.7778184,57.0739746 25.9425329,57.1838379 C26.1621523,57.0739746 26.3817716,57.1563721 26.4915813,57.3486328 C26.4915813,57.4584961 26.5190337,57.623291 26.3817716,57.6782227 L26.0523426,57.5958252 C26.079795,57.5408936 25.9699854,57.5134277 25.9425329,57.4310303 C25.8052709,57.4035645 25.6954612,57.5134277 25.613104,57.5958252 C25.6954612,57.7056885 25.8876281,57.7880859 25.8327233,57.925415 C25.6405564,58.1176758 25.5581991,57.7606201 25.3385798,57.8704834 C25.1738653,57.8155518 25.3660322,57.5134277 25.1464129,57.4035645 C24.8718887,57.4035645 25.0640556,57.8430176 24.7071742,57.6782227 C24.5973646,57.5408936 24.4875549,57.3486328 24.5973646,57.2113037 C24.7642751,57.112354 24.9763015,57.1346835 25.1189605,57.2662354 C25.3385798,57.019043 25.3385798,56.1401367 25.8601757,56.7993164 M23.7188873,57.7056885 C23.8561493,57.925415 23.6639824,58.2000732 23.8561493,58.4197998 C24.1306735,57.8704834 24.4051977,58.5296631 24.7346266,58.4747314 C24.8444363,58.6120605 24.7620791,58.7768555 24.7895315,58.9141846 C24.3777452,59.0240479 23.8836018,59.161377 23.5267204,58.8317871 L23.4169107,58.9416504 C23.63653,59.1339111 23.8286969,59.3811035 23.6639824,59.7106934 C23.3620059,59.765625 22.8678624,59.7930908 22.7306003,59.463501 C22.648243,59.1888428 22.9227672,59.0240479 22.6207906,58.8043213 C22.4286237,59.0789795 22.4286237,59.4085693 22.0168375,59.161377 C21.7719752,59.0280016 21.675239,58.7255534 21.7972182,58.4747314 C22.0717423,58.0352783 22.5658858,58.4747314 22.84041,58.2824707 C22.8953148,57.8979492 22.7580527,57.5683594 23.1149341,57.3760986 C23.3894583,57.321167 23.5267204,57.5408936 23.7188873,57.7056885" id="Shape" fill="#FFFF00" fill-rule="nonzero"></path>
                    <path d="M24.8718887,57.9633492 C24.7346266,58.6200126 24.2679356,57.9347986 24.0483163,57.906248 C24.3228404,57.3352364 24.5150073,58.0775515 24.8718887,57.9633492 M26.3543192,58.6771138 C26.0248902,58.7627655 26.079795,58.3345068 25.9150805,58.1632033 L26.0523426,58.049001 C26.1621523,58.1917539 26.2445095,58.4772597 26.3543192,58.6771138" id="Shape" fill="#FFFFFF" fill-rule="nonzero"></path>
                    <path d="M25.9150805,58.5021973 C25.9974378,58.7219238 25.6954612,58.9141846 25.9699854,59.0515137 L26.1896047,58.8592529 C26.4366764,58.9141846 26.6837482,58.9691162 26.8484627,59.1888428 C27.0131772,59.6557617 26.5464861,59.6557617 26.2994143,59.7930908 L26.0248902,59.7930908 C26.079795,59.6282959 25.8876281,59.5733643 25.8601757,59.5184326 C25.7521928,59.4801726 25.6318157,59.5130187 25.5581991,59.6008301 C25.613104,59.8754883 25.9699854,60.1501465 25.613104,60.3973389 C25.283675,60.3973389 24.7895315,60.5072021 24.8169839,60.067749 C24.7071742,59.7930908 25.1464129,59.4360352 24.6797218,59.4085693 C24.5150073,59.765625 24.3502928,60.067749 23.9385066,59.765625 L23.9934114,59.2712402 C24.3777452,59.2712402 24.8444363,59.3536377 25.0091508,58.9141846 C25.1189605,58.6120605 24.8169839,58.3099365 25.0915081,58.09021 C25.5032943,57.9803467 25.7229136,58.2550049 25.9150805,58.5021973" id="Path" fill="#FFFF00"></path>
                    <path d="M25.6405564,59.2163086 C25.7229136,59.463501 25.4758419,59.4909668 25.3385798,59.6008301 C25.1738653,59.6008301 25.0640556,59.5458984 24.954246,59.4360352 C24.8718887,59.161377 25.0915081,59.1064453 25.2287701,58.996582 C25.420937,58.9141846 25.5032943,59.1339111 25.6405564,59.2163086" id="Path" fill="#000000"></path>
                    <path d="M25.3934846,59.3811035 C25.3660322,59.4360352 25.283675,59.4085693 25.2287701,59.4360352 L25.1738653,59.161377 C25.3111274,59.161377 25.4483895,59.1888428 25.3934846,59.3811035" id="Path" fill="#FFFFFF"></path>
                </g>
            </g>
        </g>
    </g>
</svg>