<?xml version="1.0" encoding="UTF-8"?>
<svg width="200px" height="150px" viewBox="0 0 200 150" version="1.1" xmlns="http://www.w3.org/2000/svg" xmlns:xlink="http://www.w3.org/1999/xlink">
    <!-- Generator: Sketch 52.5 (67469) - http://www.bohemiancoding.com/sketch -->
    <title>sk</title>
    <desc>Created with Sketch.</desc>
    <g id="Flags" stroke="none" stroke-width="1" fill="none" fill-rule="evenodd">
        <g id="Europe" transform="translate(-180.000000, -1850.000000)">
            <g id="sk" transform="translate(180.000000, 1850.000000)">
                <polygon id="Path" fill="#EE1C25" points="0 0 200 0 200 150 0 150"></polygon>
                <polygon id="Path" fill="#0B4EA2" points="0 0 200 0 200 100 0 100"></polygon>
                <polygon id="Path" fill="#FFFFFF" points="0 0 200 0 200 50 0 50"></polygon>
                <path d="M72.8125,115.875 C59.375,109.40625 40.125,96.53125 40.125,71.125 C40.125,45.6875 41.375,34.125 41.375,34.125 L104.28125,34.125 C104.28125,34.125 105.5,45.6875 105.5,71.125 C105.5,96.5625 86.25,109.375 72.8125,115.875 Z" id="Path" fill="#FFFFFF"></path>
                <path d="M72.8125,112.5 C60.46875,106.5625 42.8125,94.75 42.8125,71.4375 C42.8125,48.125 43.9375,37.5 43.9375,37.5 L101.6875,37.5 C101.6875,37.5 102.78125,48.125 102.78125,71.4375 C102.8125,94.78125 85.15625,106.5625 72.8125,112.5 Z" id="Path" fill="#EE1C25"></path>
                <path d="M75.4375,65.3125 C78.78125,65.375 85.3125,65.5 91.09375,63.5625 C91.09375,63.5625 90.96875,65.65625 90.96875,68.0625 C90.96875,70.46875 91.125,72.5625 91.125,72.5625 C85.8125,70.78125 79.21875,70.75 75.4375,70.78125 L75.4375,83.65625 L70.1875,83.65625 L70.1875,70.78125 C66.4375,70.75 59.84375,70.78125 54.53125,72.5625 C54.53125,72.5625 54.6875,70.46875 54.6875,68.0625 C54.6875,65.625 54.53125,63.5625 54.53125,63.5625 C60.3125,65.5 66.84375,65.375 70.15625,65.3125 L70.15625,57.21875 C67.125,57.21875 62.75,57.34375 57.78125,59 C57.78125,59 57.9375,56.9375 57.9375,54.5 C57.9375,52.09375 57.78125,50 57.78125,50 C62.75,51.65625 67.125,51.8125 70.15625,51.78125 C70,46.65625 68.5,40.21875 68.5,40.21875 C68.5,40.21875 71.59375,40.4375 72.8125,40.4375 C74.0625,40.4375 77.125,40.21875 77.125,40.21875 C77.125,40.21875 75.625,46.65625 75.46875,51.78125 C78.5,51.8125 82.875,51.65625 87.84375,50 C87.84375,50 87.6875,52.09375 87.6875,54.5 C87.6875,56.9375 87.84375,59 87.84375,59 C83.838895,57.7086181 79.6439105,57.1063156 75.4375,57.21875 L75.4375,65.34375 L75.4375,65.3125 Z" id="Path" fill="#FFFFFF"></path>
                <path d="M72.8125,82.28125 C66.59375,82.28125 63.28125,90.875 63.28125,90.875 C63.28125,90.875 61.40625,86.8125 56.34375,86.8125 C52.90625,86.8125 50.40625,89.84375 48.78125,92.6875 C55.03125,102.59375 65,108.71875 72.8125,112.5 C80.625,108.75 90.625,102.59375 96.84375,92.6875 C95.21875,89.875 92.71875,86.8125 89.28125,86.8125 C84.21875,86.8125 82.34375,90.875 82.34375,90.875 C82.34375,90.875 79.0625,82.28125 72.8125,82.28125 Z" id="Path" fill="#0B4EA2"></path>
            </g>
        </g>
    </g>
</svg>