<?xml version="1.0" encoding="UTF-8"?>
<svg width="200px" height="141px" viewBox="0 0 200 141" version="1.1" xmlns="http://www.w3.org/2000/svg" xmlns:xlink="http://www.w3.org/1999/xlink">
    <!-- Generator: Sketch 52.5 (67469) - http://www.bohemiancoding.com/sketch -->
    <title>za</title>
    <desc>Created with Sketch.</desc>
    <defs>
        <polygon id="path-1" points="0.0292825769 0 199.941435 0 199.941435 140.926794 0.0292825769 140.926794"></polygon>
    </defs>
    <g id="Flags" stroke="none" stroke-width="1" fill="none" fill-rule="evenodd">
        <g id="Africa" transform="translate(-620.000000, -1850.000000)">
            <g id="za" transform="translate(620.000000, 1850.000000)">
                <mask id="mask-2" fill="white">
                    <use xlink:href="#path-1"></use>
                </mask>
                <g id="Path"></g>
                <g id="Group" mask="url(#mask-2)">
                    <g>
                        <polygon id="Path" fill="#000000" points="0.0274518302 112.223082 0.0274518302 28.934229 62.0411362 70.5786553 0 112.223082"></polygon>
                        <polygon id="Path" fill="#0000CC" points="42.3307221 140.855341 111.948563 94.0225183 210.830056 94.0225183 210.830056 140.827889 42.3307221 140.827889"></polygon>
                        <path d="M37.8835256,0.274518302 L210.830056,0.274518302 L210.830056,47.1622442 L111.921112,47.1622442 C111.921112,47.1622442 38.789436,-0.192162811 37.8835256,0.274518302 Z" id="Path" fill="#FF0000"></path>
                        <polygon id="Path" fill="#FFCC00" points="0.0274518302 17.8436896 0.0274518302 28.934229 62.0411362 70.5512035 0 112.223082 0 123.286169 78.1004568 70.5786553 0 17.8436896"></polygon>
                        <polygon id="Path" fill="#009933" points="0.0274518302 17.8436896 0.0274518302 0.274518302 26.1066905 0.274518302 108.791603 56.2762518 210.857507 56.2762518 210.857507 84.8810589 108.791603 84.8810589 26.0792387 140.827889 0.0274518302 140.827889 0.0274518302 123.286169 78.1004568 70.5786553 0.0549036603 17.8436896"></polygon>
                        <path d="M26.0792387,0.274518302 L42.3307221,0.274518302 L111.948563,47.1347924 L210.830056,47.1347924 L210.830056,56.2762518 L108.791603,56.2762518 L26.0792387,0.301970132 L26.0792387,0.274518302 Z M26.0792387,140.855341 L42.3307221,140.855341 L111.948563,94.0225183 L210.830056,94.0225183 L210.830056,84.9085107 L108.791603,84.9085107 L26.0792387,140.827889 L26.0792387,140.855341 Z" id="Shape" fill="#FFFFFF" fill-rule="nonzero"></path>
                    </g>
                </g>
            </g>
        </g>
    </g>
</svg>