<?xml version="1.0" encoding="UTF-8"?>
<svg width="200px" height="141px" viewBox="0 0 200 141" version="1.1" xmlns="http://www.w3.org/2000/svg" xmlns:xlink="http://www.w3.org/1999/xlink">
    <!-- Generator: Sketch 52.5 (67469) - http://www.bohemiancoding.com/sketch -->
    <title>tg</title>
    <desc>Created with Sketch.</desc>
    <defs>
        <polygon id="path-1" points="0 0 199.912152 0 199.912152 150 0 150"></polygon>
    </defs>
    <g id="Flags" stroke="none" stroke-width="1" fill="none" fill-rule="evenodd">
        <g id="Africa" transform="translate(-730.000000, -1650.000000)">
            <g id="tg" transform="translate(730.000000, 1650.000000)">
                <mask id="mask-2" fill="white">
                    <use xlink:href="#path-1"></use>
                </mask>
                <g id="Path"></g>
                <g id="Group" mask="url(#mask-2)">
                    <polygon id="Path" fill="#FFE300" points="0 0 210.724744 0 210.724744 140.625 0 140.625"></polygon>
                    <path d="M0,57.1563721 L210.724744,57.1563721 L210.724744,85.4187012 L0,85.4187012 L0,57.1563721 Z M0,0.0549316406 L210.724744,0.0549316406 L210.724744,28.3172607 L0,28.3172607 L0,0.0549316406 Z" id="Shape" fill="#118600" fill-rule="nonzero"></path>
                    <polygon id="Path" fill="#D80000" points="0 0.0823974609 84.1416545 0.0823974609 84.1416545 85.3912354 0 85.3912354"></polygon>
                    <path d="M36.8960469,35.2661133 C36.8960469,35.0463867 42.0845534,20.7092285 42.0845534,20.7092285 L46.7514641,35.0463867 C46.7514641,35.0463867 62.5091508,35.5133057 62.5091508,35.2661133 C62.5091508,35.0189209 50.0732064,44.6868896 50.0732064,44.6868896 C50.0732064,44.6868896 55.9480234,61.1663818 55.7009517,60.6719971 C55.4813324,60.2050781 42.0845534,50.7843018 42.0845534,50.7843018 C42.0845534,50.7843018 28.4407028,60.2050781 28.6877745,60.2050781 C28.9073939,60.2050781 33.8488287,44.6868896 33.8488287,44.6868896 L21.6325037,35.5133057 L36.8960469,35.2661133 Z" id="Path" fill="#FFFFFF"></path>
                    <polygon id="Path" fill="#118600" points="0 112.390137 210.724744 112.390137 210.724744 140.625 0 140.625"></polygon>
                </g>
            </g>
        </g>
    </g>
</svg>