<?xml version="1.0" encoding="UTF-8"?>
<svg width="200px" height="150px" viewBox="0 0 200 150" version="1.1" xmlns="http://www.w3.org/2000/svg" xmlns:xlink="http://www.w3.org/1999/xlink">
    <!-- Generator: Sketch 52.5 (67469) - http://www.bohemiancoding.com/sketch -->
    <title>tc</title>
    <desc>Created with Sketch.</desc>
    <g id="Flags" stroke="none" stroke-width="1" fill="none" fill-rule="evenodd">
        <g id="North-America" transform="translate(-510.000000, -1050.000000)">
            <g id="tc" transform="translate(510.000000, 1050.000000)">
                <polygon id="Path" fill="#000066" points="200 150 200 0 0 0 0 150"></polygon>
                <polygon id="Path" fill="#000066" points="0 0 116.78125 0 116.78125 72.5625 0 72.5625"></polygon>
                <g id="Group" fill-rule="nonzero">
                    <path d="M0,0 L0,8.125 L103.71875,72.5625 L116.78125,72.5625 L116.78125,64.4375 L13.03125,0 L0,0 Z M116.78125,0 L116.78125,8.125 L13.03125,72.5625 L0,72.5625 L0,64.4375 L103.71875,0 L116.78125,0 Z" id="Shape" fill="#FFFFFF"></path>
                    <path d="M48.65625,0 L48.65625,72.5625 L68.125,72.5625 L68.125,0 L48.65625,0 Z M0,24.1875 L0,48.375 L116.78125,48.375 L116.78125,24.1875 L0,24.1875 Z" id="Shape" fill="#FFFFFF"></path>
                    <path d="M0,29.03125 L0,43.53125 L116.78125,43.53125 L116.78125,29.03125 L0,29.03125 Z M52.5625,0 L52.5625,72.5625 L64.21875,72.5625 L64.21875,0 L52.53125,0 L52.5625,0 Z M0,72.5625 L38.9375,48.375 L47.625,48.375 L8.6875,72.5625 L0,72.5625 Z M0,0 L38.9375,24.1875 L30.21875,24.1875 L0,5.40625 L0,0 Z M69.15625,24.1875 L108.0625,0 L116.78125,0 L77.8125,24.1875 L69.125,24.1875 L69.15625,24.1875 Z M116.78125,72.5625 L77.8125,48.375 L86.5625,48.375 L116.78125,67.125 L116.78125,72.5625 Z" id="Shape" fill="#CC0000"></path>
                </g>
                <path d="M191.40625,66.375 L191.40625,91.375 C191.40625,111.875 183.375,130.625 159.46875,142.03125 C135.625,130.625 127.53125,111.875 127.53125,91.34375 L127.53125,66.40625 L191.4375,66.40625 L191.40625,66.375 Z" id="Path" fill="#FFFFFF"></path>
                <path d="M189.28125,68.9375 L189.28125,92.1875 C189.28125,111.3125 181.78125,128.8125 159.5,139.46875 C137.21875,128.84375 129.6875,111.34375 129.6875,92.1875 L129.6875,68.90625 L189.28125,68.90625 L189.28125,68.9375 Z" id="Path" fill="#FDC300"></path>
                <g id="Group" transform="translate(133.750000, 71.875000)" stroke="#000000" stroke-width="0.25">
                    <path d="M11.923125,7.31476875 C11.4840637,6.92743524 10.9205217,6.71066615 10.3350937,6.703925 C10.45725,5.11573125 9.35784375,4.5048875 8.50275,4.26055 C7.64765625,3.89404375 7.2811875,3.5275375 7.2811875,2.91669375 C7.15903125,2.30585 6.67040625,1.817175 5.93746875,1.69500625 C5.20453125,1.45066875 4.47159375,0.71765625 4.22728125,0.35115 C3.98296875,-0.01535625 3.8608125,-0.01535625 3.6165,0.5954875 C3.3721875,1.20633125 2.51709375,2.42801875 3.3721875,2.42801875 C2.76140625,2.91669375 2.3949375,3.40536875 2.76140625,4.13838125 C2.3949375,4.5048875 2.150625,4.9935625 2.63925,5.11573125 L3.3721875,5.60440625 C2.8835625,5.60440625 2.76140625,6.58175625 3.8608125,6.82609375 C3.6165,6.82609375 3.49434375,7.55910625 3.98296875,7.55910625 C3.3721875,7.55910625 2.76140625,8.53645625 2.02846875,8.53645625 C1.173375,8.53645625 0.80690625,8.78079375 0.80690625,9.1473 L0.07396875,10.12465 C0.68475,10.12465 1.05121875,10.12465 1.29553125,9.8803125 C1.53984375,9.635975 2.150625,9.51380625 2.51709375,9.8803125 C2.8835625,10.12465 3.73865625,10.2468187 3.98296875,10.12465 C3.25003125,10.7354937 2.76140625,11.3463375 2.63925,12.07935 C2.63925,12.8123625 2.02846875,13.545375 1.4176875,13.7897125 C1.05121875,14.03405 0.196125,14.522725 0.07396875,15.2557375 C0.68475,16.9661 1.662,17.3326063 2.63925,17.8212812 C4.3494375,18.5542938 5.44884375,19.1651375 6.18178125,20.0203187 C6.91471875,20.7533313 7.15903125,20.1424875 8.2584375,21.6085125 C9.35784375,22.8302 10.3350937,25.5179125 11.4345,25.8844188 C12.5339062,26.3730938 13.877625,26.1287563 14.6105625,24.6627313 C15.4656562,23.4410438 15.832125,9.51380625 11.923125,7.1926 L11.923125,7.31476875 Z" id="Path" fill="#FF9E3D"></path>
                    <path d="M13.7554687,1.45066875 C12.6560625,2.67235625 11.3123437,3.64970625 11.6788125,5.60440625 C12.0452813,7.55910625 12.0452813,10.7354938 10.2129375,11.7128438 C8.50275,12.9345313 7.64765625,15.6222438 9.7243125,17.2104375 C11.923125,18.7986313 12.0452813,20.7533313 12.2895937,22.4636938 C12.6560625,24.296225 13.6333125,25.76225 15.0991875,24.5405625 C16.5650625,24.7849 17.298,24.1740563 17.298,22.9523688 C17.298,21.7306813 17.298,21.2420063 18.5195625,20.8755 C19.4968125,20.5089938 19.741125,20.1424875 20.3519063,19.1651375 C20.8405313,18.1877875 21.0848438,17.6991125 20.8405313,17.2104375 C20.4873337,16.3603162 20.4020963,15.4226078 20.5962188,14.522725 C20.8405313,13.6675438 20.3519063,13.3010375 20.1075938,12.6901938 C19.8091312,12.1727524 19.7216259,11.560153 19.8632813,10.9798312 C19.8632813,10.2468187 19.6189688,9.75814375 19.1303438,9.3916375 C18.6417188,9.02513125 18.3974063,8.658625 18.5195625,8.16995 C18.5195625,7.55910625 18.1530937,7.1926 17.5423125,6.703925 C16.9315312,6.21525 16.6872188,5.726575 16.6872188,4.87139375 C16.6872188,4.0162125 14.9770313,2.0615125 13.7554688,1.45066875 Z" id="Path" fill="#FF927F"></path>
                    <path d="M14.1219375,24.9070688 C16.5650625,24.296225 16.32075,20.386825 15.9542812,18.7986313 C15.5878125,17.0882688 14.7327187,14.7670625 15.3435,12.8123625 C16.32075,10.2468187 14.1219375,7.681275 14.7327187,6.703925 C15.3435,5.60440625 15.2213437,5.11573125 15.0991875,4.749225 C15.0991875,4.5048875 14.4884062,4.26055 14.4884062,4.87139375 C14.4884062,5.60440625 14.2440938,5.84874375 13.877625,6.21525 C13.5111562,6.58175625 13.5111562,7.681275 13.877625,8.658625 C14.1219375,9.75814375 14.854875,11.3463375 13.877625,13.4232063 C12.6560625,15.500075 13.1446875,16.3552563 13.5111562,17.3326063 C14.2440937,18.9208 15.7099687,24.1740563 14.1219375,24.9070688 Z" id="Path" fill="#FF9EE1"></path>
                    <path d="M3.3721875,2.42801875 C3.6165,2.42801875 4.105125,2.42801875 4.105125,2.67235625 M2.8835625,4.13838125 C3.127875,3.89404375 3.73865625,4.13838125 4.22728125,3.89404375 M3.3721875,5.60440625 C3.73865625,5.60440625 4.3494375,5.60440625 4.96021875,5.11573125 M3.8608125,6.82609375 C4.3494375,6.82609375 5.082375,6.58175625 5.20453125,5.9709125 M3.98296875,7.55910625 C4.8380625,7.55910625 5.8153125,7.80344375 5.93746875,7.55910625 M4.105125,10.12465 C4.59375,9.635975 5.8153125,9.26946875 6.18178125,8.9029625 M5.44884375,2.18368125 C6.3039375,2.42801875 5.93746875,3.0388625 6.42609375,3.40536875 C7.15903125,3.89404375 6.42609375,4.62705625 7.15903125,4.749225 C7.7698125,4.9935625 7.7698125,5.11573125 7.5255,5.84874375 C7.40334375,6.703925 8.13628125,6.703925 7.89196875,7.31476875 M10.3350938,6.703925 C9.968625,6.703925 8.86921875,6.703925 8.50275,7.681275 M2.63925,17.0882687 C3.127875,17.0882687 3.25003125,16.9661 3.3721875,16.7217625 C3.49434375,16.477425 3.6165,16.2330875 3.98296875,16.2330875 C4.3494375,16.2330875 4.96021875,16.1109187 5.082375,15.8665813 C5.082375,15.500075 5.571,15.8665813 5.93746875,15.0114 C6.42609375,14.2783875 6.67040625,13.4232063 7.64765625,13.0567" id="Shape"></path>
                </g>
                <g id="Group" transform="translate(147.187500, 95.000000)" stroke="#000000" stroke-width="0.25">
                    <path d="M17.7863125,9.7230375 C18.1527813,10.2117125 17.7863125,10.944725 18.3970937,11.1890625 C19.2521875,11.4334 18.51925,12.41075 19.4965,12.899425 C20.3515937,13.2659313 19.4965,14.1211125 20.3515937,14.7319563 C21.2066875,15.0984625 20.3515937,15.9536438 21.3288437,16.5644875 C22.5504062,17.1753313 21.0845313,18.3970188 21.939625,18.8856938 C22.7947187,19.3743688 21.6953125,20.5960563 22.6725625,21.0847313 C23.5276562,21.5734063 22.1839375,22.4285875 23.1611875,23.1616 C24.0162812,23.7724438 22.916875,24.8719625 23.7719687,25.4828063 C24.6270625,26.09365 23.2833437,26.9488313 24.1384375,27.8040125 C24.871375,28.4148563 23.894125,29.0257 24.38275,30.2473875 C24.7492188,30.8582313 24.0162812,33.5459438 22.1839375,33.3016063 C21.451,34.5232938 18.8857187,35.5006438 17.9084687,35.1341375 C16.9312187,35.86715 13.8773125,36.7223313 12.2892812,35.2563063 C10.70125,36.7223313 7.64734375,35.86715 6.67009375,35.2563063 C5.69284375,35.5006438 3.00540625,34.401125 2.394625,33.3016063 C0.440125,33.5459438 -0.17065625,30.8582313 0.1958125,30.1252188 C0.6844375,29.1478688 -0.2928125,28.4148563 0.440125,27.6818438 C1.29521875,26.9488313 -0.17065625,26.09365 0.80659375,25.4828063 C1.78384375,24.8719625 0.56228125,23.7724438 1.417375,23.0394313 C2.394625,22.4285875 0.92875,21.4512375 1.906,21.0847313 C2.88325,20.5960563 1.78384375,19.3743688 2.6389375,18.8856938 C3.371875,18.3970188 2.1503125,17.1753313 3.24971875,16.5644875 C4.349125,16.0758125 3.24971875,15.0984625 4.22696875,14.7319563 C5.0820625,14.2432813 4.22696875,13.2659313 5.0820625,12.899425 C6.0593125,12.5329188 5.326375,11.4334 6.18146875,11.1890625 C6.91440625,10.8225563 6.42578125,10.2117125 6.79225,9.60086875 C8.86890625,10.45605 15.098875,11.0668938 17.7863125,9.60086875 L17.7863125,9.7230375 Z" id="Path" fill="#00A728"></path>
                    <path d="M7.64734375,13.2659313 C7.64734375,13.5102688 7.64734375,13.876775 7.40303125,14.2432813 C6.79225,14.9762938 7.64734375,15.4649688 6.91440625,16.32015 C6.303625,17.1753313 7.0365625,17.786175 6.303625,18.5191875 C5.5706875,19.2522 6.42578125,19.9852125 5.69284375,20.718225 C4.95990625,21.5734063 5.815,22.18425 5.0820625,22.9172625 C4.349125,23.650275 5.20421875,24.5054563 4.47128125,25.2384688 C3.73834375,25.9714813 4.5934375,26.9488313 3.8605,27.6818438 C3.00540625,28.6591938 3.8605,29.3922063 3.24971875,30.1252188 C2.6389375,30.7360625 3.24971875,31.3469063 2.76109375,31.8355813 C3.49403125,31.2247375 3.49403125,30.2473875 4.1048125,29.8808813 C4.71559375,29.3922063 3.98265625,28.6591938 4.349125,28.2926875 C4.71559375,27.9261813 4.349125,26.582325 4.95990625,25.8493125 C5.5706875,25.1163 4.95990625,23.7724438 5.5706875,23.4059375 C6.18146875,23.0394313 5.69284375,21.4512375 6.42578125,20.9625625 C7.15871875,20.4738875 6.42578125,19.3743688 6.91440625,18.763525 C7.5251875,18.1526813 6.91440625,17.1753313 7.5251875,16.32015 C8.0138125,15.7093063 7.5251875,14.9762938 7.89165625,14.36545 C8.13596875,14.1211125 8.13596875,12.1664125 7.64734375,13.1437625 L7.64734375,13.2659313 Z M9.60184375,14.1211125 C9.11321875,14.9762938 9.9683125,15.2206313 9.35753125,16.0758125 C8.74675,16.9309938 9.724,17.6640063 8.9910625,18.5191875 C8.258125,19.3743688 9.35753125,19.8630438 8.74675,20.718225 C8.13596875,21.695575 8.9910625,22.18425 8.5024375,22.7950938 C7.89165625,23.5281063 8.86890625,24.13895 8.258125,24.9941313 C7.5251875,25.8493125 8.5024375,26.4601563 7.89165625,27.1931688 C7.40303125,27.9261813 8.13596875,28.7813625 7.64734375,29.3922063 C7.15871875,30.00305 8.0138125,30.8582313 7.280875,31.7134125 C6.5479375,32.5685938 7.40303125,32.9351 7.0365625,33.5459438 C7.89165625,33.3016063 7.5251875,32.2020875 7.89165625,31.95775 C8.13596875,31.7134125 7.7695,30.1252188 8.258125,29.7587125 C8.74675,29.2700375 7.89165625,28.04835 8.258125,27.559675 C9.11321875,26.582325 8.5024375,25.9714813 8.86890625,25.2384688 C9.35753125,24.5054563 8.74675,23.650275 9.11321875,23.1616 C9.724,22.3064188 8.86890625,21.5734063 9.235375,20.9625625 C9.84615625,20.1073813 9.235375,19.4965375 9.60184375,18.8856938 C10.212625,18.0305125 9.60184375,17.1753313 9.724,16.6866563 C10.0904688,16.32015 10.4569375,14.36545 9.724,14.1211125 L9.60184375,14.1211125 Z M12.2892812,14.854125 C11.8006562,16.0758125 12.65575,16.4423188 12.2892812,17.4196688 C12.0449687,18.3970188 12.65575,19.1300313 12.2892812,20.1073813 C11.9228125,21.2069 12.7779062,21.9399125 12.2892812,23.2837688 C11.8006562,24.627625 12.65575,24.9941313 12.2892812,26.3379875 C11.9228125,27.8040125 12.9000625,28.6591938 12.2892812,29.7587125 C11.5563437,30.8582313 13.0222187,31.2247375 12.2892812,32.3242562 C12.0449687,32.9351 12.2892812,34.2789562 12.9000625,32.5685937 C13.5108437,30.9804 12.5335937,30.7360625 12.9000625,30.1252187 C13.5108437,29.3922063 12.9000625,27.6818437 13.0222187,26.582325 C13.2665312,25.7271437 12.5335937,24.3832875 13.0222187,23.4059375 C13.3886875,22.3064187 12.2892812,21.2069 12.7779062,20.3517187 C13.144375,19.4965375 12.5335937,18.3970188 13.0222187,17.6640062 C13.3886875,16.9309938 12.65575,15.9536437 12.7779062,15.5871375 C13.0222187,15.2206312 12.65575,13.6324375 12.2892812,14.854125 Z" id="Shape" fill="#FDC300" fill-rule="nonzero"></path>
                    <path d="M17.4198438,10.45605 C17.4198437,2.75941875 16.1982812,0.07170625 12.2892812,0.07170625 C8.258125,0.07170625 7.15871875,2.75941875 7.15871875,10.45605 L17.4198438,10.45605 Z" id="Path" fill="#EF072D"></path>
                    <path d="M8.62459375,9.84520625 C7.89165625,10.5782188 8.74675,11.0668938 8.0138125,12.0442438 C7.280875,12.899425 8.0138125,13.3881 7.40303125,14.2432813 C6.79225,15.0984625 7.64734375,15.4649688 6.91440625,16.32015 C6.303625,17.1753313 7.15871875,17.786175 6.303625,18.5191875 C5.5706875,19.2522 6.42578125,19.9852125 5.69284375,20.718225 C4.95990625,21.5734063 5.815,22.18425 5.0820625,22.9172625 C4.349125,23.650275 5.20421875,24.3832875 4.47128125,25.2384688 C3.73834375,25.9714813 4.5934375,26.9488313 3.8605,27.6818438 C3.00540625,28.6591938 3.8605,29.3922063 3.24971875,30.1252188 C2.6389375,30.8582313 3.24971875,31.3469063 2.76109375,31.8355813 C2.27246875,32.3242563 2.1503125,33.0572688 2.394625,33.3016063 M10.0904687,10.0895438 C9.35753125,11.0668938 10.4569375,11.3112313 9.84615625,12.1664125 C9.235375,12.899425 10.0904687,13.1437625 9.60184375,14.1211125 C9.11321875,15.0984625 9.9683125,15.2206313 9.35753125,16.0758125 C8.74675,16.9309937 9.724,17.6640063 8.9910625,18.5191875 C8.258125,19.3743688 9.35753125,19.8630438 8.74675,20.718225 C8.13596875,21.695575 8.9910625,22.18425 8.5024375,22.7950938 C7.89165625,23.5281063 8.86890625,24.13895 8.13596875,24.9941313 C7.5251875,25.8493125 8.5024375,26.4601563 7.89165625,27.1931688 C7.40303125,27.9261812 8.13596875,28.7813625 7.64734375,29.3922062 C7.15871875,30.00305 8.0138125,30.8582312 7.280875,31.7134125 C6.5479375,32.5685938 7.40303125,32.9351 7.0365625,33.5459438 C6.67009375,34.1567875 6.303625,34.8898 6.67009375,35.1341375 M12.2892813,10.944725 C11.9228125,12.41075 12.7779063,13.6324375 12.2892813,14.854125 C11.8006563,16.0758125 12.65575,16.4423188 12.2892813,17.4196688 C12.0449688,18.3970187 12.65575,19.1300313 12.2892813,20.1073813 C11.9228125,21.2069 12.7779063,21.9399125 12.2892813,23.2837688 C11.8006563,24.627625 12.65575,24.9941313 12.2892813,26.3379875 C11.9228125,27.8040125 13.0222188,28.6591938 12.2892813,29.7587125 C11.5563438,30.8582312 12.9000625,31.1025687 12.2892813,32.3242562 C11.8006563,33.5459437 12.65575,34.0346187 12.2892813,35.2563062 M15.9539688,9.84520625 C16.6869063,10.5782187 15.7096563,11.0668938 16.56475,12.0442437 C17.2976875,12.899425 16.56475,13.3881 17.1755313,14.2432812 C17.7863125,15.0984625 16.9312188,15.4649687 17.542,16.32015 C18.2749375,17.1753312 17.542,17.786175 18.1527813,18.5191875 C19.007875,19.2522 18.1527813,19.9852125 18.7635625,20.718225 C19.6186563,21.5734062 18.7635625,22.18425 19.4965,22.9172625 C20.2294375,23.650275 19.2521875,24.3832875 20.1072813,25.2384687 C20.8402188,25.9714812 19.985125,26.9488312 20.7180625,27.6818437 C21.5731563,28.6591937 20.5959063,29.3922062 21.3288438,30.1252187 C21.939625,30.7360625 21.3288438,31.3469062 21.8174688,31.8355812 C22.3060938,32.3242563 22.42825,33.0572687 22.1839375,33.3016062 M14.4880938,10.0895438 C15.098875,11.0668938 14.121625,11.3112313 14.7324063,12.1664125 C15.3431875,12.899425 14.4880938,13.1437625 14.9767188,14.1211125 C15.4653438,14.9762938 14.61025,15.2206313 15.2210313,16.0758125 C15.8318125,16.9309937 14.8545625,17.6640062 15.5875,18.5191875 C16.3204375,19.3743687 15.2210313,19.8630437 15.8318125,20.718225 C16.4425938,21.695575 15.5875,22.18425 16.076125,22.7950937 C16.6869062,23.5281062 15.7096562,24.13895 16.3204375,24.9941312 C17.053375,25.8493125 16.076125,26.4601562 16.6869062,27.1931687 C17.1755312,27.9261812 16.4425938,28.7813625 16.9312187,29.3922062 C17.4198437,30.00305 16.56475,30.8582312 17.2976875,31.7134125 C18.030625,32.5685937 17.1755312,32.9351 17.542,33.5459437 C17.9084687,34.1567875 18.2749375,34.8898 17.9084687,35.1341375" id="Shape"></path>
                    <path d="M7.15871875,10.45605 C7.15871875,2.75941875 8.38028125,0.07170625 12.2892812,0.07170625 C10.4569375,0.07170625 9.35753125,1.53773125 8.9910625,2.51508125 C8.62459375,3.49243125 8.86890625,3.3702625 9.235375,3.00375625 C9.60184375,2.63725 9.4796875,3.49243125 9.235375,3.8589375 C8.86890625,4.3476125 8.5024375,5.5693 8.9910625,5.080625 C9.4796875,4.8362875 9.84615625,5.20279375 9.235375,5.93580625 C8.62459375,6.66881875 8.38028125,8.37918125 8.86890625,7.7683375 C9.35753125,7.15749375 9.4796875,8.13484375 9.11321875,8.62351875 C8.86890625,9.11219375 8.86890625,9.4787 9.11321875,9.35653125 C9.4796875,9.11219375 9.35753125,10.0895438 9.11321875,10.5782188 L7.15871875,10.5782188 L7.15871875,10.45605 Z M16.56475,10.0895438 C16.56475,3.98110625 15.8318125,2.148575 14.3659375,1.53773125 C13.5108437,1.171225 13.5108437,1.29339375 13.8773125,1.9042375 C14.2437812,2.51508125 14.2437812,3.125925 13.8773125,2.63725 C13.5108437,2.148575 13.3886875,2.02640625 13.144375,2.27074375 L14.121625,4.71411875 C14.4880937,5.44713125 14.121625,5.93580625 13.633,5.080625 C13.144375,4.22544375 13.144375,4.95845625 13.633,5.69146875 C14.2437812,6.54665 14.121625,9.2343625 14.121625,10.3338813 L16.56475,10.0895438 Z" id="Shape" fill="#000000" fill-rule="nonzero"></path>
                    <path d="M12.2892813,11.5555688 C13.8773125,11.5555688 15.5875,11.3112313 16.8090625,10.8225563 C18.1527812,10.3338813 18.2749375,9.84520625 17.7863125,9.2343625 C17.4198437,8.7456875 16.6869062,8.990025 15.9539688,9.35653125 C13.556312,10.0231869 11.0222505,10.0231869 8.62459375,9.35653125 C7.89165625,9.11219375 7.15871875,8.7456875 6.79225,9.2343625 C6.303625,9.84520625 6.303625,10.3338813 7.7695,10.8225563 C8.9910625,11.3112313 10.70125,11.5555688 12.2892813,11.5555688 Z" id="Path" fill="#EF072D"></path>
                </g>
                <g id="Group" transform="translate(160.000000, 70.625000)" fill="#B95A1E">
                    <path d="M16.227922,24.9303516 L16.227922,28.5502488 C16.2298937,30.079413 16.6183083,30.6712823 17.2985268,30.6430019 C17.9767737,30.6167415 18.1069025,29.4552231 17.9787453,28.7845725 C17.8486166,28.1119019 16.9298287,24.764709 16.9298287,24.764709 L16.227922,24.9303516 Z" id="Path" stroke="#000000" stroke-width="0.25" transform="translate(17.125331, 27.704337) rotate(-30.870277) translate(-17.125331, -27.704337) "></path>
                    <path d="M15.2697036,25.6601186 L15.2697036,29.3227859 C15.2716506,30.8700176 15.6552137,31.46888 16.326936,31.4402654 C16.9967112,31.4136947 17.1252146,30.2384527 16.9986582,29.5598782 C16.8701548,28.8792598 15.9628431,25.4925188 15.9628431,25.4925188 L15.2697036,25.6601186 Z" id="Path" stroke="#000000" stroke-width="0.25" transform="translate(16.155904, 28.466880) rotate(-11.426373) translate(-16.155904, -28.466880) "></path>
                    <path d="M14.296095,25.9752906 L14.296095,29.6460906 C14.2980375,31.1967578 14.68071,31.79695 15.3508725,31.7682719 C16.0190925,31.7416422 16.1472975,30.5637906 16.021035,29.8837094 C15.89283,29.2015797 14.987625,25.8073187 14.987625,25.8073187 L14.296095,25.9752906 Z" id="Path" stroke="#000000" stroke-width="0.25"></path>
                    <path d="M14.3016609,25.9443141 C16.2253397,25.9156359 16.4374747,25.2191672 16.4374747,25.2191672 C16.4374747,25.2191672 16.8641553,23.766825 16.650815,23.4042516 C16.4374747,23.0416781 14.3016609,23.0416781 14.3016609,23.0416781 L14.3016609,25.9422656 L14.3016609,25.9443141 Z" id="Path" stroke="#000000" stroke-width="0.25"></path>
                    <path d="M14.2980375,24.5068141 C16.362915,24.5068141 16.7067375,23.7816672 16.7067375,23.7816672 C16.7067375,23.7816672 17.396325,22.329325 17.0525025,21.9667516 C16.70868,21.6041781 14.2980375,21.6041781 14.2980375,21.6041781 L14.2980375,24.5047656 L14.2980375,24.5068141 Z" id="Path" stroke="#000000" stroke-width="0.25"></path>
                    <path d="M14.2980375,23.0380641 C16.0190925,23.0380641 17.0525025,22.3129172 17.0525025,22.3129172 C17.0525025,22.3129172 17.7401475,20.860575 17.396325,20.4980016 C17.0525025,20.1354281 14.2980375,20.1354281 14.2980375,20.1354281 L14.2980375,23.0380641 Z" id="Path" stroke="#000000" stroke-width="0.25"></path>
                    <path d="M15.4482744,9.66667813 C15.4482744,9.66667813 17.1549969,7.8517625 20.1465825,6.03684688 C23.1357575,4.22193125 25.2980881,2.82694531 25.6982519,3.13421094 C25.6982519,3.49678438 23.1357575,5.3117 20.9975331,6.76404219 C18.86413,8.21433594 16.3016356,10.391825 16.3016356,10.391825 L15.4482744,9.66667813 Z" id="Path" stroke="#000000" stroke-width="0.25"></path>
                    <path d="M15.6670244,11.1041781 C15.6670244,11.1041781 17.3544619,10.0389906 20.5943419,8.56411562 C23.7811881,7.25311562 28.281825,7.47434687 28.281825,7.83692031 C27.8527338,8.20154219 24.0101975,8.20154219 21.4477031,9.2892625 C19.0009187,10.3278203 16.517975,11.829325 16.517975,11.829325 L15.6646137,11.1041781 L15.6670244,11.1041781 Z" id="Path" stroke="#000000" stroke-width="0.25"></path>
                    <path d="M15.6982744,13.6041781 C15.6982744,13.6041781 17.1832194,12.887225 20.6255919,11.7892625 C24.0414475,10.7015422 28.5758331,11.4266891 28.5758331,11.7892625 C28.1491525,12.1518359 24.4681281,11.9326531 21.9056337,12.5144094 C19.2539462,13.083875 16.5540462,14.329325 16.5540462,14.329325 L15.6982744,13.6041781 Z" id="Path" stroke="#000000" stroke-width="0.25"></path>
                    <path d="M15.8232744,16.1666781 C15.8232744,16.1666781 17.5348181,14.7122875 21.1845044,14.3517625 C24.8558862,13.9891891 27.8450613,16.1666781 27.8450613,16.5292516 C27.4183806,16.891825 24.0001144,14.9314703 21.4400306,15.2121063 C18.7256669,15.4927422 16.6766356,16.891825 16.6766356,16.891825 L15.8208637,16.1666781 L15.8232744,16.1666781 Z" id="Path" stroke="#000000" stroke-width="0.25"></path>
                    <path d="M14.2980375,21.2255641 C17.3982675,21.1968859 17.396325,20.293525 17.396325,20.293525 C17.396325,20.293525 18.08397,18.8432312 17.7401475,18.4786094 C17.396325,18.1160359 14.2980375,18.3229281 14.2980375,18.3229281 L14.2980375,21.2235156 L14.2980375,21.2255641 Z" id="Path" stroke="#000000" stroke-width="0.25"></path>
                    <path d="M14.2980375,19.7880641 C17.3982675,19.7593859 17.7401475,19.0629172 17.7401475,19.0629172 C17.7401475,19.0629172 18.4277925,17.610575 18.08397,17.2480016 C17.7401475,16.8854281 14.2980375,16.8854281 14.2980375,16.8854281 L14.2980375,19.7860156 L14.2980375,19.7880641 Z" id="Path" stroke="#000000" stroke-width="0.25"></path>
                    <path d="M14.2980375,17.9755641 C17.3982675,17.9468859 18.0859125,17.2504172 18.0859125,17.2504172 C18.0859125,17.2504172 18.771615,15.798075 18.4277925,15.4355016 C18.08397,15.0729281 14.2980375,15.0729281 14.2980375,15.0729281 L14.2980375,17.9735156 L14.2980375,17.9755641 Z" id="Path" stroke="#000000" stroke-width="0.25"></path>
                    <path d="M14.2980375,16.1630641 C17.3982675,16.1343859 18.4277925,15.4379172 18.4277925,15.4379172 C18.4277925,15.4379172 18.771615,13.985575 18.4277925,13.6230016 C18.08397,13.2604281 14.2980375,13.2604281 14.2980375,13.2604281 L14.2980375,16.1610156 L14.2980375,16.1630641 Z" id="Path" stroke="#000000" stroke-width="0.25"></path>
                    <path d="M14.9795244,8.16667813 C14.9795244,8.16667813 17.7324581,6.3517625 17.7324581,4.89942031 C17.7324581,3.44912656 16.5175031,1.99678437 16.1751944,1.2716375 C16.8622225,1.2716375 18.4194863,3.44912656 18.4194863,4.89942031 C18.4194863,6.48695937 15.8328856,8.89387344 15.8328856,8.89387344 L14.9795244,8.16667813 Z" id="Path" stroke="#000000" stroke-width="0.25"></path>
                    <path d="M14.9795244,8.16667812 C14.9795244,8.16667812 14.634805,7.07690937 14.634805,4.89942031 C14.640589,3.16806098 15.3731396,1.49526163 16.7007106,0.18186875 C16.8429375,0.743140625 15.3242437,2.72193125 15.3242437,4.90146875 C15.3242437,6.48900781 15.8328856,8.89592187 15.8328856,8.89592187 L14.9795244,8.16872656 L14.9795244,8.16667812 Z" id="Path" stroke="#000000" stroke-width="0.25"></path>
                    <path d="M14.2980375,14.3505641 C17.3982675,14.3218859 18.4277925,13.6254172 18.4277925,13.6254172 C18.4277925,13.6254172 18.4277925,12.173075 18.08397,11.8105016 C17.7401475,11.4479281 14.2980375,11.4479281 14.2980375,11.4479281 L14.2980375,14.3505641 Z" id="Path" stroke="#000000" stroke-width="0.25"></path>
                    <path d="M14.2980375,12.5068141 C17.3982675,12.4781359 18.0859125,11.7816672 18.0859125,11.7816672 C18.0859125,11.7816672 18.0859125,10.329325 17.7401475,9.96675156 C17.396325,9.60417813 14.2980375,9.60417813 14.2980375,9.60417813 L14.2980375,12.5047656 L14.2980375,12.5068141 Z" id="Path" stroke="#000000" stroke-width="0.25"></path>
                    <path d="M14.2957125,34.2817047 C15.3640875,31.7764656 15.672945,27.3866641 15.672945,26.6615172 C15.672945,24.6171766 15.03192,14.6740609 14.9833575,10.6918984 C14.934795,6.70973594 17.3920575,4.52200469 19.8007575,4.52200469 C21.8675775,4.52200469 23.2428675,5.97639531 23.2428675,8.15183594 L22.2114,8.15183594 C22.2275662,7.47308675 21.978988,6.81705939 21.5237175,6.33695988 C21.0684469,5.85686037 20.4463468,5.59472558 19.8027,5.61177344 C17.7378225,5.61177344 16.1508,7.32631563 16.014825,10.6918984 C15.8691375,14.5839297 16.43052,24.6827266 16.36059,27.3866641 C16.29066,30.0906016 15.36603,32.5016125 14.2957125,34.2796563 L14.2957125,34.2817047 Z" id="Path" stroke="#FDC301" stroke-width="0.5" transform="translate(18.769290, 19.401855) scale(-1, 1) translate(-18.769290, -19.401855) "></path>
                    <path d="M10.5710097,24.9303516 L10.5710097,28.5502488 C10.5729813,30.079413 10.9613959,30.6712823 11.6416145,30.6430019 C12.3198613,30.6167415 12.4499901,29.4552231 12.321833,28.7845725 C12.1917042,28.1119019 11.2729163,24.764709 11.2729163,24.764709 L10.5710097,24.9303516 Z" id="Path" stroke="#000000" stroke-width="0.25" transform="translate(11.468419, 27.704337) scale(-1, 1) rotate(-30.870277) translate(-11.468419, -27.704337) "></path>
                    <path d="M14.2980375,7.95518594 C16.7106225,7.95723438 17.7518025,10.0527859 17.745975,10.0097687 L17.0525025,10.6918984 C16.6834275,11.0565203 14.2980375,11.0565203 14.3291175,11.0544719 L14.2980375,7.95518594 Z" id="Path" stroke="#000000" stroke-width="0.25"></path>
                    <path d="M11.5516463,25.6601186 L11.5516463,29.3227859 C11.5535933,30.8700176 11.9371565,31.46888 12.6088787,31.4402654 C13.2786539,31.4136947 13.4071573,30.2384527 13.2806009,29.5598782 C13.1520975,28.8792598 12.2447858,25.4925188 12.2447858,25.4925188 L11.5516463,25.6601186 Z" id="Path" stroke="#000000" stroke-width="0.25" transform="translate(12.437846, 28.466880) scale(-1, 1) rotate(-11.426373) translate(-12.437846, -28.466880) "></path>
                    <path d="M12.5293704,25.9752906 L12.5293704,29.6460906 C12.5313129,31.1967578 12.9139854,31.79695 13.5841479,31.7682719 C14.2523679,31.7416422 14.3805729,30.5637906 14.2543104,29.8837094 C14.1261054,29.2015797 13.2209004,25.8073187 13.2209004,25.8073187 L12.5293704,25.9752906 Z" id="Path" stroke="#000000" stroke-width="0.25" transform="translate(13.413513, 28.788284) scale(-1, 1) translate(-13.413513, -28.788284) "></path>
                    <path d="M11.8831997,25.9443141 C13.8068785,25.9156359 14.0190135,25.2191672 14.0190135,25.2191672 C14.0190135,25.2191672 14.4456941,23.766825 14.2323538,23.4042516 C14.0190135,23.0416781 11.8831997,23.0416781 11.8831997,23.0416781 L11.8831997,25.9422656 L11.8831997,25.9443141 Z" id="Path" stroke="#000000" stroke-width="0.25" transform="translate(13.087644, 24.492996) scale(-1, 1) translate(-13.087644, -24.492996) "></path>
                    <path d="M11.4451788,24.5068141 C13.5100563,24.5068141 13.8538788,23.7816672 13.8538788,23.7816672 C13.8538788,23.7816672 14.5434663,22.329325 14.1996438,21.9667516 C13.8558213,21.6041781 11.4451788,21.6041781 11.4451788,21.6041781 L11.4451788,24.5047656 L11.4451788,24.5068141 Z" id="Path" stroke="#000000" stroke-width="0.25" transform="translate(12.870446, 23.055496) scale(-1, 1) translate(-12.870446, -23.055496) "></path>
                    <path d="M11.1011547,23.0380641 C12.8222097,23.0380641 13.8556197,22.3129172 13.8556197,22.3129172 C13.8556197,22.3129172 14.5432647,20.860575 14.1994422,20.4980016 C13.8556197,20.1354281 11.1011547,20.1354281 11.1011547,20.1354281 L11.1011547,23.0380641 Z" id="Path" stroke="#000000" stroke-width="0.25" transform="translate(12.698434, 21.586746) scale(-1, 1) translate(-12.698434, -21.586746) "></path>
                    <path d="M2.89549812,9.66667813 C2.89549812,9.66667813 4.60222062,7.8517625 7.59380625,6.03684688 C10.5829812,4.22193125 12.7453119,2.82694531 13.1454756,3.13421094 C13.1454756,3.49678438 10.5829812,5.3117 8.44475687,6.76404219 C6.31135375,8.21433594 3.74885937,10.391825 3.74885937,10.391825 L2.89549812,9.66667813 Z" id="Path" stroke="#000000" stroke-width="0.25" transform="translate(8.020487, 6.741722) scale(-1, 1) translate(-8.020487, -6.741722) "></path>
                    <path d="M0.314335625,11.1041781 C0.314335625,11.1041781 2.00177312,10.0389906 5.24165313,8.56411562 C8.42849938,7.25311562 12.9291363,7.47434687 12.9291363,7.83692031 C12.500045,8.20154219 8.65750875,8.20154219 6.09501437,9.2892625 C3.64823,10.3278203 1.16528625,11.829325 1.16528625,11.829325 L0.311925,11.1041781 L0.314335625,11.1041781 Z" id="Path" stroke="#000000" stroke-width="0.25" transform="translate(6.620531, 9.693623) scale(-1, 1) translate(-6.620531, -9.693623) "></path>
                    <path d="M0.049166875,13.6041781 C0.049166875,13.6041781 1.53411188,12.887225 4.97648438,11.7892625 C8.39234,10.7015422 12.9267256,11.4266891 12.9267256,11.7892625 C12.500045,12.1518359 8.81902063,11.9326531 6.25652625,12.5144094 C3.60483875,13.083875 0.90493875,14.329325 0.90493875,14.329325 L0.049166875,13.6041781 Z" id="Path" stroke="#000000" stroke-width="0.25" transform="translate(6.487946, 12.772052) scale(-1, 1) translate(-6.487946, -12.772052) "></path>
                    <path d="M0.719849375,16.1666781 C0.719849375,16.1666781 2.43139312,14.7122875 6.08107937,14.3517625 C9.75246125,13.9891891 12.7416362,16.1666781 12.7416362,16.5292516 C12.3149556,16.891825 8.89668937,14.9314703 6.33660562,15.2121063 C3.62224187,15.4927422 1.57321062,16.891825 1.57321062,16.891825 L0.71743875,16.1666781 L0.719849375,16.1666781 Z" id="Path" stroke="#000000" stroke-width="0.25" transform="translate(6.729537, 15.601511) scale(-1, 1) translate(-6.729537, -15.601511) "></path>
                    <path d="M10.7573322,21.2255641 C13.8575622,21.1968859 13.8556197,20.293525 13.8556197,20.293525 C13.8556197,20.293525 14.5432647,18.8432312 14.1994422,18.4786094 C13.8556197,18.1160359 10.7573322,18.3229281 10.7573322,18.3229281 L10.7573322,21.2235156 L10.7573322,21.2255641 Z" id="Path" stroke="#000000" stroke-width="0.25" transform="translate(12.526522, 19.744860) scale(-1, 1) translate(-12.526522, -19.744860) "></path>
                    <path d="M10.4135097,19.7880641 C13.5137397,19.7593859 13.8556197,19.0629172 13.8556197,19.0629172 C13.8556197,19.0629172 14.5432647,17.610575 14.1994422,17.2480016 C13.8556197,16.8854281 10.4135097,16.8854281 10.4135097,16.8854281 L10.4135097,19.7860156 L10.4135097,19.7880641 Z" id="Path" stroke="#000000" stroke-width="0.25" transform="translate(12.354611, 18.336746) scale(-1, 1) translate(-12.354611, -18.336746) "></path>
                    <path d="M10.0694848,17.9755641 C13.1697148,17.9468859 13.8573598,17.2504172 13.8573598,17.2504172 C13.8573598,17.2504172 14.5430623,15.798075 14.1992398,15.4355016 C13.8554173,15.0729281 10.0694848,15.0729281 10.0694848,15.0729281 L10.0694848,17.9735156 L10.0694848,17.9755641 Z" id="Path" stroke="#000000" stroke-width="0.25" transform="translate(12.182599, 16.524246) scale(-1, 1) translate(-12.182599, -16.524246) "></path>
                    <path d="M10.0131475,16.1630641 C13.1133775,16.1343859 14.1429025,15.4379172 14.1429025,15.4379172 C14.1429025,15.4379172 14.486725,13.985575 14.1429025,13.6230016 C13.79908,13.2604281 10.0131475,13.2604281 10.0131475,13.2604281 L10.0131475,16.1610156 L10.0131475,16.1630641 Z" id="Path" stroke="#000000" stroke-width="0.25" transform="translate(12.154430, 14.711746) scale(-1, 1) translate(-12.154430, -14.711746) "></path>
                    <path d="M10.1742637,8.16667813 C10.1742637,8.16667813 12.9271975,6.3517625 12.9271975,4.89942031 C12.9271975,3.44912656 11.7122425,1.99678437 11.3699337,1.2716375 C12.0569619,1.2716375 13.6142256,3.44912656 13.6142256,4.89942031 C13.6142256,6.48695937 11.027625,8.89387344 11.027625,8.89387344 L10.1742637,8.16667813 Z" id="Path" stroke="#000000" stroke-width="0.25" transform="translate(11.894245, 5.082755) scale(-1, 1) translate(-11.894245, -5.082755) "></path>
                    <path d="M12.2283581,8.16667812 C12.2283581,8.16667812 11.8836388,7.07690937 11.8836388,4.89942031 C11.8894227,3.16806098 12.6219734,1.49526163 13.9495444,0.18186875 C14.0917713,0.743140625 12.5730775,2.72193125 12.5730775,4.90146875 C12.5730775,6.48900781 13.0817194,8.89592187 13.0817194,8.89592187 L12.2283581,8.16872656 L12.2283581,8.16667812 Z" id="Path" stroke="#000000" stroke-width="0.25" transform="translate(12.921292, 4.538895) scale(-1, 1) translate(-12.921292, -4.538895) "></path>
                    <path d="M10.1659575,14.3505641 C13.2661875,14.3218859 14.2957125,13.6254172 14.2957125,13.6254172 C14.2957125,13.6254172 14.2957125,12.173075 13.95189,11.8105016 C13.6080675,11.4479281 10.1659575,11.4479281 10.1659575,11.4479281 L10.1659575,14.3505641 Z" id="Path" stroke="#000000" stroke-width="0.25" transform="translate(12.230835, 12.899246) scale(-1, 1) translate(-12.230835, -12.899246) "></path>
                    <path d="M10.5078375,12.5068141 C13.6080675,12.4781359 14.2957125,11.7816672 14.2957125,11.7816672 C14.2957125,11.7816672 14.2957125,10.329325 13.9499475,9.96675156 C13.606125,9.60417813 10.5078375,9.60417813 10.5078375,9.60417813 L10.5078375,12.5047656 L10.5078375,12.5068141 Z" id="Path" stroke="#000000" stroke-width="0.25" transform="translate(12.401775, 11.055496) scale(-1, 1) translate(-12.401775, -11.055496) "></path>
                    <path d="M5.3508825,34.2817047 C6.4192575,31.7764656 6.728115,27.3866641 6.728115,26.6615172 C6.728115,24.6171766 6.08709,14.6740609 6.0385275,10.6918984 C5.989965,6.70973594 8.4472275,4.52200469 10.8559275,4.52200469 C12.9227475,4.52200469 14.2980375,5.97639531 14.2980375,8.15183594 L13.26657,8.15183594 C13.2827362,7.47308675 13.034158,6.81705939 12.5788875,6.33695988 C12.1236169,5.85686037 11.5015168,5.59472558 10.85787,5.61177344 C8.7929925,5.61177344 7.20597,7.32631563 7.069995,10.6918984 C6.9243075,14.5839297 7.48569,24.6827266 7.41576,27.3866641 C7.34583,30.0906016 6.4212,32.5016125 5.3508825,34.2796563 L5.3508825,34.2817047 Z" id="Path" stroke="#FDC301" stroke-width="0.5"></path>
                    <path d="M10.8477507,7.95518594 C13.2603357,7.95723438 14.3015157,10.0527859 14.2956882,10.0097687 L13.6022157,10.6918984 C13.2331407,11.0565203 10.8477507,11.0565203 10.8788307,11.0544719 L10.8477507,7.95518594 Z" id="Path" stroke="#000000" stroke-width="0.25" transform="translate(12.571732, 9.504967) scale(-1, 1) translate(-12.571732, -9.504967) "></path>
                </g>
            </g>
        </g>
    </g>
</svg>