<?xml version="1.0" encoding="UTF-8"?>
<svg width="200px" height="141px" viewBox="0 0 200 141" version="1.1" xmlns="http://www.w3.org/2000/svg" xmlns:xlink="http://www.w3.org/1999/xlink">
    <!-- Generator: Sketch 52.5 (67469) - http://www.bohemiancoding.com/sketch -->
    <title>ug</title>
    <desc>Created with Sketch.</desc>
    <defs>
        <polygon id="path-1" points="0.204678363 0 199.795322 0 199.795322 140.707602 0.204678363 140.707602"></polygon>
    </defs>
    <g id="Flags" stroke="none" stroke-width="1" fill="none" fill-rule="evenodd">
        <g id="Africa" transform="translate(-180.000000, -1850.000000)">
            <g id="ug" transform="translate(180.000000, 1850.000000)">
                <mask id="mask-2" fill="white">
                    <use xlink:href="#path-1"></use>
                </mask>
                <g id="Path"></g>
                <g id="Group" mask="url(#mask-2)">
                    <g transform="translate(-5.000000, 0.000000)" id="Path">
                        <polygon stroke="none" fill="#FFE700" fill-rule="evenodd" points="0 93.5855263 210.526316 93.5855263 210.526316 116.968202 0 116.968202"></polygon>
                        <polygon stroke="none" fill="#000000" fill-rule="evenodd" points="0 70.1754386 210.526316 70.1754386 210.526316 93.558114 0 93.558114"></polygon>
                        <polygon stroke="none" fill="#DE3908" fill-rule="evenodd" points="0 46.7927632 210.526316 46.7927632 210.526316 70.1754386 0 70.1754386"></polygon>
                        <polygon stroke="none" fill="#FFE700" fill-rule="evenodd" points="0 23.4100877 210.526316 23.4100877 210.526316 46.7927632 0 46.7927632"></polygon>
                        <polygon stroke="none" fill="#000000" fill-rule="evenodd" points="0 0 210.526316 0 210.526316 23.3826754 0 23.3826754"></polygon>
                        <path d="M127.110746,70.1754386 C127.110746,82.2415281 117.329247,92.0230263 105.263158,92.0230263 C93.1970684,92.0230263 83.4155702,82.2415281 83.4155702,70.1754386 C83.4155704,58.1093493 93.1970686,48.3278513 105.263158,48.3278513 C117.329247,48.3278513 127.110745,58.1093493 127.110746,70.1754386 Z" stroke="#000000" stroke-width="0.47" fill="#FFFDFF" fill-rule="evenodd"></path>
                        <path d="M101.425439,53.4265351 L100,50.8223684 C100.548246,50.2741228 101.452851,49.8355263 102.933114,49.8355263 L102.76864,52.7138158 L101.398026,53.4265351 L101.425439,53.4265351 Z" stroke="#000000" stroke-width="0.47" fill="#DE3108" fill-rule="evenodd"></path>
                        <path d="M102.796053,52.7138158 L102.987939,49.8355263 C102.987939,49.8355263 105.921053,49.6710526 107.510965,51.5899123 L105.948465,53.8377193 L102.76864,52.7412281 L102.796053,52.7138158 Z" stroke="#000000" stroke-width="0.47" fill="#FFE700" fill-rule="evenodd"></path>
                        <path d="M105.975877,53.810307 L107.428728,51.5625 C108.388158,52.5767544 108.799342,53.2894737 108.936404,54.3859649 C108.963816,54.4133772 106.661184,54.9616228 106.661184,54.9342105 L105.975877,53.810307 Z" stroke="#000000" stroke-width="0.47" fill="#DE3108" fill-rule="evenodd"></path>
                        <path d="M102.138158,90.7620614 C102.138158,90.7620614 104.851974,87.6644737 110.115132,88.3223684 C109.320175,87.0339912 106.743421,87.1984649 106.743421,87.1984649 C106.743421,87.1984649 105.975877,81.1677632 106.578947,80.8388158 C107.182018,80.5098684 109.868421,80.8662281 109.868421,80.8662281 C110.197368,80.8662281 110.800439,79.9342105 110.307018,79.3311404 C109.841009,78.7280702 108.442982,76.4528509 109.01864,75.9868421 C109.594298,75.5482456 112.691886,76.2609649 112.691886,76.2609649 L103.919956,65.0219298 C103.919956,65.0219298 103.015351,60.7730263 104.824561,58.7171053 C106.990132,56.935307 106.743421,54.9890351 106.688596,55.0164474 C106.387061,53.0427632 103.399123,51.6447368 101.370614,53.4539474 C100.191886,54.879386 100.986842,55.9758772 100.986842,55.9758772 C100.986842,55.9758772 97.8344298,56.8256579 97.7247807,57.3739035 C97.5877193,57.9221491 101.260965,57.2916667 101.260965,57.2916667 L100.904605,59.7861842 C100.904605,59.7861842 93.7774123,66.2554825 99.2598684,71.8475877 L99.4243421,71.6282895 C99.4243421,71.6282895 101.343202,73.9857456 103.344298,74.5065789 C105.263158,76.4254386 105.071272,76.1513158 105.071272,76.1513158 C105.071272,76.1513158 105.427632,79.1940789 105.071272,79.7971491 C104.605263,79.6600877 99.7807018,79.4682018 99.0679825,79.7423246 C98.4100877,79.9616228 95.9429825,79.8245614 96.5460526,83.8815789 L97.4506579,81.8256579 C97.4506579,81.8256579 97.3684211,83.2785088 97.9714912,83.7993421 C97.8618421,82.2642544 98.5471491,81.2225877 98.5471491,81.2225877 C98.5471491,81.2225877 98.6567982,82.9221491 99.0405702,83.1414474 C99.4243421,83.4155702 99.4243421,80.4002193 101.507675,80.6743421 C103.536184,80.9210526 105.04386,80.8388158 105.04386,80.8388158 C105.04386,80.8388158 105.729167,86.7050439 105.509868,87.2532895 C104.029605,86.8969298 100.466009,87.3903509 100.246711,88.2949561 C102.330044,88.1578947 103.289474,88.4046053 103.289474,88.4046053 C103.289474,88.4046053 101.617325,89.9122807 102.138158,90.7620614 Z" stroke="#000000" stroke-width="0.42" fill="#000000" fill-rule="evenodd" stroke-linecap="round" stroke-linejoin="round"></path>
                        <path d="M102.960526,58.8815789 C102.960526,58.8815789 97.7796053,64.5833333 100.027412,68.941886 C100.137061,68.3388158 100.082237,67.9550439 100.164474,67.9824561 C100.027412,67.9002193 100.794956,68.5032895 100.740132,68.3936404 C100.740132,68.064693 100.520833,67.379386 100.520833,67.379386 L101.20614,67.5712719 L100.794956,66.8037281 L101.809211,66.9133772 C101.809211,66.9133772 101.452851,65.9813596 101.5625,65.9813596 L102.384868,66.0361842 C100.904605,63.4046053 102.302632,61.2116228 102.960526,58.8541667 L102.960526,58.8815789 Z" stroke="#9CA69C" stroke-width="0.42" fill="#9CA69C" fill-rule="evenodd" stroke-linecap="round" stroke-linejoin="round"></path>
                        <path d="M104.769737,53.9747807 C104.769737,53.9747807 105.04386,55.9484649 103.947368,56.4967105 C103.810307,56.6337719 103.125,56.8530702 103.234649,57.2642544 C103.344298,57.8125 103.645833,57.7028509 104.057018,57.5932018 C105.180921,57.4013158 106.496711,55.0164474 104.769737,53.9747807 Z" stroke="#9CA69C" stroke-width="0.47" fill="#9CA69C" fill-rule="evenodd"></path>
                        <path d="M102.850877,55.6469298 C102.850877,55.8740206 102.666784,56.058114 102.439693,56.058114 C102.212602,56.058114 102.028509,55.8740206 102.028509,55.6469298 C102.028509,55.4198391 102.212602,55.2357456 102.439693,55.2357456 C102.666784,55.2357456 102.850877,55.4198391 102.850877,55.6469298 Z" stroke="none" fill="#FFFFFF" fill-rule="evenodd"></path>
                        <path d="M101.178728,57.2916667 C100.904605,57.5383772 99.4791667,59.0186404 100.904605,59.566886 C102.357456,59.183114 101.946272,58.9089912 102.275219,58.5800439 C102.275219,57.8947368 101.5625,57.7302632 101.178728,57.3190789 L101.178728,57.2916667 Z" stroke="#000000" stroke-width="0.47" fill="#DE3108" fill-rule="evenodd"></path>
                        <path d="M104.33114,71.4089912 C104.248904,71.7379386 103.919956,72.9440789 104.358553,73.8760965 C105.619518,73.3278509 106.195175,73.4923246 106.60636,73.7664474 C105.592105,72.9440789 105.180921,72.5877193 104.33114,71.4089912 Z" stroke="#9CA69C" stroke-width="0.42" fill="#9CA69C" fill-rule="evenodd" stroke-linecap="round" stroke-linejoin="round"></path>
                        <path d="M106.469298,77.0559211 L106.524123,79.8519737 C106.524123,79.8519737 107.510965,80.0164474 107.949561,79.8519737 C108.388158,79.6875 107.949561,77.933114 106.469298,77.0559211 Z" stroke="#FFFFFF" stroke-width="0.42" fill="#FFFFFF" fill-rule="evenodd" stroke-linecap="round" stroke-linejoin="round"></path>
                        <path d="M113.486842,77.4122807 C113.486842,77.4122807 111.705044,73.0811404 107.127193,71.9846491 C102.549342,70.8881579 103.152412,66.0087719 103.508772,65.7072368 C103.72807,65.2960526 103.865132,64.6381579 105.180921,65.2686404 C106.496711,65.8991228 112.582237,68.941886 113.45943,69.1063596 C114.336623,69.2708333 113.569079,77.5219298 113.514254,77.4122807 L113.486842,77.4122807 Z" stroke="#000000" stroke-width="0.47" fill="#9CA69C" fill-rule="evenodd"></path>
                        <path d="M109.155702,71.9572368 C109.073465,72.0120614 115.26864,75.6304825 113.404605,78.7280702 C115.158991,77.5493421 114.610746,75.5208333 114.610746,75.5208333 C114.610746,75.5208333 116.036184,79.2763158 112.527412,81.1129386 C112.911184,81.441886 113.157895,81.3870614 113.157895,81.3870614 L112.554825,81.9627193 C112.554825,81.9627193 112.280702,82.4287281 114.638158,81.2774123 C114.007675,81.7982456 113.952851,82.1820175 113.952851,82.1820175 C113.952851,82.1820175 114.117325,82.6754386 115.652412,81.3322368 C114.41886,82.6754386 114.144737,83.3607456 114.144737,83.3333333 C117.516447,83.0592105 124.835526,72.0942982 111.842105,68.8870614 L112.417763,69.4901316 L109.128289,71.9572368 L109.155702,71.9572368 Z" stroke="#000000" stroke-width="0.42" fill="#DE3108" fill-rule="evenodd" stroke-linejoin="round"></path>
                        <path d="M109.429825,70.8881579 C110.252193,71.4912281 110.553728,71.7105263 110.663377,71.9846491 C109.895833,71.8201754 109.210526,71.875 109.210526,71.875 C109.210526,71.875 107.538377,70.2850877 107.236842,70.1480263 C107.017544,70.1480263 105.701754,69.3256579 105.701754,69.3256579 C105.071272,68.9967105 104.468202,66.7763158 106.85307,67.4067982 C107.767843,67.8838643 108.710732,68.3049604 109.676535,68.6677632 L112.609649,69.5997807 L114.309211,71.4912281 C114.309211,71.4912281 111.29386,70.0109649 110.910088,69.9835526 C111.732456,70.6414474 112.198465,71.5734649 112.198465,71.5734649 C111.239035,71.2993421 110.416667,71.0252193 109.429825,70.8881579 Z" stroke="#000000" stroke-width="0.42" fill="#FFFFFF" fill-rule="evenodd" stroke-linecap="round" stroke-linejoin="round"></path>
                        <path d="M97.6973684,57.5383772 C97.6973684,57.5383772 100.575658,56.8256579 100.932018,56.935307" stroke="#FFFFFF" stroke-width="0.84375" fill="none" stroke-linecap="round"></path>
                        <polygon stroke="none" fill="#DE3908" fill-rule="evenodd" points="0 116.968202 210.526316 116.968202 210.526316 140.350877 0 140.350877"></polygon>
                    </g>
                </g>
            </g>
        </g>
    </g>
</svg>