<?xml version="1.0" encoding="UTF-8"?>
<svg width="200px" height="150px" viewBox="0 0 200 150" version="1.1" xmlns="http://www.w3.org/2000/svg" xmlns:xlink="http://www.w3.org/1999/xlink">
    <!-- Generator: Sketch 52.5 (67469) - http://www.bohemiancoding.com/sketch -->
    <title>un</title>
    <desc>Created with Sketch.</desc>
    <g id="Flags" stroke="none" stroke-width="1" fill="none" fill-rule="evenodd">
        <g id="Other" transform="translate(-620.000000, -50.000000)">
            <g id="un" transform="translate(620.000000, 50.000000)">
                <polygon id="Path" fill="#4B92DB" points="0 0 200 0 200 150 0 150"></polygon>
                <g id="Group" transform="translate(56.125000, 40.500000)" fill="#FFFFFF" fill-rule="nonzero">
                    <path d="M55.66875,69.5625 C55.1248183,70.1525923 54.5286408,70.6922899 53.8875,71.175 C49.9125,67.05 45.225,62.5125 40.78125,62.5125 C38.025,62.5125 36.05625,64.6125 33.73125,66.075 C30.525,68.1375 26.11875,69.3 22.35,67.78125 C20.2184845,67.0513091 18.3258399,65.7549772 16.875,64.03125 C20.1119005,66.0502993 24.1194296,66.39878 27.65625,64.96875 C31.35,63.43125 35.1375,61.3875 39.35625,61.3875 C45.58125,61.3875 51.50625,65.60625 55.66875,69.5625 Z M9.61875,56.625 C13.74375,61.3125 20.475,59.8125 25.96875,60.975 C26.7375,61.1625 27.46875,61.40625 28.29375,61.275 C27.6375,60.8625 26.75625,60.80625 26.00625,60.525 C21.73125,58.9125 21.075,54.3375 18.73125,51.20625 C21.73125,53.19375 24.1875,55.89375 26.98125,58.4625 C28.9505309,60.0909585 31.332283,61.1423041 33.8625,61.5 C33.2625,61.725 32.475,61.6875 31.8,61.8375 C27.3,62.9625 22.3125,64.725 17.5125,63.15 C14.1652199,62.0339305 11.3562689,59.706514 9.6375,56.625 L9.61875,56.625 Z M3.01875,45.75 C5.5875,51.58125 12.05625,52.05 16.33125,55.6125 C17.0978465,56.2932699 17.9485252,56.8729917 18.8625,57.3375 L18.91875,57.3 C17.8617243,56.3784369 16.9119754,55.3406318 16.0875,54.20625 C13.63125,50.64375 14.4375,45.76875 12.54375,41.98125 C14.3027849,43.9365974 15.7623845,46.1417934 16.875,48.525 C18.46875,52.3125 19.0125,56.64375 22.59375,59.53125 C18.7125,58.25625 14.25,58.5 10.78125,56.23125 C7.10625,53.83125 3.7125,50.04375 3.01875,45.76875 L3.01875,45.75 Z M0.2625,33.975 C0.6375,39.1125 6.075,41.85 8.7,46.06875 C9.2625,46.96875 9.825,47.90625 10.63125,48.61875 C10.5,48.075 10.06875,47.5875 9.80625,47.0625 C8.94547883,45.1670845 8.60258146,43.0773514 8.8125,41.00625 C9.05625,38.38125 10.14375,35.94375 9.73125,33.1875 C11.98125,38.04375 11.25,44.1 12.54375,49.33125 C12.84375,50.49375 13.5375,51.50625 13.96875,52.6125 C11.775,50.925 8.8875,49.425 6.46875,47.55 C4.05731817,45.816453 2.17483822,43.4471248 1.03125,40.70625 C0.294968241,38.5436548 0.0327810658,36.2479184 0.2625,33.975 Z M0.4125,24.525 C0.675,23.38125 0.88125,22.2 1.36875,21.15 C0.43125,25.9875 3.65625,29.475 4.74375,33.675 C5.15625,35.25 5.30625,36.91875 5.94375,38.4 C6,38.41875 6.05625,38.3625 6.09375,38.325 C4.5,33.8625 6.84375,29.7375 9.09375,26.23125 C9.6450522,25.269203 10.037592,24.2245406 10.25625,23.1375 C10.5,25.1625 10.06875,27.4875 9.69375,29.56875 C9.225,32.25 8.30625,34.7625 7.575,37.35 C7.17900045,39.0363774 7.14704023,40.7877976 7.48125,42.4875 L7.2375,42.3 C5.55,39.1875 2.2125,36.75 1.21875,33.3375 C0.268842555,30.5025645 -0.00721044953,27.485241 0.4125,24.525 Z M2.19375,19.3125 C2.25502456,15.8683273 3.51477437,12.5531963 5.75625,9.9375 C5.8125,9.9 5.86875,9.84375 5.94375,9.8625 C3.58125,13.425 5.7375,17.9625 5.41875,22.03125 L5.11875,26.19375 C5.15625,26.23125 5.15625,26.3625 5.26875,26.30625 C5.41875,25.8375 5.45625,25.35 5.53125,24.8625 C6.09375,21.4875 9.05625,19.1625 11.55,16.8 C12.1268076,16.2554711 12.5751529,15.5893581 12.8625,14.85 C12.65625,16.5375 12.1875,18.24375 11.4375,19.7625 C9.50625,23.6625 5.79375,26.8125 5.11875,31.25625 C4.8,27 2.19375,23.83125 2.19375,19.3125 Z M8.38125,6.95625 C9.45919397,5.66025547 10.8932813,4.70854294 12.50625,4.21875 C9.4125,6.3375 9.58125,10.10625 8.64375,13.25625 C8.30625,14.4 7.8,15.4875 7.51875,16.66875 L7.6125,16.74375 C8.16507421,15.3255541 9.03027438,14.0501849 10.14375,13.0125 C12.3,10.9875 15.54375,9.75 16.6125,6.76875 C16.55625,10.9125 13.03125,14.0625 9.80625,16.5 C8.37063903,17.5830877 7.20309899,18.9815697 6.39375,20.5875 C6.50625,19.4625 6.58125,18.4875 6.46875,17.38125 C6.13125,13.7625 5.90625,9.69375 8.4,6.95625 L8.38125,6.95625 Z M20.85,-1.70530257e-14 C18.58125,2.00625 17.0625,4.575 15.3,6.88125 C13.85625,8.8125 11.85,9.99375 10.14375,11.60625 C11.08125,9.69375 11.23125,7.48125 12.4125,5.625 C14.41875,2.4375 17.75625,1.2 20.85,-1.70530257e-14 Z" id="a"></path>
                    <g id="a-link" transform="translate(59.943750, 35.625000) scale(-1, 1) translate(-59.943750, -35.625000) translate(32.100000, 0.000000)">
                        <path d="M55.66875,69.5625 C55.1248183,70.1525923 54.5286408,70.6922899 53.8875,71.175 C49.9125,67.05 45.225,62.5125 40.78125,62.5125 C38.025,62.5125 36.05625,64.6125 33.73125,66.075 C30.525,68.1375 26.11875,69.3 22.35,67.78125 C20.2184845,67.0513091 18.3258399,65.7549772 16.875,64.03125 C20.1119005,66.0502993 24.1194296,66.39878 27.65625,64.96875 C31.35,63.43125 35.1375,61.3875 39.35625,61.3875 C45.58125,61.3875 51.50625,65.60625 55.66875,69.5625 Z M9.61875,56.625 C13.74375,61.3125 20.475,59.8125 25.96875,60.975 C26.7375,61.1625 27.46875,61.40625 28.29375,61.275 C27.6375,60.8625 26.75625,60.80625 26.00625,60.525 C21.73125,58.9125 21.075,54.3375 18.73125,51.20625 C21.73125,53.19375 24.1875,55.89375 26.98125,58.4625 C28.9505309,60.0909585 31.332283,61.1423041 33.8625,61.5 C33.2625,61.725 32.475,61.6875 31.8,61.8375 C27.3,62.9625 22.3125,64.725 17.5125,63.15 C14.1652199,62.0339305 11.3562689,59.706514 9.6375,56.625 L9.61875,56.625 Z M3.01875,45.75 C5.5875,51.58125 12.05625,52.05 16.33125,55.6125 C17.0978465,56.2932699 17.9485252,56.8729917 18.8625,57.3375 L18.91875,57.3 C17.8617243,56.3784369 16.9119754,55.3406318 16.0875,54.20625 C13.63125,50.64375 14.4375,45.76875 12.54375,41.98125 C14.3027849,43.9365974 15.7623845,46.1417934 16.875,48.525 C18.46875,52.3125 19.0125,56.64375 22.59375,59.53125 C18.7125,58.25625 14.25,58.5 10.78125,56.23125 C7.10625,53.83125 3.7125,50.04375 3.01875,45.76875 L3.01875,45.75 Z M0.2625,33.975 C0.6375,39.1125 6.075,41.85 8.7,46.06875 C9.2625,46.96875 9.825,47.90625 10.63125,48.61875 C10.5,48.075 10.06875,47.5875 9.80625,47.0625 C8.94547883,45.1670845 8.60258146,43.0773514 8.8125,41.00625 C9.05625,38.38125 10.14375,35.94375 9.73125,33.1875 C11.98125,38.04375 11.25,44.1 12.54375,49.33125 C12.84375,50.49375 13.5375,51.50625 13.96875,52.6125 C11.775,50.925 8.8875,49.425 6.46875,47.55 C4.05731817,45.816453 2.17483822,43.4471248 1.03125,40.70625 C0.294968241,38.5436548 0.0327810658,36.2479184 0.2625,33.975 Z M0.4125,24.525 C0.675,23.38125 0.88125,22.2 1.36875,21.15 C0.43125,25.9875 3.65625,29.475 4.74375,33.675 C5.15625,35.25 5.30625,36.91875 5.94375,38.4 C6,38.41875 6.05625,38.3625 6.09375,38.325 C4.5,33.8625 6.84375,29.7375 9.09375,26.23125 C9.6450522,25.269203 10.037592,24.2245406 10.25625,23.1375 C10.5,25.1625 10.06875,27.4875 9.69375,29.56875 C9.225,32.25 8.30625,34.7625 7.575,37.35 C7.17900045,39.0363774 7.14704023,40.7877976 7.48125,42.4875 L7.2375,42.3 C5.55,39.1875 2.2125,36.75 1.21875,33.3375 C0.268842555,30.5025645 -0.00721044953,27.485241 0.4125,24.525 Z M2.19375,19.3125 C2.25502456,15.8683273 3.51477437,12.5531963 5.75625,9.9375 C5.8125,9.9 5.86875,9.84375 5.94375,9.8625 C3.58125,13.425 5.7375,17.9625 5.41875,22.03125 L5.11875,26.19375 C5.15625,26.23125 5.15625,26.3625 5.26875,26.30625 C5.41875,25.8375 5.45625,25.35 5.53125,24.8625 C6.09375,21.4875 9.05625,19.1625 11.55,16.8 C12.1268076,16.2554711 12.5751529,15.5893581 12.8625,14.85 C12.65625,16.5375 12.1875,18.24375 11.4375,19.7625 C9.50625,23.6625 5.79375,26.8125 5.11875,31.25625 C4.8,27 2.19375,23.83125 2.19375,19.3125 Z M8.38125,6.95625 C9.45919397,5.66025547 10.8932813,4.70854294 12.50625,4.21875 C9.4125,6.3375 9.58125,10.10625 8.64375,13.25625 C8.30625,14.4 7.8,15.4875 7.51875,16.66875 L7.6125,16.74375 C8.16507421,15.3255541 9.03027438,14.0501849 10.14375,13.0125 C12.3,10.9875 15.54375,9.75 16.6125,6.76875 C16.55625,10.9125 13.03125,14.0625 9.80625,16.5 C8.37063903,17.5830877 7.20309899,18.9815697 6.39375,20.5875 C6.50625,19.4625 6.58125,18.4875 6.46875,17.38125 C6.13125,13.7625 5.90625,9.69375 8.4,6.95625 L8.38125,6.95625 Z M20.85,-1.70530257e-14 C18.58125,2.00625 17.0625,4.575 15.3,6.88125 C13.85625,8.8125 11.85,9.99375 10.14375,11.60625 C11.08125,9.69375 11.23125,7.48125 12.4125,5.625 C14.41875,2.4375 17.75625,1.2 20.85,-1.70530257e-14 Z" id="a"></path>
                    </g>
                </g>
                <path d="M127.8125,81.875 L127.15625,81.5 C125.730799,84.4295174 123.841934,87.1098052 121.5625,89.4375 L117.65625,85.5 C119.544321,83.5499491 121.096554,81.300795 122.25,78.84375 L121.59375,78.46875 C120.464881,80.8701422 118.944091,83.066839 117.09375,84.96875 L113.53125,81.40625 C115.039519,79.8480364 116.266037,78.0399798 117.15625,76.0625 L116.5,75.6875 C115.64292,77.6065124 114.458605,79.3618356 113,80.875 L109.09375,76.96875 C110.167925,75.8256428 111.016171,74.4896563 111.59375,73.03125 L110.9375,72.65625 C110.391275,74.04579 109.585228,75.3184956 108.5625,76.40625 L104.96875,72.84375 C105.977542,71.7213124 106.572879,70.2880931 106.65625,68.78125 L111.71875,68.78125 C111.680851,70.1079757 111.416635,71.4184832 110.9375,72.65625 L111.59375,73.03125 C112.132193,71.676798 112.428366,70.2382435 112.46875,68.78125 L118.03125,68.78125 C117.974476,71.1642856 117.443295,73.5121048 116.46875,75.6875 L117.15625,76.0625 C118.180175,73.768768 118.732778,71.2926798 118.78125,68.78125 L123.84375,68.78125 C123.787732,72.1332534 123.020831,75.4351871 121.59375,78.46875 L122.25,78.84375 C123.727774,75.6922445 124.516156,72.2617178 124.5625,68.78125 L130.15625,68.78125 C130.104006,73.1898955 129.079657,77.5327097 127.15625,81.5 L127.8125,81.875 C129.857455,77.6899708 130.925956,73.0954155 130.9375,68.4375 C130.941282,64.4640653 130.177279,60.5273291 128.6875,56.84375 L128,57.15625 C129.400543,60.6241514 130.14238,64.3227373 130.1875,68.0625 L124.59375,68.0625 C124.560206,65.0653235 123.977667,62.0996701 122.875,59.3125 L122.1875,59.625 C123.25904,62.3112939 123.830924,65.1707132 123.875,68.0625 L118.75,68.0625 C118.71473,65.8598981 118.291593,63.6807429 117.5,61.625 L116.8125,61.9375 C117.561848,63.8944778 117.963717,65.9672748 118,68.0625 L112.5,68.0625 C112.463979,66.7181422 112.210707,65.3884652 111.75,64.125 L111.0625,64.4375 C111.481643,65.6019502 111.713685,66.8254446 111.75,68.0625 L106.6875,68.0625 C106.604129,66.5556569 106.008792,65.1224376 105,64 L108.59375,60.40625 C109.679758,61.5581027 110.519751,62.9191045 111.0625,64.40625 L111.75,64.125 C111.172207,62.5450073 110.279106,61.0990345 109.125,59.875 L113.0625,55.9375 C114.720221,57.6636508 116.016416,59.7035645 116.875,61.9375 L117.5625,61.625 C116.655914,59.3067428 115.296055,57.1925872 113.5625,55.40625 L117.15625,51.84375 C119.331394,54.0912249 121.041199,56.7462004 122.1875,59.65625 L122.875,59.34375 C121.680007,56.3497731 119.906628,53.6206817 117.65625,51.3125 L121.59375,47.375 C124.348746,50.1847201 126.525323,53.5079822 128,57.15625 L128.6875,56.84375 C127.128315,53.0041176 124.811364,49.5180623 121.875,46.59375 C118.935764,43.6384864 115.427501,41.3102753 111.5625,39.75 L111.3125,40.46875 C114.958194,41.9341254 118.281269,44.0999633 121.09375,46.84375 L117.15625,50.78125 C114.885983,48.5814724 112.211944,46.8412247 109.28125,45.65625 L108.96875,46.34375 C111.820621,47.498738 114.420892,49.1968744 116.625,51.34375 L113.0625,54.90625 C111.347781,53.2487327 109.332593,51.9335572 107.125,51.03125 L106.875,51.71875 C108.965033,52.583578 110.873341,53.8345801 112.5,55.40625 L108.59375,59.34375 C107.501309,58.3113263 106.23077,57.485476 104.84375,56.90625 L104.5625,57.625 C105.854353,58.1596208 107.039801,58.9216948 108.0625,59.875 L104.4375,63.4375 C103.315062,62.4287082 101.881843,61.833371 100.375,61.75 L100.375,56.6875 C101.804189,56.7327917 103.212936,57.0399619 104.53125,57.59375 L104.8125,56.90625 C103.405335,56.313695 101.90109,55.9853036 100.375,55.9375 L100.375,50.375 C102.593718,50.4100344 104.786834,50.8550144 106.84375,51.6875 L107.125,51 C104.979225,50.1287356 102.690608,49.6625359 100.375,49.625 L100.375,44.5625 C103.323303,44.6080162 106.237431,45.2014385 108.96875,46.3125 L109.21875,45.625 C106.406295,44.4896474 103.407683,43.8856867 100.375,43.84375 L100.375,38.25 C104.114763,38.2951202 107.813349,39.0369569 111.28125,40.4375 L111.53125,39.71875 C107.862943,38.2582367 103.948332,37.5156275 100,37.53125 C95.2052908,37.5217794 90.4749348,38.6348044 86.1875,40.78125 L86.5,41.40625 C90.5809788,39.3815501 95.0694761,38.3128602 99.625,38.28125 L99.625,43.84375 C95.9693056,43.8880797 92.3702728,44.7531292 89.09375,46.375 L89.4375,47 C92.6092401,45.4384223 96.0899468,44.6056152 99.625,44.5625 L99.625,49.625 C96.9155639,49.6751828 94.2495843,50.3150179 91.8125,51.5 L92.125,52.15625 C94.4667027,51.0269251 97.0255783,50.4191921 99.625,50.375 L99.625,55.9375 C97.9254846,55.9929216 96.2555049,56.3971205 94.71875,57.125 L95.03125,57.75 C96.4744174,57.0874318 98.0374694,56.7259096 99.625,56.6875 L99.625,61.75 C98.8727922,61.791674 98.1331173,61.9607425 97.4375,62.25 L97.75,62.875 C98.4665984,62.5950954 99.2307637,62.4571212 100,62.46875 C101.568696,62.4628301 103.075306,63.0812146 104.1875,64.1875 C105.320735,65.3097762 105.951922,66.8426591 105.9375,68.4375 C105.9375,71.7166907 103.279191,74.375 100,74.375 C98.4268061,74.3726403 96.9195618,73.7427471 95.8125,72.625 C94.6947529,71.5179382 94.0648597,70.0106939 94.0625,68.4375 C94.0565043,66.8534753 94.6870413,65.3334307 95.8125,64.21875 C96.3676797,63.6682709 97.0261105,63.232857 97.75,62.9375 L97.40625,62.28125 C96.7194707,62.5698857 96.0857454,62.971245 95.53125,63.46875 L91.96875,59.875 C92.8814109,59.0161471 93.9259292,58.3092509 95.0625,57.78125 L94.71875,57.15625 C93.5161445,57.7072053 92.4086147,58.4455585 91.4375,59.34375 L87.5,55.40625 C88.8637889,54.0979891 90.4244416,53.0118592 92.125,52.1875 L91.8125,51.5625 C90.0440388,52.4197458 88.4203073,53.5479229 87,54.90625 L83.40625,51.25 C85.1839735,49.5289773 87.2187458,48.0951482 89.4375,47 L89.125,46.375 C86.8275587,47.5006762 84.7190549,48.9766289 82.875,50.75 L78.9375,46.78125 C81.1757956,44.6079493 83.7374606,42.7947542 86.53125,41.40625 L86.1875,40.75 C80.1549719,43.7829992 75.2736491,48.6972298 72.28125,54.75 L72.90625,55.0625 C74.3189064,52.2049847 76.175237,49.5892461 78.40625,47.3125 L82.375,51.28125 C80.5272269,53.1803598 78.9972359,55.3645538 77.84375,57.75 L78.46875,58.09375 C79.585885,55.764807 81.0740262,53.63286 82.875,51.78125 L86.46875,55.34375 C85.0128732,56.8539687 83.8193798,58.5966803 82.9375,60.5 L83.5625,60.84375 C84.4201928,59.0056499 85.582395,57.3257394 87,55.875 L90.9375,59.8125 C89.9123943,60.8871063 89.0869914,62.1357927 88.5,63.5 L89.15625,63.875 C89.6969757,62.5697063 90.4698938,61.3732714 91.4375,60.34375 L95.03125,63.90625 C94.0180541,65.0382701 93.4225887,66.482825 93.34375,68 L88.28125,68 C88.3210978,66.5834038 88.6175631,65.1857819 89.15625,63.875 L88.53125,63.5 C87.9197202,64.9243564 87.5805328,66.4506998 87.53125,68 L81.96875,68 C82.0123613,65.5281963 82.5655628,63.0919819 83.59375,60.84375 L82.96875,60.53125 C81.8743582,62.8727341 81.2784294,65.4160729 81.21875,68 L76.15625,68 C76.2123297,64.5673307 77.0119448,61.1876239 78.5,58.09375 L77.84375,57.75 C76.3054815,60.9509081 75.4842927,64.4489589 75.4375,68 L69.84375,68 C69.8985216,63.5208975 70.9556371,59.1109106 72.9375,55.09375 L72.28125,54.75 C70.1847232,58.9859741 69.0939264,63.6485954 69.09375,68.375 C69.0933182,71.3259313 69.5142324,74.2618078 70.34375,77.09375 L71.0625,76.90625 C70.2858222,74.2558836 69.8757625,71.5116382 69.84375,68.75 L75.4375,68.75 C75.4632092,71.0474574 75.8103258,73.330012 76.46875,75.53125 L77.1875,75.34375 C76.5367326,73.2049556 76.1895918,70.9853585 76.15625,68.75 L81.25,68.75 C81.2798708,70.5745829 81.5746146,72.385152 82.125,74.125 L82.875,73.9375 C82.3317334,72.2603017 82.0369408,70.5126026 82,68.75 L87.5,68.75 C87.5397053,70.0504951 87.7822088,71.3368182 88.21875,72.5625 L88.9375,72.375 C88.5188651,71.2104112 88.2868385,69.9869984 88.25,68.75 L93.3125,68.75 C93.395871,70.2568431 93.9912082,71.6900624 95,72.8125 L91.40625,76.40625 C90.3173404,75.2446827 89.4772432,73.8728784 88.9375,72.375 L88.21875,72.5625 C88.7997036,74.1922834 89.7151392,75.6825275 90.90625,76.9375 L86.9375,80.875 C85.0542055,78.905228 83.6436243,76.5328868 82.8125,73.9375 L82.0625,74.125 C82.9425598,76.8557462 84.4395641,79.3471891 86.4375,81.40625 L82.875,85 C80.2496673,82.288134 78.3103949,78.9881566 77.21875,75.375 L76.5,75.5625 C77.6229871,79.3047964 79.6269223,82.723274 82.34375,85.53125 L78.4375,89.46875 C75.0001005,85.9562508 72.478277,81.6530542 71.09375,76.9375 L70.34375,77.125 C71.8013517,82.0879798 74.488586,86.6025334 78.15625,90.25 C80.6350656,92.74067 83.5200889,94.790833 86.6875,96.3125 L87.0625,95.65625 C84.0607776,94.2317973 81.3153808,92.3205788 78.9375,90 L82.875,86.0625 C84.8931851,88.0070885 87.2288996,89.5924151 89.78125,90.75 L90.15625,90.125 C87.6588612,88.9932413 85.3753894,87.4392119 83.40625,85.53125 L86.96875,81.96875 C88.6196893,83.5555621 90.5473337,84.8265364 92.65625,85.71875 L93.03125,85.0625 C90.9794449,84.2061439 89.1040487,82.9770706 87.5,81.4375 L91.4375,77.5 C92.6953555,78.6798817 94.185393,79.5845473 95.8125,80.15625 L96.15625,79.5 C94.5974513,78.9611645 93.1703469,78.0985118 91.96875,76.96875 L95.5625,73.375 C96.6849376,74.3837918 98.1181569,74.979129 99.625,75.0625 L99.625,80.125 C98.4543732,80.0896075 97.2956649,79.8789333 96.1875,79.5 L95.78125,80.125 C97.0148546,80.5764128 98.3121832,80.8295501 99.625,80.875 L99.625,86.4375 C97.3600611,86.3988915 95.1228467,85.9323634 93.03125,85.0625 L92.65625,85.6875 C94.8618755,86.6285245 97.2275361,87.137725 99.625,87.1875 L99.625,92.25 C96.356135,92.2009122 93.1326046,91.4774796 90.15625,90.125 L89.78125,90.75 C92.8706723,92.175379 96.2231136,92.9416513 99.625,93 L99.625,98.5625 C95.2763488,98.5157527 90.9898513,97.5241003 87.0625,95.65625 L86.6875,96.28125 C90.8421357,98.275478 95.3915359,99.3113743 100,99.3125 C104.9375,99.3125 109.6875,98.15625 113.9375,96 L113.5625,95.3125 C109.473708,97.391848 104.96177,98.5037947 100.375,98.5625 L100.375,92.96875 C104.067002,92.9169041 107.699398,92.0301722 111,90.375 L110.6875,89.71875 C107.483661,91.322238 103.95746,92.1770744 100.375,92.21875 L100.375,87.21875 C103.157323,87.1560987 105.890526,86.4727982 108.375,85.21875 L108.03125,84.5625 C105.64976,85.7474521 103.034539,86.3879143 100.375,86.4375 L100.375,80.875 C102.142596,80.8261027 103.879317,80.3999133 105.46875,79.625 L105.15625,78.9375 C103.665307,79.6694581 102.035153,80.0743331 100.375,80.125 L100.375,75.0625 C101.881843,74.979129 103.315062,74.3837918 104.4375,73.375 L108.03125,76.96875 C107.166252,77.7664506 106.18663,78.4300651 105.125,78.9375 L105.46875,79.625 C106.601071,79.0764077 107.644076,78.3600005 108.5625,77.5 L112.5,81.40625 C111.179005,82.6787552 109.672201,83.7430015 108.03125,84.5625 L108.34375,85.21875 C110.064415,84.3704051 111.645195,83.2638592 113.03125,81.9375 L116.59375,85.5 C114.841684,87.2012675 112.839282,88.624027 110.65625,89.71875 L111.03125,90.375 C113.272185,89.2464066 115.32722,87.7815357 117.125,86.03125 L121.03125,89.96875 C118.827821,92.1193515 116.309281,93.9213195 113.5625,95.3125 L113.9375,96 C116.861002,94.5144656 119.52973,92.5735727 121.84375,90.25 C124.286654,87.8108911 126.304106,84.9801211 127.8125,81.875 Z" id="Path" fill="#FFFFFF"></path>
                <path d="M101.78125,61.25 L101.59375,61.25 L101.59375,61.46875 L101.78125,61.46875 L101.78125,61.25 Z M101.3125,60.9375 L101.5625,60.9375 L101.5625,61.125 L101.3125,61.125 L101.3125,60.9375 Z M100.875,60.875 L101.0625,60.90625 L101.09375,60.71875 L100.875,60.71875 L100.875,60.875 Z M100.6875,60.8125 L100.46875,60.8125 L100.46875,60.59375 L100.71875,60.625 L100.6875,60.8125 Z M98.875,60.5625 L99.125,60.5625 L99.125,60.75 L98.875,60.75 L98.875,60.5625 Z M98.34375,60.9375 L98.5625,60.96875 L98.5625,60.78125 L98.375,60.78125 L98.34375,60.9375 Z M98.34375,61.25 L98.125,61.15625 L98.125,60.96875 L98.40625,61.0625 L98.34375,61.25 Z M97.90625,61.46875 L97.90625,61.28125 L98.0625,61.25 L98.09375,61.4375 L97.90625,61.46875 Z M73.34375,80.71875 L73.34375,80.5625 L73.1875,80.5625 L73.1875,80.875 L73.4375,80.875 L73.4375,81.28125 L73.625,81.28125 L73.625,80.8125 L73.34375,80.71875 Z M75.6875,83.53125 L75.375,83.21875 L75.09375,82.875 L74.96875,82.5625 L74.75,82 L75.21875,82.25 L75.375,82.6875 L75.59375,82.84375 L75.8125,83.3125 L75.6875,83.53125 Z M82.15625,92 L82.125,91.71875 L81.84375,91.34375 L82.25,91.40625 L82.625,91.75 L82.8125,92.15625 L82.5625,92.28125 L82.46875,92.09375 L82.15625,92 Z M99.03125,63.28125 L98.71875,63.28125 L98.625,62.59375 L98.8125,62.46875 L98.8125,62.125 L97.71875,62.125 L97.71875,61.78125 L97.84375,61.6875 L97.59375,61.59375 L97.40625,61.84375 L97.34375,62.125 L97.03125,62.1875 L97.03125,62.34375 L96.8125,62.34375 L96.8125,62.75 L95.9375,63.46875 L94.1875,63.40625 C94.09375,63.71875 93.78125,63.40625 93.78125,63.40625 C93.6875,63.1875 93.28125,63.40625 93.28125,63.40625 C93.28125,63.71875 92.65625,63.21875 92.65625,63.21875 L91.59375,62.4375 C90.96875,61.875 90.03125,62.59375 90,62.75 C90,63.1875 89.28125,62.84375 89.28125,62.84375 C89.28125,62.84375 88.65625,62.65625 88.5625,62.90625 C88.46875,63.15625 88.0625,63.09375 88.0625,63.09375 L88,63.21875 L87.6875,63.28125 L87.625,63.46875 L87.25,63.53125 L88.1875,63.53125 C88.4375,63.46875 88.09375,64.0625 87.9375,64.03125 L87.5,64.03125 L87.34375,64.21875 L86.9375,64.21875 L86.75,64.46875 L86.15625,64.4375 C86.15625,64.4375 85.84375,64.71875 85.84375,64.8125 C85.875,64.90625 85.78125,65.1875 85.6875,65.1875 C85.59375,65.1875 85.40625,65.5 85.46875,65.5625 C85.53125,65.65625 85.28125,65.96875 85.28125,65.96875 L85.21875,66.28125 L85.03125,66.375 L85.03125,67.21875 L84.65625,67.46875 L84.65625,67.84375 L84.09375,68.46875 L84.15625,68.9375 L83.6875,69.46875 L83.75,69.96875 L83.46875,70.0625 L83.40625,70.28125 L83.28125,70.9375 L83.59375,70.96875 C83.75,70.90625 83.71875,71.375 83.59375,71.46875 C83.46875,71.53125 83.125,71.65625 83.3125,71.78125 C83.5,71.90625 82.8125,71.875 82.8125,71.6875 C82.8125,71.46875 82.4375,71.3125 82.34375,71.375 C82.25,71.4375 82.09375,71.09375 82.09375,71.09375 C81.78125,70.78125 80.71875,71.125 80.71875,71.125 L80.5625,71.65625 C80.21875,71.6875 80,72.28125 80,72.28125 C79.6875,72.375 79.5,72.71875 79.59375,72.8125 C79.6875,72.90625 79.4375,72.9375 79.4375,72.9375 L79.4375,73.625 L79.28125,73.84375 L79.28125,74.625 C79.5,74.625 79.46875,74.9375 79.46875,74.9375 C79.15625,75 79.21875,75.40625 79.21875,75.40625 L78.5625,75.625 L78.4375,75.8125 L77.625,75.8125 L77.40625,76 L77.1875,75.78125 L75.625,75.78125 L75.5625,75.625 L75.25,75.5625 L75.25,75.21875 L74.75,75.21875 L74.65625,75.4375 L74.15625,75.46875 C74.1875,75.78125 73.65625,76.25 73.59375,76.125 C73.53125,76 73.1875,75.65625 73.34375,75.59375 C73.5280549,75.5388217 73.7160276,75.49705 73.90625,75.46875 L73.90625,75.25 L72.75,75.21875 L72.625,75.40625 L72.15625,75.4375 L72.15625,75.9375 L71.9375,76 C71.78125,76.09375 71.96875,76.4375 71.96875,76.4375 C72.1875,76.65625 71.96875,77.03125 71.96875,77.03125 C71.75,77.21875 72.09375,77.5625 72.09375,77.5625 C72.34375,77.625 71.9375,77.8125 71.9375,77.8125 C72,78.125 72.1875,78.21875 72.1875,78.21875 C72,78.53125 72.3125,78.6875 72.3125,78.6875 L72.34375,79.21875 L72.5625,79.34375 L72.5625,79.71875 L72.6875,79.9375 L73.1875,79.9375 L73.1875,79.125 C72.71875,78.625 73.53125,78.5 73.5625,78.6875 C73.59375,78.875 73.9375,79 73.9375,79 C74,79.46875 74.5625,79.75 74.6875,79.25 C74.84375,78.78125 75,79.0625 75.0625,79.28125 C75.15625,79.53125 75.75,80.0625 75.75,80.0625 L76.21875,80.0625 L76.28125,80.5 C76.8125,80.46875 76.96875,80.5 77.1875,81.25 C77.2939563,81.6738644 77.5955697,82.0218798 78,82.1875 L78.4375,82.15625 C78.4375,81.75 78.875,82.21875 78.875,82.40625 C78.875,82.59375 79.71875,83.3125 79.71875,83.3125 L80.5625,83.5 L81.34375,84.125 L81.9375,84.0625 L82.1875,84.0625 C82.34375,83.53125 83.09375,84.09375 83.125,84.28125 C83.1875,84.46875 83.6875,84.8125 83.75,84.65625 C83.8125,84.5 84.15625,84.59375 84.21875,85.0625 C84.28125,85.53125 84.53125,85.4375 84.53125,85.4375 L86.28125,85.40625 L86.90625,84.875 L88.5,84.84375 C89.3125,84.8125 88.8125,83.6875 88.65625,83.6875 C88.375,83.46875 88.75,82.5625 88.75,82.5625 L86.46875,80.4375 C85.9375,80.4375 86.40625,79.6875 86.40625,79.6875 C86.8125,79.4375 86.3125,79 86.3125,79 C86.375,78.625 86.09375,78.1875 86.09375,78.1875 C85.53125,77.8125 85.6875,77.09375 85.6875,77.09375 L85.6875,76.5625 C85.21875,76.125 85.875,76.0625 85.875,76.0625 C86.09375,75.6875 85.71875,75.40625 85.71875,75.40625 L85.71875,75 L85.1875,74.9375 L85.125,73.4375 L84,71.84375 C83.78125,71.78125 83.9375,71.375 83.9375,71.375 C84.25,71.21875 83.875,70.84375 83.875,70.84375 L83.875,70.15625 L84.5,70.09375 L84.65625,69.84375 L84.96875,69.84375 L84.96875,69.03125 C85.09375,68.59375 85.46875,68.8125 85.46875,68.8125 L85.90625,68.84375 L86.15625,68.375 L86.21875,68 L85.90625,68 C85.5,67.75 85.6875,66.9375 85.6875,66.9375 C86.3125,66.03125 86.96875,66.5625 86.96875,66.5625 L87.40625,66.53125 C88.0625,66.96875 87.46875,67.78125 87.46875,67.78125 C87.34375,67.96875 87.40625,68.5625 87.40625,68.5625 L87.5625,69.59375 L87.15625,69.90625 C86.84375,70.125 86.84375,70.5625 87.1875,70.65625 C87.4375,70.6875 87.34375,71.28125 86.96875,70.875 C86.40625,70.875 87.28125,71.375 87.03125,71.25 C87.59375,71.5625 87.46875,71 87.46875,71 L88.21875,70.40625 C88.53125,70.1875 89,70.875 89,70.96875 C89,71.0625 90.25,71 90.25,71 C90.5625,71.21875 90.71875,71.8125 90.71875,71.8125 C91.03125,71.34375 91.78125,71.78125 91.25,72.03125 C91.75,72.34375 91.75,72.625 91.75,72.625 C92.15625,72.5 92.15625,72.8125 92.15625,72.90625 L92.28125,72.4375 C91.8125,72.09375 92.90625,71.96875 92.59375,72.59375 L92.40625,72.875 L92.71875,73.125 L92.71875,73.84375 C93.4375,73.78125 93.25,72.9375 93.25,72.9375 L93.5625,72.875 C93.5625,72.5625 93.78125,72.75 93.78125,72.75 C93.5625,71.6875 94.28125,71.5 94.28125,71.5 C94.6875,71.375 94.71875,70.53125 94.71875,70.53125 C94.40625,70.40625 94.59375,69.96875 94.90625,70.34375 C95.21875,70.71875 94.71875,69.59375 94.71875,69.59375 L94.46875,69.375 L94.125,69.34375 L94.09375,69 L93.53125,69 L93.4375,69.4375 L93.21875,69.5 L93.15625,69.375 L93.0625,69.6875 L92.5,69.6875 L92.46875,69.34375 L92.78125,69.25 L92.9375,69.0625 L93.03125,68.53125 L93.4375,68.53125 L93.96875,68.375 C93.96875,67.84375 94.28125,67.96875 94.28125,67.96875 L94.46875,68.125 L94.75,68.34375 L94.75,68.53125 L94.59375,68.625 L94.5625,68.875 L94.65625,69.25 L94.875,69.25 C94.96875,68.71875 95.625,68.71875 95.8125,69.0625 L96,68.59375 C95.5625,68.375 96,68.03125 96.125,68.1875 C96.25,68.34375 96.53125,67.78125 96.53125,67.78125 C96.53125,67.78125 96.75,68.09375 96.53125,67.6875 C96.3125,67.3125 96.6875,67.125 96.6875,67.125 C96.625,66.75 97.09375,66.8125 97.09375,66.8125 L97.125,66.28125 L96.6875,66.28125 C96.59375,66.71875 96.21875,66.3125 96.40625,66.21875 C96.59375,66.125 96.78125,65.9375 96.78125,65.9375 L96.78125,65.625 L96.96875,65.5625 L97,65.25 L97.46875,65.25 L97.875,65.0625 L97.96875,64.90625 L98.40625,64.875 L99.03125,64.3125 L98.96875,64.0625 C98.59375,64.0625 98.96875,63.75 98.96875,63.75 L99.03125,63.28125 Z" id="Shape" fill="#FFFFFF" fill-rule="nonzero"></path>
                <path d="M86.46875,69.5625 L85.90625,69.5 L85.9375,69.71875 L86.09375,69.71875 C86.34375,70.15625 86.125,71.21875 86.125,71.21875 C86.125,71.21875 85.75,71.25 85.6875,71.0625 C85.625,70.875 85.46875,71.46875 85.59375,71.59375 C85.71875,71.6875 86.15625,71.59375 86.21875,71.90625 C86.21875,72.28125 86.46875,71.71875 86.46875,71.71875 L86.46875,69.53125 L86.46875,69.5625 Z" id="Path" fill="#FFFFFF"></path>
                <path d="M86.46875,72.25 L86.65625,72.21875 L86.6875,72 L86.21875,72.3125 L85.90625,72.125 L85.90625,72.875 L86.40625,73.53125 L86.59375,73.09375 L86.65625,72.8125 L86.4375,72.71875 L86.46875,72.25 Z M86.71875,74.25 L86.71875,73.9375 L86.5,73.9375 L86.5,74.21875 L86.71875,74.25 Z M86.4375,75.75 L86.4375,75.53125 L86.1875,75.5625 L86.1875,75.78125 L86.4375,75.75 Z M86.8125,74.78125 C86.890165,74.78125 86.953125,74.71829 86.953125,74.640625 C86.953125,74.56296 86.890165,74.5 86.8125,74.5 C86.7731467,74.4987446 86.735502,74.5161042 86.7109057,74.5468496 C86.6863094,74.5775949 86.6776367,74.6181321 86.6875,74.65625 C86.6875,74.71875 86.75,74.78125 86.8125,74.78125 Z" id="Shape" fill="#FFFFFF" fill-rule="nonzero"></path>
                <circle id="Oval" fill="#FFFFFF" cx="87.03125" cy="75.3125" r="1"></circle>
                <circle id="Oval" fill="#FFFFFF" cx="87.03125" cy="71.6875" r="1"></circle>
                <path d="M97.625,67.03125 L97.3125,67 L97.21875,67.15625 L97.0625,67.15625 L97.0625,67.40625 L97.21875,67.40625 L97.25,67.59375 L97.125,67.71875 L97.0625,67.875 L96.8125,67.9375 L96.25,68.46875 L96.25,68.71875 L96.0625,68.9375 L95.875,69.4375 L95.25,69.4375 L95.09375,70.03125 L95.1875,70.5 L95.75,70.71875 L95.8125,70.40625 L96,70.3125 L96.03125,70 L96.15625,69.78125 L96.34375,69.5625 L96.40625,69.3125 L96.71875,69.125 L97.09375,69.03125 L97.25,68.84375 L97.3125,68.46875 L97.3125,68.1875 L97.46875,68 L97.84375,67.84375 L97.84375,67.21875 L97.65625,67.21875 L97.625,67.03125 Z M98.5,69.1875 L98.5,68.71875 L98.4375,68.3125 L97.96875,68.09375 L97.65625,68.40625 L97.5625,68.84375 L97.5625,69.15625 L97.25,69.21875 L97.1875,70.0625 L96.9375,70.15625 L96.96875,70.46875 L96.65625,70.5625 L96.28125,70.65625 L96.21875,71.0625 L95.96875,71.21875 L95.84375,71.625 L95.6875,72.53125 C95.6875,72.53125 96,73.0625 96.125,72.8125 C96.28125,72.5625 96.53125,72.5 96.53125,72.5 L96.625,72.3125 L97.46875,72.3125 C97.53125,72 97.9375,72.125 97.9375,72.28125 C97.9375,72.4375 98.25,72.28125 98.25,72.28125 L98.46875,71.96875 L98.8125,71.96875 L98.84375,71.5625 L99,71.46875 L99,70.9375 C99.5,70.78125 99.4375,70.3125 99.4375,70.3125 L99.5625,70.15625 L99.5,69.9375 C99.25,69.84375 99.375,69.625 99.53125,69.6875 C99.6875,69.75 99.3125,69.375 99.3125,69.375 C99.125,69.5625 99,69.21875 99,69.21875 L98.5,69.21875 L98.5,69.1875 Z M99,73 C99,73.375 98.5,73.5 98.5,73.5 L98.1875,73.40625 L97.96875,73.25 L97.96875,72.8125 L98.21875,72.78125 L98.28125,72.96875 L99,73 Z M100.6875,70.96875 C100.75,71.28125 100.75,70.53125 100.875,70.5625 C101,70.59375 100.90625,70.125 100.90625,70.125 L100.34375,70.53125 C100.625,70.5625 100.65625,70.84375 100.6875,70.96875 Z M102.34375,69.34375 C102.46875,69.625 102.4375,70.03125 102.90625,70.34375 C103.0625,70.4375 102.8125,70.65625 102.65625,70.5625 C102.420642,70.3251258 102.211116,70.0632177 102.03125,69.78125 L102.03125,69.375 C102.15625,69.125 102.28125,69.21875 102.34375,69.34375 Z M102.4375,79.03125 L102.53125,79.1875 L102.75,78.875 L102.5625,78.78125 L102.34375,78.9375 L102.4375,79.03125 Z M101.5625,78.4375 L101.5625,78.8125 L101.5625,78.4375 Z M106.0625,78 L106.3125,77.84375 L106.21875,77.65625 L105.96875,77.8125 L106.0625,78 Z M115.09375,84.5625 L115.375,84.71875 L115.375,85.25 C115.78125,85.625 117,85.3125 117,85.21875 L116.9375,84.03125 L116.78125,83.875 L116.75,83.09375 C116.875,82.6875 116.125,82.09375 116.09375,82.21875 C116.03125,82.34375 115.625,82.21875 115.625,82.375 C115.625,82.5 115.375,83.125 115.5,83.34375 C115.625,83.5625 115.40625,83.5625 115.375,83.78125 C115.34375,84 115.03125,84.40625 115.0625,84.59375 L115.09375,84.5625 Z M114.40625,83.3125 C114.34375,83.5625 114.09375,83.6875 114,83.625 C113.875,83.5 114.15625,83.75 114.21875,83.875 C114.28125,84 114.46875,84 114.53125,83.875 C114.59375,83.75 114.53125,83.46875 114.625,83.34375 C114.6875,83.21875 114.4375,83.1875 114.40625,83.34375 L114.40625,83.3125 Z M112.9375,77.5 L113.15625,77.5 L113.15625,78.125 L112.9375,78.125 L112.9375,77.5 Z M116.1875,71.4375 C116.03125,71.25 116.8125,70.90625 116.9375,71.3125 C117.0625,71.6875 116.9375,71.625 116.8125,71.59375 C116.6875,71.5625 116.375,71.6875 116.1875,71.4375 Z M116.84375,67.1875 L116.84375,67.375 L117.15625,67.4375 L117.1875,67.25 L116.84375,67.1875 Z M115.4375,67.6875 L115.6875,67.84375 L115.78125,67.84375 L115.96875,67.71875 L115.96875,67.78125 L116.15625,67.71875 L116.09375,67.5625 L116.09375,67.46875 L115.96875,67.5 L115.75,67.65625 L115.53125,67.5 L115.4375,67.6875 Z M117.1875,60 L116.71875,60 C116.71875,60 116.875,60.0625 116.40625,59.65625 C116,59.25 115.71875,59.75 115.71875,59.75 L115.21875,59.8125 L115.21875,60.3125 L114.96875,60.40625 L114.96875,60.71875 L115.34375,60.71875 C115.34375,60.71875 115.34375,61.0625 115.4375,60.90625 C115.53125,60.75 116.3125,60.9375 116.25,61.34375 C116.21875,61.5 117.03125,61.90625 116.9375,62.40625 C117.34375,62.46875 117.25,62.875 117.25,62.875 L117.78125,62.9375 L117.9375,62.625 L118.09375,62.65625 L118.09375,62.46875 L117.75,62.375 L117.6875,61.34375 L117.46875,61.1875 L117.53125,60.9375 L117.28125,60.84375 L117.40625,60.4375 L117.1875,60 Z M118.53125,63.21875 L118.28125,63.21875 L117.71875,63.28125 L117.40625,63.90625 C117.40625,63.90625 117.5625,64 117.71875,64.21875 C117.8125,64.4375 117.875,65.71875 117.5,65.9375 C117.125,66.15625 117.53125,66.03125 117.53125,66.03125 L117.46875,66.75 C117.5625,67.0625 117.71875,66.90625 117.8125,66.75 C117.90625,66.59375 118,66.5625 118.125,66.40625 C118.25,66.25 118.4375,65.9375 118.46875,65.71875 C118.5,65.5 118.65625,65.15625 118.5625,65.0625 C118.46875,64.96875 118.65625,64.53125 118.65625,64.53125 C118.65625,64.53125 118.78125,64.28125 118.65625,64.03125 C118.53125,63.78125 118.6875,63.46875 118.78125,63.34375 L118.53125,63.21875 Z M118.90625,64.53125 L118.9375,64.28125 L119.125,64.28125 L119.125,64.53125 L118.90625,64.53125 Z M118.90625,65.40625 L118.75,65.3125 L118.84375,65.125 L119,65.21875 L118.90625,65.40625 Z M118.625,62.90625 L118.5,62.59375 C118.5,62.59375 118.5,62.34375 118.5625,62.21875 C118.625,62.09375 118.4375,61.96875 118.34375,61.90625 C118.25,61.90625 118.28125,61.65625 118.25,61.53125 C118.25,61.40625 118,61.3125 118,61.3125 L117.9375,60.71875 C117.9375,60.625 117.65625,60.5 117.75,60.40625 L118,60.125 C118.09375,60.0625 117.90625,59.625 118.0625,59.71875 C118.21875,59.8125 118.21875,59.96875 118.28125,60.09375 C118.34375,60.21875 118.28125,60.65625 118.40625,60.75 C118.5625,60.84375 118.40625,61.1875 118.625,61.1875 C118.875,61.1875 118.71875,61.78125 118.71875,61.78125 C118.71875,61.78125 118.65625,62.21875 118.8125,62.25 C118.96875,62.28125 118.875,63.03125 118.875,63.03125 L118.625,62.875 L118.625,62.90625 Z M116.625,57.75 C116.71875,57.875 116.90625,57.96875 116.90625,58.09375 C116.90625,58.21875 116.84375,58.3125 117.03125,58.34375 C117.21875,58.375 117.34375,58.34375 117.40625,58.46875 C117.46875,58.625 117.46875,58.90625 117.40625,59.03125 C117.40625,59.15625 117.46875,59.34375 117.625,59.34375 C117.78125,59.34375 117.8125,59.34375 117.8125,59.46875 C117.8125,59.5625 118,59.125 118,59.125 C117.84375,59 117.6875,58.71875 117.6875,58.71875 L117.5625,58.1875 C117.5625,58.125 117.34375,58.0625 117.25,58.03125 C117.15625,58.03125 117,57.71875 117,57.71875 L116.625,57.75 Z M116.9375,57.46875 C116.84375,57.34375 116.75,57.25 116.625,57.1875 C116.5,57.125 116.40625,57.0625 116.28125,57.0625 C116.208055,57.0591394 116.141404,57.0193561 116.103706,56.9565261 C116.066008,56.8936962 116.062271,56.8161649 116.09375,56.75 C116.15625,56.625 116,56.5625 116,56.4375 C116,56.3125 116.09375,56.3125 116.25,56.40625 C116.40625,56.5 116.375,56.53125 116.5,56.6875 C116.625,56.84375 116.6875,57 116.8125,56.96875 C116.9375,56.9375 117.03125,57.25 117.125,57.15625 C117.28125,57.0625 117.25,57.375 117.25,57.375 L116.9375,57.46875 Z M113.28125,61.03125 C113.4375,61.21875 112.34375,61.15625 112.34375,61.03125 C112.34375,60.90625 112.4375,60.46875 112.71875,60.5625 C113,60.65625 113.03125,60 113.03125,60 C113.03125,60 112.78125,60.03125 113,59.90625 C113.21875,59.78125 113,59.59375 112.90625,59.5 L112.71875,59.25 L113.15625,59.25 C113.34375,59.125 113.40625,58.53125 113.40625,58.53125 C113.78125,58.65625 113.96875,58.375 113.96875,58.375 L114.15625,58.75 C114.28125,58.90625 113.84375,58.96875 114,59.0625 C114.15625,59.15625 114.21875,59.4375 114.15625,59.53125 C114.09375,59.625 113.75,59.53125 113.75,59.4375 C113.75,59.34375 113.625,59.59375 113.75,59.75 C113.875,59.90625 113.59375,60.125 113.53125,60.125 C113.46875,60.125 113.0625,60.1875 113.40625,60.375 C113.71875,60.5625 114.125,60.46875 114.125,60.46875 C114.125,60.46875 114.40625,60.46875 114.5,60.59375 C114.59375,60.75 114.46875,60.78125 114.3125,60.78125 L113.375,60.71875 C113.375,60.71875 113.1875,60.9375 113.28125,61.03125 Z M111.28125,61.34375 C111.4375,61.3125 111.8125,61.28125 111.90625,61.34375 C111.9375,61.46875 111.65625,61.59375 111.65625,61.59375 L111.28125,61.65625 C111.15625,61.5 111.125,61.34375 111.28125,61.34375 Z M115.3125,58.6875 C115.5625,58.5625 116.09375,58.5625 116.0625,58.375 C116.03125,58.15625 116.375,58.09375 116.375,58.09375 L116.46875,58.46875 L116.75,58.6875 L116.75,59 L116.53125,59.0625 C116.1875,59.15625 116.40625,59.3125 116.40625,59.3125 L115.625,59.3125 L115.53125,59 L115.28125,58.6875 L115.3125,58.6875 Z M114.0625,56.96875 C114.28125,56.96875 114.03125,57.6875 114.53125,57.625 C115.03125,57.5625 114.53125,57.84375 114.9375,57.875 C115.3125,57.90625 115.21875,57.59375 115.34375,57.375 C115.46875,57.15625 115.40625,57.03125 115.1875,56.96875 C114.96875,56.90625 114.96875,56.90625 114.875,56.65625 C114.84375,56.40625 114.5625,56.34375 114.5625,56.34375 L114.5,55.96875 L114.09375,56.21875 L113.6875,56.75 C113.6875,57.15625 113.90625,56.96875 114.09375,56.96875 L114.0625,56.96875 Z M114.90625,59.625 L115,59.4375 L115.1875,59.53125 L115.09375,59.71875 L114.90625,59.625 Z M114.59375,59.3125 L114.78125,59.3125 L114.78125,59.5625 L114.59375,59.5625 L114.59375,59.3125 Z M114.75,55.125 L114.75,55.40625 L114.59375,55.40625 L114.5625,55.15625 L114.75,55.125 Z M114.21875,58.0625 L114.40625,58.0625 L114.40625,58.21875 L114.21875,58.21875 L114.21875,58.0625 Z M113.71875,58.0625 L113.71875,57.875 L114.03125,57.875 L114.03125,58.03125 L113.71875,58.0625 Z M111.15625,61.125 L110.96875,61.03125 L111.0625,60.8125 L111.25,60.90625 L111.15625,61.125 Z M110.15625,60.53125 L110.15625,60.34375 L110.46875,60.34375 L110.46875,60.5 L110.15625,60.53125 Z M104.75,60.46875 L104.0625,60.5 L104.0625,60.6875 L104.78125,60.6875 L104.75,60.46875 Z M103.625,60.75 L103.5625,60.46875 L103.75,60.4375 L103.8125,60.71875 L103.625,60.75 Z M103.5,60.9375 L103.4375,60.78125 L103.53125,60.75 L103.59375,60.90625 L103.5,60.9375 Z M105.0625,60.40625 L105.03125,60.625 L105.34375,60.65625 C105.34375,60.65625 105.5,60.78125 105.5,60.875 C105.5,60.96875 105.71875,61.0625 105.84375,61.0625 C105.96875,61.0625 106.3125,60.8125 106.3125,60.8125 C106.3125,60.8125 106.46875,60.375 106.34375,60.40625 C106.21875,60.4375 105.96875,60.625 105.9375,60.4375 C105.9375,60.25 105.53125,60.34375 105.53125,60.34375 L105.03125,60.40625 L105.0625,60.40625 Z M106.625,60.09375 C106.625,60.15625 106.53125,60.28125 106.71875,60.3125 C106.90625,60.34375 107.25,60.1875 107.28125,60.375 C107.3125,60.5625 107.3125,60.6875 107.59375,60.78125 C107.771879,60.8574286 107.962622,60.8998159 108.15625,60.90625 L108.78125,60.84375 C108.78125,60.84375 109.1875,60.9375 109.28125,61 C109.625,61.375 109.84375,61.46875 109.9375,61.3125 C110.03125,61.15625 109.9375,60.78125 109.875,60.6875 C109.875,60.53125 109.40625,59.9375 109.25,60.0625 C109.09375,60.1875 109.0625,60.0625 108.78125,60.15625 C108.5,60.25 107.90625,60.1875 107.875,60.0625 C107.875,59.9375 107.40625,59.875 107.40625,59.75 C107.40625,59.625 107.09375,59.4375 107.125,59.65625 C107.15625,59.84375 106.90625,59.9375 106.84375,59.875 C106.78125,59.8125 106.59375,60.0625 106.59375,60.0625 L106.625,60.09375 Z M113.78125,56.03125 L114,55.3125 C113.6875,55.25 113.75,54.90625 113.75,54.90625 C113.71875,54.59375 113.28125,54.28125 113.125,54.40625 C112.96875,54.5 113.03125,53.75 113.03125,53.75 C113.03125,53.75 113.3125,53.5625 113.4375,53.65625 C113.5625,53.75 112.375,52.0625 112.125,52.21875 C111.875,52.375 111.3125,52.0625 111.34375,51.78125 C111.375,51.46875 110.21875,50.53125 110.21875,50.53125 C110.21875,50.53125 109.84375,50.28125 109.78125,50.46875 C109.71875,50.65625 109.59375,50.78125 109.78125,50.90625 C109.96875,51 109.9375,50.75 110.15625,50.96875 C110.375,51.1875 110.78125,51.46875 110.625,51.65625 C110.46875,51.84375 110.3125,51.90625 110.3125,51.90625 L110.5,52.15625 L110.84375,52.15625 L110.90625,52.6875 C110.90625,52.6875 111.28125,52.875 111.375,53.09375 C111.46875,53.3125 111.46875,53.4375 111.375,53.59375 C111.28125,53.71875 111.09375,53.90625 111.125,54.15625 C111.15625,54.375 111.4375,54.46875 111.4375,54.46875 L111.65625,54.46875 L111.84375,54.59375 L111.84375,55 C112.09375,54.9375 112.5,55.3125 112.46875,55.5 C112.46875,55.71875 112.53125,55.59375 112.84375,55.8125 C113.15625,56.03125 113.0625,56.0625 113.28125,56.25 C113.5,56.40625 113.6875,56.3125 113.78125,56 L113.78125,56.03125 Z" id="Shape" fill="#FFFFFF" fill-rule="nonzero"></path>
                <path d="M108.59375,51.75 C108.59375,51.625 108.5,51.1875 108.6875,51.21875 C108.875,51.21875 108.75,51.21875 109,51.3125 C109.25,51.40625 109.21875,51.15625 109.21875,51.15625 L109.5625,51.15625 L110,51.46875 L109.9375,51.78125 L109.625,51.78125 C109.46875,51.5625 109.15625,51.65625 109.21875,51.875 C109.28125,52.09375 109.0625,52.5 108.9375,52.53125 C108.8125,52.5625 108.40625,52.5625 108.4375,52.375 L108.59375,51.75 Z M108.34375,50.90625 L108.34375,50.625 C108.34375,50.625 108.34375,50.375 108.15625,50.375 C107.96875,50.375 107.71875,50.1875 107.78125,50.0625 C107.84375,49.9375 107.25,49.8125 107.25,49.8125 C107.25,49.8125 106.71875,49.3125 106.9375,49.375 C107.09375,49.4375 107,49.15625 107,49.15625 C107,49.15625 106.625,49.21875 106.53125,49.15625 C106.4375,49.15625 106.46875,48.84375 106.46875,48.84375 C106.46875,48.84375 106.09375,48.78125 106.09375,48.84375 C106.09375,48.90625 106.21875,48.96875 106.28125,49.15625 C106.34375,49.34375 106.3125,49.65625 106.59375,49.71875 C106.90625,49.78125 106.9375,49.84375 106.96875,49.96875 C107,50.09375 107.34375,50.125 107.34375,50.125 L107.59375,50.25 L108.34375,50.875 L108.34375,50.90625 Z M105,47.65625 L104.90625,47.40625 L104.65625,47.34375 L104.65625,47.65625 L105,47.65625 Z M104.90625,46.34375 C104.59375,46.09375 105.34375,46.53125 105.34375,46.53125 C105.59375,46.53125 105.75,46.71875 105.75,46.8125 C105.75,46.90625 106.0625,46.875 106.0625,46.875 L106.09375,46.65625 L105.84375,46.34375 L105.625,46.1875 C105.625,46.1875 105.3125,46.15625 105.3125,46.0625 C105.3125,45.96875 105,46.4375 104.875,46.34375 L104.90625,46.34375 Z M110.625,46.53125 C110.53125,46.8125 110.5,47.1875 110.34375,47.1875 C110.1875,47.1875 110.25,47.59375 110.25,47.59375 L110.78125,47.625 C110.90625,47.65625 110.90625,47.96875 110.90625,47.96875 C111.375,47.96875 111.5625,48.59375 111.53125,48.75 C111.4375,48.90625 111.6875,48.90625 111.6875,48.90625 C111.6875,48.90625 111.6875,49.40625 111.625,49.53125 C111.5625,49.65625 112.03125,49.75 112.15625,49.9375 C112.28125,50.125 112.09375,50.75 112,50.78125 C111.90625,50.84375 112.25,50.9375 112.21875,51.09375 C112.1875,51.25 112.3125,51.09375 112.34375,51.34375 L112.4375,52.125 L112.875,52.15625 C112.9375,51.75 113.75,51.71875 113.875,51.78125 C114.40625,51.96875 114.8125,52.78125 114.8125,52.96875 C114.8125,53.15625 114.46875,53.1875 114.46875,53.1875 L114.53125,54.125 C115.0625,54.28125 115.46875,55.0625 115.4375,55.15625 C115.375,55.28125 115.8125,55.25 115.8125,55.25 C115.875,54.6875 116.40625,54.875 116.4375,55.0625 C116.4375,55.25 116.5625,55.6875 116.5625,55.6875 L116.71875,55.9375 L116.9375,56.15625 L117.25,56.15625 L117.375,56.34375 L117.75,56.40625 C117.75,56.40625 118.09375,56.78125 118.125,56.875 C118.15625,56.96875 118.625,56.9375 118.75,56.96875 C118.875,56.96875 119.0625,57.09375 119.09375,57.25 C119.125,57.40625 119.3125,57.65625 119.3125,57.65625 C119.3125,57.65625 119.6875,57.75 119.71875,57.875 L119.90625,58.28125 L120.21875,58.53125 L120.25,58.84375 L120.59375,58.84375 L120.6875,59.25 L121.25,59.21875 L121.5625,59 C121.851887,58.8570074 122.099459,58.6417279 122.28125,58.375 C122.3125,58.21875 122.375,57.75 122.6875,57.84375 C123,57.9375 122.78125,57.15625 122.78125,57.15625 C122.78125,57.15625 122.34375,56.84375 122.375,56.6875 C122.40625,56.53125 121.9375,56.21875 121.96875,56.0625 C122,55.96875 121.5625,55.6875 121.59375,55.5625 C121.625,55.4375 121.375,55.09375 121.375,55.09375 L120.9375,54.6875 L120.875,54.375 L120.5,54.375 L119.75,53.4375 L119.78125,53.1875 L119.5625,53.1875 L119.5625,52.8125 L119.34375,52.6875 L119.03125,52.6875 L118.3125,51.90625 L118.25,51.5625 L117.9375,51.5625 L118,50.90625 C118.21875,50.59375 118.09375,50.0625 118.09375,50.0625 C118.09375,50.0625 117.65625,50.28125 117.4375,50.1875 C117.21875,50.09375 117.53125,49.875 117.53125,49.875 L117.53125,49.625 L117.34375,49.4375 C117.34375,49.4375 116.8125,49.5 116.78125,49.40625 L116.65625,48.90625 L116.625,48.375 L116.40625,48.28125 L116.375,48.0625 L116.03125,48.09375 L116.03125,47.71875 L115.84375,47.65625 L115.65625,47.5625 L115.625,47.1875 L114.9375,47.15625 L114.71875,46.84375 L114.46875,46.46875 L113.6875,46.40625 L113.5,46.21875 L113.1875,46.15625 L112.96875,46.0625 L112.875,46.21875 L112.25,46.21875 L112.25,46.4375 C111.9375,46.59375 110.6875,46.4375 110.6875,46.5625 L110.625,46.53125 Z M113.90625,45.6875 C113.84375,45.46875 114.53125,45.21875 114.6875,45.40625 C114.84375,45.59375 115.28125,45.625 115.3125,46.59375 C115.34375,46.90625 114.78125,46.25 114.78125,46.25 L114.3125,46.09375 C114.0625,46.03125 113.9375,45.875 113.90625,45.71875 L113.90625,45.6875 Z M104.75,46.09375 L104.59375,46 L104.71875,45.71875 L104.875,45.8125 L104.75,46.09375 Z M103.15625,42.96875 L102.75,42.5625 L102.75,42.25 L102.625,42.09375 L102.5,41.65625 L102.09375,41.53125 L101.6875,41.6875 L101.25,41.96875 L100.78125,42.03125 L100.53125,42.34375 L101.53125,42.40625 L101.71875,42.71875 L102.4375,42.78125 L102.90625,43.25 C103.3125,43.40625 103.40625,43.1875 103.15625,42.96875 Z M103.09375,41.40625 C103.03125,41.15625 102.625,41.78125 103.03125,41.90625 C103.4375,42.03125 103.84375,41.90625 103.84375,41.90625 L103.9375,41.71875 L105.5,41.75 C105.625,41.625 105.6875,41.4375 105.6875,41.4375 C105.6875,41.4375 106.0625,41.3125 106.21875,41.375 C106.375,41.4375 106.21875,40.9375 106.09375,41 C105.9375,41.0625 105.625,41 105.625,41 L105.0625,41 C105.03125,40.8125 104.53125,40.90625 104.5,41 C104.46875,41.15625 104.28125,41.1875 104.28125,41.1875 L103.5625,41.25 C103.5,41.4375 103.125,41.5625 103.09375,41.4375 L103.09375,41.40625 Z M100,46.78125 C100.46875,46.9375 100.65625,46.78125 100.6875,46.6875 C100.71875,46.5625 100.75,46.53125 100.9375,46.5 C101.125,46.46875 100.90625,46.09375 100.71875,46.125 C100.53125,46.125 100.34375,46.0625 100.3125,45.90625 C100.28125,45.71875 99.96875,45.3125 99.9375,45.625 C99.90625,45.9375 99.71875,45.9375 99.75,46.1875 C99.78125,46.40625 99.875,46.71875 100,46.78125 Z M96.40625,47.125 C96.40625,47 97.03125,47 97.125,47.09375 C97.21875,47.1875 97.15625,47.34375 97.4375,47.34375 C97.71875,47.34375 97.59375,47.53125 97.5625,47.65625 C97.5625,47.71875 97.25,47.6875 97.1875,47.59375 C97.1875,47.5 96.6875,47.46875 96.6875,47.46875 C96.6875,47.46875 96.4375,47.28125 96.40625,47.125 Z M107.03125,40.34375 L106.78125,40.53125 L106.625,40.375 L106.46875,40.53125 L106.6875,40.75 L106.75,40.8125 L106.8125,40.75 L107.125,40.5 L107.03125,40.34375 Z M105.3125,39.78125 L105.09375,39.65625 L105,39.8125 L105.25,39.96875 L105.34375,39.96875 L105.6875,39.75 L105.59375,39.59375 L105.3125,39.78125 Z M104.28125,46.28125 L104.25,46.28125 L103.9375,46.25 L103.9375,46.4375 L104.1875,46.4375 L104.375,46.75 L104.53125,46.65625 L104.3125,46.34375 L104.28125,46.28125 Z M93.96875,55.09375 L94,55.4375 L94.46875,55.4375 C94.65625,55.4375 94.3125,55.21875 94.3125,55.21875 C94.3125,55.21875 93.9375,55.25 94,55.09375 L93.96875,55.09375 Z M94.59375,55.09375 L94.6875,54.96875 L94.875,55.125 L94.75,55.25 L94.59375,55.09375 Z M88.90625,49.1875 L89.03125,49.0625 L89.21875,49.25 L89.09375,49.375 L88.90625,49.1875 Z M97.96875,89.90625 L97.65625,89.75 L97.5625,89.90625 L97.75,90 L97.6875,90.0625 L97.8125,90.21875 L97.96875,90.0625 L98.0625,89.96875 L97.96875,89.90625 Z M95.53125,87.625 L95.40625,87.46875 L95.21875,87.625 L95.125,87.71875 L95.25,87.78125 L95.46875,87.9375 L95.5625,87.78125 L95.4375,87.6875 L95.53125,87.625 Z M118.71875,81.625 C118.6875,81.46875 118.5,81.40625 118.46875,81.375 L118.40625,81.5625 L118.46875,81.59375 L118.5,81.75 L118.46875,81.8125 L118.59375,81.9375 C118.71875,81.84375 118.75,81.71875 118.71875,81.625 Z M119.03125,81 L118.71875,81 L118.71875,80.71875 L119.03125,80.78125 L119.03125,81 Z M126.21875,78.5625 C126.375,78.46875 126.53125,78.3125 126.53125,78.6875 C126.5,79.03125 126.34375,78.90625 126.21875,79.03125 C126.125,79.15625 126.03125,78.6875 126.21875,78.5625 Z M127.8125,77.21875 C127.811848,77.2083435 127.811848,77.1979065 127.8125,77.1875 C127.808753,77.1107494 127.787366,77.0358953 127.75,76.96875 L127.59375,77.0625 L127.625,77.1875 C127.625,77.25 127.625,77.3125 127.6875,77.34375 C127.71875,77.375 127.75,77.375 127.8125,77.34375 L127.78125,77.1875 L127.8125,77.21875 Z M127.40625,77.375 L127.53125,77.75 L127.6875,77.6875 C127.64977,77.5642097 127.618478,77.4390407 127.59375,77.3125 L127.40625,77.375 Z M126.71875,78.125 L126.53125,78.125 C126.53125,78.25 126.53125,78.4375 126.6875,78.4375 L126.75,78.28125 L126.71875,78.125 Z M125.90625,74.375 C125.89818,74.3031784 125.849548,74.2423892 125.78125,74.21875 C125.65625,74.15625 125.4375,74.25 125.3125,74.34375 L125.40625,74.5 C125.53125,74.40625 125.6875,74.375 125.71875,74.375 L125.90625,74.34375 L125.90625,74.375 Z M117.25,64.25 C117.125,64.375 116.84375,64.4375 116.84375,64.4375 L116.75,64.75 L116.625,64.90625 L116.625,65.21875 C116.625,65.4375 116.3125,65.5625 116.3125,65.5625 L116.1875,65.71875 L115.34375,65.71875 C115.03125,65.59375 115.25,65.21875 115.4375,65.25 C115.625,65.28125 115.40625,64.71875 115.40625,64.71875 L115.65625,64.6875 C115.65625,64.6875 115.65625,64.125 115.78125,64.125 C115.875,64.125 115.75,63.9375 115.625,63.8125 C115.5,63.71875 115.3125,63.40625 115.21875,63.4375 L114.59375,63.4375 L114.5,63.625 L114.15625,63.6875 L114.125,64 C113.9375,64.25 113.1875,64.71875 113.5,63.9375 L113.625,63.71875 L113.625,63.4375 L113.0625,63.4375 C113.0625,63.4375 112.75,63.3125 112.75,63.1875 L112.75,62.90625 L112.09375,62.1875 L111.3125,62.09375 L111.25,61.9375 L110.78125,61.875 C110.21875,61.5625 109.71875,61.84375 109.84375,62.3125 C109.90625,62.78125 110.0625,62.96875 109.75,62.96875 C109.4375,62.96875 109.375,62.71875 109.375,62.71875 C109.375,62.71875 109.125,62.625 109.125,62.75 C109.125,62.875 109.03125,63.125 109.125,63.25 C109.21875,63.375 109,63.5625 108.90625,63.46875 C108.8125,63.375 108.59375,63.09375 108.625,63 C108.6875,62.90625 108.1875,62.3125 108.6875,62.21875 C109.1875,62.125 108.6875,61.84375 108.84375,61.78125 L109.09375,61.65625 L109.34375,61.65625 L109.5,61.53125 L109.09375,61.46875 L108.84375,61.4375 L108.375,61.40625 C108.113293,61.5630732 107.914395,61.8061709 107.8125,62.09375 C107.5625,62.5625 106.96875,61.90625 107.1875,61.65625 C107.40625,61.40625 106.5,61.625 106.34375,61.75 C106.1875,61.875 105.71875,61.8125 105.71875,61.8125 C105.625,62.09375 105.1875,61.78125 105.3125,61.59375 C105.4375,61.40625 105.4375,61.28125 105.4375,61.28125 L105.28125,61.21875 L105.09375,61.59375 C104.6875,61.59375 104.5625,61.84375 104.625,62 C104.71875,62.15625 104.5,61.96875 104.4375,62.1875 C104.40625,62.40625 104.5,62.40625 104.65625,62.5 C104.84375,62.59375 104.5625,62.59375 104.6875,62.75 C104.8125,62.90625 105.1875,62.75 105,62.96875 C104.75,63.1875 104.34375,63.09375 104.34375,63.09375 C104.3125,63.40625 103.71875,63.3125 103.65625,63.21875 L103.125,62.5625 L102.5,62.53125 C102.46875,62.09375 102.8125,62.3125 102.9375,61.96875 C103.0625,61.625 103.125,61.03125 103.125,61.03125 C103.125,61.03125 102.625,61.03125 102.59375,61.15625 C102.5625,61.3125 102.25,61.4375 102.25,61.4375 C102.25,61.4375 102,61.53125 102.09375,61.65625 C102.1875,61.78125 101.90625,61.84375 101.90625,61.84375 C101.90625,61.84375 101.9375,62.03125 101.875,62.125 C101.625,62.375 101,62.125 100.90625,62.0625 L100.53125,61.90625 L100.15625,61.65625 L99.71875,61.84375 L99.59375,61.96875 L99.125,61.96875 L99.09375,62.34375 L99.9375,62.4375 L100,63.21875 L99.65625,63.09375 L99.4375,63.09375 L99.34375,62.90625 L99.15625,62.90625 L99.15625,63.5625 L99.34375,63.71875 L99.5,63.875 L99.8125,63.90625 L99.875,64.3125 L100.65625,64.3125 L100.75,64.5 L101.21875,64.5 L102.125,65.4375 L102.0625,65.75 L101.90625,65.8125 C101.96875,66.03125 101.5,65.90625 101.5,65.90625 L101.5,66.09375 L101.71875,66.125 L101.9375,66.25 L102.25,65.71875 C102.5625,65.5 102.75,65.8125 102.78125,66.03125 C102.78125,66.1875 102.625,66.15625 102.625,66.15625 L102.625,66.625 L102.8125,66.6875 C103.125,67.0625 102.6875,67.28125 102.6875,67.28125 L102.59375,67.59375 C102.5,67.875 102.15625,67.8125 102.15625,67.8125 L102.03125,68 L101.65625,68.09375 L102.40625,68.1875 C102.46875,67.9375 102.65625,67.875 102.71875,68 C102.84375,68.125 102.84375,68.34375 102.84375,68.34375 L103.03125,68.375 L103,68.71875 L103.1875,68.78125 L103.1875,69.8125 L103.40625,70.0625 C103.78125,69.90625 103.78125,70.15625 103.59375,70.28125 C103.40625,70.40625 103.53125,70.96875 103.53125,70.96875 L103.375,71.125 L103.375,71.375 L103.1875,71.5 L103.1875,71.875 C102.875,71.71875 102.5,71.78125 102.40625,71.875 C102.09375,71.6875 101.53125,71.75 101.53125,71.875 C101.71875,72.15625 101.3125,72.1875 101.3125,72.1875 L101.09375,72.46875 C101.25,72.78125 100.9375,72.8125 100.9375,72.8125 L100.9375,73.4375 L100.5625,73.75 L100.5625,74.59375 C100.5625,74.8125 101.0625,74.84375 101.15625,74.71875 C101.25,74.59375 101.625,74.96875 101.625,74.96875 L101.90625,74.96875 L101.96875,74.40625 L101.78125,74.3125 L101.78125,73.375 L102.09375,73.0625 C102.46875,72.90625 102.34375,73.84375 102.34375,73.9375 C102.34375,74.3125 102.53125,74.25 102.65625,74.1875 C102.96875,74.0625 102.75,74.5625 102.5,74.5 C102.25,74.5 102.40625,74.8125 102.40625,74.8125 L102.5625,74.90625 L102.25,75.125 L102.03125,75.40625 L101.71875,75.3125 L101.34375,75.28125 L101.21875,75.0625 L101,75.03125 L100.96875,75.46875 L100.8125,75.65625 L100.4375,76.03125 C100.9375,76.03125 100.375,76.375 100.25,76.375 C100.53125,76.46875 100.21875,76.75 99.5,76.53125 L99.5,76.75 L99.25,76.78125 L99.46875,77.0625 L99.71875,77.0625 L99.625,77.625 C99.625,78.03125 98.59375,77.75 98.5,77.625 L98.5,78.25 L98.28125,78.25 L98.3125,78.625 L98.3125,79.15625 L98.625,79.09375 L98.625,79.3125 L99.46875,79.34375 L100.6875,78.0625 L101.40625,77.90625 C101.46875,77.59375 101.78125,77.96875 101.78125,77.96875 C102.09375,77.9375 102.15625,78.15625 102.15625,78.15625 L102.5625,78.21875 C102.875,78.3125 102.6875,78.34375 102.71875,78.46875 C102.71875,78.65625 102.90625,78.59375 102.90625,78.59375 L102.96875,78.1875 L103.15625,78.21875 L102.96875,78 L102.625,77.84375 L102.25,77.6875 C102,77.34375 102.3125,77.375 102.5625,77.4375 L102.96875,77.4375 C102.96875,77.4375 103.4375,78.0625 103.4375,78.21875 C103.4375,78.375 103.65625,78.40625 103.65625,78.40625 L103.9375,78.40625 L104.03125,78.59375 L104.3125,78.59375 L104.40625,78.78125 L104.96875,78.78125 L104.96875,78.5 L104.46875,78.40625 L104.4375,78.09375 L104.0625,78 C103.9375,77.46875 104.15625,77.3125 104.3125,77.5625 L104.5,77.5625 L104.4375,77.125 L104.65625,77.0625 L104.59375,76.375 L104.40625,76.3125 L104.40625,76.09375 L105.1875,76.125 C105.125,75.71875 105.1875,75.53125 105.1875,75.53125 L105.4375,75.53125 L105.4375,75.6875 L106.40625,75.78125 L107.09375,75 C107.0625,74.9375 107.15625,74.90625 107.09375,74.84375 C106.96875,74.75 106.84375,74.84375 106.6875,74.75 C106.53125,74.65625 106.6875,74.125 106.6875,73.96875 C106.625,73.84375 107.1875,73.65625 107.09375,73.96875 C107,74.21875 107.09375,74.375 107.09375,74.375 C107.5,73.96875 107.84375,74.375 107.8125,74.5 C107.8125,74.59375 108.03125,74.6875 108.1875,74.59375 C108.34375,74.5 108.53125,74.875 108.5,75.0625 C108.40625,75.25 107.875,75.21875 107.8125,75.03125 C107.8125,74.84375 107.6875,74.90625 107.625,75 C107.5625,75.09375 107.3125,75.15625 107.125,75.0625 C107.109999,75.0442929 107.099315,75.0229253 107.09375,75 L106.40625,75.78125 L106.4375,75.78125 C106.8125,76 106.625,76.28125 106.5,76.34375 C106.375,76.40625 106.1875,76.40625 106.1875,76.40625 L106.09375,76.53125 L105.28125,76.59375 L105.21875,76.90625 C104.84375,76.875 104.6875,77.3125 104.78125,77.53125 C104.875,77.75 104.78125,77.9375 104.78125,77.9375 L105.09375,78.09375 L105.5625,77.96875 C105.625,77.65625 105.875,77.59375 106.125,77.40625 C106.375,77.21875 106.78125,77.71875 106.65625,78 C106.53125,78.25 106.53125,78.34375 106.53125,78.34375 L106.5625,78.65625 L106.25,78.75 L106,78.875 L106,79.03125 L105.125,79.03125 L105,79.1875 L104.59375,79.21875 L104.46875,79.4375 L104.15625,79.4375 C104.15625,79.4375 103.71875,79.6875 103.90625,79.9375 C104.09375,80.1875 103.125,80.15625 102.90625,79.8125 C102.84375,80.125 102.5,79.8125 102.5,79.8125 L102.15625,79.75 L102.125,79.28125 C102.0625,78.96875 101.46875,78.96875 101.5,79.1875 C101.5,79.40625 100.375,79.28125 100.375,79.28125 L100,79.4375 L99.65625,79.65625 L99.625,79.8125 L99.0625,79.875 L98.8125,80 L98.71875,79.8125 L98.46875,79.8125 L98.21875,80.125 C97.59375,80.1875 96.96875,80.5625 97,80.75 C97.0625,80.875 96.75,81.0625 96.75,81.0625 L96.46875,81.125 L96.28125,81.4375 L95.90625,81.53125 L95.84375,82.21875 L95.65625,82.34375 L95.65625,82.625 L95.4375,82.6875 L95.4375,82.84375 L95.125,82.84375 L95.3125,83.34375 L95.5625,83.46875 C96,83.53125 95.8125,84.09375 95.8125,84.09375 L96.0625,84.09375 L96.1875,84.4375 L96.4375,84.96875 C96.53125,85.34375 96.8125,85.25 96.9375,85.21875 C97.0625,85.1875 97.1875,85.59375 97.1875,85.59375 L98.4375,85.625 C98.4375,85.625 98.375,85.75 98.59375,85.8125 C98.8125,85.875 100.25,85.9375 100.3125,85.84375 C100.25,85.5625 101.09375,85.5 101.4375,85.75 C101.75,86 102.25,85.84375 102.25,85.84375 L102.71875,86.40625 L103.03125,87.125 L103.5625,87.28125 L103.9375,87.375 L104.0625,87.90625 L104.34375,87.90625 L104.4375,88.28125 C104.75,88.53125 104.34375,89.0625 104.34375,89.0625 L104.34375,89.78125 L104.59375,89.90625 L104.5625,90.15625 L104.96875,90.5625 L105.4375,90.5625 L106.59375,91.84375 L107.53125,92.15625 L107.6875,92.65625 L107.9375,92.625 L108.125,92.46875 L108.875,92.4375 L109.25,92.0625 L109.65625,92 L113.09375,89.0625 L112.78125,88.875 L112.78125,88.1875 C113.375,87.78125 113.40625,87.03125 112.875,86.96875 C112.46875,86.9375 112.65625,86.5 113.03125,86.4375 L113.25,86.34375 L113.25,86.0625 L113.96875,85.40625 L113.96875,84.90625 L112.40625,83.59375 C111.71875,83.34375 112.40625,81.8125 112.875,81.84375 C113.34375,81.875 112.84375,79.53125 112.84375,79.53125 L112.59375,79.40625 L112.65625,78.625 L112.3125,78.625 L111.75,79.375 L111.59375,79.875 C111.53125,80.53125 109.59375,80.40625 109.5,80.3125 C109.40625,80.21875 108.75,79.9375 108.75,79.9375 C108.75,79.9375 108.25,79.53125 108.15625,79.625 C108.0625,79.78125 107.625,79.5 107.625,79.59375 C107.625,79.6875 107.21875,79.34375 107.21875,79.34375 L106.59375,79.125 L107.0625,79.03125 L106.96875,78.65625 L107.78125,79.0625 C107.875,79.1875 108.28125,79.15625 108.28125,79.15625 L108.40625,79.3125 C108.40625,79.3125 108.65625,79.3125 108.8125,79.46875 C108.96875,79.6875 109.78125,79.53125 109.78125,79.53125 L110,79.71875 L110.34375,79.84375 L111.3125,79.84375 L111.34375,79.25 L111.53125,79.0625 L111.53125,78.6875 L111.71875,78.5 L111.71875,78.1875 L111.90625,78.125 L111.9375,77.4375 L112.09375,77.40625 L112.09375,75.875 L111.625,75.4375 C111.59375,75.59375 111.09375,75.59375 111.09375,75.59375 C111.09375,75.59375 110.96875,75.8125 110.875,75.8125 C110.78125,75.8125 111,76.125 110.9375,76.28125 C110.875,76.46875 110.625,76.46875 110.625,76.46875 L110.15625,76.59375 L110.03125,76.75 L109.53125,76.75 L109.46875,76.34375 L110.03125,76.1875 L110.34375,76.03125 L110.5,75.71875 C110.53125,75.40625 110.90625,75.4375 110.90625,75.4375 C110.90625,75.4375 111.625,74.8125 111.65625,74.5625 C111.6875,74.25 111.9375,73.46875 112.375,73.46875 L113.1875,73.46875 C113.5,73.34375 113.40625,72.9375 113.40625,72.9375 L113.8125,72.875 L113.875,73.09375 C113.875,73.09375 114.4375,73.15625 114.5,73.09375 C114.5625,72.96875 114.6875,72.78125 114.8125,72.84375 C115,72.9375 115.5,72.625 115.5,72.625 C115.5,72.40625 116.3125,72.5 116.3125,72.5 L116.40625,72.1875 C116.40625,72.1875 115.875,71.46875 115.78125,71.46875 C115.6875,71.46875 115.15625,71.03125 115.125,71.1875 C114.625,71.0625 114.65625,70.375 114.65625,70.375 L114.46875,69.9375 C114.46875,69.6875 114,69.15625 113.90625,69.21875 C113.760924,69.1350949 113.671354,68.9801833 113.671354,68.8125 C113.671354,68.6448167 113.760924,68.4899051 113.90625,68.40625 C114.03125,68.40625 114.34375,67.9375 114.34375,67.9375 L114.5,67.5 L115.03125,67.34375 L115.09375,66.9375 L114.78125,66.90625 C114.78125,66.90625 115.09375,66.3125 115.28125,66.3125 C115.46875,66.3125 116.46875,66.3125 116.53125,66.25 C116.65625,66.1875 116.84375,65.6875 116.84375,65.625 C116.84375,65.5 117.09375,65.46875 117.15625,65.4375 C117.28125,65.4375 117.46875,65.15625 117.5625,65.03125 C117.625,64.90625 117.40625,64.09375 117.25,64.25 Z" id="Shape" fill="#FFFFFF" fill-rule="nonzero"></path>
                <path d="M100,75.625 C100.03125,75.625 100.09375,75.78125 100.1875,75.75 C100.28125,75.75 100.34375,75.9375 100.21875,75.9375 C100.15625,75.9375 100.15625,76.03125 100.15625,76.09375 C100.15625,76.125 100.15625,76.25 100.0625,76.34375 C100,76.40625 99.9375,76.34375 99.84375,76.3125 C99.75,76.25 99.6875,76.25 99.5625,76.25 C99.46875,76.25 99.5625,76.4375 99.5625,76.4375 C99.5625,76.4375 99.0625,76.4375 99.15625,76.34375 C99.25,76.28125 99.34375,76.25 99.28125,76.21875 C99.21875,76.15625 99.28125,76.125 99.28125,76.03125 C99.28125,75.9375 99.5,75.96875 99.4375,75.90625 C99.375,75.84375 99.4375,75.5625 99.5625,75.71875 L99.625,75.5625 C99.5625,75.46875 99.625,75.46875 99.46875,75.40625 C99.3125,75.34375 99.4375,75.09375 99.4375,75.09375 L99.4375,74.875 C99.5,74.65625 99.96875,74.625 100,74.84375 L100,75.1875 L100.15625,75.25 C100.15625,75.25 100.125,75.375 100,75.375 C99.875,75.375 100,75.4375 99.9375,75.53125 L100,75.65625 L100,75.625 Z M98.4375,75.875 C98.53125,75.75 98.6875,75.125 98.875,75.3125 C99.0625,75.5 99.1875,75.3125 99.1875,75.3125 C99.1875,75.3125 99.28125,75.40625 99.21875,75.625 C99.1875,75.78125 99.125,75.96875 99.03125,76 C98.90625,76 98.8125,76.09375 98.65625,76.125 C98.53125,76.125 98.46875,75.875 98.46875,75.875 L98.4375,75.875 Z" id="Shape" fill="#FFFFFF" fill-rule="nonzero"></path>
            </g>
        </g>
    </g>
</svg>