<?xml version="1.0" encoding="UTF-8"?>
<svg width="200px" height="150px" viewBox="0 0 200 150" version="1.1" xmlns="http://www.w3.org/2000/svg" xmlns:xlink="http://www.w3.org/1999/xlink">
    <!-- Generator: Sketch 52.5 (67469) - http://www.bohemiancoding.com/sketch -->
    <title>vi</title>
    <desc>Created with Sketch.</desc>
    <g id="Flags" stroke="none" stroke-width="1" fill="none" fill-rule="evenodd">
        <g id="North-America" transform="translate(-610.000000, -1250.000000)">
            <g id="vi" transform="translate(610.000000, 1250.000000)">
                <polygon id="Path" fill="#FFFFFF" points="0 0 200 0 200 150 0 150"></polygon>
                <path d="M63.84375,98.4375 C63.84375,98.4375 63.6875,97.3125 65.78125,96.53125 C67.84375,95.71875 68.03125,92.71875 67.59375,90.71875 C67.59375,90.71875 66.53125,92.59375 65.1875,93.25 C65.1875,93.25 63.0625,94.375 62.9375,96.5 C62.9375,96.5 62.9375,97.28125 62.78125,97.90625 C62.6875,98.21875 61.71875,95.21875 63.53125,92.96875 C65.40625,90.6875 65.90625,88.8125 64.4375,85.15625 C64.4375,85.15625 64.28125,87.34375 62.84375,88.625 C61.375,89.875 61.1875,90 61.21875,93 C61.21875,93 61.21875,94.0625 60.6875,94.40625 C60.6875,94.40625 59.5625,92.75 59.25,91.65625 C58.9375,90.5625 58.8125,90.09375 60.125,88.84375 C60.125,88.84375 64.25,86.125 61.28125,80.28125 C61.28125,80.28125 61.1875,82.28125 59.71875,83.46875 C58.3125,84.6875 58.40625,85.46875 58.34375,87.53125 C58.28125,89.625 58.15625,89.46875 58,89.78125 C58,89.78125 55.34375,84.90625 57.375,82.34375 C59.40625,79.75 60.5625,79.21875 58.3125,74.40625 C58.3125,74.40625 58.40625,76.90625 56.59375,78.09375 C54.8125,79.34375 55.21875,82.15625 55.21875,82.15625 C55.21875,82.15625 55.34375,83.25 54.96875,84.03125 C54.96875,84.03125 52.4375,79.0625 54.84375,76.40625 C56.90625,74.125 57.03125,72.53125 55.9375,69.34375 C55.9375,69.34375 55.8125,70.8125 54.6875,71.625 C53.53125,72.4375 52.625,73.21875 52.84375,76.3125 C52.84375,76.3125 52.9375,78.5 52.65625,79.125 C52.65625,79.125 51.59375,77.125 51.28125,75.84375 C50.96875,74.53125 50.875,73.78125 51.65625,72.5 C52.4375,71.21875 55.5625,67.5 51.84375,62.1875 C51.84375,62.1875 51.75,63.90625 50.78125,65.46875 C49.84375,67.03125 50.28125,68.875 50.46875,70.28125 C50.6875,71.6875 50,73.0625 50,73.0625 C50,73.0625 48.375,70.09375 48.75,66.6875 C49.0625,63.25 47.6875,60.4375 44.53125,58.4375 C44.53125,58.4375 42.25,63.75 45.375,66.46875 C45.375,66.46875 48.03125,69.09375 48.71875,72.28125 C48.71875,72.28125 46.6875,72.09375 44.875,68.53125 C43.03125,64.96875 39.25,65.53125 39,65.5 C39,65.5 39.625,71 45.4375,72.5625 C45.4375,72.5625 49.1875,73.1875 49.875,75.9375 C49.875,75.9375 50.5,77.8125 50.75,78.8125 C50.75,78.8125 49.5625,78.34375 48.46875,76.71875 C47.375,75.15625 47.53125,74.9375 43.84375,74.5625 C43.84375,74.5625 42.375,74.40625 41.59375,73.34375 C41.59375,73.34375 43.15625,79.15625 47.125,79.125 C47.125,79.125 50.75,78.71875 52.75,83.5 L51.84375,82.875 C51.3125,82.53125 49.96875,81.84375 47.3125,82.15625 C44.65625,82.46875 43.90625,82.03125 43.25,81.84375 C43.25,81.84375 45.9375,86.75 49.71875,85.28125 C53.53125,83.8125 55.34375,89.15625 55.40625,89.25 C55.40625,89.25 54.875,88.875 54.21875,88.21875 C53.53125,87.5625 52.15625,86.75 49.53125,87.59375 C49.53125,87.59375 47.625,88.3125 45.6875,87.71875 C45.6875,87.71875 47.5625,91.3125 51.875,90.6875 C54.2248819,90.2239531 56.5492949,91.5944163 57.28125,93.875 C57.28125,93.875 56.71875,93.5625 56.34375,93.25 C55.9375,92.9375 54.46875,92.09375 51.34375,93 C48.21875,93.9375 47.09375,92.875 47.09375,92.875 C47.09375,92.875 48.8125,96 52.15625,96.40625 C52.15625,96.40625 54.03125,96.375 54.78125,96.09375 C55.5625,95.78125 57.65625,95.3125 59.09375,97.40625 C59.09375,97.40625 58.6875,97.46875 58.09375,97.1875 C58.09375,97.1875 55.90625,96.40625 54.1875,97.8125 C54.1875,97.8125 52.6875,99.34375 50.5625,99.0625 C50.5625,99.0625 53.3125,101.71875 57.6875,99.46875 C57.6875,99.46875 59.15625,98.40625 60.25,99.21875 C61.34375,100.0625 63.84375,98.40625 63.84375,98.40625 L63.84375,98.4375 Z" id="Path" stroke="#010002" stroke-width="0.75" fill="#369443"></path>
                <g id="Group" transform="translate(87.812500, 23.437500)" stroke="#010002" stroke-width="0.75">
                    <path d="M0.375,8.96875 C0.375,8.96875 -0.125,4.4375 3.5,3.96875 C5.37791879,3.64042094 7.30728346,3.76904525 9.125,4.34375 L10.84375,7.65625 L10.21875,9.90625 L7.90625,10.96875 C7.90625,10.96875 8.3125,7.53125 5.15625,7.46875 C4.34375,7.46875 3.90625,7.78125 2.625,7.5625 C1.34375,7.34375 0.65625,8.75 0.375,8.96875 Z" id="Path" fill="#F4C53D"></path>
                    <path d="M25.875,20.1875 C25.3125,20.875 23.15625,21.125 23.15625,21.125 C23.15625,21.125 25.375,22.84375 26.34375,25.28125 C27.28125,27.6875 0.59375,25.28125 0.59375,25.28125 C0.59375,25.28125 1.78125,24.46875 2.5625,22.90625 C2.5625,22.90625 1.375,23.34375 0.1875,22.15625 C0.1875,22.15625 1.0625,22.46875 2.21875,20.71875 C2.21875,20.71875 3.9375,18.53125 5.15625,17.90625 C5.15625,17.90625 4.59375,18.28125 3.25,17.53125 C3.25,17.53125 5.5625,17.21875 6.375,13.3125 C6.375,13.3125 6.53125,12.4375 7.40625,11.125 C8.28125,9.875 8.09375,11.40625 9.71875,9.4375 C9.71875,9.4375 10.46875,8.0625 9.8125,7.25 C9.1875,6.375 8.46875,6.6875 7.125,5.875 C5.75,5.0625 5.15625,4.625 5.625,3.375 C6.09375,2.125 7.28125,2.3125 7.46875,2.3125 C7.65625,2.3125 7.71875,1.21875 9.1875,0.46875 C10.65625,-0.28125 14.625,0.0625 15.1875,0.375 C15.8125,0.6875 18.15625,1.40625 19.5625,4.90625 C20.9375,8.40625 19.1875,9.71875 22.9375,15.03125 C22.9375,15.03125 21.4375,15.34375 20.46875,15.03125 C20.46875,15.03125 22.4375,18.53125 25.875,20.1875 Z" id="Path" fill="#F4C53D"></path>
                    <path d="M9.375,5.375 C6.25,5.21875 7.46875,2.3125 7.46875,2.3125" id="Path"></path>
                    <path d="M14.6875,5.78125 C14.6875,5.78125 14.15625,5.53125 13.6875,4.90625 C13.0625,4.0625 11.59375,3.65625 10.84375,4.46875 C10.84375,4.46875 10.0625,5.34375 9.34375,5.40625 C9.34375,5.40625 10.15625,5.625 10.6875,6.125 C11.21875,6.625 11.78125,7 12.59375,6.875 C13.40625,6.78125 13.53125,6.34375 13.90625,6.09375 C14.3125,5.84375 14.6875,5.78125 14.6875,5.78125 Z" id="Path" fill="#F4C53D"></path>
                </g>
                <path d="M63.375,105.15625 C63.375,105.15625 63.3125,103.15625 65.8125,103.03125 L73.15625,113.25 C73.15625,113.25 72.875,113.90625 69.5625,113.84375 C69.5625,113.84375 69.1875,113.84375 69,114.21875 C68.71875,114.84375 63.375,105.15625 63.375,105.15625 Z" id="Path" stroke="#010002" stroke-width="0.75" fill="#369443"></path>
                <g id="a" transform="translate(16.321141, 23.007266)" stroke="#010002" stroke-width="0.75">
                    <path d="M55.1389375,70.2362797 C55.1389375,70.2362797 52.7912984,74.2634922 49.9543719,74.3293578 C49.9543719,74.3293578 45.0756109,73.7365672 43.6971375,75.0115375 C42.7326766,75.9007234 41.7493969,76.6346547 41.3447938,78.9070187 C40.9496,81.1793828 42.1210672,81.6686703 42.3986438,81.7674687 C42.3986438,81.7674687 42.6150594,83.3905859 44.2193578,82.9671641 C44.2193578,82.9671641 44.3134516,84.6608516 47.1456734,83.8469406 C49.9826,83.0330297 51.1587719,83.2917875 51.7092203,80.468975 C52.2690781,77.6414578 52.7818891,77.6885047 53.2852906,77.3497672 C53.9627656,76.8934125 55.2377359,76.4652859 56.1833781,75.9195422 C57.0302219,75.4302547 60.2858656,73.7742047 61.3961719,73.6471781 C62.5064781,73.5154469 62.2618344,69.779925 62.2618344,69.779925 L59.391975,69.779925 L58.0040922,67.7333859 L55.1342328,70.2362797 L55.1389375,70.2362797 Z M64.1719375,50.0343516 C64.1719375,50.0343516 61.3020781,52.3725812 58.8932781,50.0343516 C58.8932781,50.0343516 57.9241125,51.2011141 55.9763719,50.8623766 C54.0380406,50.5189344 53.7134172,49.4980172 53.5299344,48.9146359 C53.5299344,48.9146359 51.8456563,49.8932109 50.4248406,49.1169375 C49.0134344,48.3453687 49.0134344,47.1739016 49.0134344,47.1739016 C49.0134344,47.1739016 46.5434734,47.6631891 45.2779125,45.9883203 C44.0123516,44.3181562 44.7839203,42.6621062 45.4661,42.4645094 C45.4661,42.4645094 42.7985422,43.1655078 42.0693156,40.874325 C41.6713576,39.8256437 41.9809898,38.6399788 42.8408844,37.9197812 C42.8408844,37.9197812 37.2234875,37.8915531 34.9181906,36.132 C34.9181906,36.132 33.0033828,34.9276 34.1466219,33.6620391 C34.1466219,33.6620391 29.0890828,32.8528328 27.8235219,30.8392266 C27.8235219,30.8392266 27.2683688,30.2840734 27.4518516,29.3102031 C27.4518516,29.3102031 27.4847844,28.7597547 28.0399375,28.7268219 C28.0399375,28.7268219 22.2719906,27.8329312 20.6065313,25.9322375 C20.6065313,25.9322375 19.8067344,25.0571656 20.2066328,23.8856984 C20.2066328,23.8856984 20.2913172,23.5798937 20.4277531,23.3681828 C20.4277531,23.3681828 15.1773219,22.2625812 12.5897438,19.9243516 C12.5897438,19.9243516 11.0936531,18.592925 11.8652219,16.8051437 C11.8652219,16.8051437 3.09097969,14.4057531 5.12340469,10.5385 C5.12340469,10.5385 1.02091719,9.20707344 2.31941094,5.50448437 C2.31941094,5.50448437 -1.07266875,3.78256875 0.404603125,1.05385 C1.82071406,-1.55725156 6.17255,1.51020469 11.3194781,2.935725 C11.3194781,2.935725 25.2641719,7.32049375 32.1283109,8.48725625 L51.6339453,37.5292922 L63.0145844,41.9140609 L64.1672328,50.0343516 L64.1719375,50.0343516 Z" id="Shape" fill="#F4C53D" fill-rule="nonzero"></path>
                    <path d="M64.3083734,28.6468422 C64.3083734,28.6468422 62.47825,27.2730734 59.2179016,28.8867812 C59.2179016,28.8867812 58.1217094,29.6442359 57.2560469,28.8162109 C56.8759833,28.4535336 56.6783949,27.9396586 56.7175719,27.4157804 C56.7567489,26.8919022 57.0285699,26.4131309 57.4583484,26.1110156 C59.8906719,24.3091203 60.7892672,18.9034344 57.0913828,16.6592984 C57.0913828,16.6592984 51.7280391,13.4789297 32.0483313,8.47314219 C32.0483313,8.47314219 30.4016906,8.01208281 29.5172094,8.23320312 C28.6453995,8.45560601 27.9660217,9.13859752 27.7482469,10.011575 C27.7482469,10.011575 26.8637656,12.5191734 29.8277188,13.9541031 C29.8277188,13.9541031 31.16385,14.5657125 32.5423234,14.9609062 C32.5423234,14.9609062 31.0274141,14.6315781 30.3781672,16.1276687 C29.7665578,17.5578937 30.6604484,19.0210516 33.4362141,19.9619891 C33.4362141,19.9619891 34.1889641,20.2536797 35.2569281,20.5124375 C35.2569281,20.5124375 32.8810609,21.1946172 34.0243,23.1141297 C34.0243,23.1141297 35.0405125,25.1277359 38.6348938,25.4852922 C38.6348938,25.4852922 35.9532219,25.7769828 37.8445063,28.3269234 C37.8445063,28.3269234 38.6772359,29.7242156 41.2977469,30.2417312 C41.2977469,30.2417312 39.3123688,30.3075969 40.3097625,32.0906734 C41.3165656,33.8784547 43.6736141,34.8852578 45.9977297,35.0499219 C45.9977297,35.0499219 47.2538813,35.1157875 48.1336578,34.9181906 C48.1336578,34.9181906 45.9224547,36.0237922 47.2209484,37.8727344 C47.2209484,37.8727344 48.176,39.1900469 50.5659813,39.1241812 C50.5659813,39.1241812 49.9496672,41.1942437 51.6998109,41.9752219 C53.0641703,42.5868312 54.198,41.6082562 54.198,41.6082562 C54.198,41.6082562 53.7369406,43.8241641 55.7270234,44.6051422 C55.7270234,44.6051422 56.7197125,45.1179531 58.2016891,44.6051422 C58.2016891,44.6051422 59.3308141,47.1409687 63.3580266,45.3578922 C67.3852391,43.584225 64.3083734,28.6515469 64.3083734,28.6515469 L64.3083734,28.6468422 Z M64.5436078,51.6715828 C64.5436078,51.6715828 63.9555219,54.8425422 59.2743578,58.8321172 C59.2743578,58.8321172 55.6611578,62.0171906 55.7505469,65.6868469 C55.8446406,69.4270734 55.1060047,69.8457906 53.6851891,71.1113516 C53.6851891,71.1113516 56.6162094,71.3418813 58.0323203,69.3894359 C58.0323203,69.3894359 57.9711594,72.6356703 57.5383281,72.9320656 C57.5383281,72.9320656 58.4604469,72.9885219 59.7918734,71.5347734 C59.7918734,71.5347734 60.5916703,70.6879297 61.3350109,70.3633062 C61.3350109,70.3633062 60.4693484,72.6074422 61.1468234,74.6869141 C61.1468234,74.6869141 61.3632391,73.8730031 62.5064781,73.5154469 C62.5064781,73.5154469 64.5765406,73.092025 65.3763375,70.1045484 C65.3763375,70.1045484 65.8985578,68.1285797 69.1400875,66.3690266 C69.1400875,66.3690266 72.8097438,64.9858484 72.71565,63.1792484 C72.6215563,61.3679437 64.5483125,51.6715828 64.5483125,51.6715828 L64.5436078,51.6715828 Z" id="Shape" fill="#F4C53D" fill-rule="nonzero"></path>
                    <path d="M81.5557578,92.5506125 C81.5557578,92.5506125 80.7136187,96.2579062 77.7920078,95.9615109 C77.7920078,95.9615109 75.72665,95.7639141 75.8819047,92.3200828 C75.8819047,92.3200828 72.8285625,93.9479047 72.3345703,89.9206922 C72.3345703,89.9206922 69.5588047,90.5652344 69.5917375,86.8014844 C69.5917375,86.8014844 67.0041594,87.2531344 67.3099641,83.9081016 C67.3099641,83.9081016 64.5012656,84.6608516 64.5012656,81.5087109 C64.5012656,81.5087109 57.9335219,80.4172234 71.6241625,67.9309828 L83.8375312,75.2044297 L81.5557578,92.5506125 Z" id="Path" fill="#F4C53D"></path>
                    <path d="M82.9154125,75.9007234 C82.9154125,75.9007234 80.8782828,77.7073234 79.4292391,75.0068328 C79.4292391,75.0068328 77.4532703,74.9127391 77.1474656,73.4166484 C77.1474656,73.4166484 75.5431672,73.2566891 75.2326578,71.7276656 C75.2326578,71.7276656 73.0449781,71.5018406 73.1061391,69.6528984 C73.1061391,69.6528984 69.1259734,69.3423891 73.1061391,64.8352984 C77.0863047,60.3282078 83.8375313,72.3157516 83.8375313,72.3157516 L82.9154125,75.9007234 Z M85.1830719,74.7810078 C87.1590406,74.7810078 89.3937672,87.1072891 88.8150906,94.5359906 C88.6033797,97.2317766 87.1590406,99.4335703 85.1830719,99.4335703 C83.2071031,99.4335703 81.7674688,97.2317766 81.5604625,94.5359906 C80.9770813,87.1072891 83.2118078,74.7810078 85.1830719,74.7810078 Z" id="Shape" fill="#F4C53D" fill-rule="nonzero"></path>
                    <ellipse id="Oval" fill="#F4C53D" cx="85.1830719" cy="74.6869141" rx="2.72871875" ry="4.04603125"></ellipse>
                    <path d="M75.8819047,92.3200828 C75.8819047,92.3200828 76.1924141,85.7946813 81.8474484,76.4370578 M72.3345703,89.9206922 C72.3345703,89.9206922 71.4547938,86.1522375 79.4292391,75.0068328 C79.4292391,75.0068328 78.5024156,72.3486844 81.3393422,70.6408828 M69.5917375,86.8014844 C69.5917375,86.8014844 69.3423891,82.7225203 77.1474656,73.4166484 C77.1474656,73.4166484 76.4558766,71.0172578 79.2833938,69.0977453 M67.3099641,83.9081016 C67.3099641,83.9081016 67.6016547,79.7867953 75.2326578,71.7276656 C75.2326578,71.7276656 74.8562828,69.2624094 77.5850016,67.7333859 M64.5059703,81.5087109 C64.5059703,81.5087109 65.0564188,76.7993187 73.1061391,69.6528984 C73.1061391,69.6528984 72.8285625,67.7992516 75.5102344,65.9173766" id="Shape"></path>
                    <path d="M2.31941094,5.50448437 C2.31941094,5.50448437 8.63780625,9.16473125 28.3316281,12.8249781 M5.12340469,10.5385 C5.12340469,10.5385 22.2343531,16.1182594 30.2040938,16.8051437 M11.8605172,16.8051437 C11.8605172,16.8051437 21.9003203,19.9572844 33.6573344,21.9473672 M20.4277531,23.3728875 C20.4277531,23.3728875 31.76605,26.0969016 37.18585,26.5485516 M28.0399375,28.7268219 C28.0399375,28.7268219 37.6327953,30.7263141 40.0604141,30.9662531 M34.1466219,33.6620391 C34.1466219,33.6620391 41.1471969,34.7252984 43.9323719,34.6688422 M42.8408844,37.9150766 C42.8408844,37.9150766 45.6731063,37.7833453 47.0327609,37.5575203 M45.4613953,42.4645094 C45.4613953,42.4645094 47.8701953,41.8152625 49.2863063,40.9072578 M49.0087297,47.1739016 C49.0087297,47.1739016 50.8623766,46.4587891 51.7562672,44.5110484 M53.5299344,48.9146359 C53.5299344,48.9146359 54.9601594,47.6302562 55.0542531,46.2000312 M58.8932781,50.0343516 C58.8932781,50.0343516 58.3569437,49.5685875 58.7239094,47.5549812 M58.2016891,44.6004375 C58.2016891,44.6004375 57.9194078,44.0264656 58.0135016,43.1137562 M48.0866109,15.7654078 C48.0866109,15.7654078 51.3234359,17.0639016 52.4008094,18.8516828 C53.4828875,20.6394641 52.7724797,22.3754938 52.4008094,23.3681828 C52.2173266,23.8715844 49.9355531,28.2704672 52.617225,31.4555406 M48.1289531,34.9087812 C48.1289531,34.9087812 48.1477719,34.8946672 49.2863063,34.5324062 M41.2977469,30.2323219 C41.2977469,30.2323219 43.2266688,30.6181062 45.1226578,30.636925 M38.6301891,25.4711781 C38.6301891,25.4711781 40.8978484,25.7017078 43.0290719,25.668775 M35.2569281,20.5030281 C35.2569281,20.5030281 38.5266859,21.152275 40.2815344,21.1852078 M32.5423234,14.9609062 C32.5423234,14.9609062 36.5742406,16.10885 39.5711266,16.5181578 M46.2329641,18.8893203 C46.2329641,18.8893203 43.3348766,21.5851062 46.82105,24.088 C46.82105,24.088 45.3720063,26.3603641 48.2700938,28.7315266 M47.498525,29.8512422 C47.498525,29.8512422 47.0656938,34.1889641 52.3725812,34.1889641 C52.3725812,34.1889641 51.3516641,38.0515125 56.4750687,37.9244859 C56.4750687,37.9244859 57.05845,41.0107609 60.7563344,40.3897422 M52.6125203,74.3340625 C52.6125203,74.3340625 51.7703813,74.5590625 49.9496672,74.3340625 M44.8309672,76.6064266 C44.8309672,76.6064266 42.2716172,76.2159375 42.3939391,81.7721734 M46.3741047,77.8719875 C46.3741047,77.8719875 44.0593984,77.5802969 44.2099484,82.9718687 M68.7072563,64.8823453 C68.7072563,64.8823453 67.59695,65.1081703 66.8253813,65.9879469 C66.0585172,66.8630187 64.5765406,66.6983547 64.5765406,66.6983547 C64.5765406,66.6983547 65.3763375,66.0491078 65.6586188,64.4259906 C65.9314906,62.8028734 66.8300859,62.3135859 66.8300859,62.3135859 M64.1813469,60.7798578 C64.1813469,60.7798578 63.0710406,61.0056828 62.2994719,61.8807547 C61.5279031,62.7605312 60.0459266,62.5958672 60.0459266,62.5958672 C60.0459266,62.5958672 60.8457234,61.9466203 61.1280047,60.3235031 C61.4055813,58.7003859 62.2994719,58.2110984 62.2994719,58.2110984 M63.4144828,67.0794344 C63.4144828,67.0794344 62.4453172,67.2817359 61.7725469,68.0438953 C61.0997766,68.8107594 59.8059875,68.6696187 59.8059875,68.6696187 C59.8059875,68.6696187 60.5116906,68.1050562 60.746925,66.6842406 C60.9915688,65.2681297 61.7725469,64.8400031 61.7725469,64.8400031" id="Shape"></path>
                </g>
                <g id="a-link" transform="translate(141.468750, 72.656250) scale(-1, 1) translate(-141.468750, -72.656250) translate(96.937500, 22.812500)" stroke="#010002" stroke-width="0.75">
                    <g id="a" transform="translate(0.071141, 0.194766)">
                        <path d="M55.1389375,70.2362797 C55.1389375,70.2362797 52.7912984,74.2634922 49.9543719,74.3293578 C49.9543719,74.3293578 45.0756109,73.7365672 43.6971375,75.0115375 C42.7326766,75.9007234 41.7493969,76.6346547 41.3447937,78.9070187 C40.9496,81.1793828 42.1210672,81.6686703 42.3986437,81.7674687 C42.3986437,81.7674687 42.6150594,83.3905859 44.2193578,82.9671641 C44.2193578,82.9671641 44.3134516,84.6608516 47.1456734,83.8469406 C49.9826,83.0330297 51.1587719,83.2917875 51.7092203,80.468975 C52.2690781,77.6414578 52.7818891,77.6885047 53.2852906,77.3497672 C53.9627656,76.8934125 55.2377359,76.4652859 56.1833781,75.9195422 C57.0302219,75.4302547 60.2858656,73.7742047 61.3961719,73.6471781 C62.5064781,73.5154469 62.2618344,69.779925 62.2618344,69.779925 L59.391975,69.779925 L58.0040922,67.7333859 L55.1342328,70.2362797 L55.1389375,70.2362797 Z M64.1719375,50.0343516 C64.1719375,50.0343516 61.3020781,52.3725812 58.8932781,50.0343516 C58.8932781,50.0343516 57.9241125,51.2011141 55.9763719,50.8623766 C54.0380406,50.5189344 53.7134172,49.4980172 53.5299344,48.9146359 C53.5299344,48.9146359 51.8456562,49.8932109 50.4248406,49.1169375 C49.0134344,48.3453687 49.0134344,47.1739016 49.0134344,47.1739016 C49.0134344,47.1739016 46.5434734,47.6631891 45.2779125,45.9883203 C44.0123516,44.3181562 44.7839203,42.6621062 45.4661,42.4645094 C45.4661,42.4645094 42.7985422,43.1655078 42.0693156,40.874325 C41.6713576,39.8256437 41.9809898,38.6399788 42.8408844,37.9197812 C42.8408844,37.9197812 37.2234875,37.8915531 34.9181906,36.132 C34.9181906,36.132 33.0033828,34.9276 34.1466219,33.6620391 C34.1466219,33.6620391 29.0890828,32.8528328 27.8235219,30.8392266 C27.8235219,30.8392266 27.2683687,30.2840734 27.4518516,29.3102031 C27.4518516,29.3102031 27.4847844,28.7597547 28.0399375,28.7268219 C28.0399375,28.7268219 22.2719906,27.8329312 20.6065312,25.9322375 C20.6065312,25.9322375 19.8067344,25.0571656 20.2066328,23.8856984 C20.2066328,23.8856984 20.2913172,23.5798937 20.4277531,23.3681828 C20.4277531,23.3681828 15.1773219,22.2625812 12.5897437,19.9243516 C12.5897437,19.9243516 11.0936531,18.592925 11.8652219,16.8051437 C11.8652219,16.8051437 3.09097969,14.4057531 5.12340469,10.5385 C5.12340469,10.5385 1.02091719,9.20707344 2.31941094,5.50448437 C2.31941094,5.50448437 -1.07266875,3.78256875 0.404603125,1.05385 C1.82071406,-1.55725156 6.17255,1.51020469 11.3194781,2.935725 C11.3194781,2.935725 25.2641719,7.32049375 32.1283109,8.48725625 L51.6339453,37.5292922 L63.0145844,41.9140609 L64.1672328,50.0343516 L64.1719375,50.0343516 Z" id="Shape" fill="#F4C53D" fill-rule="nonzero"></path>
                        <path d="M64.3083734,28.6468422 C64.3083734,28.6468422 62.47825,27.2730734 59.2179016,28.8867812 C59.2179016,28.8867812 58.1217094,29.6442359 57.2560469,28.8162109 C56.8759833,28.4535336 56.6783949,27.9396586 56.7175719,27.4157804 C56.7567489,26.8919022 57.0285699,26.4131309 57.4583484,26.1110156 C59.8906719,24.3091203 60.7892672,18.9034344 57.0913828,16.6592984 C57.0913828,16.6592984 51.7280391,13.4789297 32.0483312,8.47314219 C32.0483312,8.47314219 30.4016906,8.01208281 29.5172094,8.23320312 C28.6453995,8.45560601 27.9660217,9.13859752 27.7482469,10.011575 C27.7482469,10.011575 26.8637656,12.5191734 29.8277187,13.9541031 C29.8277187,13.9541031 31.16385,14.5657125 32.5423234,14.9609062 C32.5423234,14.9609062 31.0274141,14.6315781 30.3781672,16.1276687 C29.7665578,17.5578937 30.6604484,19.0210516 33.4362141,19.9619891 C33.4362141,19.9619891 34.1889641,20.2536797 35.2569281,20.5124375 C35.2569281,20.5124375 32.8810609,21.1946172 34.0243,23.1141297 C34.0243,23.1141297 35.0405125,25.1277359 38.6348937,25.4852922 C38.6348937,25.4852922 35.9532219,25.7769828 37.8445062,28.3269234 C37.8445062,28.3269234 38.6772359,29.7242156 41.2977469,30.2417312 C41.2977469,30.2417312 39.3123687,30.3075969 40.3097625,32.0906734 C41.3165656,33.8784547 43.6736141,34.8852578 45.9977297,35.0499219 C45.9977297,35.0499219 47.2538813,35.1157875 48.1336578,34.9181906 C48.1336578,34.9181906 45.9224547,36.0237922 47.2209484,37.8727344 C47.2209484,37.8727344 48.176,39.1900469 50.5659813,39.1241812 C50.5659813,39.1241812 49.9496672,41.1942437 51.6998109,41.9752219 C53.0641703,42.5868312 54.198,41.6082562 54.198,41.6082562 C54.198,41.6082562 53.7369406,43.8241641 55.7270234,44.6051422 C55.7270234,44.6051422 56.7197125,45.1179531 58.2016891,44.6051422 C58.2016891,44.6051422 59.3308141,47.1409687 63.3580266,45.3578922 C67.3852391,43.584225 64.3083734,28.6515469 64.3083734,28.6515469 L64.3083734,28.6468422 Z M64.5436078,51.6715828 C64.5436078,51.6715828 63.9555219,54.8425422 59.2743578,58.8321172 C59.2743578,58.8321172 55.6611578,62.0171906 55.7505469,65.6868469 C55.8446406,69.4270734 55.1060047,69.8457906 53.6851891,71.1113516 C53.6851891,71.1113516 56.6162094,71.3418813 58.0323203,69.3894359 C58.0323203,69.3894359 57.9711594,72.6356703 57.5383281,72.9320656 C57.5383281,72.9320656 58.4604469,72.9885219 59.7918734,71.5347734 C59.7918734,71.5347734 60.5916703,70.6879297 61.3350109,70.3633063 C61.3350109,70.3633063 60.4693484,72.6074422 61.1468234,74.6869141 C61.1468234,74.6869141 61.3632391,73.8730031 62.5064781,73.5154469 C62.5064781,73.5154469 64.5765406,73.092025 65.3763375,70.1045484 C65.3763375,70.1045484 65.8985578,68.1285797 69.1400875,66.3690266 C69.1400875,66.3690266 72.8097437,64.9858484 72.71565,63.1792484 C72.6215562,61.3679438 64.5483125,51.6715828 64.5483125,51.6715828 L64.5436078,51.6715828 Z" id="Shape" fill="#F4C53D" fill-rule="nonzero"></path>
                        <path d="M81.5557578,92.5506125 C81.5557578,92.5506125 80.7136187,96.2579062 77.7920078,95.9615109 C77.7920078,95.9615109 75.72665,95.7639141 75.8819047,92.3200828 C75.8819047,92.3200828 72.8285625,93.9479047 72.3345703,89.9206922 C72.3345703,89.9206922 69.5588047,90.5652344 69.5917375,86.8014844 C69.5917375,86.8014844 67.0041594,87.2531344 67.3099641,83.9081016 C67.3099641,83.9081016 64.5012656,84.6608516 64.5012656,81.5087109 C64.5012656,81.5087109 57.9335219,80.4172234 71.6241625,67.9309828 L83.8375312,75.2044297 L81.5557578,92.5506125 Z" id="Path" fill="#F4C53D"></path>
                        <path d="M82.9154125,75.9007234 C82.9154125,75.9007234 80.8782828,77.7073234 79.4292391,75.0068328 C79.4292391,75.0068328 77.4532703,74.9127391 77.1474656,73.4166484 C77.1474656,73.4166484 75.5431672,73.2566891 75.2326578,71.7276656 C75.2326578,71.7276656 73.0449781,71.5018406 73.1061391,69.6528984 C73.1061391,69.6528984 69.1259734,69.3423891 73.1061391,64.8352984 C77.0863047,60.3282078 83.8375312,72.3157516 83.8375312,72.3157516 L82.9154125,75.9007234 Z M85.1830719,74.7810078 C87.1590406,74.7810078 89.3937672,87.1072891 88.8150906,94.5359906 C88.6033797,97.2317766 87.1590406,99.4335703 85.1830719,99.4335703 C83.2071031,99.4335703 81.7674688,97.2317766 81.5604625,94.5359906 C80.9770812,87.1072891 83.2118078,74.7810078 85.1830719,74.7810078 Z" id="Shape" fill="#F4C53D" fill-rule="nonzero"></path>
                        <ellipse id="Oval" fill="#F4C53D" cx="85.1830719" cy="74.6869141" rx="2.72871875" ry="4.04603125"></ellipse>
                        <path d="M75.8819047,92.3200828 C75.8819047,92.3200828 76.1924141,85.7946813 81.8474484,76.4370578 M72.3345703,89.9206922 C72.3345703,89.9206922 71.4547938,86.1522375 79.4292391,75.0068328 C79.4292391,75.0068328 78.5024156,72.3486844 81.3393422,70.6408828 M69.5917375,86.8014844 C69.5917375,86.8014844 69.3423891,82.7225203 77.1474656,73.4166484 C77.1474656,73.4166484 76.4558766,71.0172578 79.2833937,69.0977453 M67.3099641,83.9081016 C67.3099641,83.9081016 67.6016547,79.7867953 75.2326578,71.7276656 C75.2326578,71.7276656 74.8562828,69.2624094 77.5850016,67.7333859 M64.5059703,81.5087109 C64.5059703,81.5087109 65.0564188,76.7993187 73.1061391,69.6528984 C73.1061391,69.6528984 72.8285625,67.7992516 75.5102344,65.9173766" id="Shape"></path>
                        <path d="M2.31941094,5.50448437 C2.31941094,5.50448437 8.63780625,9.16473125 28.3316281,12.8249781 M5.12340469,10.5385 C5.12340469,10.5385 22.2343531,16.1182594 30.2040938,16.8051437 M11.8605172,16.8051437 C11.8605172,16.8051437 21.9003203,19.9572844 33.6573344,21.9473672 M20.4277531,23.3728875 C20.4277531,23.3728875 31.76605,26.0969016 37.18585,26.5485516 M28.0399375,28.7268219 C28.0399375,28.7268219 37.6327953,30.7263141 40.0604141,30.9662531 M34.1466219,33.6620391 C34.1466219,33.6620391 41.1471969,34.7252984 43.9323719,34.6688422 M42.8408844,37.9150766 C42.8408844,37.9150766 45.6731062,37.7833453 47.0327609,37.5575203 M45.4613953,42.4645094 C45.4613953,42.4645094 47.8701953,41.8152625 49.2863062,40.9072578 M49.0087297,47.1739016 C49.0087297,47.1739016 50.8623766,46.4587891 51.7562672,44.5110484 M53.5299344,48.9146359 C53.5299344,48.9146359 54.9601594,47.6302562 55.0542531,46.2000312 M58.8932781,50.0343516 C58.8932781,50.0343516 58.3569437,49.5685875 58.7239094,47.5549812 M58.2016891,44.6004375 C58.2016891,44.6004375 57.9194078,44.0264656 58.0135016,43.1137562 M48.0866109,15.7654078 C48.0866109,15.7654078 51.3234359,17.0639016 52.4008094,18.8516828 C53.4828875,20.6394641 52.7724797,22.3754938 52.4008094,23.3681828 C52.2173266,23.8715844 49.9355531,28.2704672 52.617225,31.4555406 M48.1289531,34.9087812 C48.1289531,34.9087812 48.1477719,34.8946672 49.2863062,34.5324062 M41.2977469,30.2323219 C41.2977469,30.2323219 43.2266687,30.6181062 45.1226578,30.636925 M38.6301891,25.4711781 C38.6301891,25.4711781 40.8978484,25.7017078 43.0290719,25.668775 M35.2569281,20.5030281 C35.2569281,20.5030281 38.5266859,21.152275 40.2815344,21.1852078 M32.5423234,14.9609062 C32.5423234,14.9609062 36.5742406,16.10885 39.5711266,16.5181578 M46.2329641,18.8893203 C46.2329641,18.8893203 43.3348766,21.5851062 46.82105,24.088 C46.82105,24.088 45.3720063,26.3603641 48.2700938,28.7315266 M47.498525,29.8512422 C47.498525,29.8512422 47.0656937,34.1889641 52.3725812,34.1889641 C52.3725812,34.1889641 51.3516641,38.0515125 56.4750687,37.9244859 C56.4750687,37.9244859 57.05845,41.0107609 60.7563344,40.3897422 M52.6125203,74.3340625 C52.6125203,74.3340625 51.7703812,74.5590625 49.9496672,74.3340625 M44.8309672,76.6064266 C44.8309672,76.6064266 42.2716172,76.2159375 42.3939391,81.7721734 M46.3741047,77.8719875 C46.3741047,77.8719875 44.0593984,77.5802969 44.2099484,82.9718687 M68.7072562,64.8823453 C68.7072562,64.8823453 67.59695,65.1081703 66.8253812,65.9879469 C66.0585172,66.8630187 64.5765406,66.6983547 64.5765406,66.6983547 C64.5765406,66.6983547 65.3763375,66.0491078 65.6586187,64.4259906 C65.9314906,62.8028734 66.8300859,62.3135859 66.8300859,62.3135859 M64.1813469,60.7798578 C64.1813469,60.7798578 63.0710406,61.0056828 62.2994719,61.8807547 C61.5279031,62.7605312 60.0459266,62.5958672 60.0459266,62.5958672 C60.0459266,62.5958672 60.8457234,61.9466203 61.1280047,60.3235031 C61.4055813,58.7003859 62.2994719,58.2110984 62.2994719,58.2110984 M63.4144828,67.0794344 C63.4144828,67.0794344 62.4453172,67.2817359 61.7725469,68.0438953 C61.0997766,68.8107594 59.8059875,68.6696187 59.8059875,68.6696187 C59.8059875,68.6696187 60.5116906,68.1050562 60.746925,66.6842406 C60.9915688,65.2681297 61.7725469,64.8400031 61.7725469,64.8400031" id="Shape"></path>
                    </g>
                </g>
                <path d="M145.625,80 L141.15625,99.28125 L139.3125,97.96875 L143.6875,79.46875 L140.625,79.53125 L147.84375,66.3125 L148.3125,81.53125 L145.625,80 Z M157.1875,84.0625 L143.75,99.9375 L142.3125,98.3125 L155.6875,82.625 L152.96875,81.1875 L165.21875,73.0625 L158.875,86.75 L157.1875,84.0625 Z" id="Shape" stroke="#010002" stroke-width="0.75" fill="#0081C6" fill-rule="nonzero"></path>
                <path d="M153.9375,75.625 L141.90625,98.75 L140.0625,97.65625 L152.15625,74.59375 L149.21875,73.84375 L159.4375,63.03125 L156.15625,77.875 L153.9375,75.625 Z M138.9375,105.8125 L138.03125,109.46875 L140.53125,111.96875 L137.03125,126.65625 L133.90625,122.5 L129.34375,124.625 L132.8125,109.9375 L136.0625,109 L136.875,105.34375 C136.875,105.34375 137.875,104.96875 138.9375,105.8125 Z" id="Shape" stroke="#010002" stroke-width="0.75" fill="#0081C6" fill-rule="nonzero"></path>
                <path d="M139.78125,103.375 L138,106.6875 L139.78125,109.71875 L132.78125,123 L130.8125,118.125 L125.84375,118.9375 L132.84375,105.6875 L136.1875,105.6875 L137.90625,102.375 C137.90625,102.375 139.15625,102.375 139.78125,103.375 Z" id="Path" stroke="#010002" stroke-width="0.75" fill="#0081C6"></path>
                <path d="M140.0625,104.34375 L135.375,110.34375 L136.4375,113.71875 L126.78125,124.96875 L125.90625,119.78125 L120.90625,119.40625 L130.53125,108.15625 L133.78125,108.9375 L138.78125,102.5625 C138.78125,102.5625 140.15625,103.25 140.0625,104.34375 Z M20.46875,90.28125 C21.59375,89.8125 22.40625,89.375 22.40625,88.1875 C22.40625,87.875 22.25,87.25 21.9375,86.28125 L14.375,63.125 C14.1219097,62.280733 13.8086064,61.4557007 13.4375,60.65625 C13.09375,60.03125 12.4375,59.75 11.53125,59.40625 L21.125,59.40625 C20.09375,59.875 19.125,60.25 19.15625,61.375 C19.15625,61.78125 19.28125,62.375 19.5,63.15625 L25.3125,81.28125 L31.09375,63.15625 C31.2943526,62.5823777 31.4101555,61.9823081 31.4375,61.375 C31.4375,60.21875 30.4375,59.8125 29.46875,59.375 L38.78125,59.375 C37.9375,59.71875 37.21875,60 36.90625,60.65625 C36.526899,61.4666015 36.203232,62.3018712 35.9375,63.15625 L28.375,86.25 C28.16627,86.8713508 28.0094816,87.508957 27.90625,88.15625 C27.90625,88.15625 27.5625,89.625 29.84375,90.25 L20.46875,90.25 L20.46875,90.28125 Z M181.5,87.90625 L181.5,61.75 C181.5,61.3125 181.40625,60.96875 181.25,60.71875 C181.09375,60.46875 180.46875,59.78125 179.53125,59.40625 L188.1875,59.40625 C187.493415,59.6569048 186.89332,60.1151586 186.46875,60.71875 C186.3125,60.96875 186.25,61.3125 186.25,61.75 L186.25,87.90625 C186.25,88.375 186.3125,88.71875 186.46875,88.96875 C186.625,89.21875 187.25,89.84375 188.1875,90.28125 L179.53125,90.28125 C180.46875,89.84375 181.09375,89.21875 181.25,88.96875 C181.40625,88.71875 181.5,88.375 181.5,87.90625 Z" id="Shape" stroke="#010002" stroke-width="0.75" fill="#0081C6" fill-rule="nonzero"></path>
                <path d="M101.5,96.8125 C101.5,96.8125 124.6875,86.53125 124.71875,62.8125 L78.28125,62.8125 C78.34375,86.5625 101.5,96.8125 101.5,96.8125 Z" id="Path" stroke="#010002" stroke-width="0.75" fill="#FFFFFF"></path>
                <path d="M81.875,62.8125 L81.875,77.96875 C81.875,77.96875 83.625,81.5 85.4375,83.6875 L85.4375,62.8125 L81.875,62.8125 Z M89,62.8125 L89,87.8125 C89,87.8125 91.25,90 92.5625,91.0625 L92.5625,62.8125 L89,62.8125 Z M96.15625,62.8125 L96.15625,93.71875 C96.15625,93.71875 98.6875,95.34375 99.71875,95.90625 L99.71875,62.78125 L96.15625,62.78125 L96.15625,62.8125 Z M121.15625,62.8125 L121.15625,77.96875 C121.15625,77.96875 119.375,81.5 117.5625,83.6875 L117.5625,62.8125 L121.15625,62.8125 Z M114,62.8125 L114,87.8125 C114,87.8125 111.78125,90 110.4375,91.0625 L110.4375,62.8125 L114,62.8125 Z M106.875,62.8125 L106.875,93.71875 C106.875,93.71875 104.3125,95.34375 103.28125,95.90625 L103.28125,62.78125 L106.875,62.78125 L106.875,62.8125 Z" id="Shape" stroke="#010002" stroke-width="0.75" fill="#A60032" fill-rule="nonzero"></path>
                <path d="M124.71875,45.5625 C124.71875,45.5625 113.34375,51.5 101.5,45.0625 C89.65625,51.5 78.28125,45.5625 78.28125,45.5625 L78.28125,62.8125 L124.71875,62.8125 L124.71875,45.5625 Z" id="Path" stroke="#010002" stroke-width="0.75" fill="#162667"></path>
            </g>
        </g>
    </g>
</svg>