<?xml version="1.0" encoding="UTF-8"?>
<svg width="200px" height="141px" viewBox="0 0 200 141" version="1.1" xmlns="http://www.w3.org/2000/svg" xmlns:xlink="http://www.w3.org/1999/xlink">
    <!-- Generator: Sketch 52.5 (67469) - http://www.bohemiancoding.com/sketch -->
    <title>vu</title>
    <desc>Created with Sketch.</desc>
    <defs>
        <polygon id="path-1" points="0 0 199.912152 0 199.912152 150 0 150"></polygon>
    </defs>
    <g id="Flags" stroke="none" stroke-width="1" fill="none" fill-rule="evenodd">
        <g id="Oceania" transform="translate(-950.000000, -650.000000)">
            <g id="vu" transform="translate(950.000000, 650.000000)">
                <mask id="mask-2" fill="white">
                    <use xlink:href="#path-1"></use>
                </mask>
                <g id="Path"></g>
                <g id="Group" mask="url(#mask-2)">
                    <g id="Path">
                        <polygon fill="#000000" points="0 0 95.3696925 60.2600098 210.834553 60.2600098 210.834553 80.3649902 95.3696925 80.3649902 0 140.625"></polygon>
                        <polygon fill="#FFFF00" points="0 135.598755 97.3737189 73.3337402 210.834553 73.3337402 210.834553 67.2912598 97.3737189 67.2912598 0 5.02624512 0 14.0625 91.3616398 70.3125 0 126.5625"></polygon>
                        <polygon fill="#40AA40" points="0 140.625 97.3737189 78.3599854 210.834553 78.3599854 210.834553 140.625"></polygon>
                        <polygon fill="#CE0000" points="0 0 97.3737189 62.2650146 210.834553 62.2650146 210.834553 0"></polygon>
                        <path d="M26.2994143,73.223877 C26.6288433,73.3062744 26.738653,73.3886719 27.068082,72.9217529 C27.1229868,72.6470947 27.3426061,72.3175049 27.5347731,72.0153809 C27.7543924,71.6033936 27.864202,71.4660645 28.0838214,71.7407227 C28.2485359,71.9329834 28.852489,71.6033936 29.0721083,71.7681885 C29.4564422,72.0428467 29.2368228,71.987915 29.5387994,71.7132568 C29.7858712,71.2188721 29.5662518,71.2738037 29.2642753,71.0540771 C28.9897511,70.8892822 28.4132504,71.2188721 28.1661786,71.0540771 C28.2485359,70.5596924 28.4132504,70.5047607 28.7152269,70.3948975 C28.9348463,70.5322266 29.5662518,70.2850342 29.7584187,70.2850342 C30.0329429,70.3399658 30.3074671,70.3674316 30.3898243,69.9554443 C30.5270864,69.6807861 30.4721816,69.8730469 30.3349195,69.6807861 C30.1153001,69.4885254 29.511347,69.8181152 29.2642753,69.6807861 C28.9897511,69.4335938 29.0172035,69.3511963 29.2093704,68.9666748 C29.4289898,68.8293457 29.6211567,68.8842773 29.9231332,69.0765381 C30.1976574,69.2962646 30.6918009,68.8842773 30.966325,68.8568115 C31.2133968,68.5821533 31.4879209,68.4997559 31.295754,68.170166 C31.2133968,67.8955078 31.1310395,67.8955078 30.8016105,67.8131104 C30.4721816,67.5933838 30.0329429,68.0053711 29.8956808,67.6757813 C30.170205,67.2912598 30.2525622,67.3736572 30.5819912,67.5933838 C30.8016105,67.6483154 31.4055637,67.2912598 31.625183,67.2637939 C31.9271596,67.1813965 31.7898975,67.5384521 32.0095168,66.7694092 C31.9271596,66.4398193 31.3781113,66.9616699 31.0761347,66.8792725 C30.8016105,66.9342041 30.5270864,66.8243408 30.5270864,66.494751 C30.5270864,66.0827637 30.7467057,66.0552979 31.0486823,66.1102295 C31.3232064,66.1651611 31.8997072,65.8355713 32.1467789,65.8355713 C32.4213031,66.0003662 32.5585652,65.9454346 32.8056369,65.5609131 C32.9703514,65.0939941 32.7781845,65.2862549 32.4487555,65.0115967 C32.2291362,64.8742676 31.625183,65.2038574 31.3781113,65.0390625 C31.4330161,64.8742676 31.5153734,64.654541 31.6526354,64.5721436 C31.8997072,64.6270752 32.0918741,64.6270752 32.3938507,64.7918701 C32.6683748,64.9291992 33.1625183,64.3798828 33.40959,64.1876221 C33.3546852,63.9129639 32.8605417,64.2974854 32.5860176,64.1052246 C32.4213031,63.9678955 32.1742313,63.8305664 32.1193265,63.6932373 C32.284041,63.2263184 32.2016837,63.2537842 32.6683748,63.4185791 C32.8879941,63.3361816 33.2997804,63.3361816 33.0252562,62.8967285 C32.9703514,62.8417969 32.7507321,62.8417969 32.5311127,62.7593994 C32.284041,62.5946045 32.0644217,62.4023438 31.7898975,62.3474121 C31.5977306,62.3199463 31.3232064,62.2375488 31.1859444,62.2924805 C31.1859444,62.5671387 31.2408492,62.7319336 31.2133968,63.0615234 C31.3506589,63.2537842 31.5702782,63.2537842 31.625183,63.3361816 C31.3781113,63.5559082 31.2408492,63.4460449 30.9937775,63.4460449 C30.6643485,63.2537842 30.8565154,62.5946045 30.4721816,62.7319336 C30.5545388,62.9241943 30.5270864,63.6657715 30.6918009,63.8305664 C30.8565154,63.9404297 31.0761347,64.050293 31.1035871,64.1876221 C30.829063,64.5996094 30.7467057,64.5721436 30.4172767,64.3798828 C30.1427526,64.2150879 30.2525622,63.6108398 30.0054905,63.6383057 C29.7309663,63.8580322 29.7309663,63.8305664 29.7858712,64.1326904 C29.7858712,64.5172119 29.6486091,65.0665283 29.9780381,65.2862549 C30.3349195,65.5609131 30.3898243,65.5059814 30.0878477,66.027832 C29.8956808,66.2750244 29.7858712,66.2200928 29.5387994,66.1102295 C29.2917277,65.9454346 29.3466325,65.2862549 29.1544656,65.0939941 C28.7701318,64.8742676 28.9897511,64.8742676 28.6877745,65.1489258 C28.6054173,65.5059814 28.6877745,65.5883789 28.8250366,65.8905029 C28.9348463,66.0827637 28.9348463,66.7144775 29.1544656,66.7694092 C29.4838946,66.9616699 29.511347,66.9342041 29.0995608,67.3187256 C28.8250366,67.3187256 28.6603221,67.401123 28.4407028,67.1264648 C28.1661786,66.9067383 28.3308931,66.2475586 27.9740117,66.2475586 C27.6445827,66.2750244 27.5622255,66.2750244 27.5896779,66.7419434 C27.6720351,67.1539307 27.5073206,67.7856445 27.8367496,68.0328369 C28.1387262,68.170166 28.3308931,68.1427002 28.4407028,68.3349609 C28.3308931,68.4173584 28.1661786,68.6920166 28.056369,68.7469482 C27.8367496,68.7469482 27.6171303,68.6096191 27.3700586,68.5546875 C27.0955344,68.4173584 27.2327965,68.170166 26.9857247,68.0053711 C26.7112006,68.0877686 26.7112006,67.7307129 26.5739385,68.0877686 C26.6288433,68.4173584 26.5190337,68.8018799 26.8484627,69.0216064 C27.068082,69.1589355 27.2602489,69.4885254 27.5073206,69.6533203 C27.7818448,69.9829102 27.6720351,70.0378418 27.5073206,70.4772949 C27.2602489,70.5047607 27.0131772,70.3399658 26.7661054,70.2026367 C26.5190337,70.010376 26.5739385,69.3786621 26.3268668,69.241333 C26.1346999,69.0216064 26.1896047,68.8568115 25.8601757,69.2962646 C25.8601757,69.5709229 25.8876281,69.6258545 25.9699854,69.8455811 C25.9699854,70.1202393 25.9150805,70.7244873 26.1896047,70.916748 C26.4641288,70.9716797 26.7935578,71.1090088 27.0131772,71.1914063 C27.2327965,71.4660645 27.0406296,71.4111328 26.7935578,71.7956543 C26.6562958,72.1801758 26.6562958,72.2625732 26.409224,72.454834 C26.1896047,72.7294922 26.1346999,72.8668213 26.2994143,73.223877 Z" fill="#FFFF00"></path>
                        <path d="M33.2174231,73.5809326 C33.40959,73.2513428 33.5193997,73.1964111 33.2174231,72.6470947 C32.9978038,72.454834 32.7781845,72.0977783 32.5585652,71.7956543 C32.284041,71.3562012 32.2016837,71.1914062 32.5585652,71.0540771 C32.7781845,70.9716797 32.7232796,70.2301025 32.9703514,70.0378418 C33.3546852,69.7357178 33.2448755,69.9554443 33.1076135,69.5159912 C32.7232796,69.0490723 32.6958272,69.2962646 32.3663982,69.5709229 C32.0918741,69.7631836 32.1742313,70.5322266 31.954612,70.7244873 C31.5153734,70.4498291 31.5153734,70.2301025 31.5428258,69.9005127 C31.7898975,69.708252 31.7898975,68.9117432 31.8722548,68.7194824 C32.0369693,68.4448242 32.1467789,68.170166 31.8173499,67.9229736 C31.5977306,67.6483154 31.7624451,67.8131104 31.5428258,67.8405762 C31.2683016,68.0328369 31.3506589,68.8018799 31.1035871,68.9941406 C30.7741581,69.2138672 30.7192533,69.1314697 30.4447291,68.7744141 C30.4172767,68.4997559 30.5270864,68.3074951 30.829063,68.0603027 C31.1310395,67.8405762 30.966325,67.1539307 31.0486823,66.8792725 C30.8839678,66.494751 30.9114202,66.1651611 30.5545388,66.2200928 C30.2800146,66.2200928 30.2251098,66.3024902 30.0054905,66.6320801 C29.6760615,66.9067383 29.8956808,67.5109863 29.511347,67.5109863 C29.2642753,67.0715332 29.4015373,67.0166016 29.7309663,66.7419434 C29.8682284,66.5496826 29.7858712,65.725708 29.840776,65.5059814 C29.8956808,65.1763916 30.1153001,65.4510498 29.5387994,64.956665 C29.2093704,64.8742676 29.4838946,65.6707764 29.2642753,65.9454346 C29.181918,66.2750244 28.9897511,66.494751 28.7152269,66.3848877 C28.3034407,66.2200928 28.385798,65.9729004 28.5505124,65.6982422 C28.7152269,65.423584 28.6328697,64.654541 28.7426794,64.4073486 C29.0172035,64.1326904 29.0172035,64.0228271 28.7426794,63.583374 C28.385798,63.1988525 28.4681552,63.5009766 28.1387262,63.7481689 C27.864202,63.9404297 27.9465593,64.7094727 27.6994876,64.9017334 C27.5622255,64.7644043 27.4249634,64.6270752 27.397511,64.4073486 C27.5347731,64.1876221 27.5896779,63.9678955 27.8916545,63.7207031 C28.1112738,63.4735107 27.7818448,62.7593994 27.72694,62.4023437 C27.4524158,62.3474121 27.6171303,63.0065918 27.3151537,63.2263184 C27.1229868,63.3636475 26.9308199,63.5559082 26.7661054,63.5559082 C26.409224,63.1988525 26.3817716,63.28125 26.7112006,62.8692627 C26.738653,62.5946045 26.9033675,62.1826172 26.3817716,62.3199463 C26.2994143,62.3199463 26.2445095,62.5946045 26.079795,62.7593994 C25.8052709,62.9516602 25.5581991,63.1164551 25.3934846,63.3636475 C25.283675,63.5559082 25.1189605,63.8305664 25.1189605,63.9953613 C25.3385798,64.1326904 25.5307467,64.1326904 25.8327233,64.2700195 C26.0523426,64.2150879 26.1621523,63.9953613 26.2445095,63.9678955 C26.3268668,64.2974854 26.1896047,64.4073486 26.1072474,64.6820068 C25.7778184,64.956665 25.2287701,64.4897461 25.2287701,64.956665 C25.4483895,64.9291992 26.1072474,65.2313232 26.3268668,65.1489258 C26.4915813,65.0115967 26.6837482,64.8193359 26.8210102,64.8742676 C27.0955344,65.2862549 27.0406296,65.3961182 26.738653,65.6433105 C26.4641288,65.8630371 25.9150805,65.5334473 25.8876281,65.7806396 C25.9699854,66.1651611 25.9425329,66.1651611 26.2445095,66.2200928 C26.6013909,66.3574219 27.0406296,66.7419434 27.3426061,66.494751 C27.7543924,66.2200928 27.7543924,66.1376953 28.0838214,66.6595459 C28.2485359,66.9616699 28.1661786,67.0715332 27.9465593,67.2637939 C27.6994876,67.4835205 27.1229868,67.1539307 26.8484627,67.2637939 C26.5190337,67.5933838 26.6013909,67.3736572 26.738653,67.8131104 C27.0131772,68.0328369 27.1229868,68.0053711 27.4798682,67.9504395 C27.6994876,67.8955078 28.3034407,68.170166 28.4132504,67.9504395 C28.7152269,67.6757812 28.6877745,67.6483154 28.8799414,68.2250977 C28.7701318,68.5546875 28.7975842,68.7194824 28.4407028,68.8568115 C28.1387262,69.0765381 27.6171303,68.6096191 27.4524158,68.9941406 C27.3426061,69.3786621 27.3151537,69.4610596 27.7543924,69.5983887 C28.1661786,69.6807861 28.6877745,70.0927734 29.0446559,69.8730469 C29.2917277,69.5983887 29.3191801,69.3786621 29.5662518,69.3237305 C29.5937042,69.4885254 29.7584187,69.7631836 29.7584187,69.9005127 C29.7035139,70.1477051 29.4838946,70.3125 29.3191801,70.5596924 C29.0995608,70.8068848 28.9073939,70.5596924 28.6877745,70.7519531 C28.6603221,71.0540771 28.3034407,70.916748 28.6054173,71.2188721 C28.8799414,71.2738037 29.2368228,71.5484619 29.5387994,71.3287354 C29.7858712,71.1364746 30.170205,71.0540771 30.3898243,70.8618164 C30.8016105,70.6970215 30.8016105,70.8618164 31.1584919,71.1914062 C31.0761347,71.4660645 30.829063,71.6583252 30.6094436,71.8505859 C30.3349195,72.0428467 29.7858712,71.7407227 29.5387994,71.9329834 C29.2642753,72.0703125 29.1544656,71.9329834 29.4015373,72.454834 C29.6760615,72.5921631 29.7309663,72.5372314 29.9505857,72.5372314 C30.2251098,72.6745605 30.7192533,72.9766846 31.0212299,72.756958 C31.1859444,72.4822998 31.4604685,72.2076416 31.625183,71.987915 C31.9271596,71.8780518 31.8173499,72.0428467 32.0644217,72.454834 C32.3663982,72.7844238 32.4487555,72.8118896 32.5311127,73.1414795 C32.6958272,73.4710693 32.8056369,73.6083984 33.1899707,73.5534668 L33.2174231,73.5809326 Z" fill="#FFFF00"></path>
                        <path d="M26.9033675,86.3800049 C26.9033675,84.9243164 26.6837482,83.4686279 26.9033675,83.4686279 C39.7510981,83.4686279 42.9630307,74.6795654 42.9630307,68.8568115 C42.9630307,63.0340576 38.5157394,57.1289062 30.1153001,57.1289062 C20.5069546,57.1289062 17.2675695,62.8417969 17.2675695,68.8293457 C17.2162564,74.2760264 21.4662737,78.7946318 26.9033675,79.0740967 C33.3272328,79.0740967 34.9469253,77.6184082 39.7510981,71.7681885 C38.158858,79.0740967 30.1427526,81.9854736 26.9033675,81.9854736 C20.4795022,81.9854736 14.0556369,77.5909424 14.0556369,68.8568115 C14.0556369,61.5509033 18.8598097,54.2449951 30.1153001,54.2449951 C39.7510981,54.2449951 46.1749634,61.5509033 46.1749634,68.8568115 C46.1749634,79.0740967 38.158858,86.3800049 26.9033675,86.3800049 Z" fill="#FFFF00"></path>
                    </g>
                </g>
            </g>
        </g>
    </g>
</svg>