<?xml version="1.0" encoding="UTF-8"?>
<svg width="200px" height="150px" viewBox="0 0 200 150" version="1.1" xmlns="http://www.w3.org/2000/svg" xmlns:xlink="http://www.w3.org/1999/xlink">
    <!-- Generator: Sketch 52.5 (67469) - http://www.bohemiancoding.com/sketch -->
    <title>gb-wls</title>
    <desc>Created with Sketch.</desc>
    <g id="Flags" stroke="none" stroke-width="1" fill="none" fill-rule="evenodd">
        <g id="Europe" transform="translate(-1170.000000, -650.000000)">
            <g id="gb-wls" transform="translate(1170.000000, 650.000000)">
                <polygon id="Path" fill="#00AB39" points="0 75 200 75 200 150 0 150"></polygon>
                <polygon id="Path" fill="#FFFFFF" points="0 0 200 0 200 75 0 75"></polygon>
                <g id="Group" transform="translate(19.687500, 21.875000)" stroke="#000000" stroke-width="0.7">
                    <path d="M111.25,0.25 L111.21875,0.25 L111.25,0.25 Z M111.21875,0.25 C98.8406837,6.91146649 87.1397793,14.7609104 76.28125,23.6875 C70.96875,28.34375 72.46875,32.03125 72.25,36.1875 C72.4375,39 71.65625,41.625 69.9375,43.1875 L58.125,45.5625 L57,42.3125 C57.34375,40.625 58.71875,39.8125 61.65625,40.84375 C61.875,38.71875 60.125,37.84375 58.125,37.09375 C57.40625,36.53125 56.5625,36.15625 56.65625,34.28125 C56.34375,30.0625 63.09375,34.59375 63.15625,34.59375 C63.21875,34.59375 62.90625,30.3125 59.8125,29.46875 C58.125,28.875 57.40625,27.09375 58.0625,25.78125 C59.40625,23.0625 61.96875,25.96875 63.90625,26.09375 C63.84375,24.3125 63.34375,23.0625 61.8125,21.65625 C61,21.125 59,20.75 58.9375,19.90625 C58.90625,18.78125 60.8125,18.28125 63.46875,18.59375 C62.90625,17 61.125,15.96875 58.6875,15.21875 L57.25,12.6875 C56.5625,11.4375 56.25,11.375 57.84375,9 C59.25,8.0625 61.15625,6.75 62.59375,5.84375 L61.03125,5.65625 C61.21875,3.9375 61.25,3.34375 61.65625,0.5 C60.09375,2.59375 58.21875,2.21875 56.46875,3.0625 C56.46875,3.0625 51.59375,3.9375 50,6.03125 L37.6875,5.40625 C35.0625,5.75 32.84375,6.5 32.40625,9.03125 C26.4375,9.65625 20.1875,9.125 15.625,14.8125 C18.75,14.6875 21.4375,13.9375 24.9375,14.375 C24.9375,14.375 27.90625,14.4375 28.5,17.59375 C28.5625,17.71875 29.53125,17.71875 29.53125,17.71875 L30.65625,18.59375 L31.09375,17.40625 L32.09375,18.09375 L32.40625,16.78125 L33.40625,17.46875 L33.46875,15.90625 L34.78125,16.84375 L34.78125,14.75 C34.78125,14.75 39.65625,14.75 41.15625,17.875 C41.21875,17.90625 27.5,20.375 14.25,19.21875 L18.0625,17.34375 C13.25,16.34375 8.6875,15.46875 4.4375,12.125 C6.03125,18.1875 14.34375,25.28125 16.0625,25.25 L14.4375,22.3125 L28.8125,22.9375 C29.34375,24.53125 29.125,26.3125 30.375,27.71875 C30.375,27.71875 29.59375,30.34375 31.375,31.40625 C31.4375,31.53125 33.46875,26.09375 33.46875,26.09375 C33.46875,26.09375 34.09375,27.5625 34.71875,28.53125 C35.65625,23.84375 40.78125,23.0625 40.78125,23.0625 L41.84375,25.5625 C40.25,25.8125 38.25,29.0625 39.34375,30.875 C38.25,30.875 36.34375,34.03125 36.9375,35.75 C36.03125,36.65625 33.8125,37.84375 34.34375,41.625 C32.59375,42 31.53125,45.21875 32.09375,48.65625 C29.34375,51.1875 30.03125,55.84375 32.46875,57.75 C31.46875,58.6875 30.84375,59.34375 30.84375,60.46875 C29.875,60.125 28.96875,60.40625 28.5625,61.03125 C27.375,59.8125 25.6875,58.78125 24.5,59.90625 C24.1875,58.46875 22.3125,56.90625 20.28125,57.09375 C20.4535765,55.2365632 19.2677358,53.5236822 17.46875,53.03125 C17.46875,53.03125 17,45.96875 14.875,43.65625 C14.65625,42.40625 15,41.53125 16.75,40.46875 C18.53125,39.53125 18.90625,38.8125 18.75,36.125 C19.46875,34.34375 20,32.53125 17.8125,31.3125 C17.875,33.4375 17.25,34.4375 16.375,35.375 C15.34375,35.25 15,36.4375 14.3125,36.9375 C13.34375,35.65625 16.34375,33.625 14.125,30.71875 C14,30.59375 12.5625,26.96875 9.03125,27.03125 C10.6875,28 11.40625,29.65625 11.40625,31.375 C10.1037962,34.2552146 9.9036428,37.5132671 10.84375,40.53125 C9.375,38.34375 8.53125,34.15625 7.3125,33.4375 C6.25,33.21875 5.75,30.71875 1.59375,31.4375 C3.375,31.90625 3.96875,33.28125 4.40625,34.5 C3.34375,35.0625 3.875,36.5625 4.6875,37.59375 C4.53125,40 5.96875,41.40625 8.125,42.28125 L7.0625,52.1875 C6.21875,52.09375 4.875,55.4375 4.375,55.53125 C3.53125,56.0625 2.0625,57.46875 3.75,57.875 C3.25,59.65625 2.78125,60.75 0.09375,61.125 C0.09375,61.125 2.90625,62.8125 5.28125,59.9375 C7.78125,59.875 6.96875,56.875 8.1875,55.5625 C8.1875,55.46875 8.90625,55.03125 9.90625,52.375 C10.34375,54.75 12.78125,62 18.25,65.59375 C23.03125,70.71875 27,75.5625 26.9375,82.375 C28.7734889,80.3559992 30.0924348,77.9218472 30.78125,75.28125 C33.8990311,74.3459038 37.1568035,73.9651252 40.40625,74.15625 C39.84375,75.375 39.1875,76.53125 40,77.28125 C37.6875,78.09375 37.1875,79.78125 38.125,81.4375 C35.6875,83.09375 35.53125,84.15625 35.5,86.90625 C30.96875,92.6875 28.1875,92.5 23.71875,90.96875 C22.28125,90.125 19.96875,88.90625 18.9375,89.5625 C17.03125,88.25 14.25,88.0625 13.78125,91 C15.25,89.78125 16.09375,90.03125 17.25,91.1875 C17.03125,91.78125 16.84375,92.34375 17.6875,92.6875 L16.5625,93.9375 C14.5,93.625 11.6875,93.625 10.96875,96.65625 C12.03125,95.75 14.40625,95.5625 16.28125,96.40625 L17.375,96.78125 L17.5,98.21875 C17.5,98.21875 14.6875,97.78125 13.9375,102.375 C16.5625,99.5625 18.4375,100.28125 18.4375,100.28125 C19.46875,101.78125 23.21875,101.5625 25.9375,99.09375 C29.71875,96.96875 30.84375,100.03125 33.28125,98.03125 C35.3125,96.53125 37.71875,97.53125 39.375,99.28125 C41.28125,100 43.28125,100.59375 44.84375,99.28125 C44.84375,99.28125 46.78125,98.0625 48.6875,100.03125 C48.6875,97.84375 47.125,96.625 45,96.59375 L44.375,95.96875 C42.34375,95.53125 40.09375,95.71875 38.3125,94.71875 C39.0033071,91.5639177 40.5245181,88.6509605 42.71875,86.28125 C45.625,83.15625 47.78125,81.71875 51.46875,76.9375 C51.3125,79.65625 53.375,82.65625 54.46875,85.375 C54.46875,85.375 56.65625,81.90625 56.96875,79.03125 C57.0625,79.03125 59.75,77.65625 60.875,76.4375 C63.3125,77.96875 67.25,75.25 69.8125,73 C71.375,73.625 72.59375,73.5625 74.40625,73 C72.9375,76 75.25,78.78125 78.9375,79.9375 C79.25,82.5625 81.9375,83.125 85.96875,83.125 C86.15625,84.6875 88.5625,84.90625 88.5625,84.90625 C87,85.59375 86.25,86.3125 86.28125,87.90625 C84.71875,87.90625 83.5625,88.3125 83.15625,90.09375 C81,90.15625 78.8125,90.3125 76.96875,91.34375 C75,91.0625 72.59375,90.25 71.0625,88.65625 C70.28125,88 70.0625,87.03125 68.6875,86.65625 C67.8125,85.625 66.75,85.84375 66.40625,86.84375 C65.5,86.125 62.09375,85.8125 61.5,89.03125 C63.125,87.875 64.53125,87.4375 65.5625,88.875 C65,89.84375 66.875,90.4375 68.5,90.8125 C69.65625,90.875 71.6875,91.9375 72.3125,93.6875 C70.5383182,94.2011057 68.6278182,93.9036626 67.09375,92.875 C65.9397531,91.9127604 64.2945222,91.8115155 63.03125,92.625 C61.65625,91.75 58.4375,93.40625 58.3125,96.03125 C59.65625,94.78125 60.90625,94.15625 62.15625,94.96875 C61.53125,95.09375 61.75,95.15625 61.84375,95.53125 L64.96875,97.34375 C63.40625,97.75 61.96875,98.375 62.65625,101.25 C62.65625,101.25 63.90625,98.75 66.71875,99.6875 C66.78125,99.59375 67.125,100.5625 67.9375,99.90625 C69.15625,98.53125 71.9375,97.90625 74.40625,97.65625 C76.375,97.4375 78.34375,96.84375 80.03125,97.96875 C81.59375,97.1875 83.28125,96.65625 85.03125,97.90625 C87.09375,98.53125 88.59375,100.96875 91.1875,99.875 C92.5,98.9375 94.09375,98.9375 95.71875,100.75 C95.71875,98.4375 94,97.65625 91.5625,97.15625 L89.875,96.15625 C88.3125,95.90625 86.75,96.1875 85.15625,95.4375 C92.7047481,93.6270982 99.2049028,88.8505547 103.1875,82.1875 L107.09375,83.5625 C108.03125,83.625 108.09375,83.9375 110,84.5 C110.0625,81.71875 108.84375,78.84375 103.8125,78.5625 L97.25,76.0625 C95.8125,74.5625 95.1875,71.40625 96.96875,69.5625 C98.71875,68 99.03125,68.1875 100.1875,66.28125 C101.59375,66.15625 102.90625,67.59375 104.1875,67.59375 C104.8125,69.4375 108.375,71.03125 110.625,70.5 C112.03125,71.75 114.6875,72.4375 117.65625,71.4375 C119.388092,73.0535476 121.940208,73.4270281 124.0625,72.375 C124.75,73.0625 126.1875,73.625 127.8125,73.25 C127.96875,73.25 128.6875,75.0625 130.46875,75.71875 C129.6875,76.46875 130.15625,79.78125 131,81 C130.395699,82.2365408 130.294871,83.659346 130.71875,84.96875 C128.90625,86.125 128.53125,87 129.34375,88.96875 C126.96875,92.8125 124.125,93.25 121.4375,92.09375 L118.53125,90.21875 L115.46875,87.21875 C114.9375,86.71875 113.84375,86.59375 113.625,87.65625 C113.625,87.65625 109.6875,86.78125 109.34375,90.125 C111,88.53125 113.3125,89.9375 113.3125,90 C113.3125,90.0625 112.75,90.4375 113.1875,91.0625 C113.28125,90.96875 116.09375,92.09375 118.5625,93.15625 C119.90625,93.6875 120.21875,93.84375 120.8125,94.15625 C120.066378,93.8142577 119.316328,93.4809021 118.5625,93.15625 C117.478198,92.6562541 116.314872,92.3495591 115.125,92.25 C113.75,92.125 112.25,91.9375 111.5625,93 C110.0625,93.625 107.6875,94.15625 107.8125,96.96875 C108.8125,95.28125 110.21875,95.375 112,95.53125 L111.875,95.90625 C113.8125,96.78125 113.4375,95.65625 115.25,95.5 C116.877428,95.4753813 118.4963,95.739903 120.03125,96.28125 C118.625,96.6875 116.6875,96.5 115.78125,97.53125 C115.59375,97.84375 115,97.71875 115.28125,98.53125 C115.28125,98.53125 112.46875,98.46875 111.75,102.28125 C114.5625,100.5 116.71875,100.5625 116.75,100.5625 L117.65625,100.75 L121.09375,98.46875 C121.1875,98.46875 124.40625,97.03125 125.875,98.65625 C127.1875,99.28125 128.5625,99.34375 129.9375,98.53125 C132.5625,97.375 135.03125,97.28125 137.4375,98.90625 L139.65625,100.21875 L140.59375,99.59375 C140.59375,99.59375 143.09375,98.90625 144.90625,101.125 C144.15625,97.28125 141.40625,97.15625 141.40625,97.15625 L140.78125,96.59375 L136.90625,95.0625 C136.3125,93.65625 134.90625,92.5625 136.3125,90.875 C137.78125,83.65625 139.5,78.25 136.6875,70.9375 C139.3125,72.0625 141.28125,75.5625 144.5625,74.34375 C144.5625,71.40625 133.75,65.8125 125.5,61.34375 C139.0625,60.625 155.3125,50.65625 149.0625,37.96875 L152,28.78125 C153.40625,31.59375 156.21875,33.71875 158.75,34.625 C156.65625,30.65625 155.46875,18.5 156.65625,10.125 C151.128103,16.7614619 145.167183,23.0251252 138.8125,28.875 C141.9375,29.625 144.71875,29.09375 147.75,28.71875 L145.1875,34.03125 C136.875,29.125 127.125,32.78125 127.0625,39.28125 C127.34375,46.84375 136.6875,47.9375 142.09375,45.28125 C141.03125,52.1875 125.15625,49.65625 125.15625,49.65625 C119.53125,47.71875 114.1875,48.03125 108.28125,48.09375 C109.5,44.3125 116.3125,40.9375 121.53125,42.4375 C114.25,34.25 122.5625,24.09375 132.59375,21 C121.65625,17.375 131.0625,9.03125 139.25,3.0625 C139.25,3.0625 115.71875,12.96875 113.5625,12.9375 C106.875,12.4375 108.6875,4.5 111.25,0.25 L111.21875,0.25 Z M37.34375,9.75 C37.90625,9.75 38.53125,9.8125 39.0625,9.9375 C40.125,10.21875 41.40625,10.34375 41.40625,10.6875 C40.90625,11.5 39.6875,12.46875 38.5,12.4375 C37.3125,12.375 36.625,11.65625 36.25,9.875 C36.375,9.8125 36.8125,9.75 37.34375,9.75 Z M136.40625,37.6875 C137.96875,37.6875 139.8125,38.3125 141.59375,40.25 C140.75,42.75 133.21875,44 132.71875,40.3125 C132.5625,39.1875 134.15625,37.71875 136.40625,37.6875 Z" id="Shape" fill="#D21034" fill-rule="nonzero"></path>
                    <path d="M45.125,31.625 L46.28125,33.28125 L45.125,31.625 Z M46.21875,33.3125 C46.21875,33.3125 46.21875,35.5625 46.6875,35.59375 L46.21875,33.3125 Z M45.65625,36.8125 L46.84375,38.78125 L45.65625,36.8125 Z M43.5625,39.28125 C43.625,39.28125 45.03125,40.90625 45.03125,40.90625 L43.5625,39.28125 Z M46.25,39.65625 C46.25,39.71875 47.5625,42.1875 47.65625,42.1875 L46.25,39.65625 Z M44.53125,41.375 C44.53125,41.375 44.96875,44.375 45.375,44.28125 L44.53125,41.375 Z M42.5625,46.875 L43.875,48.90625 L42.5625,46.875 Z M45.03125,44.75 C45.03125,44.75 45.75,47.59375 46.3125,47.34375 L45.03125,44.75 Z M46.90625,43.03125 C46.9375,43.09375 48.25,44.9375 48.59375,44.6875 L46.90625,43.03125 Z M48.28125,45.40625 L49.53125,47.90625 L48.28125,45.40625 Z M46.21875,47.34375 L47.25,50.28125 L46.21875,47.34375 Z M43.8125,48.84375 C43.8125,48.84375 44.75,52 45.59375,51.5 L43.8125,48.84375 Z M43.46875,53.0625 C43.46875,53.0625 43.53125,54.71875 44.34375,54.8125 L43.46875,53.0625 Z M44.90625,52.21875 C44.90625,52.28125 45.75,53.40625 45.75,53.40625 L44.90625,52.21875 Z M47.3125,50.25 L47.96875,51.34375 L47.3125,50.25 Z M49.5,48.21875 L50.53125,49.5 L49.5,48.21875 Z M44.6875,33.34375 C44.71875,34.75 46.9375,32.84375 47.8125,31.65625 L44.6875,33.34375 Z M43.75,38.21875 C43.75,38.21875 46.15625,36.5 48.03125,33.90625 L43.75,38.21875 Z M42.9375,42.3125 C44.65625,41.84375 47.8125,38.03125 48.4375,36 L42.9375,42.3125 Z M42.59375,46.09375 C43.0625,46.3125 48.9375,42.03125 49.09375,38.9375 L42.59375,46.09375 Z M42.4375,49.375 C42.4375,49.34375 47.8125,48 50.03125,42.09375 L42.4375,49.375 Z M42.1875,53.84375 C42.1875,53.84375 50.78125,48.6875 51.25,44.90625 L42.1875,53.84375 Z M109.1875,62.5 C109.1875,62.5 108.625,66.9375 104.1875,67.625 L109.1875,62.5 Z M110.59375,70.4375 C110.625,70.375 114.84375,65.75 113.75,64.34375 L110.59375,70.4375 Z M120.34375,65.96875 C120.34375,65.96875 120.28125,69.1875 117.65625,71.40625 L120.34375,65.96875 Z M125.59375,66.90625 C125.59375,66.90625 125.6875,70.78125 124.03125,72.34375 L125.59375,66.90625 Z M130.40625,69.21875 C130.40625,69.21875 128.53125,72.875 127.875,73.25 L130.40625,69.21875 Z M130.34375,75.6875 C130.34375,75.6875 132.78125,76.3125 133.5625,74.6875 L130.34375,75.6875 Z M130.96875,80.96875 C130.96875,80.96875 133.21875,81.375 134.28125,79.21875 L130.96875,80.96875 Z M130.71875,85.0625 C130.71875,85.0625 132.5625,86.625 133.8125,84.5625 L130.71875,85.0625 Z M104.4375,55.0625 C104.4375,55.0625 104.21875,62.96875 115.3125,64.5625 C127.71875,68 133.59375,66.1875 134.3125,80.09375 C133.84375,85.40625 133.1875,91.34375 129.3125,89.0625 L104.4375,55.0625 Z M92.625,62.34375 C92.625,62.34375 94.40625,65.5 96.53125,65.28125 C99.34375,64.46875 100.375,66.1875 100.375,66.1875 L92.625,62.34375 Z M85.0625,65.5 C85.0625,65.5 89.75,67.78125 93.71875,64.09375 L85.0625,65.5 Z M85.59375,62.21875 C86,67.6875 79.3125,70.8125 76.65625,70.28125 L85.59375,62.21875 Z M85.90625,83.09375 C85.9375,83.09375 89.53125,80.96875 88.8125,79.46875 L85.90625,83.09375 Z M78.78125,79.9375 C78.875,79.8125 84.8125,79.25 85.90625,77.125 L78.78125,79.9375 Z M76.03125,71.1875 C76.03125,71.1875 84.4375,71.25 85,72.78125 L76.03125,71.1875 Z M87.1875,66.21875 C87.1875,66.21875 79,80.25 94.125,80.25 L87.1875,66.21875 Z M78.5,66.03125 C78.5,66.03125 76.75,71.25 74.25,73.03125 L78.5,66.03125 Z M69.8125,64.21875 C69.8125,64.21875 72.84375,70.09375 69.8125,73 L69.8125,64.21875 Z M61.875,65.875 C61.90625,65.96875 62.84375,74.21875 60.78125,76.5625 L61.875,65.875 Z M57.90625,66.125 C57.90625,66.125 58.21875,71.375 56.65625,73.25 C55.09375,75.125 57.03125,79 57.03125,79 L57.90625,66.125 Z M38.125,81.5 C38.125,81.5 39.25,83.46875 40.78125,82.78125 L38.125,81.5 Z M40,77.21875 C40,77.21875 42.5,78.3125 43.34375,77.90625 L40,77.21875 Z M42.71875,68.40625 C42.71875,68.40625 39.03125,69.4375 40.4375,73.8125 C42.5625,75.53125 44.625,75.25 44.625,75.25 L42.71875,68.40625 Z M35.4375,86.9375 C35.40625,86.9375 35.875,90.375 38.25,87.78125 C39.90625,84.28125 45.125,74.46875 46.34375,71.09375 L35.4375,86.9375 Z M48.78125,69.5 C48.78125,69.5 46.25,67.53125 46.34375,70.28125 C46.28125,72 47.125,72.40625 47.125,72.40625 C47.21875,73.65625 48.3125,75.40625 49.1875,73.8125 C49.5625,72.25 48.9375,71.5625 48.9375,71.5625 L48.78125,69.5 Z M50.40625,68.75 C48.125,68.625 46.875,73.65625 51.28125,70.5 L50.40625,68.75 Z M52.78125,67.0625 C52.78125,67.0625 52.21875,67.84375 51.3125,67 C50.84375,66.1875 49.1875,70.75 52.09375,70.90625 C52.625,69.5625 54.21875,69.1875 54.21875,69.1875 L52.78125,67.0625 Z M55.59375,64.875 C55.59375,64.875 54.28125,65.5 53.8125,65.40625 C52.25,65.75 52.5625,69.40625 54.53125,69.1875 C55.21875,68.40625 55.9375,67.3125 55.9375,67.3125 L55.59375,64.875 Z M43.34375,60.125 C43.28125,60.125 38.1875,68.15625 46.1875,70.28125 L43.34375,60.125 Z M108.0625,48.09375 C108.0625,48.09375 104.9375,50.71875 107.84375,54.96875 C98.15625,54.8125 93,59.28125 92.59375,62.28125 C80.28125,61.40625 82.53125,65.03125 78.53125,66.21875 C73.1875,61.75 65.34375,64.25 65.84375,68.71875 C62.28125,63.6875 56.78125,66.125 56.09375,67.375 C55.4375,68.625 55.6875,61.1875 55.6875,61.1875 C55.6875,61.1875 52.09375,62.8125 49.625,65.75 L49.625,59.53125 C46.625,60.15625 43.71875,60.15625 40.625,60.09375 L108.0625,48.09375 Z M32.53125,57.8125 C32.53125,57.8125 37,60.3125 42.53125,56.9375 L32.53125,57.8125 Z M32.1875,48.84375 C32.1875,48.84375 35.625,51.96875 42.1875,50.96875 L32.1875,48.84375 Z M34.375,41.6875 C34.375,41.6875 35.125,44.21875 42.59375,44.375 L34.375,41.6875 Z M36.875,35.8125 C36.875,35.8125 39.6875,39.25 43.5,38.71875 L36.875,35.8125 Z M39.28125,30.90625 C39.28125,30.90625 40.375,32.78125 44.53125,33.09375 L39.28125,30.90625 Z M41.71875,25.4375 C41.71875,25.4375 43.90625,27.8125 46.40625,27.40625 L41.71875,25.4375 Z M54.6875,6.03125 C54.6875,6.03125 55.65625,5.09375 57.28125,5.5625 L54.6875,6.03125 Z M54,11.125 C54,11.125 51,11.03125 51.1875,9.875 C51.4375,8.5 54.375,7.53125 54.375,7.53125 C54.375,7.53125 58.28125,5.03125 58.875,4.15625 L54,11.125 Z M41.1875,17.90625 L45,25.1875 L46.8125,22.4375 L47.75,24.3125 L49.3125,21.59375 L52,23.3125 L51,19.96875 L53.25,19.8125 C53.25,19.8125 52.625,18.21875 50.625,17.875 C51.15625,17.46875 53.03125,16.21875 53.03125,16.21875 C53.03125,16.21875 51.96875,14.96875 50.28125,14.9375 C50.84375,14.34375 51.59375,12.90625 51.53125,12.90625 L49.875,12.53125 C49.875,12.53125 53.6875,13.78125 56.625,12.03125 L41.1875,17.90625 Z M49.375,6.15625 C49.40625,6.1875 49.15625,7.65625 48.34375,8.5 L49.375,6.15625 Z M34.6875,10.15625 C34.6875,10.15625 37.03125,9.53125 38.78125,9.875 C40.53125,10.25 42.875,10.875 42.875,10.875 C42.875,10.875 45.6875,10.5 46.59375,9.84375 L34.6875,10.15625 Z M28.84375,11.71875 C28.84375,11.71875 28.53125,12.84375 28.40625,13.59375 C28.40625,14.125 26.6875,14.84375 26.6875,14.84375 L28.84375,11.71875 Z M29.90625,9.40625 C29.90625,9.40625 31.40625,11.28125 31.46875,12.375 C31.5,13.4375 30.34375,14.25 30.34375,14.25 L29.90625,9.40625 Z M14.375,22.1875 L12.8125,19.6875 L14.21875,19.1875 L14.375,22.1875 Z M42.5,57 C41.25,55.375 43.4375,30.6875 48.03125,24.25 C46.4375,35.875 51.78125,47.75 53.125,47.6875 L42.5,57 Z M28.4375,17.375 C28.4375,17.375 30.5625,18.15625 34.90625,14.6875 L28.4375,17.375 Z M40.8125,23.0625 L43.9375,23.09375 L40.8125,23.0625 Z M137.78125,3.71875 C137.78125,3.71875 85.6875,28.03125 84.9375,29.34375 C93.71875,26.65625 131.03125,20.4375 131.9375,20.96875 C129.75,21.5 84.46875,31.90625 82.34375,34.40625 C93.65625,34.03125 117.3125,38.03125 121.03125,41.90625 C112.96875,40.09375 88.9375,36.5625 81.5625,38.125 C86.9375,39.40625 107.5625,52.75 107.5625,54.875 C104.4375,51.90625 79.65625,41.6875 78.6875,42.6875 C84.375,46.09375 92.40625,58.75 92.40625,61.84375 C90.75,59.21875 76.40625,43.8125 75.5625,44.8125 C77.09375,46.90625 80.09375,65.09375 78.5625,65.9375 C78.5625,63.75 73,47.8125 72.53125,47.375 C71.40625,47.6875 64.3125,66.75 65.71875,68.5625 C64.78125,62.1875 65.875,48.875 67.59375,49.40625 C64.46875,49.875 54.5625,62.96875 55.625,65.03125 C55.9375,61.75 56.375,59.59375 62,48.75 C55.75,49.125 42.875,57.21875 40.6875,60.125 C42.4375,54.96875 53.34375,46.25 58.125,45.625 L137.78125,3.71875 Z M80.625,26.65625 C86.125,23.59375 103.125,17.375 114.5,12.78125 L80.625,26.65625 Z M69.9375,43.09375 C69.9375,43.09375 73.6875,43.03125 77.4375,32.84375 C81.125,18.90625 110.46875,3.375 111.0625,0.46875 L69.9375,43.09375 Z M20.3125,57.125 C20.3125,57.125 19.4375,59 18.375,59.5 L20.3125,57.125 Z M24.53125,59.9375 C24.53125,59.9375 23.375,62.1875 23.09375,63.25 L24.53125,59.9375 Z M28.5625,61.0625 C28.5625,61.0625 29.5,64.125 28.71875,65.5625 L28.5625,61.0625 Z M17.34375,53.03125 C14.40625,54.6875 19.03125,65.21875 33,66.21875 L17.34375,53.03125 Z M30.75,60.53125 C30.75,60.53125 30.375,62.40625 33,66.15625 C32.25,70.34375 36.1875,73.625 37.75,74.15625 L30.75,60.53125 Z M29.625,22.84375 L30.0625,21.71875 L30.53125,22.96875 L31.3125,22.9375 L31.8125,21.6875 L32.25,22.9375 L33,22.9375 L33.46875,21.5625 L34.1875,22.875 L34.8125,22.875 L35.28125,21.3125 L36.21875,22.4375 L36.59375,22.3125 L36.90625,20.6875 L37.875,21.8125 L38.1875,21.65625 L38.625,20.09375 L39.40625,21.25 L39.8125,21.125 L40.1875,19.78125 L40.9375,21.03125 L29.625,22.84375 Z M28.75,22.96875 L34.625,22.875 C36.5,22.875 39.5625,20.28125 42.96875,21.09375 L28.75,22.96875 Z M16.4375,35.46875 C16.4375,35.46875 17.40625,37.59375 18.75,36.40625 L16.4375,35.46875 Z M14.1875,36.875 C14.1875,36.875 12.3125,41.9375 14.5625,43.125 L14.1875,36.875 Z M11.5,31.3125 C11.5,31.3125 11.5,32.5 14,30.6875 L11.5,31.3125 Z M3.84375,57.78125 C3.84375,57.78125 5.8125,58.40625 5.5,59.875 L3.84375,57.78125 Z M4.5625,34.625 C4.5625,34.625 5.8125,35.21875 7,33.375 L4.5625,34.625 Z M17.6875,92.65625 C19.59375,92.53125 20.03125,93.40625 21.75,93.40625 C23.8125,93.46875 25.78125,92.65625 28.3125,91.9375 L17.6875,92.65625 Z M44.90625,96.625 C44.84375,96.625 43.96875,98.4375 44.75,99.34375 L44.90625,96.625 Z M17.40625,96.78125 C17.40625,96.78125 20.46875,94.28125 22.09375,95.8125 C23.625,96.34375 24.46875,96.25 24.46875,96.25 L17.40625,96.78125 Z M19,89.59375 C19,89.59375 19.75,91.53125 17.25,91.25 L19,89.59375 Z M16.5,94.0625 C16.5,94.0625 18.09375,95.0625 16.28125,96.40625 L16.5,94.0625 Z M17.46875,98.21875 C17.46875,98.21875 19.65625,98.53125 18.375,100.3125 L17.46875,98.21875 Z M88.4375,84.875 C88.4375,84.875 94.375,85.5 94.6875,85.9375 C95.375,85.21875 100.6875,80.875 94.15625,80.28125 C93.5368844,82.9477134 91.1747886,84.8451346 88.4375,84.875 Z M86.3125,87.84375 C88.53125,89.625 87.625,90.6875 94.625,86 L86.3125,87.84375 Z M83.125,90.0625 C83.125,90.0625 86.40625,93.625 88.8125,89.3125 L83.125,90.0625 Z M76.84375,91.34375 L72.375,93.6875 L76.84375,91.34375 Z M64.375,96.96875 C64.375,96.96875 67.09375,94.65625 68.34375,95.875 C69.625,97.125 75,94.8125 75,94.8125 L64.375,96.96875 Z M66.40625,86.875 C66.40625,86.875 67.34375,88.75 65.53125,88.96875 L66.40625,86.875 Z M62.875,92.6875 C62.875,92.6875 63.8125,94.4375 62,94.875 L62.875,92.6875 Z M64.96875,97.40625 C64.96875,97.40625 67.78125,97.5625 66.78125,99.6875 L64.96875,97.40625 Z M91.28125,97.03125 C91.28125,97.03125 89.71875,98.34375 90.875,99.84375 L91.28125,97.03125 Z M113.6875,87.65625 C113.6875,87.65625 115.46875,88.53125 113.34375,90 L113.6875,87.65625 Z M111.5625,93.09375 C111.5625,93.09375 112.90625,94.5 112,95.65625 L111.5625,93.09375 Z M115.3125,98.46875 C115.3125,98.46875 117.15625,99 116.9375,100.53125 L115.3125,98.46875 Z M141.25,97.09375 C141.25,97.09375 139.6875,98.25 140.53125,99.71875 L141.25,97.09375 Z M113.75,51.96875 C117.4375,51.53125 122.75,59.78125 125.46875,61.375 L113.75,51.96875 Z M141.6875,40.3125 C141.6875,40.3125 143.5625,41.96875 141.90625,45.9375 L141.6875,40.3125 Z M145.15625,34 C145.6875,34.40625 147.6875,35.5 149.03125,38 L145.15625,34 Z M150.3125,21.6875 L147.71875,28.71875 L150.3125,21.6875 Z M153.21875,21.34375 C153.21875,21.34375 152.71875,27.59375 151.96875,28.84375 L153.21875,21.34375 Z M141.5625,40.25 C140.71875,42.75 133.1875,44 132.6875,40.3125 C132.40625,38.4375 137.125,35.53125 141.5625,40.25 Z" id="Shape" stroke-linejoin="round"></path>
                    <path d="M37.28125,9.78125 L40.1875,10.3125 C40.1875,10.3125 38.15625,13.0625 37.28125,9.78125 Z" id="Path" fill="#000000" stroke-linejoin="round"></path>
                </g>
            </g>
        </g>
    </g>
</svg>