<?xml version="1.0" encoding="UTF-8"?>
<svg width="200px" height="150px" viewBox="0 0 200 150" version="1.1" xmlns="http://www.w3.org/2000/svg" xmlns:xlink="http://www.w3.org/1999/xlink">
    <!-- Generator: Sketch 52.5 (67469) - http://www.bohemiancoding.com/sketch -->
    <title>ai</title>
    <desc>Created with Sketch.</desc>
    <defs>
        <polygon id="path-1" points="0 0 200 0 200 150 0 150"></polygon>
    </defs>
    <g id="Flags" stroke="none" stroke-width="1" fill="none" fill-rule="evenodd">
        <g id="North-America" transform="translate(-290.000000, -50.000000)">
            <g id="ai" transform="translate(290.000000, 50.000000)">
                <mask id="mask-2" fill="white">
                    <use xlink:href="#path-1"></use>
                </mask>
                <g id="Path"></g>
                <g id="Group" mask="url(#mask-2)">
                    <polygon id="Path" fill="#FFFFFF" points="0.125 0.125 125.96875 0.125 125.96875 75.125 0.125 75.125"></polygon>
                    <polygon id="Path" fill="#CC0000" points="0.125 0.125 0.125 5.75 30.15625 24.28125 41.4375 24.6875 0.15625 0.125"></polygon>
                    <polygon id="Path" fill="#000066" points="13 0.125 49.40625 22.9375 49.40625 0.15625 13 0.15625"></polygon>
                    <polygon id="Path" fill="#CC0000" points="54.25 0.125 54.25 29.28125 0.125 29.28125 0.125 45.9375 54.25 45.9375 54.25 75.0625 70.9375 75.0625 70.9375 45.9375 125.0625 45.9375 125.0625 29.28125 70.90625 29.28125 70.90625 0.125"></polygon>
                    <polygon id="Path" fill="#000066" points="75.75 0.125 75.75 21.625 111.375 0.3125 75.75 0.15625"></polygon>
                    <polygon id="Path" fill="#CC0000" points="76.875 24 86.875 23.90625 125.84375 0.28125 115.53125 0.5 76.875 23.96875"></polygon>
                    <path d="M125.40625,6.5625 L95.71875,24.28125 L125.03125,24.40625 L125.03125,50.78125 L100.03125,50.78125 L124.78125,66.875 L125.15625,75.0625 L111.9375,74.875 L75.75,53.5625 L75.75,75.0625 L49.40625,75.0625 L49.40625,53.5625 L15.46875,75 L0.15625,75.0625 L0.15625,150 L249.90625,150 L249.90625,0.125 L125.6875,0 L125.40625,6.5625 Z M0.125,8.4375 L0,24.0625 L26.3125,24.375 L0.125,8.46875 L0.125,8.4375 Z M0.125,50.78125 L0.125,66.71875 L25.125,50.9375 L0.125,50.78125 Z" id="Shape" fill="#000066" fill-rule="nonzero"></path>
                    <path d="M96.3125,51.4375 L85.90625,51.34375 L125.15625,74.78125 L124.90625,69.4375 L96.3125,51.4375 Z M9.875,75.1875 L46.6875,52 L37,52.09375 L0.125,75.15625 L9.875,75.1875 Z" id="Shape" fill="#CC0000" fill-rule="nonzero"></path>
                    <path d="M164.1875,77.4375 L164.8125,78.0625 L164.1875,77.4375 Z" id="Path" fill="#49497D"></path>
                    <path d="M164.8125,77.4375 L165.4375,78.0625 L164.8125,77.4375 Z" id="Path" fill="#0E0E6E"></path>
                    <path d="M162.90625,78.0625 L163.53125,78.6875 L162.90625,78.0625 Z" id="Path" fill="#262678"></path>
                    <path d="M163.5625,78.0625 L164.1875,78.6875 L163.5625,78.0625 Z" id="Path" fill="#808067"></path>
                    <path d="M165.4375,78.0625 L166.0625,78.6875 L165.4375,78.0625 Z" id="Path" fill="#58587B"></path>
                    <path d="M141.96875,78.71875 L142.59375,79.34375 L141.96875,78.71875 Z" id="Path" fill="#0E0E6E"></path>
                    <path d="M161.65625,78.71875 L162.28125,79.34375 L161.65625,78.71875 Z" id="Path" fill="#1B1B74"></path>
                    <path d="M162.28125,78.71875 L162.90625,79.34375 L162.28125,78.71875 Z" id="Path" fill="#6E6C70"></path>
                    <path d="M143.09375,79.84375 C143.09375,96.25 141.21875,114.71875 153.40625,127.5625 C155.90625,130.1875 160.71875,136.21875 164.8125,136 C169.09375,135.75 174.625,129.40625 177.0625,126.3125 C187.6875,112.3125 186.03125,95.625 186.375,79.375 C181.59375,81.53125 179.1875,82.25 175,82.21875 C171.875,82.53125 167.09375,80.46875 164.21875,79.09375 C162.34375,80.34375 159.625,81.84375 154.71875,82 C149.09375,82.25 147.28125,81.28125 143.09375,79.84375 Z" id="Path" fill="#CCCC33"></path>
                    <path d="M166.09375,78.71875 L166.71875,79.34375 L166.09375,78.71875 Z" id="Path" fill="#99994E"></path>
                    <path d="M166.71875,78.71875 L167.34375,79.34375 L166.71875,78.71875 Z" id="Path" fill="#49497D"></path>
                    <path d="M186.375,78.71875 L187,79.34375 L186.375,78.71875 Z" id="Path" fill="#0E0E6E"></path>
                    <path d="M142.625,79.34375 L143.25,79.96875 L142.625,79.34375 Z" id="Path" fill="#A4A43D"></path>
                    <path d="M143.25,79.34375 L143.875,79.96875 L143.25,79.34375 Z" id="Path" fill="#6E6C70"></path>
                    <path d="M143.875,79.34375 L144.5,79.96875 L143.875,79.34375 Z" id="Path" fill="#3A3A7C"></path>
                    <path d="M160.375,79.34375 L161,79.96875 L160.375,79.34375 Z" id="Path" fill="#1B1B74"></path>
                    <path d="M161,79.34375 L161.625,79.96875 L161,79.34375 Z" id="Path" fill="#6E6C70"></path>
                    <path d="M161.65625,79.34375 L162.28125,79.96875 L161.65625,79.34375 Z" id="Path" fill="#A4A43D"></path>
                    <path d="M164.1875,79.34375 L164.8125,79.96875 L164.1875,79.34375 Z" id="Path" fill="#D0D045"></path>
                    <path d="M166.71875,79.34375 L167.34375,79.96875 L166.71875,79.34375 Z" id="Path" fill="#A4A43D"></path>
                    <path d="M167.34375,79.34375 L167.96875,79.96875 L167.34375,79.34375 Z" id="Path" fill="#8D8D5B"></path>
                    <path d="M168,79.34375 L168.625,79.96875 L168,79.34375 Z" id="Path" fill="#3A3A7C"></path>
                    <path d="M184.46875,79.34375 L185.09375,79.96875 L184.46875,79.34375 Z" id="Path" fill="#262678"></path>
                    <path d="M185.125,79.34375 L185.75,79.96875 L185.125,79.34375 Z" id="Path" fill="#53527C"></path>
                    <path d="M185.75,79.34375 L186.375,79.96875 L185.75,79.34375 Z" id="Path" fill="#8D8D5B"></path>
                    <path d="M145.15625,80 L145.78125,80.625 L145.15625,80 Z" id="Path" fill="#737370"></path>
                    <path d="M145.78125,80 L146.40625,80.625 L145.78125,80 Z" id="Path" fill="#53527C"></path>
                    <path d="M146.40625,80 L147.03125,80.625 L146.40625,80 Z" id="Path" fill="#1B1B74"></path>
                    <path d="M159.09375,80 L159.71875,80.625 L159.09375,80 Z" id="Path" fill="#262678"></path>
                    <polygon id="Path" fill="#6E6C70" points="159.75 80 160.375 80.625 159.75 80"></polygon>
                    <path d="M160.375,80 L161,80.625 L160.375,80 Z" id="Path" fill="#A4A43D"></path>
                    <path d="M163.5625,80 L164.1875,80.625 L163.5625,80 Z" id="Path" fill="#E5E59D"></path>
                    <path d="M144.375,81.625 C144.0625,90.25 144.3125,99.9375 145.65625,109.15625 C147.15625,113.96875 146.9375,116.625 149.15625,119.5 L180.09375,119.25 C181.96875,116.21875 183.375,111.625 183.53125,109.78125 C185.28125,100.5 185.3125,90.21875 185.375,81.03125 C181.97206,82.9027723 178.08522,83.7084479 174.21875,83.34375 C170.860901,83.1420079 167.596828,82.1574349 164.6875,80.46875 C161.71875,82.21875 160.6875,83.03125 155.8125,83.25 C152,83.4375 148.9375,83.75 144.375,81.625 Z" id="Path" fill="#FFFFFF"></path>
                    <path d="M164.8125,80 L165.4375,80.625 L164.8125,80 Z" id="Path" fill="#F2F1D7"></path>
                    <path d="M165.4375,80 L166.0625,80.625 L165.4375,80 Z" id="Path" fill="#D9D868"></path>
                    <path d="M168,80 L168.625,80.625 L168,80 Z" id="Path" fill="#A4A43D"></path>
                    <path d="M168.625,80 L169.25,80.625 L168.625,80 Z" id="Path" fill="#99994E"></path>
                    <path d="M169.25,80 L169.875,80.625 L169.25,80 Z" id="Path" fill="#49497D"></path>
                    <path d="M169.875,80 L170.5,80.625 L169.875,80 Z" id="Path" fill="#0E0E6E"></path>
                    <path d="M182.59375,80 L183.21875,80.625 L182.59375,80 Z" id="Path" fill="#3A3A7C"></path>
                    <path d="M183.21875,80 L183.84375,80.625 L183.21875,80 Z" id="Path" fill="#666677"></path>
                    <path d="M183.84375,80 L184.46875,80.625 L183.84375,80 Z" id="Path" fill="#99994E"></path>
                    <path d="M184.46875,80 L185.09375,80.625 L184.46875,80 Z M146.40625,80.625 L147.03125,81.25 L146.40625,80.625 Z" id="Shape" fill="#A4A43D" fill-rule="nonzero"></path>
                    <path d="M147.0625,80.625 L147.6875,81.25 L147.0625,80.625 Z" id="Path" fill="#99994E"></path>
                    <path d="M147.6875,80.625 L148.3125,81.25 L147.6875,80.625 Z" id="Path" fill="#6E6C70"></path>
                    <path d="M148.3125,80.625 L148.9375,81.25 L148.3125,80.625 Z" id="Path" fill="#49497D"></path>
                    <path d="M148.9375,80.625 L149.5625,81.625 L148.9375,80.625 Z M157.1875,80.625 L157.8125,81.625 L157.1875,80.625 Z" id="Shape" fill="#1B1B74" fill-rule="nonzero"></path>
                    <polygon id="Path" fill="#53527C" points="157.8125 80.625 158.46875 81.25 157.84375 80.625"></polygon>
                    <path d="M158.46875,80.625 L159.09375,81.25 L158.46875,80.625 Z" id="Path" fill="#8D8D5B"></path>
                    <path d="M159.09375,80.625 L159.71875,81.25 L159.09375,80.625 Z" id="Path" fill="#A4A43D"></path>
                    <path d="M162.28125,80.625 L162.90625,81.25 L162.28125,80.625 Z" id="Path" fill="#E5E59D"></path>
                    <path d="M162.90625,80.625 L163.53125,81.25 L162.90625,80.625 Z" id="Path" fill="#FBFAF2"></path>
                    <path d="M166.09375,80.625 L166.71875,81.25 L166.09375,80.625 Z" id="Path" fill="#F2F1D2"></path>
                    <path d="M166.71875,80.625 L167.34375,81.25 L166.71875,80.625 Z" id="Path" fill="#D9D868"></path>
                    <path d="M169.875,80.625 L170.5,81.25 L169.875,80.625 Z" id="Path" fill="#A4A43D"></path>
                    <path d="M170.53125,80.625 L171.15625,81.25 L170.53125,80.625 Z" id="Path" fill="#6E6C70"></path>
                    <path d="M171.15625,80.625 L171.78125,81.25 L171.15625,80.625 Z" id="Path" fill="#3A3A7C"></path>
                    <path d="M179.40625,80.625 L180.03125,81.25 L179.40625,80.625 Z" id="Path" fill="#0E0E6E"></path>
                    <path d="M180.03125,80.625 L180.65625,81.25 L180.03125,80.625 Z" id="Path" fill="#32327B"></path>
                    <path d="M180.6875,80.625 L181.3125,81.25 L180.6875,80.625 Z" id="Path" fill="#58587B"></path>
                    <path d="M181.3125,80.625 L181.9375,81.25 L181.3125,80.625 Z" id="Path" fill="#808067"></path>
                    <path d="M182.375,80.8125 L182.78125,81.03125 L182.375,80.8125 Z" id="Path" fill="#A4A43D"></path>
                    <path d="M143.875,81.25 L144.5,81.875 L143.875,81.25 Z" id="Path" fill="#DDDC7A"></path>
                    <path d="M144.5,81.25 L145.125,81.875 L144.5,81.25 Z" id="Path" fill="#D0D045"></path>
                    <path d="M149.375,81.4375 L149.8125,81.65625 L149.375,81.4375 Z" id="Path" fill="#A4A43D"></path>
                    <path d="M150.21875,81.25 L150.84375,81.875 L150.21875,81.25 Z" id="Path" fill="#808067"></path>
                    <path d="M150.84375,81.25 L151.46875,81.875 L150.84375,81.25 Z" id="Path" fill="#666677"></path>
                    <path d="M151.5,81.25 L152.125,81.875 L151.5,81.25 Z" id="Path" fill="#58587B"></path>
                    <path d="M152.125,81.25 L152.75,81.875 L152.125,81.25 Z" id="Path" fill="#49497D"></path>
                    <path d="M155.9375,81.25 L156.5625,81.875 L155.9375,81.25 Z" id="Path" fill="#737370"></path>
                    <path d="M156.5625,81.25 L157.1875,81.875 L156.5625,81.25 Z" id="Path" fill="#99994E"></path>
                    <path d="M157.1875,81.25 L157.8125,81.875 L157.1875,81.25 Z" id="Path" fill="#A4A43D"></path>
                    <path d="M161,81.25 L161.625,81.875 L161,81.25 Z" id="Path" fill="#E5E59D"></path>
                    <path d="M161.65625,81.25 L162.28125,81.875 L161.65625,81.25 Z" id="Path" fill="#FBFAF2"></path>
                    <path d="M167.34375,81.25 L167.96875,81.875 L167.34375,81.25 Z" id="Path" fill="#F2F1D2"></path>
                    <path d="M168,81.25 L168.625,81.875 L168,81.25 Z" id="Path" fill="#D9D868"></path>
                    <polygon id="Path" fill="#A4A43D" points="171.5625 81.4375 172 81.65625 171.59375 81.4375"></polygon>
                    <path d="M172.4375,81.25 L173.0625,81.875 L172.4375,81.25 Z" id="Path" fill="#808067"></path>
                    <path d="M173.0625,81.25 L173.6875,81.875 L173.0625,81.25 Z" id="Path" fill="#666677"></path>
                    <path d="M173.6875,81.25 L174.3125,81.875 L173.6875,81.25 Z" id="Path" fill="#58587B"></path>
                    <path d="M174.34375,81.25 L174.96875,81.875 L174.34375,81.25 Z" id="Path" fill="#3A3A7C"></path>
                    <path d="M177.28125,81.4375 L177.71875,81.65625 L177.28125,81.4375 Z" id="Path" fill="#58587B"></path>
                    <path d="M178.125,81.25 L178.75,81.875 L178.125,81.25 Z" id="Path" fill="#737370"></path>
                    <polygon id="Path" fill="#99994E" points="178.75 81.25 179.40625 81.875 178.78125 81.25"></polygon>
                    <path d="M179.40625,81.25 L180.03125,81.875 L179.40625,81.25 Z" id="Path" fill="#A4A43D"></path>
                    <path d="M184.46875,81.25 L185.09375,81.875 L184.46875,81.25 Z" id="Path" fill="#DDDC7A"></path>
                    <path d="M185.125,81.25 L185.75,81.875 L185.125,81.25 Z" id="Path" fill="#D0D045"></path>
                    <path d="M145.15625,81.875 L145.78125,82.5 L145.15625,81.875 Z" id="Path" fill="#F2F1D7"></path>
                    <path d="M145.78125,81.875 L146.40625,82.5 L145.78125,81.875 Z" id="Path" fill="#E0DEA1"></path>
                    <path d="M146.40625,81.875 L147.03125,82.5 L146.40625,81.875 Z" id="Path" fill="#DDDC7A"></path>
                    <path d="M159.09375,81.875 L159.71875,82.5 L159.09375,81.875 Z" id="Path" fill="#D9D868"></path>
                    <polygon id="Path" fill="#E5E3AF" points="159.75 81.875 160.375 82.5 159.75 81.875"></polygon>
                    <path d="M168.625,81.875 L169.25,82.5 L168.625,81.875 Z" id="Path" fill="#F6F6E4"></path>
                    <path d="M169.25,81.875 L169.875,82.5 L169.25,81.875 Z" id="Path" fill="#E1E18C"></path>
                    <path d="M181.9375,81.875 L182.5625,82.5 L181.9375,81.875 Z" id="Path" fill="#D4D456"></path>
                    <path d="M182.59375,81.875 L183.21875,82.5 L182.59375,81.875 Z" id="Path" fill="#E1E18C"></path>
                    <path d="M183.21875,81.875 L183.84375,82.5 L183.21875,81.875 Z" id="Path" fill="#EEEDC1"></path>
                    <path d="M147.6875,82.5 L148.3125,83.125 L147.6875,82.5 Z" id="Path" fill="#F2F1D2"></path>
                    <path d="M148.3125,82.5 L148.9375,83.125 L148.3125,82.5 Z" id="Path" fill="#E0DEA1"></path>
                    <path d="M148.9375,82.5 L149.5625,83.125 L148.9375,82.5 Z" id="Path" fill="#DDDC7A"></path>
                    <path d="M149.59375,82.5 L150.21875,83.125 L149.59375,82.5 Z" id="Path" fill="#D0D045"></path>
                    <path d="M157.1875,82.5 L157.8125,83.125 L157.1875,82.5 Z" id="Path" fill="#DDDC7A"></path>
                    <polygon id="Path" fill="#E5E3AF" points="157.8125 82.5 158.46875 83.125 157.84375 82.5"></polygon>
                    <path d="M158.46875,82.5 L159.09375,83.125 L158.46875,82.5 Z" id="Path" fill="#F6F6E4"></path>
                    <path d="M170.53125,82.5 L171.15625,83.125 L170.53125,82.5 Z" id="Path" fill="#EEEDC1"></path>
                    <path d="M171.15625,82.5 L171.78125,83.125 L171.15625,82.5 Z" id="Path" fill="#E1E18C"></path>
                    <path d="M171.78125,82.5 L172.40625,83.125 L171.78125,82.5 Z" id="Path" fill="#D4D456"></path>
                    <path d="M179.40625,82.5 L180.03125,83.125 L179.40625,82.5 Z" id="Path" fill="#D9D868"></path>
                    <path d="M180.03125,82.5 L180.65625,83.125 L180.03125,82.5 Z" id="Path" fill="#E1E18C"></path>
                    <path d="M180.6875,82.5 L181.3125,83.125 L180.6875,82.5 Z" id="Path" fill="#EEEDC1"></path>
                    <path d="M181.3125,82.5 L181.9375,83.125 L181.3125,82.5 Z" id="Path" fill="#F6F6E4"></path>
                    <polygon id="Path" fill="#F2F1D7" points="150.84375 83.125 151.46875 83.78125 150.84375 83.15625"></polygon>
                    <polygon id="Path" fill="#F2F1D2" points="151.5 83.125 152.125 83.78125 151.5 83.15625"></polygon>
                    <polygon id="Path" fill="#EEEDC1" points="152.125 83.125 152.75 83.78125 152.125 83.15625"></polygon>
                    <path d="M155.09375,83.34375 L155.5,83.5625 L155.09375,83.34375 Z" id="Path" fill="#F2F1D2"></path>
                    <polygon id="Path" fill="#FBFAF2" points="155.9375 83.125 156.5625 83.78125 155.9375 83.15625"></polygon>
                    <polygon id="Path" fill="#FEF8F1" points="159.09375 83.125 160.34375 84.40625 160.34375 83.15625 159.09375 83.15625"></polygon>
                    <polygon id="Path" fill="#F2F1D7" points="173.0625 83.125 173.6875 83.78125 173.0625 83.15625"></polygon>
                    <polygon id="Path" fill="#F2F1D2" points="173.6875 83.125 174.3125 83.78125 173.6875 83.15625"></polygon>
                    <polygon id="Path" fill="#E5E3AF" points="174.34375 83.125 174.96875 83.78125 174.34375 83.15625"></polygon>
                    <polygon id="Path" fill="#E5E59D" points="175.40625 83.34375 175.8125 83.5625 175.375 83.34375"></polygon>
                    <polygon id="Path" fill="#E0DEA1" points="176.25 83.125 176.875 83.78125 176.25 83.15625"></polygon>
                    <path d="M177.28125,83.34375 L177.71875,83.5625 L177.28125,83.34375 Z" id="Path" fill="#F2F1D2"></path>
                    <polygon id="Path" fill="#FBFAF2" points="178.125 83.125 178.75 83.78125 178.125 83.15625"></polygon>
                    <polygon id="Path" fill="#FEF8F1" points="157.8125 83.78125 158.46875 84.40625 157.84375 83.78125"></polygon>
                    <path d="M158.46875,83.78125 L159.09375,84.40625 L158.46875,83.78125 Z" id="Path" fill="#FBBE66"></path>
                    <polygon id="Path" fill="#FBC477" points="157.8125 84.40625 158.46875 85.03125 157.84375 84.40625"></polygon>
                    <path d="M159.09375,84.40625 L159.71875,85.03125 L159.09375,84.40625 Z" id="Path" fill="#FCB144"></path>
                    <polygon id="Path" fill="#FE9F11" points="157.8125 85.0625 158.46875 85.6875 157.84375 85.0625"></polygon>
                    <path d="M159.09375,85.0625 L159.71875,85.6875 L159.09375,85.0625 Z" id="Path" fill="#FEA522"></path>
                    <path d="M157.1875,85.6875 L157.8125,86.6875 L157.1875,85.6875 Z M159.75,85.6875 L160.375,86.6875 L159.75,85.6875 Z" id="Shape" fill="#FAE3C9" fill-rule="nonzero"></path>
                    <path d="M162.90625,85.6875 L163.53125,86.3125 L162.90625,85.6875 Z" id="Path" fill="#FBEAD6"></path>
                    <path d="M163.5625,85.6875 L164.1875,86.3125 L163.5625,85.6875 Z" id="Path" fill="#F9D6AA"></path>
                    <path d="M166.09375,85.6875 L166.71875,86.3125 L166.09375,85.6875 Z" id="Path" fill="#FAE3C9"></path>
                    <path d="M166.71875,85.6875 L167.34375,86.3125 L166.71875,85.6875 Z" id="Path" fill="#FEF8F1"></path>
                    <path d="M157.1875,86.3125 L157.8125,86.9375 L157.1875,86.3125 Z" id="Path" fill="#F9D099"></path>
                    <polygon id="Path" fill="#FDAB33" points="159.75 86.3125 160.375 86.9375 159.75 86.3125"></polygon>
                    <path d="M161,86.3125 L161.625,86.9375 L161,86.3125 Z" id="Path" fill="#FCF1E4"></path>
                    <path d="M161.65625,86.3125 L162.28125,86.9375 L161.65625,86.3125 Z" id="Path" fill="#FBC477"></path>
                    <path d="M162.28125,86.3125 L162.90625,86.9375 L162.28125,86.3125 Z" id="Path" fill="#FEA522"></path>
                    <path d="M167.34375,86.3125 L167.96875,86.9375 L167.34375,86.3125 Z" id="Path" fill="#FCB755"></path>
                    <path d="M168,86.3125 L168.625,86.9375 L168,86.3125 Z" id="Path" fill="#F9D6AA"></path>
                    <path d="M157.1875,86.96875 L157.8125,87.59375 L157.1875,86.96875 Z" id="Path" fill="#FACA88"></path>
                    <path d="M160.375,86.96875 L161,87.96875 L160.375,86.96875 Z M168.625,86.96875 L169.25,87.96875 L168.625,86.96875 Z" id="Shape" fill="#FEA522" fill-rule="nonzero"></path>
                    <path d="M169.25,86.96875 L169.875,87.59375 L169.25,86.96875 Z" id="Path" fill="#F8DCBB"></path>
                    <path d="M143.875,87.59375 L144.5,88.21875 L143.875,87.59375 Z" id="Path" fill="#F6F6E4"></path>
                    <path d="M157.1875,87.59375 L157.8125,88.21875 L157.1875,87.59375 Z" id="Path" fill="#FBC477"></path>
                    <path d="M169.875,87.59375 L170.5,88.21875 L169.875,87.59375 Z" id="Path" fill="#FBBE66"></path>
                    <path d="M170.53125,87.59375 L171.15625,88.21875 L170.53125,87.59375 Z" id="Path" fill="#F8DCBB"></path>
                    <path d="M157.1875,88.21875 L157.8125,88.84375 L157.1875,88.21875 Z" id="Path" fill="#FACA88"></path>
                    <path d="M171.78125,88.21875 L172.40625,88.84375 L171.78125,88.21875 Z" id="Path" fill="#FCB755"></path>
                    <path d="M172.4375,88.21875 L173.0625,88.84375 L172.4375,88.21875 Z" id="Path" fill="#F8DCBB"></path>
                    <path d="M156.5625,88.875 L157.1875,89.5 L156.5625,88.875 Z" id="Path" fill="#FEF8F1"></path>
                    <path d="M157.1875,88.875 L157.8125,89.5 L157.1875,88.875 Z" id="Path" fill="#FE9F11"></path>
                    <path d="M174.96875,88.875 L175.59375,89.5 L174.96875,88.875 Z" id="Path" fill="#FDAB33"></path>
                    <path d="M175.625,88.875 L176.25,89.5 L175.625,88.875 Z" id="Path" fill="#FCB144"></path>
                    <path d="M176.25,88.875 L176.875,89.5 L176.25,88.875 Z" id="Path" fill="#FBC477"></path>
                    <path d="M176.875,88.875 L178.125,90.125 L176.875,88.875 Z" id="Path" fill="#F9D6AA"></path>
                    <path d="M177.5,88.875 L178.125,89.5 L177.5,88.875 Z" id="Path" fill="#FEF8F1"></path>
                    <path d="M156.5625,89.5 L157.1875,90.125 L156.5625,89.5 Z" id="Path" fill="#FCB144"></path>
                    <path d="M165.4375,89.5 L166.0625,90.125 L165.4375,89.5 Z" id="Path" fill="#FDAB33"></path>
                    <path d="M166.09375,89.5 L166.71875,90.5 L166.09375,89.5 Z M168.59375,89.5 L169.25,90.5 L168.625,89.5 L168.59375,89.5 Z" id="Shape" fill="#FBC477" fill-rule="nonzero"></path>
                    <path d="M169.25,89.5 L169.875,90.125 L169.25,89.5 Z" id="Path" fill="#FEA522"></path>
                    <path d="M155.9375,90.125 L156.5625,90.75 L155.9375,90.125 Z" id="Path" fill="#FAE3C9"></path>
                    <path d="M164.1875,90.125 L164.8125,90.75 L164.1875,90.125 Z" id="Path" fill="#FCB144"></path>
                    <path d="M164.8125,90.125 L165.4375,90.75 L164.8125,90.125 Z" id="Path" fill="#FAE3C9"></path>
                    <path d="M169.875,90.125 L170.5,90.75 L169.875,90.125 Z" id="Path" fill="#F8DCBB"></path>
                    <path d="M170.53125,90.125 L171.15625,90.75 L170.53125,90.125 Z" id="Path" fill="#FDAB33"></path>
                    <path d="M174.34375,90.125 L174.96875,90.75 L174.34375,90.125 Z" id="Path" fill="#FE9F11"></path>
                    <path d="M174.96875,90.125 L175.59375,90.75 L174.96875,90.125 Z" id="Path" fill="#FCB755"></path>
                    <path d="M175.625,90.125 L176.25,90.75 L175.625,90.125 Z" id="Path" fill="#F9D099"></path>
                    <path d="M176.25,90.125 L176.875,90.75 L176.25,90.125 Z" id="Path" fill="#FBEAD6"></path>
                    <path d="M155.9375,90.75 L156.5625,91.375 L155.9375,90.75 Z" id="Path" fill="#FCB144"></path>
                    <path d="M163.5625,90.75 L164.1875,91.375 L163.5625,90.75 Z" id="Path" fill="#FBBE66"></path>
                    <path d="M171.15625,90.75 L171.78125,91.375 L171.15625,90.75 Z" id="Path" fill="#F9D099"></path>
                    <path d="M173.6875,90.75 L174.3125,91.375 L173.6875,90.75 Z" id="Path" fill="#FBEAD6"></path>
                    <path d="M155.3125,91.40625 L155.9375,92.03125 L155.3125,91.40625 Z" id="Path" fill="#FCF1E4"></path>
                    <path d="M162.90625,91.40625 L163.53125,92.03125 L162.90625,91.40625 Z" id="Path" fill="#FBBE66"></path>
                    <path d="M171.78125,91.40625 L172.40625,92.03125 L171.78125,91.40625 Z" id="Path" fill="#F9D099"></path>
                    <path d="M173.6875,91.40625 L174.3125,92.03125 L173.6875,91.40625 Z" id="Path" fill="#FAE3C9"></path>
                    <path d="M155.3125,92.03125 L155.9375,92.65625 L155.3125,92.03125 Z" id="Path" fill="#FBC477"></path>
                    <path d="M162.28125,92.03125 L162.90625,93.03125 L162.28125,92.03125 Z M172.4375,92.03125 L173.0625,93.03125 L172.4375,92.03125 Z" id="Shape" fill="#FCB144" fill-rule="nonzero"></path>
                    <path d="M173.6875,92.03125 L174.3125,92.65625 L173.6875,92.03125 Z" id="Path" fill="#FBBE66"></path>
                    <path d="M143.875,92.65625 L144.5,93.28125 L143.875,92.65625 Z" id="Path" fill="#F6F6E4"></path>
                    <path d="M155.3125,92.65625 L155.9375,93.28125 L155.3125,92.65625 Z" id="Path" fill="#FEA522"></path>
                    <path d="M162.28125,92.65625 L162.90625,93.28125 L162.28125,92.65625 Z" id="Path" fill="#FBEAD6"></path>
                    <path d="M172.4375,92.65625 L173.0625,93.28125 L172.4375,92.65625 Z" id="Path" fill="#FCF1E4"></path>
                    <path d="M174.34375,92.65625 L174.96875,93.28125 L174.34375,92.65625 Z" id="Path" fill="#FEF8F1"></path>
                    <path d="M154.6875,93.3125 L155.3125,93.9375 L154.6875,93.3125 Z" id="Path" fill="#FCF1E4"></path>
                    <path d="M161.65625,93.3125 L162.28125,93.9375 L161.65625,93.3125 Z" id="Path" fill="#FBBE66"></path>
                    <path d="M173.0625,93.3125 L173.6875,93.9375 L173.0625,93.3125 Z" id="Path" fill="#FACA88"></path>
                    <path d="M174.34375,93.3125 L174.96875,93.9375 L174.34375,93.3125 Z" id="Path" fill="#F9D099"></path>
                    <path d="M154.6875,93.9375 L155.3125,94.5625 L154.6875,93.9375 Z" id="Path" fill="#F9D6AA"></path>
                    <path d="M161.65625,93.9375 L162.28125,94.5625 L161.65625,93.9375 Z" id="Path" fill="#FCF1E4"></path>
                    <path d="M164.8125,93.9375 L165.4375,94.5625 L164.8125,93.9375 Z" id="Path" fill="#FAE3C9"></path>
                    <path d="M165.4375,93.9375 L166.0625,94.5625 L165.4375,93.9375 Z" id="Path" fill="#FEA522"></path>
                    <path d="M166.09375,93.9375 L166.71875,94.5625 L166.09375,93.9375 Z" id="Path" fill="#FCB144"></path>
                    <path d="M166.71875,93.9375 L167.34375,94.5625 L166.71875,93.9375 Z" id="Path" fill="#F9D6AA"></path>
                    <path d="M173.0625,93.9375 L173.6875,94.5625 L173.0625,93.9375 Z" id="Path" fill="#FEF8F1"></path>
                    <path d="M173.6875,93.9375 L174.3125,94.5625 L173.6875,93.9375 Z" id="Path" fill="#FEA522"></path>
                    <path d="M174.34375,93.9375 L174.96875,94.5625 L174.34375,93.9375 Z" id="Path" fill="#FDAB33"></path>
                    <polygon id="Path" fill="#FACA88" points="154.6875 94.5625 154.03125 96.46875 154.65625 94.59375"></polygon>
                    <path d="M161,94.5625 L161.625,95.1875 L161,94.5625 Z" id="Path" fill="#FEA522"></path>
                    <path d="M161.65625,94.5625 L162.28125,95.1875 L161.65625,94.5625 Z" id="Path" fill="#FEF8F1"></path>
                    <path d="M164.8125,94.5625 L165.4375,95.1875 L164.8125,94.5625 Z" id="Path" fill="#F9D099"></path>
                    <path d="M167.34375,94.5625 L167.96875,95.1875 L167.34375,94.5625 Z" id="Path" fill="#FDAB33"></path>
                    <path d="M168,94.5625 L168.625,95.1875 L168,94.5625 Z" id="Path" fill="#FAE3C9"></path>
                    <path d="M173.6875,94.5625 L174.3125,95.1875 L173.6875,94.5625 Z" id="Path" fill="#F8DCBB"></path>
                    <path d="M174.34375,94.5625 L174.96875,95.1875 L174.34375,94.5625 Z" id="Path" fill="#FF9900"></path>
                    <path d="M175.1875,95 L175.375,95.40625 L175.1875,95 Z" id="Path" fill="#FBEAD6"></path>
                    <path d="M162.28125,95.1875 L162.90625,95.8125 L162.28125,95.1875 Z" id="Path" fill="#FEA522"></path>
                    <path d="M162.90625,95.1875 L163.53125,95.8125 L162.90625,95.1875 Z" id="Path" fill="#FBBE66"></path>
                    <path d="M163.5625,95.1875 L164.1875,95.8125 L163.5625,95.1875 Z" id="Path" fill="#FACA88"></path>
                    <path d="M164.1875,95.1875 L164.8125,95.8125 L164.1875,95.1875 Z" id="Path" fill="#FCB144"></path>
                    <path d="M164.8125,95.1875 L165.4375,95.8125 L164.8125,95.1875 Z" id="Path" fill="#FAE3C9"></path>
                    <path d="M165.4375,95.1875 L166.0625,95.8125 L165.4375,95.1875 Z" id="Path" fill="#FE9F11"></path>
                    <path d="M168.625,95.1875 L169.25,95.8125 L168.625,95.1875 Z" id="Path" fill="#FDAB33"></path>
                    <path d="M169.25,95.1875 L169.875,95.8125 L169.25,95.1875 Z" id="Path" fill="#FBC477"></path>
                    <path d="M169.875,95.1875 L170.5,95.8125 L169.875,95.1875 Z" id="Path" fill="#FACA88"></path>
                    <path d="M170.53125,95.1875 L171.15625,95.8125 L170.53125,95.1875 Z" id="Path" fill="#F9D6AA"></path>
                    <polygon id="Path" fill="#FAE3C9" points="171.5625 95.40625 172 95.625 171.59375 95.40625"></polygon>
                    <path d="M172.4375,95.1875 L173.0625,95.8125 L172.4375,95.1875 Z" id="Path" fill="#FEF8F1"></path>
                    <path d="M174.34375,95.1875 L174.96875,95.8125 L174.34375,95.1875 Z" id="Path" fill="#FBC477"></path>
                    <path d="M147.0625,95.84375 L147.6875,96.46875 L147.0625,95.84375 Z" id="Path" fill="#FEF8F1"></path>
                    <path d="M147.6875,95.84375 L148.3125,96.46875 L147.6875,95.84375 Z" id="Path" fill="#FCF1E4"></path>
                    <path d="M164.1875,95.84375 L164.8125,96.46875 L164.1875,95.84375 Z" id="Path" fill="#FCB755"></path>
                    <path d="M165.4375,95.84375 L166.0625,96.46875 L165.4375,95.84375 Z" id="Path" fill="#FBEAD6"></path>
                    <path d="M166.09375,95.84375 L166.71875,96.46875 L166.09375,95.84375 Z" id="Path" fill="#FEA522"></path>
                    <path d="M171.15625,95.84375 L171.78125,96.46875 L171.15625,95.84375 Z" id="Path" fill="#FE9F11"></path>
                    <path d="M171.78125,95.84375 L171.15625,97.09375 L171.78125,95.84375 Z" id="Path" fill="#FCB144"></path>
                    <path d="M173.0625,95.84375 L173.6875,96.46875 L173.0625,95.84375 Z" id="Path" fill="#FE9F11"></path>
                    <path d="M173.6875,95.84375 L174.3125,96.46875 L173.6875,95.84375 Z" id="Path" fill="#FBBE66"></path>
                    <path d="M174.34375,95.84375 L174.96875,96.46875 L174.34375,95.84375 Z" id="Path" fill="#FCF1E4"></path>
                    <path d="M147.0625,96.46875 L147.6875,97.09375 L147.0625,96.46875 Z" id="Path" fill="#FAE3C9"></path>
                    <path d="M147.6875,96.46875 L148.9375,97.71875 L147.6875,96.46875 Z" id="Path" fill="#FE9F11"></path>
                    <path d="M148.3125,96.46875 L148.9375,97.46875 L148.3125,96.46875 Z M154.03125,96.46875 L154.65625,97.46875 L154.03125,96.46875 Z" id="Shape" fill="#FBEAD6" fill-rule="nonzero"></path>
                    <path d="M154.6875,96.46875 L155.3125,97.09375 L154.6875,96.46875 Z" id="Path" fill="#FAE3C9"></path>
                    <path d="M160.375,96.46875 L161,97.09375 L160.375,96.46875 Z" id="Path" fill="#FE9F11"></path>
                    <path d="M161,96.46875 L161.625,97.09375 L161,96.46875 Z" id="Path" fill="#FBC477"></path>
                    <path d="M161.65625,96.46875 L162.28125,97.09375 L161.65625,96.46875 Z" id="Path" fill="#FEA522"></path>
                    <path d="M163.5625,96.46875 L164.1875,97.09375 L163.5625,96.46875 Z" id="Path" fill="#FBC477"></path>
                    <path d="M164.1875,96.46875 L164.8125,97.09375 L164.1875,96.46875 Z" id="Path" fill="#FEF8F1"></path>
                    <path d="M166.71875,96.46875 L167.34375,97.09375 L166.71875,96.46875 Z" id="Path" fill="#FBC477"></path>
                    <path d="M171.78125,96.46875 L172.40625,97.09375 L171.78125,96.46875 Z" id="Path" fill="#FFFFFF"></path>
                    <path d="M172.4375,96.46875 L173.0625,97.09375 L172.4375,96.46875 Z" id="Path" fill="#FDAB33"></path>
                    <path d="M174.96875,96.46875 L175.59375,97.09375 L174.96875,96.46875 Z" id="Path" fill="#FBC477"></path>
                    <path d="M147.0625,97.09375 L147.6875,97.71875 L147.0625,97.09375 Z" id="Path" fill="#FEF8F1"></path>
                    <path d="M148.9375,97.09375 L149.5625,97.71875 L148.9375,97.09375 Z" id="Path" fill="#FBEAD6"></path>
                    <path d="M152.125,97.09375 L152.75,97.71875 L152.125,97.09375 Z" id="Path" fill="#F9D6AA"></path>
                    <path d="M155.3125,97.09375 L155.9375,97.71875 L155.3125,97.09375 Z" id="Path" fill="#FE9F11"></path>
                    <path d="M156.34375,97.3125 L156.78125,97.53125 L156.34375,97.3125 Z" id="Path" fill="#F9D6AA"></path>
                    <path d="M160.375,97.09375 L161,97.71875 L160.375,97.09375 Z" id="Path" fill="#F8DCBB"></path>
                    <path d="M162.28125,97.09375 L162.90625,97.71875 L162.28125,97.09375 Z" id="Path" fill="#FCF1E4"></path>
                    <path d="M167.34375,97.09375 L167.96875,97.71875 L167.34375,97.09375 Z" id="Path" fill="#F9D6AA"></path>
                    <path d="M171.78125,97.09375 L172.40625,97.71875 L171.78125,97.09375 Z" id="Path" fill="#FDAB33"></path>
                    <path d="M175.625,97.09375 L176.25,97.71875 L175.625,97.09375 Z" id="Path" fill="#FCB755"></path>
                    <path d="M176.25,97.09375 L176.875,97.71875 L176.25,97.09375 Z" id="Path" fill="#FEF8F1"></path>
                    <path d="M141.96875,97.75 L142.59375,98.375 L141.96875,97.75 Z" id="Path" fill="#53527C"></path>
                    <path d="M147.6875,97.75 L148.3125,98.375 L147.6875,97.75 Z" id="Path" fill="#FCB755"></path>
                    <path d="M148.9375,97.75 L149.5625,98.375 L148.9375,97.75 Z" id="Path" fill="#FEA522"></path>
                    <path d="M151.5,97.75 L152.125,98.375 L151.5,97.75 Z" id="Path" fill="#FBEAD6"></path>
                    <path d="M152.75,97.75 L153.375,98.375 L152.75,97.75 Z" id="Path" fill="#FE9F11"></path>
                    <path d="M153.40625,97.75 L154.03125,98.375 L153.40625,97.75 Z" id="Path" fill="#FCF1E4"></path>
                    <path d="M155.3125,97.75 L155.9375,98.375 L155.3125,97.75 Z" id="Path" fill="#FBBE66"></path>
                    <path d="M155.9375,97.75 L156.5625,98.375 L155.9375,97.75 Z" id="Path" fill="#FBC477"></path>
                    <path d="M156.5625,97.75 L157.1875,98.375 L156.5625,97.75 Z" id="Path" fill="#FBBE66"></path>
                    <polygon id="Path" fill="#FEA522" points="159.75 97.75 160.375 98.375 159.75 97.75"></polygon>
                    <path d="M168,97.75 L168.625,98.375 L168,97.75 Z" id="Path" fill="#F9D6AA"></path>
                    <path d="M176.25,97.75 L176.875,98.375 L176.25,97.75 Z" id="Path" fill="#FCB144"></path>
                    <path d="M186.375,97.75 L187,98.375 L186.375,97.75 Z" id="Path" fill="#8D8D5B"></path>
                    <path d="M143.875,98.375 L144.5,99 L143.875,98.375 Z" id="Path" fill="#E5E3AF"></path>
                    <path d="M147.6875,98.375 L148.3125,99 L147.6875,98.375 Z" id="Path" fill="#F8DCBB"></path>
                    <path d="M149.59375,98.375 L150.21875,99 L149.59375,98.375 Z" id="Path" fill="#FDAB33"></path>
                    <path d="M151.5,98.375 L152.125,99 L151.5,98.375 Z" id="Path" fill="#FE9F11"></path>
                    <path d="M152.75,98.375 L153.375,99 L152.75,98.375 Z" id="Path" fill="#FACA88"></path>
                    <path d="M155.3125,98.375 L155.9375,99 L155.3125,98.375 Z" id="Path" fill="#FCF1E4"></path>
                    <path d="M159.75,98.375 L160.375,99.375 L159.75,98.375 Z M168.625,98.375 L169.25,99.375 L168.625,98.375 Z" id="Shape" fill="#F9D099" fill-rule="nonzero"></path>
                    <path d="M176.875,98.375 L177.5,99 L176.875,98.375 Z" id="Path" fill="#FBBE66"></path>
                    <path d="M148.3125,99 L148.9375,99.625 L148.3125,99 Z" id="Path" fill="#FEA522"></path>
                    <path d="M150.21875,99 L150.84375,99.625 L150.21875,99 Z" id="Path" fill="#FDAB33"></path>
                    <path d="M150.84375,99 L151.46875,99.625 L150.84375,99 Z" id="Path" fill="#FEA522"></path>
                    <path d="M152.125,99 L152.75,99.625 L152.125,99 Z" id="Path" fill="#FE9F11"></path>
                    <path d="M152.75,99 L153.375,99.625 L152.75,99 Z" id="Path" fill="#FEF8F1"></path>
                    <path d="M155.9375,99 L156.5625,99.625 L155.9375,99 Z" id="Path" fill="#FBBE66"></path>
                    <polygon id="Path" fill="#FEF8F1" points="159.75 99 160.375 99.625 159.75 99"></polygon>
                    <path d="M169.25,99 L169.875,99.625 L169.25,99 Z" id="Path" fill="#FBBE66"></path>
                    <path d="M177.5,99 L178.125,99.625 L177.5,99 Z" id="Path" fill="#F9D099"></path>
                    <path d="M148.3125,99.65625 L148.9375,100.28125 L148.3125,99.65625 Z" id="Path" fill="#F9D6AA"></path>
                    <path d="M152.125,99.65625 L152.75,100.28125 L152.125,99.65625 Z" id="Path" fill="#F9D099"></path>
                    <path d="M155.9375,99.65625 L156.5625,100.28125 L155.9375,99.65625 Z" id="Path" fill="#FCF1E4"></path>
                    <path d="M159.09375,99.65625 L159.71875,100.65625 L159.09375,99.65625 Z M169.875,99.65625 L170.5,100.65625 L169.875,99.65625 Z" id="Shape" fill="#FDAB33" fill-rule="nonzero"></path>
                    <path d="M178.125,99.65625 L178.75,100.28125 L178.125,99.65625 Z" id="Path" fill="#FBEAD6"></path>
                    <path d="M148.9375,100.28125 L149.5625,100.90625 L148.9375,100.28125 Z" id="Path" fill="#FEA522"></path>
                    <path d="M151.5,100.28125 L152.125,100.90625 L151.5,100.28125 Z" id="Path" fill="#FE9F11"></path>
                    <path d="M156.5625,100.28125 L157.1875,100.90625 L156.5625,100.28125 Z" id="Path" fill="#FCB144"></path>
                    <path d="M159.09375,100.28125 L159.71875,100.90625 L159.09375,100.28125 Z" id="Path" fill="#FACA88"></path>
                    <path d="M169.875,100.28125 L170.5,100.90625 L169.875,100.28125 Z" id="Path" fill="#F8DCBB"></path>
                    <path d="M178.125,100.28125 L178.75,100.90625 L178.125,100.28125 Z" id="Path" fill="#FCB144"></path>
                    <path d="M143.875,100.9375 L144.5,101.5625 L143.875,100.9375 Z" id="Path" fill="#D3D079"></path>
                    <path d="M148.9375,100.9375 L149.5625,101.9375 L148.9375,100.9375 Z M156.5625,100.9375 L157.1875,101.9375 L156.5625,100.9375 Z" id="Shape" fill="#FACA88" fill-rule="nonzero"></path>
                    <path d="M159.09375,100.9375 L159.71875,101.9375 L159.09375,100.9375 Z M169.875,100.9375 L170.5,101.9375 L169.875,100.9375 Z" id="Shape" fill="#FAE3C9" fill-rule="nonzero"></path>
                    <polygon id="Path" fill="#F8DCBB" points="178.75 100.9375 179.40625 101.5625 178.78125 100.9375"></polygon>
                    <path d="M184.46875,100.9375 L185.09375,101.5625 L184.46875,100.9375 Z" id="Path" fill="#F2F1D7"></path>
                    <path d="M186.59375,101.34375 L186.8125,101.75 L186.59375,101.34375 Z" id="Path" fill="#58587B"></path>
                    <polygon id="Path" fill="#D9D868" points="144.0625 101.96875 144.3125 102.40625 144.09375 101.96875"></polygon>
                    <path d="M148.9375,101.5625 L149.5625,102.1875 L148.9375,101.5625 Z" id="Path" fill="#F8DCBB"></path>
                    <path d="M169.25,101.5625 L169.875,102.1875 L169.25,101.5625 Z" id="Path" fill="#F9D6AA"></path>
                    <path d="M169.875,101.5625 L170.5,102.1875 L169.875,101.5625 Z" id="Path" fill="#FE9F11"></path>
                    <polygon id="Path" fill="#FCB144" points="178.75 101.5625 179.40625 102.1875 178.78125 101.5625"></polygon>
                    <path d="M184.6875,101.96875 L184.90625,102.40625 L184.6875,101.96875 Z" id="Path" fill="#F2F1D2"></path>
                    <path d="M148.9375,102.1875 L149.5625,102.8125 L148.9375,102.1875 Z" id="Path" fill="#FCF1E4"></path>
                    <path d="M168.625,102.1875 L169.25,102.8125 L168.625,102.1875 Z" id="Path" fill="#FEF8F1"></path>
                    <path d="M169.25,102.1875 L169.875,102.8125 L169.25,102.1875 Z" id="Path" fill="#FE9F11"></path>
                    <path d="M171.15625,102.1875 L170.53125,103.4375 L171.15625,102.1875 Z" id="Path" fill="#FDAB33"></path>
                    <path d="M171.78125,102.1875 L172.40625,102.8125 L171.78125,102.1875 Z" id="Path" fill="#FCB755"></path>
                    <path d="M179.40625,102.1875 L180.03125,102.8125 L179.40625,102.1875 Z" id="Path" fill="#FEA522"></path>
                    <path d="M180.03125,102.1875 L180.65625,102.8125 L180.03125,102.1875 Z" id="Path" fill="#F9D099"></path>
                    <path d="M186.375,102.1875 L187,102.8125 L186.375,102.1875 Z" id="Path" fill="#53527C"></path>
                    <path d="M142.8125,103.25 L143.03125,103.65625 L142.8125,103.25 Z" id="Path" fill="#808067"></path>
                    <path d="M149.59375,102.8125 L150.21875,103.8125 L149.59375,102.8125 Z M151.46875,102.8125 L152.125,103.8125 L151.5,102.8125 L151.46875,102.8125 Z" id="Shape" fill="#FEA522" fill-rule="nonzero"></path>
                    <path d="M158.46875,102.8125 L159.09375,103.4375 L158.46875,102.8125 Z" id="Path" fill="#FE9F11"></path>
                    <path d="M168.625,102.8125 L169.25,103.4375 L168.625,102.8125 Z" id="Path" fill="#FAE3C9"></path>
                    <path d="M171.15625,102.8125 L171.78125,103.4375 L171.15625,102.8125 Z" id="Path" fill="#FEF8F1"></path>
                    <path d="M172.4375,102.8125 L173.0625,103.4375 L172.4375,102.8125 Z" id="Path" fill="#FCB144"></path>
                    <path d="M180.6875,102.8125 L181.3125,103.4375 L180.6875,102.8125 Z" id="Path" fill="#FCB755"></path>
                    <path d="M181.3125,102.8125 L182.5625,104.0625 L181.3125,102.8125 Z" id="Path" fill="#FEF8F1"></path>
                    <path d="M184.6875,103.25 L184.90625,103.65625 L184.6875,103.25 Z" id="Path" fill="#E5E59D"></path>
                    <path d="M186.59375,103.25 L186.8125,103.65625 L186.59375,103.25 Z" id="Path" fill="#32327B"></path>
                    <path d="M149.8125,103.875 L150,104.3125 L149.8125,103.875 Z" id="Path" fill="#FCB755"></path>
                    <path d="M152.125,103.4375 L152.75,104.0625 L152.125,103.4375 Z" id="Path" fill="#FEF8F1"></path>
                    <path d="M158.46875,103.4375 L159.09375,104.0625 L158.46875,103.4375 Z" id="Path" fill="#FBBE66"></path>
                    <path d="M168.625,103.4375 L169.25,104.0625 L168.625,103.4375 Z" id="Path" fill="#FBEAD6"></path>
                    <path d="M169.875,103.4375 L170.5,104.0625 L169.875,103.4375 Z" id="Path" fill="#FE9F11"></path>
                    <path d="M170.53125,103.4375 L171.15625,104.0625 L170.53125,103.4375 Z" id="Path" fill="#FCF1E4"></path>
                    <path d="M172.4375,103.4375 L173.0625,104.0625 L172.4375,103.4375 Z" id="Path" fill="#FBEAD6"></path>
                    <path d="M181.3125,103.4375 L181.9375,104.0625 L181.3125,103.4375 Z" id="Path" fill="#FDAB33"></path>
                    <polygon id="Path" fill="#666677" points="142.625 104.0625 143.25 104.71875 142.625 104.09375"></polygon>
                    <polygon id="Path" fill="#F6F6E4" points="144.5 104.0625 145.125 104.71875 144.5 104.09375"></polygon>
                    <polygon id="Path" fill="#F9D6AA" points="152.125 104.0625 152.75 104.71875 152.125 104.09375"></polygon>
                    <polygon id="Path" fill="#FDAB33" points="157.1875 104.0625 157.8125 104.71875 157.1875 104.09375"></polygon>
                    <polygon id="Path" fill="#FE9F11" points="157.8125 104.0625 158.46875 104.71875 157.84375 104.09375"></polygon>
                    <polygon id="Path" fill="#FCF1E4" points="158.46875 104.0625 159.09375 104.71875 158.46875 104.09375"></polygon>
                    <polygon id="Path" fill="#FEA522" points="169.25 104.0625 169.875 104.71875 169.25 104.09375"></polygon>
                    <path d="M169.875,104.0625 L170.5,105.0625 L169.875,104.110119 L169.875,104.0625 Z M173.0625,104.110119 L173.6875,105.0625 L173.0625,104.110119 Z" id="Shape" fill="#FACA88" fill-rule="nonzero"></path>
                    <polygon id="Path" fill="#FCB144" points="181.9375 104.0625 182.5625 104.71875 181.9375 104.09375"></polygon>
                    <polygon id="Path" fill="#DDDC7A" points="184.46875 104.0625 185.09375 104.71875 184.46875 104.09375"></polygon>
                    <path d="M142.625,104.71875 L143.25,105.34375 L142.625,104.71875 Z" id="Path" fill="#58587B"></path>
                    <path d="M144.5,104.71875 L145.125,105.34375 L144.5,104.71875 Z" id="Path" fill="#F2F1D2"></path>
                    <path d="M149.8125,105.15625 L150,105.5625 L149.8125,105.15625 Z" id="Path" fill="#FCB144"></path>
                    <path d="M152.125,104.71875 L152.75,105.34375 L152.125,104.71875 Z" id="Path" fill="#FEA522"></path>
                    <path d="M158.46875,104.71875 L159.09375,105.34375 L158.46875,104.71875 Z" id="Path" fill="#FEF8F1"></path>
                    <path d="M159.09375,104.71875 L159.71875,105.34375 L159.09375,104.71875 Z" id="Path" fill="#FEA522"></path>
                    <path d="M160.375,104.71875 L161,105.34375 L160.375,104.71875 Z" id="Path" fill="#FCB144"></path>
                    <path d="M161,104.71875 L161.625,105.34375 L161,104.71875 Z" id="Path" fill="#FBEAD6"></path>
                    <path d="M169.25,104.71875 L169.875,105.34375 L169.25,104.71875 Z" id="Path" fill="#F8DCBB"></path>
                    <path d="M169.875,104.71875 L170.5,105.34375 L169.875,104.71875 Z" id="Path" fill="#FCF1E4"></path>
                    <path d="M173.0625,104.71875 L173.6875,105.34375 L173.0625,104.71875 Z" id="Path" fill="#FEF8F1"></path>
                    <path d="M173.6875,104.71875 L174.3125,105.34375 L173.6875,104.71875 Z" id="Path" fill="#FE9F11"></path>
                    <path d="M182.59375,104.71875 L183.21875,105.34375 L182.59375,104.71875 Z" id="Path" fill="#FBEAD6"></path>
                    <path d="M184.46875,104.71875 L185.09375,105.34375 L184.46875,104.71875 Z" id="Path" fill="#D9D868"></path>
                    <path d="M142.625,105.34375 L143.25,105.96875 L142.625,105.34375 Z" id="Path" fill="#3A3A7C"></path>
                    <path d="M144.5,105.34375 L145.125,105.96875 L144.5,105.34375 Z" id="Path" fill="#E5E3AF"></path>
                    <path d="M152.75,105.34375 L153.375,105.96875 L152.75,105.34375 Z" id="Path" fill="#FACA88"></path>
                    <path d="M159.09375,105.34375 L159.71875,105.96875 L159.09375,105.34375 Z" id="Path" fill="#FBEAD6"></path>
                    <path d="M161,105.34375 L161.625,105.96875 L161,105.34375 Z" id="Path" fill="#FE9F11"></path>
                    <path d="M161.65625,105.34375 L162.28125,105.96875 L161.65625,105.34375 Z" id="Path" fill="#FCF1E4"></path>
                    <path d="M168.625,105.34375 L169.25,105.96875 L168.625,105.34375 Z" id="Path" fill="#FBEAD6"></path>
                    <path d="M169.25,105.34375 L169.875,105.96875 L169.25,105.34375 Z" id="Path" fill="#FAE3C9"></path>
                    <path d="M169.875,105.34375 L170.5,105.96875 L169.875,105.34375 Z" id="Path" fill="#FBEAD6"></path>
                    <path d="M173.6875,105.34375 L174.3125,106.34375 L173.6875,105.34375 Z M178.78125,105.34375 L179.40625,106.34375 L178.78125,105.34375 Z" id="Shape" fill="#FBBE66" fill-rule="nonzero"></path>
                    <path d="M179.40625,105.34375 L180.03125,105.96875 L179.40625,105.34375 Z" id="Path" fill="#FCF1E4"></path>
                    <path d="M180.03125,105.34375 L180.65625,105.96875 L180.03125,105.34375 Z" id="Path" fill="#FEF8F1"></path>
                    <path d="M180.6875,105.34375 L181.3125,105.96875 L180.6875,105.34375 Z" id="Path" fill="#F8DCBB"></path>
                    <path d="M181.3125,105.34375 L181.9375,105.96875 L181.3125,105.34375 Z" id="Path" fill="#FCB755"></path>
                    <path d="M182.59375,105.34375 L183.21875,105.96875 L182.59375,105.34375 Z" id="Path" fill="#FAE3C9"></path>
                    <path d="M185.75,105.34375 L186.375,105.96875 L185.75,105.34375 Z" id="Path" fill="#808067"></path>
                    <path d="M142.625,106 L143.25,106.625 L142.625,106 Z" id="Path" fill="#32327B"></path>
                    <polygon id="Path" fill="#A4A43D" points="143.4375 106.40625 143.65625 106.84375 143.46875 106.40625"></polygon>
                    <path d="M144.5,106 L145.125,106.625 L144.5,106 Z" id="Path" fill="#E5E59D"></path>
                    <path d="M149.59375,106 L150.21875,106.625 L149.59375,106 Z" id="Path" fill="#FBC477"></path>
                    <path d="M153.40625,106 L154.03125,106.625 L153.40625,106 Z" id="Path" fill="#F9D6AA"></path>
                    <polygon id="Path" fill="#FBBE66" points="159.75 106 160.375 106.625 159.75 106"></polygon>
                    <path d="M161.65625,106 L162.28125,106.625 L161.65625,106 Z" id="Path" fill="#F9D099"></path>
                    <path d="M167.34375,106 L167.96875,106.625 L167.34375,106 Z" id="Path" fill="#FAE3C9"></path>
                    <path d="M168,106 L168.625,106.625 L168,106 Z" id="Path" fill="#FCB144"></path>
                    <path d="M170.53125,106 L171.15625,106.625 L170.53125,106 Z" id="Path" fill="#FAE3C9"></path>
                    <path d="M173.6875,106 L174.3125,106.625 L173.6875,106 Z" id="Path" fill="#F8DCBB"></path>
                    <polygon id="Path" fill="#F9D099" points="178.75 106 179.40625 106.625 178.78125 106"></polygon>
                    <path d="M181.9375,106 L182.5625,106.625 L181.9375,106 Z" id="Path" fill="#FBC477"></path>
                    <path d="M182.59375,106 L183.21875,106.625 L182.59375,106 Z" id="Path" fill="#FBEAD6"></path>
                    <path d="M185.75,106 L186.375,106.625 L185.75,106 Z" id="Path" fill="#737370"></path>
                    <path d="M144.5,106.625 L145.125,107.25 L144.5,106.625 Z" id="Path" fill="#D9D868"></path>
                    <path d="M149.59375,106.625 L150.21875,107.25 L149.59375,106.625 Z" id="Path" fill="#F9D099"></path>
                    <path d="M154.03125,106.625 L154.65625,107.625 L154.03125,106.625 Z M159.75,106.625 L160.375,107.625 L159.75,106.625 Z" id="Shape" fill="#F9D6AA" fill-rule="nonzero"></path>
                    <path d="M161.65625,106.625 L162.28125,107.25 L161.65625,106.625 Z" id="Path" fill="#FBC477"></path>
                    <path d="M164.8125,106.625 L165.4375,107.25 L164.8125,106.625 Z" id="Path" fill="#FEF8F1"></path>
                    <path d="M165.4375,106.625 L166.0625,107.25 L165.4375,106.625 Z" id="Path" fill="#F8DCBB"></path>
                    <path d="M166.09375,106.625 L166.71875,107.25 L166.09375,106.625 Z" id="Path" fill="#FBC477"></path>
                    <path d="M166.71875,106.625 L167.34375,107.25 L166.71875,106.625 Z" id="Path" fill="#FEA522"></path>
                    <path d="M170.53125,106.625 L171.15625,107.25 L170.53125,106.625 Z" id="Path" fill="#FBEAD6"></path>
                    <path d="M183.84375,106.625 L184.46875,107.25 L183.84375,106.625 Z" id="Path" fill="#F2F1D2"></path>
                    <path d="M185.75,106.625 L186.375,107.25 L185.75,106.625 Z" id="Path" fill="#58587B"></path>
                    <path d="M143.25,107.25 L143.875,107.875 L143.25,107.25 Z" id="Path" fill="#99994E"></path>
                    <path d="M144.5,107.25 L145.125,107.875 L144.5,107.25 Z" id="Path" fill="#D0D045"></path>
                    <path d="M154.6875,107.25 L155.3125,107.875 L154.6875,107.25 Z" id="Path" fill="#FCB144"></path>
                    <path d="M155.3125,107.25 L155.9375,107.875 L155.3125,107.25 Z" id="Path" fill="#FAE3C9"></path>
                    <polygon id="Path" fill="#FEF8F1" points="159.75 107.25 160.375 107.875 159.75 107.25"></polygon>
                    <path d="M162.28125,107.25 L162.90625,107.875 L162.28125,107.25 Z" id="Path" fill="#FCB755"></path>
                    <path d="M162.90625,107.25 L163.53125,107.875 L162.90625,107.25 Z" id="Path" fill="#FBC477"></path>
                    <path d="M163.5625,107.25 L164.1875,107.875 L163.5625,107.25 Z" id="Path" fill="#FCB144"></path>
                    <path d="M164.1875,107.25 L164.8125,107.875 L164.1875,107.25 Z" id="Path" fill="#FEA522"></path>
                    <path d="M169.25,107.25 L169.875,107.875 L169.25,107.25 Z" id="Path" fill="#FE9F11"></path>
                    <path d="M169.875,107.25 L170.5,107.875 L169.875,107.25 Z" id="Path" fill="#F9D6AA"></path>
                    <polygon id="Path" fill="#FEF8F1" points="178.75 107.25 179.40625 107.875 178.78125 107.25"></polygon>
                    <path d="M183.84375,107.25 L184.46875,107.875 L183.84375,107.25 Z" id="Path" fill="#E0DEA1"></path>
                    <path d="M185.75,107.25 L186.375,107.875 L185.75,107.25 Z" id="Path" fill="#3A3A7C"></path>
                    <path d="M143.25,107.90625 L143.875,108.53125 L143.25,107.90625 Z" id="Path" fill="#737370"></path>
                    <path d="M145.15625,107.90625 L145.78125,108.53125 L145.15625,107.90625 Z" id="Path" fill="#FBFAF2"></path>
                    <path d="M150.21875,107.90625 L150.84375,108.53125 L150.21875,107.90625 Z" id="Path" fill="#FEA522"></path>
                    <path d="M155.9375,107.90625 L156.5625,108.53125 L155.9375,107.90625 Z" id="Path" fill="#FE9F11"></path>
                    <path d="M156.5625,107.90625 L157.1875,108.53125 L156.5625,107.90625 Z" id="Path" fill="#FCB144"></path>
                    <path d="M157.1875,107.90625 L157.8125,108.53125 L157.1875,107.90625 Z" id="Path" fill="#FBC477"></path>
                    <polygon id="Path" fill="#FACA88" points="157.8125 107.90625 158.46875 108.53125 157.84375 107.90625"></polygon>
                    <path d="M158.46875,107.90625 L159.09375,108.53125 L158.46875,107.90625 Z" id="Path" fill="#FBC477"></path>
                    <path d="M159.09375,107.90625 L159.71875,108.53125 L159.09375,107.90625 Z" id="Path" fill="#FCB144"></path>
                    <polygon id="Path" fill="#FDAB33" points="159.75 107.90625 160.375 108.53125 159.75 107.90625"></polygon>
                    <path d="M168.625,107.90625 L169.25,108.53125 L168.625,107.90625 Z" id="Path" fill="#FBC477"></path>
                    <path d="M169.25,107.90625 L169.875,108.53125 L169.25,107.90625 Z" id="Path" fill="#FEF8F1"></path>
                    <path d="M178.125,107.90625 L178.75,108.53125 L178.125,107.90625 Z" id="Path" fill="#FDAB33"></path>
                    <path d="M183.84375,107.90625 L184.46875,108.53125 L183.84375,107.90625 Z" id="Path" fill="#E1E18C"></path>
                    <path d="M185.3125,108.3125 L185.53125,108.75 L185.3125,108.3125 Z" id="Path" fill="#A4A43D"></path>
                    <path d="M185.75,107.90625 L186.375,108.53125 L185.75,107.90625 Z" id="Path" fill="#262678"></path>
                    <path d="M143.25,108.53125 L143.875,109.15625 L143.25,108.53125 Z" id="Path" fill="#58587B"></path>
                    <path d="M145.15625,108.53125 L145.78125,109.15625 L145.15625,108.53125 Z" id="Path" fill="#F2F1D2"></path>
                    <path d="M150.21875,108.53125 L150.84375,109.15625 L150.21875,108.53125 Z" id="Path" fill="#FACA88"></path>
                    <path d="M167.34375,108.53125 L167.96875,109.15625 L167.34375,108.53125 Z" id="Path" fill="#FE9F11"></path>
                    <path d="M168,108.53125 L168.625,109.15625 L168,108.53125 Z" id="Path" fill="#FBEAD6"></path>
                    <path d="M173.6875,108.53125 L174.3125,109.15625 L173.6875,108.53125 Z" id="Path" fill="#FBC477"></path>
                    <path d="M178.125,108.53125 L178.75,109.15625 L178.125,108.53125 Z" id="Path" fill="#FACA88"></path>
                    <path d="M183.84375,108.53125 L184.46875,109.15625 L183.84375,108.53125 Z" id="Path" fill="#D4D456"></path>
                    <path d="M143.25,109.15625 L143.875,109.78125 L143.25,109.15625 Z" id="Path" fill="#32327B"></path>
                    <path d="M145.15625,109.15625 L145.78125,109.78125 L145.15625,109.15625 Z" id="Path" fill="#E5E59D"></path>
                    <path d="M150.21875,109.15625 L150.84375,109.78125 L150.21875,109.15625 Z" id="Path" fill="#FEF8F1"></path>
                    <path d="M150.84375,109.15625 L151.46875,109.78125 L150.84375,109.15625 Z" id="Path" fill="#FE9F11"></path>
                    <path d="M167.34375,109.15625 L167.96875,109.78125 L167.34375,109.15625 Z" id="Path" fill="#FBEAD6"></path>
                    <path d="M173.6875,109.15625 L174.3125,109.78125 L173.6875,109.15625 Z" id="Path" fill="#FEA522"></path>
                    <path d="M178.125,109.15625 L178.75,109.78125 L178.125,109.15625 Z" id="Path" fill="#FCF1E4"></path>
                    <path d="M185.125,109.15625 L185.75,109.78125 L185.125,109.15625 Z" id="Path" fill="#808067"></path>
                    <path d="M143.25,109.78125 L143.875,110.40625 L143.25,109.78125 Z" id="Path" fill="#0E0E6E"></path>
                    <path d="M143.875,109.78125 L144.5,110.40625 L143.875,109.78125 Z" id="Path" fill="#A4A43D"></path>
                    <path d="M145.15625,109.78125 L145.78125,110.40625 L145.15625,109.78125 Z" id="Path" fill="#D9D868"></path>
                    <path d="M150.84375,109.78125 L151.46875,110.40625 L150.84375,109.78125 Z" id="Path" fill="#F8DCBB"></path>
                    <path d="M173.0625,109.78125 L173.6875,110.40625 L173.0625,109.78125 Z" id="Path" fill="#F9D6AA"></path>
                    <path d="M177.5,109.78125 L178.125,110.40625 L177.5,109.78125 Z" id="Path" fill="#FACA88"></path>
                    <path d="M183.21875,109.78125 L183.84375,110.40625 L183.21875,109.78125 Z" id="Path" fill="#F2F1D2"></path>
                    <path d="M185.125,109.78125 L185.75,110.40625 L185.125,109.78125 Z" id="Path" fill="#58587B"></path>
                    <path d="M143.875,110.4375 L144.5,111.0625 L143.875,110.4375 Z" id="Path" fill="#8D8D5B"></path>
                    <path d="M151.5,110.4375 L152.125,111.0625 L151.5,110.4375 Z" id="Path" fill="#F9D6AA"></path>
                    <path d="M164.1875,110.4375 L164.8125,111.0625 L164.1875,110.4375 Z" id="Path" fill="#FDAB33"></path>
                    <path d="M164.8125,110.4375 L165.4375,111.0625 L164.8125,110.4375 Z" id="Path" fill="#FFFFFF"></path>
                    <path d="M165.875,110.625 L166.3125,110.84375 L165.875,110.625 Z" id="Path" fill="#FCB144"></path>
                    <path d="M172.4375,110.4375 L171.8125,111.6875 L172.4375,110.4375 Z" id="Path" fill="#FEF8F1"></path>
                    <path d="M173.0625,110.4375 L173.6875,111.0625 L173.0625,110.4375 Z" id="Path" fill="#FE9F11"></path>
                    <path d="M176.875,110.4375 L176.25,111.6875 L176.875,110.4375 Z" id="Path" fill="#FDAB33"></path>
                    <path d="M183.21875,110.4375 L183.84375,111.0625 L183.21875,110.4375 Z" id="Path" fill="#E5E59D"></path>
                    <path d="M185.125,110.4375 L185.75,111.0625 L185.125,110.4375 Z" id="Path" fill="#3A3A7C"></path>
                    <path d="M143.875,111.0625 L144.5,111.6875 L143.875,111.0625 Z" id="Path" fill="#666677"></path>
                    <path d="M145.78125,111.0625 L146.40625,111.6875 L145.78125,111.0625 Z" id="Path" fill="#F2F1D2"></path>
                    <path d="M152.125,111.0625 L152.75,111.6875 L152.125,111.0625 Z" id="Path" fill="#F9D6AA"></path>
                    <path d="M164.1875,111.0625 L164.8125,111.6875 L164.1875,111.0625 Z" id="Path" fill="#FE9F11"></path>
                    <path d="M164.8125,111.0625 L165.4375,111.6875 L164.8125,111.0625 Z" id="Path" fill="#FACA88"></path>
                    <path d="M165.4375,111.0625 L166.0625,111.6875 L165.4375,111.0625 Z" id="Path" fill="#FEA522"></path>
                    <path d="M166.09375,111.0625 L166.71875,111.6875 L166.09375,111.0625 Z" id="Path" fill="#FCF1E4"></path>
                    <path d="M172.4375,111.0625 L173.0625,111.6875 L172.4375,111.0625 Z" id="Path" fill="#FDAB33"></path>
                    <path d="M176.875,111.0625 L177.5,111.6875 L176.875,111.0625 Z" id="Path" fill="#FEF8F1"></path>
                    <path d="M183.21875,111.0625 L183.84375,111.6875 L183.21875,111.0625 Z" id="Path" fill="#D9D868"></path>
                    <path d="M184.46875,111.0625 L185.09375,111.6875 L184.46875,111.0625 Z" id="Path" fill="#A4A43D"></path>
                    <path d="M185.125,111.0625 L185.75,111.6875 L185.125,111.0625 Z" id="Path" fill="#0E0E6E"></path>
                    <path d="M143.875,111.6875 L144.5,112.3125 L143.875,111.6875 Z" id="Path" fill="#3A3A7C"></path>
                    <path d="M145.78125,111.6875 L146.40625,112.3125 L145.78125,111.6875 Z" id="Path" fill="#E5E59D"></path>
                    <path d="M152.75,111.6875 L154,112.9375 L152.75,111.6875 Z" id="Path" fill="#FAE3C9"></path>
                    <path d="M153.40625,111.6875 L154.03125,112.3125 L153.40625,111.6875 Z" id="Path" fill="#FE9F11"></path>
                    <path d="M165.4375,111.6875 L166.0625,112.3125 L165.4375,111.6875 Z" id="Path" fill="#F8DCBB"></path>
                    <path d="M171.15625,111.6875 L171.78125,112.3125 L171.15625,111.6875 Z" id="Path" fill="#FCF1E4"></path>
                    <path d="M171.78125,111.6875 L172.40625,112.3125 L171.78125,111.6875 Z" id="Path" fill="#FDAB33"></path>
                    <path d="M175.625,111.6875 L176.25,112.3125 L175.625,111.6875 Z" id="Path" fill="#FCB144"></path>
                    <path d="M176.25,111.6875 L176.875,112.3125 L176.25,111.6875 Z" id="Path" fill="#FEF8F1"></path>
                    <path d="M182.59375,111.6875 L183.21875,112.3125 L182.59375,111.6875 Z" id="Path" fill="#FBFAF2"></path>
                    <path d="M184.46875,111.6875 L185.09375,112.3125 L184.46875,111.6875 Z" id="Path" fill="#8D8D5B"></path>
                    <path d="M143.875,112.34375 L144.5,112.96875 L143.875,112.34375 Z" id="Path" fill="#0E0E6E"></path>
                    <path d="M144.5,112.34375 L145.125,112.96875 L144.5,112.34375 Z" id="Path" fill="#A4A43D"></path>
                    <path d="M145.78125,112.34375 L146.40625,112.96875 L145.78125,112.34375 Z" id="Path" fill="#D4D456"></path>
                    <path d="M164.8125,112.34375 L165.4375,112.96875 L164.8125,112.34375 Z" id="Path" fill="#F9D6AA"></path>
                    <path d="M170.53125,112.34375 L171.15625,112.96875 L170.53125,112.34375 Z" id="Path" fill="#F9D099"></path>
                    <path d="M171.15625,112.34375 L171.78125,112.96875 L171.15625,112.34375 Z" id="Path" fill="#FE9F11"></path>
                    <path d="M174.96875,112.34375 L175.59375,112.96875 L174.96875,112.34375 Z" id="Path" fill="#FACA88"></path>
                    <path d="M182.59375,112.34375 L183.21875,112.96875 L182.59375,112.34375 Z" id="Path" fill="#EEEDC1"></path>
                    <path d="M184.46875,112.34375 L185.09375,112.96875 L184.46875,112.34375 Z" id="Path" fill="#58587B"></path>
                    <path d="M144.5,112.96875 L145.125,113.59375 L144.5,112.96875 Z" id="Path" fill="#737370"></path>
                    <path d="M146.40625,112.96875 L147.03125,113.59375 L146.40625,112.96875 Z" id="Path" fill="#F6F6E4"></path>
                    <path d="M153.40625,112.96875 L154.03125,113.59375 L153.40625,112.96875 Z" id="Path" fill="#FBBE66"></path>
                    <path d="M163.5625,112.96875 L164.1875,113.59375 L163.5625,112.96875 Z" id="Path" fill="#FCB144"></path>
                    <path d="M164.375,113.40625 L164.59375,113.8125 L164.375,113.40625 Z" id="Path" fill="#F8DCBB"></path>
                    <path d="M169.25,112.96875 L169.875,113.59375 L169.25,112.96875 Z" id="Path" fill="#FBBE66"></path>
                    <path d="M169.875,112.96875 L170.5,113.59375 L169.875,112.96875 Z" id="Path" fill="#FE9F11"></path>
                    <path d="M173.6875,112.96875 L174.3125,113.59375 L173.6875,112.96875 Z" id="Path" fill="#FBC477"></path>
                    <path d="M174.34375,112.96875 L174.96875,113.59375 L174.34375,112.96875 Z" id="Path" fill="#FCF1E4"></path>
                    <path d="M182.59375,112.96875 L183.21875,113.59375 L182.59375,112.96875 Z" id="Path" fill="#D3D079"></path>
                    <path d="M183.84375,112.96875 L184.46875,113.59375 L183.84375,112.96875 Z" id="Path" fill="#A4A43D"></path>
                    <path d="M184.46875,112.96875 L185.09375,113.59375 L184.46875,112.96875 Z" id="Path" fill="#262678"></path>
                    <path d="M144.5,113.59375 L145.125,114.21875 L144.5,113.59375 Z" id="Path" fill="#49497D"></path>
                    <path d="M146.40625,113.59375 L147.03125,114.21875 L146.40625,113.59375 Z" id="Path" fill="#E0DEA1"></path>
                    <path d="M152.75,113.59375 L153.375,114.21875 L152.75,113.59375 Z" id="Path" fill="#FAE3C9"></path>
                    <path d="M161.65625,113.59375 L162.28125,114.21875 L161.65625,113.59375 Z" id="Path" fill="#FDAB33"></path>
                    <path d="M162.28125,113.59375 L162.90625,114.21875 L162.28125,113.59375 Z" id="Path" fill="#FBC477"></path>
                    <path d="M162.90625,113.59375 L163.53125,114.21875 L162.90625,113.59375 Z" id="Path" fill="#FBEAD6"></path>
                    <path d="M164.8125,113.59375 L165.4375,114.21875 L164.8125,113.59375 Z" id="Path" fill="#FCB144"></path>
                    <path d="M173.0625,113.59375 L173.6875,114.21875 L173.0625,113.59375 Z" id="Path" fill="#F9D6AA"></path>
                    <path d="M183.84375,113.59375 L184.46875,114.21875 L183.84375,113.59375 Z" id="Path" fill="#99994E"></path>
                    <path d="M144.5,114.25 L145.125,114.875 L144.5,114.25 Z" id="Path" fill="#0E0E6E"></path>
                    <path d="M145.15625,114.25 L145.78125,114.875 L145.15625,114.25 Z" id="Path" fill="#A4A43D"></path>
                    <path d="M146.40625,114.25 L147.03125,114.875 L146.40625,114.25 Z" id="Path" fill="#D4D456"></path>
                    <path d="M152.125,114.25 L152.75,114.875 L152.125,114.25 Z" id="Path" fill="#F9D099"></path>
                    <path d="M152.75,114.25 L153.375,115.25 L152.75,114.25 Z M155.9375,114.25 L156.5625,115.25 L155.9375,114.25 Z" id="Shape" fill="#FE9F11" fill-rule="nonzero"></path>
                    <path d="M156.5625,114.25 L157.1875,114.875 L156.5625,114.25 Z" id="Path" fill="#F9D6AA"></path>
                    <path d="M157.1875,114.25 L157.8125,114.875 L157.1875,114.25 Z" id="Path" fill="#F9D099"></path>
                    <polygon id="Path" fill="#F9D6AA" points="159.75 114.25 160.375 114.875 159.75 114.25"></polygon>
                    <path d="M160.375,114.25 L161,114.875 L160.375,114.25 Z" id="Path" fill="#FAE3C9"></path>
                    <path d="M161,114.25 L161.625,114.875 L161,114.25 Z" id="Path" fill="#FEF8F1"></path>
                    <path d="M166.09375,114.25 L166.71875,114.875 L166.09375,114.25 Z" id="Path" fill="#FBEAD6"></path>
                    <path d="M166.71875,114.25 L167.34375,114.875 L166.71875,114.25 Z" id="Path" fill="#FAE3C9"></path>
                    <path d="M167.34375,114.25 L167.96875,114.875 L167.34375,114.25 Z" id="Path" fill="#FACA88"></path>
                    <path d="M168,114.25 L168.625,114.875 L168,114.25 Z" id="Path" fill="#FBC477"></path>
                    <path d="M168.625,114.25 L169.25,114.875 L168.625,114.25 Z" id="Path" fill="#FDAB33"></path>
                    <path d="M171.78125,114.25 L172.40625,114.875 L171.78125,114.25 Z" id="Path" fill="#FE9F11"></path>
                    <path d="M172.4375,114.25 L173.0625,114.875 L172.4375,114.25 Z" id="Path" fill="#F9D6AA"></path>
                    <path d="M181.9375,114.25 L182.5625,114.875 L181.9375,114.25 Z" id="Path" fill="#E5E3AF"></path>
                    <path d="M183.84375,114.25 L184.46875,114.875 L183.84375,114.25 Z" id="Path" fill="#666677"></path>
                    <path d="M145.15625,114.875 L145.78125,115.5 L145.15625,114.875 Z" id="Path" fill="#737370"></path>
                    <path d="M147.0625,114.875 L147.6875,115.5 L147.0625,114.875 Z" id="Path" fill="#F2F1D7"></path>
                    <path d="M151.5,114.875 L152.125,115.5 L151.5,114.875 Z" id="Path" fill="#FEA522"></path>
                    <path d="M154.6875,114.875 L155.3125,115.5 L154.6875,114.875 Z" id="Path" fill="#FE9F11"></path>
                    <path d="M155.3125,114.875 L155.9375,115.5 L155.3125,114.875 Z" id="Path" fill="#FBBE66"></path>
                    <path d="M155.9375,114.875 L156.5625,115.5 L155.9375,114.875 Z" id="Path" fill="#FCF1E4"></path>
                    <path d="M171.15625,114.875 L171.78125,115.5 L171.15625,114.875 Z" id="Path" fill="#FEA522"></path>
                    <path d="M171.78125,114.875 L172.40625,115.5 L171.78125,114.875 Z" id="Path" fill="#FBEAD6"></path>
                    <path d="M181.9375,114.875 L182.5625,115.5 L181.9375,114.875 Z" id="Path" fill="#DDDC7A"></path>
                    <path d="M183.21875,114.875 L183.84375,115.5 L183.21875,114.875 Z" id="Path" fill="#A4A43D"></path>
                    <path d="M183.84375,114.875 L184.46875,115.5 L183.84375,114.875 Z" id="Path" fill="#262678"></path>
                    <path d="M145.15625,115.5 L145.78125,116.125 L145.15625,115.5 Z" id="Path" fill="#49497D"></path>
                    <path d="M146,115.9375 L146.21875,116.34375 L146,115.9375 Z" id="Path" fill="#A4A43D"></path>
                    <path d="M147.0625,115.5 L147.6875,116.125 L147.0625,115.5 Z" id="Path" fill="#D3D079"></path>
                    <path d="M152.125,115.5 L152.75,116.125 L152.125,115.5 Z" id="Path" fill="#F9D099"></path>
                    <path d="M152.75,115.5 L153.375,116.125 L152.75,115.5 Z" id="Path" fill="#FCB144"></path>
                    <path d="M153.40625,115.5 L154.03125,116.125 L153.40625,115.5 Z" id="Path" fill="#FACA88"></path>
                    <path d="M154.03125,115.5 L154.65625,116.125 L154.03125,115.5 Z" id="Path" fill="#F8DCBB"></path>
                    <path d="M154.6875,115.5 L155.3125,116.125 L154.6875,115.5 Z" id="Path" fill="#FEF8F1"></path>
                    <path d="M168.625,115.5 L169.25,116.125 L168.625,115.5 Z" id="Path" fill="#F8DCBB"></path>
                    <path d="M171.15625,115.5 L171.78125,116.125 L171.15625,115.5 Z" id="Path" fill="#FCF1E4"></path>
                    <path d="M181.3125,115.5 L181.9375,116.125 L181.3125,115.5 Z" id="Path" fill="#F6F6E4"></path>
                    <path d="M183.21875,115.5 L183.84375,116.125 L183.21875,115.5 Z" id="Path" fill="#8D8D5B"></path>
                    <path d="M147.6875,116.125 L148.3125,116.75 L147.6875,116.125 Z" id="Path" fill="#FBFAF2"></path>
                    <path d="M168.625,116.125 L169.25,116.75 L168.625,116.125 Z" id="Path" fill="#FBBE66"></path>
                    <path d="M170.53125,116.125 L171.15625,116.75 L170.53125,116.125 Z" id="Path" fill="#FACA88"></path>
                    <path d="M181.3125,116.125 L181.9375,116.75 L181.3125,116.125 Z" id="Path" fill="#E1E18C"></path>
                    <path d="M183.21875,116.125 L183.84375,116.75 L183.21875,116.125 Z" id="Path" fill="#49497D"></path>
                    <path d="M145.78125,116.78125 L146.40625,117.40625 L145.78125,116.78125 Z" id="Path" fill="#58587B"></path>
                    <path d="M147.6875,116.78125 L148.3125,117.40625 L147.6875,116.78125 Z" id="Path" fill="#E5E59D"></path>
                    <path d="M168.625,116.78125 L169.25,117.40625 L168.625,116.78125 Z" id="Path" fill="#FE9F11"></path>
                    <path d="M169.875,116.78125 L170.5,117.40625 L169.875,116.78125 Z" id="Path" fill="#FDAB33"></path>
                    <path d="M180.6875,116.78125 L181.3125,117.40625 L180.6875,116.78125 Z" id="Path" fill="#FBFAF2"></path>
                    <path d="M182.59375,116.78125 L183.21875,117.40625 L182.59375,116.78125 Z" id="Path" fill="#A4A43D"></path>
                    <path d="M183.21875,116.78125 L183.84375,117.40625 L183.21875,116.78125 Z" id="Path" fill="#0E0E6E"></path>
                    <path d="M145.78125,117.40625 L146.40625,118.03125 L145.78125,117.40625 Z" id="Path" fill="#1B1B74"></path>
                    <path d="M146.40625,117.40625 L147.03125,118.03125 L146.40625,117.40625 Z" id="Path" fill="#A4A43D"></path>
                    <path d="M147.6875,117.40625 L148.3125,118.03125 L147.6875,117.40625 Z" id="Path" fill="#D0D045"></path>
                    <path d="M168,117.40625 L168.625,118.03125 L168,117.40625 Z" id="Path" fill="#FBEAD6"></path>
                    <path d="M169.25,117.40625 L169.875,118.03125 L169.25,117.40625 Z" id="Path" fill="#FE9F11"></path>
                    <path d="M169.875,117.40625 L170.5,118.03125 L169.875,117.40625 Z" id="Path" fill="#FBEAD6"></path>
                    <path d="M180.6875,117.40625 L181.3125,118.03125 L180.6875,117.40625 Z" id="Path" fill="#E5E59D"></path>
                    <path d="M182.59375,117.40625 L183.21875,118.03125 L182.59375,117.40625 Z" id="Path" fill="#666677"></path>
                    <path d="M146.40625,118.03125 L147.03125,118.65625 L146.40625,118.03125 Z" id="Path" fill="#6E6C70"></path>
                    <path d="M148.3125,118.03125 L148.9375,118.65625 L148.3125,118.03125 Z" id="Path" fill="#E5E3AF"></path>
                    <path d="M168.1875,118.46875 L168.40625,118.90625 L168.1875,118.46875 Z" id="Path" fill="#FACA88"></path>
                    <path d="M169.25,118.03125 L169.875,118.65625 L169.25,118.03125 Z" id="Path" fill="#FAE3C9"></path>
                    <path d="M180.03125,118.03125 L180.65625,118.65625 L180.03125,118.03125 Z" id="Path" fill="#FBFAF2"></path>
                    <path d="M181.9375,118.03125 L182.5625,118.65625 L181.9375,118.03125 Z" id="Path" fill="#A4A43D"></path>
                    <path d="M182.59375,118.03125 L183.21875,118.65625 L182.59375,118.03125 Z M146.40625,118.65625 L147.03125,119.28125 L146.40625,118.65625 Z" id="Shape" fill="#1B1B74" fill-rule="nonzero"></path>
                    <path d="M147.0625,118.6875 L147.6875,119.3125 L147.0625,118.6875 Z" id="Path" fill="#A4A43D"></path>
                    <path d="M148.3125,118.6875 L148.9375,119.3125 L148.3125,118.6875 Z" id="Path" fill="#D0D045"></path>
                    <path d="M148.9375,118.6875 L149.5625,119.3125 L148.9375,118.6875 Z" id="Path" fill="#FBFAF2"></path>
                    <path d="M168.625,118.6875 L169.25,119.3125 L168.625,118.6875 Z" id="Path" fill="#F9D6AA"></path>
                    <path d="M180.03125,118.6875 L180.65625,119.3125 L180.03125,118.6875 Z" id="Path" fill="#E5E59D"></path>
                    <path d="M181.9375,118.6875 L182.5625,119.3125 L181.9375,118.6875 Z M147.0625,119.3125 L147.6875,119.9375 L147.0625,119.3125 Z" id="Shape" fill="#6E6C70" fill-rule="nonzero"></path>
                    <path d="M148.9375,119.3125 L149.5625,119.9375 L148.9375,119.3125 Z" id="Path" fill="#8CBF84"></path>
                    <path d="M149.21875,119.3125 C151.40625,123.9375 159.21875,134.875 165.15625,134.6875 C170.96875,134.46875 177.5,123.78125 180.03125,119.3125 L149.21875,119.3125 Z" id="Path" fill="#00CCFF"></path>
                    <path d="M181.3125,119.3125 L181.9375,119.9375 L181.3125,119.3125 Z" id="Path" fill="#A4A43D"></path>
                    <path d="M181.9375,119.3125 L182.5625,119.9375 L181.9375,119.3125 Z M147.0625,119.9375 L147.6875,120.5625 L147.0625,119.9375 Z" id="Shape" fill="#1B1B74" fill-rule="nonzero"></path>
                    <path d="M147.6875,119.9375 L148.3125,120.5625 L147.6875,119.9375 Z" id="Path" fill="#A4A43D"></path>
                    <path d="M148.9375,119.9375 L149.5625,120.5625 L148.9375,119.9375 Z" id="Path" fill="#ADB333"></path>
                    <path d="M149.59375,119.9375 L150.21875,120.5625 L149.59375,119.9375 Z" id="Path" fill="#1AC5B5"></path>
                    <path d="M179.40625,119.9375 L180.03125,120.5625 L179.40625,119.9375 Z" id="Path" fill="#68B070"></path>
                    <path d="M181.3125,119.9375 L181.9375,120.5625 L181.3125,119.9375 Z" id="Path" fill="#666677"></path>
                    <path d="M147.6875,120.59375 L148.3125,121.21875 L147.6875,120.59375 Z" id="Path" fill="#58587B"></path>
                    <path d="M149.59375,120.59375 L150.21875,121.21875 L149.59375,120.59375 Z" id="Path" fill="#7FB15C"></path>
                    <polygon id="Path" fill="#27C2AA" points="178.75 120.59375 179.40625 121.21875 178.78125 120.59375"></polygon>
                    <path d="M180.6875,120.59375 L180.0625,121.84375 L180.6875,120.59375 Z" id="Path" fill="#A4A43D"></path>
                    <path d="M181.3125,120.59375 L181.9375,121.21875 L181.3125,120.59375 Z M147.6875,121.21875 L148.3125,121.84375 L147.6875,121.21875 Z" id="Shape" fill="#0E0E6E" fill-rule="nonzero"></path>
                    <path d="M148.3125,121.21875 L149.5625,122.46875 L148.3125,121.21875 Z" id="Path" fill="#A4A43D"></path>
                    <path d="M150.21875,121.21875 L150.84375,121.84375 L150.21875,121.21875 Z" id="Path" fill="#34BE9E"></path>
                    <polygon id="Path" fill="#96B247" points="178.75 121.21875 179.40625 121.84375 178.78125 121.21875"></polygon>
                    <path d="M180.6875,121.21875 L181.3125,121.84375 L180.6875,121.21875 Z" id="Path" fill="#53527C"></path>
                    <path d="M148.3125,121.875 L148.9375,122.5 L148.3125,121.875 Z" id="Path" fill="#3A3A7C"></path>
                    <path d="M150.21875,121.875 L150.84375,122.5 L150.21875,121.875 Z" id="Path" fill="#A2B23D"></path>
                    <path d="M150.84375,121.875 L151.46875,122.5 L150.84375,121.875 Z" id="Path" fill="#0DC9C1"></path>
                    <path d="M178.125,121.875 L178.75,122.5 L178.125,121.875 Z" id="Path" fill="#5BB47C"></path>
                    <path d="M180.03125,121.875 L180.65625,122.5 L180.03125,121.875 Z" id="Path" fill="#8D8D5B"></path>
                    <path d="M148.9375,122.5 L149.5625,123.125 L148.9375,122.5 Z" id="Path" fill="#737370"></path>
                    <path d="M150.84375,122.5 L151.46875,123.125 L150.84375,122.5 Z" id="Path" fill="#74B166"></path>
                    <path d="M177.5,122.5 L178.125,123.125 L177.5,122.5 Z" id="Path" fill="#27C2AA"></path>
                    <path d="M179.40625,122.5 L178.78125,123.75 L179.40625,122.5 Z" id="Path" fill="#A4A43D"></path>
                    <path d="M180.03125,122.5 L180.65625,123.125 L180.03125,122.5 Z" id="Path" fill="#262678"></path>
                    <path d="M148.9375,123.125 L149.5625,123.75 L148.9375,123.125 Z" id="Path" fill="#0E0E6E"></path>
                    <path d="M149.59375,123.125 L150.84375,124.375 L149.59375,123.125 Z" id="Path" fill="#A4A43D"></path>
                    <path d="M151.5,123.125 L152.125,123.75 L151.5,123.125 Z" id="Path" fill="#42BB92"></path>
                    <path d="M176.875,123.125 L177.5,123.75 L176.875,123.125 Z" id="Path" fill="#0DC9C1"></path>
                    <path d="M177.5,123.125 L178.125,123.75 L177.5,123.125 Z" id="Path" fill="#96B247"></path>
                    <path d="M179.40625,123.125 L180.03125,123.75 L179.40625,123.125 Z" id="Path" fill="#58587B"></path>
                    <path d="M149.59375,123.75 L150.21875,124.375 L149.59375,123.75 Z" id="Path" fill="#3A3A7C"></path>
                    <path d="M151.5,123.75 L152.125,124.375 L151.5,123.75 Z" id="Path" fill="#ADB333"></path>
                    <path d="M152.125,123.75 L152.75,124.375 L152.125,123.75 Z" id="Path" fill="#27C2AA"></path>
                    <path d="M176.875,123.75 L177.5,124.375 L176.875,123.75 Z" id="Path" fill="#74B166"></path>
                    <polygon id="Path" fill="#8D8D5B" points="178.75 123.75 179.40625 124.375 178.78125 123.75"></polygon>
                    <path d="M150.21875,124.375 L150.84375,125 L150.21875,124.375 Z" id="Path" fill="#6E6C70"></path>
                    <path d="M152.125,124.375 L152.75,125 L152.125,124.375 Z" id="Path" fill="#96B247"></path>
                    <path d="M152.75,124.375 L153.375,125 L152.75,124.375 Z" id="Path" fill="#0DC9C1"></path>
                    <path d="M176.25,124.375 L176.875,125 L176.25,124.375 Z" id="Path" fill="#42BB92"></path>
                    <polygon id="Path" fill="#A4A43D" points="178.125 124.375 176.875 126.28125 178.125 124.40625"></polygon>
                    <polygon id="Path" fill="#1B1B74" points="178.75 124.375 179.40625 125 178.78125 124.375"></polygon>
                    <polygon id="Path" fill="#0E0E6E" points="150.21875 125 150.84375 125.65625 150.21875 125.03125"></polygon>
                    <polygon id="Path" fill="#8D8D5B" points="150.84375 125 151.46875 125.65625 150.84375 125.03125"></polygon>
                    <polygon id="Path" fill="#7FB15C" points="152.75 125 153.375 125.65625 152.75 125.03125"></polygon>
                    <polygon id="Path" fill="#34BE9E" points="175.625 125 176.25 125.65625 175.625 125.03125"></polygon>
                    <polygon id="Path" fill="#3A3A7C" points="178.125 125 178.75 125.65625 178.125 125.03125"></polygon>
                    <path d="M150.84375,125.65625 L151.46875,126.28125 L150.84375,125.65625 Z" id="Path" fill="#1B1B74"></path>
                    <path d="M151.5,125.65625 L158.46875,132.625 L151.5,125.65625 Z" id="Path" fill="#A4A43D"></path>
                    <path d="M153.40625,125.65625 L154.03125,126.28125 L153.40625,125.65625 Z" id="Path" fill="#74B166"></path>
                    <path d="M174.96875,125.65625 L175.59375,126.28125 L174.96875,125.65625 Z" id="Path" fill="#27C2AA"></path>
                    <path d="M175.625,125.65625 L176.25,126.28125 L175.625,125.65625 Z" id="Path" fill="#ADB333"></path>
                    <path d="M177.5,125.65625 L178.125,126.28125 L177.5,125.65625 Z" id="Path" fill="#666677"></path>
                    <path d="M151.5,126.28125 L152.125,126.90625 L151.5,126.28125 Z" id="Path" fill="#32327B"></path>
                    <path d="M154.03125,126.28125 L154.65625,126.90625 L154.03125,126.28125 Z" id="Path" fill="#42BB92"></path>
                    <polygon id="Path" fill="#0DC9C1" points="174.34375 126.28125 171.78125 129.46875 174.375 126.25"></polygon>
                    <path d="M174.96875,126.28125 L175.59375,126.90625 L174.96875,126.28125 Z" id="Path" fill="#ADB333"></path>
                    <path d="M176.875,126.28125 L177.5,126.90625 L176.875,126.28125 Z" id="Path" fill="#737370"></path>
                    <path d="M152.125,126.9375 L152.75,127.5625 L152.125,126.9375 Z" id="Path" fill="#49497D"></path>
                    <path d="M154.6875,126.9375 L155.3125,127.5625 L154.6875,126.9375 Z" id="Path" fill="#42BB92"></path>
                    <path d="M174.34375,126.9375 L174.96875,127.5625 L174.34375,126.9375 Z" id="Path" fill="#96B247"></path>
                    <path d="M176.25,126.9375 L175.625,128.1875 L176.25,126.9375 Z" id="Path" fill="#8D8D5B"></path>
                    <path d="M176.875,126.9375 L177.5,127.5625 L176.875,126.9375 Z" id="Path" fill="#0E0E6E"></path>
                    <path d="M152.75,127.5625 L153.375,128.1875 L152.75,127.5625 Z" id="Path" fill="#53527C"></path>
                    <path d="M155.3125,127.5625 L155.9375,128.1875 L155.3125,127.5625 Z" id="Path" fill="#42BB92"></path>
                    <path d="M173.6875,127.5625 L174.3125,128.1875 L173.6875,127.5625 Z" id="Path" fill="#96B247"></path>
                    <path d="M176.25,127.5625 L176.875,128.1875 L176.25,127.5625 Z" id="Path" fill="#0E0E6E"></path>
                    <path d="M153.40625,128.1875 L154.03125,128.8125 L153.40625,128.1875 Z" id="Path" fill="#6E6C70"></path>
                    <path d="M155.9375,128.1875 L156.5625,128.8125 L155.9375,128.1875 Z" id="Path" fill="#42BB92"></path>
                    <path d="M173.0625,128.1875 L173.6875,128.8125 L173.0625,128.1875 Z" id="Path" fill="#96B247"></path>
                    <polygon id="Path" fill="#A4A43D" points="174.96875 128.1875 173.71875 130.09375 174.96875 128.21875"></polygon>
                    <path d="M175.625,128.1875 L176.25,128.8125 L175.625,128.1875 Z" id="Path" fill="#262678"></path>
                    <path d="M154.03125,128.84375 L154.65625,129.46875 L154.03125,128.84375 Z" id="Path" fill="#6E6C70"></path>
                    <path d="M156.5625,128.84375 L157.1875,129.46875 L156.5625,128.84375 Z" id="Path" fill="#42BB92"></path>
                    <path d="M172.4375,128.84375 L173.0625,129.46875 L172.4375,128.84375 Z" id="Path" fill="#96B247"></path>
                    <path d="M174.96875,128.84375 L175.59375,129.46875 L174.96875,128.84375 Z" id="Path" fill="#262678"></path>
                    <path d="M154.6875,129.46875 L155.3125,130.09375 L154.6875,129.46875 Z" id="Path" fill="#6E6C70"></path>
                    <path d="M157.1875,129.46875 L157.8125,130.09375 L157.1875,129.46875 Z" id="Path" fill="#68B070"></path>
                    <path d="M171.15625,129.46875 L171.78125,130.09375 L171.15625,129.46875 Z" id="Path" fill="#27C2AA"></path>
                    <path d="M171.78125,129.46875 L172.40625,130.09375 L171.78125,129.46875 Z" id="Path" fill="#ADB333"></path>
                    <path d="M174.34375,129.46875 L174.96875,130.09375 L174.34375,129.46875 Z" id="Path" fill="#262678"></path>
                    <path d="M155.3125,130.09375 L155.9375,130.71875 L155.3125,130.09375 Z" id="Path" fill="#666677"></path>
                    <polygon id="Path" fill="#74B166" points="157.8125 130.09375 158.46875 130.71875 157.84375 130.09375"></polygon>
                    <path d="M170.53125,130.09375 L171.15625,130.71875 L170.53125,130.09375 Z" id="Path" fill="#34BE9E"></path>
                    <path d="M171.15625,130.09375 L171.78125,130.71875 L171.15625,130.09375 Z" id="Path" fill="#ADB333"></path>
                    <path d="M173.0625,130.09375 L172.4375,131.34375 L173.0625,130.09375 Z" id="Path" fill="#8D8D5B"></path>
                    <path d="M173.6875,130.09375 L174.3125,130.71875 L173.6875,130.09375 Z" id="Path" fill="#262678"></path>
                    <path d="M155.9375,130.71875 L156.5625,131.34375 L155.9375,130.71875 Z" id="Path" fill="#49497D"></path>
                    <path d="M158.46875,130.71875 L159.09375,131.34375 L158.46875,130.71875 Z" id="Path" fill="#96B247"></path>
                    <path d="M159.09375,130.71875 L159.71875,131.34375 L159.09375,130.71875 Z" id="Path" fill="#0DC9C1"></path>
                    <path d="M169.875,130.71875 L170.5,131.34375 L169.875,130.71875 Z" id="Path" fill="#42BB92"></path>
                    <path d="M173.0625,130.71875 L173.6875,131.34375 L173.0625,130.71875 Z" id="Path" fill="#0E0E6E"></path>
                    <path d="M156.5625,131.375 L157.1875,132 L156.5625,131.375 Z" id="Path" fill="#49497D"></path>
                    <path d="M159.09375,131.375 L159.71875,132 L159.09375,131.375 Z" id="Path" fill="#A2B23D"></path>
                    <polygon id="Path" fill="#27C2AA" points="159.75 131.375 160.375 132 159.75 131.375"></polygon>
                    <path d="M169.25,131.375 L169.875,132 L169.25,131.375 Z" id="Path" fill="#74B166"></path>
                    <path d="M171.15625,131.375 L169.28125,133.875 L171.15625,131.375 Z" id="Path" fill="#A4A43D"></path>
                    <path d="M171.78125,131.375 L172.40625,132 L171.78125,131.375 Z" id="Path" fill="#808067"></path>
                    <path d="M172.4375,131.375 L173.0625,132 L172.4375,131.375 Z" id="Path" fill="#0E0E6E"></path>
                    <path d="M157.1875,132 L157.8125,132.625 L157.1875,132 Z" id="Path" fill="#262678"></path>
                    <polygon id="Path" fill="#ADB333" points="159.75 132 160.375 132.625 159.75 132"></polygon>
                    <path d="M160.375,132 L161,132.625 L160.375,132 Z" id="Path" fill="#42BB92"></path>
                    <path d="M168,132 L168.625,132.625 L168,132 Z" id="Path" fill="#0DC9C1"></path>
                    <path d="M168.625,132 L169.25,132.625 L168.625,132 Z" id="Path" fill="#96B247"></path>
                    <path d="M171.15625,132 L171.78125,132.625 L171.15625,132 Z" id="Path" fill="#6E6C70"></path>
                    <polygon id="Path" fill="#1B1B74" points="157.8125 132.625 158.46875 133.25 157.84375 132.625"></polygon>
                    <path d="M158.46875,132.625 L159.09375,133.25 L158.46875,132.625 Z" id="Path" fill="#8D8D5B"></path>
                    <path d="M161,132.625 L161.625,133.25 L161,132.625 Z" id="Path" fill="#74B166"></path>
                    <path d="M161.65625,132.625 L162.28125,133.25 L161.65625,132.625 Z" id="Path" fill="#0DC9C1"></path>
                    <path d="M167.34375,132.625 L167.96875,133.25 L167.34375,132.625 Z" id="Path" fill="#34BE9E"></path>
                    <path d="M168,132.625 L168.625,133.25 L168,132.625 Z" id="Path" fill="#ADB333"></path>
                    <path d="M170.53125,132.625 L171.15625,133.25 L170.53125,132.625 Z" id="Path" fill="#49497D"></path>
                    <path d="M158.46875,133.28125 L159.09375,133.90625 L158.46875,133.28125 Z" id="Path" fill="#0E0E6E"></path>
                    <path d="M159.09375,133.28125 L159.71875,133.90625 L159.09375,133.28125 Z" id="Path" fill="#6E6C70"></path>
                    <polygon id="Path" fill="#A4A43D" points="159.75 133.28125 161 134.53125 159.75 133.28125"></polygon>
                    <path d="M161.65625,133.28125 L162.28125,133.90625 L161.65625,133.28125 Z" id="Path" fill="#96B247"></path>
                    <path d="M162.28125,133.28125 L162.90625,133.90625 L162.28125,133.28125 Z" id="Path" fill="#27C2AA"></path>
                    <path d="M166.71875,133.28125 L167.34375,133.90625 L166.71875,133.28125 Z" id="Path" fill="#68B070"></path>
                    <path d="M169.875,133.28125 L170.5,133.90625 L169.875,133.28125 Z" id="Path" fill="#32327B"></path>
                    <polygon id="Path" fill="#49497D" points="159.75 133.90625 160.375 134.53125 159.75 133.90625"></polygon>
                    <path d="M162.90625,133.90625 L163.53125,134.53125 L162.90625,133.90625 Z" id="Path" fill="#5BB47C"></path>
                    <path d="M165.4375,133.90625 L166.0625,134.53125 L165.4375,133.90625 Z" id="Path" fill="#27C2AA"></path>
                    <path d="M166.09375,133.90625 L166.71875,134.53125 L166.09375,133.90625 Z" id="Path" fill="#96B247"></path>
                    <path d="M168,133.90625 L167.375,135.15625 L168,133.90625 Z" id="Path" fill="#A4A43D"></path>
                    <path d="M168.625,133.90625 L169.25,134.53125 L168.625,133.90625 Z" id="Path" fill="#808067"></path>
                    <path d="M169.25,133.90625 L169.875,134.53125 L169.25,133.90625 Z" id="Path" fill="#0E0E6E"></path>
                    <path d="M160.375,134.53125 L161,135.15625 L160.375,134.53125 Z" id="Path" fill="#262678"></path>
                    <path d="M161,134.53125 L161.625,135.15625 L161,134.53125 Z" id="Path" fill="#8D8D5B"></path>
                    <path d="M163.5625,134.53125 L164.1875,135.15625 L163.5625,134.53125 Z" id="Path" fill="#8BB252"></path>
                    <path d="M164.1875,134.53125 L164.8125,135.15625 L164.1875,134.53125 Z" id="Path" fill="#1AC5B5"></path>
                    <path d="M164.8125,134.53125 L165.4375,135.15625 L164.8125,134.53125 Z" id="Path" fill="#5BB47C"></path>
                    <path d="M168,134.53125 L168.625,135.15625 L168,134.53125 Z" id="Path" fill="#58587B"></path>
                    <path d="M161,135.1875 L161.625,135.8125 L161,135.1875 Z" id="Path" fill="#0E0E6E"></path>
                    <path d="M161.65625,135.1875 L162.28125,135.8125 L161.65625,135.1875 Z" id="Path" fill="#666677"></path>
                    <path d="M162.28125,135.1875 L162.90625,135.8125 L162.28125,135.1875 Z" id="Path" fill="#A4A43D"></path>
                    <path d="M166.71875,135.1875 L167.34375,135.8125 L166.71875,135.1875 Z" id="Path" fill="#99994E"></path>
                    <path d="M167.34375,135.1875 L167.96875,135.8125 L167.34375,135.1875 Z M162.28125,135.8125 L162.90625,136.4375 L162.28125,135.8125 Z" id="Shape" fill="#32327B" fill-rule="nonzero"></path>
                    <path d="M162.90625,135.8125 L163.53125,136.4375 L162.90625,135.8125 Z" id="Path" fill="#99994E"></path>
                    <path d="M165.4375,135.8125 L166.0625,136.4375 L165.4375,135.8125 Z" id="Path" fill="#A4A43D"></path>
                    <path d="M166.09375,135.8125 L166.71875,136.4375 L166.09375,135.8125 Z" id="Path" fill="#666677"></path>
                    <path d="M166.71875,135.8125 L167.34375,136.4375 L166.71875,135.8125 Z M162.90625,136.4375 L163.53125,137.0625 L162.90625,136.4375 Z" id="Shape" fill="#0E0E6E" fill-rule="nonzero"></path>
                    <path d="M163.5625,136.4375 L164.1875,137.0625 L163.5625,136.4375 Z" id="Path" fill="#666677"></path>
                    <path d="M164.1875,136.4375 L164.8125,137.0625 L164.1875,136.4375 Z" id="Path" fill="#A4A43D"></path>
                    <path d="M164.8125,136.4375 L165.4375,137.0625 L164.8125,136.4375 Z" id="Path" fill="#99994E"></path>
                    <path d="M165.4375,136.4375 L166.0625,137.0625 L165.4375,136.4375 Z" id="Path" fill="#32327B"></path>
                    <path d="M164.1875,137.0625 L164.8125,137.6875 L164.1875,137.0625 Z" id="Path" fill="#262678"></path>
                    <path d="M164.8125,137.0625 L165.4375,137.6875 L164.8125,137.0625 Z" id="Path" fill="#0E0E6E"></path>
                    <path d="M165.4375,94.5625 C166.4375,96.875 169.5625,99.40625 170.4375,100.65625 C169.34375,101.90625 169.125,101.78125 169.25,104.09375 C171.15625,102.09375 171.1875,101.90625 172.4375,102.1875 C175.125,104.875 172.90625,110.625 170.6875,111.875 C168.46875,113.21875 168.875,111.84375 165.53125,113.5 C167.0625,114.8125 168.84375,113.3125 170.28125,113.71875 C171.0625,114.65625 169.90625,116.34375 170.5,117.96875 C171.78125,117.84375 171.625,115.25 171.9375,114.3125 C172.875,110.875 178.5,108.5 178.78125,105.34375 C179.96875,104.8125 181.125,105.1875 182.5625,105.96875 C181.84375,103.03125 179.5,103.0625 178.84375,102.15625 C177.34375,99.84375 176,97.21875 172.78125,96.53125 C170.3125,96 170.5,96.6875 168.9375,95.59375 C167.9375,94.84375 164.96875,93.40625 165.4375,94.5625 Z" id="Path" fill="#FF9900"></path>
                    <path d="M172.5,97.1875 C172.5,97.4722718 172.269147,97.703125 171.984375,97.703125 C171.699603,97.703125 171.46875,97.4722718 171.46875,97.1875 C171.46875,96.9027282 171.699603,96.671875 171.984375,96.671875 C172.269147,96.671875 172.5,96.9027282 172.5,97.1875 Z" id="Path" fill="#FFFFFF"></path>
                    <path d="M157.59375,104.34375 C159.15625,102.40625 159.96875,98.40625 160.65625,97.09375 C162.28125,97.46875 162.25,97.71875 164.25,96.53125 C161.59375,95.78125 161.375,95.84375 161.0625,94.625 C162.1875,90.96875 168.3125,90.25 170.46875,91.625 C172.6875,92.96875 171.28125,93.25 174.3125,95.40625 C174.75,93.4375 172.59375,92.59375 172.28125,91.125 C172.75,89.96875 174.78125,90.1875 175.90625,88.9375 C175.21875,87.84375 173,89.1875 172.03125,89.375 C168.59375,90.15625 163.8125,86.3125 160.90625,87.5 C159.875,86.71875 159.65625,85.5 159.6875,83.84375 C157.4375,85.875 158.5625,87.9375 158.03125,88.9375 C156.71875,91.34375 155,93.78125 155.90625,96.9375 C156.59375,99.375 157.09375,98.875 156.90625,100.78125 C156.6875,102 156.78125,105.3125 157.59375,104.34375 Z" id="Path" fill="#FF9900"></path>
                    <path d="M156.625,96.875 C156.875,96.75 157.1875,96.84375 157.3125,97.09375 C157.433132,97.3391821 157.334202,97.6359955 157.090442,97.7599727 C156.846683,97.8839498 156.548544,97.7890876 156.421245,97.5470463 C156.293946,97.3050051 156.384722,97.0055971 156.625,96.875 Z" id="Path" fill="#FFFFFF"></path>
                    <path d="M170.4375,105.6875 C167.9375,105.375 164.15625,106.71875 162.625,106.84375 C162.15625,105.25 162.375,105.125 160.3125,104.03125 C161.03125,106.71875 161.1875,106.84375 160.3125,107.78125 C156.625,108.6875 152.8125,103.8125 152.875,101.28125 C152.875,98.6875 153.875,99.71875 154.125,96 C152.25,96.625 152.625,98.9375 151.53125,99.96875 C150.3125,100.15625 149.46875,98.3125 147.78125,98 C147.21875,99.15625 149.5,100.34375 150.15625,101.09375 C152.625,103.65625 151.78125,109.6875 154.3125,111.5625 C154.1875,112.875 153.25,113.6875 151.8125,114.5 C154.71875,115.40625 155.90625,113.34375 157.03125,113.28125 C159.78125,113.1875 162.75,113.375 165,110.96875 C166.6875,109.125 166.03125,108.9375 167.75,108.15625 C168.90625,107.71875 171.6875,105.90625 170.4375,105.6875 Z" id="Path" fill="#FF9900"></path>
                    <path d="M164.5625,110.40625 C164.406196,110.311351 164.312394,110.140274 164.316426,109.957462 C164.320459,109.77465 164.421715,109.607876 164.582051,109.519962 C164.742388,109.432048 164.937446,109.436351 165.09375,109.53125 C165.335375,109.677951 165.412326,109.99275 165.265625,110.234375 C165.118924,110.476 164.804125,110.552951 164.5625,110.40625 Z" id="Path" fill="#FFFFFF"></path>
                </g>
            </g>
        </g>
    </g>
</svg>