<?xml version="1.0" encoding="UTF-8"?>
<svg width="200px" height="150px" viewBox="0 0 200 150" version="1.1" xmlns="http://www.w3.org/2000/svg" xmlns:xlink="http://www.w3.org/1999/xlink">
    <!-- Generator: Sketch 52.5 (67469) - http://www.bohemiancoding.com/sketch -->
    <title>bv</title>
    <desc>Created with Sketch.</desc>
    <defs>
        <polygon id="path-1" points="0 0 200 0 200 150 0 150"></polygon>
    </defs>
    <g id="Flags" stroke="none" stroke-width="1" fill="none" fill-rule="evenodd">
        <g id="Antarctica" transform="translate(-620.000000, -50.000000)">
            <g id="bv" transform="translate(620.000000, 50.000000)">
                <mask id="mask-2" fill="white">
                    <use xlink:href="#path-1"></use>
                </mask>
                <g id="Path"></g>
                <g id="Group" mask="url(#mask-2)">
                    <g transform="translate(-16.562500, -24.375000)">
                        <polygon id="Path" fill="#FFFFFF" fill-rule="evenodd" points="7.8125 24.375 226.46875 24.375 226.46875 184.375 7.8125 184.375"></polygon>
                        <path d="M0,0.0625 L68.34375,0.0625 L68.34375,86.375 L0,86.375 L0,0.0625 Z M107,24.1875 L226.0625,24.1875 L226.0625,86.375 L107,86.375 L107,24.1875 Z M7.9375,124.375 L67.4375,124.375 L67.4375,183.84375 L7.9375,183.84375 L7.9375,124.375 Z M107.8125,125.03125 L226.03125,125.03125 L226.03125,183.84375 L107.8125,183.84375 L107.8125,125.03125 Z" id="Shape" fill="#D72828" fill-rule="nonzero"></path>
                        <polygon id="Path" fill="#003897" fill-rule="evenodd" points="78.03125 16.4375 98.125 16.4375 98.125 183.84375 77.96875 183.84375"></polygon>
                        <polygon id="Path" fill="#003897" fill-rule="evenodd" points="7.9375 94.625 226.0625 94.625 226.0625 114.46875 7.9375 114.46875"></polygon>
                    </g>
                </g>
            </g>
        </g>
    </g>
</svg>