<?xml version="1.0" encoding="UTF-8"?>
<svg width="200px" height="141px" viewBox="0 0 200 141" version="1.1" xmlns="http://www.w3.org/2000/svg" xmlns:xlink="http://www.w3.org/1999/xlink">
    <!-- Generator: Sketch 52.5 (67469) - http://www.bohemiancoding.com/sketch -->
    <title>io</title>
    <desc>Created with Sketch.</desc>
    <defs>
        <polygon id="path-1" points="0 0 199.912152 0 199.912152 150 0 150"></polygon>
    </defs>
    <g id="Flags" stroke="none" stroke-width="1" fill="none" fill-rule="evenodd">
        <g id="Asia" transform="translate(-950.000000, -450.000000)">
            <g id="io" transform="translate(950.000000, 450.000000)">
                <mask id="mask-2" fill="white">
                    <use xlink:href="#path-1"></use>
                </mask>
                <g id="Path"></g>
                <g id="Group" mask="url(#mask-2)">
                    <polygon id="Path" fill="#FFFFFF" points="0 0 281.112738 0 281.112738 140.625 0 140.625"></polygon>
                    <path d="M281.112738,122.277832 C277.95571,124.200439 275.265373,128.594971 266.892387,128.594971 C250.146413,128.594971 245.973646,119.284058 233.400439,119.284058 C225.054905,119.284058 220.882138,128.622437 212.509151,128.622437 C195.763177,128.622437 191.59041,119.284058 179.017204,119.284058 C170.671669,119.284058 166.498902,128.622437 158.153367,128.622437 C141.407394,128.622437 137.207174,119.284058 124.66142,119.284058 C116.288433,119.284058 112.115666,128.622437 103.742679,128.622437 C86.9967057,128.622437 82.8239385,119.284058 70.2781845,119.284058 C61.9051977,119.284058 57.7324305,128.622437 49.3594436,128.622437 C32.61347,128.622437 28.4407028,119.284058 15.8949488,119.284058 C7.52196193,119.284058 5.02379209,125.930786 0,125.930786 L0,137.93335 C5.02379209,137.93335 7.52196193,131.286621 15.9224012,131.286621 C28.4407028,131.286621 32.6409224,140.625 49.3594436,140.625 C57.7324305,140.625 61.9051977,131.286621 70.2781845,131.286621 C82.8239385,131.286621 87.0241581,140.625 103.770132,140.625 C112.115666,140.625 116.288433,131.286621 124.66142,131.286621 C137.207174,131.286621 141.407394,140.625 158.125915,140.625 C166.498902,140.625 170.671669,131.286621 179.044656,131.286621 C191.59041,131.286621 195.79063,140.625 212.509151,140.625 C220.882138,140.625 225.054905,131.286621 233.427892,131.286621 C245.973646,131.286621 250.173865,140.625 266.892387,140.625 C275.265373,140.625 277.95571,137.988281 281.112738,136.09314 L281.112738,122.277832 Z M281.112738,98.9593506 C277.95571,100.881958 275.265373,105.276489 266.892387,105.276489 C250.146413,105.276489 245.973646,95.9381104 233.400439,95.9381104 C225.054905,95.9381104 220.882138,105.276489 212.509151,105.276489 C195.763177,105.276489 191.59041,95.9381104 179.017204,95.9381104 C170.671669,95.9381104 166.498902,105.276489 158.153367,105.276489 C141.407394,105.276489 137.207174,95.9381104 124.66142,95.9381104 C116.288433,95.9381104 112.115666,105.276489 103.742679,105.276489 C86.9967057,105.276489 82.8239385,95.9381104 70.2781845,95.9381104 C61.9051977,95.9381104 57.7324305,105.276489 49.3594436,105.276489 C32.61347,105.276489 28.4407028,95.9381104 15.8949488,95.9381104 C7.52196193,95.9381104 5.02379209,102.612305 0,102.612305 L0,114.614868 C5.02379209,114.614868 7.52196193,107.96814 15.9224012,107.96814 C28.4407028,107.96814 32.6409224,117.306519 49.3594436,117.306519 C57.7324305,117.306519 61.9051977,107.96814 70.2781845,107.96814 C82.8239385,107.96814 87.0241581,117.306519 103.770132,117.306519 C112.115666,117.306519 116.288433,107.96814 124.66142,107.96814 C137.207174,107.96814 141.407394,117.306519 158.153367,117.306519 C166.498902,117.306519 170.671669,107.96814 179.044656,107.96814 C191.59041,107.96814 195.79063,117.306519 212.509151,117.306519 C220.882138,117.306519 225.054905,107.96814 233.427892,107.96814 C245.973646,107.96814 250.173865,117.306519 266.892387,117.306519 C275.265373,117.306519 277.95571,114.6698 281.112738,112.774658 L281.112738,98.9593506 Z M281.112738,75.6408691 C277.95571,77.5634766 275.265373,81.9580078 266.892387,81.9580078 C250.146413,81.9580078 245.973646,72.6196289 233.400439,72.6196289 C225.054905,72.6196289 220.882138,81.9580078 212.509151,81.9580078 C195.763177,81.9580078 191.59041,72.6196289 179.017204,72.6196289 C170.671669,72.6196289 166.498902,81.9580078 158.153367,81.9580078 C141.407394,81.9580078 137.207174,72.6196289 124.66142,72.6196289 C116.288433,72.6196289 112.115666,81.9580078 103.742679,81.9580078 C86.9967057,81.9580078 82.8239385,72.6196289 70.2781845,72.6196289 C61.9051977,72.6196289 57.7324305,81.9580078 49.3594436,81.9580078 C32.61347,81.9580078 28.4407028,72.6196289 15.8949488,72.6196289 C7.52196193,72.6196289 5.02379209,79.2938232 0,79.2938232 L0,91.2963867 C5.02379209,91.2963867 7.52196193,84.6496582 15.9224012,84.6496582 C28.4407028,84.6496582 32.6409224,93.9880371 49.3594436,93.9880371 C57.7324305,93.9880371 61.9051977,84.6496582 70.2781845,84.6496582 C82.8239385,84.6496582 87.0241581,93.9880371 103.770132,93.9880371 C112.115666,93.9880371 116.288433,84.6496582 124.66142,84.6496582 C137.207174,84.6496582 141.407394,93.9880371 158.153367,93.9880371 C166.498902,93.9880371 170.671669,84.6496582 179.044656,84.6496582 C191.59041,84.6496582 195.79063,93.9880371 212.509151,93.9880371 C220.882138,93.9880371 225.054905,84.6496582 233.427892,84.6496582 C245.973646,84.6496582 250.173865,93.9880371 266.892387,93.9880371 C275.265373,93.9880371 277.95571,91.3238525 281.112738,89.4287109 L281.112738,75.6408691 Z M281.112738,52.3223877 C277.95571,54.2175293 275.265373,58.6395264 266.892387,58.6395264 C250.146413,58.6395264 245.973646,49.3011475 233.400439,49.3011475 C225.054905,49.3011475 220.882138,58.6395264 212.509151,58.6395264 C195.763177,58.6395264 191.59041,49.3011475 179.017204,49.3011475 C170.671669,49.3011475 166.498902,58.6395264 158.153367,58.6395264 C141.407394,58.6395264 137.207174,49.3011475 124.66142,49.3011475 C116.288433,49.3011475 112.115666,58.6395264 103.742679,58.6395264 C86.9967057,58.6395264 82.8239385,49.3011475 70.2781845,49.3011475 C61.9051977,49.3011475 57.7324305,58.6395264 49.3594436,58.6395264 C32.61347,58.6395264 28.4407028,49.3011475 15.8949488,49.3011475 C7.52196193,49.3011475 5.02379209,55.9753418 0,55.9753418 L0,67.9779053 C5.02379209,67.9779053 7.52196193,61.3311768 15.9224012,61.3311768 C28.4407028,61.3311768 32.6409224,70.6695557 49.3594436,70.6695557 C57.7324305,70.6695557 61.9051977,61.3311768 70.2781845,61.3311768 C82.8239385,61.3311768 87.0241581,70.6695557 103.770132,70.6695557 C112.115666,70.6695557 116.288433,61.3311768 124.66142,61.3311768 C137.207174,61.3311768 141.407394,70.6695557 158.153367,70.6695557 C166.498902,70.6695557 170.671669,61.3311768 179.044656,61.3311768 C191.59041,61.3311768 195.79063,70.6695557 212.509151,70.6695557 C220.882138,70.6695557 225.054905,61.3311768 233.427892,61.3311768 C245.973646,61.3311768 250.173865,70.6695557 266.892387,70.6695557 C275.265373,70.6695557 277.95571,68.0053711 281.112738,66.1102295 L281.112738,52.3223877 Z M281.112738,28.9764404 C277.95571,30.8990479 275.265373,35.3210449 266.892387,35.3210449 C250.146413,35.3210449 245.973646,25.982666 233.400439,25.982666 C225.054905,25.982666 220.882138,35.3210449 212.509151,35.3210449 C195.763177,35.3210449 191.59041,25.982666 179.017204,25.982666 C170.671669,25.982666 166.498902,35.3210449 158.153367,35.3210449 C141.407394,35.3210449 137.207174,25.982666 124.66142,25.982666 C116.288433,25.982666 112.115666,35.3210449 103.742679,35.3210449 C86.9967057,35.3210449 82.8239385,25.982666 70.2781845,25.982666 C61.9051977,25.982666 57.7324305,35.3210449 49.3594436,35.3210449 C32.61347,35.3210449 28.4407028,25.982666 15.8949488,25.982666 C7.52196193,26.0101318 5.02379209,32.6843262 0,32.6843262 L0,44.6868896 C5.02379209,44.6868896 7.52196193,38.0401611 15.8949488,38.0401611 C28.4407028,38.0401611 32.6409224,47.37854 49.386896,47.37854 C57.7324305,47.37854 61.9051977,38.0401611 70.2781845,38.0401611 C82.8239385,38.0401611 87.0241581,47.37854 103.770132,47.37854 C112.115666,47.37854 116.288433,38.0401611 124.633968,38.0401611 C137.207174,38.0401611 141.379941,47.37854 158.125915,47.37854 C166.498902,47.37854 170.671669,38.0401611 179.044656,38.0401611 C191.59041,38.0401611 195.79063,47.37854 212.509151,47.37854 C220.882138,47.37854 225.054905,38.0401611 233.427892,38.0401611 C245.973646,38.0401611 250.173865,47.37854 266.892387,47.37854 C275.237921,47.37854 277.95571,44.7143555 281.112738,42.8192139 L281.112738,29.0313721 L281.112738,28.9764404 Z M281.112738,5.6854248 C277.95571,7.58056641 275.265373,12.0025635 266.892387,12.0025635 C250.146413,12.0025635 245.973646,2.66418457 233.400439,2.66418457 C225.054905,2.66418457 220.882138,12.0025635 212.509151,12.0025635 C195.763177,12.0025635 191.59041,2.66418457 179.017204,2.66418457 C170.671669,2.66418457 166.498902,12.0025635 158.153367,12.0025635 C141.407394,12.0025635 137.207174,2.66418457 124.66142,2.66418457 C116.288433,2.66418457 112.115666,12.0025635 103.742679,12.0025635 C86.9967057,12.0025635 82.8239385,2.66418457 70.2781845,2.66418457 C61.9051977,2.66418457 57.7324305,12.0025635 49.3594436,12.0025635 C32.61347,12.0025635 28.4407028,2.66418457 15.8949488,2.66418457 C7.52196193,2.66418457 5.02379209,9.33837891 0,9.33837891 L0,21.3684082 C5.02379209,21.3684082 7.52196193,14.7216797 15.8949488,14.7216797 C28.4407028,14.7216797 32.6409224,24.0600586 49.386896,24.0600586 C57.7324305,24.0600586 61.9051977,14.7216797 70.2781845,14.7216797 C82.8239385,14.7216797 87.0241581,24.0600586 103.770132,24.0600586 C112.115666,24.0600586 116.288433,14.7216797 124.633968,14.7216797 C137.207174,14.7216797 141.379941,24.0600586 158.125915,24.0600586 C166.498902,24.0600586 170.671669,14.7216797 179.044656,14.7216797 C191.59041,14.7216797 195.79063,24.0600586 212.509151,24.0600586 C220.882138,24.0600586 225.054905,14.7216797 233.427892,14.7216797 C245.973646,14.7216797 250.173865,24.0600586 266.892387,24.0600586 C275.237921,24.0600586 277.95571,21.395874 281.112738,19.5007324 L281.112738,5.6854248 Z" id="Shape" fill="#000063"></path>
                    <polygon id="Path" fill="#000063" points="0 0 71.7331625 0 71.7331625 43.3959961 0 43.3959961"></polygon>
                    <g fill-rule="nonzero" id="Shape">
                        <path d="M0,0 L0,4.8614502 L63.7170571,43.3959961 L71.7331625,43.3959961 L71.7331625,38.5345459 L8.04355783,0.0274658203 L0,0.0274658203 L0,0 Z M71.7331625,0 L71.7331625,4.8614502 L8.04355783,43.3959961 L0,43.3959961 L0,38.5345459 L63.7170571,0.0274658203 L71.7331625,0.0274658203 L71.7331625,0 Z" fill="#FFFFFF"></path>
                        <path d="M29.8956808,0 L29.8956808,43.3959961 L41.8374817,43.3959961 L41.8374817,0 L29.9231332,0 L29.8956808,0 Z M0,14.5019531 L0,28.9489746 L71.7331625,28.9489746 L71.7331625,14.4744873 L0,14.4744873 L0,14.5019531 Z" fill="#FFFFFF"></path>
                        <path d="M0,17.3583984 L0,26.0375977 L71.7331625,26.0375977 L71.7331625,17.3583984 L0,17.3583984 Z M32.284041,0 L32.284041,43.3959961 L39.4491215,43.3959961 L39.4491215,0 L32.284041,0 Z M0,43.3959961 L23.9110542,28.9215088 L29.2642753,28.9215088 L5.35322108,43.3959961 L0,43.3959961 Z M0,0 L23.9110542,14.4744873 L18.5578331,14.4744873 L0,3.2409668 L0,0.0274658203 L0,0 Z M42.4688873,14.4744873 L66.3799414,0.0274658203 L71.7331625,0.0274658203 L47.8495608,14.4744873 L42.4688873,14.4744873 Z M71.7331625,43.3959961 L47.8495608,28.9215088 L53.1753294,28.9215088 L71.7331625,40.1550293 L71.7331625,43.3959961 Z" fill="#CC0000"></path>
                    </g>
                    <path d="M104.268668,32.8908032 L103.260088,128.308365 C103.260088,133.330342 107.798697,133.330342 108.280322,128.308365 L107.277408,32.8908032 L104.268668,32.8908032 Z" id="Path" stroke="#FFFFFF" fill="#A24300"></path>
                    <polygon id="Path" stroke="#FFFFFF" fill="#006D00" transform="translate(107.616881, 55.090371) rotate(154.003383) translate(-107.616881, -55.090371) " points="107.615792 40.0506782 108.811629 44.3492355 111.19213 41.1231714 110.001157 46.4953688 112.381451 44.3485489 110.000536 49.7209752 112.380831 47.5680921 109.999917 52.9405184 112.380211 50.7936985 109.999091 57.2393058 112.379386 55.0864228 109.998265 61.5320301 112.378559 59.3852102 109.997439 65.8308176 108.806878 69.0566528 107.616731 70.1300628 106.420274 69.0571119 105.230954 65.8317344 102.852312 59.3870426 105.23178 61.532947 102.853139 55.0882551 105.232606 57.2402227 102.853964 50.7955308 105.233432 52.9414352 102.854584 47.5699245 105.234051 49.721892 102.855203 44.3503812 105.234672 46.4962856 104.052486 41.1306078 106.431747 44.3557565 107.629237 40.0567388"></polygon>
                    <path d="M107.631887,40.0547056 L107.631887,70.1308483 M102.856182,59.3980313 L107.62222,65.8377215 L112.381536,59.3919675" id="Shape" stroke="#000000" stroke-width="0.2" transform="translate(107.618859, 55.092777) rotate(154.003383) translate(-107.618859, -55.092777) "></path>
                    <polyline id="Path" stroke="#000000" stroke-width="0.2" transform="translate(106.108339, 52.246688) rotate(154.003383) translate(-106.108339, -52.246688) " points="101.345215 49.0254881 106.110461 55.4697209 110.871462 49.0236558"></polyline>
                    <polyline id="Path" stroke="#000000" stroke-width="0.2" transform="translate(108.119997, 56.038814) rotate(154.003383) translate(-108.119997, -56.038814) " points="103.356873 52.8176138 108.122119 59.2618465 112.88312 52.8157814"></polyline>
                    <polyline id="Path" stroke="#000000" stroke-width="0.2" transform="translate(109.883132, 59.362235) rotate(154.003383) translate(-109.883132, -59.362235) " points="105.120008 56.6776251 109.88546 62.0486768 114.646255 56.6757927"></polyline>
                    <polyline id="Path" stroke="#000000" stroke-width="0.2" transform="translate(111.392894, 62.208184) rotate(154.003383) translate(-111.392894, -62.208184) " points="106.629771 59.5196261 111.395222 64.896741 116.156017 59.5238569"></polyline>
                    <polyline id="Path" stroke="#000000" stroke-width="0.2" transform="translate(112.643977, 64.580878) rotate(154.003383) translate(-112.643977, -64.580878) " points="109.070794 61.3623653 112.632655 67.8007663 116.21716 61.3609907"></polyline>
                    <polygon id="Path" stroke="#FFFFFF" fill="#006D00" transform="translate(92.686710, 33.037218) rotate(-50.025448) translate(-92.686710, -33.037218) " points="92.6866381 14.9957366 93.9238389 20.1522262 96.3877343 16.2822255 95.1547028 22.7266873 97.6182869 20.1513384 95.1537728 26.5960961 97.6173587 24.0134738 95.1528445 30.4582315 97.6164287 27.8828826 95.1516051 35.6150188 97.615191 33.0323966 95.1503674 40.7645328 97.6139516 38.1891839 95.149128 45.9213201 93.9167154 49.7910248 92.6849233 51.0786993 91.4467925 49.7916184 90.2162398 45.9225056 87.7551327 38.1915532 90.2174792 40.7657183 87.7563721 33.0347659 90.2187169 35.6162043 87.7576098 27.885252 90.2199563 30.459417 87.7585398 24.0158432 90.2208846 26.5972815 87.759468 20.1537077 90.2218146 22.7278727 88.9988365 16.2912746 91.4608718 20.1600915 92.7005514 15.0030065"></polygon>
                    <path d="M92.6948271,14.9929029 L92.6948271,51.0789365 M87.7550862,38.2014608 L92.6865604,45.9279462 L97.6110789,38.1941854" id="Shape" stroke="#000000" stroke-width="0.2" transform="translate(92.683083, 33.035920) rotate(-50.025448) translate(-92.683083, -33.035920) "></path>
                    <polyline id="Path" stroke="#000000" stroke-width="0.2" transform="translate(95.904471, 35.171694) rotate(-50.025448) translate(-95.904471, -35.171694) " points="90.9750618 31.3076996 95.9060918 39.0380584 100.833881 31.3053303"></polyline>
                    <polyline id="Path" stroke="#000000" stroke-width="0.2" transform="translate(91.613517, 32.325218) rotate(-50.025448) translate(-91.613517, -32.325218) " points="86.6841076 28.4612233 91.6151376 36.1915821 96.5429265 28.458854"></polyline>
                    <polyline id="Path" stroke="#000000" stroke-width="0.2" transform="translate(87.852772, 29.830649) rotate(-50.025448) translate(-87.852772, -29.830649) " points="82.9233626 26.6103439 87.8547019 33.0533242 92.7821814 26.6079746"></polyline>
                    <polyline id="Path" stroke="#000000" stroke-width="0.2" transform="translate(84.632434, 27.694543) rotate(-50.025448) translate(-84.632434, -27.694543) " points="79.7030253 24.4694162 84.6343629 30.9196698 89.5618424 24.4743202"></polyline>
                    <polyline id="Path" stroke="#000000" stroke-width="0.2" transform="translate(81.954753, 25.909734) rotate(-50.025448) translate(-81.954753, -25.909734) " points="78.2568262 22.0489303 81.9424602 29.7723151 85.6526798 22.0471529"></polyline>
                    <polygon id="Path" stroke="#FFFFFF" fill="#006D00" transform="translate(120.639533, 37.059617) rotate(63.096326) translate(-120.639533, -37.059617) " points="120.633326 18.575902 121.825435 23.8593268 124.193408 19.8955378 123.010332 26.4974293 125.378566 23.8600266 123.011113 30.4616849 125.379345 27.8168305 123.011892 34.4184888 125.380126 31.781086 123.012933 39.701679 125.381166 37.0568246 123.013973 44.9774175 125.382207 42.3400148 123.015014 50.2606077 121.831418 54.22463 120.647301 55.5433314 119.455973 54.2241621 118.270815 50.2596733 115.900501 42.3381473 118.269774 44.9764831 115.89946 37.0549571 118.268735 39.7007446 115.89842 31.7792186 118.267694 34.4175544 115.897639 27.814963 118.266914 30.4607505 115.89686 23.8581591 118.266133 26.4964949 117.087148 19.9015898 119.456683 23.8663118 120.646711 18.5833562"></polygon>
                    <path d="M120.656518,18.5716714 L120.656518,55.5459982 M115.904294,42.3515308 L120.646651,50.2682113 L125.382319,42.3440763" id="Shape" stroke="#000000" stroke-width="0.2" transform="translate(120.643306, 37.058835) rotate(63.096326) translate(-120.643306, -37.058835) "></path>
                    <polyline id="Path" stroke="#000000" stroke-width="0.2" transform="translate(117.007740, 38.628682) rotate(63.096326) translate(-117.007740, -38.628682) " points="112.266887 34.6676848 117.012646 42.5896786 121.748593 34.6695522"></polyline>
                    <polyline id="Path" stroke="#000000" stroke-width="0.2" transform="translate(121.850686, 36.536314) rotate(63.096326) translate(-121.850686, -36.536314) " points="117.109833 32.5753166 121.855592 40.4973105 126.591539 32.5771841"></polyline>
                    <polyline id="Path" stroke="#000000" stroke-width="0.2" transform="translate(126.095162, 34.702652) rotate(63.096326) translate(-126.095162, -34.702652) " points="121.354309 31.4011223 126.099808 38.0041815 130.836015 31.4029898"></polyline>
                    <polyline id="Path" stroke="#000000" stroke-width="0.2" transform="translate(129.730791, 33.131898) rotate(63.096326) translate(-129.730791, -33.131898) " points="124.989937 29.8266427 129.735438 36.4371536 134.471645 29.8359618"></polyline>
                    <polyline id="Path" stroke="#000000" stroke-width="0.2" transform="translate(132.760587, 31.830027) rotate(63.096326) translate(-132.760587, -31.830027) " points="129.204111 27.8728735 132.752109 35.7871798 136.317063 27.8742744"></polyline>
                    <polygon id="Path" stroke="#FFFFFF" fill="#006D00" transform="translate(120.877183, 52.741545) rotate(125.552499) translate(-120.877183, -52.741545) " points="120.877068 34.4745289 122.097172 39.6954987 124.526974 35.7771579 123.311019 42.302162 125.740518 39.6946574 123.310114 46.2199419 125.739615 43.605073 123.309211 50.1303576 125.73871 47.5228529 123.308005 55.3516094 125.737506 52.7367405 123.306801 60.5654969 125.7363 57.9579923 123.305595 65.7867487 122.090241 69.7048091 120.875491 71.0085614 119.654482 69.7053715 118.440938 65.787872 116.013849 57.9602373 118.442144 60.5666202 116.015055 52.7389855 118.443348 55.3527327 116.016259 47.525098 118.444554 50.1314809 116.017164 43.607318 118.445457 46.2210652 116.018067 39.6969024 118.446362 42.3032853 117.24028 35.7862047 119.668273 39.7034238 120.890788 34.4818899"></polygon>
                    <path d="M120.893217,34.4733345 L120.893217,71.0118079 M116.021287,57.9728769 L120.884372,65.7962355 L125.740597,57.9655103" id="Shape" stroke="#000000" stroke-width="0.2" transform="translate(120.880942, 52.742571) rotate(125.552499) translate(-120.880942, -52.742571) "></path>
                    <polyline id="Path" stroke="#000000" stroke-width="0.2" transform="translate(117.443973, 50.871137) rotate(125.552499) translate(-117.443973, -50.871137) " points="112.582747 46.9587234 117.445596 54.7857957 122.305199 46.9564784"></polyline>
                    <polyline id="Path" stroke="#000000" stroke-width="0.2" transform="translate(122.022196, 53.365450) rotate(125.552499) translate(-122.022196, -53.365450) " points="117.16097 49.4530363 122.023819 57.2801086 126.883422 49.4507913"></polyline>
                    <polyline id="Path" stroke="#000000" stroke-width="0.2" transform="translate(126.034695, 55.551374) rotate(125.552499) translate(-126.034695, -55.551374) " points="121.173469 52.2906966 126.036619 58.814297 130.895921 52.2884516"></polyline>
                    <polyline id="Path" stroke="#000000" stroke-width="0.2" transform="translate(129.470682, 57.423218) rotate(125.552499) translate(-129.470682, -57.423218) " points="124.609457 54.1577354 129.472605 60.6887001 134.331907 54.1628547"></polyline>
                    <polyline id="Path" stroke="#000000" stroke-width="0.2" transform="translate(132.328477, 58.988198) rotate(125.552499) translate(-132.328477, -58.988198) " points="128.6817 55.0790439 132.316379 62.8990356 135.975254 55.0773598"></polyline>
                    <polygon id="Path" stroke="#FFFFFF" fill="#006D00" transform="translate(93.233611, 53.011902) rotate(-131.959354) translate(-93.233611, -53.011902) " points="93.2274653 37.1666102 94.3408061 41.6959313 96.5519673 38.2980828 95.447348 43.9575314 97.6587852 41.6967366 95.4481728 47.3559167 97.6596085 45.088734 95.4489961 50.7479142 97.6604333 48.4871194 95.4500954 55.2769654 97.661531 53.0097827 95.4511931 59.7996286 97.6626303 57.5388338 95.4522924 64.3286798 94.3471242 67.7267968 93.2414056 68.8571941 92.1288896 67.7262584 91.0220718 64.3276046 88.8084376 57.5366849 91.0209725 59.7985534 88.8073384 53.0076337 91.0198748 55.2758902 88.8062407 48.4849705 91.0187755 50.746839 88.8054158 45.0865851 91.0179523 47.3548415 88.8045925 41.6945877 91.0171274 43.9564562 89.9160108 38.3028602 92.1288217 41.7017824 93.239964 37.1730012"></polygon>
                    <path d="M93.2462762,37.1669925 L93.2462762,68.85974 M88.8047326,57.5500297 L93.2337574,64.3358558 L97.6565352,57.54364" id="Shape" stroke="#000000" stroke-width="0.2" transform="translate(93.230634, 53.013366) rotate(-131.959354) translate(-93.230634, -53.013366) "></path>
                    <polyline id="Path" stroke="#000000" stroke-width="0.2" transform="translate(95.810175, 50.806670) rotate(-131.959354) translate(-95.810175, -50.806670) " points="91.3830791 47.4109408 95.8149478 54.2023988 100.237272 47.4130897"></polyline>
                    <polyline id="Path" stroke="#000000" stroke-width="0.2" transform="translate(92.374224, 53.747458) rotate(-131.959354) translate(-92.374224, -53.747458) " points="87.9471281 50.3517292 92.3789969 57.1431872 96.8013208 50.3538781"></polyline>
                    <polyline id="Path" stroke="#000000" stroke-width="0.2" transform="translate(89.362823, 56.324700) rotate(-131.959354) translate(-89.362823, -56.324700) " points="84.9357263 53.4943036 89.3673206 59.1550959 93.7899189 53.4964526"></polyline>
                    <polyline id="Path" stroke="#000000" stroke-width="0.2" transform="translate(86.783433, 58.532368) rotate(-131.959354) translate(-86.783433, -58.532368) " points="82.3563358 55.6987778 86.7879316 61.365958 91.21053 55.7073147"></polyline>
                    <polyline id="Path" stroke="#000000" stroke-width="0.2" transform="translate(84.631885, 60.365810) rotate(-131.959354) translate(-84.631885, -60.365810) " points="81.3107821 56.9734104 84.6241591 63.758209 87.9529887 56.9750225"></polyline>
                    <polygon id="Path" stroke="#FFFFFF" fill="#006D00" transform="translate(117.173348, 27.337457) scale(-1, 1) rotate(-32.051275) translate(-117.173348, -27.337457) " points="115.141106 9.78293435 117.334766 14.8001376 120.562733 11.0343957 119.781337 17.3049042 121.923118 14.79913 120.56053 21.0697661 122.488189 18.5569618 120.559705 24.8277222 123.267383 22.3218237 120.558603 29.8454074 123.266282 27.3324317 120.557503 34.8560154 123.265181 32.3501169 120.556402 39.8737006 119.202011 43.639031 117.848173 44.8919803 116.487237 43.6396272 115.134499 39.8748912 112.429024 32.3524965 115.135601 34.857206 112.430125 27.3348113 115.136701 29.846598 112.431225 22.3242032 115.137803 24.8289128 111.652032 18.5593413 115.138628 21.0709567 111.079313 14.8015112 114.367082 17.3060932 112.433703 11.0361808 115.140004 14.8006195 115.141106 9.78293435"></polygon>
                    <polyline id="Path" stroke="#000000" stroke-width="0.2" transform="translate(116.822793, 28.427819) scale(-1, 1) rotate(-32.051275) translate(-116.822793, -28.427819) " points="115.718728 12.1258923 117.926858 20.9010482 117.921626 44.729745"></polyline>
                    <polyline id="Path" stroke="#000000" stroke-width="0.2" transform="translate(110.759044, 34.630704) scale(-1, 1) rotate(-32.051275) translate(-110.759044, -34.630704) " points="106.151574 31.4970499 110.730902 37.7663812 115.366514 31.4950263"></polyline>
                    <polyline id="Path" stroke="#000000" stroke-width="0.2" transform="translate(113.876741, 30.669460) scale(-1, 1) rotate(-32.051275) translate(-113.876741, -30.669460) " points="109.20427 27.5393732 113.913602 33.8015988 118.549213 27.5373211"></polyline>
                    <polyline id="Path" stroke="#000000" stroke-width="0.2" transform="translate(116.927449, 26.692421) scale(-1, 1) rotate(-32.051275) translate(-116.927449, -26.692421) " points="112.319979 23.5587738 116.960485 29.8280916 121.534919 23.5567502"></polyline>
                    <polyline id="Path" stroke="#000000" stroke-width="0.2" transform="translate(119.948676, 23.291873) scale(-1, 1) rotate(-32.051275) translate(-119.948676, -23.291873) " points="115.497974 20.7916167 120.337585 25.8011617 124.399378 20.7825848"></polyline>
                    <polyline id="Path" stroke="#000000" stroke-width="0.2" transform="translate(122.807216, 20.446208) scale(-1, 1) rotate(-32.051275) translate(-122.807216, -20.446208) " points="118.360338 17.9389373 123.781139 22.9554318 127.254094 17.9369843"></polyline>
                    <polyline id="Path" stroke="#000000" stroke-width="0.2" transform="translate(124.791381, 18.206438) scale(-1, 1) rotate(-32.051275) translate(-124.791381, -18.206438) " points="121.407404 15.4333929 125.474391 21.5896026 128.175357 14.8232735"></polyline>
                    <polygon id="Path" stroke="#FFFFFF" fill="#006D00" transform="translate(104.396874, 24.530579) rotate(-2.382370) translate(-104.396874, -24.530579) " points="102.36492 7.84517056 104.557377 12.6143153 107.781344 9.03567637 107.001988 14.9954971 109.141114 12.6142224 107.781151 18.5740549 109.706369 16.1860579 107.781079 22.1459018 110.485532 19.7646157 107.780982 26.9150911 110.485435 24.5270783 107.780885 31.6775537 110.485338 29.2962675 107.780789 36.4467429 106.428514 40.025344 105.076287 41.215987 103.71647 40.025399 102.36434 36.4468528 99.6600801 29.2964871 102.364436 31.6776635 99.6601767 24.5272978 102.364533 26.9152009 99.6602733 19.7648352 102.36463 22.1460117 98.8811106 16.1862774 102.364702 18.5741647 98.3082159 12.6144421 101.593179 14.9956068 99.6604907 9.03584105 102.364823 12.6143598 102.36492 7.84517056"></polygon>
                    <polyline id="Path" stroke="#000000" stroke-width="0.2" transform="translate(104.033448, 25.618153) rotate(-2.382370) translate(-104.033448, -25.618153) " points="102.929616 10.1233549 105.13728 18.4643464 105.136821 41.1129503"></polyline>
                    <polyline id="Path" stroke="#000000" stroke-width="0.2" transform="translate(105.443360, 33.629678) rotate(-2.382370) translate(-105.443360, -33.629678) " points="100.840524 30.6499152 105.4165 36.6096273 110.046195 30.6497285"></polyline>
                    <polyline id="Path" stroke="#000000" stroke-width="0.2" transform="translate(105.187970, 28.852104) rotate(-2.382370) translate(-105.187970, -28.852104) " points="100.520198 25.8757072 105.226047 31.82869 109.855742 25.8755179"></polyline>
                    <polyline id="Path" stroke="#000000" stroke-width="0.2" transform="translate(104.999316, 24.091082) rotate(-2.382370) translate(-104.999316, -24.091082) " points="100.396481 21.1113195 105.033574 27.0710304 109.602152 21.1111328"></polyline>
                    <polyline id="Path" stroke="#000000" stroke-width="0.2" transform="translate(104.486030, 19.835094) rotate(-2.382370) translate(-104.486030, -19.835094) " points="100.039806 17.4573651 104.875551 22.2197296 108.932255 17.4504581"></polyline>
                    <polyline id="Path" stroke="#000000" stroke-width="0.2" transform="translate(103.774601, 16.125481) rotate(-2.382370) translate(-103.774601, -16.125481) " points="99.3321958 13.7410309 104.748548 18.5101103 108.217005 13.7408507"></polyline>
                    <polyline id="Path" stroke="#000000" stroke-width="0.2" transform="translate(103.441247, 13.324734) rotate(-2.382370) translate(-103.441247, -13.324734) " points="100.060736 10.6880005 104.124864 16.5400967 106.821759 10.1093722"></polyline>
                    <polygon id="Path" stroke="#FFFFFF" fill="#006D00" transform="translate(88.720511, 43.523537) rotate(-81.595333) translate(-88.720511, -43.523537) " points="82.9518671 26.0649906 88.7208509 32.0858218 89.8736856 28.4702791 89.8732604 34.4915174 92.1851009 32.0855773 91.0255846 38.1068974 93.3374256 35.6941614 92.184421 41.715481 94.4897497 39.3095414 93.3366603 46.5337495 95.641989 44.1278099 93.3363201 51.3520993 95.6416493 48.9393637 94.4885598 56.1635718 93.3357251 59.7791145 92.1830608 60.9820843 91.0240545 59.7792777 89.8717303 56.1638976 86.4143869 50.5710501 88.7194906 51.3524251 86.4148418 44.128461 88.7198308 46.5340753 85.2626025 39.3101926 87.5675915 41.7158068 84.1037666 35.694813 87.5678463 38.1071414 82.951442 32.0862289 86.4155222 34.4917614 81.7990324 29.6805333 86.415692 32.0859845 82.9518671 26.0649906"></polygon>
                    <polyline id="Path" stroke="#000000" stroke-width="0.2" transform="translate(89.624246, 44.031747) rotate(-81.595333) translate(-89.624246, -44.031747) " points="85.812782 27.5415703 89.9798426 34.0314371 91.125655 37.6468176 91.7049838 40.7185597 92.2776395 46.0737515 92.8894037 50.8920581 93.4357106 60.5219232"></polyline>
                    <polyline id="Path" stroke="#000000" stroke-width="0.2" transform="translate(98.590420, 42.601387) rotate(-81.595333) translate(-98.590420, -42.601387) " points="94.865658 40.7906671 99.013301 45.6155202 102.315183 39.587253"></polyline>
                    <polyline id="Path" stroke="#000000" stroke-width="0.2" transform="translate(93.796310, 42.092684) rotate(-81.595333) translate(-93.796310, -42.092684) " points="89.8436793 39.0859039 94.4470607 45.1000213 97.7489417 39.085346"></polyline>
                    <path d="M82.5611008,43.740307 L87.1757252,49.2000866 L90.1631901,43.1759711 M80.2570429,35.9483923 L86.0171876,40.7690446 L87.7029249,35.9483923" id="Shape" stroke="#000000" stroke-width="0.2" transform="translate(85.210116, 42.574239) rotate(-81.595333) translate(-85.210116, -42.574239) "></path>
                    <path d="M76.8133227,37.5426951 L82.1699318,41.1530848 L82.8533388,37.5426951 M78.713845,43.5600113 L83.9858418,48.3874628 L86.1987787,43.5600113" id="Shape" stroke="#000000" stroke-width="0.2" transform="translate(81.506051, 42.965079) rotate(-81.595333) translate(-81.506051, -42.965079) "></path>
                    <g transform="translate(88.945827, 74.707031)">
                        <path d="M4.49217194,22.9941126 L4.42842661,15.0826536 L2.13734434,11.3876466 C1.56363635,9.5712226 1.84486576,8.69409009 2.77479768,8.63193109 C3.70097987,8.57667865 4.61966261,9.10157684 5.95456488,9.16028256 C7.28946715,9.21898828 7.03823554,7.10903568 9.01059114,7.16774139 C10.9829467,7.22644711 14.421445,8.28315005 17.3462309,8.45926721 C20.2747665,8.63193109 21.8009047,7.51997571 25.1756577,7.40256427 C28.5504106,7.28515283 29.4390955,8.86675397 29.6303315,8.86675397 C29.8215675,8.86675397 30.7777475,8.22444434 31.7301778,8.1070329 C32.6863578,7.98962146 33.0050845,8.45926721 33.0050845,8.45926721 C33.0050845,8.45926721 32.9413391,10.4518084 32.4951218,11.6224695 C32.0489045,12.7965839 30.4590209,14.7304193 30.3952755,14.7304193 C30.3315302,14.7304193 29.8215675,23.3463469 29.8215675,23.4050526 C29.8215675,23.4637583 4.49217194,23.1702297 4.49217194,22.9941126 Z" id="Path" stroke="#000000" stroke-width="0.2" fill="#CC0000"></path>
                        <g transform="translate(17.295022, 3.021240)" id="Path" stroke="#000000" stroke-width="0.2">
                            <path d="M2.7302439,11.8657172 C2.7302439,11.8657172 0.180430573,10.0700129 0.112935515,5.74996262 C0.07543826,3.26360275 1.40284108,1.46789841 4.72509785,1.46789841 C9.37475744,1.46789841 16.0155213,3.30158881 16.0155213,3.30158881 L16.0155213,3.91281894 C16.0155213,3.91281894 10.7021603,2.07912854 4.72134812,2.07912854 C2.06654249,2.07912854 0.735389944,3.87483289 0.735389944,5.71197656 C0.735389944,8.77158051 3.39769503,11.8691705 3.39769503,11.8691705 L3.39769503,16.7624648 L2.7302439,16.7624648 L2.7302439,11.8657172 Z" fill="#FFF100" transform="translate(8.063843, 9.115182) scale(-1, 1) translate(-8.063843, -9.115182) "></path>
                            <path d="M16.1157455,10.5883253 C16.1157455,10.926852 15.8177569,11.2012821 15.4501692,11.2012821 C15.0825816,11.2012821 14.784593,10.926852 14.784593,10.5883253 C14.784593,10.2497986 15.0825816,9.97536855 15.4501692,9.97536855 C15.8177569,9.97536855 16.1157455,10.2497986 16.1157455,10.5883253 Z" fill="#FFFFFF" transform="translate(15.450169, 10.588325) scale(-1, 1) translate(-15.450169, -10.588325) "></path>
                            <path d="M16.7746035,9.18756848 C16.7746035,9.52609516 16.4766148,9.80052525 16.1090272,9.80052525 C15.7414396,9.80052525 15.443451,9.52609516 15.443451,9.18756848 C15.443451,8.8490418 15.7414396,8.57461171 16.1090272,8.57461171 C16.4766148,8.57461171 16.7746035,8.8490418 16.7746035,9.18756848 Z" fill="#FFFFFF" transform="translate(16.109027, 9.187568) scale(-1, 1) translate(-16.109027, -9.187568) "></path>
                            <path d="M17.1314849,7.75934583 C17.1314849,8.0978725 16.8334963,8.3723026 16.4659086,8.3723026 C16.098321,8.3723026 15.8003324,8.0978725 15.8003324,7.75934583 C15.8003324,7.42081915 16.098321,7.14638905 16.4659086,7.14638905 C16.8334963,7.14638905 17.1314849,7.42081915 17.1314849,7.75934583 Z" fill="#FFFFFF" transform="translate(16.465909, 7.759346) scale(-1, 1) translate(-16.465909, -7.759346) "></path>
                            <path d="M17.3785566,6.24872571 C17.3785566,6.58725239 17.080568,6.86168248 16.7129804,6.86168248 C16.3453927,6.86168248 16.0474041,6.58725239 16.0474041,6.24872571 C16.0474041,5.91019903 16.3453927,5.63576894 16.7129804,5.63576894 C17.080568,5.63576894 17.3785566,5.91019903 17.3785566,6.24872571 Z" fill="#FFFFFF" transform="translate(16.712980, 6.248726) scale(-1, 1) translate(-16.712980, -6.248726) "></path>
                            <path d="M17.3236518,4.60077649 C17.3236518,4.93930317 17.0256632,5.21373326 16.6580755,5.21373326 C16.2904879,5.21373326 15.9924993,4.93930317 15.9924993,4.60077649 C15.9924993,4.26224981 16.2904879,3.98781972 16.6580755,3.98781972 C17.0256632,3.98781972 17.3236518,4.26224981 17.3236518,4.60077649 Z" fill="#FFFFFF" transform="translate(16.658076, 4.600776) scale(-1, 1) translate(-16.658076, -4.600776) "></path>
                            <path d="M15.154911,11.8242872 C15.154911,12.1628139 14.8569223,12.437244 14.4893347,12.437244 C14.1217471,12.437244 13.8237584,12.1628139 13.8237584,11.8242872 C13.8237584,11.4857606 14.1217471,11.2113305 14.4893347,11.2113305 C14.8569223,11.2113305 15.154911,11.4857606 15.154911,11.8242872 Z" fill="#FFFFFF" transform="translate(14.489335, 11.824287) scale(-1, 1) translate(-14.489335, -11.824287) "></path>
                            <path d="M16.7471511,3.03522473 C16.7471511,3.37375141 16.4491624,3.6481815 16.0815748,3.6481815 C15.7139872,3.6481815 15.4159985,3.37375141 15.4159985,3.03522473 C15.4159985,2.69669805 15.7139872,2.42226796 16.0815748,2.42226796 C16.4491624,2.42226796 16.7471511,2.69669805 16.7471511,3.03522473 Z" fill="#FFFFFF" transform="translate(16.081575, 3.035225) scale(-1, 1) translate(-16.081575, -3.035225) "></path>
                            <path d="M15.5117924,1.79926282 C15.5117924,2.13778949 15.2138037,2.41221959 14.8462161,2.41221959 C14.4786285,2.41221959 14.1806398,2.13778949 14.1806398,1.79926282 C14.1806398,1.46073614 14.4786285,1.18630605 14.8462161,1.18630605 C15.2138037,1.18630605 15.5117924,1.46073614 15.5117924,1.79926282 Z" fill="#FFFFFF" transform="translate(14.846216, 1.799263) scale(-1, 1) translate(-14.846216, -1.799263) "></path>
                            <path d="M13.8646474,0.975288208 C13.8646474,1.31381489 13.5666588,1.58824498 13.1990711,1.58824498 C12.8314835,1.58824498 12.5334949,1.31381489 12.5334949,0.975288208 C12.5334949,0.636761531 12.8314835,0.362331436 13.1990711,0.362331436 C13.5666588,0.362331436 13.8646474,0.636761531 13.8646474,0.975288208 Z" fill="#FFFFFF" transform="translate(13.199071, 0.975288) scale(-1, 1) translate(-13.199071, -0.975288) "></path>
                            <path d="M12.2175025,0.865424927 C12.2175025,1.2039516 11.9195138,1.4783817 11.5519262,1.4783817 C11.1843386,1.4783817 10.8863499,1.2039516 10.8863499,0.865424927 C10.8863499,0.526898249 11.1843386,0.252468155 11.5519262,0.252468155 C11.9195138,0.252468155 12.2175025,0.526898249 12.2175025,0.865424927 Z" fill="#FFFFFF" transform="translate(11.551926, 0.865425) scale(-1, 1) translate(-11.551926, -0.865425) "></path>
                            <path d="M10.4330954,0.920356567 C10.4330954,1.25888324 10.1351068,1.53331334 9.76751917,1.53331334 C9.39993155,1.53331334 9.1019429,1.25888324 9.1019429,0.920356567 C9.1019429,0.58182989 9.39993155,0.307399796 9.76751917,0.307399796 C10.1351068,0.307399796 10.4330954,0.58182989 10.4330954,0.920356567 Z" fill="#FFFFFF" transform="translate(9.767519, 0.920357) scale(-1, 1) translate(-9.767519, -0.920357) "></path>
                            <path d="M8.64868842,1.16754895 C8.64868842,1.50607563 8.35069977,1.78050572 7.98311214,1.78050572 C7.61552452,1.78050572 7.31753587,1.50607563 7.31753587,1.16754895 C7.31753587,0.829022273 7.61552452,0.554592178 7.98311214,0.554592178 C8.35069977,0.554592178 8.64868842,0.829022273 8.64868842,1.16754895 Z" fill="#FFFFFF" transform="translate(7.983112, 1.167549) scale(-1, 1) translate(-7.983112, -1.167549) "></path>
                            <path d="M6.8917338,1.38727551 C6.8917338,1.72580219 6.59374516,2.00023228 6.22615753,2.00023228 C5.85856991,2.00023228 5.56058126,1.72580219 5.56058126,1.38727551 C5.56058126,1.04874884 5.85856991,0.774318741 6.22615753,0.774318741 C6.59374516,0.774318741 6.8917338,1.04874884 6.8917338,1.38727551 Z" fill="#FFFFFF" transform="translate(6.226158, 1.387276) scale(-1, 1) translate(-6.226158, -1.387276) "></path>
                            <path d="M4.9700647,1.66193372 C4.9700647,2.00046039 4.67207605,2.27489049 4.30448842,2.27489049 C3.9369008,2.27489049 3.63891215,2.00046039 3.63891215,1.66193372 C3.63891215,1.32340704 3.9369008,1.04897694 4.30448842,1.04897694 C4.67207605,1.04897694 4.9700647,1.32340704 4.9700647,1.66193372 Z" fill="#FFFFFF" transform="translate(4.304488, 1.661934) scale(-1, 1) translate(-4.304488, -1.661934) "></path>
                            <path d="M3.32291975,2.10138684 C3.32291975,2.43991352 3.0249311,2.71434361 2.65734348,2.71434361 C2.28975585,2.71434361 1.9917672,2.43991352 1.9917672,2.10138684 C1.9917672,1.76286016 2.28975585,1.48843007 2.65734348,1.48843007 C3.0249311,1.48843007 3.32291975,1.76286016 3.32291975,2.10138684 Z" fill="#FFFFFF" transform="translate(2.657343, 2.101387) scale(-1, 1) translate(-2.657343, -2.101387) "></path>
                        </g>
                        <path d="M2.73004832,13.6095656 C2.73004832,13.9480922 2.43205967,14.2225223 2.06447204,14.2225223 C1.69688442,14.2225223 1.39889577,13.9480922 1.39889577,13.6095656 C1.39889577,13.2710389 1.69688442,12.9966088 2.06447204,12.9966088 C2.43205967,12.9966088 2.73004832,13.2710389 2.73004832,13.6095656 Z" id="Path" stroke="#000000" stroke-width="0.2" fill="#FFFFFF"></path>
                        <path d="M2.04373792,12.2088087 C2.04373792,12.5473354 1.74574927,12.8217655 1.37816165,12.8217655 C1.01057402,12.8217655 0.712585377,12.5473354 0.712585377,12.2088087 C0.712585377,11.870282 1.01057402,11.5958519 1.37816165,11.5958519 C1.74574927,11.5958519 2.04373792,11.870282 2.04373792,12.2088087 Z" id="Path" stroke="#000000" stroke-width="0.2" fill="#FFFFFF"></path>
                        <path d="M1.71430893,10.7805861 C1.71430893,11.1191127 1.41632028,11.3935428 1.04873266,11.3935428 C0.681145034,11.3935428 0.383156387,11.1191127 0.383156387,10.7805861 C0.383156387,10.4420594 0.681145034,10.1676293 1.04873266,10.1676293 C1.41632028,10.1676293 1.71430893,10.4420594 1.71430893,10.7805861 Z" id="Path" stroke="#000000" stroke-width="0.2" fill="#FFFFFF"></path>
                        <path d="M1.46723719,9.26996594 C1.46723719,9.60849262 1.16924854,9.88292271 0.801660917,9.88292271 C0.434073292,9.88292271 0.136084645,9.60849262 0.136084645,9.26996594 C0.136084645,8.93143926 0.434073292,8.65700917 0.801660917,8.65700917 C1.16924854,8.65700917 1.46723719,8.93143926 1.46723719,9.26996594 Z" id="Path" stroke="#000000" stroke-width="0.2" fill="#FFFFFF"></path>
                        <path d="M1.52214202,7.62201672 C1.52214202,7.9605434 1.22415337,8.2349735 0.856565749,8.2349735 C0.488978124,8.2349735 0.190989477,7.9605434 0.190989477,7.62201672 C0.190989477,7.28349005 0.488978124,7.00905995 0.856565749,7.00905995 C1.22415337,7.00905995 1.52214202,7.28349005 1.52214202,7.62201672 Z" id="Path" stroke="#000000" stroke-width="0.2" fill="#FFFFFF"></path>
                        <path d="M2.07119034,6.05646497 C2.07119034,6.39499164 1.77320169,6.66942174 1.40561406,6.66942174 C1.03802644,6.66942174 0.740037793,6.39499164 0.740037793,6.05646497 C0.740037793,5.71793829 1.03802644,5.44350819 1.40561406,5.44350819 C1.77320169,5.44350819 2.07119034,5.71793829 2.07119034,6.05646497 Z" id="Path" stroke="#000000" stroke-width="0.2" fill="#FFFFFF"></path>
                        <path d="M3.27909663,4.82050305 C3.27909663,5.15902973 2.98110799,5.43345982 2.61352036,5.43345982 C2.24593274,5.43345982 1.94794409,5.15902973 1.94794409,4.82050305 C1.94794409,4.48197637 2.24593274,4.20754628 2.61352036,4.20754628 C2.98110799,4.20754628 3.27909663,4.48197637 3.27909663,4.82050305 Z" id="Path" stroke="#000000" stroke-width="0.2" fill="#FFFFFF"></path>
                        <path d="M4.953694,3.99652844 C4.953694,4.33505512 4.65570535,4.60948521 4.28811773,4.60948521 C3.9205301,4.60948521 3.62254145,4.33505512 3.62254145,3.99652844 C3.62254145,3.65800176 3.9205301,3.38357167 4.28811773,3.38357167 C4.65570535,3.38357167 4.953694,3.65800176 4.953694,3.99652844 Z" id="Path" stroke="#000000" stroke-width="0.2" fill="#FFFFFF"></path>
                        <path d="M6.60083895,3.88666516 C6.60083895,4.22519184 6.3028503,4.49962193 5.93526267,4.49962193 C5.56767505,4.49962193 5.2696864,4.22519184 5.2696864,3.88666516 C5.2696864,3.54813848 5.56767505,3.27370839 5.93526267,3.27370839 C6.3028503,3.27370839 6.60083895,3.54813848 6.60083895,3.88666516 Z" id="Path" stroke="#000000" stroke-width="0.2" fill="#FFFFFF"></path>
                        <path d="M8.38524597,3.9415968 C8.38524597,4.28012348 8.08725733,4.55455357 7.7196697,4.55455357 C7.35208208,4.55455357 7.05409343,4.28012348 7.05409343,3.9415968 C7.05409343,3.60307012 7.35208208,3.32864003 7.7196697,3.32864003 C8.08725733,3.32864003 8.38524597,3.60307012 8.38524597,3.9415968 Z" id="Path" stroke="#000000" stroke-width="0.2" fill="#FFFFFF"></path>
                        <path d="M10.169653,4.18878918 C10.169653,4.52731586 9.87166435,4.80174596 9.50407673,4.80174596 C9.1364891,4.80174596 8.83850046,4.52731586 8.83850046,4.18878918 C8.83850046,3.85026251 9.1364891,3.57583241 9.50407673,3.57583241 C9.87166435,3.57583241 10.169653,3.85026251 10.169653,4.18878918 Z" id="Path" stroke="#000000" stroke-width="0.2" fill="#FFFFFF"></path>
                        <path d="M11.95406,4.40851575 C11.95406,4.74704242 11.6560714,5.02147252 11.2884838,5.02147252 C10.9208961,5.02147252 10.6229075,4.74704242 10.6229075,4.40851575 C10.6229075,4.06998907 10.9208961,3.79555898 11.2884838,3.79555898 C11.6560714,3.79555898 11.95406,4.06998907 11.95406,4.40851575 Z" id="Path" stroke="#000000" stroke-width="0.2" fill="#FFFFFF"></path>
                        <path d="M13.8482767,4.68317395 C13.8482767,5.02170063 13.5502881,5.29613072 13.1827004,5.29613072 C12.8151128,5.29613072 12.5171242,5.02170063 12.5171242,4.68317395 C12.5171242,4.34464727 12.8151128,4.07021718 13.1827004,4.07021718 C13.5502881,4.07021718 13.8482767,4.34464727 13.8482767,4.68317395 Z" id="Path" stroke="#000000" stroke-width="0.2" fill="#FFFFFF"></path>
                        <path d="M15.4954217,5.12262708 C15.4954217,5.46115375 15.197433,5.73558385 14.8298454,5.73558385 C14.4622578,5.73558385 14.1642691,5.46115375 14.1642691,5.12262708 C14.1642691,4.7841004 14.4622578,4.5096703 14.8298454,4.5096703 C15.197433,4.5096703 15.4954217,4.7841004 15.4954217,5.12262708 Z" id="Path" stroke="#000000" stroke-width="0.2" fill="#FFFFFF"></path>
                        <path d="M3.66343045,14.8455275 C3.66343045,15.1840541 3.36544181,15.4584842 2.99785418,15.4584842 C2.63026656,15.4584842 2.33227791,15.1840541 2.33227791,14.8455275 C2.33227791,14.5070008 2.63026656,14.2325707 2.99785418,14.2325707 C3.36544181,14.2325707 3.66343045,14.5070008 3.66343045,14.8455275 Z" id="Path" stroke="#000000" stroke-width="0.2" fill="#FFFFFF"></path>
                        <path d="M4.1171994,14.8869575 C4.1171994,14.8869575 1.56738607,13.0912531 1.49989101,8.77120285 C1.46239376,6.28484299 2.78979658,4.48913864 6.11205335,4.48913864 C10.7617129,4.48913864 17.4024768,6.32282904 17.4024768,6.32282904 L17.4024768,6.93405917 C17.4024768,6.93405917 12.0891158,5.10036877 6.10830362,5.10036877 C3.45349799,5.10036877 2.12234544,6.89607312 2.12234544,8.7332168 C2.12234544,11.7928207 4.78465053,14.8904107 4.78465053,14.8904107 L4.78465053,19.7837051 L4.1171994,19.7837051 L4.1171994,14.8869575 Z" id="Path" stroke="#000000" stroke-width="0.2" fill="#FFF100"></path>
                        <path d="M8.74807083,17.1548355 C8.74807083,17.1548355 8.93930683,16.6891086 9.63425595,16.6891086 C10.1067214,16.6891086 10.5191912,17.1548355 10.5191912,17.6205624 L10.5191912,18.5533319 L10.9629087,18.5533319 L10.9629087,17.6205624 C10.9629087,17.1548355 11.4053763,16.6891086 11.8478439,16.6891086 C12.5127952,16.6891086 12.734029,17.1548355 12.734029,17.1548355 C12.734029,17.1548355 12.734029,15.7563391 11.8478439,15.7563391 C11.1841425,15.7563391 10.9629087,16.222066 10.9629087,16.222066 C10.9629087,16.222066 11.1841425,15.5234756 11.1841425,14.8235696 C11.1841425,14.1236636 10.7416749,13.6579367 10.7416749,13.6579367 C10.7416749,13.7473984 10.2979574,14.1249792 10.2979574,14.8235696 C10.2979574,15.52216 10.5191912,16.222066 10.5191912,16.222066 C10.5191912,16.222066 10.2979574,15.7563391 9.63425595,15.7563391 C8.74807083,15.7563391 8.74807083,17.1548355 8.74807083,17.1548355 Z" id="Path" stroke="#000000" stroke-width="0.2" fill="#FFF100"></path>
                        <path d="M22.0350401,17.1548355 C22.0350401,17.1548355 22.2262761,16.6891086 22.9212252,16.6891086 C23.3936906,16.6891086 23.8061604,17.1548355 23.8061604,17.6205624 L23.8061604,18.5533319 L24.2498779,18.5533319 L24.2498779,17.6205624 C24.2498779,17.1548355 24.6923455,16.6891086 25.1348131,16.6891086 C25.7997645,16.6891086 26.0209983,17.1548355 26.0209983,17.1548355 C26.0209983,17.1548355 26.0209983,15.7563391 25.1348131,15.7563391 C24.4711117,15.7563391 24.2498779,16.222066 24.2498779,16.222066 C24.2498779,16.222066 24.4711117,15.5234756 24.4711117,14.8235696 C24.4711117,14.1236636 24.0286441,13.6579367 24.0286441,13.6579367 C24.0286441,13.7473984 23.5849266,14.1249792 23.5849266,14.8235696 C23.5849266,15.52216 23.8061604,16.222066 23.8061604,16.222066 C23.8061604,16.222066 23.5849266,15.7563391 22.9212252,15.7563391 C22.0350401,15.7563391 22.0350401,17.1548355 22.0350401,17.1548355 Z" id="Path" stroke="#000000" stroke-width="0.2" fill="#FFF100"></path>
                        <path d="M4.1171994,23.4545392 L4.1171994,17.9465614 C4.1171994,17.9465614 5.44460221,19.7837051 7.43945617,19.7837051 C9.07058675,19.7837051 10.7617129,17.3353313 10.7617129,17.3353313 C10.7617129,17.3353313 12.317849,19.1724749 14.0839697,19.1724749 C15.6588544,19.1724749 17.4024768,16.8035265 17.4024768,16.8035265 C17.4024768,16.8035265 19.0223582,19.1724749 20.7247335,19.1724749 C22.4308586,19.1724749 24.0469903,17.3353313 24.0469903,17.3353313 C24.0469903,17.3353313 25.7831132,19.7837051 28.0329485,19.7837051 C30.0240527,19.7837051 30.6915038,17.9465614 30.6915038,17.9465614 L30.6915038,23.4545392 L4.1171994,23.4545392 Z" id="Path" stroke="#000000" stroke-width="0.2" fill="#FFF100"></path>
                        <path d="M4.11822831,23.4545392 L4.11822831,19.1724749 C4.11822831,19.1724749 8.10418649,20.3914819 8.10418649,23.4545392 L4.11822831,23.4545392 Z" id="Path" stroke="#000000" stroke-width="0.2" fill="#FFF100"></path>
                        <path d="M26.6780243,23.4545392 L26.6780243,19.1724749 C26.6780243,19.1724749 30.6639825,20.3914819 30.6639825,23.4545392 L26.6780243,23.4545392 Z" id="Path" stroke="#000000" stroke-width="0.2" fill="#FFF100" transform="translate(28.671003, 21.313507) scale(-1, 1) translate(-28.671003, -21.313507) "></path>
                        <path d="M6.77575476,23.4545392 C6.77575476,20.3914819 10.7617129,18.4576465 10.7617129,18.4576465 C10.7617129,18.4576465 14.7476711,20.3914819 14.7476711,23.4545392 L6.77575476,23.4545392 Z" id="Path" stroke="#000000" stroke-width="0.2" fill="#FFF100"></path>
                        <path d="M20.062724,23.4545392 C20.062724,20.3914819 24.0486822,18.4576465 24.0486822,18.4576465 C24.0486822,18.4576465 28.0346404,20.3914819 28.0346404,23.4545392 L20.062724,23.4545392 Z" id="Path" stroke="#000000" stroke-width="0.2" fill="#FFF100"></path>
                        <path d="M12.7517883,23.4712395 C12.7517883,20.4116355 17.4051976,17.966715 17.4051976,17.966715 C17.4051976,17.966715 22.0548572,20.4116355 22.0548572,23.4712395 L12.755538,23.4712395 L12.7517883,23.4712395 Z" id="Path" stroke="#000000" stroke-width="0.2" fill="#FFF100"></path>
                        <path d="M31.3423627,23.4602092 C30.0299259,22.8489791 25.1879978,22.2377489 17.3912331,22.2377489 C9.59446834,22.2377489 4.41516243,22.8489791 3.09901812,23.4602092 C1.78658126,24.0714393 1.78658126,25.2973529 3.09901812,25.908583 C4.41145498,26.5198131 9.59817579,27.1310433 17.3912331,27.1310433 C25.1842904,27.1310433 30.0299259,26.5198131 31.3423627,25.908583 C32.6547996,25.2973529 32.6547996,24.0714393 31.3423627,23.4602092 Z" id="Path" stroke="#000000" stroke-width="0.2" fill="#FFFFFF"></path>
                        <path d="M30.6918009,25.9002686 C30.6918009,27.1362305 19.6284773,27.1362305 17.4048316,27.1362305 C14.989019,27.1362305 4.11786237,27.4658203 4.11786237,25.9002686 C4.11786237,24.6917725 15.0713763,24.6917725 17.4048316,24.6917725 C19.7108346,24.6917725 30.6918009,24.9389648 30.6918009,25.9002686 Z" id="Path" fill="#808080"></path>
                        <path d="M5.43557833,21.5057373 C5.43557833,21.9177246 5.16105417,22.2473145 4.77672035,22.2473145 C4.39238653,22.2473145 4.11786237,21.9177246 4.11786237,21.5057373 C4.11786237,21.09375 4.39238653,20.791626 4.77672035,20.791626 C5.13360176,20.791626 5.43557833,21.1212158 5.43557833,21.5057373 Z M30.6918009,21.5057373 C30.6918009,21.9177246 30.3898243,22.2473145 30.0054905,22.2473145 C29.6486091,22.2473145 29.3466325,21.9177246 29.3466325,21.5057373 C29.3466325,21.09375 29.6486091,20.791626 30.0054905,20.791626 C30.3898243,20.791626 30.6643485,21.1212158 30.6643485,21.5057373 L30.6918009,21.5057373 Z" id="Shape" fill="#CC0000" fill-rule="nonzero"></path>
                        <path d="M18.7225476,21.1486816 C18.7225476,21.5332031 18.1185944,21.862793 17.4048316,21.862793 C16.6910688,21.862793 16.0596633,21.5332031 16.0596633,21.1212158 C16.0596633,20.7092285 16.6636164,20.4071045 17.4048316,20.4071045 C18.1460469,20.4071045 18.7225476,20.7366943 18.7225476,21.1212158 L18.7225476,21.1486816 Z" id="Path" fill="#000000"></path>
                        <path d="M25.0915081,21.1486816 C25.0915081,21.5332031 24.6522694,21.862793 24.1032211,21.862793 C23.5541728,21.862793 23.1149341,21.5332031 23.1149341,21.1212158 C23.1149341,20.7092285 23.5541728,20.4071045 24.1032211,20.4071045 C24.6522694,20.4071045 25.0915081,20.7366943 25.0915081,21.1212158 L25.0915081,21.1486816 Z M11.420205,21.1486816 C11.420205,21.5332031 10.9809663,21.862793 10.431918,21.862793 C9.88286969,21.862793 9.41617862,21.5332031 9.41617862,21.1212158 C9.41617862,20.7092285 9.85541728,20.4071045 10.431918,20.4071045 C10.9809663,20.4071045 11.420205,20.7366943 11.420205,21.1212158 L11.420205,21.1486816 Z" id="Shape" fill="#006300" fill-rule="nonzero"></path>
                        <path d="M14.7362084,16.9292725 C14.7362084,16.9292725 15.4947104,15.8833603 16.2553551,15.8833603 L17.0138571,15.8833603 L17.0138571,16.5799773 C17.0138571,17.6298363 15.876104,17.9811049 15.876104,17.9811049 L18.9122548,17.9811049 C18.9122548,17.9811049 17.7723591,17.6298363 17.7723591,16.5799773 L17.7723591,15.8833603 L18.5330038,15.8833603 C19.2915058,15.8833603 20.0500078,16.9332193 20.0500078,16.9332193 L20.0500078,14.1329375 C20.0500078,14.1329375 19.2915058,15.1827965 18.5330038,15.1827965 L17.7723591,15.1827965 L17.7723591,14.4822327 C17.7723591,13.4343471 18.9122548,13.0850519 18.9122548,13.0850519 L15.8739614,13.0850519 C15.8739614,13.0850519 17.0117144,13.4343471 17.0117144,14.4822327 L17.0117144,15.1827965 L16.2532124,15.1827965 C15.4925677,15.1827965 14.7340657,14.1329375 14.7340657,14.1329375 L14.7340657,16.9312459 L14.7362084,16.9292725 Z" id="Path" stroke="#000000" stroke-width="0.2" fill="#FFF100"></path>
                        <path d="M4.10017121,19.178889 L4.85984187,19.178889 C4.85984187,19.178889 4.28982101,18.8732497 4.28982101,17.9546048 L4.28982101,17.3450528 L4.66912061,17.3450528 C5.04949167,17.3450528 5.42986274,18.2636977 5.42986274,18.2636977 L5.42986274,15.8134024 C5.42986274,15.8134024 5.04949167,16.7320473 4.66912061,16.7320473 L4.28982101,16.7320473 L4.28982101,16.1190417 C4.28982101,15.2021236 4.85984187,14.8964843 4.85984187,14.8964843 L4.10017121,14.8964843 L4.10017121,19.178889 Z" id="Path" stroke="#000000" stroke-width="0.2" fill="#FFF100"></path>
                        <path d="M29.3523481,19.178889 L30.1120188,19.178889 C30.1120188,19.178889 29.5419979,18.8732497 29.5419979,17.9546048 L29.5419979,17.3450528 L29.9212975,17.3450528 C30.3016686,17.3450528 30.6820396,18.2636977 30.6820396,18.2636977 L30.6820396,15.8134024 C30.6820396,15.8134024 30.3016686,16.7320473 29.9212975,16.7320473 L29.5419979,16.7320473 L29.5419979,16.1190417 C29.5419979,15.2021236 30.1120188,14.8964843 30.1120188,14.8964843 L29.3523481,14.8964843 L29.3523481,19.178889 Z" id="Path" stroke="#000000" stroke-width="0.2" fill="#FFF100" transform="translate(30.017194, 17.037687) scale(-1, 1) translate(-30.017194, -17.037687) "></path>
                        <path d="M18.0661782,15.5016409 C18.0661782,15.839214 17.7690289,16.112871 17.4024768,16.112871 C17.0359246,16.112871 16.7387753,15.839214 16.7387753,15.5016409 C16.7387753,15.1640678 17.0359246,14.8904107 17.4024768,14.8904107 C17.7690289,14.8904107 18.0661782,15.1640678 18.0661782,15.5016409 Z" id="Path" stroke="#000000" stroke-width="0.2" fill="#FFFFFF"></path>
                        <path d="M14.7362084,4.07526855 C14.7362084,4.07526855 15.4947104,3.02935638 16.2553551,3.02935638 L17.0138571,3.02935638 L17.0138571,3.72597336 C17.0138571,4.77583237 15.876104,5.12710098 15.876104,5.12710098 L18.9122548,5.12710098 C18.9122548,5.12710098 17.7723591,4.77583237 17.7723591,3.72597336 L17.7723591,3.02935638 L18.5330038,3.02935638 C19.2915058,3.02935638 20.0500078,4.07921539 20.0500078,4.07921539 L20.0500078,1.27893356 C20.0500078,1.27893356 19.2915058,2.32879257 18.5330038,2.32879257 L17.7723591,2.32879257 L17.7723591,1.62822876 C17.7723591,0.58034317 18.9122548,0.231047974 18.9122548,0.231047974 L15.8739614,0.231047974 C15.8739614,0.231047974 17.0117144,0.58034317 17.0117144,1.62822876 L17.0117144,2.32879257 L16.2532124,2.32879257 C15.4925677,2.32879257 14.7340657,1.27893356 14.7340657,1.27893356 L14.7340657,4.07724197 L14.7362084,4.07526855 Z" id="Path" stroke="#000000" stroke-width="0.2" fill="#FFF100"></path>
                        <path d="M18.121083,2.75750024 C18.121083,3.09507333 17.8239338,3.36873038 17.4573816,3.36873038 C17.0908294,3.36873038 16.7936802,3.09507333 16.7936802,2.75750024 C16.7936802,2.41992716 17.0908294,2.14627011 17.4573816,2.14627011 C17.8239338,2.14627011 18.121083,2.41992716 18.121083,2.75750024 Z" id="Path" stroke="#000000" stroke-width="0.2" fill="#FFFFFF"></path>
                        <polygon id="Path" stroke="#000000" stroke-width="0.2" fill="#FFF100" points="16.0750739 5.11304123 18.7336293 5.11304123 18.7336293 6.95018491 16.0713242 6.95018491"></polygon>
                        <polygon id="Path" stroke="#000000" stroke-width="0.2" fill="#FFF100" points="16.0750739 6.0730524 18.7336293 6.0730524 18.7336293 13.0659395 16.0713242 13.0659395"></polygon>
                        <path d="M18.0484963,11.8242872 C18.0484963,12.1628139 17.7505077,12.437244 17.3829201,12.437244 C17.0153324,12.437244 16.7173438,12.1628139 16.7173438,11.8242872 C16.7173438,11.4857606 17.0153324,11.2113305 17.3829201,11.2113305 C17.7505077,11.2113305 18.0484963,11.4857606 18.0484963,11.8242872 Z" id="Path" stroke="#000000" stroke-width="0.2" fill="#FFFFFF"></path>
                        <path d="M18.0484963,10.2587355 C18.0484963,10.5972622 17.7505077,10.8716922 17.3829201,10.8716922 C17.0153324,10.8716922 16.7173438,10.5972622 16.7173438,10.2587355 C16.7173438,9.9202088 17.0153324,9.6457787 17.3829201,9.6457787 C17.7505077,9.6457787 18.0484963,9.9202088 18.0484963,10.2587355 Z" id="Path" stroke="#000000" stroke-width="0.2" fill="#FFFFFF"></path>
                        <path d="M18.0484963,8.803047 C18.0484963,9.14157367 17.7505077,9.41600377 17.3829201,9.41600377 C17.0153324,9.41600377 16.7173438,9.14157367 16.7173438,8.803047 C16.7173438,8.46452032 17.0153324,8.19009023 17.3829201,8.19009023 C17.7505077,8.19009023 18.0484963,8.46452032 18.0484963,8.803047 Z" id="Path" stroke="#000000" stroke-width="0.2" fill="#FFFFFF"></path>
                        <path d="M18.0484963,7.26496106 C18.0484963,7.60348774 17.7505077,7.87791783 17.3829201,7.87791783 C17.0153324,7.87791783 16.7173438,7.60348774 16.7173438,7.26496106 C16.7173438,6.92643438 17.0153324,6.65200429 17.3829201,6.65200429 C17.7505077,6.65200429 18.0484963,6.92643438 18.0484963,7.26496106 Z" id="Path" stroke="#000000" stroke-width="0.2" fill="#FFFFFF"></path>
                        <path d="M18.8049048,23.4832764 C18.8049048,23.7579346 18.2009517,23.9776611 17.432284,23.9776611 C16.6636164,23.9776611 16.1145681,23.7579346 16.1145681,23.4832764 C16.1145681,23.2086182 16.7185212,22.9888916 17.4597365,22.9888916 C18.2009517,22.9888916 18.8049048,23.2086182 18.8049048,23.4832764 Z M31.0486823,24.6917725 C30.966325,24.8840332 30.3074671,24.911499 29.5662518,24.7192383 C28.8250366,24.5544434 28.3034407,24.2797852 28.3583455,24.0875244 C28.4407028,23.8952637 29.0995608,23.8677979 29.840776,24.0600586 C30.5819912,24.2248535 31.1035871,24.4995117 31.0486823,24.6917725 Z M25.9150805,23.8677979 C25.9150805,24.1149902 25.2562225,24.2523193 24.4875549,24.2248535 C23.7463397,24.1699219 23.1423865,23.9227295 23.1698389,23.6755371 C23.1972914,23.4283447 23.8561493,23.2910156 24.5973646,23.3459473 C25.3660322,23.4008789 25.9699854,23.6206055 25.9150805,23.8677979 Z M3.45900439,24.6917725 C3.51390922,24.8840332 4.1727672,24.911499 4.91398243,24.7192383 C5.65519766,24.5544434 6.20424597,24.2797852 6.12188873,24.0875244 C6.03953148,23.8952637 5.3806735,23.8677979 4.63945827,24.0600586 C3.92569546,24.2248535 3.37664714,24.4995117 3.45900439,24.6917725 Z M8.81222548,23.7579346 C8.83967789,24.005127 9.49853587,24.1424561 10.2397511,24.0875244 C11.0084187,24.0325928 11.6123719,23.8128662 11.5574671,23.538208 C11.5574671,23.3184814 10.8986091,23.1536865 10.1299414,23.2086182 C9.38872621,23.2635498 8.78477306,23.4832764 8.81222548,23.7579346 Z" id="Shape" fill="#000000" fill-rule="nonzero"></path>
                    </g>
                </g>
            </g>
        </g>
    </g>
</svg>