<?xml version="1.0" encoding="UTF-8"?>
<svg width="200px" height="150px" viewBox="0 0 200 150" version="1.1" xmlns="http://www.w3.org/2000/svg" xmlns:xlink="http://www.w3.org/1999/xlink">
    <!-- Generator: Sketch 52.5 (67469) - http://www.bohemiancoding.com/sketch -->
    <title>cm</title>
    <desc>Created with Sketch.</desc>
    <g id="Flags" stroke="none" stroke-width="1" fill="none" fill-rule="evenodd">
        <g id="Africa" transform="translate(-730.000000, -250.000000)">
            <g id="cm" transform="translate(730.000000, 250.000000)">
                <polygon id="Path" fill="#007A5E" points="0 0 66.65625 0 66.65625 150 0 150"></polygon>
                <polygon id="Path" fill="#CE1126" points="66.65625 0 133.34375 0 133.34375 150 66.65625 150"></polygon>
                <polygon id="Path" fill="#FCD116" points="133.34375 0 200 0 200 150 133.34375 150"></polygon>
                <g id="Group" transform="translate(80.000031, 57.222250)" fill="#FCD116">
                    <g id="b" transform="translate(13.333313, 0.000000)">
                        <polygon id="a" points="6.66665625 0 1.11110938 16.8888625 9.55554063 19.7777469"></polygon>
                        <g id="a-link" transform="translate(7.777766, 9.999984) scale(-1, 1) translate(-7.777766, -9.999984) translate(2.222219, 0.000000)">
                            <polygon id="a" points="6.66665625 0 1.11110938 16.8888625 9.55554063 19.7777469"></polygon>
                        </g>
                    </g>
                    <g id="b-link" transform="translate(27.397063, 15.374288) rotate(72.000000) translate(-27.397063, -15.374288) translate(20.730407, 5.374304)">
                        <g id="b">
                            <polygon id="a" points="6.66665625 0 1.11110938 16.8888625 9.55554063 19.7777469"></polygon>
                            <g id="a-link" transform="translate(7.777766, 9.999984) scale(-1, 1) translate(-7.777766, -9.999984) translate(2.222219, 0.000000)">
                                <polygon id="a" points="6.66665625 0 1.11110937 16.8888625 9.55554062 19.7777469"></polygon>
                            </g>
                        </g>
                    </g>
                    <g id="b-link" transform="translate(24.571625, 24.070095) rotate(144.000000) translate(-24.571625, -24.070095) translate(17.904968, 14.070110)">
                        <g id="b">
                            <polygon id="a" points="6.66665625 0 1.11110937 16.8888625 9.55554062 19.7777469"></polygon>
                            <g id="a-link" transform="translate(7.777766, 9.999984) scale(-1, 1) translate(-7.777766, -9.999984) translate(2.222219, 0.000000)">
                                <polygon id="a" points="6.66665625 0 1.11110937 16.8888625 9.55554062 19.7777469"></polygon>
                            </g>
                        </g>
                    </g>
                    <g id="b-link" transform="translate(15.428313, 24.070095) rotate(-144.000000) translate(-15.428313, -24.070095) translate(8.761657, 14.070110)">
                        <g id="b">
                            <polygon id="a" points="6.66665625 0 1.11110938 16.8888625 9.55554063 19.7777469"></polygon>
                            <g id="a-link" transform="translate(7.777766, 9.999984) scale(-1, 1) translate(-7.777766, -9.999984) translate(2.222219, 0.000000)">
                                <polygon id="a" points="6.66665625 0 1.11110938 16.8888625 9.55554063 19.7777469"></polygon>
                            </g>
                        </g>
                    </g>
                    <g id="b-link" transform="translate(12.602874, 15.374288) rotate(-72.000000) translate(-12.602874, -15.374288) translate(5.936218, 5.374304)">
                        <g id="b">
                            <polygon id="a" points="6.66665625 0 1.11110938 16.8888625 9.55554063 19.7777469"></polygon>
                            <g id="a-link" transform="translate(7.777766, 9.999984) scale(-1, 1) translate(-7.777766, -9.999984) translate(2.222219, 0.000000)">
                                <polygon id="a" points="6.66665625 0 1.11110938 16.8888625 9.55554063 19.7777469"></polygon>
                            </g>
                        </g>
                    </g>
                </g>
            </g>
        </g>
    </g>
</svg>