<?xml version="1.0" encoding="UTF-8"?>
<svg width="200px" height="150px" viewBox="0 0 200 150" version="1.1" xmlns="http://www.w3.org/2000/svg" xmlns:xlink="http://www.w3.org/1999/xlink">
    <!-- Generator: Sketch 52.5 (67469) - http://www.bohemiancoding.com/sketch -->
    <title>cc</title>
    <desc>Created with Sketch.</desc>
    <g id="Flags" stroke="none" stroke-width="1" fill="none" fill-rule="evenodd">
        <g id="Asia" transform="translate(-510.000000, -250.000000)">
            <g id="cc" transform="translate(510.000000, 250.000000)">
                <polygon id="Path" fill="#008000" points="0 0 200 0 200 150 0 150"></polygon>
                <circle id="Oval" fill="#FFE000" cx="100" cy="75" r="20.84375"></circle>
                <circle id="Oval" fill="#008000" cx="106.5" cy="75" r="17.15625"></circle>
                <circle id="Oval" fill="#FFE000" cx="34.3125" cy="54.15625" r="21.8125"></circle>
                <path d="M32.8125,70.625 L38.28125,70.625 C38.28125,70.625 38.5,70.125 38.21875,69.875 C37.90625,69.625 36.75,69.5625 37.0625,68.6875 C37.6875,66.875 37.8125,67.4375 38.21875,63.125 C38.516027,59.4326311 38.7244206,55.7336441 38.84375,52.03125 L38.03125,52.03125 C38.03125,52.03125 38.1875,54.125 37.71875,56.875 C37.28125,59.625 37.125,59.84375 36.625,61.96875 C36.3894673,63.1646114 36.0442584,64.3362296 35.59375,65.46875 C35.15625,66.71875 35.09375,66.75 34.40625,67.90625 C33.6875,69.03125 33.9375,68.59375 33.5625,69.28125 C33.34375,69.625 33.125,69.53125 32.96875,69.78125 C32.84375,70.03125 32.8125,70.625 32.8125,70.625 Z" id="Path" stroke="#7B3100" stroke-width="0.5" fill="#802000"></path>
                <path d="M36.96875,38.28125 C37.0403448,39.2551071 36.9127492,40.23334 36.59375,41.15625 C36.1606997,42.1217853 35.9167153,43.1613708 35.875,44.21875 C35.3125,44.40625 34.71875,43 34.15625,43.84375 C34.5625,45 35.53125,45.90625 36.15625,46.9375 C36.28125,47.25 37.21875,48.09375 36.65625,48.28125 C35.3125,47.8125 34.96875,46.09375 34.15625,45.0625 C33.1895242,43.2543862 31.3583444,42.0729799 29.3125,41.9375 C28.53125,41.96875 26.0625,41.78125 26.6875,43.09375 C27.625,43.71875 28.8125,44.15625 29.75,44.875 C30.46875,44.9375 31.71875,46.125 31.65625,46.5625 C30.40625,46.0625 29.84375,45.46875 28.53125,44.9375 C26.71875,44.25 24.25,44.65625 23.21875,46.4375 C23.0625,46.90625 22.78125,48.25 23.375,48.40625 C24.0625,47.34375 25.03125,46.125 26.46875,46.46875 C27.59375,46.5625 25.21875,48.5625 26.125,48.15625 C26.4375,48.03125 27.0625,47.59375 27.5625,47.53125 C28.03125,47.53125 28.28125,47.84375 28.625,47.90625 C29.34375,48 29.5625,48.28125 29.46875,48.46875 C29.40625,48.65625 29.15625,48.46875 28.4375,48.71875 C28.09375,48.84375 27.90625,49.15625 27.5,49.3125 C27.0625,49.4375 26.1875,49.46875 25.875,49.3125 C24.71875,48.84375 22.84375,48.90625 22.5,50.34375 C22.5,50.96875 21.9375,50.28125 21.6875,50.5625 C21.46875,51.25 21.4375,51.9375 20.4375,51.875 C19.8125,52.5 19.1875,53.1875 18.375,53.65625 C18.84375,54.71875 20.65625,52.59375 20.5625,53.5 C19.78125,54.59375 21,54.8125 21.5,53.96875 C22.40625,53.03125 23.53125,51.875 24.84375,52.84375 C25.46875,53.4375 25.84375,52.53125 26.3125,52.53125 C26.625,53.3125 26.96875,52.59375 27.3125,52.375 C27.84375,52.3125 27.6875,53.0625 28.3125,52.59375 C29.59375,51.75 31.15625,52.46875 32.40625,51.65625 C33.75,51.03125 32.59375,52.125 32.25,52.5625 C31.65625,53.6875 32.15625,55.1875 30.90625,55.875 C30.375,57.21875 31.5,59 30.375,60 C30.21875,60.625 31.8125,60.5625 32.25,60.8125 C33.0625,60.8125 32.25,59 33.03125,58.75 C34.09375,59.375 34.03125,57.5625 33.8125,57 C33.9375,55.75 34,54.3125 34.625,53.15625 C35.3125,51.75 35.9375,53.75 35.1875,54.3125 C34.75,55.59375 34.125,57.25 35.09375,58.46875 C35.40625,58.53125 35.625,59.21875 35.96875,59.40625 C36.34375,59.625 36.84375,59.375 36.90625,58.75 C37.40625,56.875 37.15625,54.875 37.84375,53.03125 C38.3125,52.46875 38.96875,52.9375 39.25,53.46875 C40.1875,54.5625 40.84375,55.90625 41.96875,56.8125 C43.0336811,57.2480071 43.9012489,58.0599616 44.40625,59.09375 C44.40625,59.90625 46.71875,60.03125 46.03125,59.09375 C45.375,58.25 45.8125,57.34375 46.46875,56.75 C46.84375,56.84375 46.75,56.1875 46.46875,56.4375 C46,56.34375 45.96875,55.5 46.59375,55.90625 C47.6875,56.25 46.53125,55.125 46.125,55.09375 C45.21875,54.53125 44.1875,53.90625 43.75,52.90625 C44.9375,52.90625 46.15625,53.5625 47.34375,53.1875 C48.3125,52.6875 49.28125,53.1875 49.625,54.0625 C50.375,53.9375 50.0625,53.1875 49.625,52.9375 C50.15625,52.71875 50.5625,52.25 49.875,51.84375 C49.5625,51.40625 50.34375,50.59375 49.34375,50.65625 C49.375,49.875 49.09375,49.1875 48.25,48.90625 C47.40625,48.21875 44.9375,49.96875 45.03125,48.375 C44.78125,47.5 46.03125,48.25 46.375,47.8125 C46.71875,46.875 44.65625,47 45.34375,46.25 C45.78125,46 47.875,45.59375 46.25,45.28125 C45.5061018,45.4993162 44.7036607,45.3732183 44.0625,44.9375 C43.46875,45.90625 41.8125,44.375 42.09375,46.125 C41.875,46.78125 40.375,48.5 39.96875,47.1875 C40.28125,46.15625 42.09375,45.84375 41.53125,44.4375 C41.4375,43.59375 40.71875,44.59375 40.40625,44.53125 C40.21875,44 40.90625,43.34375 41.40625,43.21875 C42.34375,43.96875 42.34375,42.28125 43.28125,42.4375 C43.9375,42.28125 43.0625,42 42.875,41.875 C43.0625,41.40625 44.09375,41.15625 43.09375,40.71875 C42.1875,40.09375 41.53125,41.375 40.8125,41.4375 C40.125,40.65625 41.4375,40.28125 41.8125,39.875 C41.84375,39.5625 41.0625,39.78125 41.28125,39.5 C41.5,39.15625 42.90625,39.125 42.21875,38.5625 C41.1680105,38.2418507 40.0371497,38.308372 39.03125,38.75 C38.40625,38.9375 38.25,40.3125 37.71875,40.25 C37.5,39.625 37.8125,38.4375 36.96875,38.28125 Z M41.65625,51.5 C42.40625,51.375 41.65625,52.65625 41.34375,52.625 C41.34375,52.1875 40.21875,52.21875 40.9375,51.8125 C41.1572616,51.6676495 41.4004329,51.5619229 41.65625,51.5 Z" id="Shape" fill="#008000" fill-rule="nonzero"></path>
                <g id="Group" transform="translate(118.050469, 34.525000)" fill="#FFE000">
                    <g id="a-link" transform="translate(25.003125, 66.675000)">
                        <polygon id="a" points="6.96515625 0 8.3423125 4.28228125 12.5491875 2.68882812 10.0607812 6.4373125 13.9303125 8.73323437 9.445625 9.12415625 10.0627656 13.5810625 6.96515625 10.31875 3.8655625 13.5790781 4.48270312 9.12415625 0 8.73125 3.86953125 6.43532812 1.37914062 2.68684375 5.58601562 4.28029687"></polygon>
                    </g>
                    <g id="a-link" transform="translate(0.000000, 27.086719)">
                        <polygon id="a" points="6.96515625 0 8.3423125 4.28228125 12.5491875 2.68882812 10.0607812 6.4373125 13.9303125 8.73323437 9.445625 9.12415625 10.0627656 13.5810625 6.96515625 10.31875 3.8655625 13.5790781 4.48270312 9.12415625 0 8.73125 3.86953125 6.43532812 1.37914062 2.68684375 5.58601562 4.28029687"></polygon>
                    </g>
                    <g id="a-link" transform="translate(25.003125, 0.000000)">
                        <polygon id="a" points="6.96515625 0 8.3423125 4.28228125 12.5491875 2.68882812 10.0607812 6.4373125 13.9303125 8.73323438 9.445625 9.12415625 10.0627656 13.5810625 6.96515625 10.31875 3.8655625 13.5790781 4.48270312 9.12415625 0 8.73125 3.86953125 6.43532812 1.37914062 2.68684375 5.58601562 4.28029687"></polygon>
                    </g>
                    <g id="a-link" transform="translate(47.228125, 20.419219)">
                        <polygon id="a" points="6.96515625 0 8.3423125 4.28228125 12.5491875 2.68882812 10.0607812 6.4373125 13.9303125 8.73323437 9.445625 9.12415625 10.0627656 13.5810625 6.96515625 10.31875 3.8655625 13.5790781 4.48270312 9.12415625 0 8.73125 3.86953125 6.43532812 1.37914062 2.68684375 5.58601562 4.28029687"></polygon>
                    </g>
                    <g id="b-link" transform="translate(38.000781, 40.481250)">
                        <polygon id="b" points="3.96875 0 5.05817187 2.66898437 7.93154687 2.87932812 5.72889062 4.74067187 6.41746875 7.53864062 3.96875 6.01860937 1.52003125 7.540625 2.206625 4.74265625 0.00396875 2.8813125 2.8813125 2.67096875"></polygon>
                    </g>
                </g>
            </g>
        </g>
    </g>
</svg>