<?xml version="1.0" encoding="UTF-8"?>
<svg width="200px" height="141px" viewBox="0 0 200 141" version="1.1" xmlns="http://www.w3.org/2000/svg" xmlns:xlink="http://www.w3.org/1999/xlink">
    <!-- Generator: Sketch 52.5 (67469) - http://www.bohemiancoding.com/sketch -->
    <title>km</title>
    <desc>Created with Sketch.</desc>
    <defs>
        <polygon id="path-1" points="0 0 199.912152 0 199.912152 141 0 141"></polygon>
    </defs>
    <g id="Flags" stroke="none" stroke-width="1" fill="none" fill-rule="evenodd">
        <g id="Africa" transform="translate(-70.000000, -850.000000)">
            <g id="km" transform="translate(70.000000, 850.000000)">
                <mask id="mask-2" fill="white">
                    <use xlink:href="#path-1"></use>
                </mask>
                <g id="Path"></g>
                <g id="Group" mask="url(#mask-2)">
                    <polygon id="Path" fill="#FFFF00" points="0 0 211.054173 0 211.054173 35.15625 0 35.15625"></polygon>
                    <polygon id="Path" fill="#FFFFFF" points="0 35.15625 211.054173 35.15625 211.054173 70.3125 0 70.3125"></polygon>
                    <polygon id="Path" fill="#BE0027" points="0 70.3125 211.054173 70.3125 211.054173 105.46875 0 105.46875"></polygon>
                    <polygon id="Path" fill="#3B5AA3" points="0 105.46875 211.054173 105.46875 211.054173 140.625 0 140.625"></polygon>
                    <polygon id="Path" fill="#239E46" points="0 0 0 140.625 104.840776 70.5047607"></polygon>
                    <path d="M43.1551977,38.8366699 C19.8206442,37.6556396 9.14165447,56.2774658 9.16910688,70.6695557 C9.11420205,87.6983643 25.2562225,101.705933 40.1354319,100.881958 C32.1193265,97.0916748 22.2913616,86.4074707 22.2364568,70.5871582 C22.1540996,56.2774658 30.3349195,43.8079834 43.1826501,38.8366699 L43.1551977,38.8366699 Z" id="Path" fill="#FFFFFF"></path>
                    <path d="M42.8257687,54.107666 L39.5314788,51.5533447 L35.5234261,52.8167725 L36.9509517,48.8616943 L34.5351391,45.4559326 L38.7079063,45.6207275 L41.1786237,42.2424316 L42.3590776,46.2799072 L46.3122255,47.5982666 L42.8532211,49.9328613 L42.8257687,54.107666 Z M42.7434114,68.4173584 L39.4491215,65.8355713 L35.4410688,67.098999 L36.8960469,63.1713867 L34.4527818,59.765625 L38.6530015,59.9029541 L41.1237189,56.552124 L42.2767204,60.5621338 L46.2573206,61.907959 L42.7708638,64.2425537 L42.7434114,68.4173584 Z M42.7983163,82.8643799 L39.5040264,80.2825928 L35.5234261,81.5460205 L36.9509517,77.6184082 L34.5351391,74.2126465 L38.7079063,74.3499756 L41.1786237,70.9991455 L42.3590776,75.0091553 L46.3122255,76.3275146 L42.8532211,78.6895752 L42.7983163,82.8643799 Z M42.7434114,97.4212646 L39.4491215,94.8669434 L35.4136164,96.1303711 L36.8685944,92.175293 L34.4253294,88.7695313 L38.625549,88.9343262 L41.0962665,85.5560303 L42.2492679,89.5935059 L46.2298682,90.9118652 L42.7434114,93.24646 L42.7434114,97.4212646 Z" id="Shape" fill="#FFFFFF" fill-rule="nonzero"></path>
                </g>
            </g>
        </g>
    </g>
</svg>