<?xml version="1.0" encoding="UTF-8"?>
<svg width="200px" height="141px" viewBox="0 0 200 141" version="1.1" xmlns="http://www.w3.org/2000/svg" xmlns:xlink="http://www.w3.org/1999/xlink">
    <!-- Generator: Sketch 52.5 (67469) - http://www.bohemiancoding.com/sketch -->
    <title>cu</title>
    <desc>Created with Sketch.</desc>
    <defs>
        <polygon id="path-1" points="0 0 199.912152 0 199.912152 140.93 0 140.93"></polygon>
    </defs>
    <g id="Flags" stroke="none" stroke-width="1" fill="none" fill-rule="evenodd">
        <g id="North-America" transform="translate(-730.000000, -250.000000)">
            <g id="cu" transform="translate(730.000000, 250.000000)">
                <mask id="mask-2" fill="white">
                    <use xlink:href="#path-1"></use>
                </mask>
                <g id="Path"></g>
                <g id="Group" mask="url(#mask-2)">
                    <polygon id="Path" fill="#0050F0" points="0 0 211.396779 0 211.396779 140.931186 0 140.931186"></polygon>
                    <path d="M0,28.1862372 L211.396779,28.1862372 L211.396779,56.3724744 L0,56.3724744 L0,28.1862372 Z M0,84.5587116 L211.396779,84.5587116 L211.396779,112.744949 L0,112.744949 L0,84.5587116 Z" id="Shape" fill="#FFFFFF" fill-rule="nonzero"></path>
                    <polygon id="Path" fill="#ED0000" points="0 0 121.305417 70.3830161 0 140.65593"></polygon>
                    <polygon id="Path" fill="#FFFFFF" points="53.3446559 89.5959004 40.2699854 79.8243045 27.2778917 89.6784773 32.1224012 73.6860908 19.1303075 63.7768668 35.1777452 63.6667643 40.1598829 47.7019034 45.252123 63.611713 61.2995608 63.6392387 48.3900439 73.6310395 53.3446559 89.5959004"></polygon>
                </g>
            </g>
        </g>
    </g>
</svg>