<?xml version="1.0" encoding="UTF-8"?>
<svg width="200px" height="129px" viewBox="0 0 200 129" version="1.1" xmlns="http://www.w3.org/2000/svg" xmlns:xlink="http://www.w3.org/1999/xlink">
    <!-- Generator: Sketch 52.5 (67469) - http://www.bohemiancoding.com/sketch -->
    <title>dm</title>
    <desc>Created with Sketch.</desc>
    <defs>
        <polygon id="path-1" points="0 0 199.912152 0 199.912152 150 0 150"></polygon>
    </defs>
    <g id="Flags" stroke="none" stroke-width="1" fill="none" fill-rule="evenodd">
        <g id="North-America" transform="translate(-950.000000, -250.000000)">
            <g id="dm" transform="translate(950.000000, 250.000000)">
                <mask id="mask-2" fill="white">
                    <use xlink:href="#path-1"></use>
                </mask>
                <g id="Path"></g>
                <g id="Group" mask="url(#mask-2)">
                    <g transform="translate(-27.000000, 0.000000)">
                        <polygon id="Path" fill="#108C00" points="0.338213763 0 251.338214 0 251.338214 129 0.338213763 129"></polygon>
                        <polygon id="Path" fill="#FFD600" points="0.338213763 45 252.338214 45 252.338214 58 0.338213763 58"></polygon>
                        <polygon id="Path" fill="#FFD600" points="107.338214 0 119.338214 0 119.338214 129 107.362956 129"></polygon>
                        <polygon id="Path" fill="#000000" points="119.338214 0 131.338214 0 131.338214 129 119.338214 129"></polygon>
                        <polygon id="Path" fill="#000000" points="0.338213763 57 252.338214 57 252.338214 70 0.338213763 70"></polygon>
                        <polygon id="Path" fill="#FFFFFF" points="0.338213763 70 252.338214 70 252.338214 83 0.338213763 83"></polygon>
                        <polygon id="Path" fill="#FFFFFF" points="131.338214 0 143.338214 0 143.338214 129 131.338214 129"></polygon>
                        <rect id="Rectangle" fill="#E72910" transform="translate(126.838214, 64.500000) rotate(180.000000) translate(-126.838214, -64.500000) " x="93.3382138" y="30" width="67" height="69"></rect>
                        <g id="Group" stroke-width="1" fill="none" transform="translate(120.338214, 31.000000)">
                            <path d="M4.18478261,4 L5.52391304,0 L6.74347826,3.925 C6.74347826,3.925 10.8326087,4.05 10.8326087,3.975 C10.8326087,3.9 7.60434783,6.55 7.60434783,6.55 L9.06304348,10.95 C9.01521739,10.825 5.52391304,8.225 5.52391304,8.225 C5.52391304,8.225 1.98478261,10.825 2.05652174,10.825 C2.12826087,10.825 3.39565217,6.575 3.39565217,6.575 L0.215217391,4.05 L4.18478261,3.975 L4.18478261,4 Z" id="Path" fill="#000000"></path>
                            <path d="M4.37608696,4.175 L5.5,0.75 L6.55217391,4.15 C6.55217391,4.15 10.1152174,4.25 10.1152174,4.2 C10.1152174,4.15 7.3173913,6.45 7.3173913,6.45 L8.56086957,10.25 C8.51304348,10.125 5.5,7.9 5.5,7.9 C5.5,7.9 2.43913043,10.15 2.48695652,10.15 C2.53478261,10.15 3.6826087,6.45 3.6826087,6.45 L0.908695652,4.25 L4.35217391,4.2 L4.37608696,4.175 Z" id="Path" fill="#FFE700"></path>
                            <path d="M4.85434783,4.75 L5.52391304,2.75 L6.14565217,4.725 C6.14565217,4.725 8.17826087,4.775 8.17826087,4.725 C8.17826087,4.675 6.57608696,6.025 6.57608696,6.025 L7.29347826,8.225 C7.26956522,8.15 5.52391304,6.875 5.52391304,6.875 L3.80217391,8.175 C3.85,8.175 4.47173913,6.05 4.47173913,6.05 L2.89347826,4.8 L4.85434783,4.75 Z" id="Path" fill="#108C00"></path>
                        </g>
                        <g id="Group" stroke-width="1" fill="none" transform="translate(146.338214, 49.000000)">
                            <path d="M4.13111111,4.10666667 L5.5,0.195555556 L6.72222222,4.03333333 C6.72222222,4.03333333 10.9266667,4.18 10.9266667,4.10666667 C10.9266667,4.03333333 7.62666667,6.62444444 7.62666667,6.62444444 L9.09333333,10.9266667 C9.04444444,10.8044444 5.5,8.26222222 5.5,8.26222222 C5.5,8.26222222 1.88222222,10.8044444 1.95555556,10.8044444 C2.02888889,10.8044444 3.32444444,6.64888889 3.32444444,6.64888889 L0.0733333333,4.15555556 L4.13111111,4.08222222 L4.13111111,4.10666667 Z" id="Path" fill="#000000"></path>
                            <path d="M4.30222222,4.30222222 L5.5,0.904444444 L6.57555556,4.25333333 C6.57555556,4.25333333 10.1933333,4.35111111 10.1933333,4.30222222 C10.1933333,4.25333333 7.33333333,6.50222222 7.33333333,6.50222222 L8.62888889,10.1933333 C8.58,10.0955556 5.5,7.89555556 5.5,7.89555556 C5.5,7.89555556 2.37111111,10.0955556 2.42,10.0955556 C2.46888889,10.0955556 3.61777778,6.47777778 3.61777778,6.47777778 L0.806666667,4.35111111 L4.30222222,4.30222222 Z" id="Path" fill="#FFE700"></path>
                            <path d="M4.81555556,4.86444444 L5.5,2.90888889 L6.11111111,4.81555556 L8.21333333,4.86444444 L6.55111111,6.11111111 C6.55111111,6.11111111 7.33333333,8.31111111 7.28444444,8.26222222 C7.28444444,8.18888889 5.5,6.94222222 5.5,6.94222222 L3.71555556,8.18888889 L4.4,6.11111111 L2.78666667,4.88888889 L4.81555556,4.86444444 Z" id="Path" fill="#108C00"></path>
                        </g>
                        <g id="Group" stroke-width="1" fill="none" transform="translate(139.338214, 79.000000)">
                            <path d="M4.13111111,4.05777778 L5.5,0.146666667 L6.72222222,4.00888889 C6.72222222,4.00888889 10.9266667,4.13111111 10.9266667,4.08222222 C10.9266667,4.03333333 7.62666667,6.6 7.62666667,6.6 L9.09333333,10.8777778 C9.04444444,10.7555556 5.5,8.23777778 5.5,8.23777778 C5.5,8.23777778 1.88222222,10.7555556 1.93111111,10.7555556 C1.98,10.7555556 3.32444444,6.6 3.32444444,6.6 L0.0733333333,4.15555556 L4.13111111,4.08222222 L4.13111111,4.05777778 Z" id="Path" fill="#000000"></path>
                            <path d="M4.30222222,4.25333333 L5.5,0.88 L6.57555556,4.20444444 C6.57555556,4.20444444 10.1933333,4.32666667 10.1933333,4.25333333 C10.1933333,4.18 7.33333333,6.45333333 7.33333333,6.45333333 L8.62888889,10.1688889 C8.58,10.0466667 5.5,7.87111111 5.5,7.87111111 C5.5,7.87111111 2.37111111,10.0711111 2.42,10.0711111 C2.46888889,10.0711111 3.61777778,6.45333333 3.61777778,6.45333333 L0.806666667,4.32666667 L4.30222222,4.25333333 Z" id="Path" fill="#FFE700"></path>
                            <path d="M4.81555556,4.81555556 L5.5,2.86 L6.11111111,4.79111111 C6.11111111,4.79111111 8.21333333,4.86444444 8.21333333,4.81555556 C8.21333333,4.76666667 6.55111111,6.08666667 6.55111111,6.08666667 L7.28444444,8.21333333 C7.28444444,8.16444444 5.5,6.89333333 5.5,6.89333333 L3.71555556,8.16444444 L4.4,6.08666667 L2.78666667,4.86444444 L4.81555556,4.81555556 Z" id="Path" fill="#108C00"></path>
                        </g>
                        <g id="Group" stroke-width="1" fill="none" transform="translate(102.338214, 79.000000)">
                            <path d="M4.20444444,4.05777778 L5.57333333,0.146666667 L6.79555556,4.00888889 C6.79555556,4.00888889 10.9755556,4.13111111 10.9755556,4.08222222 C10.9755556,4.03333333 7.67555556,6.6 7.67555556,6.6 L9.19111111,10.8777778 C9.11777778,10.7555556 5.57333333,8.23777778 5.57333333,8.23777778 C5.57333333,8.23777778 1.95555556,10.7555556 2.00444444,10.7555556 C2.05333333,10.7555556 3.39777778,6.6 3.39777778,6.6 L0.146666667,4.15555556 L4.20444444,4.08222222 L4.20444444,4.05777778 Z" id="Path" fill="#000000"></path>
                            <path d="M4.4,4.25333333 L5.57333333,0.88 L6.64888889,4.20444444 C6.64888889,4.20444444 10.2666667,4.32666667 10.2666667,4.25333333 C10.2666667,4.18 7.40666667,6.45333333 7.40666667,6.45333333 L8.70222222,10.1688889 C8.65333333,10.0466667 5.57333333,7.87111111 5.57333333,7.87111111 C5.57333333,7.87111111 2.44444444,10.0711111 2.49333333,10.0711111 C2.54222222,10.0711111 3.69111111,6.45333333 3.69111111,6.45333333 L0.88,4.32666667 L4.37555556,4.25333333 L4.4,4.25333333 Z" id="Path" fill="#FFE700"></path>
                            <path d="M4.88888889,4.81555556 L5.57333333,2.86 L6.18444444,4.79111111 C6.18444444,4.79111111 8.28666667,4.86444444 8.28666667,4.81555556 C8.28666667,4.76666667 6.62444444,6.08666667 6.62444444,6.08666667 L7.35777778,8.21333333 C7.35777778,8.16444444 5.57333333,6.89333333 5.57333333,6.89333333 L3.78888889,8.16444444 L4.47333333,6.08666667 L2.86,4.86444444 L4.88888889,4.81555556 Z" id="Path" fill="#108C00"></path>
                        </g>
                        <g id="Group" stroke-width="1" fill="none" transform="translate(96.338214, 49.000000)">
                            <path d="M4.15555556,4.08222222 L5.52444444,0.171111111 L6.77111111,4.03333333 C6.77111111,4.03333333 10.9511111,4.15555556 10.9511111,4.08222222 C10.9511111,4.00888889 7.65111111,6.62444444 7.65111111,6.62444444 L9.14222222,10.9022222 C9.06888889,10.78 5.52444444,8.26222222 5.52444444,8.26222222 C5.52444444,8.26222222 1.90666667,10.7555556 1.98,10.7555556 C2.05333333,10.7555556 3.34888889,6.6 3.34888889,6.6 L0.0977777778,4.15555556 L4.15555556,4.08222222 Z" id="Path" fill="#000000"></path>
                            <path d="M4.35111111,4.27777778 L5.52444444,0.904444444 L6.62444444,4.22888889 C6.62444444,4.22888889 10.2177778,4.35111111 10.2177778,4.27777778 C10.2177778,4.20444444 7.35777778,6.47777778 7.35777778,6.47777778 L8.65333333,10.1933333 C8.60444444,10.0711111 5.52444444,7.89555556 5.52444444,7.89555556 C5.52444444,7.89555556 2.39555556,10.0955556 2.46888889,10.0955556 C2.54222222,10.0955556 3.64222222,6.47777778 3.64222222,6.47777778 L0.831111111,4.35111111 L4.35111111,4.27777778 Z" id="Path" fill="#FFE700"></path>
                            <path d="M4.84,4.84 L5.52444444,2.88444444 L6.16,4.81555556 L8.23777778,4.84 L6.6,6.11111111 L7.33333333,8.23777778 C7.30888889,8.18888889 5.52444444,6.91777778 5.52444444,6.91777778 L3.76444444,8.18888889 C3.81333333,8.18888889 4.44888889,6.11111111 4.44888889,6.11111111 L2.83555556,4.88888889 L4.84,4.84 Z" id="Path" fill="#108C00"></path>
                        </g>
                        <g id="Group" stroke-width="1" fill="none" transform="translate(136.338214, 37.000000)">
                            <path d="M6.83913043,6.86888889 L5.5,10.78 L4.30434783,6.94222222 C4.30434783,6.94222222 0.191304348,6.82 0.191304348,6.86888889 C0.191304348,6.91777778 3.41956522,4.35111111 3.41956522,4.35111111 L1.98478261,0.0733333333 C2.0326087,0.195555556 5.5,2.71333333 5.5,2.71333333 C5.5,2.71333333 9.03913043,0.195555556 8.9673913,0.195555556 C8.89565217,0.195555556 7.62826087,4.35111111 7.62826087,4.35111111 L10.8086957,6.79555556 L6.83913043,6.86888889 Z" id="Path" fill="#000000"></path>
                            <path d="M6.67173913,6.67333333 C6.67173913,6.74666667 5.47608696,10.0711111 5.47608696,10.0711111 L4.44782609,6.74666667 C4.44782609,6.74666667 0.908695652,6.62444444 0.908695652,6.67333333 C0.908695652,6.72222222 3.70652174,4.49777778 3.70652174,4.49777778 L2.43913043,0.782222222 C2.48695652,0.904444444 5.5,3.08 5.5,3.08 C5.5,3.08 8.56086957,0.88 8.51304348,0.88 C8.46521739,0.88 7.34130435,4.49777778 7.34130435,4.49777778 L10.0913043,6.62444444 L6.64782609,6.67333333 L6.67173913,6.67333333 Z" id="Path" fill="#FFE700"></path>
                            <path d="M6.16956522,6.11111111 L5.5,8.06666667 L4.90217391,6.16 C4.90217391,6.16 2.84565217,6.08666667 2.84565217,6.13555556 C2.84565217,6.18444444 4.47173913,4.86444444 4.47173913,4.86444444 L3.75434783,2.73777778 C3.75434783,2.78666667 5.5,4.05777778 5.5,4.05777778 L7.24565217,2.78666667 C7.19782609,2.78666667 6.55217391,4.86444444 6.55217391,4.86444444 L8.15434783,6.08666667 L6.16956522,6.13555556 L6.16956522,6.11111111 Z" id="Path" fill="#108C00"></path>
                        </g>
                        <g id="Group" stroke-width="1" fill="none" transform="translate(146.338214, 66.000000)">
                            <path d="M6.91777778,6.91777778 L5.54888889,10.8288889 L4.32666667,6.96666667 C4.32666667,6.96666667 0.122222222,6.84444444 0.122222222,6.91777778 C0.122222222,6.99111111 3.42222222,4.4 3.42222222,4.4 L1.95555556,0.0977777778 C2.00444444,0.22 5.54888889,2.73777778 5.54888889,2.73777778 C5.54888889,2.73777778 9.16666667,0.22 9.09333333,0.22 C9.02,0.22 7.72444444,4.37555556 7.72444444,4.37555556 L11,6.84444444 L6.94222222,6.91777778 L6.91777778,6.91777778 Z" id="Path" fill="#000000"></path>
                            <path d="M6.74666667,6.72222222 L5.54888889,10.0955556 L4.47333333,6.77111111 C4.47333333,6.77111111 0.855555556,6.67333333 0.855555556,6.72222222 C0.855555556,6.77111111 3.71555556,4.52222222 3.71555556,4.52222222 L2.42,0.806666667 C2.46888889,0.928888889 5.54888889,3.10444444 5.54888889,3.10444444 C5.54888889,3.10444444 8.67777778,0.904444444 8.62888889,0.904444444 C8.58,0.904444444 7.43111111,4.52222222 7.43111111,4.52222222 L10.2422222,6.67333333 L6.72222222,6.72222222 L6.74666667,6.72222222 Z" id="Path" fill="#FFE700"></path>
                            <path d="M6.23333333,6.16 L5.54888889,8.11555556 L4.93777778,6.18444444 C4.93777778,6.18444444 2.83555556,6.13555556 2.83555556,6.18444444 C2.83555556,6.23333333 4.49777778,4.91333333 4.49777778,4.91333333 L3.76444444,2.76222222 C3.76444444,2.83555556 5.54888889,4.08222222 5.54888889,4.08222222 L7.33333333,2.81111111 C7.28444444,2.81111111 6.62444444,4.91333333 6.62444444,4.91333333 L8.26222222,6.13555556 L6.23333333,6.16 Z" id="Path" fill="#108C00"></path>
                        </g>
                        <g id="Group" stroke-width="1" fill="none" transform="translate(120.338214, 88.000000)">
                            <path d="M6.94222222,6.91777778 L5.57333333,10.8288889 L4.35111111,6.96666667 C4.35111111,6.96666667 0.146666667,6.84444444 0.146666667,6.89333333 C0.146666667,6.94222222 3.44666667,4.37555556 3.44666667,4.37555556 L1.98,0.0977777778 C2.02888889,0.22 5.57333333,2.73777778 5.57333333,2.73777778 C5.57333333,2.73777778 9.19111111,0.22 9.11777778,0.22 C9.04444444,0.22 7.74888889,4.37555556 7.74888889,4.37555556 L11,6.84444444 L6.94222222,6.91777778 Z" id="Path" fill="#000000"></path>
                            <path d="M6.77111111,6.69777778 L5.57333333,10.12 L4.49777778,6.77111111 C4.49777778,6.77111111 0.88,6.64888889 0.88,6.72222222 C0.88,6.79555556 3.74,4.52222222 3.74,4.52222222 L2.44444444,0.806666667 C2.49333333,0.928888889 5.57333333,3.10444444 5.57333333,3.10444444 C5.57333333,3.10444444 8.70222222,0.904444444 8.65333333,0.904444444 C8.60444444,0.904444444 7.45555556,4.52222222 7.45555556,4.52222222 L10.2666667,6.64888889 L6.77111111,6.72222222 L6.77111111,6.69777778 Z" id="Path" fill="#FFE700"></path>
                            <path d="M6.25777778,6.16 L5.57333333,8.11555556 L4.96222222,6.18444444 C4.96222222,6.18444444 2.86,6.11111111 2.86,6.16 C2.86,6.20888889 4.52222222,4.88888889 4.52222222,4.88888889 L3.78888889,2.76222222 C3.78888889,2.81111111 5.57333333,4.08222222 5.57333333,4.08222222 L7.35777778,2.81111111 L6.67333333,4.88888889 L8.28666667,6.11111111 L6.25777778,6.16 Z" id="Path" fill="#108C00"></path>
                        </g>
                        <g id="Group" stroke-width="1" fill="none" transform="translate(96.338214, 66.000000)">
                            <path d="M6.84444444,6.91777778 L5.45111111,10.8288889 L4.22888889,6.96666667 C4.22888889,6.96666667 0.0244444444,6.84444444 0.0244444444,6.91777778 C0.0244444444,6.99111111 3.32444444,4.4 3.32444444,4.4 L1.85777778,0.0977777778 C1.90666667,0.22 5.45111111,2.73777778 5.45111111,2.73777778 L9.04444444,0.244444444 L7.65111111,4.4 L10.9022222,6.86888889 L6.84444444,6.94222222 L6.84444444,6.91777778 Z" id="Path" fill="#000000"></path>
                            <path d="M6.64888889,6.72222222 L5.45111111,10.0955556 L4.37555556,6.77111111 C4.37555556,6.77111111 0.757777778,6.67333333 0.757777778,6.72222222 C0.757777778,6.77111111 3.61777778,4.52222222 3.61777778,4.52222222 L2.32222222,0.806666667 C2.37111111,0.928888889 5.45111111,3.10444444 5.45111111,3.10444444 C5.45111111,3.10444444 8.58,0.904444444 8.53111111,0.904444444 C8.48222222,0.904444444 7.33333333,4.52222222 7.33333333,4.52222222 L10.1444444,6.67333333 L6.64888889,6.72222222 Z" id="Path" fill="#FFE700"></path>
                            <path d="M6.13555556,6.16 L5.45111111,8.11555556 L4.84,6.18444444 C4.84,6.18444444 2.73777778,6.13555556 2.73777778,6.18444444 C2.73777778,6.23333333 4.4,4.91333333 4.4,4.91333333 L3.66666667,2.76222222 C3.66666667,2.83555556 5.45111111,4.08222222 5.45111111,4.08222222 L7.23555556,2.81111111 L6.55111111,4.91333333 L8.16444444,6.13555556 L6.13555556,6.16 Z" id="Path" fill="#108C00"></path>
                        </g>
                        <g id="Group" stroke-width="1" fill="none" transform="translate(105.338214, 37.000000)">
                            <path d="M6.86304348,6.95 L5.52391304,10.95 L4.28043478,7.025 C4.28043478,7.025 0.215217391,6.9 0.215217391,6.95 C0.215217391,7 3.44347826,4.375 3.44347826,4.375 L1.98478261,0 C2.0326087,0.125 5.5,2.7 5.5,2.7 C5.5,2.7 9.03913043,0.125 8.99130435,0.125 C8.94347826,0.125 7.65217391,4.375 7.65217391,4.375 L10.8086957,6.875 L6.86304348,6.975 L6.86304348,6.95 Z" id="Path" fill="#000000"></path>
                            <path d="M6.67173913,6.75 L5.5,10.25 L4.44782609,6.825 C4.44782609,6.825 0.908695652,6.7 0.908695652,6.775 C0.908695652,6.85 3.70652174,4.525 3.70652174,4.525 L2.43913043,0.725 C2.48695652,0.85 5.5,3.075 5.5,3.075 C5.5,3.075 8.56086957,0.825 8.51304348,0.825 C8.46521739,0.825 7.36521739,4.525 7.36521739,4.525 L10.0913043,6.7 L6.67173913,6.775 L6.67173913,6.75 Z" id="Path" fill="#FFE700"></path>
                            <path d="M6.16956522,6.2 L5.5,8.2 L4.90217391,6.225 C4.90217391,6.225 2.86956522,6.15 2.86956522,6.2 C2.86956522,6.25 4.47173913,4.9 4.47173913,4.9 L3.75434783,2.725 C3.75434783,2.775 5.5,4.075 5.5,4.075 L7.24565217,2.775 L6.57608696,4.9 L8.15434783,6.15 L6.16956522,6.2 Z" id="Path" fill="#108C00"></path>
                        </g>
                        <g id="Group" stroke-width="1" fill="none" transform="translate(119.338214, 46.000000)">
                            <g transform="translate(7.503797, 16.603889)" fill="#009200" id="Oval" stroke="#000000" stroke-width="0.2">
                                <ellipse cx="1.78146835" cy="9.12218182" rx="1.74663291" ry="8.66561616"></ellipse>
                                <ellipse cx="4.01417722" cy="9.27284848" rx="1.87139241" ry="8.66561616"></ellipse>
                                <ellipse cx="3.12870886" cy="9.53354747" rx="1.49711392" ry="9.53217778"></ellipse>
                            </g>
                            <g transform="translate(0.227848, 26.441667)" stroke="#000000" stroke-width="0.2">
                                <path d="M0.126582278,1.58333333 C1.64556962,1.50416667 0.987341772,0.7125 1.74683544,0.263888889 C2.50632911,-0.158333333 3.59493671,0.105555556 3.92405063,0.633333333 C4.25316456,1.16111111 4,1.68888889 4.43037975,1.68888889 C4.86075949,1.68888889 16.3291139,1.02916667 16.7341772,1.45138889 C17.1392405,1.9 17.2405063,2.77083333 16.8101266,3.11388889 C16.4050633,3.48333333 1.89873418,3.90555556 1.39240506,3.53611111 C0.886075949,3.16666667 0.126582278,1.68888889 0.126582278,1.58333333 Z" id="Path" fill="#A95600"></path>
                                <path d="M8.06075949,4.71041667 C8.06075949,5.76597222 9.79240506,5.44402778 9.83797468,6.32541667 C9.81139241,7.25958333 6.92531646,6.41777778 6.85316456,4.71041667 C6.92531646,3.00041667 9.70126582,2.12430556 9.76582278,3.10069444 C9.81139241,3.90819444 8.05696203,3.65486111 8.05696203,4.71041667 L8.06075949,4.71041667 Z" id="Path" fill="#FFFF00"></path>
                                <path d="M9.07341772,4.73680556 C9.07341772,5.79236111 10.8050633,5.47041667 10.8506329,6.35180556 C10.8240506,7.28597222 7.93797468,6.44416667 7.86582278,4.73680556 C7.93797468,3.02680556 10.7139241,2.15069444 10.778481,3.12708333 C10.8240506,3.93458333 9.06962025,3.68125 9.06962025,4.73680556 L9.07341772,4.73680556 Z" id="Path" fill="#FFFF00"></path>
                                <path d="M10.1620253,4.68402778 C10.1620253,5.73958333 11.8936709,5.41763889 11.9392405,6.29902778 C11.9126582,7.23319444 9.02658228,6.39138889 8.95443038,4.68402778 C9.02658228,2.97402778 11.8025316,2.09791667 11.8670886,3.07430556 C11.9126582,3.88180556 10.1582278,3.62847222 10.1582278,4.68402778 L10.1620253,4.68402778 Z" id="Path" fill="#FFFF00"></path>
                                <path d="M11.1746835,4.68402778 C11.1746835,5.73958333 12.9063291,5.41763889 12.9518987,6.29902778 C12.9253165,7.23319444 10.0392405,6.39138889 9.96708861,4.68402778 C10.0392405,2.97402778 12.8151899,2.09791667 12.8797468,3.07430556 C12.9253165,3.88180556 11.1708861,3.62847222 11.1708861,4.68402778 L11.1746835,4.68402778 Z" id="Path" fill="#FFFF00"></path>
                                <ellipse id="Oval" fill="#A95600" transform="translate(16.066329, 6.861903) rotate(0.996362) translate(-16.066329, -6.861903) " cx="16.0663291" cy="6.86190278" rx="1" ry="1.03195076"></ellipse>
                            </g>
                            <g transform="translate(9.164384, 29.368424) rotate(-5.800000) translate(-9.164384, -29.368424) translate(6.164384, 24.368424)" fill="#009200" id="Oval" stroke="#000000" stroke-width="0.3">
                                <ellipse cx="3.65269553" cy="7.12203271" rx="1" ry="2.03511111"></ellipse>
                                <ellipse cx="2.18434109" cy="6.83175493" rx="1" ry="2.03511111"></ellipse>
                                <ellipse cx="1.3235816" cy="4.74703271" rx="1" ry="2.03511111"></ellipse>
                                <ellipse cx="2.44484742" cy="4.31161604" rx="1" ry="2.22590278"></ellipse>
                                <ellipse cx="4.49548034" cy="4.91856049" rx="1" ry="2.09870833"></ellipse>
                                <ellipse cx="3.4321892" cy="4.07411604" rx="1" ry="2.09870833"></ellipse>
                                <ellipse cx="2.1157335" cy="2.88661604" rx="1" ry="2.09870833"></ellipse>
                                <ellipse cx="0.849910715" cy="2.14772716" rx="1" ry="2.09870833"></ellipse>
                            </g>
                            <path d="M5.72151899,7.38888889 C5.72151899,7.38888889 2.75949367,10.0277778 3.16455696,17.1263889 C3.62025316,24.2513889 9.87341772,27.55 9.87341772,27.55 C9.87341772,27.55 11.443038,25.5180556 11.1898734,19.7652778 C10.6835443,11.3736111 7.69620253,7.70555556 7.69620253,7.70555556 L5.72151899,7.3625 L5.72151899,7.38888889 Z" id="Path" stroke="#000000" stroke-width="0.2" fill="#804BFF"></path>
                            <g transform="translate(11.581629, 29.520658) rotate(4.500000) translate(-11.581629, -29.520658) translate(8.581629, 24.520658)" fill="#009200" id="Oval" stroke="#000000" stroke-width="0.3">
                                <ellipse cx="3.64401691" cy="7.12689241" rx="1" ry="2.03511111"></ellipse>
                                <ellipse cx="2.17566248" cy="6.83661463" rx="1" ry="2.03511111"></ellipse>
                                <ellipse cx="1.31490299" cy="4.75189241" rx="1" ry="2.03511111"></ellipse>
                                <ellipse cx="2.43616881" cy="4.31647574" rx="1" ry="2.22590278"></ellipse>
                                <ellipse cx="4.48680172" cy="4.92342018" rx="1" ry="2.09870833"></ellipse>
                                <ellipse cx="3.42351059" cy="4.07897574" rx="1" ry="2.09870833"></ellipse>
                                <ellipse cx="2.10705489" cy="2.89147574" rx="1" ry="2.09870833"></ellipse>
                                <ellipse cx="0.841232104" cy="2.15258685" rx="1" ry="2.09870833"></ellipse>
                            </g>
                            <ellipse id="Oval" stroke="#000000" stroke-width="0.2" fill="#C90000" transform="translate(11.612658, 20.438458) rotate(-21.635525) translate(-11.612658, -20.438458) " cx="11.6126582" cy="20.4384583" rx="2.54733151" ry="7.90984204"></ellipse>
                            <g transform="translate(8.082467, 10.472533) rotate(1.000000) translate(-8.082467, -10.472533) translate(4.082467, 5.972533)" fill="#009200" id="Oval" stroke="#000000" stroke-width="0.2">
                                <ellipse cx="6.13670886" cy="7.2675" rx="1.09367089" ry="1.02125"></ellipse>
                                <ellipse cx="6.46455696" cy="5.81611111" rx="1" ry="1.02125"></ellipse>
                                <ellipse cx="5.14810127" cy="5.81611111" rx="1" ry="1.02125"></ellipse>
                                <ellipse cx="5.61949367" cy="3.65116667" rx="1.01164557" ry="1"></ellipse>
                                <ellipse cx="5.49291139" cy="2.46366667" rx="1.01164557" ry="1"></ellipse>
                                <ellipse cx="3.88227848" cy="5.07722222" rx="1" ry="1.02125"></ellipse>
                                <ellipse cx="4.13544304" cy="4.33833333" rx="1" ry="1.02125"></ellipse>
                                <ellipse cx="3.04810127" cy="3.83694444" rx="1.09367089" ry="1.02125"></ellipse>
                                <ellipse cx="4.73341772" cy="1.01227778" rx="1.01164557" ry="1"></ellipse>
                                <ellipse cx="3.17341772" cy="2.91333333" rx="1" ry="1.02125"></ellipse>
                                <ellipse cx="1.12278481" cy="3.91611111" rx="1" ry="1.02125"></ellipse>
                                <ellipse cx="1.45189873" cy="3.73138889" rx="1" ry="1.02125"></ellipse>
                                <ellipse cx="1.85696203" cy="2.91333333" rx="1" ry="1.02125"></ellipse>
                            </g>
                            <g transform="translate(4.574684, 11.188889)" fill="#009200" stroke="#000000" stroke-width="0.2">
                                <ellipse id="Oval" transform="translate(7.222349, 10.867208) rotate(-21.794787) translate(-7.222349, -10.867208) " cx="7.22234937" cy="10.8672083" rx="3.18048296" ry="10.1631415"></ellipse>
                                <ellipse id="Oval" transform="translate(9.758244, 12.494975) rotate(-23.400000) translate(-9.758244, -12.494975) " cx="9.75824361" cy="12.4949746" rx="1" ry="2.14036285"></ellipse>
                                <path d="M9.51936078,12.473245 C9.31263282,16.9963043 7.68915283,19.3078987 6.32420899,21.2622133 C7.04757973,18.6836449 7.5646758,17.085348 7.77140375,12.5622886 C7.97813171,8.03922926 10.4642733,5.75407559 11.3980847,4.40045339 C10.9983713,5.72686781 9.72608873,7.95018561 9.51936078,12.473245 Z" id="Path" transform="translate(8.861147, 12.831333) rotate(-32.846542) translate(-8.861147, -12.831333) "></path>
                                <path d="M9.6970823,15.323245 C9.49035434,19.8463043 7.86687434,22.1578987 6.5019305,24.1122133 C7.22530125,21.5336449 7.74239732,19.935348 7.94912527,15.4122886 C8.15585322,10.8892293 10.6419948,8.60407559 11.5758062,7.25045339 C11.1760928,8.57686781 9.90381025,10.8001856 9.6970823,15.323245 Z" id="Path" transform="translate(9.038868, 15.681333) rotate(-32.846542) translate(-9.038868, -15.681333) "></path>
                                <path d="M9.90304319,17.6211991 C9.69315144,22.1521297 8.06921827,24.4686215 6.70388547,26.4270721 C7.42859561,23.8436675 7.9464692,22.2423333 8.15636095,17.7114027 C8.36625269,13.1804722 10.8521666,10.8899693 11.7862563,9.53348899 C11.3858751,10.8624071 10.1129349,13.0902686 9.90304319,17.6211991 Z" id="Path" transform="translate(9.245071, 17.980281) rotate(-33.743801) translate(-9.245071, -17.980281) "></path>
                                <ellipse id="Oval" transform="translate(7.804911, 9.295433) rotate(-21.907100) translate(-7.804911, -9.295433) " cx="7.80491139" cy="9.29543333" rx="1.12981097" ry="3.81932917"></ellipse>
                                <ellipse id="Oval" transform="translate(7.023165, 10.969017) rotate(-20.559548) translate(-7.023165, -10.969017) " cx="7.02316456" cy="10.9690167" rx="1.00677144" ry="3.11625788"></ellipse>
                                <ellipse id="Oval" transform="translate(5.339641, 12.147122) rotate(-19.170184) translate(-5.339641, -12.147122) " cx="5.33964051" cy="12.1471222" rx="1.00329128" ry="3.10740727"></ellipse>
                                <ellipse id="Oval" transform="translate(6.512876, 7.228444) rotate(-23.285379) translate(-6.512876, -7.228444) " cx="6.51287595" cy="7.22844444" rx="1" ry="2.36515332"></ellipse>
                                <ellipse id="Oval" transform="translate(5.771641, 8.336356) rotate(-19.988082) translate(-5.771641, -8.336356) " cx="5.77164051" cy="8.33635556" rx="1" ry="2.36876331"></ellipse>
                                <path d="M5.66594835,7.30094066 C5.5844658,9.55151689 5.16774198,11.3915261 4.73344241,11.4077183 C4.29914285,11.4239106 4.01470834,9.61004305 4.09619088,7.35946683" id="Path" transform="translate(4.874108, 9.354383) rotate(-21.985966) translate(-4.874108, -9.354383) "></path>
                                <ellipse id="Oval" transform="translate(5.698729, 5.876911) rotate(-19.988082) translate(-5.698729, -5.876911) " cx="5.69872911" cy="5.87691111" rx="1" ry="2.36876331"></ellipse>
                                <ellipse id="Oval" transform="translate(4.449119, 6.754183) rotate(-18.991499) translate(-4.449119, -6.754183) " cx="4.44911899" cy="6.75418333" rx="1" ry="2.37470334"></ellipse>
                                <path d="M4.51331288,4.35946617 C4.43748092,5.98906702 4.12447082,7.32385548 3.8129701,7.33864188 C3.50146937,7.35342827 3.31157469,6.04251183 3.38740665,4.41291098" id="Path" transform="translate(3.942022, 5.849116) rotate(-31.336755) translate(-3.942022, -5.849116) "></path>
                                <path d="M5.04192048,3.43585506 C4.96608852,5.06545591 4.65307842,6.40024437 4.34157769,6.41503076 C4.03007697,6.42981716 3.84018229,5.11890072 3.91601425,3.48929987" id="Path" transform="translate(4.470630, 4.925505) rotate(-31.336755) translate(-4.470630, -4.925505) "></path>
                                <path d="M7.64203,3.99323729 C7.53748892,6.24050977 7.10320609,8.08134547 6.67034242,8.10188388 C6.23747874,8.1224223 5.97292143,6.31474501 6.07746251,4.06747252" id="Path" transform="translate(6.848340, 6.047647) rotate(-31.315855) translate(-6.848340, -6.047647) "></path>
                                <path d="M5.86116658,2.62965645 C5.78100958,4.38468693 5.45558697,5.82151005 5.13305889,5.83656318 C4.81053081,5.85161631 4.61524545,4.43909582 4.69540244,2.68406534" id="Path" transform="translate(5.269294, 4.233169) rotate(-30.387684) translate(-5.269294, -4.233169) "></path>
                            </g>
                            <g transform="translate(8.607595, 2.902778)" fill="#804BFF" id="Path" stroke="#000000" stroke-width="0.2">
                                <path d="M2.07797468,5.19544444 C1.57974684,5.72955556 2.09417722,6.65844444 2.56405063,6.97775 C3.09063291,7.42477778 6.07189873,10.3565833 8.08506329,7.67441667 C6.43240506,7.72086111 3.27696203,4.00530556 2.07797468,5.19544444 Z"></path>
                                <path d="M1.7235443,3.6385 C1.22531646,4.17261111 1.73974684,5.1015 2.20962025,5.42080556 C2.73620253,5.86783333 5.71746835,8.79963889 7.73063291,6.11747222 C6.07797468,6.16391667 2.92253165,2.44836111 1.7235443,3.6385 Z"></path>
                                <path d="M1.2678481,2.16072222 C0.769620253,2.69483333 1.28405063,3.62372222 1.75392405,3.94302778 C2.28050633,4.39005556 5.26177215,7.32186111 7.27493671,4.63969444 C5.62227848,4.68613889 2.46683544,0.970583333 1.2678481,2.16072222 Z"></path>
                                <path d="M0.280506329,0.471833333 C-0.217721519,1.00594444 0.296708861,1.93483333 0.766582278,2.25413889 C1.29316456,2.70116667 4.27443038,5.63297222 6.28759494,2.95080556 C4.63493671,2.99725 1.47949367,-0.718305556 0.280506329,0.471833333 Z"></path>
                            </g>
                            <g transform="translate(8.461441, 4.704162) rotate(1.000000) translate(-8.461441, -4.704162) translate(2.961441, 0.204162)">
                                <path d="M1.98842857,1.82815737 C3.13322523,1.20519477 4.94636465,1.26405252 6.12098414,2.26728307 C7.10829081,3.07842548 8.38010558,5.91307969 9.65802377,6.74585262 C8.84827281,6.80902335 8.06355846,6.56024517 7.4819812,6.05598131 C5.9631755,6.86173879 5.47768909,6.93418621 4.13129656,6.92172171 C2.27028295,6.90361649 0.907414442,6.13726219 0.645877816,5.01537239 C0.346482778,3.94875207 0.964093789,2.41824202 1.98842857,1.82815737 Z" id="Path" stroke="#000000" stroke-width="0.2" fill="#804BFF" transform="translate(5.114101, 4.173195) rotate(-15.266690) translate(-5.114101, -4.173195) "></path>
                                <ellipse id="Oval" stroke="#000000" stroke-width="0.2" fill="#FF0000" cx="4.20253165" cy="3.63902778" rx="1" ry="1"></ellipse>
                                <ellipse id="Oval" stroke="#000000" stroke-width="0.2" fill="#FFFF00" transform="translate(1.772405, 5.764125) rotate(-22.297558) translate(-1.772405, -5.764125) " cx="1.77240506" cy="5.764125" rx="1.27898655" ry="1"></ellipse>
                                <ellipse id="Oval" fill="#000000" cx="2.80506329" cy="5.29888889" rx="1" ry="1"></ellipse>
                                <path d="M3.18481013,4.30772222 C3.29620253,4.68772222 3.01518987,5.2155 2.34683544,5.41816667 C1.66835443,5.69683333 1.17974684,6.30061111 0.936708861,7.27594444 C-0.258227848,5.09727778 0.35443038,4.14516667 1.45822785,3.89183333 C2.40506329,3.58783333 2.98734177,3.60894444 3.18481013,4.30772222 Z" id="Path" stroke="#000000" stroke-width="0.2" fill="#FFFF00"></path>
                                <ellipse id="Oval" fill="#000000" cx="0.379746835" cy="6.46" rx="1" ry="1"></ellipse>
                            </g>
                        </g>
                    </g>
                </g>
            </g>
        </g>
    </g>
</svg>