<?xml version="1.0" encoding="UTF-8"?>
<svg width="200px" height="150px" viewBox="0 0 200 150" version="1.1" xmlns="http://www.w3.org/2000/svg" xmlns:xlink="http://www.w3.org/1999/xlink">
    <!-- Generator: Sketch 52.5 (67469) - http://www.bohemiancoding.com/sketch -->
    <title>ec</title>
    <desc>Created with Sketch.</desc>
    <g id="Flags" stroke="none" stroke-width="1" fill="none" fill-rule="evenodd">
        <g id="South-America" transform="translate(-510.000000, -250.000000)">
            <g id="ec" transform="translate(510.000000, 250.000000)">
                <g id="Group">
                    <polygon id="Path" fill="#FFE800" points="0 0 200 0 200 150 0 150"></polygon>
                    <polygon id="Path" fill="#00148E" points="0 75 200 75 200 150 0 150"></polygon>
                    <polygon id="Path" fill="#DA0010" points="0 112.5 200 112.5 200 150 0 150"></polygon>
                </g>
                <g id="Group" transform="translate(56.250000, 90.312500)">
                    <path d="M28,0.5625 L5.3125,24.46875 L4.9375,23.96875 L27.5625,0.0625 L27.9375,0.5625 L28,0.5625 Z M43.75,4.46875 L14.125,35.71875 L13.625,35.21875 L43.21875,3.96875 L43.75,4.46875 Z" id="Shape" fill="#000000" fill-rule="nonzero"></path>
                    <polygon id="Path" stroke="#000000" stroke-width="0.25" fill="#808080" transform="translate(11.060313, 37.735312) scale(-1, 1) rotate(-45.000000) translate(-11.060313, -37.735312) " points="10.5127467 33.8197087 10.5127467 37.7353125 11.0603125 41.6509163 11.6078783 37.7353125 11.6078783 33.8197087"></polygon>
                    <polygon id="Path" stroke="#000000" stroke-width="0.25" fill="#808080" transform="translate(3.435312, 25.516562) scale(-1, 1) rotate(-45.000000) translate(-3.435312, -25.516562) " points="2.88774669 21.6009587 2.88774669 25.5165625 3.4353125 29.4321663 3.98287831 25.5165625 3.98287831 21.6009587"></polygon>
                </g>
                <path d="M64.98125,35.8725 C64.98125,35.8725 62.4921875,103.1925 72.4484375,103.1925 C82.4046875,103.1925 87.396875,96.1125 87.396875,96.1125 L87.284375,59.1125 L64.98125,35.8725 Z" id="Path" stroke="#000000" stroke-width="0.275" fill="#FFDF00"></path>
                <path d="M71.0703125,42.1525 C71.0703125,45.6925 69.959375,96.1125 74.9375,96.1125 C79.915625,96.1125 87.396875,92.5725 87.396875,92.5725 L87.284375,59.1125 L71.0703125,42.1525 Z" id="Path" stroke="#000000" stroke-width="0.275" fill="#0000C4"></path>
                <path d="M74.3046875,45.5525 C74.3046875,49.0925 74.9375,89.0325 79.9296875,89.0325 L87.396875,89.0325 L87.284375,59.1125 L74.3046875,45.5525 Z" id="Path" stroke="#000000" stroke-width="0.275" fill="#E10000"></path>
                <polygon id="Path" fill="#000000" points="64.4375 36.25 87.0625 60.15625 87.46875 59.65625 64.84375 35.75 64.4375 36.25"></polygon>
                <path d="M57.5925,49.6675 C57.5925,49.6675 51.17625,114.88375 70.425,114.88375 C86.465625,114.88375 86.465625,104.595625 89.67375,104.595625 L86.465625,80.570625 L57.574375,49.6675 L57.5925,49.6675 Z" id="Path" stroke="#000000" stroke-width="0.3" fill="#FFDF00"></path>
                <g id="Group" transform="translate(64.375000, 38.125000)" stroke="#000000">
                    <path d="M10.2478614,21.9089155 C10.3857475,21.9089155 13.7952966,11.5232846 25.1646386,5.64545952" id="Path" stroke-width="0.435" transform="translate(17.706250, 13.777187) rotate(8.071777) translate(-17.706250, -13.777187) "></path>
                    <path d="M7.35244831,13.255875 C7.35244831,15.128427 6.97759417,16.5354273 6.42346196,17.9424277 C5.9671178,16.0698758 5.69005169,15.128427 5.69005169,13.255875 C5.69005169,11.3833231 6.2441839,9.62457266 6.70052807,8.2175723 C6.88795514,9.50042557 7.35244831,11.3729775 7.35244831,13.255875 Z" id="Path" stroke-width="0.25" fill="#005B00" transform="translate(6.521250, 13.080000) rotate(-59.355038) translate(-6.521250, -13.080000) "></path>
                    <path d="M11.4535179,19.171137 C11.4535179,19.4176756 11.2089966,19.6272333 10.9065625,19.6272333 C10.6041284,19.6272333 10.3596071,19.423839 10.3596071,19.171137 C10.3596071,18.918435 10.6041284,18.7212042 10.9065625,18.7212042 C11.2089966,18.7212042 11.4535179,18.9245985 11.4535179,19.171137 Z" id="Path" stroke-width="0.25" fill="#FF0000" transform="translate(10.906563, 19.174219) rotate(-30.114170) translate(-10.906563, -19.174219) "></path>
                    <path d="M16.9008117,5.33967532 C16.9008117,7.3458508 16.5898329,8.85325336 16.1301251,10.3606559 C15.7515422,8.35448046 15.5216883,7.3458508 15.5216883,5.33967532 C15.5216883,3.33349985 15.9813961,1.44924664 16.359979,-0.0581559312 C16.5154684,1.31624053 16.9008117,3.322416 16.9008117,5.33967532 Z" id="Path" stroke-width="0.25" fill="#005B00" transform="translate(16.211250, 5.151250) rotate(23.773858) translate(-16.211250, -5.151250) "></path>
                    <path d="M14.2577478,5.70853544 C14.2577478,7.58279514 14.0095968,8.99107867 13.642765,10.3993622 C13.3406681,8.5251025 13.1572522,7.58279514 13.1572522,5.70853544 C13.1572522,3.83427574 13.5240841,2.07392133 13.8261809,0.665637802 C13.9502564,1.94966102 14.2577478,3.82392072 14.2577478,5.70853544 Z" id="Path" stroke-width="0.25" fill="#005B00" transform="translate(13.707500, 5.532500) rotate(5.252703) translate(-13.707500, -5.532500) "></path>
                    <path d="M16.5732537,6.9831968 C16.5732537,8.46789509 16.2036736,9.58346949 15.6573378,10.6990439 C15.2074142,9.21434561 14.9342463,8.46789509 14.9342463,6.9831968 C14.9342463,5.49849851 15.4805821,4.10403051 15.9305057,2.98845611 C16.1152958,4.00559747 16.5732537,5.49029576 16.5732537,6.9831968 Z" id="Path" stroke-width="0.25" fill="#005B00" transform="translate(15.753750, 6.843750) rotate(70.183933) translate(-15.753750, -6.843750) "></path>
                    <path d="M7.82031115,10.0034678 C7.82031115,11.7705368 7.41372475,13.0982792 6.81268398,14.4260217 C6.31770924,12.6589527 6.01718885,11.7705368 6.01718885,10.0034678 C6.01718885,8.23639882 6.61822962,6.57672076 7.11320436,5.24897832 C7.31649756,6.45956702 7.82031115,8.226636 7.82031115,10.0034678 Z" id="Path" stroke-width="0.25" fill="#005B00" transform="translate(6.918750, 9.837500) rotate(-42.156353) translate(-6.918750, -9.837500) "></path>
                    <path d="M5.54296726,20.556333 C5.54296726,22.3672166 5.09572222,23.7278805 4.43457738,25.0885444 C3.89010516,23.2776608 3.55953274,22.3672166 3.55953274,20.556333 C3.55953274,18.7454494 4.22067758,17.0446195 4.7651498,15.6839556 C4.98877232,16.924561 5.54296726,18.7354445 5.54296726,20.556333 Z" id="Path" stroke-width="0.25" fill="#005B00" transform="translate(4.551250, 20.386250) rotate(-47.837947) translate(-4.551250, -20.386250) "></path>
                    <path d="M12.1729348,18.8817221 C12.1729348,21.0161603 11.7724936,22.6199371 11.1805371,24.2237139 C10.6930435,22.0892757 10.3970652,21.0161603 10.3970652,18.8817221 C10.3970652,16.7472839 10.9890217,14.7425629 11.4765153,13.1387861 C11.6767359,14.6010532 12.1729348,16.7354914 12.1729348,18.8817221 Z" id="Path" stroke-width="0.25" fill="#005B00" transform="translate(11.285000, 18.681250) rotate(29.590013) translate(-11.285000, -18.681250) "></path>
                    <path d="M13.678125,18.5500502 C13.678125,20.7465404 13.31875,22.3969418 12.7875,24.0473433 C12.35,21.8508531 12.084375,20.7465404 12.084375,18.5500502 C12.084375,16.35356 12.615625,14.2905582 13.053125,12.6401567 C13.2328125,14.1449345 13.678125,16.3414247 13.678125,18.5500502 Z" id="Path" stroke-width="0.25" fill="#005B00" transform="translate(12.881250, 18.343750) rotate(53.940952) translate(-12.881250, -18.343750) "></path>
                    <path d="M25.6194492,5.8004453 C25.6194492,7.00298054 25.4353593,7.90654294 25.1632266,8.81010533 C24.9391172,7.60757009 24.8030508,7.00298054 24.8030508,5.8004453 C24.8030508,4.59791005 25.0751836,3.46845706 25.299293,2.56489467 C25.3913379,3.38873097 25.6194492,4.59126621 25.6194492,5.8004453 Z" id="Path" stroke-width="0.25" fill="#005B00" transform="translate(25.211250, 5.687500) rotate(46.509272) translate(-25.211250, -5.687500) "></path>
                    <path d="M23.71875,3.43106281 C23.71875,4.49377571 23.575,5.29227821 23.3625,6.09078071 C23.1875,5.02806782 23.08125,4.49377571 23.08125,3.43106281 C23.08125,2.36834992 23.29375,1.37022179 23.46875,0.571719285 C23.540625,1.29976569 23.71875,2.36247858 23.71875,3.43106281 Z" id="Path" stroke-width="0.25" fill="#005B00" transform="translate(23.400000, 3.331250) rotate(23.064161) translate(-23.400000, -3.331250) "></path>
                    <path d="M26.84625,4.74441149 C26.84625,5.6564544 26.645,6.3417463 26.3475,7.02703821 C26.1025,6.11499531 25.95375,5.6564544 25.95375,4.74441149 C25.95375,3.83236858 26.25125,2.9757537 26.49625,2.29046179 C26.596875,2.91528676 26.84625,3.82732967 26.84625,4.74441149 Z" id="Path" stroke-width="0.25" fill="#005B00" transform="translate(26.400000, 4.658750) rotate(90.000000) translate(-26.400000, -4.658750) "></path>
                    <path d="M15.696584,9.97363466 C15.696584,11.6227007 15.5211147,12.861778 15.2617254,14.1008553 C15.0481107,12.4517892 14.918416,11.6227007 14.918416,9.97363466 C14.918416,8.32456858 15.1778053,6.77572198 15.3914201,5.5366447 C15.4791547,6.66639163 15.696584,8.31545771 15.696584,9.97363466 Z" id="Path" stroke-width="0.25" fill="#005B00" transform="translate(15.307500, 9.818750) rotate(56.226730) translate(-15.307500, -9.818750) "></path>
                    <path d="M20.1007794,10.8812464 C20.1007794,13.0638554 19.7334426,14.7038269 19.190423,16.3437983 C18.7432304,14.1611893 18.4717206,13.0638554 18.4717206,10.8812464 C18.4717206,8.69863741 19.0147402,6.64867314 19.4619328,5.00870172 C19.6456012,6.50396978 20.1007794,8.6865788 20.1007794,10.8812464 Z" id="Path" stroke-width="0.25" fill="#005B00" transform="translate(19.286250, 10.676250) rotate(59.252966) translate(-19.286250, -10.676250) "></path>
                    <path d="M2.63243225,26.8338889 C2.7710023,26.8338889 6.19746185,17.6380593 17.6231928,12.4336111" id="Path" stroke-width="0.435" transform="translate(10.127812, 19.633750) rotate(-27.252034) translate(-10.127812, -19.633750) "></path>
                    <path d="M18.5472679,9.13988702 C18.5472679,9.38642555 18.3027466,9.59598331 18.0003125,9.59598331 C17.6978784,9.59598331 17.4533571,9.39258902 17.4533571,9.13988702 C17.4533571,8.88718502 17.6978784,8.68995419 18.0003125,8.68995419 C18.3027466,8.68995419 18.5472679,8.89334848 18.5472679,9.13988702 Z" id="Path" stroke-width="0.25" fill="#FF0000" transform="translate(18.000313, 9.142969) rotate(-30.114170) translate(-18.000313, -9.142969) "></path>
                    <path d="M21.9222679,7.17113702 C21.9222679,7.41767555 21.6777466,7.62723331 21.3753125,7.62723331 C21.0728784,7.62723331 20.8283571,7.42383902 20.8283571,7.17113702 C20.8283571,6.91843502 21.0728784,6.72120419 21.3753125,6.72120419 C21.6777466,6.72120419 21.9222679,6.92459848 21.9222679,7.17113702 Z" id="Path" stroke-width="0.25" fill="#FF0000" transform="translate(21.375313, 7.174219) rotate(-30.114170) translate(-21.375313, -7.174219) "></path>
                    <path d="M12.4978618,13.7875367 C12.4978618,13.972097 12.2323287,14.1289733 11.9039063,14.1289733 C11.5754838,14.1289733 11.3099507,13.976711 11.3099507,13.7875367 C11.3099507,13.5983625 11.5754838,13.4507142 11.9039063,13.4507142 C12.2323287,13.4507142 12.4978618,13.6029765 12.4978618,13.7875367 Z" id="Path" stroke-width="0.25" fill="#FF0000" transform="translate(11.903906, 13.789844) rotate(-27.926261) translate(-11.903906, -13.789844) "></path>
                    <path d="M13.4978618,13.3500367 C13.4978618,13.534597 13.2323287,13.6914733 12.9039063,13.6914733 C12.5754838,13.6914733 12.3099507,13.539211 12.3099507,13.3500367 C12.3099507,13.1608625 12.5754838,13.0132142 12.9039063,13.0132142 C13.2323287,13.0132142 13.4978618,13.1654765 13.4978618,13.3500367 Z" id="Path" stroke-width="0.25" fill="#FF0000" transform="translate(12.903906, 13.352344) rotate(-27.926261) translate(-12.903906, -13.352344) "></path>
                    <path d="M12.9041118,14.2875367 C12.9041118,14.472097 12.6385787,14.6289733 12.3101562,14.6289733 C11.9817338,14.6289733 11.7162007,14.476711 11.7162007,14.2875367 C11.7162007,14.0983625 11.9817338,13.9507142 12.3101562,13.9507142 C12.6385787,13.9507142 12.9041118,14.1029765 12.9041118,14.2875367 Z" id="Path" stroke-width="0.25" fill="#FF0000" transform="translate(12.310156, 14.289844) rotate(-27.926261) translate(-12.310156, -14.289844) "></path>
                    <path d="M14.59375,14.15625 C14.71875,14.40625 14.59375,14.71875 14.28125,14.875 C13.96875,15.03125 13.65625,14.9375 13.53125,14.65625 C13.40625,14.375 13.53125,14.09375 13.84375,13.9375 C14.15625,13.78125 14.46875,13.875 14.5625,14.15625 L14.59375,14.15625 Z" id="Path" stroke-width="0.15" fill="#FF0000"></path>
                    <path d="M15.3125,13.40625 C15.40625,13.65625 15.3125,13.96875 15,14.125 C14.6875,14.28125 14.375,14.1875 14.21875,13.9375 C14.0625,13.6875 14.21875,13.34375 14.53125,13.1875 C14.84375,13.03125 15.15625,13.15625 15.28125,13.40625 L15.3125,13.40625 Z" id="Path" stroke-width="0.15" fill="#FF0000"></path>
                    <path d="M15.46875,13.75 C15.59375,14 15.46875,14.34375 15.15625,14.46875 C14.84375,14.59375 14.53125,14.53125 14.40625,14.28125 C14.28125,14.03125 14.40625,13.71875 14.71875,13.5625 C15.03125,13.40625 15.34375,13.5 15.46875,13.75 Z" id="Path" stroke-width="0.15" fill="#FF0000"></path>
                </g>
                <path d="M64.00875,56.545625 C64.00875,59.975 57.5925,97.736875 73.65125,108.025 C80.0675,111.454375 89.691875,104.595625 89.691875,108.025 L86.48375,80.570625 L64.00875,56.545625 Z" id="Path" stroke="#000000" stroke-width="0.3" fill="#0000C4"></path>
                <path d="M70.425,63.404375 C70.425,66.83375 67.216875,94.288125 76.859375,101.16625 C83.275625,108.025 99.334375,106.165 99.334375,106.165 L86.48375,80.570625 L70.425,63.404375 Z" id="Path" stroke="#000000" stroke-width="0.3" fill="#E10000"></path>
                <polygon id="Path" fill="#000000" points="57.4375 49.375 87.0625 80.625 87.59375 80.125 57.96875 48.90625 57.46875 49.40625"></polygon>
                <path d="M54.6522159,44.4749834 L55.7473475,46.0394572 L55.7473475,46.8216941 C55.6978501,46.7642416 55.7473475,47.6039309 54.6522159,47.6039309 C53.5570843,47.6039309 53.5632715,46.0394572 53.5632715,46.0394572 C53.5632715,46.0394572 52.4681398,47.6039309 52.4681398,49.1728241 C52.4681398,50.7417173 53.5632715,51.5195347 53.5632715,51.5195347 C53.5632715,51.5195347 53.4024047,49.8976086 54.6584031,49.955061 C55.9205887,50.008094 55.7535347,50.7372979 55.7535347,50.7372979 L55.7535347,52.3017716 L56.8548535,52.3017716 L56.8548535,46.0394572 L57.9499852,44.4749834 L56.267071,42.1238534 L54.6584031,44.470564 L54.6522159,44.4749834 Z" id="Path" stroke="#000000" stroke-width="0.25" fill="#CECECC" transform="translate(55.209063, 47.212812) rotate(-45.000000) translate(-55.209063, -47.212812) "></path>
                <polygon id="Path" stroke="#000000" stroke-width="0.25" fill="#CECECC" transform="translate(61.515313, 35.564375) rotate(-56.923093) translate(-61.515313, -35.564375) " points="61.4946757 30.3277095 59.943965 34.1342384 60.9875992 36.9945116 58.9003309 36.0428793 60.9875992 38.897776 60.9875992 40.806417 62.0371296 40.806417 62.0371296 38.8923996 64.1302941 36.0375029 62.0371296 36.9891351 63.08666 34.128862 61.5005719 30.322333"></polygon>
                <path d="M66.5,34.65625 C66.5,34.84375 66.25,35.003125 65.9625,35.003125 C65.675,35.003125 65.4125,34.84375 65.4125,34.65625 C65.4125,34.46875 65.6625,34.3 65.9625,34.3 C66.2625,34.3 66.5,34.459375 66.5,34.65625 Z M65.725,35.396875 C65.725,38.753125 68.3375,53.003125 68.55,53.35 C68.5625,53.771875 67.95,53.95 67.6625,53.434375 C66.8375,51.803125 65.0625,38.434375 65,35.3125 C64.9625,34.028125 65.4625,33.925 66.0375,33.953125 C66.5,33.971875 67.075,34.3 67.075,34.69375 C67.075,35.1625 66.35,35.509375 65.725,35.396875 Z" id="Shape" stroke="#000000" stroke-width="0.25" fill="#E10000"></path>
                <path d="M63.3314423,37.5185722 C63.3314423,37.7282036 63.0858563,37.9063903 62.8034324,37.9063903 C62.5210084,37.9063903 62.2631431,37.7282036 62.2631431,37.5185722 C62.2631431,37.3089408 62.5087291,37.1202726 62.8034324,37.1202726 C63.0981356,37.1202726 63.3314423,37.2984593 63.3314423,37.5185722 Z M62.5701256,38.3466161 C66.4381057,44.7822993 68.5501455,55.8193911 68.7588937,56.2176907 C68.771173,56.6788797 68.1694872,56.8885111 67.8870633,56.3015432 C67.5800807,55.9556515 66.3275919,45.7990114 61.8579261,38.252282 C61.8210882,36.8163071 62.3122603,36.7010099 62.8771082,36.7324546 C63.3314423,36.7534177 63.8962902,37.1202726 63.8962902,37.5604985 C63.8962902,38.0845769 63.1840907,38.472395 62.5701256,38.3466161 Z" id="Shape" stroke="#000000" stroke-width="0.25" fill="#0000C4" transform="translate(65.307529, 46.694264) rotate(24.817692) translate(-65.307529, -46.694264) "></path>
                <path d="M58.34375,47.34375 C58.34375,47.65625 58.03125,47.96875 57.65625,47.96875 C57.28125,47.96875 56.96875,47.65625 56.96875,47.34375 C56.96875,47.03125 57.28125,46.78125 57.65625,46.78125 C58.03125,46.78125 58.3125,47.03125 58.3125,47.34375 L58.34375,47.34375 Z M57.34375,48.59375 C57.34375,54.1875 60.625,77.9375 60.875,78.53125 C60.875,79.21875 60.15625,79.53125 59.78125,78.65625 C58.75,75.9375 56.53125,53.65625 56.4375,48.46875 C56.40625,46.3125 57.03125,46.15625 57.75,46.1875 C58.34375,46.21875 59.03125,46.78125 59.03125,47.4375 C59.03125,48.1875 58.125,48.78125 57.34375,48.59375 Z" id="Shape" stroke="#000000" stroke-width="0.35" fill="#E10000"></path>
                <path d="M54.4448023,49.8897736 C54.4448023,50.2147736 54.130495,50.4910236 53.7690416,50.4910236 C53.4075883,50.4910236 53.0775656,50.2147736 53.0775656,49.8897736 C53.0775656,49.5647736 53.3918729,49.2722736 53.7690416,49.2722736 C54.1462104,49.2722736 54.4448023,49.5485236 54.4448023,49.8897736 Z M53.4704497,51.1735236 C58.4207893,61.1510236 61.1238319,78.2622736 61.390993,78.8797736 C61.4067084,79.5947736 60.6366556,79.9197736 60.2752022,79.0097736 C59.8823181,78.4735236 58.279351,62.7272736 52.5589586,51.0272736 C52.5118126,48.8010236 53.1404271,48.6222736 53.8633338,48.6710236 C54.4448023,48.7035236 55.167709,49.2722736 55.167709,49.9547736 C55.167709,50.7672736 54.2562179,51.3685236 53.4704497,51.1735236 Z" id="Shape" stroke="#000000" stroke-width="0.275" fill="#0000C4" transform="translate(56.973848, 64.115220) rotate(21.947367) translate(-56.973848, -64.115220) "></path>
                <g id="Group" transform="translate(100.000000, 90.312500)">
                    <path d="M15.75,0.5625 L38.40625,24.46875 L38.8125,23.96875 L16.15625,0.0625 L15.75,0.5625 Z M0,4.46875 L29.625,35.71875 L30.125,35.21875 L0.53125,3.96875 L1.77635684e-14,4.46875 Z" id="Shape" fill="#000000" fill-rule="nonzero"></path>
                    <polygon id="Path" stroke="#000000" stroke-width="0.25" fill="#808080" transform="translate(32.689688, 37.735313) rotate(-45.000000) translate(-32.689688, -37.735313) " points="32.1421217 33.8197087 32.1421217 37.7353125 32.6896875 41.6509163 33.2372533 37.7353125 33.2372533 33.8197087"></polygon>
                    <polygon id="Path" stroke="#000000" stroke-width="0.25" fill="#808080" transform="translate(40.314687, 25.516563) rotate(-45.000000) translate(-40.314687, -25.516563) " points="39.7671217 21.6009587 39.7671217 25.5165625 40.3146875 29.4321663 40.8622533 25.5165625 40.8622533 21.6009587"></polygon>
                </g>
                <g id="Group" transform="translate(100.625000, 30.312500)">
                    <path d="M12.2546875,5.56 C12.2546875,5.56 9.765625,72.88 19.721875,72.88 C29.678125,72.88 34.6703125,65.8 34.6703125,65.8 L34.5578125,28.8 L12.2546875,5.56 Z" id="Path" stroke="#000000" stroke-width="0.275" fill="#FFDF00" transform="translate(23.324219, 39.220000) scale(-1, 1) translate(-23.324219, -39.220000) "></path>
                    <path d="M12.0839197,11.84 C12.0839197,15.38 10.9729822,65.8 15.9511072,65.8 C20.9292322,65.8 28.4104822,62.26 28.4104822,62.26 L28.2979822,28.8 L12.0839197,11.84 Z" id="Path" stroke="#000000" stroke-width="0.275" fill="#0000C4" transform="translate(20.194304, 38.820000) scale(-1, 1) translate(-20.194304, -38.820000) "></path>
                    <path d="M11.978125,15.24 C11.978125,18.78 12.6109375,58.72 17.603125,58.72 L25.0703125,58.72 L24.9578125,28.8 L11.978125,15.24 Z" id="Path" stroke="#000000" stroke-width="0.275" fill="#E10000" transform="translate(18.524219, 36.980000) scale(-1, 1) translate(-18.524219, -36.980000) "></path>
                    <polygon id="Path" fill="#000000" points="34.9375 5.9375 12.3125 29.84375 11.90625 29.34375 34.53125 5.4375"></polygon>
                    <g transform="translate(15.937500, 4.375000)" fill="#005B00" id="Path" stroke="#000000" stroke-width="0.25">
                        <path d="M4.6428921,17.7771862 C4.6428921,17.7771862 9.09081806,27.9533424 10.7008035,35.0665542 C12.3053314,42.1909855 13.6697259,52.6027529 13.6697259,52.6027529 C13.6697259,52.6027529 13.7897926,42.9539168 11.6886251,34.3148426 C8.84522706,23.3645355 4.51736781,18.2820671 4.6428921,17.7771862 Z" transform="translate(9.155605, 35.189970) rotate(-13.669873) translate(-9.155605, -35.189970) "></path>
                        <path d="M4.15782425,11.9725667 C4.15782425,11.9725667 9.40834157,23.4823629 11.3088356,31.5277994 C13.2028872,39.5859258 14.8134754,51.3622113 14.8134754,51.3622113 C14.8134754,51.3622113 14.9552071,40.4488432 12.4749014,30.6775719 C9.11843571,18.2921682 4.00965014,12.543615 4.15782425,11.9725667 Z" transform="translate(9.484819, 31.667389) rotate(-10.075477) translate(-9.484819, -31.667389) "></path>
                        <path d="M4.56057803,7.17182491 C4.56057803,7.17182491 11.4182488,18.5411669 13.9004732,26.4884247 C16.3742833,34.4482176 18.4778633,46.0807969 18.4778633,46.0807969 C18.4778633,46.0807969 18.6629784,35.3006049 15.4234652,25.6485726 C11.0396044,13.4143082 4.36704867,7.73590472 4.56057803,7.17182491 Z" transform="translate(11.518136, 26.626311) rotate(5.003811) translate(-11.518136, -26.626311) "></path>
                        <path d="M3.45802975,3.68003254 C3.45802975,3.68003254 9.87089714,16.1641594 12.1921191,24.8906605 C14.5054725,33.6309257 16.4726097,46.4041007 16.4726097,46.4041007 C16.4726097,46.4041007 16.6457178,34.5668911 13.6163264,23.9684592 C9.51681244,10.5346028 3.27705312,4.29942142 3.45802975,3.68003254 Z" transform="translate(9.964305, 25.042067) rotate(-2.618508) translate(-9.964305, -25.042067) "></path>
                        <path d="M7.17478545,11.421005 C7.17478545,11.421005 13.4805517,21.4058931 15.763007,28.3854069 C18.0377251,35.3759293 19.9720092,45.592 19.9720092,45.592 C19.9720092,45.592 20.1422262,36.1245207 17.1634287,27.6478242 C13.1323806,16.903336 6.99683131,11.9163964 7.17478545,11.421005 Z" transform="translate(13.572400, 28.506503) rotate(8.876873) translate(-13.572400, -28.506503) "></path>
                        <path d="M3.1975,7.47676401 C3.1975,7.47676401 9.0553125,18.846106 11.175625,26.7933638 C13.28875,34.7531567 15.085625,46.385736 15.085625,46.385736 C15.085625,46.385736 15.24375,35.605544 12.4765625,25.9535117 C8.731875,13.7192473 3.0321875,8.04084383 3.1975,7.47676401 Z" transform="translate(9.140636, 26.931250) rotate(-4.277185) translate(-9.140636, -26.931250) "></path>
                        <path d="M3.57198049,13.3080058 C3.57198049,13.3080058 8.96871186,24.2598489 10.92213,31.9152718 C12.8689263,39.5827694 14.5243654,50.7881833 14.5243654,50.7881833 C14.5243654,50.7881833 14.670044,40.4038558 12.1206678,31.1062602 C8.67073283,19.321256 3.41968009,13.8513718 3.57198049,13.3080058 Z" transform="translate(9.047319, 32.048095) rotate(-10.865108) translate(-9.047319, -32.048095) "></path>
                        <path d="M3.77030903,10.3719583 C3.77030903,10.3719583 8.92104496,21.7976892 10.7854218,29.7843633 C12.6434787,37.7836347 14.223459,49.4739084 14.223459,49.4739084 C14.223459,49.4739084 14.3624973,38.6402496 11.9293275,28.9403457 C8.6366485,16.6454027 3.62495084,10.9388358 3.77030903,10.3719583 Z" transform="translate(8.996069, 29.922933) rotate(-7.148842) translate(-8.996069, -29.922933) "></path>
                        <path d="M4.83375719,7.55147824 C4.83375719,7.55147824 11.615335,18.4149392 14.0700165,26.0085822 C16.5163771,33.6142026 18.5966157,44.729188 18.5966157,44.729188 C18.5966157,44.729188 18.7796767,34.4286627 15.5761093,25.2060994 C11.240892,13.516201 4.64237524,8.09045922 4.83375719,7.55147824 Z" transform="translate(11.714114, 26.140333) rotate(8.972462) translate(-11.714114, -26.140333) "></path>
                        <path d="M2.70875,0.196110465 C2.70875,0.196110465 8.82125,13.4228532 11.03375,22.6684485 C13.23875,31.9286267 15.11375,45.4616116 15.11375,45.4616116 C15.11375,45.4616116 15.27875,32.9202679 12.39125,21.6913903 C8.48375,7.45842347 2.53625,0.852343568 2.70875,0.196110465 Z"></path>
                        <path d="M7.71233733,12.312858 C7.71233733,12.312858 13.8354401,21.8196407 16.0517779,28.4649553 C18.2606027,35.1207514 20.1388551,44.8476471 20.1388551,44.8476471 C20.1388551,44.8476471 20.3041413,35.833498 17.4116327,27.7626902 C13.4973547,17.5326792 7.53953811,12.7845286 7.71233733,12.312858 Z" transform="translate(13.924628, 28.580253) rotate(14.196947) translate(-13.924628, -28.580253) "></path>
                        <path d="M1.9275,5.86344419 C1.9275,5.86344419 8.04,17.5031413 10.2525,25.6393794 C12.4575,33.7884507 14.3325,45.6976446 14.3325,45.6976446 C14.3325,45.6976446 14.4975,34.6611071 11.61,24.7795561 C7.7025,12.2543694 1.755,6.44093743 1.9275,5.86344419 Z"></path>
                    </g>
                    <path d="M10.72785,19.355 C10.72785,19.355 4.3116,84.57125 23.56035,84.57125 C39.600975,84.57125 39.600975,74.283125 42.8091,74.283125 L39.600975,50.258125 L10.709725,19.355 L10.72785,19.355 Z" id="Path" stroke="#000000" stroke-width="0.3" fill="#FFDF00" transform="translate(26.255175, 51.963125) scale(-1, 1) translate(-26.255175, -51.963125) "></path>
                    <path d="M10.9489427,26.233125 C10.9489427,29.6625 4.53269268,67.424375 20.5914427,77.7125 C27.0076927,81.141875 36.6320677,74.283125 36.6320677,77.7125 L33.4239427,50.258125 L10.9489427,26.233125 Z" id="Path" stroke="#000000" stroke-width="0.3" fill="#0000C4" transform="translate(23.157596, 52.467800) scale(-1, 1) translate(-23.157596, -52.467800) "></path>
                    <path d="M0.552766963,33.091875 C0.552766963,36.52125 -2.65535804,63.975625 6.98714196,70.85375 C13.403392,77.7125 29.462142,75.8525 29.462142,75.8525 L16.611517,50.258125 L0.552766963,33.091875 Z" id="Path" stroke="#000000" stroke-width="0.3" fill="#E10000" transform="translate(14.751383, 54.587188) scale(-1, 1) translate(-14.751383, -54.587188) "></path>
                    <polygon id="Path" fill="#000000" points="41.9375 19.0625 12.3125 50.3125 11.78125 49.8125 41.40625 18.59375 41.9375 19.09375"></polygon>
                    <path d="M43.6090909,14.1624834 L44.7042225,15.7269572 L44.7042225,16.5091941 C44.6547251,16.4517416 44.7042225,17.2914309 43.6090909,17.2914309 C42.5139593,17.2914309 42.5201465,15.7269572 42.5201465,15.7269572 C42.5201465,15.7269572 41.4250148,17.2914309 41.4250148,18.8603241 C41.4250148,20.4292173 42.5201465,21.2070347 42.5201465,21.2070347 C42.5201465,21.2070347 42.3592797,19.5851086 43.6152781,19.642561 C44.8774637,19.695594 44.7104097,20.4247979 44.7104097,20.4247979 L44.7104097,21.9892716 L45.8117285,21.9892716 L45.8117285,15.7269572 L46.9068602,14.1624834 L45.223946,11.8113534 L43.6152781,14.158064 L43.6090909,14.1624834 Z" id="Path" stroke="#000000" stroke-width="0.25" fill="#CECECC" transform="translate(44.165938, 16.900312) scale(-1, 1) rotate(-45.000000) translate(-44.165938, -16.900312) "></path>
                    <polygon id="Path" stroke="#000000" stroke-width="0.25" fill="#CECECC" transform="translate(37.859687, 5.251875) scale(-1, 1) rotate(-56.923093) translate(-37.859687, -5.251875) " points="37.8390507 0.0152094937 36.28834 3.82173842 37.3319742 6.68201158 35.2447059 5.73037934 37.3319742 8.58527604 37.3319742 10.493917 38.3815046 10.493917 38.3815046 8.57989959 40.4746691 5.72500289 38.3815046 6.67663512 39.431035 3.81636197 37.8449469 0.0098330404"></polygon>
                    <path d="M32.3580438,4.34375 C32.3580438,4.53125 32.1080438,4.690625 31.8205438,4.690625 C31.5330438,4.690625 31.2705438,4.53125 31.2705438,4.34375 C31.2705438,4.15625 31.5205438,3.9875 31.8205438,3.9875 C32.1205438,3.9875 32.3580438,4.146875 32.3580438,4.34375 Z M31.5830438,5.084375 C31.5830438,8.440625 34.1955438,22.690625 34.4080438,23.0375 C34.4205438,23.459375 33.8080438,23.6375 33.5205438,23.121875 C32.6955438,21.490625 30.9205438,8.121875 30.8580438,5 C30.8205438,3.715625 31.3205438,3.6125 31.8955438,3.640625 C32.3580438,3.659375 32.9330438,3.9875 32.9330438,4.38125 C32.9330438,4.85 32.2080438,5.196875 31.5830438,5.084375 Z" id="Shape" stroke="#000000" stroke-width="0.25" fill="#E10000" fill-rule="nonzero" transform="translate(32.632147, 13.537463) scale(-1, 1) translate(-32.632147, -13.537463) "></path>
                    <path d="M32.0913847,7.20607221 C32.0913847,7.41570359 31.8457987,7.59389025 31.5633747,7.59389025 C31.2809508,7.59389025 31.0230855,7.41570359 31.0230855,7.20607221 C31.0230855,6.99644084 31.2686715,6.80777261 31.5633747,6.80777261 C31.858078,6.80777261 32.0913847,6.98595927 32.0913847,7.20607221 Z M31.330068,8.03411614 C35.198048,14.4697993 37.3100879,25.5068911 37.518836,25.9051907 C37.5311153,26.3663797 36.9294296,26.5760111 36.6470056,25.9890432 C36.3400231,25.6431515 35.0875343,15.4865114 30.6178685,7.93978202 C30.5810306,6.50380711 31.0722027,6.38850986 31.6370505,6.41995457 C32.0913847,6.4409177 32.6562326,6.80777261 32.6562326,7.24799849 C32.6562326,7.77207692 31.9440331,8.15989496 31.330068,8.03411614 Z" id="Shape" stroke="#000000" stroke-width="0.25" fill="#0000C4" fill-rule="nonzero" transform="translate(34.067471, 16.381764) scale(-1, 1) rotate(24.817692) translate(-34.067471, -16.381764) "></path>
                    <path d="M41.0625,17.03125 C41.0625,17.34375 41.375,17.65625 41.71875,17.65625 C42.09375,17.65625 42.40625,17.34375 42.40625,17.03125 C42.40625,16.71875 42.09375,16.46875 41.71875,16.46875 C41.34375,16.46875 41.0625,16.71875 41.0625,17.03125 Z M42,18.28125 C41.2517865,28.3049023 40.0840966,38.292821 38.5,48.21875 C38.5,48.90625 39.21875,49.21875 39.59375,48.34375 C40.625,45.625 42.84375,23.34375 42.9375,18.15625 C42.96875,16 42.34375,15.84375 41.625,15.875 C41.03125,15.90625 40.34375,16.46875 40.34375,17.125 C40.34375,17.875 41.25,18.46875 42.03125,18.28125 L42,18.28125 Z" id="Shape" stroke="#000000" stroke-width="0.35" fill="#E10000" fill-rule="nonzero"></path>
                    <path d="M39.8721059,19.5772736 C39.8721059,19.9022736 39.5577986,20.1785236 39.1963452,20.1785236 C38.8348919,20.1785236 38.5048692,19.9022736 38.5048692,19.5772736 C38.5048692,19.2522736 38.8191765,18.9597736 39.1963452,18.9597736 C39.573514,18.9597736 39.8721059,19.2360236 39.8721059,19.5772736 Z M38.8977533,20.8610236 C43.8480929,30.8385236 46.5511354,47.9497736 46.8182966,48.5672736 C46.834012,49.2822736 46.0639592,49.6072736 45.7025058,48.6972736 C45.3096217,48.1610236 43.7066546,32.4147736 37.9862622,20.7147736 C37.9391161,18.4885236 38.5677307,18.3097736 39.2906374,18.3585236 C39.8721059,18.3910236 40.5950126,18.9597736 40.5950126,19.6422736 C40.5950126,20.4547736 39.6835215,21.0560236 38.8977533,20.8610236 Z" id="Shape" stroke="#000000" stroke-width="0.255" fill="#0000C4" fill-rule="nonzero" transform="translate(42.401152, 33.802720) scale(-1, 1) rotate(21.947367) translate(-42.401152, -33.802720) "></path>
                </g>
                <g id="Group" transform="translate(83.437500, 103.437500)" stroke="#000000">
                    <path d="M6.2725,28.6125 C9.25228184,30.4423409 12.9170932,30.4423409 15.896875,28.6125 L15.896875,1.158125 L9.480625,1.158125 C12.68875,11.44625 12.68875,21.75375 6.254375,28.6125 L6.2725,28.6125 Z" id="Path" stroke-width="0.3" fill="#E10000"></path>
                    <path d="M11.353125,1.765625 C11.353125,21.125 6.7046875,25.434375 6.7046875,29.328125 C8.640625,29.328125 9.93125,27.5125 11.353125,25.01875 C13.2890625,21.125 13.475,1.459375 13.2890625,1.765625 L11.353125,1.765625 Z" id="Path" stroke-width="0.275" fill="#0000C4"></path>
                    <path d="M7.48125,1.765625 C7.3828125,13.075 2.58125,23.553125 3.4890625,25.871875 C4.5171875,27.95 7.48125,21.125 11.353125,24.996875 C13.2890625,21.125 13.475,1.459375 13.2890625,1.74375 L7.48125,1.74375 L7.48125,1.765625 Z" id="Path" stroke-width="0.275" fill="#0000C4"></path>
                    <path d="M7.915625,0.115625 C7.915625,12.8375 3.4640625,13.685625 3.4640625,17.078125 C5.4,17.078125 7.9046875,15.22375 7.915625,15.39625 C9.8515625,12.8375 10.0375,-0.085625 9.8515625,0.115625 L7.915625,0.115625 Z" id="Path" stroke-width="0.25" fill="#FFDF00"></path>
                    <path d="M4.04375,0.115625 C3.9453125,7.5475 -0.746875,13.8725 0.1609375,15.39625 C1.2,16.7475 4.04375,12.8375 7.915625,15.39625 C9.8515625,12.8375 10.0375,-0.085625 9.8515625,0.115625 L4.04375,0.115625 Z" id="Path" stroke-width="0.25" fill="#FFDF00"></path>
                    <path d="M17.24625,28.6125 C20.2260318,30.4423409 23.8908432,30.4423409 26.870625,28.6125 L26.870625,1.158125 L20.454375,1.158125 C23.6625,11.44625 23.6625,21.75375 17.228125,28.6125 L17.24625,28.6125 Z" id="Path" stroke-width="0.3" fill="#E10000" transform="translate(22.049375, 15.571503) scale(-1, 1) translate(-22.049375, -15.571503) "></path>
                    <path d="M24.4280861,1.765625 C24.4280861,21.125 19.7796486,25.434375 19.7796486,29.328125 C21.7155861,29.328125 23.0062111,27.5125 24.4280861,25.01875 C26.3640236,21.125 26.5499611,1.459375 26.3640236,1.765625 L24.4280861,1.765625 Z" id="Path" stroke-width="0.275" fill="#0000C4" transform="translate(23.099981, 15.545106) scale(-1, 1) translate(-23.099981, -15.545106) "></path>
                    <path d="M23.8859962,1.765625 C23.7875587,13.075 18.9859962,23.553125 19.8938087,25.871875 C20.9219337,27.95 23.8859962,21.125 27.7578712,24.996875 C29.6938087,21.125 29.8797462,1.459375 29.6938087,1.74375 L23.8859962,1.74375 L23.8859962,1.765625 Z" id="Path" stroke-width="0.275" fill="#0000C4" transform="translate(24.764873, 14.007888) scale(-1, 1) translate(-24.764873, -14.007888) "></path>
                    <path d="M27.6687111,0.115625 C27.6687111,12.8375 23.2171486,13.685625 23.2171486,17.078125 C25.1530861,17.078125 27.6577736,15.22375 27.6687111,15.39625 C29.6046486,12.8375 29.7905861,-0.085625 29.6046486,0.115625 L27.6687111,0.115625 Z" id="Path" stroke-width="0.25" fill="#FFDF00" transform="translate(26.439043, 8.595712) scale(-1, 1) translate(-26.439043, -8.595712) "></path>
                    <path d="M27.2164713,0.115625 C27.1180338,7.5475 22.4258463,13.8725 23.3336588,15.39625 C24.3727213,16.7475 27.2164713,12.8375 31.0883463,15.39625 C33.0242838,12.8375 33.2102213,-0.085625 33.0242838,0.115625 L27.2164713,0.115625 Z" id="Path" stroke-width="0.25" fill="#FFDF00" transform="translate(28.148861, 7.901179) scale(-1, 1) translate(-28.148861, -7.901179) "></path>
                </g>
                <g id="Group" transform="translate(71.875000, 100.625000)" stroke="#000000">
                    <path d="M3.635,6.1125 L0.27125,8.54625 L3.635,10.98 L5.315,9.763125 L6.155,10.98 L6.995,13.41375 L7.83875,10.98 L8.67875,9.763125 L53.75,9.763125 L53.75,7.329375 L8.675,7.329375 L7.835,6.105625 C7.835,4.88875 8.01125,3.671875 8.67875,3.671875 L12.03875,3.671875 C12.03875,2.455 10.35875,0.02125 6.995,0.02125 C3.635,0.02125 1.95125,2.455 1.95125,3.671875 L5.315,3.671875 C5.97875,3.671875 6.155,4.88875 6.155,6.1125 L5.315,7.329375 L3.63125,6.105625 L3.635,6.1125 Z" id="Path" stroke-width="0.4" fill="#908F8A"></path>
                    <path d="M13.50125,12.0121875 L42.9625,12.0121875 L42.9625,13.505625 L13.51,13.505625 L13.50125,12.0121875 Z M13.50125,10.5103125 L42.9625,10.5103125 L42.9625,12.0121875 L13.51,12.0121875 L13.50125,10.5103125 Z M13.50125,9.016875 L42.9625,9.016875 L42.9625,10.51875 L13.51,10.51875 L13.50125,9.016875 Z M13.50125,7.5234375 L42.9625,7.5234375 L42.9625,9.016875 L13.51,9.016875 L13.50125,7.5234375 Z M13.50125,6.03 L42.9625,6.03 L42.9625,7.5234375 L13.51,7.5234375 L13.50125,6.03 Z M13.50125,4.528125 L42.9625,4.528125 L42.9625,6.03 L13.51,6.03 L13.50125,4.528125 Z M13.50125,3.043125 L42.9625,3.043125 L42.9625,4.528125 L13.51,4.528125 L13.50125,3.043125 Z" id="Shape" stroke-width="0.25" fill="#B74D00" fill-rule="nonzero"></path>
                    <polygon id="Path" stroke-width="0.43" fill="#908F8A" points="14.90625 2.954375 25.671875 13.416875 27.2109375 13.416875 16.453125 2.9628125 14.9140625 2.9628125"></polygon>
                    <polygon id="Path" stroke-width="0.43" fill="#908F8A" transform="translate(21.058594, 8.501875) scale(-1, 1) rotate(-180.000000) translate(-21.058594, -8.501875) " points="14.90625 3.270625 25.671875 13.733125 27.2109375 13.733125 16.453125 3.2790625 14.9140625 3.2790625"></polygon>
                    <polygon id="Path" stroke-width="0.425" fill="#908F8A" points="15.205 2.954375 15.205 13.416875 16.75375 13.416875 16.75375 2.954375"></polygon>
                    <polygon id="Path" stroke-width="0.43" fill="#908F8A" points="28.75 2.954375 39.515625 13.416875 41.0546875 13.416875 30.296875 2.9628125 28.7578125 2.9628125"></polygon>
                    <polygon id="Path" stroke-width="0.43" fill="#908F8A" transform="translate(34.902344, 8.501875) scale(-1, 1) rotate(-180.000000) translate(-34.902344, -8.501875) " points="28.75 3.270625 39.515625 13.733125 41.0546875 13.733125 30.296875 3.2790625 28.7578125 3.2790625"></polygon>
                    <polygon id="Path" stroke-width="0.425" fill="#908F8A" points="39.83 2.954375 39.83 13.416875 41.37875 13.416875 41.37875 2.954375"></polygon>
                    <polygon id="Path" stroke-width="0.425" fill="#908F8A" points="29.08 2.954375 29.08 13.416875 30.62875 13.416875 30.62875 2.954375"></polygon>
                    <polygon id="Path" stroke-width="0.425" fill="#908F8A" points="25.955 2.954375 25.955 13.416875 27.50375 13.416875 27.50375 2.954375"></polygon>
                </g>
                <g id="Group" transform="translate(76.562500, 42.500000)" fill="#FFDF00" stroke="#000000" stroke-width="0.3">
                    <path d="M45.246875,31.211875 C45.246875,48.261875 35.169375,62.095625 22.771875,62.095625 C10.374375,62.095625 0.296875,48.261875 0.296875,31.211875 C0.296875,14.161875 10.35625,0.30875 22.771875,0.30875 C35.1875,0.30875 45.246875,14.1425 45.246875,31.1925 L45.246875,31.211875 Z M42.03875,31.211875 C42.03875,46.363125 33.41125,58.66625 22.771875,58.66625 C12.1325,58.66625 3.505,46.363125 3.505,31.211875 C3.505,16.04125 12.1325,3.738125 22.771875,3.738125 C33.41125,3.738125 42.03875,16.04125 42.03875,31.211875 Z" id="Shape"></path>
                    <path d="M31.52625,2.75 C28.825625,1.180625 25.87125,0.30875 22.771875,0.30875 C19.6725,0.30875 16.718125,1.180625 14.0175,2.730625 L15.28625,5.908125 C19.9249783,3.04985983 25.6368967,3.04985983 30.275625,5.908125 L31.52625,2.730625 L31.52625,2.75 Z" id="Path"></path>
                    <path d="M31.58875,58.126875 C28.888125,56.5575 25.93375,55.685625 22.834375,55.685625 C19.735,55.685625 16.780625,56.5575 14.08,58.1075 L15.34875,61.285 C19.9874783,58.4267348 25.6993967,58.4267348 30.338125,61.285 L31.58875,58.1075 L31.58875,58.126875 Z" id="Path" transform="translate(22.834375, 58.485313) scale(-1, 1) rotate(-180.000000) translate(-22.834375, -58.485313) "></path>
                </g>
                <path d="M118.625,73.71875 C118.625,88.875 109.96875,101.15625 99.34375,101.15625 C88.71875,101.15625 80.09375,88.875 80.09375,73.71875 C80.09375,58.5625 88.71875,46.21875 99.34375,46.21875 C109.96875,46.21875 118.625,58.53125 118.625,73.71875 Z" id="Path" fill="#A7CFFF"></path>
                <path d="M118.60125,73.711875 C118.800625,78.865625 117.7675,81.384375 116.444375,86.75125 C116.1,87.3325 114.450625,85.491875 113.471875,84.58125 C112.493125,83.670625 112.058125,85.395 110.825625,84 C109.61125,82.56625 108.831875,84.3875 107.925625,83.18625 C107.019375,81.985 98.6275,81.83 98.6275,81.71375 C99.46125,81.2875 103.73875,81.7525 103.05,79.563125 C102.270625,77.276875 97.43125,79.485625 96.77875,76.579375 C96.325625,73.673125 87.06375,73.556875 86.393125,72.859375 C86.665,73.944375 93.606875,74.409375 93.44375,77.21875 C93.280625,78.38125 86.610625,78.710625 85.958125,79.679375 C85.414375,80.9 91.214375,79.35 91.41375,80.841875 C91.41375,81.461875 90.561875,80.841875 87.553125,81.810625 C86.030625,82.295 90.344375,83.80625 88.713125,84.639375 C87.081875,85.4725 83.58375,85.840625 83.72875,86.189375 C84.2725,87.933125 91.830625,89.986875 91.0875,90.2775 C88.405,91.55625 86.99125,92.389375 85.704375,93.125625 C81.9336981,87.4641589 79.958263,80.6606372 80.0675,73.711875 C85.813125,71.503125 84.59875,71.038125 95.22,71.038125 C105.84125,71.038125 109.3575,71.48375 118.60125,73.711875 Z" id="Path" stroke="#000000" stroke-width="0.3" fill="#AFFF7B"></path>
                <path d="M118.60125,73.711875 C117.15125,73.711875 115.62875,74.370625 114.07,74.370625 C112.493125,74.370625 110.898125,73.6925 109.266875,73.6925 C107.635625,73.6925 105.76875,74.58375 104.10125,74.58375 C102.415625,74.58375 100.9475,73.711875 99.261875,73.711875 C97.57625,73.711875 95.890625,74.370625 94.223125,74.370625 C92.555625,74.370625 90.90625,73.6925 89.293125,73.6925 C87.68,73.6925 86.085,74.370625 84.544375,74.370625 C83.00375,74.370625 81.499375,73.6925 80.0675,73.6925 C80.0675,69.914375 80.61125,66.310625 81.59,63.016875 C86.48375,63.404375 83.58375,59.975 86.48375,59.975 C88.1962564,59.875885 89.866176,60.5673415 91.069375,61.87375 C91.504375,61.87375 93.679375,59.665 96.12625,59.975 C98.555,60.285 97.666875,65.264375 100.91125,65.51625 C102.5425,66.83375 103.503125,67.666875 105.750625,68.209375 C108.95875,68.519375 118.148125,67.725 118.2025,68.170625 C118.467095,70.0041752 118.600399,71.8566377 118.60125,73.711875 Z" id="Path" stroke="#000000" stroke-width="0.3" fill="#FFFFFF"></path>
                <path d="M102.24375,89.69375 C102.24375,88.83875 103.0875,88.26875 103.0875,86.90375 C103.0875,85.53875 102.3375,85.50875 102.3125,84.23375 C102.3,83.70875 102.95625,83.18375 103.24375,83.12375 C103.53125,83.06375 103.775,84.23375 103.775,84.48875 C103.775,84.74375 103.48125,83.85875 103.2375,83.84375 C102.99375,83.82875 102.46875,83.93375 102.46875,84.18875 C102.46875,84.69875 103.39375,85.32875 103.325,87.03875 C103.25625,88.71875 102.53125,89.22875 102.53125,89.73875 C102.53125,90.24875 102.84375,91.65875 102.84375,91.65875 C102.84375,91.65875 102.2375,90.53375 102.2375,89.67875 L102.24375,89.69375 Z" id="Path" stroke="#000000" stroke-width="0.25" fill="#000000"></path>
                <path d="M103.23125,89.56875 C103.23125,88.71375 104.075,88.14375 104.075,86.77875 C104.075,85.41375 103.325,85.38375 103.3,84.10875 C103.2375,83.50875 104.0375,83.11875 104.325,83.07375 C104.6125,83.02875 104.95,84.27375 104.95,84.51375 C104.95,84.75375 104.6125,83.73375 104.36875,83.71875 C104.125,83.70375 103.45625,83.80875 103.45625,84.06375 C103.45625,84.57375 104.38125,85.20375 104.3125,86.91375 C104.24375,88.59375 103.51875,89.10375 103.51875,89.61375 C103.51875,90.12375 103.83125,91.53375 103.83125,91.53375 C103.83125,91.53375 103.225,90.40875 103.225,89.55375 L103.23125,89.56875 Z" id="Path" stroke="#000000" stroke-width="0.25" fill="#000000" transform="translate(104.087500, 87.303155) scale(-1, 1) translate(-104.087500, -87.303155) "></path>
                <path d="M104.0625,82.78125 C104.0625,83.1875 103.84375,83.53125 103.59375,83.53125 C103.34375,83.53125 103.15625,83.1875 103.15625,82.75 C103.15625,82.3125 103.34375,82 103.59375,82 C103.84375,82 104.0625,82.34375 104.0625,82.78125 Z M109.375,85.59375 L109.5,85.59375 L109.5,91.6875 L109.34375,91.6875 L109.375,85.59375 Z M110.65625,85.09375 L110.8125,85.09375 L110.8125,91.25 L110.65625,91.25 L110.65625,85.09375 Z" id="Shape" fill="#000000" fill-rule="nonzero"></path>
                <polygon id="Path" fill="#000000" points="110.1875 87.875 110.1875 87.71875 111.4375 87.9375 111.4375 88.09375"></polygon>
                <path d="M92.323125,89.64375 C92.323125,89.64375 97.035625,91.8525 98.06875,93.17 C99.08375,94.4875 98.685,94.4875 98.685,94.4875 L109.143125,94.933125 C109.143125,94.274375 110.991875,94.274375 111.40875,92.724375 C111.825625,91.19375 111.825625,90.748125 111.825625,90.748125 L108.545,91.8525 L108.72625,89.87625 L105.8625,89.87625 L105.445625,91.8525 L99.283125,91.639375 L99.7,86.35 L98.4675,86.563125 L98.28625,91.600625 C98.06875,91.600625 92.5225,90.07 92.305,89.64375 L92.323125,89.64375 Z" id="Path" stroke="#000000" stroke-width="0.3" fill="#B74D00"></path>
                <path d="M82.840625,58.095625 C82.840625,58.095625 89.67375,55.925625 99.53375,56.080625 C109.39375,56.235625 116.226875,58.560625 116.081875,58.560625 C115.936875,58.560625 114.196875,54.995625 114.196875,54.995625 C114.196875,54.995625 107.236875,52.96125 99.38875,52.80625 C91.55875,52.65125 84.725625,54.35625 84.88875,54.51125 L82.840625,58.095625 Z" id="Path" stroke="#FEDE00" stroke-width="0.3" fill="#FEDE00"></path>
                <path d="M95.625,53.0625 L99.875,53 L99.9375,55.46875 L95.6875,55.5625 L95.625,53.0625 Z M85.875,54.40625 L84.375,56.875 L89.4375,56.25 L89.03125,53.84375 L85.875,54.46875 L85.875,54.40625 Z M90.15625,53.46875 L94.40625,53.125 L94.59375,55.5625 L90.375,55.9375 L90.15625,53.46875 Z M105.4375,53.25 L101.21875,52.9375 L101.0625,55.4375 L105.28125,55.6875 L105.4375,53.25 Z M114.5625,54.8125 L116.09375,57.8125 L111.53125,56.6875 L112.03125,54.28125 L114.53125,54.78125 L114.5625,54.8125 Z M110.875,53.875 L106.6875,53.34375 L106.375,55.78125 L110.59375,56.34375 L110.875,53.875 Z" id="Shape" fill="#38A9F9"></path>
                <polygon id="Path" stroke="#000000" stroke-width="0.3" fill="#FFDF00" points="99.53375 59.490625 99.080625 56.875 97.703125 59.103125 98.210625 56.4875 96.1625 57.979375 97.54 55.79 95.11125 56.3325 97.195625 54.86 94.74875 54.375625 97.195625 53.871875 95.11125 52.399375 97.54 52.941875 96.144375 50.7525 98.210625 52.244375 97.703125 49.62875 99.080625 51.856875 99.53375 49.24125 100.005 51.856875 101.364375 49.62875 100.875 52.244375 102.923125 50.7525 101.5275 52.941875 103.974375 52.399375 101.89 53.871875 104.336875 54.375625 101.89 54.86 103.974375 56.3325 101.5275 55.79 102.923125 57.979375 100.875 56.4875 101.3825 59.103125 100.005 56.875"></polygon>
                <path d="M103.153125,52.734375 C103.153125,54.1875 101.9775,55.359375 100.516875,55.359375 C99.05625,55.359375 97.880625,54.1875 97.880625,52.734375 C97.880625,51.28125 99.05625,50.09375 100.516875,50.09375 C101.9775,50.09375 103.153125,51.28125 103.153125,52.75 L103.153125,52.734375 Z" id="Path" stroke="#000000" stroke-width="0.27" fill="#FFDF00"></path>
                <path d="M100.21875,53.5 C100.21875,53.75 99.8125,54 99.34375,54 C98.875,54 98.46875,53.75 98.46875,53.5 C98.46875,53.25 98.84375,53 99.34375,53 C99.84375,53 100.21875,53.2 100.21875,53.5 Z M102.09375,53.5 C102.09375,53.75 101.8125,54 101.46875,54 C101.125,54 100.78125,53.75 100.78125,53.5 C100.78125,53.2 101.09375,53 101.4375,53 C101.78125,53 102.09375,53.2 102.09375,53.5 Z" id="Shape" fill="#000000" fill-rule="nonzero"></path>
                <path d="M100.196331,54.1796591 L100.343385,54.3355637 C99.9941312,53.9458022 100.159567,54.1017068 100.637494,54.9591822 C101.078658,54.8617418 101.20733,54.6863491 101.519821,54.4914683" id="Path" stroke="#000000" stroke-width="0.305" transform="translate(100.838324, 54.546277) rotate(-15.978464) translate(-100.838324, -54.546277) "></path>
                <path d="M98.3825,55.770625 L98.5275,55.925625 C98.183125,55.538125 98.34625,55.731875 99.1075,56.235625 C99.8325,56.3325 100.575625,56.003125 101.010625,55.460625" id="Path" stroke="#000000" stroke-width="0.3"></path>
                <path d="M87.9375,60.875 C87.9375,60.875 88.25,63.375 86.34375,66.5 C84.46875,69.59375 84.75,68.5 84.75,68.5 C84.75,68.5 85.625,70.21875 85.46875,70.21875 C85.3125,70.21875 84,68.65625 84,68.65625 L82.4375,70.375 C82.4375,70.375 83.875,67.71875 83.71875,67.71875 C83.5625,67.71875 83.28125,66.78125 83.28125,66.78125 L84.4375,66.3125 C84.4375,66.3125 86.1875,63.0625 86.1875,63.21875 C86.1875,63.375 80.96875,66.78125 80.96875,66.78125 L87.9375,60.90625 L87.9375,60.875 Z M89.09375,61.8125 C88.9375,61.8125 89.8125,64.3125 90.5625,65.5625 C91.28125,66.8125 91.28125,68.34375 91.28125,68.34375 L93.75,69.59375 L90.5625,64.78125 L92.59375,65.53125 L89.09375,61.8125 Z M89.09375,68.34375 C89.09375,68.34375 90.84375,70.21875 90.96875,70.84375 C91.09375,71.46875 91.125,72.84375 91.125,72.84375 L90.40625,71.28125 L89.375,72.6875 C89.375,72.6875 90.125,70.5 89.96875,70.34375 C89.8125,70.1875 88.8125,71.125 88.8125,71.125 C88.8125,71.125 89.25,69.875 89.25,69.75 C89.25,69.625 89.25,68.8125 89.09375,68.34375 Z M80.375,72.6875 C80.96875,72.21875 82.125,71.90625 82.125,71.90625 C82.125,71.90625 81.40625,73.15625 81.25,73.15625 C81.09375,73.15625 80.6875,73.15625 80.375,72.6875 Z M100.40625,65.875 C100.40625,65.875 104.1875,68.1875 104.1875,68.34375 C104.1875,68.5 101.71875,67.25 101.71875,67.25 L100.40625,65.875 Z M93.59375,61.03125 C93.90625,61.1875 99.125,65.53125 98.96875,65.53125 C98.8125,65.53125 96.65625,64.28125 96.65625,64.46875 L96.65625,65.53125 L95.46875,63.0625 L95.1875,64 L93.625,61.03125 L93.59375,61.03125 Z M94.90625,68.03125 L96.34375,70.96875 L97.8125,70.65625 C97.8125,70.65625 95.0625,68.03125 94.90625,68.03125 Z M99.40625,66.15625 L99.5625,68.96875 C99.5625,68.96875 100.40625,69.75 100.40625,69.59375 C100.40625,69.4375 99.5625,66.3125 99.40625,66.15625 Z" id="Shape" fill="#B7E1FF"></path>
                <path d="M57.0625,27.96875 C57.0625,27.96875 63.625,24.34375 71.09375,21.65625 C76.5887645,19.6372443 82.2587491,18.1308277 88.03125,17.15625 C90.21875,17.15625 94.03125,22.71875 94.65625,22.71875 C95.28125,22.71875 97.8125,21.15625 101,21.15625 C104.1875,21.15625 106.03125,23.65625 106.6875,23.65625 L112.375,23.65625 C113,23.65625 110.46875,17.46875 112.375,17.78125 C113.3125,17.9375 121.375,19.1875 128.875,21.59375 C136.375,24.03125 147,28.34375 147,28.34375 C147,28.34375 129.65625,30.625 125,29.96875 C124.375,30.28125 125,34.03125 124.0625,32.375 C122.625,32.0625 117.28125,31.21875 116.34375,31.21875 C115.40625,31.21875 113.625,32.28125 111.09375,32.90625 C108.59375,33.53125 105.40625,34.46875 105.40625,34.46875 L109.53125,40.9375 L104.46875,43.4375 C104.46875,43.4375 101.3125,36 100.03125,36 C98.75,36 98.15625,41.25 96.5625,40.9375 C95,40.625 94.375,36 93.09375,34.75 C91.84375,33.53125 85.15625,33.0625 82.625,32.46875 C80.125,31.84375 76.03125,31.375 73.8125,30.75 C71.625,30.125 69.375,32.3125 68.4375,32.3125 C67.5,32.3125 69.6875,30.4375 68.75,30.125 C67.8125,29.8125 67.1875,31.0625 66.5625,31.0625 C65.9375,31.0625 59.28125,29.8125 58.65625,29.5 C58.03125,29.1875 60.21875,27.96875 59.59375,27.96875 L57.0625,27.96875 Z" id="Path" fill="#984000"></path>
                <path d="M104.20625,24.875 C104.20625,26.5975 102.79,27.995 101.050625,27.995 C99.31125,27.995 97.901875,26.5975 97.901875,24.875 C97.901875,23.1525 99.31125,21.763125 101.050625,21.763125 C102.79,21.763125 104.20625,23.160625 104.20625,24.875 Z" id="Path" stroke="#772600" stroke-width="0.445" fill="#808080"></path>
                <path d="M88.2090625,25.46875 C88.774375,24.80875 89.4746875,23.80875 91.305625,23.80875 C91.7275,23.63875 91.7275,22.63875 92.70625,22.63875 C93.6934375,22.63875 93.4065625,23.63875 94.1153125,23.97875 C94.815625,24.30875 100.578438,23.63875 100.578438,23.63875 C100.578438,23.63875 101.135313,24.13875 101.135313,24.80875 C101.135313,25.47875 100.713438,25.96875 100.578438,25.96875 C100.443438,25.96875 94.815625,25.46875 94.39375,25.63875 C93.971875,25.80875 93.6934375,25.96875 92.70625,25.96875 C91.7275,25.96875 91.440625,24.80875 90.7403125,24.80875 C90.04,24.80875 89.3396875,24.63875 88.2090625,25.47875 L88.2090625,25.46875 Z" id="Path" stroke="#772600" stroke-width="0.785" fill="#984000"></path>
                <path d="M105.354063,25.12125 L107.598438,25.12125 C108.408438,25.13125 108.686875,25.42125 109.429375,25.45125 L111.395313,25.45125 C112.1125,25.42125 112.492188,25.22125 113.217813,25.12125 C114.44125,25.10125 114.027813,24.99125 113.783125,24.12125 C113.56375,23.47125 113.53,23.16125 113.217813,22.79125 C113.099688,21.99125 112.829688,21.71125 112.795938,20.79125 C112.669375,20.09125 112.433125,19.62125 112.660938,18.79125 C112.981563,19.36125 113.108125,19.59125 113.926563,19.63125 C114.770313,19.63125 115.099375,19.60125 115.614063,19.96125 C116.002188,20.45125 116.525313,20.29125 117.301563,20.29125 C117.942813,20.43125 118.0525,20.82125 118.55875,21.12125 C119.157813,21.52125 119.545938,21.62125 120.38125,21.62125 C121.05625,21.77125 121.646875,21.88125 122.06875,22.12125 C122.431563,22.63125 122.996875,22.76125 123.75625,22.79125 C124.178125,22.79125 124.515625,22.74125 124.878438,22.62125 C125.528125,22.66125 126.18625,22.62125 126.987813,22.62125 C127.510938,23.34125 127.629063,23.61125 128.531875,23.62125 C129.15625,24.14125 129.679375,24.22125 130.219375,24.45125 L132.32875,24.45125 C133.088125,24.52125 133.324375,24.89125 134.01625,25.12125 C134.609791,25.4391864 135.2183,25.7163126 135.83875,25.95125 C136.442675,26.0808489 137.056102,26.1378048 137.669688,26.12125 C138.184375,26.44125 138.817188,26.46125 139.21375,26.78125 C139.795938,26.93125 140.589063,27.11125 141.03625,27.28125 C141.77875,27.40125 142.065625,27.68125 142.72375,27.78125 C143.289063,27.98125 142.538125,28.14125 142.158438,28.28125 C141.331563,28.25125 141.2725,27.88125 140.470938,27.78125 C140.049063,27.49125 139.407813,27.53125 138.783438,27.28125 L138.648438,27.28125 C139.205313,27.68125 139.745313,27.93125 139.492188,28.62125 C138.775,28.62125 138.192813,28.51125 137.52625,28.45125 C136.8175,28.29125 136.496875,28.12125 135.70375,28.12125 C136.496875,27.89125 136.699375,28.14125 137.247813,28.45125 C137.450313,29.25125 137.011563,28.95125 136.260625,28.95125 C135.619375,28.68125 135.23125,28.35125 134.438125,28.28125 L132.750625,28.28125 C133.585938,28.32125 133.763125,28.69125 134.294688,29.12125 C134.336875,29.38125 134.28625,29.36125 133.872813,29.45125 C133.434063,29.00125 132.86875,28.85125 132.185313,28.62125 C131.51875,28.59125 130.818438,28.52125 130.219375,28.28125 C129.805938,28.25125 129.873438,27.67125 130.784688,28.62125 C131.333125,29.00125 131.527188,29.32125 131.485,29.62125 C130.759375,29.40125 130.405,29.06125 129.940938,28.78125 C129.309757,28.5218055 128.642145,28.4097409 127.975,28.45125 C127.249375,28.22125 128.050938,28.09125 128.531875,28.95125 C129.578125,29.83125 128.396875,29.45125 127.975,29.28125 C127.342188,29.07125 126.684063,28.76125 126.144063,28.62125 C125.722188,28.47125 125.350938,28.33125 124.878438,28.28125 C125.6125,28.36125 125.857188,28.67125 126.144063,29.28125 C126.886563,29.88125 126.110313,29.59125 125.44375,29.45125 C125.021875,29.01125 124.473438,28.78125 124.178125,28.28125 C123.477813,27.87125 123.4525,27.38125 123.899688,28.45125 C124.009375,28.79125 123.984063,29.53125 124.034688,29.62125 C123.52,28.95125 123.629688,28.78125 123.055938,28.78125 C122.659375,28.46125 122.085625,28.21125 121.790313,27.78125 C121.250313,27.72125 121.216563,27.49125 120.668125,27.28125 C121.115313,27.91125 121.714375,28.53125 122.06875,29.12125 C122.71,29.54125 122.887188,29.92125 123.334375,30.28125 C123.511563,30.65125 124.009375,30.95125 123.477813,30.45125 C122.870313,29.75125 122.423125,29.58125 121.511875,29.12125 C120.98875,28.62125 120.803125,28.42125 120.24625,27.95125 C119.486875,27.66125 119.782188,27.50125 120.24625,28.45125 C120.777813,29.03125 121.182813,29.67125 121.646875,30.12125 C122.010812,30.6364627 122.437349,31.0846947 122.9125,31.45125 C123.039063,31.67125 123.41875,31.71125 122.9125,31.78125 C122.490625,31.32125 121.86625,31.03125 121.368438,30.61125 C120.668125,30.38125 120.339063,29.95125 119.824375,29.45125 C119.486875,28.86125 118.946875,28.41125 118.55875,27.95125 C117.74875,27.57125 118.719063,28.31125 118.980625,28.78125 C119.157813,29.39125 119.385625,29.88125 119.5375,30.45125 C119.77375,31.00125 118.82875,30.32125 118.55875,30.12125 C118.003665,29.6950151 117.380367,29.4090575 116.727813,29.28125 C116.168633,29.1486014 115.605807,29.0385378 115.040313,28.95125 C114.4075,28.75125 115.38625,29.43125 115.749063,30.12125 C116.457813,30.91125 115.04875,30.26125 114.626875,30.12125 C113.930329,29.9809898 113.223655,29.924037 112.5175,29.95125 C111.614688,30.01125 112.264375,30.15125 112.5175,30.61125 C112.795938,30.87125 112.99,31.41125 112.939375,31.61125 C112.34875,31.51125 111.8425,31.31125 111.108438,31.28125 C110.517813,31.51125 109.8175,31.45125 109.1425,31.45125 C109.117188,31.87125 109.269063,31.51125 109.564375,31.95125 C110.05375,32.18125 110.374375,32.46125 110.273125,32.78125 L106.197813,32.78125 C105.750625,32.92125 106.290625,32.85125 106.619688,33.45125 C106.434063,33.99125 106.197813,33.78125 105.6325,33.78125 C105.252813,33.60125 104.485,33.52125 104.088438,33.28125 C103.691875,33.28125 103.725625,33.16125 103.388125,33.11125 C104.569375,34.11125 103.97875,33.86125 104.65375,34.61125 C104.763438,34.66125 105.033438,34.78125 104.78875,34.78125 M95.5159375,40.11125 C95.4315625,40.11125 95.2459375,39.57125 94.9590625,39.11125 C94.7565625,38.51125 94.5034375,38.85125 94.2503125,37.94125 C94.2840625,37.00125 94.309375,36.84125 94.2503125,35.94125 C93.6765625,35.46125 93.431875,35.32125 92.9846875,34.44125 C92.2759375,33.74125 93.094375,32.54125 93.229375,31.66125 C92.605,31.50125 92.30125,32.81125 91.3478125,33.28125 C90.6559375,33.83125 91.2634375,32.14125 90.9259375,31.16125 C90.698125,29.77125 90.0146875,31.86125 89.7615625,32.45125 C89.2975,32.82125 89.1540625,33.30125 88.4959375,32.61125 C88.4959375,32.10125 88.909375,30.66125 88.7321875,30.38125 C88.0740625,30.77125 87.2134375,31.93125 86.53,32.11125 C85.838125,31.94125 86.6734375,30.63125 86.6734375,29.66125 C86.4203125,29.56125 85.433125,32.24125 85.028125,32.26125 C84.623125,32.28125 84.8003125,29.66125 84.60625,29.72125 C84.3109375,30.22125 83.711875,31.26125 83.2984375,31.62125 C82.496875,31.49125 83.4165625,29.87125 83.5346875,29.27125 C83.6696875,28.55125 82.78375,30.65125 82.31125,30.78125 C81.9653125,31.14125 81.281875,31.38125 81.045625,31.45125 C81.315625,30.83125 82.64875,29.58125 82.564375,29.22125 C81.7796875,29.25125 80.59,30.47125 79.9234375,30.62125 C79.4846875,30.62125 78.8771875,30.79125 78.80125,30.78125 C78.835,29.98125 80.438125,29.32125 80.69125,28.83125 C79.9065625,28.98125 78.39625,29.80125 77.9575,30.45125 C77.434375,30.58125 76.77625,30.75125 76.27,30.45125 C76.3459375,29.70125 77.5271875,28.25125 77.78875,27.77125 C77.0715625,28.14125 76.7171875,28.43125 75.9578125,28.60125 C75.814375,28.77125 75.409375,29.13125 75.5359375,28.77125 C75.76375,28.07125 76.10125,27.77125 76.3796875,27.27125 C75.746875,27.41125 75.510625,27.84125 74.835625,28.27125 C74.4053125,28.29125 73.1734375,29.76125 72.76,29.78125 C72.060267,30.4350041 71.2434168,30.8899858 70.3721875,31.11125 C69.7309375,31.25125 69.41875,31.41125 69.1065625,31.78125 C69.4271875,31.11125 69.9165625,30.48125 70.3721875,30.12125 C70.6502831,29.5142433 71.0976559,29.0405804 71.6378125,28.78125 C71.798125,28.55125 72.236875,28.49125 71.7728125,28.45125 C71.37625,28.87125 70.70125,29.35125 70.3721875,29.62125 C69.941875,29.94125 69.4440625,30.26125 69.2415625,30.12125 C69.469375,29.40125 69.874375,29.22125 70.22875,28.62125 C70.97125,28.06125 70.22875,28.42125 69.6634375,28.62125 C69.300625,29.00125 68.6509375,29.29125 68.119375,29.62125 C67.52875,29.80125 67.1321875,30.22125 66.431875,30.45125 C66.431875,30.69125 66.634375,30.02125 66.71875,29.78125 C67.2925,29.04125 67.444375,28.83125 68.119375,28.62125 C68.288125,28.33125 68.490625,28.45125 67.984375,28.45125 C67.59625,28.85125 67.073125,29.07125 66.5753125,29.45125 C66.0775,29.58125 65.4278125,29.62125 64.7528125,29.62125 C63.8753125,29.74125 63.95125,29.82125 64.7528125,29.28125 C65.2,28.78125 65.57125,28.91125 65.5965625,28.28125 C65.065,28.74125 64.4153125,29.08125 63.765625,29.45125 C63.225625,29.47125 63.0821875,29.62125 62.5,29.62125 C62.7784375,29.28125 62.9471875,28.85125 63.34375,28.62125 C63.934375,27.85125 62.9725,28.47125 62.7784375,28.62125 L60.6690625,28.62125 C60.2978125,29.18125 60.6521875,28.62125 60.9559375,28.28125 C61.31875,28.06125 61.6984375,27.77125 61.65625,27.62125 C61.234375,28.05125 60.7534375,28.25125 60.390625,28.62125 C60.0025,28.76125 59.546875,28.82125 59.546875,28.95125 C59.8590625,28.42125 60.356875,28.09125 60.6775,27.62125 C61.15,27.50125 61.555,27.32125 61.65625,27.12125 L59.6903125,27.12125 L61.0909375,27.12125 C61.808125,27.12125 62.415625,27.04125 63.0653125,26.95125 C64.1790625,26.73125 62.9640625,26.62125 62.3565625,26.62125 C62.246875,26.36125 62.7109375,26.22125 63.2003125,26.12125 C63.6221875,25.88125 64.15375,25.67125 64.609375,25.45125 C65.0115763,25.3060662 65.3907533,25.0830581 65.7315625,24.79125 C65.3096875,24.81125 65.3096875,24.93125 64.8878125,24.95125 C65.520625,24.90125 65.9678125,24.79125 66.71875,24.79125 C67.3372009,24.549621 67.9454136,24.2726297 68.54125,23.96125 C68.794375,23.60125 68.895625,23.62125 68.2628125,23.62125 C68.828125,23.41125 69.6296875,23.30125 70.0853125,23.12125 C70.666897,22.9768643 71.2329489,22.7554751 71.7728125,22.46125 C72.18625,22.13125 72.4225,21.74125 72.895,21.46125 C73.4434375,21.90125 73.451875,21.96125 74.4390625,21.96125 C75.2321875,21.95125 75.7215625,21.72125 76.1265625,21.29125 C76.7340625,21.09125 76.84375,20.75125 77.535625,20.63125 C78.1857596,20.7522933 78.8435699,20.8058299 79.5015625,20.79125 C80.1765625,20.58125 80.82625,20.19125 81.3240625,19.79125 C81.754375,19.54125 82.2690625,19.18125 82.733125,18.96125 C83.239375,19.27125 83.644375,19.52125 84.2771875,19.63125 C84.926875,19.51125 85.2728125,19.13125 85.82125,18.96125 C86.1595292,18.5345589 86.6021566,18.2442828 87.086875,18.13125 C87.9053125,17.65125 87.84625,18.28125 88.2090625,18.79125 C88.6309375,19.31125 89.1709375,19.06125 89.753125,19.29125 C90.0821875,19.89125 90.3184375,20.29125 90.7403125,20.62125 C91.069375,21.10125 91.4575,21.22125 92.149375,21.29125 C92.4025,21.69125 92.2,21.97125 92.70625,22.12125 C92.90875,22.38125 93.2546875,22.48125 93.55,22.62125" id="Shape" stroke="#772600" stroke-width="0.52"></path>
                <path d="M103.734062,35.86125 L103.734062,35.94125 C103.734062,35.71125 103.734062,35.84125 103.8775,36.28125 C103.928125,36.64125 103.81,36.60125 103.666562,36.86125 C103.64125,37.23125 103.599062,37.50125 103.599062,37.94125 C103.548437,38.30125 103.379687,38.64125 103.244687,38.94125 C103.109687,39.25125 102.5275,39.43125 102.544375,39.86125 C102.206875,39.97125 102.198437,39.71125 102.19,39.27125 C101.9875,39.00125 101.92,38.63125 101.768125,38.27125 C101.68375,37.93125 101.48125,37.67125 101.34625,37.27125 C101.14375,36.90125 100.966562,36.79125 100.789375,36.36125 C100.713437,36.16125 100.730312,35.90125 100.578437,35.78125 C100.350625,35.43125 100.19875,35.38125 99.8021875,35.36125 C99.4984375,35.44125 99.3803125,35.60125 99.101875,35.69125 C98.8825,35.78125 98.460625,35.75125 98.190625,35.86125 C98.123125,35.99125 98.325625,36.06125 98.4015625,36.36125 C98.2159375,36.54125 98.1484375,36.85125 98.0471875,37.11125 C97.8784375,37.36125 97.76875,37.48125 97.6928125,37.86125 C97.8109375,38.09125 97.7096875,38.40125 97.5578125,38.61125 C97.5071875,38.99125 97.346875,39.20125 97.2709375,39.52125 C97.0515625,39.71125 96.9671875,39.88125 96.7815625,40.19125 C96.62125,40.46125 96.4778125,40.44125 96.08125,40.44125 C95.7690625,40.34125 95.726875,40.14125 95.4484375,40.02125 C95.423125,39.92125 95.3978125,39.89125 95.305,39.86125" id="Path" stroke="#782600" stroke-width="0.46"></path>
                <path d="M96.125,39.21875 C96.125,39.21875 96,40.78125 95,41.8125 C94,42.84375 91.9375,44.03125 91.9375,44.03125 C91.9375,44.03125 94.71875,42.71875 95,43 C95.3125,43.3125 93.21875,45.59375 93.21875,45.59375 C93.21875,45.59375 95.9375,43.1875 96.28125,43.1875 C96.625,43.1875 97.40625,45.53125 97.71875,45.46875 C98,45.40625 97.09375,42.5 97.21875,42.03125 C97.34375,41.59375 97.21875,39.125 97.21875,39.125 L96.15625,39.21875 L96.125,39.21875 Z M102.53125,39.03125 C102.53125,39.03125 102.40625,40.6875 101.40625,41.78125 C100.40625,42.875 98.34375,44.15625 98.34375,44.15625 C98.34375,44.15625 101.125,42.75 101.40625,43.0625 C101.71875,43.375 99.625,45.8125 99.625,45.8125 C99.625,45.8125 102.34375,43.25 102.6875,43.25 C103.03125,43.25 103.8125,45.75 104.125,45.6875 C104.40625,45.625 103.5,42.5 103.625,42.03125 C103.75,41.53125 103.625,38.90625 103.625,38.90625 L102.53125,39.03125 Z M93.5625,24.03125 C93.5625,24.3125 93.25,24.5625 92.90625,24.5625 C92.5625,24.5625 92.21875,24.3125 92.21875,24 C92.21875,23.6875 92.53125,23.4375 92.90625,23.4375 C93.28125,23.4375 93.5625,23.6875 93.5625,24 L93.5625,24.03125 Z" id="Shape" fill="#812E00"></path>
            </g>
        </g>
    </g>
</svg>