<?xml version="1.0" encoding="UTF-8"?>
<svg width="200px" height="141px" viewBox="0 0 200 141" version="1.1" xmlns="http://www.w3.org/2000/svg" xmlns:xlink="http://www.w3.org/1999/xlink">
    <!-- Generator: Sketch 52.5 (67469) - http://www.bohemiancoding.com/sketch -->
    <title>fm</title>
    <desc>Created with Sketch.</desc>
    <defs>
        <polygon id="path-1" points="0.204678363 0 199.795322 0 199.795322 149.707602 0.204678363 149.707602"></polygon>
    </defs>
    <g id="Flags" stroke="none" stroke-width="1" fill="none" fill-rule="evenodd">
        <g id="Oceania" transform="translate(-950.000000, -50.000000)">
            <g id="fm" transform="translate(950.000000, 50.000000)">
                <mask id="mask-2" fill="white">
                    <use xlink:href="#path-1"></use>
                </mask>
                <g id="Path"></g>
                <g id="Group" mask="url(#mask-2)">
                    <g transform="translate(-41.000000, 0.000000)">
                        <polygon id="Path" fill="#6797D6" fill-rule="evenodd" points="0 0 281.450292 0 281.450292 140.725146 0 140.725146"></polygon>
                        <path d="M140.670175,33.8070175 L131.764912,39.9087719 L135.173099,30.0415205 L126.240351,23.9397661 L137.261988,23.9397661 L140.670175,14.0725146 L144.078363,23.9672515 L155.072515,23.9672515 L146.167251,30.0415205 L149.575439,39.9087719 M140.670175,107.192982 L131.764912,101.091228 L135.173099,110.985965 L126.240351,117.060234 L137.261988,117.060234 L140.670175,126.927485 L144.078363,117.032749 L155.072515,117.060234 L146.167251,110.95848 L149.575439,101.091228 M97.7929825,75.6947368 L91.0590643,84.1052632 L91.4438596,73.6608187 L81.1368421,70.4450292 L91.6912281,67.2292398 L92.048538,56.7847953 L98.1777778,65.2502924 L108.732164,62.0070175 L101.97076,70.4450292 L108.127485,78.8830409 M183.492398,75.6672515 L190.253801,84.1052632 L189.869006,73.6608187 L200.176023,70.4450292 L189.621637,67.2292398 L189.264327,56.7847953 L183.135088,65.2502924 L172.580702,62.0070175 L179.342105,70.4450292 L173.18538,78.8830409" id="Shape" fill="#FFFFFF" fill-rule="nonzero"></path>
                    </g>
                </g>
            </g>
        </g>
    </g>
</svg>