<?xml version="1.0" encoding="UTF-8"?>
<svg width="200px" height="150px" viewBox="0 0 200 150" version="1.1" xmlns="http://www.w3.org/2000/svg" xmlns:xlink="http://www.w3.org/1999/xlink">
    <!-- Generator: Sketch 52.5 (67469) - http://www.bohemiancoding.com/sketch -->
    <title>ge</title>
    <desc>Created with Sketch.</desc>
    <g id="Flags" stroke="none" stroke-width="1" fill="none" fill-rule="evenodd">
        <g id="Asia" transform="translate(-1170.000000, -250.000000)">
            <g id="ge" transform="translate(1170.000000, 250.000000)">
                <polygon id="Path" fill="#FFFFFF" points="0 0 200 0 200 150 0 150"></polygon>
                <polygon id="Path" fill="#FF0000" points="85 0 115 0 115 150 85 150"></polygon>
                <polygon id="Path" fill="#FF0000" points="0 60 200 60 200 90 0 90"></polygon>
                <path d="M45.875,116.59375 C46.1875,111.34375 47.125,106.875 47.125,106.875 C47.125,106.875 44.0625,107.1875 42.5,107.1875 C40.96875,107.1875 37.875,106.875 37.875,106.875 C37.875,106.875 38.8125,111.34375 39.125,116.625 C33.84375,116.3125 29.375,115.375 29.375,115.375 C29.375,115.375 29.6875,117.6875 29.6875,120 C29.6875,122.3125 29.375,124.625 29.375,124.625 C29.375,124.625 33.84375,123.6875 39.125,123.375 C38.8125,128.65625 37.875,133.125 37.875,133.125 C37.875,133.125 40.1875,132.8125 42.5,132.8125 C44.8125,132.8125 47.125,133.125 47.125,133.125 C47.125,133.125 46.1875,128.65625 45.875,123.375 C51.15625,123.6875 55.625,124.625 55.625,124.625 C55.625,124.625 55.3125,121.5625 55.3125,120 C55.3125,118.46875 55.625,115.375 55.625,115.375 C55.625,115.375 51.15625,116.3125 45.90625,116.625 L45.875,116.59375 Z M160.875,26.59375 C161.1875,21.34375 162.125,16.875 162.125,16.875 C162.125,16.875 159.0625,17.1875 157.5,17.1875 C155.96875,17.1875 152.875,16.875 152.875,16.875 C152.875,16.875 153.8125,21.34375 154.125,26.59375 C148.84375,26.28125 144.375,25.375 144.375,25.375 C144.375,25.375 144.6875,27.6875 144.6875,30 C144.6875,32.3125 144.375,34.625 144.375,34.625 C144.375,34.625 148.84375,33.6875 154.125,33.375 C153.8125,38.65625 152.875,43.125 152.875,43.125 C152.875,43.125 155.1875,42.8125 157.5,42.8125 C159.8125,42.8125 162.125,43.125 162.125,43.125 C162.125,43.125 161.1875,38.65625 160.875,33.40625 C166.15625,33.71875 170.625,34.65625 170.625,34.65625 C170.625,34.65625 170.3125,31.53125 170.3125,30 C170.3125,28.46875 170.625,25.375 170.625,25.375 C170.625,25.375 166.15625,26.3125 160.875,26.625 L160.875,26.59375 Z M45.875,26.59375 C46.1875,21.34375 47.125,16.875 47.125,16.875 C47.125,16.875 44.0625,17.1875 42.5,17.1875 C40.96875,17.1875 37.875,16.875 37.875,16.875 C37.875,16.875 38.8125,21.34375 39.125,26.625 C33.84375,26.3125 29.375,25.375 29.375,25.375 C29.375,25.375 29.6875,27.6875 29.6875,30 C29.6875,32.3125 29.375,34.625 29.375,34.625 C29.375,34.625 33.84375,33.6875 39.125,33.375 C38.8125,38.65625 37.875,43.125 37.875,43.125 C37.875,43.125 40.1875,42.8125 42.5,42.8125 C44.8125,42.8125 47.125,43.125 47.125,43.125 C47.125,43.125 46.1875,38.65625 45.875,33.375 C51.15625,33.6875 55.625,34.625 55.625,34.625 C55.625,34.625 55.3125,31.5625 55.3125,30 C55.3125,28.46875 55.625,25.375 55.625,25.375 C55.625,25.375 51.15625,26.3125 45.90625,26.625 L45.875,26.59375 Z M160.875,116.59375 C161.1875,111.34375 162.125,106.875 162.125,106.875 C162.125,106.875 159.0625,107.1875 157.5,107.1875 C155.96875,107.1875 152.875,106.875 152.875,106.875 C152.875,106.875 153.8125,111.34375 154.125,116.625 C148.84375,116.3125 144.375,115.375 144.375,115.375 C144.375,115.375 144.6875,117.6875 144.6875,120 C144.6875,122.3125 144.375,124.625 144.375,124.625 C144.375,124.625 148.84375,123.6875 154.125,123.375 C153.8125,128.65625 152.875,133.125 152.875,133.125 C152.875,133.125 155.1875,132.8125 157.5,132.8125 C159.8125,132.8125 162.125,133.125 162.125,133.125 C162.125,133.125 161.1875,128.65625 160.875,123.375 C166.15625,123.6875 170.625,124.625 170.625,124.625 C170.625,124.625 170.3125,121.5625 170.3125,120 C170.3125,118.46875 170.625,115.375 170.625,115.375 C170.625,115.375 166.15625,116.3125 160.875,116.625 L160.875,116.59375 Z" id="Shape" fill="#FF0000" style="mix-blend-mode: multiply;"></path>
            </g>
        </g>
    </g>
</svg>