<?xml version="1.0" encoding="UTF-8"?>
<svg width="200px" height="150px" viewBox="0 0 200 150" version="1.1" xmlns="http://www.w3.org/2000/svg" xmlns:xlink="http://www.w3.org/1999/xlink">
    <!-- Generator: Sketch 52.5 (67469) - http://www.bohemiancoding.com/sketch -->
    <title>gu</title>
    <desc>Created with Sketch.</desc>
    <g id="Flags" stroke="none" stroke-width="1" fill="none" fill-rule="evenodd">
        <g id="Oceania" transform="translate(-1170.000000, -50.000000)">
            <g id="gu" transform="translate(1170.000000, 50.000000)">
                <polygon id="Path" fill="#BE0027" points="0 0 200 0 200 150 0 150"></polygon>
                <polygon id="Path" fill="#3B5AA3" points="8 8.53125 192.21875 8.53125 192.21875 142.40625 8 142.40625"></polygon>
                <path d="M98.25,129.125 C99.0779863,129.520258 100.037839,129.531685 100.875,129.15625 C143.9375,106.25 143.9375,43.4375 100.90625,20.84375 C100.037969,20.4484963 99.0367007,20.471514 98.1875,20.90625 C56.21875,43.84375 56.09375,105.9375 98.21875,129.125 L98.25,129.125 Z" id="Path" fill="#CBE0E5"></path>
                <path d="M98.25,130.28125 C98.875,130.8125 100.25,130.75 100.875,130.28125 C132.59375,106.53125 132.75,91.75 131.375,91.75 L68.5625,91.75 C67.625,91.75 69.125,106.8125 98.25,130.28125 Z" id="Path" fill="#ADD2D9"></path>
                <path d="M73.53125,103.5 C76.4040435,102.599707 79.5077665,102.788823 82.25,104.03125 C84.625,105.28125 86,105.28125 88.5625,105.28125 C91.25,105.34375 93.34375,107.3125 96.25,107.40625 C101.59375,107.53125 103.84375,110.1875 99.6875,110.21875 C97.75,110.21875 93.53125,108.875 91.5,109.15625 C87.25,109.59375 84.5625,110.53125 80.5625,115 L85.1875,118.125 C89.1875,116.53125 89.84375,114.6875 92.0625,114.625 C94.5625,114.53125 95.40625,113 98.3125,113 C101.782168,113.289779 105.275652,112.951017 108.625,112 C113.25,110.9375 111.0625,107.6875 108.25,106.53125 C105.96875,105.5625 101.75,106.5 99.125,105.53125 C97.125,104.75 98.75,103.5 99.84375,103.25 C100.90625,103.03125 102.0625,103.40625 103.40625,103.625 C105.8125,103.8125 108.84375,103.59375 110.9375,103.25 C115.3125,102.59375 115.125,101.3125 117.1875,101.28125 C118.75,101.1875 119.90625,100.75 120.9375,100 C122.1875,99.15625 123.46875,97.5 124.96875,97.5625 L128.9375,97.71875 L123.3125,110.34375 L107.46875,126.5 L99.25,129.625 L81.1875,117.84375 L72.09375,103.875 L73.5625,103.5 L73.53125,103.5 Z" id="Path" fill="#FDF9A1"></path>
                <path d="M94.3125,91.25 L130.5625,91.0625 L131.1875,87.84375 C131.1875,87.84375 129.90625,87.65625 128.84375,87.59375 C127.5625,87.5 125.3125,88.96875 123.84375,88.9375 C122.75,88.9375 121.5625,87.0625 120.5,87.0625 C118.625,87.0625 118.5,88.71875 116.75,88.78125 C115.34375,88.71875 114.75,87.65625 112.90625,87.78125 C111.03125,87.875 111.15625,88.9375 108.75,88.875 C105.5625,88.78125 104.28125,86.03125 101.71875,86 C97.46875,85.9375 97.34375,90.0625 94.28125,91.21875 L94.3125,91.25 Z" id="Path" fill="#179A3B"></path>
                <polygon id="Path" fill="#FDF9A1" points="94.3125 92 131.625 91.8125 131.625 90.8125 93.4375 91 94.28125 92"></polygon>
                <path d="M109.625,103.21875 C110.21875,105.40625 110.8125,106.15625 113.125,106.75 C115.40625,107.28125 118.90625,105.0625 116.75,102.90625 C114.6875,100.90625 112.5,100.40625 110.65625,98.59375 C106.75,94.75 100.875,85.3125 100.875,78.65625 C100.875,72.9375 100.3125,61.21875 100.3125,50.125 C100.3125,49.40625 98.125,52.125 98.125,52.875 C98.25,62.65625 98.25,70.0625 98.625,79.9375 C99.25,87.15625 102.6875,92.03125 105.71875,96.40625 C107.0625,98.53125 109.03125,100.78125 109.625,103.21875 Z" id="Path" fill="#A79270"></path>
                <g id="Group" transform="translate(79.301719, 65.937500)" fill="#BD0728" font-family="Helvetica" font-size="9" font-weight="normal" stroke="#FFFFFF" stroke-width="2.128">
                    <text id="G">
                        <tspan x="0" y="10.375">G</tspan>
                    </text>
                </g>
                <g id="Group" transform="translate(89.375000, 65.937500)" fill="#BD0728" font-family="Helvetica" font-size="9" font-weight="normal" stroke="#FFFFFF" stroke-width="2.128">
                    <text id="U">
                        <tspan x="0" y="10.375">U</tspan>
                    </text>
                </g>
                <g id="Group" transform="translate(100.937500, 65.937500)" fill="#BD0728" font-family="Helvetica" font-size="9" font-weight="normal" stroke="#FFFFFF" stroke-width="2.128">
                    <text id="A">
                        <tspan x="0" y="10.375">A</tspan>
                    </text>
                </g>
                <g id="Group" transform="translate(110.107721, 65.937500)" fill="#BD0728" font-family="Helvetica" font-size="9" font-weight="normal" stroke="#FFFFFF" stroke-width="2.128">
                    <text id="M">
                        <tspan x="0" y="10.375">M</tspan>
                    </text>
                </g>
                <path d="M81.125,50.28125 C80.65625,51.21875 82.25,50 82.625,49.875 C84.71875,49.125 85.53125,46.5 89.125,48.09375 C91.9375,49.3125 95.71875,48.59375 93.75,49.84375 C91.3125,51.3125 86.40625,52.9375 86.3125,60.21875 C86.71875,60.90625 86.75,60.8125 87.09375,60.03125 C87.84375,58.34375 91.375,53.75 93.125,54.125 C93.84375,54.3125 95.90625,52.03125 95.9375,52.6875 C96.15625,54.5 93.125,58.1875 93.1875,63.09375 C93.1875,64.25 94.59375,64.625 95.25,63.8125 C95.9375,63.09375 96.3125,62.375 97.5,61.4375 C99.5625,59.75 99,52.5 99.25,52.84375 C100.71875,54.71875 100.9375,60.125 103.125,62.3125 C104.96875,64.15625 106.4375,63.25 106.03125,60.75 C105.25,55.625 102.84375,57.09375 101.6875,51.8125 C101.4375,50.78125 101.375,49.875 102.75,50.28125 C104.40625,50.78125 105.40625,51.53125 106.625,53.40625 C107.875,55.21875 110.1875,56.9375 111.53125,57.96875 C113.875,59.78125 114.71875,58.21875 113.59375,55.90625 C112.165109,53.2799248 109.833968,51.2596022 107.03125,50.21875 C105.09375,49.53125 104.40625,49.46875 102.71875,49.15625 C102.25,49.0625 101.78125,48.09375 102.59375,47.5625 C104.401231,46.2592969 106.507553,45.4318131 108.71875,45.15625 C110.8125,45.09375 112.46875,46.78125 113.9375,47.21875 C116.875,47.96875 116.875,46.125 115.5625,44.71875 C114.5,43.5625 112.25,41.59375 110.15625,41.875 C105.9375,42.40625 106.21875,42.28125 103.59375,44 C102.65625,44.5625 101.59375,45.1875 102,44.5 C102.9375,42.78125 102.0625,43.09375 103.53125,41.34375 C104.65625,40.09375 105.5,39.15625 106.65625,38.84375 C107.71875,38.5625 109.15625,37.4375 109.5625,36.84375 C110.625,35.40625 109.71875,34.5625 108.09375,35.0625 C106.65625,35.4375 105.90625,36.375 104.96875,36.625 C102.65625,37.375 100.8125,42.5625 100.53125,43.3125 C100.1875,44.1875 99.78125,43.75 99.84375,43 C100.15625,39.34375 100.46875,33.15625 99.21875,30.625 C97.21875,26.875 97.40625,28.625 96.65625,30.40625 C95.53125,33.21875 95.9375,35.875 96.65625,38.625 C96.96875,40 98.09375,41.5625 98.3125,42.65625 C98.46875,43.5 97.8125,42.40625 97.4375,41.875 C96.21875,40 95.3125,38.75 93.3125,37.71875 C91.3149069,36.8968761 89.1199761,36.6795562 87,37.09375 C86.4375,37.28125 87.625,38.09375 88.09375,38.46875 C89.4375,39.53125 91.96875,39.875 93.71875,40.9375 C95.15625,41.84375 96.28125,42.40625 96.78125,43.65625 C96.96875,44.59375 97.28125,45.96875 96.65625,45.9375 C95.0625,45.84375 92.59375,44.4375 87.46875,45 C84.84375,45.375 82.59375,47.59375 81.125,50.28125 Z" id="Path" fill="#239E46"></path>
                <polygon id="Path" fill="#000000" points="92.28125 97.0625 93.75 97.0625 93.75 99.53125 92.28125 99.53125"></polygon>
                <path d="M84.90625,80.59375 C90.78125,88.71875 100.21875,93.46875 100.40625,97.15625 L82.03125,97.15625 C86.25,92.09375 88.84375,88.65625 84.90625,80.59375 Z" id="Path" fill="#FDF9FF"></path>
                <path d="M79.5625,97.34375 C87.5625,99.125 97.09375,100.125 103.1875,97.09375 C103.25,98.875 101.21875,101.46875 99.53125,101.46875 L84.21875,101.46875 C86,101.1875 87.03125,100.65625 89.90625,100.53125 L81.78125,100.59375 C80.84375,100.625 79.28125,98.21875 79.5625,97.34375 Z" id="Path" fill="#A68861"></path>
                <path d="M97.6875,132.8125 C98.5,133.28125 99.78125,133.25 100.5,132.875 C146.6875,108.28125 146.71875,40.875 100.5625,16.625 C99.6261398,16.1914748 98.5420733,16.2145401 97.625,16.6875 C52.625,41.3125 52.5,107.9375 97.6875,132.84375 L97.6875,132.8125 Z M97.90625,127.28125 C98.6922872,127.667903 99.6107935,127.679385 100.40625,127.3125 C139.03125,104.5625 139.5,44.46875 100.4375,22.9375 C99.6875,22.375 98.59375,22.5625 97.84375,22.9375 C60.84375,44.84375 58.78125,102.46875 97.90625,127.28125 Z" id="Shape" fill="#BE0027"></path>
                <g id="Group" transform="translate(79.301719, 65.937500)" fill="#BD0728" font-family="Helvetica" font-size="9" font-weight="normal">
                    <text id="G">
                        <tspan x="0" y="10.375">G</tspan>
                    </text>
                </g>
                <g id="Group" transform="translate(89.375000, 65.937500)" fill="#BD0728" font-family="Helvetica" font-size="9" font-weight="normal">
                    <text id="U">
                        <tspan x="0" y="10.375">U</tspan>
                    </text>
                </g>
                <g id="Group" transform="translate(100.937500, 65.937500)" fill="#BD0728" font-family="Helvetica" font-size="9" font-weight="normal">
                    <text id="A">
                        <tspan x="0" y="10.375">A</tspan>
                    </text>
                </g>
                <g id="Group" transform="translate(110.107721, 65.937500)" fill="#BD0728" font-family="Helvetica" font-size="9" font-weight="normal">
                    <text id="M">
                        <tspan x="0" y="10.375">M</tspan>
                    </text>
                </g>
            </g>
        </g>
    </g>
</svg>