<?xml version="1.0" encoding="UTF-8"?>
<svg width="200px" height="150px" viewBox="0 0 200 150" version="1.1" xmlns="http://www.w3.org/2000/svg" xmlns:xlink="http://www.w3.org/1999/xlink">
    <!-- Generator: Sketch 52.5 (67469) - http://www.bohemiancoding.com/sketch -->
    <title>in</title>
    <desc>Created with Sketch.</desc>
    <g id="Flags" stroke="none" stroke-width="1" fill="none" fill-rule="evenodd">
        <g id="Asia" transform="translate(-730.000000, -450.000000)">
            <g id="in" transform="translate(730.000000, 450.000000)">
                <polygon id="Path" fill="#FF9933" points="0 0 200 0 200 50 0 50"></polygon>
                <polygon id="Path" fill="#FFFFFF" points="0 50 200 50 200 100 0 100"></polygon>
                <polygon id="Path" fill="#128807" points="0 100 200 100 200 150 0 150"></polygon>
                <g id="Group" transform="translate(62.000000, 28.000000)">
                    <circle id="Oval" fill="#000088" cx="38" cy="47" r="20"></circle>
                    <circle id="Oval" fill="#FFFFFF" cx="38" cy="47" r="17.5"></circle>
                    <circle id="Oval" fill="#000088" cx="38" cy="47" r="3.5"></circle>
                    <g id="d" transform="translate(3.000000, 30.000000)" fill="#000088">
                        <g id="c" transform="translate(18.000000, 14.000000)">
                            <g id="b" transform="translate(11.000000, 3.000000)">
                                <g id="a" transform="translate(5.000000, 1.000000)">
                                    <circle id="Oval" transform="translate(18.349961, 1.290741) rotate(7.500000) translate(-18.349961, -1.290741) " cx="18.3499614" cy="1.2907415" r="1"></circle>
                                    <polygon id="Path" points="1 16.5 1.6 6 1 1 0.4 6"></polygon>
                                </g>
                                <g id="a-link" transform="translate(12.234552, 11.505667) rotate(15.000000) translate(-12.234552, -11.505667) translate(2.234552, 3.005667)">
                                    <g id="a">
                                        <circle id="Oval" transform="translate(18.349961, 1.290741) rotate(7.500000) translate(-18.349961, -1.290741) " cx="18.3499614" cy="1.2907415" r="1"></circle>
                                        <polygon id="Path" points="1 16.5 1.6 6 1 1 0.4 6"></polygon>
                                    </g>
                                </g>
                            </g>
                            <g id="b-link" transform="translate(16.879165, 16.209292) rotate(30.000000) translate(-16.879165, -16.209292) translate(4.379165, 4.709292)">
                                <g id="b">
                                    <g id="a" transform="translate(5.000000, 1.000000)">
                                        <circle id="Oval" transform="translate(18.349961, 1.290741) rotate(7.500000) translate(-18.349961, -1.290741) " cx="18.3499614" cy="1.2907415" r="1"></circle>
                                        <polygon id="Path" points="1 16.5 1.6 6 1 1 0.4 6"></polygon>
                                    </g>
                                    <g id="a-link" transform="translate(12.234552, 11.505667) rotate(15.000000) translate(-12.234552, -11.505667) translate(2.234552, 3.005667)">
                                        <g id="a">
                                            <circle id="Oval" transform="translate(18.349961, 1.290741) rotate(7.500000) translate(-18.349961, -1.290741) " cx="18.3499614" cy="1.2907415" r="1"></circle>
                                            <polygon id="Path" points="1 16.5 1.6 6 1 1 0.4 6"></polygon>
                                        </g>
                                    </g>
                                </g>
                            </g>
                        </g>
                        <g id="c-link" transform="translate(23.808657, 24.616025) rotate(60.000000) translate(-23.808657, -24.616025) translate(5.808657, 8.116025)">
                            <g id="c">
                                <g id="b" transform="translate(11.000000, 3.000000)">
                                    <g id="a" transform="translate(5.000000, 1.000000)">
                                        <circle id="Oval" transform="translate(18.349961, 1.290741) rotate(7.500000) translate(-18.349961, -1.290741) " cx="18.3499614" cy="1.2907415" r="1"></circle>
                                        <polygon id="Path" points="1 16.5 1.6 6 1 1 0.4 6"></polygon>
                                    </g>
                                    <g id="a-link" transform="translate(12.234552, 11.505667) rotate(15.000000) translate(-12.234552, -11.505667) translate(2.234552, 3.005667)">
                                        <g id="a">
                                            <circle id="Oval" transform="translate(18.349961, 1.290741) rotate(7.500000) translate(-18.349961, -1.290741) " cx="18.3499614" cy="1.2907415" r="1"></circle>
                                            <polygon id="Path" points="1 16.5 1.6 6 1 1 0.4 6"></polygon>
                                        </g>
                                    </g>
                                </g>
                                <g id="b-link" transform="translate(16.879165, 16.209292) rotate(30.000000) translate(-16.879165, -16.209292) translate(4.379165, 4.709292)">
                                    <g id="b">
                                        <g id="a" transform="translate(5.000000, 1.000000)">
                                            <circle id="Oval" transform="translate(18.349961, 1.290741) rotate(7.500000) translate(-18.349961, -1.290741) " cx="18.3499614" cy="1.2907415" r="1"></circle>
                                            <polygon id="Path" points="1 16.5 1.6 6 1 1 0.4 6"></polygon>
                                        </g>
                                        <g id="a-link" transform="translate(12.234552, 11.505667) rotate(15.000000) translate(-12.234552, -11.505667) translate(2.234552, 3.005667)">
                                            <g id="a">
                                                <circle id="Oval" transform="translate(18.349961, 1.290741) rotate(7.500000) translate(-18.349961, -1.290741) " cx="18.3499614" cy="1.2907415" r="1"></circle>
                                                <polygon id="Path" points="1 16.5 1.6 6 1 1 0.4 6"></polygon>
                                            </g>
                                        </g>
                                    </g>
                                </g>
                            </g>
                        </g>
                    </g>
                    <g id="d-link" transform="translate(35.504809, 36.321797) rotate(120.000000) translate(-35.504809, -36.321797) translate(8.504809, 11.821797)" fill="#000088">
                        <g id="d">
                            <g id="c" transform="translate(18.000000, 14.000000)">
                                <g id="b" transform="translate(11.000000, 3.000000)">
                                    <g id="a" transform="translate(5.000000, 1.000000)">
                                        <circle id="Oval" transform="translate(18.349961, 1.290741) rotate(7.500000) translate(-18.349961, -1.290741) " cx="18.3499614" cy="1.2907415" r="1"></circle>
                                        <polygon id="Path" points="1 16.5 1.6 6 1 1 0.4 6"></polygon>
                                    </g>
                                    <g id="a-link" transform="translate(12.234552, 11.505667) rotate(15.000000) translate(-12.234552, -11.505667) translate(2.234552, 3.005667)">
                                        <g id="a">
                                            <circle id="Oval" transform="translate(18.349961, 1.290741) rotate(7.500000) translate(-18.349961, -1.290741) " cx="18.3499614" cy="1.2907415" r="1"></circle>
                                            <polygon id="Path" points="1 16.5 1.6 6 1 1 0.4 6"></polygon>
                                        </g>
                                    </g>
                                </g>
                                <g id="b-link" transform="translate(16.879165, 16.209292) rotate(30.000000) translate(-16.879165, -16.209292) translate(4.379165, 4.709292)">
                                    <g id="b">
                                        <g id="a" transform="translate(5.000000, 1.000000)">
                                            <circle id="Oval" transform="translate(18.349961, 1.290741) rotate(7.500000) translate(-18.349961, -1.290741) " cx="18.3499614" cy="1.2907415" r="1"></circle>
                                            <polygon id="Path" points="1 16.5 1.6 6 1 1 0.4 6"></polygon>
                                        </g>
                                        <g id="a-link" transform="translate(12.234552, 11.505667) rotate(15.000000) translate(-12.234552, -11.505667) translate(2.234552, 3.005667)">
                                            <g id="a">
                                                <circle id="Oval" transform="translate(18.349961, 1.290741) rotate(7.500000) translate(-18.349961, -1.290741) " cx="18.3499614" cy="1.2907415" r="1"></circle>
                                                <polygon id="Path" points="1 16.5 1.6 6 1 1 0.4 6"></polygon>
                                            </g>
                                        </g>
                                    </g>
                                </g>
                            </g>
                            <g id="c-link" transform="translate(23.808657, 24.616025) rotate(60.000000) translate(-23.808657, -24.616025) translate(5.808657, 8.116025)">
                                <g id="c">
                                    <g id="b" transform="translate(11.000000, 3.000000)">
                                        <g id="a" transform="translate(5.000000, 1.000000)">
                                            <circle id="Oval" transform="translate(18.349961, 1.290741) rotate(7.500000) translate(-18.349961, -1.290741) " cx="18.3499614" cy="1.2907415" r="1"></circle>
                                            <polygon id="Path" points="1 16.5 1.6 6 1 1 0.4 6"></polygon>
                                        </g>
                                        <g id="a-link" transform="translate(12.234552, 11.505667) rotate(15.000000) translate(-12.234552, -11.505667) translate(2.234552, 3.005667)">
                                            <g id="a">
                                                <circle id="Oval" transform="translate(18.349961, 1.290741) rotate(7.500000) translate(-18.349961, -1.290741) " cx="18.3499614" cy="1.2907415" r="1"></circle>
                                                <polygon id="Path" points="1 16.5 1.6 6 1 1 0.4 6"></polygon>
                                            </g>
                                        </g>
                                    </g>
                                    <g id="b-link" transform="translate(16.879165, 16.209292) rotate(30.000000) translate(-16.879165, -16.209292) translate(4.379165, 4.709292)">
                                        <g id="b">
                                            <g id="a" transform="translate(5.000000, 1.000000)">
                                                <circle id="Oval" transform="translate(18.349961, 1.290741) rotate(7.500000) translate(-18.349961, -1.290741) " cx="18.3499614" cy="1.2907415" r="1"></circle>
                                                <polygon id="Path" points="1 16.5 1.6 6 1 1 0.4 6"></polygon>
                                            </g>
                                            <g id="a-link" transform="translate(12.234552, 11.505667) rotate(15.000000) translate(-12.234552, -11.505667) translate(2.234552, 3.005667)">
                                                <g id="a">
                                                    <circle id="Oval" transform="translate(18.349961, 1.290741) rotate(7.500000) translate(-18.349961, -1.290741) " cx="18.3499614" cy="1.2907415" r="1"></circle>
                                                    <polygon id="Path" points="1 16.5 1.6 6 1 1 0.4 6"></polygon>
                                                </g>
                                            </g>
                                        </g>
                                    </g>
                                </g>
                            </g>
                        </g>
                    </g>
                    <g id="d-link" transform="translate(48.495191, 50.178203) rotate(-120.000000) translate(-48.495191, -50.178203) translate(21.495191, 25.678203)" fill="#000088">
                        <g id="d">
                            <g id="c" transform="translate(18.000000, 14.000000)">
                                <g id="b" transform="translate(11.000000, 3.000000)">
                                    <g id="a" transform="translate(5.000000, 1.000000)">
                                        <circle id="Oval" transform="translate(18.349961, 1.290741) rotate(7.500000) translate(-18.349961, -1.290741) " cx="18.3499614" cy="1.2907415" r="1"></circle>
                                        <polygon id="Path" points="1 16.5 1.6 6 1 1 0.4 6"></polygon>
                                    </g>
                                    <g id="a-link" transform="translate(12.234552, 11.505667) rotate(15.000000) translate(-12.234552, -11.505667) translate(2.234552, 3.005667)">
                                        <g id="a">
                                            <circle id="Oval" transform="translate(18.349961, 1.290741) rotate(7.500000) translate(-18.349961, -1.290741) " cx="18.3499614" cy="1.2907415" r="1"></circle>
                                            <polygon id="Path" points="1 16.5 1.6 6 1 1 0.4 6"></polygon>
                                        </g>
                                    </g>
                                </g>
                                <g id="b-link" transform="translate(16.879165, 16.209292) rotate(30.000000) translate(-16.879165, -16.209292) translate(4.379165, 4.709292)">
                                    <g id="b">
                                        <g id="a" transform="translate(5.000000, 1.000000)">
                                            <circle id="Oval" transform="translate(18.349961, 1.290741) rotate(7.500000) translate(-18.349961, -1.290741) " cx="18.3499614" cy="1.2907415" r="1"></circle>
                                            <polygon id="Path" points="1 16.5 1.6 6 1 1 0.4 6"></polygon>
                                        </g>
                                        <g id="a-link" transform="translate(12.234552, 11.505667) rotate(15.000000) translate(-12.234552, -11.505667) translate(2.234552, 3.005667)">
                                            <g id="a">
                                                <circle id="Oval" transform="translate(18.349961, 1.290741) rotate(7.500000) translate(-18.349961, -1.290741) " cx="18.3499614" cy="1.2907415" r="1"></circle>
                                                <polygon id="Path" points="1 16.5 1.6 6 1 1 0.4 6"></polygon>
                                            </g>
                                        </g>
                                    </g>
                                </g>
                            </g>
                            <g id="c-link" transform="translate(23.808657, 24.616025) rotate(60.000000) translate(-23.808657, -24.616025) translate(5.808657, 8.116025)">
                                <g id="c">
                                    <g id="b" transform="translate(11.000000, 3.000000)">
                                        <g id="a" transform="translate(5.000000, 1.000000)">
                                            <circle id="Oval" transform="translate(18.349961, 1.290741) rotate(7.500000) translate(-18.349961, -1.290741) " cx="18.3499614" cy="1.2907415" r="1"></circle>
                                            <polygon id="Path" points="1 16.5 1.6 6 1 1 0.4 6"></polygon>
                                        </g>
                                        <g id="a-link" transform="translate(12.234552, 11.505667) rotate(15.000000) translate(-12.234552, -11.505667) translate(2.234552, 3.005667)">
                                            <g id="a">
                                                <circle id="Oval" transform="translate(18.349961, 1.290741) rotate(7.500000) translate(-18.349961, -1.290741) " cx="18.3499614" cy="1.2907415" r="1"></circle>
                                                <polygon id="Path" points="1 16.5 1.6 6 1 1 0.4 6"></polygon>
                                            </g>
                                        </g>
                                    </g>
                                    <g id="b-link" transform="translate(16.879165, 16.209292) rotate(30.000000) translate(-16.879165, -16.209292) translate(4.379165, 4.709292)">
                                        <g id="b">
                                            <g id="a" transform="translate(5.000000, 1.000000)">
                                                <circle id="Oval" transform="translate(18.349961, 1.290741) rotate(7.500000) translate(-18.349961, -1.290741) " cx="18.3499614" cy="1.2907415" r="1"></circle>
                                                <polygon id="Path" points="1 16.5 1.6 6 1 1 0.4 6"></polygon>
                                            </g>
                                            <g id="a-link" transform="translate(12.234552, 11.505667) rotate(15.000000) translate(-12.234552, -11.505667) translate(2.234552, 3.005667)">
                                                <g id="a">
                                                    <circle id="Oval" transform="translate(18.349961, 1.290741) rotate(7.500000) translate(-18.349961, -1.290741) " cx="18.3499614" cy="1.2907415" r="1"></circle>
                                                    <polygon id="Path" points="1 16.5 1.6 6 1 1 0.4 6"></polygon>
                                                </g>
                                            </g>
                                        </g>
                                    </g>
                                </g>
                            </g>
                        </g>
                    </g>
                </g>
            </g>
        </g>
    </g>
</svg>