<?xml version="1.0" encoding="UTF-8"?>
<svg width="200px" height="141px" viewBox="0 0 200 141" version="1.1" xmlns="http://www.w3.org/2000/svg" xmlns:xlink="http://www.w3.org/1999/xlink">
    <!-- Generator: Sketch 52.5 (67469) - http://www.bohemiancoding.com/sketch -->
    <title>lb</title>
    <desc>Created with Sketch.</desc>
    <defs>
        <polygon id="path-1" points="0.204678363 0 199.795322 0 199.795322 140.707602 0.204678363 140.707602"></polygon>
    </defs>
    <g id="Flags" stroke="none" stroke-width="1" fill="none" fill-rule="evenodd">
        <g id="Asia" transform="translate(-950.000000, -850.000000)">
            <g id="lb" transform="translate(950.000000, 850.000000)">
                <mask id="mask-2" fill="white">
                    <use xlink:href="#path-1"></use>
                </mask>
                <g id="Path"></g>
                <g id="Group" mask="url(#mask-2)">
                    <g transform="translate(-5.000000, 0.000000)">
                        <g id="Group" stroke="none" stroke-width="1" fill="none">
                            <path d="M0,105.263158 L210.526316,105.263158 L210.526316,140.350877 L0,140.350877 L0,105.263158 Z M0,0 L210.526316,0 L210.526316,35.0877193 L0,35.0877193 L0,0 Z" id="Shape" fill="#FF0000" fill-rule="nonzero"></path>
                            <polygon id="Path" fill="#FFFFFF" points="0 35.0877193 210.526316 35.0877193 210.526316 105.263158 0 105.263158"></polygon>
                        </g>
                        <path d="M104.194079,35.6359649 C102.055921,39.8848684 100.630482,39.8848684 97.066886,42.7631579 C95.6414474,44.1611842 93.5032895,44.8739035 96.3541667,46.3267544 C93.4758772,47.7247807 92.0504386,48.4375 90.625,51.2883772 L91.3377193,52.0010965 C91.3377193,52.0010965 94.0789474,50.685307 94.1885965,51.2883772 C94.6820175,51.8640351 90.625,54.0296053 90.1041667,54.3859649 L87.0888158,56.3048246 C83.497807,59.1282895 81.3322368,58.4155702 79.2214912,62.691886 L86.3486842,61.9791667 C87.7741228,66.9682018 82.7850877,67.6809211 79.2214912,69.8190789 L73.4923246,73.3826754 C74.9451754,78.3717105 79.2214912,75.5208333 82.7850877,74.0953947 L83.497807,74.808114 L83.497807,76.2335526 L76.370614,79.7971491 C76.370614,79.7971491 67.9276316,84.6217105 67.7905702,84.7861842 C67.7357456,85.060307 67.7905702,86.2116228 67.7905702,86.2116228 C70.6414474,86.9243421 74.9177632,87.6370614 77.7960526,86.2116228 C81.3596491,84.7861842 82.0723684,83.3607456 86.3486842,83.3607456 C82.2327197,86.572288 77.2896811,88.5495034 72.0942982,89.0625 L72.0942982,91.9133772 C76.370614,91.9133772 79.2214912,91.9133772 82.7850877,91.2006579 L92.0504386,88.3497807 C94.1885965,88.3497807 96.3541667,90.4879386 95.6140351,92.6260965 C93.5032895,100.466009 84.9232456,99.0405702 82.0723684,105.455044 L93.4758772,101.151316 C96.3267544,99.7258772 99.1776316,98.3278509 102.741228,99.0405702 C107.017544,100.466009 107.017544,103.316886 112.719298,104.742325 L111.29386,101.178728 C112.719298,101.891447 114.144737,101.891447 115.597588,102.604167 C119.161184,104.029605 119.873904,105.455044 124.150219,104.742325 C120.586623,100.466009 119.873904,101.178728 117.023026,98.3278509 C114.172149,94.0515351 112.719298,87.6370614 117.023026,86.9243421 L122.012061,88.3497807 C127.001096,89.0625 127.001096,87.6370614 134.128289,90.4879386 C138.432018,91.9133772 139.857456,94.0515351 144.819079,92.6260965 C142.708333,87.6370614 134.868421,84.0734649 129.851974,82.6480263 C135.58114,79.0844298 134.128289,84.0734649 141.995614,81.935307 L141.995614,80.5098684 C136.321272,76.2061404 134.155702,72.6425439 126.315789,72.6425439 L138.45943,71.2171053 L138.45943,69.7916667 C138.45943,69.7916667 126.480263,66.6666667 126.20614,66.5296053 C126.288377,66.1732456 126.589912,65.625 127.384868,65.2960526 C129.660088,66.7763158 136.513158,66.6118421 136.924342,66.5844298 C136.705044,64.8300439 133.442982,63.377193 130.619518,61.9517544 C130.619518,61.9517544 118.366228,54.4133772 118.311404,53.7554825 C118.558114,51.8366228 123.327851,54.0570175 128.453947,55.5372807 C127.028509,52.6864035 124.177632,51.2609649 121.326754,50.5482456 L125.60307,49.8355263 C122.752193,43.4210526 115.625,44.1337719 111.348684,41.2828947 C108.470395,39.1447368 108.470395,37.7192982 104.194079,35.6085526 L104.194079,35.6359649 Z" id="Path" stroke="none" fill="#007900"></path>
                        <path d="M96.4912281,83.0592105 C97.0120614,81.3870614 97.6973684,79.879386 94.5175439,78.4265351 C91.3377193,76.9736842 96.1074561,84.2105263 96.4912281,83.0866228 L96.4912281,83.0592105 Z M100.246711,79.6875 C99.6162281,79.7697368 99.2598684,82.0997807 100.548246,82.7576754 C101.973684,82.9769737 100.822368,79.7149123 100.246711,79.6875 Z M103.947368,79.4133772 C103.289474,79.6326754 103.262061,82.9221491 105.592105,82.3190789 C107.949561,81.7434211 105.592105,79.1666667 103.947368,79.4407895 L103.947368,79.4133772 Z M108.278509,70.997807 C108.77193,70.1754386 108.251096,66.8859649 106.25,68.2565789 C104.221491,69.6546053 107.620614,71.2171053 108.278509,70.997807 Z M103.892544,68.2565789 C104.523026,68.0098684 104.577851,65.9813596 102.796053,66.5296053 C101.069079,67.0504386 103.426535,68.6677632 103.892544,68.2565789 Z M99.9451754,69.0515351 C99.9451754,69.0515351 98.7116228,67.3519737 97.752193,67.7083333 C96.5734649,68.8596491 100.027412,69.0789474 99.9451754,69.0515351 Z M86.3486842,74.4791667 C86.8695175,74.5339912 90.7346491,73.8486842 92.0778509,72.3410088 C93.4210526,70.8333333 85.1973684,72.9714912 85.1973684,72.9989035 C85.1973684,73.0263158 85.9649123,74.3421053 86.3486842,74.4791667 Z M125.027412,64.8848684 C125.219298,64.5285088 122.971491,62.9385965 121.628289,63.5690789 C121.27193,64.747807 125.027412,65.1315789 125.027412,64.8848684 Z M117.406798,61.0471491 C117.845395,60.4440789 116.447368,57.9495614 113.651316,59.3475877 C110.855263,60.7182018 116.58443,62.0339912 117.406798,61.0745614 L117.406798,61.0471491 Z M108.607456,59.5942982 C108.607456,59.5942982 109.292763,57.3464912 110.964912,57.7850877 C112.883772,59.2379386 108.689693,59.6765351 108.607456,59.5942982 Z M106.962719,57.8947368 C106.688596,57.2642544 104.961623,57.620614 102.960526,58.9638158 C100.932018,60.252193 107.565789,59.3475877 106.962719,57.8673246 L106.962719,57.8947368 Z M112.088816,51.8366228 C112.088816,51.8366228 113.870614,51.0142544 114.41886,51.8366228 C115.158991,53.0153509 112.061404,51.8366228 112.088816,51.8366228 Z M110.58114,51.0416667 C110.224781,50.3289474 108.251096,50.2467105 108.305921,51.3157895 C107.976974,52.1381579 110.882675,51.9736842 110.58114,51.0416667 Z M105.866228,51.0416667 C105.674342,50.6304825 102.850877,51.0416667 102.028509,52.7412281 C103.399123,53.3991228 106.496711,52.1107456 105.866228,51.0416667 Z M99.8355263,52.7686404 C99.8355263,52.7686404 96.1622807,55.0438596 95.9155702,56.6885965 C96.0252193,58.1140351 100.520833,54.1118421 100.520833,54.1118421 C100.520833,54.1118421 100.904605,52.5219298 99.8629386,52.7686404 L99.8355263,52.7686404 Z M95.7510965,50.7127193 C95.8607456,50.2467105 97.5877193,49.1776316 97.7247807,49.2598684 C97.8618421,49.7258772 96.3267544,50.9868421 95.7510965,50.7127193 Z M96.9298246,59.375 C97.0120614,58.689693 92.5438596,58.7445175 94.2160088,60.8004386 C95.6414474,62.5274123 97.2313596,59.6765351 96.9298246,59.375 Z M92.8179825,62.308114 C92.5986842,61.8695175 92.2697368,60.6633772 91.6666667,60.5537281 C91.1458333,60.5537281 88.4594298,61.1019737 88.2401316,61.5405702 C88.1304825,61.8969298 89.3640351,64.1173246 89.7752193,64.1721491 C90.2686404,64.3640351 92.7631579,62.5274123 92.8453947,62.308114 L92.8179825,62.308114 Z M117.050439,77.439693 C117.1875,76.9462719 121.792763,75.3837719 123.355263,76.8914474 C125.219298,79.4407895 116.940789,78.2620614 117.050439,77.439693 Z M129.660088,80.4276316 C130.674342,78.7280702 126.5625,76.6995614 124.835526,78.6458333 C125.438596,80.9758772 128.837719,81.8256579 129.660088,80.4276316 Z" id="Shape" stroke="#FFFFFF" stroke-width="3" fill="#FFFFFF" stroke-linecap="round" stroke-linejoin="round"></path>
                    </g>
                </g>
            </g>
        </g>
    </g>
</svg>