<?xml version="1.0" encoding="UTF-8"?>
<svg width="200px" height="141px" viewBox="0 0 200 141" version="1.1" xmlns="http://www.w3.org/2000/svg" xmlns:xlink="http://www.w3.org/1999/xlink">
    <!-- Generator: Sketch 52.5 (67469) - http://www.bohemiancoding.com/sketch -->
    <title>lr</title>
    <desc>Created with Sketch.</desc>
    <defs>
        <polygon id="path-1" points="0 0 199.912152 0 199.912152 141 0 141"></polygon>
    </defs>
    <g id="Flags" stroke="none" stroke-width="1" fill="none" fill-rule="evenodd">
        <g id="Africa" transform="translate(-290.000000, -850.000000)">
            <g id="lr" transform="translate(290.000000, 850.000000)">
                <mask id="mask-2" fill="white">
                    <use xlink:href="#path-1"></use>
                </mask>
                <g id="Path"></g>
                <g id="Group" mask="url(#mask-2)">
                    <polygon id="Path" fill="#FFFFFF" points="0 0 210.807101 0 210.807101 140.625 0 140.625"></polygon>
                    <polygon id="Path" fill="#000066" points="0 0 63.8817716 0 63.8817716 63.9404297 0 63.9404297"></polygon>
                    <polygon id="Path" fill="#CC0000" points="0 127.688599 210.807101 127.688599 210.807101 140.625 0 140.625"></polygon>
                    <path d="M0,127.825928 L210.807101,127.825928 L210.807101,140.625 L0,140.625 L0,127.825928 Z M0,102.310181 L210.807101,102.310181 L210.807101,114.99939 L0,114.99939 L0,102.310181 Z M0,76.7120361 L210.285505,76.7120361 L210.285505,89.5385742 L0,89.5385742 L0,76.7120361 Z M63.8817716,0 L210.779649,0 L210.779649,12.7716064 L63.8817716,12.7716064 L63.8817716,0 Z M63.8817716,51.0864258 L210.779649,51.0864258 L210.779649,63.9404297 L63.8817716,63.9404297 L63.8817716,51.0864258 Z M63.8817716,25.6256104 L210.779649,25.6256104 L210.779649,38.3972168 L63.8817716,38.3972168 L63.8817716,25.6256104 Z" id="Shape" fill="#CC0000" fill-rule="nonzero"></path>
                    <polygon id="Path" fill="#FFFFFF" points="45.6533675 48.7518311 31.7349927 40.2374268 17.8989751 48.8342285 23.0325769 34.854126 9.22401171 26.2298584 26.3268668 26.1199951 31.625183 12.1948242 37.0607613 26.0925293 54.1636164 26.0925293 40.4099561 34.7991943"></polygon>
                </g>
            </g>
        </g>
    </g>
</svg>