<?xml version="1.0" encoding="UTF-8"?>
<svg width="200px" height="141px" viewBox="0 0 200 141" version="1.1" xmlns="http://www.w3.org/2000/svg" xmlns:xlink="http://www.w3.org/1999/xlink">
    <!-- Generator: Sketch 52.5 (67469) - http://www.bohemiancoding.com/sketch -->
    <title>mz</title>
    <desc>Created with Sketch.</desc>
    <defs>
        <polygon id="path-1" points="0 0 199.912152 0 199.912152 141 0 141"></polygon>
    </defs>
    <g id="Flags" stroke="none" stroke-width="1" fill="none" fill-rule="evenodd">
        <g id="Africa" transform="translate(-950.000000, -1050.000000)">
            <g id="mz" transform="translate(950.000000, 1050.000000)">
                <mask id="mask-2" fill="white">
                    <use xlink:href="#path-1"></use>
                </mask>
                <g id="Path"></g>
                <g id="Group" mask="url(#mask-2)">
                    <polygon id="Path" fill="#009A00" points="0 0 210.834553 0 210.834553 43.9453125 0 43.9453125"></polygon>
                    <polygon id="Path" fill="#FFFFFF" points="0 43.9453125 210.834553 43.9453125 210.834553 48.3398438 0 48.3398438"></polygon>
                    <polygon id="Path" fill="#000000" points="0 48.3398438 210.834553 48.3398438 210.834553 92.2851562 0 92.2851562"></polygon>
                    <polygon id="Path" fill="#FFFFFF" points="0 92.2851562 210.834553 92.2851562 210.834553 96.6796875 0 96.6796875"></polygon>
                    <polygon id="Path" fill="#FFCA00" points="0 96.6796875 210.834553 96.6796875 210.834553 140.625 0 140.625"></polygon>
                    <polygon id="Path" fill="#FF0000" points="0 0 0 140.625 92.2401171 70.3125"></polygon>
                    <polygon id="Path" fill="#FFCA00" points="54.4930454 91.4611816 40.4374085 81.161499 26.3817716 91.4611816 31.8448023 74.899292 17.7068082 64.7094727 35.1390922 64.7644043 40.4374085 48.1750488 45.7631772 64.7918701 63.1954612 64.7094727 49.0574671 74.899292"></polygon>
                    <path d="M28.2210835,79.8980713 L38.3784773,79.8980713 C39.2020498,80.8044434 40.9864568,81.1889648 42.715959,79.8980713 C45.9004392,78.1402588 52.0497804,79.8980713 52.0497804,79.8980713 L53.2576867,78.6071777 L50.3202782,68.939209 L49.249634,67.7856445 C49.249634,67.7856445 46.9710835,66.4123535 42.6610542,66.8792725 C38.3510249,67.3461914 36.841142,66.7419434 36.841142,66.7419434 C36.841142,66.7419434 33.0801611,67.1813965 32.0095168,67.7307129 L30.8016105,68.939209 L28.2210835,79.8980713 Z" id="Path" stroke="#000000" stroke-width="0.55" fill="#FFFFFF" stroke-linecap="round" stroke-linejoin="round"></path>
                    <path d="M30.2800146,77.3986816 C30.2800146,77.3986816 39.943265,76.1901855 42.7434114,79.8980713 C41.1786237,80.9967041 39.7785505,81.0791016 38.2961201,79.9804688 C38.5157394,79.5684814 41.7551245,76.1901855 50.0183016,77.3162842" id="Path" stroke="#000000" stroke-width="0.55" stroke-linecap="round" stroke-linejoin="round"></path>
                    <path d="M40.6295754,67.7307129 L40.5472182,78.3874512 M49.249634,67.868042 L51.0614934,76.3549805" id="Shape" stroke="#000000" stroke-width="0.55"></path>
                    <path d="M32.1193265,67.7307129 L31.1035871,72.1252441" id="Path" stroke="#000000" stroke-width="0.5" stroke-linecap="round" stroke-linejoin="round"></path>
                    <path d="M21.6599561,81.0516357 L24.0208638,83.8531494 C24.295388,84.0179443 24.5699122,84.0179443 24.8169839,83.8531494 L28.3308931,79.6234131 L29.8133236,77.7832031 C30.0603953,77.5085449 30.1153001,77.2064209 30.0878477,76.9592285 L32.942899,74.4049072 L33.5468521,74.4598389 C33.272328,74.4049072 33.0801611,74.2675781 33.272328,73.9654541 L33.9311859,73.4710693 L34.4253294,74.1027832 C34.4253294,74.1027832 33.7115666,75.0366211 33.6292094,75.0366211 L32.8605417,75.0366211 L31.3781113,76.3824463 L32.0369693,76.9317627 L32.9978038,79.6234131 L34.2057101,78.7719727 L33.4370425,76.0253906 L35.1116398,74.1851807 L34.4802343,73.1964111 L34.9194729,72.6470947 C34.9194729,72.6470947 40.7668375,76.3275146 43.045388,75.3387451 C43.1002928,75.3387451 43.1826501,72.7020264 43.1826501,72.7020264 C43.1826501,72.7020264 37.0882138,72.0703125 36.9509517,70.8618164 C36.8136896,69.6533203 38.3235725,69.4885254 38.3235725,69.4885254 L37.6647145,68.6096191 L37.8019766,68.1152344 L38.8726208,69.4335937 L41.260981,67.401123 L55.3989751,83.4960937 C56.1676428,83.1939697 56.3323572,83.001709 56.3872621,82.232666 L42.5512445,66.3299561 L43.5944363,65.2038574 C43.8140556,64.956665 43.8689605,64.8742676 43.8689605,64.4897461 L45.5161054,63.0889893 C45.9473969,63.236925 46.315376,63.5275767 46.5592972,63.9129639 L51.0614934,60.1501465 C51.1713031,60.2600098 51.5281845,60.369873 51.7752562,60.2600098 L59.1599561,53.1463623 L51.1163982,58.8317871 L50.8418741,58.6395264 C50.8418741,58.392334 51.1163982,58.3648682 50.8418741,57.925415 C50.5124451,57.5408936 50.045754,58.2824707 49.9908492,58.2824707 C49.9084919,58.2824707 48.8103953,57.8979492 48.5633236,57.4035645 L48.5084187,58.694458 L46.4494876,60.6170654 L44.8846999,60.534668 L42.6336018,62.7319336 L42.3590776,63.5559082 L42.715959,64.2974854 C42.715959,64.2974854 41.5080527,65.3411865 41.5080527,65.2862549 C41.5080527,65.2038574 41.260981,64.956665 41.2335286,64.9291992 L42.2767204,63.9953613 L42.4139824,63.3636475 L42.0845534,62.8143311 C41.9747438,62.8967285 40.6570278,64.2974854 40.5746706,64.1326904 L36.7313324,59.8754883 L36.9509517,59.0789795 L34.5625915,56.4697266 C33.6841142,56.1676025 32.284041,56.1126709 32.0095168,58.0352783 C31.7898975,58.4747314 29.9780381,58.09021 29.9780381,58.09021 L28.9897511,58.3099365 L23.3894583,66.192627 L26.4915813,69.9279785 L32.8605417,61.8804932 L33.0527086,59.6008301 L34.3704246,61.0839844 C34.8371157,61.138916 35.2489019,61.1663818 35.6606881,60.9466553 L39.4216691,65.1489258 L38.7902635,65.7806396 L39.3393119,66.3848877 L39.9981698,65.9454346 L40.2452416,66.3024902 C39.943265,66.4672852 39.6961933,66.7144775 39.3942167,66.8792725 C38.9000732,66.5496826 38.4059297,66.1376953 38.4333821,65.5059814 L36.3195461,67.2637939 L36.2371889,67.5933838 L29.9505857,72.8118896 L29.4015373,72.8942871 L29.2642753,74.5422363 L33.3546852,71.1364746 L33.3546852,70.6420898 L33.7664714,70.9991455 L36.9509517,68.4448242 C36.9509517,68.4448242 37.170571,68.7194824 37.0882138,68.7194824 C37.0058565,68.7194824 34.2606149,71.2738037 34.2606149,71.2738037 L34.2057101,71.5484619 L33.7115666,71.987915 L33.4370425,71.7681885 L29.5937042,75.1739502 L29.0446559,75.1739502 L26.9308199,77.2888184 C26.3817716,77.34375 25.9150805,77.3986816 25.4483895,77.7008057 L21.6599561,81.0516357 Z" id="Path" stroke="#000000" stroke-width="0.5" fill="#000000" stroke-linecap="round" stroke-linejoin="round"></path>
                </g>
            </g>
        </g>
    </g>
</svg>