<?xml version="1.0" encoding="UTF-8"?>
<svg width="200px" height="135px" viewBox="0 0 200 135" version="1.1" xmlns="http://www.w3.org/2000/svg" xmlns:xlink="http://www.w3.org/1999/xlink">
    <!-- Generator: Sketch 52.5 (67469) - http://www.bohemiancoding.com/sketch -->
    <title>mm</title>
    <desc>Created with Sketch.</desc>
    <g id="Flags" stroke="none" stroke-width="1" fill="none" fill-rule="evenodd">
        <g id="Asia" transform="translate(-70.000000, -1049.000000)">
            <g id="mm" transform="translate(70.000000, 1048.000000)">
                <polygon id="Path" fill="#FECB00" points="0 1.6471875 200 1.6471875 200 46.175 0 46.175"></polygon>
                <polygon id="Path" fill="#EA2839" points="0 90.675 200 90.675 200 135.175 0 135.175"></polygon>
                <polygon id="Path" fill="#34B233" points="0 46.175 200 46.175 200 90.675 0 90.675"></polygon>
                <g id="b-link" transform="translate(10.000000, 0.000000)" fill="#FFFFFF">
                    <g id="b">
                        <g id="a-link" transform="translate(73.713035, 93.816274) rotate(-144.000000) translate(-73.713035, -93.816274) translate(21.213035, 44.316274)">
                            <polygon id="a" points="52.8768116 24.68025 73.7050725 73.875 32.0485507 73.875"></polygon>
                        </g>
                        <g id="a-link" transform="translate(63.964494, 66.701080) rotate(-72.000000) translate(-63.964494, -66.701080) translate(11.464494, 17.201080)">
                            <polygon id="a" points="52.8768116 24.68025 73.7050725 73.875 32.0485507 73.875"></polygon>
                        </g>
                        <polygon id="a" points="88.5 24.68025 109.328261 73.875 67.6717391 73.875"></polygon>
                        <g id="a-link" transform="translate(112.802624, 65.984342) rotate(72.000000) translate(-112.802624, -65.984342) translate(60.302624, 16.484342)">
                            <polygon id="a" points="52.8768116 24.68025 73.7050725 73.875 32.0485507 73.875"></polygon>
                        </g>
                        <g id="a-link" transform="translate(103.896659, 93.373305) rotate(144.000000) translate(-103.896659, -93.373305) translate(51.396659, 43.873305)">
                            <polygon id="a" points="52.8768116 24.68025 73.7050725 73.875 32.0485507 73.875"></polygon>
                        </g>
                    </g>
                </g>
            </g>
        </g>
    </g>
</svg>