<?xml version="1.0" encoding="UTF-8"?>
<svg width="200px" height="150px" viewBox="0 0 200 150" version="1.1" xmlns="http://www.w3.org/2000/svg" xmlns:xlink="http://www.w3.org/1999/xlink">
    <!-- Generator: Sketch 52.5 (67469) - http://www.bohemiancoding.com/sketch -->
    <title>sy</title>
    <desc>Created with Sketch.</desc>
    <g id="Flags" stroke="none" stroke-width="1" fill="none" fill-rule="evenodd">
        <g id="Asia" transform="translate(-290.000000, -1450.000000)">
            <g id="sy" transform="translate(290.000000, 1450.000000)">
                <rect id="Rectangle" fill="#FFFFFF" x="0" y="50" width="200" height="50"></rect>
                <rect id="Rectangle" fill="#000000" x="0" y="100" width="200" height="50"></rect>
                <polygon id="Path" fill="#FF0000" points="0 0 200 0 200 50 0 50"></polygon>
                <path d="M63.09375,87.8125 L54.09375,81.28125 L45.125,87.875 L48.46875,77.1875 L39.5,70.5625 L50.5625,70.46875 L54,59.8125 L57.53125,70.4375 L68.59375,70.4375 L59.6875,77.15625 L63.09375,87.84375 L63.09375,87.8125 Z M159.21875,87.8125 L150.21875,81.28125 L141.25,87.875 L144.59375,77.1875 L135.65625,70.5625 L146.71875,70.46875 L150.15625,59.8125 L153.65625,70.4375 L164.71875,70.4375 L155.8125,77.125 L159.25,87.8125 L159.21875,87.8125 Z" id="Shape" fill="#009900"></path>
            </g>
        </g>
    </g>
</svg>