<?xml version="1.0" encoding="UTF-8"?>
<svg width="200px" height="150px" viewBox="0 0 200 150" version="1.1" xmlns="http://www.w3.org/2000/svg" xmlns:xlink="http://www.w3.org/1999/xlink">
    <!-- Generator: Sketch 52.5 (67469) - http://www.bohemiancoding.com/sketch -->
    <title>tj</title>
    <desc>Created with Sketch.</desc>
    <g id="Flags" stroke="none" stroke-width="1" fill="none" fill-rule="evenodd">
        <g id="Asia" transform="translate(-730.000000, -1450.000000)">
            <g id="tj" transform="translate(730.000000, 1450.000000)">
                <polygon id="Path" fill="#006600" points="0 0 200 0 200 150 0 150"></polygon>
                <polygon id="Path" fill="#FFFFFF" points="0 0 200 0 200 107.15625 0 107.15625"></polygon>
                <polygon id="Path" fill="#CC0000" points="0 0 200 0 200 42.84375 0 42.84375"></polygon>
                <path d="M94,73 C94.6046844,71.974586 95.8118976,71.4691521 96.9667817,71.7578732 C98.1216658,72.0465942 98.9490027,73.0606655 99,74.25 L99,85 L101,85 L101,74.28125 C101.050997,73.0919155 101.878334,72.0778442 103.033218,71.7891232 C104.188102,71.5004021 105.395316,72.005836 106,73.03125 C106.850666,70.4292213 105.927231,67.5754572 103.713478,65.9650277 C101.499725,64.3545983 98.500275,64.3545983 96.2865219,65.9650277 C94.0727688,67.5754572 93.1493342,70.4292213 94,73.03125" id="Path" fill="#F8C300"></path>
                <path d="M95.4375,70.21875 C97.2366298,69.8467622 99.0725266,70.6641135 100,72.25 C100.927473,70.6641135 102.76337,69.8467622 104.5625,70.21875 C104.291171,67.9044728 102.330128,66.1599138 100,66.1599138 C97.6698716,66.1599138 95.7088291,67.9044728 95.4375,70.21875" id="Path" fill="#FFFFFF"></path>
                <path d="M99,80.71875 C98.7289807,83.8266562 96.7024086,86.504939 93.7851917,87.6105509 C90.8679748,88.7161628 87.5753282,88.0538395 85.3125,85.90625 C84.3594967,88.3384468 82.3336839,90.1920713 79.8266196,90.9258462 C77.3195554,91.6596211 74.6139988,91.1907877 72.5,89.65625 C73.28125,97.46875 85,95.875 85.875,88.28125 C89.53125,94.75 97.625,92.875 100,84.96875 L99,80.71875 Z" id="a" fill="#F8C300"></path>
                <g id="a-link" transform="translate(113.750000, 87.812500) scale(-1, 1) translate(-113.750000, -87.812500) translate(100.000000, 80.625000)" fill="#F8C300">
                    <path d="M26.5,0.09375 C26.2289807,3.20165615 24.2024086,5.87993901 21.2851917,6.9855509 C18.3679748,8.09116278 15.0753282,7.42883955 12.8125,5.28125 C11.8594967,7.71344682 9.83368387,9.56707134 7.32661963,10.3008462 C4.81955539,11.0346211 2.11399878,10.5657877 -2.84217094e-14,9.03125 C0.78125,16.84375 12.5,15.25 13.375,7.65625 C17.03125,14.125 25.125,12.25 27.5,4.34375 L26.5,0.09375 Z" id="a"></path>
                </g>
                <path d="M91.1875,94.5625 C89.53125,98.09375 86.28125,98.6875 83.4375,95.84375 C83.4375,95.84375 84.5625,95.03125 85.8125,94.8125 C85.5625,93.84375 86.03125,92.46875 86.71875,91.75 C87.628736,92.3468852 88.3026835,93.2417989 88.625,94.28125 C90.34375,94.0625 91.1875,94.59375 91.1875,94.59375 L91.1875,94.5625 Z" id="b" fill="#F8C300"></path>
                <g id="b-link" transform="translate(100.186770, 93.662322) rotate(9.400000) translate(-100.186770, -93.662322) translate(96.280520, 90.537322)" fill="#F8C300">
                    <path d="M7.75,3 C6.09375,6.53125 2.84375,7.125 0,4.28125 C0,4.28125 1.125,3.46875 2.375,3.25 C2.125,2.28125 2.59375,0.90625 3.28125,0.1875 C4.19123605,0.784385157 4.86518345,1.67929893 5.1875,2.71875 C6.90625,2.5 7.75,3.03125 7.75,3.03125 L7.75,3 Z" id="b"></path>
                </g>
                <g id="b-link" transform="translate(112.889434, 94.725894) rotate(18.700000) translate(-112.889434, -94.725894) translate(108.983184, 91.600894)" fill="#F8C300">
                    <path d="M7.75,3 C6.09375,6.53125 2.84375,7.125 0,4.28125 C0,4.28125 1.125,3.46875 2.375,3.25 C2.125,2.28125 2.59375,0.90625 3.28125,0.1875 C4.19123605,0.784385157 4.86518345,1.67929893 5.1875,2.71875 C6.90625,2.5 7.75,3.03125 7.75,3.03125 L7.75,3 Z" id="b"></path>
                </g>
                <path d="M79.21875,102.4375 C92.7789369,98.401242 107.221063,98.401242 120.78125,102.4375" id="Path" stroke="#F8C300" stroke-width="5.5"></path>
                <g id="Group" transform="translate(94.642891, 45.866106)" fill="#F8C300" fill-rule="nonzero">
                    <polygon id="c" points="8.59205344 10.0239124 0.122859946 3.87068295 10.5913588 3.87068295 2.12216531 10.0239124 5.35710937 0.0677781478"></polygon>
                </g>
                <g id="d" transform="translate(64.643078, 49.723412)" fill="#F8C300" fill-rule="nonzero">
                    <g id="c-link" transform="translate(14.999906, 0.171428)">
                        <polygon id="c" points="8.59205344 10.0239124 0.122859946 3.87068295 10.5913588 3.87068295 2.12216531 10.0239124 5.35710938 0.0677781478"></polygon>
                    </g>
                    <g id="c-link" transform="translate(4.028546, 11.142788)">
                        <polygon id="c" points="8.59205344 10.0239124 0.122859946 3.87068295 10.5913588 3.87068295 2.12216531 10.0239124 5.35710938 0.0677781478"></polygon>
                    </g>
                    <g id="c-link" transform="translate(0.000000, 26.142694)">
                        <polygon id="c" points="8.59205344 10.0239124 0.122859946 3.87068295 10.5913588 3.87068295 2.12216531 10.0239124 5.35710938 0.0677781478"></polygon>
                    </g>
                </g>
                <g id="d-link" transform="translate(122.500000, 67.812500) scale(-1, 1) translate(-122.500000, -67.812500) translate(109.375000, 49.687500)" fill="#F8C300" fill-rule="nonzero">
                    <g id="d" transform="translate(0.268078, 0.035913)">
                        <g id="c-link" transform="translate(14.999906, 0.171428)">
                            <polygon id="c" points="8.59205344 10.0239124 0.122859946 3.87068295 10.5913588 3.87068295 2.12216531 10.0239124 5.35710938 0.0677781478"></polygon>
                        </g>
                        <g id="c-link" transform="translate(4.028546, 11.142788)">
                            <polygon id="c" points="8.59205344 10.0239124 0.122859946 3.87068295 10.5913588 3.87068295 2.12216531 10.0239124 5.35710938 0.0677781478"></polygon>
                        </g>
                        <g id="c-link" transform="translate(0.000000, 26.142694)">
                            <polygon id="c" points="8.59205344 10.0239124 0.122859946 3.87068295 10.5913588 3.87068295 2.12216531 10.0239124 5.35710938 0.0677781478"></polygon>
                        </g>
                    </g>
                </g>
            </g>
        </g>
    </g>
</svg>