<?xml version="1.0" encoding="UTF-8"?>
<svg width="200px" height="141px" viewBox="0 0 200 141" version="1.1" xmlns="http://www.w3.org/2000/svg" xmlns:xlink="http://www.w3.org/1999/xlink">
    <!-- Generator: Sketch 52.5 (67469) - http://www.bohemiancoding.com/sketch -->
    <title>tl</title>
    <desc>Created with Sketch.</desc>
    <defs>
        <polygon id="path-1" points="-1.27897692e-13 0 199.912152 0 199.912152 141 -1.27897692e-13 141"></polygon>
    </defs>
    <g id="Flags" stroke="none" stroke-width="1" fill="none" fill-rule="evenodd">
        <g id="Asia" transform="translate(-950.000000, -1450.000000)">
            <g id="tl" transform="translate(950.000000, 1450.000000)">
                <mask id="mask-2" fill="white">
                    <use xlink:href="#path-1"></use>
                </mask>
                <g id="Path"></g>
                <g id="Group" mask="url(#mask-2)">
                    <polygon id="Path" fill="#CB000F" points="0 0 283.089312 0 283.089312 140.625 0 140.625"></polygon>
                    <path d="M0,0 C0.878477306,0 140.556369,70.5047607 140.556369,70.5047607 L0,140.625 L0,0 Z" id="Path" fill="#F8C00C"></path>
                    <path d="M0,0 C0.576500732,0 93.5029283,70.5047607 93.5029283,70.5047607 L0,140.625 L0,0 Z" id="Path" fill="#000000"></path>
                    <polygon id="Path" fill="#FFFFFF" points="51.5281845 81.9030762 34.8645681 78.1951904 26.3543192 92.6971436 24.9816984 76.3000488 8.31808199 72.6470947 23.3894583 65.8081055 22.4835286 49.520874 33.5193997 61.44104 48.7280381 54.4921875 40.7942899 69.3237305 51.5556369 81.9030762"></polygon>
                </g>
            </g>
        </g>
    </g>
</svg>