<?xml version="1.0" encoding="UTF-8"?>
<svg width="200px" height="150px" viewBox="0 0 200 150" version="1.1" xmlns="http://www.w3.org/2000/svg" xmlns:xlink="http://www.w3.org/1999/xlink">
    <!-- Generator: Sketch 52.5 (67469) - http://www.bohemiancoding.com/sketch -->
    <title>tv</title>
    <desc>Created with Sketch.</desc>
    <defs>
        <polygon id="path-1" points="0 0 200 0 200 150 0 150"></polygon>
    </defs>
    <g id="Flags" stroke="none" stroke-width="1" fill="none" fill-rule="evenodd">
        <g id="Oceania" transform="translate(-730.000000, -650.000000)">
            <g id="tv" transform="translate(730.000000, 650.000000)">
                <mask id="mask-2" fill="white">
                    <use xlink:href="#path-1"></use>
                </mask>
                <g id="Path"></g>
                <g id="Group" mask="url(#mask-2)">
                    <g transform="translate(-0.937500, -0.312500)">
                        <g id="Group" stroke-width="1" fill="none" fill-rule="evenodd" transform="translate(0.937500, 0.113956)">
                            <polygon id="Path" fill="#009FCA" points="102.003275 1.78364312 199.9748 1.78364312 199.9748 150.171244 102.003275 150.171244"></polygon>
                            <rect id="Rectangle" fill="#009FCA" x="0" y="0.201379062" width="105.531056" height="149.998633"></rect>
                        </g>
                        <polygon id="Path" fill="#FFFFFF" fill-rule="evenodd" points="0.9375 0.3125 124.6875 0.3125 124.6875 61.75 0.9375 61.75"></polygon>
                        <polygon id="Path" fill="#CC0000" fill-rule="evenodd" points="0.9375 0.3125 0.9375 4.9375 30.46875 20.09375 41.5625 20.40625"></polygon>
                        <polygon id="Path" fill="#000066" fill-rule="evenodd" points="13.59375 0.3125 49.375 19 49.375 0.3125"></polygon>
                        <polygon id="Path" fill="#CC0000" fill-rule="evenodd" points="54.15625 0.3125 54.15625 24.1875 0.9375 24.1875 0.9375 37.8125 54.15625 37.8125 54.15625 61.6875 70.5 61.6875 70.5 37.8125 123.75 37.8125 123.75 24.1875 70.53125 24.1875 70.53125 0.3125"></polygon>
                        <polygon id="Path" fill="#000066" fill-rule="evenodd" points="75.3125 0.3125 75.3125 17.9375 110.3125 0.4375"></polygon>
                        <polygon id="Path" fill="#CC0000" fill-rule="evenodd" points="76.40625 19.84375 86.25 19.78125 124.5 0.4375 114.34375 0.625"></polygon>
                        <polygon id="Path" fill="#000066" fill-rule="evenodd" points="0.9375 41.78125 0.9375 54.875 25.5 41.9375"></polygon>
                        <path d="M95.5,42.34375 L85.25,42.25 L123.84375,61.46875 L123.59375,57.09375 L95.46875,42.34375 L95.5,42.34375 Z M10.53125,61.78125 L46.71875,42.8125 L37.21875,42.875 L0.9375,61.75 L10.53125,61.78125 Z" id="Shape" fill="#CC0000" fill-rule="nonzero"></path>
                        <path d="M124.25,5.71875 L95,20.1875 L123.84375,20.3125 L123.84375,41.875 L99.28125,41.875 L123.625,55.09375 L123.96875,61.78125 L110.96875,61.625 L75.40625,44.1875 L75.40625,61.78125 L49.5,61.78125 L49.5,44.1875 L16.125,61.75 L1.0625,61.78125 L1.0625,123.15625 L246.625,123.15625 L246.625,0.40625 L124.5,0.3125 L124.25,5.71875 Z M1.0625,7.25 L0.9375,20 L26.78125,20.3125 L1.0625,7.25 Z" id="Shape" fill="#000066" fill-rule="nonzero"></path>
                        <g id="Group" stroke-width="1" fill="none" fill-rule="evenodd" transform="translate(0.194616, 0.312500)">
                            <polygon id="Path" fill="#009FCA" points="123.566434 0 246.414747 0 246.414747 123.96435 123.591197 123.96435"></polygon>
                            <rect id="Rectangle" fill="#009FCA" x="0.173339688" y="61.1324194" width="130.202868" height="62.8319306"></rect>
                        </g>
                        <path d="M186.34375,38.65625 L195,38.65625 L188.03125,43.40625 L190.6875,51.125 L183.71875,46.34375 L176.78125,51.125 L179.4375,43.40625 L172.46875,38.65625 L181.0625,38.65625 L183.71875,30.9375 L186.34375,38.65625 Z M164.71875,100.15625 L173.34375,100.15625 L166.375,104.90625 L169.03125,112.625 L162.0625,107.84375 L155.09375,112.625 L157.78125,104.90625 L150.8125,100.15625 L159.375,100.15625 L162.03125,92.4375 L164.71875,100.15625 Z M186.34375,86.21875 L195,86.21875 L188.03125,90.96875 L190.6875,98.6875 L183.71875,93.90625 L176.78125,98.6875 L179.4375,90.96875 L172.46875,86.21875 L181.0625,86.21875 L183.71875,78.5 L186.34375,86.21875 Z M93.375,130.84375 L102,130.84375 L95,135.5625 L97.6875,143.25 L90.71875,138.5 L83.75,143.25 L86.4375,135.5625 L79.4375,130.78125 L88.0625,130.78125 L90.71875,123.09375 L93.375,130.84375 Z M112.9375,106.9375 L104.3125,106.9375 L111.28125,102.15625 L108.625,94.46875 L115.59375,99.21875 L122.5625,94.46875 L119.875,102.15625 L126.84375,106.9375 L118.25,106.9375 L115.59375,114.625 L112.9375,106.9375 Z M138.34375,71.78125 L129.6875,71.78125 L136.65625,67.03125 L134,59.3125 L140.96875,64.09375 L147.9375,59.3125 L145.25,67.03125 L152.21875,71.78125 L143.625,71.78125 L140.96875,79.5 L138.34375,71.78125 Z M159.6875,64.5 L151.0625,64.5 L158.0625,59.71875 L155.375,52.03125 L162.34375,56.78125 L169.3125,52.03125 L166.625,59.71875 L173.625,64.5 L165,64.5 L162.34375,72.1875 L159.6875,64.5 Z M138.34375,125.3125 L129.6875,125.3125 L136.65625,120.5625 L134.0625,112.8125 L141.03125,117.5625 L148,112.8125 L145.3125,120.53125 L152.28125,125.28125 L143.6875,125.28125 L141.03125,133 L138.34375,125.3125 Z M112.9375,131.53125 L104.3125,131.53125 L111.28125,126.78125 L108.625,119.0625 L115.59375,123.8125 L122.5625,119.0625 L119.875,126.75 L126.875,131.5625 L118.28125,131.5625 L115.625,139.28125 L112.9375,131.53125 Z" id="Shape" fill="#FFF40D" fill-rule="evenodd"></path>
                    </g>
                </g>
            </g>
        </g>
    </g>
</svg>