<?xml version="1.0" encoding="UTF-8"?>
<svg width="200px" height="150px" viewBox="0 0 200 150" version="1.1" xmlns="http://www.w3.org/2000/svg" xmlns:xlink="http://www.w3.org/1999/xlink">
    <!-- Generator: Sketch 52.5 (67469) - http://www.bohemiancoding.com/sketch -->
    <title>ve</title>
    <desc>Created with Sketch.</desc>
    <g id="Flags" stroke="none" stroke-width="1" fill="none" fill-rule="evenodd">
        <g id="South-America" transform="translate(-1170.000000, -450.000000)">
            <g id="ve" transform="translate(1170.000000, 450.000000)">
                <polygon id="Path" fill="#CF142B" points="0 0 200 0 200 150 0 150"></polygon>
                <polygon id="Path" fill="#00247D" points="0 0 200 0 200 100 0 100"></polygon>
                <polygon id="Path" fill="#FFCC00" points="0 0 200 0 200 50 0 50"></polygon>
                <g id="f" transform="translate(96.250000, 52.500000)" fill="#FFFFFF">
                    <g id="e">
                        <g id="d-link" transform="translate(11.238578, 10.030166) rotate(10.000000) translate(-11.238578, -10.030166) translate(2.488578, 1.905166)">
                            <g id="d">
                                <g id="c" transform="translate(6.250000, 0.000000)">
                                    <g id="b">
                                        <polygon id="a" points="2.5 0 0.625 6 4.125 7.125"></polygon>
                                        <g id="a-link" transform="translate(2.500000, 3.750000) scale(-1, 1) translate(-2.500000, -3.750000) ">
                                            <polygon id="a" points="2.5 0 0.625 6 4.125 7.125"></polygon>
                                        </g>
                                    </g>
                                    <g id="b-link" transform="translate(4.877641, 5.477458) rotate(72.000000) translate(-4.877641, -5.477458) translate(2.377641, 1.727458)">
                                        <g id="b">
                                            <polygon id="a" points="2.5 0 0.625 6 4.125 7.125"></polygon>
                                            <g id="a-link" transform="translate(2.500000, 3.750000) scale(-1, 1) translate(-2.500000, -3.750000) ">
                                                <polygon id="a" points="2.5 0 0.625 6 4.125 7.125"></polygon>
                                            </g>
                                        </g>
                                    </g>
                                </g>
                                <g id="b-link" transform="translate(6.372359, 5.477458) rotate(-72.000000) translate(-6.372359, -5.477458) translate(3.872359, 1.727458)">
                                    <g id="b">
                                        <polygon id="a" points="2.5 0 0.625 6 4.125 7.125"></polygon>
                                        <g id="a-link" transform="translate(2.500000, 3.750000) scale(-1, 1) translate(-2.500000, -3.750000) ">
                                            <polygon id="a" points="2.5 0 0.625 6 4.125 7.125"></polygon>
                                        </g>
                                    </g>
                                </g>
                                <g id="c-link" transform="translate(7.462189, 8.730734) rotate(144.000000) translate(-7.462189, -8.730734) translate(2.462189, 3.730734)">
                                    <g id="c">
                                        <g id="b">
                                            <polygon id="a" points="2.5 0 0.625 6 4.125 7.125"></polygon>
                                            <g id="a-link" transform="translate(2.500000, 3.750000) scale(-1, 1) translate(-2.500000, -3.750000) ">
                                                <polygon id="a" points="2.5 0 0.625 6 4.125 7.125"></polygon>
                                            </g>
                                        </g>
                                        <g id="b-link" transform="translate(4.877641, 5.477458) rotate(72.000000) translate(-4.877641, -5.477458) translate(2.377641, 1.727458)">
                                            <g id="b">
                                                <polygon id="a" points="2.5 0 0.625 6 4.125 7.125"></polygon>
                                                <g id="a-link" transform="translate(2.500000, 3.750000) scale(-1, 1) translate(-2.500000, -3.750000) ">
                                                    <polygon id="a" points="2.5 0 0.625 6 4.125 7.125"></polygon>
                                                </g>
                                            </g>
                                        </g>
                                    </g>
                                </g>
                            </g>
                        </g>
                        <g id="d-link" transform="translate(25.312500, 15.152654) rotate(30.000000) translate(-25.312500, -15.152654) translate(16.562500, 7.027654)">
                            <g id="d">
                                <g id="c" transform="translate(6.250000, 0.000000)">
                                    <g id="b">
                                        <polygon id="a" points="2.5 0 0.625 6 4.125 7.125"></polygon>
                                        <g id="a-link" transform="translate(2.500000, 3.750000) scale(-1, 1) translate(-2.500000, -3.750000) ">
                                            <polygon id="a" points="2.5 0 0.625 6 4.125 7.125"></polygon>
                                        </g>
                                    </g>
                                    <g id="b-link" transform="translate(4.877641, 5.477458) rotate(72.000000) translate(-4.877641, -5.477458) translate(2.377641, 1.727458)">
                                        <g id="b">
                                            <polygon id="a" points="2.5 0 0.625 6 4.125 7.125"></polygon>
                                            <g id="a-link" transform="translate(2.500000, 3.750000) scale(-1, 1) translate(-2.500000, -3.750000) ">
                                                <polygon id="a" points="2.5 0 0.625 6 4.125 7.125"></polygon>
                                            </g>
                                        </g>
                                    </g>
                                </g>
                                <g id="b-link" transform="translate(6.372359, 5.477458) rotate(-72.000000) translate(-6.372359, -5.477458) translate(3.872359, 1.727458)">
                                    <g id="b">
                                        <polygon id="a" points="2.5 0 0.625 6 4.125 7.125"></polygon>
                                        <g id="a-link" transform="translate(2.500000, 3.750000) scale(-1, 1) translate(-2.500000, -3.750000) ">
                                            <polygon id="a" points="2.5 0 0.625 6 4.125 7.125"></polygon>
                                        </g>
                                    </g>
                                </g>
                                <g id="c-link" transform="translate(7.462189, 8.730734) rotate(144.000000) translate(-7.462189, -8.730734) translate(2.462189, 3.730734)">
                                    <g id="c">
                                        <g id="b">
                                            <polygon id="a" points="2.5 0 0.625 6 4.125 7.125"></polygon>
                                            <g id="a-link" transform="translate(2.500000, 3.750000) scale(-1, 1) translate(-2.500000, -3.750000) ">
                                                <polygon id="a" points="2.5 0 0.625 6 4.125 7.125"></polygon>
                                            </g>
                                        </g>
                                        <g id="b-link" transform="translate(4.877641, 5.477458) rotate(72.000000) translate(-4.877641, -5.477458) translate(2.377641, 1.727458)">
                                            <g id="b">
                                                <polygon id="a" points="2.5 0 0.625 6 4.125 7.125"></polygon>
                                                <g id="a-link" transform="translate(2.500000, 3.750000) scale(-1, 1) translate(-2.500000, -3.750000) ">
                                                    <polygon id="a" points="2.5 0 0.625 6 4.125 7.125"></polygon>
                                                </g>
                                            </g>
                                        </g>
                                    </g>
                                </g>
                            </g>
                        </g>
                    </g>
                    <g id="e-link" transform="translate(40.148687, 32.457592) rotate(40.000000) translate(-40.148687, -32.457592) translate(21.398687, 18.707592)">
                        <g id="e">
                            <g id="d-link" transform="translate(11.238578, 10.030166) rotate(10.000000) translate(-11.238578, -10.030166) translate(2.488578, 1.905166)">
                                <g id="d">
                                    <g id="c" transform="translate(6.250000, 0.000000)">
                                        <g id="b">
                                            <polygon id="a" points="2.5 0 0.625 6 4.125 7.125"></polygon>
                                            <g id="a-link" transform="translate(2.500000, 3.750000) scale(-1, 1) translate(-2.500000, -3.750000) ">
                                                <polygon id="a" points="2.5 0 0.625 6 4.125 7.125"></polygon>
                                            </g>
                                        </g>
                                        <g id="b-link" transform="translate(4.877641, 5.477458) rotate(72.000000) translate(-4.877641, -5.477458) translate(2.377641, 1.727458)">
                                            <g id="b">
                                                <polygon id="a" points="2.5 0 0.625 6 4.125 7.125"></polygon>
                                                <g id="a-link" transform="translate(2.500000, 3.750000) scale(-1, 1) translate(-2.500000, -3.750000) ">
                                                    <polygon id="a" points="2.5 0 0.625 6 4.125 7.125"></polygon>
                                                </g>
                                            </g>
                                        </g>
                                    </g>
                                    <g id="b-link" transform="translate(6.372359, 5.477458) rotate(-72.000000) translate(-6.372359, -5.477458) translate(3.872359, 1.727458)">
                                        <g id="b">
                                            <polygon id="a" points="2.5 0 0.625 6 4.125 7.125"></polygon>
                                            <g id="a-link" transform="translate(2.500000, 3.750000) scale(-1, 1) translate(-2.500000, -3.750000) ">
                                                <polygon id="a" points="2.5 0 0.625 6 4.125 7.125"></polygon>
                                            </g>
                                        </g>
                                    </g>
                                    <g id="c-link" transform="translate(7.462189, 8.730734) rotate(144.000000) translate(-7.462189, -8.730734) translate(2.462189, 3.730734)">
                                        <g id="c">
                                            <g id="b">
                                                <polygon id="a" points="2.5 0 0.625 6 4.125 7.125"></polygon>
                                                <g id="a-link" transform="translate(2.500000, 3.750000) scale(-1, 1) translate(-2.500000, -3.750000) ">
                                                    <polygon id="a" points="2.5 0 0.625 6 4.125 7.125"></polygon>
                                                </g>
                                            </g>
                                            <g id="b-link" transform="translate(4.877641, 5.477458) rotate(72.000000) translate(-4.877641, -5.477458) translate(2.377641, 1.727458)">
                                                <g id="b">
                                                    <polygon id="a" points="2.5 0 0.625 6 4.125 7.125"></polygon>
                                                    <g id="a-link" transform="translate(2.500000, 3.750000) scale(-1, 1) translate(-2.500000, -3.750000) ">
                                                        <polygon id="a" points="2.5 0 0.625 6 4.125 7.125"></polygon>
                                                    </g>
                                                </g>
                                            </g>
                                        </g>
                                    </g>
                                </g>
                            </g>
                            <g id="d-link" transform="translate(25.312500, 15.152654) rotate(30.000000) translate(-25.312500, -15.152654) translate(16.562500, 7.027654)">
                                <g id="d">
                                    <g id="c" transform="translate(6.250000, 0.000000)">
                                        <g id="b">
                                            <polygon id="a" points="2.5 0 0.625 6 4.125 7.125"></polygon>
                                            <g id="a-link" transform="translate(2.500000, 3.750000) scale(-1, 1) translate(-2.500000, -3.750000) ">
                                                <polygon id="a" points="2.5 0 0.625 6 4.125 7.125"></polygon>
                                            </g>
                                        </g>
                                        <g id="b-link" transform="translate(4.877641, 5.477458) rotate(72.000000) translate(-4.877641, -5.477458) translate(2.377641, 1.727458)">
                                            <g id="b">
                                                <polygon id="a" points="2.5 0 0.625 6 4.125 7.125"></polygon>
                                                <g id="a-link" transform="translate(2.500000, 3.750000) scale(-1, 1) translate(-2.500000, -3.750000) ">
                                                    <polygon id="a" points="2.5 0 0.625 6 4.125 7.125"></polygon>
                                                </g>
                                            </g>
                                        </g>
                                    </g>
                                    <g id="b-link" transform="translate(6.372359, 5.477458) rotate(-72.000000) translate(-6.372359, -5.477458) translate(3.872359, 1.727458)">
                                        <g id="b">
                                            <polygon id="a" points="2.5 0 0.625 6 4.125 7.125"></polygon>
                                            <g id="a-link" transform="translate(2.500000, 3.750000) scale(-1, 1) translate(-2.500000, -3.750000) ">
                                                <polygon id="a" points="2.5 0 0.625 6 4.125 7.125"></polygon>
                                            </g>
                                        </g>
                                    </g>
                                    <g id="c-link" transform="translate(7.462189, 8.730734) rotate(144.000000) translate(-7.462189, -8.730734) translate(2.462189, 3.730734)">
                                        <g id="c">
                                            <g id="b">
                                                <polygon id="a" points="2.5 0 0.625 6 4.125 7.125"></polygon>
                                                <g id="a-link" transform="translate(2.500000, 3.750000) scale(-1, 1) translate(-2.500000, -3.750000) ">
                                                    <polygon id="a" points="2.5 0 0.625 6 4.125 7.125"></polygon>
                                                </g>
                                            </g>
                                            <g id="b-link" transform="translate(4.877641, 5.477458) rotate(72.000000) translate(-4.877641, -5.477458) translate(2.377641, 1.727458)">
                                                <g id="b">
                                                    <polygon id="a" points="2.5 0 0.625 6 4.125 7.125"></polygon>
                                                    <g id="a-link" transform="translate(2.500000, 3.750000) scale(-1, 1) translate(-2.500000, -3.750000) ">
                                                        <polygon id="a" points="2.5 0 0.625 6 4.125 7.125"></polygon>
                                                    </g>
                                                </g>
                                            </g>
                                        </g>
                                    </g>
                                </g>
                            </g>
                        </g>
                    </g>
                </g>
                <g id="f-link" transform="translate(80.879166, 73.069608) rotate(-80.000000) translate(-80.879166, -73.069608) translate(49.004166, 44.944608)" fill="#FFFFFF">
                    <g id="f">
                        <g id="e">
                            <g id="d-link" transform="translate(11.238578, 10.030166) rotate(10.000000) translate(-11.238578, -10.030166) translate(2.488578, 1.905166)">
                                <g id="d">
                                    <g id="c" transform="translate(6.250000, 0.000000)">
                                        <g id="b">
                                            <polygon id="a" points="2.5 0 0.625 6 4.125 7.125"></polygon>
                                            <g id="a-link" transform="translate(2.500000, 3.750000) scale(-1, 1) translate(-2.500000, -3.750000) ">
                                                <polygon id="a" points="2.5 0 0.625 6 4.125 7.125"></polygon>
                                            </g>
                                        </g>
                                        <g id="b-link" transform="translate(4.877641, 5.477458) rotate(72.000000) translate(-4.877641, -5.477458) translate(2.377641, 1.727458)">
                                            <g id="b">
                                                <polygon id="a" points="2.5 0 0.625 6 4.125 7.125"></polygon>
                                                <g id="a-link" transform="translate(2.500000, 3.750000) scale(-1, 1) translate(-2.500000, -3.750000) ">
                                                    <polygon id="a" points="2.5 0 0.625 6 4.125 7.125"></polygon>
                                                </g>
                                            </g>
                                        </g>
                                    </g>
                                    <g id="b-link" transform="translate(6.372359, 5.477458) rotate(-72.000000) translate(-6.372359, -5.477458) translate(3.872359, 1.727458)">
                                        <g id="b">
                                            <polygon id="a" points="2.5 0 0.625 6 4.125 7.125"></polygon>
                                            <g id="a-link" transform="translate(2.500000, 3.750000) scale(-1, 1) translate(-2.500000, -3.750000) ">
                                                <polygon id="a" points="2.5 0 0.625 6 4.125 7.125"></polygon>
                                            </g>
                                        </g>
                                    </g>
                                    <g id="c-link" transform="translate(7.462189, 8.730734) rotate(144.000000) translate(-7.462189, -8.730734) translate(2.462189, 3.730734)">
                                        <g id="c">
                                            <g id="b">
                                                <polygon id="a" points="2.5 0 0.625 6 4.125 7.125"></polygon>
                                                <g id="a-link" transform="translate(2.500000, 3.750000) scale(-1, 1) translate(-2.500000, -3.750000) ">
                                                    <polygon id="a" points="2.5 0 0.625 6 4.125 7.125"></polygon>
                                                </g>
                                            </g>
                                            <g id="b-link" transform="translate(4.877641, 5.477458) rotate(72.000000) translate(-4.877641, -5.477458) translate(2.377641, 1.727458)">
                                                <g id="b">
                                                    <polygon id="a" points="2.5 0 0.625 6 4.125 7.125"></polygon>
                                                    <g id="a-link" transform="translate(2.500000, 3.750000) scale(-1, 1) translate(-2.500000, -3.750000) ">
                                                        <polygon id="a" points="2.5 0 0.625 6 4.125 7.125"></polygon>
                                                    </g>
                                                </g>
                                            </g>
                                        </g>
                                    </g>
                                </g>
                            </g>
                            <g id="d-link" transform="translate(25.312500, 15.152654) rotate(30.000000) translate(-25.312500, -15.152654) translate(16.562500, 7.027654)">
                                <g id="d">
                                    <g id="c" transform="translate(6.250000, 0.000000)">
                                        <g id="b">
                                            <polygon id="a" points="2.5 0 0.625 6 4.125 7.125"></polygon>
                                            <g id="a-link" transform="translate(2.500000, 3.750000) scale(-1, 1) translate(-2.500000, -3.750000) ">
                                                <polygon id="a" points="2.5 0 0.625 6 4.125 7.125"></polygon>
                                            </g>
                                        </g>
                                        <g id="b-link" transform="translate(4.877641, 5.477458) rotate(72.000000) translate(-4.877641, -5.477458) translate(2.377641, 1.727458)">
                                            <g id="b">
                                                <polygon id="a" points="2.5 0 0.625 6 4.125 7.125"></polygon>
                                                <g id="a-link" transform="translate(2.500000, 3.750000) scale(-1, 1) translate(-2.500000, -3.750000) ">
                                                    <polygon id="a" points="2.5 0 0.625 6 4.125 7.125"></polygon>
                                                </g>
                                            </g>
                                        </g>
                                    </g>
                                    <g id="b-link" transform="translate(6.372359, 5.477458) rotate(-72.000000) translate(-6.372359, -5.477458) translate(3.872359, 1.727458)">
                                        <g id="b">
                                            <polygon id="a" points="2.5 0 0.625 6 4.125 7.125"></polygon>
                                            <g id="a-link" transform="translate(2.500000, 3.750000) scale(-1, 1) translate(-2.500000, -3.750000) ">
                                                <polygon id="a" points="2.5 0 0.625 6 4.125 7.125"></polygon>
                                            </g>
                                        </g>
                                    </g>
                                    <g id="c-link" transform="translate(7.462189, 8.730734) rotate(144.000000) translate(-7.462189, -8.730734) translate(2.462189, 3.730734)">
                                        <g id="c">
                                            <g id="b">
                                                <polygon id="a" points="2.5 0 0.625 6 4.125 7.125"></polygon>
                                                <g id="a-link" transform="translate(2.500000, 3.750000) scale(-1, 1) translate(-2.500000, -3.750000) ">
                                                    <polygon id="a" points="2.5 0 0.625 6 4.125 7.125"></polygon>
                                                </g>
                                            </g>
                                            <g id="b-link" transform="translate(4.877641, 5.477458) rotate(72.000000) translate(-4.877641, -5.477458) translate(2.377641, 1.727458)">
                                                <g id="b">
                                                    <polygon id="a" points="2.5 0 0.625 6 4.125 7.125"></polygon>
                                                    <g id="a-link" transform="translate(2.500000, 3.750000) scale(-1, 1) translate(-2.500000, -3.750000) ">
                                                        <polygon id="a" points="2.5 0 0.625 6 4.125 7.125"></polygon>
                                                    </g>
                                                </g>
                                            </g>
                                        </g>
                                    </g>
                                </g>
                            </g>
                        </g>
                        <g id="e-link" transform="translate(40.148687, 32.457592) rotate(40.000000) translate(-40.148687, -32.457592) translate(21.398687, 18.707592)">
                            <g id="e">
                                <g id="d-link" transform="translate(11.238578, 10.030166) rotate(10.000000) translate(-11.238578, -10.030166) translate(2.488578, 1.905166)">
                                    <g id="d">
                                        <g id="c" transform="translate(6.250000, 0.000000)">
                                            <g id="b">
                                                <polygon id="a" points="2.5 0 0.625 6 4.125 7.125"></polygon>
                                                <g id="a-link" transform="translate(2.500000, 3.750000) scale(-1, 1) translate(-2.500000, -3.750000) ">
                                                    <polygon id="a" points="2.5 0 0.625 6 4.125 7.125"></polygon>
                                                </g>
                                            </g>
                                            <g id="b-link" transform="translate(4.877641, 5.477458) rotate(72.000000) translate(-4.877641, -5.477458) translate(2.377641, 1.727458)">
                                                <g id="b">
                                                    <polygon id="a" points="2.5 0 0.625 6 4.125 7.125"></polygon>
                                                    <g id="a-link" transform="translate(2.500000, 3.750000) scale(-1, 1) translate(-2.500000, -3.750000) ">
                                                        <polygon id="a" points="2.5 0 0.625 6 4.125 7.125"></polygon>
                                                    </g>
                                                </g>
                                            </g>
                                        </g>
                                        <g id="b-link" transform="translate(6.372359, 5.477458) rotate(-72.000000) translate(-6.372359, -5.477458) translate(3.872359, 1.727458)">
                                            <g id="b">
                                                <polygon id="a" points="2.5 0 0.625 6 4.125 7.125"></polygon>
                                                <g id="a-link" transform="translate(2.500000, 3.750000) scale(-1, 1) translate(-2.500000, -3.750000) ">
                                                    <polygon id="a" points="2.5 0 0.625 6 4.125 7.125"></polygon>
                                                </g>
                                            </g>
                                        </g>
                                        <g id="c-link" transform="translate(7.462189, 8.730734) rotate(144.000000) translate(-7.462189, -8.730734) translate(2.462189, 3.730734)">
                                            <g id="c">
                                                <g id="b">
                                                    <polygon id="a" points="2.5 0 0.625 6 4.125 7.125"></polygon>
                                                    <g id="a-link" transform="translate(2.500000, 3.750000) scale(-1, 1) translate(-2.500000, -3.750000) ">
                                                        <polygon id="a" points="2.5 0 0.625 6 4.125 7.125"></polygon>
                                                    </g>
                                                </g>
                                                <g id="b-link" transform="translate(4.877641, 5.477458) rotate(72.000000) translate(-4.877641, -5.477458) translate(2.377641, 1.727458)">
                                                    <g id="b">
                                                        <polygon id="a" points="2.5 0 0.625 6 4.125 7.125"></polygon>
                                                        <g id="a-link" transform="translate(2.500000, 3.750000) scale(-1, 1) translate(-2.500000, -3.750000) ">
                                                            <polygon id="a" points="2.5 0 0.625 6 4.125 7.125"></polygon>
                                                        </g>
                                                    </g>
                                                </g>
                                            </g>
                                        </g>
                                    </g>
                                </g>
                                <g id="d-link" transform="translate(25.312500, 15.152654) rotate(30.000000) translate(-25.312500, -15.152654) translate(16.562500, 7.027654)">
                                    <g id="d">
                                        <g id="c" transform="translate(6.250000, 0.000000)">
                                            <g id="b">
                                                <polygon id="a" points="2.5 0 0.625 6 4.125 7.125"></polygon>
                                                <g id="a-link" transform="translate(2.500000, 3.750000) scale(-1, 1) translate(-2.500000, -3.750000) ">
                                                    <polygon id="a" points="2.5 0 0.625 6 4.125 7.125"></polygon>
                                                </g>
                                            </g>
                                            <g id="b-link" transform="translate(4.877641, 5.477458) rotate(72.000000) translate(-4.877641, -5.477458) translate(2.377641, 1.727458)">
                                                <g id="b">
                                                    <polygon id="a" points="2.5 0 0.625 6 4.125 7.125"></polygon>
                                                    <g id="a-link" transform="translate(2.500000, 3.750000) scale(-1, 1) translate(-2.500000, -3.750000) ">
                                                        <polygon id="a" points="2.5 0 0.625 6 4.125 7.125"></polygon>
                                                    </g>
                                                </g>
                                            </g>
                                        </g>
                                        <g id="b-link" transform="translate(6.372359, 5.477458) rotate(-72.000000) translate(-6.372359, -5.477458) translate(3.872359, 1.727458)">
                                            <g id="b">
                                                <polygon id="a" points="2.5 0 0.625 6 4.125 7.125"></polygon>
                                                <g id="a-link" transform="translate(2.500000, 3.750000) scale(-1, 1) translate(-2.500000, -3.750000) ">
                                                    <polygon id="a" points="2.5 0 0.625 6 4.125 7.125"></polygon>
                                                </g>
                                            </g>
                                        </g>
                                        <g id="c-link" transform="translate(7.462189, 8.730734) rotate(144.000000) translate(-7.462189, -8.730734) translate(2.462189, 3.730734)">
                                            <g id="c">
                                                <g id="b">
                                                    <polygon id="a" points="2.5 0 0.625 6 4.125 7.125"></polygon>
                                                    <g id="a-link" transform="translate(2.500000, 3.750000) scale(-1, 1) translate(-2.500000, -3.750000) ">
                                                        <polygon id="a" points="2.5 0 0.625 6 4.125 7.125"></polygon>
                                                    </g>
                                                </g>
                                                <g id="b-link" transform="translate(4.877641, 5.477458) rotate(72.000000) translate(-4.877641, -5.477458) translate(2.377641, 1.727458)">
                                                    <g id="b">
                                                        <polygon id="a" points="2.5 0 0.625 6 4.125 7.125"></polygon>
                                                        <g id="a-link" transform="translate(2.500000, 3.750000) scale(-1, 1) translate(-2.500000, -3.750000) ">
                                                            <polygon id="a" points="2.5 0 0.625 6 4.125 7.125"></polygon>
                                                        </g>
                                                    </g>
                                                </g>
                                            </g>
                                        </g>
                                    </g>
                                </g>
                            </g>
                        </g>
                    </g>
                </g>
            </g>
        </g>
    </g>
</svg>