<?xml version="1.0" encoding="UTF-8"?>
<svg width="197px" height="150px" viewBox="0 0 197 150" version="1.1" xmlns="http://www.w3.org/2000/svg" xmlns:xlink="http://www.w3.org/1999/xlink">
    <!-- Generator: Sketch 52.5 (67469) - http://www.bohemiancoding.com/sketch -->
    <title>bs</title>
    <desc>Created with Sketch.</desc>
    <defs>
        <polygon id="path-1" points="0 0 200 0 200 150 0 150"></polygon>
    </defs>
    <g id="Flags" stroke="none" stroke-width="1" fill="none" fill-rule="evenodd">
        <g id="North-America" transform="translate(-1173.000000, -50.000000)">
            <g id="bs" transform="translate(1170.000000, 50.000000)">
                <mask id="mask-2" fill="white">
                    <use xlink:href="#path-1"></use>
                </mask>
                <g id="Path"></g>
                <g id="Group" mask="url(#mask-2)">
                    <g transform="translate(3.750000, 0.000000)">
                        <polygon id="Path" fill="#FFFFFF" fill-rule="evenodd" points="306.40625 150 0.46875 150 0.46875 0.5625 306.40625 0.5625"></polygon>
                        <polygon id="Path" fill="#FFE900" fill-rule="evenodd" points="306.40625 107.65625 0.46875 107.65625 0.46875 44.78125 306.40625 44.78125"></polygon>
                        <path d="M306.40625,150 L0.46875,150 L0.46875,100.1875 L306.40625,100.1875 L306.40625,150 Z M306.40625,50.40625 L0.46875,50.40625 L0.46875,0.625 L306.40625,0.625 L306.40625,50.40625 Z" id="Shape" fill="#08CED6" fill-rule="nonzero"></path>
                        <path d="M0.3125,0 C1.03125,0 122.75,74 122.75,74 L0,149.75 L0.34375,0 L0.3125,0 Z" id="Path" fill="#000000" fill-rule="evenodd"></path>
                    </g>
                </g>
            </g>
        </g>
    </g>
</svg>