<?xml version="1.0" encoding="UTF-8"?>
<svg width="200px" height="139px" viewBox="0 0 200 139" version="1.1" xmlns="http://www.w3.org/2000/svg" xmlns:xlink="http://www.w3.org/1999/xlink">
    <!-- Generator: Sketch 52.5 (67469) - http://www.bohemiancoding.com/sketch -->
    <title>bi</title>
    <desc>Created with Sketch.</desc>
    <defs>
        <polygon id="path-1" points="0.146412884 0 200 0 200 138.926794 0.146412884 138.926794"></polygon>
    </defs>
    <g id="Flags" stroke="none" stroke-width="1" fill="none" fill-rule="evenodd">
        <g id="Africa" transform="translate(-510.000000, -50.000000)">
            <g id="bi" transform="translate(510.000000, 50.000000)">
                <mask id="mask-2" fill="white">
                    <use xlink:href="#path-1"></use>
                </mask>
                <g id="Path"></g>
                <g id="Group" mask="url(#mask-2)">
                    <g transform="translate(-5.357247, 0.000000)">
                        <path d="M0.357247438,0 L102.857247,69.5 L0.357247438,139 L0.357247438,0 Z M205.357247,0 L102.857247,69.5 L205.357247,139 L205.357247,0 Z" id="Shape" stroke="none" fill="#00CF00" fill-rule="nonzero"></path>
                        <path d="M0.357247438,0 L102.857247,69.5 L205.357247,0 L0.357247438,0 Z M0.357247438,139 L102.857247,69.5 L205.357247,139 L0.357247438,139 Z" id="Shape" stroke="none" fill="#FF0000" fill-rule="nonzero"></path>
                        <polygon id="Path" stroke="none" fill="#FFFFFF" fill-rule="evenodd" points="205.357247 0 186.258017 0 0.357247438 126.050195 0.357247438 139 19.4564778 139 205.357247 12.9498047"></polygon>
                        <path d="M137.357247,68.9932444 C137.357247,91.0883654 121.463356,109 101.857247,109 C82.2511388,109 66.3572474,91.0883654 66.3572474,68.9932444 C66.3572474,46.9055854 82.2457711,29 101.845258,29 C121.444745,29 137.333269,46.9055854 137.333269,68.9932444 L137.357247,68.9932444 Z" id="Path" stroke="none" fill="#FFFFFF" fill-rule="evenodd"></path>
                        <polygon id="Path" stroke="none" fill="#FFFFFF" fill-rule="evenodd" points="0.357247438 0 0.357247438 12.9498047 186.258017 139 205.357247 139 205.357247 126.050195 19.4564778 0"></polygon>
                        <path d="M110.269417,54.5762996 L105.572062,54.6567915 L103.1382,59.0570151 L100.728676,54.6567915 L96.0556601,54.549469 L98.3191522,50.0150922 L96.0799988,45.5075461 L100.753015,45.4002236 L103.186877,41 L105.596401,45.4270542 L110.269417,45.5343767 L108.005925,50.0419229 L110.269417,54.5762996 Z M94.5466654,84.5192845 L89.8736496,84.5997764 L87.4397871,89 L85.0302633,84.5997764 L80.3572474,84.4924539 L82.6207395,79.9580771 L80.3815861,75.450531 L85.0546019,75.3432085 L87.4884644,70.9429849 L89.8979882,75.3700391 L94.5710041,75.4773617 L92.307512,79.9849078 L94.5466654,84.5192845 Z M126.332909,84.5192845 L121.659893,84.5997764 L119.226031,89 L116.792168,84.5997764 L112.143491,84.4924539 L114.406983,79.9580771 L112.143491,75.450531 L116.816507,75.3432085 L119.250369,70.9429849 L121.684232,75.3700391 L126.357247,75.4773617 L124.069417,79.9849078 L126.332909,84.5192845 Z" id="Shape" stroke="#00DE00" stroke-width="1" fill="#FF0000" fill-rule="nonzero"></path>
                    </g>
                </g>
            </g>
        </g>
    </g>
</svg>