<?xml version="1.0" encoding="UTF-8"?>
<svg width="200px" height="150px" viewBox="0 0 200 150" version="1.1" xmlns="http://www.w3.org/2000/svg" xmlns:xlink="http://www.w3.org/1999/xlink">
    <!-- Generator: Sketch 52.5 (67469) - http://www.bohemiancoding.com/sketch -->
    <title>ky</title>
    <desc>Created with Sketch.</desc>
    <g id="Flags" stroke="none" stroke-width="1" fill="none" fill-rule="evenodd">
        <g id="North-America" transform="translate(-510.000000, -650.000000)">
            <g id="ky" transform="translate(510.000000, 650.000000)">
                <polygon id="Path" fill="#000066" points="0 0 200 0 200 150 0 150"></polygon>
                <polygon id="Path" fill="#000066" points="0 0 125 0 125 62.5 0 62.5"></polygon>
                <g id="Group" fill-rule="nonzero">
                    <path d="M0,0 L0,8.4375 L104.5,75.71875 L117.65625,75.71875 L117.65625,67.28125 L13.15625,0 L0,0 Z M117.65625,0 L117.65625,8.4375 L13.15625,75.75 L0,75.75 L0,67.3125 L104.5,0 L117.65625,0 Z" id="Shape" fill="#FFFFFF"></path>
                    <path d="M49.03125,0 L49.03125,75.71875 L68.625,75.71875 L68.625,0 L49.0625,0 L49.03125,0 Z M0,25.25 L0,50.46875 L117.65625,50.46875 L117.65625,25.25 L0,25.25 Z" id="Shape" fill="#FFFFFF"></path>
                    <path d="M0,30.3125 L0,45.4375 L117.65625,45.4375 L117.65625,30.28125 L0,30.28125 L0,30.3125 Z M52.9375,0 L52.9375,75.71875 L64.71875,75.71875 L64.71875,0 L52.9375,0 Z M0,75.71875 L39.21875,50.46875 L47.96875,50.46875 L8.8125,75.71875 L0,75.71875 Z M0,0 L39.21875,25.25 L30.46875,25.25 L0,5.625 L0,0 Z M69.6875,25.25 L108.84375,0 L117.625,0 L78.4375,25.25 L69.6875,25.25 Z M117.65625,75.71875 L78.4375,50.46875 L87.1875,50.46875 L117.65625,70.0625 L117.65625,75.71875 Z" id="Shape" fill="#CC0000"></path>
                </g>
                <path d="M140.09375,55.96875 C139.78125,56.15625 139.15625,56.75 138.53125,56.5625 C137.90625,56.375 136.46875,53.875 134.90625,54.25 C133.34375,54.65625 132.375,55.21875 131.75,55.21875 C131.125,55.21875 129.375,55.78125 129.375,57.3125 C129.375,58.84375 129.53125,60 129.84375,60 C130.15625,60 130.625,59.03125 130.625,59.03125 C130.625,59.03125 130.78125,60.9375 131.875,60.9375 C132.96875,60.9375 135.375,61.125 135.53125,61.71875 C135.6875,62.28125 134.4375,63.59375 134.75,64.75 C135.0625,65.90625 136.46875,67.8125 136.46875,67.8125 C136.46875,67.8125 134.4375,69.3125 134.4375,70.3125 C134.4375,71.3125 134.75,72.1875 134.75,72.1875 L125.59375,72.5625 C125.59375,72.5625 124.96875,99.65625 125.28125,101.75 L126.375,109 C126.375,109 124.3125,108.3125 122.59375,110.03125 C120.84375,111.75 114.78125,114.71875 114.625,116.03125 C114.46875,117.375 113.90625,118.53125 114.53125,119.46875 C115.15625,120.40625 117.40625,123.03125 116.75,122.90625 C114.625,122.5625 113.84375,119.53125 112.40625,118.4375 C111,117.34375 108.25,117.5625 107.90625,118.71875 C107.59375,119.875 107.75,121.78125 107.90625,122.15625 C108.0625,122.53125 109.8125,128.625 110.28125,129.96875 C110.75,131.3125 115.71875,133.3125 117.9375,133.09375 C122.125,133.21875 124,131.3125 124.1875,131.5 C124.3125,131.6875 133.15625,140.8125 151.3125,140.84375 C165.4375,140.84375 176.0625,131.6875 176.0625,131.875 C176.0625,132.0625 181.90625,133.78125 183.96875,133.21875 C186,132.625 189,131.3125 189.625,129.96875 C190.25,128.625 192,121.78125 192.15625,120.625 C192.3125,119.46875 192.15625,118.125 190.75,117.75 C189.34375,117.375 188.5625,117.46875 187.75,117.84375 C186.9375,118.21875 186.71875,119.28125 185.5625,121.1875 C184.90625,121.78125 183.25,123.28125 183.71875,122.90625 C184.1875,122.53125 185.21875,119.6875 185.375,118.71875 C185.53125,117.78125 186,116.0625 184.90625,115.09375 C183.8125,114.15625 182.09375,113.75 180.1875,112.34375 C178.3125,111.09375 176.875,109 175.75,109 C174.65625,109 173.40625,108.4375 173.5625,108.4375 C173.71875,108.4375 174.96875,105.625 174.65625,102.8125 C174.34375,99.9375 174.8125,72.5625 174.65625,72.5625 C174.5,72.5625 166.78125,73.15625 166.78125,72.75 C166.78125,72.34375 167.40625,69.71875 166.78125,68 C166.15625,66.28125 163.4375,65.125 164.25,64.75 C165.03125,64.375 168.5,63.40625 168.3125,61.90625 C168.1875,60.34375 165.96875,60.5625 165.03125,60 C164.09375,59.40625 161.25,56.75 160.9375,56.75 C160.625,56.75 169.125,51.59375 168.5,51.59375 C167.875,51.59375 164.5625,50.65625 163.4375,51.21875 C163.4375,50.28125 168.03125,47.40625 167.25,47.03125 C166.4375,46.625 162.8125,46.25 163.78125,46.09375 C164.71875,45.875 165.03125,43.59375 164.875,43.59375 L160.78125,44.15625 C160.78125,44.15625 159.84375,42.8125 159.53125,42.8125 C159.21875,42.8125 157.78125,43.59375 157.78125,43.59375 L156.96875,41.5 L155.25,42.625 L154.46875,41.6875 C154.46875,41.6875 153.03125,42.0625 153.03125,41.6875 C153.09375,41.6875 152.875,40.75 152.65625,40.75 C152.4375,40.75 150.875,41.9375 150.8125,41.875 C150.75,41.8125 149.03125,39.375 149.03125,39.4375 L147.75,44.03125 C147.6875,44.03125 146.5,44.15625 146.46875,44.21875 C146.40625,44.3125 140.21875,40.65625 140.28125,40.71875 L141.875,44.21875 C141.875,44.21875 140.5625,44.96875 140.5625,45.03125 L140.78125,46.59375 L136.65625,45.1875 C136.65625,45.1875 138.21875,48.3125 138.09375,48.3125 L135.09375,48.46875 L136.46875,51.09375 L135.96875,52.65625 C135.96875,52.65625 140.40625,55.78125 140.09375,55.96875 Z M166.4375,122.34375 C166.84375,122.90625 168.96875,125.59375 168.65625,125.59375 C168.34375,125.59375 163.03125,129.125 160.9375,129.78125 C158.067303,130.502365 155.169098,131.107026 152.25,131.59375 C152.65625,131.5 158.5,128.3125 160.84375,126.78125 C162.857202,125.486573 164.740942,124.000511 166.46875,122.34375 L166.4375,122.34375 Z M133.46875,122.25 C133.15625,122.625 131.65625,125.59375 131.65625,125.59375 C131.65625,125.59375 136,128.625 139.21875,129.78125 C142.46875,130.90625 147.96875,131.3125 147.65625,131.21875 C147.34375,131.125 140.75,128.15625 138.84375,126.625 C136.96875,125.09375 133.53125,122.25 133.46875,122.25 Z" id="Shape" fill="#FFFFFF"></path>
                <g id="Group" transform="translate(136.250000, 41.875000)" fill="#FEC500" stroke="#6D6666" stroke-width="0.25">
                    <path d="M0.6694375,9.7687375 L4.065625,12.250335 C4.6988125,12.7257813 6.751875,14.8247025 6.905375,14.7319325 C7.058875,14.6391625 8.17175,13.5839038 8.17175,13.5839038 C8.17175,13.5839038 5.87884375,11.3922125 4.449375,10.9283625 C3.01990625,10.4645125 0.65984375,9.97747 0.65984375,9.78033375 L0.6694375,9.7687375 Z" id="Path"></path>
                    <path d="M0.27609375,7.57704625 C0.5159375,7.57704625 4.8523125,10.2441838 6.1954375,11.5893488 C7.5385625,12.9345138 8.08540625,14.6391625 8.2485,14.6391625 C8.402,14.6391625 10.4550625,14.2564863 10.3783125,14.2564863 C10.3015625,14.2564863 9.42853125,10.8239963 7.4618125,9.7687375 C5.4855,8.725075 0.3624375,7.57704625 0.27609375,7.57704625 Z" id="Path"></path>
                    <path d="M20.7107812,0.6751 C20.6340313,0.6751 19.8473438,3.53937375 19.6075,4.3859 C19.3676562,5.25561875 18.9743125,7.0530375 18.9743125,7.0530375 C18.9743125,7.0530375 15.501375,7.44731 15.6644687,6.97186375 C15.8179687,6.48482125 20.9410312,0.6751 20.7107812,0.6751 Z" id="Path"></path>
                    <path d="M1.072375,4.14455625 C1.072375,4.14455625 5.16890625,7.48427625 6.58878125,9.38606125 C8.00865625,11.2994425 9.42853125,14.6391625 9.50528125,14.6391625 C9.591625,14.6391625 13.3715625,13.6766738 13.3715625,13.78104 C13.3715625,13.8854063 8.9584375,8.446765 6.828625,6.82329 C4.6988125,5.199815 1.149125,4.3416925 1.072375,4.1561525 L1.072375,4.14455625 Z" id="Path"></path>
                    <path d="M5.332,3.2494675 C5.332,3.2494675 7.37546875,7.06463375 7.77840625,8.3982025 C8.28133643,9.99330852 8.80586523,11.5783423 9.35178125,13.152665 L12.584875,13.152665 C12.584875,13.152665 11.0115,8.8620525 9.27503125,6.7747275 C7.5385625,4.6874025 5.40875,3.4350075 5.332,3.2494675 Z" id="Path"></path>
                    <path d="M6.43528125,1.15054625 C6.51203125,1.4404525 9.42853125,4.76857625 10.1384688,6.9602675 C10.6365731,8.58493399 11.0593541,10.2419034 11.4048438,11.9234625 L14.2445938,11.06534 C14.2445938,11.06534 11.7214375,5.44115875 10.1384688,3.91045375 C8.56509375,2.391345 6.58878125,1.33608625 6.43528125,1.15054625 Z" id="Path"></path>
                    <path d="M30.0167187,10.1514138 C30.0167187,10.1514138 24.097375,10.9167663 21.9675625,11.5777525 C19.83775,12.2387388 18.6577188,14.7319325 18.6577188,14.7319325 C18.6577188,14.7319325 21.4207187,15.9727312 21.5742188,15.775595 C21.7277188,15.5784588 23.3970312,13.5839038 25.2006562,12.8185513 C27.0234687,12.064795 30.1798125,10.2441838 30.0167187,10.1514138 Z" id="Path"></path>
                    <path d="M29.776875,5.478125 C29.623375,5.58249125 24.8840625,10.2441837 23.3874375,11.7748888 C21.8908125,13.2939975 20.4709375,14.9174725 20.3174375,15.0218387 C20.1543437,15.1146088 17.2378437,14.5347963 17.3913437,14.3492562 C17.5544375,14.1637162 21.7373125,10.0586437 24.4907188,8.24962875 C27.2537188,6.4290175 29.546625,5.67526125 29.776875,5.478125 Z" id="Path"></path>
                    <path d="M28.5968438,2.138405 C28.1171563,2.8109875 23.4737813,7.39150625 22.2074063,9.01498125 C20.9410312,10.6384563 18.8975625,13.4795375 18.8975625,13.4795375 C18.8975625,13.4795375 16.4511562,12.1459688 16.6046562,11.5661563 C16.76775,10.99794 20.0775938,7.65822 22.44725,5.756435 C24.8073125,3.84305375 28.8366875,2.323945 28.5968438,2.12680875 L28.5968438,2.138405 Z" id="Path"></path>
                    <path d="M23.867125,1.767325 C22.6893992,3.23978925 21.5565809,4.76378021 20.4709375,6.3362475 C19.9240937,7.28714 18.264375,11.4849825 18.264375,11.4849825 C18.264375,11.4849825 15.8179687,8.910615 15.8179687,8.817845 C15.8179687,8.725075 18.8879687,4.81713875 20.7107812,3.28643375 C22.5335937,1.75572875 23.943875,2.045635 23.867125,1.767325 Z" id="Path"></path>
                    <path d="M17.0171875,6.9602675 C17.0713304,7.43106168 16.8938726,7.8968988 16.5627269,8.15325308 C16.2315812,8.40960736 15.8072938,8.40960736 15.4761481,8.15325308 C15.1450024,7.8968988 14.9675446,7.43106168 15.0216875,6.9602675 C15.0722092,6.33675282 15.5059233,5.86134591 16.0242344,5.86134591 C16.5425455,5.86134591 16.9762595,6.33675282 17.0267812,6.9602675 L17.0171875,6.9602675 Z M19.031875,8.5837425 C19.031875,9.17515125 18.5809687,9.66219375 18.034125,9.66219375 C17.4872813,9.66219375 17.0267812,9.17515125 17.0267812,8.5837425 C17.0267812,7.99233375 17.4776875,7.50529125 18.0245312,7.50529125 C18.571375,7.50529125 19.031875,7.9807375 19.031875,8.5837425 Z M14.5707812,7.36613625 C14.5707812,7.96914125 14.0239375,8.4445875 13.3427813,8.4445875 C12.6712188,8.4445875 12.1147813,7.96914125 12.1147813,7.36613625 C12.1147813,6.76313125 12.6712188,6.287685 13.3427813,6.287685 C14.0143438,6.287685 14.5707812,6.7747275 14.5707812,7.36613625 Z" id="Shape"></path>
                    <path d="M17.803875,9.6042125 C17.803875,10.7522412 17.1802813,11.6915375 16.4127812,11.6915375 C15.6452812,11.6915375 15.0216875,10.7522412 15.0216875,9.6042125 C15.0216875,8.45618375 15.6452812,7.50529125 16.4127812,7.50529125 C17.1802813,7.50529125 17.803875,8.43299125 17.803875,9.59261625 L17.803875,9.6042125 Z M14.0143437,9.66219375 C14.0143437,10.555105 13.39075,11.2856687 12.62325,11.2856687 C11.85575,11.2856687 11.2225625,10.555105 11.2225625,9.66219375 C11.2225625,8.7692825 11.8461562,8.03871875 12.62325,8.03871875 C13.39075,8.03871875 14.0143437,8.7692825 14.0143437,9.66219375 Z" id="Shape"></path>
                    <path d="M12.124375,10.9377812 C12.124375,11.7263262 11.6446875,12.3525237 11.0594687,12.3525237 C10.47425,12.3525237 10.0041562,11.7263262 10.0041562,10.9377812 C10.0041562,10.1608325 10.47425,9.52303875 11.0594687,9.52303875 C11.6350937,9.52303875 12.1147812,10.1608325 12.1147812,10.9377812 L12.124375,10.9377812 Z M19.9240937,10.8102225 C19.9240937,11.7379225 19.2045625,12.4916787 18.3123437,12.4916787 C17.4105312,12.4916787 16.691,11.7379225 16.691,10.8102225 C16.691,9.8825225 17.4105312,9.11717 18.3123437,9.11717 C19.2045625,9.11717 19.9240937,9.87092625 19.9240937,10.8102225 Z M16.0194375,8.37501 C16.0194375,8.94322625 15.4438125,9.39548 14.7434687,9.39548 C14.043125,9.39548 13.4579062,8.93163 13.4579062,8.37501 C13.4579062,7.81839 14.0335312,7.36613625 14.7434687,7.36613625 C15.4534062,7.36613625 16.0194375,7.82998625 16.0194375,8.37501 Z" id="Shape"></path>
                    <path d="M16.2496875,10.60149 C16.2496875,11.4132275 15.4438125,12.08581 14.46525,12.08581 C13.4866875,12.08581 12.6808125,11.4248238 12.6808125,10.60149 C12.6808125,9.7897525 13.4770938,9.11717 14.46525,9.11717 C15.4534063,9.11717 16.2496875,9.7897525 16.2496875,10.60149 Z M20.8163125,13.2338387 C20.8163125,14.2427125 20.068,15.05445 19.147,15.05445 C18.226,15.05445 17.4680938,14.2427125 17.4680938,13.2338387 C17.4680938,12.224965 18.2164063,11.4132275 19.147,11.4132275 C20.068,11.4132275 20.8163125,12.224965 20.8163125,13.2338387 Z M11.6734688,12.7699887 C11.6734688,13.430975 11.2513438,13.9759987 10.7236875,13.9759987 C10.1960313,13.9759987 9.77390625,13.430975 9.77390625,12.7583925 C9.77390625,12.08581 10.1960313,11.5523825 10.7236875,11.5523825 C11.2513438,11.5523825 11.6734688,12.08581 11.6734688,12.7583925 L11.6734688,12.7699887 Z" id="Shape"></path>
                    <path d="M18.3603125,12.5612563 C18.3603125,13.4193788 17.7175312,14.1151538 16.92125,14.1151538 C16.115375,14.1151538 15.463,13.4193788 15.463,12.5612563 C15.463,11.7031338 16.115375,10.9957625 16.92125,10.9957625 C17.727125,10.9957625 18.3699063,11.6915375 18.3699063,12.54966 L18.3603125,12.5612563 Z M13.7936875,12.4916788 C13.7936875,13.2338388 13.2180625,13.8368438 12.508125,13.8368438 C11.7981875,13.8368438 11.2225625,13.2338388 11.2225625,12.4916788 C11.2225625,11.7495188 11.7981875,11.1465138 12.508125,11.1465138 C13.2180625,11.1465138 13.7936875,11.7495188 13.7936875,12.4916788 Z" id="Shape"></path>
                    <path d="M16.0194375,12.8975475 C16.0194375,13.709285 15.424625,14.3818675 14.6763125,14.3818675 C13.9471875,14.3818675 13.3427813,13.709285 13.3427813,12.8975475 C13.3427813,12.08581 13.9471875,11.4132275 14.6859063,11.4132275 C15.424625,11.4132275 16.0290313,12.0742137 16.0290313,12.8975475 L16.0194375,12.8975475 Z M10.2248125,3.9916275 C10.551,3.9916275 12.9014688,4.94252 12.9014688,4.94252 C12.9014688,4.94252 9.9945625,6.287685 10.4454687,6.14853 C10.896375,6.009375 13.6785625,5.6151025 13.4579062,5.6151025 C13.23725,5.6151025 11.0019062,8.17787375 11.6734687,8.050315 C12.3450312,7.91116 13.6785625,6.287685 13.7840937,6.287685 C13.8992188,6.287685 15.2423438,8.85045625 15.3574687,8.7228975 C15.463,8.5837425 15.3574687,6.14853 15.463,6.14853 C15.5685312,6.14853 18.2451875,7.772005 18.0245313,7.63285 C17.4137789,7.02929027 16.8545527,6.35333694 16.3552188,5.6151025 C16.4703438,5.6151025 20.0392188,6.02097125 19.8089688,5.88181625 L17.4680938,4.53665125 C17.4680938,4.53665125 19.031875,2.7856175 18.6960938,2.7856175 C18.3603125,2.7856175 15.7987812,4.53665125 16.0194375,4.4090925 C16.2400937,4.2699375 18.801625,0.75627375 18.801625,0.75627375 L16.2496875,2.24059375 C16.2496875,2.24059375 16.7005938,0.08369125 16.4799375,0.22284625 C16.2496875,0.36200125 14.46525,3.05233125 14.3597187,3.05233125 C14.2541875,3.05233125 13.8032813,0.36200125 13.8032813,0.36200125 C13.8032813,0.36200125 13.9088125,3.319045 13.23725,3.4582 C12.5656875,3.597355 10.2344062,4.1307825 10.2344062,4.00322375 L10.2248125,3.9916275 Z" id="Shape"></path>
                </g>
                <g id="Group" transform="translate(130.625000, 55.312500)">
                    <path d="M8.59375,12.34375 C8.65625,12.625 10.4375,17.46875 13.1875,17.34375 C15.9375,17.21875 17.03125,16.40625 16.90625,16.34375 C16.0102932,15.6710477 15.3356352,14.7461134 14.96875,13.6875 C14.6293753,12.880925 14.367772,12.0437946 14.1875,11.1875 L8.59375,12.34375 Z M18.34375,10.46875 C18.34375,10.46875 20.375,15.25 21.25,15.9375 C22.15625,16.59375 24.21875,17.125 25.09375,17.0625 C26,17 27.0625,17.0625 27.0625,17.0625 C27.0625,17.0625 26.15625,16.59375 25.4375,13.96875 L24.5,10.46875 L18.34375,10.46875 Z M30.625,12.21875 C30.625,12.21875 30.25,15.71875 30.625,16.59375 C31.03125,17.46875 32.96875,19.09375 32.96875,19.09375 C32.96875,19.09375 35.3125,18.78125 35.375,16.59375 C35.3796654,15.171403 35.1145656,13.7610723 34.59375,12.4375 L30.625,12.1875 L30.625,12.21875 Z" id="Shape" fill="#00389B" fill-rule="nonzero"></path>
                    <path d="M6.6946875,6.0914625 C6.6946875,6.0914625 6.80021875,6.63648625 6.6946875,7.042355 C6.58915625,7.44822375 5.62978125,8.526675 5.62978125,9.39639375 C5.62978125,10.2777087 6.74265625,12.9680387 10.1388437,13.0376162 C13.5542187,13.1071938 17.842625,10.8111363 17.7850625,10.7415587 C17.7275,10.6835775 9.63996875,4.13169625 9.5344375,4.20127375 C9.4193125,4.27085125 6.68509375,6.2306175 6.68509375,6.0914625 L6.6946875,6.0914625 Z M29.16325,10.7415587 C29.16325,10.7415587 29.892375,13.1071937 30.1705937,13.3739075 C30.4488125,13.6406212 30.5543437,14.185645 30.6215,14.185645 C30.6886563,14.185645 35.30325,15.391655 35.30325,15.391655 C35.30325,15.391655 35.7445625,13.8493537 35.0825938,12.6317475 C34.4110313,11.4141412 31.8974687,8.248365 31.8974687,8.248365 L29.16325,10.7415587 Z M32.348375,7.84249625 C32.4539063,7.84249625 33.576375,9.00212125 34.459,8.38752 C35.3608125,7.784515 36.8094688,6.16104 36.8094688,6.16104 C36.8094688,6.16104 35.5814688,6.62489 34.68925,6.56690875 C33.7970313,6.49733125 32.4059375,7.91207375 32.348375,7.84249625 Z" id="Shape" stroke="#000000" stroke-width="0.25" fill="#005120" fill-rule="nonzero"></path>
                    <path d="M6.522,6.35817625 C6.522,6.35817625 6.18621875,5.22174375 5.294,5.15216625 C4.40178125,5.08258875 2.7804375,5.279725 2.224,4.7462975 C1.6675625,4.20127375 1.5140625,2.92568625 1.22625,2.99526375 C0.9384375,3.053245 0.21890625,2.99526375 0.1709375,2.99526375 C0.12296875,2.99526375 -0.1744375,1.9168125 0.61225,1.37178875 C1.3989375,0.826765 2.0513125,1.30221125 2.50221875,0.90793875 C2.953125,0.51366625 3.6246875,0.22376 4.51690625,0.1541825 C5.409125,0.09620125 6.85778125,1.51094375 7.52934375,1.847235 C8.20090625,2.18352625 9.63996875,2.589395 10.206,2.25310375 C10.7624375,1.90521625 13.8804062,0.4324925 15.002875,0.362915 C16.11575,0.2933375 18.456625,0.22376 19.3488437,0.2933375 C20.2410625,0.362915 23.7619687,0.90793875 24.8172812,1.51094375 C25.8725937,2.11394875 31.5137188,4.4679875 32.2908125,5.01301125 C33.0679063,5.558035 34.804375,6.35817625 34.804375,6.35817625 C34.804375,6.35817625 31.734375,9.99939875 30.2185625,10.614 C27.232319,11.5619036 24.1532842,12.0144399 21.066125,11.959165 C18.226375,11.7620288 15.9910313,11.4141412 13.8228438,10.0689763 C11.6450625,8.72381125 9.3041875,7.4366275 9.1890625,6.764045 C9.0739375,6.0914625 9.1315,5.22174375 9.1315,5.22174375 L6.51240625,6.35817625 L6.522,6.35817625 Z" id="Path" stroke="#000000" stroke-width="0.25" fill="#005120"></path>
                    <path d="M3.06825,1.98639 C2.953125,2.04437125 2.3966875,2.32268125 2.50221875,2.45024 C2.61734375,2.589395 2.838,2.99526375 3.5095625,2.91409 C4.181125,2.85610875 4.90065625,2.3806625 4.90065625,2.3806625 C4.90065625,2.3806625 4.066,1.9168125 3.06825,1.98639 Z" id="Path" stroke="#000000" stroke-width="0.25" fill="#005120"></path>
                    <path d="M3.0106875,2.11394875 L3.0106875,2.85610875 C3.0106875,2.85610875 3.78778125,3.1228225 3.78778125,2.92568625 C3.78778125,2.72855 3.84534375,2.25310375 3.67265625,2.25310375 C3.49996875,2.25310375 3.05865625,2.18352625 3.00109375,2.11394875 L3.0106875,2.11394875 Z" id="Path" stroke="#000000" stroke-width="0.25" fill="#000000"></path>
                    <path d="M10.82,2.682165 C11.011875,2.25310375 10.82,1.67329125 11.9616562,1.012305 C13.1033125,0.3397225 15.0988125,0.5252625 15.0988125,0.5252625 C15.0988125,0.5252625 14.5231875,1.05869 14.504,1.60371375 C14.4848125,2.1487375 14.542375,2.39225875 14.542375,2.39225875 C14.542375,2.39225875 13.4582812,1.9631975 12.623625,2.218315 C11.7889687,2.4734325 10.8391875,2.7517425 10.8104062,2.682165 L10.82,2.682165 Z M15.9430625,0.3397225 C15.8279375,0.4093 14.9549062,1.58052125 15.0508437,1.940005 C15.1467812,2.2878925 16.3172187,3.15761125 16.691375,3.0764375 C17.075125,3.00686 18.7828125,2.0095825 18.87875,1.51094375 C18.9746875,1.012305 19.0610312,0.3397225 18.917125,0.2005675 C18.7828125,0.04981625 15.96225,0.3861075 15.9430625,0.3397225 Z M19.7134062,0.1541825 C19.49275,0.4093 19.5695,1.67329125 19.64625,1.81244625 C19.7325937,1.9631975 21.0853125,3.609865 21.3827187,3.702635 C21.680125,3.795405 23.8770937,3.52869125 24.0497812,3.238785 C24.2224687,2.94887875 24.7597187,1.74286875 24.596625,1.46455875 C24.443125,1.1746525 23.9730312,0.79197625 22.5051875,0.42089625 C21.0373437,0.04981625 20.1835,0.07300875 19.7134062,0.1541825 Z M25.287375,1.74286875 C25.6423437,1.9631975 27.7145937,3.18080375 28.933,4.15488875 C30.161,5.12897375 30.659875,6.24221375 31.00525,6.34658 C31.3602187,6.43935 32.7992812,5.3956875 32.8568437,5.10578125 C32.924,4.815875 31.1011875,3.29676625 29.8827812,2.60099125 C28.664375,1.90521625 25.287375,1.8240425 25.287375,1.74286875 Z M24.8556562,2.774935 C24.673375,2.960475 27.0622187,7.9932475 27.513125,8.155595 C27.973625,8.32953875 30.6886562,7.18151 30.6502812,6.79883375 C30.6119062,6.4161575 29.9019687,5.650805 28.2230625,4.537565 C26.55375,3.41272875 25.1914375,2.682165 24.8556562,2.774935 Z M21.9007812,4.6071425 C21.5170312,4.87385625 20.9318125,9.37320125 21.3059687,9.59353 C21.680125,9.8022625 26.2947187,9.03691 26.477,8.5498675 C26.6496875,8.02803625 24.5774375,4.0505225 23.9634375,4.0505225 C23.3494375,4.0505225 22.2365625,4.2360625 21.8911875,4.59554625 L21.9007812,4.6071425 Z M17.1230937,3.65625 C16.6338125,4.20127375 16.7393437,8.39911625 16.9504062,8.65423375 C17.1614687,8.9209475 19.9052812,9.77907 20.2026875,9.46597125 C20.4905,9.16446875 20.8934375,4.444795 20.6152187,4.08531125 C20.337,3.7258275 19.5695,2.867705 18.9842812,2.7981275 C18.3894687,2.72855 17.4013125,3.4939025 17.1230937,3.65625 Z M10.935125,3.5866725 C10.4842187,4.01573375 10.4554375,5.12897375 10.9543125,5.32611 C11.4435937,5.51165 12.6715937,6.16104 13.81325,6.75244875 C14.9645,7.3438575 15.6072812,8.062825 15.9430625,8.0396325 C16.2788437,8.01644 16.5954375,3.8185975 16.230875,3.5866725 C15.4712268,3.26264868 14.6650428,3.12851268 13.8612187,3.1924 C12.88103,3.20420481 11.9041717,3.33237916 10.9447187,3.57507625 L10.935125,3.5866725 Z" id="Shape" stroke="#000007" stroke-width="0.25" fill="#001707" fill-rule="nonzero"></path>
                </g>
                <path d="M121.25,112.25 C122.0625,111.46875 123.3125,109.53125 125,109.4375 C126.71875,109.375 128.53125,110.9375 128.53125,110.9375 C128.53125,110.9375 130.3125,118.28125 130.21875,118.28125 C130.15625,118.28125 127.25,120.375 127.1875,120.375 C127.09375,120.375 125.9375,117.5 124.84375,117.78125 C123.75,118.03125 123.84375,121.96875 123.65625,121.71875 C123.5,121.4375 118.90625,116.03125 119.09375,115.84375 C119.25,115.65625 121.34375,112.5 121.25,112.25 Z M168.71875,111.3125 C169.25,111.1875 171.6875,109.375 173.40625,109.4375 C175.09375,109.53125 176.09375,110.3125 176.96875,111.125 C177.90625,111.90625 178.96875,113.9375 178.96875,113.9375 C178.96875,113.9375 176.78125,119.875 176.625,119.875 C176.46875,119.875 175.53125,120.375 175.375,119.9375 C175.21875,119.5 174.65625,118.125 173.5625,117.9375 C172.5,117.75 172.21875,119.875 172.21875,119.875 L168.71875,111.25 L168.71875,111.3125 Z" id="Shape" fill="#D40F0F"></path>
                <path d="M169.875,113.125 C169.875,113.65625 173.21875,121.875 178.59375,123.4375 C184,125.03125 185.6875,121.96875 186.3125,120.9375 C186.9375,119.875 189.1875,119.96875 189.1875,119.96875 C189.1875,119.96875 188.65625,127.65625 187.75,128.625 C186.875,129.5625 186.15625,131.6875 181.125,131.75 C176.09375,131.84375 171.5,127.0625 169.96875,125.65625 C168.221995,123.619489 166.770286,121.347248 165.65625,118.90625 C164.84375,117.25 169.96875,113.28125 169.875,113.125 Z M111.25,129.5 C111.34375,129.5 113.6875,132.03125 117.125,131.78125 C120.53125,131.5 126.375,129.5 129.0625,126 C130.748989,123.773848 132.116359,121.3231 133.125,118.71875 C133.125,118.71875 129.15625,111.71875 129.0625,111.71875 C128.96875,111.71875 128.625,114 127.90625,115.46875 C127.1875,116.96875 125.1875,121.1875 121.875,122.5 C118.5625,123.8125 118.5625,124.34375 117.1875,124.15625 C115.465711,123.605092 113.833841,122.804949 112.34375,121.78125 L110.625,125.9375 C110.625,125.9375 110.28125,128.65625 111.25,129.53125 L111.25,129.5 Z" id="Shape" fill="#FDDC59"></path>
                <path d="M121.1875,112 C120.9375,112 114.5625,115.46875 114.8125,116.96875 C115.09375,118.4375 125.75,139.46875 148.625,139.75 C171.53125,140 185.5,120.6875 184.5,117.46875 C183.46875,114.25 176.375,110.53125 176.375,110.53125 C176.375,110.53125 178.125,112 177.875,113.96875 C177.625,115.96875 169.75,133.03125 149.90625,132.5625 C130.09375,132.0625 120.6875,116.9375 120.6875,115.21875 C120.6875,113.5 121.6875,112.5 121.1875,112 Z" id="Path" fill="#FDDC59"></path>
                <path d="M183.1875,127.3125 C183.71875,126.875 187.03125,117.78125 188.9375,118.03125 C190.8125,118.28125 190.1875,121 190,121.71875 C189.84375,122.40625 187.9375,128.71875 187.9375,128.71875 C187.9375,128.71875 188.03125,127.21875 186.78125,126.84375 C185.53125,126.46875 183.4375,127.46875 183.1875,127.3125 Z M111.25,129.59375 C111.25,129.09375 109.75,127.34375 111.53125,126.875 C113.3125,126.375 115.59375,127.34375 115.59375,127.34375 C115.59375,127.34375 114.34375,123.65625 112.78125,120.65625 C111.25,117.6875 110.75,118.1875 109.46875,118.6875 C108.21875,119.1875 108.21875,120.5 109,122.46875 C109.78125,124.46875 111.25,130.09375 111.25,129.59375 Z" id="Shape" fill="#D40F0F"></path>
                <polygon id="Path" fill="#FDC400" points="132.25 112.625 134.4375 105.125 128.3125 100.4375 136 100.25 138.5 92.875 141.03125 100.25 148.71875 100.375 142.59375 105.125 144.84375 112.59375 138.53125 108.125"></polygon>
                <path d="M173.625204,73.6875 L173.625,102.4375 C173.6875,116.5 159.34375,128.8125 149.84375,131.21875 C140.3125,128.84375 126,116.53125 126.03125,102.46875 L126.03125,73.71875 L173.625,73.71875 L173.625204,73.6875 Z" id="Path" fill="#FFFFFF"></path>
                <path d="M126.062625,73.6882938 L126.101,91.6811697 C126.101,91.6811697 126.33125,91.3116831 129.458812,91.5356144 C132.586375,91.7595456 132.855,95.5103941 136.260781,95.5103941 C139.656969,95.5103941 139.656969,91.5356144 143.053156,91.5356144 C146.449344,91.5356144 146.458937,95.5103941 149.855125,95.5103941 C153.251312,95.5103941 153.251312,91.5356144 156.657094,91.5356144 C160.062875,91.5356144 160.053281,95.5103941 163.641344,95.7343253 C166.85525,95.5103941 166.85525,91.5356144 170.261031,91.3116831 L173.647625,91.5356144 L173.647625,73.6882938 L126.062625,73.6882938 Z" id="Path" stroke="#000000" stroke-width="0.25" fill="#D40F0F"></path>
                <path d="M126.03125,97.5 L126.03125,103.4375 L129.46875,103.4375 C132.59375,103.6875 132.84375,107.4375 136.25,107.4375 C139.65625,107.4375 139.625,103.4375 143.03125,103.4375 C146.4375,103.4375 146.46875,107.4375 149.84375,107.4375 C153.21875,107.4375 153.25,103.4375 156.625,103.4375 C160,103.4375 159.84375,107.1875 163.4375,107.4375 C166.65625,107.1875 166.8125,103.6875 170.25,103.4375 L173.625,103.4375 L173.625,97.5 L170.25,97.5 C166.8125,97.5 166.8125,101.46875 163.4375,101.46875 C160.0625,101.46875 160.03125,97.5 156.625,97.5 C153.21875,97.5 153.25,101.46875 149.84375,101.46875 C146.4375,101.46875 146.4375,97.5 143.03125,97.5 C139.625,97.5 139.65625,101.46875 136.25,101.46875 C132.84375,101.46875 132.8125,97.5 129.4375,97.5 L126.03125,97.5 Z M127.0625,109.375 L129.4375,115.34375 C132.5625,115.59375 132.84375,119.3125 136.25,119.3125 C139.625,119.3125 139.625,115.34375 143.03125,115.34375 C146.4375,115.34375 146.46875,119.3125 149.84375,119.3125 C153.21875,119.3125 153.25,115.34375 156.625,115.34375 C160,115.34375 159.84375,119.09375 163.4375,119.3125 C166.65625,119.09375 166.75,115.5625 170.15625,115.34375 L172.59375,109.3125 L170.25,109.40625 C166.8125,109.40625 166.8125,113.375 163.4375,113.375 C160.0625,113.375 160.03125,109.375 156.625,109.375 C153.21875,109.375 153.25,113.34375 149.84375,113.34375 C146.4375,113.34375 146.4375,109.375 143.03125,109.375 C139.625,109.375 139.65625,113.34375 136.25,113.34375 C132.84375,113.34375 132.8125,109.375 129.4375,109.375 L127.0625,109.375 Z M149.84375,131.25 C153.25,131.25 161.03125,125.28125 160.9375,125.28125 C161.03125,125.28125 160.03125,121.3125 156.625,121.3125 C153.21875,121.3125 153.25,125.28125 149.84375,125.28125 C146.4375,125.28125 146.4375,121.3125 143.03125,121.3125 C139.625,121.3125 138.78125,125.28125 138.75,125.28125 C138.59375,125.28125 146.4375,131.21875 149.84375,131.21875 L149.84375,131.25 Z" id="Shape" fill="#0062BB"></path>
                <path d="M132.264187,87.4422 C132.686203,87.4422 136.156109,87.931725 138.641312,87.76855 C141.173406,87.605375 142.111219,86.7487062 142.111219,86.5855312 L142.111219,86.0960062 L145.393562,86.0960062 C145.393562,86.0960062 145.95625,88.42125 145.581125,88.584425 C145.206,88.7476 144.221297,89.4410937 144.033734,89.4410937 C143.846172,89.4410937 144.033734,88.258075 143.658609,88.6252187 C143.283484,88.9923625 143.095922,89.4410937 143.095922,89.4410937 C143.095922,89.4410937 142.673906,88.9515687 142.486344,88.9515687 C142.298781,88.9515687 141.923656,89.4410937 141.923656,89.4410937 C141.923656,89.4410937 141.923656,88.9515687 141.736094,88.9515687 C141.548531,88.9515687 140.563828,89.7674437 140.563828,89.7674437 L139.626016,89.1147437 C139.626016,89.1147437 139.016437,89.9306187 138.828875,89.9306187 C138.641312,89.9306187 137.469047,89.2779187 137.469047,89.2779187 L135.593422,90.2977625 C135.593422,90.2977625 135.593422,88.7883937 135.171406,88.9515687 C134.796281,89.1147437 132.686203,89.1147437 132.686203,89.1147437 C132.686203,89.1147437 132.076625,90.053 131.889062,90.053 C131.7015,90.053 130.95125,89.237125 131.138813,89.237125 C131.326375,89.237125 131.7015,88.7476 131.513937,88.5436312 C131.326375,88.3804562 130.341672,88.5436312 130.341672,88.3804562 C130.341672,88.2172812 129.966547,87.2382312 130.154109,87.2382312 L131.091922,87.4014062 L131.091922,86.3815625 L132.076625,86.3815625 L132.264187,87.4014062 L132.264187,87.4422 Z" id="Path" stroke="#000000" stroke-width="0.49" fill="#FDC400"></path>
                <path d="M135.780984,77.8556687 C135.546531,77.8556687 134.233594,79.2018625 134.374266,80.7112312 C134.608719,82.2206 137.891063,84.3826687 137.891063,84.3826687 C137.891063,84.3826687 139.626016,83.7299687 140.188703,84.3826687 C140.751391,85.0353687 140.751391,87.0750562 140.563828,87.0750562 C140.376266,87.0750562 138.078625,87.605375 138.078625,87.279025 C138.078625,86.9118812 138.078625,86.5855312 137.891063,86.5855312 L135.546531,86.7487062 L135.734094,86.0960062 L133.858469,85.7696562 L134.608719,85.0761625 C134.608719,85.0761625 131.513938,83.8931437 131.7015,83.8931437 C131.889063,83.8931437 133.061328,83.2404437 133.061328,83.2404437 L130.716797,81.89425 L132.123516,81.89425 C132.123516,81.89425 130.154109,80.5480563 130.341672,80.5480563 L131.513938,80.7112312 L130.95125,79.3650375 L131.513938,79.3650375 L130.95125,78.3859875 L131.889063,78.0188438 L132.498641,78.8755125 L132.264188,76.835825 L133.670906,77.0397938 L133.670906,78.6715437 C133.670906,78.6715437 134.233594,77.6924937 134.233594,77.5293188 C134.233594,77.3661437 135.968547,78.2228125 135.734094,77.8556687 L135.780984,77.8556687 Z" id="Path" stroke="#000000" stroke-width="0.49" fill="#FDC400"></path>
                <path d="M165.625,88.25 C165.375,88.46875 164.65625,88.9375 164.65625,88.9375 L166.21875,88.8125 C165.976001,88.6671815 165.763747,88.4761531 165.59375,88.25 L165.625,88.25 Z M167,89.0625 C166.90625,89.1875 166.625,90.5 166.8125,90.40625 C167.163047,90.0782994 167.486983,89.7230148 167.78125,89.34375 L167,89.0625 Z M169.21875,89.21875 C169.46875,89.4375 170.5625,90.40625 170.4375,90.1875 C170.28125,89.96875 170.125,89.09375 170.03125,89.0625 C169.9375,89.03125 169.3125,89.3125 169.21875,89.21875 Z M149.8125,87.84375 C149.65625,87.875 148.46875,88.6875 148.46875,88.6875 L150.375,88.375 C150.28125,88.375 149.75,87.96875 149.8125,87.84375 Z M151.0625,88.84375 C150.875,89.03125 150.25,90.1875 150.46875,90.15625 C150.930157,89.9260899 151.369496,89.6541187 151.78125,89.34375 L151.0625,88.84375 Z M150.28125,87.21875 L149.1875,86.75 L150.53125,86.4375 L150.28125,87.21875 Z M131.21875,86.6875 L129.75,85.65625 L131.59375,86.15625 L131.21875,86.6875 Z M129.96875,87.34375 C129.75,87.34375 127.9375,88.34375 127.96875,88.34375 C128,88.34375 130.53125,88.40625 130.46875,88.34375 C130.4375,88.3125 130.0625,87.40625 129.9375,87.34375 L129.96875,87.34375 Z M131.125,88.8125 C130.578106,89.1267379 130.055781,89.4819191 129.5625,89.875 L131.75,89.875 L131.125,88.8125 Z M130.90625,78.375 C130.90625,78.375 130.375,77.1875 130.4375,77.1875 L131.78125,78.125 L130.90625,78.375 Z M132.375,76.90625 L132.5,76.15625 C132.5,76.15625 133.8125,77.03125 133.75,77.03125 C133.71875,77.03125 132.46875,77.03125 132.375,76.90625 Z M134.375,77.4375 L134.53125,76.34375 C134.53125,76.34375 135.75,77.78125 135.625,77.8125 C135.53125,77.875 134.46875,77.625 134.375,77.4375 Z" id="Shape" fill="#000000" fill-rule="nonzero"></path>
                <path d="M153.755828,84.8027687 C153.755828,84.8843562 155.772125,86.3121375 155.819016,86.6384875 C155.819016,86.9648375 152.161547,87.046425 152.161547,87.046425 C152.161547,87.046425 151.083062,86.3529312 150.754828,86.393725 C150.426594,86.393725 150.285922,87.1280125 150.285922,87.1280125 L151.129953,87.53595 L149.488781,87.6175375 L149.957687,88.4334125 L151.223734,88.351825 L150.942391,89.0861125 C150.942391,89.0861125 151.692641,89.6164312 151.880203,89.49405 C152.020875,89.4532562 152.489781,88.678175 152.864906,88.5557937 C153.240031,88.4334125 154.084062,88.4334125 154.084062,88.4334125 C154.084062,88.4334125 153.427594,89.3716687 153.755828,89.3716687 C154.037172,89.3716687 155.350109,88.3926187 155.350109,88.3926187 L155.678344,89.2900813 L156.616156,88.2702375 C156.616156,88.2702375 156.616156,89.0861125 156.756828,89.0861125 C156.8975,89.0861125 158.257328,88.0662687 158.257328,88.0662687 C158.257328,88.0662687 159.335813,89.2084937 159.476484,89.1269062 C159.617156,89.0453187 159.757828,87.9030937 159.945391,87.9030937 C160.132953,87.9030937 160.976984,87.7807125 160.976984,87.699125 C160.976984,87.6175375 160.367406,87.2911875 160.273625,86.6792813 C160.179844,86.067375 160.367406,84.7211813 160.320516,84.7211813 C160.273625,84.7211813 153.849609,84.92515 153.755828,84.8027687 Z" id="Path" stroke="#000000" stroke-width="0.49" fill="#FDC400"></path>
                <path d="M143.486781,82.2327625 L162.383703,82.2327625 C164.259328,82.2327625 166.041172,81.5800625 166.041172,80.5602188 C166.041172,79.540375 162.946391,79.3772 161.821016,79.7443437 C160.64875,80.0706938 155.631453,82.0695875 153.521375,81.9064125 C151.411297,81.7432375 149.441891,80.5602188 149.254328,79.3772 C149.066766,78.1941812 150.192141,77.2151312 152.349109,77.2151312 C154.506078,77.2151312 157.178844,77.8678312 157.741531,77.7046562 C158.304219,77.5414813 159.664047,76.1952875 160.226734,76.0321125 C160.836313,75.8689375 162.571266,75.7057625 162.571266,75.7057625 L161.774125,76.1952875 L164.306219,75.7057625 C164.306219,75.7057625 162.383703,77.5414813 160.414297,78.0310063 C158.538672,78.561325 154.459188,78.3573563 152.911797,78.3573563 C151.364406,78.3573563 150.567266,78.1941812 150.801719,79.214025 C150.989281,80.2338687 152.161547,80.8865687 153.14625,80.7233937 C154.084063,80.5602188 156.944391,79.70355 156.944391,79.70355 L156.194141,79.214025 L159.664047,79.05085 C159.664047,79.05085 159.476484,78.561325 159.664047,78.561325 L161.586563,78.7245 C161.586563,78.7245 160.414297,78.1941812 160.64875,78.1941812 C160.883203,78.1941812 161.586563,78.1941812 163.133953,78.3573563 C164.681344,78.5205313 167.963688,79.05085 167.776125,80.3970437 C167.541672,81.7432375 166.369406,82.8854625 165.056469,82.8854625 C163.743531,82.8854625 162.571266,82.5591125 162.571266,83.0894312 C162.571266,83.5789562 164.118656,83.9053062 165.056469,83.9053062 C165.994281,83.9053062 167.166547,83.2526062 167.401,83.2526062 C167.635453,83.2526062 167.963687,84.2316563 168.15125,84.2316563 C168.338812,84.2316563 169.511078,83.9053062 169.511078,83.9053062 L168.713938,85.741025 L170.073766,86.067375 C170.073766,86.067375 169.323516,86.7608688 169.511078,86.7608688 C169.698641,86.7608688 170.824016,86.7608688 170.824016,86.9240437 C170.824016,87.0872188 169.323516,88.1070625 169.323516,88.2702375 C169.323516,88.4334125 170.448891,88.9229375 170.448891,88.9229375 C170.448891,88.9229375 169.698641,89.9427812 169.511078,89.7796062 L168.573266,88.7597625 C168.573266,88.7597625 168.338813,89.4532562 167.963688,89.4532562 C167.588563,89.4532562 166.791422,89.2900812 166.791422,89.2900812 C166.791422,89.2900812 167.354109,88.2702375 167.166547,88.2702375 C166.978984,88.2702375 166.041172,88.9229375 166.041172,88.7597625 L165.431594,88.2702375 C165.431594,88.2702375 166.978984,87.7399187 166.978984,86.9240437 C166.978984,86.1081687 166.369406,85.3330875 163.555969,85.2107063 C160.742531,85.088325 160.742531,85.7818187 158.632453,85.7002313 C156.569266,85.6186437 156.569266,84.8843562 155.021875,84.8843562 C153.474484,84.8843562 148.738531,86.5976937 146.487781,86.5161062 C144.283922,86.5161062 141.517375,86.393725 141.611156,86.3121375 C141.704938,86.23055 143.439891,82.3551437 143.486781,82.2327625 Z" id="Path" stroke="#000000" stroke-width="0.49" fill="#FDC400"></path>
                <path d="M139.813578,81.2823437 C139.626016,81.3639312 137.937953,81.5679 137.844172,83.1180625 C137.750391,84.668225 137.984844,84.668225 138.172406,84.5866375 C138.359969,84.50505 138.735094,83.1588562 138.735094,83.1588562 C138.735094,83.1588562 138.172406,84.994575 138.781984,85.4025125 C139.176056,85.6704755 139.620179,85.8774628 140.094922,86.0144187 L140.329375,84.5458437 C140.329375,84.5458437 139.860469,85.973625 141.032734,86.46315 C142.158109,86.952675 142.627016,86.5855312 142.486344,86.2183875 C142.358297,85.7667327 142.217583,85.3178675 142.064328,84.8721937 L143.002141,85.8512437 C143.095922,85.9328313 143.471047,86.5855313 144.690203,86.2591812 C145.815578,86.0144188 145.018438,85.320925 145.018438,85.320925 L143.611719,84.341875 C143.611719,84.341875 145.018438,85.6064813 145.674906,85.15775 C146.331375,84.7090187 145.206,83.689175 145.206,83.7299687 C145.206,83.7707625 146.143812,85.15775 146.518937,84.3010812 C146.894063,83.4444125 145.95625,83.1588562 145.674906,82.3021875 C145.393563,81.4863125 145.159109,81.404725 145.440453,80.8744062 C145.721797,80.3848812 145.768687,79.4058313 145.768687,79.4058313 C145.768687,79.4058313 146.987844,79.6913875 146.894063,78.793925 C146.800281,77.8964625 145.581125,77.6924937 145.346672,77.6517 C145.112219,77.6517 145.159109,76.7542375 145.065328,76.7950313 C144.971547,76.7950313 144.174406,77.32535 144.174406,77.32535 C144.174406,77.32535 143.517937,75.9383625 143.377266,76.01995 C143.236594,76.1015375 142.439453,76.835825 141.876766,76.835825 C141.314078,76.9174125 140.938953,77.6517 140.938953,77.6517 C140.938953,77.6517 138.922656,76.7950313 138.969547,78.1820187 C139.016437,79.5690063 140.188703,79.2018625 140.188703,79.2426562 C140.188703,79.28345 140.001141,81.2007562 139.813578,81.2823437 Z" id="Path" stroke="#000000" stroke-width="0.49" fill="#FDC400"></path>
                <path d="M140.90625,79.2977474 C141.125,79.1688494 141.46875,78.7821553 141.84375,78.8251213 C142.21875,78.8680874 142.90625,79.2547814 142.59375,79.5125775 C142.28125,79.7274075 142.03125,79.8563056 141.65625,79.7274075 C141.34375,79.5985095 141.03125,79.3836795 140.90625,79.2977474 Z M144.84375,79.2118154 C144.59375,79.1258834 144.25,78.7391893 143.84375,78.7821553 C143.4375,78.8251213 142.84375,79.2118154 143.15625,79.4696115 C143.418924,79.6861941 143.730291,79.7626409 144.03125,79.6844415 C144.40625,79.5555435 144.65625,79.2977474 144.84375,79.2547814 L144.84375,79.2118154 Z" id="Shape" fill="#000000" fill-rule="nonzero"></path>
                <path d="M141.767344,81.59915 C141.767344,81.8031187 141.954906,83.55725 142.048687,83.4348687 L142.845828,81.6399437 L141.767344,81.59915 Z" id="Path" stroke="#000000" stroke-width="0.28" fill="#000039"></path>
                <path d="M141.298438,81.66165 C141.298438,81.1313313 141.673563,81.172125 142.423812,81.2537125 C143.220953,81.3353 143.596078,81.66165 143.549188,81.7840312 C143.502297,81.8656187 142.845828,82.0695875 142.330031,82.0287937 C141.720453,81.8656187 141.251547,82.0287937 141.298438,81.6208563 L141.298438,81.66165 Z" id="Path" stroke="#000000" stroke-width="0.56"></path>
                <path d="M142.423813,80.35625 L142.330031,81.172125 M145.659266,78.234975 C145.659266,78.234975 146.315734,78.5205312 146.221953,78.7652937 C146.128172,79.0100562 145.659266,79.1324375 145.659266,79.1324375 M140.407516,78.0310062 C140.266844,78.0718 140.079281,78.1533875 139.938609,78.5205312 C139.891719,78.8468812 140.407516,79.05085 140.407516,79.05085" id="Shape" stroke="#000000" stroke-width="1.55"></path>
                <path d="M141.954875,79.7702937 C141.954875,79.7702937 141.251516,80.3822 142.423781,80.3822 C143.596047,80.3822 142.752016,79.8518812 142.752016,79.8518812" id="Path" stroke="#000000" stroke-width="1.55"></path>
                <polygon id="Path" fill="#FDC400" points="144.5 126.1875 146.5 119.59375 140.90625 115.46875 147.90625 115.3125 150.15625 108.8125 152.46875 115.28125 159.4375 115.40625 153.90625 119.5625 155.90625 126.125 150.1875 122.25"></polygon>
                <polygon id="Path" fill="#003017" points="145.4375 124.40625 147.09375 119.1875 142.46875 115.90625 148.28125 115.78125 150.15625 110.625 152.09375 115.75 157.875 115.875 153.28125 119.15625 154.96875 124.375 150.1875 121.28125"></polygon>
                <polygon id="Path" fill="#FDC400" points="133.03125 112.84375 135 106.625 129.5 102.71875 136.375 102.5625 138.625 96.40625 140.90625 102.5625 147.78125 102.65625 142.3125 106.59375 144.34375 112.84375 138.65625 109.125"></polygon>
                <polygon id="Path" fill="#003017" points="133.96875 111.1875 135.625 106.21875 131.03125 103.125 136.78125 103 138.65625 98.125 140.53125 103 146.28125 103.09375 141.71875 106.21875 143.40625 111.15625 138.65625 108.21875"></polygon>
                <polygon id="Path" fill="#FDC400" points="156.125 112.84375 158.125 106.59375 152.5625 102.71875 159.53125 102.5625 161.8125 96.40625 164.125 102.5625 171.09375 102.65625 165.53125 106.59375 167.5625 112.84375 161.84375 109.09375"></polygon>
                <polygon id="Path" fill="#003017" points="157.0625 111.1875 158.75 106.21875 154.0625 103.125 159.875 103 161.75 98.125 163.71875 103 169.53125 103.09375 164.90625 106.21875 166.59375 111.15625 161.8125 108.21875"></polygon>
                <path d="M116.65625,116.4375 C119.15625,127.21875 129.75,135.21875 144,137.125 C162.3125,139.5625 179.78125,130.28125 183,116.40625" id="Path"></path>
                <path d="M116.59375,118.09375 L120.03125,116.15625 L120.34375,116.84375 L119,117.625 L119.46875,118.59375 L120.8125,117.84375 L121.125,118.53125 L117.6875,120.46875 L117.375,119.78125 L118.9375,118.90625 L118.46875,117.90625 L116.90625,118.8125 L116.59375,118.09375 M118.03125,121.09375 L121.25,118.75 L122.34375,120.59375 L121.8125,120.96875 L121.125,119.8125 L120.375,120.375 L121,121.4375 L120.53125,121.8125 L119.875,120.75 L118.96875,121.375 L119.6875,122.59375 L119.15625,123 L118.03125,121.125 M120.28125,124.5625 L123.09375,121.6875 L123.59375,122.25 L122.5,123.40625 L123.15625,124.1875 L124.25,123.0625 L124.75,123.65625 L121.9375,126.5625 L121.4375,125.96875 L122.6875,124.65625 L122.0625,123.84375 L120.78125,125.15625 L120.28125,124.59375 M123.96875,126.3125 L124.4375,126.75 L125.28125,125.1875 L123.96875,126.3125 M122.1875,126.84375 L125.375,124.25 L126.09375,124.96875 L124.21875,128.84375 L123.625,128.25 L124.125,127.3125 L123.5,126.6875 L122.71875,127.375 L122.1875,126.84375 M125,129.4375 L126.875,126.5625 L126.21875,126 L126.59375,125.4375 L128.5,127 L128.125,127.5625 L127.46875,127.03125 L125.5625,129.90625 L124.96875,129.4375 M126.53125,130.6875 L128.5625,127.03125 L129.15625,127.4375 L128.375,128.875 L129.21875,129.4375 L130,128 L130.625,128.4375 L128.59375,132.09375 L127.96875,131.6875 L128.90625,130 L128.0625,129.4375 L127.125,131.09375 L126.53125,130.6875 M130.3125,133.09375 L131.9375,129.1875 L133.78125,130.125 L133.5,130.75 L132.3125,130.15625 L131.9375,131.09375 L133.0625,131.65625 L132.78125,132.28125 L131.6875,131.6875 L130.96875,133.40625 L130.34375,133.09375 M133.90625,132.46875 C133.739337,132.888892 133.63408,133.33097 133.59375,133.78125 C133.59375,133.96875 133.6875,134.09375 133.875,134.1875 C134.0625,134.28125 134.1875,134.25 134.34375,134.09375 C134.46875,133.96875 134.65625,133.5625 134.875,132.90625 C135.09375,132.25 135.1875,131.8125 135.1875,131.59375 C135.181861,131.405105 135.055887,131.241338 134.875,131.1875 C134.71875,131.09375 134.5625,131.125 134.4375,131.28125 C134.3125,131.40625 134.125,131.8125 133.90625,132.5 M133.21875,132.1875 C133.382516,131.648841 133.636082,131.141709 133.96875,130.6875 C134.118576,130.560782 134.304387,130.484272 134.5,130.46875 C134.65625,130.46875 134.875,130.46875 135.125,130.59375 C135.375,130.71875 135.5,130.8125 135.625,130.9375 C135.75,131.09375 135.84375,131.25 135.875,131.5 C135.90625,131.65625 135.875,131.875 135.84375,132.125 C135.764647,132.486062 135.660223,132.841106 135.53125,133.1875 L135.15625,134.1875 C135.03125,134.40625 134.90625,134.59375 134.78125,134.6875 C134.625,134.8125 134.46875,134.90625 134.28125,134.90625 C134.09375,134.9375 133.90625,134.90625 133.65625,134.78125 C133.40625,134.65625 133.25,134.5625 133.125,134.4375 C132.992371,134.276034 132.905976,134.081645 132.875,133.875 L132.90625,133.25 L133.21875,132.1875 M136.53125,131.28125 L137.21875,131.53125 L136.46875,134.28125 C136.393592,134.502196 136.372167,134.737872 136.40625,134.96875 C136.4375,135.09375 136.5625,135.1875 136.71875,135.28125 C136.90625,135.3125 137.03125,135.28125 137.15625,135.21875 C137.25,135.125 137.34375,134.90625 137.4375,134.59375 L138.15625,131.84375 L138.84375,132.0625 L138.09375,134.875 C138.043637,135.090627 137.970292,135.300185 137.875,135.5 C137.821413,135.607302 137.747059,135.702899 137.65625,135.78125 C137.512198,135.892549 137.337966,135.957886 137.15625,135.96875 C136.943623,135.982241 136.730561,135.950282 136.53125,135.875 C136.125,135.75 135.875,135.5625 135.75,135.28125 C135.625,135.03125 135.625,134.65625 135.75,134.125 L136.53125,131.3125 M138.375,136.34375 L139.21875,132.15625 L139.9375,132.34375 L140.34375,135.5 L140.90625,132.59375 L141.53125,132.75 L140.71875,136.9375 L140,136.75 L139.59375,133.5625 L139.03125,136.5 L138.375,136.34375 M142.125,136.5625 L142.4375,136.625 L142.8125,136.625 C142.87274,136.609966 142.927136,136.577328 142.96875,136.53125 C143.0625,136.4375 143.125,136.28125 143.1875,136.09375 C143.344185,135.501989 143.428138,134.893332 143.4375,134.28125 C143.432392,134.127365 143.389461,133.977106 143.3125,133.84375 C143.289085,133.779374 143.245166,133.724475 143.1875,133.6875 L142.875,133.625 L142.5625,133.5625 L142.15625,136.5625 M141.375,137.0625 L141.96875,132.8125 L143.09375,133.03125 C143.34375,133.0625 143.5,133.125 143.65625,133.1875 C143.78125,133.25 143.875,133.34375 143.96875,133.46875 C144.0625,133.625 144.125,133.84375 144.15625,134.0625 C144.15625,134.28125 144.15625,134.625 144.09375,135.09375 C144.048231,135.51475 143.975158,135.932312 143.875,136.34375 C143.808317,136.568807 143.702536,136.780369 143.5625,136.96875 C143.46875,137.125 143.34375,137.21875 143.15625,137.28125 C143,137.3125 142.71875,137.28125 142.34375,137.21875 L141.375,137.0625 M144.34375,137.5625 L144.71875,133.28125 L146.6875,133.5 L146.625,134.21875 L145.375,134.0625 L145.28125,135.0625 L146.46875,135.1875 L146.40625,135.84375 L145.21875,135.71875 L145.125,136.90625 L146.40625,137.03125 L146.34375,137.75 L144.34375,137.5625 M147.59375,137.21875 L148.28125,137.21875 C148.350624,137.187433 148.406183,137.131874 148.4375,137.0625 C148.5,136.96875 148.5625,136.8125 148.59375,136.625 C148.635009,136.314198 148.655887,136.001029 148.65625,135.6875 L148.65625,134.75 C148.627454,134.601435 148.563122,134.462049 148.46875,134.34375 C148.427136,134.297672 148.37274,134.265034 148.3125,134.25 L148,134.1875 L147.6875,134.1875 L147.59375,137.21875 M146.875,137.8125 L147.03125,133.53125 L148.1875,133.5625 C148.368177,133.567979 148.547111,133.599556 148.71875,133.65625 C148.875,133.71875 148.96875,133.78125 149.0625,133.90625 C149.202656,134.066717 149.29947,134.260345 149.34375,134.46875 L149.40625,135.5 C149.392495,135.929348 149.35074,136.35734 149.28125,136.78125 C149.265844,137.00546 149.190275,137.221369 149.0625,137.40625 C148.96875,137.59375 148.84375,137.71875 148.6875,137.78125 C148.53125,137.84375 148.25,137.875 147.875,137.84375 L146.875,137.8125 M151.1875,137.875 L151.03125,133.59375 L151.75,133.5625 L151.90625,137.84375 L151.1875,137.84375 M153.09375,137.75 L152.84375,134.1875 L152,134.25 L151.96875,133.5625 L154.3125,133.34375 L154.375,134.03125 L153.5625,134.125 L153.8125,137.6875 L153.09375,137.75 M155.625,133.125 L156.34375,133 L156.78125,135.8125 C156.84375,136.15625 156.90625,136.375 157,136.46875 C157.09375,136.59375 157.21875,136.625 157.40625,136.5625 C157.59375,136.5625 157.71875,136.46875 157.75,136.3125 C157.8125,136.1875 157.8125,135.96875 157.75,135.625 L157.3125,132.8125 L158,132.65625 L158.46875,135.59375 L158.53125,136.21875 L158.4375,136.59375 C158.351806,136.760774 158.222146,136.901239 158.0625,137 C157.890998,137.10878 157.699935,137.183083 157.5,137.21875 C157.0625,137.3125 156.75,137.25 156.53125,137.09375 C156.3125,136.90625 156.15625,136.5625 156.09375,136.03125 L155.625,133.125 M159.46875,134.21875 L159.78125,134.125 C159.96875,134.0625 160.09375,134 160.1875,133.875 C160.25,133.75 160.25,133.5625 160.1875,133.34375 C160.1875,133.125 160.09375,132.96875 159.96875,132.90625 C159.875,132.84375 159.71875,132.8125 159.5,132.90625 L159.1875,132.96875 L159.46875,134.21875 M159.3125,136.71875 L158.375,132.5625 L159.625,132.25 C159.96875,132.15625 160.25,132.15625 160.46875,132.3125 C160.65625,132.4375 160.8125,132.71875 160.90625,133.125 C161,133.5625 160.96875,133.875 160.84375,134.125 C160.71875,134.375 160.46875,134.5625 160.125,134.65625 L159.59375,134.78125 L160,136.5625 L159.3125,136.75 M162.0625,133.71875 C162.158313,134.155647 162.316163,134.576581 162.53125,134.96875 C162.65625,135.09375 162.8125,135.125 163,135.0625 C163.1875,135 163.3125,134.875 163.3125,134.6875 C163.3125,134.5 163.25,134.0625 163.03125,133.375 C162.8125,132.6875 162.71875,132.28125 162.5625,132.125 C162.46875,131.96875 162.3125,131.9375 162.125,132 C161.9375,132.0625 161.8125,132.21875 161.8125,132.40625 C161.78125,132.59375 161.875,133.03125 162.0625,133.71875 M161.34375,133.96875 C161.21875,133.53125 161.15625,133.1875 161.125,132.90625 C161.087496,132.699605 161.087496,132.487895 161.125,132.28125 C161.1875,132.03125 161.25,131.875 161.375,131.71875 C161.538788,131.576685 161.730349,131.470262 161.9375,131.40625 C162.134737,131.323303 162.349607,131.291072 162.5625,131.3125 C162.71875,131.34375 162.875,131.4375 163.0625,131.59375 C163.1875,131.6875 163.28125,131.875 163.375,132.09375 C163.668,132.750245 163.867848,133.444454 163.96875,134.15625 C164.007329,134.373299 164.007329,134.595451 163.96875,134.8125 C163.932514,135.008144 163.846405,135.191127 163.71875,135.34375 C163.565386,135.506601 163.371131,135.625313 163.15625,135.6875 C162.90625,135.78125 162.71875,135.8125 162.53125,135.78125 C162.35053,135.736147 162.187341,135.638234 162.0625,135.5 C161.916346,135.357396 161.799561,135.187527 161.71875,135 C161.59375,134.75 161.46875,134.375 161.34375,133.96875 M164.875,134.9375 L163.4375,130.96875 L164.125,130.65625 L166.0625,133.03125 L165.0625,130.25 L165.6875,129.96875 L167.125,133.9375 L166.4375,134.25 L164.5,131.875 L165.5,134.6875 L164.875,134.9375 M169.34375,132.75 L167.84375,129.59375 L167.125,130 L166.8125,129.375 L168.90625,128.15625 L169.21875,128.78125 L168.5,129.21875 L170,132.375 L169.375,132.75 M171.0625,131.75 L169,128.125 L169.625,127.6875 L170.40625,129.125 L171.25,128.5 L170.4375,127.09375 L171.0625,126.6875 L173.09375,130.3125 L172.46875,130.71875 L171.53125,129.09375 L170.71875,129.65625 L171.65625,131.3125 L171.03125,131.75 M173.625,129.875 L171.3125,126.4375 L172.875,125.125 L173.28125,125.71875 L172.25,126.5625 L172.78125,127.34375 L173.71875,126.5625 L174.09375,127.09375 L173.15625,127.875 L173.78125,128.8125 L174.84375,127.96875 L175.21875,128.53125 L173.65625,129.875 M175.625,126.25 L176.125,125.6875 L176.3125,125.875 C176.46875,126.0625 176.625,126.1875 176.6875,126.1875 C176.8125,126.1875 176.90625,126.1875 177,126.0625 C177.125,125.9375 177.1875,125.8125 177.1875,125.6875 C177.178628,125.548588 177.123639,125.416613 177.03125,125.3125 C176.952742,125.236765 176.855779,125.182897 176.75,125.15625 C176.595016,125.128122 176.436234,125.128122 176.28125,125.15625 L175.84375,125.25 C175.580076,125.326373 175.303503,125.347648 175.03125,125.3125 C174.849024,125.253859 174.686717,125.145654 174.5625,125 C174.340291,124.775641 174.216593,124.472018 174.21875,124.15625 C174.234543,123.838169 174.368231,123.53737 174.59375,123.3125 C174.84375,123 175.125,122.90625 175.375,122.90625 C175.625,122.90625 175.90625,123.0625 176.1875,123.34375 C176.22146,123.383313 176.252778,123.42507 176.28125,123.46875 L175.78125,124 L175.71875,123.90625 C175.610919,123.777859 175.47063,123.680736 175.3125,123.625 C175.21875,123.625 175.09375,123.65625 175,123.78125 C174.90625,123.875 174.875,123.96875 174.875,124.09375 C174.875,124.1875 174.90625,124.28125 175,124.40625 C175.09375,124.5 175.3125,124.53125 175.6875,124.46875 L176.15625,124.375 C176.410441,124.302384 176.678321,124.291668 176.9375,124.34375 C177.125,124.375 177.3125,124.53125 177.5,124.71875 C177.724075,124.954576 177.847389,125.268465 177.84375,125.59375 C177.823061,125.935189 177.678631,126.25738 177.4375,126.5 C177.15625,126.8125 176.875,126.9375 176.625,126.9375 C176.3125,126.9375 176.0625,126.75 175.78125,126.4375 L175.625,126.25 M178.59375,125.03125 L175.625,122.28125 L176.90625,120.59375 L177.40625,121.0625 L176.59375,122.125 L177.28125,122.75 L178.03125,121.75 L178.5,122.1875 L177.75,123.1875 L178.5625,123.96875 L179.375,122.84375 L179.875,123.3125 L178.625,125.03125 M179.34375,121.1875 L179.6875,120.625 L178.1875,119.90625 L179.34375,121.1875 M180.0625,123.09375 L177.34375,119.90625 L177.875,119.03125 L181.5625,120.59375 L181.125,121.3125 L180.21875,120.90625 L179.75,121.65625 L180.46875,122.4375 L180.0625,123.09375 M180.5,119.625 L180.84375,118.90625 L181.0625,119.03125 C181.28125,119.15625 181.4375,119.21875 181.53125,119.1875 C181.625,119.1875 181.71875,119.09375 181.78125,118.96875 C181.84375,118.8125 181.875,118.65625 181.84375,118.5625 C181.84375,118.4375 181.71875,118.34375 181.59375,118.25 C181.500079,118.193309 181.389519,118.171197 181.28125,118.1875 C181.1875,118.1875 181.03125,118.28125 180.84375,118.375 L180.4375,118.625 C180.210694,118.777866 179.955748,118.884093 179.6875,118.9375 C179.498723,118.940097 179.313561,118.885637 179.15625,118.78125 C178.886603,118.649005 178.683199,118.4117 178.59375,118.125 C178.52043,117.807678 178.56485,117.474526 178.71875,117.1875 C178.875,116.84375 179.09375,116.625 179.34375,116.5625 C179.625,116.4375 179.90625,116.5 180.21875,116.6875 C180.261706,116.705647 180.303458,116.726523 180.34375,116.75 L180.03125,117.4375 L179.9375,117.375 C179.75,117.28125 179.625,117.21875 179.5,117.25 C179.40625,117.25 179.3125,117.34375 179.21875,117.5 C179.1875,117.625 179.15625,117.71875 179.21875,117.8125 C179.21875,117.9375 179.28125,118 179.40625,118.0625 C179.53125,118.15625 179.78125,118.09375 180.09375,117.90625 L180.5,117.65625 C180.8125,117.46875 181.0625,117.34375 181.25,117.34375 C181.4375,117.34375 181.65625,117.40625 181.875,117.53125 C182.1875,117.6875 182.375,117.9375 182.46875,118.21875 C182.53125,118.53125 182.46875,118.84375 182.3125,119.21875 C182.15625,119.625 181.9375,119.84375 181.6875,119.9375 C181.375,120.03125 181.0625,119.9375 180.71875,119.75 C180.654959,119.710304 180.592428,119.668616 180.53125,119.625" id="Shape" fill="#000000" fill-rule="nonzero"></path>
            </g>
        </g>
    </g>
</svg>