<?xml version="1.0" encoding="UTF-8"?>
<svg width="200px" height="150px" viewBox="0 0 200 150" version="1.1" xmlns="http://www.w3.org/2000/svg" xmlns:xlink="http://www.w3.org/1999/xlink">
    <!-- Generator: Sketch 52.5 (67469) - http://www.bohemiancoding.com/sketch -->
    <title>cn</title>
    <desc>Created with Sketch.</desc>
    <g id="Flags" stroke="none" stroke-width="1" fill="none" fill-rule="evenodd">
        <g id="Asia" transform="translate(-730.000000, -250.000000)">
            <g id="cn" transform="translate(730.000000, 250.000000)">
                <polygon id="Path" fill="#DE2910" points="0 0 200 0 200 150 0 150"></polygon>
                <g id="a-link" transform="translate(15.000281, 24.000000)" fill="#FFDE00" fill-rule="nonzero">
                    <polygon id="a" points="8.9998875 40.5 22.4997187 0 35.99955 40.5 0 15.75 44.9994375 15.75"></polygon>
                </g>
                <g id="a-link" transform="translate(75.093750, 24.000000) rotate(-120.929858) translate(-75.093750, -24.000000) translate(67.593775, 16.500070)" fill="#FFDE00" fill-rule="nonzero">
                    <polygon id="a" points="2.99999012 13.4998735 7.49997531 0 11.9999605 13.4998735 0 5.24995079 14.9999506 5.24995079"></polygon>
                </g>
                <g id="a-link" transform="translate(90.000000, 38.937500) rotate(-98.109893) translate(-90.000000, -38.937500) translate(82.500001, 31.437592)" fill="#FFDE00" fill-rule="nonzero">
                    <polygon id="a" points="2.99999952 13.4998348 7.49999881 0 11.9999981 13.4998348 0 5.24993574 14.9999976 5.24993574"></polygon>
                </g>
                <g id="a-link" transform="translate(90.000000, 61.500000) rotate(-74.040178) translate(-90.000000, -61.500000) translate(82.500006, 54.000088)" fill="#FFDE00" fill-rule="nonzero">
                    <polygon id="a" points="2.99999774 13.4998415 7.49999434 0 11.9999909 13.4998415 0 5.24993836 14.9999887 5.24993836"></polygon>
                </g>
                <g id="a-link" transform="translate(74.296833, 76.573921) rotate(-51.320071) translate(-74.296833, -76.573921) translate(66.296833, 69.573921)" fill="#FFDE00" fill-rule="nonzero">
                    <polygon id="a" points="3.99718528 13.5026831 8.49716412 0.0027851348 12.997143 13.5026831 0.997199383 5.25274544 15.9971289 5.25274544"></polygon>
                </g>
            </g>
        </g>
    </g>
</svg>