<?xml version="1.0" encoding="UTF-8"?>
<svg width="200px" height="150px" viewBox="0 0 200 150" version="1.1" xmlns="http://www.w3.org/2000/svg" xmlns:xlink="http://www.w3.org/1999/xlink">
    <!-- Generator: Sketch 52.5 (67469) - http://www.bohemiancoding.com/sketch -->
    <title>fj</title>
    <desc>Created with Sketch.</desc>
    <g id="Flags" stroke="none" stroke-width="1" fill="none" fill-rule="evenodd">
        <g id="Oceania" transform="translate(-730.000000, -50.000000)">
            <g id="fj" transform="translate(730.000000, 50.000000)">
                <polygon id="Path" fill="#68BFE5" points="0 0 0 150 200 150 200 0"></polygon>
                <g id="Group" transform="translate(131.250000, 60.312500)">
                    <path d="M0.28125,0.0625 L0.28125,42.6875 C0.28125,56.625 25.46875,64.875 25.46875,64.875 C25.46875,64.875 50.625,56.625 50.625,42.6875 L50.625,0.0625 L0.28125,0.0625 Z" id="Path" fill="#FFFFFF"></path>
                    <polygon id="Path" fill="#D21034" points="21.96875 15.0625 21.96875 34.25 0.28125 34.25 0.28125 41.21875 21.96875 41.21875 21.96875 63.5625 25.46875 64.90625 28.9375 63.5625 28.9375 41.25 50.625 41.25 50.625 34.25 28.9375 34.25 28.9375 15.0625"></polygon>
                    <polygon id="Path" fill="#D21034" points="0.28125 0.0625 50.625 0.0625 50.625 16.5625 0.25 16.5625"></polygon>
                    <g transform="translate(1.250000, 0.625000)">
                        <g transform="translate(0.109450, 6.929625)" fill="#FFFFFF" id="Oval" stroke="#000000" stroke-width="0.531888">
                            <ellipse cx="2.95031625" cy="2.53477875" rx="2.825655" ry="2.28545625"></ellipse>
                            <ellipse cx="2.95031625" cy="1.35049688" rx="2.51400188" ry="1.26738938"></ellipse>
                            <ellipse cx="2.95031625" cy="3.9060525" rx="2.51400188" ry="1.26738937"></ellipse>
                            <ellipse cx="2.95031625" cy="2.53477875" rx="2.51400188" ry="1.26738937"></ellipse>
                        </g>
                        <path d="M48.125,12.625 L47.71875,11.5 C47.71875,11.5 46.59375,11.03125 46.5,10.4375 C46.3125,8.84375 45.75,8.25 44.875,8 C44.4038323,7.86643471 43.8991066,7.92251536 43.46875,8.15625 C43.21875,8.53125 41.90625,8.53125 41.21875,8.5625 C40.5,8.5625 40.46875,8.25 40.46875,8.25 C39.9375,8.25 39.6875,7.84375 39.6875,7.84375 C39.34375,7.125 39.0625,6.84375 38.875,6.75 C39.8125,6.75 40.5,6.34375 41.5625,5.25 C42.6875,4.0625 43.5,4.5 43.5,4.5 C42.9375,5.625 43.6875,5.53125 43.6875,5.53125 C45.1875,4.75 43.875,2.8125 43.4375,2.90625 C42.96875,3 42.84375,2.6875 42.84375,2.6875 C42.84375,3.03125 42.34375,3.1875 42.34375,3.1875 C42.71875,0.96875 41.40625,0.375 41.40625,0.375 C41.21875,0.5625 41.09375,0.96875 41.09375,0.96875 C40.71875,2.3125 39.5,2.09375 38.125,1.4375 C36.75,0.8125 33.125,2.125 31.96875,2.59375 C30.8125,3.0625 28.71875,3.75 26.84375,2.71875 C24.96875,1.65625 24.5,1.84375 23.75,2.0625 C23.03125,2.25 21.71875,2.5625 21.25,2.3125 C20.9193144,2.145701 20.5574014,2.0499005 20.1875,2.03125 C20.3125,1.96875 20.125,1.65625 20.125,1.65625 C19.53125,0.875 20.1875,0.40625 20.1875,0.40625 C20.1875,0.40625 19.125,0.71875 19.5625,2.53125 L19.75,2.78125 C19.75,2.78125 19.875,3.375 20.1875,3.53125 L20.1875,3.65625 C20.1875,3.65625 20.46875,3.53125 20.53125,3.90625 C20.625,4.28125 21.03125,3.90625 21.1875,3.59375 C21.1875,3.59375 20.90625,5.28125 22.96875,5.6875 C22.96875,5.6875 22.75,5.40625 22.8125,5.25 C22.90625,5.0625 22.5625,4.9375 22.59375,4.6875 C22.625,4.40625 22.09375,4.3125 22.5,4.09375 C22.9375,3.90625 23.125,3.5 24.0625,4.0625 C24.96875,4.59375 25.6875,4.46875 25.6875,4.46875 C25.6875,4.46875 25.125,3.34375 25.4375,3.34375 C25.75,3.34375 27.125,5.03125 27.78125,4.96875 C28.46875,4.875 29.78125,4.09375 30.4375,4.375 C30.4375,4.375 30.5,4.0625 33,3.625 C35.5,3.1875 38.625,1.9375 39.78125,3.03125 C39.78125,3.03125 39.90625,3.90625 40.40625,4.125 C40.40625,4.125 40.3125,5.9375 37.21875,4.9375 L36.09375,4.625 C36.09375,4.625 35.90625,4.09375 30,5.625 C30,5.625 29.65625,5.75 29.40625,5.90625 C29.1875,6.0625 28.875,5.8125 27.6875,6.21875 C26.53125,6.6875 22.15625,8.09375 19.46875,7.59375 C18.875,7.40625 18.34375,7.5 18.3125,7.40625 C18.3125,7.3125 18.625,7.4375 18.625,7.4375 C18.4375,7.21875 18.34375,7.1875 18.34375,7.1875 C16.09375,6.9375 16.46875,5.9375 16.46875,5.9375 L16.59375,6.25 C16.96875,5.75 16.46875,4.625 16.46875,4.625 L16.4375,4.625 C16.438734,4.59376218 16.438734,4.56248782 16.4375,4.53125 L16.59375,4.40625 C17.6875,3.46875 18.9375,3.3125 18.9375,3.3125 C18.1875,2.375 16.625,2.875 16.625,2.875 C16.65625,1.78125 16.1875,0.46875 16.1875,0.46875 C15.2249168,0.626738427 14.3617771,1.15358989 13.78125,1.9375 C13.71875,0.78125 12.25,0.125 12.25,0.125 C12.8125,0.78125 12.46875,2.375 12.46875,2.375 L12.53125,2.375 L12.375,2.375 L12.34375,2.71875 L12.28125,2.71875 C12.28125,2.71875 11.75,2.90625 11.125,4.34375 C11.125,4.34375 11.0625,4.65625 10.8125,4.96875 L10.8125,4.84375 C10.8125,4.84375 10.09375,5.78125 8.5,4.84375 C8.5,4.84375 6.3125,3.5625 5.5,3.59375 C4.75,3.65625 4.25,4 4.28125,4.21875 C4.28125,4.21875 2.5,4.09375 1.90625,5.09375 C1.90625,5.09375 0.5625,5.59375 1.71875,6.65625 C1.71875,6.65625 1.875,7.15625 2.1875,7.40625 C2.1875,7.40625 2.15625,6.40625 2.40625,6.6875 L2.5625,6.875 C2.59375,7 2.71875,7.375 2.9375,7.59375 L3.125,7.53125 C3.125,7.28125 3.1875,6.96875 3.25,6.84375 L3.3125,6.84375 L3.625,7.34375 L3.9375,7.15625 C4.125,7.15625 4.34375,7.3125 4.34375,7.3125 L4.75,6.96875 C5.15625,7.03125 5.28125,6.21875 5.28125,6.21875 C5.61196547,6.3008897 5.96187995,6.24445188 6.25,6.0625 C6.4375,6.6875 7.875,7.40625 7.875,7.40625 L7.9375,7.40625 L7.75,7.53125 C8.40625,8 9.625,7.875 9.625,7.875 C9.125,8.0625 9.1875,9.03125 9.1875,9.03125 C8.875,9.15625 8.875,9.4375 8.875,9.4375 C9.875,9.84375 10.53125,9.5 10.53125,9.5 C10.59375,9.8125 10.53125,9.875 10.53125,9.875 C10.125,10.71875 9.9375,11.5625 9.9375,11.5625 L9.96875,11.5625 L9.96875,11.625 C9.96875,11.625 8.1875,12.25 7.4375,13.09375 C7.4375,13.09375 7.34375,12.84375 7.125,12.84375 C6.90625,12.84375 6.25,12.28125 5.9375,12.1875 C5.625,12.09375 5.15625,12.28125 5,12.125 C4.90625,12 4.96875,11 4.75,10.875 L4.53125,10.25 C4.40625,10.5625 3.78125,10.5 3.78125,10.5 L3.53125,10.6875 L3.28125,10.65625 C3.21875,10.65625 3.15625,10.8125 3.125,10.96875 L3.03125,11.0625 L3.03125,10.875 C2.9375,10.96875 2.6875,10.84375 2.59375,10.84375 C2.53125,10.84375 2.46875,10.96875 2.4375,11.125 L1.84375,11.15625 C1.75,11.21875 1.84375,11.96875 1.84375,11.96875 C1.125,12.34375 1.46875,12.9375 1.46875,12.9375 C1.84375,14.8125 5.0625,13.96875 5.3125,14.21875 C5.5625,14.46875 6.125,14.53125 6.40625,14.53125 C6.71875,14.53125 7.0625,15.21875 7.46875,15.28125 C7.875,15.34375 7.46875,14.71875 9.375,14.28125 C11.28125,13.8125 11.9375,13.03125 11.9375,13.03125 C12.53125,12.90625 12.6875,12.1875 12.71875,11.90625 L12.78125,12.34375 C12.875,13 12.40625,13.28125 12.40625,13.28125 L14.0625,12.75 C14.71875,12.59375 14.625,12 14.625,12 C15.25,13.8125 16.40625,13.9375 16.40625,13.9375 C16.625,13.25 16.59375,13.03125 16.59375,13.03125 L17.125,13.03125 C17.125,12.625 16.8125,12.34375 16.59375,12.21875 L17.40625,12.6875 L17.71875,12.65625 C17.71875,12.9375 18.125,13.1875 18.125,13.1875 L18.1875,12.8125 C18.5625,13.3125 19.25,13.125 19.25,13.125 C19.2338938,13.0405556 19.2130272,12.9570891 19.1875,12.875 C20.65625,13.78125 23,12.625 23,12.625 C23.625,12.75 23.71875,12.375 23.71875,12.375 C24.40625,12.46875 24.59375,11.96875 24.59375,11.96875 C26.25,11.84375 27.4375,10.65625 27.4375,10.65625 C28.28125,10.59375 28.3125,10 28.3125,10 C28.3125,10 29.125,10.15625 29.9375,9.15625 C31.8125,6.5 34.5625,7.90625 34.5625,7.90625 L32.96875,8 C28.75,7.96875 30.5,10.8125 30.5,10.8125 L30.75,10.8125 C31.15625,10.875 32.53125,11.96875 32,12.75 L32,12.8125 C31.125,13.96875 29.5625,12.875 29.09375,11.875 C28.65625,10.875 27.71875,11.09375 27.71875,11.09375 C27.71875,11.09375 25.375,11.5 26.34375,13.375 C26.375,13.84375 26.65625,14.375 27.53125,14.875 C28,15.5625 29.5625,15.625 30.6875,15.375 C31.25,15.3125 34.0625,14.0625 34.0625,14.0625 C34.28125,13.4375 35,13.59375 35.625,12.6875 C36.25,11.8125 34.71875,11.5 34.375,11 C34.0625,10.53125 34.46875,10.625 34.46875,10.625 C35.84375,11.34375 35.96875,9 35.96875,9 C36.052192,9.7823148 36.5734312,10.4490162 37.3125,10.71875 C38.03125,10 37.5,8.46875 37.5,8.46875 C39.28125,11.65625 40.34375,11.125 40.34375,11.125 C39.40625,10.5625 39.875,9.75 39.875,9.75 C40.71875,13.125 44.25,10.1875 44.25,10.1875 C44.0625,10.6875 44.25,10.96875 44.5625,11.28125 C44.875,11.59375 45.25,11.71875 45.0625,12.3125 C44.90625,12.875 43.25,12.75 43.25,12.75 C43.25,12.75 41.6875,12.6875 41.8125,14 C41.90625,14.3125 42.9375,14.4375 43.375,14.34375 C43.375,14.34375 43.1875,14.40625 43.78125,14.46875 L44.46875,14.46875 C45.125,14.46875 45.875,14.34375 45.875,14.34375 C46.78125,14.15625 46.625,13.84375 46.625,13.84375 C48.03125,13.59375 48.1875,12.65625 48.1875,12.65625 L48.125,12.625 Z" id="Path" stroke="#000000" stroke-width="0.8" fill="#FFD100"></path>
                        <path d="M1.75,6.78125 C1.75,6.78125 1.84375,6.625 1.96875,6.59375 C2.09375,6.59375 2.21875,6.65625 2.34375,6.84375 L2.4375,6.78125 C2.4375,6.78125 2.0625,6.21875 2.1875,5.84375 C2.28125,5.65625 2.4375,5.53125 2.6875,5.5 L2.6875,5.40625 C2.375,5.46875 2.1875,5.59375 2.125,5.8125 C2.09095932,5.88097896 2.0697751,5.95512373 2.0625,6.03125 C2.0625,6.21875 2.125,6.40625 2.21875,6.5625 C2.14667366,6.51003748 2.05703502,6.48762782 1.96875,6.5 C1.85790608,6.5133545 1.76260662,6.5848291 1.71875,6.6875 L1.75,6.78125 Z M45.8125,14.28125 C44.875,14.4375 43.46875,14.5 43.34375,14.21875 C43.34375,14.15625 43.34375,13.96875 44.09375,13.46875 L44.03125,13.3125 C43.375,13.75 43.09375,14.03125 43.1875,14.25 C43.40625,14.8125 45.4375,14.5 45.84375,14.4375 L45.8125,14.28125 Z M27.5625,14.8125 C27.34375,14.5 27.46875,14.03125 27.875,13.46875 L27.71875,13.375 C27.28125,14 27.1875,14.5 27.40625,14.9375 L27.5625,14.8125 Z" id="Shape" fill="#000000" fill-rule="nonzero"></path>
                        <path d="M26.28125,13.375 C26.28125,13.96875 26.71875,14.5 27.5,14.96875 L27.59375,14.8125 C26.84375,14.375 26.46875,13.875 26.46875,13.375 C26.40625,12.59375 27.25,11.96875 27.28125,11.96875 L27.1875,11.84375 C27.125,11.84375 26.25,12.5 26.28125,13.40625 L26.28125,13.375 Z M42.53125,13.59375 C42.28125,14 42.375,14.46875 42.375,14.46875 L42.53125,14.46875 C42.53125,14.4375 42.46875,14.03125 42.6875,13.6875 C42.8367252,13.4833162 43.0621143,13.3480828 43.3125,13.3125 L43.3125,13.15625 C42.96875,13.21875 42.6875,13.375 42.5625,13.59375 L42.53125,13.59375 Z M5.3125,6.28125 L5.25,6.28125 L5.25,6.34375 C5.25,6.34375 5.1875,6.84375 4.9375,6.96875 C4.87736683,6.99307506 4.81013317,6.99307506 4.75,6.96875 L4.34375,6.75 C4.28125,6.6875 4.21875,6.65625 4.09375,6.6875 C3.99232822,6.56577886 3.94694268,6.40692946 3.96875,6.25 C4,6.03125 4.15625,5.8125 4.46875,5.625 L4.40625,5.53125 C4.09375,5.75 3.90625,6 3.875,6.25 C3.875,6.5625 4.03125,6.75 4.03125,6.75 L4.03125,6.78125 L4.09375,6.78125 C4.1875,6.75 4.1875,6.78125 4.28125,6.84375 L4.71875,7.09375 L5.03125,7.09375 C5.25,6.9375 5.34375,6.5 5.34375,6.40625 C6.34375,6.625 7.15625,5.375 7.21875,5.34375 L7.125,5.28125 C7.125,5.28125 6.28125,6.53125 5.3125,6.28125 Z" id="Shape" fill="#000000" fill-rule="nonzero"></path>
                        <path d="M2.84375,6.09375 C2.81114483,6.31028836 2.85536893,6.53140889 2.96875,6.71875 C3.0625,6.875 3.1875,6.96875 3.28125,7 C3.4375,7 3.53125,6.90625 3.65625,6.8125 C3.71875,6.75 3.78125,6.6875 3.84375,6.6875 L3.9375,6.75 L4,6.6875 L3.84375,6.59375 C3.75,6.59375 3.65625,6.65625 3.59375,6.75 C3.53125,6.84375 3.40625,6.90625 3.28125,6.90625 C3.21875,6.90625 3.125,6.8125 3.03125,6.65625 C2.92892786,6.4993346 2.89506769,6.30746031 2.9375,6.125 C3.0625,5.6875 3.59375,5.34375 3.59375,5.34375 L3.5625,5.25 C3.53125,5.25 2.96875,5.625 2.84375,6.09375 Z M1.46875,12.5625 C1.5,12.375 1.65625,12.25 1.875,12.125 C1.8125,12.125 2.0625,12.3125 2.28125,12.3125 L2.4375,12.21875 C2.5,12.28125 2.875,12.625 2.875,13.0625 C2.875,13.15625 2.875,13.25 2.8125,13.34375 L2.90625,13.375 C3.1875,12.71875 2.46875,12.125 2.46875,12.125 L2.40625,12.125 L2.28125,12.21875 C2.09375,12.21875 1.875,12.03125 1.875,12.03125 C1.5625,12.15625 1.4375,12.34375 1.375,12.53125 L1.46875,12.5625 Z M4.6875,10.875 C4.46875,10.90625 3.90625,11 3.71875,11.3125 C3.65625,11.4375 3.625,11.5625 3.6875,11.6875 L3.75,11.875 C3.9375,12.375 4.125,12.875 4.34375,13 L4.375,12.90625 C4.1875,12.8125 4,12.28125 3.84375,11.84375 L3.78125,11.65625 C3.72542725,11.5595622 3.72542725,11.4404378 3.78125,11.34375 C3.9375,11.125 4.46875,11.03125 4.71875,11 C4.84375,11 4.875,11.46875 4.90625,11.75 L5,11.75 C4.96875,11.3125 4.90625,10.875 4.6875,10.875 Z" id="Shape" fill="#000000" fill-rule="nonzero"></path>
                        <path d="M3.09375,11.375 C2.96875,11.46875 3,11.625 3,11.65625 C3,11.6875 3.0625,12.90625 3.625,13.15625 L3.65625,13.0625 C3.15625,12.84375 3.09375,11.65625 3.09375,11.625 C3.09375,11.625 3.09375,11.5 3.15625,11.4375 C3.25,11.375 3.40625,11.34375 3.65625,11.4375 L3.6875,11.34375 C3.40625,11.25 3.21875,11.28125 3.09375,11.34375 L3.09375,11.375 Z" id="Path" fill="#000000"></path>
                        <path d="M2.625,11.46875 C2.375,11.65625 2.40625,12.15625 2.40625,12.1875 L2.5,12.1875 C2.5,12.1875 2.5,11.6875 2.6875,11.5625 C2.78125,11.5 2.875,11.5 3,11.5625 L3.03125,11.4375 C2.875,11.375 2.71875,11.375 2.625,11.4375 L2.625,11.46875 Z" id="Path" fill="#000000"></path>
                        <g transform="translate(7.589125, 2.358713)" fill="#000000">
                            <path d="M8.78861812,2.38934062 C8.78861812,2.38934062 9.0587175,3.01264687 9.0587175,3.490515 C9.0587175,3.5736225 9.01716375,3.63595312 8.99638687,3.69828375 L8.8925025,3.42818437 L8.83017187,3.63595312 C8.83017187,3.63595312 8.70551062,3.92682937 8.8925025,4.2384825 C9.141825,4.65402 9.76513125,4.9033425 10.7624212,5.00722687 L10.7624212,5.02800375 C10.7333792,5.02754902 10.7047251,5.03471257 10.6793138,5.04878062 L10.63776,5.09033437 L10.63776,5.17344187 C10.6793138,5.27732625 10.7831981,5.27732625 11.0117437,5.27732625 L11.1571819,5.29810312 L11.2818431,5.33965687 L11.2610663,5.31888 C11.468835,5.31888 11.7389344,5.38121062 12.0090338,5.485095 L11.801265,5.52664875 L12.0298106,5.63053312 C12.0505875,5.63053312 13.8373988,6.35772375 14.5645894,6.93947625 C14.3568206,7.12646812 13.463415,7.77055125 11.9259263,7.3965675 L11.6766038,7.33423687 L11.8428187,7.54200562 C11.8428187,7.54200562 12.8608856,8.70551062 13.0686544,9.41192437 C12.7154475,9.41192437 11.3649506,9.41192437 10.8870825,8.99638687 L10.7831981,9.10027125 C10.7831981,9.10027125 11.4065044,10.0560075 11.5727194,10.7831981 C11.3649506,10.8247519 10.9494131,10.8455287 10.6793137,10.4923219 L10.5546525,10.3468837 L10.4923219,10.7624212 C10.3676606,10.6585369 10.2014456,10.5338756 10.2014456,10.3676606 L10.2014456,10.2845531 L9.82746188,10.3468837 L9.03794063,9.86901562 C8.99765717,9.83945345 8.95606117,9.81172279 8.91327938,9.78590812 L8.83017188,9.93134625 L8.95483313,9.99367687 C9.12104813,10.1183381 9.41192438,10.3468837 9.43270125,10.6793137 L8.93405625,10.6793137 L8.93405625,10.7831981 C8.93405625,10.8455287 8.93405625,11.0740744 8.74706438,11.5519425 C8.51851875,11.5103887 7.64589,11.1987356 7.12646813,9.7235775 L6.96025313,9.76513125 L6.96025313,9.806685 C6.96025313,9.95212312 6.91869938,10.2845531 6.46160813,10.4092144 L5.11111125,10.8247519 C5.22946313,10.6546165 5.28793088,10.4499794 5.27732625,10.2429994 L5.27732625,10.0767844 C5.25191196,9.89779478 5.23803208,9.71735635 5.2357725,9.53658562 C5.2357725,9.2249325 5.29810312,9.03794062 5.52664875,8.91327937 L5.44354125,8.74706437 C5.42276438,8.74706437 3.44896125,9.5573625 2.47244813,9.2249325 C2.51400188,9.01716375 2.68021688,8.35230375 3.01264688,7.64589 L2.97109313,7.68744375 C3.03342375,7.64589 3.09575438,7.5627825 3.03342375,7.2303525 L3.03342375,7.12646812 L2.92953938,7.16802187 C2.92953938,7.16802187 2.30623313,7.45889812 1.39205063,7.12646812 C1.39205063,7.04336062 1.45438125,6.91869937 1.64137313,6.83559187 L1.70370375,6.814815 L1.70370375,6.6486 C1.70370375,6.3992775 1.72448063,5.817525 2.0776875,5.69286375 L2.03613375,5.52664875 C2.03613375,5.52664875 0.976513125,5.60975625 0.33243,5.25654937 C0.610558973,5.0565545 0.930089353,4.92164167 1.26738937,4.86178875 L1.32972,4.86178875 L1.32972,4.77868125 C1.32698148,4.61409544 1.29167411,4.45168156 1.22583562,4.30081312 C1.47515812,4.38392062 1.76603437,4.44625125 1.86991875,4.36314375 L1.9114725,4.34236687 L1.86991875,3.69828375 L1.70370375,3.69828375 L1.72448062,4.2384825 L1.10117437,4.09304437 L0.851851875,4.00993687 L1.01806687,4.21770562 C1.11857738,4.3641126 1.16954707,4.53886582 1.163505,4.71635062 C0.786456997,4.79779144 0.431850251,4.96091054 0.12466125,5.19421875 L0.020776875,5.27732625 L0.12466125,5.33965687 C0.62330625,5.67208687 1.39205062,5.71364062 1.78681125,5.69286375 C1.60994952,5.97260282 1.51627401,6.29686417 1.51671187,6.62782312 L1.51671187,6.71093062 C1.34935014,6.80864776 1.23488473,6.97653036 1.20505875,7.16802187 L1.20505875,7.2303525 L1.2466125,7.25112937 C1.76188926,7.48823892 2.34692643,7.52526658 2.88798562,7.35501375 L2.88798562,7.54200562 C2.47244812,8.41463437 2.26467937,9.26648625 2.26467937,9.26648625 L2.26467937,9.34959375 L2.32701,9.34959375 C3.13730812,9.68202375 4.55013562,9.24570937 5.19421875,9.01716375 C5.11111125,9.16260187 5.04878062,9.32881687 5.04878062,9.53658562 C5.0513157,9.77331161 5.07215471,10.009487 5.11111125,10.2429994 C5.11111125,10.7208675 4.79945812,10.9078594 4.77868125,10.9078594 L4.84101187,11.0740744 L6.50316187,10.5754294 C6.87714562,10.471545 7.02258375,10.2429994 7.08491437,10.0560075 C7.7289975,11.5934962 8.74706437,11.7181575 8.809395,11.7389344 L8.87172562,11.7389344 L8.8925025,11.6766037 C9.00239573,11.4113511 9.0724111,11.1312897 9.10027125,10.8455287 C9.26650486,10.8390573 9.43272048,10.8321316 9.59891625,10.8247519 L9.59891625,10.7208675 C9.59891625,10.5754294 9.57813937,10.4507681 9.51580875,10.3468837 L9.806685,10.5130987 L10.0767844,10.471545 C10.139115,10.7416444 10.471545,10.97019 10.5130987,10.9909669 L10.6169831,11.0532975 L10.6793137,10.7000906 C11.0948512,11.0532975 11.6558269,10.9494131 11.6973806,10.9494131 L11.7597112,10.9286362 L11.7597112,10.8455287 C11.6766037,10.2845531 11.30262,9.61969312 11.0740744,9.26648625 C11.801265,9.59891625 13.130985,9.57813937 13.1933156,9.57813937 L13.2764231,9.57813937 L13.2764231,9.474255 C13.0026528,8.78682903 12.6086691,8.15364092 12.1129181,7.60433625 C13.8166219,7.91598937 14.7308044,7.02258375 14.7723581,6.98103 L14.8346887,6.91869937 L14.7515812,6.87714562 C14.0049845,6.34355393 13.1955205,5.90393126 12.3414637,5.5682025 L12.5284556,5.52664875 L12.3206869,5.42276437 C11.9475227,5.23223151 11.5346196,5.13256524 11.1156281,5.13188812 C10.9078594,4.88256562 10.803975,4.86178875 10.7831981,4.84101187 C9.61969312,4.71635062 9.20415562,4.4046975 9.03794062,4.155375 L9.03794062,4.09304437 L9.07949437,4.03071375 C9.18337875,3.88527562 9.2249325,3.69828375 9.2249325,3.490515 C9.2249325,2.95031625 8.95483312,2.34778687 8.95483312,2.32701 L8.78861812,2.38934062 Z" id="Path"></path>
                            <path d="M3.490515,2.05691062 C3.490515,2.05691062 3.36585375,2.68021687 2.825655,2.99187 C2.4101175,3.19963875 1.89069562,3.19963875 1.2466125,2.92953937 L1.163505,2.9087625 L1.163505,2.99187 C1.20986008,3.25925835 1.35900632,3.49789234 1.5790425,3.65673 C1.84914187,3.86449875 2.26467937,3.94760625 2.80487812,3.9060525 C2.61788625,4.11382125 2.05691062,4.820235 2.05691062,5.52664875 L2.05691062,5.63053312 C2.14001812,5.67208687 3.01264687,5.92140937 3.42818437,5.4019875 C3.42818437,5.60975625 3.51129187,6.33694687 3.78139125,6.60704625 C3.94760625,6.77326125 3.98916,6.98103 3.98916,7.16802187 C3.98916,7.33423688 3.94760625,7.45889813 3.94760625,7.45889813 L3.9060525,7.58355937 L4.00993687,7.50045187 C4.05149062,7.479675 4.86178875,6.87714562 5.11111125,6.10840125 C5.11111125,6.10840125 5.25654937,5.9006325 5.50587187,5.83830187 L5.50587187,5.94218625 C5.50587187,6.25383937 5.63053312,6.79403812 6.50316187,7.12646812 L6.5654925,7.147245 L6.5654925,7.08491437 C6.56310122,7.03646449 6.56310122,6.98792614 6.5654925,6.93947625 C6.5654925,6.71093062 6.5654925,6.31617 6.79403812,6.10840125 C6.98302469,5.9327801 7.03377215,5.65366904 6.91869937,5.42276437 C7.10569125,5.46431812 7.52122875,5.60975625 7.68744375,5.92140937 C7.93676625,6.37850062 8.78861812,6.00451688 8.83017187,6.00451688 L8.809395,5.9006325 C8.809395,5.9006325 8.43541125,5.98374 8.20686562,5.83830187 C8.11000925,5.76248961 8.04965085,5.64931762 8.04065062,5.52664875 L7.99909687,5.02800375 C7.99909687,4.820235 7.95754312,4.67479688 7.85365875,4.5709125 C7.95754312,4.5709125 8.18608875,4.5709125 8.26919625,4.77868125 C8.43541125,5.11111125 8.95483312,5.13188812 8.97561,5.13188812 L9.16260187,5.152665 L9.01716375,5.04878062 C9.01716375,5.04878062 8.5600725,4.75790437 8.64318,4.36314375 L8.70551062,4.0722675 C8.83017187,3.55284562 9.03794062,2.70099375 8.85094875,2.160795 L8.76784125,2.20234875 C8.809395,2.32701 8.83017187,2.493225 8.83017187,2.65944 C8.83017187,3.11653125 8.68473375,3.69828375 8.62240312,4.05149062 L8.53929562,4.34236687 C8.53595827,4.37691459 8.53595827,4.41170354 8.53929562,4.44625125 C8.53929562,4.71635062 8.68473375,4.9033425 8.809395,5.00722687 C8.66395687,4.98645 8.45618812,4.9033425 8.3938575,4.7371275 C8.24841937,4.44625125 7.91598937,4.44625125 7.77055125,4.46702812 L7.64589,4.487805 L7.7289975,4.5709125 C7.87443562,4.65402 7.8952125,4.77868125 7.8952125,5.04878062 L7.93676625,5.52664875 C7.95754312,5.69286375 8.04065062,5.817525 8.144535,5.9006325 C8.26919625,5.98374 8.3938575,5.98374 8.49774187,6.00451687 C8.24841937,6.0668475 7.8952125,6.10840125 7.77055125,5.87985562 C7.54200562,5.42276437 6.87714562,5.31888 6.85636875,5.29810312 L6.75248437,5.29810312 L6.79403812,5.38121062 C6.79403812,5.38121062 6.87714562,5.50587187 6.87714562,5.67208687 C6.87714562,5.77597125 6.83559187,5.92140937 6.7317075,6.02529375 C6.50316187,6.25383937 6.46160812,6.69015375 6.46160812,6.91869937 L6.46160812,7.00180687 C5.71364062,6.69015375 5.58897937,6.2330625 5.58897937,5.96296312 L5.58897937,5.75519437 L5.63053312,5.69286375 L5.54742562,5.69286375 C5.3257829,5.73052962 5.13402455,5.86859562 5.02800375,6.0668475 C4.82145889,6.5746475 4.4846242,7.01898262 4.05149062,7.35501375 C4.06345735,7.2863546 4.07040139,7.21691421 4.0722675,7.147245 C4.0722675,6.96025312 4.03071375,6.7317075 3.86449875,6.54471562 C3.55284562,6.25383937 3.51129187,5.29810312 3.51129187,5.29810312 L3.51129187,5.13188812 L3.42818437,5.27732625 C3.09575437,5.85907875 2.14001812,5.5682025 2.11924125,5.5682025 C2.0776875,4.84101187 2.95031625,3.88527562 2.95031625,3.86449875 L3.03342375,3.78139125 L2.9087625,3.78139125 C2.34778687,3.86449875 1.9114725,3.78139125 1.62059625,3.5736225 C1.45543604,3.44197064 1.33853784,3.2593172 1.28816625,3.05420062 C1.9114725,3.28274625 2.45167125,3.30352312 2.86720875,3.0749775 C3.23036297,2.85443423 3.48606406,2.49344445 3.5736225,2.0776875 C4.19692875,0.70641375 4.71635062,0.477868125 4.71635062,0.477868125 L4.69557375,0.394760625 C4.65402,0.394760625 4.11382125,0.602529375 3.490515,2.05691062 Z" id="Path"></path>
                            <path d="M4.88256562,7.41160605e-16 L4.84101187,7.41160605e-16 L4.34236687,0.685636875 L4.487805,0.685636875 C6.03817833,0.807754871 7.49201194,1.48670255 8.58084938,2.59710937 L8.64318,2.65944 L9.12104813,2.14001812 L9.07949438,2.0776875 C7.7289975,-0.04155375 4.9033425,-1.10691282e-14 4.86178875,-1.10691282e-14 L4.88256562,7.41160605e-16 Z M4.92411938,0.186991875 C5.25654938,0.186991875 7.66666688,0.2493225 8.91327938,2.11924125 L8.64318,2.4101175 C7.54702489,1.36840011 6.13723242,0.718288557 4.63324313,0.560975625 C4.72997661,0.436139334 4.82693552,0.311477881 4.92411938,0.186991875 Z" id="Shape" fill-rule="nonzero"></path>
                            <path d="M4.487805,1.4128275 C4.26416631,1.70526402 4.11448266,2.04739807 4.05149063,2.4101175 L4.0722675,2.493225 C3.78044878,2.79951306 3.6298131,3.2137612 3.65673,3.63595313 C3.65673,3.9060525 3.69828375,4.17615188 3.78139125,4.42547438 L3.84372187,4.5709125 C4.09304438,5.27732625 4.32159,5.9006325 5.46431812,5.52664875 C6.54471562,5.19421875 6.58626937,5.11111125 6.85636875,4.65402 L6.93947625,4.55013563 C7.08491438,4.30081313 7.25112937,4.25925938 7.41734437,4.19692875 C7.62511312,4.13459813 7.83288187,4.0722675 8.04065062,3.69828375 L8.20686562,3.42818438 C8.41463437,3.158085 8.66395687,2.80487813 8.68473375,2.38934063 L8.60162625,2.38934063 C8.53977884,2.75000493 8.38187885,3.08733672 8.144535,3.36585375 L7.93676625,3.65673 C7.84471942,3.89002317 7.64187817,4.06165808 7.3965675,4.11382125 C7.17177171,4.15661263 6.9755496,4.29245871 6.85636875,4.487805 L6.77326125,4.61246625 C6.52393875,5.04878063 6.482385,5.11111125 5.42276437,5.44354125 C4.38392062,5.77597125 4.17615187,5.25654938 3.92682937,4.52935875 L3.86449875,4.38392063 C3.5736225,3.59439938 3.80216812,2.80487813 4.19692875,2.51400188 L4.32159,2.4101175 L4.13459812,2.43089438 L4.13459812,2.4101175 C4.13459812,2.26467938 4.28003625,1.86991875 4.55013562,1.47515813 C4.79945813,1.14272813 5.38121062,0.831075 5.38121062,0.810298125 L5.33965687,0.727190625 C5.29810312,0.7479675 4.7371275,1.0803975 4.487805,1.4128275 Z" id="Path"></path>
                            <path d="M3.98916,4.30081312 C4.17615188,4.42547437 4.42547438,4.4046975 4.75790438,4.30081312 C4.75790438,4.4046975 4.75790438,4.65402 4.96567313,4.820235 C5.21499563,5.02800375 5.58897938,5.0695575 6.10840125,4.94489625 L6.10840125,4.84101187 C5.60975625,4.96567312 5.2357725,4.92411937 5.02800375,4.7371275 C4.89422933,4.6072466 4.82562406,4.42429923 4.84101188,4.2384825 L4.84101188,4.155375 L4.77868125,4.19692875 C4.46702813,4.32159 4.21770563,4.34236687 4.03071375,4.19692875 C3.71906063,3.98916 3.7398375,3.42818437 3.7398375,3.42818437 L3.65673,3.42818437 C3.65673,3.42818437 3.61517625,4.05149062 3.98916,4.30081312 Z" id="Path"></path>
                            <path d="M4.5709125,3.53206875 C4.44625125,3.5736225 4.4046975,3.67750687 4.4046975,3.76061437 L4.4046975,3.822945 C4.44625125,4.0722675 4.71635063,4.2384825 4.94489625,4.30081312 C5.19421875,4.36314375 5.485095,4.38392062 5.58897938,4.2384825 C5.63053313,4.17615187 5.67208688,4.0722675 5.58897938,3.88527562 C5.40331491,3.5211307 4.96515579,3.36594934 4.59168938,3.53206875 L4.5709125,3.53206875 Z M4.98645,4.21770562 C4.77868125,4.155375 4.52935875,4.00993687 4.50858188,3.80216812 C4.50858188,3.80216812 4.487805,3.65673 4.61246625,3.61517625 C4.94551288,3.48017363 5.32628767,3.62523069 5.485095,3.94760625 C5.54742562,4.03071375 5.54742562,4.11382125 5.50587187,4.155375 C5.44354125,4.25925937 5.21499563,4.28003625 4.98645,4.21770562 Z M4.9033425,4.77868125 C4.84101188,5.29810312 4.9033425,5.31888 4.92411938,5.31888 L4.96567313,5.31888 L5.00722688,5.29810312 L5.29810313,4.88256562 L4.92411938,4.71635062 L4.92411938,4.77868125 L4.9033425,4.77868125 Z M5.00722688,4.86178875 L5.152665,4.92411938 L4.98645,5.152665 L4.98645,4.86178875 L5.00722688,4.86178875 Z M4.13459812,4.36314375 L4.11382125,4.84101187 L4.52935875,4.34236687 L4.11382125,4.30081313 L4.11382125,4.36314375 L4.13459812,4.36314375 Z M4.21770562,4.4046975 L4.34236687,4.4046975 L4.21770562,4.5709125 L4.21770562,4.4046975 Z" id="Shape" fill-rule="nonzero"></path>
                            <path d="M3.84372187,4.19692875 C3.84372187,4.19692875 4.155375,4.79945812 4.21770562,5.02800375 C4.2384825,5.152665 4.42547437,5.31888 4.63324312,5.38121062 C4.84101187,5.46431812 5.04878062,5.46431812 5.19421875,5.36043375 L5.46431812,5.13188812 C5.54742562,5.02800375 5.58897937,5.00722687 5.67208687,5.02800375 L5.67208687,4.92411937 C5.54742562,4.92411937 5.485095,4.96567312 5.4019875,5.04878062 L5.13188813,5.25654937 C4.96567313,5.38121062 4.77868125,5.33965687 4.67479687,5.29810312 C4.46702812,5.2357725 4.32159,5.09033437 4.30081313,4.98645 C4.2384825,4.77868125 3.94760625,4.17615187 3.92682938,4.155375 L3.84372188,4.19692875 Z M4.25925937,2.4101175 C4.02499053,2.53341511 3.84663207,2.74149998 3.76061438,2.99187 L3.84372187,3.01264688 C3.84372187,3.01264688 3.98916,2.63866313 4.28003625,2.493225 C4.43845293,2.42121949 4.62026457,2.42121949 4.77868125,2.493225 L4.79945813,2.4101175 C4.59168938,2.32701 4.42547438,2.32701 4.2384825,2.4101175 L4.25925937,2.4101175 Z M6.50316187,3.490515 C6.54471562,3.490515 7.16802187,3.98916 6.814815,4.5709125 L6.87714562,4.63324312 C7.29268312,3.94760625 6.5654925,3.4074075 6.5654925,3.38663062 L6.50316187,3.490515 Z M4.59168937,3.5736225 C4.59168937,3.5736225 4.487805,3.92682937 5.00722687,4.05149062 C5.00722687,4.05149062 4.52935875,4.05149062 4.487805,3.92682937 C4.46702812,3.80216812 4.487805,3.53206875 4.59168937,3.5736225 Z M6.149955,3.98916 C6.149955,4.03071375 6.10840125,4.05149062 6.08762437,4.05149062 C6.05991298,4.05306231 6.03450119,4.03612112 6.02529375,4.00993688 C6.02529375,3.96838313 6.04607063,3.94760625 6.08762437,3.94760625 C6.10840125,3.94760625 6.149955,3.96838313 6.149955,4.00993688 L6.149955,3.98916 Z M6.19150875,4.2384825 C6.19150875,4.25925937 6.19150875,4.28003625 6.149955,4.28003625 C6.1222436,4.28160794 6.09683182,4.26466675 6.08762437,4.2384825 C6.08762437,4.20405825 6.11553075,4.17615187 6.149955,4.17615187 C6.17073188,4.17615187 6.19150875,4.19692875 6.19150875,4.2384825 Z" id="Shape" fill-rule="nonzero"></path>
                            <circle id="Oval" cx="5.81769438" cy="4.11399062" r="1"></circle>
                            <path d="M5.98374,4.44625125 C5.98374,4.4806755 5.95583363,4.50858187 5.92140937,4.50858187 C5.88698512,4.50858187 5.85907875,4.4806755 5.85907875,4.44625125 C5.85907875,4.42547437 5.87985562,4.4046975 5.92140937,4.4046975 L5.98374,4.44625125 Z M4.50858187,2.92953937 C4.50858187,2.96396363 4.4806755,2.99187 4.44625125,2.99187 C4.411827,2.99187 4.38392062,2.96396363 4.38392062,2.92953937 C4.3954689,2.91212969 4.41497119,2.9016633 4.43586281,2.9016633 C4.45675443,2.9016633 4.47625672,2.91212969 4.487805,2.92953937 L4.50858187,2.92953937 Z" id="Shape" fill-rule="nonzero"></path>
                            <circle id="Oval" cx="4.48797438" cy="3.15825437" r="1"></circle>
                            <circle id="Oval" cx="4.17632125" cy="3.05437" r="1"></circle>
                            <path d="M4.32159,3.38663062 C4.32316169,3.41434202 4.3062205,3.43975381 4.28003625,3.44896125 C4.245612,3.44896125 4.21770562,3.42105488 4.21770562,3.38663062 C4.21770562,3.35220637 4.245612,3.3243 4.28003625,3.3243 C4.3062205,3.33350744 4.32316169,3.35891923 4.32159,3.38663063 Z M5.31888,1.39205063 C5.31888,1.39205063 6.04607062,1.84914188 5.33965687,2.70099375 C5.33965687,2.70099375 5.69286375,2.43089438 5.71364062,1.99458 C5.75519437,1.55826563 5.46431812,1.20505875 5.29810312,1.39205063 L5.31888,1.39205063 Z M8.12375812,2.61788625 C7.87443562,2.7425475 7.54200562,2.51400188 7.37579062,2.30623313 C7.20957562,2.09846438 6.85636875,2.03613375 6.62782312,2.43089438 C6.42005437,2.80487813 6.10840125,2.95031625 6.10840125,2.95031625 C6.10840125,2.95031625 6.42005437,2.78410125 6.7317075,2.43089438 C7.04336062,2.09846438 7.2303525,2.36856375 7.54200562,2.53477875 C7.83288187,2.70099375 7.8952125,2.7425475 8.10298125,2.63866313 L8.10298125,2.61788625 L8.12375812,2.61788625 Z" id="Shape" fill-rule="nonzero"></path>
                            <path d="M8.0614275,2.68021687 C7.92456439,2.78625594 7.73101493,2.77745824 7.60433625,2.65944 C7.3965675,2.493225 7.25112937,2.28545625 7.02258375,2.4101175 C6.77326125,2.53477875 6.33694687,2.86720875 6.33694687,2.86720875 C6.33694687,2.86720875 7.0641375,2.36856375 7.20957563,2.493225 C7.33423688,2.59710937 7.66666688,2.86720875 7.85365875,2.78410125 L8.0614275,2.68021687 Z" id="Path"></path>
                            <path d="M7.50045188,2.97109312 C7.27190625,2.80487812 7.04336062,3.17886187 6.85636875,3.13730813 C6.6486,3.09575438 6.50316187,2.76332438 6.50316187,2.76332438 C6.50316187,2.76332438 6.66937687,3.09575437 6.91869937,3.03342375 C7.18879875,2.95031625 7.35501375,2.78410125 7.52122875,2.9087625 C7.66666687,3.03342375 7.50045187,2.97109313 7.50045187,2.97109313 Z" id="Path"></path>
                            <path d="M7.147245,3.03342375 C7.02708112,3.05800849 6.90219437,3.02825083 6.80602877,2.95211973 C6.70986317,2.87598863 6.6522435,2.76126203 6.6486,2.63866312 C6.6486,2.63866312 6.79403813,3.01264687 7.18879875,2.95031625 L7.147245,3.03342375 Z" id="Path"></path>
                            <path d="M7.12646812,3.0015809 C7.147245,3.14046979 7.147245,3.22380312 7.02258375,3.22380312 C6.8979225,3.22380312 6.814815,3.16824757 6.814815,3.0015809 C6.814815,2.86269201 7.10569125,2.89046979 7.12646812,3.0015809 Z M5.50587187,2.16824757 C5.49546618,2.26466865 5.43329658,2.3359127 5.36043375,2.33491424 C5.27732625,2.33491424 5.25654937,2.27935868 5.25654937,2.16824757 C5.25654937,2.05713646 5.25654937,1.97380312 5.36043375,1.97380312 C5.46431812,1.97380312 5.50587187,2.05713646 5.50587187,2.16824757 Z" id="Shape" fill-rule="nonzero"></path>
                            <path d="M4.98645,1.59981937 C4.98645,1.59981937 5.77597125,1.59981937 5.4019875,2.5763325 C5.4019875,2.5763325 5.69286375,2.09846437 5.50587187,1.7452575 C5.29810312,1.4128275 5.02800375,1.495935 5.02800375,1.495935 C5.02800375,1.495935 4.94489625,1.55826562 4.98645,1.59981937 Z" id="Path"></path>
                            <path d="M4.98645,1.99458 C4.98645,2.20234875 5.11111125,2.38934062 5.36043375,2.59710937 L5.42276437,2.51400187 C5.19421875,2.32701 5.0695575,2.160795 5.0695575,1.99458 C5.0695575,1.828365 5.19421875,1.72448062 5.19421875,1.72448062 L5.13188812,1.66215 C5.13188812,1.66215 4.98645,1.78681125 4.96567312,1.99458 L4.98645,1.99458 Z" id="Path"></path>
                            <path d="M5.152665,2.160795 C5.17344187,2.26467937 5.27732625,2.36856375 5.4019875,2.4101175 L5.44354125,2.32701 C5.33965687,2.28545625 5.25654938,2.20234875 5.2357725,2.11924125 C5.19421875,1.95302625 5.31888,1.76603437 5.31888,1.76603437 L5.2357725,1.70370375 C5.2357725,1.70370375 5.09033437,1.95302625 5.152665,2.160795 Z M6.21228562,2.70099375 C6.21228562,2.70099375 6.35772375,3.01264687 6.149955,3.34507687 L5.94218625,3.67750687 C5.94218625,3.67750687 6.19150875,3.19963875 6.08762438,3.01264687 C6.00451688,2.80487812 6.21228563,2.70099375 6.21228563,2.70099375 Z M9.24570937,5.98374 C10.0352306,6.12917812 11.8428187,7.54200562 11.8428187,7.54200562 L11.9467031,7.41734437 C11.8843725,7.35501375 10.0975613,5.96296312 9.26648625,5.817525 L9.2249325,5.98374 L9.24570937,5.98374 Z M9.95212312,7.95754312 C9.99367688,8.68473375 10.7831981,9.12104812 10.7831981,9.141825 L10.8870825,8.99638687 C10.8870825,8.99638687 10.1598919,8.58084937 10.1183381,7.95754312 L9.95212312,7.95754312 Z M8.01987375,8.12375812 C8.01987375,8.91327938 8.76784125,9.86901562 8.809395,9.91056937 L8.93405625,9.806685 C8.93405625,9.806685 8.18608875,8.85094875 8.18608875,8.12375812 L8.01987375,8.12375812 Z M5.50587187,8.20686563 C5.63053313,8.476965 5.63053313,8.60162625 5.58897937,8.66395687 C5.54742562,8.74706437 5.46431812,8.74706437 5.46431812,8.74706437 L5.485095,8.91327938 C5.54742562,8.91327938 5.67208687,8.87172563 5.7344175,8.74706437 C5.817525,8.60162625 5.79674812,8.3938575 5.65131,8.12375812 L5.50587187,8.20686563 Z" id="Shape" fill-rule="nonzero"></path>
                        </g>
                        <g transform="translate(1.562500, 6.562500)" fill="#FFFFFF" fill-rule="nonzero" id="Shape" stroke="#000000" stroke-width="0.2">
                            <path d="M0.1875,0.104077616 C0.1875,0.104077616 0.21875,0.696470639 0.625,1.04493712 C0.625,1.04493712 0.59375,0.417697452 0.71875,0.138924264 C0.71875,0.138924264 0.5,-0.139848923 0.1875,0.104077616 Z M1,0.4525441 C1,0.4525441 1.09375,1.01009047 1.375,1.25401701 L1.5625,1.21917036 C1.5625,1.21917036 1.625,0.522237397 1.71875,0.4525441 C1.8125,0.382850803 1.3125,0.696470639 1,0.4525441 Z"></path>
                            <path d="M1.71875,0.40625 L2.03125,0.90625 L2.40625,0.6875 L2.34375,0.125 C2.34375,0.125 2.125,0.0625 1.71875,0.40625 Z M3.1875,0.5 L2.78125,0.84375 C2.78125,0.84375 2.5625,0.6875 2.40625,0.6875 L2.46875,0.15625 C2.46875,0.15625 2.78125,-0.0625 3.1875,0.5 Z M0.28125,5.5 C0.28125,5.5 0.21875,4.75 0.28125,4.71875 C0.28125,4.71875 0.59375,4.8125 0.71875,4.71875 C0.71875,4.71875 0.875,5.28125 0.84375,5.53125 C0.78125,5.78125 0.5,5.6875 0.28125,5.53125 L0.28125,5.5 Z M2.15625,4.75 C2.15625,4.75 2.125,4.125 2.21875,4.03125 C2.21875,4.03125 2.84375,4.125 2.96875,3.78125 L3.1875,4.40625 C3.1875,4.40625 2.53125,4.3125 2.125,4.71875 L2.15625,4.75 Z"></path>
                            <path d="M1.5,4.875 C1.5,4.875 1.59375,4.21875 1.71875,4.1875 C1.71875,4.1875 2.03125,4.28125 2.125,4.15625 L2.125,4.96875 C2.125,4.96875 2.125,4.625 1.5,4.875 Z M0.78125,4.96875 C0.78125,4.96875 0.9375,4.375 1.03125,4.375 C1.125,4.375 1.34375,4.53125 1.46875,4.4375 L1.46875,4.875 C1.46875,4.875 0.96875,4.75 0.875,5.46875 L0.78125,4.96875 Z"></path>
                        </g>
                    </g>
                    <g transform="translate(1.562500, 18.125000)">
                        <path d="M11.46875,6.0625 C11.46875,6.0625 13.09375,7.59375 12.6875,8.9375 C12.6875,8.9375 13.71875,6.65625 12.59375,5.96875 C11.46875,5.34375 11.4375,5.8125 11.46875,6.0625 Z" id="Path" stroke="#000000" stroke-width="0.5" fill="#00A651"></path>
                        <path d="M9.375,7.53125 C9.375,7.53125 8.96875,8.15625 9.4375,8.5625 C9.4375,8.5625 8.90625,9.3125 9.3125,9.9375 C9.3125,9.9375 9,10.59375 9.0625,11.3125 C9.0625,11.3125 8.8125,12.40625 9.375,12.90625 C9.375,12.90625 10,13.21875 10.3125,12.9375 C10.3125,12.9375 10.84375,12.125 10.5,11.28125 C10.5,11.28125 10.875,10.5625 10.4375,9.65625 C10.4375,9.65625 10.5625,9.15625 10.21875,8.5625 C10.21875,8.5625 10.4375,8.1875 10.25,7.875 C10.25,7.875 9.46875,7.03125 9.375,7.5625 L9.375,7.53125 Z" id="Path" stroke="#000000" stroke-width="0.5" fill="#964B36"></path>
                        <path d="M9.84375,5.625 C9.84375,5.625 7.90625,1.875 6.53125,1.71875 C5.15625,1.5625 5.09375,0.21875 5.09375,0.21875 C5.09375,0.21875 5.25,0.84375 6.34375,0.84375 C7.4375,0.84375 9.53125,2.40625 9.78125,3.5625 C10,4.71875 10.25,4.5625 10.25,4.5625 L9.84375,5.625 Z" id="Path" stroke="#000000" stroke-width="0.5" fill="#00A651"></path>
                        <path d="M9.84375,5.34375 C9.84375,5.34375 10.5625,0.625 13.65625,0.53125 C16.75,0.46875 15.71875,0.78125 16.46875,0.28125 C16.46875,0.28125 14.40625,1.34375 13.125,1.53125 C11.8125,1.65625 10.75,4.1875 10.8125,4.65625 C10.8125,5.125 10.09375,6.03125 9.75,5.71875 C9.375,5.40625 9.84375,5.34375 9.84375,5.34375 Z" id="Path" stroke="#000000" stroke-width="0.5" fill="#00A651"></path>
                        <path d="M10.5625,7.125 C10.5625,7.125 11.28125,5.25 12.46875,5.875 C12.46875,5.875 11.53125,4.0625 9.84375,5.625 C9.84375,5.625 10.59375,6.65625 10.5625,7.125 Z M8.21875,5.25 C8.21875,5.25 9.21875,9.4375 7.65625,10.71875 C7.65625,10.71875 7.71875,8.5625 6.75,7.28125 C5.8125,5.96875 7.6875,4.5625 8.21875,5.25 Z" id="Shape" stroke="#000000" stroke-width="0.5" fill="#00A651" fill-rule="nonzero"></path>
                        <path d="M8.34375,5.96875 C8.34375,5.96875 10.1875,7.75 10.28125,8.34375 C10.40625,8.90625 10.84375,6.5625 9.96875,5.90625 C9.09375,5.25 8.1875,5.125 8.1875,5.125 L8.34375,6 L8.34375,5.96875 Z" id="Path" stroke="#000000" stroke-width="0.5" fill="#00A651"></path>
                        <path d="M4.9375,10.625 C4.9375,10.625 5.09375,11.34375 5.5625,11.5 C5.5625,11.5 5.5625,12.03125 6,12.1875 C6,12.1875 5.78125,12.65625 6.125,12.9375 C6.125,12.9375 6.0625,13.875 6.375,14.03125 C6.375,14.03125 7.21875,14 7.5,13.75 C7.5,13.75 7.65625,13.15625 7.1875,12.5625 C7.1875,12.5625 7.28125,12 6.8125,11.6875 C6.8125,11.6875 6.96875,10.90625 6.375,10.625 C6.375,10.625 6.28125,10 5.9375,9.6875 C5.9375,9.6875 5.25,10.65625 4.9375,10.625 Z" id="Path" stroke="#000000" stroke-width="0.5" fill="#964B36"></path>
                        <path d="M5.84375,9.6875 C5.84375,9.6875 3.4375,8.8125 2.09375,10.0625 C2.09375,10.0625 4.15625,10.375 4.40625,10.78125 C4.65625,11.1875 5.9375,10.09375 5.84375,9.6875 Z" id="Path" stroke="#000000" stroke-width="0.5" fill="#00A651"></path>
                        <path d="M5.09375,11.1875 L4.65625,10.875 C4.4375,10.6875 2.40625,10.15625 2.125,12.125 C2.125,12.125 1.375,10.15625 2.4375,9.9375 C3.53125,9.625 4.375,10.25 5.09375,11.1875 Z M3.53125,7.1875 C3.53125,7.1875 4.25,8.8125 4.53125,8.875 C4.8125,8.96875 5,8.6875 5,8.6875 C5,8.6875 4.03125,7.25 3.5,7.1875 L3.53125,7.1875 Z M2.96875,4.71875 C2.96875,4.71875 2.34375,2.65625 1.59375,3.21875 C0.84375,3.75 1.03125,5.25 1.03125,5.25 C1.03125,5.25 -0.4375,3.6875 0.40625,2.5 C1.28125,1.28125 2.96875,2.625 2.96875,4.71875 Z" id="Shape" stroke="#000000" stroke-width="0.5" fill="#00A651" fill-rule="nonzero"></path>
                        <path d="M4.65625,9 C4.65625,9 4.65625,9.40625 4.9375,9.5 C5.1875,9.625 5.71875,9.8125 5.71875,9.59375 C5.71875,9.375 5.3125,8.4375 5.15625,8.5625 C5,8.6875 4.71875,8.6875 4.65625,9 Z" id="Path" stroke="#000000" stroke-width="0.5" fill="#964B36"></path>
                        <path d="M4.1875,6.5625 C4.1875,6.5625 4.09375,4.78125 5.28125,4.09375 C5.28125,4.09375 5.5,4.15625 5.625,3.78125 C5.625,3.78125 4.6875,6.0625 4.96875,7.21875 L4.9375,7.34375" id="Path" stroke="#000000" stroke-width="0.5" fill="#00A651"></path>
                        <path d="M4.40625,4.375 C4.40625,4.375 6.53125,0 9.09375,1.53125 C9.09375,1.53125 6.40625,2.0625 5.4375,4 L4.46875,5.4375 L4.40625,4.375 Z" id="Path" stroke="#000000" stroke-width="0.5" fill="#00A651"></path>
                        <path d="M3.28125,5.96875 C3.28125,5.96875 2.65625,3.03125 2.25,2.65625 C1.875,2.25 1.21875,1.84375 0.40625,2.5 C0.40625,2.5 1.78125,1.28125 3.21875,2.3125 C4.6875,3.3125 4.375,4.9375 4.375,4.9375 L4.21875,6.96875 L3.25,6.0625" id="Path" stroke="#000000" stroke-width="0.5" fill="#00A651"></path>
                        <path d="M5.5625,9.46875 C5.5625,9.46875 2.96875,4.5625 1.28125,8.0625 C1.28125,8.0625 0.96875,8.96875 1.3125,9.3125 C1.3125,9.3125 0.375,8.59375 0.8125,6.875 C1.25,5.15625 4.09375,5.9375 4.9375,7.34375 C5.75,8.75 5.96875,9.46875 5.875,9.53125 C5.75,9.625 5.5625,9.46875 5.5625,9.46875 Z M12.84375,10.875 C12.84375,10.875 14.71875,7 15.8125,8.75 C15.8125,8.75 16.125,9.625 15.65625,10 C15.65625,10 14.90625,9.0625 14.25,10.1875 C13.5625,11.28125 13.84375,11.1875 13.84375,11.1875 C13.84375,11.1875 13.15625,11.375 12.84375,10.875 Z" id="Shape" stroke="#000000" stroke-width="0.5" fill="#00A651" fill-rule="nonzero"></path>
                        <path d="M15.625,10 C15.625,10 16.65625,10.53125 16.3125,11.625 C16.3125,11.625 17.6875,9 15.8125,8.75 C15.8125,8.75 16.15625,9.59375 15.65625,10 L15.625,10 Z M15.78125,7.3125 C15.78125,7.3125 18.25,8.03125 18.3125,9.09375 C18.3125,9.09375 18.75,7.03125 17.34375,6.40625 C17.34375,6.40625 15.65625,6.71875 15.78125,7.34375 L15.78125,7.3125 Z" id="Shape" stroke="#000000" stroke-width="0.5" fill="#00A651" fill-rule="nonzero"></path>
                        <path d="M16.875,4.0625 C17.9375,2 19.25,4.71875 19.25,4.71875 C19.25,4.71875 19.71875,2.5625 18.40625,2.1875 C17.0625,1.78125 16.21875,6.78125 16.21875,6.78125 L14.65625,7.09375 C14.65625,7.09375 15.0625,2.78125 17.40625,2.40625 L17.71875,2.40625" id="Path" stroke="#000000" stroke-width="0.5" fill="#00A651"></path>
                        <path d="M15,5.3125 C15,5.3125 13.5,2.25 12.5,1.9375 C11.5,1.625 13.03125,1.15625 13.65625,1.75 C14.28125,2.34375 15.46875,3.09375 15.34375,4.65625 L15,5.3125 Z M13.4375,9.5 C13.4375,9.5 13.875,7.4375 15.0625,6.8125 C16.25,6.1875 17.34375,6.40625 17.34375,6.40625 C17.34375,6.40625 15.9375,6.71875 15.6875,7.4375 C15.46875,8.125 15.0625,8.1875 15.0625,8.1875 L13.46875,9.5 L13.4375,9.5 Z" id="Shape" stroke="#000000" stroke-width="0.5" fill="#00A651" fill-rule="nonzero"></path>
                        <path d="M12.8125,10.875 C12.8125,10.875 12.1875,12.125 12.3125,12.3125 C12.3125,12.3125 11.625,13.34375 11.90625,13.875 C11.90625,13.875 12.59375,14.40625 12.90625,14.1875 C12.90625,14.1875 13.71875,13.03125 13.5,12.40625 C13.5,12.40625 14.0625,11.65625 13.84375,11.1875 C13.84375,11.1875 13.03125,11.21875 12.84375,10.875 L12.8125,10.875 Z" id="Path" stroke="#000000" stroke-width="0.5" fill="#964B36"></path>
                        <path d="M9.375,8.625 C9.4375,8.65625 9.84375,8.84375 10.09375,8.75 L10.28125,8.59375 L10.125,8.53125 C10.03125,8.71875 9.59375,8.5625 9.46875,8.5 L9.40625,8.625 L9.375,8.625 Z M9.34375,9.875 L9.28125,10.03125 C9.3125,10.03125 10.125,10.1875 10.5,9.84375 L10.375,9.71875 C10.0625,10 9.34375,9.84375 9.3125,9.84375 L9.34375,9.875 Z M9.125,11.25 L9.03125,11.375 C9.03125,11.375 9.96875,12.03125 10.5625,11.3125 L10.40625,11.21875 C9.9375,11.8125 9.15625,11.28125 9.125,11.21875 L9.125,11.25 Z M5.53125,11.4375 L5.5625,11.53125 C5.59375,11.53125 6.375,11.21875 6.4375,10.625 L6.34375,10.625 C6.3125,11.125 5.5625,11.4375 5.53125,11.4375 Z M5.96875,12.15625 L5.96875,12.25 C6.03125,12.25 6.75,12.1875 6.875,11.6875 L6.78125,11.6875 C6.65625,12.09375 6,12.15625 5.96875,12.15625 Z M6.125,12.90625 L6.125,13 C6.15625,13 6.96875,13.03125 7.25,12.59375 L7.15625,12.53125 C6.90625,12.9375 6.125,12.90625 6.125,12.90625 Z M12.28125,12.375 C12.28125,12.375 12.625,12.75 13.03125,12.71875 C13.2358477,12.7148423 13.4290797,12.6239097 13.5625,12.46875 L13.4375,12.34375 C13.3125,12.5 13.1875,12.5625 13.03125,12.5625 C12.71875,12.5625 12.40625,12.25 12.40625,12.25 L12.28125,12.375 Z" id="Shape" fill="#000000" fill-rule="nonzero"></path>
                    </g>
                    <g transform="translate(37.500000, 25.937500)" fill="#964B36" fill-rule="nonzero" id="Shape" stroke="#000000" stroke-width="0.3">
                        <path d="M0.625,7.4375 C0.587962503,7.46237034 0.556120344,7.4942125 0.53125,7.53125 L0.65625,7.4375 L0.625,7.4375 Z M3.53125,6.71875 C3.5,6.65625 3.46875,6.6875 3.4375,6.65625 L3.3125,6.40625 L3.21875,6.40625 L3,5.96875 C3.01216253,5.93868342 3.01216253,5.90506658 3,5.875 C3.00109668,5.83334055 3.00109668,5.79165945 3,5.75 C3,5.75 2.9375,5.75 2.90625,5.6875 L2.90625,5.1875 L2.875,5.03125 C2.81105883,4.92819009 2.77848495,4.80875252 2.78125,4.6875 L2.78125,4.375 C2.8125,4.25 2.75,4.1875 2.75,4.0625 L2.78125,3.78125 L2.78125,2.09375 L2.75,1.78125 L2.71875,1.65625 L2.71875,1.15625 L2.71875,1.96875 L2.65625,0.625 L1.59375,0.125 C1.59375,0.125 1.5,2.0625 1.53125,2.3125 C1.53125,2.59375 1.65625,4.40625 1.59375,4.625 L1.4375,5.96875 C1.4375,5.96875 0.9375,6.34375 0.75,6.71875 C0.53125,7.125 0.59375,7.25 0.53125,7.25 L1,7.1875 L0.65625,7.4375 C0.729455591,7.40761594 0.813090169,7.41956374 0.875,7.46875 L0.9375,7.53125 L1,7.46875 C1.09375,7.46875 1.15625,7.59375 1.21875,7.5625 L1.34375,7.5 L1.40625,7.375 C1.4375,7.34375 1.5,7.375 1.53125,7.375 L1.75,7.375 C1.84375,7.375 1.9375,7.21875 2.03125,7.15625 C2.09375,7.09375 2.15625,7.0625 2.25,7.0625 C2.34375,7.0625 2.4375,7.15625 2.5625,7.15625 C2.625,7.15625 2.65625,7.15625 2.71875,7.09375 L2.84375,6.90625 L3.09375,6.875 L3.21875,6.90625 L3.40625,6.90625 L3.5,6.96875 L3.5625,6.84375 L3.53125,6.71875 Z"></path>
                        <path d="M1.40625,7.40625 L1.59375,7.40625 L1.59375,7.46875 C1.61308757,7.47991455 1.63691243,7.47991455 1.65625,7.46875 L1.75,7.53125 L1.84375,7.53125 L1.96875,7.5625 C2.03125,7.59375 2.09375,7.5625 2.15625,7.53125 C2.21875,7.46875 2.25,7.53125 2.34375,7.59375 C2.375,7.625 2.375,7.625 2.40625,7.59375 L2.4375,7.5625 L2.53125,7.53125 L2.625,7.5 L2.75,7.4375 L2.875,7.5 C2.89575131,7.49738558 2.91674869,7.49738558 2.9375,7.5 L3.15625,7.34375 C3.25,7.28125 3.3125,7.34375 3.375,7.34375 L3.46875,7.34375 C3.5,7.3125 3.53125,7.34375 3.59375,7.34375 C3.59375,7.3125 3.59375,7.28125 3.65625,7.25 L3.875,7.375 C3.90625,7.40625 4.09375,7.4375 4.0625,7.3125 C4.0625,7.1875 3.9375,7.28125 3.90625,7.1875 L3.90625,7 C3.891454,6.94821286 3.85807278,6.90370456 3.8125,6.875 C3.75,6.875 3.75,6.90625 3.6875,6.875 L3.625,6.6875 L3.53125,6.75 C3.46875,6.75 3.46875,6.71875 3.4375,6.65625 C3.34375,6.5625 3.3125,6.71875 3.21875,6.6875 C3.15625,6.6875 3.09375,6.53125 3.0625,6.46875 C3.03125,6.4375 2.96875,6.3125 2.90625,6.34375 C2.84375,6.375 2.90625,6.5 2.90625,6.5625 L2.75,6.5625 C2.6875,6.5625 2.6875,6.5625 2.65625,6.625 C2.59375,6.75 2.5625,6.84375 2.4375,6.8125 C2.40625,6.8125 2.34375,6.78125 2.3125,6.8125 L2.15625,6.875 C2.11500855,6.88341838 2.07249145,6.88341838 2.03125,6.875 L1.90625,6.75 C1.90625,6.7327411 1.8922589,6.71875 1.875,6.71875 C1.8577411,6.71875 1.84375,6.7327411 1.84375,6.75 C1.8336015,6.72903366 1.82318398,6.7081986 1.8125,6.6875 C1.75,6.6875 1.75,6.6875 1.71875,6.78125 L1.6875,6.9375 L1.59375,7.0625 L1.46875,7.09375 C1.40625,7.09375 1.34375,7.1875 1.34375,7.09375 C1.28125,6.96875 1.4375,6.75 1.28125,6.78125 C1.25,6.78125 1.21875,6.78125 1.1875,6.84375 L1.1875,7.0625 C1.15625,7.15625 0.96875,7.3125 1,7.375 C1,7.46875 1.125,7.375 1.125,7.375 L1.1875,7.5 C1.25,7.59375 1.40625,7.375 1.40625,7.5 M0.75,6.65625 L0.75,6.59375 L0.625,6.5625 C0.5625,6.5625 0.5,6.65625 0.46875,6.6875 C0.40625,6.8125 0.40625,7 0.28125,7 L0.125,7 L0.125,7.3125 C0.125,7.3125 0.0625,7.3125 0.0625,7.375 C0.03125,7.5 0.125,7.4375 0.1875,7.4375 L0.5,7.4375 L0.65625,7.40625 C0.71875,7.40625 0.78125,7.40625 0.8125,7.34375 C0.83752522,7.30431449 0.858466723,7.26243148 0.875,7.21875 L0.875,7.09375 C0.875,7.03125 0.96875,7.0625 0.96875,6.96875 C1,6.75 0.78125,6.90625 0.8125,6.6875"></path>
                    </g>
                    <g transform="translate(38.437500, 25.312500)" fill="#000000" stroke="#000000" stroke-width="0.5">
                        <path d="M2.4375,1.21875 C2.4375,1.5 2.25,1.71875 2,1.71875 C1.78125,1.71875 1.5625,1.5 1.5625,1.21875 C1.5625,0.9375 1.78125,0.71875 2,0.71875 C2.25,0.71875 2.4375,0.9375 2.4375,1.21875 Z M1.03125,0.59375 C1.03125,0.875 0.84375,1.09375 0.59375,1.09375 C0.34375,1.09375 0.15625,0.875 0.15625,0.59375 C0.15625,0.28125 0.375,0.09375 0.59375,0.09375 C0.8125,0.09375 1.03125,0.3125 1.03125,0.59375 Z" id="Shape" fill-rule="nonzero"></path>
                        <path d="M1.78125,0.78125 C1.78125,1.09375 1.59375,1.28125 1.34375,1.28125 C1.09375,1.28125 0.90625,1.0625 0.90625,0.78125 C0.90625,0.5 1.09375,0.28125 1.34375,0.28125 C1.59375,0.28125 1.78125,0.5 1.78125,0.78125 Z" id="Path"></path>
                        <path d="M1.0625,1.25 C1.0625,1.53125 0.875,1.75 0.625,1.75 C0.375,1.75 0.1875,1.53125 0.1875,1.25 C0.1875,0.96875 0.375,0.75 0.625,0.75 C0.875,0.75 1.0625,0.96875 1.0625,1.25 Z" id="Path"></path>
                        <path d="M1.71875,1.65625 C1.71875,1.90625 1.53125,2.15625 1.28125,2.15625 C1.0625,2.15625 0.84375,1.9375 0.84375,1.65625 C0.84375,1.34375 1.0625,1.125 1.28125,1.125 C1.53125,1.125 1.71875,1.34375 1.71875,1.625 L1.71875,1.65625 Z" id="Path"></path>
                    </g>
                    <path d="M40.375,21.40625 C40.375,21.40625 44.71875,15.34375 49.375,21.625 C49.375,21.625 49.40625,22.25 48.96875,22.9375 L48.875,22.40625 L48.5625,22.5 L48.5,22.1875 L48,22.15625 L48.15625,21.46875 L47.625,21.90625 L47.6875,21.4375 L47.0625,22.0625 L47.15625,20.71875 L46.46875,21.875 L46.5625,21.09375 L46.3125,21.4375 L46.1875,20.96875 L45.96875,21.4375 L45.65625,21.21875 L45.65625,21.53125 L45.09375,21.0625 L44.90625,21.6875 L44.625,21 L44.5625,21.46875 L44.28125,20.9375 L44.25,21.53125 L43.34375,21.125 L43.53125,21.6875 L43.125,21.375 L43.1875,21.6875 L42.59375,21.5625 L42.65625,21.90625 L42.03125,21.78125 L42.125,22.09375 L41.28125,22 L41.59375,22.3125 L41.5,22.5 C41.5,22.5 46.1875,20.9375 46.5,26.8125 L45.65625,27.21875 L45.90625,26.75 L45.65625,26.59375 L44.9375,26.0625 L45.15625,25.3125 L44.90625,25.40625 L44.875,24.96875 L44.75,25.03125 L44.46875,24.625 L44.40625,24.78125 L44.21875,24.25 L44,24.625 L43.90625,23.75 L43.59375,24.3125 L43.53125,24 L43.4375,24.1875 L43.03125,23.71875 L42.90625,24.03125 L42.75,23.78125 L42.65625,24.09375 L42.21875,23.65625 L42.21875,23.96875 L41.90625,23.75 L41.8125,23.90625 L41.15625,23.5625 L41.125,23.875 L40.75,23.5625 L40.65625,23.875 C40.65625,23.875 44.90625,26.3125 43.59375,30.25 L43.34375,30.75 L43.28125,29.4375 L42.875,30.125 L43.15625,28.59375 L42.875,28.90625 L42.84375,28.28125 L42.5,28.90625 L42.375,28.21875 L42.21875,28.40625 L41.96875,27.40625 L41.78125,27.8125 L41.46875,26.6875 L41.21875,27.15625 L41.0625,26.1875 L40.90625,26.78125 L40.4375,25.90625 L40.375,26.25 L40.09375,25.5625 L39.9375,25.78125 C39.9375,25.78125 39.15625,25.75 38.90625,25.5625 C38.6875,25.34375 38.03125,26.71875 38.03125,26.71875 L38.09375,25.90625 L37.8125,26.46875 L37.8125,25.90625 L37.3125,27.5625 L37.1875,26.375 L36.9375,27.40625 L36.8125,27.09375 L36.71875,27.5 L36.5625,27.34375 L36.4375,27.8125 L36.1875,27.625 L36.1875,28.25 L35.9375,27.9375 L35.75,28.875 L35.625,28.5 L35.625,28.90625 L35.4375,28.6875 L35.25,29.625 L34.9375,29.21875 L34.9375,29.90625 L35.03125,30.40625 L34.71875,30.25 L34.84375,31.0625 C34.84375,31.0625 33.625,28.8125 35.09375,26.625 C36.53125,24.4375 38.5,23.8125 38.5,23.8125 L38.28125,23.625 L38.28125,23.4375 L37.09375,24.03125 L37.09375,23.6875 L36.78125,23.9375 L36.71875,23.5625 L36.53125,23.90625 L36.5,23.75 L36.1875,24.1875 L36.0625,23.5625 L35.875,24.3125 L35.6875,23.78125 L35.28125,24.875 L35.28125,24.0625 L34.96875,24.9375 L34.84375,24 L34.625,25.0625 L34.625,24.125 L34.25,25.0625 L34.03125,24.125 L33.875,25.0625 L33.625,24.34375 L33.40625,25.40625 L33.03125,24.46875 L32.84375,25.875 L32.625,25.3125 L32.5625,26.34375 L32.3125,25.71875 L32.5625,27.03125 L32.25,26.53125 L32.34375,27.34375 L31.84375,26.4375 L31.84375,27.5 L31.59375,27.15625 L31.46875,27.5625 C31.46875,27.5625 31.375,23.5 34.15625,22.6875 C36.9375,21.90625 38.71875,22.9375 38.71875,22.9375 L37.65625,22.0625 L37.78125,21.78125 L37.40625,21.78125 L37.5625,21.46875 L36.71875,21.5 L36.96875,21.1875 L36.34375,21.28125 L36.34375,21.09375 L35.9375,21.40625 L36.09375,21.03125 L35.5625,21.40625 L35.53125,20.875 L35.21875,21.3125 L35.09375,20.84375 L33.84375,22.09375 L34.15625,20.8125 L33.9375,21.09375 L33.90625,20.78125 L33.5625,21.34375 L33.46875,20.96875 L33.3125,21.4375 L33.1875,20.875 L32.9375,21.4375 L32.625,20.9375 L32.53125,21.59375 L32.34375,21.25 L32.09375,21.75 L31.78125,21.4375 L31.78125,21.75 L31.15625,21.46875 L31.28125,21.9375 L30.8125,21.5625 L30.6875,22.1875 L30.4375,21.875 L30.21875,22.65625 L30.03125,21.90625 L29.84375,22.5 C29.84375,22.5 32.28125,16.1875 38.46875,20.3125 C38.46875,20.3125 39.15625,20.96875 39.3125,21.4375 C39.46875,21.90625 39.34375,21.5 39.34375,21.5 L39.21875,17.15625 L39.46875,19.03125 L39.625,18.40625 L39.59375,19.34375 L40.21875,18 C40.21875,18 39.46875,20.25 39.75,21.09375 C39.75,21.09375 40.03125,18.46875 40.96875,18.15625 L40.09375,20.03125 L40.375,20 L40.1875,20.375 L40.40625,20.375 L40.125,21 L39.96875,21.3125 L40.125,21.625 L40.375,21.40625 Z" id="Path" stroke="#000000" stroke-width="0.5" fill="#00A651"></path>
                    <path d="M39.71875,23.9375 L39.84375,24.0625 C39.84375,24.0625 40.25,23.625 40.90625,24.1875 L41,24.0625 C40.21875,23.40625 39.75,23.9375 39.75,23.9375 L39.71875,23.9375 Z M39.53125,21.8125 L39.53125,21.96875 L39.8125,21.84375 L39.59375,22.21875 L40.0625,22.0625 L39.5,22.78125 L39.625,22.875 L40.53125,21.71875 L39.96875,21.90625 L40.21875,21.5 L39.71875,21.6875 L39.8125,21.09375 L39.65625,21.09375 L39.53125,21.8125 Z" id="Shape" fill="#000000" fill-rule="nonzero"></path>
                    <path d="M38.71875,21.875 L38.90625,22.28125 L38.59375,22.15625 L39.5,23.78125 L39.625,23.625 L39.4375,24.09375 L39.59375,24.15625 L39.96875,23.15625 L39.84375,23.0625 L39.53125,23.46875 L38.96875,22.5 L39.21875,22.59375 L38.96875,22.0625 L39.3125,22.25 L39.3125,21.65625 L39.15625,21.65625 L39.15625,21.96875 L38.59375,21.625 L38.71875,21.875 Z M38.125,23.875 L38.1875,24.03125 C38.4375,23.9375 38.65625,23.90625 38.8125,23.96875 C38.96875,24.0625 39.03125,24.25 39.03125,24.28125 L39.1875,24.21875 C39.1875,24.21875 39.125,23.9375 38.875,23.84375 C38.6875,23.75 38.4375,23.75 38.125,23.875 Z M38.84375,25.5625 L38.6875,24.6875 L38.875,24.6875 L39,25.53125 L38.84375,25.5625 Z M40.03125,25.4375 L39.8125,24.75 L39.96875,24.71875 L40.1875,25.34375 L40.03125,25.4375 Z M40.46875,25.90625 L40.3125,25.25 L40.46875,25.21875 L40.65625,25.875 L40.46875,25.90625 Z" id="Shape" fill="#000000" fill-rule="nonzero"></path>
                    <path d="M7.0625,46 C7.0625,46 6.3125,45.6875 5.96875,45.9375 C5.65625,46.15625 5.6875,46.53125 5.40625,46.5 C5.40625,46.5 6.53125,46.75 6.75,46.46875 L7.0625,46.09375 L7.0625,46 Z M7.1875,46.3125 C7.1875,46.3125 6.6875,46.9375 6.875,47.34375 C7.03125,47.71875 7.40625,47.75 7.3125,48.03125 C7.3125,48.03125 7.78125,47 7.5625,46.6875 C7.34375,46.375 7.25,46.34375 7.25,46.34375 L7.1875,46.3125 Z M6.375,44.53125 C6.375,44.53125 5.59375,44.78125 5.5,45.15625 C5.4375,45.59375 5.6875,45.8125 5.46875,46 C5.46875,46 6.46875,45.4375 6.4375,45.0625 L6.4375,44.59375 L6.375,44.53125 Z M6.8125,44.8125 C6.8125,44.8125 7.1875,44.09375 6.96875,43.75 C6.71875,43.375 6.34375,43.4375 6.40625,43.125 C6.40625,43.125 6.09375,44.21875 6.40625,44.5 L6.75,44.8125 L6.8125,44.8125 Z M6.0625,44.53125 C6.0625,44.53125 6.0625,43.71875 5.75,43.53125 C5.375,43.3125 5.0625,43.5 4.96875,43.21875 C4.96875,43.21875 5.1875,44.34375 5.53125,44.46875 L6,44.5625 L6.0625,44.53125 Z M7.375,45.875 C7.375,45.875 8.21875,45.5625 8.3125,46.5 C8.375,47.4375 8.25,47.125 8.25,47.125 C8.25,47.125 7.8125,46.125 7.3125,45.96875 L7.375,45.875 Z" id="Shape" stroke="#000000" stroke-width="0.5" fill="#00A651" fill-rule="nonzero"></path>
                    <polygon id="Path" fill="#000000" points="7.1875 46.34375 7.25 47.03125 7.375 47.03125 7.28125 46.34375 7.59375 44.8125 7.46875 44.8125 7.15625 46.34375"></polygon>
                    <path d="M6.40625,46.125 L6.375,46.21875 C6.78125,46.375 7.3125,45.90625 7.34375,45.90625 L7.28125,45.8125 C7.28125,45.8125 6.75,46.21875 6.40625,46.125 Z M7.46875,45.21875 L5.59375,44.28125 L5.65625,44.125 L7.53125,45.0625 L7.46875,45.21875 Z" id="Shape" fill="#000000" fill-rule="nonzero"></path>
                    <path d="M6.09375,45 L5.96875,44.875 L6.34375,44.5 L6.46875,44.625 L6.09375,45 Z M6.75,44.8125 L6.34375,43.9375 L6.5,43.875 L6.90625,44.75 L6.75,44.8125 Z M7.3125,45.875 L7.3125,46.0625 C7.84375,46.03125 7.9375,46.375 7.9375,46.375 L8.125,46.3125 C8.125,46.21875 7.90625,45.84375 7.3125,45.875 Z" id="Shape" fill="#000000" fill-rule="nonzero"></path>
                    <path d="M16,46.25 C16.625,45.9375 16.75,44.6875 16.75,44.6875 C16.59375,45.125 15.4375,45.59375 15.4375,45.59375 C16.28125,45.0625 17.3125,42.65625 17.3125,42.65625 C17.0625,43.5 14.8125,44.21875 13.375,45.03125 C11.9375,45.84375 12.6875,48.15625 12.6875,48.15625 C12.28125,47.875 11.5,46.65625 11.34375,45.5625 C11.1875,44.46875 10.78125,44.03125 9.78125,43.90625 C8.8125,43.78125 8.21875,44.90625 8.21875,44.90625 L6.75,45.65625 L8.25,45.71875 C8.25,45.71875 9.3125,46.0625 9.3125,46.90625 C9.3125,47.71875 8.375,51.0625 9.9375,52.9375 C10.96875,54.21875 14.9375,54.96875 14.9375,54.96875" id="Path" stroke="#000000" stroke-width="0.7" fill="#FFFFFF"></path>
                    <path d="M13.09375,48.84375 C13.09375,48.84375 13.40625,47.34375 14.375,47.40625 C15.34375,47.46875 15.625,46.28125 16.21875,46.125 C16.8125,45.9375 19.8125,45.125 20.125,43.6875 C20.125,43.6875 19.84375,46.0625 17.09375,47.25 C17.09375,47.25 19.3125,46.53125 19.59375,46.03125 C19.59375,46.03125 18.59375,48.15625 16.1875,48.5 C16.1875,48.5 18.4375,48.3125 18.75,47.71875 C18.75,47.71875 17.75,49.03125 16.09375,49.21875 C16.09375,49.21875 17.65625,49.84375 18.03125,49.3125 C18.03125,49.3125 17.1875,50.3125 16.15625,50.375 L16.46875,50.4375 C16.46875,50.4375 15.46875,51.625 14.375,50.84375 C13.28125,50.0625 13.25,51.03125 13.25,51.03125" id="Path" stroke="#000000" stroke-width="0.7" fill="#FFFFFF"></path>
                    <path d="M15.3125,51.09375 C15.3125,51.09375 16.59375,53.21875 16.71875,54.34375 C16.71875,54.34375 19.15625,57 20.0625,57.15625 C20.0625,57.15625 19.625,57.34375 18.8125,56.6875 C18.8125,56.6875 19.5,57.375 19.625,57.40625 C19.75,57.40625 19.09375,57.34375 19,57.15625 C19.1178369,57.3364613 19.2658337,57.4950294 19.4375,57.625 L19.28125,57.5625 C19.28125,57.5625 18.96875,57.53125 18.78125,57.40625 C18.625,57.28125 18.75,57.71875 18.75,57.71875 C18.75,57.71875 18.375,57.625 18.25,57.5 C18.125,57.375 18.28125,57.78125 18.28125,57.78125 L17.96875,57.6875 L17.71875,57.84375 C17.71875,57.84375 17.71875,58 17.5625,57.84375 C17.40625,57.75 17.125,57.84375 17.125,57.84375 C17.125,57.84375 16.9375,58.03125 16.8125,57.90625 C16.71875,57.78125 16.34375,58.40625 16.34375,58.40625 L14.78125,54.5625" id="Path" stroke="#000000" stroke-width="0.7" fill="#FFFFFF"></path>
                    <path d="M16.84375,58.03125 L14.84375,54.21875 L15.03125,54.09375 L17.03125,57.9375 L16.84375,58.03125 Z M18.59375,57.78125 L15.15625,53.9375 L15.34375,53.78125 L18.78125,57.625 L18.59375,57.78125 Z M19.375,57.46875 L15.46875,53.75 L15.625,53.59375 L19.53125,57.25 L19.375,57.46875 Z" id="Shape" fill="#000000" fill-rule="nonzero"></path>
                    <g transform="translate(8.008050, 44.745231)" fill="#000000">
                        <path d="M1.53748875,0.500104119 C1.53748875,0.500104119 1.28816625,-0.122593438 1.05962063,0.132146472 C0.851851875,0.358581947 0.727190625,0.415190816 0.685636875,0.386886381 C0.685636875,0.386886381 0.893405625,0.386886381 1.03884375,0.245364209 C1.163505,0.0755376029 1.37127375,0.160450906 1.53748875,0.528408553 L1.53748875,0.500104119 Z M0.166215,0.217059775 L0.311653125,0.613321856 L0.145438125,1.26432385 L0.270099375,1.32093272 L0.4155375,0.613321856 L0.270099375,0.160450906 L0.166215,0.217059775 Z" id="Shape" fill-rule="nonzero"></path>
                        <path d="M1.495935,0.375 C1.495935,0.375 1.28816625,0.625 1.03884375,0.575 L0.768744375,0.5 L1.14272813,0.5 C1.28816625,0.5 1.47515813,0.425 1.495935,0.375 Z" id="Path"></path>
                        <path d="M1.43360438,0.425 C1.43360438,0.425 1.18428187,0.125 1.01806688,0.225 C1.01806688,0.225 1.30894312,0.1 1.47515813,0.4 L1.43360438,0.425 Z" id="Path"></path>
                        <path d="M1.39205063,0.375 C1.39205063,0.375 1.12195125,0.6 0.831075,0.375 L0.810298125,0.325 L0.851851875,0.325 C0.851851875,0.325 1.20505875,0.5 1.39205063,0.375 Z" id="Path"></path>
                        <ellipse id="Oval" cx="1.163505" cy="0.325" rx="1" ry="1"></ellipse>
                    </g>
                    <path d="M9.375,52.0625 C9.375,52.0625 9.15625,52.4375 9.28125,52.6875 C9.375,52.90625 9.90625,53 9.9375,53.3125 C10,53.625 10.1875,53.625 10.40625,53.625 L10.6875,53.53125 C10.6875,53.53125 9.71875,53.03125 9.4375,52.1875 L9.375,52.0625 Z" id="Path" fill="#000000"></path>
                    <g transform="translate(30.000000, 42.187500)" fill="#964B36" stroke="#000000">
                        <path d="M10.4375,2.125 C10.4375,2.125 12.1875,-0.1875 13.75,0.40625 C15.3125,1.03125 16.28125,1.34375 16.28125,1.34375 C16.28125,1.34375 16.3125,2.875 15.5,2.875 C14.6875,2.875 13.875,1.3125 13.125,1.78125 C12.5579378,2.09986489 12.0756694,2.54998204 11.71875,3.09375 C11.6875,3.3125 9.75,3.34375 10.4375,2.125 Z" id="Path" stroke-width="0.3"></path>
                        <path d="M3.8125,13.25 C3.8125,13.25 3.3125,13.75 3.53125,13.875 C3.75,14 4.1875,13.875 4.1875,13.6875 C4.1875,13.5 3.875,13.1875 3.8125,13.25 Z" id="Path" stroke-width="0.5"></path>
                        <path d="M3.4375,13.75 C3.4375,13.75 2.5,13.21875 1.8125,14.4375 C1.09375,15.625 0.53125,17.59375 0.125,17.875 C-0.28125,18.125 4.125,15.9375 4.1875,15 C4.1875,15 4.46875,13.8125 4,13.84375 C3.53125,13.84375 3.5,13.90625 3.40625,13.71875 L3.4375,13.75 Z" id="Path" stroke-width="0.5"></path>
                        <path d="M3.53125,13.875 C3.53125,13.875 2.59375,14.09375 2.40625,15.40625 C2.21875,16.71875 0.9375,17.375 0.84375,17.4375 M16.28125,1.3125 C16.28125,1.3125 14.90625,1.8125 15.125,2.78125" id="Shape" stroke-width="0.3" fill-rule="nonzero"></path>
                    </g>
                    <path d="M35.53125,46.34375 C35.53125,46.34375 35.59375,43.03125 38.3125,43.15625 C38.8125,43.21875 38.5625,43.8125 38.5625,43.8125 C38.5625,43.8125 39.1875,43.40625 39.4375,44.0625 C39.4375,44.0625 40.28125,43.6875 40.375,44.53125 C40.375,44.53125 41.3125,44.40625 41.1875,45.15625 C41.1875,45.15625 41.8125,45 41.8125,45.53125 C41.8125,45.53125 42.53125,45.25 42.4375,46 C42.4375,46 43.25,45.46875 43.15625,46.4375 C43.15625,46.4375 43.96875,45.84375 44.25,46.8125 C44.5625,47.8125 43.4375,49.875 42.34375,50.40625" id="Path" stroke="#000000" stroke-width="0.3" fill="#FFF200"></path>
                    <path d="M43.09375,46.5625 C43.09375,46.5625 43.4375,49.125 42,50.09375 L42.03125,50.15625 C43.5625,49.21875 43.1875,46.5625 43.1875,46.53125 L43.09375,46.53125 L43.09375,46.5625 Z M41.3125,49.375 L41.375,49.4375 C42.3125,48.53125 42.53125,46.125 42.53125,46 L42.4375,46 C42.4375,46 42.21875,48.5 41.3125,49.375 Z M40.46875,48.78125 L40.5625,48.78125 C40.7532189,47.6286999 41.190235,46.5308302 41.84375,45.5625 L41.78125,45.53125 C41.78125,45.53125 40.59375,47.25 40.46875,48.78125 Z M39.78125,48.34375 L39.875,48.34375 C40.03125,46.5625 41.25,45.21875 41.25,45.1875 L41.1875,45.125 C41.1875,45.125 39.9375,46.53125 39.78125,48.34375 Z M38.84375,47.71875 L38.9375,47.71875 C39.03125,45.625 40.4375,44.59375 40.4375,44.59375 L40.375,44.5 C40.375,44.5 38.9375,45.5625 38.8125,47.75 L38.84375,47.71875 Z M37.96875,47.21875 L38.0625,47.21875 C38,45.28125 39.46875,44.09375 39.5,44.09375 L39.4375,44.03125 C39.4375,44.03125 37.875,45.21875 37.96875,47.21875 Z M36.40625,46.5 L36.5,46.5 C36.6484865,45.2908068 37.4732274,44.2720092 38.625,43.875 L38.625,43.78125 C37.4222316,44.1826751 36.5583997,45.2411734 36.40625,46.5 Z" id="Shape" fill="#000000" fill-rule="nonzero"></path>
                    <path d="M33.9375,50.375 C33.9375,50.375 33.46875,47.28125 35.3125,46.3125 C35.3125,46.3125 35.65625,46.25 35.84375,46.6875 C35.84375,46.6875 36.8125,46.28125 36.84375,47.09375 C36.84375,47.09375 37.34375,46.71875 37.46875,47.25 C37.46875,47.25 38.5,47.03125 38.3125,47.8125 C38.3125,47.8125 39.1875,47.5625 39.09375,48.3125 C39.09375,48.3125 39.96875,48 39.84375,48.625 C39.84375,48.625 40.78125,48.4375 40.53125,49.1875 C40.53125,49.1875 41.6875,49.0625 41.34375,49.84375 C41.34375,49.84375 42.1875,49.625 41.96875,50.28125 C41.96875,50.28125 43.09375,50.5 42.59375,51.21875 C41.7744925,52.1953422 40.7207586,52.9480093 39.53125,53.40625" id="Path" stroke="#000000" stroke-width="0.3" fill="#00A651"></path>
                    <path d="M32.9375,53.46875 C32.9375,53.46875 32.1875,50.90625 33.625,50.25 C33.625,50.25 33.90625,50.1875 33.9375,50.4375 C33.9375,50.4375 34.25,50.03125 34.5,50.40625 C34.5,50.40625 35.21875,50.0625 35.40625,50.59375 C35.40625,50.59375 35.875,50.1875 36.125,50.78125 C36.125,50.78125 36.59375,50.59375 36.59375,51.09375 C36.59375,51.09375 37.21875,50.78125 37.21875,51.40625 C37.21875,51.40625 37.84375,51.15625 37.6875,51.78125 C37.6875,51.78125 38.625,51.9375 38.34375,52.375 C38.34375,52.375 39.1875,52.59375 38.875,52.9375 C38.875,52.9375 39.75,52.84375 39.28125,53.4375 C39.28125,53.4375 39.96875,53.21875 39.59375,53.96875 C39.1875,54.71875 37.96875,55.53125 37.09375,55.65625" id="Path" stroke="#000000" stroke-width="0.3" fill="#00A651"></path>
                    <path d="M33.84375,55.5 C33.84375,55.5 32.25,53.9375 33,53.5 C33,53.5 33.3125,53.59375 33.46875,53.9375 C33.46875,53.9375 33.84375,53.375 34.09375,53.9375 C34.09375,53.9375 34.65625,53.75 34.65625,54.15625 L35.09375,54.46875 C35.09375,54.46875 35.625,54.4375 35.53125,54.78125 C35.53125,54.78125 36.125,54.6875 36.09375,55 C36.09375,55 36.59375,55.03125 36.5625,55.375 C36.5625,55.375 37.4375,55.53125 37.03125,55.96875 C37.03125,55.96875 35.53125,56.28125 34.4375,55.84375 C34.4375,55.84375 33.90625,55.65625 33.84375,55.5 Z" id="Path" stroke="#000000" stroke-width="0.3" fill="#00A651"></path>
                    <path d="M39.34375,52.9375 L39.34375,53.03125 C40.388127,52.2849575 41.2970807,51.3654346 42.03125,50.3125 L41.9375,50.25 C41.9375,50.28125 40.25,52.59375 39.34375,52.9375 Z M38.78125,52.53125 L38.84375,52.625 C39.65625,52.15625 41.3125,49.96875 41.34375,49.875 L41.3125,49.8125 C41.28125,49.84375 39.59375,52.0625 38.8125,52.53125 L38.78125,52.53125 Z M38.3125,52.34375 L38.375,52.40625 C39.2408466,51.4328774 39.9762008,50.3508563 40.5625,49.1875 L40.5,49.15625 C40.5,49.15625 39.1875,51.625 38.3125,52.34375 Z M37.90625,51.78125 L38,51.78125 C38.15625,50.59375 39.875,48.6875 39.875,48.65625 L39.78125,48.625 C39.71875,48.6875 38.0625,50.5625 37.90625,51.78125 Z M34.5,50.3125 L34.59375,50.3125 C34.46875,48.59375 35.875,46.71875 35.90625,46.71875 L35.8125,46.65625 C35.8125,46.65625 34.34375,48.59375 34.5,50.3125 Z M35.40625,50.46875 L35.5,50.46875 C35.25,49.09375 36.875,47.15625 36.875,47.125 L36.8125,47.0625 C36.75,47.15625 35.15625,49.0625 35.40625,50.46875 Z M36.78125,50.96875 L36.875,50.96875 C36.8125,49.40625 38.3125,47.84375 38.34375,47.84375 L38.28125,47.75 C38.28125,47.78125 36.71875,49.375 36.78125,50.96875 Z M33.5,53.78125 L33.59375,53.78125 C33.03125,52.3125 33.96875,50.46875 34,50.46875 L33.90625,50.40625 C33.90625,50.40625 32.9375,52.3125 33.5,53.8125 L33.5,53.78125 Z M34.125,53.90625 L34.21875,53.875 C33.71875,52.40625 34.53125,50.4375 34.53125,50.4375 L34.46875,50.375 C34.46875,50.375 33.625,52.40625 34.125,53.90625 Z M36.71875,55.375 L36.71875,55.4375 C38.28125,54.90625 39.3125,53.46875 39.3125,53.46875 L39.21875,53.40625 C39.21875,53.40625 38.21875,54.8125 36.71875,55.375 Z M36.40625,55.03125 L36.40625,55.125 C37.65625,54.5625 38.8125,53 38.8125,53 L38.75,52.9375 C38.75,52.9375 37.59375,54.5 36.40625,55.03125 Z M36.09375,54.90625 L36.15625,55 C37.09375,54.28125 38.34375,52.5 38.34375,52.5 L38.28125,52.4375 C38.28125,52.4375 37.03125,54.21875 36.09375,54.90625 Z M34.53125,54 L34.65625,54 C34.6040039,52.8148403 34.8739943,51.6376823 35.4375,50.59375 L35.34375,50.5625 C35.34375,50.5625 34.34375,52.4375 34.5625,54 L34.53125,54 Z M35.21875,54.4375 L35.28125,54.5 C36.28125,53.59375 36.625,51.1875 36.625,51.0625 L36.53125,51.0625 C36.53125,51.0625 36.21875,53.5625 35.21875,54.4375 Z M35.90625,54.6875 L35.96875,54.78125 C36.877342,54.0183284 37.5044066,52.9732208 37.75,51.8125 L37.65625,51.8125 C37.65625,51.8125 37.28125,53.6875 35.90625,54.71875 L35.90625,54.6875 Z M36.0625,50.5 L36.0625,50.78125 L35,54.21875 L35.09375,54.25 L36.15625,50.8125 C36,49.125 37.46875,47.28125 37.5,47.28125 L37.40625,47.21875 C37.40625,47.21875 36.0625,48.875 36.0625,50.5 Z" id="Shape" fill="#000000" fill-rule="nonzero"></path>
                    <path d="M37.1875,51.34375 C37.1875,51.40625 36.84375,53.75 35.5625,54.625 L35.625,54.71875 C36.9375,53.8125 37.25,51.5 37.25,51.375 C37.8125,50.71875 39.125,48.34375 39.125,48.34375 L39.0625,48.28125 C39.0625,48.28125 37.75,50.65625 37.1875,51.34375 Z M33.4375,53.9375 C33.4375,53.96875 33.625,55.1875 33.875,55.5625 L33.96875,55.53125 C33.71875,55.125 33.5,53.9375 33.5,53.90625 L33.40625,53.9375 L33.4375,53.9375 Z M34.03125,53.9375 L34,55.59375 L34.09375,55.59375 L34.09375,53.9375 L34.03125,53.9375 Z" id="Shape" fill="#000000" fill-rule="nonzero"></path>
                    <path d="M34.0625,55.625 L34.15625,55.65625 C34.5625,54.78125 34.6875,54.15625 34.6875,54.15625 L34.59375,54.15625 C34.59375,54.15625 34.46875,54.75 34.0625,55.625 Z M34.15625,55.65625 L34.21875,55.75 C34.6830925,55.4724106 35.0197801,55.0234938 35.15625,54.5 L35.0625,54.5 C35.0625,54.5 34.875,55.25 34.15625,55.65625 Z M34.3125,55.71875 L34.3125,55.8125 C35.0625,55.75 35.5625,54.84375 35.5625,54.78125 L35.5,54.78125 C35.5,54.78125 35,55.65625 34.3125,55.71875 Z" id="Shape" fill="#000000" fill-rule="nonzero"></path>
                    <path d="M34.375,55.78125 L34.375,55.875 C35.59375,55.78125 36.125,55.0625 36.125,55.03125 L36.0625,55 C36.0625,55 35.53125,55.6875 34.375,55.78125 Z" id="Path" fill="#000000"></path>
                    <path d="M34.46875,55.78125 L34.46875,55.875 C34.5,55.875 36.03125,56.21875 36.5625,55.4375 L36.46875,55.375 C36,56.125 34.46875,55.8125 34.46875,55.78125 Z" id="Path" fill="#000000"></path>
                    <path d="M0.28125,0.0625 L0.28125,42.6875 C0.28125,56.625 25.46875,64.875 25.46875,64.875 C25.46875,64.875 50.625,56.625 50.625,42.6875 L50.625,0.0625 L0.28125,0.0625 Z" id="Path" stroke="#000000" stroke-width="2.8"></path>
                </g>
                <polygon id="Path" fill="#002868" points="0 0 0 75.09375 111.875 75.09375 111.875 0"></polygon>
                <polygon id="Path" fill="#FFFFFF" points="0 0 0 8.40625 43.4375 37.5625 0 66.71875 0 75.09375 12.5 75.09375 55.9375 45.9375 99.375 75.09375 111.875 75.09375 111.875 66.71875 68.4375 37.5625 111.875 8.40625 111.875 0 99.375 0 55.9375 29.15625 12.5 0"></polygon>
                <polygon id="Path" fill="#CE1126" points="0 0 0 5.61054844 47.5966075 37.5417234 0 69.5105531 0 75.1211016 8.3301075 75.1211016 55.9547625 43.1522719 103.55137 75.1211016 111.881477 75.1211016 111.881477 69.4728984 64.28487 37.5793781 111.881477 5.64820313 111.881477 0 103.55137 0 55.9547625 31.9688297 8.3301075 0"></polygon>
                <polygon id="Path" fill="#FFFFFF" points="46.625 0 46.625 25.03125 0 25.03125 0 50.0625 46.625 50.0625 46.625 75.09375 65.28125 75.09375 65.28125 50.09375 111.875 50.09375 111.875 25 65.25 25 65.25 0"></polygon>
                <polygon id="Path" fill="#CE1126" points="50.34375 0 50.34375 30.03125 0 30.03125 0 45.0625 50.34375 45.0625 50.34375 75.09375 61.5625 75.09375 61.5625 45.0625 111.875 45.0625 111.875 30.0625 61.5625 30.0625 61.5625 0 50.3125 0"></polygon>
            </g>
        </g>
    </g>
</svg>