<?xml version="1.0" encoding="UTF-8"?>
<svg width="200px" height="150px" viewBox="0 0 200 150" version="1.1" xmlns="http://www.w3.org/2000/svg" xmlns:xlink="http://www.w3.org/1999/xlink">
    <!-- Generator: Sketch 52.5 (67469) - http://www.bohemiancoding.com/sketch -->
    <title>hn</title>
    <desc>Created with Sketch.</desc>
    <g id="Flags" stroke="none" stroke-width="1" fill="none" fill-rule="evenodd">
        <g id="North-America" transform="translate(-950.000000, -450.000000)">
            <g id="hn" transform="translate(950.000000, 450.000000)">
                <polygon id="Path" fill="#0073CF" points="0 0 200 0 200 150 0 150"></polygon>
                <polygon id="Path" fill="#FFFFFF" points="0 50 200 50 200 100 0 100"></polygon>
                <g id="c" transform="translate(83.333344, 58.333344)" fill="#0073CF">
                    <g id="b" transform="translate(8.333328, 8.333328)">
                        <polygon id="a" points="5.83332969 8.33332813 9.99999375 9.16666094 8.33332813 0"></polygon>
                        <g id="a-link" transform="translate(8.333328, 8.333328) scale(-1, 1) translate(-8.333328, -8.333328) ">
                            <polygon id="a" points="5.83332969 8.33332813 9.99999375 9.16666094 8.33332813 0"></polygon>
                        </g>
                    </g>
                    <g id="b-link" transform="translate(16.666656, 16.666656) rotate(72.000000) translate(-16.666656, -16.666656) translate(8.333328, 8.333328)">
                        <g id="b">
                            <polygon id="a" points="5.83332969 8.33332813 9.99999375 9.16666094 8.33332813 0"></polygon>
                            <g id="a-link" transform="translate(8.333328, 8.333328) scale(-1, 1) translate(-8.333328, -8.333328) ">
                                <polygon id="a" points="5.83332969 8.33332813 9.99999375 9.16666094 8.33332813 0"></polygon>
                            </g>
                        </g>
                    </g>
                    <g id="b-link" transform="translate(16.666656, 16.666656) rotate(-72.000000) translate(-16.666656, -16.666656) translate(8.333328, 8.333328)">
                        <g id="b">
                            <polygon id="a" points="5.83332969 8.33332813 9.99999375 9.16666094 8.33332813 0"></polygon>
                            <g id="a-link" transform="translate(8.333328, 8.333328) scale(-1, 1) translate(-8.333328, -8.333328) ">
                                <polygon id="a" points="5.83332969 8.33332813 9.99999375 9.16666094 8.33332813 0"></polygon>
                            </g>
                        </g>
                    </g>
                    <g id="b-link" transform="translate(16.666656, 16.666656) rotate(144.000000) translate(-16.666656, -16.666656) translate(8.333328, 8.333328)">
                        <g id="b">
                            <polygon id="a" points="5.83332969 8.33332813 9.99999375 9.16666094 8.33332813 0"></polygon>
                            <g id="a-link" transform="translate(8.333328, 8.333328) scale(-1, 1) translate(-8.333328, -8.333328) ">
                                <polygon id="a" points="5.83332969 8.33332813 9.99999375 9.16666094 8.33332813 0"></polygon>
                            </g>
                        </g>
                    </g>
                    <g id="b-link" transform="translate(16.666656, 16.666656) rotate(-144.000000) translate(-16.666656, -16.666656) translate(8.333328, 8.333328)">
                        <g id="b">
                            <polygon id="a" points="5.83332969 8.33332813 9.99999375 9.16666094 8.33332813 0"></polygon>
                            <g id="a-link" transform="translate(8.333328, 8.333328) scale(-1, 1) translate(-8.333328, -8.333328) ">
                                <polygon id="a" points="5.83332969 8.33332813 9.99999375 9.16666094 8.33332813 0"></polygon>
                            </g>
                        </g>
                    </g>
                </g>
                <g id="c-link" transform="translate(124.781250, 44.781250)" fill="#0073CF">
                    <g id="c" transform="translate(0.208344, 0.208344)">
                        <g id="b" transform="translate(8.333328, 8.333328)">
                            <polygon id="a" points="5.83332969 8.33332813 9.99999375 9.16666094 8.33332813 0"></polygon>
                            <g id="a-link" transform="translate(8.333328, 8.333328) scale(-1, 1) translate(-8.333328, -8.333328) ">
                                <polygon id="a" points="5.83332969 8.33332813 9.99999375 9.16666094 8.33332813 0"></polygon>
                            </g>
                        </g>
                        <g id="b-link" transform="translate(16.666656, 16.666656) rotate(72.000000) translate(-16.666656, -16.666656) translate(8.333328, 8.333328)">
                            <g id="b">
                                <polygon id="a" points="5.83332969 8.33332813 9.99999375 9.16666094 8.33332813 0"></polygon>
                                <g id="a-link" transform="translate(8.333328, 8.333328) scale(-1, 1) translate(-8.333328, -8.333328) ">
                                    <polygon id="a" points="5.83332969 8.33332813 9.99999375 9.16666094 8.33332813 0"></polygon>
                                </g>
                            </g>
                        </g>
                        <g id="b-link" transform="translate(16.666656, 16.666656) rotate(-72.000000) translate(-16.666656, -16.666656) translate(8.333328, 8.333328)">
                            <g id="b">
                                <polygon id="a" points="5.83332969 8.33332813 9.99999375 9.16666094 8.33332813 0"></polygon>
                                <g id="a-link" transform="translate(8.333328, 8.333328) scale(-1, 1) translate(-8.333328, -8.333328) ">
                                    <polygon id="a" points="5.83332969 8.33332813 9.99999375 9.16666094 8.33332813 0"></polygon>
                                </g>
                            </g>
                        </g>
                        <g id="b-link" transform="translate(16.666656, 16.666656) rotate(144.000000) translate(-16.666656, -16.666656) translate(8.333328, 8.333328)">
                            <g id="b">
                                <polygon id="a" points="5.83332969 8.33332813 9.99999375 9.16666094 8.33332813 0"></polygon>
                                <g id="a-link" transform="translate(8.333328, 8.333328) scale(-1, 1) translate(-8.333328, -8.333328) ">
                                    <polygon id="a" points="5.83332969 8.33332813 9.99999375 9.16666094 8.33332813 0"></polygon>
                                </g>
                            </g>
                        </g>
                        <g id="b-link" transform="translate(16.666656, 16.666656) rotate(-144.000000) translate(-16.666656, -16.666656) translate(8.333328, 8.333328)">
                            <g id="b">
                                <polygon id="a" points="5.83332969 8.33332813 9.99999375 9.16666094 8.33332813 0"></polygon>
                                <g id="a-link" transform="translate(8.333328, 8.333328) scale(-1, 1) translate(-8.333328, -8.333328) ">
                                    <polygon id="a" points="5.83332969 8.33332813 9.99999375 9.16666094 8.33332813 0"></polygon>
                                </g>
                            </g>
                        </g>
                    </g>
                </g>
                <g id="c-link" transform="translate(124.781250, 69.781250)" fill="#0073CF">
                    <g id="c" transform="translate(0.208344, 0.208344)">
                        <g id="b" transform="translate(8.333328, 8.333328)">
                            <polygon id="a" points="5.83332969 8.33332813 9.99999375 9.16666094 8.33332813 0"></polygon>
                            <g id="a-link" transform="translate(8.333328, 8.333328) scale(-1, 1) translate(-8.333328, -8.333328) ">
                                <polygon id="a" points="5.83332969 8.33332813 9.99999375 9.16666094 8.33332813 0"></polygon>
                            </g>
                        </g>
                        <g id="b-link" transform="translate(16.666656, 16.666656) rotate(72.000000) translate(-16.666656, -16.666656) translate(8.333328, 8.333328)">
                            <g id="b">
                                <polygon id="a" points="5.83332969 8.33332813 9.99999375 9.16666094 8.33332813 0"></polygon>
                                <g id="a-link" transform="translate(8.333328, 8.333328) scale(-1, 1) translate(-8.333328, -8.333328) ">
                                    <polygon id="a" points="5.83332969 8.33332813 9.99999375 9.16666094 8.33332813 0"></polygon>
                                </g>
                            </g>
                        </g>
                        <g id="b-link" transform="translate(16.666656, 16.666656) rotate(-72.000000) translate(-16.666656, -16.666656) translate(8.333328, 8.333328)">
                            <g id="b">
                                <polygon id="a" points="5.83332969 8.33332813 9.99999375 9.16666094 8.33332813 0"></polygon>
                                <g id="a-link" transform="translate(8.333328, 8.333328) scale(-1, 1) translate(-8.333328, -8.333328) ">
                                    <polygon id="a" points="5.83332969 8.33332813 9.99999375 9.16666094 8.33332813 0"></polygon>
                                </g>
                            </g>
                        </g>
                        <g id="b-link" transform="translate(16.666656, 16.666656) rotate(144.000000) translate(-16.666656, -16.666656) translate(8.333328, 8.333328)">
                            <g id="b">
                                <polygon id="a" points="5.83332969 8.33332813 9.99999375 9.16666094 8.33332813 0"></polygon>
                                <g id="a-link" transform="translate(8.333328, 8.333328) scale(-1, 1) translate(-8.333328, -8.333328) ">
                                    <polygon id="a" points="5.83332969 8.33332813 9.99999375 9.16666094 8.33332813 0"></polygon>
                                </g>
                            </g>
                        </g>
                        <g id="b-link" transform="translate(16.666656, 16.666656) rotate(-144.000000) translate(-16.666656, -16.666656) translate(8.333328, 8.333328)">
                            <g id="b">
                                <polygon id="a" points="5.83332969 8.33332813 9.99999375 9.16666094 8.33332813 0"></polygon>
                                <g id="a-link" transform="translate(8.333328, 8.333328) scale(-1, 1) translate(-8.333328, -8.333328) ">
                                    <polygon id="a" points="5.83332969 8.33332813 9.99999375 9.16666094 8.33332813 0"></polygon>
                                </g>
                            </g>
                        </g>
                    </g>
                </g>
                <g id="c-link" transform="translate(41.468750, 44.781250)" fill="#0073CF">
                    <g id="c" transform="translate(0.208344, 0.208344)">
                        <g id="b" transform="translate(8.333328, 8.333328)">
                            <polygon id="a" points="5.83332969 8.33332813 9.99999375 9.16666094 8.33332813 0"></polygon>
                            <g id="a-link" transform="translate(8.333328, 8.333328) scale(-1, 1) translate(-8.333328, -8.333328) ">
                                <polygon id="a" points="5.83332969 8.33332813 9.99999375 9.16666094 8.33332813 0"></polygon>
                            </g>
                        </g>
                        <g id="b-link" transform="translate(16.666656, 16.666656) rotate(72.000000) translate(-16.666656, -16.666656) translate(8.333328, 8.333328)">
                            <g id="b">
                                <polygon id="a" points="5.83332969 8.33332813 9.99999375 9.16666094 8.33332813 0"></polygon>
                                <g id="a-link" transform="translate(8.333328, 8.333328) scale(-1, 1) translate(-8.333328, -8.333328) ">
                                    <polygon id="a" points="5.83332969 8.33332813 9.99999375 9.16666094 8.33332813 0"></polygon>
                                </g>
                            </g>
                        </g>
                        <g id="b-link" transform="translate(16.666656, 16.666656) rotate(-72.000000) translate(-16.666656, -16.666656) translate(8.333328, 8.333328)">
                            <g id="b">
                                <polygon id="a" points="5.83332969 8.33332813 9.99999375 9.16666094 8.33332813 0"></polygon>
                                <g id="a-link" transform="translate(8.333328, 8.333328) scale(-1, 1) translate(-8.333328, -8.333328) ">
                                    <polygon id="a" points="5.83332969 8.33332813 9.99999375 9.16666094 8.33332813 0"></polygon>
                                </g>
                            </g>
                        </g>
                        <g id="b-link" transform="translate(16.666656, 16.666656) rotate(144.000000) translate(-16.666656, -16.666656) translate(8.333328, 8.333328)">
                            <g id="b">
                                <polygon id="a" points="5.83332969 8.33332813 9.99999375 9.16666094 8.33332813 0"></polygon>
                                <g id="a-link" transform="translate(8.333328, 8.333328) scale(-1, 1) translate(-8.333328, -8.333328) ">
                                    <polygon id="a" points="5.83332969 8.33332813 9.99999375 9.16666094 8.33332813 0"></polygon>
                                </g>
                            </g>
                        </g>
                        <g id="b-link" transform="translate(16.666656, 16.666656) rotate(-144.000000) translate(-16.666656, -16.666656) translate(8.333328, 8.333328)">
                            <g id="b">
                                <polygon id="a" points="5.83332969 8.33332813 9.99999375 9.16666094 8.33332813 0"></polygon>
                                <g id="a-link" transform="translate(8.333328, 8.333328) scale(-1, 1) translate(-8.333328, -8.333328) ">
                                    <polygon id="a" points="5.83332969 8.33332813 9.99999375 9.16666094 8.33332813 0"></polygon>
                                </g>
                            </g>
                        </g>
                    </g>
                </g>
                <g id="c-link" transform="translate(41.468750, 69.781250)" fill="#0073CF">
                    <g id="c" transform="translate(0.208344, 0.208344)">
                        <g id="b" transform="translate(8.333328, 8.333328)">
                            <polygon id="a" points="5.83332969 8.33332813 9.99999375 9.16666094 8.33332813 0"></polygon>
                            <g id="a-link" transform="translate(8.333328, 8.333328) scale(-1, 1) translate(-8.333328, -8.333328) ">
                                <polygon id="a" points="5.83332969 8.33332813 9.99999375 9.16666094 8.33332813 0"></polygon>
                            </g>
                        </g>
                        <g id="b-link" transform="translate(16.666656, 16.666656) rotate(72.000000) translate(-16.666656, -16.666656) translate(8.333328, 8.333328)">
                            <g id="b">
                                <polygon id="a" points="5.83332969 8.33332813 9.99999375 9.16666094 8.33332813 0"></polygon>
                                <g id="a-link" transform="translate(8.333328, 8.333328) scale(-1, 1) translate(-8.333328, -8.333328) ">
                                    <polygon id="a" points="5.83332969 8.33332813 9.99999375 9.16666094 8.33332813 0"></polygon>
                                </g>
                            </g>
                        </g>
                        <g id="b-link" transform="translate(16.666656, 16.666656) rotate(-72.000000) translate(-16.666656, -16.666656) translate(8.333328, 8.333328)">
                            <g id="b">
                                <polygon id="a" points="5.83332969 8.33332813 9.99999375 9.16666094 8.33332813 0"></polygon>
                                <g id="a-link" transform="translate(8.333328, 8.333328) scale(-1, 1) translate(-8.333328, -8.333328) ">
                                    <polygon id="a" points="5.83332969 8.33332813 9.99999375 9.16666094 8.33332813 0"></polygon>
                                </g>
                            </g>
                        </g>
                        <g id="b-link" transform="translate(16.666656, 16.666656) rotate(144.000000) translate(-16.666656, -16.666656) translate(8.333328, 8.333328)">
                            <g id="b">
                                <polygon id="a" points="5.83332969 8.33332813 9.99999375 9.16666094 8.33332813 0"></polygon>
                                <g id="a-link" transform="translate(8.333328, 8.333328) scale(-1, 1) translate(-8.333328, -8.333328) ">
                                    <polygon id="a" points="5.83332969 8.33332813 9.99999375 9.16666094 8.33332813 0"></polygon>
                                </g>
                            </g>
                        </g>
                        <g id="b-link" transform="translate(16.666656, 16.666656) rotate(-144.000000) translate(-16.666656, -16.666656) translate(8.333328, 8.333328)">
                            <g id="b">
                                <polygon id="a" points="5.83332969 8.33332813 9.99999375 9.16666094 8.33332813 0"></polygon>
                                <g id="a-link" transform="translate(8.333328, 8.333328) scale(-1, 1) translate(-8.333328, -8.333328) ">
                                    <polygon id="a" points="5.83332969 8.33332813 9.99999375 9.16666094 8.33332813 0"></polygon>
                                </g>
                            </g>
                        </g>
                    </g>
                </g>
            </g>
        </g>
    </g>
</svg>