<?xml version="1.0" encoding="UTF-8"?>
<svg width="200px" height="141px" viewBox="0 0 200 141" version="1.1" xmlns="http://www.w3.org/2000/svg" xmlns:xlink="http://www.w3.org/1999/xlink">
    <!-- Generator: Sketch 52.5 (67469) - http://www.bohemiancoding.com/sketch -->
    <title>hk</title>
    <desc>Created with Sketch.</desc>
    <defs>
        <polygon id="path-1" points="0 0 199.88287 0 199.88287 141 0 141"></polygon>
    </defs>
    <g id="Flags" stroke="none" stroke-width="1" fill="none" fill-rule="evenodd">
        <g id="Asia" transform="translate(-70.000000, -450.000000)">
            <g id="hk" transform="translate(70.000000, 450.000000)">
                <mask id="mask-2" fill="white">
                    <use xlink:href="#path-1"></use>
                </mask>
                <g id="Path"></g>
                <g id="Group" mask="url(#mask-2)">
                    <g transform="translate(-1.000000, 0.000000)" id="Path">
                        <polygon stroke="none" fill="#BA0000" fill-rule="evenodd" points="201.487555 141 0.165153734 141 0.165153734 0 201.487555 0"></polygon>
                        <path d="M97.9636896,68.2417969 C97.9636896,68.2417969 83.7604685,62.128125 85.7973646,46.265625 C87.7516837,38.6373047 91.2474378,33.4324219 97.5508053,30.5958984 C100.523572,29.6871094 103.551391,29.2740234 106.634261,29.0261719 C105.808492,29.7972656 105.147877,30.5683594 104.790044,31.5046875 C104.129429,33.2671875 104.62489,34.9195312 105.533236,36.5994141 C106.661786,38.5271484 107.349927,40.5099609 107.570132,43.0986328 C107.991151,46.6894023 106.457673,50.2307327 103.551391,52.3792969 C101.7347,53.7837891 99.5877013,54.2794922 97.8260615,55.8767578 C96.4497804,57.1986328 95.6240117,58.5480469 95.3487555,60.8613281 C95.2937042,65.2951172 96.477306,65.9285156 97.9636896,68.2417969 Z" stroke="none" fill="#FFFFFF" fill-rule="evenodd"></path>
                        <path d="M95.238653,45.3017578 L95.238653,45.2191406" stroke="#000000" stroke-width="1.974" fill="#BA0000" fill-rule="evenodd"></path>
                        <path d="M99.2085583,68.851711 C100.498367,69.3624965 95.4208071,65.8867516 95.0990373,65.4880922 C93.8070826,63.887414 92.9554326,61.8053004 92.4976968,59.5672176 C91.4052096,54.2255417 92.5566265,47.9953986 95.3212299,45.3017578" stroke="#BA0000" stroke-width="1.974" fill="none"></path>
                        <polyline stroke="none" fill="#BA0000" fill-rule="evenodd" points="98.7068814 42.5478516 99.6152269 44.0625 97.9636896 43.3740234 96.6699854 44.7509766 96.8901903 42.9609375 95.238653 42.2724609 97.0278184 41.859375 97.2480234 40.096875 98.156369 41.6115234 99.97306 41.1984375"></polyline>
                        <path d="M99.174817,67.1953125 C99.174817,67.1953125 100.826354,51.8009766 116.598536,49.1021484 C124.470864,48.7716797 130.471449,50.5617188 135.040703,55.7941406 C136.774817,58.3552734 138.040996,61.1367188 139.169546,64.0007813 C138.206149,63.45 137.297804,63.0369141 136.25183,62.9818359 C134.407613,62.8441406 132.948755,63.8080078 131.627526,65.1574219 C130.084645,66.8662309 128.160881,68.1871058 126.012299,69.0128906 C122.70818,70.4745568 118.874735,70.0542482 115.965447,67.9113281 C114.093704,66.5619141 112.992679,64.6617188 110.955783,63.45 C109.300374,62.4654497 107.338259,62.1317273 105.450659,62.5136719 C101.184187,63.7804688 100.963982,65.1023438 99.174817,67.1953125 Z" stroke="none" fill="#FFFFFF" fill-rule="evenodd"></path>
                        <path d="M120.286969,57.8871094 L120.369546,57.8871094" stroke="#000000" stroke-width="1.974" fill="#BA0000" fill-rule="evenodd"></path>
                        <path d="M135.959258,76 L99.2085583,67.7241291 C99.4414038,67.2166107 97.91875,67.013467 101.035843,63.5319218 C106.011339,57.9746867 115.555972,55.3453624 120.314495,57.9421875" stroke="#BA0000" stroke-width="1.974" fill="none"></path>
                        <polyline stroke="none" fill="#BA0000" fill-rule="evenodd" points="123.947877 60.3931641 122.764275 61.6875 122.929429 59.8974609 121.277892 59.0712891 123.012006 58.7958984 123.17716 56.9507812 124.113031 58.603125 125.874671 58.2726563 124.691069 59.5669922 125.599414 61.2193359"></polyline>
                        <path d="M100.220791,68.296875 C100.220791,68.296875 115.359883,64.9921875 122.901903,79.1197266 C125.737042,86.4726562 125.929722,92.7240234 122.433968,98.7 C120.562225,101.178516 118.305124,103.243945 115.965447,105.254297 C116.185652,104.152734 116.268228,103.161328 115.992972,102.169922 C115.552562,100.352344 114.176281,99.2783203 112.469693,98.4521484 C110.352112,97.5256748 108.484318,96.1099884 107.019619,94.3212891 C104.602594,91.6502032 103.794536,87.8914223 104.900146,84.4623047 C105.560761,82.2591797 107.019619,80.6068359 107.515081,78.2935547 C107.926993,76.4153917 107.622664,74.4510188 106.661786,72.7857422 C104.101903,69.1505859 102.780673,69.3433594 100.220791,68.296875 Z" stroke="none" fill="#FFFFFF" fill-rule="evenodd"></path>
                        <path d="M115.745242,85.3986328 L115.800293,85.4537109" stroke="#000000" stroke-width="1.974" fill="#BA0000" fill-rule="evenodd"></path>
                        <path d="M102.670571,68.5722656 C97.91875,68.6538229 104.418647,68.989151 105.250332,69.4775632 C111.293789,73.0266195 115.717716,85.4537109 115.717716,85.4537109" stroke="#BA0000" stroke-width="1.974" fill="none"></path>
                        <polyline stroke="none" fill="#BA0000" fill-rule="evenodd" points="114.534114 89.6671875 112.910102 88.9511719 114.699268 88.5380859 114.919473 86.6929687 115.772767 88.2626953 117.561933 87.8496094 116.32328 89.2265625 117.149048 90.7962891 115.552562 90.0802734 114.313909 91.4847656"></polyline>
                        <path d="M99.8904832,69.8666016 C99.8904832,69.8666016 107.294876,83.4708984 95.8992679,94.6517578 C89.6234261,99.4435547 83.6778917,101.398828 76.9616398,99.7189453 C74.0714495,98.6173828 71.4565154,97.0476563 68.8415813,95.3402344 C69.9426061,95.2576172 70.9610542,95.0648437 71.8418741,94.5140625 C73.4383602,93.5777344 74.0714495,91.9529297 74.401757,90.1078125 C74.6882646,87.8068073 75.5186086,85.6072093 76.8240117,83.6912109 C78.7038852,80.6140049 82.0838286,78.7761822 85.6872621,78.871875 C87.9994143,78.8994141 89.9812592,79.8632812 92.3484627,79.6980469 C94.2477306,79.4501953 95.7341142,78.9269531 97.4131772,77.2746094 C100.165739,73.8322266 99.6152269,72.5929687 99.8904832,69.8390625 L99.8904832,69.8666016 Z" stroke="none" fill="#FFFFFF" fill-rule="evenodd"></path>
                        <path d="M87.8342606,89.5845703 L87.806735,89.6396484" stroke="#000000" stroke-width="1.974" fill="#BA0000" fill-rule="evenodd"></path>
                        <path d="M100.023232,68.3613886 C100.300696,69.8570281 100.435873,75.3435193 100.023232,76.9236958 C99.6078409,78.5144034 98.8932945,80.099838 97.9812892,81.5831451 C95.3953485,85.7889805 91.2218883,89.1737367 87.7792094,89.5294922" stroke="#BA0000" stroke-width="1.974" fill="none"></path>
                        <polyline stroke="none" fill="#BA0000" fill-rule="evenodd" points="83.4026354 89.6121094 83.650366 87.8496094 84.5587116 89.4193359 86.3754026 89.1439453 85.109224 90.4107422 86.0175695 91.9804688 84.3385066 91.1818359 83.072328 92.4486328 83.2925329 90.6861328 81.61347 89.8875"></polyline>
                        <path d="M98.2114202,69.5636719 C98.2114202,69.5636719 87.8617862,81.075 73.4934114,74.0800781 C66.8872621,69.7564453 63.0887262,64.771875 62.4556369,57.8871094 C62.5382138,54.7751953 63.1162518,51.8009766 63.8594436,48.7992188 C64.3273792,49.790625 64.850366,50.671875 65.6486091,51.3328125 C67.0524158,52.5169922 68.8140556,52.5720703 70.685798,52.2691406 C72.9324302,51.7769338 75.2645313,51.8336117 77.4846266,52.434375 C81.0231772,53.1796349 83.8910673,55.7651493 84.9991215,59.2089844 C85.7423133,61.3845703 85.4945827,63.5876953 86.4579795,65.7632813 C87.2837482,67.4707031 88.2746706,68.6824219 90.3941435,69.7289062 C94.5780381,71.1884766 95.5414348,70.2521484 98.2114202,69.5912109 L98.2114202,69.5636719 Z" stroke="none" fill="#FFFFFF" fill-rule="evenodd"></path>
                        <path d="M75.6128843,64.771875 L75.5578331,64.7443359" stroke="#000000" stroke-width="1.974" fill="#BA0000" fill-rule="evenodd"></path>
                        <path d="M99.2085583,69.343142 C97.8304056,70.1335894 93.0696678,71.9529426 91.3562705,72.0637504 C89.4492563,72.1870796 87.4223337,71.9340252 85.4708068,71.4038134 C81.0510403,70.2030037 77.0179931,67.5805987 75.64041,64.6892578" stroke="#BA0000" stroke-width="1.974" fill="none"></path>
                        <polyline stroke="none" fill="#BA0000" fill-rule="evenodd" points="74.1265007 60.5859375 75.8606149 60.2279297 74.6770132 61.6048828 75.5303075 63.2296875 73.9338214 62.4585937 72.7502196 63.8355469 72.942899 61.9628906 71.3188873 61.1917969 73.0530015 60.8337891 73.2456808 58.9611328"></polyline>
                    </g>
                </g>
            </g>
        </g>
    </g>
</svg>