<?xml version="1.0" encoding="UTF-8"?>
<svg width="200px" height="141px" viewBox="0 0 200 141" version="1.1" xmlns="http://www.w3.org/2000/svg" xmlns:xlink="http://www.w3.org/1999/xlink">
    <!-- Generator: Sketch 52.5 (67469) - http://www.bohemiancoding.com/sketch -->
    <title>ir</title>
    <desc>Created with Sketch.</desc>
    <defs>
        <polygon id="path-1" points="0.204678363 0 199.824561 0 199.824561 150 0.204678363 150"></polygon>
    </defs>
    <g id="Flags" stroke="none" stroke-width="1" fill="none" fill-rule="evenodd">
        <g id="Asia" transform="translate(-70.000000, -650.000000)">
            <g id="ir" transform="translate(70.000000, 650.000000)">
                <mask id="mask-2" fill="white">
                    <use xlink:href="#path-1"></use>
                </mask>
                <g id="Path"></g>
                <g id="Group" mask="url(#mask-2)">
                    <g transform="translate(-23.000000, 0.000000)">
                        <polygon id="Path" fill="#FFFFFF" fill-rule="evenodd" points="0 0 245.614035 0 245.614035 140.625 0 140.625"></polygon>
                        <polygon id="Path" fill="#DA0000" fill-rule="evenodd" points="0 94.4274902 245.614035 94.4274902 245.614035 140.625 0 140.625"></polygon>
                        <g id="Group" stroke-width="1" fill="none" fill-rule="evenodd" transform="translate(46.600877, 96.405029)">
                            <path d="M0.109649123,0 L13.5416667,0 L13.5416667,0.90637207 L0.109649123,0.90637207 L0.109649123,0 Z M2.11074561,4.61425781 L3.04276316,4.61425781 L3.04276316,5.52062988 L2.11074561,5.52062988 L2.11074561,4.61425781 Z M13.5964912,4.61425781 L13.5964912,5.52062988 L10.9100877,5.52062988 L10.9100877,4.58679199 L13.5964912,4.61425781 Z M15.0219298,0 L15.9539474,0 L15.9539474,5.49316406 L15.0219298,5.49316406 L15.0219298,0 Z" id="Shape" fill="#FFFFFF" fill-rule="nonzero"></path>
                            <path d="M20.3947368,4.58679199 L20.3947368,5.52062988 L15.2960526,5.52062988 L15.2960526,4.58679199 L20.3947368,4.58679199 Z M10.9100877,2.41699219 L11.7872807,2.41699219 L11.7872807,5.52062988 L10.8826754,5.52062988 L10.9100877,2.41699219 Z" id="Shape" fill="#FFFFFF" fill-rule="nonzero"></path>
                            <path d="M19.627193,0 L20.5592105,0 L20.5592105,5.49316406 L19.627193,5.49316406 L19.627193,0 Z M17.3245614,0 L18.2291667,0 L18.2291667,5.49316406 L17.3245614,5.49316406 L17.3245614,0 Z M5.04385965,2.19726562 L5.04385965,3.13110352 L0.109649123,3.13110352 L0.109649123,2.19726562 L5.04385965,2.19726562 Z M15.816886,2.19726562 L15.816886,3.13110352 L10.8826754,3.13110352 L10.8826754,2.19726562 L15.816886,2.19726562 Z" id="Shape" fill="#FFFFFF" fill-rule="nonzero"></path>
                            <polygon id="Path" fill="#FFFFFF" points="10.9100877 2.44445801 11.7872807 2.44445801 11.7872807 5.49316406 10.8826754 5.49316406"></polygon>
                            <polygon id="Path" fill="#FFFFFF" points="10.9100877 2.44445801 11.7872807 2.44445801 11.7872807 5.49316406 10.8826754 5.49316406"></polygon>
                            <path d="M10.9100877,2.44445801 L11.7872807,2.44445801 L11.7872807,5.49316406 L10.8826754,5.49316406 L10.9100877,2.44445801 Z M0.137061404,2.44445801 L1.04166667,2.44445801 L1.04166667,5.49316406 L0.137061404,5.49316406 L0.137061404,2.44445801 Z M8.03179825,2.44445801 L8.96381579,2.44445801 L8.96381579,5.49316406 L8.03179825,5.49316406 L8.03179825,2.44445801 Z M4.11184211,2.44445801 L5.04385965,2.44445801 L5.04385965,5.49316406 L4.11184211,5.49316406 L4.11184211,2.44445801 Z" id="Shape" fill="#FFFFFF" fill-rule="nonzero"></path>
                            <path d="M8.6622807,4.58679199 L8.6622807,5.52062988 L4.52302632,5.52062988 L4.52302632,4.58679199 L8.6622807,4.58679199 Z M8.93640351,2.19726562 L8.93640351,3.13110352 L6.30482456,3.13110352 L6.30482456,2.19726562 L8.93640351,2.19726562 Z" id="Shape" fill="#FFFFFF" fill-rule="nonzero"></path>
                        </g>
                        <g id="Group" stroke-width="1" fill="none" fill-rule="evenodd" transform="translate(24.396930, 96.405029)">
                            <path d="M0.219298246,0 L13.6513158,0 L13.6513158,0.90637207 L0.219298246,0.90637207 L0.219298246,0 Z M2.22039474,4.61425781 L3.15241228,4.61425781 L3.15241228,5.52062988 L2.19298246,5.52062988 L2.22039474,4.61425781 Z M13.7061404,4.61425781 L13.7061404,5.52062988 L11.0197368,5.52062988 L11.0197368,4.58679199 L13.7061404,4.61425781 Z M15.1315789,0 L16.0635965,0 L16.0635965,5.49316406 L15.1315789,5.49316406 L15.1315789,0 Z" id="Shape" fill="#FFFFFF" fill-rule="nonzero"></path>
                            <path d="M20.504386,4.58679199 L20.504386,5.52062988 L15.4057018,5.52062988 L15.4057018,4.58679199 L20.504386,4.58679199 Z M11.0197368,2.41699219 L11.9243421,2.41699219 L11.9243421,5.52062988 L11.0197368,5.52062988 L11.0197368,2.41699219 Z" id="Shape" fill="#FFFFFF" fill-rule="nonzero"></path>
                            <path d="M19.7368421,0 L20.6688596,0 L20.6688596,5.49316406 L19.7368421,5.49316406 L19.7368421,0 Z M17.4342105,0 L18.3388158,0 L18.3388158,5.49316406 L17.4342105,5.49316406 L17.4342105,0 Z M5.15350877,2.19726562 L5.15350877,3.13110352 L0.219298246,3.13110352 L0.219298246,2.19726562 L5.15350877,2.19726562 Z M15.9265351,2.19726562 L15.9265351,3.13110352 L10.9923246,3.13110352 L10.9923246,2.19726562 L15.9265351,2.19726562 Z" id="Shape" fill="#FFFFFF" fill-rule="nonzero"></path>
                            <polygon id="Path" fill="#FFFFFF" points="11.0197368 2.44445801 11.9243421 2.44445801 11.9243421 5.49316406 11.0197368 5.49316406"></polygon>
                            <polygon id="Path" fill="#FFFFFF" points="11.0197368 2.44445801 11.9243421 2.44445801 11.9243421 5.49316406 11.0197368 5.49316406"></polygon>
                            <path d="M11.0197368,2.44445801 L11.9243421,2.44445801 L11.9243421,5.49316406 L11.0197368,5.49316406 L11.0197368,2.44445801 Z M0.246710526,2.44445801 L1.15131579,2.44445801 L1.15131579,5.49316406 L0.246710526,5.49316406 L0.246710526,2.44445801 Z M8.14144737,2.44445801 L9.04605263,2.44445801 L9.04605263,5.49316406 L8.14144737,5.49316406 L8.14144737,2.44445801 Z M4.22149123,2.44445801 L5.15350877,2.44445801 L5.15350877,5.49316406 L4.22149123,5.49316406 L4.22149123,2.44445801 Z" id="Shape" fill="#FFFFFF" fill-rule="nonzero"></path>
                            <path d="M8.77192982,4.58679199 L8.77192982,5.52062988 L4.66008772,5.52062988 L4.66008772,4.58679199 L8.77192982,4.58679199 Z M9.04605263,2.19726562 L9.04605263,3.13110352 L6.41447368,3.13110352 L6.41447368,2.19726562 L9.04605263,2.19726562 Z" id="Shape" fill="#FFFFFF" fill-rule="nonzero"></path>
                        </g>
                        <g id="Group" stroke-width="1" fill="none" fill-rule="evenodd" transform="translate(68.530702, 96.405029)">
                            <path d="M0.0822368421,0 L13.5142544,0 L13.5142544,0.90637207 L0.0822368421,0.90637207 L0.0822368421,0 Z M2.08333333,4.61425781 L3.01535088,4.61425781 L3.01535088,5.52062988 L2.08333333,5.52062988 L2.08333333,4.61425781 Z M13.5690789,4.61425781 L13.5690789,5.52062988 L10.8826754,5.52062988 L10.8826754,4.58679199 L13.5690789,4.61425781 Z M15.0219298,0 L15.9539474,0 L15.9539474,5.49316406 L15.0219298,5.49316406 L15.0219298,0 Z" id="Shape" fill="#FFFFFF" fill-rule="nonzero"></path>
                            <path d="M20.3673246,4.58679199 L20.3673246,5.52062988 L15.2686404,5.52062988 L15.2686404,4.58679199 L20.3673246,4.58679199 Z M10.8826754,2.41699219 L11.814693,2.41699219 L11.814693,5.52062988 L10.8826754,5.52062988 L10.8826754,2.41699219 Z" id="Shape" fill="#FFFFFF" fill-rule="nonzero"></path>
                            <path d="M19.5997807,0 L20.5317982,0 L20.5317982,5.49316406 L19.5997807,5.49316406 L19.5997807,0 Z M17.2971491,0 L18.2291667,0 L18.2291667,5.49316406 L17.2697368,5.49316406 L17.2971491,0 Z M5.01644737,2.19726562 L5.01644737,3.13110352 L0.0822368421,3.13110352 L0.0822368421,2.19726562 L5.01644737,2.19726562 Z M15.7894737,2.19726562 L15.7894737,3.13110352 L10.8552632,3.13110352 L10.8552632,2.19726562 L15.7894737,2.19726562 Z" id="Shape" fill="#FFFFFF" fill-rule="nonzero"></path>
                            <polygon id="Path" fill="#FFFFFF" points="10.8826754 2.44445801 11.814693 2.44445801 11.814693 5.49316406 10.8826754 5.49316406"></polygon>
                            <polygon id="Path" fill="#FFFFFF" points="10.8826754 2.44445801 11.814693 2.44445801 11.814693 5.49316406 10.8826754 5.49316406"></polygon>
                            <path d="M10.8826754,2.44445801 L11.814693,2.44445801 L11.814693,5.49316406 L10.8826754,5.49316406 L10.8826754,2.44445801 Z M0.109649123,2.44445801 L1.04166667,2.44445801 L1.04166667,5.49316406 L0.109649123,5.49316406 L0.109649123,2.44445801 Z M8.00438596,2.44445801 L8.93640351,2.44445801 L8.93640351,5.49316406 L8.00438596,5.49316406 L8.00438596,2.44445801 Z M4.08442982,2.44445801 L5.01644737,2.44445801 L5.01644737,5.49316406 L4.08442982,5.49316406 L4.08442982,2.44445801 Z" id="Shape" fill="#FFFFFF" fill-rule="nonzero"></path>
                            <path d="M8.6622807,4.58679199 L8.6622807,5.52062988 L4.49561404,5.52062988 L4.49561404,4.58679199 L8.6622807,4.58679199 Z M8.93640351,2.19726562 L8.93640351,3.13110352 L6.30482456,3.13110352 L6.30482456,2.19726562 L8.93640351,2.19726562 Z" id="Shape" fill="#FFFFFF" fill-rule="nonzero"></path>
                        </g>
                        <g id="Group" stroke-width="1" fill="none" fill-rule="evenodd" transform="translate(90.460526, 96.405029)">
                            <path d="M0.191885965,0 L13.6513158,0 L13.6513158,0.90637207 L0.219298246,0.90637207 L0.191885965,0 Z M2.22039474,4.61425781 L3.125,4.61425781 L3.125,5.52062988 L2.22039474,5.52062988 L2.22039474,4.61425781 Z M13.6787281,4.61425781 L13.6787281,5.52062988 L10.9923246,5.52062988 L10.9923246,4.58679199 L13.6787281,4.61425781 Z M15.1315789,0 L16.0635965,0 L16.0635965,5.49316406 L15.1315789,5.49316406 L15.1315789,0 Z" id="Shape" fill="#FFFFFF" fill-rule="nonzero"></path>
                            <path d="M20.504386,4.58679199 L20.504386,5.52062988 L15.4057018,5.52062988 L15.4057018,4.58679199 L20.504386,4.58679199 Z M10.9923246,2.41699219 L11.9243421,2.41699219 L11.9243421,5.52062988 L10.9923246,5.52062988 L10.9923246,2.41699219 Z" id="Shape" fill="#FFFFFF" fill-rule="nonzero"></path>
                            <path d="M19.7368421,0 L20.6688596,0 L20.6688596,5.49316406 L19.7368421,5.49316406 L19.7368421,0 Z M17.4067982,0 L18.3388158,0 L18.3388158,5.49316406 L17.4067982,5.49316406 L17.4067982,0 Z M5.12609649,2.19726562 L5.12609649,3.13110352 L0.219298246,3.13110352 L0.219298246,2.19726562 L5.12609649,2.19726562 Z M15.8991228,2.19726562 L15.8991228,3.13110352 L10.9923246,3.13110352 L10.9923246,2.19726562 L15.8991228,2.19726562 Z" id="Shape" fill="#FFFFFF" fill-rule="nonzero"></path>
                            <polygon id="Path" fill="#FFFFFF" points="10.9923246 2.44445801 11.9243421 2.44445801 11.9243421 5.49316406 10.9923246 5.49316406"></polygon>
                            <polygon id="Path" fill="#FFFFFF" points="10.9923246 2.44445801 11.9243421 2.44445801 11.9243421 5.49316406 10.9923246 5.49316406"></polygon>
                            <path d="M10.9923246,2.44445801 L11.9243421,2.44445801 L11.9243421,5.49316406 L10.9923246,5.49316406 L10.9923246,2.44445801 Z M0.219298246,2.44445801 L1.15131579,2.44445801 L1.15131579,5.49316406 L0.219298246,5.49316406 L0.219298246,2.44445801 Z M8.11403509,2.44445801 L9.04605263,2.44445801 L9.04605263,5.49316406 L8.11403509,5.49316406 L8.11403509,2.44445801 Z M4.22149123,2.44445801 L5.12609649,2.44445801 L5.12609649,5.49316406 L4.22149123,5.49316406 L4.22149123,2.44445801 Z" id="Shape" fill="#FFFFFF" fill-rule="nonzero"></path>
                            <path d="M8.77192982,4.58679199 L8.77192982,5.52062988 L4.63267544,5.52062988 L4.63267544,4.58679199 L8.77192982,4.58679199 Z M9.04605263,2.19726562 L9.04605263,3.13110352 L6.41447368,3.13110352 L6.41447368,2.19726562 L9.04605263,2.19726562 Z" id="Shape" fill="#FFFFFF" fill-rule="nonzero"></path>
                        </g>
                        <g id="Group" stroke-width="1" fill="none" fill-rule="evenodd" transform="translate(112.664474, 96.405029)">
                            <path d="M0.137061404,0 L13.5690789,0 L13.5690789,0.90637207 L0.137061404,0.90637207 L0.137061404,0 Z M2.13815789,4.61425781 L3.07017544,4.61425781 L3.07017544,5.52062988 L2.13815789,5.52062988 L2.13815789,4.61425781 Z M13.6239035,4.61425781 L13.6239035,5.52062988 L10.9375,5.52062988 L10.9375,4.58679199 L13.6239035,4.61425781 Z M15.0767544,0 L15.9813596,0 L15.9813596,5.49316406 L15.0767544,5.49316406 L15.0767544,0 Z" id="Shape" fill="#FFFFFF" fill-rule="nonzero"></path>
                            <path d="M20.4221491,4.58679199 L20.4221491,5.52062988 L15.3234649,5.52062988 L15.3234649,4.58679199 L20.4221491,4.58679199 Z M10.9375,2.41699219 L11.8695175,2.41699219 L11.8695175,5.52062988 L10.9375,5.52062988 L10.9375,2.41699219 Z" id="Shape" fill="#FFFFFF" fill-rule="nonzero"></path>
                            <path d="M19.6546053,0 L20.5866228,0 L20.5866228,5.49316406 L19.6546053,5.49316406 L19.6546053,0 Z M17.3519737,0 L18.2839912,0 L18.2839912,5.49316406 L17.3519737,5.49316406 L17.3519737,0 Z M5.07127193,2.19726562 L5.07127193,3.13110352 L0.137061404,3.13110352 L0.137061404,2.19726562 L5.07127193,2.19726562 Z M15.8442982,2.19726562 L15.8442982,3.13110352 L10.9100877,3.13110352 L10.9100877,2.19726562 L15.8442982,2.19726562 Z" id="Shape" fill="#FFFFFF" fill-rule="nonzero"></path>
                            <polygon id="Path" fill="#FFFFFF" points="10.9375 2.44445801 11.8695175 2.44445801 11.8695175 5.49316406 10.9375 5.49316406"></polygon>
                            <polygon id="Path" fill="#FFFFFF" points="10.9375 2.44445801 11.8695175 2.44445801 11.8695175 5.49316406 10.9375 5.49316406"></polygon>
                            <path d="M10.9375,2.44445801 L11.8695175,2.44445801 L11.8695175,5.49316406 L10.9375,5.49316406 L10.9375,2.44445801 Z M0.164473684,2.44445801 L1.06907895,2.44445801 L1.06907895,5.49316406 L0.164473684,5.49316406 L0.164473684,2.44445801 Z M8.05921053,2.44445801 L8.99122807,2.44445801 L8.99122807,5.49316406 L8.05921053,5.49316406 L8.05921053,2.44445801 Z M4.13925439,2.44445801 L5.07127193,2.44445801 L5.07127193,5.49316406 L4.11184211,5.49316406 L4.13925439,2.44445801 Z" id="Shape" fill="#FFFFFF" fill-rule="nonzero"></path>
                            <path d="M8.71710526,4.58679199 L8.71710526,5.52062988 L4.5504386,5.52062988 L4.5504386,4.58679199 L8.71710526,4.58679199 Z M8.99122807,2.19726562 L8.99122807,3.13110352 L6.30482456,3.13110352 L6.30482456,2.19726562 L8.99122807,2.19726562 Z" id="Shape" fill="#FFFFFF" fill-rule="nonzero"></path>
                        </g>
                        <polygon id="Path" fill="#239F40" fill-rule="evenodd" points="0 0 245.614035 0 245.614035 46.1975098 0 46.1975098"></polygon>
                        <g id="Group" stroke-width="1" fill="none" fill-rule="evenodd" transform="translate(134.868421, 96.405029)">
                            <path d="M0.191885965,0 L13.6239035,0 L13.6239035,0.90637207 L0.191885965,0.90637207 L0.191885965,0 Z M2.19298246,4.61425781 L3.125,4.61425781 L3.125,5.52062988 L2.19298246,5.52062988 L2.19298246,4.61425781 Z M13.6787281,4.61425781 L13.6787281,5.52062988 L10.9649123,5.52062988 L10.9649123,4.58679199 L13.6787281,4.61425781 Z M15.1315789,0 L16.0361842,0 L16.0361842,5.49316406 L15.1315789,5.49316406 L15.1315789,0 Z" id="Shape" fill="#FFFFFF" fill-rule="nonzero"></path>
                            <path d="M20.4769737,4.58679199 L20.4769737,5.52062988 L15.3782895,5.52062988 L15.3782895,4.58679199 L20.4769737,4.58679199 Z M10.9923246,2.41699219 L11.9243421,2.41699219 L11.9243421,5.52062988 L10.9649123,5.52062988 L10.9923246,2.41699219 Z" id="Shape" fill="#FFFFFF" fill-rule="nonzero"></path>
                            <path d="M19.7368421,0 L20.6414474,0 L20.6414474,5.49316406 L19.7368421,5.49316406 L19.7368421,0 Z M17.4067982,0 L18.3388158,0 L18.3388158,5.49316406 L17.4067982,5.49316406 L17.4067982,0 Z M5.12609649,2.19726562 L5.12609649,3.13110352 L0.191885965,3.13110352 L0.191885965,2.19726562 L5.12609649,2.19726562 Z M15.8991228,2.19726562 L15.8991228,3.13110352 L10.9649123,3.13110352 L10.9649123,2.19726562 L15.8991228,2.19726562 Z" id="Shape" fill="#FFFFFF" fill-rule="nonzero"></path>
                            <polygon id="Path" fill="#FFFFFF" points="10.9649123 2.44445801 11.9243421 2.44445801 11.9243421 5.49316406 10.9649123 5.49316406"></polygon>
                            <polygon id="Path" fill="#FFFFFF" points="10.9649123 2.44445801 11.9243421 2.44445801 11.9243421 5.49316406 10.9649123 5.49316406"></polygon>
                            <path d="M10.9649123,2.44445801 L11.9243421,2.44445801 L11.9243421,5.49316406 L10.9649123,5.49316406 L10.9649123,2.44445801 Z M0.219298246,2.44445801 L1.15131579,2.44445801 L1.15131579,5.49316406 L0.219298246,5.49316406 L0.219298246,2.44445801 Z M8.11403509,2.44445801 L9.04605263,2.44445801 L9.04605263,5.49316406 L8.11403509,5.49316406 L8.11403509,2.44445801 Z M4.19407895,2.44445801 L5.12609649,2.44445801 L5.12609649,5.49316406 L4.19407895,5.49316406 L4.19407895,2.44445801 Z" id="Shape" fill="#FFFFFF" fill-rule="nonzero"></path>
                            <path d="M8.77192982,4.58679199 L8.77192982,5.52062988 L4.60526316,5.52062988 L4.60526316,4.58679199 L8.77192982,4.58679199 Z M9.04605263,2.19726562 L9.04605263,3.13110352 L6.41447368,3.13110352 L6.41447368,2.19726562 L9.04605263,2.19726562 Z" id="Shape" fill="#FFFFFF" fill-rule="nonzero"></path>
                        </g>
                        <g id="Group" stroke-width="1" fill="none" fill-rule="evenodd" transform="translate(157.072368, 96.405029)">
                            <path d="M0.109649123,0 L13.5416667,0 L13.5416667,0.90637207 L0.109649123,0.90637207 L0.109649123,0 Z M2.11074561,4.61425781 L3.04276316,4.61425781 L3.04276316,5.52062988 L2.11074561,5.52062988 L2.11074561,4.61425781 Z M13.6239035,4.61425781 L13.6239035,5.52062988 L10.9100877,5.52062988 L10.9100877,4.58679199 L13.6239035,4.61425781 Z M15.0493421,0 L15.9813596,0 L15.9813596,5.49316406 L15.0493421,5.49316406 L15.0493421,0 Z" id="Shape" fill="#FFFFFF" fill-rule="nonzero"></path>
                            <path d="M20.3947368,4.58679199 L20.3947368,5.52062988 L15.2960526,5.52062988 L15.2960526,4.58679199 L20.3947368,4.58679199 Z M10.9100877,2.41699219 L11.8421053,2.41699219 L11.8421053,5.52062988 L10.9100877,5.52062988 L10.9100877,2.41699219 Z" id="Shape" fill="#FFFFFF" fill-rule="nonzero"></path>
                            <path d="M19.6546053,0 L20.5592105,0 L20.5592105,5.49316406 L19.6546053,5.49316406 L19.6546053,0 Z M17.3245614,0 L18.2565789,0 L18.2565789,5.49316406 L17.3245614,5.49316406 L17.3245614,0 Z M5.04385965,2.19726562 L5.04385965,3.13110352 L0.137061404,3.13110352 L0.137061404,2.19726562 L5.04385965,2.19726562 Z M15.816886,2.19726562 L15.816886,3.13110352 L10.9100877,3.13110352 L10.9100877,2.19726562 L15.816886,2.19726562 Z" id="Shape" fill="#FFFFFF" fill-rule="nonzero"></path>
                            <polygon id="Path" fill="#FFFFFF" points="10.9100877 2.44445801 11.8421053 2.44445801 11.8421053 5.49316406 10.9100877 5.49316406"></polygon>
                            <polygon id="Path" fill="#FFFFFF" points="10.9100877 2.44445801 11.8421053 2.44445801 11.8421053 5.49316406 10.9100877 5.49316406"></polygon>
                            <path d="M10.9100877,2.44445801 L11.8421053,2.44445801 L11.8421053,5.49316406 L10.9100877,5.49316406 L10.9100877,2.44445801 Z M0.137061404,2.44445801 L1.06907895,2.44445801 L1.06907895,5.49316406 L0.137061404,5.49316406 L0.137061404,2.44445801 Z M8.03179825,2.44445801 L8.96381579,2.44445801 L8.96381579,5.49316406 L8.03179825,5.49316406 L8.03179825,2.44445801 Z M4.11184211,2.44445801 L5.04385965,2.44445801 L5.04385965,5.49316406 L4.13925439,5.49316406 L4.11184211,2.44445801 Z" id="Shape" fill="#FFFFFF" fill-rule="nonzero"></path>
                            <path d="M8.68969298,4.58679199 L8.68969298,5.52062988 L4.5504386,5.52062988 L4.5504386,4.58679199 L8.68969298,4.58679199 Z M8.96381579,2.19726562 L8.96381579,3.13110352 L6.30482456,3.13110352 L6.30482456,2.19726562 L8.96381579,2.19726562 Z" id="Shape" fill="#FFFFFF" fill-rule="nonzero"></path>
                        </g>
                        <g id="Group" stroke-width="1" fill="none" fill-rule="evenodd" transform="translate(179.276316, 96.405029)">
                            <path d="M0.0548245614,0 L13.4868421,0 L13.4868421,0.90637207 L0.0548245614,0.90637207 L0.0548245614,0 Z M2.05592105,4.61425781 L2.9879386,4.61425781 L2.9879386,5.52062988 L2.05592105,5.52062988 L2.05592105,4.61425781 Z M13.5416667,4.61425781 L13.5416667,5.52062988 L10.8552632,5.52062988 L10.8552632,4.58679199 L13.5416667,4.61425781 Z M14.9671053,0 L15.8991228,0 L15.8991228,5.49316406 L14.9671053,5.49316406 L14.9671053,0 Z" id="Shape" fill="#FFFFFF" fill-rule="nonzero"></path>
                            <path d="M20.3399123,4.58679199 L20.3399123,5.52062988 L15.2412281,5.52062988 L15.2412281,4.58679199 L20.3399123,4.58679199 Z M10.8278509,2.41699219 L11.7598684,2.41699219 L11.7598684,5.52062988 L10.8278509,5.52062988 L10.8278509,2.41699219 Z" id="Shape" fill="#FFFFFF" fill-rule="nonzero"></path>
                            <path d="M19.5723684,0 L20.504386,0 L20.504386,5.49316406 L19.5723684,5.49316406 L19.5723684,0 Z M17.2697368,0 L18.1743421,0 L18.1743421,5.49316406 L17.2697368,5.49316406 L17.2697368,0 Z M4.98903509,2.19726562 L4.98903509,3.13110352 L0.0548245614,3.13110352 L0.0548245614,2.19726562 L4.98903509,2.19726562 Z M15.7620614,2.19726562 L15.7620614,3.13110352 L10.8278509,3.13110352 L10.8278509,2.19726562 L15.7620614,2.19726562 Z" id="Shape" fill="#FFFFFF" fill-rule="nonzero"></path>
                            <polygon id="Path" fill="#FFFFFF" points="10.8552632 2.44445801 11.7598684 2.44445801 11.7598684 5.49316406 10.8552632 5.49316406"></polygon>
                            <polygon id="Path" fill="#FFFFFF" points="10.8552632 2.44445801 11.7598684 2.44445801 11.7598684 5.49316406 10.8552632 5.49316406"></polygon>
                            <path d="M10.8552632,2.44445801 L11.7598684,2.44445801 L11.7598684,5.49316406 L10.8552632,5.49316406 L10.8552632,2.44445801 Z M0.0548245614,2.44445801 L0.986842105,2.44445801 L0.986842105,5.49316406 L0.0548245614,5.49316406 L0.0548245614,2.44445801 Z M7.97697368,2.44445801 L8.88157895,2.44445801 L8.88157895,5.49316406 L7.97697368,5.49316406 L7.97697368,2.44445801 Z M4.05701754,2.44445801 L4.98903509,2.44445801 L4.98903509,5.49316406 L4.05701754,5.49316406 L4.05701754,2.44445801 Z" id="Shape" fill="#FFFFFF" fill-rule="nonzero"></path>
                            <path d="M8.60745614,4.58679199 L8.60745614,5.52062988 L4.46820175,5.52062988 L4.46820175,4.58679199 L8.60745614,4.58679199 Z M8.88157895,2.19726562 L8.88157895,3.13110352 L6.25,3.13110352 L6.25,2.19726562 L8.88157895,2.19726562 Z" id="Shape" fill="#FFFFFF" fill-rule="nonzero"></path>
                        </g>
                        <g id="Group" stroke-width="1" fill="none" fill-rule="evenodd" transform="translate(201.480263, 96.405029)">
                            <path d="M0.109649123,0 L13.5416667,0 L13.5416667,0.90637207 L0.109649123,0.90637207 L0.109649123,0 Z M2.11074561,4.61425781 L3.04276316,4.61425781 L3.04276316,5.52062988 L2.11074561,5.52062988 L2.11074561,4.61425781 Z M13.5964912,4.61425781 L13.5964912,5.52062988 L10.9100877,5.52062988 L10.9100877,4.58679199 L13.5964912,4.61425781 Z M15.0219298,0 L15.9539474,0 L15.9539474,5.49316406 L15.0219298,5.49316406 L15.0219298,0 Z" id="Shape" fill="#FFFFFF" fill-rule="nonzero"></path>
                            <path d="M20.3947368,4.58679199 L20.3947368,5.52062988 L15.2960526,5.52062988 L15.2960526,4.58679199 L20.3947368,4.58679199 Z M10.9100877,2.41699219 L11.814693,2.41699219 L11.814693,5.52062988 L10.9100877,5.52062988 L10.9100877,2.41699219 Z" id="Shape" fill="#FFFFFF" fill-rule="nonzero"></path>
                            <path d="M19.627193,0 L20.5592105,0 L20.5592105,5.49316406 L19.627193,5.49316406 L19.627193,0 Z M17.3245614,0 L18.2291667,0 L18.2291667,5.49316406 L17.3245614,5.49316406 L17.3245614,0 Z M5.04385965,2.19726562 L5.04385965,3.13110352 L0.109649123,3.13110352 L0.109649123,2.19726562 L5.04385965,2.19726562 Z M15.816886,2.19726562 L15.816886,3.13110352 L10.8826754,3.13110352 L10.8826754,2.19726562 L15.816886,2.19726562 Z" id="Shape" fill="#FFFFFF" fill-rule="nonzero"></path>
                            <polygon id="Path" fill="#FFFFFF" points="10.9100877 2.44445801 11.814693 2.44445801 11.814693 5.49316406 10.9100877 5.49316406"></polygon>
                            <polygon id="Path" fill="#FFFFFF" points="10.9100877 2.44445801 11.814693 2.44445801 11.814693 5.49316406 10.9100877 5.49316406"></polygon>
                            <path d="M10.9100877,2.44445801 L11.814693,2.44445801 L11.814693,5.49316406 L10.9100877,5.49316406 L10.9100877,2.44445801 Z M0.137061404,2.44445801 L1.04166667,2.44445801 L1.04166667,5.49316406 L0.137061404,5.49316406 L0.137061404,2.44445801 Z M8.03179825,2.44445801 L8.96381579,2.44445801 L8.96381579,5.49316406 L8.03179825,5.49316406 L8.03179825,2.44445801 Z M4.11184211,2.44445801 L5.04385965,2.44445801 L5.04385965,5.49316406 L4.11184211,5.49316406 L4.11184211,2.44445801 Z" id="Shape" fill="#FFFFFF" fill-rule="nonzero"></path>
                            <path d="M8.6622807,4.58679199 L8.6622807,5.52062988 L4.52302632,5.52062988 L4.52302632,4.58679199 L8.6622807,4.58679199 Z M8.93640351,2.19726562 L8.93640351,3.13110352 L6.30482456,3.13110352 L6.30482456,2.19726562 L8.93640351,2.19726562 Z" id="Shape" fill="#FFFFFF" fill-rule="nonzero"></path>
                        </g>
                        <g id="Group" stroke-width="1" fill="none" fill-rule="evenodd" transform="translate(46.600877, 39.276123)">
                            <path d="M0.109649123,0.109863281 L13.5416667,0.109863281 L13.5416667,1.04370117 L0.109649123,1.04370117 L0.109649123,0.109863281 Z M2.11074561,4.77905273 L3.04276316,4.77905273 L3.04276316,5.65795898 L2.11074561,5.65795898 L2.11074561,4.77905273 Z M13.5964912,4.72412109 L13.5964912,5.65795898 L10.9100877,5.65795898 L10.9100877,4.72412109 L13.5964912,4.72412109 Z M15.0219298,0.109863281 L15.9539474,0.109863281 L15.9539474,5.65795898 L15.0219298,5.65795898 L15.0219298,0.109863281 Z" id="Shape" fill="#FFFFFF" fill-rule="nonzero"></path>
                            <path d="M20.3947368,4.72412109 L20.3947368,5.65795898 L15.2960526,5.65795898 L15.2960526,4.72412109 L20.3947368,4.72412109 Z M10.9100877,2.55432129 L11.7872807,2.55432129 L11.7872807,5.65795898 L10.8826754,5.65795898 L10.9100877,2.55432129 Z" id="Shape" fill="#FFFFFF" fill-rule="nonzero"></path>
                            <path d="M19.627193,0.109863281 L20.5592105,0.109863281 L20.5592105,5.65795898 L19.627193,5.65795898 L19.627193,0.109863281 Z M17.3245614,0.109863281 L18.2291667,0.109863281 L18.2291667,5.65795898 L17.3245614,5.65795898 L17.3245614,0.109863281 Z M5.04385965,2.30712891 L5.04385965,3.2409668 L0.109649123,3.2409668 L0.109649123,2.33459473 L5.04385965,2.30712891 Z M15.816886,2.30712891 L15.816886,3.2409668 L10.8826754,3.2409668 L10.8826754,2.33459473 L15.816886,2.30712891 Z" id="Shape" fill="#FFFFFF" fill-rule="nonzero"></path>
                            <polygon id="Path" fill="#FFFFFF" points="10.9100877 2.55432129 11.7872807 2.55432129 11.7872807 5.65795898 10.8826754 5.65795898"></polygon>
                            <polygon id="Path" fill="#FFFFFF" points="10.9100877 2.55432129 11.7872807 2.55432129 11.7872807 5.65795898 10.8826754 5.65795898"></polygon>
                            <path d="M10.9100877,2.55432129 L11.7872807,2.55432129 L11.7872807,5.65795898 L10.8826754,5.65795898 L10.9100877,2.55432129 Z M0.137061404,2.55432129 L1.04166667,2.55432129 L1.04166667,5.65795898 L0.137061404,5.65795898 L0.137061404,2.55432129 Z M8.03179825,2.55432129 L8.96381579,2.55432129 L8.96381579,5.65795898 L8.03179825,5.65795898 L8.03179825,2.55432129 Z M4.11184211,2.55432129 L5.04385965,2.55432129 L5.04385965,5.65795898 L4.11184211,5.65795898 L4.11184211,2.55432129 Z" id="Shape" fill="#FFFFFF" fill-rule="nonzero"></path>
                            <path d="M8.6622807,4.72412109 L8.6622807,5.65795898 L4.52302632,5.65795898 L4.52302632,4.72412109 L8.6622807,4.72412109 Z M8.93640351,2.33459473 L8.93640351,3.2409668 L6.30482456,3.2409668 L6.30482456,2.33459473 L8.93640351,2.33459473 Z" id="Shape" fill="#FFFFFF" fill-rule="nonzero"></path>
                        </g>
                        <g id="Group" stroke-width="1" fill="none" fill-rule="evenodd" transform="translate(24.396930, 39.276123)">
                            <path d="M0.219298246,0.109863281 L13.6513158,0.109863281 L13.6513158,1.04370117 L0.219298246,1.04370117 L0.219298246,0.109863281 Z M2.22039474,4.77905273 L3.15241228,4.77905273 L3.15241228,5.65795898 L2.19298246,5.65795898 L2.22039474,4.77905273 Z M13.7061404,4.72412109 L13.7061404,5.65795898 L11.0197368,5.65795898 L11.0197368,4.72412109 L13.7061404,4.72412109 Z M15.1315789,0.109863281 L16.0635965,0.109863281 L16.0635965,5.65795898 L15.1315789,5.65795898 L15.1315789,0.109863281 Z" id="Shape" fill="#FFFFFF" fill-rule="nonzero"></path>
                            <path d="M20.504386,4.72412109 L20.504386,5.65795898 L15.4057018,5.65795898 L15.4057018,4.72412109 L20.504386,4.72412109 Z M11.0197368,2.55432129 L11.9243421,2.55432129 L11.9243421,5.65795898 L11.0197368,5.65795898 L11.0197368,2.55432129 Z" id="Shape" fill="#FFFFFF" fill-rule="nonzero"></path>
                            <path d="M19.7368421,0.109863281 L20.6688596,0.109863281 L20.6688596,5.65795898 L19.7368421,5.65795898 L19.7368421,0.109863281 Z M17.4342105,0.109863281 L18.3388158,0.109863281 L18.3388158,5.65795898 L17.4342105,5.65795898 L17.4342105,0.109863281 Z M5.15350877,2.30712891 L5.15350877,3.2409668 L0.219298246,3.2409668 L0.219298246,2.33459473 L5.15350877,2.30712891 Z M15.9265351,2.30712891 L15.9265351,3.2409668 L10.9923246,3.2409668 L10.9923246,2.33459473 L15.9265351,2.30712891 Z" id="Shape" fill="#FFFFFF" fill-rule="nonzero"></path>
                            <polygon id="Path" fill="#FFFFFF" points="11.0197368 2.55432129 11.9243421 2.55432129 11.9243421 5.65795898 11.0197368 5.65795898"></polygon>
                            <polygon id="Path" fill="#FFFFFF" points="11.0197368 2.55432129 11.9243421 2.55432129 11.9243421 5.65795898 11.0197368 5.65795898"></polygon>
                            <path d="M11.0197368,2.55432129 L11.9243421,2.55432129 L11.9243421,5.65795898 L11.0197368,5.65795898 L11.0197368,2.55432129 Z M0.246710526,2.55432129 L1.15131579,2.55432129 L1.15131579,5.65795898 L0.246710526,5.65795898 L0.246710526,2.55432129 Z M8.14144737,2.55432129 L9.04605263,2.55432129 L9.04605263,5.65795898 L8.14144737,5.65795898 L8.14144737,2.55432129 Z M4.22149123,2.55432129 L5.15350877,2.55432129 L5.15350877,5.65795898 L4.22149123,5.65795898 L4.22149123,2.55432129 Z" id="Shape" fill="#FFFFFF" fill-rule="nonzero"></path>
                            <path d="M8.77192982,4.72412109 L8.77192982,5.65795898 L4.66008772,5.65795898 L4.66008772,4.72412109 L8.77192982,4.72412109 Z M9.04605263,2.33459473 L9.04605263,3.2409668 L6.41447368,3.2409668 L6.41447368,2.33459473 L9.04605263,2.33459473 Z" id="Shape" fill="#FFFFFF" fill-rule="nonzero"></path>
                        </g>
                        <g id="Group" stroke-width="1" fill="none" fill-rule="evenodd" transform="translate(68.530702, 39.276123)">
                            <path d="M0.0822368421,0.109863281 L13.5142544,0.109863281 L13.5142544,1.04370117 L0.0822368421,1.04370117 L0.0822368421,0.109863281 Z M2.08333333,4.77905273 L3.01535088,4.77905273 L3.01535088,5.65795898 L2.08333333,5.65795898 L2.08333333,4.77905273 Z M13.5690789,4.72412109 L13.5690789,5.65795898 L10.8826754,5.65795898 L10.8826754,4.72412109 L13.5690789,4.72412109 Z M15.0219298,0.109863281 L15.9539474,0.109863281 L15.9539474,5.65795898 L15.0219298,5.65795898 L15.0219298,0.109863281 Z" id="Shape" fill="#FFFFFF" fill-rule="nonzero"></path>
                            <path d="M20.3673246,4.72412109 L20.3673246,5.65795898 L15.2686404,5.65795898 L15.2686404,4.72412109 L20.3673246,4.72412109 Z M10.8826754,2.55432129 L11.814693,2.55432129 L11.814693,5.65795898 L10.8826754,5.65795898 L10.8826754,2.55432129 Z" id="Shape" fill="#FFFFFF" fill-rule="nonzero"></path>
                            <path d="M19.5997807,0.109863281 L20.5317982,0.109863281 L20.5317982,5.65795898 L19.5997807,5.65795898 L19.5997807,0.109863281 Z M17.2971491,0.109863281 L18.2291667,0.109863281 L18.2291667,5.65795898 L17.2697368,5.65795898 L17.2971491,0.109863281 Z M5.01644737,2.30712891 L5.01644737,3.2409668 L0.0822368421,3.2409668 L0.0822368421,2.33459473 L5.01644737,2.30712891 Z M15.7894737,2.30712891 L15.7894737,3.2409668 L10.8552632,3.2409668 L10.8552632,2.33459473 L15.7894737,2.30712891 Z" id="Shape" fill="#FFFFFF" fill-rule="nonzero"></path>
                            <polygon id="Path" fill="#FFFFFF" points="10.8826754 2.55432129 11.814693 2.55432129 11.814693 5.65795898 10.8826754 5.65795898"></polygon>
                            <polygon id="Path" fill="#FFFFFF" points="10.8826754 2.55432129 11.814693 2.55432129 11.814693 5.65795898 10.8826754 5.65795898"></polygon>
                            <path d="M10.8826754,2.55432129 L11.814693,2.55432129 L11.814693,5.65795898 L10.8826754,5.65795898 L10.8826754,2.55432129 Z M0.109649123,2.55432129 L1.04166667,2.55432129 L1.04166667,5.65795898 L0.109649123,5.65795898 L0.109649123,2.55432129 Z M8.00438596,2.55432129 L8.93640351,2.55432129 L8.93640351,5.65795898 L8.00438596,5.65795898 L8.00438596,2.55432129 Z M4.08442982,2.55432129 L5.01644737,2.55432129 L5.01644737,5.65795898 L4.08442982,5.65795898 L4.08442982,2.55432129 Z" id="Shape" fill="#FFFFFF" fill-rule="nonzero"></path>
                            <path d="M8.6622807,4.72412109 L8.6622807,5.65795898 L4.49561404,5.65795898 L4.49561404,4.72412109 L8.6622807,4.72412109 Z M8.93640351,2.33459473 L8.93640351,3.2409668 L6.30482456,3.2409668 L6.30482456,2.33459473 L8.93640351,2.33459473 Z" id="Shape" fill="#FFFFFF" fill-rule="nonzero"></path>
                        </g>
                        <g id="Group" stroke-width="1" fill="none" fill-rule="evenodd" transform="translate(90.460526, 39.276123)">
                            <path d="M0.191885965,0.109863281 L13.6513158,0.109863281 L13.6513158,1.04370117 L0.219298246,1.04370117 L0.191885965,0.109863281 Z M2.22039474,4.77905273 L3.125,4.77905273 L3.125,5.65795898 L2.22039474,5.65795898 L2.22039474,4.77905273 Z M13.6787281,4.72412109 L13.6787281,5.65795898 L10.9923246,5.65795898 L10.9923246,4.72412109 L13.6787281,4.72412109 Z M15.1315789,0.109863281 L16.0635965,0.109863281 L16.0635965,5.65795898 L15.1315789,5.65795898 L15.1315789,0.109863281 Z" id="Shape" fill="#FFFFFF" fill-rule="nonzero"></path>
                            <path d="M20.504386,4.72412109 L20.504386,5.65795898 L15.4057018,5.65795898 L15.4057018,4.72412109 L20.504386,4.72412109 Z M10.9923246,2.55432129 L11.9243421,2.55432129 L11.9243421,5.65795898 L10.9923246,5.65795898 L10.9923246,2.55432129 Z" id="Shape" fill="#FFFFFF" fill-rule="nonzero"></path>
                            <path d="M19.7368421,0.109863281 L20.6688596,0.109863281 L20.6688596,5.65795898 L19.7368421,5.65795898 L19.7368421,0.109863281 Z M17.4067982,0.109863281 L18.3388158,0.109863281 L18.3388158,5.65795898 L17.4067982,5.65795898 L17.4067982,0.109863281 Z M5.12609649,2.30712891 L5.12609649,3.2409668 L0.219298246,3.2409668 L0.219298246,2.33459473 L5.12609649,2.30712891 Z M15.8991228,2.30712891 L15.8991228,3.2409668 L10.9923246,3.2409668 L10.9923246,2.33459473 L15.8991228,2.30712891 Z" id="Shape" fill="#FFFFFF" fill-rule="nonzero"></path>
                            <polygon id="Path" fill="#FFFFFF" points="10.9923246 2.55432129 11.9243421 2.55432129 11.9243421 5.65795898 10.9923246 5.65795898"></polygon>
                            <polygon id="Path" fill="#FFFFFF" points="10.9923246 2.55432129 11.9243421 2.55432129 11.9243421 5.65795898 10.9923246 5.65795898"></polygon>
                            <path d="M10.9923246,2.55432129 L11.9243421,2.55432129 L11.9243421,5.65795898 L10.9923246,5.65795898 L10.9923246,2.55432129 Z M0.219298246,2.55432129 L1.15131579,2.55432129 L1.15131579,5.65795898 L0.219298246,5.65795898 L0.219298246,2.55432129 Z M8.11403509,2.55432129 L9.04605263,2.55432129 L9.04605263,5.65795898 L8.11403509,5.65795898 L8.11403509,2.55432129 Z M4.22149123,2.55432129 L5.12609649,2.55432129 L5.12609649,5.65795898 L4.22149123,5.65795898 L4.22149123,2.55432129 Z" id="Shape" fill="#FFFFFF" fill-rule="nonzero"></path>
                            <path d="M8.77192982,4.72412109 L8.77192982,5.65795898 L4.63267544,5.65795898 L4.63267544,4.72412109 L8.77192982,4.72412109 Z M9.04605263,2.33459473 L9.04605263,3.2409668 L6.41447368,3.2409668 L6.41447368,2.33459473 L9.04605263,2.33459473 Z" id="Shape" fill="#FFFFFF" fill-rule="nonzero"></path>
                        </g>
                        <g id="Group" stroke-width="1" fill="none" fill-rule="evenodd" transform="translate(112.664474, 39.276123)">
                            <path d="M0.137061404,0.109863281 L13.5690789,0.109863281 L13.5690789,1.04370117 L0.137061404,1.04370117 L0.137061404,0.109863281 Z M2.13815789,4.77905273 L3.07017544,4.77905273 L3.07017544,5.65795898 L2.13815789,5.65795898 L2.13815789,4.77905273 Z M13.6239035,4.72412109 L13.6239035,5.65795898 L10.9375,5.65795898 L10.9375,4.72412109 L13.6239035,4.72412109 Z M15.0767544,0.109863281 L15.9813596,0.109863281 L15.9813596,5.65795898 L15.0767544,5.65795898 L15.0767544,0.109863281 Z" id="Shape" fill="#FFFFFF" fill-rule="nonzero"></path>
                            <path d="M20.4221491,4.72412109 L20.4221491,5.65795898 L15.3234649,5.65795898 L15.3234649,4.72412109 L20.4221491,4.72412109 Z M10.9375,2.55432129 L11.8695175,2.55432129 L11.8695175,5.65795898 L10.9375,5.65795898 L10.9375,2.55432129 Z" id="Shape" fill="#FFFFFF" fill-rule="nonzero"></path>
                            <path d="M19.6546053,0.109863281 L20.5866228,0.109863281 L20.5866228,5.65795898 L19.6546053,5.65795898 L19.6546053,0.109863281 Z M17.3519737,0.109863281 L18.2839912,0.109863281 L18.2839912,5.65795898 L17.3519737,5.65795898 L17.3519737,0.109863281 Z M5.07127193,2.30712891 L5.07127193,3.2409668 L0.137061404,3.2409668 L0.137061404,2.33459473 L5.07127193,2.30712891 Z M15.8442982,2.30712891 L15.8442982,3.2409668 L10.9100877,3.2409668 L10.9100877,2.33459473 L15.8442982,2.30712891 Z" id="Shape" fill="#FFFFFF" fill-rule="nonzero"></path>
                            <polygon id="Path" fill="#FFFFFF" points="10.9375 2.55432129 11.8695175 2.55432129 11.8695175 5.65795898 10.9375 5.65795898"></polygon>
                            <polygon id="Path" fill="#FFFFFF" points="10.9375 2.55432129 11.8695175 2.55432129 11.8695175 5.65795898 10.9375 5.65795898"></polygon>
                            <path d="M10.9375,2.55432129 L11.8695175,2.55432129 L11.8695175,5.65795898 L10.9375,5.65795898 L10.9375,2.55432129 Z M0.164473684,2.55432129 L1.06907895,2.55432129 L1.06907895,5.65795898 L0.164473684,5.65795898 L0.164473684,2.55432129 Z M8.05921053,2.55432129 L8.99122807,2.55432129 L8.99122807,5.65795898 L8.05921053,5.65795898 L8.05921053,2.55432129 Z M4.13925439,2.55432129 L5.07127193,2.55432129 L5.07127193,5.65795898 L4.11184211,5.65795898 L4.13925439,2.55432129 Z" id="Shape" fill="#FFFFFF" fill-rule="nonzero"></path>
                            <path d="M8.71710526,4.72412109 L8.71710526,5.65795898 L4.5504386,5.65795898 L4.5504386,4.72412109 L8.71710526,4.72412109 Z M8.99122807,2.33459473 L8.99122807,3.2409668 L6.30482456,3.2409668 L6.30482456,2.33459473 L8.99122807,2.33459473 Z" id="Shape" fill="#FFFFFF" fill-rule="nonzero"></path>
                        </g>
                        <g id="Group" stroke-width="1" fill="none" fill-rule="evenodd" transform="translate(134.868421, 39.276123)">
                            <path d="M0.191885965,0.109863281 L13.6239035,0.109863281 L13.6239035,1.04370117 L0.191885965,1.04370117 L0.191885965,0.109863281 Z M2.19298246,4.77905273 L3.125,4.77905273 L3.125,5.65795898 L2.19298246,5.65795898 L2.19298246,4.77905273 Z M13.6787281,4.72412109 L13.6787281,5.65795898 L10.9649123,5.65795898 L10.9649123,4.72412109 L13.6787281,4.72412109 Z M15.1315789,0.109863281 L16.0361842,0.109863281 L16.0361842,5.65795898 L15.1315789,5.65795898 L15.1315789,0.109863281 Z" id="Shape" fill="#FFFFFF" fill-rule="nonzero"></path>
                            <path d="M20.4769737,4.72412109 L20.4769737,5.65795898 L15.3782895,5.65795898 L15.3782895,4.72412109 L20.4769737,4.72412109 Z M10.9923246,2.55432129 L11.9243421,2.55432129 L11.9243421,5.65795898 L10.9649123,5.65795898 L10.9923246,2.55432129 Z" id="Shape" fill="#FFFFFF" fill-rule="nonzero"></path>
                            <path d="M19.7368421,0.109863281 L20.6414474,0.109863281 L20.6414474,5.65795898 L19.7368421,5.65795898 L19.7368421,0.109863281 Z M17.4067982,0.109863281 L18.3388158,0.109863281 L18.3388158,5.65795898 L17.4067982,5.65795898 L17.4067982,0.109863281 Z M5.12609649,2.30712891 L5.12609649,3.2409668 L0.191885965,3.2409668 L0.191885965,2.33459473 L5.12609649,2.30712891 Z M15.8991228,2.30712891 L15.8991228,3.2409668 L10.9649123,3.2409668 L10.9649123,2.33459473 L15.8991228,2.30712891 Z" id="Shape" fill="#FFFFFF" fill-rule="nonzero"></path>
                            <polygon id="Path" fill="#FFFFFF" points="10.9649123 2.55432129 11.9243421 2.55432129 11.9243421 5.65795898 10.9649123 5.65795898"></polygon>
                            <polygon id="Path" fill="#FFFFFF" points="10.9649123 2.55432129 11.9243421 2.55432129 11.9243421 5.65795898 10.9649123 5.65795898"></polygon>
                            <path d="M10.9649123,2.55432129 L11.9243421,2.55432129 L11.9243421,5.65795898 L10.9649123,5.65795898 L10.9649123,2.55432129 Z M0.219298246,2.55432129 L1.15131579,2.55432129 L1.15131579,5.65795898 L0.219298246,5.65795898 L0.219298246,2.55432129 Z M8.11403509,2.55432129 L9.04605263,2.55432129 L9.04605263,5.65795898 L8.11403509,5.65795898 L8.11403509,2.55432129 Z M4.19407895,2.55432129 L5.12609649,2.55432129 L5.12609649,5.65795898 L4.19407895,5.65795898 L4.19407895,2.55432129 Z" id="Shape" fill="#FFFFFF" fill-rule="nonzero"></path>
                            <path d="M8.77192982,4.72412109 L8.77192982,5.65795898 L4.60526316,5.65795898 L4.60526316,4.72412109 L8.77192982,4.72412109 Z M9.04605263,2.33459473 L9.04605263,3.2409668 L6.41447368,3.2409668 L6.41447368,2.33459473 L9.04605263,2.33459473 Z" id="Shape" fill="#FFFFFF" fill-rule="nonzero"></path>
                        </g>
                        <g id="Group" stroke-width="1" fill="none" fill-rule="evenodd" transform="translate(157.072368, 39.276123)">
                            <path d="M0.109649123,0.109863281 L13.5416667,0.109863281 L13.5416667,1.04370117 L0.109649123,1.04370117 L0.109649123,0.109863281 Z M2.11074561,4.77905273 L3.04276316,4.77905273 L3.04276316,5.65795898 L2.11074561,5.65795898 L2.11074561,4.77905273 Z M13.6239035,4.72412109 L13.6239035,5.65795898 L10.9100877,5.65795898 L10.9100877,4.72412109 L13.6239035,4.72412109 Z M15.0493421,0.109863281 L15.9813596,0.109863281 L15.9813596,5.65795898 L15.0493421,5.65795898 L15.0493421,0.109863281 Z" id="Shape" fill="#FFFFFF" fill-rule="nonzero"></path>
                            <path d="M20.3947368,4.72412109 L20.3947368,5.65795898 L15.2960526,5.65795898 L15.2960526,4.72412109 L20.3947368,4.72412109 Z M10.9100877,2.55432129 L11.8421053,2.55432129 L11.8421053,5.65795898 L10.9100877,5.65795898 L10.9100877,2.55432129 Z" id="Shape" fill="#FFFFFF" fill-rule="nonzero"></path>
                            <path d="M19.6546053,0.109863281 L20.5592105,0.109863281 L20.5592105,5.65795898 L19.6546053,5.65795898 L19.6546053,0.109863281 Z M17.3245614,0.109863281 L18.2565789,0.109863281 L18.2565789,5.65795898 L17.3245614,5.65795898 L17.3245614,0.109863281 Z M5.04385965,2.30712891 L5.04385965,3.2409668 L0.137061404,3.2409668 L0.137061404,2.33459473 L5.04385965,2.30712891 Z M15.816886,2.30712891 L15.816886,3.2409668 L10.9100877,3.2409668 L10.9100877,2.33459473 L15.816886,2.30712891 Z" id="Shape" fill="#FFFFFF" fill-rule="nonzero"></path>
                            <polygon id="Path" fill="#FFFFFF" points="10.9100877 2.55432129 11.8421053 2.55432129 11.8421053 5.65795898 10.9100877 5.65795898"></polygon>
                            <polygon id="Path" fill="#FFFFFF" points="10.9100877 2.55432129 11.8421053 2.55432129 11.8421053 5.65795898 10.9100877 5.65795898"></polygon>
                            <path d="M10.9100877,2.55432129 L11.8421053,2.55432129 L11.8421053,5.65795898 L10.9100877,5.65795898 L10.9100877,2.55432129 Z M0.137061404,2.55432129 L1.06907895,2.55432129 L1.06907895,5.65795898 L0.137061404,5.65795898 L0.137061404,2.55432129 Z M8.03179825,2.55432129 L8.96381579,2.55432129 L8.96381579,5.65795898 L8.03179825,5.65795898 L8.03179825,2.55432129 Z M4.11184211,2.55432129 L5.04385965,2.55432129 L5.04385965,5.65795898 L4.13925439,5.65795898 L4.11184211,2.55432129 Z" id="Shape" fill="#FFFFFF" fill-rule="nonzero"></path>
                            <path d="M8.68969298,4.72412109 L8.68969298,5.65795898 L4.5504386,5.65795898 L4.5504386,4.72412109 L8.68969298,4.72412109 Z M8.96381579,2.33459473 L8.96381579,3.2409668 L6.30482456,3.2409668 L6.30482456,2.33459473 L8.96381579,2.33459473 Z" id="Shape" fill="#FFFFFF" fill-rule="nonzero"></path>
                        </g>
                        <g id="Group" stroke-width="1" fill="none" fill-rule="evenodd" transform="translate(179.276316, 39.276123)">
                            <path d="M0.0548245614,0.109863281 L13.4868421,0.109863281 L13.4868421,1.04370117 L0.0548245614,1.04370117 L0.0548245614,0.109863281 Z M2.05592105,4.77905273 L2.9879386,4.77905273 L2.9879386,5.65795898 L2.05592105,5.65795898 L2.05592105,4.77905273 Z M13.5416667,4.72412109 L13.5416667,5.65795898 L10.8552632,5.65795898 L10.8552632,4.72412109 L13.5416667,4.72412109 Z M14.9671053,0.109863281 L15.8991228,0.109863281 L15.8991228,5.65795898 L14.9671053,5.65795898 L14.9671053,0.109863281 Z" id="Shape" fill="#FFFFFF" fill-rule="nonzero"></path>
                            <path d="M20.3399123,4.72412109 L20.3399123,5.65795898 L15.2412281,5.65795898 L15.2412281,4.72412109 L20.3399123,4.72412109 Z M10.8278509,2.55432129 L11.7598684,2.55432129 L11.7598684,5.65795898 L10.8278509,5.65795898 L10.8278509,2.55432129 Z" id="Shape" fill="#FFFFFF" fill-rule="nonzero"></path>
                            <path d="M19.5723684,0.109863281 L20.504386,0.109863281 L20.504386,5.65795898 L19.5723684,5.65795898 L19.5723684,0.109863281 Z M17.2697368,0.109863281 L18.1743421,0.109863281 L18.1743421,5.65795898 L17.2697368,5.65795898 L17.2697368,0.109863281 Z M4.98903509,2.30712891 L4.98903509,3.2409668 L0.0548245614,3.2409668 L0.0548245614,2.33459473 L4.98903509,2.30712891 Z M15.7620614,2.30712891 L15.7620614,3.2409668 L10.8278509,3.2409668 L10.8278509,2.33459473 L15.7620614,2.30712891 Z" id="Shape" fill="#FFFFFF" fill-rule="nonzero"></path>
                            <polygon id="Path" fill="#FFFFFF" points="10.8552632 2.55432129 11.7598684 2.55432129 11.7598684 5.65795898 10.8552632 5.65795898"></polygon>
                            <polygon id="Path" fill="#FFFFFF" points="10.8552632 2.55432129 11.7598684 2.55432129 11.7598684 5.65795898 10.8552632 5.65795898"></polygon>
                            <path d="M10.8552632,2.55432129 L11.7598684,2.55432129 L11.7598684,5.65795898 L10.8552632,5.65795898 L10.8552632,2.55432129 Z M0.0548245614,2.55432129 L0.986842105,2.55432129 L0.986842105,5.65795898 L0.0548245614,5.65795898 L0.0548245614,2.55432129 Z M7.97697368,2.55432129 L8.88157895,2.55432129 L8.88157895,5.65795898 L7.97697368,5.65795898 L7.97697368,2.55432129 Z M4.05701754,2.55432129 L4.98903509,2.55432129 L4.98903509,5.65795898 L4.05701754,5.65795898 L4.05701754,2.55432129 Z" id="Shape" fill="#FFFFFF" fill-rule="nonzero"></path>
                            <path d="M8.60745614,4.72412109 L8.60745614,5.65795898 L4.46820175,5.65795898 L4.46820175,4.72412109 L8.60745614,4.72412109 Z M8.88157895,2.33459473 L8.88157895,3.2409668 L6.25,3.2409668 L6.25,2.33459473 L8.88157895,2.33459473 Z" id="Shape" fill="#FFFFFF" fill-rule="nonzero"></path>
                        </g>
                        <g id="Group" stroke-width="1" fill="none" fill-rule="evenodd" transform="translate(201.480263, 39.276123)">
                            <path d="M0.109649123,0.109863281 L13.5416667,0.109863281 L13.5416667,1.04370117 L0.109649123,1.04370117 L0.109649123,0.109863281 Z M2.11074561,4.77905273 L3.04276316,4.77905273 L3.04276316,5.65795898 L2.11074561,5.65795898 L2.11074561,4.77905273 Z M13.5964912,4.72412109 L13.5964912,5.65795898 L10.9100877,5.65795898 L10.9100877,4.72412109 L13.5964912,4.72412109 Z M15.0219298,0.109863281 L15.9539474,0.109863281 L15.9539474,5.65795898 L15.0219298,5.65795898 L15.0219298,0.109863281 Z" id="Shape" fill="#FFFFFF" fill-rule="nonzero"></path>
                            <path d="M20.3947368,4.72412109 L20.3947368,5.65795898 L15.2960526,5.65795898 L15.2960526,4.72412109 L20.3947368,4.72412109 Z M10.9100877,2.55432129 L11.814693,2.55432129 L11.814693,5.65795898 L10.9100877,5.65795898 L10.9100877,2.55432129 Z" id="Shape" fill="#FFFFFF" fill-rule="nonzero"></path>
                            <path d="M19.627193,0.109863281 L20.5592105,0.109863281 L20.5592105,5.65795898 L19.627193,5.65795898 L19.627193,0.109863281 Z M17.3245614,0.109863281 L18.2291667,0.109863281 L18.2291667,5.65795898 L17.3245614,5.65795898 L17.3245614,0.109863281 Z M5.04385965,2.30712891 L5.04385965,3.2409668 L0.109649123,3.2409668 L0.109649123,2.33459473 L5.04385965,2.30712891 Z M15.816886,2.30712891 L15.816886,3.2409668 L10.8826754,3.2409668 L10.8826754,2.33459473 L15.816886,2.30712891 Z" id="Shape" fill="#FFFFFF" fill-rule="nonzero"></path>
                            <polygon id="Path" fill="#FFFFFF" points="10.9100877 2.55432129 11.814693 2.55432129 11.814693 5.65795898 10.9100877 5.65795898"></polygon>
                            <polygon id="Path" fill="#FFFFFF" points="10.9100877 2.55432129 11.814693 2.55432129 11.814693 5.65795898 10.9100877 5.65795898"></polygon>
                            <path d="M10.9100877,2.55432129 L11.814693,2.55432129 L11.814693,5.65795898 L10.9100877,5.65795898 L10.9100877,2.55432129 Z M0.137061404,2.55432129 L1.04166667,2.55432129 L1.04166667,5.65795898 L0.137061404,5.65795898 L0.137061404,2.55432129 Z M8.03179825,2.55432129 L8.96381579,2.55432129 L8.96381579,5.65795898 L8.03179825,5.65795898 L8.03179825,2.55432129 Z M4.11184211,2.55432129 L5.04385965,2.55432129 L5.04385965,5.65795898 L4.11184211,5.65795898 L4.11184211,2.55432129 Z" id="Shape" fill="#FFFFFF" fill-rule="nonzero"></path>
                            <path d="M8.6622807,4.72412109 L8.6622807,5.65795898 L4.52302632,5.65795898 L4.52302632,4.72412109 L8.6622807,4.72412109 Z M8.93640351,2.33459473 L8.93640351,3.2409668 L6.30482456,3.2409668 L6.30482456,2.33459473 L8.93640351,2.33459473 Z" id="Shape" fill="#FFFFFF" fill-rule="nonzero"></path>
                        </g>
                        <path d="M33.7719298,93.24646 L35.4166667,93.24646 L35.4166667,96.1303711 L33.7719298,96.1303711 L33.7719298,93.24646 Z M77.7686404,93.24646 L79.4133772,93.24646 L79.4133772,96.1303711 L77.7686404,96.1303711 L77.7686404,93.24646 Z M0,93.24646 L1.64473684,93.24646 L1.64473684,96.1303711 L0,96.1303711 L0,93.24646 Z M22.3410088,93.24646 L23.9857456,93.24646 L23.9857456,96.1303711 L22.3410088,96.1303711 L22.3410088,93.24646 Z M44.5175439,93.24646 L46.1622807,93.24646 L46.1622807,96.1303711 L44.5175439,96.1303711 L44.5175439,93.24646 Z M55.4824561,93.24646 L57.127193,93.24646 L57.127193,96.1303711 L55.4824561,96.1303711 L55.4824561,93.24646 Z M66.6940789,93.24646 L68.3388158,93.24646 L68.3388158,96.1303711 L66.6940789,96.1303711 L66.6940789,93.24646 Z M88.7335526,93.24646 L90.3782895,93.24646 L90.3782895,96.1303711 L88.7335526,96.1303711 L88.7335526,93.24646 Z M144.380482,93.24646 L146.052632,93.24646 L146.052632,96.1303711 L144.407895,96.1303711 L144.380482,93.24646 Z M99.9451754,93.24646 L101.589912,93.24646 L101.589912,96.1303711 L99.9451754,96.1303711 L99.9451754,93.24646 Z M110.910088,93.24646 L112.554825,93.24646 L112.554825,96.1303711 L110.910088,96.1303711 L110.910088,93.24646 Z M122.012061,93.24646 L123.656798,93.24646 L123.656798,96.1303711 L122.012061,96.1303711 L122.012061,93.24646 Z M133.086623,93.24646 L134.73136,93.24646 L134.73136,96.1303711 L133.086623,96.1303711 L133.086623,93.24646 Z M221.683114,93.24646 L223.327851,93.24646 L223.327851,96.1303711 L221.683114,96.1303711 L221.683114,93.24646 Z M155.153509,93.24646 L156.798246,93.24646 L156.798246,96.1303711 L155.153509,96.1303711 L155.153509,93.24646 Z M166.337719,93.24646 L167.982456,93.24646 L167.982456,96.1303711 L166.337719,96.1303711 L166.337719,93.24646 Z M177.658991,93.24646 L179.303728,93.24646 L179.303728,96.1303711 L177.658991,96.1303711 L177.658991,93.24646 Z M188.294956,93.24646 L189.939693,93.24646 L189.939693,96.1303711 L188.294956,96.1303711 L188.294956,93.24646 Z M199.616228,93.24646 L201.260965,93.24646 L201.260965,96.1303711 L199.616228,96.1303711 L199.616228,93.24646 Z M210.690789,93.24646 L212.335526,93.24646 L212.335526,96.1303711 L210.690789,96.1303711 L210.690789,93.24646 Z M243.503289,93.24646 L245.148026,93.24646 L245.148026,96.1303711 L243.503289,96.1303711 L243.503289,93.24646 Z M232.867325,93.24646 L234.512061,93.24646 L234.512061,96.1303711 L232.867325,96.1303711 L232.867325,93.24646 Z M11.129386,93.24646 L12.7741228,93.24646 L12.7741228,96.1303711 L11.129386,96.1303711 L11.129386,93.24646 Z" id="Shape" fill="#D90000" fill-rule="nonzero"></path>
                        <path d="M33.7719298,44.6594238 L35.4166667,44.6594238 L35.4166667,47.543335 L33.7719298,47.543335 L33.7719298,44.6594238 Z M77.7686404,44.6594238 L79.4133772,44.6594238 L79.4133772,47.543335 L77.7686404,47.543335 L77.7686404,44.6594238 Z M0,44.6594238 L1.64473684,44.6594238 L1.64473684,47.543335 L0,47.543335 L0,44.6594238 Z M22.3410088,44.6594238 L23.9857456,44.6594238 L23.9857456,47.543335 L22.3410088,47.543335 L22.3410088,44.6594238 Z M44.5175439,44.6594238 L46.1622807,44.6594238 L46.1622807,47.543335 L44.5175439,47.543335 L44.5175439,44.6594238 Z M55.4824561,44.6594238 L57.127193,44.6594238 L57.127193,47.543335 L55.4824561,47.543335 L55.4824561,44.6594238 Z M66.6940789,44.6594238 L68.3388158,44.6594238 L68.3388158,47.543335 L66.6940789,47.543335 L66.6940789,44.6594238 Z M88.7335526,44.6594238 L90.3782895,44.6594238 L90.3782895,47.543335 L88.7335526,47.543335 L88.7335526,44.6594238 Z M144.380482,44.6594238 L146.052632,44.6594238 L146.052632,47.543335 L144.407895,47.543335 L144.380482,44.6594238 Z M99.9451754,44.6594238 L101.589912,44.6594238 L101.589912,47.543335 L99.9451754,47.543335 L99.9451754,44.6594238 Z M110.910088,44.6594238 L112.554825,44.6594238 L112.554825,47.543335 L110.910088,47.543335 L110.910088,44.6594238 Z M122.012061,44.6594238 L123.656798,44.6594238 L123.656798,47.543335 L122.012061,47.543335 L122.012061,44.6594238 Z M133.086623,44.6594238 L134.73136,44.6594238 L134.73136,47.543335 L133.086623,47.543335 L133.086623,44.6594238 Z M221.683114,44.6594238 L223.327851,44.6594238 L223.327851,47.543335 L221.683114,47.543335 L221.683114,44.6594238 Z M155.153509,44.6594238 L156.798246,44.6594238 L156.798246,47.543335 L155.153509,47.543335 L155.153509,44.6594238 Z M166.337719,44.6594238 L167.982456,44.6594238 L167.982456,47.543335 L166.337719,47.543335 L166.337719,44.6594238 Z M177.658991,44.6594238 L179.303728,44.6594238 L179.303728,47.543335 L177.658991,47.543335 L177.658991,44.6594238 Z M188.294956,44.6594238 L189.939693,44.6594238 L189.939693,47.543335 L188.294956,47.543335 L188.294956,44.6594238 Z M199.616228,44.6594238 L201.260965,44.6594238 L201.260965,47.543335 L199.616228,47.543335 L199.616228,44.6594238 Z M210.690789,44.6594238 L212.335526,44.6594238 L212.335526,47.543335 L210.690789,47.543335 L210.690789,44.6594238 Z M243.503289,44.6594238 L245.148026,44.6594238 L245.148026,47.543335 L243.503289,47.543335 L243.503289,44.6594238 Z M232.867325,44.6594238 L234.512061,44.6594238 L234.512061,47.543335 L232.867325,47.543335 L232.867325,44.6594238 Z M11.129386,44.6594238 L12.7741228,44.6594238 L12.7741228,47.543335 L11.129386,47.543335 L11.129386,44.6594238 Z" id="Shape" fill="#239E3F" fill-rule="nonzero"></path>
                        <g id="Group" stroke-width="1" fill="none" fill-rule="evenodd" transform="translate(101.699561, 49.438477)">
                            <path d="M27.6315789,4.80651855 C29.9342105,7.66296387 37.0888158,23.3734131 23.3278509,33.7005615 C16.8311404,38.5894775 20.8607456,38.8092041 21.0526316,39.6331787 C31.4692982,34.1125488 34.8410088,26.5869141 34.7587719,19.8577881 C34.7039474,13.1561279 31.1403509,7.22351074 27.6315789,4.80651855 Z" id="Path" fill="#DA0000"></path>
                            <path d="M29.002193,4.06494141 C34.1524846,7.20493472 37.6234428,12.4960887 38.4574499,18.4786041 C39.2914571,24.4611196 37.4003671,30.5027057 33.3059211,34.9365234 C40.7620614,33.2885742 50.3015351,11.2060547 29.002193,4.06494141 Z M13.2127193,4.06494141 C8.06652383,7.20965812 4.60122222,12.5031047 3.77257028,18.4853094 C2.94391833,24.4675142 4.83946463,30.5064462 8.93640351,34.9365234 C1.45285088,33.2885742 -8.05921053,11.2060547 13.2127193,4.06494141 Z" id="Shape" fill="#DA0000" fill-rule="nonzero"></path>
                            <path d="M14.5833333,4.80651855 C12.2807018,7.66296387 5.12609649,23.3734131 18.8870614,33.7005615 C25.3563596,38.5894775 21.3541667,38.8092041 21.1622807,39.6331787 C10.745614,34.1125488 7.37390351,26.5869141 7.45614035,19.8577881 C7.51096491,13.1561279 11.0745614,7.22351074 14.5833333,4.80651855 Z" id="Path" fill="#DA0000"></path>
                            <path d="M34.3201754,38.2049561 C30.2357456,38.2598877 25.1096491,37.6556396 21.2993421,35.6506348 C21.9298246,36.8865967 22.4506579,37.6556396 23.0811404,38.8641357 C26.6995614,39.2211914 31.7160088,39.6331787 34.3201754,38.2049561 Z M8.27850877,38.2049561 C12.3629386,38.2598877 17.4890351,37.6556396 21.2993421,35.6506348 C20.6688596,36.8865967 20.1480263,37.6556396 19.5175439,38.8641357 C15.8991228,39.2211914 10.8826754,39.6331787 8.27850877,38.2049561 Z M15.7620614,0.109863281 C16.5844298,2.30712891 18.75,2.63671875 21.0526316,1.3458252 C22.752193,2.33459473 25.3563596,2.41699219 26.2609649,0.219726563 C26.9462719,5.65795898 21.2445175,4.33959961 21.0526316,3.29589844 C18.9144737,5.35583496 14.9671053,4.17480469 15.7620614,0.109863281 Z" id="Shape" fill="#DA0000" fill-rule="nonzero"></path>
                            <polygon id="Path" fill="#DA0000" points="21.2171053 41.6381836 23.3552632 39.1662598 23.6567982 6.17980957 21.1074561 3.9276123 18.558114 6.06994629 19.0789474 39.3035889"></polygon>
                        </g>
                    </g>
                </g>
            </g>
        </g>
    </g>
</svg>