<?xml version="1.0" encoding="UTF-8"?>
<svg width="200px" height="141px" viewBox="0 0 200 141" version="1.1" xmlns="http://www.w3.org/2000/svg" xmlns:xlink="http://www.w3.org/1999/xlink">
    <!-- Generator: Sketch 52.5 (67469) - http://www.bohemiancoding.com/sketch -->
    <title>ki</title>
    <desc>Created with Sketch.</desc>
    <defs>
        <polygon id="path-1" points="0.204678363 0 199.795322 0 199.795322 149.707602 0.204678363 149.707602"></polygon>
    </defs>
    <g id="Flags" stroke="none" stroke-width="1" fill="none" fill-rule="evenodd">
        <g id="Oceania" transform="translate(-70.000000, -250.000000)">
            <g id="ki" transform="translate(70.000000, 250.000000)">
                <mask id="mask-2" fill="white">
                    <use xlink:href="#path-1"></use>
                </mask>
                <g id="Path"></g>
                <g id="Group" mask="url(#mask-2)">
                    <g transform="translate(-15.000000, 0.000000)">
                        <polygon id="Path" stroke="none" fill="#E73E2D" fill-rule="evenodd" points="0.466008772 0 229.577851 0 229.577851 84.0186404 0.466008772 84.0186404"></polygon>
                        <path d="M101.507675,77.3300439 C96.189693,73.1633772 86.2664474,74.5888158 84.6217105,63.2675439 C92.2149123,69.1611842 90.8442982,62.9385965 102.16557,68.558114 L101.507675,77.3300439 Z" id="Path" stroke="#D8AA3F" stroke-width="1.59375" fill="#FEC74A" fill-rule="evenodd"></path>
                        <path d="M102.933114,72.2039474 C99.122807,66.6118421 89.2269737,64.9122807 91.1458333,53.6458333 C96.6008772,61.5679825 97.1765351,55.2083333 106.277412,64.0350877 L102.933114,72.2039474 Z" id="Path" stroke="#D8AA3F" stroke-width="1.59375" fill="#FEC74A" fill-rule="evenodd"></path>
                        <path d="M104.660088,68.5307018 C103.289474,61.9243421 94.7916667,56.5789474 100.877193,46.875 C102.850877,56.3048246 105.811404,50.6578947 110.855263,62.2807018 L104.660088,68.5307018 Z" id="Path" stroke="#D8AA3F" stroke-width="1.59375" fill="#FEC74A" fill-rule="evenodd"></path>
                        <path d="M108.634868,65.1315789 C109.375,58.4155702 102.933114,50.7127193 111.677632,43.3662281 C110.690789,52.933114 115.241228,48.4923246 116.474781,61.0745614 L108.634868,65.1315789 Z" id="Path" stroke="#D8AA3F" stroke-width="1.59375" fill="#FEC74A" fill-rule="evenodd"></path>
                        <path d="M112.198465,62.4177632 C115.597588,56.5789474 112.883772,46.9298246 123.876096,43.8048246 C119.051535,52.1107456 125.027412,49.9177632 120.997807,61.8969298 L112.198465,62.4177632 Z" id="Path" stroke="#D8AA3F" stroke-width="1.59375" fill="#FEC74A" fill-rule="evenodd"></path>
                        <path d="M117.324561,63.1304825 C122.423246,58.689693 122.916667,48.6567982 134.320175,49.1776316 C127.110746,55.5372807 133.497807,55.3453947 125.822368,65.4605263 L117.324561,63.1304825 Z" id="Path" stroke="#D8AA3F" stroke-width="1.59375" fill="#FEC74A" fill-rule="evenodd"></path>
                        <path d="M121.875,65.7620614 C128.042763,62.9934211 131.441886,53.5635965 142.1875,57.4013158 C133.41557,61.3760965 139.583333,63.0756579 129.303728,70.4769737 L121.875,65.7620614 Z" id="Path" stroke="#D8AA3F" stroke-width="1.59375" fill="#FEC74A" fill-rule="evenodd"></path>
                        <path d="M125.685307,69.9013158 C132.373904,68.9692982 138.294956,60.8552632 147.532895,67.5986842 C138.020833,68.941886 143.421053,72.2861842 131.496711,76.5076754 L125.685307,69.8739035 L125.685307,69.9013158 Z" id="Path" stroke="#D8AA3F" stroke-width="1.59375" fill="#FEC74A" fill-rule="evenodd"></path>
                        <polygon id="Path" stroke="#D8AA3F" stroke-width="1.59375" fill="#FEC74A" fill-rule="evenodd" points="149.533991 71.1622807 118.804825 71.8475877 120.093202 80.1260965"></polygon>
                        <polygon id="Path" stroke="#D8AA3F" stroke-width="1.59375" fill="#FEC74A" fill-rule="evenodd" points="145.010965 59.8684211 116.557018 70.8059211 121.299342 79.9342105 145.010965 59.8684211"></polygon>
                        <polygon id="Path" stroke="#D8AA3F" stroke-width="1.59375" fill="#FEC74A" fill-rule="evenodd" points="122.423246 76.9462719 137.14364 50.191886 114.555921 71.2171053"></polygon>
                        <polygon id="Path" stroke="#D8AA3F" stroke-width="1.59375" fill="#FEC74A" fill-rule="evenodd" points="122.121711 74.7258772 126.836623 44.7368421 112.088816 71.3815789"></polygon>
                        <polygon id="Path" stroke="#D8AA3F" stroke-width="1.59375" fill="#FEC74A" fill-rule="evenodd" points="120.339912 72.2861842 115.405702 42.0778509 109.923246 72.4232456"></polygon>
                        <polygon id="Path" stroke="#D8AA3F" stroke-width="1.59375" fill="#FEC74A" fill-rule="evenodd" points="117.79057 69.7094298 103.453947 44.4901316 108.936404 75.1370614"></polygon>
                        <polygon id="Path" stroke="#D8AA3F" stroke-width="1.59375" fill="#FEC74A" fill-rule="evenodd" points="115.570175 69.5175439 93.3388158 50.7401316 109.128289 77.6041667 115.570175 69.5175439"></polygon>
                        <polygon id="Path" stroke="#D8AA3F" stroke-width="1.59375" fill="#FEC74A" fill-rule="evenodd" points="85.5263158 60.0054825 109.375 79.7149123 113.048246 69.4078947"></polygon>
                        <polygon id="Path" stroke="#D8AA3F" stroke-width="1.59375" fill="#FEC74A" fill-rule="evenodd" points="109.128289 71.5186404 81.0855263 71.1074561 109.01864 80.4276316 109.128289 71.5186404"></polygon>
                        <path d="M131.880482,76.5350877 C132.129646,82.7053335 128.97987,88.5165601 123.673947,91.6758625 C118.368023,94.8351649 111.758073,94.8351649 106.45215,91.6758625 C101.146226,88.5165601 97.996451,82.7053335 98.245614,76.5350877 C98.6100173,67.5110464 106.031652,60.3830586 115.063048,60.3830586 C124.094444,60.3830586 131.516079,67.5110464 131.880482,76.5350877 Z" id="Path" stroke="#D8AA3F" stroke-width="1.59375" fill="#FEC74A" fill-rule="evenodd"></path>
                        <polygon id="Path" stroke="none" fill="#005989" fill-rule="evenodd" points="0.246710526 83.1688596 230.482456 83.1688596 230.482456 140.350877 0.219298246 140.350877"></polygon>
                        <path d="M0.109649123,124.451754 C4.38596491,126.425439 10.5263158,131.387061 17.1052632,131.387061 C28.0701754,131.304825 28.3442982,123.876096 39.4736842,124.232456 C50.6304825,124.506579 48.6019737,132.346491 63.6513158,132.319079 C76.0964912,132.264254 80.0986842,122.807018 90.8442982,123.930921 C98.7938596,123.519737 102.028509,132.894737 114.226974,133.031798 C126.891447,133.305921 131.524123,122.807018 139.446272,123.684211 C147.944079,123.684211 150.685307,132.127193 162.554825,132.182018 C177.686404,132.264254 180.345395,123.410088 189.775219,123.958333 C196.51864,123.821272 201.836623,130.455044 211.705044,130.619518 C219.544956,130.756579 226.151316,124.808114 230.619518,122.669956 L230.811404,112.582237 C226.151316,114.309211 219.188596,120.010965 212.253289,120.065789 C202.220395,120.449561 196.052632,113.486842 189.089912,113.569079 C180.756579,113.651316 177.439693,122.149123 163.322368,122.149123 C150.383772,122.149123 147.423246,113.569079 139.089912,113.569079 C130.948465,113.623904 128.453947,122.889254 114.336623,122.724781 C102.823465,122.587719 98.3552632,113.870614 90.2138158,113.952851 C81.5789474,113.952851 72.6699561,122.423246 63.0756579,122.012061 C49.9177632,121.463816 47.0394737,113.952851 38.4046053,113.952851 C31.9627193,113.952851 24.9725877,120.970395 17.2149123,121.080044 C9.48464912,121.217105 0.79495614,114.089912 -2.66453526e-14,113.952851 L0.109649123,124.451754 Z M0.109649123,104.440789 C4.38596491,106.441886 10.5263158,111.403509 17.1052632,111.403509 C28.0701754,111.321272 28.3442982,103.892544 39.4736842,104.221491 C50.6304825,104.495614 48.6019737,112.362939 63.6513158,112.308114 C76.0964912,112.308114 80.0986842,102.823465 90.8442982,103.947368 C98.7938596,103.536184 102.028509,112.911184 114.226974,113.020833 C126.891447,113.294956 131.524123,102.823465 139.446272,103.700658 C147.944079,103.700658 150.685307,112.14364 162.554825,112.198465 C177.686404,112.280702 180.345395,103.426535 189.775219,103.974781 C196.51864,103.837719 201.836623,110.471491 211.705044,110.635965 C219.544956,110.773026 226.151316,104.824561 230.619518,102.686404 L230.811404,92.5986842 C226.151316,94.3256579 219.188596,100 212.253289,100.082237 C202.220395,100.438596 196.052632,93.5032895 189.089912,93.5855263 C180.756579,93.6677632 177.439693,102.16557 163.322368,102.16557 C150.383772,102.16557 147.423246,93.5855263 139.089912,93.5855263 C130.948465,93.6403509 128.453947,102.905702 114.336623,102.741228 C102.823465,102.604167 98.3552632,93.8870614 90.2138158,93.9692982 C81.5789474,93.9692982 72.6699561,102.412281 63.0756579,102.001096 C49.9177632,101.452851 47.0394737,93.941886 38.4046053,93.941886 C31.9627193,93.941886 24.9725877,100.986842 17.2149123,101.096491 C9.48464912,101.20614 0.79495614,94.1063596 -2.66453526e-14,93.9692982 L0.109649123,104.468202 L0.109649123,104.440789 Z" id="Shape" stroke="none" fill="#FFFFFF" fill-rule="evenodd"></path>
                        <path d="M0.109649123,84.7039474 C4.38596491,86.6776316 10.5263158,91.6118421 17.0778509,91.6118421 C28.0427632,91.5570175 28.316886,84.1008772 39.4462719,84.4572368 C50.5756579,84.7313596 48.5471491,92.5712719 63.5964912,92.5438596 C76.0142544,92.5164474 80.0438596,83.0317982 90.7346491,84.183114 C98.6842105,83.7719298 101.91886,93.1469298 114.117325,93.2565789 C126.754386,93.5307018 131.387061,83.0317982 139.336623,83.9089912 C147.779605,83.9089912 150.575658,92.3519737 162.417763,92.4067982 C177.494518,92.4890351 180.153509,83.6348684 189.610746,84.183114 C196.326754,84.0460526 201.644737,90.6798246 211.485746,90.8442982 C219.35307,90.9813596 225.932018,85.0328947 230.400219,82.8947368 L230.592105,72.8070175 C225.932018,74.5614035 218.996711,80.2357456 212.033991,80.2905702 C202.055921,80.6743421 195.860746,73.7390351 188.898026,73.7938596 C180.592105,73.8760965 177.275219,82.3739035 163.130482,82.3739035 C150.246711,82.3739035 147.286184,73.7938596 138.952851,73.7938596 C130.811404,73.8760965 128.316886,83.1140351 114.254386,82.9495614 C102.741228,82.8125 98.2730263,74.122807 90.1315789,74.1776316 C81.4967105,74.1776316 72.5877193,82.6480263 63.0482456,82.2368421 C49.8629386,81.6885965 47.0120614,74.1776316 38.377193,74.1776316 C31.935307,74.1776316 24.9725877,81.1951754 17.2149123,81.3048246 C9.48464912,81.441886 0.822368421,74.3421053 5.32907052e-14,74.1776316 L0.109649123,84.6765351 L0.109649123,84.7039474 Z" id="Path" stroke="none" fill="#FFFFFF" fill-rule="evenodd"></path>
                        <path d="M83.004386,20.8333333 C99.7258772,19.6820175 96.7105263,18.2565789 103.426535,17.1600877 C111.924342,18.3388158 112.883772,23.4649123 117.626096,26.6173246 C117.626096,26.6173246 115.844298,32.6480263 110.032895,31.7982456 C109.237939,29.3859649 112.828947,28.6184211 102.494518,22.3135965 C96.4638158,21.9572368 85.6907895,23.3826754 83.0317982,20.8333333 L83.004386,20.8333333 Z M134.895833,30.1260965 L122.83443,30.6195175 L122.83443,33.6074561 C130.975877,33.8815789 132.428728,32.7850877 134.895833,30.1260965 Z" id="Shape" stroke="#D8AA3F" stroke-width="1.6875" fill="#FFC84B" fill-rule="evenodd"></path>
                        <path d="M93.4210526,29.6052632 C95.5317982,28.5361842 96.5734649,28.9747807 98.4100877,28.9199561 C99.6436404,31.1951754 100.822368,31.3870614 103.563596,31.6611842 C106.024818,35.3087541 110.101979,37.5363758 114.501096,37.6370614 C122.697368,37.4177632 125.301535,31.6885965 130.811404,31.058114 L136.622807,31.058114 C135.663377,29.4133772 134.895833,28.4539474 132.785088,28.3442982 C128.453947,28.125 122.861842,28.2346491 117.982456,29.3311404 L111.101974,31.058114 C109.073465,30.0712719 104.166667,24.9177632 101.014254,25.0274123 C99.1776316,25.5208333 99.1776316,26.1513158 98.2730263,26.8640351 C96.4912281,27.6315789 94.7094298,27.247807 93.4210526,29.6052632 Z" id="Path" stroke="#D8AA3F" stroke-width="1.59375" fill="#FFC84B" fill-rule="evenodd" stroke-linejoin="round"></path>
                        <path d="M101.726974,27.1381579 C101.788723,27.4833567 101.638945,27.832162 101.346117,28.0251044 C101.053288,28.2180468 100.673685,28.2180468 100.380857,28.0251044 C100.088029,27.832162 99.9382509,27.4833567 100,27.1381579 C100.074814,26.7199197 100.43861,26.4154253 100.863487,26.4154253 C101.288364,26.4154253 101.652159,26.7199197 101.726974,27.1381579 Z" id="Path" stroke="#D8AA3F" stroke-width="1.59375" fill="#FFC84B" fill-rule="evenodd"></path>
                        <path d="M107.346491,29.5504386 C119.654605,14.7203947 130.400219,16.5296053 144.435307,15.5153509 C144.901316,17.2423246 144.70943,19.8190789 138.048246,22.0942982 C128.892544,23.4649123 112.527412,33.1140351 112.445175,33.1140351 C109.402412,32.9495614 107.264254,29.7697368 107.346491,29.5504386 Z" id="Path" stroke="#D8AA3F" stroke-width="1.6875" fill="#FFC84B" fill-rule="evenodd"></path>
                        <path d="M132.648026,19.8739035 L141.721491,20.2850877 M131.661184,21.3815789 L138.267544,21.9298246" id="Shape" stroke="#D9A43E" stroke-width="1.6875" fill="none" stroke-linecap="round"></path>
                    </g>
                </g>
            </g>
        </g>
    </g>
</svg>