<?xml version="1.0" encoding="UTF-8"?>
<svg width="200px" height="150px" viewBox="0 0 200 150" version="1.1" xmlns="http://www.w3.org/2000/svg" xmlns:xlink="http://www.w3.org/1999/xlink">
    <!-- Generator: Sketch 52.5 (67469) - http://www.bohemiancoding.com/sketch -->
    <title>mo</title>
    <desc>Created with Sketch.</desc>
    <g id="Flags" stroke="none" stroke-width="1" fill="none" fill-rule="evenodd">
        <g id="Asia" transform="translate(-510.000000, -1050.000000)">
            <g id="mo" transform="translate(510.000000, 1050.000000)">
                <polygon id="Path" fill="#00785E" points="0 0 200 0 200 150 0 150"></polygon>
                <polygon id="Path" fill="#FBD116" fill-rule="nonzero" points="92.1875 33.96875 104.84375 43.1875 100 28.28125 95.15625 43.1875 107.84375 33.96875"></polygon>
                <g id="a" transform="translate(61.875000, 38.125000)" fill-rule="nonzero">
                    <path d="M38.125,65.5 L6.09375,65.5 C5.69009452,65.0908348 5.29419081,64.6740941 4.90625,64.25 L38.125,64.25 C38.3893894,64.3434614 38.5651797,64.5945903 38.5625,64.875 C38.5625,65.125 38.40625,65.40625 38.125,65.5 Z M38.125,55.71875 C38.4867804,54.9830574 38.6175075,54.1551196 38.5,53.34375 C38.4398376,52.9302884 38.3132027,52.5292779 38.125,52.15625 C35.245864,54.8962763 31.7688219,56.9290087 27.96875,58.09375 C25.5879014,58.8173189 23.1133708,59.185866 20.625,59.1875 L0.90625,59.1875 C1.48171888,60.0412669 2.0862394,60.8750883 2.71875,61.6875 L21.78125,61.6875 C28.03125,61.6875 33.71875,59.4375 38.125,55.71875 Z M3.875,48 C2.90272181,48.362926 1.88028859,48.573737 0.84375,48.625 C5.64812763,54.0864866 12.5698324,57.2171918 19.84375,57.21875 C26.7486952,57.2203915 33.3538451,54.3976779 38.125,49.40625 C39.003211,43.3194872 39.4730112,37.1807657 39.53125,31.03125 C39.6064943,23.9535178 39.1363533,16.8805064 38.125,9.875 C36.0625,11.75 32.1875,15.71875 30.375,21.84375 C29.6952084,24.1891671 29.358385,26.620611 29.375,29.0625 C29.3739587,34.0711392 30.8643698,38.9666502 33.65625,43.125 C30.2161216,38.7021135 28.3469408,33.2594989 28.34375,27.65625 C28.34375,23.78125 29.21875,20.09375 30.78125,16.8125 C29.6937441,15.6597392 28.8910941,14.2684792 28.4375,12.75 C26.2765777,16.5609305 25.1456946,20.8690566 25.15625,25.25 C25.15625,30.875 27,36.09375 30.125,40.28125 C24.1774149,34.0312436 15.8051158,30.6777614 7.1875,31.09375 C8.05098152,31.8912979 8.76992358,32.8322662 9.3125,33.875 C17.412475,33.8847418 25.1567559,37.2037194 30.75,43.0625 C25.4075223,38.5834708 18.65914,36.1275022 11.6875,36.125 C7.75115021,36.1175583 3.85262184,36.8930149 0.21875,38.40625 C4.22255673,48.9914935 14.7521336,55.6457782 26.03125,54.71875 C24.5625,54.96875 23.0625,55.125 21.53125,55.125 C14.9523845,55.1367844 8.6287,52.5804013 3.90625,48 L3.875,48 Z M38.125,75.75 L21.53125,75.75 C26.8126296,77.8437152 32.4437553,78.9147956 38.125,78.90625 C38.3825375,78.4250527 38.5217946,77.8894486 38.53125,77.34375 C38.5267921,76.7874535 38.3873854,76.2405502 38.125,75.75 Z M38.125,68.09375 L8.875,68.09375 C9.66487436,68.767547 10.4778623,69.4137682 11.3125,70.03125 L38.125,70.03125 C38.3777817,69.7711481 38.5228969,69.4251042 38.53125,69.0625 C38.5446771,68.6955915 38.3961173,68.3413334 38.125,68.09375 Z M38.125,72 L14.15625,72 C15.6071772,72.9187536 17.1096486,73.75346 18.65625,74.5 L38.125,74.5 C38.3757412,74.1086215 38.5061275,73.6522696 38.5,73.1875 C38.48437,72.7650932 38.354796,72.3547755 38.125,72 Z" id="Shape" fill="#FFFFFF"></path>
                    <path d="M0.78125,16.5 L8.71875,23.875 L6.625,13.25 L2.0625,23.0625 L11.53125,17.8125 L0.78125,16.5 Z M12.3125,6.5 L23.15625,6.6875 L14.5,0.125 L17.65625,10.53125 L21.1875,0.25 L12.3125,6.5 Z" id="Shape" fill="#FBD116"></path>
                </g>
                <g id="a-link" transform="translate(118.125000, 77.625000) scale(-1, 1) translate(-118.125000, -77.625000) translate(98.125000, 38.125000)" fill-rule="nonzero">
                    <g id="a">
                        <path d="M38.125,65.5 L6.09375,65.5 C5.69009452,65.0908348 5.29419081,64.6740941 4.90625,64.25 L38.125,64.25 C38.3893894,64.3434614 38.5651797,64.5945903 38.5625,64.875 C38.5625,65.125 38.40625,65.40625 38.125,65.5 Z M38.125,55.71875 C38.4867804,54.9830574 38.6175075,54.1551196 38.5,53.34375 C38.4398376,52.9302884 38.3132027,52.5292779 38.125,52.15625 C35.245864,54.8962763 31.7688219,56.9290087 27.96875,58.09375 C25.5879014,58.8173189 23.1133708,59.185866 20.625,59.1875 L0.90625,59.1875 C1.48171888,60.0412669 2.0862394,60.8750883 2.71875,61.6875 L21.78125,61.6875 C28.03125,61.6875 33.71875,59.4375 38.125,55.71875 Z M3.875,48 C2.90272181,48.362926 1.88028859,48.573737 0.84375,48.625 C5.64812763,54.0864866 12.5698324,57.2171918 19.84375,57.21875 C26.7486952,57.2203915 33.3538451,54.3976779 38.125,49.40625 C39.003211,43.3194872 39.4730112,37.1807657 39.53125,31.03125 C39.6064943,23.9535178 39.1363533,16.8805064 38.125,9.875 C36.0625,11.75 32.1875,15.71875 30.375,21.84375 C29.6952084,24.1891671 29.358385,26.620611 29.375,29.0625 C29.3739587,34.0711392 30.8643698,38.9666502 33.65625,43.125 C30.2161216,38.7021135 28.3469408,33.2594989 28.34375,27.65625 C28.34375,23.78125 29.21875,20.09375 30.78125,16.8125 C29.6937441,15.6597392 28.8910941,14.2684792 28.4375,12.75 C26.2765777,16.5609305 25.1456946,20.8690566 25.15625,25.25 C25.15625,30.875 27,36.09375 30.125,40.28125 C24.1774149,34.0312436 15.8051158,30.6777614 7.1875,31.09375 C8.05098152,31.8912979 8.76992358,32.8322662 9.3125,33.875 C17.412475,33.8847418 25.1567559,37.2037194 30.75,43.0625 C25.4075223,38.5834708 18.65914,36.1275022 11.6875,36.125 C7.75115021,36.1175583 3.85262184,36.8930149 0.21875,38.40625 C4.22255673,48.9914935 14.7521336,55.6457782 26.03125,54.71875 C24.5625,54.96875 23.0625,55.125 21.53125,55.125 C14.9523845,55.1367844 8.6287,52.5804013 3.90625,48 L3.875,48 Z M38.125,75.75 L21.53125,75.75 C26.8126296,77.8437152 32.4437553,78.9147956 38.125,78.90625 C38.3825375,78.4250527 38.5217946,77.8894486 38.53125,77.34375 C38.5267921,76.7874535 38.3873854,76.2405502 38.125,75.75 Z M38.125,68.09375 L8.875,68.09375 C9.66487436,68.767547 10.4778623,69.4137682 11.3125,70.03125 L38.125,70.03125 C38.3777817,69.7711481 38.5228969,69.4251042 38.53125,69.0625 C38.5446771,68.6955915 38.3961173,68.3413334 38.125,68.09375 Z M38.125,72 L14.15625,72 C15.6071772,72.9187536 17.1096486,73.75346 18.65625,74.5 L38.125,74.5 C38.3757412,74.1086215 38.5061275,73.6522696 38.5,73.1875 C38.48437,72.7650932 38.354796,72.3547755 38.125,72 Z" id="Shape" fill="#FFFFFF"></path>
                        <path d="M0.78125,16.5 L8.71875,23.875 L6.625,13.25 L2.0625,23.0625 L11.53125,17.8125 L0.78125,16.5 Z M12.3125,6.5 L23.15625,6.6875 L14.5,0.125 L17.65625,10.53125 L21.1875,0.25 L12.3125,6.5 Z" id="Shape" fill="#FBD116"></path>
                    </g>
                </g>
            </g>
        </g>
    </g>
</svg>