<?xml version="1.0" encoding="UTF-8"?>
<svg width="200px" height="150px" viewBox="0 0 200 150" version="1.1" xmlns="http://www.w3.org/2000/svg" xmlns:xlink="http://www.w3.org/1999/xlink">
    <!-- Generator: Sketch 52.5 (67469) - http://www.bohemiancoding.com/sketch -->
    <title>mt</title>
    <desc>Created with Sketch.</desc>
    <g id="Flags" stroke="none" stroke-width="1" fill="none" fill-rule="evenodd">
        <g id="Europe" transform="translate(-290.000000, -1450.000000)">
            <g id="mt" transform="translate(290.000000, 1450.000000)">
                <g id="Group">
                    <polygon id="Path" fill="#CE0000" points="100 0 200 0 200 150 100 150"></polygon>
                    <polygon id="Path" fill="#FFFFFF" points="0 0 100 0 100 150 0 150"></polygon>
                </g>
                <g id="Group" transform="translate(16.107500, 15.852688)">
                    <path d="M32.37165,28.4750625 C32.37165,28.9246688 31.9220438,29.2244063 31.372525,29.2244063 C30.77305,29.2244063 30.3734,28.9246688 30.3734,28.5250187 C30.3734,28.1253687 30.77305,27.775675 31.372525,27.775675 C31.9220438,27.775675 32.37165,28.1253687 32.37165,28.5250187 L32.37165,28.4750625 Z" id="Path" fill="#F1EEEE"></path>
                    <path d="M0.34969375,24.978125 L0.34969375,43.56185 L18.983375,43.56185 C18.983375,46.6591375 22.0806625,49.756425 25.17795,49.756425 L25.17795,68.34015 L43.8116312,68.34015 L43.8116312,49.756425 C46.9089187,49.756425 50.0062062,46.6591375 50.0062062,43.56185 L68.5899313,43.56185 L68.5899313,24.978125 L49.95625,24.978125 C49.95625,21.8808375 46.8589625,18.78355 43.761675,18.78355 L43.761675,0.199825 L25.17795,0.199825 L25.17795,18.78355 C22.0307063,18.78355 18.9334187,21.8808375 18.9334187,24.978125 L0.34969375,24.978125 Z" id="Path" fill="#CC0000"></path>
                    <path d="M0.999125,25.5776 L0.999125,42.962375 L19.58285,42.962375 C19.58285,46.0596625 22.6801375,49.15695 25.777425,49.15695 L25.777425,67.740675 L43.1122438,67.740675 L43.1122438,49.2069063 C46.2095312,49.2069063 49.3068187,46.1096188 49.3068187,43.0123313 L67.9405,43.0123313 L67.9405,25.6275563 L49.356775,25.6275563 C49.356775,22.5302688 46.2594875,19.4329813 43.1622,19.4329813 L43.1622,0.7993 L25.777425,0.7993 L25.777425,19.383025 C22.6801375,19.383025 19.58285,22.4803125 19.58285,25.5776 L0.999125,25.5776 Z" id="Path" fill="#FFE600"></path>
                    <path d="M1.5986,26.2270312 L1.5986,42.3129437 L20.182325,42.3129437 C20.182325,45.4102312 23.2796125,48.5075188 26.3769,48.5075188 L26.3769,67.0912438 L42.5127688,67.0912438 L42.5127688,48.5075188 C45.6100563,48.5075188 48.7073437,45.4102313 48.7073437,42.3129438 L67.2910688,42.3129438 L67.2910688,26.2270313 L48.7073437,26.2270313 C48.7073437,23.1297438 45.6100563,20.0324563 42.5127688,20.0324563 L42.5127688,1.44873125 L26.3769,1.44873125 L26.3769,19.9825 C23.2796125,19.9825 20.182325,23.0797875 20.182325,26.177075 L1.5986,26.177075 L1.5986,26.2270312 Z" id="Path" fill="#707070"></path>
                    <path d="M2.24803125,26.8265063 L2.24803125,41.7134688 L20.8317562,41.7134688 C20.8317562,44.8107562 23.9290438,47.9080438 27.0263313,47.9080438 L27.0263313,66.4418125 L41.8633375,66.4418125 L41.8633375,47.8580875 C44.960625,47.8580875 48.0579125,44.7608 48.0579125,41.6635125 L66.6416375,41.6635125 L66.6416375,26.77655 L48.0579125,26.77655 C48.0579125,23.6792625 44.960625,20.581975 41.8633375,20.581975 L41.8633375,2.04820625 L27.0263312,2.04820625 L27.0263312,20.6319313 C23.9290437,20.6319313 20.8317562,23.7292188 20.8317562,26.8265063 L2.198075,26.8265063 L2.24803125,26.8265063 Z" id="Path" fill="#A0A0A0"></path>
                    <g transform="translate(18.483812, 18.483812)">
                        <path d="M8.6923875,0.599475 C9.74146875,1.6985125 8.8922125,4.34619375 6.6941375,6.54426875 C4.4960625,8.74234375 1.8983375,9.54164375 0.7993,8.54251875 C-0.2997375,7.393525 0.599475,4.74584375 2.79755,2.54776875 C4.995625,0.34969375 7.59335,-0.44960625 8.6923875,0.599475 Z" id="Path" fill="#D0D0D0"></path>
                        <path d="M7.34356875,1.8983375 C8.44260625,2.997375 8.14286875,5.04558125 6.6941375,6.54426875 C5.24540625,8.04295625 3.1972,8.2927375 2.0981625,7.1937 C0.999125,6.0946625 1.2988625,4.04645625 2.74759375,2.597725 C4.196325,1.14899375 6.24453125,0.84925625 7.34356875,1.8983375 Z" id="Path" fill="#808080"></path>
                        <path d="M1.8983375,5.19545 L2.2979875,4.7958 L4.04645625,5.64505625 L3.1972,3.8965875 L3.64680625,3.44698125 L5.395275,6.94391875 L1.8983375,5.19545 Z M4.4960625,2.597725 L4.995625,2.0981625 L7.59335,4.7958 L7.14374375,5.19545 L4.4960625,2.597725 Z" id="Shape" fill="#D0D0D0" fill-rule="nonzero"></path>
                    </g>
                    <g transform="translate(40.964125, 18.483812)">
                        <path d="M8.64243125,8.4925625 C7.54339375,9.5916 4.8957125,8.6923875 2.74759375,6.4943125 C0.599475,4.2962375 -0.34969375,1.6985125 0.74934375,0.599475 C1.84838125,-0.4995625 4.4960625,0.39965 6.6941375,2.597725 C8.8922125,4.7958 9.6915125,7.393525 8.6923875,8.4925625 L8.64243125,8.4925625 Z" id="Path" fill="#D0D0D0"></path>
                        <path d="M7.34356875,7.1937 C6.24453125,8.2927375 4.196325,7.993 2.74759375,6.54426875 C1.2988625,5.0955375 0.999125,3.04733125 2.04820625,1.94829375 C3.14724375,0.84925625 5.24540625,1.14899375 6.6941375,2.597725 C8.14286875,4.04645625 8.44260625,6.0946625 7.34356875,7.1937 Z" id="Path" fill="#808080"></path>
                        <path d="M4.04645625,1.6985125 L4.4960625,2.14811875 L3.59685,3.8965875 L5.34531875,2.997375 L5.84488125,3.4969375 L2.2979875,5.19545 L4.04645625,1.6985125 Z M6.6941375,4.34619375 L7.0937875,4.74584375 L4.4960625,7.393525 L4.04645625,6.94391875 L6.6941375,4.34619375 Z" id="Shape" fill="#D0D0D0" fill-rule="nonzero"></path>
                    </g>
                    <g transform="translate(40.964125, 40.964125)">
                        <path d="M0.74934375,8.4925625 C-0.34969375,7.393525 0.54951875,4.74584375 2.74759375,2.54776875 C4.94566875,0.34969375 7.54339375,-0.4995625 8.64243125,0.54951875 C9.74146875,1.64855625 8.84225625,4.2962375 6.64418125,6.4943125 C4.44610625,8.6923875 1.84838125,9.54164375 0.74934375,8.4925625 Z" id="Path" fill="#D0D0D0"></path>
                        <path d="M2.0981625,7.14374375 C0.999125,6.04470625 1.2988625,3.9965 2.74759375,2.54776875 C4.196325,1.0990375 6.24453125,0.7993 7.34356875,1.8983375 C8.44260625,2.997375 8.14286875,5.04558125 6.6941375,6.4943125 C5.24540625,7.94304375 3.1972,8.24278125 2.04820625,7.14374375 L2.0981625,7.14374375 Z" id="Path" fill="#808080"></path>
                        <path d="M7.54339375,3.84663125 L7.0937875,4.34619375 L5.34531875,3.44698125 L6.24453125,5.19545 L5.794925,5.5951 L4.04645625,2.0981625 L7.54339375,3.84663125 Z M4.995625,6.4943125 L4.4960625,6.94391875 L1.8983375,4.2962375 L2.34794375,3.84663125 L4.995625,6.4943125 Z" id="Shape" fill="#D0D0D0" fill-rule="nonzero"></path>
                    </g>
                    <g transform="translate(18.483812, 40.964125)">
                        <path d="M0.7993,0.599475 C1.8983375,-0.4995625 4.54601875,0.39965 6.6941375,2.54776875 C8.84225625,4.6958875 9.74146875,7.393525 8.6923875,8.44260625 C7.59335,9.54164375 4.94566875,8.6923875 2.74759375,6.4943125 C0.54951875,4.2962375 -0.24978125,1.64855625 0.74934375,0.599475 L0.7993,0.599475 Z" id="Path" fill="#D0D0D0"></path>
                        <path d="M2.0981625,1.8983375 C3.1972,0.7993 5.24540625,1.0990375 6.6941375,2.54776875 C8.14286875,3.9965 8.44260625,6.04470625 7.34356875,7.14374375 C6.2944875,8.24278125 4.196325,7.94304375 2.74759375,6.4943125 C1.2988625,5.04558125 0.999125,2.997375 2.0981625,1.8983375 Z" id="Path" fill="#808080"></path>
                        <path d="M5.395275,7.393525 L4.94566875,6.8939625 L5.84488125,5.19545 L4.0964125,6.04470625 L3.59685,5.5951 L7.14374375,3.84663125 L5.395275,7.34356875 L5.395275,7.393525 Z M2.74759375,4.74584375 L2.34794375,4.2962375 L4.94566875,1.6985125 L5.395275,2.0981625 L2.74759375,4.74584375 Z" id="Shape" fill="#D0D0D0" fill-rule="nonzero"></path>
                    </g>
                    <path d="M47.4965856,34.2811967 C47.4965856,41.450533 41.672121,47.2909192 34.481213,47.2909192 C27.2903051,47.2909192 21.482921,41.4680192 21.482921,34.2811967 C21.482921,27.0943742 27.3073856,21.2714742 34.4982936,21.2714742 C41.6892015,21.2714742 47.5136661,27.0943742 47.5136661,34.2811967 L47.4965856,34.2811967 Z" id="Path" stroke="#707070" stroke-width="0.7993"></path>
                    <path d="M44.3374957,34.2548378 C44.3374957,39.717199 39.899857,44.167025 34.4211301,44.167025 C28.9424032,44.167025 24.5177782,39.7305218 24.5177782,34.2548378 C24.5177782,28.7791537 28.9554168,24.3426505 34.4341437,24.3426505 C39.9128707,24.3426505 44.3505093,28.7791537 44.3505093,34.2548378 L44.3374957,34.2548378 Z" id="Path" stroke="#707070" stroke-width="0.7993"></path>
                    <path d="M30.1236187,44.8107562 C30.1236188,45.1556322 29.8440416,45.4352094 29.4991656,45.4352094 C29.1542897,45.4352094 28.8747125,45.1556322 28.8747125,44.8107562 C28.8747125,44.4658803 29.1542897,44.1863031 29.4991656,44.1863031 C29.8440416,44.1863031 30.1236188,44.4658803 30.1236188,44.8107562 Z M40.0149562,44.8107562 C40.0149562,45.1556322 39.7353791,45.4352094 39.3905031,45.4352094 C39.0456272,45.4352094 38.76605,45.1556322 38.76605,44.8107562 C38.76605,44.4658803 39.0456272,44.1863031 39.3905031,44.1863031 C39.7353791,44.1863031 40.0149562,44.4658803 40.0149562,44.8107562 Z M34.0202062,44.8107562 L34.0202062,45.4601875 L33.2209062,45.4601875 C32.37165,45.4601875 32.37165,46.1096188 33.2209062,46.1096188 L34.0202062,46.1096188 L34.0202062,46.7090938 C34.0202062,47.4084813 34.76955,47.4584375 34.8195062,46.75905 L34.8195062,46.0596625 L35.6687625,46.0596625 C36.5180187,46.0596625 36.5180187,45.4601875 35.6687625,45.4601875 L34.8694625,45.4601875 L34.8694625,44.8107562 C34.8694625,44.161325 34.0202062,44.161325 34.0202062,44.8107562 Z" id="Shape" fill="#D0D0D0"></path>
                    <path d="M31.372525,35.6188062 L31.372525,36.0184563 C31.372525,36.0184563 31.1727,36.2682375 29.9237937,36.36815 C28.6748875,36.4680625 28.4750625,36.36815 28.4750625,36.36815 C28.5250187,36.7178438 28.7748,37.3173188 28.6748875,38.0167063 C28.7248437,38.8659625 28.4750625,39.6153062 28.4750625,39.6153062 C28.4750625,39.6652625 28.3251937,39.7152187 28.0754125,39.6652625 C28.2752375,39.4654375 28.2752375,38.965875 28.2752375,38.166575 C28.2752375,37.4671875 27.5258937,36.3181937 27.6757625,36.0184562 C27.8256312,35.7187188 31.372525,35.6188062 31.372525,35.6188062 Z M36.2682375,34.3199438 L39.5153937,34.2699875 C39.5153937,34.2699875 40.0149562,35.2691125 39.965,35.768675 C39.965,36.2682375 39.765175,36.7678 39.56535,36.5180188 C39.3155687,36.2682375 39.6652625,36.3181938 39.7152187,35.768675 C39.7152187,35.1692 39.3155687,34.6196813 39.3155687,34.6196813 C39.3155687,34.6196813 38.4163562,34.969375 37.1174937,34.9194188 C35.8186312,34.8195063 36.4181062,34.3199438 36.2682375,34.3199438 Z" id="Shape" stroke="#707070" stroke-width="0.5" fill="#D0D0D0"></path>
                    <path d="M36.6678875,35.2691125 C37.8668375,35.2191563 38.6661375,35.369025 38.6661375,35.369025 C38.6661375,35.369025 39.1657,36.36815 39.1657,36.8677125 C39.1157438,37.367275 38.965875,37.8668375 38.7160937,37.6170563 C38.5162687,37.4172313 38.8160063,37.4671875 38.8659625,36.8677125 C38.8659625,36.3181938 38.4663125,35.7187188 38.4663125,35.7187188 C38.4663125,35.7187188 37.6170562,36.0684125 36.3181937,36.0184562 C35.0193313,35.9185438 35.4189813,35.8685875 35.2691125,35.8186313 C35.1192438,35.8186313 35.0692875,36.2182812 33.1209938,36.2682375 C31.1227438,36.2682375 30.1236188,35.8186313 30.1236188,35.8186313 C30.1236188,35.8186313 29.9237938,36.1183688 28.7248438,36.2182812 L27.2261563,36.2182812 C27.2761125,36.5180187 27.5258938,37.1174937 27.4759375,37.8668375 C27.4759375,38.6661375 27.2261563,39.4654375 27.2261563,39.4654375 L26.8764625,39.4654375 C27.0762875,39.3155687 27.0263313,38.76605 27.0762875,38.0167062 C27.0762875,37.2673625 26.2769875,36.168325 26.4268563,35.8186312 C26.6266813,35.5188937 27.5258938,35.8186312 27.6757625,35.6687625 C27.8256313,35.4689375 26.8764625,34.3199437 27.0762875,33.2708625 C27.2261563,32.2217812 28.2752375,32.5215187 29.5241438,32.5215187 C30.77305,32.571475 33.5206438,32.9211687 34.2200313,32.5215187 C34.9194188,32.171825 34.6196813,30.8230062 35.2191563,29.97375 C35.6224181,29.4814195 36.2316201,29.2045095 36.8677125,29.2244062 C37.3173188,29.2244062 37.8668375,30.7230937 37.8668375,31.0727875 L37.7169688,31.2726125 L37.5171438,31.2726125 L37.5171438,31.4224812 C37.0175813,31.4724375 36.967625,31.0228312 36.6678875,30.7230937 C36.567975,31.2226562 37.0675375,32.9211687 37.0675375,34.0202062 C37.0675375,34.9194187 36.7178438,35.3190687 36.6678875,35.2691125 Z" id="Path" stroke="#707070" stroke-width="0.5" fill="#D0D0D0"></path>
                    <path d="M32.7213438,33.6705125 C32.7213438,34.0202063 31.1727,34.8694625 31.0228312,35.1692 C30.9229187,35.5188938 31.4224812,35.6687625 31.2726125,35.8685875 C31.1227437,36.0684125 30.972875,35.9685 30.9229187,36.0184563 L30.3234437,34.76955 C30.3234437,34.76955 31.8221312,34.0701625 31.772175,33.770425 C31.7222187,33.4706875 30.6731375,33.2708625 30.4733125,32.571475 C30.2734875,31.8720875 30.3734,30.4233563 30.2235313,30.1236187 C30.0736625,29.8238813 28.2252812,29.5241437 28.2252812,29.1244937 C28.2252812,28.6249312 30.1236187,27.4259812 30.3234438,27.2261562 C30.5232688,27.0263312 30.7230938,27.4259813 30.5232688,27.57585 C30.3234438,27.775675 28.8747125,28.9246688 28.8747125,29.0745375 C28.8747125,29.2743625 30.0736625,29.4741875 30.4733125,29.4741875 C30.9229188,29.4741875 31.1227438,29.2743625 31.1227438,29.0745375 C31.1227438,28.9246688 30.6731375,28.9246688 30.6731375,28.574975 C30.6731375,28.2252812 30.9229188,27.9755 31.3225688,27.9755 C31.5223938,27.9755 31.9220438,28.2252812 31.9220438,28.5250187 C31.9220438,28.8247562 31.57235,28.8747125 31.5223938,29.0745375 C31.4724375,29.3243187 31.9220438,29.4741875 32.3216938,29.4741875 C32.7213438,29.4741875 34.1201188,30.5232687 34.3199438,30.7230937 C34.569725,30.8729625 34.76955,30.8729625 34.569725,31.0727875 C34.3699,31.2726125 34.4698125,31.4724375 34.2699875,31.2726125 C34.1727145,31.1764681 34.1036099,31.055535 34.0701625,30.9229187 C34.0701625,30.77305 32.571475,30.0237062 32.3216937,30.173575 C32.1218687,30.3734 32.3216937,32.571475 32.3216937,32.7713 C32.3216937,33.1209937 32.7713,33.1209937 32.7213437,33.6705125 Z" id="Path" stroke="#707070" stroke-width="0.5" fill="#D0D0D0"></path>
                    <polygon id="Path" fill="#A7A7A7" points="30.1236187 29.4242313 32.6214313 29.4242313 32.6214313 31.972 30.1236187 31.972"></polygon>
                    <path d="M26.3398134,32.4122008 L41.4265121,32.4122008 C41.4816921,32.4122008 41.5264243,32.456933 41.5264243,32.512113 L41.5264243,32.512113 C41.5264243,32.567293 41.4816921,32.6120252 41.4265121,32.6120252 L26.3398134,32.6120252 C26.2846334,32.6120252 26.2399012,32.567293 26.2399012,32.512113 L26.2399012,32.512113 C26.2399012,32.456933 26.2846334,32.4122008 26.3398134,32.4122008 Z" id="Rectangle" fill="#808080" transform="translate(33.883163, 32.512113) rotate(57.857525) translate(-33.883163, -32.512113) "></path>
                    <path d="M30.770223,27.4242952 C30.770223,27.6269429 30.5866027,27.7912214 30.3600957,27.7912214 C30.1335886,27.7912214 29.9499683,27.6269429 29.9499683,27.4242952 C29.9499683,27.2216475 30.1335886,27.0573691 30.3600957,27.0573691 C30.5866027,27.0573691 30.770223,27.2216475 30.770223,27.4242952 Z" id="Path" stroke="#707070" stroke-width="0.7993" fill="#D0D0D0"></path>
                    <path d="M37.9167938,30.7230938 C37.9167938,30.8729625 36.9176688,31.0727875 35.8685875,31.0727875 C34.76955,31.0727875 33.8203813,30.8729625 33.8203813,30.7230938 C33.8203813,30.573225 34.76955,30.972875 35.8186313,30.972875 C36.967625,30.972875 37.9167938,30.573225 37.9167938,30.7230938 Z" id="Path" fill="#808080"></path>
                    <polygon id="Path" fill="#A7A7A7" points="30.3234438 31.972 32.37165 31.972 32.37165 32.7213438 30.3734 32.7213438"></polygon>
                    <path d="M36.967625,30.173575 C36.7678,30.573225 36.6179312,30.8230063 36.567975,30.77305 C36.567975,30.77305 36.6678875,30.3734 36.8677125,30.0237063 L37.2673625,29.4242313 C37.3173187,29.4741875 37.16745,29.8238813 36.967625,30.173575 Z M37.4671875,31.1727 L37.0675375,31.4224813 C37.171102,31.2486723 37.3067193,31.0961028 37.4671875,30.972875 C37.7169687,30.77305 37.9167938,30.6731375 37.9167938,30.7230938 L37.5171438,31.1227437 L37.4671875,31.1727 Z" id="Shape" fill="#808080"></path>
                    <path d="M37.2673625,30.6731375 L37.5171437,31.2726125 L37.1174937,30.77305 L36.8677125,30.173575 L37.2673625,30.6731375 Z M37.0675375,32.2717375 C37.0675375,32.2717375 36.4680625,32.37165 35.6687625,32.37165 C34.8694625,32.37165 34.2200312,32.3216938 34.2200312,32.2717375 L35.6687625,32.171825 C36.4680625,32.171825 37.0675375,32.171825 37.0675375,32.2717375 Z M32.37165,32.0719125 C32.37165,32.1218688 31.9220437,32.171825 31.372525,32.171825 C30.77305,32.171825 30.3734,32.171825 30.3734,32.0719125 C30.3734,32.0719125 30.77305,31.972 31.372525,31.972 C31.9220437,31.972 32.37165,32.0219563 32.37165,32.0719125 Z" id="Shape" fill="#808080"></path>
                    <path d="M27.8755875,38.4663125 C27.8755875,38.4663125 28.2252812,39.2656125 29.6740125,39.2656125 C31.0727875,39.2656125 31.57235,39.0158313 31.0228312,38.6161812 C30.4733125,38.2165312 29.3243187,38.3164437 29.5241437,38.6661375 C29.6240562,39.0657875 29.0745375,39.1657 28.974625,38.9159187 C28.8247562,38.6661375 28.3251937,37.8668375 29.2244062,37.8168812 C30.173575,37.766925 32.1218687,37.4671875 32.6214313,38.0167062 C33.1209937,38.566225 32.0719125,39.0158312 32.8712125,39.1657 C33.6205562,39.2656125 33.770425,39.0158312 35.1192437,38.965875 C36.4680625,38.8659625 37.0175812,39.2156562 37.4671875,39.1657 C37.96675,39.1657 37.8668375,38.3164437 37.4671875,38.166575 C37.1174938,37.9167937 36.4181063,37.8668375 36.2182813,37.6670125 C36.0684125,37.4172312 35.56885,37.6670125 35.6188062,37.367275 C35.6188062,37.1174938 36.3181938,37.5171437 36.3181938,37.4172312 L36.4181063,37.3173187 L36.2682375,37.3173187 L36.3181938,37.2174062 L36.2182813,37.2673625 L36.2682375,37.16745 C36.2682375,37.16745 36.1183688,37.2673625 36.1183688,37.16745 L36.0184562,37.16745 C36.1183688,37.0675375 36.0684125,37.0675375 36.0184562,37.0175812 L35.8685875,37.0175812 L35.8685875,36.8677125 C35.768675,36.8677125 35.768675,36.8677125 35.7187188,36.967625 L35.7187188,36.7178437 C35.7187188,36.6678875 35.8186313,36.6179312 35.9685,36.6179312 C36.3181938,36.6179312 36.4680625,37.0175812 36.6179312,37.0175812 C36.7178438,37.0175812 36.8677125,36.6179312 37.3173187,36.7678 L38.0666625,37.0675375 C38.3164438,37.2174062 37.9167938,37.367275 38.0666625,37.5671 C38.2165313,37.766925 39.1157438,38.4163562 38.8659625,39.1657 C38.6161812,39.8650875 37.8668375,39.965 37.8668375,40.2647375 C37.766925,40.564475 40.0149562,40.4645625 40.564475,40.564475 C40.9465835,40.6337778 41.2868722,40.848697 41.5136437,41.16395 L40.5145188,41.2139062 C40.5145188,41.2139062 40.0149562,40.964125 38.76605,40.9141687 C37.5171437,40.9141687 37.0675375,40.4146062 36.567975,40.3146937 L34.569725,40.4146062 L33.0710375,40.2647375 C32.7713,40.2147812 30.972875,41.0640375 30.972875,41.2638625 L29.773925,41.2638625 C29.773925,41.2638625 29.9237937,40.8142562 30.6231812,40.7643 C31.2726125,40.6643875 31.972,40.36465 31.9220437,40.164825 L32.1218687,38.8659625 C32.1218687,38.566225 32.4216062,38.3664 32.37165,38.2664875 C32.3216937,38.0666625 31.5223937,37.9167937 30.77305,37.9167937 C30.0237062,37.9167937 29.2244062,37.96675 29.0745375,38.1166187 C28.974625,38.3164437 29.0745375,38.8659625 29.2244062,38.76605 C29.374275,38.76605 29.17445,38.3664 29.3243187,38.3164437 C29.6480284,38.2169653 29.9847936,38.1664505 30.3234437,38.166575 C30.7230937,38.166575 31.372525,38.5162687 31.372525,38.6661375 C31.372525,38.7160937 31.57235,39.0657875 31.2726125,39.2156562 C30.7739853,39.3809446 30.2482207,39.4487852 29.7239687,39.4154812 C29.2019987,39.3882588 28.6914989,39.2521255 28.2252812,39.0158312 C28.0254562,38.8659625 27.8755875,38.5162687 27.8755875,38.4663125 Z" id="Path" stroke="#808080" stroke-width="0.5" fill="#D0D0D0"></path>
                    <path d="M36.967625,37.2174063 C36.967625,37.2709492 36.9390602,37.3204249 36.8926906,37.3471964 C36.8463211,37.3739679 36.7891914,37.3739679 36.7428219,37.3471964 C36.6964523,37.3204249 36.6678875,37.2709492 36.6678875,37.2174063 C36.6678875,37.134636 36.734986,37.0675375 36.8177563,37.0675375 C36.9005265,37.0675375 36.967625,37.134636 36.967625,37.2174063 Z" id="Path" fill="#000000"></path>
                    <path d="M44.7108438,34.8694625 L45.5101437,35.0193312 L46.8589625,34.1201187 L46.75905,34.6196812 L46.0596625,35.0692875 L45.6600125,35.2691125 L45.9097937,35.6687625 L46.3594,36.36815 L46.2594875,36.8677125 L45.4102313,35.4189813 L44.6109313,35.2691125 L44.7108438,34.8694625 Z M43.362025,28.974625 L44.8607125,28.2752375 L44.4610625,27.376025 L44.6608875,27.2761125 L45.6600125,29.4741875 L45.5101437,29.5741 L45.0605375,28.6249312 L43.56185,29.374275 L43.362025,28.974625 Z M40.964125,26.0771625 L42.3629,24.7783 L42.6626375,25.0780375 L42.6626375,27.2761125 L43.761675,26.2769875 L44.0114562,26.576725 L42.6126812,27.8755875 L42.3129437,27.57585 L42.3129437,25.377775 L41.2139062,26.3769 L40.964125,26.0771625 Z M34.76955,23.57935 L35.0193312,21.6810125 L35.4189812,21.6810125 L35.1692,23.4294813 L36.6678875,23.57935 L36.6678875,23.8291312 L34.76955,23.57935 Z M31.7222187,23.8790875 L31.372525,21.98075 L31.772175,21.8808375 L32.0719125,23.57935 L33.5706,23.2796125 L33.5706,23.5293938 L31.7222187,23.8790875 Z M26.0771625,26.6266812 L25.9272938,26.4768125 L26.9264188,25.6775125 L27.4259813,26.177075 C27.3186839,26.3930153 27.1843925,26.5944523 27.0263313,26.77655 C26.8967087,26.9602356 26.745789,27.1279242 26.576725,27.2761125 C26.365794,27.4448838 26.1298286,27.5797212 25.8773375,27.6757625 C25.6275562,27.7257187 25.377775,27.775675 25.2279063,27.6757625 C25.0367668,27.6552839 24.8594103,27.5666056 24.7283438,27.4259812 C24.6272252,27.2793022 24.5747957,27.1045372 24.578475,26.9264187 C24.578475,26.7265937 24.6284312,26.4768125 24.7783,26.2769875 C24.8782125,26.0771625 25.0780375,25.8773375 25.2778625,25.7274688 C25.4442777,25.586453 25.6291558,25.4688033 25.8273813,25.377775 L26.2769875,25.2778625 C26.3769,25.2778625 26.5267688,25.2778625 26.6266813,25.377775 L26.4268563,25.6275563 C26.3323003,25.5874348 26.229576,25.5703141 26.1271187,25.5776 L25.8273813,25.6275563 C25.7001058,25.6946982 25.5824786,25.7787176 25.4776875,25.8773375 C25.3278188,25.97725 25.17795,26.0771625 25.1279937,26.2270313 C25.0437748,26.3140113 24.9760662,26.4155743 24.9281687,26.5267688 L24.9281687,26.77655 C24.9281687,26.9264187 24.978125,27.0762875 25.0780375,27.1762 L25.4277312,27.4259812 L25.9272937,27.376025 C26.3870266,27.181906 26.7600741,26.8266226 26.976375,26.3769 L26.77655,26.0771625 L26.0771625,26.6266813 Z M26.0272063,40.4645625 L24.4286063,41.6135563 L23.2296563,39.9150437 L23.4294813,39.765175 L24.4286063,41.1139937 L24.8782125,40.7643 L24.0789125,39.6153062 L24.2287813,39.5153937 L25.0780375,40.6643875 L25.777425,40.164825 L26.0272063,40.4645625 Z M23.6792625,37.96675 C23.9290438,37.9167937 24.0789125,37.766925 24.178825,37.5171437 L24.178825,36.7678 C24.1000096,36.5098973 23.9428727,36.2829217 23.7292188,36.1183687 C23.57935,35.9685 23.3295687,35.9185437 23.1297437,35.9685 C22.9716414,36.0030169 22.830401,36.0912921 22.7300937,36.2182812 C22.6801375,36.3181937 22.580225,36.4680625 22.580225,36.6179312 L22.6301812,37.16745 C22.7300937,37.4671875 22.8300062,37.6670125 23.0298312,37.8668375 C23.1797,38.0167062 23.4294812,38.0666625 23.6792625,37.96675 Z M23.8291313,38.3664 C23.5308529,38.4614037 23.2044963,38.3846139 22.979875,38.166575 C22.713327,37.9265107 22.5223927,37.6140728 22.4303562,37.2673625 C22.3304437,36.967625 22.3304437,36.7678 22.3304437,36.4680625 C22.3304437,36.168325 22.4303562,36.0684125 22.5302687,35.9185437 C22.6440355,35.7405432 22.8236421,35.6148186 23.0298313,35.56885 C23.1973955,35.5314152 23.3725604,35.5489317 23.5293938,35.6188062 C23.7292188,35.7187187 23.8790875,35.8186312 24.0289563,36.0184562 C24.3357517,36.4547863 24.4774056,36.9859884 24.4286063,37.5171437 C24.4105007,37.7144838 24.3416633,37.9037866 24.2287813,38.0666625 C24.1288688,38.2165312 23.979,38.3164437 23.8291313,38.3664 Z M23.979,34.4698125 L21.98075,34.4698125 L21.98075,33.0710375 L22.0806625,32.4715625 L22.2804875,32.1218687 C22.3624353,32.048808 22.4708303,32.0126763 22.580225,32.0219563 C22.7300938,32.0219563 22.8300063,32.0719125 22.9299188,32.2217812 C22.979875,32.37165 23.0797875,32.571475 23.0797875,32.8712125 C23.1456936,32.6603327 23.2663621,32.4707107 23.4294813,32.3216938 L23.979,31.8221313 L23.979,32.3216938 L23.57935,32.6713875 L23.2796125,32.971125 C23.2200804,33.0299826 23.1695781,33.0973191 23.1297438,33.17095 C23.1213849,33.2372961 23.1213849,33.3044289 23.1297438,33.370775 L23.1297438,33.5706 L23.0797875,34.0701625 L23.979,34.0701625 L23.979,34.4698125 Z M22.8799625,34.0202062 L22.8799625,33.17095 C22.8968764,33.0215585 22.8968764,32.8707353 22.8799625,32.7213437 C22.8621704,32.648047 22.8280122,32.5797305 22.78005,32.5215187 C22.7442582,32.4707348 22.6908248,32.4351126 22.6301812,32.4216062 C22.5302687,32.4216062 22.4303562,32.4715625 22.3804,32.571475 L22.2804875,33.0710375 L22.2804875,34.0701625 L22.9299187,34.0701625 L22.8799625,34.0202062 Z M28.2252812,25.5776 L28.2252812,23.3295687 L28.6249312,23.0797875 L30.6731375,24.0789125 L30.2734875,24.3286937 L29.6740125,24.0289562 L28.6249312,24.6783875 L28.6249312,25.377775 L28.2252812,25.5776 Z M28.574975,24.4286062 L29.4741875,23.9290437 L28.974625,23.6293062 C28.8197317,23.5554302 28.6695742,23.4720093 28.5250187,23.379525 L28.574975,23.779175 L28.574975,24.4286062 Z M37.8668375,23.8291312 L39.965,22.979875 L40.3146938,23.2296562 L40.164825,25.5276437 L39.8151313,25.2279062 L39.8650875,24.578475 L38.8659625,23.8291312 L38.2165313,24.0789125 L37.8668375,23.8291312 Z M39.0657875,23.7292187 L39.9150438,24.3286937 L39.9150438,23.7292187 C39.9381996,23.5608281 39.9715652,23.3939999 40.0149563,23.2296562 C39.9084999,23.3262299 39.7911423,23.4100567 39.6652625,23.4794375 L39.0657875,23.7292187 Z M44.2112813,30.8729625 L46.1096188,30.4233562 L46.4093563,31.772175 L46.5092688,32.37165 L46.4093563,32.7213437 C46.3575453,32.8198209 46.2670234,32.8922385 46.159575,32.9211687 C46.0097063,32.9211687 45.8598375,32.9211687 45.759925,32.8212562 C45.5948517,32.6539806 45.4745854,32.4478098 45.4102313,32.2217812 C45.4185782,32.3048325 45.4185782,32.3885113 45.4102313,32.4715625 L45.2104063,32.8712125 L44.8107563,33.4706875 L44.7108438,32.971125 L45.0105813,32.4715625 L45.2104063,32.171825 C45.2780572,32.0496263 45.3125055,31.9118331 45.3103188,31.772175 C45.2994304,31.6878649 45.2827387,31.6044063 45.2603625,31.5223937 L45.16045,31.0727875 L44.3111938,31.2726125 L44.2112813,30.8729625 Z M45.360275,31.0228312 L45.5601,31.8720875 C45.5601,32.0219562 45.6600125,32.171825 45.7099688,32.2717375 C45.7099688,32.37165 45.8098813,32.4216062 45.8598375,32.4715625 L46.0596625,32.5215187 C46.1096188,32.5215187 46.2095313,32.4216062 46.2095313,32.3216937 C46.2497575,32.1576023 46.2497575,31.9862227 46.2095313,31.8221312 L45.95975,30.8729625 L45.360275,31.0228312 Z" id="Shape" fill="#D0D0D0" fill-rule="nonzero"></path>
                </g>
            </g>
        </g>
    </g>
</svg>