<?xml version="1.0" encoding="UTF-8"?>
<svg width="200px" height="150px" viewBox="0 0 200 150" version="1.1" xmlns="http://www.w3.org/2000/svg" xmlns:xlink="http://www.w3.org/1999/xlink">
    <!-- Generator: Sketch 52.5 (67469) - http://www.bohemiancoding.com/sketch -->
    <title>mn</title>
    <desc>Created with Sketch.</desc>
    <g id="Flags" stroke="none" stroke-width="1" fill="none" fill-rule="evenodd">
        <g id="Asia" transform="translate(-290.000000, -1050.000000)">
            <g id="mn" transform="translate(290.000000, 1050.000000)">
                <polygon id="Path" fill="#C4272F" points="0 0 200 0 200 150 0 150"></polygon>
                <polygon id="Path" fill="#015197" points="66.65625 0 133.34375 0 133.34375 150 66.65625 150"></polygon>
                <circle id="Oval" fill="#F9CF02" cx="33.4375" cy="59.09375" r="10.9375"></circle>
                <circle id="Oval" fill="#C4272F" cx="33.4375" cy="54.125" r="11.9375"></circle>
                <path d="M28.46875,41.1875 C28.46875,43.9316649 30.6933351,46.15625 33.4375,46.15625 C36.1816649,46.15625 38.40625,43.9316649 38.40625,41.1875 C38.40625,39.21875 37.15625,38.9375 37.15625,38.21875 C37.15625,37.46875 37.90625,36.46875 36.40625,35.21875 C37.15625,36.46875 35.90625,36.71875 35.90625,37.96875 C35.90625,39.21875 36.40625,39.21875 36.40625,40.1875 C36.3209616,40.6642915 35.9062347,41.0114152 35.421875,41.0114152 C34.9375153,41.0114152 34.5227884,40.6642915 34.4375,40.1875 C34.4375,39.21875 35.40625,38.21875 35.40625,36.75 C35.40625,35.21875 35.1875,34.71875 34.4375,33.5 C33.6875,32.25 32.4375,31.25 33.4375,30.25 C31.9375,30.75 32.6875,32.75 32.6875,34 C32.6875,35.25 31.6875,35.96875 31.6875,37.4375 C31.6875,38.90625 32.4375,39.21875 32.4375,40.1875 C32.3522116,40.6642915 31.9374847,41.0114152 31.453125,41.0114152 C30.9687653,41.0114152 30.5540384,40.6642915 30.46875,40.1875 C30.46875,39.21875 30.96875,39.21875 30.96875,37.96875 C30.96875,36.71875 29.71875,36.46875 30.46875,35.21875 C28.96875,36.46875 29.71875,37.46875 29.71875,38.21875 C29.71875,38.96875 28.46875,39.1875 28.46875,41.1875 Z" id="Path" fill="#F9CF02"></path>
                <circle id="Oval" fill="#F9CF02" cx="33.4375" cy="56.09375" r="7.9375"></circle>
                <path d="M11.5625,72 L11.5625,119.71875 L21.5,119.71875 L21.5,72 L11.5625,72 Z M45.375,72 L45.375,119.71875 L55.3125,119.71875 L55.3125,72 L45.375,72 Z M23.5,79.96875 L23.5,83.9375 L43.375,83.9375 L43.375,79.96875 L23.5,79.96875 Z M23.5,107.78125 L23.5,111.78125 L43.375,111.78125 L43.375,107.8125 L23.5,107.78125 Z M23.5,72 L43.375,72 L33.4375,77.96875 L23.5,72 Z M23.5,113.78125 L43.375,113.78125 L33.4375,119.6875 L23.5,113.78125 Z" id="Shape" fill="#F9CF02" fill-rule="nonzero"></path>
                <circle id="Oval" stroke="#C4272F" stroke-width="1.9" fill="#F9CF02" cx="33.4375" cy="95.875" r="10.53125"></circle>
                <path d="M33.4375,85.3125 C36.3542538,85.3125 38.71875,87.6769962 38.71875,90.59375 C38.71875,93.5105038 36.3542538,95.875 33.4375,95.875 C31.4594384,95.7225028 29.5627759,96.6914468 28.5270757,98.3835781 C27.4913756,100.075709 27.4913756,102.205541 28.5270757,103.897672 C29.5627759,105.589803 31.4594384,106.558747 33.4375,106.40625" id="Path" stroke="#C4272F" stroke-width="1.9"></path>
                <circle id="Oval" fill="#C4272F" cx="33.4375" cy="90.59375" r="2"></circle>
                <circle id="Oval" fill="#C4272F" cx="33.4375" cy="101.125" r="2"></circle>
            </g>
        </g>
    </g>
</svg>