<?xml version="1.0" encoding="UTF-8"?>
<svg width="200px" height="150px" viewBox="0 0 200 150" version="1.1" xmlns="http://www.w3.org/2000/svg" xmlns:xlink="http://www.w3.org/1999/xlink">
    <!-- Generator: Sketch 52.5 (67469) - http://www.bohemiancoding.com/sketch -->
    <title>gb-nir</title>
    <desc>Created with Sketch.</desc>
    <g id="Flags" stroke="none" stroke-width="1" fill="none" fill-rule="evenodd">
        <g id="Europe" transform="translate(-730.000000, -650.000000)">
            <g id="gb-nir" transform="translate(730.000000, 650.000000)">
                <rect id="Rectangle" fill="#FFFFFF" fill-rule="nonzero" x="0" y="0" width="200" height="150"></rect>
                <rect id="Rectangle" fill="#FFFFFF" x="0" y="0" width="1" height="1"></rect>
                <rect id="a" fill="#CC0000" x="0" y="60" width="200" height="30"></rect>
                <g id="a-link" transform="translate(100.000000, 75.000000) rotate(90.000000) translate(-100.000000, -75.000000) translate(25.000000, 60.000000)" fill="#CC0000">
                    <rect id="a" x="0" y="0" width="150" height="30"></rect>
                </g>
                <path d="M111,45.8125 C111.9375,44.3125 111.375,43.3125 109.9375,43.03125 C109.9375,43.03125 105.28125,44.53125 100.25,44.6875 C95.25,44.84375 89.3125,43.4375 89.3125,43.4375 C88.21875,44.09375 88.46875,45.6875 89,46.6875 C89,46.6875 94.25,48.4375 100.25,48.25 C103.449726,48.1140586 106.615212,47.5356477 109.65625,46.53125 C110.8125,46.15625 111,45.84375 111,45.8125 Z" id="Path" stroke="#000000" stroke-width="0.25" fill="#EBEAE3"></path>
                <polygon id="Path" stroke="#161111" stroke-width="0.8" fill="#FFFFFF" points="100 111.75 90.34375 91.6875 68.1875 93.375 80.6875 75 68.1875 56.625 90.375 58.3125 100 38.28125 109.65625 58.28125 131.8125 56.625 119.3125 75 131.8125 93.375 109.625 91.6875"></polygon>
                <path d="M99.84375,38.1875 C111.96875,40.1875 111.53125,40.75 111.53125,40.75 L114.6875,31.3125 C114.6875,31.3125 115.03125,29.4375 114.15625,28.3125 C113.28125,27.1875 110.875,27.8125 110.875,27.8125 C110.875,27.8125 110.5625,26.28125 109.46875,25.9375 C108.40625,25.5625 104.46875,27.34375 103.21875,27.75 C101.96875,28.15625 101.34375,28.53125 99.625,28.5 C97.90625,28.5 94.8125,26.9375 94.21875,26.625 C93.6875,26.34375 92.84375,26.0625 92.0625,26.09375 C91.3125,26.09375 90.5,26.3125 90.09375,26.84375 C89.71875,27.375 89.71875,28.0625 89.71875,28.0625 C89.71875,28.0625 89.09375,27.65625 88.09375,27.65625 C87.09375,27.65625 86.53125,27.78125 86.0625,28.3125 C85.59375,28.84375 85,30.34375 85,30.34375 L86.125,32.90625 L86.1875,36.4375 L88.53125,40.1875 L99.84375,38.1875 Z" id="Path" stroke="#000000" stroke-width="0.65" fill="#B02320"></path>
                <path d="M111.15625,43.53125 C111.15625,43.53125 111.78125,44.25 111.75,44.53125 C111.71875,44.78125 111.4375,45 111.4375,45 C111.4375,45 111.65625,45.1875 111.59375,45.46875 C111.5625,45.78125 111.15625,45.78125 111.15625,45.78125 C111.15625,45.78125 111.25,46.03125 111,46.15625 C110.78125,46.28125 109.8125,46.46875 109.8125,46.46875 C109.8125,46.46875 105.125,45.15625 100.125,45.15625 C95.125,45.15625 89.1875,46.78125 89.1875,46.78125 C89.1875,46.78125 88.5625,46.5625 88.5625,46.15625 C88.5,45.78125 88.59375,45.5 88.59375,45.5 C88.59375,45.5 88.28125,45.5 88.1875,45.21875 C88.0625,44.8125 88.21875,44.5 88.21875,44.5 C88.21875,44.5 88,44.5625 88.25,44.03125 C88.4375,43.625 88.71875,43.5 88.71875,43.5 C88.71875,43.5 93.96875,41.625 99.96875,41.59375 C105.9375,41.59375 111.15625,43.46875 111.15625,43.53125 Z" id="Path" stroke="#000000" stroke-width="0.25" fill="#EBEAE3"></path>
                <path d="M86.3125,31.71875 C86.3125,31.71875 86.125,31.03125 86.5625,30.4375 C86.9127884,29.9994163 87.49834,29.8249967 88.03125,30 C88.28125,30.125 88.25,30.40625 88.5625,30.46875 C88.875,30.5625 89.125,30.3125 89.125,30.3125" id="Path" stroke="#000000" stroke-width="0.55"></path>
                <path d="M115.5625,33.3125 L113.75,37.0625 L113.03125,37.1875 C113.03125,37.1875 112.59375,36.9375 111.34375,37.03125 C110.46875,37.09375 110.1875,37.34375 110.1875,37.34375 L111.8125,33.59375 C111.8125,33.59375 111.9375,34.375 112.125,34.84375 C112.375,35.46875 113.28125,36 113.28125,36 C113.28125,36 113.40625,35.28125 113.15625,34.4375 C112.918185,33.6575931 112.625803,32.8953124 112.28125,32.15625 L115.5625,33.3125 Z" id="Path" stroke="#000000" stroke-width="0.6" fill-opacity="0.9" fill="#FFCC00"></path>
                <polygon id="Path" stroke="#121116" stroke-width="0.6" fill="#121116" stroke-linejoin="round" points="98.90625 21.625 100.9375 21.625 100.9375 30.28125 98.90625 30.28125"></polygon>
                <path d="M86.4375,37.5625 L87.71875,40.375 C87.71875,40.375 93.3125,38.1875 99.875,38.25 C109.71875,38.3125 112.53125,40.28125 112.53125,40.28125 L113.96875,36.8125 L112.875,37.4375 L111.75,38.15625 L110.5,38.625 L108.9375,38.53125 L107.5625,37.53125 L106.875,36.0625 L105.71875,37.125 L103.65625,37.5625 L101.65625,37.0625 L99.90625,34.84375 C99.90625,34.84375 98.59375,37.3125 96.90625,37.46875 C94.5,37.65625 93.125,36.3125 93.125,36.3125 C93.125,36.3125 92.21875,38.3125 90.75,38.65625 C88.40625,39.25 86.46875,37.5625 86.4375,37.5625 Z" id="Path" stroke="#000000" stroke-width="0.5" fill="#F6CA1F"></path>
                <g id="Group" transform="translate(80.937500, 18.437500)">
                    <path d="M27.9375,2.09375 C27.9375,2.65625 27.5,3.15625 26.90625,3.15625 C26.6244575,3.15625 26.3542064,3.04430836 26.154949,2.84505096 C25.9556916,2.64579355 25.84375,2.37554252 25.84375,2.09375 C25.8353002,1.80658282 25.9435004,1.52823336 26.143681,1.32216511 C26.3438616,1.11609686 26.6189586,0.999875711 26.90625,1 C27.4808136,1.01690619 27.9377487,1.48768783 27.9375,2.0625" id="Path" stroke="#1E1E1E" stroke-width="0.6" fill="#EEEEEE" stroke-linejoin="round"></path>
                    <path d="M26.40625,2.625 C26.40625,2.625 27.25,2.625 27.34375,2.28125 C27.4375,1.90625 27.28125,1.46875 27.28125,1.46875 C27.28125,1.46875 27.6875,1.90625 27.59375,2.25 C27.46875,2.59375 27.34375,2.6875 27.0625,2.78125 C26.8422503,2.80463098 26.6208352,2.7492772 26.4375,2.625 L26.40625,2.625 Z" id="Path" fill="#A3AFB8"></path>
                    <path d="M25.40625,3.28125 C25.40625,3.84375 24.9375,4.34375 24.34375,4.34375 C24.0619575,4.34375 23.7917064,4.23180836 23.592449,4.03255096 C23.3931916,3.83329355 23.28125,3.56304252 23.28125,3.28125 C23.2725076,2.98857687 23.3849319,2.7052688 23.5919753,2.49822534 C23.7990188,2.29118188 24.0823269,2.17875758 24.375,2.1875 C24.9498122,2.18725133 25.4205938,2.64418645 25.4375,3.21875" id="Path" stroke="#1E1E1E" stroke-width="0.6" fill="#EEEEEE" stroke-linejoin="round"></path>
                    <path d="M23.84375,3.8125 C23.84375,3.8125 24.71875,3.8125 24.78125,3.46875 C24.875,3.125 24.71875,2.65625 24.71875,2.65625 C24.71875,2.65625 25.125,3.125 25.03125,3.46875 C24.90625,3.78125 24.78125,3.90625 24.5,3.96875 C24.2797503,3.99213098 24.0583352,3.9367772 23.875,3.8125 L23.84375,3.8125 Z" id="Path" fill="#A3AFB8"></path>
                    <path d="M30.9375,1.375 C30.9375,1.96875 30.4375,2.4375 29.875,2.4375 C29.2881975,2.4375 28.8125,1.96180255 28.8125,1.375 C28.8122513,0.800187829 29.2691864,0.329406188 29.84375,0.3125 C30.4305525,0.3125 30.90625,0.788197453 30.90625,1.375" id="Path" stroke="#1E1E1E" stroke-width="0.6" fill="#EEEEEE" stroke-linejoin="round"></path>
                    <path d="M29.375,1.9375 C29.375,1.9375 30.21875,1.9375 30.3125,1.5625 C30.40625,1.21875 30.25,0.78125 30.25,0.78125 C30.25,0.78125 30.65625,1.21875 30.5625,1.5625 C30.4375,1.90625 30.3125,2 30.03125,2.0625 C29.8147116,2.09510517 29.5935911,2.05088107 29.40625,1.9375 L29.375,1.9375 Z" id="Path" fill="#A3AFB8"></path>
                    <path d="M34.25,2.0625 C34.25,2.625 33.78125,3.125 33.21875,3.125 C32.6319475,3.125 32.15625,2.64930255 32.15625,2.0625 C32.15625,1.47569745 32.6319475,1 33.21875,1 C33.7813956,1.01631876 34.2336812,1.4686044 34.25,2.03125" id="Path" stroke="#1E1E1E" stroke-width="0.6" fill="#EEEEEE" stroke-linejoin="round"></path>
                    <path d="M32.71875,2.59375 C32.71875,2.59375 33.5625,2.59375 33.65625,2.25 C33.75,1.875 33.59375,1.4375 33.59375,1.4375 C33.59375,1.4375 34,1.875 33.90625,2.25 C33.78125,2.5625 33.65625,2.65625 33.375,2.75 C33.1444401,2.78115009 32.9105342,2.72545821 32.71875,2.59375 Z" id="Path" fill="#A3AFB8"></path>
                    <path d="M36.8125,4.15625 C36.8125,4.71875 36.34375,5.21875 35.75,5.21875 C35.1631975,5.21875 34.6875,4.74305255 34.6875,4.15625 C34.6875,3.56944745 35.1631975,3.09375 35.75,3.09375 C36.3248122,3.09350133 36.7955938,3.55043645 36.8125,4.125" id="Path" stroke="#1E1E1E" stroke-width="0.6" fill="#EEEEEE" stroke-linejoin="round"></path>
                    <path d="M35.28125,4.6875 C35.28125,4.6875 36.125,4.6875 36.21875,4.34375 C36.28125,4 36.15625,3.53125 36.15625,3.53125 C36.15625,3.53125 36.5625,4 36.4375,4.34375 C36.3125,4.65625 36.21875,4.78125 35.90625,4.84375 C35.71875,4.875 35.4375,4.8125 35.28125,4.6875 Z" id="Path" fill="#A3AFB8"></path>
                    <path d="M37.90625,7.59375 C37.90625,8.1875 37.4375,8.65625 36.84375,8.65625 C36.2691864,8.63934381 35.8122513,8.16856217 35.8125,7.59375 C35.8122513,7.01893783 36.2691864,6.54815619 36.84375,6.53125 C37.4305525,6.53125 37.90625,7.00694745 37.90625,7.59375" id="Path" stroke="#1E1E1E" stroke-width="0.6" fill="#EEEEEE" stroke-linejoin="round"></path>
                    <path d="M36.375,8.125 C36.375,8.125 37.21875,8.125 37.3125,7.78125 C37.375,7.4375 37.25,6.96875 37.25,6.96875 C37.25,6.96875 37.65625,7.4375 37.53125,7.78125 C37.40625,8.09375 37.3125,8.21875 37,8.28125 C36.7797503,8.30463098 36.5583352,8.2492772 36.375,8.125 Z" id="Path" fill="#A3AFB8"></path>
                    <path d="M37.5,11.0625 C37.5,11.6875 37.03125,12.125 36.4375,12.125 C35.8748544,12.1086812 35.4225688,11.6563956 35.40625,11.09375 C35.397839,10.8119237 35.5017908,10.5383106 35.6952134,10.3331655 C35.8886359,10.1280204 36.1556665,10.0081672 36.4375,10 C37.0243025,10 37.5,10.4756975 37.5,11.0625" id="Path" stroke="#1E1E1E" stroke-width="0.6" fill="#EEEEEE" stroke-linejoin="round"></path>
                    <path d="M35.9375,11.625 C35.9375,11.625 36.8125,11.625 36.875,11.25 C36.96875,10.9375 36.84375,10.46875 36.84375,10.46875 C36.84375,10.46875 37.25,10.90625 37.125,11.25 C37,11.59375 36.90625,11.6875 36.59375,11.75 C36.3772116,11.7826052 36.1560911,11.7383811 35.96875,11.625 L35.9375,11.625 Z" id="Path" fill="#A3AFB8"></path>
                    <path d="M35.9375,14.125 C35.9375,14.71875 35.46875,15.1875 34.90625,15.1875 C34.3194475,15.1875 33.84375,14.7118025 33.84375,14.125 C33.84375,13.5381975 34.3194475,13.0625 34.90625,13.0625 C35.4808136,13.0794062 35.9377487,13.5501878 35.9375,14.125" id="Path" stroke="#1E1E1E" stroke-width="0.6" fill="#EEEEEE" stroke-linejoin="round"></path>
                    <path d="M34.40625,14.6875 C34.40625,14.6875 35.25,14.6875 35.34375,14.3125 C35.4375,14 35.28125,13.53125 35.28125,13.53125 C35.28125,13.53125 35.6875,13.96875 35.59375,14.3125 C35.46875,14.65625 35.34375,14.75 35.0625,14.8125 C34.8459616,14.8451052 34.6248411,14.8008811 34.4375,14.6875 L34.40625,14.6875 Z" id="Path" fill="#A3AFB8"></path>
                    <path d="M22.90625,4.1875 C22.90625,4.78125 22.4375,5.25 21.875,5.25 C21.2881975,5.25 20.8125,4.77430255 20.8125,4.1875 C20.8122513,3.61268783 21.2691864,3.14190619 21.84375,3.125 C22.4305525,3.125 22.90625,3.60069745 22.90625,4.1875" id="Path" stroke="#1E1E1E" stroke-width="0.6" fill="#EEEEEE" stroke-linejoin="round"></path>
                    <path d="M21.375,4.75 C21.375,4.75 22.21875,4.75 22.3125,4.375 C22.40625,4.03125 22.25,3.59375 22.25,3.59375 C22.25,3.59375 22.65625,4.03125 22.5625,4.375 C22.4375,4.71875 22.3125,4.8125 22.03125,4.875 C21.8125,4.9375 21.53125,4.875 21.375,4.75 Z" id="Path" fill="#A3AFB8"></path>
                    <g transform="translate(17.812500, 2.812500)" id="Path">
                        <path d="M1.90625,1.09375 C1.91473511,1.33118019 1.82630749,1.56185371 1.6612845,1.73277038 C1.49626151,1.90368704 1.26883171,2.00015157 1.03125,2 C0.793668286,2.00015157 0.56623849,1.90368704 0.401215502,1.73277038 C0.236192513,1.56185371 0.147764889,1.33118019 0.15625,1.09375 C0.15625,0.610500844 0.548000844,0.21875 1.03125,0.21875 C1.51449916,0.21875 1.90625,0.610500844 1.90625,1.09375" stroke="#1E1E1E" stroke-width="0.6" fill="#EEEEEE" stroke-linejoin="round"></path>
                        <path d="M0.625,1.5625 C0.625,1.5625 1.34375,1.5625 1.40625,1.25 C1.5,0.96875 1.375,0.625 1.375,0.625 C1.375,0.625 1.6875,0.96875 1.625,1.25 C1.5,1.5625 1.40625,1.625 1.1875,1.6875 C0.990922042,1.71902785 0.78972353,1.67431707 0.625,1.5625 Z" fill="#A3AFB8"></path>
                    </g>
                    <g transform="translate(17.812500, 4.062500)" id="Path">
                        <path d="M1.9375,0.9375 C1.95488017,1.18018973 1.87042428,1.41915734 1.70440856,1.59703132 C1.53839284,1.77490531 1.30581048,1.87562154 1.0625,1.875 C0.819189524,1.87562154 0.586607158,1.77490531 0.420591439,1.59703132 C0.254575719,1.41915734 0.17011983,1.18018973 0.1875,0.9375 C0.1875,0.454250844 0.579250844,0.0625 1.0625,0.0625 C1.29456443,0.0625 1.5171241,0.154687235 1.68121843,0.318781566 C1.84531276,0.482875898 1.9375,0.705435571 1.9375,0.9375" stroke="#1E1E1E" stroke-width="0.6" fill="#EEEEEE" stroke-linejoin="round"></path>
                        <path d="M0.625,1.40625 C0.625,1.40625 1.34375,1.40625 1.4375,1.09375 C1.5,0.84375 1.375,0.46875 1.375,0.46875 C1.375,0.46875 1.6875,0.84375 1.625,1.09375 C1.53125,1.40625 1.4375,1.46875 1.1875,1.53125 C1.0011479,1.55480188 0.812548584,1.51042557 0.65625,1.40625 L0.625,1.40625 Z" fill="#A3AFB8"></path>
                    </g>
                    <g transform="translate(17.812500, 5.625000)" id="Path">
                        <path d="M2,1.03125 C2,1.51449916 1.60824916,1.90625 1.125,1.90625 C0.887569807,1.91473511 0.656896289,1.82630749 0.485979622,1.6612845 C0.315062956,1.49626151 0.218598431,1.26883171 0.21875,1.03125 C0.209906361,0.788294252 0.302543034,0.552611897 0.474452465,0.380702465 C0.646361897,0.208793034 0.882044252,0.116156361 1.125,0.125 C1.36258171,0.124848431 1.59001151,0.221312956 1.7550345,0.392229622 C1.92005749,0.563146289 2.00848511,0.793819807 2,1.03125" stroke="#1E1E1E" stroke-width="0.6" fill="#EEEEEE" stroke-linejoin="round"></path>
                        <path d="M0.71875,1.5 C0.71875,1.5 1.40625,1.5 1.5,1.1875 C1.5625,0.875 1.4375,0.53125 1.4375,0.53125 C1.4375,0.53125 1.75,0.90625 1.6875,1.15625 C1.59375,1.46875 1.5,1.5625 1.25,1.59375 C1.06740243,1.62656926 0.879084745,1.59333673 0.71875,1.5 Z" fill="#A3AFB8"></path>
                    </g>
                    <g transform="translate(17.812500, 7.187500)" id="Path">
                        <path d="M2.09375,1.1875 C2.10222173,1.4415096 2.00720243,1.6880744 1.83046049,1.87070773 C1.65371855,2.05334107 1.4104008,2.15639124 1.15625,2.15625 C0.902240398,2.16472173 0.655675603,2.06970243 0.473042267,1.89296049 C0.290408931,1.71621855 0.187358765,1.4729008 0.1875,1.21875 C0.170175449,0.959469539 0.261245071,0.704629396 0.438973063,0.515052871 C0.616701055,0.325476347 0.865142032,0.21817185 1.125,0.21875 C1.3791508,0.218608765 1.62246855,0.321658931 1.79921049,0.504292267 C1.97595243,0.686925603 2.07097173,0.933490398 2.0625,1.1875" stroke="#1E1E1E" stroke-width="0.6" fill="#EEEEEE" stroke-linejoin="round"></path>
                        <path d="M0.6875,1.6875 C0.6875,1.6875 1.46875,1.6875 1.53125,1.375 C1.59375,1.0625 1.46875,0.65625 1.46875,0.65625 C1.46875,0.65625 1.84375,1.0625 1.75,1.375 C1.625,1.6875 1.53125,1.75 1.28125,1.8125 C1.07461743,1.84907038 0.861848915,1.804277 0.6875,1.6875 Z" fill="#A3AFB8"></path>
                    </g>
                    <path d="M20,10.71875 C20,11.28125 19.53125,11.78125 18.9375,11.78125 C18.3629364,11.7643438 17.9060013,11.2935622 17.90625,10.71875 C17.897839,10.4369237 18.0017908,10.1633106 18.1952134,9.95816548 C18.3886359,9.75302036 18.6556665,9.63316722 18.9375,9.625 C19.2192925,9.625 19.4895436,9.73694164 19.688801,9.93619904 C19.8880584,10.1354564 20,10.4057075 20,10.6875" id="Path" stroke="#1E1E1E" stroke-width="0.6" fill="#EEEEEE" stroke-linejoin="round"></path>
                    <path d="M18.4375,11.25 C18.4375,11.25 19.3125,11.25 19.375,10.90625 C19.46875,10.5625 19.34375,10.09375 19.34375,10.09375 C19.34375,10.09375 19.75,10.5625 19.625,10.90625 C19.5,11.21875 19.40625,11.34375 19.09375,11.40625 C18.8735003,11.429631 18.6520852,11.3742772 18.46875,11.25 L18.4375,11.25 Z" id="Path" fill="#A3AFB8"></path>
                    <g transform="translate(17.812500, 14.375000)" id="Path">
                        <path d="M2.09375,1.09375 C2.09375,1.65625 1.65625,2.09375 1.09375,2.09375 C0.54146525,2.09375 0.09375,1.64603475 0.09375,1.09375 C0.09375,0.5625 0.53125,0.09375 1.09375,0.09375 C1.64603475,0.09375 2.09375,0.54146525 2.09375,1.09375" stroke="#1E1E1E" stroke-width="0.6" fill="#EEEEEE" stroke-linejoin="round"></path>
                        <path d="M0.625,1.625 C0.625,1.625 1.4375,1.625 1.5,1.28125 C1.59375,0.96875 1.46875,0.53125 1.46875,0.53125 C1.46875,0.53125 1.84375,0.9375 1.71875,1.28125 C1.625,1.59375 1.5,1.6875 1.25,1.75 C1.0625,1.78125 0.78125,1.71875 0.625,1.625 Z" fill="#A3AFB8"></path>
                    </g>
                    <path d="M17.0625,4.15625 C17.0625,4.75 16.5625,5.21875 16,5.21875 C15.4131975,5.21875 14.9375,4.74305255 14.9375,4.15625 C14.9375,3.56944745 15.4131975,3.09375 16,3.09375 C16.2817925,3.09375 16.5520436,3.20569164 16.751301,3.40494904 C16.9505584,3.60420645 17.0625,3.87445748 17.0625,4.15625" id="Path" stroke="#1E1E1E" stroke-width="0.6" fill="#EEEEEE" stroke-linejoin="round"></path>
                    <path d="M15.5,4.6875 C15.5,4.6875 16.34375,4.6875 16.4375,4.375 C16.53125,4 16.375,3.5625 16.375,3.5625 C16.375,3.5625 16.78125,4 16.6875,4.34375 C16.5625,4.6875 16.4375,4.78125 16.15625,4.84375 C15.9397116,4.87635517 15.7185911,4.83213107 15.53125,4.71875 L15.5,4.6875 Z" id="Path" fill="#A3AFB8"></path>
                    <path d="M14.4375,3.125 C14.4375,3.71875 13.96875,4.1875 13.375,4.1875 C12.8004364,4.17059381 12.3435013,3.69981217 12.34375,3.125 C12.3435013,2.55018783 12.8004364,2.07940619 13.375,2.0625 C13.9618025,2.0625 14.4375,2.53819745 14.4375,3.125" id="Path" stroke="#1E1E1E" stroke-width="0.6" fill="#EEEEEE" stroke-linejoin="round"></path>
                    <path d="M12.90625,3.6875 C12.90625,3.6875 13.75,3.6875 13.84375,3.3125 C13.90625,3 13.78125,2.53125 13.78125,2.53125 C13.78125,2.53125 14.1875,2.96875 14.09375,3.3125 C13.9375,3.65625 13.84375,3.75 13.53125,3.8125 C13.34375,3.875 13.0625,3.8125 12.90625,3.6875 Z" id="Path" fill="#A3AFB8"></path>
                    <path d="M11.9375,1.96875 C11.9375,2.53125 11.46875,3.03125 10.90625,3.03125 C10.3194475,3.03125 9.84375,2.55555255 9.84375,1.96875 C9.83533899,1.68692371 9.93929084,1.4133106 10.1327134,1.20816548 C10.3261359,1.00302036 10.5931665,0.883167215 10.875,0.875 C11.4618025,0.875 11.9375,1.35069745 11.9375,1.9375" id="Path" stroke="#1E1E1E" stroke-width="0.6" fill="#EEEEEE" stroke-linejoin="round"></path>
                    <path d="M10.40625,2.5 C10.40625,2.5 11.25,2.5 11.34375,2.15625 C11.4375,1.8125 11.28125,1.34375 11.28125,1.34375 C11.28125,1.34375 11.6875,1.8125 11.59375,2.15625 C11.46875,2.46875 11.34375,2.59375 11.0625,2.65625 C10.8319401,2.68740009 10.5980342,2.63170821 10.40625,2.5 Z" id="Path" fill="#A3AFB8"></path>
                    <path d="M9.0625,1.34375 C9.0625,1.9375 8.625,2.40625 8.03125,2.40625 C7.44444745,2.40625 6.96875,1.93055255 6.96875,1.34375 C6.96030022,1.05658282 7.06850041,0.778233361 7.268681,0.572165111 C7.46886158,0.366096861 7.74395855,0.249875711 8.03125,0.25 C8.61805255,0.25 9.09375,0.725697453 9.09375,1.3125" id="Path" stroke="#1E1E1E" stroke-width="0.6" fill="#EEEEEE" stroke-linejoin="round"></path>
                    <path d="M7.53125,1.875 C7.53125,1.875 8.375,1.875 8.46875,1.53125 C8.5625,1.1875 8.40625,0.71875 8.40625,0.71875 C8.40625,0.71875 8.8125,1.1875 8.71875,1.53125 C8.59375,1.84375 8.46875,1.96875 8.1875,2.03125 C7.96725028,2.05463098 7.74583518,1.9992772 7.5625,1.875 L7.53125,1.875 Z" id="Path" fill="#A3AFB8"></path>
                    <path d="M5.6875,2.125 C5.6875,2.75 5.21875,3.1875 4.65625,3.21875 C4.06944745,3.21875 3.59375,2.74305255 3.59375,2.15625 C3.58530022,1.86908282 3.69350041,1.59073336 3.893681,1.38466511 C4.09386158,1.17859686 4.36895855,1.06237571 4.65625,1.0625 C5.23081355,1.07940619 5.68774867,1.55018783 5.6875,2.125" id="Path" stroke="#1E1E1E" stroke-width="0.6" fill="#EEEEEE" stroke-linejoin="round"></path>
                    <path d="M4.15625,2.6875 C4.15625,2.6875 5,2.6875 5.09375,2.34375 C5.1875,1.96875 5.03125,1.53125 5.03125,1.53125 C5.03125,1.53125 5.4375,1.96875 5.34375,2.3125 C5.21875,2.65625 5.09375,2.75 4.8125,2.84375 C4.59225028,2.86713098 4.37083518,2.8117772 4.1875,2.6875 L4.15625,2.6875 Z" id="Path" fill="#A3AFB8"></path>
                    <path d="M3.3125,4.53125 C3.3125,5.125 2.84375,5.59375 2.25,5.59375 C1.67543645,5.57684381 1.21850133,5.10606217 1.21875,4.53125 C1.21850133,3.95643783 1.67543645,3.48565619 2.25,3.46875 C2.83680255,3.46875 3.3125,3.94444745 3.3125,4.53125" id="Path" stroke="#1E1E1E" stroke-width="0.6" fill="#EEEEEE" stroke-linejoin="round"></path>
                    <path d="M1.78125,5.0625 C1.78125,5.0625 2.625,5.0625 2.71875,4.71875 C2.78125,4.375 2.65625,3.90625 2.65625,3.90625 C2.65625,3.90625 3.0625,4.375 2.9375,4.71875 C2.8125,5.03125 2.71875,5.15625 2.40625,5.21875 C2.18600028,5.24213098 1.96458518,5.1867772 1.78125,5.0625 Z" id="Path" fill="#A3AFB8"></path>
                    <path d="M2.3125,7.875 C2.3125,8.46875 1.84375,8.9375 1.28125,8.9375 C0.694447453,8.9375 0.21875,8.46180255 0.21875,7.875 C0.218501327,7.30018783 0.675436449,6.82940619 1.25,6.8125 C1.82481217,6.81225133 2.29559381,7.26918645 2.3125,7.84375" id="Path" stroke="#1E1E1E" stroke-width="0.6" fill="#EEEEEE" stroke-linejoin="round"></path>
                    <path d="M0.78125,8.4375 C0.78125,8.4375 1.625,8.40625 1.71875,8.0625 C1.8125,7.71875 1.65625,7.25 1.65625,7.25 C1.65625,7.25 2.0625,7.71875 1.96875,8.0625 C1.84375,8.375 1.71875,8.5 1.4375,8.5625 C1.20694006,8.59365009 0.973034157,8.53795821 0.78125,8.40625 L0.78125,8.4375 Z" id="Path" fill="#A3AFB8"></path>
                    <path d="M2.75,11.34375 C2.75,11.96875 2.28125,12.4375 1.71875,12.4375 C1.13194745,12.4375 0.65625,11.9618025 0.65625,11.375 C0.647838987,11.0931737 0.751790842,10.8195606 0.945213385,10.6144155 C1.13863593,10.4092704 1.40566654,10.2894172 1.6875,10.28125 C2.27430255,10.28125 2.75,10.7569475 2.75,11.34375" id="Path" stroke="#1E1E1E" stroke-width="0.6" fill="#EEEEEE" stroke-linejoin="round"></path>
                    <path d="M1.21875,11.90625 C1.21875,11.90625 2.0625,11.90625 2.15625,11.53125 C2.25,11.21875 2.09375,10.75 2.09375,10.75 C2.09375,10.75 2.5,11.1875 2.40625,11.53125 C2.28125,11.875 2.15625,11.96875 1.875,12.0625 C1.65475028,12.085881 1.43333518,12.0305272 1.25,11.90625 L1.21875,11.90625 Z" id="Path" fill="#A3AFB8"></path>
                    <path d="M4.375,14.53125 C4.375,15.09375 3.90625,15.59375 3.3125,15.59375 C2.73793645,15.5768438 2.28100133,15.1060622 2.28125,14.53125 C2.27283899,14.2494237 2.37679084,13.9758106 2.57021339,13.7706655 C2.76363593,13.5655204 3.03066654,13.4456672 3.3125,13.4375 C3.59429252,13.4375 3.86454355,13.5494416 4.06380096,13.748699 C4.26305836,13.9479564 4.375,14.2182075 4.375,14.5" id="Path" stroke="#1E1E1E" stroke-width="0.6" fill="#EEEEEE" stroke-linejoin="round"></path>
                    <path d="M2.8125,15.0625 C2.8125,15.0625 3.6875,15.0625 3.75,14.71875 C3.84375,14.375 3.71875,13.90625 3.71875,13.90625 C3.71875,13.90625 4.125,14.34375 4.03125,14.6875 C3.875,15.03125 3.78125,15.125 3.5,15.21875 C3.26944006,15.2499001 3.03553416,15.1942082 2.84375,15.0625 L2.8125,15.0625 Z" id="Path" fill="#A3AFB8"></path>
                    <g transform="translate(4.375000, 17.187500)" id="Path">
                        <path d="M1.85159205,1.47707281 C1.85163501,2.05585845 1.56033052,2.52757112 1.19736164,2.53647551 C0.830394519,2.53647551 0.532908886,2.06216476 0.532908886,1.47707281 C0.532865924,0.898287171 0.824170419,0.426574509 1.18713929,0.417670118 C1.55410642,0.417670118 1.85159205,0.89198086 1.85159205,1.47707281" stroke="#1E1E1E" stroke-width="0.25" fill="#EEEEEE" stroke-linejoin="round" transform="translate(1.192250, 1.477073) rotate(-15.000209) translate(-1.192250, -1.477073) "></path>
                        <path d="M1.03125,2.09375 C1.03125,2.09375 1.53125,1.9375 1.5,1.59375 C1.5,1.25 1.28125,0.84375 1.28125,0.84375 C1.28125,0.84375 1.625,1.1875 1.65625,1.5625 C1.65625,1.875 1.625,2 1.46875,2.125 C1.375,2.1875 1.15625,2.1875 1.03125,2.09375 Z" fill="#A3AFB8"></path>
                    </g>
                    <g transform="translate(31.562500, 17.187500)" id="Path">
                        <path d="M1.83951336,1.3521325 C1.83955633,1.93092757 1.54825284,2.40264791 1.18528522,2.41155245 C0.818319364,2.41155245 0.52083476,1.93723398 0.52083476,1.3521325 C0.520791798,0.773337431 0.812095286,0.301617086 1.17506291,0.29271255 C1.54202876,0.29271255 1.83951336,0.767031018 1.83951336,1.3521325" stroke="#1E1E1E" stroke-width="0.25" fill="#EEEEEE" stroke-linejoin="round" transform="translate(1.180174, 1.352133) rotate(13.866811) translate(-1.180174, -1.352133) "></path>
                        <path d="M0.71875,1.8125 C0.71875,1.8125 1.25,1.9375 1.375,1.59375 C1.53125,1.28125 1.53125,0.8125 1.53125,0.8125 C1.53125,0.8125 1.6875,1.3125 1.53125,1.625 C1.375,1.9375 1.28125,2.03125 1.09375,2.03125 C0.96875,2.0625 0.78125,1.9375 0.71875,1.8125 Z" fill="#A3AFB8"></path>
                    </g>
                </g>
                <path d="M98.96875,16.8125 L99.0625,18.59375 C99.0625,18.59375 96.9375,18.78125 96.875,18.96875 C96.4375,19.90625 97.34375,21.15625 97.34375,21.15625 C97.34375,21.15625 98.0625,20.59375 99.84375,20.59375 C101.5625,20.59375 102.4375,21.03125 102.4375,21.03125 C102.4375,21.03125 102.875,20.3125 102.875,19.78125 C102.875,19.25 102.6875,18.71875 102.6875,18.71875 L101.5625,18.59375 L100.78125,18.59375 L100.71875,16.78125 L98.96875,16.8125 Z" id="Path" stroke="#000000" stroke-width="0.6" fill="#B3A192"></path>
                <path d="M102,19.5625 C102,19.78125 101.8125,19.9375 101.625,19.9375 C101.40625,19.9375 101.21875,19.78125 101.21875,19.59375 C101.21875,19.375 101.40625,19.21875 101.59375,19.21875 C101.8125,19.21875 101.96875,19.375 102,19.5625 M102.84375,19.78125 C102.84375,19.96875 102.6875,20.15625 102.46875,20.15625 C102.25,20.15625 102.0625,19.96875 102.0625,19.78125 C102.0625,19.5625 102.25,19.40625 102.46875,19.40625 C102.6875,19.40625 102.84375,19.5625 102.84375,19.78125 M101.125,19.5625 C101.125,19.75 100.9375,19.9375 100.75,19.9375 C100.53125,19.9375 100.375,19.75 100.375,19.5625 C100.375,19.375 100.53125,19.1875 100.71875,19.1875 C100.9375,19.1875 101.125,19.375 101.125,19.5625 M99.375,19.5625 C99.375,19.78125 99.1875,19.96875 98.96875,19.96875 C98.75,19.96875 98.59375,19.78125 98.59375,19.59375 C98.59375,19.375 98.75,19.21875 98.96875,19.21875 C99.1875,19.21875 99.375,19.375 99.375,19.59375 M98.40625,19.65625 C98.40625,19.84375 98.21875,20.03125 98,20.03125 C97.78125,20.03125 97.625,19.875 97.625,19.65625 C97.625,19.4375 97.78125,19.28125 98,19.28125 C98.21875,19.28125 98.40625,19.4375 98.40625,19.65625 M100.1875,18.5625 C100.1875,18.75 100.03125,18.875 99.875,18.875 C99.7819627,18.8940114 99.6853285,18.8696878 99.6123783,18.808896 C99.5394282,18.7481042 99.4980774,18.6574403 99.5,18.5625 C99.5,18.375 99.65625,18.25 99.84375,18.25 C100.03125,18.25 100.15625,18.375 100.15625,18.5625 M100.15625,17.09375 C100.15625,17.25 100.03125,17.40625 99.84375,17.40625 C99.671161,17.40625 99.53125,17.266339 99.53125,17.09375 C99.53125,16.90625 99.65625,16.78125 99.84375,16.78125 C100.03125,16.78125 100.15625,16.90625 100.15625,17.09375 M100.15625,17.875 C100.15625,18.0625 100.03125,18.1875 99.84375,18.1875 C99.65625,18.1875 99.53125,18.0625 99.53125,17.875 C99.53125,17.71875 99.65625,17.5625 99.84375,17.5625 C100.03125,17.5625 100.15625,17.6875 100.15625,17.875 M97.40625,19.90625 C97.40625,20.125 97.25,20.28125 97.03125,20.28125 C96.84375,20.28125 96.65625,20.125 96.65625,19.90625 C96.65625,19.71875 96.8125,19.5625 97.03125,19.5625 C97.25,19.5625 97.40625,19.71875 97.40625,19.90625" id="Shape" stroke="#121116" stroke-width="0.3" fill="#F0DDCB" fill-rule="nonzero" stroke-linejoin="round"></path>
                <path d="M100.28125,19.5 C100.28125,19.71875 100.09375,19.875 99.84375,19.875 C99.6310424,19.8756302 99.4538613,19.7120783 99.4375,19.5 C99.4375,19.28125 99.625,19.09375 99.84375,19.09375 C100.0625,19.09375 100.25,19.28125 100.25,19.5" id="Path" stroke="#4D3126" stroke-width="0.3" fill="#916C68" stroke-linejoin="round"></path>
                <g id="Group" transform="translate(99.062500, 13.125000)">
                    <path d="M1.5625,1.09375 C1.56283578,1.51330745 1.23172181,1.85821783 0.8125,1.875 C0.381027539,1.875 0.03125,1.52522246 0.03125,1.09375 C0.0227407211,0.881189985 0.101278703,0.674351578 0.248723908,0.521008565 C0.396169112,0.367665552 0.599769798,0.281079745 0.8125,0.28125 C1.24397246,0.28125 1.59375,0.631027539 1.59375,1.0625" id="Path" stroke="#1E1E1E" stroke-width="0.6" fill="#EEEEEE" stroke-linejoin="round"></path>
                    <path d="M0.4375,1.5 C0.4375,1.5 1.0625,1.5 1.125,1.1875 C1.1875,0.96875 1.09375,0.625 1.09375,0.625 C1.09375,0.625 1.40625,0.9375 1.3125,1.21875 C1.21875,1.46875 1.125,1.53125 0.9375,1.59375 C0.764977027,1.62757987 0.586049084,1.59403088 0.4375,1.5 Z" id="Path" fill="#A3AFB8"></path>
                </g>
                <path d="M87.5,40.65625 C87.5,40.65625 88.1875,41.3125 88.375,41.90625 C88.5625,42.46875 88.84375,44.03125 88.84375,44.03125 C88.84375,44.03125 96.09375,42 99.65625,42.15625 C103.21875,42.34375 111.4375,44.125 111.4375,44.125 L111.75,42.34375 C111.90625,41.40625 112.59375,40.375 112.59375,40.375 C112.59375,40.375 104.75,37.9375 99.78125,38.1875 C96.9041712,38.2122261 94.0402671,38.5793933 91.25,39.28125 C89.9888584,39.7086061 88.7384763,40.1670796 87.5,40.65625 Z" id="Path" stroke="#000000" stroke-width="0.25" fill="#FFCC00"></path>
                <path d="M98.34375,11.25 L101.46875,11.25 C101.46875,11.25 100.6875,11.78125 100.53125,12.3125 C100.40625,12.75 100.4375,13.46875 100.4375,13.46875 C100.4375,13.46875 101.28125,13.46875 101.6875,13.15625 C102.063818,12.8427347 102.449406,12.5405169 102.84375,12.25 L102.84375,16.21875 C102.84375,16.21875 102.0625,15.5 101.59375,15.25 C101.248341,15.0676923 100.880668,14.931128 100.5,14.84375 C100.5,14.84375 100.5,15.46875 100.75,15.875 C101,16.28125 102.09375,17.6875 102.09375,17.6875 L97.625,17.84375 C97.625,17.84375 98.6875,16.75 99.125,15.9375 C99.40625,15.40625 99.28125,14.84375 99.28125,14.84375 C99.28125,14.84375 98.53125,14.84375 98.15625,15.125 C97.75,15.375 97.09375,16.15625 97.09375,16.15625 L97.09375,12.34375 C97.09375,12.34375 97.40625,13.09375 98.03125,13.375 C98.65625,13.65625 99.21875,13.5 99.21875,13.5 C99.21875,13.5 99.34375,12.75 99.09375,12.25 C98.84375,11.78125 98.28125,11.25 98.34375,11.28125 L98.34375,11.25 Z" id="Path" stroke="#000000" stroke-width="0.6" fill="#FFCC00"></path>
                <path d="M98.09375,23.90625 C98.09375,23.90625 95.875,23.875 93.96875,22.75 C92.0625,21.625 90.125,20.4375 87.3125,21.09375 C86.75,21.25 84.625,22.1875 83.6875,25.21875 C83.1975755,27.1918967 83.465185,29.2770204 84.4375,31.0625 C84.9481802,31.8857137 85.5340161,32.659854 86.1875,33.375 L87.34375,32.59375 C87.34375,32.59375 84.4375,30.09375 84.78125,26.90625 C85.09375,23.6875 86.71875,22.9375 86.71875,22.9375 C86.71875,22.9375 88.71875,21.375 91.375,22.84375 C93.8391219,24.187375 96.5119061,25.1064747 99.28125,25.5625 C99.46875,25.53125 98.03125,23.875 98.09375,23.90625 Z" id="Path" stroke="#121116" stroke-width="0.6" fill="#FFCC00"></path>
                <path d="M85.78125,35.9375 L84.59375,33.625 L88.15625,32.25 C88.15625,32.25 87.28125,33.375 87.09375,34.1875 C86.84375,35.1875 86.9375,36.03125 86.9375,36.03125 C86.9375,36.03125 87.25,35.78125 87.65625,35.125 C87.96875,34.65625 88.46875,32.84375 88.46875,32.84375 L90.0625,37.9375 C90.0625,37.9375 89.25,37.125 88.65625,37.03125 C88.03125,36.90625 87.21875,37.125 87.21875,37.125 L86.28125,37.4375 L85.78125,35.9375 Z" id="Path" stroke="#000000" stroke-width="0.6" fill="#FFCC00"></path>
                <path d="M102.09375,23.84375 C102.09375,23.84375 104.3125,23.84375 106.21875,22.6875 C108.125,21.5625 110.03125,20.40625 112.875,21.0625 C113.4375,21.1875 115.5625,22.125 116.5,25.15625 C116.980429,27.1332772 116.701642,29.2186039 115.71875,31 C115.362036,31.6255557 114.986871,32.2404086 114.59375,32.84375 L113.21875,32.34375 C113.21875,32.34375 115.75,30.0625 115.40625,26.84375 C115.0625,23.625 113.46875,22.875 113.46875,22.875 C113.46875,22.875 111.46875,21.3125 108.8125,22.8125 C106.15625,24.28125 103.5625,24.9375 103.5625,24.9375 C103.5625,24.9375 101.125,25.5625 100.90625,25.5 C100.6875,25.5 102.15625,23.8125 102.09375,23.84375 Z" id="Path" stroke="#121116" stroke-width="0.6" fill="#FFCC00"></path>
                <path d="M100.9375,21.65625 L101.875,21.65625 L101.875,30.3125 L100.9375,30.3125 L100.9375,21.65625 Z M97.8125,21.59375 L98.90625,21.59375 L98.90625,30.25 L97.8125,30.25 L97.8125,21.59375 Z" id="Shape" stroke="#121116" stroke-width="0.6" fill="#FFCC00" fill-rule="nonzero" stroke-linejoin="round"></path>
                <path d="M102.875,19.59375 C102.875,21.15625 101.53125,22.40625 99.84375,22.40625 C98.1875,22.40625 96.8125,21.15625 96.8125,19.59375 C96.8125,18.0625 98.15625,16.8125 99.8125,16.8125 C101.5,16.8125 102.875,18.0625 102.875,19.59375" id="Path" stroke="#121116" stroke-width="0.6" fill="#FFCC00" stroke-linejoin="round"></path>
                <path d="M97.15625,30.25 L102.375,30.1875 C102.375,30.1875 101.75,30.5625 101.21875,31.5 C100.71875,32.4375 100.78125,33 100.78125,33 C100.78125,33 101.5625,33 102.125,32.59375 C102.559357,32.2499847 102.957276,31.8625371 103.3125,31.4375 L103.3125,36.21875 C103.3125,36.21875 102.90625,35.59375 102.28125,35.28125 C101.65625,34.875 100.78125,34.875 100.78125,34.875 L99,34.875 C99,34.875 98.1875,34.9375 97.84375,35.1875 C97.4308571,35.4876736 97.0440647,35.8221968 96.6875,36.1875 L96.59375,31.625 C96.59375,31.625 96.84375,32.4375 97.6875,32.75 C98.53125,33.0625 99,33.0625 99,33.0625 C99,33.0625 99,32 98.5625,31.5 C98.1328188,31.0413531 97.6621102,30.6229455 97.15625,30.25 Z" id="Path" stroke="#000000" stroke-width="0.5" fill="#FFCC00"></path>
                <path d="M100.0625,34 C100.0625,34 100.8125,35.78125 101.71875,36.5625 C102.21875,37.03125 103.78125,37.375 104.46875,37.1875 C106.03125,36.78125 107.15625,35.53125 107.15625,35.53125 C107.15625,35.53125 107.09375,36.90625 108.09375,37.6875 C109.0625,38.4375 109.84375,38.625 110.65625,38.40625 C111.5,38.1875 113.78125,36.46875 113.78125,36.46875 L114.28125,36.875 C114.28125,36.875 112.9375,38.1875 111.5625,38.84375 C110.84375,39.21875 108.65625,39 107.96875,38.4375 C107.25,37.875 106.84375,36.53125 106.84375,36.53125 C106.84375,36.53125 106.40625,37.40625 105.46875,37.71875 C104.53125,38.03125 103.28125,38.03125 102.0625,37.65625 C101.28125,37.40625 100.21875,36.3125 100.03125,35.9375 C99.84375,35.59375 99.90625,35.375 99.90625,35.375 C99.90625,35.375 99.28125,37.0625 98.09375,37.53125 C96.938748,37.9496084 95.6812787,37.9933465 94.5,37.65625 C93.375,37.34375 93.28125,36.6875 93.28125,36.6875 C93.28125,36.6875 93.21875,38.46875 90.78125,38.96875 C88.28125,39.46875 86.34375,37.6875 86.34375,37.6875 L86.6875,37.15625 C86.6875,37.15625 88.0625,38.71875 90.1875,38.59375 C92.3125,38.4375 93,35.71875 93,35.71875 C93,35.71875 93.9375,37.125 96.4375,37.15625 C98.90625,37.1875 99.625,33.9375 99.625,33.9375 L100.0625,34 Z" id="Path" stroke="#000000" stroke-width="0.45" fill="#F6CA1F"></path>
                <g id="Group" transform="translate(88.750000, 28.750000)" fill="#FFCC00" stroke="#000000" stroke-width="0.55">
                    <path d="M5.1875,6.28125 C5.1875,6.28125 5.1875,5.4375 5.40625,5.15625 C5.65625,4.8125 6.03125,4.78125 6.21875,4.84375 C6.4375,4.90625 6.65625,5.09375 6.625,5.71875 C6.59375,6.3125 6.40625,6.59375 6.625,6.84375 C6.78125,7.0625 6.8125,7.21875 7.15625,7.15625 C7.46875,7.09375 7.65625,7 7.5625,6.6875 C7.46875,6.375 7.40625,6.6875 7.34375,6.4375 C7.28125,6.15625 7.65625,5 7.59375,4.28125 C7.53125,3.59375 7.28125,3.03125 6.71875,2.875 C6.21875,2.75 5.78125,2.75 5.3125,3.09375 C4.875,3.40625 4.28125,4.5 4.28125,4.5 L4.28125,6.84375 L5.21875,6.78125 L5.21875,6.28125 L5.1875,6.28125 Z" id="Path"></path>
                    <path d="M3.4375,6.90625 C3.4375,6.90625 3.0625,6.125 2.8125,5.96875 C2.54819084,5.79009647 2.20180916,5.79009647 1.9375,5.96875 C1.75,6.125 1.625,6.40625 1.90625,6.9375 C2.15625,7.46875 2.4375,7.6875 2.34375,7.96875 C2.28125,8.25 2.34375,8.40625 2,8.5 C1.65625,8.59375 1.46875,8.53125 1.40625,8.1875 C1.34375,7.875 1.59375,8.1875 1.53125,7.875 C1.5,7.625 0.65625,6.71875 0.4375,6.03125 C0.21875,5.375 0.25,4.75 0.6875,4.40625 C1.09375,4.09375 1.46875,3.90625 2.03125,4.03125 C2.59375,4.15625 3.5625,4.9375 3.5625,4.9375 L4.5,7.0625 L3.625,7.375 L3.4375,6.90625 Z" id="Path"></path>
                    <path d="M3.25,0.03125 C3.25,0.03125 2.3125,1.59375 2.53125,2.78125 C2.75,3.96875 3.96875,6.53125 3.96875,6.53125 L3.96875,6.84375 L4.65625,6.78125 L4.5,6.4375 C4.5,6.4375 4.8125,3.375 4.625,2.40625 C4.27452109,1.55686162 3.8120942,0.758124265 3.25,0.03125 Z M4.71875,7.125 C4.71875,7.125 5.1875,7.65625 5.71875,7.9375 C6.34375,8.21875 6.59375,8.25 6.8125,8.03125 C7,7.90625 6.9375,7.34375 6.71875,7.1875 C6.53125,7.03125 6.28125,7.125 6.25,7.28125 C6.1875,7.53125 6.125,7.53125 5.9375,7.40625 C5.625,7.28125 5,6.875 5,6.875 L4.71875,7.125 Z M4,7.25 C4,7.25 3.8125,7.9375 3.4375,8.40625 C3,8.90625 2.78125,9.03125 2.5,8.9375 C2.28125,8.90625 2.09375,8.375 2.21875,8.125 C2.34375,7.90625 2.59375,7.875 2.6875,8 C2.84375,8.21875 2.90625,8.1875 3.03125,8 L3.65625,7.15625 L4,7.21875 L4,7.25 Z" id="Shape" fill-rule="nonzero"></path>
                    <path d="M5.75,6.6875 C5.8125,6.875 5.1875,7.15625 4.40625,7.28125 C3.625,7.40625 2.96875,7.375 2.90625,7.15625 C2.90625,6.96875 3.5,6.6875 4.28125,6.53125 C5.0625,6.40625 5.71875,6.46875 5.75,6.6875" id="Path" stroke-linejoin="round"></path>
                </g>
                <g id="Group" transform="translate(103.437500, 28.750000)" fill="#FFCC00" stroke="#000000" stroke-width="0.55">
                    <path d="M4.5625,6.625 C4.5625,6.625 4.875,5.84375 5.1875,5.65625 C5.53125,5.40625 5.875,5.5 6.03125,5.65625 C6.21875,5.75 6.34375,6.03125 6.125,6.59375 C5.875,7.125 5.625,7.34375 5.6875,7.625 C5.78125,7.9375 5.75,8.0625 6.09375,8.125 C6.4375,8.21875 6.625,8.15625 6.65625,7.8125 C6.6875,7.5 6.5,7.8125 6.53125,7.5 C6.53125,7.25 7.34375,6.28125 7.53125,5.625 C7.71875,4.90625 7.65625,4.3125 7.21875,3.96875 C6.78125,3.65625 6.375,3.53125 5.8125,3.6875 C5.28125,3.84375 4.34375,4.65625 4.34375,4.65625 L3.53125,6.84375 L4.4375,7.125 L4.5625,6.625 Z" id="Path"></path>
                    <path d="M2.71875,6.59375 C2.71875,6.59375 2.65625,5.75 2.4375,5.5 C2.15625,5.15625 1.8125,5.15625 1.625,5.1875 C1.40625,5.28125 1.1875,5.5 1.25,6.09375 C1.3125,6.71875 1.5,6.96875 1.34375,7.21875 C1.15625,7.46875 1.15625,7.59375 0.8125,7.5625 C0.46875,7.5625 0.28125,7.4375 0.34375,7.125 C0.40625,6.8125 0.53125,7.125 0.59375,6.84375 C0.625,6.59375 0.1875,5.4375 0.21875,4.71875 C0.21875,4.03125 0.46875,3.46875 1,3.28125 C1.5,3.125 1.9375,3.09375 2.40625,3.4375 C2.875,3.75 3.53125,4.78125 3.53125,4.78125 L3.65625,7.09375 L2.71875,7.09375 L2.71875,6.59375 Z" id="Path"></path>
                    <path d="M4.9375,0.09375 C4.9375,0.09375 3.53125,1.21875 3.3125,2.40625 C3.09375,3.59375 3.34375,6.40625 3.34375,6.40625 L3.25,6.71875 L3.875,6.90625 L3.875,6.53125 C3.875,6.53125 5.25,3.78125 5.40625,2.78125 C5.37350232,1.86820971 5.21578504,0.963964011 4.9375,0.09375 Z M3.84375,7.25 C3.84375,7.25 4.09375,7.90625 4.5,8.34375 C4.96875,8.84375 5.1875,8.9375 5.46875,8.84375 C5.6875,8.78125 5.8125,8.21875 5.6875,8.03125 C5.5625,7.8125 5.3125,7.8125 5.21875,7.9375 C5.0625,8.15625 5,8.09375 4.875,7.9375 C4.63992434,7.67172241 4.41070262,7.40082401 4.1875,7.125 L3.84375,7.25 Z M3.125,7.09375 C3.125,7.09375 2.71875,7.6875 2.1875,7.96875 C1.59375,8.3125 1.34375,8.34375 1.09375,8.15625 C0.90625,8.0625 0.9375,7.5 1.125,7.3125 C1.34375,7.15625 1.5625,7.21875 1.625,7.375 C1.6875,7.625 1.78125,7.59375 1.9375,7.5 L2.8125,6.875 L3.125,7.09375 Z" id="Shape" fill-rule="nonzero"></path>
                    <path d="M4.96875,7.1875 C4.9375,7.40625 4.25,7.4375 3.46875,7.28125 C2.6875,7.125 2.09375,6.84375 2.125,6.65625 C2.15625,6.4375 2.84375,6.40625 3.625,6.5625 C4.40625,6.71875 5,7 4.96875,7.1875" id="Path" stroke-linejoin="round"></path>
                </g>
                <path d="M87.1875,40.59375 C87.1875,40.59375 87.375,41.21875 87.71875,40.90625 C88.09375,40.5625 93.125,38.5625 100.21875,38.5625 C107.3125,38.5625 111.9375,40.53125 112.21875,40.65625 C112.5,40.75 112.625,40.90625 112.84375,40.65625 C113.09375,40.34375 112.625,39.9375 112.625,39.9375 C112.625,39.9375 107.6875,37.84375 100,37.875 C92.28125,37.90625 87.3125,40.09375 87.3125,40.09375 C87.3125,40.09375 87,40.34375 87.21875,40.59375 L87.1875,40.59375 Z" id="Path" stroke="#000000" stroke-width="0.25" fill="#CCA715"></path>
                <path d="M96.21875,43.53125 C96.21875,43.53125 96.4375,42.90625 96.84375,42.78125 C97.15625,42.6875 97.625,43 97.625,43 C97.625,43 97.03125,42.9375 96.84375,43.0625 C96.6875,43.15625 96.625,43.4375 96.625,43.4375 C96.625,43.4375 96.75,43.1875 97.21875,43.21875 L97.71875,43.21875 C97.71875,43.21875 96.9375,43.3125 96.78125,43.53125 C96.59375,43.75 97.5,43.84375 97.5,43.84375 C97.5,43.84375 96.09375,43.84375 95.9375,43.78125 C95.75,43.6875 95.625,43.40625 95.3125,43.46875 C95,43.59375 94.6875,43.875 94.6875,43.875 C94.6875,43.875 95.03125,43.25 95.25,43.25 C95.46875,43.25 95.625,43.25 95.8125,43.34375 L96.21875,43.53125 Z M90.96875,44.65625 C90.96875,44.65625 91.0625,44.03125 91.4375,43.8125 C91.75,43.65625 92.28125,43.875 92.28125,43.875 C92.28125,43.875 91.65625,43.9375 91.5,44.0625 C91.375,44.1875 91.375,44.5 91.375,44.5 C91.375,44.5 91.46875,44.25 91.90625,44.1875 C92.0732821,44.1582316 92.2399606,44.1269794 92.40625,44.09375 C92.40625,44.09375 91.65625,44.3125 91.53125,44.5625 C91.375,44.8125 92.3125,44.75 92.3125,44.75 C92.3125,44.75 90.9375,45 90.75,44.96875 C90.53125,44.90625 90.375,44.65625 90.09375,44.8125 C89.78125,44.9375 89.53125,45.28125 89.53125,45.28125 C89.53125,45.28125 89.78125,44.625 90,44.5625 C90.21875,44.53125 90.3125,44.5 90.5625,44.5625 L90.96875,44.65625 Z M100.625,43.3125 C100.625,43.3125 100.875,42.6875 101.25,42.59375 C101.59375,42.5 102.09375,42.84375 102.09375,42.84375 C102.09375,42.84375 101.46875,42.75 101.28125,42.84375 C101.125,42.9375 101.0625,43.21875 101.0625,43.21875 C101.0625,43.21875 101.1875,43 101.65625,43.0625 L102.15625,43.09375 C102.15625,43.09375 101.375,43.09375 101.1875,43.34375 C101,43.53125 101.90625,43.6875 101.90625,43.6875 C101.90625,43.6875 100.5,43.625 100.34375,43.53125 C100.15625,43.4375 100.03125,43.15625 99.71875,43.21875 C99.40625,43.28125 99.09375,43.53125 99.09375,43.53125 C99.09375,43.53125 99.46875,42.96875 99.6875,42.96875 C99.90625,42.96875 100.03125,42.96875 100.25,43.09375 L100.625,43.3125 Z M105.03125,43.8125 C105.03125,43.8125 105.34375,43.21875 105.78125,43.1875 C106.09375,43.125 106.53125,43.5 106.53125,43.5 C106.53125,43.5 105.96875,43.375 105.75,43.4375 C105.5625,43.5 105.46875,43.75 105.46875,43.75 C105.46875,43.75 105.625,43.5625 106.09375,43.65625 L106.59375,43.78125 C106.59375,43.78125 105.8125,43.71875 105.59375,43.90625 C105.375,44.09375 106.25,44.34375 106.25,44.34375 C106.25,44.34375 104.875,44.09375 104.6875,44 C104.5625,43.875 104.46875,43.5625 104.15625,43.59375 C103.84375,43.625 103.46875,43.84375 103.46875,43.84375 C103.46875,43.84375 103.9375,43.34375 104.15625,43.375 C104.375,43.375 104.5,43.40625 104.6875,43.53125 L105.03125,43.8125 Z M109.40625,44.59375 C109.40625,44.59375 109.71875,44.15625 110.0625,44.125 C110.34375,44.125 110.65625,44.46875 110.65625,44.46875 C110.65625,44.46875 110.1875,44.3125 110.03125,44.34375 C109.875,44.375 109.78125,44.59375 109.78125,44.59375 C109.78125,44.59375 109.9375,44.4375 110.28125,44.5625 L110.6875,44.6875 C110.6875,44.6875 110.0625,44.5625 109.875,44.6875 C109.6875,44.84375 110.375,45.125 110.375,45.125 C110.375,45.125 109.28125,44.8125 109.125,44.71875 C109.03125,44.625 109,44.375 108.75,44.375 C108.46875,44.375 108.15625,44.53125 108.15625,44.53125 C108.15625,44.53125 108.5625,44.125 108.75,44.1875 C108.90625,44.1875 109.03125,44.25 109.15625,44.34375 L109.4375,44.59375 L109.40625,44.59375 Z" id="Shape" fill="#000000" fill-rule="nonzero"></path>
                <path d="M95.3125,40.53125 C95.4375,41.0625 94.8125,41.625 93.9375,41.78125 C93.0625,41.96875 92.28125,41.6875 92.1875,41.15625 C92.09375,40.65625 92.6875,40.09375 93.5625,39.90625 C94.4375,39.71875 95.21875,40 95.3125,40.53125 Z" id="Path" stroke="#000000" stroke-width="0.35" fill="#0F6545" stroke-linejoin="round"></path>
                <path d="M93.375,40.4375 C93.375,40.5625 93.25,40.71875 93.0625,40.75 C92.875,40.78125 92.6875,40.71875 92.65625,40.59375 C92.65625,40.46875 92.78125,40.34375 92.96875,40.28125 C93.15625,40.28125 93.34375,40.3125 93.375,40.4375 Z" id="Path" fill="#CECFC1"></path>
                <path d="M107.53125,41.1875 C107.375,41.6875 106.59375,41.875 105.71875,41.625 C104.875,41.34375 104.34375,40.71875 104.46875,40.21875 C104.65625,39.71875 105.46875,39.5 106.3125,39.78125 C107.15625,40.03125 107.71875,40.65625 107.5625,41.15625 L107.53125,41.1875 Z" id="Path" stroke="#000000" stroke-width="0.35" fill="#0F6545" stroke-linejoin="round"></path>
                <path d="M105.875,40.15625 C105.8125,40.28125 105.65625,40.34375 105.46875,40.28125 C105.28125,40.21875 105.15625,40.0625 105.1875,39.96875 C105.21875,39.8125 105.40625,39.78125 105.59375,39.8125 C105.78125,39.875 105.90625,40.03125 105.875,40.125 L105.875,40.15625 Z" id="Path" fill="#CECFC1"></path>
                <polygon id="Path" stroke="#000000" stroke-width="0.5" fill="#1F2D86" stroke-linejoin="round" points="98.3125 39.375 101.46875 39.375 101.46875 40.9375 98.3125 40.9375"></polygon>
                <path d="M99.65625,39.6875 C99.65625,39.78125 99.53125,39.84375 99.34375,39.84375 C99.15625,39.84375 99.03125,39.78125 99.03125,39.6875 C99.03125,39.625 99.1875,39.5625 99.34375,39.5625 C99.5,39.5625 99.65625,39.625 99.65625,39.6875 Z" id="Path" fill="#707C8B"></path>
                <path d="M89.375,40.9375 L89.875,42.5 L88.9375,43.03125 C88.9375,43.03125 88.46875,43.34375 88,43.09375 C87.5625,42.875 87.3125,42.15625 87.5625,41.84375 C88.03125,41.28125 89.34375,40.90625 89.34375,40.9375 L89.375,40.9375 Z" id="Path" stroke="#000000" stroke-width="0.25" fill="#9F1209"></path>
                <path d="M88.5625,42.0625 C88.5625,42.3125 88.34375,42.53125 88.09375,42.53125 C87.84375,42.53125 87.65625,42.3125 87.65625,42.0625 C87.65625,41.78125 87.84375,41.59375 88.09375,41.59375 C88.34375,41.59375 88.5625,41.78125 88.5625,42.0625 Z" id="Path" fill="#8F322F"></path>
                <path d="M88.125,41.875 C88.140473,41.9537212 88.117226,42.0350857 88.0625,42.09375 C88.0168334,42.1303125 87.9519166,42.1303125 87.90625,42.09375 C87.8446479,42.0613398 87.7993473,42.0047141 87.78125,41.9375 C87.765777,41.8587788 87.789024,41.7774143 87.84375,41.71875 C87.881584,41.6721845 87.9471665,41.659068 88,41.6875 C88.0625,41.6875 88.125,41.78125 88.125,41.875 Z" id="Path" fill="#E2A494"></path>
                <path d="M110.59375,41.15625 L110.0625,42.53125 L111.3125,43.15625 C111.3125,43.15625 111.84375,43.40625 112.1875,43.125 C112.5,42.875 112.5625,42.25 112.3125,41.96875 C112.09375,41.65625 110.5625,41.15625 110.59375,41.15625 Z" id="Path" stroke="#000000" stroke-width="0.25" fill="#9F1209"></path>
                <path d="M112.0625,42.25 C112.0625,42.4375 111.875,42.5625 111.65625,42.5625 C111.4375,42.5625 111.28125,42.4375 111.28125,42.25 C111.28125,42.0625 111.46875,41.9375 111.65625,41.9375 C111.875,41.9375 112.0625,42.09375 112.0625,42.25 Z" id="Path" fill="#AA675D"></path>
                <path d="M111.6875,42.1875 C111.6875,42.28125 111.65625,42.375 111.59375,42.40625 C111.538194,42.4479167 111.461806,42.4479167 111.40625,42.40625 C111.34904,42.3605029 111.314772,42.2919664 111.3125,42.21875 C111.3125,42.125 111.34375,42.0625 111.40625,42.03125 C111.461806,41.9895833 111.538194,41.9895833 111.59375,42.03125 C111.65625,42.03125 111.6875,42.125 111.6875,42.21875 L111.6875,42.1875 Z" id="Path" fill="#E2A494"></path>
                <path d="M102.6875,39.5 C102.688156,39.5638598 102.660871,39.6248172 102.612809,39.6668715 C102.564747,39.7089257 102.500708,39.7278767 102.4375,39.71875 C102.316688,39.71875 102.21875,39.6208123 102.21875,39.5 C102.21875,39.3791877 102.316688,39.28125 102.4375,39.28125 C102.5625,39.28125 102.6875,39.375 102.6875,39.5 Z M104.03125,39.5625 C104.03125,39.6205161 104.008203,39.676156 103.96718,39.7171796 C103.926156,39.7582032 103.870516,39.78125 103.8125,39.78125 C103.749292,39.7903767 103.685253,39.7714257 103.637191,39.7293715 C103.589129,39.6873172 103.561844,39.6263598 103.5625,39.5625 C103.57022,39.504219 103.601074,39.4514985 103.648106,39.4162245 C103.695138,39.3809505 103.754389,39.3660924 103.8125,39.375 C103.90625,39.375 104.03125,39.4375 104.03125,39.5625 Z M103.34375,40.09375 C103.34375,40.25 103.21875,40.375 103.03125,40.375 C102.84375,40.375 102.78125,40.25 102.78125,40.09375 C102.78125,39.9375 102.90625,39.8125 103.0625,39.8125 C103.21875,39.8125 103.34375,39.9375 103.34375,40.125 L103.34375,40.09375 Z M103.96875,40.96875 C103.969873,41.0783412 103.889724,41.171849 103.78125,41.1875 C103.718042,41.1966267 103.654003,41.1776757 103.605941,41.1356215 C103.557879,41.0935672 103.530594,41.0326098 103.53125,40.96875 C103.53125,40.8479377 103.629188,40.75 103.75,40.75 C103.90625,40.75 104,40.84375 104,40.96875 L103.96875,40.96875 Z M102.6875,40.8125 C102.6875,40.9333123 102.589562,41.03125 102.46875,41.03125 C102.347938,41.03125 102.25,40.9333123 102.25,40.8125 C102.25,40.6916877 102.347938,40.59375 102.46875,40.59375 C102.59375,40.59375 102.6875,40.6875 102.6875,40.8125 Z M96.15625,39.71875 C96.1765762,39.829936 96.1088494,39.9382988 96,39.96875 C95.9419667,39.9879276 95.8785567,39.9819515 95.8251283,39.952269 C95.7716999,39.9225866 95.7331262,39.8719051 95.71875,39.8125 C95.7098424,39.7543887 95.7247005,39.6951379 95.7599745,39.6481059 C95.7952485,39.6010738 95.847969,39.5702198 95.90625,39.5625 C96.017436,39.5421738 96.1257988,39.6099006 96.15625,39.71875 Z M97.5,39.5 C97.5089076,39.5581113 97.4940495,39.6173621 97.4587755,39.6643941 C97.4235015,39.7114262 97.370781,39.7422802 97.3125,39.75 C97.201314,39.7703262 97.0929512,39.7025994 97.0625,39.59375 C97.0421738,39.482564 97.1099006,39.3742012 97.21875,39.34375 C97.2767833,39.3245724 97.3401933,39.3305485 97.3936217,39.360231 C97.4470501,39.3899134 97.4856238,39.4405949 97.5,39.5 Z M96.9375,40.15625 C96.96875,40.3125 96.875,40.46875 96.75,40.46875 C96.6035797,40.5093703 96.4513701,40.4263468 96.40625,40.28125 C96.375,40.15625 96.46875,39.96875 96.625,39.96875 C96.761048,39.9461824 96.89339,40.0255876 96.9375,40.15625 Z M97.78125,40.875 C97.8015762,40.986186 97.7338494,41.0945488 97.625,41.125 C97.5669667,41.1441776 97.5035567,41.1382015 97.4501283,41.108519 C97.3966999,41.0788366 97.3581262,41.0281551 97.34375,40.96875 C97.3234238,40.857564 97.3911506,40.7492012 97.5,40.71875 C97.5580333,40.6995724 97.6214433,40.7055485 97.6748717,40.735231 C97.7283001,40.7649134 97.7668738,40.8155949 97.78125,40.875 Z M96.46875,41 C96.4890762,41.111186 96.4213494,41.2195488 96.3125,41.25 C96.2544667,41.2691776 96.1910567,41.2632015 96.1376283,41.233519 C96.0841999,41.2038366 96.0456262,41.1531551 96.03125,41.09375 C96.0223424,41.0356387 96.0372005,40.9763879 96.0724745,40.9293559 C96.1077485,40.8823238 96.160469,40.8514698 96.21875,40.84375 C96.329936,40.8234238 96.4382988,40.8911506 96.46875,41 Z M90.46875,40.9375 C90.4997801,40.9946729 90.503755,41.0626901 90.4795957,41.1230883 C90.4554365,41.1834864 90.4056496,41.229999 90.34375,41.25 C90.2315849,41.2924848 90.1061271,41.2367257 90.0625,41.125 C90.0314699,41.0678271 90.027495,40.9998099 90.0516543,40.9394117 C90.0758135,40.8790136 90.1256004,40.832501 90.1875,40.8125 C90.2446729,40.7814699 90.3126901,40.777495 90.3730883,40.8016543 C90.4334864,40.8258135 90.479999,40.8756004 90.5,40.9375 L90.46875,40.9375 Z M91.75,40.53125 C91.7810301,40.5884229 91.785005,40.6564401 91.7608457,40.7168383 C91.7366865,40.7772364 91.6868996,40.823749 91.625,40.84375 C91.5669667,40.8629276 91.5035567,40.8569515 91.4501283,40.827269 C91.3966999,40.7975866 91.3581262,40.7469051 91.34375,40.6875 C91.3012652,40.5753349 91.3570243,40.4498771 91.46875,40.40625 C91.5259229,40.3752199 91.5939401,40.371245 91.6543383,40.3954043 C91.7147364,40.4195635 91.761249,40.4693504 91.78125,40.53125 L91.75,40.53125 Z M91.3125,41.28125 C91.339279,41.4090588 91.2745644,41.5384879 91.15625,41.59375 C91.0265191,41.6424563 90.880643,41.5894104 90.8125,41.46875 C90.7684923,41.3310383 90.836058,41.1823937 90.96875,41.125 C91.1064617,41.0809923 91.2551063,41.148558 91.3125,41.28125 Z M92.25,41.84375 C92.2810301,41.9009229 92.285005,41.9689401 92.2608457,42.0293383 C92.2366865,42.0897364 92.1868996,42.136249 92.125,42.15625 C92,42.15625 91.875,42.125 91.8125,42 C91.75,41.875 91.84375,41.78125 91.96875,41.71875 C92.0809151,41.6762652 92.2063729,41.7320243 92.25,41.84375 Z M90.96875,42.15625 C90.9997801,42.2134229 91.003755,42.2814401 90.9795957,42.3418383 C90.9554365,42.4022364 90.9056496,42.448749 90.84375,42.46875 C90.7865771,42.4997801 90.7185599,42.503755 90.6581617,42.4795957 C90.5977636,42.4554365 90.551251,42.4056496 90.53125,42.34375 C90.500682,42.2822551 90.5007664,42.2099748 90.5314781,42.1485515 C90.5621897,42.0871283 90.6199633,42.0436925 90.6875,42.03125 C90.7446729,42.0002199 90.8126901,41.996245 90.8730883,42.0204043 C90.9334864,42.0445635 90.979999,42.0943504 91,42.15625 L90.96875,42.15625 Z M108.53125,40.34375 C108.5,40.46875 108.375,40.53125 108.21875,40.5 C108.090442,40.4555532 108.021073,40.3168144 108.0625,40.1875 C108.0625,40.09375 108.21875,40.03125 108.375,40.0625 C108.46875,40.0625 108.5625,40.21875 108.53125,40.34375 Z M109.90625,40.75 C109.90625,40.875 109.75,40.96875 109.625,40.9375 C109.557553,40.9228624 109.499157,40.8809931 109.463648,40.8218111 C109.428139,40.7626292 109.418676,40.6914006 109.4375,40.625 C109.46875,40.53125 109.59375,40.4375 109.75,40.46875 C109.875,40.5 109.9375,40.625 109.90625,40.78125 L109.90625,40.75 Z M109.0625,41.125 C109.017739,41.2728609 108.871652,41.3658253 108.71875,41.34375 C108.558324,41.3122082 108.449329,41.1623395 108.46875,41 C108.514432,40.8379851 108.680235,40.7412664 108.84375,40.78125 C109,40.8125 109.09375,40.96875 109.0625,41.125 Z M109.53125,42.21875 C109.5,42.34375 109.375,42.40625 109.21875,42.375 C109.105246,42.3316709 109.039324,42.2130124 109.0625,42.09375 C109.0625,41.96875 109.21875,41.90625 109.34375,41.9375 C109.46875,41.96875 109.5625,42.09375 109.53125,42.25 L109.53125,42.21875 Z M108.1875,41.71875 C108.1875,41.84375 108.03125,41.90625 107.90625,41.875 C107.792746,41.8316709 107.726824,41.7130124 107.75,41.59375 C107.75,41.46875 107.90625,41.40625 108.03125,41.4375 C108.15625,41.4375 108.21875,41.59375 108.1875,41.71875 Z" id="Shape" fill="#F5D8BC" fill-rule="nonzero"></path>
                <path d="M111.25,27.8125 C111.25,27.8125 110.625,28.40625 109.84375,28.40625 C109.320181,28.4170223 108.810121,28.2396099 108.40625,27.90625 C108.15625,27.75 108.46875,27.28125 108.46875,27.28125" id="Path" stroke="#000000" stroke-width="0.6"></path>
                <path d="M97.78125,29 C97.78125,29 96.625,28.78125 96.125,28.625 C95.65625,28.46875 95.78125,28.15625 95.1875,28.1875 C94.65625,28.21875 94.09375,28.625 94.21875,29.1875 C94.34375,29.75 94.75,29.8125 95.15625,29.71875 C95.53125,29.59375 95.40625,28.90625 94.90625,28.96875 C94.375,28.96875 94.8125,29.4375 94.8125,29.4375" id="Path" stroke="#000000" stroke-width="0.55"></path>
                <path d="M89.78125,28.125 C89.78125,28.125 90.09375,28.59375 90.9375,28.5 C91.78125,28.4375 92.09375,28 92.125,27.78125 C92.1875,27.59375 92.125,27.21875 91.96875,27.0625 C91.8125,26.90625 91.25,26.84375 91.25,26.84375" id="Path" stroke="#000000" stroke-width="0.5"></path>
                <g id="Group" transform="translate(91.562500, 54.687500)" stroke="#161111" stroke-width="0.8">
                    <path d="M14.4375,29.8125 C15.21875,29.03125 16.46875,28.1875 17.15625,26.375 C17.78125,24.625 18.09375,21.46875 18.71875,19.875 C19.5,17.125 21.0625,14.4375 19.1875,14.625 C17.40625,14.8125 16.84375,16.5 16.1875,17.75 C15.875,18.21875 15.15625,19.21875 15.03125,19.78125 C15,18.84375 14.5,16.0625 14.40625,13.28125 C14.3125,10.65625 14.40625,7.96875 14.3125,6.9375 C14.25,5.59375 14.25,4.34375 13.9375,3.375 C13.78125,2.90625 13.125,2.4375 12.75,2.46875 C12.0625,2.46875 11.625,3.09375 11.5,3.6875 L11.4375,4.5625 C11.375,5.3125 11.4375,6.28125 11.375,7.15625 C11.34375,8.09375 11.4375,9.09375 11.375,9.96875 C11.3125,11.65625 11.1875,13.25 11.125,13.5625 C11.125,12.9375 10.8125,9.90625 10.71875,7.03125 L10.65625,3.90625 C10.65625,3.09375 10.65625,2.21875 10.59375,1.59375 C10.4375,0.53125 10.09375,0.03125 9.34375,0.03125 C8.78125,0.03125 8.03125,0.4375 7.78125,1.59375 C7.6875,2.25 7.65625,3.03125 7.6875,3.90625 L7.75,6.40625 C7.6875,9.6875 7.625,13.125 7.5,14.15625 C7.5,13.84375 7.15625,12.125 7.0625,9.8125 L6.9375,6.8125 L6.84375,3.8125 C6.84375,3.3125 6.625,1.875 5.6875,1.9375 C5.15625,1.875 4.625,2.25 4.4375,3.59375 C4.3125,4.375 4.3125,5.65625 4.28125,6.6875 C4.25,8.5625 4.15625,10.25 4.28125,11.96875 L4.3125,14.375 C4.3125,14.5 4.03125,13.46875 3.90625,12.0625 L3.65625,9.375 C3.65625,8.65625 3.625,7.59375 3.5625,6.71875 C3.5,6.0625 3.53125,5.3125 2.78125,5.375 C2.03125,5.40625 1.59375,5.6875 1.4375,6.9375 C1.3125,7.78125 1.3125,9.59375 1.28125,10.21875 C1.34375,11.875 0.90625,15.75 0.71875,16.84375 C0.65625,17.625 0.34375,18.625 0.21875,19.71875 C0.00449548325,21.8682426 0.109804899,24.0376166 0.53125,26.15625 C1.15625,28.34375 2.71875,29.34375 2.65625,30.84375 C2.5625,32.34375 2.65625,35 2.65625,36.15625 C2.65625,37.34375 3.6875,37.40625 5.78125,36.96875 C9.28125,36.21875 11.1875,37.71875 14.03125,36.59375 C13.6875,33.34375 14.375,31.375 14.34375,30.1875 L14.4375,29.8125 Z M12.40625,22.09375 C13.125,20.09375 14.03125,19.3125 14.90625,18.90625 L12.40625,22.09375 Z" id="Shape" fill="#CC0000" fill-rule="nonzero"></path>
                    <path d="M4.5,20.0625 C5.59375,19.625 6.6875,19.3125 7.8125,18.9375 C9.15625,18.5625 10.46875,18 11.875,17.8125 C12.5,17.65625 13.1875,17.5 13.875,17.5 M2.59375,30.625 C2.71875,30.53125 2.90625,30.6875 3.03125,30.71875 C3.21875,30.78125 3.4375,30.84375 3.65625,30.8125 C4.07288054,30.8047402 4.48961946,30.8047402 4.90625,30.8125 C5.4375,30.8125 5.84375,30.75 6.25,30.5 M9.375,30.6875 L9.875,30.96875 C10.125,31.0625 10.4375,31.09375 12.15625,30.96875 C13.25,31.03125 14.1875,30.09375 14.46875,29.84375" id="Shape"></path>
                </g>
            </g>
        </g>
    </g>
</svg>