<?xml version="1.0" encoding="UTF-8"?>
<svg width="200px" height="150px" viewBox="0 0 200 150" version="1.1" xmlns="http://www.w3.org/2000/svg" xmlns:xlink="http://www.w3.org/1999/xlink">
    <!-- Generator: Sketch 52.5 (67469) - http://www.bohemiancoding.com/sketch -->
    <title>sh</title>
    <desc>Created with Sketch.</desc>
    <g id="Flags" stroke="none" stroke-width="1" fill="none" fill-rule="evenodd">
        <g id="Africa" transform="translate(-70.000000, -1450.000000)">
            <g id="sh" transform="translate(70.000000, 1450.000000)">
                <polygon id="Path" fill="#000066" points="200 150 200 0 0 0 0 150"></polygon>
                <polygon id="Path" fill="#FFFFFF" points="0 22.90625 23.75 22.90625 0 8.375 0 0 13.59375 0 46.84375 20.25 46.84375 0 65.5625 0 65.5625 20.25 98.75 0 112.5 0 112.5 8.375 88.625 22.90625 112.5 22.90625 112.5 45.84375 88.625 45.84375 112.5 60.40625 112.5 68.75 98.75 68.75 65.5 48.53125 65.5 68.75 46.875 68.75 46.875 48.53125 13.5625 68.75 0 68.75 0 60.40625 23.75 45.84375 0 45.84375"></polygon>
                <path d="M103.65625,0 L66.09375,22.9375 L75.09375,22.9375 L112.5,0 L103.65625,0 Z M112.5,68.75 L75.0625,45.84375 L84.0625,45.84375 L112.46875,63.3125 L112.46875,68.75 L112.5,68.75 Z M37.625,22.9375 L0,0 L0,5.46875 L28.5625,22.9375 L37.625,22.9375 Z M37.53125,45.84375 L0,68.75 L8.96875,68.75 L46.5625,45.84375 L37.5,45.84375 L37.53125,45.84375 Z" id="Shape" fill="#CE1126" fill-rule="nonzero"></path>
                <polygon id="Path" fill="#CE1126" points="0 27.6875 50.8125 27.6875 50.8125 0 61.8125 0 61.8125 27.6875 112.5 27.6875 112.5 41.125 61.8125 41.125 61.8125 68.75 50.8125 68.75 50.8125 41.09375 0 41.09375 0 27.65625"></polygon>
                <path d="M188.198169,83.149175 C188.198169,106.003303 184.553131,130.680153 154.832056,142.457741 C125.251175,130.680153 121.606137,106.003303 121.465944,83.149175 L188.198169,83.149175 Z" id="Path" stroke="#FFFFFF" stroke-width="2.5" fill="#8FC5FF"></path>
                <path d="M154.832056,142.317531 C166.097014,138.370413 175.491482,130.37423 181.188481,119.884031 L178.384606,119.884031 C177.543444,119.743822 149.925275,117.079844 146.560625,115.67775 C143.75675,114.696284 132.821637,116.659216 127.774663,118.481937 C133.3252,129.663908 143.040184,138.222102 154.832056,142.317531 Z" id="Path" stroke="#000000" stroke-width="2.5" fill="#366CC9"></path>
                <path d="M134.083381,128.296594 L135.765706,128.296594 C136.186288,128.296594 136.186288,128.296594 136.326481,127.875966 C136.466675,127.455338 136.887256,127.595547 137.167644,127.735756 C137.448031,127.875966 138.008806,127.735756 138.289194,127.455337 C138.569581,127.174919 138.569581,127.174919 138.849969,127.455337 C139.130356,127.735756 139.27055,127.595547 139.550937,127.455337 C139.691131,127.455337 140.251906,127.174919 140.3921,126.754291 C140.532294,126.333662 140.952875,126.193453 141.093069,126.473872 C141.233263,126.754291 141.51365,126.754291 141.794038,126.754291 C142.074425,126.754291 142.074425,126.8945 142.074425,127.315128 C142.074425,127.595547 142.074425,127.735756 142.775394,127.174919 C143.336169,127.735756 143.476362,127.455337 143.476362,126.8945 C143.476362,126.333662 143.476362,124.090312 143.195975,123.950103 C142.915588,123.809894 142.775394,122.828428 142.6352,122.127381 C142.6352,120.725287 142.6352,120.725287 141.233263,120.024241 C141.233263,119.603612 140.952875,119.463403 139.831325,119.463403 C139.971519,119.323194 139.831325,118.902566 139.550938,118.762356 C139.27055,118.622147 139.27055,118.481937 139.550938,117.9211 C139.831325,117.9211 140.3921,117.9211 140.532294,117.500472 C140.812681,117.220053 141.653844,117.220053 142.214619,117.500472 C142.775394,117.780891 143.336169,117.780891 144.317525,117.500472 L145.99985,116.659216 C146.700819,116.238587 146.841013,116.098378 146.841013,115.537541 C146.841013,114.135447 146.420431,112.733353 146.140044,112.032306 C145.719463,111.331259 145.719463,110.630212 145.158688,109.368328 C144.597913,108.246653 144.597913,107.966234 144.037138,107.265187 C143.75675,106.984769 143.616556,106.844559 143.616556,106.423931 C143.572295,105.883688 143.321178,105.381396 142.915587,105.021837 C141.794037,104.040372 141.51365,100.815556 140.952875,98.4319969 C140.672487,97.0299031 140.952875,93.8050875 140.3921,93.24425 C139.410744,92.5432031 138.990162,92.6834125 138.289194,92.4029937 C137.728419,91.7019469 137.588225,90.4400625 137.02745,89.1781781 C136.326481,89.3183875 135.9059,90.0194344 135.485319,90.2998531 C135.064738,90.5802719 134.924544,90.5802719 134.924544,91.2813187 C134.924544,91.8421562 134.503963,92.6834125 133.943188,93.8050875 C133.382413,94.9267625 132.120669,94.5061344 131.139313,96.0484375 C129.1766,93.6648781 129.1766,92.9638312 129.036406,92.2627844 C129.036406,91.5617375 128.615825,91.4215281 127.494275,90.4400625 L127.494275,88.3369219 C126.512919,87.635875 125.952144,87.7760844 125.531563,88.3369219 C125.110981,88.75755 124.830594,89.4585969 124.129625,89.7390156 C123.849238,90.2998531 122.727688,91.4215281 121.886525,92.9638312 C122.727688,105.582675 125.531563,118.201519 134.083381,128.296594 Z" id="Path" stroke="#000000" stroke-width="0.25" fill="#5D3100"></path>
                <path d="M188.198169,83.149175 C188.198169,74.4561937 187.777587,66.0436312 187.917781,58.7527438 C177.37144,54.6623371 166.143178,52.6162816 154.832056,52.7237406 C147.401787,52.7237406 132.821637,53.8454156 121.746331,58.7527438 C122.026719,66.0436313 121.465944,74.4561938 121.465944,83.149175 L188.198169,83.149175 Z" id="Path" stroke="#FFFFFF" stroke-width="2.5" fill="#FFFF00"></path>
                <path d="M123.3125,93.09375 C123.6875,93.6875 124.34375,94.65625 124.40625,95.21875 C124.65625,94.6875 124.875,94.46875 124.90625,94.125 C124.9375,93.78125 125.375,93.1875 125.21875,92.8125 C125.0625,92.4375 124.96875,92.1875 125.34375,92.4375 C125.75,92.71875 125.65625,93.15625 125.59375,93.8125 C125.34375,95.59375 124.625,95.9375 124.5,97.15625 C125.5625,99.65625 124.78125,100.59375 125.9375,103.09375 C126.125,103.1875 126.59375,103 126.75,103.03125 C127.375,102.59375 127.84375,102.71875 128.71875,102.9375 C129.59375,103.09375 130.0625,103.71875 130.0625,104.28125 C130.0625,104.84375 130.0625,104.96875 130.25,105.28125 C130.4375,105.59375 130.78125,106.125 130.71875,106.5 C130.625,106.875 130.78125,107.09375 130.90625,107.25 C131.03125,107.40625 130.84375,107.875 130.75,108.09375 C130.65625,108.3125 130.6875,108.6875 131.125,109.21875 C131.5625,109.78125 132.5625,112.0625 132.5625,113.40625 C132.5625,114.78125 132.65625,115.40625 133.1875,115.65625 C133.75,115.90625 133.90625,116.125 133.84375,116.6875 C133.78125,117.25 134.09375,120.3125 134.15625,120.78125 C134.21875,121.25 134.4375,121.15625 134.65625,121.40625 C134.875,121.65625 135,121.9375 135.75,121.9375 C136.5,121.9375 137.1875,121.84375 137.625,121.9375 C138.3125,122.84375 138.71875,124.0625 138.875,124.84375 C139.03125,125.625 139,126.65625 139.25,126.65625 C139.5,126.65625 139.75,126.65625 139.6875,125.71875 C139.625,124.78125 139.53125,124.65625 139.21875,124.15625 C138.875,123.6875 138.6875,123.46875 138.875,123.1875 C139.0625,122.90625 139.09375,122.4375 139.03125,122.0625 C138.96875,121.6875 138.84375,121.125 139.46875,121.875 L140.4375,123.03125 C140.625,123.25 140.6875,123.78125 140.65625,124.21875 C140.625,124.65625 140.6875,124.84375 140.96875,124.59375 C141.21875,124.375 141.53125,124.75 141.375,125.21875 C141.21875,125.6875 141.4375,126 141.875,126.15625 C142.3125,126.3125 142.5,126.40625 142.59375,126.71875 C142.6875,127.03125 143.0625,127.1875 143.0625,126.53125 C143.0625,125.90625 142.8125,124.5 142.625,124.0625 C142.4375,123.625 142.3125,122.6875 142.25,122.125 C142.1875,121.5625 142.125,121.4375 141.875,121.34375 C141.625,121.25 141.375,121.03125 141.34375,120.78125 C141.3125,120.53125 141.09375,120.4375 140.9375,120.4375 C140.78125,120.4375 140.625,120.3125 140.53125,120.125 C140.4375,119.9375 140.34375,119.9375 140.15625,119.90625 C139.96875,119.875 139.6875,120 139.59375,119.71875 C139.5,119.4375 139.375,119 139.1875,118.78125 C139,118.5625 138.875,118.46875 138.84375,117.625 C138.84375,116.8125 138.8125,116.6875 138.53125,116.40625 C138.25,116.125 137.84375,115.34375 137.65625,115.03125 C137.5,114.71875 137.3125,114.375 137.3125,115.0625 C137.3125,115.75 137.3125,116.125 137.75,116.375 C138.1875,116.625 138.28125,116.625 138.09375,117 C137.90625,117.375 138.09375,117.625 138.1875,117.875 C138.28125,118.125 138.40625,118.375 138.1875,118.625 C137.96875,118.875 137.75,118.8125 137.78125,118.40625 C137.787576,117.989295 137.679494,117.578582 137.46875,117.21875 C137.3125,116.90625 137.15625,116.65625 136.9375,116.84375 C136.71875,117.03125 136.53125,116.8125 136.6875,116.65625 C136.84375,116.5 136.78125,116.40625 136.6875,116.3125 C136.59375,116.21875 136.53125,116.09375 136.71875,115.875 C136.90625,115.65625 136.90625,115.5625 136.78125,115.03125 C136.6875,114.53125 135.875,111.96875 135.53125,111.375 C135.1875,110.78125 135.21875,110.375 135.65625,110.9375 C136.09375,111.5 136.53125,112.03125 136.59375,112.5 C136.59375,113 136.71875,113.28125 136.875,113.4375 C137.03125,113.59375 137.125,113.5625 137.1875,113.15625 C137.25,112.75 137.5625,112.90625 137.0625,112.15625 C136.53125,111.375 135.59375,110.09375 135.21875,107.78125 C134.84375,105.46875 134.71875,104 134.34375,103.375 C134,102.75 133.875,102.59375 133.84375,102.03125 C133.8125,101.46875 133.84375,100.84375 133.59375,100.40625 C133.34375,99.96875 133.15625,99.90625 133.125,100.5625 C133.09375,101.1875 133.125,102.6875 133.34375,102.9375 C133.5625,103.1875 133.40625,103.84375 133.34375,104.1875 C133.28125,104.53125 132.75,104.9375 133.96875,105.65625 C134.4375,105.96875 134.34375,106.34375 134.28125,106.59375 C134.21875,106.875 134.125,106.84375 133.875,106.4375 C133.625,106.03125 133.375,105.6875 133.125,105.5 C132.875,105.3125 132.8125,105.125 132.875,104.59375 C132.9375,104.0625 133,103.71875 132.875,103.5625 C132.71875,103.375 132.65625,103.5 132.5625,103.8125 C132.5,104.09375 132.4375,104.90625 132.25,105.125 C132.0625,105.34375 132.0625,105.1875 131.9375,104.71875 C131.8125,104.25 132,103.5 132.25,102.6875 C132.5,101.875 132.65625,100.96875 132.4375,99.875 C132.21875,98.78125 132.3125,98.4375 131.5,97.53125 C130.65625,96.625 129.6875,95.75 129.3125,94.625 C128.90625,93.5 128.8125,92.5 128.375,92 C127.972208,91.4767896 127.486646,91.0228954 126.9375,90.65625 L126.9375,88.96875 C126.9375,88.5625 126.75,88.34375 126.28125,88.40625 C125.8125,88.46875 125.5,88.875 125.21875,89.40625 C124.90625,89.96875 124.71875,89.71875 124.28125,90.65625 C123.84375,91.59375 123.34375,92.0625 123.34375,93.09375 L123.3125,93.09375 Z" id="Path" fill="#CF6200"></path>
                <path d="M125.9375,103.75 C126.25,103.96875 126.53125,104.0625 126.96875,103.84375 C127.40625,103.625 127.90625,103 128.53125,103.625 C129.09375,104.25 129.40625,105.28125 129.40625,106.0625 C129.40625,106.875 129.40625,108.375 130.34375,109.1875 C131.25,110.03125 131.71875,110.90625 131.75,112 C131.834782,113.086126 132.012516,114.162985 132.28125,115.21875 C132.40625,115.65625 132.65625,116.15625 132.9375,116.46875 C133.21875,116.78125 133.46875,117.59375 133.5,118.46875 C133.53125,119.34375 133.375,119.9375 133.5,120.375 C133.625,120.8125 133.5,121.1875 133.1875,121 C132.875,120.8125 132.78125,120.65625 132.5625,120.28125 C132.34375,119.90625 132.1875,119.96875 132.375,120.53125 C132.5625,121.09375 133.09375,121.59375 133.5625,121.59375 C134.03125,121.59375 134.1875,121.65625 134.5,121.96875 C134.78125,122.25 134.8125,122.40625 135.3125,122.40625 C135.8125,122.40625 135.90625,122.40625 136.375,122.53125 C136.84375,122.65625 136.84375,122.625 137.09375,122.53125 C137.34375,122.4375 137.625,122.6875 137.78125,123.15625 C137.9375,123.625 138.40625,124.9375 138.40625,125.3125 C138.40625,125.6875 138.40625,126.03125 138.65625,126.40625 C138.90625,126.78125 138.84375,127.125 138.5625,126.90625 C138.28125,126.6875 138.25,126.75 138.0625,126.8125 C137.875,126.875 137.6875,126.71875 137.40625,126.53125 C137.09375,126.375 137.28125,126.40625 137,125.96875 C136.71875,125.53125 136.53125,125.375 136.53125,125.71875 C136.53125,126.0625 136.46875,126.4375 136.25,126.25 C136.03125,126.0625 135.9375,126.0625 135.75,126.25 C135.5625,126.4375 135.5,126.5625 135.28125,126.21875 C135.0625,125.875 134.8125,125.84375 134.59375,125.78125 C134.375,125.71875 134.375,125.71875 134.28125,125.375 C134.15625,125.0625 133.8125,124.96875 133.53125,124.96875 C133.25,124.96875 133.09375,124.84375 133.0625,124.625 C133.03125,124.40625 132.84375,124.25 132.6875,124.15625 C132.53125,124.0625 132.625,123.78125 132.59375,123.53125 C132.5625,123.28125 132.34375,123.375 132.1875,123.3125 C132.03125,123.25 131.9375,123.28125 131.9375,122.90625 C131.9375,122.53125 131.78125,122.4375 131.6875,122.1875 C131.5625,121.90625 131.6875,121.65625 131.75,121.375 C131.8125,121.0625 131.78125,120.90625 131.5625,120.65625 C131.34375,120.40625 131.53125,120.125 130.9375,119.625 C130.34375,119.125 130.0625,119.5625 129.875,118.375 C129.71875,117.125 129.34375,114.65625 129,114.28125 C128.65625,113.90625 128.46875,113.5625 128.125,113.46875 C127.78125,113.375 127.59375,113.4375 127.5625,112.75 C127.53125,112.0625 127.3125,111.1875 126.875,110.75 L126.03125,109.96875 C125.8125,109.8125 125.71875,109.46875 126.03125,108.84375 C126.34375,108.21875 126.21875,107.375 126.1875,106.96875 C126.125,106.59375 126.03125,106.0625 126.09375,105.625 C126.15625,105.1875 126.125,104.65625 126.03125,104.375 C125.9375,104.09375 125.78125,104 125.96875,103.75 L125.9375,103.75 Z M134.71875,93.4375 C134.239721,94.0596513 133.671029,94.6072812 133.03125,95.0625 C132.34375,95.5625 131.46875,95.9375 131.96875,96.75 C132.4375,97.59375 132.84375,97.6875 132.90625,98.3125 C133.03125,98.9375 133.1875,99.5 133.65625,99.625 C134.15625,99.78125 134.34375,99.6875 134.34375,100.6875 C134.34375,101.6875 134.34375,102.125 134.78125,102.5 C135.21875,102.875 135.15625,103.28125 135.34375,104.1875 C135.5625,105.125 135.5625,107.125 136.125,108.46875 C136.6875,109.8125 138.03125,112.40625 137.875,112.9375 C137.71875,113.46875 137.5625,113.875 138.125,114.5 C138.71875,115.125 139.09375,116.0625 139.15625,116.59375 C139.1875,117.125 139.28125,117.3125 139.875,117.125 C140.283141,117.026224 140.652866,116.808738 140.9375,116.5 C141.125,116.25 141.53125,116.3125 142.0625,116.59375 C142.59375,116.90625 143.4375,117.15625 143.9375,116.90625 C144.40625,116.59375 144.625,116.15625 145.0625,116.15625 C145.75,115.65625 146,114.65625 146.15625,114.34375 C146.28125,114.0625 146.1875,114.0625 145.90625,113.78125 C145.625,113.5 145.75,113 145.71875,112.53125 C145.65625,112.03125 145.46875,111.28125 144.875,110.21875 C144.3125,109.15625 143.9375,107.84375 143.5625,107.5 C143.1875,107.1875 143,106.34375 142.9375,105.9375 C142.90625,105.5625 142.46875,105.21875 142.15625,104.9375 C141.84375,104.625 141.59375,104.1875 141.21875,102.5 C140.90625,100.8125 140.65625,99.59375 140.65625,99.28125 C140.65625,98.96875 140.59375,98.96875 140.3125,98.84375 C140.03125,98.71875 139.875,98.28125 140,98.03125 C140.0625,97.78125 139.875,97.53125 139.78125,97.25 C139.6875,96.96875 139.78125,96.4375 139.96875,96.125 C140.15625,95.8125 140.125,95.03125 139.9375,94.34375 C139.75,93.65625 139.53125,93.09375 138.75,92.96875 C138,92.875 137.8125,92.65625 137.5625,92.03125 C137.25,91.40625 136.9375,90.3125 136.875,90.0625 C136.78125,89.8125 136.625,89.75 136.03125,90.25 C135.46875,90.75 135.25,90.875 135.25,91.8125 C135.25,92.40625 135.375,92.59375 135.5625,92.9375 C135.75,93.25 135.8125,93.375 135.9375,94.28125 C136.0625,95.1875 136.90625,96.65625 135.84375,97.5 C134.78125,98.3125 134.90625,98.53125 134.96875,99.09375 C135.03125,99.6875 134.65625,100.0625 134.5,99.25 C134.28125,98.40625 134.5,97.9375 135.0625,97.53125 C135.65625,97.15625 136.1875,96.65625 135.8125,96.125 C135.40625,95.59375 135.25,94.34375 135.1875,93.75 C135.125,93.15625 135.0625,92.96875 134.71875,93.4375 Z" id="Shape" fill="#CF6200" fill-rule="nonzero"></path>
                <path d="M126.0625,105.78125 C126.0625,106.1875 126.125,106.625 126.15625,106.96875 C126.1875,107.375 126.3125,108.21875 126,108.84375 C125.71875,109.46875 125.78125,109.78125 126,109.96875 L126.03125,109.96875 C126.65625,109.78125 126.71875,109.125 126.5625,108.8125 C126.398332,108.460555 126.421809,108.049703 126.625,107.71875 C126.8125,107.375 126.8125,107.1875 126.65625,106.9375 C126.46875,106.6875 126.46875,106.6875 126.65625,106 C126.84375,105.40625 126.40625,105.40625 126.0625,105.78125 Z M132.3125,115.21875 C132.1875,114.78125 131.78125,113.09375 131.75,112 C131.71875,110.90625 131.21875,110.03125 130.3125,109.1875 C129.625,108.5625 129.46875,107.5 129.40625,106.6875 C128.875,106.375 128.65625,106.5 128.71875,107.125 C128.75,107.75 129.40625,108.0625 129.34375,109.03125 C129.21875,109.96875 129.21875,109.75 129.65625,110.1875 C130.09375,110.625 130.28125,111.125 130.0625,111.28125 C129.8125,111.46875 129.8125,111.8125 130.125,111.9375 C130.46875,112.0625 130.5,112.4375 130.4375,112.78125 C130.40625,113.09375 130.75,113.1875 130.90625,113.40625 C131.125,113.65625 131.125,114.25 130.9375,114.59375 C130.75,114.90625 130.71875,115.46875 131.0625,115.1875 C131.375,114.875 131.5625,115.15625 131.8125,115.625 C132.03125,116 132.25,115.875 132.5,115.78125 C132.40874,115.60141 132.335468,115.412995 132.28125,115.21875 L132.3125,115.21875 Z M137,123.6875 C136.8125,124.125 136.5625,124 136.34375,123.78125 C136.125,123.5625 135.875,123.5625 135.96875,123.15625 C136.0625,122.75 136.03125,122.6875 135.75,122.46875 L135.65625,122.375 L135.34375,122.375 C134.8125,122.375 134.78125,122.25 134.46875,121.9375 C134.408898,121.882318 134.34632,121.83017 134.28125,121.78125 L134.28125,122.0625 C134.28125,122.46875 134.28125,122.375 133.90625,122.5 C133.53125,122.625 133.59375,122.09375 133.5,121.78125 C133.486033,121.706544 133.465108,121.633308 133.4375,121.5625 C133,121.5 132.5,121.03125 132.375,120.53125 C132.1875,119.96875 132.375,119.90625 132.59375,120.28125 C132.8125,120.65625 132.84375,120.75 133.15625,120.96875 C133.46875,121.1875 133.59375,120.8125 133.46875,120.375 C133.449142,120.219365 133.449142,120.061885 133.46875,119.90625 C133.375,119.75 133.28125,119.65625 133.15625,119.59375 C132.53125,119.3125 132.71875,119.28125 132.75,118.78125 C132.8125,118.3125 132.6875,118.3125 132.3125,118.5625 C131.96875,118.8125 131.9375,118.53125 131.9375,117.78125 C131.9375,117.03125 131.4375,117.0625 131.34375,117.5625 C131.21875,118.09375 131.03125,117.75 130.84375,117.03125 C130.65625,116.3125 130.3125,116.09375 130.28125,116.8125 C130.28125,117.40625 130.09375,117.53125 129.71875,117.21875 L129.875,118.34375 C130.0625,119.53125 130.34375,119.09375 130.9375,119.59375 C131.53125,120.09375 131.34375,120.375 131.5625,120.625 C131.78125,120.90625 131.8125,121.0625 131.75,121.375 C131.65625,121.65625 131.5625,121.90625 131.65625,122.15625 C131.78125,122.4375 131.9375,122.53125 131.9375,122.90625 C131.9375,123.28125 132.03125,123.21875 132.1875,123.3125 L132.5,123.34375 L132.75,122.96875 C133.1875,122.53125 133.84375,123 134.0625,123.5625 C134.28125,124.125 134.53125,124.25 134.875,123.8125 C135.21875,123.375 135.09375,123.4375 135.46875,123.84375 C135.84375,124.25 135.96875,124.15625 135.96875,124.15625 C135.96875,124.15625 136.34375,124.03125 136.59375,124.25 C136.84375,124.46875 137,124.4375 137.46875,123.75 C137.9375,123.03125 137.25,123.25 137.03125,123.6875 L137,123.6875 Z M138.3125,103.6875 C138.46875,102.625 138.375,101.5625 138.8125,101.1875 C139.25,100.78125 139.75,100 139.75,101.65625 C139.6875,103.3125 139.625,103.21875 139.28125,103.59375 C138.96875,104 138.65625,104.09375 138.96875,104.71875 C139.34375,105.34375 139.375,105.40625 139.34375,106.375 C139.28125,107.34375 139.28125,107.75 139.65625,108.25 C140.0625,108.71875 140.15625,108.75 140.28125,109.28125 C140.34375,109.8125 140.6875,110.53125 141.125,110.9375 C141.5625,111.34375 142.0625,112.4375 142.09375,113.21875 C142.15625,114 142.84375,114.1875 143.46875,114.75 C144.09375,115.28125 143.3125,115.65625 142.84375,115.40625 C142.34375,115.1875 142.53125,115.40625 142.25,115.75 C141.9375,116.09375 141.875,116.15625 141.625,115.5625 C141.375,114.96875 140.5625,114.59375 140.15625,114.4375 C139.75,114.28125 139.4375,113.65625 139.09375,113.03125 C138.807782,112.501231 138.284627,112.140836 137.6875,112.0625 C137.84375,112.46875 137.90625,112.78125 137.875,112.9375 C137.71875,113.46875 137.5625,113.875 138.125,114.5 C138.71875,115.125 139.09375,116.0625 139.15625,116.59375 C139.1875,117.125 139.28125,117.3125 139.875,117.125 C140.274246,117.005076 140.638704,116.790689 140.9375,116.5 C141.125,116.25 141.53125,116.28125 142.0625,116.59375 C142.59375,116.875 143.40625,117.15625 143.90625,116.875 C144.375,116.5625 144.625,116.15625 145.0625,116.15625 C145.75,115.65625 146,114.625 146.125,114.34375 C146.28125,114.03125 146.1875,114.03125 145.90625,113.75 C145.625,113.46875 145.75,112.96875 145.6875,112.5 C145.65625,112 145.46875,111.28125 144.875,110.21875 C144.28125,109.15625 143.9375,107.84375 143.5625,107.5 C143.1875,107.15625 142.96875,106.34375 142.9375,105.9375 C142.875,105.5625 142.4375,105.21875 142.15625,104.90625 C141.84375,104.625 141.5625,104.1875 141.21875,102.5 C140.96875,101.15625 140.75,100.125 140.6875,99.59375 C140.34375,100.15625 140.09375,100.3125 139.96875,99.90625 C139.8125,99.46875 139.65625,99.25 139.4375,99.53125 C139.25,99.84375 139.1875,99.28125 139.1875,99.03125 C139.1875,98.78125 139.15625,98.75 138.875,98.75 C138.59375,98.75 138.875,98.375 138.75,97.625 C138.65625,96.90625 138.5,96.8125 138.4375,97.6875 C138.3125,98.5625 137.8125,99.09375 138.03125,99.28125 C138.21875,99.46875 138.125,99.875 137.9375,100.4375 C137.75,101.03125 137.84375,101.375 137.96875,101.75 C138.09375,102.125 137.875,102.875 137.78125,103.5 C137.6875,104.125 138.1875,104.75 138.3125,103.71875 L138.3125,103.6875 Z M129.4375,95 C129.09375,95.03125 128.8125,95.34375 129.03125,96.46875 C129.1875,97.15625 128.65625,97 128.46875,96.65625 C128.28125,96.3125 128.125,95.59375 127.71875,94.96875 C127.34375,94.34375 127.53125,95.375 127.5,95.96875 C127.4375,96.5625 127.8125,96.5625 128.15625,97.03125 C128.5,97.53125 128.21875,97.71875 127.84375,97.71875 C127.46875,97.71875 127.625,98.5 127.71875,99.03125 C127.8125,99.5625 127.625,99.65625 127.34375,99.21875 C127.03125,98.78125 127.25,98.125 127.28125,97.28125 C127.34375,96.46875 127.40625,96.65625 126.84375,96.46875 C126.3125,96.25 126.40625,96.15625 126.625,95.6875 C126.8125,95.1875 127,94.9375 126.75,94.71875 C126.53125,94.46875 126.5625,94.3125 126.96875,94.28125 C127.34375,94.21875 127.1875,93.9375 127.53125,93.84375 C127.875,93.75 128.03125,93.875 128.0625,93.25 C128.125,92.71875 128.28125,92.40625 128.6875,92.5625 C128.9375,93.375 129.21875,94.625 129.4375,95 Z M134.34375,100.75 C134.34375,101.75 134.34375,102.15625 134.78125,102.53125 C135.21875,102.90625 135.15625,103.3125 135.34375,104.21875 C135.5625,105.15625 135.5625,107.15625 136.125,108.5 L136.78125,109.96875 C137.085917,109.712006 137.331158,109.392127 137.5,109.03125 C137.625,108.71875 137.1875,108.03125 136.875,107.46875 C136.53125,106.84375 136.90625,106.65625 137.25,105.90625 C137.59375,105.21875 137.21875,105.15625 136.65625,104.96875 C136.125,104.78125 136.125,104.28125 135.84375,103.5 C135.5625,102.71875 135.59375,102.375 135.78125,101.9375 C135.96875,101.5 135.84375,101.15625 135.46875,101.0625 C135.0625,100.96875 135.15625,100.6875 135.3125,100.1875 C135.46875,99.71875 135.5625,99.625 134.96875,99.75 C134.53125,99.875 134.40625,99.96875 134.28125,100.125 L134.34375,100.75 Z" id="Shape" fill="#00B800" fill-rule="nonzero"></path>
                <path d="M139.9375,102.75 C139.875,103.3125 139.875,103.625 139.71875,103.8125 C139.59375,104 139.6875,104.28125 139.84375,104.59375 C140,104.90625 140.0625,105.25 139.9375,105.8125 C139.8125,106.375 140.03125,106.75 140.3125,106.90625 C140.59375,107.0625 140.75,106.90625 140.65625,107.59375 C140.590127,108.23218 140.820486,108.865666 141.28125,109.3125 C141.625,109.59375 141.875,110.0625 141.8125,110.375 C141.78125,110.65625 142.0625,110.9375 142.40625,111.09375 C142.75,111.25 142.71875,111.28125 142.71875,111.46875 C142.71875,111.65625 142.84375,111.6875 143.21875,111.78125 C143.59375,111.875 143.90625,112.09375 144.34375,112.65625 C144.78125,113.21875 145.40625,113.46875 145.3125,112.90625 C145.21875,112.34375 145.3125,111.90625 144.75,111.65625 C144.15625,111.34375 143.71875,109.9375 143.5,108.96875 C143.21875,107.96875 142.46875,106.6875 142.03125,106.4375 C141.96875,105.75 142.0625,105.40625 141.625,105.0625 C141.259092,104.803566 141.038551,104.385699 141.03125,103.9375 C141.03125,103.625 140.8125,103.1875 140.59375,103.0625 C140.40625,102.96875 140.3125,102.75 140.3125,102.4375 C140.3125,102.125 140,102.1875 139.9375,102.75 Z" id="Path" fill="#5D3100"></path>
                <path d="M137.34375,128.8125 C138.548813,128.632207 139.725334,128.296058 140.84375,127.8125 C141.4375,128.21875 142.4375,128.75 142.875,128.75 C142.0625,128.9375 141.5,128.84375 141.3125,128.6875 C141.40625,128.9375 141.6875,129.34375 141.875,129.375 C141.0625,129.375 140.15625,129.15625 139.875,128.875 C139.15625,129.1875 138,129.25 137.375,128.8125 L137.34375,128.8125 Z M138.90625,129.90625 C139.21875,130 140.78125,130.21875 140.96875,130.21875 C140.46875,130.6875 140.90625,131.09375 141.75,131.03125 C141.34375,131.09375 140.875,131.25 141.1875,131.3125 C142.279696,131.304933 143.36082,131.092948 144.375,130.6875 C143.6875,131.5625 140.3125,132.40625 138.90625,129.90625 Z M140.3125,132.09375 C140.71875,131.90625 141.75,131.96875 142.25,132.1875 C141.71875,132.40625 140.625,132.40625 140.3125,132.125 L140.3125,132.09375 Z" id="Shape" fill="#00D860" fill-rule="nonzero"></path>
                <path d="M141.875,132.09375 C142.625,131.96875 144.71875,132.46875 145.46875,132 C145.21875,132.6875 143.90625,132.78125 143.4375,132.625 C142.96875,132.5 142.53125,132.3125 142.21875,132.3125 C142.40625,132.21875 142.125,132.21875 141.875,132.09375 Z" id="Path" fill="#000000"></path>
                <path d="M142.625,133.125 C143.712146,133.150346 144.796994,133.013423 145.84375,132.71875 C146.46875,132.9375 147.78125,133.28125 148.09375,133.25 C147.46875,133.625 146.28125,133.40625 145.90625,133.25 C144.847246,133.692387 143.647278,133.646674 142.625,133.125 Z" id="Path" fill="#00D860"></path>
                <path d="M143.59375,133.4375 C144.40625,133.625 145.09375,133.5 145.90625,133.25 C146.15625,133.34375 146.71875,133.46875 147.28125,133.46875 C147.65625,133.65625 148.125,133.9375 148.625,134 C147.724245,134.134152 146.804703,134.059305 145.9375,133.78125 C144.962633,133.754634 143.993258,133.935726 143.09375,134.3125 C143.09375,134.0625 143.25,133.6875 143.59375,133.46875 L143.59375,133.4375 Z" id="Path" fill="#00D860"></path>
                <path d="M142.625,129.375 C143.25,129.5625 145.5625,129.46875 146.6875,128.90625 C147.1875,128.6875 147.46875,129.0625 146.9375,129.21875 C145.0625,129.90625 143.53125,130.15625 142.46875,129.5625 C142.03125,129.34375 141.96875,129.125 142.625,129.34375 L142.625,129.375 Z" id="Path" fill="#000000"></path>
                <path d="M153.8125,126.25 C151,127.5625 149.15625,127.96875 145.25,126.75 C144.90625,126.65625 144.625,126.75 145.03125,127 C145.4375,127.28125 147.59375,127.84375 148.09375,127.90625 C148.59375,127.96875 148.40625,128.15625 148.09375,128.25 C147.78125,128.34375 147.71875,128.5625 148.125,128.40625 C148.53125,128.25 150.90625,128.1875 151.875,128.6875 C152.28125,128.90625 152.375,128.84375 152.34375,128.6875 C152.3125,128.53125 152.53125,128.40625 152.84375,128.375 C153.15625,128.34375 153.34375,128.25 153.09375,128.15625 C152.84375,128.0625 152.8125,128 153,127.90625 C153.1875,127.8125 153.21875,127.71875 152.9375,127.65625 C152.65625,127.59375 152.46875,127.53125 152.71875,127.40625 C153,127.28125 153.34375,127.1875 153.65625,127.15625 C153.71875,126.96875 153.59375,126.4375 153.8125,126.25 Z" id="Path" fill="#00D860"></path>
                <path d="M149.15625,126.5625 C150.75,126.6875 153.71875,125.9375 155.28125,124.4375 C155.8125,124.75 156.59375,125.125 157,125.1875 C157.40625,125.25 157.75,125.625 157.125,125.625 C156.5,125.625 155.65625,125.375 155.25,125.1875 C153.433503,126.309022 151.3198,126.853791 149.1875,126.75 C148.75,126.75 148.65625,126.5625 149.15625,126.59375 L149.15625,126.5625 Z" id="Path" fill="#000000"></path>
                <path d="M144.40625,117.8125 C144.96875,118.21875 145.9375,118.84375 147.1875,118.75 C147.79374,119.218377 148.482863,119.568239 149.21875,119.78125 C148.375,120.09375 147.46875,120.40625 147.21875,120.6875 C146.84375,120.3125 146.34375,120.375 146.21875,120.1875 C145.84375,120.5 145.90625,120.65625 146.15625,120.8125 C146.40625,120.96875 148.21875,121.25 148.65625,121.125 C149.09375,121 149.28125,121.375 148.875,121.53125 C147.90625,121.84375 146,121.53125 145.34375,120.46875 C144.65625,119.4375 144.09375,119.03125 142.3125,120 C142.125,119.46875 142.125,119.375 141.78125,119.375 C141.4375,119.375 140.78125,118.90625 141.28125,118.90625 C141.78125,118.90625 143.21875,118.71875 144.40625,117.84375 L144.40625,117.8125 Z" id="Path" fill="#00D860"></path>
                <path d="M144.84375,120.1875 C144.53125,120.25 143.6875,120.71875 143.375,120.75 C143.0625,120.8125 142.53125,121.25 143.0625,121.25 C143.65625,121.25 144.375,120.625 144.78125,120.625 C145.1875,120.625 145.21875,120.09375 144.84375,120.1875 Z M146.625,122.03125 C146.40625,122.0625 145.46875,122.28125 145.21875,122.28125 C144.96875,122.28125 144.6875,122.3125 144.71875,122.5 C144.75,122.6875 144.8125,122.8125 144.40625,122.75 C144,122.6875 143.71875,122.875 143.625,122.96875 C143.53125,123.0625 143.46875,123.1875 143.84375,123.21875 C144.21875,123.25 144.4375,123.3125 144.875,123.09375 C145.3125,122.875 145.71875,122.59375 146.1875,122.5625 C146.65625,122.5625 147.125,121.9375 146.625,122.03125 Z" id="Shape" fill="#00D860" fill-rule="nonzero"></path>
                <path d="M145.3125,123.125 C145.71875,123.4375 147.6875,124.0625 148.375,124.03125 C149.0625,124 148.96875,124.3125 148.4375,124.4375 C147.201486,124.609689 145.950768,124.245843 145,123.4375 C144.5625,123.09375 145,122.9375 145.28125,123.125 L145.3125,123.125 Z" id="Path" fill="#000000"></path>
                <path d="M154.625,124.125 C153.125,124.59375 151.59375,124.4375 150.96875,124.25 C150.34375,124.0625 149.78125,124.0625 150.21875,124.46875 C150.625,124.875 151.96875,125.125 152.71875,124.9375 C150.03125,125.5625 149.3125,125.5 148.65625,125.40625 C147.96875,125.28125 146.71875,125.3125 146.15625,125.34375 C145.78125,125.40625 145.21875,125.34375 144.96875,125.1875 C144.71875,125.03125 144.65625,124.78125 145.375,124.875 C146.09375,124.90625 146.1875,124.78125 145.5625,124.6875 C144.9375,124.59375 144.09375,124.84375 144.9375,125.375 C145.78125,125.90625 147.59375,125.34375 148.78125,125.6875 C150.871099,126.229293 153.093956,125.728859 154.75,124.34375 C154.875,124.25 155.0625,123.96875 154.625,124.125 Z M147.21875,121.90625 C147.28125,122.09375 147.28125,122.28125 147.21875,122.40625 C147.15625,122.53125 147.1875,122.71875 147.40625,122.53125 C147.625,122.34375 147.78125,122.125 148.03125,122.25 C148.28125,122.375 148.875,122.375 149.15625,122.3125 C149.40625,122.3125 149.5,122.21875 149.09375,122.0625 C148.71875,121.90625 148.3125,121.84375 148.09375,121.875 C147.875,121.90625 147.59375,121.84375 147.40625,121.75 C147.21875,121.65625 147.1875,121.75 147.21875,121.90625 Z" id="Shape" fill="#00D860" fill-rule="nonzero"></path>
                <path d="M151.125,122.59375 C150.8125,122.59375 150.25,122.40625 149.96875,122.28125 C149.6875,122.15625 149.25,122.15625 149.5625,122.59375 C149.875,123.03125 151.21875,123.21875 151.6875,123.03125 C152.15625,122.84375 152,122.59375 152.4375,122.90625 C152.90625,123.1875 153.40625,123.375 153.75,123.375 C154.09375,123.375 154.21875,123.375 153.84375,123.15625 C153.46875,122.9375 153.28125,122.90625 153.21875,122.71875 C153.15625,122.53125 153.15625,122.40625 153.53125,122.53125 C153.90625,122.65625 154.25,122.84375 154.53125,122.6875 C154.8125,122.53125 155.3125,122.21875 155.78125,122.21875 L155.875,121.9375 C155.21875,121.90625 154.78125,122.09375 154.625,122.15625 C154.46875,122.21875 154.09375,122.28125 153.75,122.21875 C153.40625,122.15625 152.96875,122.125 152.84375,122.03125 C152.71875,121.9375 152.75,121.875 153.03125,121.8125 C153.3125,121.75 153.40625,121.5625 153.03125,121.625 C152.65625,121.6875 151.53125,121.6875 150.96875,121.5 C150.40625,121.3125 150.15625,121.28125 149.9375,121.375 C149.6875,121.46875 149.71875,121.71875 150.0625,121.75 C150.40625,121.78125 151.21875,121.84375 151.46875,122.09375 C151.71875,122.34375 151.71875,122.375 151.40625,122.25 C151.09375,122.125 150.53125,122.1875 151.09375,122.59375 L151.125,122.59375 Z" id="Path" fill="#00D860"></path>
                <path d="M155.875,121.9375 L155.75,122.21875 C156.4375,122.21875 158.0625,122.375 158.59375,122.6875 C159.125,122.28125 159.03125,122.15625 159.375,122.25 C159.71875,122.34375 160.21875,122.4375 160.40625,122.34375 C160.59375,122.25 160.75,122.25 160.96875,122.28125 C161.1875,122.3125 161.65625,122.21875 161.9375,122.0625 C162.21875,121.90625 162.78125,121.6875 163.09375,121.6875 C163.40625,121.6875 163.8125,121.59375 163.21875,121.5 C162.625,121.40625 161.71875,121.59375 161.40625,121.71875 C161.09375,121.8125 160.15625,121.90625 159.625,121.90625 C159.09375,121.90625 158.34375,122.15625 157.71875,122 C157.09375,121.84375 156.21875,121.9375 155.84375,121.9375 L155.875,121.9375 Z" id="Path" fill="#00D860"></path>
                <path d="M164.3125,121.625 C163.21875,122.4375 161.90625,122.59375 160.34375,122.71875 C159.875,122.75 160.03125,122.875 160.40625,122.90625 C162.0625,123.09375 163.9375,122.46875 164.5625,121.8125 C164.75,121.625 164.71875,121.3125 164.3125,121.625 Z" id="Path" fill="#000000"></path>
                <path d="M156.875,123.5 C157.765281,123.637929 158.643086,123.846931 159.5,124.125 C159.90625,124.0625 160.03125,123.96875 159.9375,123.8125 C159.84375,123.65625 159.8125,123.5 160.5625,123.5625 L163.25,123.5625 C163.53125,123.46875 164.09375,123.03125 164.34375,123.03125 C163.6875,123.03125 160.9375,123.1875 160.59375,123.15625 C160.25,123.125 160.0625,123.15625 159.84375,123.28125 C159.625,123.40625 159.53125,123.46875 159.21875,123.34375 C158.90625,123.21875 158.46875,123.09375 158.1875,123.28125 C157.9375,123.4375 157.34375,123.28125 156.875,123.5 Z" id="Path" fill="#00D860"></path>
                <path d="M163.25,123.5625 C163.5,123.46875 164.0625,123.03125 164.34375,123 C164.8125,122.96875 165.34375,123.15625 165.59375,123.21875 C165.84375,123.28125 166.125,123.1875 165.96875,123 C165.8125,122.8125 165.9375,122.4375 166.6875,122.53125 C167.4375,122.625 167.8125,122.75 168.5625,122.6875 C169.3125,122.625 169.59375,123.15625 170.96875,122.59375 C170.875,123.15625 171.125,123.1875 171.375,123.09375 C171.625,123 171.9375,123 172.375,123.34375 C172.8125,123.6875 175.46875,123.6875 176.09375,123.59375 C176.71875,123.46875 177.03125,123.8125 176.5625,123.96875 C176.09375,124.09375 175.96875,124.3125 176.09375,124.46875 C176.1875,124.625 176.3125,124.78125 175.71875,124.71875 C175.125,124.65625 175.03125,124.84375 174.75,125.03125 C174.46875,125.21875 174.375,125.34375 173.5625,125.1875 C172.78125,125.0625 172.625,125.15625 172.1875,125.21875 C171.75,125.28125 171.625,125.3125 171.1875,125.15625 C170.75,125 169.8125,124.84375 169.21875,125.0625 C168.625,125.28125 168.21875,125.40625 167.6875,125.28125 C167.15625,125.15625 167.15625,125.1875 167.46875,124.875 C167.78125,124.5625 167.875,124.5625 168.5,124.5 C169.125,124.4375 169.59375,124.25 169.15625,124 C168.71875,123.75 168.59375,123.78125 168,124.0625 C167.40625,124.34375 167.125,124.53125 166.4375,124.1875 C165.8125,123.8125 165.5,123.875 165.03125,124 C164.5625,124.125 163.875,123.84375 163.25,123.5625 Z M165.4375,124.65625 C164.59375,124.78125 164.375,124.25 163.5,124.34375 C163.21875,124.40625 162.71875,124.75 163.40625,124.6875 C164.0625,124.65625 164.8125,125 165.46875,124.96875 C166.125,124.9375 165.84375,124.625 165.46875,124.65625 L165.4375,124.65625 Z M164.5,125.28125 C164.90625,125.125 165.8125,125.4375 166.21875,125.375 C166.625,125.3125 166.96875,125.53125 166.53125,125.6875 C166.09375,125.84375 165.1875,125.4375 164.75,125.5625 C164.3125,125.6875 163.875,125.5 164.46875,125.28125 L164.5,125.28125 Z M155.75,127.65625 C156.375,127.65625 158.5625,127.5625 159.40625,125.78125 C159.46875,125.625 159.53125,125.5625 159.78125,125.75 C160.03125,125.9375 161.0625,126.53125 162.9375,126.6875 C163.46875,126.71875 164.03125,127 162.96875,126.9375 C161.90625,126.875 160.25,126.5625 159.6875,126.21875 C158.75,127.71875 157.03125,127.875 155.78125,127.84375 C155,127.84375 155.1875,127.625 155.78125,127.65625 L155.75,127.65625 Z" id="Shape" fill="#00D860" fill-rule="nonzero"></path>
                <path d="M160.46875,125.15625 C160.15625,125.5625 159.15625,126.25 158.71875,126.3125 C158.25,126.3125 156.875,126.21875 156.53125,126.09375 C156.1875,125.96875 155.78125,126 156.25,126.34375 C156.71875,126.6875 157.96875,126.90625 158.4375,126.8125 C158.96875,126.6875 159.53125,126.53125 159.90625,126.78125 C160.28125,127.03125 161,127.46875 161.40625,127.375 C161.84375,127.28125 162.6875,127.28125 162.96875,127.40625 C163.25,127.53125 163.71875,127.9375 163,127.71875 C162.28125,127.5 161.71875,127.65625 161.375,127.53125 C161.75,128.03125 162.5625,128.84375 163.25,128.84375 C163.4375,128.84375 163.5625,129.15625 163.21875,129.3125 C163.53125,129.46875 164.34375,129.625 164.78125,129.21875 C164.65625,129.375 164.71875,129.46875 164.90625,129.53125 C165.09375,129.59375 165.3125,129.75 164.96875,129.8125 C164.625,129.875 163.90625,129.9375 163.6875,129.8125 C164.375,130.28125 166.21875,131.03125 168.09375,130.65625 C168.46875,130.59375 168.65625,130.4375 168.09375,130.46875 C166.84375,130.46875 166.78125,130.46875 166.5625,130.34375 C166.34375,130.21875 166.40625,130.09375 166.75,130 C167.0625,129.90625 167.96875,129.75 168.3125,129.75 C168.65625,129.75 169.0625,129.625 168.3125,129.625 C167.5625,129.625 166.65625,129.625 166.28125,129.5 C165.90625,129.375 165.65625,129.1875 166.03125,128.9375 C166.40625,128.6875 166.8125,128.75 166.96875,128.53125 C165.78125,128.53125 164.3125,127.875 165.125,127.28125 C165.3125,127.15625 165.25,127.125 164.96875,127.09375 C164.6875,127.0625 163.71875,126.78125 163.34375,126.59375 C162.96875,126.40625 163.21875,126.1875 163.53125,126.125 C162.8125,126.25 161.40625,125.875 160.46875,125.1875 L160.46875,125.15625 Z M171.125,125.15625 C170.5,125.625 169.25,125.84375 168.71875,125.84375 C168.1875,125.84375 168.09375,126.03125 168.53125,126.0625 C168.96875,126.09375 169.40625,126.1875 169.59375,126.125 C169.78125,126.0625 169.90625,126.0625 170.15625,126.1875 C170.4375,126.3125 171,126.375 171.53125,126.21875 C172.0625,126.0625 172.875,125.96875 173.21875,126 C173.5625,126.03125 173.9375,126.03125 173.25,125.84375 C172.5625,125.65625 171.4375,125.78125 171.15625,125.84375 C170.875,125.90625 170.125,125.84375 170.53125,125.75 C170.9375,125.65625 171.28125,125.4375 171.46875,125.25 L171.15625,125.15625 L171.125,125.15625 Z M170.8125,126.5625 C170.168917,127.050313 169.398846,127.343156 168.59375,127.40625 C169.34375,127.6875 169.96875,128.46875 170.46875,128.4375 C170.21875,128.59375 169.9375,128.8125 169.625,128.84375 C170.125,128.96875 170.90625,128.84375 171.5625,128.46875 C172.65625,128.78125 174.0625,128.5625 174.5625,128.15625 C173.84375,128.15625 173,127.90625 172.59375,127.5625 C172.9375,127.5625 173.28125,127.375 173.4375,127.15625 C172.625,127.3125 171.25,126.90625 170.8125,126.53125 L170.8125,126.5625 Z" id="Shape" fill="#00D860" fill-rule="nonzero"></path>
                <path d="M169.625,128.84375 C169.9375,128.8125 170.25,128.59375 170.46875,128.4375 C169.074267,128.549425 167.678824,128.23327 166.46875,127.53125 C165.6875,126.84375 165.6875,127.375 166.21875,127.84375 C166.75,128.3125 167.75,129.09375 169.65625,128.84375 L169.625,128.84375 Z M171.5625,130.5 C171.25,130.6875 169.6875,130.8125 169.15625,130.6875 C168.625,130.5625 168.4375,130.625 168.53125,130.84375 C168.625,131.0625 168.75,131.21875 168.3125,131.15625 C167.875,131.09375 167.15625,131.21875 166.84375,131.3125 C166.53125,131.40625 166.15625,131.6875 166.8125,131.59375 C167.46875,131.5 168.0625,131.34375 168.5625,131.46875 C169.0625,131.59375 170.78125,131.625 171.125,131.46875 C171.46875,131.3125 171.25,131.34375 171.09375,131.34375 C170.9375,131.34375 170.84375,131.25 171.09375,131.125 C171.34375,131 171.5,130.71875 171.5625,130.5 Z M156.40625,128.40625 C155.75,128.6875 153.5625,129.28125 152.96875,129.3125 C152.25,129.625 151.65625,129.8125 151.3125,129.8125 C151.5625,130.03125 152.5625,130.25 152.9375,130.125 C152.71875,130.375 152.21875,130.625 152.03125,130.75 C152.625,130.65625 153.28125,130.8125 153.59375,130.84375 C152.865081,131.231067 152.041729,131.404404 151.21875,131.34375 C151.40625,131.59375 151.65625,131.84375 152,131.84375 C151.358814,132.025771 150.682691,132.047236 150.03125,131.90625 C150.21875,132.25 150.375,132.46875 150.65625,132.53125 C150.0625,132.59375 149.34375,132.6875 148.71875,132.34375 C149.1875,132.96875 150.25,133.15625 151.8125,132.96875 C153.375,132.8125 154.6875,132.125 155.0625,131.8125 C154.40625,131.90625 153.5,131.9375 153.09375,131.84375 C154.18514,131.549466 155.227478,131.096734 156.1875,130.5 C155.830075,130.500399 155.481099,130.391344 155.1875,130.1875 C156.145659,130.224646 157.104023,130.119331 158.03125,129.875 C157.529007,129.766709 157.084114,129.477528 156.78125,129.0625 C158.764241,129.637539 160.860407,129.702036 162.875,129.25 C163.1875,129.15625 163.1875,128.78125 162.625,128.84375 C161.625,128.90625 159.65625,128.625 159.125,128.375 C159.562065,128.689874 160.06381,128.903383 160.59375,129 C159.65625,129.28125 158.34375,129.46875 156.40625,128.375 L156.40625,128.40625 Z" id="Shape" fill="#00D860" fill-rule="nonzero"></path>
                <path d="M152.03125,130.75 C152.21875,130.625 152.71875,130.375 152.9375,130.125 C152.53125,130.25 151.5625,130.03125 151.3125,129.8125 C151.65625,129.8125 152.25,129.65625 152.96875,129.3125 C151.65625,129.28125 150.78125,129.28125 150.28125,129 C149.78125,128.71875 148.9375,128.84375 148.59375,128.90625 C148.25,128.96875 148.375,129.53125 149.78125,129.375 C148.924502,129.77798 147.967921,129.919293 147.03125,129.78125 C147.1875,130.25 147.28125,130.71875 147.15625,131 C147.90625,131.4375 149.90625,131.96875 150.90625,131.90625 C150.03125,131.59375 149.5625,131.21875 150.28125,131.125 C151,131.03125 151.40625,130.90625 152.03125,130.75 Z" id="Path" fill="#00D860"></path>
                <path d="M149.78125,133.125 C151.5,132.96875 153.84375,132.9375 155.71875,131.34375 C156.1875,130.96875 156.5,131.09375 156.03125,131.5 C154.374287,132.774794 152.369004,133.515876 150.28125,133.625 C149.34375,133.625 148.90625,133.1875 149.78125,133.09375 L149.78125,133.125 Z" id="Path" fill="#000000"></path>
                <path d="M162.8125,130.21875 C162.40625,130.375 161.1875,130.59375 160.8125,130.53125 C160.4375,130.46875 159.90625,130.46875 159.625,130.625 C159.34375,130.78125 159.3125,130.9375 159.71875,130.9375 L160.875,131.03125 C160.631139,131.161698 160.41803,131.34284 160.25,131.5625 C160.875,131.4375 161.9375,131.6875 162.25,131.875 C161.999135,131.923001 161.739546,131.866568 161.53125,131.71875 C162.5,132.78125 165.4375,132.78125 165.90625,132.59375 C165.6875,132.75 165.46875,132.90625 165.28125,132.96875 C166.09375,133.125 167.03125,133.09375 167.96875,132.5625 C167.65625,132.59375 166.71875,132.53125 166.46875,132.5 C166.672504,132.309197 166.918945,132.169904 167.1875,132.09375 C166.8125,132 165.6875,132.03125 165.40625,132.1875 C165.513831,131.936936 165.700395,131.728424 165.9375,131.59375 C164.5,131.59375 162.75,131.59375 162.125,131.25 C163.125,131.34375 164.25,130.75 164.71875,130.75 C163.9375,130.75 163.0625,130.5625 162.84375,130.21875 L162.8125,130.21875 Z M159.1875,131 C158.46875,131.15625 157.40625,131.46875 157.09375,131.625 C156.78125,131.78125 156.5,131.875 157.125,131.875 C157.197856,131.853955 157.270773,131.833122 157.34375,131.8125 C157.09375,131.8125 156.8125,131.8125 157.28125,131.65625 C157.75,131.5 158.375,131.1875 159.15625,131.03125 L159.1875,131 Z M157.75,132.71875 C158,132.71875 159.09375,132.71875 159.53125,132.34375 C160,132.65625 160.875,133.15625 161.40625,133.15625 C162,133.15625 161.9375,133.3125 161.4375,133.375 C160.74639,133.349312 160.075845,133.133008 159.5,132.75 C158.84375,133 158.3125,132.8125 157.71875,132.71875 L157.75,132.71875 Z M149.3125,137.625 C150.4375,138.0625 151.90625,138.375 153,138.03125 C153.625,138.5625 154.90625,138.59375 155.59375,138.46875 C156.28125,138.3125 156.90625,138.25 157.6875,138.46875 C158.4375,138.75 160,138.78125 160.4375,139.125 C160.03125,139.125 159.1875,139.125 158.96875,139.1875 C158.78125,139.25 158.875,139.375 159.28125,139.5625 C158.03125,139.5 155.875,140.03125 155.21875,140.59375 C155.594063,139.760694 156.430231,139.231941 157.34375,139.25 C156.71875,139.03125 154.59375,139 153.90625,139.4375 C153.709612,139.220817 153.560574,138.965324 153.46875,138.6875 C152.34375,139.3125 150.15625,138.40625 149.28125,137.625 L149.3125,137.625 Z M146.40625,135.5625 C147.369673,135.492744 148.292266,135.145415 149.0625,134.5625 C149.3125,134.78125 150.3125,135 151.375,134.65625 C151.15625,134.8125 151.125,135.125 151.21875,135.28125 C150.35765,135.356313 149.513868,135.567259 148.71875,135.90625 C148.25,136.125 146.90625,136.3125 146.46875,136.0625 C146.03125,135.84375 146.03125,135.625 146.40625,135.5625 Z" id="Shape" fill="#00D860" fill-rule="nonzero"></path>
                <path d="M151.21875,135.3125 C150.35765,135.387563 149.513868,135.598509 148.71875,135.9375 L148.875,136.5625 C150.651572,136.059637 152.502012,135.869305 154.34375,136 C153.78125,136.03125 152.75,136.625 152.15625,136.65625 C153.59375,136.5625 154.96875,136.84375 155.34375,136.96875 C155.6875,137.03125 155.78125,137.28125 155.5,137.59375 C155.21875,137.90625 155.09375,137.84375 155.6875,137.90625 C156.25,137.90625 157.46875,137.8125 158,137.28125 C157.78125,137.0625 157.21875,137.15625 157.0625,136.96875 C157.426708,136.847811 157.758185,136.644647 158.03125,136.375 C157.477462,136.394452 156.923056,136.36307 156.375,136.28125 C156.0625,136.1875 155.8125,136.09375 156.21875,135.875 C156.478634,135.741697 156.711699,135.561601 156.90625,135.34375 C156.21875,135.53125 155.09375,135.71875 154.15625,134.96875 C154.5,135.0625 155.34375,135 155.625,134.875 C155.379608,134.719581 155.101462,134.623299 154.8125,134.59375 C155.5625,134.21875 157,133.90625 158.875,134.625 C159.75,134.5625 160.75,134.625 161.4375,134.78125 C161.75,134.46875 162.34375,133.78125 162.6875,133.625 C160.5,133.78125 156.65625,133.40625 156.75,132.25 C156.03125,133.1875 154.4375,133.6875 153.75,133.53125 C153.6875,133.84375 153.96875,134.28125 154.21875,134.46875 C153.5,134.625 152.25,134.75 151.65625,134.625 C152,134.9375 152.59375,135.25 152.96875,135.21875 C152.21875,135.21875 151.8125,135.375 151.21875,135.3125 Z" id="Path" fill="#00D860"></path>
                <path d="M155.65625,137.875 C156.28125,137.875 157.46875,137.8125 158,137.28125 C157.78125,137.0625 157.21875,137.15625 157.0625,136.96875 C157.426708,136.847811 157.758185,136.644647 158.03125,136.375 C159.59375,136.25 160.9375,136.3125 161.59375,136.125 C162.25,135.9375 163.9375,136.03125 164.25,135.9375 C162.78125,136.1875 162.5,136.3125 162.4375,136.5625 C162.375,136.8125 162.90625,136.96875 163.25,136.96875 C162.625,136.96875 161.78125,137.625 161.6875,137.90625 C160.8125,137.40625 160.4375,138 160.3125,138.21875 C159.96875,138.0625 158.75,138.09375 158.125,138.625 C157.34375,138.375 156.8125,138.25 156,138.375 C156.5,138.28125 156.40625,137.9375 155.6875,137.875 L155.65625,137.875 Z M162.65625,133.59375 C163.15625,133.59375 164.21875,133.65625 164.625,133.59375 C164.380809,133.710908 164.158773,133.869506 163.96875,134.0625 C165.21875,133.90625 166.90625,133.8125 167.40625,133.90625 C166.78125,133.8125 166.15625,134.21875 165.84375,134.40625 C165.53125,134.59375 165.71875,134.71875 166.15625,134.78125 C166.59375,134.84375 167.125,135.15625 166.375,135.0625 C165.625,134.96875 164.09375,134.9375 163.71875,135 C163.34375,135.0625 163.15625,134.875 163.71875,134.78125 C164.28125,134.6875 164.59375,134.53125 164.84375,134.40625 C164.40625,134.5 163.5625,134.5 163.28125,134.40625 C163,134.3125 162.875,134.21875 163.1875,134.125 C163.5,134.03125 163.28125,133.96875 162.96875,134 C162.65625,134.03125 161.875,134.34375 161.40625,134.78125 C161.90625,134.28125 162.34375,133.84375 162.65625,133.625 L162.65625,133.59375 Z" id="Shape" fill="#00D860" fill-rule="nonzero"></path>
                <path d="M157.125,134.4375 C157.732847,135.148527 158.627251,135.549862 159.5625,135.53125 C159.78125,135.53125 160.25,135.84375 159.65625,135.875 C158.125,135.9375 157.375,135.5625 156.6875,134.59375 C156.5625,134.375 156.8125,134.09375 157.125,134.4375 Z M166.25,121.6875 C167.0625,122.0625 168.65625,122.40625 169.9375,122.34375 C170.15625,122.34375 170.5625,122.5625 170.03125,122.625 C168.696451,122.78809 167.34377,122.537189 166.15625,121.90625 C165.84375,121.71875 165.9375,121.53125 166.25,121.6875 Z" id="Shape" fill="#000000" fill-rule="nonzero"></path>
                <path d="M167.0625,121.6875 C168.3125,121.65625 169.25,121.6875 169.59375,122 C170.3125,121.8125 171.59375,121.6875 171.875,121.75 C172.15625,121.8125 172.5,121.65625 171.8125,121.5 C171.125,121.34375 169.59375,121.28125 169.09375,121.375 C168.59375,121.46875 167.0625,121.53125 166.59375,121.46875 C166.78125,121.46875 166.90625,121.53125 167.0625,121.6875 Z M171.875,122.15625 C172.4375,121.84375 174.125,122.15625 174.625,121.9375 C174.28125,122.375 175.8125,122.40625 177.125,122.0625 C176.625,122.375 175.53125,122.4375 175.0625,122.65625 C174.59375,122.875 174.3125,122.6875 173.96875,122.53125 C173.625,122.375 172.65625,122.03125 171.875,122.15625 Z" id="Shape" fill="#00D860" fill-rule="nonzero"></path>
                <path d="M177.125,122.0625 C175.8125,122.375 174.28125,122.375 174.625,121.9375 C174.125,122.15625 172.4375,121.84375 171.875,122.15625 C172.5,121.8125 172.9375,122.09375 173.375,121.34375 C173.65625,121.40625 174.28125,121.4375 174.5,121.15625 C174.875,121.25 175.5625,121.40625 175.75,121.59375 C175.9375,121.8125 176.25,121.53125 176,121.25 C176.625,121.03125 176.21875,121.5 177.625,121.15625 C177.9375,121.0625 178.625,120.9375 178.875,120.9375 C178.339195,121.381736 177.751589,121.759484 177.125,122.0625 Z" id="Path" fill="#00D860"></path>
                <path d="M151.327212,115.958169 L151.046825,84.8316875 C151.046825,83.4295937 150.345856,83.7100125 150.345856,84.8316875 L150.345856,115.67775 L151.327212,115.958169 Z M161.421162,83.149175 L162.542712,115.958169 L162.402519,116.238588 L161.70155,116.238588 L161.000581,83.149175 L161.421162,83.149175 Z M170.954337,110.910631 L170.393563,84.27085 C170.393563,83.4295937 169.692594,83.5698031 169.692594,84.4110594 L170.253369,110.910631 L170.954337,110.910631 Z" id="Shape" stroke="#000000" stroke-width="0.25" fill="#FFFF00" fill-rule="nonzero"></path>
                <path d="M155.813413,88.6173406 L145.99985,88.4771313 C145.579269,90.4400625 147.962563,90.2998531 148.803725,89.879225 C149.925275,90.5802719 150.766438,90.5802719 151.327213,89.879225 C152.168375,90.5802719 153.289925,90.4400625 153.710506,89.879225 C154.832056,90.8606906 156.0938,89.879225 155.813413,88.4771313 L155.813413,88.6173406 Z M156.514381,93.3844594 L146.700819,93.3844594 C144.8783,95.0669719 147.1214,95.9082281 149.084113,94.7865531 C149.3645,95.3473906 150.48605,95.6278094 151.327213,95.2071812 C152.168375,95.7680187 153.289925,95.3473906 153.8507,94.7865531 C154.832056,95.2071812 156.0938,95.3473906 156.654575,93.3844594 L156.514381,93.3844594 Z M156.233994,99.6938813 L146.700819,99.6938813 C146.560625,101.236184 148.523338,101.095975 149.224306,100.675347 C149.925275,101.797022 151.6076,101.516603 152.168375,100.815556 C153.149731,101.516603 153.990894,101.376394 154.411475,100.815556 C155.392831,101.656813 156.374188,100.535138 156.233994,99.6938813 Z M156.794769,105.863094 L145.99985,105.722884 C145.439075,107.545606 147.1214,107.826025 147.822369,107.405397 C148.102756,108.386863 149.504694,108.106444 149.925275,107.405397 C150.48605,107.826025 151.187019,107.545606 151.467406,107.124978 C151.6076,108.106444 152.869344,108.246653 153.8507,107.405397 C155.813412,108.807491 157.635931,107.124978 156.654575,105.863094 L156.794769,105.863094 Z M166.18775,103.339325 L157.355544,103.339325 C157.776125,105.021838 158.617287,105.442466 160.019225,104.461 C161.140775,105.582675 162.8231,105.162047 163.243681,104.601209 C165.206394,106.143513 166.18775,104.320791 166.18775,103.199116 L166.18775,103.339325 Z M165.346587,97.1701125 L156.654575,96.8896938 C156.794769,99.1330438 158.897675,98.9928344 160.019225,98.1515781 C160.720194,99.1330438 162.122131,98.852625 162.8231,98.1515781 C163.804456,99.2732531 165.626975,98.5722062 165.346587,97.1701125 Z M166.468137,90.2998531 L157.21535,90.2998531 C157.21535,91.8421563 159.318256,92.6834125 160.860388,91.2813188 C161.280969,93.1040406 162.963294,92.5432031 163.664263,91.8421563 C164.785813,93.24425 167.169106,91.5617375 166.468137,90.4400625 L166.468137,90.2998531 Z M165.907363,85.6729438 L157.495738,85.8131531 C157.495738,87.2152469 159.45845,87.7760844 160.159419,86.6544094 C160.58,87.3554563 161.981938,87.2152469 162.402519,86.6544094 C162.963294,87.635875 163.804456,86.9348281 164.084844,86.6544094 C165.0662,87.3554563 166.047556,86.9348281 165.907363,85.6729438 Z M175.580731,88.75755 L165.486781,88.6173406 C165.486781,89.5988063 166.468137,90.0194344 167.169106,89.5988063 C167.169106,90.7204813 168.571044,91.0009 169.5524,90.1596438 C170.113175,91.1411094 171.935694,91.2813188 172.636662,90.1596438 C174.0386,91.4215281 175.720925,90.4400625 175.440537,88.75755 L175.580731,88.75755 Z M175.440537,97.0299031 L165.626975,97.0299031 C165.626975,98.4319969 167.169106,98.852625 168.150462,98.1515781 C168.290656,99.2732531 169.5524,99.4134625 170.253369,98.7124156 C171.234725,99.6938813 172.636662,99.8340906 173.477825,98.7124156 C174.599375,99.1330438 175.580731,98.1515781 175.440537,97.0299031 Z M174.879762,104.461 L167.028912,104.461 C167.028912,105.863094 168.711237,105.863094 169.412206,105.162047 C170.253369,106.143513 171.374919,106.143513 172.075887,105.442466 C173.057244,106.283722 174.739569,106.003303 174.879762,104.461 Z" id="Shape" stroke="#000000" stroke-width="0.25" fill="#FFFFFF" fill-rule="nonzero"></path>
                <path d="M162.402519,116.238587 C158.196706,116.238587 153.8507,116.238587 150.906631,115.958169 C147.962563,115.67775 147.1214,115.116912 145.018494,113.855028 L137.167644,109.087909 C136.466675,108.807491 135.765706,109.228119 136.747062,109.788956 L144.597913,114.976703 C146.700819,116.378797 148.102756,117.640681 149.3645,119.182984 C151.046825,121.005706 152.168375,121.005706 153.009538,120.725287 C153.8507,120.444869 154.97225,120.024241 156.233994,120.304659 C157.355544,120.585078 159.037869,120.725287 159.879031,120.585078 C160.58,121.286125 162.402519,121.145916 163.383875,120.865497 C164.365231,120.585078 165.0662,120.585078 165.767169,120.725288 L168.150463,120.725288 C168.851431,120.725288 170.67395,120.304659 171.935694,120.444869 C173.337631,120.725288 174.599375,120.444869 175.440538,120.444869 C176.356147,120.209516 177.309896,120.161823 178.244413,120.304659 C179.085575,119.743822 179.365963,119.042775 179.64635,118.341728 C180.487513,118.201519 180.7679,118.061309 180.908094,117.640681 L181.749256,115.397331 L182.029644,115.397331 L182.029644,114.556075 L181.468869,113.714819 L181.749256,112.312725 L182.450225,112.032306 L182.169838,110.630213 L169.832788,110.910631 C169.394458,111.321353 169.099594,111.861996 168.991625,112.452934 L165.346587,113.013772 C164.926006,113.153981 164.505425,113.153981 164.084844,113.714819 L162.402519,116.238588 Z" id="Path" stroke="#000000" stroke-width="0.25" fill="#000000"></path>
                <path d="M177.122863,110.770422 L178.945381,103.900163 C179.225769,103.199116 178.5248,103.058906 178.244413,103.900163 L176.421894,110.770422 L177.122863,110.770422 Z" id="Path" stroke="#000000" stroke-width="0.25" fill="#000000"></path>
                <path d="M184.272744,103.058906 C182.730612,103.759953 181.88945,104.180581 181.188481,103.900163 C180.487512,103.619744 179.64635,103.479534 179.085575,103.759953 C179.09026,103.806572 179.09026,103.853543 179.085575,103.900163 C178.578654,105.678202 178.064606,107.454202 177.543444,109.228119 C178.664994,109.648747 180.627706,109.648747 181.048287,109.228119 C181.609062,108.667281 182.870806,108.807491 183.571775,108.807491 C183.992356,108.246653 184.13255,107.545606 183.992356,107.265187 C183.852162,106.984769 183.992356,106.283722 183.992356,105.863094 C183.992356,105.442466 184.553131,103.900163 184.272744,103.058906 Z" id="Path" stroke="#000000" stroke-width="0.25" fill="#FFFFFF"></path>
                <path d="M148.943919,89.879225 C146.224365,96.9542336 142.442435,103.573348 137.728419,109.508538 M140.532294,111.19105 C146.750425,106.174145 152.143317,100.212916 156.514381,93.5246688 M146.700819,99.5536719 C146.280237,103.339325 145.158687,110.069375 144.597912,113.574609 M148.24295,107.966234 C146.841012,109.368328 145.018494,111.611678 143.476362,112.873563 M161.280969,100.394928 C160.159419,101.516603 158.897675,102.918697 157.635931,103.199116 M161.981937,100.675347 C163.013253,101.852475 164.311092,102.765871 165.767169,103.339325 M161.280969,94.6463437 C160.056586,95.719899 158.6252,96.5311079 157.075156,97.0299031 M161.841744,94.7865531 C162.682906,95.6278094 163.664262,96.609275 164.926006,97.1701125 M157.355544,90.2998531 C158.758126,89.8894214 160.051347,89.1708851 161.140775,88.1967125 M161.561356,88.1967125 C162.542712,89.1781781 164.365231,90.1596437 165.346587,90.4400625 M157.635931,85.8131531 C158.955975,85.5819475 160.149584,84.8855977 161.000581,83.8502219 M161.421162,83.5698031 C162.402519,84.4110594 164.225037,85.5327344 165.206394,85.6729438 M169.692594,86.7946187 C169.131819,87.4956656 167.589687,88.6173406 166.608331,88.6173406 M170.393562,86.7946187 C170.814144,87.4956656 171.935694,88.6173406 172.636662,88.6173406 M165.907362,97.0299031 C167.408862,96.466392 168.754496,95.5531815 169.832787,94.365925 M170.533756,94.5061344 C171.209861,95.546003 172.122683,96.4108782 173.197437,97.0299031 M167.449494,104.320791 C168.010269,104.320791 169.5524,103.479534 169.972981,102.498069 M170.814144,102.077441 C171.590126,103.041674 172.541473,103.85041 173.618019,104.461 M147.401787,105.722884 C149.224306,105.162047 152.72915,102.918697 154.551669,100.815556 M151.187019,103.479534 C152.588956,104.461 154.411475,105.582675 155.673219,105.863094 M146.981206,99.5536719 C148.218821,99.058183 149.358197,98.3459935 150.345856,97.4505312 M151.046825,97.3103219 C151.467406,97.8711594 154.411475,99.6938813 155.673219,99.6938813 M150.345856,91.4215281 C149.280044,92.2440365 148.099143,92.9054144 146.841012,93.3844594 M151.046825,91.4215281 C152.028181,92.122575 154.131087,93.3844594 155.392831,93.3844594 M150.345856,85.8131531 C149.504694,86.6544094 148.102756,88.0565031 146.981206,88.4771312 M151.046825,85.9533625 C151.6076,86.9348281 153.289925,88.3369219 154.411475,88.4771312 M165.626975,92.122575 C168.290656,96.7494844 173.057244,102.498069 177.823831,105.582675 M158.056512,86.9348281 C161.981937,92.5432031 169.5524,104.741419 176.842475,109.228119 M178.244412,104.461 C176.369923,107.014435 174.041253,109.200777 171.374919,110.910631 M177.683637,106.003303 C175.300344,102.077441 174.0386,97.1701125 172.075887,90.5802719 M152.448762,107.966234 L155.252637,116.378797 M151.887988,107.826025 L154.551669,116.238588 M151.187019,107.405397 L153.710506,116.098378 M150.906631,107.545606 L152.869344,116.098378 M152.869344,115.817959 L155.252637,115.817959 M154.97225,114.976703 L152.72915,114.976703 M154.691862,114.275656 L152.448762,114.275656 M154.411475,113.574609 L152.168375,113.574609 M153.990894,112.733353 L152.168375,112.733353 M152.028181,112.032306 L153.8507,112.032306 M151.887988,111.471469 L153.710506,111.471469 M151.747794,110.770422 L153.430119,110.770422 M151.6076,110.209584 L153.149731,110.209584 M151.467406,109.508538 L152.869344,109.508538 M151.327213,108.9477 L152.72915,108.9477 M151.187019,108.527072 L152.588956,108.527072 M151.187019,107.966234 L152.448762,107.966234 M148.803725,107.966234 L147.1214,114.976703 M149.224306,107.966234 L147.822369,115.257122 M149.644887,107.685816 L148.523337,115.397331 M150.205662,107.545606 L149.3645,115.67775 M150.345856,115.116913 L147.541981,115.116913 M150.345856,114.415866 L147.1214,114.415866 M150.345856,113.574609 L147.401787,113.574609 M150.205662,112.873563 L147.541981,112.873563 M150.345856,112.172516 L147.682175,112.172516 M150.345856,111.331259 L147.962562,111.331259 M150.345856,110.630213 L147.962562,110.630213 M150.205663,109.929166 L148.102756,109.929166 M150.205663,109.228119 L148.383144,109.228119 M150.205663,108.527072 L148.523338,108.527072 M150.205663,108.106444 L148.663531,108.106444 M150.065469,115.817959 L150.065469,107.545606 M159.178062,104.741419 L153.570312,116.098378 M159.598644,104.601209 L154.832056,116.238588 M159.879031,104.461 L156.0938,116.238588 M160.299613,104.741419 L157.21535,116.238588 M157.355544,115.817959 L153.8507,115.817959 M157.635931,114.696284 L154.271281,114.696284 M157.776125,113.855028 L154.97225,113.855028 M158.3369,113.013772 L155.533025,113.013772 M158.477094,112.172516 L155.813413,112.172516 M158.757481,111.331259 L156.233994,111.331259 M159.037869,110.349794 L156.794769,110.349794 M159.178063,109.648747 L157.075156,109.648747 M159.45845,108.807491 L157.495738,108.807491 M159.598644,108.246653 L157.776125,108.246653 M159.738837,107.685816 L157.776125,107.685816 M159.598644,107.124978 L158.196706,107.124978 M159.598644,106.70435 L158.3369,106.70435 M159.738838,106.143513 L158.617288,106.143513 M160.019225,105.582675 L158.897675,105.582675 M160.019225,105.162047 L159.037869,105.162047 M163.804456,105.021838 L166.18775,112.873563 M164.225038,105.162047 L167.169106,112.733353 M164.645619,105.162047 L168.150463,112.593144 M168.991625,111.892097 L165.0662,105.021838 M168.991625,112.032306 L166.18775,112.032306 M168.711238,110.910631 L165.907363,110.910631 M168.290656,110.069375 L165.626975,110.069375 M167.729881,109.087909 L165.346588,109.087909 M167.169106,108.246653 L165.0662,108.246653 M166.608331,107.265188 L164.785812,107.265188 M166.18775,106.283722 L164.505425,106.283722 M165.626975,105.442466 L164.225038,105.442466 M168.711237,105.582675 L166.18775,112.873563 M169.412206,105.302256 L167.169106,112.733353 M168.150462,112.593144 L169.832787,105.582675 M170.253369,105.863094 L168.851431,112.452934 M166.468137,112.032306 L168.851431,112.032306 M166.748525,111.19105 L169.131819,111.19105 M167.028912,110.209584 L169.272012,110.209584 M167.449494,109.368328 L169.5524,109.368328 M167.729881,108.386862 L169.692594,108.386862 M168.010269,107.545606 L169.832787,107.545606 M168.43085,106.564141 L170.113175,106.564141 M168.711237,105.722884 L170.113175,105.722884 M171.374919,105.863094 L172.496469,110.910631 M171.7955,105.582675 L173.337631,110.770422 M172.356275,105.582675 L174.0386,110.770422 M173.057244,105.863094 L174.879762,110.770422 M174.739569,110.349794 L172.356275,110.349794 M174.459181,109.648747 L172.216081,109.648747 M174.178794,108.9477 L172.075887,108.9477 M173.898406,108.106444 L171.7955,108.106444 M173.477825,107.405397 L171.515112,107.405397 M173.197437,106.70435 L171.374919,106.70435 M172.91705,106.003303 L171.234725,106.003303" id="Shape" stroke="#000000" stroke-width="0.25"></path>
                <path d="M149.875,118.84375 C151,118.125 152.9375,118.25 153.9375,119 C155.09375,118.34375 157.21875,118.53125 158.1875,119.40625 C159.6875,118.375 160.96875,118.21875 162.40625,119.21875 C163.699087,118.357192 165.389307,118.382048 166.65625,119.28125 C167.96875,118.65625 169.40625,118.15625 170.6875,119.5 C169.432725,118.654639 167.766655,118.757167 166.625,119.75 C165.375,118.5 163.15625,118.96875 162.40625,119.84375 C161.874905,119.248826 161.111423,118.913925 160.313853,118.925918 C159.516283,118.937912 158.763217,119.295619 158.25,119.90625 C156.9375,118.8125 155,118.78125 153.9375,119.59375 C152.772455,118.728333 151.272253,118.451372 149.875,118.84375 Z" id="Path" fill="#00B800"></path>
                <path d="M169.78125,117.28125 C164,118.28125 151.34375,117.59375 148.59375,116.875 C147.65625,116.65625 147.90625,116.3125 148.71875,116.5 C151.90625,117.21875 158.71875,117.21875 162.46875,117.03125 C163.1875,116.09375 164.34375,114.4375 164.6875,113.96875 C165.03125,113.5 165.1875,113.46875 165.9375,113.34375 L169.0625,112.8125 L169.0625,113.25 C169,113.34375 168.90625,113.46875 168.8125,113.5 C168.8125,114.25 168.96875,116.0625 169.125,116.71875 L169.53125,116.625 C169.78125,116.5625 170.03125,117.21875 169.78125,117.28125 Z" id="Path" fill="#CF6200"></path>
                <path d="M179.28125,117.5625 L180.0625,117.5625 C180.28125,117.5625 180.625,117.375 180.75,117.03125 L181.53125,114.75 L180.9375,113.875 L181.25,111.96875 L182,111.65625 C182.03125,111.53125 181.96875,111.0625 181.8125,110.9375 L170.5,111.3125 C170.15625,111.3125 170,111.3125 169.875,111.75 C169.199103,114.840709 170.309017,118.04981 172.75,120.0625 C172.9375,120.21875 173.1875,120.0625 172.875,119.8125 C172.263048,119.210658 171.737237,118.527104 171.3125,117.78125 L173.1875,117.75 C173.3125,118.375 173.78125,119.625 173.875,119.875 C173.96875,120.125 174.1875,120.125 174.0625,119.78125 C173.8125,119.03125 173.6875,118.15625 173.59375,117.71875 L175.46875,117.71875 L175.625,119.59375 C175.625,119.84375 175.84375,119.84375 175.84375,119.5625 L175.84375,117.6875 L177.5625,117.625 L177.40625,119.5 C177.375,119.8125 177.53125,119.9375 177.59375,119.5 L177.84375,117.625 L179.03125,117.5625 C179,117.96875 178.625,119.125 178.53125,119.4375 C178.4375,119.75 178.59375,119.75 178.71875,119.46875 C178.961916,118.861819 179.15017,118.234306 179.28125,117.59375 L179.28125,117.5625 Z" id="Path" fill="#CF6200"></path>
                <path d="M171,117.28125 C170.8125,116.875 170.1875,115.4375 170.125,114.40625 L172.625,114.375 C172.71875,115.15625 172.9375,116.84375 173.09375,117.21875 L171,117.28125 Z M173.0625,114.34375 C173.125,114.96875 173.4375,117 173.5,117.21875 L175.5,117.1875 L175.375,114.28125 L173.0625,114.34375 Z M170.25,111.8125 C170.155246,112.516603 170.123871,113.227788 170.15625,113.9375 L172.5625,113.875 L172.375,111.75 L170.25,111.8125 Z M172.84375,111.75 C172.84375,112.25 172.96875,113.5 173,113.875 L175.375,113.8125 L175.25,111.65625 L172.84375,111.75 Z M175.71875,111.65625 L175.8125,113.8125 C176.375,113.8125 177.5,113.8125 177.84375,113.75 C177.875,113.28125 177.9375,111.90625 177.90625,111.5625 L175.71875,111.65625 Z M178.3125,111.5625 L178.25,113.75 L180.46875,113.65625 C180.5625,113.1875 180.78125,111.96875 180.78125,111.46875 L178.3125,111.5625 Z M180.5625,114.15625 L178.21875,114.21875 L178,117.09375 L180.25,117.03125 C180.56482,116.319185 180.836152,115.588676 181.0625,114.84375 C180.90625,114.53125 180.75,114.40625 180.5625,114.15625 Z M175.8125,114.28125 L175.875,117.15625 L177.59375,117.09375 L177.8125,114.21875 L175.8125,114.28125 Z M166.125,113.71875 L165.1875,113.875 C164.466673,114.947578 163.716388,116.000062 162.9375,117.03125 L166.25,116.9375 L166.15625,113.71875 L166.125,113.71875 Z M166.5625,113.625 L166.6875,116.90625 L168.6875,116.75 L168.375,113.3125 L166.5625,113.625 Z" id="Shape" fill="#000000" fill-rule="nonzero"></path>
                <path d="M156.794769,105.863094 L145.99985,105.863094 L145.99985,105.582675 L156.794769,105.722884 L156.794769,105.863094 Z M165.206394,97.1701125 C165.346588,97.1701125 165.346588,97.1701125 165.206394,97.1701125 L156.794769,97.0299031 C156.654575,97.0299031 156.654575,97.0299031 156.794769,97.0299031 L165.206394,97.0299031 L165.206394,97.1701125 Z M156.233994,99.5536719 C156.374188,99.5536719 156.374188,99.6938813 156.233994,99.6938813 L146.700819,99.6938813 C146.560625,99.6938813 146.700819,99.5536719 146.700819,99.5536719 L156.233994,99.5536719 Z M156.514381,93.3844594 C156.654575,93.3844594 156.654575,93.5246688 156.514381,93.5246688 L146.560625,93.5246688 C146.420431,93.5246688 146.420431,93.3844594 146.560625,93.3844594 L156.514381,93.3844594 Z M155.813413,88.4771312 C155.953606,88.4771312 155.953606,88.6173406 155.813413,88.6173406 L146.140044,88.6173406 C145.99985,88.6173406 146.140044,88.3369219 146.140044,88.3369219 L155.953606,88.4771312 L155.813413,88.4771312 Z" id="Shape" stroke="#000000" stroke-width="0.25" fill="#000000" fill-rule="nonzero"></path>
                <path d="M165.907362,85.6729437 L157.495738,85.8131531 L165.907362,85.6729437 Z" id="Path" stroke="#000000" stroke-width="0.25" fill="#FFFFFF"></path>
                <path d="M166.327944,90.4400625 C166.468138,90.4400625 166.468138,90.4400625 166.327944,90.4400625 L157.21535,90.4400625 C157.075156,90.4400625 157.075156,90.4400625 157.21535,90.4400625 L166.327944,90.4400625 Z M175.440538,96.8896938 L175.440538,97.0299031 L165.626975,97.0299031 C165.346588,97.0299031 165.346588,97.0299031 165.626975,97.0299031 L175.440538,97.0299031 L175.440538,96.8896938 Z M175.440538,88.6173406 C175.720925,88.6173406 175.720925,88.75755 175.440538,88.75755 L165.486781,88.75755 C165.346587,88.75755 165.346587,88.6173406 165.486781,88.6173406 L175.580731,88.6173406 L175.440538,88.6173406 Z M166.18775,103.199116 C166.327944,103.199116 166.327944,103.339325 166.18775,103.339325 L157.21535,103.339325 L157.21535,103.199116 L166.18775,103.199116 Z M174.879763,104.461 C175.019956,104.461 175.019956,104.461 174.879763,104.461 L167.028912,104.461 L174.879763,104.461 Z" id="Shape" stroke="#000000" stroke-width="0.25" fill="#000000" fill-rule="nonzero"></path>
                <path d="M182.029644,105.863094 C182.184436,105.21794 182.184436,104.545316 182.029644,103.900162 C181.754673,103.978118 181.463452,103.978118 181.188481,103.900162 C181.054036,103.798341 180.913588,103.704699 180.7679,103.619744 C180.7679,104.180581 180.487512,105.722884 180.207125,106.283722 C179.786544,106.283722 178.805187,106.283722 178.384606,106.003303 L177.964025,107.405397 C178.656757,107.557386 179.3742,107.557386 180.066931,107.405397 C180.066931,108.246653 179.926737,108.9477 179.506156,109.508537 C180.207125,109.508537 180.908094,109.508537 181.048287,109.087909 C181.468869,108.527072 181.468869,107.685816 181.609062,107.265187 L182.310031,107.124978 L183.011,106.844559 L183.992356,106.70435 L183.992356,105.863094 L184.272744,105.302256 L182.029644,106.003303 L182.029644,105.863094 Z" id="Path" stroke="#000000" stroke-width="0.25" fill="#EF072D"></path>
                <path d="M147.261594,58.472325 C146.140044,58.472325 143.616556,58.472325 143.055781,58.7527438 C142.6352,59.0331625 142.495006,59.1733719 143.336169,59.3135813 C144.177331,59.4537906 145.719462,60.0146281 146.560625,60.4352563 C147.401788,60.9960938 147.962562,61.83735 147.962562,63.2394438 C147.332446,66.7802549 149.022636,70.3300501 152.168375,72.0726344 C152.308569,72.2128437 152.448762,72.3530531 152.308569,72.9138906 L151.887988,74.4561937 C151.887988,74.7366125 151.747794,75.0170312 152.168375,74.8768219 C151.736611,75.6462466 151.268778,76.3948628 150.766438,77.1201719 C148.523338,76.8397531 146.560625,77.1201719 146.560625,79.6439406 C146.560625,79.9243594 146.560625,80.2047781 146.841013,79.6439406 C147.261594,79.0831031 147.682175,78.5222656 148.663531,78.2418469 C148.102756,79.2233125 147.822369,80.0645687 147.962563,80.6254062 C147.962563,81.0460344 148.24295,81.3264531 148.523338,80.6254062 C148.663531,80.0645687 149.224306,79.5037312 149.644888,79.0831031 C149.925275,78.9428937 149.925275,78.9428937 149.785081,79.3635219 C149.644888,79.78415 149.925275,80.6254062 150.205663,80.905825 C150.48605,81.1862438 150.626244,81.0460344 150.48605,80.6254062 C150.48605,80.0645687 150.48605,79.0831031 151.187019,78.8026844 C152.028181,78.2418469 152.869344,78.5222656 153.149731,79.0831031 C153.570313,79.78415 153.8507,79.0831031 153.430119,78.5222656 C153.009538,77.9614281 152.588956,77.2603813 152.028181,77.2603813 L153.430119,74.8768219 C153.430119,74.5964031 153.710506,74.4561938 153.990894,74.5964031 C153.990894,74.7366125 154.271281,74.7366125 154.411475,74.3159844 L155.392831,72.3530531 L156.233994,72.0726344 L157.635931,74.175775 L157.635931,75.0170312 C157.635931,75.5778687 157.075156,76.8397531 156.934963,77.2603812 C155.252638,77.2603812 154.411475,77.2603812 153.8507,78.2418469 C153.570313,78.662475 153.990894,78.8026844 154.411475,78.662475 C154.833308,78.4006013 155.317105,78.2554461 155.813412,78.2418469 C156.0938,78.2418469 156.233994,78.5222656 155.813412,78.662475 C154.832056,79.0831031 154.131088,79.78415 154.131088,80.7656156 C154.131088,81.0460344 154.411475,81.1862437 154.551669,80.7656156 C154.97225,80.0645687 155.673219,79.5037312 156.374188,79.3635219 C156.374188,80.0645687 156.514381,81.1862437 157.075156,81.4666625 C157.495738,81.7470812 157.495738,81.4666625 157.355544,81.0460344 C157.075156,80.3449875 157.355544,79.6439406 157.776125,79.2233125 C158.477094,78.3820562 160.159419,79.5037313 160.58,79.78415 C160.860388,80.0645688 161.140775,80.2047781 160.860388,79.3635219 C160.720194,78.3820562 159.318256,77.9614281 158.056513,77.6810094 L159.738838,71.7922156 C160.439806,72.2128437 161.140775,71.0911687 162.262325,71.5117969 C164.225037,72.3530531 167.169106,74.175775 167.589688,74.5964031 C168.150463,75.0170312 168.290656,74.8768219 168.571044,74.5964031 C168.851431,74.4561937 169.272013,74.5964031 169.692594,74.5964031 C169.972981,74.7366125 170.253369,74.8768219 169.832788,74.0355656 C169.031898,72.559427 167.875427,71.3064439 166.468138,70.3901219 C167.589688,70.3901219 168.991625,70.3901219 168.991625,70.1097031 C168.991625,69.8292844 167.3093,69.2684469 166.608331,69.2684469 C167.445031,69.1082301 168.221252,68.7200761 168.851431,68.1467719 C169.131819,67.8663531 168.851431,67.7261437 167.729881,67.7261437 C164.785813,67.7261437 163.243681,67.7261437 161.70155,66.8848875 C159.178063,65.4827937 157.635931,63.8002812 156.374188,63.2394437 C155.813413,62.8188156 155.392831,61.9775594 154.97225,61.2765125 C154.271281,59.1733719 154.271281,58.0516969 152.448763,57.35065 C150.626244,56.6496031 148.24295,57.4908594 147.261594,58.472325 Z" id="Path" stroke="#000000" stroke-width="0.25" fill="#000000"></path>
                <path d="M147.401788,59.0331625 L145.018494,59.0331625 C145.018494,59.0331625 144.738106,59.0331625 145.018494,59.0331625 L147.1214,59.594 C147.541981,59.594 147.401788,60.0146281 147.1214,59.8744187 C146.841013,59.7342094 146.560625,59.8744187 146.841013,60.1548375 C148.24295,61.1363031 148.523338,61.5569313 148.24295,65.3425844 L148.943919,65.9034219 C149.224306,65.9034219 149.084113,66.1838406 148.943919,66.0436313 C148.803725,65.9034219 148.24295,66.0436313 148.663531,66.32405 C149.084113,66.6044688 149.3645,66.6044688 148.943919,66.6044688 C148.523338,66.6044688 148.102756,66.8848875 148.943919,66.7446781 C149.644888,66.7446781 150.065469,67.0250969 148.943919,67.1653063 C148.102756,67.1653063 148.383144,67.445725 148.943919,67.445725 C149.925275,67.445725 149.644888,67.7261438 149.3645,67.7261438 C149.084113,67.7261438 148.943919,68.0065625 149.644888,68.0065625 L150.626244,68.0065625 C150.766438,68.0065625 150.906631,68.0065625 150.626244,68.1467719 C150.345856,68.1467719 150.345856,68.4271906 150.766438,68.4271906 C151.187019,68.4271906 151.467406,68.4271906 151.046825,68.5674 C150.906631,68.5674 150.626244,68.7076094 151.046825,68.8478188 C152.028181,68.8478188 152.168375,69.1282375 151.887988,69.2684469 C151.6076,69.4086563 151.467406,69.4086563 151.887988,69.4086563 C152.308569,69.4086563 152.72915,69.5488656 152.308569,69.689075 C152.028181,69.689075 151.887988,69.9694938 152.308569,69.9694938 C152.72915,69.9694938 153.009538,70.2499125 152.72915,70.3901219 C152.448763,70.5303313 152.308569,70.6705406 152.72915,70.6705406 C153.149731,70.6705406 153.289925,70.81075 153.009538,70.9509594 C152.72915,71.2313781 152.588956,71.2313781 152.308569,70.9509594 C152.308569,70.6705406 152.028181,70.6705406 152.028181,70.9509594 L151.747794,70.5303313 C151.6076,70.1097031 151.327213,70.1097031 151.327213,70.5303313 C151.327213,70.9509594 151.046825,70.6705406 150.766438,70.5303313 C152.153133,72.153249 154.470032,72.6166804 156.374188,71.6520063 C156.514381,71.6520063 156.654575,71.6520063 156.794769,72.0726344 L157.635931,73.6149375 C157.776125,73.8953563 158.056513,73.6149375 158.056513,73.3345188 L158.897675,70.9509594 C158.897675,70.5303313 159.45845,70.2499125 159.318256,71.3715875 C159.738838,71.0911688 161.421163,70.9509594 162.8231,71.3715875 C164.168839,71.9094218 165.440774,72.6161309 166.608331,73.4747281 C166.809521,73.6233748 167.066421,73.6747607 167.3093,73.6149375 C167.729881,73.6149375 167.870075,73.6149375 167.169106,72.9138906 C166.468138,72.2128438 166.748525,71.932425 167.169106,72.2128438 C167.589688,72.4932625 167.870075,72.3530531 167.449494,71.932425 L166.047556,70.6705406 C165.907363,70.6705406 165.907363,70.3901219 165.206394,70.3901219 L163.103488,70.3901219 C162.8231,70.3901219 162.542713,70.3901219 163.383875,70.6705406 C164.225038,70.9509594 165.767169,72.0726344 166.18775,72.3530531 C166.608331,72.6334719 166.748525,73.1943094 166.047556,72.6334719 C165.346588,72.0726344 162.682906,70.5303313 161.000581,69.8292844 C157.21535,70.2499125 154.131088,70.6705406 151.887988,68.2869813 C150.766438,67.0250969 150.766438,64.3611188 152.588956,63.2394438 C152.308569,62.959025 152.308569,62.6786063 152.448763,62.6786063 L152.448763,61.83735 C152.168375,61.6971406 151.887988,61.4167219 151.887988,61.1363031 C151.467406,61.1363031 151.187019,60.4352563 150.48605,60.715675 C149.785081,60.9960938 149.644888,60.715675 149.3645,60.5754656 C149.224306,60.2950469 149.084113,60.2950469 148.663531,60.2950469 C148.24295,60.2950469 147.962563,60.2950469 147.962563,60.0146281 C147.962563,59.7342094 148.24295,59.7342094 148.803725,60.0146281 C149.785081,60.4352563 150.626244,60.715675 151.327213,59.7342094 C151.887988,58.8929531 151.046825,58.1919063 149.925275,57.9114875 C148.663531,57.6310688 147.822369,58.6125344 147.261594,59.0331625 L147.401788,59.0331625 Z" id="Path" stroke="#000000" stroke-width="0.25" fill="#FFFFFF"></path>
                <path d="M153.570313,58.6125344 C153.167217,58.236817 152.689545,57.9501822 152.168375,57.7712781 C151.747794,57.7712781 151.747794,58.0516969 151.887988,58.1919062 L151.887988,59.0331625 C152.168375,59.1733719 152.308569,59.4537906 151.887988,59.4537906 C151.6076,59.7342094 151.887988,60.715675 152.308569,60.4352562 L152.588956,60.4352562 C152.588956,60.4352562 152.588956,60.8558844 152.869344,60.8558844 C153.149731,60.8558844 152.869344,61.1363031 152.869344,61.2765125 L153.149731,61.2765125 C153.430119,61.2765125 153.289925,61.83735 153.009537,61.9775594 C153.430119,61.9775594 153.570312,61.9775594 153.570312,62.2579781 C153.710506,62.5383969 154.131087,62.6786062 154.131087,63.0992344 C154.131087,63.5198625 154.131087,63.5198625 153.570312,63.3796531 C153.009537,63.2394437 153.009537,63.3796531 152.869344,63.6600719 C152.72915,63.9404906 152.588956,64.0807 152.869344,64.0807 C153.149731,64.0807 153.430119,64.2209094 153.009537,64.3611187 C152.588956,64.5013281 152.168375,64.3611187 152.028181,64.7817469 C152.028181,65.202375 152.028181,65.3425844 152.308569,65.202375 L153.289925,64.6415375 L153.990894,64.7817469 C154.271281,64.9219562 153.990894,65.4827937 153.710506,65.202375 C153.430119,64.9219562 153.149731,65.202375 153.009537,65.3425844 L152.308569,65.6230031 C152.028181,65.6230031 151.747794,65.6230031 151.887987,66.32405 C151.887987,68.2869812 153.430119,69.689075 156.233994,69.689075 L160.860388,69.689075 C160.019225,69.1282375 159.45845,68.8478187 159.037869,68.8478187 L158.617287,68.8478187 C158.757481,68.7076094 158.617287,68.4271906 158.477094,68.4271906 C158.3369,68.4271906 158.056512,68.1467719 157.776125,68.4271906 L156.374187,69.1282375 C156.0938,69.1282375 155.673219,69.1282375 156.0938,68.8478187 L157.355544,68.2869812 C157.635931,68.2869812 157.495737,68.0065625 157.495737,68.0065625 C157.495737,68.0065625 157.495737,67.5859344 157.916319,67.7261437 C158.757481,68.2869812 160.019225,68.9880281 160.439806,68.9880281 C160.860388,68.9880281 161.000581,68.7076094 160.720194,68.5674 C160.439806,68.4271906 160.299612,68.1467719 160.299612,68.0065625 C160.299612,67.8663531 160.439806,67.7261437 161.000581,68.0065625 C161.561356,68.4271906 162.402519,68.7076094 162.8231,68.8478187 C163.243681,68.9880281 163.524069,68.9880281 162.8231,68.5674 L159.598644,66.1838406 C159.178062,65.7632125 159.178062,66.1838406 159.318256,66.4642594 C159.45845,66.7446781 158.897675,66.8848875 158.617287,66.6044687 C158.3369,66.32405 158.196706,66.1838406 158.617287,66.0436312 C159.037869,65.9034219 158.897675,65.7632125 158.477094,65.3425844 C157.916319,64.9219562 157.776125,64.9219562 157.916319,65.3425844 C158.056512,65.7632125 158.056512,66.0436312 157.635931,65.9034219 C157.21535,65.7632125 156.794769,65.4827937 157.21535,65.3425844 C157.495737,65.0621656 157.916319,64.9219562 157.21535,64.5013281 C156.514381,64.0807 156.934962,64.5013281 156.794769,64.7817469 C156.654575,65.0621656 156.233994,65.0621656 156.0938,64.7817469 C155.953606,64.5013281 155.673219,64.3611187 155.813412,64.2209094 C155.953606,64.0807 155.953606,63.9404906 156.233994,64.2209094 C156.514381,64.5013281 156.794769,64.2209094 156.374188,63.8002812 C155.953606,63.3796531 155.813413,63.5198625 155.953606,63.8002812 C156.0938,64.0807 155.673219,64.3611187 155.112444,63.8002812 C154.832056,63.6600719 154.832056,63.3796531 155.112444,63.2394437 C155.392831,63.2394437 155.392831,63.0992344 155.112444,62.8188156 C154.131087,61.1363031 154.551669,59.8744187 153.430119,58.6125344 L153.570313,58.6125344 Z" id="Path" stroke="#000000" stroke-width="0.25" fill="#FFFFFF"></path>
                <path d="M153.625,58.875 C153.53125,59.03125 153.5,59 153.3125,59.125 C153.125,59.28125 153.0625,59.6875 153.4375,59.65625 C153.6875,59.59375 153.84375,59.46875 153.9375,59.34375 C153.847659,59.1784101 153.743067,59.0215227 153.625,58.875 Z M152.5,57.96875 C152.21875,58.25 152.1875,58.375 152.3125,58.375 C152.5,58.375 152.40625,58.375 152.3125,58.59375 C152.15625,58.78125 152.53125,58.875 152.6875,58.71875 C152.84375,58.5625 152.84375,58.53125 152.9375,58.71875 C152.96875,58.875 153.25,58.71875 153.375,58.59375 C153.125,58.34375 152.78125,58.125 152.5,57.96875 Z M152,59.53125 C151.625,59.71875 151.75,60.6875 152.3125,60.40625 C152.5,60.3125 152.625,60.375 152.625,60.5 C152.59375,60.59375 152.59375,60.65625 152.625,60.75 C152.863999,60.6537894 153.077796,60.5041319 153.25,60.3125 C153.5625,59.90625 153.25,59.9375 152.75,59.9375 C152.25,59.9375 152.125,59.84375 152.59375,59.5625 C153.03125,59.28125 152.71875,59.125 152.125,59.1875 C152.21875,59.3125 152.1875,59.4375 152,59.53125 Z M154.09375,61.6875 C153.8125,61.375 154,61.25 154.28125,61.09375 C154.343694,61.0670046 154.3977,61.0237997 154.4375,60.96875 L154.1875,60.03125 C154.0625,60.09375 153.875,60.4375 153.8125,60.59375 C153.75,60.84375 153.6875,60.96875 153.4375,60.90625 C153.21875,60.84375 153,61.09375 152.96875,61.34375 L153.125,61.34375 C153.21875,61.375 153.25,61.53125 153.21875,61.65625 C153.875,61.65625 154,62.09375 154.125,62.40625 C154.25,62.75 154.375,62.71875 154.46875,62.5 C154.5625,62.3125 154.34375,61.96875 154.09375,61.6875 Z" id="Shape" fill="#CF6200" fill-rule="nonzero"></path>
                <path d="M154.28125,65.5 C154.15625,65.78125 154.15625,65.75 153.75,65.75 C153.375,65.78125 152.875,65.84375 152.65625,66.0625 C152.5625,66.1875 151.875,66.25 151.875,66.53125 C151.875,66.84375 151.875,67.0625 152.1875,67.09375 C152.46875,67.09375 152.5,67.15625 152.40625,67.375 C152.28125,67.59375 152.21875,67.9375 152.71875,68 C153.21875,68 153.59375,67.875 153.71875,68.15625 C153.84375,68.46875 153.71875,68.90625 153.8125,69.09375 C153.90625,69.28125 154.25,69.375 154.78125,69.53125 C155.15625,69.625 156.5,69.71875 156.90625,69.65625 C157.3125,69.59375 157.15625,69.34375 156.75,69.34375 C156.34375,69.28125 156.03125,69.21875 155.9375,68.9375 C155.84375,68.625 155.75,68.46875 156,68.21875 C156.21875,67.9375 156.4375,67.75 156.3125,67.3125 C156.1875,66.90625 155.96875,66.40625 155.46875,66.28125 C155,66.125 155.15625,65.46875 154.65625,65.40625 C154.46875,65.40625 154.34375,65.40625 154.28125,65.5 Z" id="Path" fill="#FFFF00"></path>
                <path d="M151.90625,69.4375 C152.34375,69.5 152.6875,69.625 152.34375,69.71875 C152.03125,69.8125 151.8125,70 152.25,70.03125 C152.6875,70.0625 153.0625,70.25 152.71875,70.34375 C152.375,70.4375 152.34375,70.65625 152.75,70.65625 C153.15625,70.65625 153.34375,70.84375 153.0625,71.03125 C152.75,71.1875 152.5625,71.28125 152.375,71 C152.1875,70.6875 152.0625,70.625 152.03125,70.84375 C151.96875,71.0625 151.84375,70.90625 151.71875,70.59375 C151.59375,70.28125 151.28125,70.15625 151.375,70.40625 C151.46875,70.65625 151.125,70.71875 150.8125,70.59375 C151.125,70.90625 151.4375,71.21875 151.84375,71.4375 C152.28125,71.28125 152.78125,71.4375 152.9375,71.4375 C153.125,71.4375 153.6875,71.59375 154,71.75 C154.3125,71.90625 154.53125,71.625 154.40625,71.28125 C154.25,70.96875 154.25,71.0625 154.09375,71.28125 C153.90625,71.4375 153.875,71.1875 153.90625,70.8125 C153.90625,70.5 153.6875,70.5625 153.625,70.75 C153.5625,70.9375 153.375,70.625 153.46875,70.4375 C153.5625,70.25 153.46875,70.15625 153.3125,70.21875 C153.15625,70.28125 153.125,70.21875 153.09375,69.84375 C153.0625,69.46875 152.90625,69.53125 152.875,69.6875 C152.84375,69.84375 152.65625,69.625 152.4375,69.34375 C152.25,69.09375 152.03125,69.25 151.65625,69.375 L151.90625,69.4375 Z" id="Path" fill="#CF6200"></path>
                <path d="M156.34375,71.71875 C154.34375,72.5 152.90625,72.15625 151.84375,71.4375 C152.28125,71.28125 152.78125,71.4375 152.96875,71.4375 C153.125,71.4375 153.71875,71.59375 154,71.75 C154.28125,71.90625 154.53125,71.625 154.40625,71.28125 C154.65625,71.625 154.875,71.875 155.1875,71.84375 C155.5,71.84375 156.0625,71.78125 156.34375,71.71875 Z M152.09375,62.5 C151.96875,62.09375 151.84375,62 151.625,62.03125 C151.40625,62.03125 151.3125,62 151.0625,61.90625 C150.84375,61.8125 150.53125,61.90625 150.46875,62.375 C150.40625,62.84375 150.15625,63 149.78125,63.3125 C149.4375,63.5625 149.21875,63.78125 149.21875,64.21875 C149.21875,64.65625 149.125,64.75 148.875,65.09375 L148.46875,65.5625 L148.90625,65.8125 C149.1875,65.9375 149.09375,66.125 148.84375,66.0625 C148.59375,66 148.3125,66.125 148.75,66.21875 C149.1875,66.3125 149.375,66.53125 148.96875,66.53125 C148.53125,66.46875 148.03125,66.84375 148.875,66.75 C149.6875,66.65625 150,67.0625 149.0625,67.0625 C148.09375,67.0625 148.4375,67.375 148.96875,67.375 C149.875,67.375 149.59375,67.65625 149.34375,67.65625 C149.125,67.65625 149.03125,67.96875 149.625,67.90625 L149.84375,67.5625 C149.9375,67.25 150.03125,66.40625 150.375,66.1875 C150.6875,65.9375 150.875,65.5625 150.875,65.34375 C150.875,65.125 151.40625,64.03125 151.71875,63.78125 C152.03125,63.53125 152.21875,62.9375 152.09375,62.53125 L152.09375,62.5 Z" id="Shape" fill="#FFFF00" fill-rule="nonzero"></path>
                <path d="M151.375,62.5625 C151.0625,62.3125 150.71875,62.46875 150.71875,62.875 C150.71875,63.28125 150.46875,63.4375 150.1875,63.59375 C149.865413,63.7696208 149.636879,64.0781417 149.5625,64.4375 C149.5625,64.78125 149.625,65 149.40625,65.28125 C149.15625,65.53125 149.125,65.75 149.28125,65.90625 C149.46875,66.0625 149.46875,66.0625 149.53125,66.28125 C149.625,66.5 150.03125,66.28125 150.03125,66.03125 C150.03125,65.78125 150.125,65.78125 150.375,65.625 C150.65625,65.5 151.09375,64.78125 151,64.59375 C150.90625,64.40625 150.65625,64.21875 151,63.96875 C151.3125,63.6875 151.625,63.65625 151.625,63.40625 C151.625,63.125 151.71875,63.03125 151.8125,62.9375 C151.90625,62.84375 151.59375,62.6875 151.375,62.5625 Z" id="Path" fill="#CF6200"></path>
                <path d="M151.375,62.1875 C151.15625,62.125 151.03125,62.59375 151.34375,62.65625 C151.65625,62.71875 151.6875,62.34375 151.375,62.21875 L151.375,62.1875 Z M151.34375,62.8125 C151.09375,62.84375 150.8125,63.15625 151.21875,63.125 C151.625,63.09375 151.78125,62.78125 151.3125,62.8125 L151.34375,62.8125 Z M150.84375,63.40625 C150.59375,63.53125 150.65625,63.875 151.03125,63.625 C151.40625,63.375 151.46875,63.09375 150.84375,63.40625 Z M150.46875,63.90625 C150.21875,64.03125 150.25,64.375 150.625,64.125 C151,63.90625 151.09375,63.59375 150.46875,63.90625 Z" id="Shape" fill="#000000" fill-rule="nonzero"></path>
                <path d="M149.978152,64.2028744 C149.708997,64.3720546 149.877219,64.7950054 150.247307,64.4989399 C150.617394,64.2028744 150.617394,63.7799236 149.978152,64.2028744 Z M150.314595,64.6258251 C150.011796,64.7950054 150.180018,65.2179561 150.58375,64.9218906 C150.987482,64.6258251 150.953838,64.2028744 150.280951,64.6258251 L150.314595,64.6258251 Z" id="Shape" fill="#000000" fill-rule="nonzero"></path>
                <path d="M149.822861,64.6331294 C149.581443,64.7954446 149.753884,65.2012325 150.167743,64.917181 C150.581603,64.6331294 150.512626,64.2273415 149.822861,64.6331294 Z M150.167743,65.0794961 C149.857349,65.2418113 150.02979,65.6475992 150.44365,65.3635477 C150.857509,65.0389173 150.823021,64.6737082 150.133255,65.0794961 L150.167743,65.0794961 Z" id="Shape" fill="#000000" fill-rule="nonzero"></path>
                <path d="M149.6875,65.15625 C149.4375,65.28125 149.59375,65.59375 149.96875,65.375 C150.34375,65.15625 150.28125,64.84375 149.6875,65.15625 Z" id="Path" fill="#000000"></path>
                <path d="M149.6875,65.46875 C149.46875,65.59375 149.625,65.9375 150,65.6875 C150.375,65.4375 150.3125,65.15625 149.6875,65.46875 Z" id="Path" fill="#000000"></path>
                <path d="M149.53125,68.53125 C149.28125,68.5625 149.09375,68.9375 149.40625,69 C149.71875,69.0625 149.8125,69.09375 149.8125,69.3125 C149.8125,69.53125 149.90625,69.9375 150.25,69.9375 C150.5625,69.96875 150.875,69.59375 150.5625,69.46875 C150.28125,69.34375 150.03125,69.25 150,68.96875 C150,68.71875 149.6875,68.53125 149.53125,68.53125 Z" id="Path" fill="#CF6200"></path>
                <path d="M158.4375,66.4375 L158.625,66.625 C158.875,66.8125 159.3125,66.625 159.25,66.46875 C159.1875,66.3125 158.9375,65.75 159.5625,66.1875 L162.875,68.5 C163.5625,69 163.125,69.0625 162.8125,68.90625 C162.5,68.75 161.5625,68.375 161.03125,68.0625 C160.5,67.75 160.40625,67.875 160.34375,67.96875 C160.28125,68.0625 160.34375,68.28125 160.53125,68.46875 C160.21875,68.5 159.6875,68.46875 159.53125,68.09375 C159.34375,67.6875 158.90625,67.15625 158.59375,66.78125 C158.46875,66.625 158.4375,66.53125 158.46875,66.46875 L158.4375,66.4375 Z" id="Path" fill="#FFFF00"></path>
                <path d="M176.53125,126.125 C176.09375,126.4375 175.46875,127 175.875,127.75 L176.03125,127.6875 C177.767714,125.573111 179.305476,123.303082 180.625,120.90625 L180.65625,120.6875 C180.165512,121.089059 179.617875,121.415534 179.03125,121.65625 C179.25,122.25 178.21875,123 177.6875,123.21875 C177.90625,123.59375 177.84375,124.15625 177.375,124.25 C177.46875,124.5625 177.09375,124.5625 176.65625,124.75 C176.21875,124.9375 176.03125,125.0625 175.875,125.3125 C176.09375,125.15625 176.4375,125.0625 176.59375,125.125 C176.75,125.1875 176.8125,125.4375 176.5,125.53125 C176.1875,125.625 175.96875,125.78125 175.84375,125.90625 C176.3125,125.75 177,125.8125 176.53125,126.125 Z" id="Path" fill="#00D860"></path>
                <path d="M154.97225,65.7632125 C154.411475,65.3425844 154.271281,65.6230031 154.411475,65.7632125 C154.551669,65.9034219 154.411475,66.32405 153.990894,66.4642594 L152.588956,66.4642594 C152.308569,66.4642594 151.887987,67.0250969 152.588956,66.8848875 L154.832056,66.4642594 C155.112444,66.4642594 155.392831,66.1838406 154.832056,65.7632125 L154.97225,65.7632125 Z M155.953606,66.6044687 C155.533025,66.1838406 155.392831,66.32405 155.533025,66.6044687 C155.673219,66.8848875 155.392831,67.0250969 155.112444,67.0250969 L153.149731,67.5859344 C152.588956,67.5859344 152.588956,68.0065625 153.289925,68.0065625 C153.990894,68.0065625 155.392831,67.3055156 155.533025,67.3055156 C155.673219,67.3055156 155.813413,66.8848875 155.953606,67.0250969 C156.0938,67.1653062 156.374188,67.0250969 155.953606,66.6044687 Z M156.374187,67.7261437 L154.97225,68.4271906 C154.551669,68.4271906 154.271281,68.8478187 154.97225,68.8478187 C155.673219,68.8478187 156.374187,68.1467719 156.654575,68.0065625 L157.21535,67.7261437 C157.21535,67.7261437 157.776125,67.5859344 157.21535,67.1653062 C156.654575,66.7446781 156.0938,67.1653062 156.374187,67.3055156 C156.654575,67.445725 156.374187,67.7261437 156.374187,67.7261437 Z" id="Shape" stroke="#000000" stroke-width="0.25" fill="#000000" fill-rule="nonzero"></path>
                <path d="M150.625,58.59375 C149.75,58 148.75,59.21875 149.71875,59.90625 C150.59375,60.5 151.5,59.15625 150.65625,58.59375 L150.625,58.59375 Z" id="Path" fill="#000000"></path>
                <path d="M149.53125,59.125 L149.78125,59.125 C149.75,59.4375 150.03125,59.84375 150.40625,59.75 C150.09375,60 149.46875,59.6875 149.53125,59.125 Z M152.96875,72.40625 C153.25,72.5 154.1875,72.59375 154.53125,72.59375 L154.09375,73.375 C154,73.625 153.96875,73.65625 153.9375,73.28125 C153.9375,72.90625 153.71875,72.65625 153.53125,73.0625 L153.15625,73.75 C153.0625,73.90625 152.90625,73.96875 152.96875,73.5625 C153.03125,73.15625 153,72.75 152.96875,72.40625 Z" id="Shape" fill="#FFFFFF" fill-rule="nonzero"></path>
                <path d="M188.198169,83.149175 C188.198169,106.003303 184.553131,130.680153 154.832056,142.457741 C125.251175,130.680153 121.606137,106.003303 121.465944,83.149175 L188.198169,83.149175 Z M188.198169,83.149175 C188.198169,74.4561938 187.777587,66.0436313 187.917781,58.7527438 C177.37144,54.6623371 166.143178,52.6162816 154.832056,52.7237406 C147.401787,52.7237406 132.821637,53.8454156 121.746331,58.7527438 C122.026719,66.0436313 121.465944,74.4561938 121.465944,83.149175 L188.198169,83.149175 Z" id="Shape" stroke="#000000" stroke-width="0.65"></path>
            </g>
        </g>
    </g>
</svg>