<?xml version="1.0" encoding="UTF-8"?>
<svg width="200px" height="141px" viewBox="0 0 200 141" version="1.1" xmlns="http://www.w3.org/2000/svg" xmlns:xlink="http://www.w3.org/1999/xlink">
    <!-- Generator: Sketch 52.5 (67469) - http://www.bohemiancoding.com/sketch -->
    <title>kr</title>
    <desc>Created with Sketch.</desc>
    <defs>
        <polygon id="path-1" points="0.0585651537 0.175438596 199.970717 0.175438596 199.970717 140.883041 0.0585651537 140.883041"></polygon>
    </defs>
    <g id="Flags" stroke="none" stroke-width="1" fill="none" fill-rule="evenodd">
        <g id="Asia" transform="translate(-70.000000, -850.000000)">
            <g id="kr" transform="translate(70.000000, 850.000000)">
                <mask id="mask-2" fill="white">
                    <use xlink:href="#path-1"></use>
                </mask>
                <g id="Path"></g>
                <g id="Group" mask="url(#mask-2)">
                    <g transform="translate(-1.000000, 0.000000)">
                        <polygon id="Path" fill="#FFFFFF" fill-rule="evenodd" points="200.56735 140.515351 0.109809663 140.515351 0.109809663 0.164473684 200.56735 0.164473684"></polygon>
                        <path d="M102.095534,70.4495614 C102.095534,87.4813691 88.268311,101.288377 71.2115666,101.288377 C54.1548222,101.288377 40.3275988,87.4813691 40.3275988,70.4495614 C40.3275988,53.4177537 54.1548222,39.6107456 71.2115666,39.6107456 C88.268311,39.6107456 102.095534,53.4177537 102.095534,70.4495614 Z" id="Path" fill="#FFFFFF" fill-rule="evenodd"></path>
                        <path d="M140.830893,72.2587719 C140.830893,94.4627193 122.986823,112.5 100.942533,112.5 C78.898243,112.5 61.0816252,94.4627193 61.0816252,72.2587719 C61.0816252,50.0548246 78.9256955,31.9901316 100.969985,31.9901316 C123.014275,31.9901316 140.830893,50.0548246 140.830893,72.2587719 Z" id="Path" fill="#C70000" fill-rule="evenodd"></path>
                        <path d="M19.3814056,34.9232456 L42.3316252,8.41557018 L47.7946559,13.1030702 L24.8169839,39.6381579 L19.3814056,34.9232456 Z M26.9033675,41.4199561 L49.8535871,14.9122807 L55.3166179,19.5723684 L32.3389458,46.1348684 L26.9033675,41.4199561 Z" id="Shape" fill="#000000" fill-rule="nonzero"></path>
                        <polygon id="Path" fill="#000000" fill-rule="evenodd" points="19.3814056 34.9232456 42.3316252 8.41557018 47.7946559 13.1030702 24.8169839 39.6381579"></polygon>
                        <path d="M19.3814056,34.9232456 L42.3316252,8.41557018 L47.7946559,13.1030702 L24.8169839,39.6381579 L19.3814056,34.9232456 Z M34.5900439,48.0811404 L57.5402635,21.5186404 L63.0032943,26.2335526 L40.0256223,52.7686404 L34.5900439,48.0811404 Z" id="Shape" fill="#000000" fill-rule="nonzero"></path>
                        <polygon id="Path" fill="#000000" fill-rule="evenodd" points="19.3814056 34.9232456 42.3316252 8.41557018 47.7946559 13.1030702 24.8169839 39.6381579"></polygon>
                        <path d="M19.3814056,34.9232456 L42.3316252,8.41557018 L47.7946559,13.1030702 L24.8169839,39.6381579 L19.3814056,34.9232456 Z M159.059297,8.38815789 L181.844802,35.0877193 L176.354319,39.747807 L153.568814,13.0482456 L159.059297,8.38815789 Z M143.768302,21.4089912 L166.553807,48.1085526 L161.063324,52.7686404 L138.277818,26.0690789 L143.768302,21.4089912 Z" id="Shape" fill="#000000" fill-rule="nonzero"></path>
                        <polygon id="Path" fill="#FFFFFF" fill-rule="evenodd" points="147.584187 36.7872807 169.106881 18.2017544 173.142387 22.8618421 150.082357 43.5307018 147.529283 36.7872807"></polygon>
                        <path d="M174.103221,102.247807 L152.031479,128.508772 L146.623353,124.013158 L168.695095,97.752193 L174.103221,102.247807 Z M151.48243,14.8300439 L174.267936,41.5296053 L168.804905,46.189693 L146.046852,19.4627193 L151.48243,14.8300439 Z M181.597731,108.470395 L159.498536,134.73136 L154.062958,130.235746 L176.162152,103.974781 L181.597731,108.470395 Z M166.471449,95.9155702 L144.399707,122.176535 L138.991581,117.680921 L161.063324,91.4199561 L166.471449,95.9155702 Z" id="Shape" fill="#000000" fill-rule="nonzero"></path>
                        <path d="M61.6581259,65.1589912 C62.920937,75.3015351 64.7602489,86.5953947 80.3806735,87.7467105 C86.2280381,88.1030702 97.6207906,86.3760965 101.519034,70.4221491 C106.680088,55.1260965 122.108346,50.7401316 132.622621,59.0186404 C138.6347,62.9111842 140.281845,69.0789474 140.666179,73.7390351 C140.199488,88.5416667 131.634334,101.425439 120.68082,107.182018 C108.052709,114.66557 90.5929722,114.830044 75.3019766,103.48136 C68.4114202,97.0394737 58.7756223,85.1151316 61.6581259,65.1589912 Z" id="Path" fill="#3D5897" fill-rule="evenodd"></path>
                        <polygon id="Path" fill="#FFFFFF" fill-rule="evenodd" points="152.635432 101.864035 174.213031 120.394737 170.204978 125.054825 146.293924 105.372807 152.60798 101.864035"></polygon>
                        <polygon id="Path" fill="#000000" fill-rule="evenodd" points="32.4213031 98.1907895 55.2068082 124.862939 49.716325 129.523026 26.9308199 102.850877"></polygon>
                        <polygon id="Path" fill="#FFFFFF" fill-rule="evenodd" points="28.4956076 120.148026 50.0732064 101.535088 54.1087116 106.195175 31.0486823 126.891447 28.4956076 120.120614"></polygon>
                        <path d="M39.9981698,91.7489035 L62.783675,118.421053 L57.2931918,123.08114 L34.5076867,96.4089912 L39.9981698,91.7489035 Z M24.7071742,104.769737 L47.4926794,131.441886 L42.0021962,136.101974 L19.2166911,109.429825 L24.7071742,104.769737 Z" id="Shape" fill="#000000" fill-rule="nonzero"></path>
                    </g>
                </g>
            </g>
        </g>
    </g>
</svg>