<?xml version="1.0" encoding="UTF-8"?>
<svg width="200px" height="150px" viewBox="0 0 200 150" version="1.1" xmlns="http://www.w3.org/2000/svg" xmlns:xlink="http://www.w3.org/1999/xlink">
    <!-- Generator: Sketch 52.5 (67469) - http://www.bohemiancoding.com/sketch -->
    <title>lk</title>
    <desc>Created with Sketch.</desc>
    <g id="Flags" stroke="none" stroke-width="1" fill="none" fill-rule="evenodd">
        <g id="Asia" transform="translate(-1170.000000, -850.000000)">
            <g id="lk" transform="translate(1170.000000, 850.000000)">
                <polygon id="Path" fill="#FFB700" points="0 0 200 0 200 150 0 150"></polygon>
                <polygon id="Path" fill="#FF5B00" points="8.34375 75 35.84375 8.34375 63.34375 8.34375 63.34375 141.65625 35.84375 141.65625"></polygon>
                <polygon id="Path" fill="#005641" points="8.34375 8.34375 35.84375 8.34375 35.84375 141.65625 8.34375 141.65625"></polygon>
                <polygon id="Path" fill="#8D2029" points="71.65625 8.34375 192.5 8.34375 192.5 141.65625 71.65625 141.65625"></polygon>
                <path d="M181.03125,127.6875 C181.03125,127.6875 182.15625,129.96875 183.40625,130.9375 C185.28125,132.3125 189.03125,132.1875 190.6875,133.84375 C192.59375,135.75 190.53125,138.28125 190.53125,138.53125 L190.65625,139.84375 C190.65625,139.84375 189.34375,139.84375 188.78125,139.9375 C187.96875,140.0625 187.65625,140.75 186.09375,140.65625 C182.25,140.40625 182.40625,136.90625 182.1875,133.9375 C182,132.8125 181.5625,131.3125 181.28125,130.1875 C181.0625,129.25 181.03125,127.6875 181.03125,127.6875 Z" id="a" stroke="#000000" stroke-width="0.55" fill="#FFB700"></path>
                <g id="a-link" transform="translate(77.906250, 134.218750) scale(-1, 1) translate(-77.906250, -134.218750) translate(72.593750, 127.500000)" fill="#FFB700" stroke="#000000" stroke-width="0.55">
                    <path d="M0.09375,0.1875 C0.09375,0.1875 1.21875,2.46875 2.46875,3.4375 C4.34375,4.8125 8.09375,4.6875 9.75,6.34375 C11.65625,8.25 9.59375,10.78125 9.59375,11.03125 L9.71875,12.34375 C9.71875,12.34375 8.40625,12.34375 7.84375,12.4375 C7.03125,12.5625 6.71875,13.25 5.15625,13.15625 C1.3125,12.90625 1.46875,9.40625 1.25,6.4375 C1.0625,5.3125 0.625,3.8125 0.34375,2.6875 C0.125,1.75 0.09375,0.1875 0.09375,0.1875 Z" id="a"></path>
                </g>
                <g id="a-link" transform="translate(186.250000, 15.781250) scale(-1, 1) rotate(-180.000000) translate(-186.250000, -15.781250) translate(180.937500, 9.062500)" fill="#FFB700" stroke="#000000" stroke-width="0.55">
                    <path d="M0.09375,0.1875 C0.09375,0.1875 1.21875,2.46875 2.46875,3.4375 C4.34375,4.8125 8.09375,4.6875 9.75,6.34375 C11.65625,8.25 9.59375,10.78125 9.59375,11.03125 L9.71875,12.34375 C9.71875,12.34375 8.40625,12.34375 7.84375,12.4375 C7.03125,12.5625 6.71875,13.25 5.15625,13.15625 C1.3125,12.90625 1.46875,9.40625 1.25,6.4375 C1.0625,5.3125 0.625,3.8125 0.34375,2.6875 C0.125,1.75 0.09375,0.1875 0.09375,0.1875 Z" id="a"></path>
                </g>
                <g id="a-link" transform="translate(77.937500, 15.781250) rotate(180.000000) translate(-77.937500, -15.781250) translate(72.625000, 9.062500)" fill="#FFB700" stroke="#000000" stroke-width="0.55">
                    <path d="M0.09375,0.1875 C0.09375,0.1875 1.21875,2.46875 2.46875,3.4375 C4.34375,4.8125 8.09375,4.6875 9.75,6.34375 C11.65625,8.25 9.59375,10.78125 9.59375,11.03125 L9.71875,12.34375 C9.71875,12.34375 8.40625,12.34375 7.84375,12.4375 C7.03125,12.5625 6.71875,13.25 5.15625,13.15625 C1.3125,12.90625 1.46875,9.40625 1.25,6.4375 C1.0625,5.3125 0.625,3.8125 0.34375,2.6875 C0.125,1.75 0.09375,0.1875 0.09375,0.1875 Z" id="a"></path>
                </g>
                <g id="Group" transform="translate(94.062500, 43.125000)">
                    <g id="b-link" stroke="#000000" stroke-width="2.8">
                        <g id="b">
                            <path d="M19.53125,63.0625 L20.25,62.625 L20.5625,63.0625 C20.96875,63.625 22.125,63.59375 22.875,63.0625 L23.46875,62.59375 L23.96875,63.03125 C24.59375,63.625 25.78125,63.625 26.5625,63.03125 C27.09375,62.65625 27.1875,62.625 27.5,62.9375 C27.71875,63.125 28.34375,63.3125 28.875,63.40625 C29.875,63.53125 29.875,63.53125 30.4375,62.65625 C30.9375,61.9375 31,61.65625 30.90625,60.9375 C30.8189817,60.3885027 30.7564187,59.8358624 30.71875,59.28125 C30.65625,58.46875 30.6875,58.46875 31.84375,58.03125 C32.4176798,57.8551831 32.9810956,57.6465106 33.53125,57.40625 C34,57.125 35.3125,55.59375 35.3125,55.28125 C35.3125,55.21875 34.8125,55.09375 34.1875,55.03125 C31.6875,54.71875 31.28125,53.40625 32.90625,50.96875 C35.5,46.90625 37.09375,43 37.09375,40.53125 C37.09375,39.40625 37.1875,39.03125 37.3125,39.28125 C37.90625,40.25 36.84375,44.40625 35.28125,47.40625 L34.65625,48.59375 L35.25,48.46875 C35.5625,48.375 37.5625,47.53125 39.625,46.59375 C45.3125,44.03125 47.25,43.53125 50.9375,43.6875 C54.03125,43.8125 55.3125,44.40625 57.5,46.6875 C58.65625,47.9375 59.78125,48.78125 61.8125,50.0625 C66.125,52.75 66.3125,53 66.53125,56.1875 C66.75,59.40625 66.625,59.59375 64.1875,60.125 C62.09375,60.59375 60.78125,61.5625 60.4375,62.9375 C60.25,63.625 60.65625,63.65625 61.6875,62.96875 L62.46875,62.46875 L62.8125,62.96875 C63.28125,63.625 64.21875,63.625 65,62.96875 L65.625,62.5 L66.25,62.96875 C67.1875,63.75 68.4375,63.5625 68.8125,62.59375 C68.875,62.4375 69.0625,62.46875 69.4375,62.8125 C70.15625,63.4375 71.9375,63.6875 72.125,63.1875 C72.1875,63 72.0625,62.5625 71.8125,62.1875 C70.78125,60.625 70.4375,59.90625 70.4375,59.0625 C70.4375,57.875 70.75,57.28125 72.125,56.34375 C73.75,55.15625 74.25,53.65625 73,53.65625 C72.25,53.65625 71.46875,52.96875 70.96875,51.875 C69.96875,49.625 70.1875,47.125 71.6875,42.9375 C72.8375721,40.4736485 73.414512,37.7812623 73.375,35.0625 C73.375,32.75 73.3125,32.375 72.8125,31.09375 C72.4213888,30.2029447 71.9396873,29.3547312 71.375,28.5625 L70.5,27.40625 L71.59375,26.46875 C74.96875,23.6875 74.28125,19.125 70.21875,17.375 C68.96875,16.8125 68.65625,16.78125 66.46875,16.78125 C65.21875,16.78125 63.1875,16.96875 62.09375,17.1875 C60.6256172,17.4198037 59.1425465,17.5451337 57.65625,17.5625 C55.53125,17.5625 55.15625,17.5 54.34375,17.0625 C53.5,16.625 53.34375,16.40625 53.1875,15.34375 C53.1569692,15.1404802 53.0284432,14.9652174 52.84375,14.875 C52.53125,14.78125 51.21875,15.9375 51.03125,16.4375 C50.90625,16.71875 50.84375,16.6875 50.5625,16.34375 C50.2974422,16.0031953 50.0866197,15.6237148 49.9375,15.21875 C49.625,14.1875 50.03125,13.4375 51.25,12.84375 L52.1875,12.40625 L51.625,12.0625 C50.5,11.34375 48.5625,11.84375 47.875,13 C47.65625,13.3125 47.4375,13.625 47.375,13.625 C47.3125,13.625 46.9375,13.3125 46.5625,12.90625 C45.09375,11.46875 45.59375,9.34375 47.5625,8.71875 C48.59375,8.375 49.53125,8.625 49.71875,9.34375 C50.03125,10.375 50.90625,9 50.75,7.71875 C50.65625,6.875 50.65625,6.84375 51.25,6.84375 C52.0625,6.84375 53.75,7.90625 54.3125,8.71875 C54.9375,9.6875 54.875,11.21875 54.1875,12.34375 L53.65625,13.21875 L54.375,13.09375 C55.375,12.875 56.375,12.25 56.875,11.46875 C57.4087352,10.4607957 57.454738,9.26472248 57,8.21875 C56.53125,7.375 56.59375,7.25 57.28125,7.53125 C58.40625,8 59.03125,8.53125 59.46875,9.4375 C59.90625,10.25 59.9375,10.4375 59.71875,11.3125 C59.5691052,11.8452548 59.3371412,12.3513581 59.03125,12.8125 C58.65625,13.3125 58.625,13.40625 58.9375,13.40625 C59.5,13.40625 60.625,12.875 61.03125,12.46875 C61.25,12.21875 61.5625,11.6875 61.71875,11.21875 L62.03125,10.4375 L62.34375,11.0625 C62.8125,11.90625 63.75,12.6875 64.875,13.1875 C66.09375,13.6875 66.59375,13.71875 65.96875,13.25 C65.53125,12.9375 64.71875,10.59375 65,10.375 C66.348691,11.1302328 67.5803385,12.0776539 68.65625,13.1875 C70.4375,14.78125 71.5625,15.3125 73.1875,15.3125 C75.28125,15.3125 76.5,13.5 75.5625,11.78125 C75.03125,10.78125 73.8125,10.625 73.0625,11.46875 C72.75,11.875 72.65625,12.1875 72.75,12.625 C72.875,13.125 72.84375,13.1875 72.375,13.1875 C71.75,13.1875 70.5625,12.40625 68.4375,10.625 C65.4796601,8.07945439 62.0795274,6.09869168 58.40625,4.78125 C55.9177722,4.20606221 53.3481414,4.06859225 50.8125,4.375 C48.8125,4.75 46.4375,5.90625 45.125,7.125 C42.84375,9.3125 42.8125,12.21875 45.03125,14.875 L45.65625,15.625 L45.25,16.3125 C44.6248346,17.3199127 44.6743026,18.606082 45.375,19.5625 C45.6875,20 46,20.34375 46.09375,20.34375 C46.15625,20.34375 46.21875,20.0625 46.25,19.71875 C46.3125,18.875 46.6875,18.3125 47.3125,18.09375 C47.875,17.875 48.25,18 50.8125,19.03125 C53.53125,20.09375 58,20.15625 62.75,19.21875 C64.8087714,18.7432879 66.9511486,18.7647117 69,19.28125 C71.25,20.21875 71.75,22.625 70.125,24.4375 C69.40625,25.25 68.75,25.5625 66.46875,26.1875 C64.4826127,26.7112819 62.4178788,26.8701076 60.375,26.65625 C57,26.625 55.78125,26.6875 54.4375,26.96875 C52.90625,27.28125 52,27.3125 47.625,27.21875 L42.53125,27.09375 L43.09375,27.53125 C43.3949841,27.7987543 43.7191482,28.0392631 44.0625,28.25 C44.46875,28.46875 44.4375,28.5 43.875,28.71875 C43.5625,28.84375 42.8125,28.9375 42.21875,28.9375 L41.1875,28.9375 L41.0625,29.8125 C40.9783162,30.2249145 40.9783162,30.6500855 41.0625,31.0625 C41.1875,31.375 41.125,31.4375 40.8125,31.3125 C40.59375,31.21875 40,31.0625 39.46875,30.96875 C38.9327564,30.8538155 38.409394,30.6863395 37.90625,30.46875 C37.3125,30.15625 37.25,30.15625 37.03125,30.5625 C36.84375,30.875 35.09375,32.1875 34.84375,32.1875 C34.7307925,31.3767556 34.4991444,30.5870462 34.15625,29.84375 C33.84375,29.1875 33.5625,28.4375 33.46875,28.21875 C33.375,27.875 33.3125,27.84375 33.15625,28.125 C33.0625,28.28125 32.9375,28.75 32.84375,29.125 C32.7342983,29.6311548 32.5443873,30.116483 32.28125,30.5625 L31.8125,31.25 L31.5,30.65625 C31.1875,30.03125 30.6875,29.34375 30.5,29.34375 C30.4375,29.34375 30.34375,29.53125 30.28125,29.8125 C30.125,30.3125 28.90625,31.78125 28.59375,31.78125 C28.5,31.78125 28.40625,31.375 28.40625,30.84375 C28.40625,30.375 28.3125,29.9375 28.1875,29.9375 C28.0625,29.9375 27.96875,30.09375 27.96875,30.25 C27.96875,30.625 26.9375,31.8125 26.5625,31.8125 C26.4375,31.8125 26.1875,31.9375 26.03125,32.125 C25.65625,32.53125 25.34375,32.46875 25.5,32 C25.5438087,31.5997824 25.5011814,31.1948239 25.375,30.8125 L25.0625,29.8125 C25,29.65625 24.625,29.71875 23.8125,29.96875 C22.5625,30.375 22.125,30.28125 22.78125,29.78125 C23.03125,29.59375 23.40625,28.9375 23.59375,28.34375 C23.8125,27.71875 24.125,27.1875 24.28125,27.125 C24.5,27.0625 24.5,27.125 24.21875,27.5 C24.0378487,27.737724 23.9196398,28.0171268 23.875,28.3125 C23.875,28.46875 23.71875,28.875 23.5625,29.21875 C23.375,29.53125 23.25,29.84375 23.28125,29.875 C23.3125,29.90625 23.8125,29.71875 24.375,29.46875 L25.375,28.96875 L25.375,29.40625 C25.375,29.65625 25.5,30.28125 25.65625,30.8125 L25.9375,31.75 L26.625,31.4375 C27.3125,31.125 27.96875,30 27.96875,29.09375 C27.96875,28.65625 28.21875,28.71875 28.34375,29.1875 C28.34375,29.3125 28.53125,29.84375 28.65625,30.34375 L28.96875,31.21875 L29.4375,30.65625 C29.71875,30.34375 30.03125,29.71875 30.15625,29.3125 C30.40625,28.5625 30.78125,28.21875 30.78125,28.78125 C30.78125,29.15625 31.84375,30.59375 32.03125,30.46875 C32.15625,30.40625 32.34375,29.875 32.5,29.28125 C32.8125,28.03125 33.28125,27.21875 33.59375,27.40625 C33.71875,27.46875 33.75,27.59375 33.6875,27.71875 C33.625,27.78125 33.875,28.59375 34.25,29.46875 C34.5217076,30.1246389 34.7925411,30.7808895 35.0625,31.4375 C35.1875,31.75 35.3125,31.75 36.09375,31.03125 C36.5625,30.59375 37.03125,30.125 37.0625,29.96875 C37.15625,29.71875 37.25,29.75 37.6875,30.03125 C38.6088296,30.517977 39.6182171,30.8154807 40.65625,30.90625 C40.71875,30.84375 40.78125,30.28125 40.78125,29.65625 L40.8125,28.5 L41.4375,28.625 C41.75,28.71875 42.46875,28.71875 43,28.625 L43.9375,28.5 L43.09375,27.875 C42.625,27.5625 42.15625,27.15625 42.03125,26.96875 C41.9375,26.78125 41.5,26.59375 41.03125,26.5625 C39.75,26.4375 37.46875,25.1875 37.46875,24.5625 C37.46875,24.4375 37.78125,24.65625 38.15625,25 C39.03125,25.78125 40.21875,26.25 41.28125,26.25 L42.03125,26.25 L41.5625,25.625 C41.2285163,25.1404204 41.0143128,24.5834914 40.9375,24 C40.875,23.0625 40.78125,22.9375 39.8125,22.28125 C39.2507634,21.8832167 38.7276348,21.4333261 38.25,20.9375 L37.71875,20.34375 L37.4375,21.0625 C37.28125,21.46875 37.125,21.78125 37.03125,21.78125 C36.96875,21.78125 36.65625,21.53125 36.40625,21.25 C36.2304402,21.0463135 36.0185609,20.8768101 35.78125,20.75 C35.6875,20.75 35.46875,21.125 35.21875,21.59375 L34.78125,22.4375 L34.46875,21.96875 C34.1907765,21.5855543 33.8768522,21.2297734 33.53125,20.90625 C33.15625,20.59375 33,20.34375 33.125,20.34375 C33.25,20.34375 33.65625,20.65625 34.0625,21.0625 L34.75,21.78125 L35.0625,21.25 C35.2430104,20.8818947 35.2978951,20.4647705 35.21875,20.0625 C35.09375,19.5 35.125,19.46875 35.3125,19.84375 C35.5819988,20.1964802 35.8972698,20.5117512 36.25,20.78125 L36.9375,21.34375 L37.40625,20.5 C37.875,19.625 37.875,19.625 38.0625,20.15625 C38.375,20.8125 40.40625,22.5 42.125,23.46875 C42.4375,23.625 42.3125,23.125 41.8125,21.90625 C41.6623576,21.5057759 41.5779356,21.0836655 41.5625,20.65625 C41.5625,20.09375 41.40625,19.84375 40.6875,19.28125 C39.7815047,18.7019499 39.2022714,17.7288381 39.125,16.65625 C39.03125,16.125 38.84375,15.5625 38.6875,15.375 C38.5,15.0625 38.4375,15.25 38.5,16.1875 C38.5625,16.84375 38.46875,17.65625 38.3125,18 L38.0625,18.625 L37.875,18.09375 C37.75,17.8125 37.25,17.3125 36.78125,17 C36.3125,16.6875 35.96875,16.375 36.03125,16.3125 C36.09375,16.25 36.59375,16.53125 37.125,16.9375 C37.96875,17.59375 38.125,17.65625 38.25,17.375 C38.375,17.0625 38.25,15.625 38,14.625 C37.875,14.125 37.875,14.125 38.5,14.75 C38.9375,15.1875 39.1875,15.75 39.40625,16.6875 C39.65625,17.875 39.78125,18.09375 40.875,19.0625 C41.53125,19.65625 42.125,20.09375 42.15625,20.0625 C42.21875,20 42.28125,18.5 42.34375,16.6875 C42.46875,13.21875 42.34375,12.375 41.5,11.3125 L41.0625,10.75 L41.75,10.03125 C42.5201592,9.29454655 43.0347673,8.33102496 43.21875,7.28125 L43.34375,6.4375 L42.59375,7.15625 C41.96875,7.75 41.65625,7.875 40.9375,7.875 C40.21875,7.875 39.9375,7.75 39.46875,7.25 C38.7385787,6.54708962 37.8484173,6.03229747 36.875,5.75 C36.5,5.625 36.375,5.6875 36.375,5.9375 C36.375,6.125 36.1875,6.625 35.9375,7.09375 L35.5,7.90625 L34.5625,6.96875 C33.96875,6.4375 33.3125,5.96875 32.78125,5.84375 C31.5,5.53125 31.4375,5.53125 31.4375,6.5 C31.4375,7.96875 30.8125,8.25 29.6875,7.28125 C28.8125,6.53125 28.125,6.34375 26.46875,6.5625 L25.21875,6.6875 L25.4375,7.25 C25.625,7.71875 25.59375,7.9375 25.1875,8.46875 C24.53125,9.34375 23.6875,9.71875 22.375,9.71875 C21.75,9.71875 21,9.84375 20.6875,10 C20.375,10.15625 19.5625,10.3125 18.90625,10.375 C18.28125,10.4375 17.5625,10.5625 17.34375,10.625 C17.03125,10.75 17.03125,10.625 17.125,9.9375 C17.28125,8.875 16.5,8.0625 15.34375,8.0625 C13.8125,8.0625 13.125,9.4375 13.71875,11.25 C13.8403115,11.6410502 13.9445794,12.037268 14.03125,12.4375 C14.4416771,13.2189481 14.9925341,13.9181127 15.65625,14.5 C16.46875,15.3125 17.21875,16.15625 17.34375,16.375 C17.595305,16.7008925 17.9153377,16.9675864 18.28125,17.15625 L18.96875,17.53125 L18.875,16.78125 C18.78125,15.96875 18.9375,15.84375 19.375,16.4375 C19.53125,16.625 19.9375,16.96875 20.25,17.15625 C20.78125,17.46875 20.875,17.46875 20.875,17.21875 C20.875,17.03125 20.96875,16.625 21.09375,16.3125 L21.3125,15.75 L21.71875,16.53125 C21.9375,16.96875 22.65625,17.9375 23.3125,18.71875 C24.59375,20.1875 25.40625,21.84375 25,22.21875 C24.8125,22.375 24.375,22.375 23.4375,22.1875 C22.75,22.0625 21.875,21.96875 21.5,22.03125 C20.78125,22.125 20.71875,22.03125 21.1875,21.46875 C21.65625,20.84375 21.5625,20.75 20.625,20.75 C19.53125,20.75 16.8125,20.21875 15.75,19.8125 C14.75,19.40625 14.5,19.5 14.1875,20.46875 L13.65625,22.21875 L13.34375,23.15625 L14.46875,23.0625 C15.0487273,23.001824 15.6232833,22.8973593 16.1875,22.75 C16.4088384,22.6762502 16.6419965,22.6444559 16.875,22.65625 C16.9375,22.6875 16.78125,23.0625 16.5625,23.5 L16.125,24.25 L16.8125,24.125 C17.1875,24.03125 17.75,23.84375 18.0625,23.6875 C18.625,23.4375 18.6875,23.4375 19.125,24.15625 C19.65625,25 20.0625,24.96875 20.15625,24.0625 C20.25,23.125 20.5625,23.25 21.15625,24.5 C21.71875,25.6875 22.28125,26.125 22.40625,25.4375 C22.4375,25.1875 22.71875,24.8125 23.0625,24.5625 C23.75,24.09375 24.25,24.25 24.53125,24.96875 C24.84375,25.75 24.15625,26.53125 22.21875,27.71875 C18.582609,29.7263273 16.079229,33.3025844 15.4375,37.40625 C14.84375,41.09375 16.6875,44.90625 20.3125,47.6875 C22.0625,49 24.84375,50.375 24.65625,49.875 C23.90625,47.59375 23.9375,43.3125 24.6875,42.59375 C24.8125,42.46875 24.78125,42.90625 24.59375,43.5625 C23.96875,46.03125 24.28125,47.96875 25.84375,52.53125 C27.21875,56.65625 27.03125,58.4375 25.03125,59.59375 C24.40625,59.96875 24,60.03125 22.28125,60 C20.40625,60 20.1875,60 19.59375,60.5 C18.8757896,61.2332539 18.4058269,62.1731794 18.25,63.1875 C18.25,63.59375 18.6875,63.53125 19.5,63.0625 L19.53125,63.0625 Z" id="Path" fill="#FFB700"></path>
                            <path d="M49.84375,62.96875 L50.625,62.46875 L51.15625,62.96875 C51.84375,63.625 52.6875,63.59375 53.34375,62.9375 C53.65625,62.625 53.90625,62.4375 53.9375,62.46875 L54.21875,62.96875 C54.375,63.25 54.71875,63.375 55.34375,63.4375 C56.0625,63.46875 56.28125,63.4375 56.59375,63 L56.90625,62.46875 L57.6875,62.96875 C59.8125,64.34375 60.9375,62.90625 59.96875,60.0625 C59.5,58.625 59.78125,57.8125 61.3125,56 C61.96875,55.21875 62.5,54.375 62.5,54.125 C62.5,53.78125 62.375,53.71875 61.5,53.75 C60.6875,53.75 60.4375,53.65625 60,53.1875 C59.28125,52.40625 59.34375,51.5 60.125,50.5 L60.75,49.71875 L59.625,48.96875 C58.7269575,48.3054597 57.8902668,47.5628968 57.125,46.75 C55.7474186,45.1240788 53.7801116,44.1123209 51.65625,43.9375 L50.1875,43.78125 L50.1875,44.90625 C50.1875,46.3125 50.875,47.6875 52.6875,50 C54.75,52.625 54.875,53.03125 54.96875,56.46875 L55.0625,59.375 L54.4375,59.9375 C53.90625,60.4375 53.6875,60.53125 51.9375,60.625 C50.28125,60.71875 49.90625,60.8125 49.4375,61.25 C48.888957,61.6500536 48.5099436,62.2408685 48.375,62.90625 C48.28125,63.375 48.3125,63.46875 48.65625,63.46875 C48.875,63.46875 49.40625,63.25 49.84375,62.96875 Z M5.40625,55.46875 C5.59524104,55.1912273 5.70342922,54.8666628 5.71875,54.53125 C5.71875,54.21875 5.90625,54.09375 6.71875,53.96875 L7.6875,53.84375 L7.0625,53.3125 C6.28125,52.6875 6.1875,52.21875 6.875,52.21875 C7.5625,52.21875 8.6875,51.53125 8.875,51 C8.96875,50.75 8.875,50.4375 8.75,50.28125 C8.375,49.84375 7.65625,49.90625 7.53125,50.40625 C7.375,50.90625 7.15625,50.90625 6.59375,50.40625 C5.8125,49.625 5.78125,48.03125 6.59375,47.09375 C6.9375,46.65625 6.9375,46.65625 6.46875,46.1875 C5.96875,45.6875 5.59375,44.75 5.84375,44.5 C5.90625,44.4375 6.3125,44.5 6.71875,44.65625 C7.34375,44.84375 7.5625,44.84375 7.8125,44.65625 C8.53125,44.0625 7.75,43.3125 6.5625,43.5 C6.0625,43.5625 5.875,43.5 5.8125,43.25 C5.75,43.0625 5.34375,42.8125 4.875,42.6875 C4.03125,42.46875 4.03125,42.46875 4.03125,43.0625 C4.03125,43.6875 3.65625,43.8125 2.96875,43.40625 C2.40625,43.09375 1.875,43.34375 1.875,43.9375 C1.875,44.5 2.40625,44.75 3.4375,44.6875 C4.1875,44.65625 4.21875,45.21875 3.5,46.03125 L2.96875,46.65625 L3.375,47.25 C4,48.125 3.9375,49.59375 3.28125,50.34375 L2.75,50.90625 L2.40625,50.4375 C1.90625,49.8125 1.25,49.84375 1.0625,50.53125 C0.96875,50.96875 1.0625,51.15625 1.625,51.65625 C2,51.96875 2.5625,52.21875 2.84375,52.21875 C3.5625,52.21875 3.53125,52.8125 2.78125,53.375 L2.15625,53.84375 L3.09375,53.96875 C3.59375,54.0625 4.03125,54.1875 4.03125,54.28125 C4.03125,54.6875 4.65625,55.90625 4.84375,55.90625 C4.96875,55.90625 5.21875,55.6875 5.40625,55.4375 L5.40625,55.46875 Z" id="Shape" fill="#FFB700" fill-rule="nonzero"></path>
                            <path d="M17.34375,50.28125 C18.1875,49.96875 20,48.40625 20,48.0625 C20,47.9375 19.5,47.375 18.875,46.8125 C17.625,45.6875 16.21875,43.71875 15.84375,42.59375 C15.65625,41.96875 14.75,40.96875 12.1875,38.46875 L8.78125,35.1875 L7.8125,35.4375 C7.25,35.5625 6.59375,35.6875 6.34375,35.6875 C5.875,35.6875 5.875,35.6875 6.5,36.1875 L7.125,36.6875 L8.0625,36.1875 C8.90625,35.6875 8.9375,35.6875 9.03125,36.09375 C9.09375,36.3125 8.96875,36.71875 8.71875,37 C8.5,37.28125 8.375,37.625 8.40625,37.71875 C8.5,37.8125 8.28125,38.03125 7.9375,38.21875 C7.3125,38.53125 6.84375,39.5625 7.34375,39.5625 C7.8125,39.5625 8.8125,38.3125 8.6875,37.90625 C8.625,37.6875 8.6875,37.46875 8.75,37.40625 C9.15625,37.1875 9.125,38.15625 8.75,38.65625 C8.5,38.90625 8.375,39.21875 8.4375,39.34375 C8.5,39.4375 8.28125,39.65625 7.9375,39.84375 C7.3125,40.15625 6.84375,41.1875 7.34375,41.1875 C7.84375,41.1875 8.8125,40 8.71875,39.5625 C8.65625,39.34375 8.65625,39.09375 8.75,39.03125 C9.03125,38.90625 9.15625,39.65625 8.9375,40.03125 C8.82079208,40.2455577 8.82079208,40.5044423 8.9375,40.71875 C9.15625,41.125 8.9375,41.875 8.53125,42.125 C8.375,42.21875 8.46875,42.4375 8.90625,42.75 C9.53125,43.1875 9.53125,43.25 9.53125,45.25 C9.53125,46.9375 9.59375,47.375 9.90625,47.65625 C10.21875,47.96875 10.28125,47.96875 10.28125,47.65625 C10.28125,47.34375 10.90625,46.90625 11.375,46.90625 C11.53125,46.90625 12.4375,47.6875 13.40625,48.625 C14.375,49.5625 15.40625,50.40625 15.6875,50.4375 L16.375,50.5625 C16.46875,50.5625 16.90625,50.46875 17.34375,50.25 L17.34375,50.28125 Z M6.9375,42.125 C6.9375,41.59375 5.8125,41 4.46875,40.875 C3.375,40.71875 3.375,40.75 3.375,41.28125 C3.375,41.71875 3.53125,41.90625 4.3125,42.21875 C5.5,42.75 6.9375,42.6875 6.9375,42.125 Z" id="Shape" fill="#FFB700" fill-rule="nonzero"></path>
                            <path d="M8.15625,42.0625 C8.71875,41.5625 8.96875,41 8.625,41 C8.25,41 7.25,41.875 7.25,42.25 C7.25,42.75 7.4375,42.71875 8.1875,42.0625 L8.15625,42.0625 Z M7,40.46875 C7.03125,40.15625 6.84375,39.96875 6.28125,39.6875 C5.03125,39.15625 3.59375,38.875 3.25,39.15625 C2.59375,39.6875 3.03125,40.375 4.0625,40.5 C4.5,40.53125 5.0625,40.65625 5.34375,40.78125 C6.15625,41.09375 6.90625,40.9375 7,40.46875 Z M7,38.8125 C7.0625,38.40625 6.78125,38.25 4.5,37.4375 C2.78125,36.8125 2.03125,37.125 2.59375,38.15625 C2.78125,38.5 3.09375,38.65625 3.8125,38.78125 C4.34375,38.84375 5.0625,39 5.40625,39.125 C6.34375,39.4375 6.90625,39.3125 6.96875,38.8125 L7,38.8125 Z M8.125,37.28125 C8.46875,36.9375 8.75,36.53125 8.75,36.34375 C8.75,35.875 7.40625,36.75 7.21875,37.375 C7.03125,38.09375 7.375,38.0625 8.15625,37.28125 L8.125,37.28125 Z M7,37.1875 C7.0625,36.6875 6.25,36.25 4.625,35.90625 C3.40625,35.625 2.875,35.78125 2.96875,36.34375 C3.03125,36.65625 3.4375,36.875 4.53125,37.21875 C6.375,37.78125 6.90625,37.78125 7,37.1875 Z M8.5625,34.875 C10.6875,33.9375 10.84375,31.59375 8.875,30.96875 C8.0625,30.71875 7.5625,30.875 7.25,31.40625 C7,31.84375 7.15625,32.59375 7.46875,32.59375 C7.59375,32.59375 7.6875,32.75 7.6875,32.90625 C7.6875,33.75 4.5,34.09375 3.1875,33.4375 C2.71875,33.21875 2.5625,32.59375 2.90625,32.59375 C3.21875,32.59375 3.40625,31.96875 3.25,31.5625 C3.0625,30.9375 2.4375,30.75 1.59375,31 C-0.375,31.5 -0.3125,33.8125 1.6875,34.75 C3.90018087,35.5621265 6.32175946,35.6061552 8.5625,34.875 Z" id="Shape" fill="#FFB700" fill-rule="nonzero"></path>
                            <path d="M7.28125,33.0625 C7.40625,32.9375 7.34375,32.75 7.15625,32.625 C6.71875,32.28125 6.75,31.75 7.21875,31.15625 C7.59375,30.71875 7.625,30.03125 7.75,23.3125 C7.96875,11.71875 8.84375,3 9.96875,0.875 C10.4375,0.0625 10.375,0.0625 9.1875,0.875 C7.62963219,1.96042728 6.37182689,3.42249156 5.53125,5.125 C3.59375,8.71875 2.9375,13.5625 2.9375,23.9375 C2.9375,29.8125 2.96875,30.59375 3.3125,31.125 C3.625,31.6875 3.625,31.875 3.4375,32.4375 C3.28125,32.78125 3.21875,33.15625 3.28125,33.21875 C3.71875,33.625 6.84375,33.53125 7.28125,33.0625 Z M24.8125,22 C24.90625,21.90625 24.75,21.375 24.5,20.875 C24.125,20.0625 23.96875,19.9375 23.4375,19.9375 C20.9387348,19.7203072 18.5018053,19.042205 16.25,17.9375 C14.65625,17.21875 14.0625,17.0625 13.90625,17.25 C13.40625,17.71875 14.21875,18.8125 15.46875,19.40625 C17.3082317,20.0691383 19.2349787,20.4586992 21.1875,20.5625 C22.03125,20.5625 22.0625,20.5625 21.5625,21.28125 L21.25,21.78125 L22.1875,21.78125 L23.75,21.96875 C24.6875,22.1875 24.6875,22.1875 24.8125,22 Z" id="Shape" fill="#FFB700" fill-rule="nonzero"></path>
                            <path d="M34.6875,27.21875 C34.6875,26.90625 33.78125,26.125 32.90625,25.59375 C32.1875,25.1875 32.0625,25.15625 32.0625,25.5 C32.0625,26 31.625,27.28125 31.4375,27.28125 C31.34375,27.28125 31.1875,27.03125 31.125,26.75 C31.03125,26.4375 30.6875,25.8125 30.34375,25.40625 L29.71875,24.625 L29.28125,25.34375 C28.84375,26.03125 28.0625,26.6875 27.71875,26.6875 C27.65625,26.6875 27.625,26.3125 27.71875,25.90625 C27.75,25.40625 27.71875,25.03125 27.5625,24.96875 C27.4375,24.875 27.3125,24.90625 27.3125,25.03125 C27.3125,25.28125 26.25,26.46875 26.0625,26.46875 C25.9375,26.46875 25.8125,26.15625 25.75,25.71875 L25.5,24.21875 C25.4375,23.84375 25.59375,24.09375 25.8125,24.84375 L26.3125,26.125 L26.8125,25.34375 C27.0388734,25.0208826 27.2080073,24.661473 27.3125,24.28125 C27.3125,24.125 27.40625,24.0625 27.53125,24.125 C27.65625,24.1875 27.8125,24.71875 27.875,25.28125 L28.03125,26.34375 L28.59375,25.71875 C28.8881267,25.4052564 29.1596557,25.0710668 29.40625,24.71875 C29.625,24.34375 29.65625,24.34375 30.125,24.71875 C30.375,24.96875 30.78125,25.5 31.03125,25.9375 C31.28125,26.375 31.5,26.6875 31.53125,26.65625 L31.71875,25.65625 L31.84375,24.71875 C31.875,24.5625 33.53125,25.65625 34.15625,26.1875 C34.53125,26.53125 34.90625,26.78125 34.96875,26.71875 C35.03125,26.65625 35.09375,26.15625 35.09375,25.5625 C35.09375,24.6875 35,24.4375 34.46875,23.96875 C33.84375,23.40625 33.84375,23.40625 33.59375,23.8125 C33.28125,24.34375 32.9375,24.34375 32.9375,23.8125 C32.9375,23.4375 31.75,21.96875 31.46875,21.96875 C31.375,21.96875 31.125,22.28125 30.90625,22.6875 C30.6875,23.09375 30.4375,23.40625 30.375,23.40625 C30.0625,23.40625 28.40625,21.53125 28.40625,21.21875 C28.40625,20.96875 28.53125,21.03125 28.8125,21.46875 C29.0918228,21.8791868 29.4168186,22.2566012 29.78125,22.59375 C30.40625,23.15625 30.65625,23.03125 30.90625,21.9375 C31,21.625 31.125,21.375 31.21875,21.375 C31.46875,21.375 32.90625,22.90625 33.09375,23.40625 L33.3125,23.90625 L33.46875,23.34375 C33.65625,22.65625 33.875,22.65625 34.1875,23.28125 C34.3125,23.53125 34.9375,24.09375 35.5625,24.46875 L36.71875,25.21875 L36.9375,24.46875 C37.0625,24.0625 37.25,23.84375 37.3125,23.96875 C37.4375,24.125 37.125,25.375 36.90625,25.625 C36.90625,25.65625 36.5,25.4375 36.09375,25.15625 L35.3125,24.59375 L35.3125,25.59375 C35.3125,26.125 35.25,26.78125 35.1875,27.03125 C35.03125,27.53125 34.65625,27.65625 34.65625,27.21875 L34.6875,27.21875 Z M28.90625,19.28125 C27.53125,18.15625 27.34375,17.90625 27.34375,17.34375 L27.375,16.78125 L27.46875,17.3125 C27.53125,17.625 27.90625,18.125 28.34375,18.5 L29.15625,19.125 L29.625,18.5625 C29.90625,18.25 30.125,17.875 30.125,17.75 C30.125,17.375 30.1875,17.40625 31.125,18.21875 C31.9375,18.9375 31.96875,18.9375 32.0625,18.46875 C32.15625,18.21875 32.125,17.71875 32.0625,17.375 C31.75,16.4375 31.8125,16.3125 32.21875,16.875 L32.96875,17.75 C33.28125,18.09375 33.3125,18.09375 33.4375,17.65625 C33.53125,17.375 33.59375,16.90625 33.59375,16.59375 L33.59375,16 L34.3125,16.84375 C35.03125,17.65625 35.09375,17.6875 35.28125,17.28125 C35.4375,17.0625 35.53125,16.53125 35.53125,16.125 C35.53125,15.5625 35.59375,15.4375 35.71875,15.625 C35.96875,16 35.8125,16.9375 35.375,17.75 L35.0625,18.375 L34.65625,17.71875 C34.125,16.90625 33.9375,16.90625 33.625,17.78125 C33.3125,18.625 33.09375,18.6875 32.78125,18.03125 C32.59375,17.625 32.53125,17.6875 32.40625,18.5625 L32.25,19.5 L31.3125,18.78125 L30.375,18.0625 L29.90625,18.53125 C29.6875,18.8125 29.5,19.15625 29.5,19.28125 C29.5,19.59375 29.25,19.59375 28.90625,19.28125 Z M41.09375,15.03125 C40.625,14.59375 40.28125,14.15625 40.34375,14.09375 C40.4375,14 40.5,13.96875 40.53125,14.03125 C40.8337749,14.3535683 41.1464317,14.6662251 41.46875,14.96875 C42.53125,16.09375 42.3125,16.125 41.125,15.03125 L41.09375,15.03125 Z M24.84375,13.34375 C24.40625,12.71875 24.4375,12.34375 25,11.65625 C25.375,11.1875 25.5625,11.125 26.25,11.21875 C26.71875,11.25 27.6875,11.65625 28.40625,12.09375 C29.4449734,12.7142932 30.6338048,13.0385199 31.84375,13.03125 L31.3125,12.15625 C30.625,11.125 30.625,11 31.4375,11.625 C32.25,12.28125 33.21875,12.46875 35.40625,12.40625 L36.46875,12.375 L35.84375,11.75 C35,10.90625 35.25,10.8125 36.21875,11.65625 C37.09375,12.4375 37.0625,12.5 35.15625,12.6875 C34.3614013,12.7677694 33.5587315,12.7149622 32.78125,12.53125 C31.71875,12.21875 31.65625,12.25 31.875,12.59375 C32,12.8125 32.1875,12.96875 32.28125,12.96875 C32.40625,12.96875 32.5,13.09375 32.5,13.21875 C32.5,13.625 30.1875,13.25 29.0625,12.71875 C26.5625,11.4375 26.25,11.3125 25.625,11.5 C25.2887578,11.6293568 25.0185415,11.8883142 24.875,12.21875 C24.46875,13.25 25.9375,14.0625 26.53125,13.15625 C26.71875,12.875 26.6875,12.71875 26.375,12.375 C25.9375,11.9375 26,11.875 26.5625,12.0625 C26.96875,12.21875 27,13.1875 26.625,13.5625 C26.21875,13.96875 25.21875,13.875 24.84375,13.34375 Z" id="Shape" fill="#000000" fill-rule="nonzero"></path>
                            <path d="M34.8125,10.8125 C34.5,10.5 34.75,10.4375 36.15625,10.40625 C37.90625,10.375 38.96875,10.09375 40.21875,9.28125 C41.21875,8.65625 41.5,8.78125 40.53125,9.4375 C39.6875,10.0625 38.34375,10.5 37,10.625 L35.40625,10.84375 C35.15625,10.90625 34.875,10.875 34.78125,10.8125 L34.8125,10.8125 Z" id="Path" fill="#000000"></path>
                        </g>
                    </g>
                    <g id="b">
                        <path d="M19.53125,63.0625 L20.25,62.625 L20.5625,63.0625 C20.96875,63.625 22.125,63.59375 22.875,63.0625 L23.46875,62.59375 L23.96875,63.03125 C24.59375,63.625 25.78125,63.625 26.5625,63.03125 C27.09375,62.65625 27.1875,62.625 27.5,62.9375 C27.71875,63.125 28.34375,63.3125 28.875,63.40625 C29.875,63.53125 29.875,63.53125 30.4375,62.65625 C30.9375,61.9375 31,61.65625 30.90625,60.9375 C30.8189817,60.3885027 30.7564187,59.8358624 30.71875,59.28125 C30.65625,58.46875 30.6875,58.46875 31.84375,58.03125 C32.4176798,57.8551831 32.9810956,57.6465106 33.53125,57.40625 C34,57.125 35.3125,55.59375 35.3125,55.28125 C35.3125,55.21875 34.8125,55.09375 34.1875,55.03125 C31.6875,54.71875 31.28125,53.40625 32.90625,50.96875 C35.5,46.90625 37.09375,43 37.09375,40.53125 C37.09375,39.40625 37.1875,39.03125 37.3125,39.28125 C37.90625,40.25 36.84375,44.40625 35.28125,47.40625 L34.65625,48.59375 L35.25,48.46875 C35.5625,48.375 37.5625,47.53125 39.625,46.59375 C45.3125,44.03125 47.25,43.53125 50.9375,43.6875 C54.03125,43.8125 55.3125,44.40625 57.5,46.6875 C58.65625,47.9375 59.78125,48.78125 61.8125,50.0625 C66.125,52.75 66.3125,53 66.53125,56.1875 C66.75,59.40625 66.625,59.59375 64.1875,60.125 C62.09375,60.59375 60.78125,61.5625 60.4375,62.9375 C60.25,63.625 60.65625,63.65625 61.6875,62.96875 L62.46875,62.46875 L62.8125,62.96875 C63.28125,63.625 64.21875,63.625 65,62.96875 L65.625,62.5 L66.25,62.96875 C67.1875,63.75 68.4375,63.5625 68.8125,62.59375 C68.875,62.4375 69.0625,62.46875 69.4375,62.8125 C70.15625,63.4375 71.9375,63.6875 72.125,63.1875 C72.1875,63 72.0625,62.5625 71.8125,62.1875 C70.78125,60.625 70.4375,59.90625 70.4375,59.0625 C70.4375,57.875 70.75,57.28125 72.125,56.34375 C73.75,55.15625 74.25,53.65625 73,53.65625 C72.25,53.65625 71.46875,52.96875 70.96875,51.875 C69.96875,49.625 70.1875,47.125 71.6875,42.9375 C72.8375721,40.4736485 73.414512,37.7812623 73.375,35.0625 C73.375,32.75 73.3125,32.375 72.8125,31.09375 C72.4213888,30.2029447 71.9396873,29.3547312 71.375,28.5625 L70.5,27.40625 L71.59375,26.46875 C74.96875,23.6875 74.28125,19.125 70.21875,17.375 C68.96875,16.8125 68.65625,16.78125 66.46875,16.78125 C65.21875,16.78125 63.1875,16.96875 62.09375,17.1875 C60.6256172,17.4198037 59.1425465,17.5451337 57.65625,17.5625 C55.53125,17.5625 55.15625,17.5 54.34375,17.0625 C53.5,16.625 53.34375,16.40625 53.1875,15.34375 C53.1569692,15.1404802 53.0284432,14.9652174 52.84375,14.875 C52.53125,14.78125 51.21875,15.9375 51.03125,16.4375 C50.90625,16.71875 50.84375,16.6875 50.5625,16.34375 C50.2974422,16.0031953 50.0866197,15.6237148 49.9375,15.21875 C49.625,14.1875 50.03125,13.4375 51.25,12.84375 L52.1875,12.40625 L51.625,12.0625 C50.5,11.34375 48.5625,11.84375 47.875,13 C47.65625,13.3125 47.4375,13.625 47.375,13.625 C47.3125,13.625 46.9375,13.3125 46.5625,12.90625 C45.09375,11.46875 45.59375,9.34375 47.5625,8.71875 C48.59375,8.375 49.53125,8.625 49.71875,9.34375 C50.03125,10.375 50.90625,9 50.75,7.71875 C50.65625,6.875 50.65625,6.84375 51.25,6.84375 C52.0625,6.84375 53.75,7.90625 54.3125,8.71875 C54.9375,9.6875 54.875,11.21875 54.1875,12.34375 L53.65625,13.21875 L54.375,13.09375 C55.375,12.875 56.375,12.25 56.875,11.46875 C57.4087352,10.4607957 57.454738,9.26472248 57,8.21875 C56.53125,7.375 56.59375,7.25 57.28125,7.53125 C58.40625,8 59.03125,8.53125 59.46875,9.4375 C59.90625,10.25 59.9375,10.4375 59.71875,11.3125 C59.5691052,11.8452548 59.3371412,12.3513581 59.03125,12.8125 C58.65625,13.3125 58.625,13.40625 58.9375,13.40625 C59.5,13.40625 60.625,12.875 61.03125,12.46875 C61.25,12.21875 61.5625,11.6875 61.71875,11.21875 L62.03125,10.4375 L62.34375,11.0625 C62.8125,11.90625 63.75,12.6875 64.875,13.1875 C66.09375,13.6875 66.59375,13.71875 65.96875,13.25 C65.53125,12.9375 64.71875,10.59375 65,10.375 C66.348691,11.1302328 67.5803385,12.0776539 68.65625,13.1875 C70.4375,14.78125 71.5625,15.3125 73.1875,15.3125 C75.28125,15.3125 76.5,13.5 75.5625,11.78125 C75.03125,10.78125 73.8125,10.625 73.0625,11.46875 C72.75,11.875 72.65625,12.1875 72.75,12.625 C72.875,13.125 72.84375,13.1875 72.375,13.1875 C71.75,13.1875 70.5625,12.40625 68.4375,10.625 C65.4796601,8.07945439 62.0795274,6.09869168 58.40625,4.78125 C55.9177722,4.20606221 53.3481414,4.06859225 50.8125,4.375 C48.8125,4.75 46.4375,5.90625 45.125,7.125 C42.84375,9.3125 42.8125,12.21875 45.03125,14.875 L45.65625,15.625 L45.25,16.3125 C44.6248346,17.3199127 44.6743026,18.606082 45.375,19.5625 C45.6875,20 46,20.34375 46.09375,20.34375 C46.15625,20.34375 46.21875,20.0625 46.25,19.71875 C46.3125,18.875 46.6875,18.3125 47.3125,18.09375 C47.875,17.875 48.25,18 50.8125,19.03125 C53.53125,20.09375 58,20.15625 62.75,19.21875 C64.8087714,18.7432879 66.9511486,18.7647117 69,19.28125 C71.25,20.21875 71.75,22.625 70.125,24.4375 C69.40625,25.25 68.75,25.5625 66.46875,26.1875 C64.4826127,26.7112819 62.4178788,26.8701076 60.375,26.65625 C57,26.625 55.78125,26.6875 54.4375,26.96875 C52.90625,27.28125 52,27.3125 47.625,27.21875 L42.53125,27.09375 L43.09375,27.53125 C43.3949841,27.7987543 43.7191482,28.0392631 44.0625,28.25 C44.46875,28.46875 44.4375,28.5 43.875,28.71875 C43.5625,28.84375 42.8125,28.9375 42.21875,28.9375 L41.1875,28.9375 L41.0625,29.8125 C40.9783162,30.2249145 40.9783162,30.6500855 41.0625,31.0625 C41.1875,31.375 41.125,31.4375 40.8125,31.3125 C40.59375,31.21875 40,31.0625 39.46875,30.96875 C38.9327564,30.8538155 38.409394,30.6863395 37.90625,30.46875 C37.3125,30.15625 37.25,30.15625 37.03125,30.5625 C36.84375,30.875 35.09375,32.1875 34.84375,32.1875 C34.7307925,31.3767556 34.4991444,30.5870462 34.15625,29.84375 C33.84375,29.1875 33.5625,28.4375 33.46875,28.21875 C33.375,27.875 33.3125,27.84375 33.15625,28.125 C33.0625,28.28125 32.9375,28.75 32.84375,29.125 C32.7342983,29.6311548 32.5443873,30.116483 32.28125,30.5625 L31.8125,31.25 L31.5,30.65625 C31.1875,30.03125 30.6875,29.34375 30.5,29.34375 C30.4375,29.34375 30.34375,29.53125 30.28125,29.8125 C30.125,30.3125 28.90625,31.78125 28.59375,31.78125 C28.5,31.78125 28.40625,31.375 28.40625,30.84375 C28.40625,30.375 28.3125,29.9375 28.1875,29.9375 C28.0625,29.9375 27.96875,30.09375 27.96875,30.25 C27.96875,30.625 26.9375,31.8125 26.5625,31.8125 C26.4375,31.8125 26.1875,31.9375 26.03125,32.125 C25.65625,32.53125 25.34375,32.46875 25.5,32 C25.5438087,31.5997824 25.5011814,31.1948239 25.375,30.8125 L25.0625,29.8125 C25,29.65625 24.625,29.71875 23.8125,29.96875 C22.5625,30.375 22.125,30.28125 22.78125,29.78125 C23.03125,29.59375 23.40625,28.9375 23.59375,28.34375 C23.8125,27.71875 24.125,27.1875 24.28125,27.125 C24.5,27.0625 24.5,27.125 24.21875,27.5 C24.0378487,27.737724 23.9196398,28.0171268 23.875,28.3125 C23.875,28.46875 23.71875,28.875 23.5625,29.21875 C23.375,29.53125 23.25,29.84375 23.28125,29.875 C23.3125,29.90625 23.8125,29.71875 24.375,29.46875 L25.375,28.96875 L25.375,29.40625 C25.375,29.65625 25.5,30.28125 25.65625,30.8125 L25.9375,31.75 L26.625,31.4375 C27.3125,31.125 27.96875,30 27.96875,29.09375 C27.96875,28.65625 28.21875,28.71875 28.34375,29.1875 C28.34375,29.3125 28.53125,29.84375 28.65625,30.34375 L28.96875,31.21875 L29.4375,30.65625 C29.71875,30.34375 30.03125,29.71875 30.15625,29.3125 C30.40625,28.5625 30.78125,28.21875 30.78125,28.78125 C30.78125,29.15625 31.84375,30.59375 32.03125,30.46875 C32.15625,30.40625 32.34375,29.875 32.5,29.28125 C32.8125,28.03125 33.28125,27.21875 33.59375,27.40625 C33.71875,27.46875 33.75,27.59375 33.6875,27.71875 C33.625,27.78125 33.875,28.59375 34.25,29.46875 C34.5217076,30.1246389 34.7925411,30.7808895 35.0625,31.4375 C35.1875,31.75 35.3125,31.75 36.09375,31.03125 C36.5625,30.59375 37.03125,30.125 37.0625,29.96875 C37.15625,29.71875 37.25,29.75 37.6875,30.03125 C38.6088296,30.517977 39.6182171,30.8154807 40.65625,30.90625 C40.71875,30.84375 40.78125,30.28125 40.78125,29.65625 L40.8125,28.5 L41.4375,28.625 C41.75,28.71875 42.46875,28.71875 43,28.625 L43.9375,28.5 L43.09375,27.875 C42.625,27.5625 42.15625,27.15625 42.03125,26.96875 C41.9375,26.78125 41.5,26.59375 41.03125,26.5625 C39.75,26.4375 37.46875,25.1875 37.46875,24.5625 C37.46875,24.4375 37.78125,24.65625 38.15625,25 C39.03125,25.78125 40.21875,26.25 41.28125,26.25 L42.03125,26.25 L41.5625,25.625 C41.2285163,25.1404204 41.0143128,24.5834914 40.9375,24 C40.875,23.0625 40.78125,22.9375 39.8125,22.28125 C39.2507634,21.8832167 38.7276348,21.4333261 38.25,20.9375 L37.71875,20.34375 L37.4375,21.0625 C37.28125,21.46875 37.125,21.78125 37.03125,21.78125 C36.96875,21.78125 36.65625,21.53125 36.40625,21.25 C36.2304402,21.0463135 36.0185609,20.8768101 35.78125,20.75 C35.6875,20.75 35.46875,21.125 35.21875,21.59375 L34.78125,22.4375 L34.46875,21.96875 C34.1907765,21.5855543 33.8768522,21.2297734 33.53125,20.90625 C33.15625,20.59375 33,20.34375 33.125,20.34375 C33.25,20.34375 33.65625,20.65625 34.0625,21.0625 L34.75,21.78125 L35.0625,21.25 C35.2430104,20.8818947 35.2978951,20.4647705 35.21875,20.0625 C35.09375,19.5 35.125,19.46875 35.3125,19.84375 C35.5819988,20.1964802 35.8972698,20.5117512 36.25,20.78125 L36.9375,21.34375 L37.40625,20.5 C37.875,19.625 37.875,19.625 38.0625,20.15625 C38.375,20.8125 40.40625,22.5 42.125,23.46875 C42.4375,23.625 42.3125,23.125 41.8125,21.90625 C41.6623576,21.5057759 41.5779356,21.0836655 41.5625,20.65625 C41.5625,20.09375 41.40625,19.84375 40.6875,19.28125 C39.7815047,18.7019499 39.2022714,17.7288381 39.125,16.65625 C39.03125,16.125 38.84375,15.5625 38.6875,15.375 C38.5,15.0625 38.4375,15.25 38.5,16.1875 C38.5625,16.84375 38.46875,17.65625 38.3125,18 L38.0625,18.625 L37.875,18.09375 C37.75,17.8125 37.25,17.3125 36.78125,17 C36.3125,16.6875 35.96875,16.375 36.03125,16.3125 C36.09375,16.25 36.59375,16.53125 37.125,16.9375 C37.96875,17.59375 38.125,17.65625 38.25,17.375 C38.375,17.0625 38.25,15.625 38,14.625 C37.875,14.125 37.875,14.125 38.5,14.75 C38.9375,15.1875 39.1875,15.75 39.40625,16.6875 C39.65625,17.875 39.78125,18.09375 40.875,19.0625 C41.53125,19.65625 42.125,20.09375 42.15625,20.0625 C42.21875,20 42.28125,18.5 42.34375,16.6875 C42.46875,13.21875 42.34375,12.375 41.5,11.3125 L41.0625,10.75 L41.75,10.03125 C42.5201592,9.29454655 43.0347673,8.33102496 43.21875,7.28125 L43.34375,6.4375 L42.59375,7.15625 C41.96875,7.75 41.65625,7.875 40.9375,7.875 C40.21875,7.875 39.9375,7.75 39.46875,7.25 C38.7385787,6.54708962 37.8484173,6.03229747 36.875,5.75 C36.5,5.625 36.375,5.6875 36.375,5.9375 C36.375,6.125 36.1875,6.625 35.9375,7.09375 L35.5,7.90625 L34.5625,6.96875 C33.96875,6.4375 33.3125,5.96875 32.78125,5.84375 C31.5,5.53125 31.4375,5.53125 31.4375,6.5 C31.4375,7.96875 30.8125,8.25 29.6875,7.28125 C28.8125,6.53125 28.125,6.34375 26.46875,6.5625 L25.21875,6.6875 L25.4375,7.25 C25.625,7.71875 25.59375,7.9375 25.1875,8.46875 C24.53125,9.34375 23.6875,9.71875 22.375,9.71875 C21.75,9.71875 21,9.84375 20.6875,10 C20.375,10.15625 19.5625,10.3125 18.90625,10.375 C18.28125,10.4375 17.5625,10.5625 17.34375,10.625 C17.03125,10.75 17.03125,10.625 17.125,9.9375 C17.28125,8.875 16.5,8.0625 15.34375,8.0625 C13.8125,8.0625 13.125,9.4375 13.71875,11.25 C13.8403115,11.6410502 13.9445794,12.037268 14.03125,12.4375 C14.4416771,13.2189481 14.9925341,13.9181127 15.65625,14.5 C16.46875,15.3125 17.21875,16.15625 17.34375,16.375 C17.595305,16.7008925 17.9153377,16.9675864 18.28125,17.15625 L18.96875,17.53125 L18.875,16.78125 C18.78125,15.96875 18.9375,15.84375 19.375,16.4375 C19.53125,16.625 19.9375,16.96875 20.25,17.15625 C20.78125,17.46875 20.875,17.46875 20.875,17.21875 C20.875,17.03125 20.96875,16.625 21.09375,16.3125 L21.3125,15.75 L21.71875,16.53125 C21.9375,16.96875 22.65625,17.9375 23.3125,18.71875 C24.59375,20.1875 25.40625,21.84375 25,22.21875 C24.8125,22.375 24.375,22.375 23.4375,22.1875 C22.75,22.0625 21.875,21.96875 21.5,22.03125 C20.78125,22.125 20.71875,22.03125 21.1875,21.46875 C21.65625,20.84375 21.5625,20.75 20.625,20.75 C19.53125,20.75 16.8125,20.21875 15.75,19.8125 C14.75,19.40625 14.5,19.5 14.1875,20.46875 L13.65625,22.21875 L13.34375,23.15625 L14.46875,23.0625 C15.0487273,23.001824 15.6232833,22.8973593 16.1875,22.75 C16.4088384,22.6762502 16.6419965,22.6444559 16.875,22.65625 C16.9375,22.6875 16.78125,23.0625 16.5625,23.5 L16.125,24.25 L16.8125,24.125 C17.1875,24.03125 17.75,23.84375 18.0625,23.6875 C18.625,23.4375 18.6875,23.4375 19.125,24.15625 C19.65625,25 20.0625,24.96875 20.15625,24.0625 C20.25,23.125 20.5625,23.25 21.15625,24.5 C21.71875,25.6875 22.28125,26.125 22.40625,25.4375 C22.4375,25.1875 22.71875,24.8125 23.0625,24.5625 C23.75,24.09375 24.25,24.25 24.53125,24.96875 C24.84375,25.75 24.15625,26.53125 22.21875,27.71875 C18.582609,29.7263273 16.079229,33.3025844 15.4375,37.40625 C14.84375,41.09375 16.6875,44.90625 20.3125,47.6875 C22.0625,49 24.84375,50.375 24.65625,49.875 C23.90625,47.59375 23.9375,43.3125 24.6875,42.59375 C24.8125,42.46875 24.78125,42.90625 24.59375,43.5625 C23.96875,46.03125 24.28125,47.96875 25.84375,52.53125 C27.21875,56.65625 27.03125,58.4375 25.03125,59.59375 C24.40625,59.96875 24,60.03125 22.28125,60 C20.40625,60 20.1875,60 19.59375,60.5 C18.8757896,61.2332539 18.4058269,62.1731794 18.25,63.1875 C18.25,63.59375 18.6875,63.53125 19.5,63.0625 L19.53125,63.0625 Z" id="Path" fill="#FFB700"></path>
                        <path d="M49.84375,62.96875 L50.625,62.46875 L51.15625,62.96875 C51.84375,63.625 52.6875,63.59375 53.34375,62.9375 C53.65625,62.625 53.90625,62.4375 53.9375,62.46875 L54.21875,62.96875 C54.375,63.25 54.71875,63.375 55.34375,63.4375 C56.0625,63.46875 56.28125,63.4375 56.59375,63 L56.90625,62.46875 L57.6875,62.96875 C59.8125,64.34375 60.9375,62.90625 59.96875,60.0625 C59.5,58.625 59.78125,57.8125 61.3125,56 C61.96875,55.21875 62.5,54.375 62.5,54.125 C62.5,53.78125 62.375,53.71875 61.5,53.75 C60.6875,53.75 60.4375,53.65625 60,53.1875 C59.28125,52.40625 59.34375,51.5 60.125,50.5 L60.75,49.71875 L59.625,48.96875 C58.7269575,48.3054597 57.8902668,47.5628968 57.125,46.75 C55.7474186,45.1240788 53.7801116,44.1123209 51.65625,43.9375 L50.1875,43.78125 L50.1875,44.90625 C50.1875,46.3125 50.875,47.6875 52.6875,50 C54.75,52.625 54.875,53.03125 54.96875,56.46875 L55.0625,59.375 L54.4375,59.9375 C53.90625,60.4375 53.6875,60.53125 51.9375,60.625 C50.28125,60.71875 49.90625,60.8125 49.4375,61.25 C48.888957,61.6500536 48.5099436,62.2408685 48.375,62.90625 C48.28125,63.375 48.3125,63.46875 48.65625,63.46875 C48.875,63.46875 49.40625,63.25 49.84375,62.96875 Z M5.40625,55.46875 C5.59524104,55.1912273 5.70342922,54.8666628 5.71875,54.53125 C5.71875,54.21875 5.90625,54.09375 6.71875,53.96875 L7.6875,53.84375 L7.0625,53.3125 C6.28125,52.6875 6.1875,52.21875 6.875,52.21875 C7.5625,52.21875 8.6875,51.53125 8.875,51 C8.96875,50.75 8.875,50.4375 8.75,50.28125 C8.375,49.84375 7.65625,49.90625 7.53125,50.40625 C7.375,50.90625 7.15625,50.90625 6.59375,50.40625 C5.8125,49.625 5.78125,48.03125 6.59375,47.09375 C6.9375,46.65625 6.9375,46.65625 6.46875,46.1875 C5.96875,45.6875 5.59375,44.75 5.84375,44.5 C5.90625,44.4375 6.3125,44.5 6.71875,44.65625 C7.34375,44.84375 7.5625,44.84375 7.8125,44.65625 C8.53125,44.0625 7.75,43.3125 6.5625,43.5 C6.0625,43.5625 5.875,43.5 5.8125,43.25 C5.75,43.0625 5.34375,42.8125 4.875,42.6875 C4.03125,42.46875 4.03125,42.46875 4.03125,43.0625 C4.03125,43.6875 3.65625,43.8125 2.96875,43.40625 C2.40625,43.09375 1.875,43.34375 1.875,43.9375 C1.875,44.5 2.40625,44.75 3.4375,44.6875 C4.1875,44.65625 4.21875,45.21875 3.5,46.03125 L2.96875,46.65625 L3.375,47.25 C4,48.125 3.9375,49.59375 3.28125,50.34375 L2.75,50.90625 L2.40625,50.4375 C1.90625,49.8125 1.25,49.84375 1.0625,50.53125 C0.96875,50.96875 1.0625,51.15625 1.625,51.65625 C2,51.96875 2.5625,52.21875 2.84375,52.21875 C3.5625,52.21875 3.53125,52.8125 2.78125,53.375 L2.15625,53.84375 L3.09375,53.96875 C3.59375,54.0625 4.03125,54.1875 4.03125,54.28125 C4.03125,54.6875 4.65625,55.90625 4.84375,55.90625 C4.96875,55.90625 5.21875,55.6875 5.40625,55.4375 L5.40625,55.46875 Z" id="Shape" fill="#FFB700" fill-rule="nonzero"></path>
                        <path d="M17.34375,50.28125 C18.1875,49.96875 20,48.40625 20,48.0625 C20,47.9375 19.5,47.375 18.875,46.8125 C17.625,45.6875 16.21875,43.71875 15.84375,42.59375 C15.65625,41.96875 14.75,40.96875 12.1875,38.46875 L8.78125,35.1875 L7.8125,35.4375 C7.25,35.5625 6.59375,35.6875 6.34375,35.6875 C5.875,35.6875 5.875,35.6875 6.5,36.1875 L7.125,36.6875 L8.0625,36.1875 C8.90625,35.6875 8.9375,35.6875 9.03125,36.09375 C9.09375,36.3125 8.96875,36.71875 8.71875,37 C8.5,37.28125 8.375,37.625 8.40625,37.71875 C8.5,37.8125 8.28125,38.03125 7.9375,38.21875 C7.3125,38.53125 6.84375,39.5625 7.34375,39.5625 C7.8125,39.5625 8.8125,38.3125 8.6875,37.90625 C8.625,37.6875 8.6875,37.46875 8.75,37.40625 C9.15625,37.1875 9.125,38.15625 8.75,38.65625 C8.5,38.90625 8.375,39.21875 8.4375,39.34375 C8.5,39.4375 8.28125,39.65625 7.9375,39.84375 C7.3125,40.15625 6.84375,41.1875 7.34375,41.1875 C7.84375,41.1875 8.8125,40 8.71875,39.5625 C8.65625,39.34375 8.65625,39.09375 8.75,39.03125 C9.03125,38.90625 9.15625,39.65625 8.9375,40.03125 C8.82079208,40.2455577 8.82079208,40.5044423 8.9375,40.71875 C9.15625,41.125 8.9375,41.875 8.53125,42.125 C8.375,42.21875 8.46875,42.4375 8.90625,42.75 C9.53125,43.1875 9.53125,43.25 9.53125,45.25 C9.53125,46.9375 9.59375,47.375 9.90625,47.65625 C10.21875,47.96875 10.28125,47.96875 10.28125,47.65625 C10.28125,47.34375 10.90625,46.90625 11.375,46.90625 C11.53125,46.90625 12.4375,47.6875 13.40625,48.625 C14.375,49.5625 15.40625,50.40625 15.6875,50.4375 L16.375,50.5625 C16.46875,50.5625 16.90625,50.46875 17.34375,50.25 L17.34375,50.28125 Z M6.9375,42.125 C6.9375,41.59375 5.8125,41 4.46875,40.875 C3.375,40.71875 3.375,40.75 3.375,41.28125 C3.375,41.71875 3.53125,41.90625 4.3125,42.21875 C5.5,42.75 6.9375,42.6875 6.9375,42.125 Z" id="Shape" fill="#FFB700" fill-rule="nonzero"></path>
                        <path d="M8.15625,42.0625 C8.71875,41.5625 8.96875,41 8.625,41 C8.25,41 7.25,41.875 7.25,42.25 C7.25,42.75 7.4375,42.71875 8.1875,42.0625 L8.15625,42.0625 Z M7,40.46875 C7.03125,40.15625 6.84375,39.96875 6.28125,39.6875 C5.03125,39.15625 3.59375,38.875 3.25,39.15625 C2.59375,39.6875 3.03125,40.375 4.0625,40.5 C4.5,40.53125 5.0625,40.65625 5.34375,40.78125 C6.15625,41.09375 6.90625,40.9375 7,40.46875 Z M7,38.8125 C7.0625,38.40625 6.78125,38.25 4.5,37.4375 C2.78125,36.8125 2.03125,37.125 2.59375,38.15625 C2.78125,38.5 3.09375,38.65625 3.8125,38.78125 C4.34375,38.84375 5.0625,39 5.40625,39.125 C6.34375,39.4375 6.90625,39.3125 6.96875,38.8125 L7,38.8125 Z M8.125,37.28125 C8.46875,36.9375 8.75,36.53125 8.75,36.34375 C8.75,35.875 7.40625,36.75 7.21875,37.375 C7.03125,38.09375 7.375,38.0625 8.15625,37.28125 L8.125,37.28125 Z M7,37.1875 C7.0625,36.6875 6.25,36.25 4.625,35.90625 C3.40625,35.625 2.875,35.78125 2.96875,36.34375 C3.03125,36.65625 3.4375,36.875 4.53125,37.21875 C6.375,37.78125 6.90625,37.78125 7,37.1875 Z M8.5625,34.875 C10.6875,33.9375 10.84375,31.59375 8.875,30.96875 C8.0625,30.71875 7.5625,30.875 7.25,31.40625 C7,31.84375 7.15625,32.59375 7.46875,32.59375 C7.59375,32.59375 7.6875,32.75 7.6875,32.90625 C7.6875,33.75 4.5,34.09375 3.1875,33.4375 C2.71875,33.21875 2.5625,32.59375 2.90625,32.59375 C3.21875,32.59375 3.40625,31.96875 3.25,31.5625 C3.0625,30.9375 2.4375,30.75 1.59375,31 C-0.375,31.5 -0.3125,33.8125 1.6875,34.75 C3.90018087,35.5621265 6.32175946,35.6061552 8.5625,34.875 Z" id="Shape" fill="#FFB700" fill-rule="nonzero"></path>
                        <path d="M7.28125,33.0625 C7.40625,32.9375 7.34375,32.75 7.15625,32.625 C6.71875,32.28125 6.75,31.75 7.21875,31.15625 C7.59375,30.71875 7.625,30.03125 7.75,23.3125 C7.96875,11.71875 8.84375,3 9.96875,0.875 C10.4375,0.0625 10.375,0.0625 9.1875,0.875 C7.62963219,1.96042728 6.37182689,3.42249156 5.53125,5.125 C3.59375,8.71875 2.9375,13.5625 2.9375,23.9375 C2.9375,29.8125 2.96875,30.59375 3.3125,31.125 C3.625,31.6875 3.625,31.875 3.4375,32.4375 C3.28125,32.78125 3.21875,33.15625 3.28125,33.21875 C3.71875,33.625 6.84375,33.53125 7.28125,33.0625 Z M24.8125,22 C24.90625,21.90625 24.75,21.375 24.5,20.875 C24.125,20.0625 23.96875,19.9375 23.4375,19.9375 C20.9387348,19.7203072 18.5018053,19.042205 16.25,17.9375 C14.65625,17.21875 14.0625,17.0625 13.90625,17.25 C13.40625,17.71875 14.21875,18.8125 15.46875,19.40625 C17.3082317,20.0691383 19.2349787,20.4586992 21.1875,20.5625 C22.03125,20.5625 22.0625,20.5625 21.5625,21.28125 L21.25,21.78125 L22.1875,21.78125 L23.75,21.96875 C24.6875,22.1875 24.6875,22.1875 24.8125,22 Z" id="Shape" fill="#FFB700" fill-rule="nonzero"></path>
                        <path d="M34.6875,27.21875 C34.6875,26.90625 33.78125,26.125 32.90625,25.59375 C32.1875,25.1875 32.0625,25.15625 32.0625,25.5 C32.0625,26 31.625,27.28125 31.4375,27.28125 C31.34375,27.28125 31.1875,27.03125 31.125,26.75 C31.03125,26.4375 30.6875,25.8125 30.34375,25.40625 L29.71875,24.625 L29.28125,25.34375 C28.84375,26.03125 28.0625,26.6875 27.71875,26.6875 C27.65625,26.6875 27.625,26.3125 27.71875,25.90625 C27.75,25.40625 27.71875,25.03125 27.5625,24.96875 C27.4375,24.875 27.3125,24.90625 27.3125,25.03125 C27.3125,25.28125 26.25,26.46875 26.0625,26.46875 C25.9375,26.46875 25.8125,26.15625 25.75,25.71875 L25.5,24.21875 C25.4375,23.84375 25.59375,24.09375 25.8125,24.84375 L26.3125,26.125 L26.8125,25.34375 C27.0388734,25.0208826 27.2080073,24.661473 27.3125,24.28125 C27.3125,24.125 27.40625,24.0625 27.53125,24.125 C27.65625,24.1875 27.8125,24.71875 27.875,25.28125 L28.03125,26.34375 L28.59375,25.71875 C28.8881267,25.4052564 29.1596557,25.0710668 29.40625,24.71875 C29.625,24.34375 29.65625,24.34375 30.125,24.71875 C30.375,24.96875 30.78125,25.5 31.03125,25.9375 C31.28125,26.375 31.5,26.6875 31.53125,26.65625 L31.71875,25.65625 L31.84375,24.71875 C31.875,24.5625 33.53125,25.65625 34.15625,26.1875 C34.53125,26.53125 34.90625,26.78125 34.96875,26.71875 C35.03125,26.65625 35.09375,26.15625 35.09375,25.5625 C35.09375,24.6875 35,24.4375 34.46875,23.96875 C33.84375,23.40625 33.84375,23.40625 33.59375,23.8125 C33.28125,24.34375 32.9375,24.34375 32.9375,23.8125 C32.9375,23.4375 31.75,21.96875 31.46875,21.96875 C31.375,21.96875 31.125,22.28125 30.90625,22.6875 C30.6875,23.09375 30.4375,23.40625 30.375,23.40625 C30.0625,23.40625 28.40625,21.53125 28.40625,21.21875 C28.40625,20.96875 28.53125,21.03125 28.8125,21.46875 C29.0918228,21.8791868 29.4168186,22.2566012 29.78125,22.59375 C30.40625,23.15625 30.65625,23.03125 30.90625,21.9375 C31,21.625 31.125,21.375 31.21875,21.375 C31.46875,21.375 32.90625,22.90625 33.09375,23.40625 L33.3125,23.90625 L33.46875,23.34375 C33.65625,22.65625 33.875,22.65625 34.1875,23.28125 C34.3125,23.53125 34.9375,24.09375 35.5625,24.46875 L36.71875,25.21875 L36.9375,24.46875 C37.0625,24.0625 37.25,23.84375 37.3125,23.96875 C37.4375,24.125 37.125,25.375 36.90625,25.625 C36.90625,25.65625 36.5,25.4375 36.09375,25.15625 L35.3125,24.59375 L35.3125,25.59375 C35.3125,26.125 35.25,26.78125 35.1875,27.03125 C35.03125,27.53125 34.65625,27.65625 34.65625,27.21875 L34.6875,27.21875 Z M28.90625,19.28125 C27.53125,18.15625 27.34375,17.90625 27.34375,17.34375 L27.375,16.78125 L27.46875,17.3125 C27.53125,17.625 27.90625,18.125 28.34375,18.5 L29.15625,19.125 L29.625,18.5625 C29.90625,18.25 30.125,17.875 30.125,17.75 C30.125,17.375 30.1875,17.40625 31.125,18.21875 C31.9375,18.9375 31.96875,18.9375 32.0625,18.46875 C32.15625,18.21875 32.125,17.71875 32.0625,17.375 C31.75,16.4375 31.8125,16.3125 32.21875,16.875 L32.96875,17.75 C33.28125,18.09375 33.3125,18.09375 33.4375,17.65625 C33.53125,17.375 33.59375,16.90625 33.59375,16.59375 L33.59375,16 L34.3125,16.84375 C35.03125,17.65625 35.09375,17.6875 35.28125,17.28125 C35.4375,17.0625 35.53125,16.53125 35.53125,16.125 C35.53125,15.5625 35.59375,15.4375 35.71875,15.625 C35.96875,16 35.8125,16.9375 35.375,17.75 L35.0625,18.375 L34.65625,17.71875 C34.125,16.90625 33.9375,16.90625 33.625,17.78125 C33.3125,18.625 33.09375,18.6875 32.78125,18.03125 C32.59375,17.625 32.53125,17.6875 32.40625,18.5625 L32.25,19.5 L31.3125,18.78125 L30.375,18.0625 L29.90625,18.53125 C29.6875,18.8125 29.5,19.15625 29.5,19.28125 C29.5,19.59375 29.25,19.59375 28.90625,19.28125 Z M41.09375,15.03125 C40.625,14.59375 40.28125,14.15625 40.34375,14.09375 C40.4375,14 40.5,13.96875 40.53125,14.03125 C40.8337749,14.3535683 41.1464317,14.6662251 41.46875,14.96875 C42.53125,16.09375 42.3125,16.125 41.125,15.03125 L41.09375,15.03125 Z M24.84375,13.34375 C24.40625,12.71875 24.4375,12.34375 25,11.65625 C25.375,11.1875 25.5625,11.125 26.25,11.21875 C26.71875,11.25 27.6875,11.65625 28.40625,12.09375 C29.4449734,12.7142932 30.6338048,13.0385199 31.84375,13.03125 L31.3125,12.15625 C30.625,11.125 30.625,11 31.4375,11.625 C32.25,12.28125 33.21875,12.46875 35.40625,12.40625 L36.46875,12.375 L35.84375,11.75 C35,10.90625 35.25,10.8125 36.21875,11.65625 C37.09375,12.4375 37.0625,12.5 35.15625,12.6875 C34.3614013,12.7677694 33.5587315,12.7149622 32.78125,12.53125 C31.71875,12.21875 31.65625,12.25 31.875,12.59375 C32,12.8125 32.1875,12.96875 32.28125,12.96875 C32.40625,12.96875 32.5,13.09375 32.5,13.21875 C32.5,13.625 30.1875,13.25 29.0625,12.71875 C26.5625,11.4375 26.25,11.3125 25.625,11.5 C25.2887578,11.6293568 25.0185415,11.8883142 24.875,12.21875 C24.46875,13.25 25.9375,14.0625 26.53125,13.15625 C26.71875,12.875 26.6875,12.71875 26.375,12.375 C25.9375,11.9375 26,11.875 26.5625,12.0625 C26.96875,12.21875 27,13.1875 26.625,13.5625 C26.21875,13.96875 25.21875,13.875 24.84375,13.34375 Z" id="Shape" fill="#000000" fill-rule="nonzero"></path>
                        <path d="M34.8125,10.8125 C34.5,10.5 34.75,10.4375 36.15625,10.40625 C37.90625,10.375 38.96875,10.09375 40.21875,9.28125 C41.21875,8.65625 41.5,8.78125 40.53125,9.4375 C39.6875,10.0625 38.34375,10.5 37,10.625 L35.40625,10.84375 C35.15625,10.90625 34.875,10.875 34.78125,10.8125 L34.8125,10.8125 Z" id="Path" fill="#000000"></path>
                    </g>
                </g>
            </g>
        </g>
    </g>
</svg>