<?xml version="1.0" encoding="UTF-8"?>
<svg width="200px" height="150px" viewBox="0 0 200 150" version="1.1" xmlns="http://www.w3.org/2000/svg" xmlns:xlink="http://www.w3.org/1999/xlink">
    <!-- Generator: Sketch 52.5 (67469) - http://www.bohemiancoding.com/sketch -->
    <title>tk</title>
    <desc>Created with Sketch.</desc>
    <g id="Flags" stroke="none" stroke-width="1" fill="none" fill-rule="evenodd">
        <g id="Oceania" transform="translate(-290.000000, -650.000000)">
            <g id="tk" transform="translate(290.000000, 650.000000)">
                <polygon id="Path" fill="#00247D" points="0 0 200 0 200 150 0 150"></polygon>
                <path d="M33.78125,110.8125 C31.6875,110.78125 53.40625,99.25 71.5625,84.4375 C95.375,65.03125 146.65625,34 161.75,28.9375 C163.3125,28.40625 158.53125,31.625 157.90625,32.65625 C141.8125,51.71875 154.65625,87.65625 174.78125,105.75 C180.84375,110.375 180.53125,110.625 191.75,111.0625 L191.75,112.125 L33.78125,110.8125 Z M32.46875,112.90625 C32.46875,112.90625 30.9375,114 30.9375,114.8125 C30.9375,115.71875 32.65625,116.90625 32.65625,116.90625 L188.4375,118.625 L191.3125,116.71875 L187.3125,114.25 L32.46875,112.90625 Z" id="Shape" fill="#FED100" fill-rule="nonzero"></path>
                <path d="M33.375,34.09375 L32.125,37.90625 L35.375,35.5625 L38.59375,37.90625 L37.375,34.09375 L40.59375,31.75 L36.59375,31.75 L35.375,27.9375 L34.125,31.75 L30.125,31.75 L33.375,34.09375 Z M57.78125,52.03125 L60.46875,50.0625 L57.125,50.0625 L56.09375,46.90625 L55.0625,50.0625 L51.75,50.0625 L54.4375,52.03125 L53.40625,55.1875 L56.09375,53.21875 L58.8125,55.1875 L57.78125,52.03125 Z M12.40625,56.09375 L11.15625,52.28125 L9.9375,56.09375 L5.9375,56.09375 L9.15625,58.4375 L7.9375,62.25 L11.15625,59.90625 L14.40625,62.25 L13.15625,58.4375 L16.40625,56.09375 L12.40625,56.09375 Z M36.8125,94.3125 L35.375,89.875 L33.9375,94.3125 L29.25,94.3125 L33.03125,97.03125 L31.59375,101.5 L35.375,98.75 L39.15625,101.5 L37.6875,97.03125 L41.46875,94.3125 L36.8125,94.3125 Z" id="Shape" fill="#FFFFFF" fill-rule="nonzero"></path>
            </g>
        </g>
    </g>
</svg>