<?xml version="1.0" encoding="UTF-8"?>
<svg width="200px" height="141px" viewBox="0 0 200 141" version="1.1" xmlns="http://www.w3.org/2000/svg" xmlns:xlink="http://www.w3.org/1999/xlink">
    <!-- Generator: Sketch 52.5 (67469) - http://www.bohemiancoding.com/sketch -->
    <title>tm</title>
    <desc>Created with Sketch.</desc>
    <defs>
        <polygon id="path-1" points="0.204678363 0 199.795322 0 199.795322 141 0.204678363 141"></polygon>
    </defs>
    <g id="Flags" stroke="none" stroke-width="1" fill="none" fill-rule="evenodd">
        <g id="Asia" transform="translate(-1170.000000, -1450.000000)">
            <g id="tm" transform="translate(1170.000000, 1450.000000)">
                <mask id="mask-2" fill="white">
                    <use xlink:href="#path-1"></use>
                </mask>
                <g id="Path"></g>
                <g id="Group" mask="url(#mask-2)">
                    <g transform="translate(-11.000000, 0.000000)">
                        <polygon id="Path" stroke="none" fill="#28AE66" fill-rule="evenodd" points="0 0 210.526316 0 210.526316 140.625 0 140.625"></polygon>
                        <g id="Group" stroke="none" stroke-width="1" fill="none" fill-rule="evenodd" transform="translate(67.434211, 12.084961)">
                            <path d="M4.74232456,25.680542 C12.3903509,29.3609619 21.4912281,25.680542 24.7807018,20.5718994 C28.1798246,15.7928467 28.5910088,7.80029297 22.752193,0.466918945 C31.7982456,7.99255371 33.8267544,16.5344238 29.3037281,23.5656738 C23.2730263,31.6131592 9.95065789,31.3659668 4.74232456,25.680542 Z" id="Path" fill="#FFFFFF"></path>
                            <path d="M18.3114035,6.97631836 L19.8464912,7.00378418 L18.6403509,7.96508789 L19.1063596,9.50317383 L17.8179825,8.59680176 L16.5844298,9.50317383 L16.995614,7.99255371 L15.7620614,7.03125 L17.2971491,7.00378418 L17.8179825,5.49316406 L18.3114035,6.97631836 Z M10.7182018,16.5344238 L12.2532895,16.5344238 L11.0471491,17.5231934 L11.5131579,19.0338135 L10.2247807,18.1274414 L8.96381579,19.0612793 L9.40241228,17.5231934 L8.16885965,16.5893555 L9.70394737,16.5344238 L10.1973684,15.0238037 L10.7182018,16.5344238 Z M11.2116228,9.00878906 L12.7741228,9.00878906 L11.5405702,9.99755859 L12.0065789,11.5081787 L10.745614,10.6018066 L9.48464912,11.5356445 L9.92324561,9.99755859 L8.68969298,9.03625488 L10.2247807,9.00878906 L10.7182018,7.49816895 L11.2116228,9.00878906 Z M11.2116228,1.45568848 L12.7741228,1.45568848 L11.5131579,2.47192383 L11.9791667,3.98254395 L10.7182018,3.1036377 L9.45723684,4.01000977 L9.89583333,2.49938965 L8.6622807,1.53808594 L10.1973684,1.51062012 L10.6907895,0 L11.2116228,1.45568848 Z M2.79605263,11.0137939 L4.33114035,11.0137939 L3.09758772,12.0025635 L3.56359649,13.5131836 L2.30263158,12.6068115 L1.04166667,13.5406494 L1.48026316,12.0025635 L0.246710526,11.0687256 L1.78179825,11.0137939 L2.2752193,9.50317383 L2.79605263,11.0137939 Z" id="Shape" fill="#FFFFFF" fill-rule="nonzero"></path>
                        </g>
                        <polygon id="Path" stroke="none" fill="#CA3745" fill-rule="evenodd" points="13.0208333 0 58.1414474 0 58.1414474 140.625 13.0208333 140.625"></polygon>
                        <g id="Group" stroke="none" stroke-width="1" fill="none" fill-rule="evenodd" transform="translate(12.883772, 17.578125)">
                            <polygon id="Path" fill="#FAAE29" points="0.137061404 19.0887451 0.137061404 18.0725098 2.00109649 15.5731201 1.64473684 15.0512695 2.74122807 13.5681152 2.38486842 13.0462646 1.64473684 14.0625 1.26096491 13.5681152 3.89254386 10.0524902 4.27631579 10.546875 3.89254386 11.0412598 4.66008772 12.0849609 6.52412281 9.55810547 4.63267544 7.11364746 3.89254386 8.04748535 4.27631579 8.56933594 3.89254386 9.0637207 1.26096491 5.5480957 1.64473684 5.05371094 2.38486842 6.04248047 2.76864035 5.5480957 1.64473684 4.03747559 2.00109649 3.54309082 0.137061404 1.01623535 0.137061404 0 2.76864035 3.515625 2.38486842 4.01000977 3.50877193 5.52062988 2.76864035 6.53686523 3.50877193 7.52563477 4.66008772 6.04248047 7.31907895 9.61303711 4.66008772 13.0737305 3.56359649 11.5631104 2.79605263 12.5793457 3.53618421 13.5955811 2.43969298 15.0787354 2.79605263 15.6005859 0.164473684 19.1162109"></polygon>
                            <polygon id="Path" fill="#FAAE29" points="0.137061404 6.53686523 0.520833333 7.52563477 0.520833333 9.0637207 1.64473684 9.0637207 2.4122807 9.55810547 1.64473684 10.0799561 0.548245614 10.0799561 0.548245614 11.5631104 0.164473684 12.5793457 0.164473684 6.53686523"></polygon>
                        </g>
                        <g id="Group" stroke="none" stroke-width="1" fill="none" fill-rule="evenodd" transform="translate(12.883772, 41.473389)">
                            <polygon id="Path" fill="#FAAE29" points="0.137061404 19.3084717 0.137061404 18.2922363 2.00109649 15.7928467 1.64473684 15.2709961 2.74122807 13.760376 2.38486842 13.2659912 1.64473684 14.2822266 1.26096491 13.760376 3.89254386 10.244751 4.27631579 10.7666016 3.89254386 11.2609863 4.66008772 12.2772217 6.52412281 9.75036621 4.63267544 7.3059082 3.89254386 8.23974609 4.27631579 8.76159668 3.89254386 9.25598145 1.26096491 5.74035645 1.64473684 5.21850586 2.38486842 6.20727539 2.76864035 5.71289062 1.64473684 4.20227051 2.00109649 3.70788574 0.137061404 1.18103027 0.137061404 0.192260742 2.76864035 3.70788574 2.38486842 4.20227051 3.50877193 5.71289062 2.76864035 6.70166016 3.50877193 7.71789551 4.63267544 6.20727539 7.29166667 9.77783203 4.63267544 13.2385254 3.53618421 11.7279053 2.76864035 12.7441406 3.50877193 13.7329102 2.4122807 15.2435303 2.76864035 15.7653809 0.137061404 19.2810059"></polygon>
                            <polygon id="Path" fill="#FAAE29" points="0.137061404 6.72912598 0.520833333 7.74536133 0.520833333 9.25598145 1.64473684 9.25598145 2.4122807 9.75036621 1.64473684 10.244751 0.548245614 10.244751 0.548245614 11.7553711 0.164473684 12.7716064 0.164473684 6.72912598"></polygon>
                        </g>
                        <g id="Group" stroke="none" stroke-width="1" fill="none" fill-rule="evenodd" transform="translate(12.883772, 65.643311)">
                            <polygon id="Path" fill="#FAAE29" points="0.137061404 19.2260742 0.137061404 18.2373047 2.00109649 15.7104492 1.64473684 15.2160645 2.74122807 13.7054443 2.38486842 13.2110596 1.64473684 14.1998291 1.26096491 13.7054443 3.89254386 10.1898193 4.27631579 10.6842041 3.89254386 11.2060547 4.66008772 12.22229 6.52412281 9.69543457 4.63267544 7.22351074 3.89254386 8.18481445 4.27631579 8.67919922 3.89254386 9.17358398 1.26096491 5.65795898 1.64473684 5.16357422 2.38486842 6.17980957 2.76864035 5.65795898 1.64473684 4.17480469 2.00109649 3.6529541 0.137061404 1.15356445 0.137061404 0.137329102 2.76864035 3.6529541 2.38486842 4.17480469 3.50877193 5.65795898 2.76864035 6.67419434 3.50877193 7.69042969 4.66008772 6.17980957 7.29166667 9.75036621 4.63267544 13.2110596 3.53618421 11.7004395 2.76864035 12.689209 3.50877193 13.7054443 2.4122807 15.2160645 2.76864035 15.7104492 0.137061404 19.2260742"></polygon>
                            <polygon id="Path" fill="#FAAE29" points="0.137061404 6.67419434 0.548245614 7.69042969 0.548245614 9.2010498 1.64473684 9.2010498 2.4122807 9.69543457 1.64473684 10.1623535 0.548245614 10.1623535 0.548245614 11.6729736 0.164473684 12.689209 0.164473684 6.64672852"></polygon>
                        </g>
                        <g id="Group" stroke="none" stroke-width="1" fill="none" fill-rule="evenodd" transform="translate(12.883772, 88.165283)">
                            <polygon id="Path" fill="#FAAE29" points="0.137061404 19.3084717 0.137061404 18.2922363 2.00109649 15.7928467 1.64473684 15.2984619 2.74122807 13.7878418 2.38486842 13.293457 1.64473684 14.2822266 1.26096491 13.7878418 3.89254386 10.2722168 4.27631579 10.7666016 3.89254386 11.2609863 4.66008772 12.2772217 6.52412281 9.77783203 4.63267544 7.3059082 3.89254386 8.26721191 4.27631579 8.76159668 3.89254386 9.25598145 1.26096491 5.74035645 1.64473684 5.24597168 2.38486842 6.26220703 2.76864035 5.74035645 1.64473684 4.22973633 2.00109649 3.73535156 0.137061404 1.23596191 0.137061404 0.219726562 2.76864035 3.73535156 2.38486842 4.22973633 3.50877193 5.74035645 2.76864035 6.7565918 3.50877193 7.74536133 4.66008772 6.26220703 7.29166667 9.83276367 4.63267544 13.293457 3.53618421 11.7828369 2.76864035 12.7716064 3.50877193 13.7878418 2.4122807 15.2984619 2.76864035 15.7928467 0.137061404 19.3084717"></polygon>
                            <polygon id="Path" fill="#FAAE29" points="0.137061404 6.7565918 0.520833333 7.74536133 0.520833333 9.25598145 1.64473684 9.25598145 2.4122807 9.77783203 1.64473684 10.2722168 0.548245614 10.2722168 0.548245614 11.7828369 0.164473684 12.7716064 0.164473684 6.72912598"></polygon>
                        </g>
                        <g id="Group" stroke="none" stroke-width="1" fill="none" fill-rule="evenodd" transform="translate(50.986842, 17.578125)">
                            <polygon id="Path" fill="#FAAE29" points="7.15460526 19.0887451 7.15460526 18.0725098 5.29057018 15.5731201 5.67434211 15.0512695 4.5504386 13.5681152 4.90679825 13.0462646 5.67434211 14.0625 6.05811404 13.5681152 3.42653509 10.0524902 3.04276316 10.546875 3.42653509 11.0412598 2.63157895 12.0574951 0.79495614 9.53063965 2.65899123 7.08618164 3.42653509 8.02001953 3.04276316 8.54187012 3.39912281 9.03625488 6.03070175 5.52062988 5.67434211 5.02624512 4.90679825 6.01501465 4.5504386 5.52062988 5.64692982 4.01000977 5.29057018 3.515625 7.15460526 0.988769531 7.15460526 0 4.5504386 3.515625 4.90679825 4.01000977 3.81030702 5.52062988 4.5504386 6.53686523 3.78289474 7.52563477 2.65899123 6.01501465 2.66453526e-14 9.58557129 2.65899123 13.0462646 3.78289474 11.5356445 4.5504386 12.5518799 3.78289474 13.5681152 4.90679825 15.0512695 4.5504386 15.5731201"></polygon>
                            <polygon id="Path" fill="#FAAE29" points="7.15460526 6.53686523 6.77083333 7.52563477 6.77083333 9.0637207 5.67434211 9.0637207 4.90679825 9.55810547 5.64692982 10.0799561 6.77083333 10.0799561 6.77083333 11.5631104 7.15460526 12.5793457 7.15460526 6.53686523"></polygon>
                        </g>
                        <g id="Group" stroke="none" stroke-width="1" fill="none" fill-rule="evenodd" transform="translate(50.986842, 41.473389)">
                            <polygon id="Path" fill="#FAAE29" points="7.29166667 19.3084717 7.29166667 18.2922363 5.42763158 15.7928467 5.78399123 15.2709961 4.6875 13.760376 5.04385965 13.2659912 5.78399123 14.2822266 6.16776316 13.760376 3.53618421 10.244751 3.15241228 10.7666016 3.53618421 11.2609863 2.76864035 12.2772217 0.904605263 9.75036621 2.79605263 7.3059082 3.53618421 8.23974609 3.15241228 8.73413086 3.53618421 9.25598145 6.16776316 5.74035645 5.78399123 5.21850586 5.04385965 6.23474121 4.66008772 5.74035645 5.78399123 4.22973633 5.42763158 3.73535156 7.29166667 1.20849609 7.29166667 0.219726562 4.66008772 3.73535156 5.04385965 4.22973633 3.91995614 5.74035645 4.66008772 6.72912598 3.91995614 7.74536133 2.79605263 6.23474121 0.137061404 9.80529785 2.79605263 13.2659912 3.89254386 11.7553711 4.66008772 12.7716064 3.91995614 13.760376 5.01644737 15.2709961 4.66008772 15.7653809 7.29166667 19.2810059"></polygon>
                            <polygon id="Path" fill="#FAAE29" points="7.29166667 6.72912598 6.90789474 7.74536133 6.90789474 9.25598145 5.75657895 9.25598145 4.98903509 9.75036621 5.75657895 10.244751 6.85307018 10.244751 6.85307018 11.7553711 7.26425439 12.7716064 7.26425439 6.72912598"></polygon>
                        </g>
                        <g id="Group" stroke="none" stroke-width="1" fill="none" fill-rule="evenodd" transform="translate(50.986842, 65.643311)">
                            <polygon id="Path" fill="#FAAE29" points="7.15460526 19.2260742 7.15460526 18.2373047 5.29057018 15.7104492 5.67434211 15.2160645 4.5504386 13.7054443 4.90679825 13.2110596 5.67434211 14.1998291 6.05811404 13.7054443 3.42653509 10.1898193 3.04276316 10.6842041 3.42653509 11.2060547 2.63157895 12.22229 0.79495614 9.69543457 2.65899123 7.22351074 3.42653509 8.18481445 3.04276316 8.67919922 3.39912281 9.17358398 6.03070175 5.65795898 5.67434211 5.16357422 4.90679825 6.17980957 4.5504386 5.65795898 5.64692982 4.17480469 5.29057018 3.6529541 7.15460526 1.15356445 7.15460526 0.137329102 4.5504386 3.6529541 4.90679825 4.17480469 3.81030702 5.65795898 4.5504386 6.67419434 3.78289474 7.69042969 2.65899123 6.17980957 2.66453526e-14 9.75036621 2.65899123 13.2110596 3.78289474 11.7004395 4.5504386 12.689209 3.78289474 13.7054443 4.90679825 15.2160645 4.5504386 15.7104492 7.12719298 19.2260742"></polygon>
                            <polygon id="Path" fill="#FAAE29" points="7.15460526 6.67419434 6.77083333 7.69042969 6.77083333 9.2010498 5.67434211 9.2010498 4.90679825 9.69543457 5.64692982 10.1898193 6.77083333 10.1898193 6.77083333 11.7004395 7.15460526 12.7166748 7.15460526 6.67419434"></polygon>
                        </g>
                        <g id="Group" stroke="none" stroke-width="1" fill="none" fill-rule="evenodd" transform="translate(50.986842, 88.165283)">
                            <polygon id="Path" fill="#FAAE29" points="7.15460526 19.3084717 7.15460526 18.2922363 5.29057018 15.7928467 5.67434211 15.2984619 4.5504386 13.7878418 4.90679825 13.293457 5.67434211 14.2822266 6.05811404 13.7878418 3.42653509 10.2722168 3.04276316 10.7666016 3.42653509 11.2609863 2.63157895 12.2772217 0.79495614 9.77783203 2.65899123 7.3059082 3.42653509 8.26721191 3.04276316 8.76159668 3.39912281 9.25598145 6.03070175 5.76782227 5.67434211 5.2734375 4.90679825 6.28967285 4.5504386 5.76782227 5.64692982 4.25720215 5.29057018 3.76281738 7.15460526 1.26342773 7.15460526 0.247192383 4.5504386 3.76281738 4.90679825 4.25720215 3.81030702 5.76782227 4.5504386 6.78405762 3.78289474 7.77282715 2.65899123 6.28967285 -2.66453526e-14 9.86022949 2.65899123 13.3209229 3.78289474 11.8103027 4.5504386 12.7990723 3.78289474 13.8153076 4.90679825 15.3259277 4.5504386 15.8203125 7.15460526 19.3359375"></polygon>
                            <polygon id="Path" fill="#FAAE29" points="7.15460526 6.7565918 6.77083333 7.74536133 6.77083333 9.25598145 5.67434211 9.25598145 4.90679825 9.77783203 5.64692982 10.2722168 6.77083333 10.2722168 6.77083333 11.7828369 7.15460526 12.7716064 7.15460526 6.72912598"></polygon>
                        </g>
                        <path d="M13.0208333,9.53063965 L13.0208333,8.54187012 L14.8848684,6.01501465 L14.5285088,5.52062988 L15.625,4.01000977 L15.2686404,3.515625 L14.5285088,4.53186035 L14.1447368,4.01000977 L16.7763158,0.494384766 L17.1600877,1.01623535 L16.7763158,1.51062012 L17.5438596,2.52685547 L19.4078947,0 L20.1754386,0 L17.5438596,3.515625 L16.3925439,2.00500488 L15.6524123,3.02124023 L16.3925439,4.01000977 L15.2960526,5.52062988 L15.625,6.04248047 L13.0208333,9.55810547 L13.0208333,9.53063965 Z M13.0208333,0 L15.2960526,0 L14.5285088,0.494384766 L13.4320175,0.494384766 L13.4320175,2.00500488 L12.9934211,3.02124023 L12.9934211,0 L13.0208333,0 Z M58.1414474,9.53063965 L58.1414474,8.54187012 L56.2774123,6.01501465 L56.6611842,5.52062988 L55.5372807,4.01000977 L55.8936404,3.515625 L56.6611842,4.53186035 L57.0175439,4.01000977 L54.3859649,0.494384766 L54.0296053,1.01623535 L54.3859649,1.51062012 L53.6184211,2.52685547 L51.754386,0 L50.9868421,0 L53.6458333,3.515625 L54.7697368,2.00500488 L55.5372807,3.02124023 L54.7697368,4.01000977 L55.8936404,5.52062988 L55.5372807,6.01501465 L58.1414474,9.53063965 Z M58.1414474,0 L55.8936404,0 L56.6337719,0.494384766 L57.7576754,0.494384766 L57.7576754,2.00500488 L58.1414474,3.02124023 L58.1414474,0 Z" id="Shape" stroke="none" fill="#FAAE29" fill-rule="nonzero"></path>
                        <path d="M31.8256579,138.619995 C31.8256579,138.619995 33.4703947,135.76355 37.5274123,134.912109 C41.6118421,134.033203 42.3245614,136.807251 44.6546053,136.807251 C46.9846491,136.807251 50.685307,134.884644 50.685307,134.884644 C50.685307,134.884644 46.9846491,138.537598 44.1063596,138.4552 C41.2828947,138.372803 40.3234649,136.532593 37.3903509,136.807251 C34.4846491,137.081909 31.8256579,138.702393 31.8256579,138.619995 Z" id="Path" stroke="none" fill="#FAAE29" fill-rule="evenodd"></path>
                        <path d="M39.6929825,138.619995 C39.6929825,138.619995 38.0756579,135.76355 34.0186404,134.912109 C29.9067982,134.033203 29.2214912,136.807251 26.8914474,136.807251 C24.5614035,136.807251 20.8607456,134.884644 20.8607456,134.884644 C20.8607456,134.884644 24.5614035,138.537598 27.4122807,138.4552 C30.2631579,138.372803 31.25,136.532593 34.1282895,136.807251 C37.0614035,137.081909 39.6929825,138.702393 39.6929825,138.619995 Z" id="Path" stroke="none" fill="#FAAE29" fill-rule="evenodd"></path>
                        <g id="Group" stroke="none" stroke-width="1" fill="none" fill-rule="evenodd" transform="translate(15.350877, 112.335205)">
                            <path d="M11.0197368,21.5606689 C10.6633772,20.8190918 9.75877193,17.5231934 10.2247807,17.1112061 C10.9649123,16.8365479 12.8837719,20.2148437 12.691886,23.2086182 C11.4309211,23.8952637 7.20942982,22.93396 7.23684211,22.0550537 C7.53837719,20.8190918 9.95065789,21.2310791 11.0197368,21.5606689 Z" id="Path" fill="#FAAE29"></path>
                            <path d="M8.44298246,18.6767578 C8.22368421,17.8527832 7.83991228,14.3920898 8.38815789,14.1174316 C9.12828947,14.0625 10.4714912,17.880249 9.84100877,20.7641602 C8.49780702,21.09375 4.49561404,18.9788818 4.6875,18.1274414 C5.18092105,17.0288086 7.42872807,18.0725098 8.44298246,18.6767578 Z" id="Path" fill="#FAAE29"></path>
                            <path d="M6.35964912,15.4907227 C6.19517544,14.6118164 6.14035088,11.0961914 6.68859649,10.9313965 C7.42872807,10.9863281 8.44298246,14.9963379 7.56578947,17.7703857 C6.19517544,17.880249 2.4122807,15.133667 2.68640351,14.3371582 C3.23464912,13.293457 5.42763158,14.6942139 6.35964912,15.4907227 Z" id="Path" fill="#FAAE29"></path>
                            <path d="M4.71491228,12.0849609 C4.66008772,11.1785889 4.98903509,7.69042969 5.56469298,7.63549805 C6.30482456,7.82775879 6.82565789,12.0025635 5.61951754,14.5568848 C4.27631579,14.3920898 0.849780702,10.9039307 1.23355263,10.1623535 C1.89144737,9.25598145 3.89254386,11.0961914 4.71491228,12.0849609 Z" id="Path" fill="#FAAE29"></path>
                            <path d="M3.56359649,8.48693848 C3.61842105,7.58056641 4.33114035,4.22973633 4.90679825,4.25720215 C5.59210526,4.61425781 5.67434211,8.81652832 4.22149123,11.1236572 C2.90570175,10.6842041 -0.137061404,6.59179687 0.301535088,5.90515137 C1.09649123,5.1361084 2.85087719,7.36083984 3.59100877,8.48693848 L3.56359649,8.48693848 Z" id="Path" fill="#FAAE29"></path>
                            <path d="M3.89254386,4.39453125 C3.81030702,7.96508789 3.15241228,8.02001953 1.97368421,5.38330078 C1.4254386,4.36706543 1.37061404,0.247192383 1.83662281,0.0823974609 C2.52192982,0.0823974609 3.86513158,3.02124023 3.89254386,4.39453125 Z" id="Path" fill="#FAAE29"></path>
                        </g>
                        <g id="Group" stroke="none" stroke-width="1" fill="none" fill-rule="evenodd" transform="translate(43.037281, 112.609863)">
                            <path d="M1.91885965,21.697998 C2.2752193,20.9289551 3.17982456,17.6330566 2.71381579,17.2210693 C1.97368421,16.9464111 0.0822368421,20.2972412 0.246710526,23.3184814 C1.50767544,24.005127 5.75657895,23.0438232 5.70175439,22.164917 C5.4002193,20.9289551 3.01535088,21.3409424 1.91885965,21.6705322 L1.91885965,21.697998 Z" id="Path" fill="#FAAE29"></path>
                            <path d="M4.49561404,18.7866211 C4.74232456,17.9626465 5.09868421,14.5019531 4.57785088,14.2272949 C3.8377193,14.1723633 2.46710526,17.9626465 3.125,20.8740234 C4.44078947,21.2036133 8.47039474,19.0887451 8.25109649,18.2373047 C7.78508772,17.1112061 5.50986842,18.182373 4.49561404,18.7866211 Z" id="Path" fill="#FAAE29"></path>
                            <path d="M6.57894737,15.6005859 C6.74342105,14.7216797 6.79824561,11.2060547 6.25,11.0412598 C5.50986842,11.0961914 4.49561404,15.0787354 5.4002193,17.8527832 C6.77083333,17.9626465 10.5537281,15.2435303 10.2796053,14.4195557 C9.67653509,13.3758545 7.53837719,14.8040771 6.57894737,15.6005859 Z" id="Path" fill="#FAAE29"></path>
                            <path d="M8.22368421,12.1673584 C8.27850877,11.2884521 7.9495614,7.80029297 7.37390351,7.74536133 C6.63377193,7.93762207 6.1129386,12.1124268 7.31907895,14.666748 C8.68969298,14.5019531 12.0888158,11.0137939 11.7324561,10.2722168 C11.0471491,9.33837891 9.07346491,11.2060547 8.22368421,12.1673584 Z" id="Path" fill="#FAAE29"></path>
                            <path d="M9.375,8.56933594 C9.34758772,7.69042969 8.60745614,4.31213379 8.05921053,4.36706543 C7.34649123,4.69665527 7.26425439,8.9263916 8.74451754,11.2335205 C10.060307,10.7940674 13.0756579,6.70166016 12.6370614,6.01501465 C11.8421053,5.24597168 10.0877193,7.47070312 9.34758772,8.56933594 L9.375,8.56933594 Z" id="Path" fill="#FAAE29"></path>
                            <path d="M9.04605263,4.50439453 C9.15570175,8.07495117 9.78618421,8.10241699 10.9649123,5.46569824 C11.5131579,4.47692871 11.5679825,0.329589844 11.1019737,0.192260742 C10.4166667,0.192260742 9.07346491,3.13110352 9.04605263,4.50439453 Z" id="Path" fill="#FAAE29"></path>
                        </g>
                        <g id="Group" stroke="none" stroke-width="1" fill="none" fill-rule="evenodd" transform="translate(19.823849, 77.189241)">
                            <polygon id="Path" stroke="#000000" stroke-width="0.26" fill="#CA3745" points="31.3249606 13.1501779 29.0812731 13.1501779 29.0812731 14.6582577 26.9191742 14.6582577 26.9191742 16.1663375 18.2707787 16.1663375 16.8021832 17.7175053 17.536481 18.4930892 21.1671753 18.4930892 21.8606787 17.7175053 18.2707787 17.7175053 18.9642821 16.9419214 24.0227776 16.9419214 21.8606787 19.2255851 16.8429776 19.2255851 15.4151764 18.4930892 13.9465809 19.2255851 8.88808545 19.2255851 6.72598656 16.9419214 11.7844821 16.9419214 12.5187798 17.7175053 8.88808545 17.7175053 9.62238318 18.4930892 13.2530775 18.4930892 13.9465809 17.7175053 12.5187798 16.1663375 4.56388768 16.1663375 4.56388768 14.6582577 2.4017888 14.6582577 2.4017888 13.1501779 0.239689918 13.1501779 0.239689918 6.2560988 2.4017888 6.2560988 2.4017888 4.74801899 4.56388768 4.74801899 4.56388768 3.1968512 12.5187798 3.1968512 13.9465809 1.68877139 13.2530775 0.913187494 9.62238318 0.913187494 8.88808545 1.68877139 12.5187798 1.68877139 11.7844821 2.4212673 6.72598656 2.4212673 8.88808545 0.137603595 13.9873753 0.137603595 15.4559707 0.913187494 16.8837719 0.137603595 21.9422674 0.137603595 24.1043663 2.4212673 19.0458708 2.4212673 18.3523673 1.68877139 21.9422674 1.68877139 21.2079696 0.913187494 17.6180696 0.913187494 16.8429776 1.68877139 18.311573 3.1968512 26.9599686 3.1968512 26.9599686 4.74801899 29.1220674 4.74801899 29.1220674 6.2560988 31.3249606 6.2560988"></polygon>
                            <polygon id="Path" stroke="#FAAE29" stroke-width="0.5" fill="#28AE66" points="0.964154697 7.05878643 0.964154697 12.4016977 3.12622453 12.4016977 3.12622453 13.9097775 5.28829436 13.9097775 5.28829436 15.4178573 12.5291886 15.4178573 15.4255463 17.723065 18.3015071 15.4394013 26.2562923 15.4394013 26.2562923 13.9313215 28.4183622 13.9097775 28.4183622 12.4016977 30.6212258 12.4016977 30.6212258 7.03724244 28.438759 7.03724244 28.438759 5.52916263 26.2766892 5.52916263 26.2766892 3.97799484 18.321904 3.97799484 15.4459432 1.69433113 12.5495855 3.97799484 5.30869124 3.97799484 5.30869124 5.52916263 3.14662141 5.52916263 3.14662141 7.03724244 0.984551582 7.03724244"></polygon>
                            <path d="M11.0729002,4.72578003 L6.74240954,8.54810211 L6.74240954,4.72578003 L11.0729002,4.72578003 Z M19.7338816,4.72578003 L24.0917804,8.54810211 L24.0917804,4.72578003 L19.7338816,4.72578003 Z M11.0729002,14.6638174 L6.74240954,10.8414954 L6.74240954,14.6638174 L11.0729002,14.6638174 Z M19.7338816,14.6638174 L24.0917804,10.8414954 L24.0917804,14.6638174 L19.7338816,14.6638174 Z M21.1865145,7.01917328 L19.7338816,8.54810211 L22.6391475,8.54810211 L21.1865145,7.01917328 Z M9.62026727,7.01917328 L8.19504249,8.54810211 L11.0729002,8.54810211 L9.62026727,7.01917328 Z M9.62026727,12.3704242 L8.19504249,10.8414954 L11.0729002,10.8414954 L9.62026727,12.3704242 Z M21.1865145,12.3704242 L19.7338816,10.8414954 L22.6391475,10.8414954 L21.1865145,12.3704242 Z" id="Shape" fill="#CA3745" fill-rule="nonzero"></path>
                            <path d="M15.4033909,16.1927463 L13.9507579,14.6638174 L16.8560238,14.6638174 L15.4033909,16.1927463 Z M15.4033909,8.54810211 L13.9507579,7.01917328 L16.8560238,7.01917328 L15.4033909,8.54810211 Z M15.4033909,3.1968512 L13.9507579,4.76052841 L16.8560238,4.76052841 L15.4033909,3.1968512 Z M15.4033909,10.8414954 L13.9507579,12.3704242 L16.8560238,12.3704242 L15.4033909,10.8414954 Z" id="Shape" fill="#FAAE29" fill-rule="nonzero"></path>
                            <polygon id="Path" stroke="#000000" stroke-width="0.26" fill="#FAAE29" points="19.749686 8.56686624 22.6664405 8.56686624 22.6664405 9.32090614 19.7700828 9.32090614"></polygon>
                            <path d="M8.91893992,9.32090614 L10.3467219,9.32090614 L10.3467219,10.3228593 L8.91893992,10.3228593 L8.91893992,9.32090614 Z M20.4839738,9.32090614 L21.9117558,9.32090614 L21.9117558,10.3228593 L20.4839738,10.3228593 L20.4839738,9.32090614 Z" id="Shape" stroke="#000000" stroke-width="0.26" fill="#CC0000" fill-rule="nonzero"></path>
                            <path d="M13.9773674,4.75357874 L16.8533283,4.75357874 L16.8533283,5.50761864 L13.9773674,5.50761864 L13.9773674,4.75357874 Z M13.9773674,6.26165854 L16.8533283,6.26165854 L16.8533283,7.03724244 L13.9773674,7.03724244 L13.9773674,6.26165854 Z" id="Shape" stroke="#000000" stroke-width="0.26" fill="#990000" fill-rule="nonzero"></path>
                            <path d="M13.2430796,5.50761864 L17.5876161,5.50761864 L17.5876161,6.28320254 L13.2430796,6.28320254 L13.2430796,5.50761864 Z M13.9773674,12.4016977 L16.8533283,12.4016977 L16.8533283,13.1341936 L13.9773674,13.1341936 L13.9773674,12.4016977 Z M13.9773674,13.9097775 L16.8533283,13.9097775 L16.8533283,14.6638174 L13.9773674,14.6638174 L13.9773674,13.9097775 Z M13.2430796,13.1557376 L17.5876161,13.1557376 L17.5876161,13.9097775 L13.2430796,13.9097775 L13.2430796,13.1557376 Z" id="Shape" stroke="#000000" stroke-width="0.26" fill="#990000" fill-rule="nonzero"></path>
                            <path d="M19.749686,10.09649 L22.6664405,10.09649 L22.6664405,10.8505299 L19.7700828,10.8505299 L19.749686,10.09649 Z M8.18465205,8.56686624 L11.0810097,8.56686624 L11.0810097,9.32090614 L8.18465205,9.32090614 L8.18465205,8.56686624 Z M8.18465205,10.074946 L11.0810097,10.074946 L11.0810097,10.8505299 L8.18465205,10.8505299 L8.18465205,10.074946 Z M7.47076107,9.32090614 L8.89854303,9.32090614 L8.89854303,10.09649 L7.47076107,10.09649 L7.47076107,9.32090614 Z M10.3671188,9.32090614 L11.7949007,9.32090614 L11.7949007,10.09649 L10.3671188,10.09649 L10.3671188,9.32090614 Z M19.035795,9.32090614 L20.4635769,9.32090614 L20.4635769,10.09649 L19.035795,10.09649 L19.035795,9.32090614 Z M21.9321527,9.32090614 L23.3599346,9.32090614 L23.3599346,10.09649 L21.9321527,10.09649 L21.9321527,9.32090614 Z" id="Shape" stroke="#000000" stroke-width="0.26" fill="#FAAE29" fill-rule="nonzero"></path>
                            <ellipse id="Oval" fill="#FFFFFF" cx="13.6414302" cy="13.4962718" rx="1" ry="1"></ellipse>
                            <ellipse id="Oval" fill="#FFFFFF" cx="15.4229612" cy="13.4962718" rx="1" ry="1"></ellipse>
                            <ellipse id="Oval" fill="#FFFFFF" cx="17.2319003" cy="13.4962718" rx="1" ry="1"></ellipse>
                            <ellipse id="Oval" fill="#FFFFFF" cx="14.3540426" cy="12.7665558" rx="1" ry="1"></ellipse>
                            <ellipse id="Oval" fill="#FFFFFF" cx="16.4918797" cy="12.7665558" rx="1" ry="1"></ellipse>
                            <ellipse id="Oval" fill="#FFFFFF" cx="14.3266344" cy="14.2607362" rx="1" ry="1"></ellipse>
                            <ellipse id="Oval" fill="#FFFFFF" cx="16.4918797" cy="14.2954846" rx="1" ry="1"></ellipse>
                            <ellipse id="Oval" fill="#FFFFFF" cx="19.3697375" cy="9.67394971" rx="1" ry="1"></ellipse>
                            <ellipse id="Oval" fill="#FFFFFF" cx="21.1786766" cy="9.67394971" rx="1" ry="1"></ellipse>
                            <ellipse id="Oval" fill="#FFFFFF" cx="22.9876158" cy="9.67394971" rx="1" ry="1"></ellipse>
                            <ellipse id="Oval" fill="#FFFFFF" cx="20.109758" cy="8.90948529" rx="1" ry="1"></ellipse>
                            <ellipse id="Oval" fill="#FFFFFF" cx="22.2475952" cy="8.90948529" rx="1" ry="1"></ellipse>
                            <ellipse id="Oval" fill="#FFFFFF" cx="20.0823499" cy="10.4036657" rx="1" ry="1"></ellipse>
                            <ellipse id="Oval" fill="#FFFFFF" cx="22.2475952" cy="10.4384141" rx="1" ry="1"></ellipse>
                            <ellipse id="Oval" fill="#FFFFFF" cx="13.614022" cy="5.88637601" rx="1" ry="1"></ellipse>
                            <ellipse id="Oval" fill="#FFFFFF" cx="15.4229612" cy="5.88637601" rx="1" ry="1"></ellipse>
                            <ellipse id="Oval" fill="#FFFFFF" cx="17.2319003" cy="5.85162762" rx="1" ry="1"></ellipse>
                            <ellipse id="Oval" fill="#FFFFFF" cx="14.3266344" cy="5.12191159" rx="1" ry="1"></ellipse>
                            <ellipse id="Oval" fill="#FFFFFF" cx="16.4918797" cy="5.12191159" rx="1" ry="1"></ellipse>
                            <ellipse id="Oval" fill="#FFFFFF" cx="14.3266344" cy="6.61609204" rx="1" ry="1"></ellipse>
                            <ellipse id="Oval" fill="#FFFFFF" cx="16.4918797" cy="6.65084042" rx="1" ry="1"></ellipse>
                            <ellipse id="Oval" fill="#FFFFFF" cx="7.83089838" cy="9.74344647" rx="1" ry="1"></ellipse>
                            <ellipse id="Oval" fill="#FFFFFF" cx="9.63983752" cy="9.74344647" rx="1" ry="1"></ellipse>
                            <ellipse id="Oval" fill="#FFFFFF" cx="11.4487767" cy="9.70869809" rx="1" ry="1"></ellipse>
                            <ellipse id="Oval" fill="#FFFFFF" cx="8.57091894" cy="8.97898206" rx="1" ry="1"></ellipse>
                            <ellipse id="Oval" fill="#FFFFFF" cx="10.7087561" cy="8.97898206" rx="1" ry="1"></ellipse>
                            <ellipse id="Oval" fill="#FFFFFF" cx="8.54351077" cy="10.4731625" rx="1" ry="1"></ellipse>
                            <ellipse id="Oval" fill="#FFFFFF" cx="10.7087561" cy="10.5079109" rx="1" ry="1"></ellipse>
                        </g>
                        <path d="M22.5165022,57.4339142 L22.5165022,69.6236572 L25.6388213,69.6236572 L25.6388213,72.5557846 L45.5304496,72.5557846 L45.5304496,69.6236572 L48.6176864,69.6236572 L48.6176864,57.4339142 L45.5304496,57.4339142 L45.5304496,54.5347321 L25.6388213,54.5347321 L25.6388213,57.4339142 L22.5165022,57.4339142 Z M23.1479825,57.9939835 L23.1479825,69.0965332 L26.2352193,69.0965332 L26.2352193,71.9957153 L44.8989693,71.9957153 L44.8989693,69.0965332 L48.0212884,69.0965332 L48.0212884,57.9939835 L44.8989693,57.9939835 L44.8989693,55.1277466 L26.2352193,55.1277466 L26.2352193,58.0269287 L23.1479825,58.0269287 L23.1479825,57.9939835 Z" id="Shape" stroke="#000000" stroke-width="0.25" fill="#970000" fill-rule="nonzero"></path>
                        <path d="M37.0339912,71.987915 L35.5811404,73.1689453 L34.1282895,71.987915 L32.6754386,73.1689453 L31.2225877,71.987915 L31.2225877,72.5921631 L32.2094298,73.1414795 L31.7160088,73.7457275 L31.7160088,74.3225098 L32.2094298,74.3225098 L32.6754386,73.7731934 L33.1688596,74.3225098 L33.6622807,74.3225098 L33.6622807,73.7731934 L33.1688596,73.1689453 L34.1282895,72.5921631 L35.1151316,73.1414795 L34.6217105,73.7457275 L34.6217105,74.3225098 L35.1151316,74.3225098 L35.5811404,73.7731934 L36.0745614,74.3225098 L36.5405702,74.3225098 L36.5405702,73.7731934 L36.0745614,73.1689453 L37.0339912,72.5921631 L37.9934211,73.1414795 L37.5274123,73.7457275 L37.5274123,74.3225098 L37.9934211,74.3225098 L38.4868421,73.7731934 L38.9802632,74.3225098 L39.4462719,74.3225098 L39.4462719,73.7731934 L38.9802632,73.1689453 L39.939693,72.5921631 L39.939693,71.9604492 L38.4868421,73.1414795 L37.0339912,71.9604492 L37.0339912,71.987915 Z M37.0339912,55.0689697 L35.5811404,53.8879395 L34.1282895,55.0689697 L32.6754386,53.8879395 L31.2225877,55.0689697 L31.2225877,54.4921875 L32.2094298,53.8879395 L31.7160088,53.338623 L31.7160088,52.734375 L32.2094298,52.734375 L32.6754386,53.3111572 L33.1688596,52.734375 L33.6622807,52.734375 L33.6622807,53.3111572 L33.1688596,53.9154053 L34.1282895,54.4647217 L35.1151316,53.9154053 L34.6217105,53.3111572 L34.6217105,52.734375 L35.1151316,52.734375 L35.5811404,53.3111572 L36.0745614,52.734375 L36.5405702,52.734375 L36.5405702,53.3111572 L36.0745614,53.9154053 L37.0339912,54.4647217 L37.9934211,53.9154053 L37.5274123,53.3111572 L37.5274123,52.734375 L37.9934211,52.734375 L38.4868421,53.3111572 L38.9802632,52.734375 L39.4462719,52.734375 L39.4462719,53.3111572 L38.9802632,53.9154053 L39.939693,54.4647217 L39.939693,55.0689697 L38.4868421,53.8879395 L37.0339912,55.0689697 Z M47.9989035,64.7918701 L49.5888158,63.5284424 L48.0263158,62.2650146 L49.5888158,61.0015869 L48.0263158,59.7381592 L48.7938596,59.7381592 L49.5888158,60.5621338 L50.3563596,60.1501465 L51.1239035,60.1501465 L51.1239035,60.5895996 L50.3563596,61.0015869 L51.1239035,61.4135742 L51.1239035,61.8530273 L50.3563596,61.8530273 L49.5888158,61.4135742 L48.7938596,62.2650146 L49.5888158,63.0889893 L50.3563596,62.7044678 L51.1239035,62.7044678 L51.1239035,63.1164551 L50.3563596,63.5284424 L51.1239035,63.9404297 L51.1239035,64.3798828 L50.3563596,64.3798828 L49.5888158,63.9404297 L48.7938596,64.7918701 L49.5888158,65.6158447 L50.3563596,65.2038574 L51.1239035,65.2038574 L51.1239035,65.6433105 L50.3563596,66.0552979 L51.1239035,66.494751 L51.1239035,66.9067383 L50.3563596,66.9067383 L49.5888158,66.494751 L48.7938596,67.3187256 L48.0263158,67.3187256 L49.5888158,66.0552979 L48.0263158,64.7918701 L47.9989035,64.7918701 Z M23.1633772,64.7918701 L21.6008772,63.5284424 L23.1633772,62.2650146 L21.6008772,61.0015869 L23.1633772,59.7381592 L22.3684211,59.7381592 L21.6008772,60.5621338 L20.8333333,60.1501465 L20.0109649,60.1501465 L20.0109649,60.5895996 L20.8333333,60.9741211 L20.0383772,61.3861084 L20.0383772,61.8255615 L20.8333333,61.8255615 L21.6008772,61.3861084 L22.3684211,62.2375488 L21.6008772,63.0615234 L20.8333333,62.677002 L20.0109649,62.677002 L20.0109649,63.0889893 L20.8059211,63.5009766 L20.0109649,63.9129639 L20.0109649,64.352417 L20.8333333,64.352417 L21.6008772,63.9129639 L22.3684211,64.7644043 L21.6008772,65.6158447 L20.8333333,65.2038574 L20.0109649,65.2038574 L20.0109649,65.6158447 L20.8059211,66.027832 L20.0109649,66.4672852 L20.0109649,66.8792725 L20.8333333,66.8792725 L21.6008772,66.4672852 L22.3684211,67.2912598 L23.1633772,67.2912598 L21.6008772,66.027832 L23.1633772,64.7644043 L23.1633772,64.7918701 Z" id="Shape" stroke="none" fill="#28AE66" fill-rule="nonzero"></path>
                        <path d="M48.6176864,69.0965332 L49.2491667,69.0965332 L49.2491667,69.6566025 L48.6176864,69.6566025 L48.6176864,69.0965332 Z M47.9862061,69.6566025 L48.6176864,69.6566025 L48.6176864,70.249617 L48.0212884,70.249617 L47.9862061,69.6566025 Z M44.8989693,72.5887299 L45.5304496,72.5887299 L45.5304496,73.1817444 L44.8989693,73.1817444 L44.8989693,72.5887299 Z M45.5304496,71.9957153 L46.1268476,71.9957153 L46.1268476,72.5887299 L45.5304496,72.5887299 L45.5304496,71.9957153 Z M25.007341,71.9957153 L25.6388213,71.9957153 L25.6388213,72.5887299 L24.9722588,72.5887299 L25.007341,71.9957153 Z M21.8850219,69.0965332 L22.5165022,69.0965332 L22.5165022,69.6566025 L21.8850219,69.6566025 L21.8850219,69.0965332 Z M22.5165022,69.6566025 L23.1479825,69.6566025 L23.1479825,70.249617 L22.5165022,70.249617 L22.5165022,69.6566025 Z M22.5165022,56.8079544 L23.1479825,56.8079544 L23.1479825,57.4009689 L22.5165022,57.4009689 L22.5165022,56.8079544 Z M21.8850219,57.4009689 L22.5165022,57.4009689 L22.5165022,57.9939835 L21.8850219,57.9939835 L21.8850219,57.4009689 Z M25.6388213,53.9087723 L26.2352193,53.9087723 L26.2352193,54.5017868 L25.6739035,54.5017868 L25.6388213,53.9087723 Z M25.007341,54.5017868 L25.6388213,54.5017868 L25.6388213,55.0948013 L24.9722588,55.0948013 L25.007341,54.5017868 Z M44.8989693,53.9087723 L45.5304496,53.9087723 L45.5304496,54.5017868 L44.8989693,54.5017868 L44.8989693,53.9087723 Z M45.5304496,54.5017868 L46.1268476,54.5017868 L46.1268476,55.0948013 L45.5304496,55.0948013 L45.5304496,54.5017868 Z M47.9862061,56.8079544 L48.6176864,56.8079544 L48.6176864,57.4009689 L48.0212884,57.4009689 L47.9862061,56.8079544 Z M48.6176864,57.4339142 L49.2491667,57.4339142 L49.2491667,57.9939835 L48.6176864,57.9939835 L48.6176864,57.4339142 Z M25.6739035,72.5887299 L26.2703015,72.5887299 L26.2703015,73.1817444 L25.6739035,73.1817444 L25.6739035,72.5887299 Z" id="Shape" stroke="#000000" stroke-width="0.25" fill="#28AE66" fill-rule="nonzero"></path>
                        <path d="M30.0000548,56.8408997 L27.5442982,59.1470673 L27.5442982,67.9105042 L30.0000548,70.249617 L41.2263706,70.249617 L43.6821272,67.9434494 L43.6821272,59.1800125 L41.1912884,56.8408997 L30.0000548,56.8408997 Z M29.3685746,55.0618561 L23.1590186,60.9261108 L23.1590186,66.1973511 L29.4036568,71.9957153 L41.8227686,71.9957153 L48.0323246,66.1644058 L48.0323246,60.8931656 L41.8227686,55.0618561 L29.4036568,55.0618561 L29.3685746,55.0618561 Z" id="Shape" stroke="#000000" stroke-width="0.25" fill="#28AE66" fill-rule="nonzero"></path>
                        <polygon id="Path" stroke="#000000" stroke-width="0.25" fill="#FAAE29" fill-rule="evenodd" points="32.5826272 70.8206232 33.5649298 72.0066423 34.5752982 70.8206232 32.5545614 70.8206232"></polygon>
                        <polygon id="Path" stroke="#000000" stroke-width="0.25" fill="#FAAE29" fill-rule="evenodd" transform="translate(33.564930, 55.643252) scale(-1, 1) rotate(-180.000000) translate(-33.564930, -55.643252) " points="32.5826272 55.0502424 33.5649298 56.2362616 34.5752982 55.0502424 32.5545614 55.0502424"></polygon>
                        <polygon id="Path" stroke="#000000" stroke-width="0.25" fill="#FAAE29" fill-rule="evenodd" transform="translate(37.567123, 55.643252) scale(-1, 1) rotate(-180.000000) translate(-37.567123, -55.643252) " points="36.5848202 55.0502424 37.5671228 56.2362616 38.5774912 55.0502424 36.5567544 55.0502424"></polygon>
                        <polygon id="Path" stroke="#000000" stroke-width="0.25" fill="#FAAE29" fill-rule="evenodd" points="36.5848202 70.8206232 37.5671228 72.0066423 38.5774912 70.8206232 36.5567544 70.8206232"></polygon>
                        <polygon id="Path" stroke="#000000" stroke-width="0.25" fill="#CA3745" fill-rule="evenodd" transform="translate(31.591246, 55.643252) scale(-1, 1) rotate(-180.000000) translate(-31.591246, -55.643252) " points="30.608943 55.0502424 31.5912456 56.2362616 32.601614 55.0502424 30.5808772 55.0502424"></polygon>
                        <polygon id="Path" stroke="#000000" stroke-width="0.25" fill="#CA3745" fill-rule="evenodd" transform="translate(35.566026, 55.643252) scale(-1, 1) rotate(-180.000000) translate(-35.566026, -55.643252) " points="34.5837237 55.0502424 35.5660263 56.2362616 36.5763947 55.0502424 34.5556579 55.0502424"></polygon>
                        <polygon id="Path" stroke="#000000" stroke-width="0.25" fill="#CA3745" fill-rule="evenodd" transform="translate(39.540807, 55.643252) scale(-1, 1) rotate(-180.000000) translate(-39.540807, -55.643252) " points="38.5585044 55.0502424 39.540807 56.2362616 40.5511754 55.0502424 38.5304386 55.0502424"></polygon>
                        <polygon id="Path" stroke="#000000" stroke-width="0.26" fill="#CA3745" fill-rule="evenodd" transform="translate(29.073766, 69.942001) scale(-1, 1) rotate(-180.000000) translate(-29.073766, -69.942001) " points="28.1529057 70.8067419 29.9946272 69.0772604 28.1529057 69.0772604"></polygon>
                        <polygon id="Path" stroke="#000000" stroke-width="0.25" fill="#CA3745" fill-rule="evenodd" points="44.895625 61.9528046 47.3864638 61.9528046 48.0179441 62.4865325 47.3864638 63.0202604 44.9307072 63.0202604 44.9307072 61.9231531"></polygon>
                        <polygon id="Path" stroke="#000000" stroke-width="0.25" fill="#CA3745" fill-rule="evenodd" points="28.1370175 57.9939835 26.874057 59.1800125 26.874057 67.9105042 28.1370175 69.0965332 26.277659 69.0965332 26.277659 57.9939835"></polygon>
                        <polygon id="Path" stroke="#000000" stroke-width="0.25" fill="#CA3745" fill-rule="evenodd" points="30.608943 70.8206232 31.5912456 72.0066423 32.601614 70.8206232 30.5808772 70.8206232"></polygon>
                        <polygon id="Path" stroke="#000000" stroke-width="0.25" fill="#CA3745" fill-rule="evenodd" points="34.5837237 70.8206232 35.5660263 72.0066423 36.5763947 70.8206232 34.5556579 70.8206232"></polygon>
                        <polygon id="Path" stroke="#000000" stroke-width="0.25" fill="#CA3745" fill-rule="evenodd" points="38.5585044 70.8206232 39.540807 72.0066423 40.5511754 70.8206232 38.5304386 70.8206232"></polygon>
                        <polygon id="Path" stroke="#000000" stroke-width="0.25" fill="#CA3745" fill-rule="evenodd" transform="translate(43.954942, 63.545258) scale(-1, 1) translate(-43.954942, -63.545258) " points="44.8846217 57.9939835 43.6216612 59.1800125 43.6216612 67.9105042 44.8846217 69.0965332 43.0252632 69.0965332 43.0252632 57.9939835"></polygon>
                        <polygon id="Path" stroke="#000000" stroke-width="0.26" fill="#CA3745" fill-rule="evenodd" transform="translate(42.115927, 69.942001) rotate(-180.000000) translate(-42.115927, -69.942001) " points="41.1950658 70.8067419 43.0367873 69.0772604 41.1950658 69.0772604"></polygon>
                        <polygon id="Path" stroke="#000000" stroke-width="0.26" fill="#CA3745" fill-rule="evenodd" transform="translate(42.115927, 57.114884) scale(-1, 1) translate(-42.115927, -57.114884) " points="41.1950658 57.9796243 43.0367873 56.2501428 41.1950658 56.2501428"></polygon>
                        <polygon id="Path" stroke="#000000" stroke-width="0.26" fill="#CA3745" fill-rule="evenodd" points="28.1529057 57.9796243 29.9946272 56.2501428 28.1529057 56.2501428"></polygon>
                        <polygon id="Shape" stroke="#000000" stroke-width="0.25" fill="#CA3745" fill-rule="nonzero" points="30.0000548 56.8408997 27.5442982 59.1470673 27.5442982 67.9105042 30.0000548 70.249617 41.2263706 70.249617 43.6821272 67.9434494 43.6821272 59.1800125 41.1912884 56.8408997"></polygon>
                        <polygon id="Path" stroke="#000000" stroke-width="0.25" fill="#FAAE29" fill-rule="evenodd" points="44.895625 62.9994685 47.3864638 62.9994685 48.0179441 63.533231 47.3864638 64.0669936 44.9307072 64.0669936 44.9307072 62.9698151"></polygon>
                        <polygon id="Path" stroke="#000000" stroke-width="0.25" fill="#CA3745" fill-rule="evenodd" points="44.895625 64.040207 47.3864638 64.040207 48.0179441 64.5739349 47.3864638 65.1076628 44.9307072 65.1076628 44.9307072 64.0105554"></polygon>
                        <polygon id="Path" stroke="#000000" stroke-width="0.25" fill="#FAAE29" fill-rule="evenodd" points="44.895625 65.0868709 47.3864638 65.0868709 48.0179441 65.6206334 47.3864638 66.1543959 44.9307072 66.1543959 44.9307072 65.0572174"></polygon>
                        <polygon id="Path" stroke="#000000" stroke-width="0.25" fill="#FAAE29" fill-rule="evenodd" points="44.895625 60.8846004 47.3864638 60.8846004 48.0179441 61.4183629 47.3864638 61.9521254 44.9307072 61.9521254 44.9307072 60.8549469"></polygon>
                        <polygon id="Path" stroke="#000000" stroke-width="0.25" fill="#CA3745" fill-rule="evenodd" transform="translate(24.705496, 62.471707) scale(-1, 1) translate(-24.705496, -62.471707) " points="23.1443366 61.9528046 25.6351754 61.9528046 26.2666557 62.4865325 25.6351754 63.0202604 23.1794189 63.0202604 23.1794189 61.9231531"></polygon>
                        <polygon id="Path" stroke="#000000" stroke-width="0.25" fill="#FAAE29" fill-rule="evenodd" transform="translate(24.705496, 63.518404) scale(-1, 1) translate(-24.705496, -63.518404) " points="23.1443366 62.9994685 25.6351754 62.9994685 26.2666557 63.533231 25.6351754 64.0669936 23.1794189 64.0669936 23.1794189 62.9698151"></polygon>
                        <polygon id="Path" stroke="#000000" stroke-width="0.25" fill="#CA3745" fill-rule="evenodd" transform="translate(24.705496, 64.559109) scale(-1, 1) translate(-24.705496, -64.559109) " points="23.1443366 64.040207 25.6351754 64.040207 26.2666557 64.5739349 25.6351754 65.1076628 23.1794189 65.1076628 23.1794189 64.0105554"></polygon>
                        <polygon id="Path" stroke="#000000" stroke-width="0.25" fill="#FAAE29" fill-rule="evenodd" transform="translate(24.705496, 65.605807) scale(-1, 1) translate(-24.705496, -65.605807) " points="23.1443366 65.0868709 25.6351754 65.0868709 26.2666557 65.6206334 25.6351754 66.1543959 23.1794189 66.1543959 23.1794189 65.0572174"></polygon>
                        <polygon id="Path" stroke="#000000" stroke-width="0.25" fill="#FAAE29" fill-rule="evenodd" transform="translate(24.705496, 61.403536) scale(-1, 1) translate(-24.705496, -61.403536) " points="23.1443366 60.8846004 25.6351754 60.8846004 26.2666557 61.4183629 25.6351754 61.9521254 23.1794189 61.9521254 23.1794189 60.8549469"></polygon>
                        <polygon id="Path" stroke="#000000" stroke-width="0.25" fill="#CA3745" fill-rule="evenodd" points="51.1112061 11.8121841 49.2518476 9.56277466 49.2518476 7.883638 47.392489 6.20450134 43.6737719 6.20450134 40.5514529 4.52536469 30.6231798 4.52536469 27.5008607 6.20450134 23.7821436 6.20450134 21.9227851 7.883638 21.9227851 9.56277466 20.0634265 11.7805023 20.0634265 16.3110031 21.9227851 18.5287308 21.9227851 20.2395493 23.7821436 21.9186859 27.5008607 21.9186859 30.6231798 23.5978226 40.5514529 23.5978226 43.6737719 21.9186859 47.392489 21.9186859 49.2869298 20.2395493 49.2869298 18.5604126 51.1462884 16.3110031 51.1462884 11.7805023"></polygon>
                        <polygon id="Path" stroke="none" fill="#FAAE29" fill-rule="evenodd" points="20.6688596 14.0625 20.6688596 15.737915 22.5328947 17.9901123 22.5328947 19.6655273 24.3969298 21.3684082 28.125 21.3684082 31.25 23.0163574 35.5811404 23.0163574 35.5811404 14.0899658 20.6688596 14.0899658"></polygon>
                        <polygon id="Path" stroke="none" fill="#CA3745" fill-rule="evenodd" points="30.3453947 17.9901123 28.0701754 19.4458008 26.6995614 19.4458008 27.1655702 19.9127197 26.2609649 20.8740234 26.7269737 21.3684082 28.0975877 20.8740234 28.5361842 21.3684082 28.7280702 20.0775146 31.25 18.5394287 30.3453947 17.9901123"></polygon>
                        <path d="M27.8508772,16.8640137 L25.5756579,18.3197021 L24.2324561,18.3197021 L24.6710526,18.7866211 L23.7938596,19.7479248 L24.2324561,20.2423096 L25.6030702,19.7479248 L26.0416667,20.2423096 L26.2609649,18.951416 L28.7554825,17.4407959 L27.8508772,16.8914795 L27.8508772,16.8640137 Z M26.6173246,14.6118164 L24.3421053,16.0675049 L22.9714912,16.0675049 L23.4375,16.5618896 L22.5328947,17.5231934 L22.9989035,17.9901123 L24.3695175,17.4957275 L24.808114,17.9901123 L25,16.6992188 L27.5219298,15.1885986 L26.6173246,14.6392822 L26.6173246,14.6118164 Z" id="Shape" stroke="none" fill="#CA3745" fill-rule="nonzero"></path>
                        <polygon id="Path" stroke="none" fill="#FAAE29" fill-rule="evenodd" points="50.4934211 14.0625 50.4934211 12.387085 48.629386 10.1348877 48.629386 8.45947266 46.7653509 6.7565918 43.0372807 6.7565918 39.939693 5.08117676 35.5811404 5.08117676 35.5811404 14.0625 50.4934211 14.0625"></polygon>
                        <polygon id="Path" stroke="none" fill="#CA3745" fill-rule="evenodd" points="35.5811404 23.0438232 34.4298246 23.0438232 33.1140351 21.9177246 30.9758772 21.9177246 29.8245614 21.3684082 30.4002193 20.8190918 31.5515351 21.3684082 32.7028509 21.3684082 33.8541667 19.6655273 35.5811404 20.2148438 35.5811404 21.3684082 33.8541667 21.3684082 35.5811404 23.0163574"></polygon>
                        <polygon id="Path" stroke="none" fill="#FFFFFF" fill-rule="evenodd" points="20.6688596 14.0625 20.6688596 12.387085 22.5328947 10.1348877 22.5328947 8.45947266 24.3969298 6.7565918 28.125 6.7565918 31.25 5.08117676 35.5811404 5.08117676 35.5811404 14.0625 20.6688596 14.0625"></polygon>
                        <polygon id="Path" stroke="none" fill="#CA3745" fill-rule="evenodd" points="35.5811404 5.08117676 34.4298246 5.08117676 33.1140351 6.17980957 30.9758772 6.17980957 29.8245614 6.7565918 30.4002193 7.3059082 31.5515351 6.7565918 32.7028509 6.7565918 33.8541667 8.45947266 35.5811404 7.91015625 35.5811404 6.7565918 33.8541667 6.7565918"></polygon>
                        <polygon id="Path" stroke="none" fill="#CA3745" fill-rule="evenodd" points="35.5811404 5.08117676 36.7324561 5.08117676 38.0756579 6.17980957 40.1864035 6.17980957 41.3377193 6.7565918 40.7894737 7.3059082 39.6107456 6.7565918 38.4594298 6.7565918 37.308114 8.45947266 35.5811404 7.91015625 35.5811404 6.7565918 37.308114 6.7565918 35.5811404 5.08117676"></polygon>
                        <polygon id="Path" stroke="none" fill="#FFFFFF" fill-rule="evenodd" points="50.4934211 14.0625 50.4934211 15.737915 48.629386 17.9901123 48.629386 19.6655273 46.7653509 21.3684082 43.0372807 21.3684082 39.939693 23.0163574 35.5811404 23.0163574 35.5811404 14.0899658 50.4934211 14.0899658"></polygon>
                        <path d="M35.5811404,23.0438232 L36.7324561,23.0438232 L38.0756579,21.9177246 L40.1864035,21.9177246 L41.3377193,21.3684082 L40.7894737,20.8190918 L39.6107456,21.3684082 L38.4594298,21.3684082 L37.308114,19.6655273 L35.5811404,20.2148437 L35.5811404,21.3684082 L37.308114,21.3684082 L35.5811404,23.0163574 L35.5811404,23.0438232 Z M27.8508772,11.2335205 L25.5756579,9.80529785 L24.2324561,9.80529785 L24.6710526,9.33837891 L23.7938596,8.3770752 L24.2324561,7.88269043 L25.6030702,8.3770752 L26.0416667,7.88269043 L26.2609649,9.17358398 L28.7554825,10.6842041 L27.8508772,11.2335205 Z M40.8442982,10.1348877 L43.0921053,8.67919922 L44.4627193,8.67919922 L43.9967105,8.21228027 L44.9013158,7.25097656 L44.4627193,6.7565918 L43.0921053,7.25097656 L42.6535088,6.7565918 L42.4342105,8.04748535 L39.939693,9.58557129 L40.8442982,10.1348877 Z" id="Shape" stroke="none" fill="#CA3745" fill-rule="nonzero"></path>
                        <path d="M30.3453947,10.1348877 L28.0701754,8.67919922 L26.6995614,8.67919922 L27.1655702,8.21228027 L26.2609649,7.25097656 L26.7269737,6.7565918 L28.0975877,7.25097656 L28.5361842,6.7565918 L28.7280702,8.04748535 L31.25,9.55810547 L30.3453947,10.1074219 L30.3453947,10.1348877 Z M26.5899123,13.5131836 L24.314693,12.0574951 L22.9440789,12.0574951 L23.4100877,11.5631104 L22.5054825,10.6018066 L23.0263158,10.1623535 L24.3969298,10.6567383 L24.8355263,10.1623535 L25.0274123,11.4532471 L27.5493421,12.9638672 L26.6447368,13.5131836 L26.5899123,13.5131836 Z" id="Shape" stroke="none" fill="#CA3745" fill-rule="nonzero"></path>
                        <polygon id="Path" stroke="none" fill="#FFFFFF" fill-rule="evenodd" points="21.7927632 14.0625 22.3410088 14.0625 22.9166667 14.6118164 23.4923246 14.0625 35.5811404 14.0625 35.5811404 21.9177246 35.0328947 21.9177246 35.5811404 22.467041 35.5811404 23.0712891 33.8541667 21.395874 33.8541667 20.8465576 34.4298246 20.8465576 34.4298246 21.395874 35.0054825 21.395874 35.0054825 20.8465576 30.3453947 18.3746338 26.3980263 18.3746338 26.3980263 15.90271 24.6710526 14.666748 23.5197368 14.666748 22.9440789 15.2160645 23.4923246 15.7653809 22.9440789 15.7653809 21.7927632 14.1174316"></polygon>
                        <polygon id="Path" stroke="none" fill="#FAAE29" fill-rule="evenodd" points="21.7927632 14.0625 22.3410088 14.0625 22.9166667 13.5131836 23.4923246 14.0625 35.5811404 14.0625 35.5811404 6.20727539 35.0328947 6.20727539 35.5811404 5.65795898 35.5811404 5.08117676 33.8541667 6.7565918 33.8541667 7.3059082 34.4298246 7.3059082 34.4298246 6.7565918 35.0054825 6.7565918 35.0054825 7.3059082 30.3453947 9.80529785 26.3980263 9.80529785 26.3980263 12.2497559 24.6710526 13.5131836 23.5197368 13.5131836 22.9440789 12.9638672 23.4923246 12.387085 22.9440789 12.387085"></polygon>
                        <polygon id="Path" stroke="none" fill="#28AE66" fill-rule="evenodd" points="24.3969298 14.0625 35.5811404 14.0625 35.5811404 20.791626 30.6195175 17.9901123 26.8914474 17.9901123 26.8914474 15.737915 24.4243421 14.0625"></polygon>
                        <path d="M43.3114035,11.2609863 L45.5866228,9.80529785 L46.9572368,9.80529785 L46.4912281,9.33837891 L47.3958333,8.3770752 L46.9572368,7.88269043 L45.5866228,8.3770752 L45.1480263,7.88269043 L44.9287281,9.17358398 L42.4342105,10.6842041 L43.3114035,11.2335205 L43.3114035,11.2609863 Z M44.5723684,13.5131836 L46.8475877,12.0574951 L48.1907895,12.0574951 L47.7247807,11.5631104 L48.629386,10.6018066 L48.1907895,10.1348877 L46.8201754,10.6292725 L46.3815789,10.1348877 L46.1622807,11.4257813 L43.6677632,12.9364014 L44.5723684,13.4857178 L44.5723684,13.5131836 Z" id="Shape" stroke="none" fill="#CA3745" fill-rule="nonzero"></path>
                        <polygon id="Path" stroke="none" fill="#FFFFFF" fill-rule="evenodd" points="49.3969298 14.0625 48.8212719 14.0625 48.245614 13.5131836 47.6699561 14.0625 35.5811404 14.0625 35.5811404 6.20727539 36.1567982 6.20727539 35.5811404 5.65795898 35.5811404 5.08117676 37.308114 6.7565918 37.308114 7.3059082 36.7324561 7.3059082 36.7324561 6.7565918 36.1567982 6.7565918 36.1567982 7.3059082 40.816886 9.80529785 44.7642544 9.80529785 44.7642544 12.2497559 46.5186404 13.5131836 47.6699561 13.5131836 48.2182018 12.9638672 47.6699561 12.387085 48.2182018 12.387085 49.3969298 14.0625"></polygon>
                        <polygon id="Path" stroke="none" fill="#28AE66" fill-rule="evenodd" points="46.7653509 14.0625 35.5811404 14.0625 35.5811404 7.33337402 40.5701754 10.1348877 44.2982456 10.1348877 44.2982456 12.387085 46.7927632 14.0625"></polygon>
                        <polygon id="Path" stroke="none" fill="#CA3745" fill-rule="evenodd" points="40.8442982 17.9901123 43.0921053 19.4458008 44.4627193 19.4458008 43.9967105 19.9127197 44.9013158 20.8740234 44.4627193 21.3684082 43.0921053 20.8740234 42.6535088 21.3684082 42.4342105 20.0775146 39.939693 18.5394287 40.8442982 17.9901123"></polygon>
                        <path d="M43.3114035,16.8640137 L45.5866228,18.3197021 L46.9572368,18.3197021 L46.4912281,18.7866211 L47.3958333,19.7479248 L46.9572368,20.2423096 L45.5866228,19.7479248 L45.1480263,20.2423096 L44.9287281,18.951416 L42.4342105,17.4407959 L43.3114035,16.8914795 L43.3114035,16.8640137 Z M44.5723684,14.6118164 L46.8475877,16.0675049 L48.1907895,16.0675049 L47.7247807,16.5344238 L48.629386,17.4957275 L48.1907895,17.9901123 L46.8201754,17.4957275 L46.3815789,17.9901123 L46.1622807,16.6992188 L43.6677632,15.1885986 L44.5723684,14.6392822 L44.5723684,14.6118164 Z" id="Shape" stroke="none" fill="#CA3745" fill-rule="nonzero"></path>
                        <polygon id="Path" stroke="none" fill="#FAAE29" fill-rule="evenodd" points="49.3969298 14.0625 48.8212719 14.0625 48.245614 14.6118164 47.6699561 14.0625 35.5811404 14.0625 35.5811404 21.9177246 36.1567982 21.9177246 35.5811404 22.467041 35.5811404 23.0712891 37.308114 21.395874 37.308114 20.8465576 36.7324561 20.8465576 36.7324561 21.395874 36.1567982 21.395874 36.1567982 20.8465576 40.816886 18.3746338 44.7642544 18.3746338 44.7642544 15.90271 46.5186404 14.666748 47.6699561 14.666748 48.2182018 15.2160645 47.6699561 15.7653809 48.2182018 15.7653809 49.3969298 14.1174316"></polygon>
                        <path d="M46.7653509,14.0625 L35.5811404,14.0625 L35.5811404,20.791626 L40.5701754,17.9901123 L44.2982456,17.9901123 L44.2982456,15.737915 L46.7927632,14.0625 L46.7653509,14.0625 Z M24.3969298,14.0625 L35.5811404,14.0625 L35.5811404,7.33337402 L30.6195175,10.1348877 L26.8914474,10.1348877 L26.8914474,12.387085 L24.4243421,14.0625 L24.3969298,14.0625 Z" id="Shape" stroke="none" fill="#CA3745" fill-rule="nonzero"></path>
                        <path d="M36.814693,14.0625 L39.939693,12.387085 L41.8037281,12.387085 L41.1732456,11.8377686 L42.4342105,10.6842041 L41.8037281,10.1348877 L39.939693,10.6842041 L39.3092105,10.1348877 L39.0350877,11.6455078 L35.5811404,13.4033203 L36.814693,14.0625 Z M34.3475877,14.0625 L31.25,15.737915 L29.3859649,15.737915 L29.9890351,16.2872314 L28.7554825,17.4407959 L29.3859649,17.9901123 L31.25,17.4407959 L31.8530702,17.9901123 L32.127193,16.4794922 L35.5811404,14.7216797 L34.3475877,14.0625 Z" id="Shape" stroke="none" fill="#CA3745" fill-rule="nonzero"></path>
                        <path d="M34.3475877,14.0625 L31.25,12.387085 L29.3859649,12.387085 L30.0164474,11.8377686 L28.7828947,10.6842041 L29.4133772,10.1348877 L31.2774123,10.6842041 L31.8804825,10.1348877 L32.1546053,11.6455078 L35.6085526,13.4033203 L34.375,14.0625 L34.3475877,14.0625 Z M36.814693,14.0625 L39.939693,15.737915 L41.8037281,15.737915 L41.1732456,16.2872314 L42.4342105,17.4407959 L41.8037281,17.9901123 L39.939693,17.4407959 L39.3092105,17.9901123 L39.0350877,16.4794922 L35.5811404,14.7216797 L36.814693,14.0625 Z" id="Shape" stroke="none" fill="#28AE66" fill-rule="nonzero"></path>
                        <polygon id="Path" stroke="none" fill="#FFFFFF" fill-rule="evenodd" points="31.8530702 14.0625 35.5811404 11.2609863 39.3092105 14.0625 35.5811404 16.8640137 31.8530702 14.0625"></polygon>
                        <polygon id="Path" stroke="none" fill="#CA3745" fill-rule="evenodd" points="23.4923246 15.1885986 24.0679825 15.737915 23.5197368 16.2872314 22.9166667 16.2872314 21.189693 14.0625 21.7653509 14.0625 22.9166667 15.737915 23.4923246 15.737915 22.9440789 15.1885986 23.4923246 14.6392822 24.6710526 14.6392822 24.6710526 15.1885986 23.5197368 15.1885986"></polygon>
                        <path d="M23.4923246,12.9364014 L24.0679825,12.387085 L23.5197368,11.8377686 L22.9166667,11.8377686 L21.189693,14.0625 L21.7653509,14.0625 L22.9166667,12.387085 L23.4923246,12.387085 L22.9440789,12.9364014 L23.4923246,13.4857178 L24.6710526,13.4857178 L24.6710526,12.9364014 L23.5197368,12.9364014 L23.4923246,12.9364014 Z M47.6699561,15.1885986 L47.1217105,15.737915 L47.6699561,16.2872314 L48.245614,16.2872314 L49.9725877,14.0625 L49.4243421,14.0625 L48.245614,15.737915 L47.6973684,15.737915 L48.245614,15.1885986 L47.6973684,14.6392822 L46.5186404,14.6392822 L46.5186404,15.1885986 L47.6699561,15.1885986 Z" id="Shape" stroke="none" fill="#CA3745" fill-rule="nonzero"></path>
                        <path d="M47.6973684,12.9364014 L47.0942982,12.387085 L47.6699561,11.8377686 L48.245614,11.8377686 L49.9725877,14.0625 L49.4243421,14.0625 L48.245614,12.387085 L47.6973684,12.387085 L48.245614,12.9364014 L47.6973684,13.4857178 L46.5186404,13.4857178 L46.5186404,12.9364014 L47.6699561,12.9364014 L47.6973684,12.9364014 Z M35.0054825,11.8377686 L36.1567982,11.8377686 L36.1567982,16.3146973 L35.0054825,16.3146973 L35.0054825,11.8377686 Z" id="Shape" stroke="none" fill="#CA3745" fill-rule="nonzero"></path>
                        <polygon id="Path" stroke="none" fill="#CA3745" fill-rule="evenodd" points="33.2785088 12.9364014 37.8837719 12.9364014 37.8837719 15.1885986 33.2785088 15.1885986"></polygon>
                        <polygon id="Path" stroke="#000000" stroke-width="0.25" fill="#28AE66" fill-rule="evenodd" points="30.3220943 99.3685913 19.9923246 105.074286 19.9923246 114.372455 30.419545 120.078149 40.7493147 120.078149 51.0790844 114.372455 51.0790844 105.074286 40.7493147 99.4742523 30.419545 99.4742523"></polygon>
                        <path d="M23.9035088,108.847046 L24.5065789,108.847046 L24.5065789,107.666016 L25.7675439,107.666016 L25.7675439,108.81958 L26.3980263,108.81958 L26.3980263,106.12793 L25.7675439,106.12793 L25.7675439,107.281494 L24.5339912,107.281494 L24.5339912,106.12793 L23.9035088,106.12793 L23.9035088,108.81958 L23.9035088,108.847046 Z M39.7752193,117.800903 L40.4057018,117.800903 L40.4057018,116.647339 L41.6392544,116.647339 L41.6392544,117.800903 L42.2697368,117.800903 L42.2697368,115.081787 L41.6666667,115.081787 L41.6666667,116.235352 L40.4057018,116.235352 L40.4057018,115.081787 L39.8026316,115.081787 L39.8026316,117.773438 L39.7752193,117.800903 Z M29.7423246,104.342651 L30.372807,104.342651 L30.372807,103.216553 L31.6337719,103.216553 L31.6337719,104.370117 L32.2368421,104.370117 L32.2368421,101.678467 L31.6337719,101.678467 L31.6337719,102.832031 L30.372807,102.832031 L30.372807,101.678467 L29.7423246,101.678467 L29.7423246,104.370117 L29.7423246,104.342651 Z M38.9254386,104.342651 L39.5559211,104.342651 L39.5559211,103.216553 L40.816886,103.216553 L40.816886,104.370117 L41.4473684,104.370117 L41.4473684,101.678467 L40.816886,101.678467 L40.816886,102.832031 L39.5559211,102.832031 L39.5559211,101.678467 L38.9254386,101.678467 L38.9254386,104.370117 L38.9254386,104.342651 Z M44.7916667,108.847046 L45.3947368,108.847046 L45.3947368,107.666016 L46.6557018,107.666016 L46.6557018,108.81958 L47.2861842,108.81958 L47.2861842,106.12793 L46.6557018,106.12793 L46.6557018,107.281494 L45.3947368,107.281494 L45.3947368,106.12793 L44.7916667,106.12793 L44.7916667,108.81958 L44.7916667,108.847046 Z M44.7916667,113.323975 L45.3947368,113.323975 L45.3947368,112.17041 L46.6557018,112.17041 L46.6557018,113.323975 L47.2861842,113.323975 L47.2861842,110.632324 L46.6557018,110.632324 L46.6557018,111.785889 L45.3947368,111.785889 L45.3947368,110.632324 L44.7916667,110.632324 L44.7916667,113.323975 Z" id="Shape" stroke="none" fill="#CC0000" fill-rule="nonzero"></path>
                        <path d="M35.5811404,119.586182 L35.5811404,109.725952 L50.6304825,109.725952 L50.6304825,114.202881 L40.5701754,119.586182 L35.5537281,119.586182 L35.5811404,119.586182 Z M35.5811404,99.8931885 L35.5811404,109.725952 L20.5592105,109.725952 L20.5592105,105.249023 L30.564693,99.8931885 L35.5811404,99.8931885 Z" id="Shape" stroke="none" fill="#FAAE29" fill-rule="nonzero"></path>
                        <path d="M35.5811404,99.8931885 L35.5811404,109.725952 L50.6304825,109.725952 L50.6304825,105.249023 L40.5701754,99.8931885 L35.5537281,99.8931885 L35.5811404,99.8931885 Z M35.5811404,119.586182 L35.5811404,109.725952 L20.5592105,109.725952 L20.5592105,114.202881 L30.564693,119.586182 L35.5811404,119.586182 Z" id="Shape" stroke="none" fill="#FFFFFF" fill-rule="nonzero"></path>
                        <path d="M43.6161952,105.721436 L49.642437,105.721436 L43.6161952,103.042969 L43.6161952,105.721436 Z M50.6326645,105.266602 L50.6326645,109.739136 L41.1264803,109.739136 L41.1264803,106.17627 L39.117733,106.17627 L36.5997259,104.837036 L36.5997259,101.703735 L38.1275055,100.339233 L36.1187582,100.339233 L36.1187582,104.837036 L35.6094984,104.837036 L35.6094984,99.909668 L40.6172204,99.909668 L50.6326645,105.266602 Z" id="Shape" stroke="#000000" stroke-width="0.25" fill="#FAAE29" fill-rule="nonzero"></path>
                        <polygon id="Path" stroke="none" fill="#CA3745" fill-rule="evenodd" points="30.564693 106.594849 30.564693 112.884521 32.0723684 112.884521 35.5811404 114.697266 39.0899123 112.884521 40.5975877 112.884521 40.5975877 106.622314 39.0899123 106.622314 35.5811404 104.837036 32.0723684 106.622314 30.564693 106.622314"></polygon>
                        <path d="M28.5637253,115.552002 L34.5899671,115.552002 L28.5637253,112.873535 L28.5637253,115.552002 Z M35.5801946,115.097168 L35.5801946,119.569702 L26.0740104,119.569702 L26.0740104,116.006836 L24.0652632,116.006836 L21.547256,114.667603 L21.547256,111.534302 L23.0750356,110.1698 L21.0662884,110.1698 L21.0662884,114.667603 L20.5570285,114.667603 L20.5570285,109.740234 L25.5647505,109.740234 L35.5801946,115.097168 Z" id="Shape" stroke="#000000" stroke-width="0.25" fill="#FAAE29" fill-rule="nonzero" transform="translate(28.068612, 114.654968) rotate(-180.000000) translate(-28.068612, -114.654968) "></path>
                        <path d="M28.5637253,105.721436 L34.5899671,105.721436 L28.5637253,103.042969 L28.5637253,105.721436 Z M35.5801946,105.266602 L35.5801946,109.739136 L26.0740104,109.739136 L26.0740104,106.17627 L24.0652632,106.17627 L21.547256,104.837036 L21.547256,101.703735 L23.0750356,100.339233 L21.0662884,100.339233 L21.0662884,104.837036 L20.5570285,104.837036 L20.5570285,99.909668 L25.5647505,99.909668 L35.5801946,105.266602 Z" id="Shape" stroke="#000000" stroke-width="0.25" fill="#FFFFFF" fill-rule="nonzero" transform="translate(28.068612, 104.824402) scale(-1, 1) translate(-28.068612, -104.824402) "></path>
                        <path d="M43.6161952,115.552002 L49.642437,115.552002 L43.6161952,112.873535 L43.6161952,115.552002 Z M50.6326645,115.097168 L50.6326645,119.569702 L41.1264803,119.569702 L41.1264803,116.006836 L39.117733,116.006836 L36.5997259,114.667603 L36.5997259,111.534302 L38.1275055,110.1698 L36.1187582,110.1698 L36.1187582,114.667603 L35.6094984,114.667603 L35.6094984,109.740234 L40.6172204,109.740234 L50.6326645,115.097168 Z" id="Shape" stroke="#000000" stroke-width="0.25" fill="#FFFFFF" fill-rule="nonzero" transform="translate(43.121081, 114.654968) scale(-1, 1) rotate(-180.000000) translate(-43.121081, -114.654968) "></path>
                        <path d="M23.5745614,113.323975 L24.1776316,113.323975 L24.1776316,111.950684 L25.4385965,111.950684 L25.4385965,113.323975 L26.0690789,113.323975 L26.0690789,110.192871 L25.4385965,110.192871 L25.4385965,111.538696 L24.1776316,111.538696 L24.1776316,110.165405 L23.5745614,110.165405 L23.5745614,113.323975 Z M29.5778509,117.800903 L30.2083333,117.800903 L30.2083333,116.427612 L31.441886,116.427612 L31.441886,117.800903 L32.0723684,117.800903 L32.0723684,114.6698 L31.441886,114.6698 L31.441886,116.015625 L30.2083333,116.015625 L30.2083333,114.642334 L29.5778509,114.642334 L29.5778509,117.828369 L29.5778509,117.800903 Z M23.5471491,106.155396 L24.1776316,106.155396 L24.1776316,107.501221 L25.4385965,107.501221 L25.4385965,106.12793 L26.0690789,106.12793 L26.0690789,109.313965 L25.4385965,109.313965 L25.4385965,107.940674 L24.1776316,107.940674 L24.1776316,109.286499 L23.5745614,109.286499 L23.5745614,106.155396 L23.5471491,106.155396 Z M29.5778509,101.678467 L30.2083333,101.678467 L30.2083333,103.024292 L31.441886,103.024292 L31.441886,101.651001 L32.0723684,101.651001 L32.0723684,104.80957 L31.441886,104.80957 L31.441886,103.463745 L30.2083333,103.463745 L30.2083333,104.837036 L29.5778509,104.837036 L29.5778509,101.678467 Z M39.0899123,117.800903 L39.7203947,117.800903 L39.7203947,116.427612 L40.9813596,116.427612 L40.9813596,117.800903 L41.6118421,117.800903 L41.6118421,114.6698 L40.9813596,114.6698 L40.9813596,116.015625 L39.7203947,116.015625 L39.7203947,114.642334 L39.0899123,114.642334 L39.0899123,117.828369 L39.0899123,117.800903 Z M45.120614,109.286499 L45.7510965,109.286499 L45.7510965,107.940674 L46.9846491,107.940674 L46.9846491,109.313965 L47.6151316,109.313965 L47.6151316,106.155396 L46.9846491,106.155396 L46.9846491,107.501221 L45.7785088,107.501221 L45.7785088,106.12793 L45.1480263,106.12793 L45.1480263,109.313965 L45.120614,109.286499 Z" id="Shape" stroke="none" fill="#CA3745" fill-rule="nonzero"></path>
                        <polygon id="Path" stroke="none" fill="#CA3745" fill-rule="evenodd" points="39.0899123 117.800903 39.7203947 117.800903 39.7203947 116.427612 40.9813596 116.427612 40.9813596 117.800903 41.6118421 117.800903 41.6118421 114.6698 40.9813596 114.6698 40.9813596 116.015625 39.7203947 116.015625 39.7203947 114.642334 39.0899123 114.642334 39.0899123 117.828369"></polygon>
                        <path d="M39.0899123,117.800903 L39.7203947,117.800903 L39.7203947,116.427612 L40.9813596,116.427612 L40.9813596,117.800903 L41.6118421,117.800903 L41.6118421,114.6698 L40.9813596,114.6698 L40.9813596,116.015625 L39.7203947,116.015625 L39.7203947,114.642334 L39.0899123,114.642334 L39.0899123,117.828369 L39.0899123,117.800903 Z M45.120614,113.323975 L45.7510965,113.323975 L45.7510965,111.950684 L46.9846491,111.950684 L46.9846491,113.323975 L47.6151316,113.323975 L47.6151316,110.192871 L46.9846491,110.192871 L46.9846491,111.51123 L45.7785088,111.51123 L45.7785088,110.165405 L45.1480263,110.165405 L45.1480263,113.323975 L45.120614,113.323975 Z M39.0899123,104.80957 L39.7203947,104.80957 L39.7203947,103.463745 L40.9813596,103.463745 L40.9813596,104.837036 L41.6118421,104.837036 L41.6118421,101.678467 L40.9813596,101.678467 L40.9813596,103.024292 L39.7203947,103.024292 L39.7203947,101.651001 L39.0899123,101.651001 L39.0899123,104.80957 Z" id="Shape" stroke="none" fill="#CA3745" fill-rule="nonzero"></path>
                        <polygon id="Path" stroke="none" fill="#FFFFFF" fill-rule="evenodd" points="36.1019737 109.725952 38.1030702 108.078003 39.0899123 108.078003 39.0899123 108.901978 38.1030702 108.901978 38.1030702 109.313965 39.6107456 109.313965 39.6107456 107.693481 38.1030702 107.693481 38.1030702 106.45752 36.1019737 106.45752 36.1019737 107.693481 36.5953947 107.693481 36.5953947 106.869507 37.5822368 106.869507 37.5822368 107.693481 35.5811404 109.341431 33.5800439 107.693481 33.5800439 106.869507 34.5942982 106.869507 34.5942982 107.693481 35.0877193 107.693481 35.0877193 106.45752 33.0866228 106.45752 33.0866228 107.693481 31.5789474 107.693481 31.5789474 109.341431 33.0866228 109.341431 33.0866228 108.929443 32.0723684 108.929443 32.0723684 108.105469 33.0866228 108.105469 35.0877193 109.753418 33.0866228 111.373901 32.0723684 111.373901 32.0723684 110.549927 33.0866228 110.549927 33.0866228 110.137939 31.5789474 110.137939 31.5789474 111.785889 33.0866228 111.785889 33.0866228 112.994385 35.0877193 112.994385 35.0877193 111.785889 34.5942982 111.785889 34.5942982 112.609863 33.5800439 112.609863 33.5800439 111.785889 35.5811404 110.137939 37.5822368 111.785889 37.5822368 112.609863 36.5953947 112.609863 36.5953947 111.785889 36.1019737 111.785889 36.1019737 112.994385 38.1030702 112.994385 38.1030702 111.785889 39.6107456 111.785889 39.6107456 110.137939 38.1030702 110.137939 38.1030702 110.549927 39.0899123 110.549927 39.0899123 111.373901 38.1030702 111.373901"></polygon>
                        <g id="Group" stroke="none" stroke-width="1" fill="none" fill-rule="evenodd" transform="translate(19.926316, 30.531791)">
                            <path d="M12.6749123,19.2677447 L12.6749123,17.8463335 L8.14815789,17.8463335 L8.14815789,15.056156 L4.13066338,15.056156 L4.13066338,14.134871 L0.622428728,14.134871 L0.622428728,5.71169348 L4.13066338,5.71169348 L4.13066338,4.79040844 L8.14815789,4.79040844 L8.14815789,2.0002309 L12.6749123,2.0002309 L12.6749123,0.605142126 L18.6728618,0.605142126 L18.6728618,2.0002309 L23.1996162,2.0002309 L23.1996162,4.79040844 L27.1888185,4.79040844 L27.1888185,5.73801591 L30.7253454,5.73801591 L30.7253454,14.134871 L27.2171107,14.134871 L27.2171107,15.056156 L23.2279084,15.056156 L23.2279084,17.8463335 L18.7011541,17.8463335 L18.7011541,19.2414223 L12.7032045,19.2414223 L12.6749123,19.2677447 Z M12.1656524,19.715226 L12.1656524,18.3201373 L7.63889803,18.3201373 L7.63889803,15.5299597 L3.64969572,15.5299597 L3.64969572,14.5823523 L0.141461075,14.5823523 L0.141461075,5.26421217 L3.64969572,5.26421217 L3.64969572,4.34292714 L7.63889803,4.34292714 L7.63889803,1.52642716 L12.1656524,1.52642716 L12.1656524,0.131338392 L19.1821217,0.131338392 L19.1821217,1.52642716 L23.7088761,1.52642716 L23.7088761,4.34292714 L27.6980784,4.34292714 L27.6980784,5.26421217 L31.206313,5.26421217 L31.206313,14.5823523 L27.6980784,14.5823523 L27.6980784,15.5299597 L23.6805839,15.5299597 L23.6805839,18.3201373 L19.1538295,18.3201373 L19.1538295,19.715226 L12.1656524,19.715226 Z" id="Shape" stroke="#000000" stroke-width="0.25" fill="#CA3745" fill-rule="nonzero"></path>
                            <polygon id="Path" fill="#CA3745" points="1.61265625 9.81836444 2.57459156 8.81810211 8.40278783 8.81810211 12.7597889 4.4222124 18.5879852 4.4222124 22.9449863 8.8444248 28.7731826 8.8444248 29.7351179 9.81836444 28.7731826 10.7923041 22.9166941 10.7923041 18.559693 15.2145165 12.7314967 15.2145165 8.40278783 10.7923041 2.54629934 10.7923041 1.58436404 9.81836444"></polygon>
                            <polygon id="Path" stroke="#000000" stroke-width="0.25" fill="#CA3745" points="2.10688729 9.89860127 2.63371097 9.4200126 8.63950087 9.4200126 13.1438433 4.77770248 18.1486682 4.77770248 22.6793518 9.44394203 28.6851417 9.44394203 29.1856242 9.92253071 28.6851417 10.3771899 22.6793518 10.3771899 18.6491507 14.5648408 12.6433608 14.5648408 8.63950087 10.3771899 2.60736979 10.3771899 2.10688729 9.89860127"></polygon>
                            <path d="M18.1070175,10.3184956 L20.0308882,12.2663749 L19.0689529,13.2403145 L18.559693,12.766506 L18.1070175,12.766506 L18.1070175,13.2403145 L18.5879852,13.7404457 L19.5782127,13.7404457 L20.540148,12.766506 L20.540148,11.7662437 L18.5879852,9.81836444 L20.540148,7.84416248 L20.540148,6.87022284 L19.5782127,5.8962832 L18.5879852,5.8962832 L18.1070175,6.37009167 L18.1070175,6.87022284 L18.5879852,6.87022284 L19.0972451,6.37009167 L20.0591804,7.370354 L18.1070175,9.31823328 L16.1831469,7.370354 L18.1070175,5.39615204 L18.1070175,4.89602087 L17.6260499,4.89602087 L15.7021793,6.87022284 L13.7500164,4.89602087 L13.2690488,4.89602087 L13.2690488,5.39615204 L15.1929194,7.370354 L13.2690488,9.31823328 L11.316886,7.370354 L12.3071135,6.37009167 L12.7880811,6.87022284 L13.2690488,6.87022284 L13.2690488,6.37009167 L12.7880811,5.8962832 L11.7978536,5.8962832 L10.8359183,6.87022284 L10.8359183,7.84416248 L12.7880811,9.81836444 L10.8359183,11.7662437 L10.8359183,12.766506 L11.7978536,13.7404457 L12.7880811,13.7404457 L13.2690488,13.2403145 L13.2690488,12.766506 L12.7314967,12.766506 L12.2505291,13.2403145 L11.2603015,12.2663749 L13.2124644,10.3184956 L15.136335,12.2663749 L13.2124644,14.2405768 L13.2124644,14.7143853 L13.693432,14.7143853 L15.6455948,12.766506 L17.5694655,14.7143853 L18.0504331,14.7143853 L18.0504331,14.2405768 L16.1265625,12.2663749 L18.0504331,10.3184956 L18.1070175,10.3184956 Z M15.6738871,7.84416248 L13.7217242,9.81836444 L15.6738871,11.7662437 L17.5977577,9.81836444 L15.6738871,7.84416248 Z M12.7597889,15.2145165 L12.7597889,19.1629204 L13.2407566,18.6364666 L13.7217242,19.1629204 L14.2026919,18.6364666 L14.6836595,19.1629204 L15.1929194,18.6364666 L15.6738871,19.1629204 L16.1548547,18.6364666 L16.6358224,19.1629204 L17.11679,18.6364666 L17.5977577,19.1629204 L18.0787253,18.6364666 L18.5879852,19.1629204 L18.5879852,15.2145165 L12.7314967,15.2145165 L12.7597889,15.2145165 Z M18.5879852,4.4222124 L18.5879852,0.473808472 L18.0787253,1.00026233 L17.5977577,0.473808472 L17.11679,1.00026233 L16.6358224,0.473808472 L16.1548547,1.00026233 L15.6738871,0.473808472 L15.1646272,1.00026233 L14.6836595,0.473808472 L14.2026919,1.00026233 L13.7217242,0.473808472 L13.2407566,1.00026233 L12.7597889,0.473808472 L12.7597889,4.4222124 L18.5879852,4.4222124 Z M26.7927275,8.8444248 L26.7927275,4.89602087 L26.3400521,5.42247473 L25.8590844,4.89602087 L25.3781168,5.42247473 L24.8688569,4.89602087 L24.3878893,5.42247473 L23.9069216,4.89602087 L23.4259539,5.42247473 L22.9449863,4.89602087 L22.9449863,8.8444248 L26.8210197,8.8444248 L26.7927275,8.8444248 Z M8.40278783,8.8444248 L8.40278783,4.89602087 L7.89352796,5.42247473 L7.41256031,4.89602087 L6.93159265,5.42247473 L6.450625,4.89602087 L5.96965735,5.42247473 L5.48868969,4.89602087 L4.97942982,5.42247473 L4.49846217,4.89602087 L4.49846217,8.8444248 L8.37449561,8.8444248 L8.40278783,8.8444248 Z M26.8210197,10.7923041 L26.8210197,14.740708 L26.3400521,14.2142542 L25.8590844,14.740708 L25.3781168,14.2142542 L24.8688569,14.740708 L24.3878893,14.2142542 L23.9069216,14.740708 L23.4259539,14.2142542 L22.9449863,14.740708 L22.9449863,10.7923041 L26.8210197,10.7923041 Z M8.37449561,10.7923041 L8.37449561,14.740708 L7.89352796,14.2142542 L7.41256031,14.740708 L6.93159265,14.2142542 L6.450625,14.740708 L5.96965735,14.2142542 L5.48868969,14.740708 L4.97942982,14.2142542 L4.49846217,14.740708 L4.49846217,10.7923041 L8.37449561,10.7923041 Z" id="Shape" fill="#FAAE29" fill-rule="nonzero"></path>
                            <path d="M18.559693,15.2145165 L18.559693,17.6625269 L19.0689529,17.1623958 L19.5499205,17.6888496 L20.0308882,17.1623958 L20.5118558,17.6888496 L20.9928235,17.1623958 L21.4737911,17.6888496 L21.983051,17.1623958 L22.4640186,17.6888496 L22.9449863,17.1623958 L22.9449863,10.7923041 L18.559693,15.2145165 Z M12.7597889,15.2145165 L12.7597889,17.6625269 L12.2505291,17.1623958 L11.7695614,17.6888496 L11.2885937,17.1623958 L10.8076261,17.6888496 L10.3266584,17.1623958 L9.84569079,17.6888496 L9.36472314,17.1623958 L8.88375548,17.6888496 L8.37449561,17.1623958 L8.37449561,10.7923041 L12.7597889,15.2145165 Z M12.7597889,4.4222124 L12.7597889,1.97420197 L12.2505291,2.44801044 L11.7695614,1.97420197 L11.2885937,2.44801044 L10.8076261,1.97420197 L10.3266584,2.44801044 L9.84569079,1.97420197 L9.36472314,2.44801044 L8.88375548,1.97420197 L8.37449561,2.44801044 L8.37449561,8.8444248 L12.7597889,4.4222124 Z M18.559693,4.4222124 L18.559693,1.97420197 L19.0689529,2.44801044 L19.5499205,1.97420197 L20.0308882,2.44801044 L20.5118558,1.97420197 L20.9928235,2.44801044 L21.4737911,1.97420197 L21.9547588,2.44801044 L22.4640186,1.97420197 L22.9449863,2.44801044 L22.9449863,8.8444248 L18.559693,4.4222124 Z M4.49846217,13.7404457 L4.01749452,13.2403145 L3.53652686,13.7667684 L3.05555921,13.2403145 L2.57459156,13.7667684 L2.0936239,13.2403145 L1.58436404,13.7667684 L1.10339638,13.2403145 L0.622428728,13.7667684 L0.622428728,5.86996051 L1.10339638,6.39641437 L1.58436404,5.86996051 L2.0936239,6.39641437 L2.57459156,5.86996051 L3.05555921,6.39641437 L3.53652686,5.86996051 L4.01749452,6.39641437 L4.49846217,5.86996051 L4.49846217,8.8444248 L2.57459156,8.8444248 L1.58436404,9.81836444 L2.57459156,10.7923041 L4.49846217,10.7923041 L4.49846217,13.7404457 Z M26.8210197,13.7404457 L27.3019874,13.2403145 L27.782955,13.7667684 L28.2639227,13.2403145 L28.7731826,13.7667684 L29.2541502,13.2403145 L29.7351179,13.7667684 L30.2160855,13.2403145 L30.6970532,13.7667684 L30.6970532,5.86996051 L30.2160855,6.39641437 L29.7351179,5.86996051 L29.2541502,6.39641437 L28.7731826,5.86996051 L28.2639227,6.39641437 L27.782955,5.86996051 L27.3019874,6.39641437 L26.8210197,5.86996051 L26.8210197,8.8444248 L28.7731826,8.8444248 L29.7351179,9.81836444 L28.7731826,10.7923041 L26.8210197,10.7923041 L26.8210197,13.7404457 Z" id="Shape" fill="#28AE66" fill-rule="nonzero"></path>
                            <path d="M10.3549507,15.5303888 C10.3549507,15.5303888 9.95885965,15.8989065 9.95885965,16.109488 C9.95885965,16.2937469 10.3832429,16.6885873 10.5812884,16.6885873 C10.8076261,16.6885873 11.1754249,16.2937469 11.1754249,16.109488 C11.1754249,15.9252292 10.7793339,15.5303888 10.7793339,15.5303888 L10.7793339,14.740708 C10.7793339,14.740708 11.6281003,16.0831653 11.6281003,15.5040661 C11.6281003,15.082903 10.7793339,14.3721903 10.7793339,14.3721903 L10.3549507,14.3721903 C10.3549507,14.3721903 9.50618421,15.2145165 9.50618421,15.5040661 C9.50618421,16.0831653 10.3549507,14.740708 10.3549507,14.740708 L10.3549507,15.5303888 Z" id="Path" fill="#FFFFFF"></path>
                            <path d="M15.4192571,17.0307823 C15.4192571,17.0307823 14.9382895,17.5572361 14.9382895,17.8204631 C14.9382895,18.08369 15.4475493,18.6627892 15.6738871,18.6627892 C15.9568092,18.6627892 16.3811924,18.1100127 16.3811924,17.8467858 C16.3811924,17.5835588 15.9002248,17.0307823 15.9002248,17.0307823 L15.9002248,15.9252292 C15.9002248,15.9252292 16.7489912,17.7151723 16.7489912,16.8991688 C16.7489912,16.372715 15.9002248,15.3987753 15.9002248,15.3987753 L15.4192571,15.3987753 C15.4192571,15.3987753 14.4290296,16.6096192 14.5704907,16.8991688 C14.5704907,17.7151723 15.4192571,15.9252292 15.4192571,15.9252292 L15.4192571,17.0307823 Z" id="Path" fill="#CA3745"></path>
                            <ellipse id="Oval" fill="#28AE66" cx="10.3182234" cy="9.79017284" rx="1" ry="1"></ellipse>
                            <ellipse id="Oval" fill="#28AE66" cx="15.665452" cy="9.79017284" rx="1" ry="1"></ellipse>
                            <ellipse id="Oval" fill="#28AE66" cx="20.9843884" cy="9.79017284" rx="1" ry="1"></ellipse>
                            <path d="M10.270074,4.15898547 C10.270074,4.15898547 9.873983,3.76414508 9.873983,3.57988623 C9.873983,3.39562738 10.2983662,2.97446429 10.4681195,2.97446429 C10.6944572,2.97446429 11.062256,3.36930469 11.062256,3.55356354 C11.062256,3.76414508 10.666165,4.15898547 10.666165,4.15898547 L10.666165,4.94866626 C10.666165,4.94866626 11.5432237,3.57988623 11.5432237,4.15898547 C11.5432237,4.58014856 10.6944572,5.31718396 10.6944572,5.31718396 L10.270074,5.31718396 C10.270074,5.31718396 9.39301535,4.47485779 9.39301535,4.18530817 C9.39301535,3.60620892 10.2417818,4.92234357 10.2417818,4.92234357 L10.2417818,4.13266278 L10.270074,4.15898547 Z" id="Path" fill="#FFFFFF"></path>
                            <path d="M15.3060883,2.63226929 C15.3060883,2.63226929 14.8251206,2.10581543 14.8251206,1.8425885 C14.8251206,1.57936157 15.3626727,1.02658502 15.5607182,1.02658502 C15.8436404,1.02658502 16.2963158,1.55303888 16.2963158,1.81626581 C16.2963158,2.07949274 15.8153481,2.65859198 15.8153481,2.65859198 L15.8153481,3.71149969 C15.8153481,3.71149969 16.6641146,1.94787927 16.6641146,2.76388275 C16.6641146,3.29033661 15.8153481,4.29059894 15.8153481,4.29059894 L15.2777961,4.29059894 C15.2777961,4.29059894 14.2875685,3.05343237 14.4290296,2.76388275 C14.4290296,1.97420197 15.2777961,3.73782239 15.2777961,3.73782239 L15.2777961,2.63226929 L15.3060883,2.63226929 Z" id="Path" fill="#CA3745"></path>
                            <path d="M20.6816091,15.5303888 C20.6816091,15.5303888 20.2855181,15.8989065 20.2855181,16.109488 C20.2855181,16.2937469 20.7099013,16.6885873 20.9079468,16.6885873 C21.1342845,16.6885873 21.5020833,16.2937469 21.5020833,16.109488 C21.5020833,15.9252292 21.1059923,15.5303888 21.1059923,15.5303888 L21.1059923,14.740708 C21.1059923,14.740708 21.9547588,16.0831653 21.9547588,15.5040661 C21.9547588,15.082903 21.1059923,14.3721903 21.1059923,14.3721903 L20.6533169,14.3721903 C20.6533169,14.3721903 19.8045504,15.2145165 19.8045504,15.5040661 C19.8045504,16.0831653 20.6533169,14.740708 20.6533169,14.740708 L20.6533169,15.5303888 L20.6816091,15.5303888 Z M20.5967325,4.15898547 C20.5967325,4.15898547 20.2006414,3.76414508 20.2006414,3.55356354 C20.2006414,3.39562738 20.6250247,2.97446429 20.794778,2.97446429 C21.0211157,2.97446429 21.3889145,3.36930469 21.3889145,3.55356354 C21.3889145,3.76414508 20.9928235,4.15898547 20.9928235,4.15898547 L20.9928235,4.94866626 C20.9928235,4.94866626 21.8698821,3.57988623 21.8698821,4.15898547 C21.8698821,4.58014856 21.0211157,5.31718396 21.0211157,5.31718396 L20.5967325,5.31718396 C20.5967325,5.31718396 19.7196738,4.47485779 19.7196738,4.18530817 C19.7196738,3.60620892 20.5684402,4.92234357 20.5684402,4.92234357 L20.5684402,4.13266278 L20.5967325,4.15898547 Z" id="Shape" fill="#FFFFFF" fill-rule="nonzero"></path>
                            <path d="M6.13941064,12.7928287 C6.13941064,12.7928287 5.60185855,13.1613464 5.60185855,13.3192826 C5.60185855,13.5035414 6.16770285,13.8983818 6.42233279,13.8720591 C6.70525493,13.8720591 7.2145148,13.5298641 7.2145148,13.3456053 C7.2145148,13.1613464 6.67696272,12.7928287 6.67696272,12.7928287 L6.67696272,12.0557933 C6.67696272,12.0557933 7.63889803,13.2403145 7.63889803,12.7138607 C7.63889803,12.345343 6.67696272,11.6872756 6.67696272,11.6872756 L6.13941064,11.6872756 C6.13941064,11.6872756 5.03601425,12.5296018 5.20576754,12.7138607 C5.20576754,13.2403145 6.13941064,12.0557933 6.13941064,12.0557933 L6.13941064,12.7928287 Z M6.02624178,7.23874054 C6.02624178,7.23874054 5.48868969,6.87022284 5.48868969,6.68596399 C5.48868969,6.50170514 6.05453399,6.13318744 6.30916393,6.15951013 C6.59208607,6.15951013 7.10134594,6.50170514 7.10134594,6.68596399 C7.10134594,6.87022284 6.56379386,7.21241785 6.56379386,7.21241785 L6.56379386,7.94945325 C6.56379386,7.94945325 7.52572917,6.76493207 7.52572917,7.31770862 C7.52572917,7.65990363 6.56379386,8.31797095 6.56379386,8.31797095 L6.02624178,8.31797095 C6.02624178,8.31797095 4.92284539,7.50196747 5.09259868,7.31770862 C5.09259868,6.79125476 6.02624178,7.94945325 6.02624178,7.94945325 L6.02624178,7.23874054 Z M24.7839803,12.6612153 C24.7839803,12.6612153 24.218136,13.029733 24.218136,13.2139918 C24.218136,13.3982507 24.8122725,13.7667684 25.0669024,13.7667684 C25.3498246,13.7667684 25.8590844,13.3982507 25.8590844,13.2403145 C25.8590844,13.029733 25.2932401,12.6612153 25.2932401,12.6612153 L25.2932401,11.9505026 C25.2932401,11.9505026 26.2551754,13.1350237 26.2551754,12.5822472 C26.2551754,12.2400522 25.3215323,11.5819849 25.3215323,11.5819849 L24.755688,11.5819849 C24.755688,11.5819849 23.6805839,12.3979883 23.822045,12.5822472 C23.822045,13.1350237 24.7839803,11.9505026 24.7839803,11.9505026 L24.7839803,12.687538 L24.7839803,12.6612153 Z M24.6708114,7.13344977 C24.6708114,7.13344977 24.1049671,6.76493207 24.1049671,6.58067322 C24.1049671,6.39641437 24.6991036,6.02789667 24.9537336,6.02789667 C25.2366557,6.02789667 25.7459156,6.39641437 25.7459156,6.55435052 C25.7459156,6.76493207 25.1800713,7.10712708 25.1800713,7.10712708 L25.1800713,7.84416248 C25.1800713,7.84416248 26.1420066,6.6596413 26.1420066,7.18609515 C26.1420066,7.55461285 25.2083635,8.21268018 25.2083635,8.21268018 L24.6425192,8.21268018 C24.6425192,8.21268018 23.567415,7.3966767 23.7088761,7.21241785 C23.7088761,6.6596413 24.6708114,7.84416248 24.6708114,7.84416248 L24.6708114,7.10712708 L24.6708114,7.13344977 Z" id="Shape" fill="#CA3745" fill-rule="nonzero"></path>
                            <path d="M2.17850055,12.7401833 C2.00874726,12.3979883 2.06533169,12.2400522 2.06533169,12.0557933 C2.06533169,11.8715345 2.54629934,11.5293395 2.71605263,11.5293395 C2.94239035,11.5293395 3.31018914,11.8978572 3.31018914,12.1084387 C3.31018914,12.2926976 3.31018914,12.4506337 3.2253125,12.7928287 L2.99897478,12.2400522 C2.68776042,13.029733 2.6594682,13.029733 2.48971491,12.2137295 L2.20679276,12.7401833 L2.17850055,12.7401833 Z M2.17850055,7.08080438 C2.03703947,7.42299939 2.06533169,7.58093555 2.06533169,7.7651944 C2.06533169,7.94945325 2.54629934,8.29164825 2.74434485,8.29164825 C2.97068257,8.29164825 3.33848136,7.92313055 3.33848136,7.71254901 C3.33848136,7.52829016 3.33848136,7.370354 3.25360471,7.028159 L2.99897478,7.58093555 C2.71605263,6.79125476 2.68776042,6.79125476 2.48971491,7.60725824 L2.20679276,7.08080438 L2.17850055,7.08080438 Z M28.3487993,12.6612153 C28.1790461,12.3190203 28.2073383,12.1610841 28.2073383,11.9768253 C28.2073383,11.7925664 28.7165981,11.4503714 28.8863514,11.4503714 C29.1126891,11.4503714 29.4804879,11.8452118 29.4804879,12.0294706 C29.4804879,12.2137295 29.4804879,12.3979883 29.3956113,12.7138607 L29.1409814,12.1610841 C28.8580592,12.9507649 28.829767,12.9770876 28.6317215,12.1610841 L28.3487993,12.6612153 Z M28.3487993,7.028159 C28.1790461,7.34403131 28.2356305,7.50196747 28.2356305,7.71254901 C28.2356305,7.87048517 28.7165981,8.23900287 28.8863514,8.23900287 C29.1126891,8.23900287 29.5087802,7.84416248 29.5087802,7.65990363 C29.5087802,7.44932208 29.5087802,7.29138593 29.4239035,6.94919092 L29.1409814,7.52829016 C28.8580592,6.71228668 28.8580592,6.68596399 28.6600137,7.52829016 L28.3770916,7.0018363 L28.3487993,7.028159 Z" id="Shape" fill="#FFFFFF" fill-rule="nonzero"></path>
                        </g>
                    </g>
                </g>
                <polygon id="Path" fill="#28AE66" mask="url(#mask-2)" points="15.8640351 64.9841309 16.8234649 63.5284424 15.8640351 62.0727539 16.7960526 60.6170654 15.8640351 59.161377 16.3300439 59.161377 16.7960526 60.1226807 17.2620614 59.6282959 17.7280702 59.6282959 17.7280702 60.1226807 17.2620614 60.6170654 17.7280702 61.1114502 17.7280702 61.5783691 17.2620614 61.5783691 16.7960526 61.1114502 16.3300439 62.0727539 16.7960526 63.0340576 17.2620614 62.5671387 17.7280702 62.5671387 17.7280702 63.0340576 17.2620614 63.5284424 17.7280702 64.0228271 17.7280702 64.5172119 17.2620614 64.5172119 16.7960526 64.0228271 16.3300439 64.9841309 16.7960526 65.9729004 17.2620614 65.4785156 17.7280702 65.4785156 17.7280702 65.9729004 17.2620614 66.4398193 17.7280702 66.9342041 17.7280702 67.4285889 17.2620614 67.4285889 16.7960526 66.9342041 16.3300439 67.9229736 15.8640351 67.9229736 16.7960526 66.4398193"></polygon>
                <path d="M27.0756579,70.2575684 L28.3092105,69.6533203 L29.5701754,70.2575684 L27.0756579,70.2575684 Z M23.3475877,70.2575684 L24.5811404,69.6533203 L25.8421053,70.2575684 L23.3475877,70.2575684 Z M19.6195175,70.2575684 L20.8530702,69.6533203 L22.1140351,70.2575684 L19.6195175,70.2575684 Z M27.0756579,56.7993164 L28.3092105,57.4035645 L29.5701754,56.8267822 L27.0756579,56.8267822 L27.0756579,56.7993164 Z M23.3475877,56.7993164 L24.5811404,57.4035645 L25.8421053,56.8267822 L23.3475877,56.8267822 L23.3475877,56.7993164 Z M19.6195175,56.7993164 L20.8530702,57.4035645 L22.1140351,56.8267822 L19.6195175,56.8267822 L19.6195175,56.7993164 Z" id="Shape" fill="#FFFFFF" fill-rule="nonzero" mask="url(#mask-2)"></path>
                <path d="M26.4451754,70.8343506 L24.5811404,69.6533203 L22.7171053,70.8343506 L20.8530702,69.6533203 L18.9890351,70.8343506 L18.9890351,70.2575684 L20.2225877,69.6533203 L19.6195175,69.0765381 L19.6195175,68.4997559 L20.2225877,68.4997559 L20.8530702,69.0765381 L21.4835526,68.4997559 L22.1140351,68.4997559 L22.1140351,69.0765381 L21.4835526,69.6533203 L22.7171053,70.2575684 L23.9780702,69.6533203 L23.3475877,69.0765381 L23.3475877,68.4997559 L23.9780702,68.4997559 L24.5811404,69.0765381 L25.2116228,68.4997559 L25.8421053,68.4997559 L25.8421053,69.0765381 L25.2116228,69.6533203 L26.4451754,70.2575684 L27.7061404,69.6533203 L27.0756579,69.0765381 L27.0756579,68.4997559 L27.7061404,68.4997559 L28.3092105,69.0765381 L28.939693,68.4997559 L29.5701754,68.4997559 L29.5701754,69.0765381 L28.939693,69.6533203 L30.1732456,70.2575684 L30.1732456,70.8068848 L28.3092105,69.6533203 L26.4451754,70.8343506 Z M26.4451754,56.25 L24.5811404,57.4035645 L22.7171053,56.25 L20.8530702,57.4035645 L18.9890351,56.25 L18.9890351,56.7993164 L20.2225877,57.4035645 L19.6195175,57.9803467 L19.6195175,58.5845947 L20.2225877,58.5845947 L20.8530702,57.9803467 L21.4835526,58.5845947 L22.1140351,58.5845947 L22.1140351,57.9528809 L21.4835526,57.4035645 L22.7171053,56.7993164 L23.9780702,57.3760986 L23.3475877,57.9528809 L23.3475877,58.5571289 L23.9780702,58.5571289 L24.5811404,57.9528809 L25.2116228,58.5571289 L25.8421053,58.5571289 L25.8421053,57.9528809 L25.2116228,57.4035645 L26.4451754,56.7993164 L27.7061404,57.3760986 L27.0756579,57.9528809 L27.0756579,58.5571289 L27.7061404,58.5571289 L28.3092105,57.9528809 L28.939693,58.5571289 L29.5701754,58.5571289 L29.5701754,57.9528809 L28.939693,57.4035645 L30.1732456,56.7993164 L30.1732456,56.2225342 L28.3092105,57.3760986 L26.4451754,56.2225342 L26.4451754,56.25 Z M33.2982456,64.9841309 L32.3662281,63.5284424 L33.2982456,62.0727539 L32.3662281,60.6170654 L33.2982456,59.161377 L32.8322368,59.161377 L32.3662281,60.1226807 L31.9002193,59.6282959 L31.4342105,59.6282959 L31.4342105,60.1226807 L31.9002193,60.6170654 L31.4342105,61.1114502 L31.4342105,61.5783691 L31.9002193,61.5783691 L32.3662281,61.1114502 L32.8322368,62.0727539 L32.3662281,63.0340576 L31.9002193,62.5671387 L31.4342105,62.5671387 L31.4342105,63.0340576 L31.9002193,63.5284424 L31.4342105,64.0228271 L31.4342105,64.5172119 L31.9002193,64.5172119 L32.3662281,64.0228271 L32.8322368,64.9841309 L32.3662281,65.9729004 L31.9002193,65.4785156 L31.4342105,65.4785156 L31.4342105,65.9729004 L31.9002193,66.4398193 L31.4342105,66.9342041 L31.4342105,67.4285889 L31.9002193,67.4285889 L32.3662281,66.9342041 L32.8322368,67.9229736 L33.2982456,67.9229736 L32.3662281,66.4398193 L33.2982456,64.9841309 Z" id="Shape" fill="#28AE66" fill-rule="nonzero" mask="url(#mask-2)"></path>
                <path d="M22.689693,63.5284424 L20.8530702,63.5284424 L20.8530702,62.3748779 L22.0866228,62.3748779 L22.0866228,61.3037109 L23.2927632,61.3037109 L23.2927632,60.3149414 L24.5263158,60.3149414 L24.5263158,61.5509033 C23.5120614,61.5509033 22.689693,62.3748779 22.689693,63.5284424 Z" id="Path" fill="#FFFFFF" mask="url(#mask-2)"></path>
                <path d="M26.3629386,63.5284424 L28.1995614,63.5284424 L28.1995614,62.3748779 L26.9660088,62.3748779 L26.9660088,61.3037109 L25.7324561,61.3037109 L25.7324561,60.3149414 L24.5263158,60.3149414 L24.5263158,61.5509033 C25.5405702,61.5509033 26.3629386,62.3748779 26.3629386,63.5284424 Z" id="Path" fill="#FAAE29" mask="url(#mask-2)"></path>
                <path d="M28.1995614,63.5284424 L28.1995614,64.6820068 L26.9660088,64.6820068 L26.9660088,65.7531738 L25.7324561,65.7531738 L25.7324561,66.7419434 L24.5263158,66.7419434 L24.5263158,65.5059814 C25.5405702,65.5059814 26.3629386,64.6820068 26.3629386,63.5284424 L28.1995614,63.5284424 Z" id="Path" fill="#FFFFFF" mask="url(#mask-2)"></path>
                <path d="M22.689693,63.5284424 L20.8530702,63.5284424 L20.8530702,64.6820068 L22.0866228,64.6820068 L22.0866228,65.7531738 L23.2927632,65.7531738 L23.2927632,66.7419434 L24.5263158,66.7419434 L24.5263158,65.5059814 C23.5120614,65.5059814 22.689693,64.6820068 22.689693,63.5284424 Z" id="Path" fill="#FAAE29" mask="url(#mask-2)"></path>
                <path d="M26.3629386,63.5284424 L24.5263158,63.5284424 L24.5263158,61.5509033 C25.5405702,61.5509033 26.3629386,62.4572754 26.3629386,63.5284424 Z" id="Path" fill="#28AE66" mask="url(#mask-2)"></path>
                <path d="M26.3629386,63.5284424 L24.5263158,63.5284424 L24.5263158,65.5059814 C25.5405702,65.5059814 26.3629386,64.6270752 26.3629386,63.5284424 Z" id="Path" fill="#CA3745" mask="url(#mask-2)"></path>
                <path d="M22.689693,63.5284424 L24.5263158,63.5284424 L24.5263158,65.5059814 C23.5120614,65.5059814 22.689693,64.6270752 22.689693,63.5284424 Z" id="Path" fill="#28AE66" mask="url(#mask-2)"></path>
                <path d="M22.689693,63.5284424 L24.5263158,63.5284424 L24.5263158,61.5509033 C23.5120614,61.5509033 22.689693,62.4572754 22.689693,63.5284424 Z" id="Path" fill="#CA3745" mask="url(#mask-2)"></path>
            </g>
        </g>
    </g>
</svg>