<?xml version="1.0" encoding="UTF-8"?>
<svg width="200px" height="154px" viewBox="0 0 200 154" version="1.1" xmlns="http://www.w3.org/2000/svg" xmlns:xlink="http://www.w3.org/1999/xlink">
    <!-- Generator: Sketch 52.5 (67469) - http://www.bohemiancoding.com/sketch -->
    <title>zw</title>
    <desc>Created with Sketch.</desc>
    <defs>
        <rect id="path-1" x="0.329067642" y="0.0365630713" width="199.634369" height="153.601463"></rect>
    </defs>
    <g id="Flags" stroke="none" stroke-width="1" fill="none" fill-rule="evenodd">
        <g id="Africa" transform="translate(-1060.000000, -1850.000000)">
            <g id="zw" transform="translate(1060.000000, 1850.000000)">
                <mask id="mask-2" fill="white">
                    <use xlink:href="#path-1"></use>
                </mask>
                <g id="Rectangle"></g>
                <g id="Group" mask="url(#mask-2)">
                    <g transform="translate(-1.206581, -0.036563)">
                        <polygon id="Path" stroke="none" fill="#006400" fill-rule="evenodd" points="0.206581353 0.0365630713 329.206581 0.0365630713 329.206581 153.036563 0.206581353 153.036563"></polygon>
                        <polygon id="Path" stroke="none" fill="#FFD200" fill-rule="evenodd" points="0.206581353 22.0365631 329.206581 22.0365631 329.206581 132.036563 0.206581353 132.036563"></polygon>
                        <polygon id="Path" stroke="none" fill="#D40000" fill-rule="evenodd" points="0.206581353 44.0365631 329.206581 44.0365631 329.206581 110.036563 0.206581353 110.036563"></polygon>
                        <polygon id="Path" stroke="none" fill="#000000" fill-rule="evenodd" points="0.206581353 66.0365631 329.206581 66.0365631 329.206581 88.0365631 0.206581353 88.0365631"></polygon>
                        <polygon id="Path" stroke="#000000" stroke-width="23.1498924" fill="#000000" fill-rule="evenodd" points="0.206581353 0.0365630713 0.206581353 153.036563 110.206581 76.5365631"></polygon>
                        <polygon id="Path" stroke="none" fill="#FFFFFF" fill-rule="evenodd" points="0.206581353 0.0365630713 0.206581353 153.036563 110.206581 76.5365631"></polygon>
                        <polygon id="Path" stroke="none" fill="#D40000" fill-rule="evenodd" points="42.1870827 38.0365631 63.8305368 100.036563 7.20658135 61.7178753 77.2065814 61.7178753 20.5436287 100.036563"></polygon>
                        <polygon id="Path" stroke="none" fill="#FFCC00" fill-rule="evenodd" points="32.4188161 92.8167239 36.2115751 92.1572065 43.2165689 91.9007275 45.8095776 92.1205666 51.6148211 93.0365631 52.0405389 92.4869652 52.0405389 88.5298607 52.7371681 85.122354 53.8982168 81.6782074 55.1753704 78.9302181 56.8008385 76.0723093 59.4325489 76.6951868 60.1291781 76.6951868 60.2065814 76.2188687 54.6335476 71.7121663 48.8283042 67.4985827 40.430052 61.5629259 39.6560196 61.3797266 38.7658822 55.1509509 38.1079546 53.2823182 37.2178173 52.5495211 35.5536475 52.0365631 33.6959696 52.1098428 32.8445339 52.5495211 31.0642593 52.9159196 30.1354203 53.0624791 29.5161943 53.7586364 29.4387911 54.6379929 32.0317998 54.7112726 32.6897274 54.9677516 32.6123242 55.2242306 31.1416625 55.4074299 30.4450333 55.6272691 31.2577674 56.2135068 32.1092031 56.5066256 33.1928485 56.8730242 33.4250583 57.6058213 33.5024615 67.0589044 32.9219372 68.5244987 32.728429 71.272488 33.5798647 74.5700751 31.4125739 76.915026 30.1741219 79.0034978 29.9419122 80.2858928 29.2839846 81.5682878 29.2065814 82.3743647 29.6322992 83.2537212 31.296469 88.4565809 32.1479047 92.7434442"></polygon>
                        <path d="M34.6872035,52.0424015 C33.976863,52.0424015 33.6611561,52.1152463 32.990279,52.4430482 C32.434379,52.7367608 31.8138981,52.9110512 31.1749645,52.9529621 C30.1883805,52.9529621 29.3991133,53.6085657 29.3991133,54.4462815 L29.3991133,54.9926178 L30.8197942,54.9561954 C35.0029104,55.0654627 31.2144278,55.4296869 30.8987209,55.4661093 C29.8726736,55.6482214 31.1355011,56.4130923 32.3588653,56.813739 C33.6611561,57.1779632 33.5822294,56.9594287 33.5822294,62.2771026 C33.5822294,66.611371 33.5822294,67.2305522 33.1875958,68.2139576 C32.6745721,69.6708546 32.6745721,71.8562 33.1875958,73.3130969 C33.424376,73.8958557 33.5822294,74.4057696 33.5822294,74.5150369 C33.5822294,74.5878818 32.9508157,75.2799078 32.2010118,76.0812011 C30.8197942,77.5380981 29.9910637,79.0314174 29.9910637,80.0876677 C29.9418357,80.4275314 29.8066479,80.7519349 29.5964301,81.0346507 C29.0834064,81.6538319 29.0834064,82.7100822 29.5569667,83.1107289 C30.0699904,83.547798 32.1615485,91.0508173 32.2010118,92.4712918 C32.2010118,92.9812057 32.2799385,92.9812057 35.4764707,92.3984469 C38.0810524,91.9249554 44.1978732,91.8156882 47.3154787,92.1799124 C48.7361596,92.3620245 50.3936207,92.6534039 50.9855711,92.7626712 C52.8798124,93.2361627 52.8008857,93.3090075 52.8008857,91.196507 C52.8153912,87.8680212 53.4977788,84.5708081 54.813517,81.4717198 C55.5676057,79.7057505 56.4783554,78.0002463 57.5364889,76.3725805 C57.5364889,76.3725805 58.2468294,76.4454254 59.1150233,76.6639599 C60.733021,77.0281841 61.2065814,76.9917617 61.2065814,76.2997357 C61.2065814,75.9355114 59.5096569,74.6243042 51.1828879,68.6510267 C47.8244401,66.1140146 44.3622989,63.696234 40.8040243,61.4029644 C40.5672441,61.4029644 40.330464,61.2936971 40.2910006,61.1480074 L39.6990502,57.6878772 C39.4228067,55.9031784 39.0281731,54.1549021 38.8703196,53.7906778 C38.3178326,52.6980051 37.2523219,52.1516688 35.4764707,52.0424015 C35.2134492,52.0346169 34.950225,52.0346169 34.6872035,52.0424015 Z M34.7266668,52.4066257 L35.515934,52.4066257 C38.1205158,52.5523154 38.5940761,53.2079191 39.3044166,57.505765 C39.4961127,58.642796 39.6540254,59.7844601 39.7779769,60.9294729 C39.7779769,61.2208523 39.4228067,61.5850765 38.5151494,62.1314129 C37.0217586,63.0985673 35.6918732,64.2646051 34.5688134,65.5915431 L34.0557897,66.2471467 L33.9373997,64.7174049 L33.9373997,60.4195589 C34.0557897,57.2508081 33.9373997,56.9594287 32.8324256,56.5952045 C31.9247683,56.3038251 30.7408675,56.0124457 31.0565744,55.8303336 C31.451208,55.611799 31.8458416,55.7574887 32.7929622,55.5025317 C33.1875958,55.4296869 33.1481325,55.4661093 33.0692057,55.1747299 C32.990279,54.7012384 32.437792,54.4462815 30.9776477,54.5191263 C29.7937469,54.5919712 29.6753568,54.5555487 29.7542835,54.2641693 C29.9121369,53.6814106 30.5435507,53.3171863 31.5301347,53.2079191 C32.1341199,53.1433939 32.7215241,52.9832161 33.2665225,52.7344275 C33.7070449,52.4900095 34.2127164,52.3638728 34.7266668,52.3702033 L34.7266668,52.4066257 Z M40.6067075,61.803611 L40.7645609,61.803611 C41.435438,61.9128783 60.8119478,75.899089 60.8119478,76.2997357 C60.8119478,76.4454254 60.6540943,76.5546926 60.4173142,76.5546926 C60.2594607,76.5546926 55.3265407,75.2799078 49.4859635,73.7137436 C40.1726105,71.1641739 38.8308563,70.7999497 38.4362227,70.3264582 C37.8718388,69.6683918 37.8556633,68.7427907 38.3967593,68.0682679 C38.5861999,67.8560611 38.721118,67.6070178 38.7913929,67.3398194 C38.7913929,66.9027504 37.8048089,67.9954231 37.6074921,68.6146043 C37.4101753,69.3430527 37.8048089,70.5814152 38.3967593,70.9820618 C38.6335395,71.1641739 40.4093907,71.7105103 42.3430953,72.2568466 C45.6580175,73.1309848 45.8947977,73.2402521 46.0526511,73.750166 C46.4472847,74.952106 45.0660671,76.3725805 43.0928992,76.7732272 C42.3530474,76.9367107 41.6555996,77.2338051 41.0408044,77.6473653 C38.9933591,79.2124859 36.7059573,80.4889898 34.2531065,81.4352974 C34.0952531,81.5445647 33.8979363,82.1273235 33.7795462,82.6736598 C33.5427661,83.8755998 33.4638393,84.0577119 33.0692057,84.0577119 C32.8718889,84.0577119 32.8324256,83.9484446 32.990279,83.547798 C33.2665225,82.8193495 33.2270592,81.9452113 32.9508157,81.9452113 C32.7534989,81.9452113 32.6745721,82.2001683 32.6745721,82.600815 C32.6745721,82.9650392 32.5561821,83.4021083 32.3983286,83.5113756 C32.2010118,83.7299101 32.1615485,83.5842204 32.2404752,82.6736598 C32.3194019,82.0544786 32.2799385,81.5809871 32.2010118,81.5809871 C32.003695,81.5809871 31.6485248,82.4915477 31.5301347,83.292841 C31.451208,83.7663325 31.451208,83.7663325 31.2933545,83.1835737 C31.1749645,82.7465047 31.2144278,82.4551253 31.5695981,81.9087889 C31.7938471,81.5131042 31.9281378,81.0793049 31.9642317,80.6340041 C31.9642317,80.1605126 32.3588653,79.6870211 34.2136432,77.9751672 C35.397544,76.846072 36.8576883,75.4255975 37.370712,74.8064163 C38.2783692,73.7865884 38.3178326,73.7137436 38.2783692,72.6574933 C38.2783692,72.0747345 38.1994425,71.5283982 38.1205158,71.4555533 C37.8837356,71.2370188 37.5680288,72.4025363 37.7258822,73.0217175 C37.8048089,73.6044763 37.7258822,73.7865884 36.4235913,75.207063 C35.4866395,76.1970498 34.4989273,77.1451157 33.4638393,78.048012 C31.9247683,79.3592193 31.3722813,80.0876677 31.3722813,80.7432714 C31.3722813,80.9618059 31.2144278,81.4717198 30.9776477,81.9452113 C30.7408675,82.4187028 30.6619408,82.8921944 30.7408675,83.0014616 C30.8197942,83.1107289 30.7408675,83.1107289 30.6224774,83.0014616 C30.4251606,82.8193495 30.4251606,82.5279701 30.5830141,81.9087889 C30.6733579,81.600477 30.7001313,81.2792432 30.6619408,80.9618059 C30.464624,80.5975817 30.1883805,81.0346507 30.0699904,81.9452113 C29.9910637,82.4551253 29.8726736,82.8557719 29.7542835,82.7829271 C29.47804,82.6372374 29.5569667,81.6902544 29.9121369,81.1803404 C30.1094537,80.9253835 30.3067705,80.3426247 30.4251606,79.8691332 C30.7014041,78.5215035 31.3328179,77.4288308 32.7140355,75.9719339 C33.1563854,75.5275895 33.5777211,75.065808 33.976863,74.5878818 L33.5822294,73.3859418 C33.0529531,71.7618902 33.0256175,70.0336887 33.5033027,68.3960697 C34.0163264,67.0120176 35.0423737,65.6279655 36.6603715,64.1346462 C38.2389059,62.7141716 39.7779769,61.8400335 40.6067075,61.803611 Z M46.5262115,73.5316315 C46.6270358,73.5246943 46.7278688,73.5446179 46.803278,73.5863769 C46.8786872,73.628136 46.9214735,73.6877438 46.9208451,73.750166 C46.8711633,73.8380066 46.7365659,73.8968746 46.5854065,73.8968746 C46.4342471,73.8968746 46.2996497,73.8380066 46.2499679,73.750166 C46.2457515,73.6461456 46.3613176,73.554722 46.5262115,73.5316315 Z M47.5127955,73.6408987 C47.6136198,73.6339616 47.7144528,73.6538852 47.789862,73.6956442 C47.8652712,73.7374032 47.9080575,73.7970111 47.9074291,73.8594333 C47.8577473,73.9472738 47.7231499,74.0061418 47.5719905,74.0061418 C47.4208311,74.0061418 47.2862337,73.9472738 47.2365519,73.8594333 C47.2323355,73.7554129 47.3479016,73.6639892 47.5127955,73.6408987 Z M48.5388428,73.8230109 C48.6396671,73.8160737 48.7405002,73.8359973 48.8159094,73.8777563 C48.8913186,73.9195153 48.9341048,73.9791232 48.9334764,74.0415454 C48.8837947,74.129386 48.7491972,74.188254 48.5980379,74.188254 C48.4468785,74.188254 48.312281,74.129386 48.2625993,74.0415454 C48.2583828,73.937525 48.373949,73.8461013 48.5388428,73.8230109 Z M49.4859635,74.005123 C49.5867877,73.9981858 49.6876208,74.0181094 49.76303,74.0598684 C49.8384392,74.1016275 49.8812255,74.1612354 49.8805971,74.2236575 C49.8309153,74.3114981 49.6963179,74.3703661 49.5451585,74.3703661 C49.3939991,74.3703661 49.2594017,74.3114981 49.2097199,74.2236575 C49.2055035,74.1196371 49.3210696,74.0282135 49.4859635,74.005123 Z M46.9997718,74.2236575 C47.1005961,74.2167204 47.2014291,74.236644 47.2768383,74.278403 C47.3522475,74.320162 47.3950338,74.3797699 47.3944054,74.4421921 C47.3447237,74.5300326 47.2101262,74.5889006 47.0589668,74.5889006 C46.9078074,74.5889006 46.77321,74.5300326 46.7235283,74.4421921 C46.7193118,74.3381717 46.834878,74.246748 46.9997718,74.2236575 Z M47.9468924,74.3693472 C48.0477167,74.3624101 48.1485498,74.3823336 48.223959,74.4240927 C48.2993682,74.4658517 48.3421544,74.5254596 48.341526,74.5878818 C48.2918443,74.6757223 48.1572468,74.7345903 48.0060875,74.7345903 C47.8549281,74.7345903 47.7203306,74.6757223 47.6706489,74.5878818 C47.6664324,74.4838614 47.7819986,74.3924377 47.9468924,74.3693472 Z M49.9989871,74.4421921 C50.0998114,74.4352549 50.2006445,74.4551785 50.2760537,74.4969375 C50.3514629,74.5386965 50.3942491,74.5983044 50.3936207,74.6607266 C50.343939,74.7485672 50.2093416,74.8074352 50.0581822,74.8074352 C49.9070228,74.8074352 49.7724253,74.7485672 49.7227436,74.6607266 C49.7185272,74.5567062 49.8340933,74.4652825 49.9989871,74.4421921 Z M48.9334764,74.4421921 C49.0343007,74.4352549 49.1351338,74.4551785 49.210543,74.4969375 C49.2859522,74.5386965 49.3287384,74.5983044 49.32811,74.6607266 C49.2784283,74.7485672 49.1438308,74.8074352 48.9926715,74.8074352 C48.8415121,74.8074352 48.7069146,74.7485672 48.6572329,74.6607266 C48.6530164,74.5567062 48.7685826,74.4652825 48.9334764,74.4421921 Z M50.9066444,74.6607266 C50.9461078,74.6607266 52.3667887,74.952106 54.0637132,75.3891751 L57.1813186,76.2268908 L56.5893682,77.2102963 C56.2586349,77.7368095 55.9428208,78.2711863 55.6422476,78.8128829 C55.247614,79.5413314 55.1686873,79.5413314 53.274446,79.1406847 C51.2223513,78.7036156 47.9863558,78.302969 44.6714335,78.048012 L41.5143648,77.793055 L42.6982656,77.3924084 C43.4131074,77.1384431 44.1114567,76.8465775 44.7898236,76.5182702 C45.5790908,76.1176235 45.8947977,76.0447787 47.1181619,76.154046 C48.8940131,76.2633132 50.0779139,75.9355114 50.5514742,75.2799078 L50.9461078,74.6607266 L50.9066444,74.6607266 Z M47.4338687,74.8792611 C47.534693,74.872324 47.6355261,74.8922476 47.7109353,74.9340066 C47.7863445,74.9757656 47.8291308,75.0353735 47.8285023,75.0977957 C47.7788206,75.1856362 47.6442232,75.2445042 47.4930638,75.2445042 C47.3419044,75.2445042 47.2073069,75.1856362 47.1576252,75.0977957 C47.1534088,74.9937753 47.2689749,74.9023516 47.4338687,74.8792611 Z M49.6438169,74.8792611 C49.7446412,74.872324 49.8454742,74.8922476 49.9208834,74.9340066 C49.9962926,74.9757656 50.0390789,75.0353735 50.0384505,75.0977957 C49.9775364,75.1705179 49.8557082,75.2162146 49.7227436,75.2162146 C49.5897791,75.2162146 49.4679508,75.1705179 49.4070367,75.0977957 C49.4028203,74.9937753 49.5183864,74.9023516 49.6832803,74.8792611 L49.6438169,74.8792611 Z M46.4867481,74.8792611 C46.5875724,74.872324 46.6884054,74.8922476 46.7638146,74.9340066 C46.8392238,74.9757656 46.8820101,75.0353735 46.8813817,75.0977957 C46.8317,75.1856362 46.6971025,75.2445042 46.5459431,75.2445042 C46.3947838,75.2445042 46.2601863,75.1856362 46.2105046,75.0977957 C46.2318371,75.007581 46.3419457,74.9349925 46.4867481,74.9156836 L46.4867481,74.8792611 Z M48.5783062,74.952106 C48.7680832,74.9375346 48.9425369,75.01804 48.9729398,75.1342181 C48.9232581,75.2220587 48.7886606,75.2809267 48.6375012,75.2809267 C48.4863418,75.2809267 48.3517444,75.2220587 48.3020627,75.1342181 C48.3233952,75.0440035 48.4335038,74.9714149 48.5783062,74.952106 Z M45.9737244,75.3527527 C46.0745487,75.3458155 46.1753818,75.3657391 46.250791,75.4074981 C46.3262002,75.4492571 46.3689864,75.508865 46.368358,75.5712872 C46.3186763,75.6591277 46.1840789,75.7179957 46.0329195,75.7179957 C45.8817601,75.7179957 45.7471626,75.6591277 45.6974809,75.5712872 C45.6932645,75.4672668 45.8088306,75.3758431 45.9737244,75.3527527 Z M46.9603084,75.3527527 C47.0723588,75.3439614 47.1845241,75.3684892 47.2624259,75.4188184 C47.3403277,75.4691477 47.3746756,75.5392762 47.354942,75.6077096 C47.3052603,75.6955502 47.1706628,75.7544182 47.0195035,75.7544182 C46.8683441,75.7544182 46.7337466,75.6955502 46.6840649,75.6077096 C46.6798485,75.5036892 46.7954146,75.4122656 46.9603084,75.3891751 L46.9603084,75.3527527 Z M47.9863558,75.4255975 C48.1761328,75.4110261 48.3505865,75.4915315 48.3809894,75.6077096 C48.3313077,75.6955502 48.1967102,75.7544182 48.0455508,75.7544182 C47.8943914,75.7544182 47.759794,75.6955502 47.7101123,75.6077096 C47.7314448,75.517495 47.8415534,75.4449064 47.9863558,75.4255975 Z M49.0913299,75.4255975 C49.1921541,75.4186604 49.2929872,75.4385839 49.3683964,75.480343 C49.4438056,75.522102 49.4865919,75.5817099 49.4859635,75.644132 C49.4362817,75.7319726 49.3016843,75.7908406 49.1505249,75.7908406 C48.9993655,75.7908406 48.8647681,75.7319726 48.8150863,75.644132 C48.8108699,75.5401117 48.926436,75.448688 49.0913299,75.4255975 Z M41.0802678,78.3758138 C45.7387575,78.4898476 50.3757842,79.0019497 54.9319071,79.9055556 C54.9713705,79.941978 54.695127,80.8161162 54.26103,81.8723665 L53.4717628,84.0577119 C53.4322994,84.239824 53.1560559,84.239824 52.4851788,84.1669792 C49.2097199,83.6934877 39.7385136,83.7299101 36.1078844,84.239824 C34.0163264,84.5312034 33.7400829,84.494781 33.8979363,84.0941343 L34.2925699,82.8193495 L34.52935,81.8359441 L36.6603715,80.8161162 C38.0808055,80.1471602 39.4286918,79.3544012 40.6856342,78.4486587 L41.0408044,78.4486587 L41.0802678,78.3758138 Z M30.4251606,83.547798 C30.5435507,83.547798 30.7803309,83.6570653 31.0565744,83.8391774 C31.451208,84.0577119 31.9247683,84.239824 32.1220851,84.239824 C33.1481325,84.239824 33.7006195,85.5874537 34.5688134,90.0674118 L34.8845203,91.6699985 C34.963447,92.0342227 34.8845203,92.1070675 33.976863,92.2891797 C32.8718889,92.5077142 32.5956454,92.5441366 32.5956454,92.3984469 C32.5956454,92.0342227 31.4906713,87.4085749 31.017111,85.7695658 C30.7813979,85.0475302 30.5708186,84.3187076 30.3856973,83.5842204 C30.3979073,83.5777142 30.4129506,83.5777142 30.4251606,83.5842204 L30.4251606,83.547798 Z M41.7116816,84.2762465 L42.856119,84.2762465 L42.4614854,84.6404707 C41.7906083,85.3689192 41.4749014,85.4053416 41.0013411,84.9318501 C40.8350175,84.7733101 40.7012999,84.5881896 40.6067075,84.3855137 C40.6067075,84.3126689 41.1197312,84.239824 41.7116816,84.239824 L41.7116816,84.2762465 Z M44.1189465,84.2762465 L46.2499679,84.2762465 L45.7764076,84.7133155 C45.2239206,85.2960743 45.1844572,85.2960743 44.5925068,84.7133155 L44.1189465,84.239824 L44.1189465,84.2762465 Z M47.354942,84.2762465 L47.8679657,84.2762465 C48.1442092,84.2762465 48.6572329,84.2762465 48.9729398,84.3490913 L49.5648902,84.4583586 L49.0124031,84.9318501 C48.6966963,85.186807 48.4204527,85.4053416 48.3809894,85.3689192 L47.8285023,84.7861604 L47.354942,84.239824 L47.354942,84.2762465 Z M50.7093276,84.3855137 L51.1828879,84.494781 C51.4591315,84.5676258 52.0510819,84.6040483 52.4851788,84.6404707 L53.274446,84.6404707 L52.6824956,85.1139622 C52.4680588,85.2985406 52.229422,85.4576087 51.9721551,85.5874537 C51.9326918,85.5874537 51.5775215,85.2960743 51.301278,84.9682725 L50.7093276,84.3855137 Z M38.7913929,84.4219361 L38.8703196,84.4219361 C38.909783,84.494781 38.7519296,84.7861604 38.475686,85.0411174 L38.0810524,85.5510313 L37.489102,85.1139622 L36.8971516,84.6404707 L37.8442723,84.5312034 L38.7913929,84.4219361 Z M39.6990502,84.494781 L40.330464,85.0046949 L40.9618777,85.5510313 L39.7779769,85.6238761 L38.5940761,85.6602986 L39.1465632,85.1139622 L39.6990502,84.494781 Z M46.802455,84.494781 C46.9208451,84.494781 46.9997718,84.5312034 47.1181619,84.6040483 C47.3245285,84.7833084 47.4978139,84.992451 47.6311855,85.2232295 C47.789039,85.5146089 47.7495756,85.5874537 47.2365519,85.5874537 L46.2499679,85.4053416 L45.7764076,85.2960743 L46.2894313,84.8225828 C46.5262115,84.6040483 46.6840649,84.4583586 46.8419183,84.4583586 L46.802455,84.494781 Z M43.5269961,84.494781 C43.7243129,84.494781 43.9216297,84.6040483 44.1584099,84.9682725 C44.4346534,85.3689192 44.4346534,85.3689192 43.3691427,85.3689192 L42.303632,85.3689192 L42.856119,84.8954277 C43.1323625,84.6404707 43.3691427,84.5312034 43.5269961,84.5312034 L43.5269961,84.494781 Z M50.2357673,84.5676258 L50.7093276,85.0046949 C51.2618147,85.4781864 51.3407414,85.7695658 50.9461078,85.7331434 L49.8411337,85.6238761 L48.9729398,85.5510313 L49.6043535,85.0775398 L50.2357673,84.5676258 Z M36.3446646,84.8225828 C36.4235913,84.8225828 36.7392982,85.0046949 36.9760784,85.2596519 L37.4496387,85.7331434 L36.4630547,85.8788331 L35.0818371,86.0609452 C34.8055936,86.1337901 34.8845203,85.9516779 35.4764707,85.4781864 C35.8711043,85.1139622 36.2657379,84.8225828 36.3446646,84.8225828 Z M34.8845203,84.8225828 L35.0423737,84.8225828 C35.3580806,84.8954277 35.3580806,84.9682725 34.8055936,85.4781864 L34.2136432,86.0245228 L34.0163264,85.5510313 C33.8584729,85.186807 33.8979363,85.0775398 34.2531065,84.9318501 C34.455302,84.8625134 34.6688435,84.8255596 34.8845203,84.8225828 Z M53.0376658,85.4781864 C53.1165926,85.4781864 53.1165926,85.5510313 53.0376658,85.696721 C52.9587391,85.9881004 52.6035689,86.0609452 52.6035689,85.7695658 C52.6035689,85.696721 52.721959,85.5874537 52.8798124,85.5146089 L52.9982025,85.5146089 L53.0376658,85.4781864 Z M44.5925068,86.0609452 C47.6311855,86.0609452 50.7093276,86.1337901 51.4591315,86.2066349 C52.6824956,86.3523246 52.8008857,86.388747 52.8008857,86.8258161 C52.8008857,87.33573 52.6430323,87.3721525 50.9855711,87.1171955 C50.5120108,87.0079282 48.4993795,86.8622385 46.5656748,86.7165488 C42.8126426,86.5071334 39.0465166,86.6290955 35.3186172,87.0807731 C34.5688134,87.1536179 34.3714966,87.0807731 34.3714966,86.8622385 C34.3714966,86.388747 38.3967593,86.0609452 44.5925068,86.0609452 Z M40.5277808,87.1171955 L42.6588022,87.1171955 L42.1852419,87.590687 C41.5932915,88.1734458 41.5538281,88.1734458 41.0013411,87.590687 L40.5277808,87.1171955 Z M43.290216,87.1171955 L43.842703,87.6271094 L44.39519,88.2098682 L43.2507526,88.2462906 L42.1063152,88.2462906 L42.6982656,87.6635319 L43.2507526,87.1171955 L43.290216,87.1171955 Z M44.1189465,87.1171955 L46.2499679,87.1171955 L45.7764076,87.590687 C45.2239206,88.1734458 45.1844572,88.1734458 44.5925068,87.590687 L44.1189465,87.1171955 Z M39.0676364,87.1171955 C39.1465632,87.1171955 39.0676364,87.2993076 38.7913929,87.6635319 C38.5151494,87.9913337 38.2389059,88.2462906 38.1994425,88.2462906 C38.1205158,88.2462906 37.8442723,88.0277561 37.6074921,87.7727991 L37.1339318,87.2993076 L37.8442723,87.2993076 C38.2054022,87.3010228 38.5647035,87.2518947 38.909783,87.1536179 C38.9618638,87.1438062 39.0155556,87.1438062 39.0676364,87.1536179 L39.0676364,87.1171955 Z M39.8569036,87.2993076 L40.3699273,87.7363767 L40.9618777,88.2098682 L39.9358304,88.2827131 L38.7913929,88.3555579 L39.34388,87.8092216 L39.8569036,87.2993076 Z M46.7235283,87.2993076 L47.2760153,87.8820664 C47.9074291,88.5012476 47.8679657,88.53767 46.4472847,88.2827131 L45.7764076,88.1734458 L46.2499679,87.7363767 L46.7235283,87.2993076 Z M47.5127955,87.2993076 L48.4599161,87.2993076 C49.4859635,87.2993076 49.6043535,87.4449973 49.0124031,87.9549112 C48.5388428,88.3191355 48.5388428,88.3191355 47.9863558,87.7727991 L47.5127955,87.2993076 Z M35.4370073,87.4814197 C35.9105676,87.4814197 35.8711043,87.5178422 35.2791539,88.0641785 C34.8450569,88.4648252 34.8055936,88.4648252 34.6477401,88.1734458 C34.52935,87.8092216 34.8845203,87.5178422 35.4370073,87.4814197 Z M50.748791,87.5542646 C50.9066444,87.5542646 51.2223513,87.5542646 51.5380582,87.6271094 L52.4457155,87.7727991 L51.9326918,88.2098682 L51.4591315,88.6469373 L51.0250345,88.1370234 L50.6304009,87.5542646 L50.748791,87.5542646 Z M36.5419814,87.7363767 C36.6603715,87.7363767 36.7787616,87.8092216 36.9760784,87.9913337 C37.370712,88.3555579 37.370712,88.3555579 37.0550051,88.5012476 C36.7491931,88.5940957 36.4297931,88.6432271 36.1078844,88.6469373 L35.4764707,88.6469373 L35.9894944,88.1370234 C36.2657379,87.8820664 36.384128,87.7727991 36.502518,87.7363767 L36.5419814,87.7363767 Z M49.9989871,87.845644 C50.1568406,87.845644 50.2752307,87.9184888 50.4725475,88.2098682 L50.8277177,88.6469373 L49.9989871,88.6469373 C49.4465001,88.6469373 49.2097199,88.5740924 49.2097199,88.4284028 C49.2886467,88.2827131 49.4859635,88.0641785 49.7227436,87.9549112 L49.9989871,87.845644 Z M52.5246422,88.3191355 C52.6035689,88.3191355 52.6035689,88.3919803 52.6035689,88.5012476 C52.6035689,88.8654718 52.2483987,89.1204288 52.0905452,88.8654718 C52.0510819,88.7562046 52.1300086,88.5740924 52.287862,88.4648252 L52.5246422,88.3191355 Z M42.303632,88.7562046 C45.7369443,88.7562046 49.5254268,88.9747391 51.7748383,89.3389633 L52.4062521,89.4482306 L52.4062521,91.0508173 C52.4062521,92.2527572 52.3273254,92.6534039 52.1300086,92.6534039 L50.1568406,92.2891797 C45.593587,91.5750668 40.9446514,91.4524753 36.3446646,91.9249554 L35.4370073,92.0342227 L35.2002272,90.686593 C35.1021481,90.2306282 35.0493116,89.7673603 35.0423737,89.3025409 C35.0423737,89.3025409 35.950031,89.1204288 37.0155417,89.0111615 C38.3178326,88.8290494 40.2515372,88.7562046 42.303632,88.7562046 Z" id="Shape" stroke="none" fill="#000000" fill-rule="nonzero"></path>
                        <path d="M49.2233195,79.0365631 C48.0370029,79.0365631 47.2065814,79.8294752 47.2065814,80.9999646 C47.2065814,82.8123352 49.3419511,83.7185206 50.6073554,82.434758 C51.8727597,81.1509955 51.0027943,79.0365631 49.2233195,79.0365631 Z M49.2233195,79.4896557 C49.6428271,79.4896557 50.0451527,79.6487771 50.3417894,79.932015 C50.6384261,80.2152528 50.8050748,80.5994058 50.8050748,80.9999646 C50.8050748,82.1326963 49.5001267,82.8878507 48.4324418,82.3970003 C47.3647569,81.8306345 47.4438447,80.0937793 48.5906173,79.6406866 C48.7771028,79.5563988 48.9780972,79.5052213 49.1837756,79.4896557 L49.2233195,79.4896557 Z" id="b" stroke="none" fill="#000000" fill-rule="nonzero"></path>
                        <g id="b-link" stroke="none" stroke-width="1" fill="none" fill-rule="evenodd" transform="translate(39.206581, 79.036563)">
                            <path d="M2.10909091,0.266666667 C1.01818182,0.266666667 0.254545455,0.966666667 0.254545455,2 C0.254545455,3.6 2.21818182,4.4 3.38181818,3.26666667 C4.54545455,2.13333333 3.74545455,0.266666667 2.10909091,0.266666667 Z M2.10909091,0.666666667 C2.49486035,0.666666667 2.86482968,0.807142454 3.13760986,1.05719096 C3.41039005,1.30723946 3.56363636,1.64637801 3.56363636,2 C3.56363636,3 2.36363636,3.66666667 1.38181818,3.23333333 C0.4,2.73333333 0.472727273,1.2 1.52727273,0.8 C1.69876047,0.725588862 1.88359021,0.680408259 2.07272727,0.666666667 L2.10909091,0.666666667 Z" id="b" fill="#000000" fill-rule="nonzero"></path>
                        </g>
                        <path d="M34.6637242,53.0401417 C34.4167622,53.0548911 34.2199167,53.2601856 34.2065814,53.5169062 C34.2065814,53.8039048 34.430439,54.0365631 34.7065814,54.0365631 C34.9827237,54.0365631 35.2065814,53.8039048 35.2065814,53.5169062 C35.2000488,53.3769999 35.1378787,53.2462041 35.0349381,53.1557965 C34.9319976,53.0653889 34.797542,53.0234981 34.6637242,53.0401417 Z M34.6922956,53.2084115 C34.8816504,53.2084115 35.0351528,53.3465293 35.0351528,53.5169062 C35.0351528,53.6872831 34.8816504,53.8254009 34.6922956,53.8254009 C34.5029409,53.8254009 34.3494385,53.6872831 34.3494385,53.5169062 C34.3494385,53.4350884 34.3855608,53.3566215 34.449859,53.2987675 C34.5141572,53.2409136 34.6013643,53.2084115 34.6922956,53.2084115 Z" id="Shape" stroke="none" fill="#000000" fill-rule="nonzero"></path>
                    </g>
                </g>
            </g>
        </g>
    </g>
</svg>